<?xml version="1.0" encoding="utf-8"?>
<!-- DO NOT EDIT THIS, THIS FILE IS GENERATED FROM "2_13-22_9.original.svg" using transform-svgs.js script -->
<!-- Generator: Adobe Illustrator 24.2.0, SVG Export Plug-In . SVG Version: 6.00 Build 0)  -->
<!DOCTYPE svg PUBLIC "-//W3C//DTD SVG 1.1//EN" "http://www.w3.org/Graphics/SVG/1.1/DTD/svg11.dtd" [
	<!ENTITY ns_extend "http://ns.adobe.com/Extensibility/1.0/">
	<!ENTITY ns_ai "http://ns.adobe.com/AdobeIllustrator/10.0/">
	<!ENTITY ns_graphs "http://ns.adobe.com/Graphs/1.0/">
	<!ENTITY ns_vars "http://ns.adobe.com/Variables/1.0/">
	<!ENTITY ns_imrep "http://ns.adobe.com/ImageReplacement/1.0/">
	<!ENTITY ns_sfw "http://ns.adobe.com/SaveForWeb/1.0/">
	<!ENTITY ns_custom "http://ns.adobe.com/GenericCustomNamespace/1.0/">
	<!ENTITY ns_adobe_xpath "http://ns.adobe.com/XPath/1.0/">
]>
<svg version="1.1" id="Слой_1" xmlns:x="&ns_extend;" xmlns:i="&ns_ai;" xmlns:graph="&ns_graphs;"
	 xmlns="http://www.w3.org/2000/svg" xmlns:xlink="http://www.w3.org/1999/xlink" x="0px" y="0px" viewBox="0 0 150 100"
	 style="enable-background:new 0 0 150 100;" xml:space="preserve"><g transform="translate(13.452839582729977 8.968559721819986) scale(0.8206288055636003)">
<style type="text/css">
	.st0{fill:#DBD4CA;}
	.st1{fill:none;stroke:#565440;}
	.st2{fill:none;stroke:#565440;stroke-width:1.0000414;stroke-miterlimit:4.0001655;}
	.st3{fill:#565440;}
</style>
<metadata>
	<sfw  xmlns="&ns_sfw;">
		<slices></slices>
		<sliceSourceBounds  bottomLeftOrigin="true" height="100" width="79.9451523" x="35.0274239" y="0"></sliceSourceBounds>
	</sfw>
</metadata>
<polygon id="Floor" class="st0" points="113.8098145,91.8190155 113.8098145,11.4268036 36.2331276,11.4104757 
	36.2331276,93.6134949 53.8282204,93.8711624 73.526886,99.1509323 75.509201,94.2392654 90.9581146,94.8352661 
	108.6165314,99.3086243 "/>
<path id="Doors" class="st1" d="M73.6965256,26.7530499c-1.1948624,0-2.1723709,0.2172146-3.2585526,0.6517353
	c-1.0861893,0.4345455-2.0637207,1.0861874-2.8241577,1.8466473c-0.8689728,0.7602959-1.520752,1.7379684-1.9551849,2.8241558
	c-0.4344482,1.0861626-0.6517563,2.1723938-0.6517563,3.3672371h8.6896515 M73.6965256,54.0817184
	c-1.1948624,0-2.1723938-0.2172127-3.2586975-0.6517601c-1.0861893-0.4345207-2.0638123-1.0861855-2.8241577-1.8466225
	c-0.8689728-0.7603188-1.5207291-1.7379684-1.9551544-2.8241539c-0.4344254-1.0861893-0.6517868-2.1723976-0.6517868-3.3672371
	h8.689682 M80.2138367,11.4104786c0-1.4120779,0.3258667-2.7638102,0.8689728-4.0673518
	c0.5431061-1.3035178,1.303421-2.6069179,2.3896103-3.58445c0.9775314-0.9776266,2.1723938-1.8465047,3.475914-2.3897278
	C88.2517319,0.8258677,89.6638107,0.5,91.0758896,0.5l-0.0000229,10.9103365"/>
<g id="Windows">
	
		<rect x="64.0592346" y="86.2817841" transform="matrix(0.2514893 -0.9678601 0.9678601 0.2514893 -44.41642 134.6909485)" class="st2" width="1.6269501" height="19.5599365"/>
	
		<rect x="98.9738617" y="87.3779297" transform="matrix(0.2514893 -0.9678601 0.9678601 0.2514893 -18.5023537 168.6535034)" class="st2" width="1.6269501" height="17.8220615"/>
</g>
<g id="Walls">
	<polygon class="st3" points="38.9377899,37.2415886 73.6965561,37.2415886 73.6965561,45.3919449 74.7827148,45.3919449 
		74.7827148,35.4428253 73.6965561,35.4428253 73.6965561,36.1553764 38.9377899,36.155426 38.9377899,14.6208696 
		73.6965561,14.6208229 73.6965561,26.7530499 74.7827148,26.7530499 74.7827148,14.6208229 80.2676315,14.6208229 
		80.2676315,11.3622408 35.6792068,11.3622875 35.6792068,96.5398102 35.0274239,99.2397308 38.1774712,100 38.9377899,96.8499527 
		38.9377899,95.0005417 56.3172417,95.0005417 56.3172417,88.4887238 38.9377899,88.4887238 	"/>
	<polygon class="st3" points="114.9725266,11.3622408 91.1296844,11.3622408 91.1296844,14.6208229 111.7138519,14.6208229 
		111.7138519,36.155426 91.4934082,36.1554718 91.4934082,37.2416344 111.7138519,37.2416344 111.7138977,88.4887238 
		109.0189438,88.4887238 109.0189438,93.9141922 107.8241959,99.236702 110.9741058,99.9970703 112.0958328,95.0004959 
		114.9725723,95.0004959 	"/>
	<polygon class="st3" points="74.7827606,89.569397 74.7827148,54.0817184 73.6965561,54.0817184 73.6965561,93.9141922 
		72.5018082,99.236702 75.6517105,99.9970703 76.7734375,95.0004959 87.6180878,95.0012512 91.3836899,95.8703842 
		92.5785751,90.5479202 88.4509048,89.570343 	"/>
</g>
</g></svg>
