<?xml version="1.0" encoding="utf-8"?>
<!-- DO NOT EDIT THIS, THIS FILE IS GENERATED FROM "2_13-22_6.original.svg" using transform-svgs.js script -->
<!-- Generator: Adobe Illustrator 24.2.0, SVG Export Plug-In . SVG Version: 6.00 Build 0)  -->
<!DOCTYPE svg PUBLIC "-//W3C//DTD SVG 1.1//EN" "http://www.w3.org/Graphics/SVG/1.1/DTD/svg11.dtd" [
	<!ENTITY ns_extend "http://ns.adobe.com/Extensibility/1.0/">
	<!ENTITY ns_ai "http://ns.adobe.com/AdobeIllustrator/10.0/">
	<!ENTITY ns_graphs "http://ns.adobe.com/Graphs/1.0/">
	<!ENTITY ns_vars "http://ns.adobe.com/Variables/1.0/">
	<!ENTITY ns_imrep "http://ns.adobe.com/ImageReplacement/1.0/">
	<!ENTITY ns_sfw "http://ns.adobe.com/SaveForWeb/1.0/">
	<!ENTITY ns_custom "http://ns.adobe.com/GenericCustomNamespace/1.0/">
	<!ENTITY ns_adobe_xpath "http://ns.adobe.com/XPath/1.0/">
]>
<svg version="1.1" id="Слой_1" xmlns:x="&ns_extend;" xmlns:i="&ns_ai;" xmlns:graph="&ns_graphs;"
	 xmlns="http://www.w3.org/2000/svg" xmlns:xlink="http://www.w3.org/1999/xlink" x="0px" y="0px" viewBox="0 0 150 100"
	 style="enable-background:new 0 0 150 100;" xml:space="preserve"><g transform="translate(29.65046535632572 19.76697690421715) scale(0.604660461915657)">
<style type="text/css">
	.st0{fill:#DBD4CA;}
	.st1{fill:none;stroke:#565440;}
	.st2{fill:#565440;}
</style>
<metadata>
	<sfw  xmlns="&ns_sfw;">
		<slices></slices>
		<sliceSourceBounds  bottomLeftOrigin="true" height="84.1373062" width="149.9944305" x="0" y="7.9313459"></sliceSourceBounds>
	</sfw>
</metadata>
<polygon id="Floor" class="st0" points="48.4294243,90.9631882 141.1779175,90.9631882 144.1900787,85.8536758 
	148.0352783,69.191246 142.5398712,67.5153351 142.503067,37.2944794 149.644165,12.114954 1.8895706,12.0985966 
	1.8895706,61.9202499 32.9586525,62.295311 32.9595757,69.7929916 48.4294243,69.7929916 "/>
<g id="Windows">
	<path class="st1" d="M148.3828583,66.994072l-4.7185822,20.4470139l-1.5775757-0.3155136l4.7185822-20.4470215
		L148.3828583,66.994072z"/>
	<path class="st1" d="M76.7750626,12.1382685v1.5775404l-30.4997253,0.0000114v-1.5775404L76.7750626,12.1382685z"/>
	<polygon class="st1" points="149.3436279,12.1382456 118.4231339,12.138257 118.4231339,13.7158318 147.2401123,13.7158203 
		142.4022064,32.2260246 143.8746796,32.6467247 	"/>
</g>
<path id="Doors" class="st1" d="M100.9646301,64.7240524c1.1569443,0,2.1034317-0.2103424,3.1552429-0.6310654
	c1.0516739-0.4206276,1.9982986-1.0516891,2.7344284-1.7878647c0.8414001-0.7362671,1.4724808-1.6827774,1.8931122-2.7344704
	s0.6310425-2.1034126,0.6310425-3.2603073h-8.4136887 M96.7577209,53.1552162c0-1.1568947-0.2103119-2.1034317-0.6310349-3.1551247
	c-0.4207764-1.0516701-1.0517197-1.9982986-1.7878952-2.7344475c-0.7361755-0.8413773-1.6827545-1.4724655-2.7344742-1.8930969
	c-1.0516663-0.4206543-2.1033859-0.6310616-3.2602768-0.6310616v8.4137306 M80.9820251,67.8792496
	c0-1.1568985,0.2103119-2.1034164,0.6310349-3.1551056c0.4206314-1.051693,1.0517197-1.9982986,1.7878876-2.7344704
	c0.7361755-0.8413811,1.6827621-1.4724655,2.7344742-1.8930969c1.0516739-0.4206314,2.1033859-0.6310616,3.2602844-0.6310616
	v8.4137344 M99.9129181,30.0173893c-1.1568985,0-2.1033859,0.2103157-3.1550598,0.6310387
	c-1.0517197,0.4207458-1.9982986,1.051693-2.7344742,1.787981c-0.8414001,0.7361755-1.472435,1.6827812-1.8930664,2.7344742
	c-0.4206772,1.051693-0.6310883,2.1034317-0.6310883,3.2603302h8.4136887 M26.2927036,28.9657078
	c1.1569195,0,2.1034088-0.2103157,3.1551247-0.6310501c1.0516949-0.4207363,1.9982758-1.0516949,2.7344723-1.7879829
	c0.8413773-0.7361736,1.4724388-1.6827774,1.8930702-2.7344723c0.4206314-1.051693,0.6310616-2.1034203,0.6310616-3.2603168
	h-8.4137058 M9.4652872,42.638031c0-1.1568985,0.2103386-2.1034088,0.6310844-3.1551018
	c0.4206314-1.051693,1.0516939-1.9981842,1.7878675-2.7344742c0.7361736-0.8413773,1.6827555-1.4724617,2.7344713-1.8930931
	c1.0516939-0.4207458,2.1033869-0.6310616,3.2603064-0.6310616v8.4137306 M51.5339622,76.2929535
	c1.36726,0,2.6292458,0.3155212,3.8913689,0.8413773c1.2620354,0.5258331,2.5241585,1.2621231,3.4706459,2.3138199
	c0.9465828,0.9464874,1.7878914,2.1034317,2.3138428,3.3655319c0.525856,1.262146,0.8413544,2.6292648,0.8413544,3.9964828
	H51.5340538"/>
<g id="Walls">
	<polygon class="st2" points="137.7799683,88.9135513 100.9646301,88.9135513 100.9646301,64.7240295 99.9128265,64.7240295 
		99.9128265,67.8792267 89.3957062,67.8792267 89.3957062,68.9309387 99.9128265,68.9309387 99.9128723,88.9135513 
		72.5681992,88.9135513 72.5681992,68.9309387 80.9820251,68.9309387 80.9820251,67.8792267 71.5164795,67.8792267 
		71.5164795,88.9135513 51.5339622,88.9135513 51.5339622,86.8100739 48.3787689,86.8100739 48.3787689,92.0686569 
		144.0850067,92.0686569 144.0850067,84.7066422 137.7799683,84.7066422 	"/>
	<polygon class="st2" points="88.3440399,54.206913 88.3440399,53.1551933 76.7751083,53.1551933 76.7751083,41.5863152 
		100.9646301,41.5863152 100.9646301,38.431076 99.9128265,38.431076 99.9128265,40.5345535 76.7751083,40.5345993 
		76.7750626,17.3888264 99.9128265,17.3888264 99.9128265,30.0173893 100.9646301,30.0173893 100.9646301,17.3888264 
		128.3092651,17.3887806 128.3092651,11.0865412 127.2574463,11.0865412 127.2574463,7.9313459 124.1023483,7.9313459 
		124.1023483,11.0865412 111.4817505,11.0865412 111.4817505,7.9313459 108.3266449,7.9313459 108.3266449,11.0865412 
		95.7060013,11.0865412 95.7060013,7.9313459 92.5508118,7.9313459 92.5508118,11.0865412 78.8784943,11.0865412 
		78.8784943,7.9313459 75.7233963,7.9313459 75.7233963,54.206913 	"/>
	<rect x="59.9476471" y="7.9313459" class="st2" width="3.1551032" height="7.3620143"/>
	<polygon class="st2" points="143.0333252,65.4117126 143.0332794,36.5380936 144.7160492,32.3311844 141.7713013,31.1742401 
		141.3926544,32.1208687 139.8780975,32.1208687 139.8780975,34.2242546 137.7799683,34.2242546 137.7799683,41.5862694 
		139.8780975,41.5862694 139.8780975,53.1551933 96.7577209,53.1551933 96.7577209,54.206913 99.9128265,54.206913 
		99.9128265,56.3102989 100.9646301,56.3102989 100.9646301,54.206913 139.8780975,54.206913 139.8780975,67.443573 
		139.772995,67.8792267 147.9763641,69.7722931 148.7125397,66.7222824 	"/>
	<polygon class="st2" points="48.3787689,76.2930908 51.5338707,76.2930908 51.5338707,67.879364 51.5338249,60.5172539 
		50.4822464,60.5172539 50.4822464,67.8792725 34.7065468,67.8792725 34.7065468,61.5689697 19.9825191,61.5689697 
		19.9825191,30.0174809 26.2928181,30.0174809 26.2928181,28.9658108 18.9308033,28.9658108 18.9308033,42.6381226 
		17.8790855,42.6381226 17.8790855,43.6898384 18.9308033,43.6898384 18.9308033,61.568924 3.1550574,61.568924 
		3.1550574,43.6898384 9.4653559,43.6898384 9.4653559,42.6381226 3.1550574,42.6381226 3.1550574,17.1892242 
		25.2411003,17.1892242 25.2411003,20.5521259 26.2928181,20.5521259 26.2928181,17.1892242 47.3271446,17.1892242 
		47.3271446,7.9315748 44.1720428,7.9315748 44.1720428,11.0866785 30.4997292,11.0866785 30.4997292,7.9315748 
		27.3445339,7.9315748 27.3445339,11.0866785 0,11.0864954 0,64.7242584 31.5513077,64.7242584 31.5513535,71.034462 
		48.3787689,71.034462 	"/>
</g>
</g></svg>
