<?xml version="1.0" encoding="utf-8"?>
<!-- DO NOT EDIT THIS, THIS FILE IS GENERATED FROM "2_13-22_5.original.svg" using transform-svgs.js script -->
<!-- Generator: Adobe Illustrator 24.2.0, SVG Export Plug-In . SVG Version: 6.00 Build 0)  -->
<!DOCTYPE svg PUBLIC "-//W3C//DTD SVG 1.1//EN" "http://www.w3.org/Graphics/SVG/1.1/DTD/svg11.dtd" [
	<!ENTITY ns_extend "http://ns.adobe.com/Extensibility/1.0/">
	<!ENTITY ns_ai "http://ns.adobe.com/AdobeIllustrator/10.0/">
	<!ENTITY ns_graphs "http://ns.adobe.com/Graphs/1.0/">
	<!ENTITY ns_vars "http://ns.adobe.com/Variables/1.0/">
	<!ENTITY ns_imrep "http://ns.adobe.com/ImageReplacement/1.0/">
	<!ENTITY ns_sfw "http://ns.adobe.com/SaveForWeb/1.0/">
	<!ENTITY ns_custom "http://ns.adobe.com/GenericCustomNamespace/1.0/">
	<!ENTITY ns_adobe_xpath "http://ns.adobe.com/XPath/1.0/">
]>
<svg version="1.1" id="Слой_1" xmlns:x="&ns_extend;" xmlns:i="&ns_ai;" xmlns:graph="&ns_graphs;"
	 xmlns="http://www.w3.org/2000/svg" xmlns:xlink="http://www.w3.org/1999/xlink" x="0px" y="0px" viewBox="0 0 150 100"
	 style="enable-background:new 0 0 150 100;" xml:space="preserve"><g transform="translate(16.66148640801795 11.1076576053453) scale(0.777846847893094)">
<style type="text/css">
	.st0{fill:#DBD4CA;}
	.st1{fill:none;stroke:#565440;}
	.st2{fill:#565440;}
</style>
<metadata>
	<sfw  xmlns="&ns_sfw;">
		<slices></slices>
		<sliceSourceBounds  bottomLeftOrigin="true" height="100.1228485" width="84.7731934" x="28.0051613" y="-0.0614417">
			</sliceSourceBounds>
	</sfw>
</metadata>
<polygon id="Floor" class="st0" points="112.2783585,0.4495791 37.3274689,0.4386083 37.3274689,99.5614243 112.2783585,99.5614243 
	"/>
<polygon id="Windows" class="st1" points="112.2770538,0.4385929 43.8559608,0.4386144 43.8559608,1.7544003 110.9613037,1.7543788 
	110.9613037,98.2456512 99.119194,98.2456589 99.119194,99.5614395 112.2783508,99.5614395 "/>
<path id="Doors" class="st1" d="M37.2770538,88.8825684c-1.1403351,0-2.1929436-0.2631683-3.2456284-0.7017593
	c-1.0526123-0.4385757-2.1052952-1.0526962-2.8947239-1.9298706c-0.7894268-0.789505-1.4912052-1.754364-1.9297638-2.8070374
	c-0.4385948-1.0526962-0.7017765-2.192955-0.7017765-3.3332977h8.7719688 M79.3823166,40.3508873
	c0.96492,0,1.7543488,0.1754189,2.6315384,0.5263367c0.8771591,0.3508377,1.6666641,0.8771706,2.2807083,1.4911766
	c0.7017441,0.6140823,1.2281036,1.4035301,1.5789337,2.2807045s0.5263214,1.7543716,0.5263214,2.7192917l-7.0175018,0.0000038
	 M69.7332306,37.719265c0-0.96492,0.175415-1.7543716,0.5263596-2.6315422
	c0.350914-0.8771744,0.8771973-1.6665955,1.4911728-2.2807083c0.614006-0.7017517,1.4035492-1.2281189,2.2807083-1.5789566
	c0.8771896-0.3509159,1.7543869-0.5263329,2.7193069-0.5263329v7.01754 M54.8209114,37.7192688
	c0-0.96492-0.175415-1.7543716-0.5263596-2.6315384c-0.3508339-0.8771744-0.8771935-1.6665993-1.4912071-2.2807121
	c-0.6139717-0.7017517-1.4035149-1.2281132-2.2806702-1.5789509c-0.8771935-0.3509159-1.7543869-0.5263367-2.7193069-0.5263329
	v7.0175381 M53.9437561,72.8070831c0-0.9649277,0.1754189-1.7543716,0.5263252-2.6316223
	c0.3509445-0.8772507,0.8771935-1.6665955,1.4912033-2.2807159c0.6140137-0.7017517,1.4035187-1.2281189,2.2807121-1.578949
	c0.8771935-0.350914,1.7543449-0.5263443,2.7193031-0.5263443v7.0175476"/>
<g id="Walls">
	<rect x="56.575222" class="st2" width="6.1403508" height="5.2587276"/>
	<polygon class="st2" points="78.5051193,37.7192612 76.7507401,37.7192612 76.7507401,38.5965309 78.5051193,38.5965309 
		78.5051193,40.3508759 79.3822784,40.3508759 79.3822784,4.386003 81.1367035,4.386003 81.1367035,0 74.9962769,0 
		74.9962769,4.386003 78.5050812,4.386003 	"/>
	<rect x="93.4174042" class="st2" width="6.1403508" height="5.2587276"/>
	<rect x="107.4568863" y="20.1753998" class="st2" width="5.2587657" height="6.1403508"/>
	<rect x="108.3296814" y="76.3157883" class="st2" width="4.386003" height="6.1403508"/>
	<polygon class="st2" points="63.5928802,85.0877228 68.8559647,85.0876846 68.8559647,84.2104874 62.7156105,84.2104874 
		62.7156105,95.6140366 39.9085922,95.6140366 39.9085922,88.8825684 37.2770538,88.8825684 37.2770538,100 99.5577927,100 
		99.5577927,95.6140366 63.5928802,95.6140366 	"/>
	<polygon class="st2" points="107.4568863,57.0175438 107.4568863,63.1579323 112.7156525,63.1579323 112.7156525,38.5965309 
		108.3296432,38.5965309 108.3296432,48.245575 79.3822784,48.2456131 79.3822784,47.3684196 78.5051193,47.3684196 
		78.5051193,49.1227684 108.3296432,49.1227684 108.3296432,57.0175438 	"/>
	<polygon class="st2" points="39.9085922,80.1106033 39.9085922,73.6841736 53.943718,73.6841736 53.943718,72.8070908 
		39.9085922,72.8070908 39.9085541,56.1403885 62.7156105,56.1403885 62.7156105,72.8070526 60.9612617,72.8070526 
		60.9612617,73.6841736 68.8559647,73.6841736 68.8559647,72.8070526 63.5928802,72.8070526 63.5928802,38.5965309 
		69.7331161,38.5965309 69.7331161,37.7192612 54.8208733,37.7192612 54.8208733,38.5965691 62.7156105,38.5965309 
		62.7156105,55.2631569 39.9085541,55.2631569 39.9085541,38.5965691 47.8033676,38.5965691 47.8033676,37.7192612 
		39.9085541,37.7192612 39.9085541,5.2587657 44.2945213,5.2587276 44.2945213,0 37.2770157,0 37.2770538,80.1106033 	"/>
</g>
</g></svg>
