<?xml version="1.0" encoding="utf-8"?>
<!-- DO NOT EDIT THIS, THIS FILE IS GENERATED FROM "2_13-22_1.original.svg" using transform-svgs.js script -->
<!-- Generator: Adobe Illustrator 24.2.0, SVG Export Plug-In . SVG Version: 6.00 Build 0)  -->
<!DOCTYPE svg PUBLIC "-//W3C//DTD SVG 1.1//EN" "http://www.w3.org/Graphics/SVG/1.1/DTD/svg11.dtd" [
	<!ENTITY ns_extend "http://ns.adobe.com/Extensibility/1.0/">
	<!ENTITY ns_ai "http://ns.adobe.com/AdobeIllustrator/10.0/">
	<!ENTITY ns_graphs "http://ns.adobe.com/Graphs/1.0/">
	<!ENTITY ns_vars "http://ns.adobe.com/Variables/1.0/">
	<!ENTITY ns_imrep "http://ns.adobe.com/ImageReplacement/1.0/">
	<!ENTITY ns_sfw "http://ns.adobe.com/SaveForWeb/1.0/">
	<!ENTITY ns_custom "http://ns.adobe.com/GenericCustomNamespace/1.0/">
	<!ENTITY ns_adobe_xpath "http://ns.adobe.com/XPath/1.0/">
]>
<svg version="1.1" id="Слой_1" xmlns:x="&ns_extend;" xmlns:i="&ns_ai;" xmlns:graph="&ns_graphs;"
	 xmlns="http://www.w3.org/2000/svg" xmlns:xlink="http://www.w3.org/1999/xlink" x="0px" y="0px" viewBox="0 0 150 100"
	 style="enable-background:new 0 0 150 100;" xml:space="preserve"><g transform="translate(29.03586496857529 19.357243312383527) scale(0.6128551337523295)">
<style type="text/css">
	.st0{fill:#DBD4CA;}
	.st1{fill:none;stroke:#565440;}
	.st2{fill:#565440;}
</style>
<metadata>
	<sfw  xmlns="&ns_sfw;">
		<slices></slices>
		<sliceSourceBounds  bottomLeftOrigin="true" height="79.7204361" width="150" x="0" y="10.139781"></sliceSourceBounds>
	</sfw>
</metadata>
<polygon id="Floor_1_" class="st0" points="0.6380368,11.8182955 98.6014023,11.83992 98.6014023,31.8834362 
	113.4233093,32.1779137 113.4233093,38.6564407 147.2883453,38.8036804 147.2883453,89.1954727 0.6587666,89.1954727 "/>
<path id="Windows" class="st1" d="M2.0978959,87.7623138L2.097873,11.818305H0.5244811l0.0000286,77.5174408l104.8951187-0.0000381
	v-1.5733948L2.0978959,87.762352V87.7623138z"/>
<path id="Doors" class="st1" d="M66.0840073,33.2168236c0,1.1538544-0.2097626,2.0978889-0.6293869,3.1469078
	c-0.419632,1.0489273-1.0489273,1.9929161-1.7832832,2.7272797c-0.7342377,0.8391571-1.6783524,1.4685822-2.7272797,1.8881187
	s-2.0978889,0.6293907-3.2517433,0.6293907v-8.3915939 M51.3987007,47.9021111c0,1.1538658,0.2097626,2.0978889,0.6293907,3.1469078
	c0.4195366,1.0489273,1.0489273,1.9929161,1.7831535,2.7272797c0.7342262,0.8391571,1.6783524,1.4685936,2.7272797,1.8881187
	c1.0489311,0.4195366,2.0978928,0.6293907,3.2517471,0.6293907v-8.3915939 M47.202858,36.3636398
	c-1.1538544,0-2.0978813,0.2097626-3.1468086,0.6293907s-1.9930458,1.0489273-2.7272797,1.7832909
	c-0.8391609,0.73423-1.468586,1.6783562-1.8881149,2.7272835c-0.4195328,1.0489159-0.6293907,2.0978775-0.6293907,3.2517319
	h8.3915977 M48.2518005,70.9790039c1.1538582,0,2.0978813-0.2097626,3.1468086-0.6293945
	c1.0489273-0.4196243,1.993042-1.0489273,2.7272797-1.7831497c0.8391533-0.7343292,1.4685783-1.6783524,1.8881149-2.7272797
	c0.4196281-1.0489349,0.6293945-2.0978928,0.6293945-3.2517471h-8.3916092 M120.629509,73.0769653
	c-1.1538696,0-2.0978928,0.2097626-3.1468201,0.6293869c-1.0489273,0.419632-1.9929199,1.0489273-2.7272797,1.7832947
	c-0.8391571,0.7342224-1.4685822,1.6783524-1.8881226,2.7272797c-0.4196243,1.048912-0.6293869,2.0978775-0.6293869,3.2517319
	h8.3916092 M138.4615936,58.3915367c0,1.1538544-0.2097626,2.0978889-0.6293945,3.1468201
	c-0.4195251,1.0489159-1.0489349,1.993042-1.7831573,2.7272682c-0.734314,0.8391647-1.67836,1.4685898-2.7272644,1.8881302
	c-1.0489349,0.4195251-2.0979004,0.6293869-3.2517548,0.6293869v-8.3916054 M95.4546204,24.8252163
	c-1.3636322,0-2.6223526-0.3147011-3.881134-0.8391647c-1.2588272-0.5244637-2.5175247-1.2588158-3.4615097-2.307745
	c-0.9440002-0.9440918-1.783165-2.0978889-2.3076553-3.3566704c-0.5244598-1.2588177-0.8391647-2.6223431-0.8391647-3.9859724
	h10.4895554"/>
<g id="Walls">
	<polygon class="st2" points="5.2448449,47.9021454 51.3985863,47.9020996 51.3985863,46.8531952 48.2517776,46.8531952 
		48.2517776,44.755291 47.2028732,44.755291 47.2028732,46.8531952 5.2448449,46.8531952 5.2447991,35.3146896 
		0.0000457,35.3146896 0.0000457,64.6853104 6.2884521,64.6853104 6.2884521,57.3426552 5.2448449,57.3426552 	"/>
	<rect x="15.7343063" y="83.5717697" class="st2" width="7.3426094" height="6.2884521"/>
	<rect x="82.8672028" y="84.6153717" class="st2" width="7.3426552" height="5.2447991"/>
	<polygon class="st2" points="59.7902832,47.9020996 71.3286972,47.9020996 71.3286972,60.4895515 47.2028732,60.4895515 
		47.2028732,62.58741 48.2517776,62.58741 48.2517776,61.5385056 71.3286972,61.5385056 71.3286972,83.5717697 
		65.0349884,83.5717697 65.0349884,84.6153717 48.2518234,84.6153717 48.2518234,70.9790115 47.2028732,70.9790115 
		47.2028732,84.6153717 43.0070267,84.6153717 43.0070267,89.8601761 72.377739,89.8601303 72.377739,46.8531952 
		59.7902832,46.8531952 	"/>
	<polygon class="st2" points="149.9999542,37.4126358 144.7552948,37.4126358 115.3847198,37.4126358 115.3847198,30.069891 
		98.6014175,30.069891 98.6014175,24.825182 95.4546051,24.8252277 95.4546051,40.5594444 96.5035553,40.5594444 
		96.5035553,33.2167892 112.2377701,33.2167892 112.2377701,40.5594444 127.9720383,40.5594444 127.9720383,70.9789658 
		120.6293793,70.9789658 120.6293793,73.0769653 121.6783295,73.0769653 121.6783295,72.027916 129.0210724,72.027916 
		129.0210724,58.3915138 130.0699768,58.3915138 130.0699768,57.3426094 129.0210724,57.3426094 129.0210724,40.5594444 
		144.7553406,40.5594444 144.7553406,57.3426094 138.4615936,57.3426094 138.4615936,58.3915138 144.7553406,58.3915138 
		144.7553406,83.5717697 121.6783295,83.5717697 121.6783295,81.4685669 120.6293793,81.4685669 120.6293793,83.5717697 
		104.8951187,83.5717697 104.8951187,89.8601303 150,89.8601303 	"/>
	<polygon class="st2" points="95.4546051,14.3356752 98.6014175,14.3356752 98.6014175,10.139781 0,10.1398268 
		0.0000457,19.5804749 6.2884521,19.5804749 6.2884521,13.2867699 47.2028732,13.2867241 47.2028732,36.3636398 
		48.2517776,36.3636398 48.2517776,33.216835 57.692337,33.216835 57.692337,32.1678848 48.2517776,32.1678848 
		48.2517776,13.2867241 74.4755936,13.2867241 74.4755936,32.1678391 66.0840302,32.1678391 66.0840302,33.216835 
		75.524498,33.216835 75.524498,32.1678391 75.524498,13.2867241 95.4546051,13.2867241 	"/>
</g>
</g></svg>
