<?xml version="1.0" encoding="utf-8"?>
<!-- DO NOT EDIT THIS, THIS FILE IS GENERATED FROM "2_23_5.original.svg" using transform-svgs.js script -->
<!-- Generator: Adobe Illustrator 24.2.0, SVG Export Plug-In . SVG Version: 6.00 Build 0)  -->
<!DOCTYPE svg PUBLIC "-//W3C//DTD SVG 1.1//EN" "http://www.w3.org/Graphics/SVG/1.1/DTD/svg11.dtd" [
	<!ENTITY ns_extend "http://ns.adobe.com/Extensibility/1.0/">
	<!ENTITY ns_ai "http://ns.adobe.com/AdobeIllustrator/10.0/">
	<!ENTITY ns_graphs "http://ns.adobe.com/Graphs/1.0/">
	<!ENTITY ns_vars "http://ns.adobe.com/Variables/1.0/">
	<!ENTITY ns_imrep "http://ns.adobe.com/ImageReplacement/1.0/">
	<!ENTITY ns_sfw "http://ns.adobe.com/SaveForWeb/1.0/">
	<!ENTITY ns_custom "http://ns.adobe.com/GenericCustomNamespace/1.0/">
	<!ENTITY ns_adobe_xpath "http://ns.adobe.com/XPath/1.0/">
]>
<svg version="1.1" id="Слой_1" xmlns:x="&ns_extend;" xmlns:i="&ns_ai;" xmlns:graph="&ns_graphs;"
	 xmlns="http://www.w3.org/2000/svg" xmlns:xlink="http://www.w3.org/1999/xlink" x="0px" y="0px" viewBox="0 0 150 100"
	 style="enable-background:new 0 0 150 100;" xml:space="preserve"><g transform="translate(13.714987256015112 9.143324837343409) scale(0.8171335032531318)">
<style type="text/css">
	.st0{fill:#DBD4CA;}
	.st1{fill:none;stroke:#565440;}
	.st2{fill:none;stroke:#565440;stroke-width:1.0000414;stroke-miterlimit:4.0003653;}
	.st3{fill:#565440;}
</style>
<metadata>
	<sfw  xmlns="&ns_sfw;">
		<slices></slices>
		<sliceSourceBounds  bottomLeftOrigin="true" height="100" width="80.6105576" x="34.6947212" y="0"></sliceSourceBounds>
	</sfw>
</metadata>
<polygon id="Floor_1_" class="st0" points="37.1717796,93.7239227 50.6993866,93.7239227 70.3863983,99.3221741 
	71.9570541,93.7239227 86.4785309,93.7239227 106.991394,99.2728577 107.6663208,93.7239227 115.305275,93.7239227 
	115.305275,11.4605513 37.1717796,11.4605513 "/>
<g id="Doors">
	<path class="st1" d="M57.23769,11.538291c0-1.4769487-0.3109322-2.7207031-0.8550835-4.1199126
		c-0.5441475-1.3992095-1.3992081-2.6429639-2.3320313-3.5757861c-0.9328194-1.0882764-2.1765518-1.9433593-3.5757866-2.4875093
		C49.0755806,0.8109328,47.7540855,0.5,46.199398,0.5v10.9605513"/>
	<path class="st1" d="M93.2287216,35.9468803c0-1.0882759,0.2331924-2.0210991,0.6218643-3.0316353
		c0.3886719-1.0105381,1.0105362-1.9433613,1.7101669-2.6429653c0.6996002-0.8550835,1.6324234-1.39921,2.6429596-1.8656197
		c1.0105438-0.4664116,2.0211029-0.6218662,3.1871185-0.6218662v8.1621094"/>
	<path class="st1" d="M59.8806801,23.97579c1.0882759,0,2.0210953-0.2331924,3.0316353-0.6218643
		c1.0105362-0.3886719,1.9433594-1.0105381,2.6429596-1.7101669c0.8550873-0.699604,1.3992157-1.6324253,1.8656235-2.6429634
		c0.3886719-1.0105381,0.6218643-2.0210991,0.6218643-3.1871138h-8.1621094"/>
	<path class="st1" d="M77.1376953,78.4675674c1.0882797,0,2.0210953,0.2331924,3.0316391,0.6218643
		c1.0105362,0.3886719,1.9433594,1.0105362,2.6429596,1.7101669c0.8550873,0.6996078,1.3992081,1.632431,1.8656235,2.6429672
		c0.4664078,1.0105362,0.6218643,2.0210953,0.6218643,3.1871109h-8.1621094"/>
</g>
<g id="Windows">
	
		<rect x="97.2022858" y="86.2732239" transform="matrix(0.2514896 -0.96786 0.96786 0.2514896 -19.5750237 166.7471466)" class="st2" width="1.6324941" height="19.5121384"/>
	
		<rect x="97.4446335" y="84.5216217" transform="matrix(0.2514896 -0.96786 0.96786 0.2514896 -17.8487968 165.7869873)" class="st2" width="1.6324941" height="19.8230839"/>
	
		<rect x="61.4297867" y="85.8414917" transform="matrix(0.2514896 -0.96786 0.96786 0.2514896 -45.1056213 131.1611481)" class="st2" width="1.6324941" height="17.8019028"/>
	
		<rect x="61.1605568" y="87.3927155" transform="matrix(0.2514896 -0.96786 0.96786 0.2514896 -46.808506 132.061676)" class="st2" width="1.6324941" height="17.8019028"/>
</g>
<g id="Walls">
	<polygon class="st3" points="77.1376953,86.6296768 73.8728638,86.6296768 73.8728638,88.4953232 71.1521606,88.4953232 
		71.1521606,93.9367294 69.986145,99.2226563 73.09552,100 74.2615356,95.0250015 89.0310669,95.0250015 89.0310669,88.4953232 
		77.1376953,88.4953232 	"/>
	<polygon class="st3" points="115.305275,11.4605513 57.23769,11.4605513 57.23769,14.7253809 58.7923775,14.7253809 
		58.7923775,15.7359419 59.8806801,15.7359419 59.8806801,14.7253809 73.8728638,14.7253809 73.8728638,35.8691406 
		59.8806801,35.8691406 59.8806801,23.97579 58.7923775,23.97579 58.7923775,35.8691406 53.5064507,35.8691406 
		53.5064507,36.9574165 73.8728638,36.9574165 73.8728638,78.4675674 77.1376953,78.4675674 77.1376953,36.9574165 
		93.2287216,36.9574165 93.2287216,35.8691406 77.1376953,35.8691406 77.1376953,14.7253809 112.0404282,14.7253809 
		112.0404282,35.8691406 101.390831,35.8691406 101.390831,36.9574165 112.0404282,36.9574165 112.0404282,89.5835953 
		106.3658218,89.5835953 106.3658218,95.0250015 106.3658218,95.0250015 105.5107422,98.9117203 108.6978531,99.689064 
		109.7083969,95.0250015 115.305275,95.0250015 	"/>
	<polygon class="st3" points="39.1255913,89.5835953 39.1255913,14.7253809 46.2771645,14.7253809 46.2771645,11.4605513 
		35.8607368,11.4605513 35.8607368,54.1367188 35.8607368,54.1367188 35.8607368,93.9367294 34.6947212,99.2226563 37.8040962,100 
		38.9701118,95.0250015 49.7752113,95.0250015 53.5841904,95.8800888 54.750206,90.5941391 50.6302681,89.5835953 	"/>
</g>
</g></svg>
