<?xml version="1.0" encoding="utf-8"?>
<!-- DO NOT EDIT THIS, THIS FILE IS GENERATED FROM "2_24_6.original.svg" using transform-svgs.js script -->
<!-- Generator: Adobe Illustrator 24.2.0, SVG Export Plug-In . SVG Version: 6.00 Build 0)  -->
<!DOCTYPE svg PUBLIC "-//W3C//DTD SVG 1.1//EN" "http://www.w3.org/Graphics/SVG/1.1/DTD/svg11.dtd" [
	<!ENTITY ns_extend "http://ns.adobe.com/Extensibility/1.0/">
	<!ENTITY ns_ai "http://ns.adobe.com/AdobeIllustrator/10.0/">
	<!ENTITY ns_graphs "http://ns.adobe.com/Graphs/1.0/">
	<!ENTITY ns_vars "http://ns.adobe.com/Variables/1.0/">
	<!ENTITY ns_imrep "http://ns.adobe.com/ImageReplacement/1.0/">
	<!ENTITY ns_sfw "http://ns.adobe.com/SaveForWeb/1.0/">
	<!ENTITY ns_custom "http://ns.adobe.com/GenericCustomNamespace/1.0/">
	<!ENTITY ns_adobe_xpath "http://ns.adobe.com/XPath/1.0/">
]>
<svg version="1.1" id="Слой_1" xmlns:x="&ns_extend;" xmlns:i="&ns_ai;" xmlns:graph="&ns_graphs;"
	 xmlns="http://www.w3.org/2000/svg" xmlns:xlink="http://www.w3.org/1999/xlink" x="0px" y="0px" viewBox="0 0 150 100"
	 style="enable-background:new 0 0 150 100;" xml:space="preserve"><g transform="translate(27.73441834933083 18.48961223288722) scale(0.6302077553422556)">
<style type="text/css">
	.st0{fill:#DBD4CA;}
	.st1{fill:none;stroke:#565440;}
	.st2{fill:none;stroke:#565440;stroke-width:1.0000414;stroke-miterlimit:4.0001655;}
	.st3{fill:#565440;}
</style>
<metadata>
	<sfw  xmlns="&ns_sfw;">
		<slices></slices>
		<sliceSourceBounds  bottomLeftOrigin="true" height="100.0389252" width="111.9818039" x="19.0091" y="-0.0389262">
			</sliceSourceBounds>
	</sfw>
</metadata>
<polygon id="Floor" class="st0" points="130.9803925,25.5555592 98.9542465,25.5555592 98.8235397,2.8301392 25.3594742,2.8037109 
	20.7189465,26.7484665 24.6380367,28.7914104 24.8220863,39.8896027 19.7385559,63.7908325 24.4444447,65.3435593 
	23.9218807,76.4935532 20.4049072,94.8282242 38.9542465,99.0196075 40.503067,93.9820862 53.1047707,95.406311 
	68.6149673,99.4365005 69.9509201,94.7914124 82.0245361,95.3598633 96.9687881,99.2323837 97.7805862,94.6073608 
	112.635582,94.9754639 128.2944794,99.4496765 130.9803925,93.9278336 "/>
<g id="Windows">
	<path class="st1" d="M25.3044872,11.8610506l-3.2845745,14.2332296l-1.3685513-0.2737026l3.2845764-14.2332287
		L25.3044872,11.8610506z"/>
	<path class="st1" d="M26.3993473,40.6924324l-5.2917919,23.0832977l-1.3685398-0.2737045l5.2917805-23.0833969
		L26.3993473,40.6924324z"/>
	<polygon class="st1" points="38.1691971,98.9938965 38.534111,97.625351 21.8374805,93.8844757 26.1257133,71.8960114 
		24.8483238,71.6222916 20.1951981,94.9794312 	"/>
	
		<rect x="60.1344719" y="88.4796753" transform="matrix(0.2514893 -0.9678601 0.9678601 0.2514893 -48.0640335 131.2400818)" class="st2" width="1.3667051" height="16.4298096"/>
	
		<rect x="89.2965775" y="89.4004211" transform="matrix(0.2514893 -0.9678601 0.9678601 0.2514893 -26.4206104 159.6077728)" class="st2" width="1.366695" height="14.9700384"/>
	
		<rect x="120.0354004" y="88.4770508" transform="matrix(0.2514893 -0.9678601 0.9678601 0.2514893 -3.2250469 189.2137756)" class="st2" width="1.3665953" height="16.4298096"/>
</g>
<g id="Doors">
	<path class="st1" d="M98.9340744,19.6141758c1.2575531,0,2.2863846-0.228611,3.4296722-0.6859722
		c1.1431961-0.4573193,2.1721039-1.1431713,2.9723358-1.9435081c0.9145813-0.8002167,1.6005325-1.8291636,2.0577545-2.9723358
		s0.6859741-2.2863846,0.6859741-3.5439014h-9.1456223"/>
	<path class="st1" d="M96.8535309,60.9148254c1.0036469,0,1.8247528-0.1824417,2.7372208-0.5474434
		c0.9123688-0.3650055,1.7335358-0.9123688,2.3722-1.5511322c0.7299271-0.6386452,1.2773666-1.4598312,1.6422958-2.3722
		c0.3648987-0.912365,0.5474625-1.8247528,0.5474625-2.8283806h-7.2990799"/>
	<path class="st1" d="M111.6172638,46.0766907c0-0.9051666,0.1645508-1.6456833,0.4937363-2.4686089
		c0.3291702-0.8228416,0.8228455-1.5634384,1.3988953-2.1394348c0.5759811-0.6582794,1.316597-1.1520119,2.1394424-1.4811211
		c0.8228378-0.3290901,1.6456833-0.4937515,2.5508499-0.4937515l-0.0000229,6.5828362"/>
	<path class="st1" d="M79.6700974,50.5567207c0-0.9338951,0.1697693-1.697937,0.5094147-2.546978
		c0.3396225-0.8489571,0.8489609-1.6130829,1.443306-2.2073517c0.5942764-0.6791878,1.3583984-1.1886063,2.2073593-1.5281487
		s1.697937-0.5094337,2.6318359-0.5094337v6.791832"/>
	<path class="st1" d="M86.4620132,20.7593021c0-0.9338951-0.1697769-1.6979389-0.5094223-2.546978
		c-0.3396225-0.848959-0.8489532-1.6130829-1.443306-2.2073536c-0.5942764-0.6791878-1.3583984-1.1886034-2.2073593-1.5281467
		c-0.8489532-0.3395443-1.697937-0.5094357-2.6318283-0.5094357v6.7918358"/>
	<path class="st1" d="M76.0586548,62.1061821c0,1.0278091-0.1868515,1.8686676-0.5606308,2.8031044
		c-0.3737793,0.9343109-0.9343338,1.7752533-1.5884399,2.4292984c-0.6540298,0.7474823-1.4949875,1.3081131-2.429306,1.6818008
		c-0.9343338,0.3736801-1.8686676,0.5606461-2.8964539,0.5606461v-7.4747505"/>
	<path class="st1" d="M61.530426,59.3200188c-1.0056915,0-1.8284645-0.1828423-2.7427864-0.5485802
		c-0.9142227-0.3657227-1.7370758-0.9142227-2.377037-1.5542641c-0.7314034-0.6399651-1.2799759-1.4628258-1.6456261-2.3770485
		s-0.5485916-1.8284645-0.5485916-2.8341484h7.313942"/>
</g>
<g id="Walls">
	<polygon class="st3" points="27.7679672,10.0361967 27.7679672,4.5618749 96.1969681,4.5618749 96.1969681,10.4684381 
		98.9340744,10.4684381 98.9340744,0 23.2060127,0 23.2060127,9.41078 22.6585674,11.6784496 27.1292229,12.6821575 	"/>
	<polygon class="st3" points="23.2060127,41.0573158 28.6674042,41.0573158 28.667366,26.4591637 25.0307465,26.4591637 
		20.5601311,25.4556141 19.9214268,28.1014557 23.2060127,28.8388023 	"/>
	<polygon class="st3" points="23.7117958,63.8670082 19.6477242,62.9546432 19.0091,65.600563 23.2060528,66.542778 
		23.2060528,77.5527954 28.6674042,77.5527954 28.667366,63.8670082 	"/>
	<polygon class="st3" points="38.5699234,95.2947464 37.6574783,99.358902 40.3033981,99.9975662 41.2456512,95.8005753 
		53.9302025,95.8005753 53.9302025,90.3242188 38.5699234,90.3242188 	"/>
	<polygon class="st3" points="81.5988159,91.2385788 68.3315506,91.2385788 68.3315506,95.2947083 67.41922,99.3588638 
		70.0651398,99.9975281 71.0073547,95.8005753 80.9730453,95.8005753 83.2410355,96.3479004 84.2447815,91.8772812 
		81.5988159,91.2598495 	"/>
	<polygon class="st3" points="62.438633,52.0059967 62.438633,50.1812248 26.5818577,50.1812248 24.1184196,49.6337814 
		23.9358978,50.5462265 26.3993359,51.0935898 61.526226,51.0935898 61.526226,52.0059967 	"/>
	<polygon class="st3" points="68.5838242,62.1062431 68.5838242,61.1937943 62.438633,61.1938362 62.438633,59.3050156 
		61.526226,59.3050156 61.526226,93.7932358 60.9789009,95.983017 61.8912697,96.1654968 62.438633,93.9757614 
		62.438633,62.1062431 	"/>
	<polygon class="st3" points="98.9340744,60.5034142 96.1969681,60.5034142 96.1969681,61.1937561 76.0586548,61.1937943 
		76.0586548,62.1062012 96.1969681,62.1062012 96.1969681,97.093544 95.6494904,99.3613739 98.2954102,100 98.9340744,97.3540421 
		98.9340744,95.8005753 113.532341,95.8005753 113.532341,90.3308411 98.9340744,90.3308411 	"/>
	<polygon class="st3" points="130.9887848,25.5467567 130.859024,25.5467567 98.9340744,25.5467567 98.9340744,19.6141758 
		96.1969681,19.6141758 96.1969681,20.7593021 86.4620132,20.7593422 86.4620132,21.6717091 96.1969681,21.6717091 
		96.201561,32.1868744 73.8434219,32.1869164 73.8434219,21.6717491 79.6700974,21.6717491 79.6700974,20.7593021 
		72.9310532,20.7593021 72.9310532,51.4691696 73.0039597,51.4691696 79.6700974,51.4691696 79.6700974,50.5567627 
		73.8434601,50.5568008 73.8434219,33.0992813 96.201561,33.0992813 96.201561,50.5567207 86.4620132,50.5567627 
		86.4620132,51.4691696 96.201561,51.4691696 96.201561,53.6156502 97.1139679,53.6156502 97.1139679,46.9890976 
		111.6172638,46.9890976 111.6172638,46.0766907 97.1139679,46.0767288 97.1139297,28.2838573 128.2516785,28.2838573 
		128.2516785,46.0766907 118.2001648,46.0767288 118.2001648,46.9890976 128.2516785,46.9890976 128.2516785,94.8880844 
		127.2588272,99.3588638 129.9046326,99.9975281 130.9909058,94.9481049 	"/>
</g>
</g></svg>
