<?xml version="1.0" encoding="utf-8"?>
<!-- DO NOT EDIT THIS, THIS FILE IS GENERATED FROM "2_25-36_2.original.svg" using transform-svgs.js script -->
<!-- Generator: Adobe Illustrator 24.2.0, SVG Export Plug-In . SVG Version: 6.00 Build 0)  -->
<!DOCTYPE svg PUBLIC "-//W3C//DTD SVG 1.1//EN" "http://www.w3.org/Graphics/SVG/1.1/DTD/svg11.dtd" [
	<!ENTITY ns_extend "http://ns.adobe.com/Extensibility/1.0/">
	<!ENTITY ns_ai "http://ns.adobe.com/AdobeIllustrator/10.0/">
	<!ENTITY ns_graphs "http://ns.adobe.com/Graphs/1.0/">
	<!ENTITY ns_vars "http://ns.adobe.com/Variables/1.0/">
	<!ENTITY ns_imrep "http://ns.adobe.com/ImageReplacement/1.0/">
	<!ENTITY ns_sfw "http://ns.adobe.com/SaveForWeb/1.0/">
	<!ENTITY ns_custom "http://ns.adobe.com/GenericCustomNamespace/1.0/">
	<!ENTITY ns_adobe_xpath "http://ns.adobe.com/XPath/1.0/">
]>
<svg version="1.1" id="Слой_1" xmlns:x="&ns_extend;" xmlns:i="&ns_ai;" xmlns:graph="&ns_graphs;"
	 xmlns="http://www.w3.org/2000/svg" xmlns:xlink="http://www.w3.org/1999/xlink" x="0px" y="0px" viewBox="0 0 150 100"
	 style="enable-background:new 0 0 150 100;" xml:space="preserve"><g transform="translate(32.664348564752466 21.776232376501643) scale(0.5644753524699672)">
<style type="text/css">
	.st0{fill:#DBD4CA;}
	.st1{fill:none;stroke:#565440;}
	.st2{fill:#565440;}
</style>
<metadata>
	<sfw  xmlns="&ns_sfw;">
		<slices></slices>
		<sliceSourceBounds  bottomLeftOrigin="true" height="90.3096008" width="150" x="0" y="4.8451977"></sliceSourceBounds>
	</sfw>
</metadata>
<polygon id="Floor_1_" class="st0" points="0.1503067,5.3642125 149.644165,5.3893065 149.644165,95.1547546 0.1819407,95.1547546 
	"/>
<path id="Windows" class="st1" d="M147.8812103,6.9212532V5.3642125L0.5189976,5.3642492l0.0000283,87.1954727h1.5570266
	L2.0760243,6.9213042l145.805191-0.0000367V6.9212532z"/>
<path id="Doors_1_" class="st1" d="M43.5977936,47.4048691c0-1.1418571,0.2075806-2.0760612,0.6228447-3.1141777
	c0.4151649-1.0380173,1.0380173-1.9721909,1.7646065-2.6989136c0.7266846-0.8304291,1.6608887-1.4533081,2.6989098-1.8684769
	c1.0380173-0.4151649,2.0760689-0.6228485,3.2179222-0.6228485v8.3043175 M39.4455681,58.8233643
	c-1.1418533,0-2.0760651-0.2075844-3.1141701-0.6228447c-1.0381165-0.4152603-1.9721947-1.0380173-2.6989136-1.7646065
	c-0.8304329-0.7266922-1.4533119-1.6608963-1.8684788-2.6989136c-0.4152699-1.0380173-0.6228504-2.0760651-0.6228504-3.2179184
	l8.3043175-0.0000038 M46.7118797,73.3559341c-1.141861,0-2.0760651,0.2075882-3.1140823,0.6228561
	c-1.0380096,0.4151611-1.9723167,1.0380173-2.6989059,1.7646027c-0.8304329,0.7266846-1.4533119,1.6608963-1.8684807,2.6989136
	c-0.4151726,1.0380173-0.6228485,2.0760574-0.6228485,3.217926l8.3043175-0.0000153 M88.2335129,76.2934036
	c-1.1418686,0-2.0760727-0.2075806-3.11409-0.6228485c-1.0380173-0.4152603-1.9723129-1.0380173-2.6989136-1.7647324
	c-0.8304214-0.726593-1.4533005-1.6608963-1.8684769-2.6989136c-0.4151688-1.0380173-0.6228409-2.0760651-0.6228409-3.2179184
	h8.304306 M111.801918,78.4624176c1.0631866,0,1.9330368-0.1932831,2.8995438-0.5799408
	c0.9665222-0.3866577,1.8364487-0.9664993,2.5129929-1.6431656c0.7732239-0.6765289,1.3531876-1.546463,1.7397537-2.51297
	c0.3865738-0.966507,0.5799408-1.9330444,0.5799408-2.9962387l-7.7322311-0.0000076 M113.8779449,20.8012047
	c1.2106171,0,2.2010727-0.2200794,3.3015976-0.6603508c1.1005249-0.4402676,2.0910721-1.100523,2.8614349-1.8710022
	c0.8804245-0.7703419,1.5408173-1.7609024,1.9809799-2.8614244c0.4401779-1.100523,0.6603546-2.2010736,0.6603546-3.4116859
	l-8.8043594-0.0000057 M138.3004608,69.5221863c0,1.0325241,0.1877136,1.8772812,0.5632019,2.8159027
	c0.3755035,0.9386215,0.9386292,1.7834549,1.5957642,2.4404755c0.6570129,0.7509079,1.5018463,1.3141403,2.4404755,1.6895599
	s1.8772583,0.5632095,2.90979,0.5632095v-7.50914 M98.6139603,92.0405579c0-1.3494339,0.3114166-2.5950699,0.8304291-3.8407669
	c0.5190048-1.2457275,1.2455978-2.4912338,2.2836456-3.4255066c0.9342728-0.9342728,2.0760574-1.7646103,3.3217621-2.2837372
	c1.2457199-0.5190125,2.5950623-0.8304367,3.9445114-0.8304367v10.3804474"/>
<g id="Walls_1_">
	<polygon class="st2" points="149.9999542,4.8451977 146.885788,4.8451977 146.885788,68.484108 145.8096924,68.484108 
		145.8096924,69.5221481 146.885788,69.5221481 146.885788,92.0405426 127.6987152,92.0405426 127.6987152,69.5221481 
		138.3004456,69.5221481 138.3004456,68.484108 113.8779297,68.484108 113.8779297,20.7870369 110.7637177,20.7870369 
		110.763855,70.7759476 111.8018951,70.7759476 111.8018951,69.5221939 126.660675,69.5221481 126.660675,92.0405426 
		113.8779297,92.0405426 113.8779297,85.2220993 111.8018036,85.2220993 111.8018036,78.46241 110.7637634,78.46241 
		110.7637634,85.2220993 110.7637177,85.2220993 110.7637177,92.0405426 108.9943314,92.0405426 108.9943314,95.1547546 
		150,95.1547546 	"/>
	<rect x="80.9672394" y="4.8451977" class="st2" width="7.2662377" height="5.1902471"/>
	<polygon class="st2" points="5.1902471,48.4429398 39.4455795,48.442894 39.4455795,50.5190659 40.4836197,50.5190659 
		40.4836197,48.442894 43.5976524,48.442894 43.5976524,47.4048538 5.1902471,47.4048996 5.1902471,35.9864082 
		6.2230449,35.9864082 6.2230449,28.7201271 0,28.7201271 0,57.785347 5.1902471,57.785347 	"/>
	<rect x="15.5706062" y="4.8451977" class="st2" width="7.2662377" height="6.2230449"/>
	<polygon class="st2" points="89.2715225,76.2818832 88.2335205,76.2818832 88.2335205,92.0405426 67.4726715,92.0405426 
		67.4726715,60.8994255 88.2335205,60.8994255 88.2335205,67.977562 89.2715225,67.977562 89.2715225,59.8613853 
		40.4836197,59.8613853 40.4836197,58.8233452 39.4455795,58.8233452 39.4455795,60.8994255 46.7118645,60.8994255 
		46.7118645,73.355957 47.7499046,73.355957 47.7499046,60.8994255 66.4346771,60.8994255 66.4346771,92.0405426 
		47.7499046,92.0405884 47.7499046,81.6602325 46.7118645,81.6602325 46.7119064,92.0405884 6.2230449,92.0405884 
		6.2230449,85.3583603 5.1902471,85.3583603 5.1902471,72.9497375 0,72.9497375 0.0000452,95.1548004 98.613884,95.1547546 
		98.613884,92.0405426 89.2715225,92.0405426 	"/>
	<polygon class="st2" points="110.7637177,11.9967299 113.8779297,11.9967299 113.8779297,11.068243 119.9021149,11.068243 
		119.9021149,10.0354452 132.3721161,10.0354452 132.3721161,4.8451977 103.1679153,4.8451977 103.1679153,10.0354452 
		110.7637177,10.0354452 	"/>
	<polygon class="st2" points="37.6290092,4.8451977 37.6290092,10.0354452 49.04813,10.0354452 49.04813,11.068243 
		57.0922203,11.068243 57.0922203,47.4048538 51.9020653,47.4048538 51.9020653,48.442894 58.130352,48.442894 
		58.130352,10.0354452 66.9149628,10.0354452 66.9149628,4.8451977 	"/>
</g>
</g></svg>
