<?xml version="1.0" encoding="utf-8"?>
<!-- DO NOT EDIT THIS, THIS FILE IS GENERATED FROM "2_41-42_2.original.svg" using transform-svgs.js script -->
<!-- Generator: Adobe Illustrator 24.2.0, SVG Export Plug-In . SVG Version: 6.00 Build 0)  -->
<!DOCTYPE svg PUBLIC "-//W3C//DTD SVG 1.1//EN" "http://www.w3.org/Graphics/SVG/1.1/DTD/svg11.dtd" [
	<!ENTITY ns_extend "http://ns.adobe.com/Extensibility/1.0/">
	<!ENTITY ns_ai "http://ns.adobe.com/AdobeIllustrator/10.0/">
	<!ENTITY ns_graphs "http://ns.adobe.com/Graphs/1.0/">
	<!ENTITY ns_vars "http://ns.adobe.com/Variables/1.0/">
	<!ENTITY ns_imrep "http://ns.adobe.com/ImageReplacement/1.0/">
	<!ENTITY ns_sfw "http://ns.adobe.com/SaveForWeb/1.0/">
	<!ENTITY ns_custom "http://ns.adobe.com/GenericCustomNamespace/1.0/">
	<!ENTITY ns_adobe_xpath "http://ns.adobe.com/XPath/1.0/">
]>
<svg version="1.1" id="Слой_1" xmlns:x="&ns_extend;" xmlns:i="&ns_ai;" xmlns:graph="&ns_graphs;"
	 xmlns="http://www.w3.org/2000/svg" xmlns:xlink="http://www.w3.org/1999/xlink" x="0px" y="0px" viewBox="0 0 150 100"
	 style="enable-background:new 0 0 150 100;" xml:space="preserve"><g transform="translate(32.42089366541388 21.61392911027592) scale(0.5677214177944816)">
<style type="text/css">
	.st0{fill:#DBD4CA;}
	.st1{fill:none;stroke:#565440;}
	.st2{fill:#565440;}
</style>
<metadata>
	<sfw  xmlns="&ns_sfw;">
		<slices></slices>
		<sliceSourceBounds  bottomLeftOrigin="true" height="89.9142838" width="149.9987183" x="0" y="5.0428443"></sliceSourceBounds>
	</sfw>
</metadata>
<polygon id="Floor" class="st0" points="149.4987183,94.4571533 82.2217484,94.4571533 82.2217484,73.6055832 0.3619632,73.6055832 
	0.3619632,5.5429087 149.4987183,5.5429087 "/>
<polygon id="Windows" class="st1" points="137.6948242,93.2768784 137.6948242,94.4571533 149.4987183,94.4571533 
	149.4975739,5.5428743 83.4020157,5.5428743 83.4020157,5.5429087 4.3997793,5.5429087 4.3997793,6.7231865 84.0582123,6.7231526 
	148.3173218,6.7231526 148.3173218,93.2768784 "/>
<path id="Doors" class="st1" d="M53.2657394,61.6013145c-0.7699203,0-1.4805832-0.177681-2.1913223-0.4738045
	c-0.7107048-0.2961082-1.4214325-0.7107353-1.9544258-1.3029747c-0.5329781-0.5330467-1.006794-1.1844826-1.3028984-1.8952103
	c-0.2961349-0.710743-0.4738159-1.4806023-0.4738159-2.2505226h5.9225159 M103.0094528,63.3698883
	c0.7699356,0,1.4806137,0.177681,2.1913376,0.4738083c0.710701,0.2961121,1.4214325,0.7107315,1.9544373,1.3029709
	c0.5329819,0.5330505,1.0067825,1.1844864,1.302887,1.8952103c0.2961349,0.7107468,0.4738312,1.4806137,0.4738312,2.2505341
	h-5.9225388 M29.2595215,63.6884003c0.7699203,0,1.4805832-0.1776886,2.1913242-0.4738007
	c0.7107029-0.2961121,1.4214306-0.7107391,1.9544239-1.3029785c0.5329819-0.5330467,1.006794-1.1844826,1.3029137-1.8952103
	c0.2961082-0.710743,0.4738007-1.4806061,0.4738007-2.2505264H29.25947 M18.9704781,60.9592018
	c0.7699203,0,1.4805832,0.1776848,2.1913357,0.4738045c0.7106895,0.2961044,1.4214172,0.7107315,1.9544106,1.3029709
	c0.5329819,0.5330467,1.0067959,1.1844902,1.3029156,1.8952179c0.2961063,0.7107315,0.473814,1.4806061,0.473814,2.2505188
	h-5.9225292 M67.8278046,54.1189537c0-0.8655472,0.1573639-1.5736923,0.4721451-2.3605232s0.7868576-1.494957,1.3376007-2.0458221
	c0.5507889-0.6294785,1.2590027-1.1016388,2.0458298-1.4163437c0.7868576-0.3147736,1.5736847-0.4721184,2.4392395-0.4721184
	v6.2948074 M47.7552261,73.6055832c0,1.1335297-0.2060661,2.060936-0.6183128,3.0913849
	c-0.4122467,1.0304565-1.0304794,1.9578171-1.7517586,2.679245c-0.7213173,0.8243866-1.6488037,1.4427261-2.679245,1.8548737
	c-1.0304794,0.4122391-2.060936,0.618309-3.1945,0.618309v-8.2438126 M85.8968048,43.9003143
	c0-0.865551,0.1573486-1.5736923,0.4721451-2.3605957c0.3147888-0.7869034,0.78685-1.4949532,1.337616-2.0458221
	c0.5507584-0.6294823,1.2589722-1.1016388,2.0458298-1.4163361c0.7868271-0.3147774,1.5736618-0.4721336,2.4392395-0.4721336
	v6.2948112 M104.2349472,57.2107468c0-0.8655586,0.157341-1.5736961,0.4721069-2.3605995
	c0.3147964-0.7868996,0.7868576-1.494957,1.3376236-2.0458183c0.5507813-0.6294861,1.2589951-1.1016388,2.0458221-1.4163361
	c0.7868576-0.3147812,1.5736923-0.4721413,2.4392471-0.4721413v6.2948151 M112.7978592,46.1282082
	c0.8655548,0,1.5736923,0.1573486,2.3605957,0.4721375c0.786911,0.3147812,1.4949417,0.7868423,2.0458298,1.3376045
	c0.6294861,0.5507736,1.1016235,1.2589836,1.4163437,2.0458221c0.3147659,0.78685,0.4721146,1.5736847,0.4721146,2.4392471
	h-6.2948074"/>
<g id="Walls">
	<rect x="66.2217255" y="5.1494484" class="st2" width="5.4603162" height="3.934284"/>
	<polygon class="st2" points="112.0110321,46.1281929 112.7978592,46.1281929 112.7978592,9.0837326 121.5643234,9.0837326 
		121.5643234,5.1494484 99.5324097,5.1494484 99.5324097,9.8665924 105.0403595,9.8665924 105.0403595,9.0837326 
		112.0110321,9.0837326 112.0110321,43.9001541 92.1916351,43.9001541 92.1916351,44.6870117 112.0110321,44.6870117 	"/>
	<polygon class="st2" points="103.009407,69.2583847 102.2226028,69.2583847 102.2226028,71.7979202 99.7707672,71.7979202 
		99.7707672,72.5847778 102.2226028,72.5847778 102.2226028,90.9162903 84.5822678,90.9162903 84.5823135,72.584671 
		93.1127625,72.584671 93.1127625,71.7978668 84.5823135,71.7978668 84.5823135,71.2450562 81.23246,71.2450562 
		81.23246,54.9057922 102.2226028,54.9057922 102.2226028,63.3698959 103.009407,63.3698959 103.009407,57.9976463 
		104.2349472,57.9976463 104.2349472,57.2108154 103.009407,57.2108154 103.009407,54.1189346 103.009407,54.118885 
		74.1226349,54.1189346 74.1226349,54.9057922 80.4455261,54.9057922 80.4455261,71.2450562 64.9308319,71.2451096 
		64.9308319,54.9057922 67.8278046,54.9057922 67.8278046,54.1189346 53.2658577,54.118885 53.2658577,54.1189346 
		53.2658043,54.1189346 53.2658577,55.6788139 54.0527649,55.6788139 54.0527649,54.9058685 64.1439209,54.9057922 
		64.1439209,71.2451096 54.0527649,71.2450333 54.0527649,61.6013031 53.2658577,61.6013031 53.2658577,71.2450333 
		47.7552376,71.2451096 47.7552376,73.605629 82.2217484,73.6055756 82.2217484,94.8505478 138.0882416,94.8505478 
		138.0882416,90.9162903 103.009407,90.9162903 	"/>
	<polygon class="st2" points="29.2784958,63.6884003 28.4915619,63.6884003 28.4915619,71.2450027 18.9704247,71.2450027 
		18.9704247,66.8817215 18.1834908,66.8817215 18.1834908,71.2450027 2.3605704,71.2450027 2.3605704,56.1026764 
		18.1834908,56.1026764 18.1834908,60.9592018 18.9704247,60.9592018 18.9704247,55.3158455 18.9039001,55.3158455 
		18.9039001,55.3157425 2.3605704,55.3157425 2.3605704,9.0837841 5.5757685,9.0837841 5.5757685,5.1494746 0,5.1494746 
		0,73.6056519 39.5113983,73.605629 39.5113983,71.2451096 29.2784958,71.2450027 	"/>
	<rect x="132.580246" y="5.1494484" class="st2" width="5.5079718" height="4.7171435"/>
	<polygon class="st2" points="112.7978592,57.2107391 112.7978592,52.4229927 112.0110321,52.4229927 112.0110321,57.2107391 
		110.5297699,57.2107391 110.5297699,57.99757 145.1738129,57.99757 145.1738129,61.9184341 145.9567261,61.9184341 
		145.9567261,79.1135178 149.8910065,79.1135178 149.8910065,57.2107391 149.8909912,57.2107391 	"/>
	<polygon class="st2" points="145.9567261,45.4154129 149.8910065,45.4154129 149.8909912,23.2469997 145.1738129,23.2469997 
		145.1738129,28.7549706 145.9567261,28.7549706 	"/>
	<polygon class="st2" points="85.8968353,44.6871414 85.8968353,43.9003105 84.5822906,43.9003105 84.5822678,9.0837326 
		88.3400497,9.0837326 88.3400497,5.1494484 82.2217484,5.1494484 82.2217712,44.6871147 	"/>
	<rect x="49.6366615" y="5.1494746" class="st2" width="5.6094856" height="4.7171693"/>
	<polygon class="st2" points="24.6780243,9.8666439 26.9179001,9.8666439 26.9179001,57.6655655 29.2784958,57.6655655 
		29.2784958,9.8666439 31.5478821,9.8666439 31.5478821,9.0837841 39.0478477,9.0837841 39.0478477,5.1494746 16.6926556,5.1494746 
		16.6926556,9.0837841 24.6780243,9.0837841 	"/>
</g>
</g></svg>
