<?xml version="1.0" encoding="utf-8"?>
<!-- DO NOT EDIT THIS, THIS FILE IS GENERATED FROM "2_5-6_2.original.svg" using transform-svgs.js script -->
<!-- Generator: Adobe Illustrator 24.2.0, SVG Export Plug-In . SVG Version: 6.00 Build 0)  -->
<!DOCTYPE svg PUBLIC "-//W3C//DTD SVG 1.1//EN" "http://www.w3.org/Graphics/SVG/1.1/DTD/svg11.dtd" [
	<!ENTITY ns_extend "http://ns.adobe.com/Extensibility/1.0/">
	<!ENTITY ns_ai "http://ns.adobe.com/AdobeIllustrator/10.0/">
	<!ENTITY ns_graphs "http://ns.adobe.com/Graphs/1.0/">
	<!ENTITY ns_vars "http://ns.adobe.com/Variables/1.0/">
	<!ENTITY ns_imrep "http://ns.adobe.com/ImageReplacement/1.0/">
	<!ENTITY ns_sfw "http://ns.adobe.com/SaveForWeb/1.0/">
	<!ENTITY ns_custom "http://ns.adobe.com/GenericCustomNamespace/1.0/">
	<!ENTITY ns_adobe_xpath "http://ns.adobe.com/XPath/1.0/">
]>
<svg version="1.1" id="Слой_1" xmlns:x="&ns_extend;" xmlns:i="&ns_ai;" xmlns:graph="&ns_graphs;"
	 xmlns="http://www.w3.org/2000/svg" xmlns:xlink="http://www.w3.org/1999/xlink" x="0px" y="0px" viewBox="0 0 150 100"
	 style="enable-background:new 0 0 150 100;" xml:space="preserve"><g transform="translate(31.265297789007125 20.843531859338082) scale(0.5831293628132383)">
<style type="text/css">
	.st0{fill:#DBD4CA;}
	.st1{fill:none;stroke:#565440;}
	.st2{fill:#565440;}
</style>
<metadata>
	<sfw  xmlns="&ns_sfw;">
		<slices></slices>
		<sliceSourceBounds  bottomLeftOrigin="true" height="100" width="126.4367905" x="11.7816057" y="0"></sliceSourceBounds>
	</sfw>
</metadata>
<polygon id="Floor_1_" class="st0" points="12.2699385,0.3696319 138.1226959,0.397476 138.1226959,99.9999466 
	12.2965698,99.9999466 "/>
<path id="Windows" class="st1" d="M136.3792419,2.2988141V0.5746996L12.3562927,0.5747402l0.0000315,96.5517273h1.7240992
	L14.0803919,2.2988703l122.298851-0.0000408V2.2988141z"/>
<path id="Doors_2_" class="st1" d="M60.0575294,47.1264038c0-1.2643814,0.2298546-2.2988281,0.6896782-3.4483337
	c0.459713-1.1493988,1.1493988-2.183815,1.9539528-2.9885139c0.8046608-0.9195366,1.8391075-1.6092529,2.9885063-2.0689659
	c1.1493988-0.4597168,2.2988358-0.6896858,3.5632095-0.6896858v9.1953888 M55.4597626,59.7701263
	c-1.2643776,0-2.2988281-0.2298584-3.4483299-0.6896744c-1.1495018-0.4598236-2.1838112-1.1493988-2.9885101-1.9539566
	c-0.9195404-0.8046646-1.6092529-1.8391113-2.0689697-2.9885101c-0.4598274-1.1493988-0.689682-2.2988319-0.689682-3.5632057
	l9.195385-0.0000076 M63.505764,75.8620758c-1.2643814,0-2.2988281,0.2298584-3.4482269,0.689682
	c-1.149395,0.4597168-2.1839523,1.1493988-2.9885101,1.953949c-0.9195366,0.8046646-1.6092491,1.839119-2.0689659,2.9885178
	c-0.4597244,1.1493988-0.6896858,2.2988205-0.6896858,3.5632095l9.1953888-0.0000076 M109.4827499,77.0114517
	c-1.264389,0-2.2988358-0.2298508-3.4482346-0.6896744s-2.1839447-1.1493988-2.9885101-1.9541016
	c-0.9195328-0.8045502-1.6092453-1.8391037-2.0689697-2.9885025s-0.6896744-2.2988281-0.6896744-3.5632095l9.1953812-0.0000076
	 M120.9770432,96.55159c0-1.4942322,0.3448334-2.8735199,0.9195328-4.2528915
	c0.5746994-1.3793869,1.3792496-2.7585449,2.5286865-3.7930679c1.034523-1.034523,2.2988281-1.953949,3.6781921-2.5287857
	c1.3793945-0.5746994,2.8735199-0.919548,4.3677673-0.919548V96.55159"/>
<g id="Walls_1_">
	<polygon class="st2" points="138.2183533,0 126.7240295,0.0000031 126.7240372,8.0459785 134.7700195,8.0459757 
		134.7700653,96.55159 132.4712219,96.55159 132.4712219,99.9999466 138.218399,99.9999466 	"/>
	<rect x="101.4367676" y="0.0000109" class="st2" width="8.0459566" height="5.7471447"/>
	<polygon class="st2" points="69.2528763,47.1264 69.2528763,48.2758369 76.149437,48.2758293 76.1494217,8.0459948 
		85.3448181,8.0459909 85.3448181,0.0000172 53.1608086,0.0000282 53.1608162,8.0460005 74.9999237,8.0459948 74.999939,47.1264 	
		"/>
	<polygon class="st2" points="55.4597626,48.2758369 55.4597626,50.5747719 56.6091957,50.5747719 56.6091957,48.2758369 
		60.0573845,48.2758369 60.0573845,47.1264038 17.5287704,47.1264191 17.5287704,34.4827309 19.8275623,34.4827309 
		19.8275623,26.4367733 11.7816057,26.4367752 11.7816124,58.6207466 17.5287762,58.6207428 17.5287704,48.2758484 	"/>
	<rect x="29.0229435" y="0.0000344" class="st2" width="8.0459566" height="8.0459728"/>
	<polygon class="st2" points="110.6321487,96.55159 110.6321411,77.0114517 109.4827499,77.0114517 109.4827499,96.55159 
		86.4942398,96.5516052 86.4942322,62.068943 109.4827423,62.0689392 109.4827423,67.8160629 110.6321411,67.8160629 
		110.6321411,60.9195099 56.6091995,60.9195251 56.6091995,59.7701263 55.4597626,59.7701263 55.4597702,62.0689583 
		63.5057564,62.0689507 63.505764,75.8620758 64.655159,75.8620758 64.655159,62.0689507 85.3448334,62.068943 
		85.344841,96.5516052 64.6551666,96.5516129 64.6551666,85.0574265 63.505764,85.0574265 63.5057716,96.5516129 
		19.8275814,96.5516281 19.8275757,74.7126541 11.7816181,74.7126541 11.7816305,100 120.9769287,99.9999619 120.9769287,96.55159 	
		"/>
</g>
</g></svg>
