<?xml version="1.0" encoding="utf-8"?>
<!-- DO NOT EDIT THIS, THIS FILE IS GENERATED FROM "2_7-12_8.original.svg" using transform-svgs.js script -->
<!-- Generator: Adobe Illustrator 24.2.0, SVG Export Plug-In . SVG Version: 6.00 Build 0)  -->
<!DOCTYPE svg PUBLIC "-//W3C//DTD SVG 1.1//EN" "http://www.w3.org/Graphics/SVG/1.1/DTD/svg11.dtd" [
	<!ENTITY ns_extend "http://ns.adobe.com/Extensibility/1.0/">
	<!ENTITY ns_ai "http://ns.adobe.com/AdobeIllustrator/10.0/">
	<!ENTITY ns_graphs "http://ns.adobe.com/Graphs/1.0/">
	<!ENTITY ns_vars "http://ns.adobe.com/Variables/1.0/">
	<!ENTITY ns_imrep "http://ns.adobe.com/ImageReplacement/1.0/">
	<!ENTITY ns_sfw "http://ns.adobe.com/SaveForWeb/1.0/">
	<!ENTITY ns_custom "http://ns.adobe.com/GenericCustomNamespace/1.0/">
	<!ENTITY ns_adobe_xpath "http://ns.adobe.com/XPath/1.0/">
]>
<svg version="1.1" id="Слой_1" xmlns:x="&ns_extend;" xmlns:i="&ns_ai;" xmlns:graph="&ns_graphs;"
	 xmlns="http://www.w3.org/2000/svg" xmlns:xlink="http://www.w3.org/1999/xlink" x="0px" y="0px" viewBox="0 0 150 100"
	 style="enable-background:new 0 0 150 100;" xml:space="preserve"><g transform="translate(13.382661867008796 8.921774578005865) scale(0.8215645084398827)">
<style type="text/css">
	.st0{fill:#DBD4CA;}
	.st1{fill:none;stroke:#565440;}
	.st2{fill:none;stroke:#565440;stroke-width:1.0000414;stroke-miterlimit:4.0001655;}
	.st3{fill:#565440;}
</style>
<metadata>
	<sfw  xmlns="&ns_sfw;">
		<slices></slices>
		<sliceSourceBounds  bottomLeftOrigin="true" height="100" width="79.3029861" x="35.3485069" y="0"></sliceSourceBounds>
	</sfw>
</metadata>
<polygon id="Floor" class="st0" points="113.8098145,91.8190155 113.8098145,11.4268036 36.2331276,11.4104757 
	36.2331276,93.6134949 48.1909027,93.8711624 67.8895721,99.1509323 70.061348,94.5337448 84.7480316,94.6554337 
	103.7460632,98.986702 105.8404922,93.0806046 "/>
<path id="Doors" class="st1" d="M64.6783142,29.8298302c-1.1949501,0-2.172554,0.2172279-3.2589378,0.651783
	c-1.0862656,0.434576-2.0639648,1.0862637-2.8243599,1.8467789c-0.8690376,0.7603531-1.5208435,1.7380981-1.9553032,2.8243637
	c-0.4344597,1.0862427-0.6518059,2.172554-0.6518059,3.3674812h8.6902924 M73.368721,58.0733452
	c-1.1949539,0-2.172554-0.2172279-3.2589111-0.6518059c-1.0862885-0.4345551-2.0639877-1.0862656-2.8243637-1.846756
	c-0.8690567-0.760376-1.5208435-1.7380981-1.9553223-2.8243637c-0.4344635-1.0862656-0.6518097-2.172554-0.6518097-3.3674812
	h8.6902924 M74.4549866,11.4561815c0-1.4121561,0.3258896-2.8090372,0.8690338-4.1125317
	c0.5431442-1.303637,1.3035202-2.607132,2.3899078-3.5847352c0.9776001-0.9776981,2.1725311-1.8466159,3.4761429-2.3898787
	C82.4935913,0.8258914,83.9057465,0.5,85.3179245,0.5l0.0000229,10.9562292"/>
<g id="Windows">
	
		<rect x="58.6924286" y="86.2845383" transform="matrix(0.2514893 -0.9678601 0.9678601 0.2514893 -48.4368401 129.4992828)" class="st2" width="1.6270689" height="19.5613632"/>
	<polygon class="st1" points="84.7480316,94.6554337 85.1572647,93.0806046 103.2217865,97.7490082 102.8125839,99.3237152 	"/>
</g>
<g id="Walls">
	<polygon class="st3" points="50.5610504,94.9994888 50.5610504,88.5016174 38.6073532,88.495018 38.6073303,41.7790337 
		64.6783142,41.7790337 64.6783142,48.2967682 73.3686295,48.2967682 73.3686295,49.3830566 74.454895,49.3830566 
		74.4548721,41.7790108 73.3686295,41.7790108 73.3686295,47.2105026 65.7645798,47.2105026 65.7645798,38.520237 
		64.6783142,38.520237 64.6783142,40.6927681 38.6073303,40.6927681 38.6073303,14.6217823 64.6782913,14.6217585 
		64.6783142,29.8298302 65.7645798,29.8298302 65.7645798,14.6217585 74.4548721,14.6217585 74.4548721,11.3629379 
		35.3485069,11.3629618 35.3485336,95.0073166 	"/>
	<polygon class="st3" points="111.3886948,14.6217585 111.3887253,88.4949951 103.3589859,88.4949951 103.3589859,94.3955917 
		102.2723923,99.2360306 102.2733841,99.2362442 102.2726059,99.2395782 105.4228592,100 106.5446701,95.0031586 
		114.6476593,95.0072937 114.6476593,95.0031586 114.6514893,95.0031586 114.6476364,11.362915 85.3178329,11.3629379 
		85.3178329,14.6217585 	"/>
	<polygon class="st3" points="81.6332092,95.0031586 85.399086,95.8721695 86.5940094,90.5493393 82.466156,89.57164 
		74.454895,89.57164 74.454895,58.0733452 73.3686295,58.0733452 73.3686295,89.57164 67.9238205,89.57164 67.9238205,95.0031586 
		67.932663,95.0031586 67.0547867,98.9138794 70.20504,99.6742477 71.2535858,95.0031586 	"/>
</g>
</g></svg>
