<?xml version="1.0" encoding="utf-8"?>
<!-- DO NOT EDIT THIS, THIS FILE IS GENERATED FROM "2_7-12_3.original.svg" using transform-svgs.js script -->
<!-- Generator: Adobe Illustrator 24.2.0, SVG Export Plug-In . SVG Version: 6.00 Build 0)  -->
<!DOCTYPE svg PUBLIC "-//W3C//DTD SVG 1.1//EN" "http://www.w3.org/Graphics/SVG/1.1/DTD/svg11.dtd" [
	<!ENTITY ns_extend "http://ns.adobe.com/Extensibility/1.0/">
	<!ENTITY ns_ai "http://ns.adobe.com/AdobeIllustrator/10.0/">
	<!ENTITY ns_graphs "http://ns.adobe.com/Graphs/1.0/">
	<!ENTITY ns_vars "http://ns.adobe.com/Variables/1.0/">
	<!ENTITY ns_imrep "http://ns.adobe.com/ImageReplacement/1.0/">
	<!ENTITY ns_sfw "http://ns.adobe.com/SaveForWeb/1.0/">
	<!ENTITY ns_custom "http://ns.adobe.com/GenericCustomNamespace/1.0/">
	<!ENTITY ns_adobe_xpath "http://ns.adobe.com/XPath/1.0/">
]>
<svg version="1.1" id="Слой_1" xmlns:x="&ns_extend;" xmlns:i="&ns_ai;" xmlns:graph="&ns_graphs;"
	 xmlns="http://www.w3.org/2000/svg" xmlns:xlink="http://www.w3.org/1999/xlink" x="0px" y="0px" viewBox="0 0 150 100"
	 style="enable-background:new 0 0 150 100;" xml:space="preserve"><g transform="translate(11.443343424656529 7.628895616437687) scale(0.8474220876712463)">
<style type="text/css">
	.st0{fill:#DBD4CA;}
	.st1{fill:none;stroke:#565440;}
	.st2{fill:#565440;}
</style>
<metadata>
	<sfw  xmlns="&ns_sfw;">
		<slices></slices>
		<sliceSourceBounds  bottomLeftOrigin="true" height="100" width="73.8556442" x="38.0721779" y="0"></sliceSourceBounds>
	</sfw>
</metadata>
<polygon id="Floor_1_" class="st0" points="38.4648132,0.3696319 111.435585,0.3944695 111.435585,89.2422333 
	38.4802551,89.2422333 "/>
<path id="Windows" class="st1" d="M110.9020233,0.5128903v1.5386388L59.1004639,2.0515459V0.512907L110.9020233,0.5128903z"/>
<path id="Doors" class="st1" d="M76.025795,44.1081886c1.1283569,0,2.0515213,0.2052231,3.0772705,0.6154823
	c1.0257492,0.4102631,1.949028,1.025753,2.6670151,1.7437553c0.8206253,0.7180977,1.436142,1.6412659,1.8463974,2.6670113
	c0.4102783,1.0257492,0.6154938,2.0515251,0.6154938,3.1798897H76.025795 M83.2061996,70.7782974
	c1.1283569,0,2.0515213-0.2052231,3.0773621-0.6154861s1.9488907-1.0257492,2.6670151-1.7437592
	c0.8206253-0.7180939,1.436142-1.6412659,1.8463974-2.6670074c0.4103622-1.0257492,0.6154938-2.0515289,0.6154938-3.1798935
	l-8.2061768,0.0000038 M75.0000687,89.2422333c0,1.3334961-0.3077621,2.5644073-0.8206253,3.795372
	c-0.5128632,1.2310181-1.2310104,2.4618912-2.2567596,3.385025c-0.9232101,0.9232254-2.0515213,1.7437592-3.282486,2.2567596
	C67.4091949,99.1922607,66.075798,99.5,64.7423019,99.5V89.2423325"/>
<g id="Walls">
	<polygon class="st2" points="74.9999084,5.1289101 74.9999084,44.1081886 76.025795,44.1081886 76.0257721,5.1289101 
		81.1546783,5.1289072 81.1546783,0.0000112 73.9741592,0.0000126 73.9741592,5.1289101 	"/>
	<polygon class="st2" points="111.9277802,0 95.5154648,0.0000056 95.5154648,6.1495099 108.850502,6.149507 
		108.8505249,59.4948387 83.2061996,59.4948463 83.2061996,53.3402023 76.025795,53.3402061 76.025795,52.3144569 
		74.9999313,52.3144569 74.9999313,60.5205994 76.025795,60.5205994 76.025795,54.3659515 82.1804504,54.3659515 
		82.1804504,62.5721207 83.2061996,62.5721207 83.2061996,60.5205956 108.8505249,60.5205879 108.8505249,86.1648254 
		83.2061996,86.1648254 83.2061996,70.7782974 82.1804504,70.7782974 82.1804504,86.1648407 74.9999313,86.1648407 
		74.9999313,89.2422333 111.9278183,89.2422256 	"/>
	<polygon class="st2" points="59.0635757,86.1648407 59.0635757,79.1908112 58.0377998,79.1908112 58.0377998,86.1648407 
		41.1495399,86.1648407 41.1495399,6.1495152 59.6133957,6.1495152 59.6133957,0.0000181 38.0721779,0.0000181 
		38.0721779,89.2422409 64.7422562,89.2422409 64.7422562,86.1648407 	"/>
</g>
</g></svg>
