<?xml version="1.0" encoding="utf-8"?>
<!-- DO NOT EDIT THIS, THIS FILE IS GENERATED FROM "2_7-12_10.original.svg" using transform-svgs.js script -->
<!-- Generator: Adobe Illustrator 24.2.0, SVG Export Plug-In . SVG Version: 6.00 Build 0)  -->
<!DOCTYPE svg PUBLIC "-//W3C//DTD SVG 1.1//EN" "http://www.w3.org/Graphics/SVG/1.1/DTD/svg11.dtd" [
	<!ENTITY ns_extend "http://ns.adobe.com/Extensibility/1.0/">
	<!ENTITY ns_ai "http://ns.adobe.com/AdobeIllustrator/10.0/">
	<!ENTITY ns_graphs "http://ns.adobe.com/Graphs/1.0/">
	<!ENTITY ns_vars "http://ns.adobe.com/Variables/1.0/">
	<!ENTITY ns_imrep "http://ns.adobe.com/ImageReplacement/1.0/">
	<!ENTITY ns_sfw "http://ns.adobe.com/SaveForWeb/1.0/">
	<!ENTITY ns_custom "http://ns.adobe.com/GenericCustomNamespace/1.0/">
	<!ENTITY ns_adobe_xpath "http://ns.adobe.com/XPath/1.0/">
]>
<svg version="1.1" id="Слой_1" xmlns:x="&ns_extend;" xmlns:i="&ns_ai;" xmlns:graph="&ns_graphs;"
	 xmlns="http://www.w3.org/2000/svg" xmlns:xlink="http://www.w3.org/1999/xlink" x="0px" y="0px" viewBox="0 0 150 100"
	 style="enable-background:new 0 0 150 100;" xml:space="preserve"><g transform="translate(17.492113676439022 11.661409117626015) scale(0.7667718176474797)">
<style type="text/css">
	.st0{fill:#DBD4CA;}
	.st1{fill:none;stroke:#565440;}
	.st2{fill:none;stroke:#565440;stroke-width:1.0000414;stroke-miterlimit:4.0001655;}
	.st3{fill:#565440;}
</style>
<metadata>
	<sfw  xmlns="&ns_sfw;">
		<slices></slices>
		<sliceSourceBounds  bottomLeftOrigin="true" height="100.0388947" width="89.5489197" x="35.0382233" y="-0.0388972">
			</sliceSourceBounds>
	</sfw>
</metadata>
<polygon id="Floor" class="st0" points="114.9631882,3.4107127 41.7620697,3.392638 36.6805115,25.8205776 42.536644,28.4568501 
	41.0005112,40.6778603 35.7681656,63.7757301 39.7467308,66.3374252 39.7838821,77.1116943 36.22435,94.9794159 
	55.078022,98.9938889 56.3663635,95.0490799 67.9614487,95.0490799 84.231308,99.3193665 85.5933533,95.0490799 
	97.8142166,95.0490799 113.0816574,99.4292068 114.9631882,95.0490799 "/>
<g id="Windows">
	<path class="st1" d="M41.3336258,11.8610735l-3.284565,14.2332239l-1.3685493-0.2737198l3.2845688-14.2332239
		L41.3336258,11.8610735z"/>
	<path class="st1" d="M42.4284859,40.6924286l-5.2917824,23.0833015l-1.3685379-0.2737198l5.2917709-23.0833817
		L42.4284859,40.6924286z"/>
	<polygon class="st1" points="54.1983337,98.9938889 54.5632477,97.6253281 37.8666267,93.8844604 42.1548538,71.8959961 
		40.8774643,71.6222763 36.22435,94.9794159 36.8629951,95.0706024 	"/>
	
		<rect x="76.1635971" y="88.4796906" transform="matrix(0.2514893 -0.9678601 0.9678601 0.2514893 -36.0660706 146.7540283)" class="st2" width="1.3666992" height="16.4297943"/>
	
		<rect x="105.3257141" y="89.4003983" transform="matrix(0.2514893 -0.9678601 0.9678601 0.2514893 -14.4226093 175.1217041)" class="st2" width="1.3666916" height="14.9700317"/>
</g>
<path id="Doors" class="st1" d="M77.5553513,59.305027c-1.0036316,0-1.8247604-0.1824532-2.737114-0.5474358
	c-0.9123688-0.3650093-1.7334671-0.9123688-2.3722076-1.5510139c-0.7299194-0.6387253-1.2773972-1.4598427-1.6423035-2.3722115
	c-0.3650055-0.912365-0.5474548-1.824749-0.5474548-2.8283844h7.2990799 M89.4163895,50.1812134
	c1.0036316,0,1.8247681,0.1824722,2.737114,0.5474586c0.9123688,0.3650055,1.7334671,0.912365,2.3722153,1.5510101
	c0.7299118,0.6387062,1.2773895,1.4598274,1.6423187,2.3721924c0.3649826,0.912365,0.5474319,1.8247719,0.5474319,2.8284035
	h-7.2990799 M97.526123,23.7219887c0,1.0036316,0.182457,1.8247509,0.5474396,2.7371159
	c0.3650055,0.9123669,0.9123688,1.7335644,1.5511093,2.3722115c0.638649,0.7299118,1.4598465,1.2773914,2.3722153,1.6422977
	s1.8247528,0.5474586,2.8283997,0.5474586v-7.2990837 M86.6792679,65.6917496c0,1.0036316-0.1824493,1.8247528-0.5474396,2.737114
	c-0.3650055,0.9123688-0.9123611,1.7335892-1.5511093,2.3722153c-0.638649,0.7299118-1.4598465,1.2773895-2.3722076,1.6422958
	c-0.9123688,0.3649292-1.8247604,0.5474625-2.828392,0.5474625v-7.2990875 M114.8752975,11.5352755
	c1.1860809,0,2.3688965,0.2736998,3.4637909,0.7298927c1.0949402,0.456192,2.1897583,1.0949183,3.0108566,2.0073042
	c0.8211823,0.8211784,1.5509949,1.8247318,2.0073013,2.9196491c0.4561768,1.094799,0.7298965,2.2809258,0.7298965,3.4670105
	h-9.2117691"/>
<g id="Walls">
	<polygon class="st3" points="114.9631653,0 39.2351646,0.0000199 39.2351761,9.4107847 38.6876984,11.6785011 43.15839,12.6821728 
		43.7971039,10.0362225 43.7971039,4.5619087 112.2260513,4.5618887 112.2260513,11.5360899 114.9631653,11.5360899 	"/>
	<polygon class="st3" points="41.059906,26.4592037 36.5892448,25.4556522 35.9505806,28.1014824 39.2351761,28.8388443 
		39.2351875,41.0573349 44.6965218,41.0573349 44.6965103,26.4592037 	"/>
	<polygon class="st3" points="39.7409439,63.8670158 35.6768608,62.9546509 35.0382233,65.6005783 39.2351952,66.542778 
		39.2351952,77.5527802 44.6965218,77.5527802 44.6965103,63.8669968 	"/>
	<polygon class="st3" points="69.9593582,95.8005981 69.9593506,90.3241959 54.5990524,90.3241959 54.5990601,95.2947235 
		53.6865845,99.3588715 56.3325157,99.9975586 57.2747536,95.8005981 	"/>
	<polygon class="st3" points="99.270134,96.3479156 100.2738724,91.8772736 97.6279373,91.259819 97.6279373,91.2385864 
		84.3606873,91.2385864 84.3606873,95.2947083 83.4483185,99.3588486 86.0942535,99.9975357 87.0364685,95.8005753 
		97.0021439,95.8005753 	"/>
	<polygon class="st3" points="78.4677429,50.1812325 42.6110268,50.1812325 40.1475525,49.6337929 39.9650078,50.5462379 
		42.4284859,51.0935974 77.5553513,51.0935974 77.5553513,52.0059814 78.4677429,52.0059814 	"/>
	<polygon class="st3" points="89.4163895,57.4802971 88.5040054,57.4802971 88.5040054,64.7793655 86.6791687,64.7793655 
		86.6791687,65.6917496 89.4164047,65.6917496 89.4163895,60.2174149 112.2260666,60.2174149 112.2260666,97.0935364 
		111.6785889,99.3613739 114.3245392,100 114.9631882,97.3540268 114.9631653,20.659132 112.2260513,20.659132 
		112.2260513,22.8095818 104.7854691,22.8095818 104.7854691,23.7219887 112.2260513,23.7219887 112.2260513,41.9697609 
		89.4163895,41.96978 89.4163895,23.7219887 97.526123,23.7219887 97.526123,22.8095818 88.5040054,22.8096027 
		88.5040054,50.1812134 89.4163895,50.1812134 89.4163895,42.8821678 112.2260513,42.8821678 112.2260666,59.305027 
		89.4163895,59.305027 	"/>
	<polygon class="st3" points="77.0079956,95.9830093 77.9203873,96.1655045 78.4677582,93.9757462 78.4677505,65.6917496 
		79.3801193,65.6917496 79.3801193,64.7793655 78.4677505,64.7793655 78.4677505,59.305027 77.5553513,59.305027 
		77.5553665,93.793251 	"/>
</g>
</g></svg>
