<?xml version="1.0" encoding="utf-8"?>
<!-- DO NOT EDIT THIS, THIS FILE IS GENERATED FROM "2_7-12_7.original.svg" using transform-svgs.js script -->
<!-- Generator: Adobe Illustrator 24.2.0, SVG Export Plug-In . SVG Version: 6.00 Build 0)  -->
<!DOCTYPE svg PUBLIC "-//W3C//DTD SVG 1.1//EN" "http://www.w3.org/Graphics/SVG/1.1/DTD/svg11.dtd" [
	<!ENTITY ns_extend "http://ns.adobe.com/Extensibility/1.0/">
	<!ENTITY ns_ai "http://ns.adobe.com/AdobeIllustrator/10.0/">
	<!ENTITY ns_graphs "http://ns.adobe.com/Graphs/1.0/">
	<!ENTITY ns_vars "http://ns.adobe.com/Variables/1.0/">
	<!ENTITY ns_imrep "http://ns.adobe.com/ImageReplacement/1.0/">
	<!ENTITY ns_sfw "http://ns.adobe.com/SaveForWeb/1.0/">
	<!ENTITY ns_custom "http://ns.adobe.com/GenericCustomNamespace/1.0/">
	<!ENTITY ns_adobe_xpath "http://ns.adobe.com/XPath/1.0/">
]>
<svg version="1.1" id="Слой_1" xmlns:x="&ns_extend;" xmlns:i="&ns_ai;" xmlns:graph="&ns_graphs;"
	 xmlns="http://www.w3.org/2000/svg" xmlns:xlink="http://www.w3.org/1999/xlink" x="0px" y="0px" viewBox="0 0 150 100"
	 style="enable-background:new 0 0 150 100;" xml:space="preserve"><g transform="translate(32.621397460952245 21.747598307301498) scale(0.5650480338539701)">
<style type="text/css">
	.st0{fill:#DBD4CA;}
	.st1{fill:none;stroke:#565440;}
	.st2{fill:#565440;}
</style>
<metadata>
	<sfw  xmlns="&ns_sfw;">
		<slices></slices>
		<sliceSourceBounds  bottomLeftOrigin="true" height="100" width="136.4083862" x="6.795805" y="0"></sliceSourceBounds>
	</sfw>
</metadata>
<polygon id="Floor" class="st0" points="135.4550934,97.9089584 141.9562378,70.0466385 135.9509277,67.3865051 
	136.0981598,31.5889568 141.6559601,8.5711613 133.9631958,6.4846625 133.9631958,0.0163574 6.795805,0 6.795805,93.7239227 
	16.804678,93.8026505 38.1271439,98.9168701 40.4294472,93.503067 55.1165657,94.0552139 77.0499878,99.0980225 
	79.3665314,93.5529633 97.3006134,94.2804565 120.2029495,94.4649429 "/>
<path id="Windows" class="st1" d="M135.4550934,97.9089584l6.8880157-29.5203629l-1.974884-0.5678787l-6.3960876,27.7982788
	l-13.7691879-2.9990692L97.0786972,92.619957v1.844986h23.1242523L135.4550934,97.9089584z M40.0061531,97.4170456
	l-0.3690338,1.8450165L16.758831,94.0318909l0.369009-1.8450775L40.0061531,97.4170456z M78.1365738,97.4170151L77.76754,99.2620392
	l-21.5252609-4.9200745l0.3690338-1.8450241L78.1365738,97.4170151z M142.0971985,6.6420536l-5.2889862,23.1241493
	l-1.8449554-0.369009l5.2889709-23.124176L142.0971985,6.6420536z"/>
<path id="Doors" class="st1" d="M38.7761421,15.9902353c1.3530235,0,2.4599686,0.2459707,3.6899796,0.7380171
	c1.2300148,0.4919415,2.3370667,1.2299862,3.1980438,2.0909615c0.9839859,0.8610573,1.7220573,1.9680576,2.2140007,3.1980419
	c0.4919395,1.2299576,0.738018,2.4599972,0.738018,3.8130207h-9.8400421 M79.3665314,28.2902737
	c0-1.3530235,0.2459717-2.4600239,0.7380753-3.6899815c0.4919357-1.2299862,1.2299576-2.3369312,2.0909348-3.1980419
	c0.8609772-0.9840145,1.9680786-1.722086,3.1980438-2.2140541c1.230011-0.4920483,2.4599686-0.738018,3.8130417-0.738018v9.8400955
	 M91.6666031,30.7503777c1.3530731,0,2.4599686,0.2459698,3.6899796,0.7380447
	c1.230011,0.4919415,2.3370667,1.2299843,3.1980438,2.0909348c0.9839859,0.8609772,1.7220535,1.9680557,2.2139969,3.19804
	c0.4921036,1.2299881,0.7380753,2.4599991,0.7380753,3.8130226h-9.8400955 M88.7805557,52.8904839
	c0,1.3530235-0.2459641,2.4599991-0.7380676,3.6899834c-0.4919434,1.2299843-1.2299576,2.3370934-2.0909348,3.19804
	c-0.8609772,0.9840164-1.9680328,1.7220879-3.1980438,2.2140274c-1.230011,0.4919701-2.4599686,0.7380447-3.8130417,0.7380447
	v-9.8400955 M24.0159454,3.6900089c0,1.5990207-0.3689823,3.0750029-0.9839878,4.5510654
	c-0.6150074,1.4761162-1.4759827,2.9520712-2.7061024,4.0590181c-1.1070538,1.1070528-2.4599705,2.091095-3.93606,2.7061005
	c-1.4760885,0.6149797-3.074975,0.9839888-4.673996,0.9840155V3.6900358"/>
<g id="Walls">
	<polygon class="st2" points="37.5461311,3.6900089 37.5461311,15.9902353 38.7761421,15.9902353 38.7761421,3.6900089 
		55.9963074,3.6900089 55.9963074,28.2902737 38.7761421,28.2902737 38.7761421,25.8302765 37.5461311,25.8302765 
		37.5461311,29.5202599 38.7761421,29.5202599 79.3665314,29.5202599 79.3665314,28.2902737 57.2263184,28.2902737 
		57.226265,3.6900089 90.4365845,3.6900089 90.4366379,28.2902737 89.2066269,28.2902737 89.2066269,29.5202599 
		90.4366379,29.5202599 90.4366379,30.7503777 91.6666031,30.7503777 91.6666031,3.6900089 133.4869995,3.6899822 
		133.485672,7.4086957 141.7282104,9.3481283 142.5891876,5.7810774 137.1770935,4.507607 137.1770935,0 24.0159454,0.0000268 
		24.0159454,3.6900089 	"/>
	<polygon class="st2" points="53.4178772,94.7110519 57.682003,95.6950378 59.0351372,89.668045 54.3610573,88.5609131 
		38.2983398,88.5609131 38.2983398,94.7110519 38.3084602,94.7110519 37.3144569,99.1390533 40.8814812,100 42.0687599,94.7110519 	
		"/>
	<polygon class="st2" points="10.4858141,87.3371887 10.4857874,3.6900358 11.7157726,3.6900358 11.7157726,0.0000268 
		6.795805,0.0000536 6.7958317,94.7110748 18.445385,94.7110748 18.445385,87.3371887 	"/>
	<polygon class="st2" points="78.9404678,52.8904839 78.9404678,51.6604996 77.5493088,51.6604996 77.5493088,43.0504417 
		76.3192978,43.0504417 76.3293686,94.7110519 75.3353119,99.1390228 78.9023361,100 80.0897751,94.7110519 98.3018494,94.7110519 
		98.3018494,87.3371658 77.5493088,87.3371658 77.5493088,52.8904839 	"/>
	<polygon class="st2" points="91.6666031,51.6604996 91.6666031,40.5904198 90.4366379,40.5904465 90.4366379,51.6604996 
		88.7805557,51.6604996 88.7805557,52.8904839 131.0270386,52.8904839 131.0270386,68.8806686 131.0546722,68.8806686 
		131.0270386,69.0037079 141.8512726,71.4638367 143.2041931,65.4366531 137.1771545,64.0668945 137.1771545,25.8302498 
		133.4869995,25.8302498 133.4869995,51.6604996 	"/>
</g>
</g></svg>
