<?xml version="1.0" encoding="utf-8"?>
<!-- DO NOT EDIT THIS, THIS FILE IS GENERATED FROM "2_7-12_4.original.svg" using transform-svgs.js script -->
<!-- Generator: Adobe Illustrator 24.2.0, SVG Export Plug-In . SVG Version: 6.00 Build 0)  -->
<!DOCTYPE svg PUBLIC "-//W3C//DTD SVG 1.1//EN" "http://www.w3.org/Graphics/SVG/1.1/DTD/svg11.dtd" [
	<!ENTITY ns_extend "http://ns.adobe.com/Extensibility/1.0/">
	<!ENTITY ns_ai "http://ns.adobe.com/AdobeIllustrator/10.0/">
	<!ENTITY ns_graphs "http://ns.adobe.com/Graphs/1.0/">
	<!ENTITY ns_vars "http://ns.adobe.com/Variables/1.0/">
	<!ENTITY ns_imrep "http://ns.adobe.com/ImageReplacement/1.0/">
	<!ENTITY ns_sfw "http://ns.adobe.com/SaveForWeb/1.0/">
	<!ENTITY ns_custom "http://ns.adobe.com/GenericCustomNamespace/1.0/">
	<!ENTITY ns_adobe_xpath "http://ns.adobe.com/XPath/1.0/">
]>
<svg version="1.1" id="Слой_1" xmlns:x="&ns_extend;" xmlns:i="&ns_ai;" xmlns:graph="&ns_graphs;"
	 xmlns="http://www.w3.org/2000/svg" xmlns:xlink="http://www.w3.org/1999/xlink" x="0px" y="0px" viewBox="0 0 150 100"
	 style="enable-background:new 0 0 150 100;" xml:space="preserve"><g transform="translate(11.11472559766214 7.4098170651080935) scale(0.8518036586978381)">
<style type="text/css">
	.st0{fill:#DBD4CA;}
	.st1{fill:none;stroke:#565440;}
	.st2{fill:#565440;}
</style>
<metadata>
	<sfw  xmlns="&ns_sfw;">
		<slices></slices>
		<sliceSourceBounds  bottomLeftOrigin="true" height="100" width="74.8813477" x="37.5593262" y="0"></sliceSourceBounds>
	</sfw>
</metadata>
<polygon id="Floor_1_" class="st0" points="38.0915337,0.0000181 110.2208557,0.024946 110.2208557,89.1954727 
	38.1067963,89.1954727 "/>
<path id="Windows" class="st1" d="M109.8762436,0.5128903v1.5386388l-57.443222,0.0000167V0.5129085L109.8762436,0.5128903z"/>
<path id="Doors" class="st1" d="M77.5643997,44.1081848c1.1283798,0,2.0515213,0.2052269,3.0772705,0.6154861
	c1.0257721,0.4102631,1.9490051,1.0257454,2.6670151,1.7437553c0.8206482,0.7180977,1.4361191,1.6412659,1.8463974,2.6670113
	c0.4102554,1.0257492,0.6154938,2.0515251,0.6154938,3.1798897h-8.2061539 M84.7448044,70.7782974
	c1.1283798,0,2.0515213-0.2052231,3.0773621-0.6154938c1.0257721-0.4102554,1.9489975-1.0257416,2.6670151-1.7437515
	c0.8206406-0.7180939,1.4361191-1.6412659,1.8463898-2.6670151c0.4102554-1.0257416,0.6155014-2.0515289,0.6155014-3.1798859
	h-8.2061615 M75.3473206,89.2422333c0,1.3334961-0.3077621,2.5644073-0.8206482,3.795372
	c-0.5128632,1.2310181-1.2308807,2.4618912-2.2566299,3.385025c-0.9232483,0.9232254-2.0515213,1.7437515-3.2825089,2.2567596
	C67.7566376,99.1922607,66.4231491,99.5,65.0896378,99.5V89.2423325"/>
<g id="Walls">
	<rect x="88.8479156" y="0.0000056" class="st2" width="7.1804056" height="5.1288819"/>
	<polygon class="st2" points="76.5386276,6.0457873 76.5386276,44.1081848 77.5643997,44.1081848 77.5643997,5.0200238 
		74.4871063,5.0200238 74.4871063,0.0000112 67.3067169,0.000014 67.3067169,6.0457902 	"/>
	<polygon class="st2" points="60.5992508,86.1648407 60.5992508,79.1870804 59.5592537,79.1870956 59.5592537,86.1648407 
		40.6366425,86.1648483 40.6365967,6.1494761 52.9459076,6.1494737 52.9458847,0.0000181 37.5593262,0.0000237 
		37.5593491,89.2422409 65.0895309,89.2422409 65.0895309,86.1648407 	"/>
	<polygon class="st2" points="112.4406281,0 109.3633575,0 109.3633804,59.4948387 84.7448044,59.4948463 84.7448044,53.3402023 
		77.5643997,53.3402023 77.5643997,52.3144569 76.5386505,52.3144569 76.5386505,60.5205956 77.5643997,60.5205956 
		77.5643997,54.3659515 83.7190552,54.3659515 83.7190552,62.5721207 84.7448044,62.5721207 84.7448044,60.5205956 
		109.3633804,60.5205841 109.3633804,86.1648254 84.7448044,86.1648254 84.7448044,70.7782974 83.7190552,70.7782974 
		83.7190552,86.1648254 75.3473206,86.1648407 75.3473206,89.2422333 112.4406738,89.2422256 	"/>
</g>
</g></svg>
