<svg width="722" height="169" viewBox="0 0 722 169" fill="none" xmlns="http://www.w3.org/2000/svg">
<path d="M121.067 168.465L47.9434 80.0871L114.747 1H98.0464L14.767 98.8958V1H1V168.465H14.767V118.158L38.6901 90.0579L103.463 168.465H121.067Z" stroke="#565440"/>
<path d="M253.772 168.465L187.645 1H180.197L113.619 168.465H128.74L148.601 117.704H218.79L238.651 168.465H253.772ZM214.276 104.788H153.115L183.808 25.7005L214.276 104.788Z" stroke="#565440"/>
<path d="M284.995 168.465V35.4448L348.865 129.941H352.25L415.895 35.2182V168.465H429.662V1H423.342L350.67 109.32L277.321 1H271.228V168.465H284.995Z" stroke="#565440"/>
<path d="M567.173 168.465V155.322H480.057V90.0579H560.854V77.1411H480.057V14.1434H566.722V1H466.29V168.465H567.173Z" stroke="#565440"/>
<path d="M707.233 138.553L598.902 1H592.808V168.465H606.575V32.2723L713.778 168.465H721V1H707.233V138.553Z" stroke="#565440"/>
</svg>
