<svg width="1442" height="335" viewBox="0 0 1442 335" fill="none" xmlns="http://www.w3.org/2000/svg">
<path d="M241.133 334L94.8867 158.263L228.495 1H195.093L28.5341 195.663V1H1V334H28.5341V233.965L76.3802 178.089L205.926 334H241.133Z" stroke="#565440"/>
<path d="M506.544 334L374.29 1H359.395L226.238 334H256.48L296.202 233.064H436.58L476.302 334H506.544ZM427.553 207.379H305.229L366.617 50.1164L427.553 207.379Z" stroke="#565440"/>
<path d="M568.989 334V69.4926L696.729 257.396H703.5L830.789 69.042V334H858.323V1H845.684L700.341 216.391L553.643 1H541.455V334H568.989Z" stroke="#565440"/>
<path d="M1133.35 334V307.865H959.114V178.089H1120.71V152.405H959.114V27.1353H1132.44V1H931.58V334H1133.35Z" stroke="#565440"/>
<path d="M1413.47 274.52L1196.8 1H1184.62V334H1212.15V63.184L1426.56 334H1441V1H1413.47V274.52Z" stroke="#565440"/>
</svg>
