<svg width="1442" height="253" viewBox="0 0 1442 253" fill="none" xmlns="http://www.w3.org/2000/svg">
<path d="M21.3096 247.835H21.8096V247.335V24.7577H155.77V247.335V247.835H156.27H176.252H176.752V247.335V5.25846V4.75846H176.252H1H0.5V5.25846V247.335V247.835H1H21.3096ZM229.418 4.75846H228.918V5.25846V247.335V247.835H229.418H249.4H249.9V247.335V153.822H301.157C327.13 153.822 346.932 146.586 360.81 132.047C374.985 117.212 381.913 99.727 381.913 79.2901C381.913 59.188 375.318 41.7066 361.803 26.872C348.579 11.9963 329.426 4.75846 304.105 4.75846H229.418ZM827.243 247.835H827.743V247.335V228.336V227.836H827.243H701.299V134.495H818.071H818.571V133.995V115.323V114.823H818.071H701.299V24.7577H826.587H827.087V24.2577V5.25846V4.75846H826.587H680.817H680.317V5.25846V247.335V247.835H680.817H827.243ZM1038.72 247.835H1039.78L1039.1 247.016L933.238 119.585L1027.41 8.5521V24.5853V25.0853H1027.91H1100.79V247.335V247.835H1101.29H1121.27H1121.77V247.335V25.0853H1194.64H1195.14V24.5853V5.25846V4.75846H1194.64H1030.63H1029.55H1027.91H1027.41H1005.31H1005.08L1004.93 4.93372L884.932 145.415V5.25846V4.75846H884.432H864.45H863.95V5.25846V247.335V247.835H864.45H884.432H884.932V247.335V174.798L919.149 134.771L1012.78 247.654L1012.93 247.835H1013.17H1038.72ZM1304.4 98.1169H1242.66V5.25846V4.75846H1242.16H1222.18H1221.68V5.25846V247.335V247.835H1222.18H1304.4C1331.02 247.835 1351.49 240.604 1365.04 226.056L1365.04 226.052C1378.56 211.223 1385.48 194.07 1385.48 173.959C1385.48 157.146 1380.54 140.664 1369.01 124.856C1357.42 108.967 1334.65 98.1169 1304.4 98.1169ZM1420.52 247.335V247.835H1421.02H1441H1441.5V247.335V5.25846V4.75846H1441H1421.02H1420.52V5.25846V247.335ZM249.9 134.15V24.7577H305.088C322.171 24.7577 336.042 30.4498 345.64 40.0482C355.239 49.6473 360.603 63.1907 360.603 78.9625C360.603 94.7281 354.998 108.516 344.827 118.362C334.656 128.209 319.883 134.15 301.485 134.15H249.9ZM519.208 251.766C554.061 251.766 583.671 239.595 608.007 214.931C632.669 190.27 644.841 160.661 644.841 126.133C644.841 91.6054 632.669 61.9966 608.007 37.3347C583.673 12.6727 554.391 0.5 519.864 0.5C485.333 0.5 455.724 13.0025 431.39 37.6646C407.057 62.3263 394.886 91.9342 394.886 126.788C394.886 161.314 407.057 190.922 431.063 215.257C455.072 239.594 484.682 251.766 519.208 251.766ZM519.864 231.439C490.84 231.439 466.075 221.336 446.191 201.127C426.3 180.584 416.195 155.813 416.195 126.461C416.195 97.1087 426.3 72.3387 446.19 51.7958C466.406 31.2537 490.846 20.8268 519.864 20.8268C548.887 20.8268 573.324 30.9298 593.208 51.4665C613.099 72.0092 623.204 96.7795 623.204 126.461C623.204 155.812 613.1 180.582 593.211 201.124C573.326 221.336 548.887 231.439 519.864 231.439ZM1242.66 227.836V117.789H1303.42C1322.32 117.789 1337.42 123.328 1347.79 132.888C1358.16 142.446 1363.85 156.064 1363.85 172.321C1363.85 188.739 1358 202.603 1347.26 212.365C1336.53 222.132 1320.85 227.836 1301.13 227.836H1242.66Z" stroke="#C49F8A"/>
</svg>
