<svg width="340" height="50" viewBox="0 0 340 50" fill="none" xmlns="http://www.w3.org/2000/svg">
<path d="M24.5016 50C31.3724 50 37.2061 47.5785 42.0027 42.6702C46.8641 37.7618 49.2624 31.8717 49.2624 25C49.2624 18.1283 46.8641 12.2382 42.0027 7.32984C37.2061 2.42147 31.4372 0 24.6312 0C17.8252 0 11.9915 2.48691 7.1949 7.39529C2.3983 12.3037 0 18.1937 0 25.1309C0 32.0026 2.3983 37.8927 7.13008 42.7356C11.8619 47.5785 17.6956 50 24.5016 50ZM24.6312 46.1387C18.8623 46.1387 13.9361 44.1099 9.98211 40.0524C6.02816 35.9293 4.01877 30.9555 4.01877 25.0654C4.01877 19.1754 6.02816 14.2016 9.98211 10.0785C14.0009 5.9555 18.8623 3.86126 24.6312 3.86126C30.4001 3.86126 35.2615 5.89005 39.2154 10.0131C43.1694 14.1361 45.1788 19.1099 45.1788 25.0654C45.1788 30.9555 43.1694 35.9293 39.2154 40.0524C35.2615 44.1099 30.4001 46.1387 24.6312 46.1387Z" fill="#E9E4DC"/>
<path d="M73.9209 49.2147V4.6466H100.626V49.2147H104.58V0.850786H69.9021V49.2147H73.9209Z" fill="#E9E4DC"/>
<path d="M115.101 0.850786V49.2147H119.055V30.4319H129.296C134.417 30.4319 138.306 28.9921 141.028 26.1126C143.815 23.1675 145.177 19.699 145.177 15.6414C145.177 11.6492 143.88 8.18063 141.223 5.2356C138.63 2.29058 134.87 0.850786 129.879 0.850786H115.101ZM119.055 26.7016V4.6466H130.074C136.88 4.6466 141.158 9.22775 141.158 15.5759C141.158 21.9241 136.685 26.7016 129.361 26.7016H119.055Z" fill="#E9E4DC"/>
<path d="M172.443 50C179.314 50 185.148 47.5785 189.944 42.6702C194.806 37.7618 197.204 31.8717 197.204 25C197.204 18.1283 194.806 12.2382 189.944 7.32984C185.148 2.42147 179.379 0 172.573 0C165.767 0 159.933 2.48691 155.136 7.39529C150.34 12.3037 147.942 18.1937 147.942 25.1309C147.942 32.0026 150.34 37.8927 155.072 42.7356C159.803 47.5785 165.637 50 172.443 50ZM172.573 46.1387C166.804 46.1387 161.878 44.1099 157.924 40.0524C153.97 35.9293 151.96 30.9555 151.96 25.0654C151.96 19.1754 153.97 14.2016 157.924 10.0785C161.942 5.9555 166.804 3.86126 172.573 3.86126C178.342 3.86126 183.203 5.89005 187.157 10.0131C191.111 14.1361 193.12 19.1099 193.12 25.0654C193.12 30.9555 191.111 35.9293 187.157 40.0524C183.203 44.1099 178.342 46.1387 172.573 46.1387Z" fill="#E9E4DC"/>
<path d="M233.396 49.2147V45.4188H208.376V26.5707H231.581V22.8403H208.376V4.6466H233.266V0.850786H204.422V49.2147H233.396Z" fill="#E9E4DC"/>
<path d="M275.242 49.2147L254.241 23.6911L273.427 0.850786H268.63L244.712 29.123V0.850786H240.758V49.2147H244.712V34.6859L251.583 26.5707L270.186 49.2147H275.242Z" fill="#E9E4DC"/>
<path d="M287.622 49.2147H291.576V4.71204H306.096V0.850786H273.103V4.71204H287.622V49.2147Z" fill="#E9E4DC"/>
<path d="M340 49.2147V45.4188H314.98V26.5707H338.185V22.8403H314.98V4.6466H339.87V0.850786H311.026V49.2147H340Z" fill="#E9E4DC"/>
</svg>
