<?xml version="1.0" encoding="utf-8"?>
<!-- DO NOT EDIT THIS, THIS FILE IS GENERATED FROM "1_25-36.original_8.svg" using transform-svgs.js script -->
<!-- Generator: Adobe Illustrator 24.2.0, SVG Export Plug-In . SVG Version: 6.00 Build 0)  -->
<!DOCTYPE svg PUBLIC "-//W3C//DTD SVG 1.1//EN" "http://www.w3.org/Graphics/SVG/1.1/DTD/svg11.dtd" [
	<!ENTITY ns_extend "http://ns.adobe.com/Extensibility/1.0/">
	<!ENTITY ns_ai "http://ns.adobe.com/AdobeIllustrator/10.0/">
	<!ENTITY ns_graphs "http://ns.adobe.com/Graphs/1.0/">
	<!ENTITY ns_vars "http://ns.adobe.com/Variables/1.0/">
	<!ENTITY ns_imrep "http://ns.adobe.com/ImageReplacement/1.0/">
	<!ENTITY ns_sfw "http://ns.adobe.com/SaveForWeb/1.0/">
	<!ENTITY ns_custom "http://ns.adobe.com/GenericCustomNamespace/1.0/">
	<!ENTITY ns_adobe_xpath "http://ns.adobe.com/XPath/1.0/">
]>
<svg version="1.1" id="Слой_1" xmlns:x="&ns_extend;" xmlns:i="&ns_ai;" xmlns:graph="&ns_graphs;"
	 xmlns="http://www.w3.org/2000/svg" xmlns:xlink="http://www.w3.org/1999/xlink" x="0px" y="0px" viewBox="0 0 35 50"
	 style="enable-background:new 0 0 35 50;" xml:space="preserve">
<style type="text/css">
	.st0{fill:#D5C5B7;}
</style>
<metadata>
	<sfw  xmlns="&ns_sfw;">
		<slices></slices>
		<sliceSourceBounds  bottomLeftOrigin="true" height="50.0000038" width="35.0000076" x="0" y="0"></sliceSourceBounds>
	</sfw>
</metadata>
<polygon id="apart_x5F_04" class="st0" points="12,11 0,11 0,24 9,24 9,19 12,19 "/>
<rect id="apart_x5F_03" y="25" class="st0" width="9" height="8"/>
<rect id="apart_x5F_02" y="34" class="st0" width="9" height="16"/>
<polygon id="apart_x5F_01" class="st0" points="18,34 12,34 12,39 10,39 10,50 18,50 "/>
<polygon id="apart_x5F_08" style="fill: #565440;" class="st0" points="26,26 26,30 22,30 22,39 35,39 35,26 "/>
<rect id="apart_x5F_07" x="26" y="16.9999962" class="st0" width="9" height="8"/>
<rect id="apart_x5F_06" x="26.0000076" y="-0.0000039" class="st0" width="9" height="15.9999971"/>
<polygon id="apart_x5F_05" class="st0" points="23,10 25,10 25,0 17,0 17,16 23,16 "/>
<g id="rectangles">
	<rect x="19" y="34" class="st0" width="2" height="1"/>
	<rect x="13" y="15" class="st0" width="3" height="1"/>
</g>
</svg>
