<?xml version="1.0" encoding="utf-8"?>
<!-- DO NOT EDIT THIS, THIS FILE IS GENERATED FROM "1_7-12.original_10.svg" using transform-svgs.js script -->
<!-- Generator: Adobe Illustrator 24.2.0, SVG Export Plug-In . SVG Version: 6.00 Build 0)  -->
<!DOCTYPE svg PUBLIC "-//W3C//DTD SVG 1.1//EN" "http://www.w3.org/Graphics/SVG/1.1/DTD/svg11.dtd" [
	<!ENTITY ns_extend "http://ns.adobe.com/Extensibility/1.0/">
	<!ENTITY ns_ai "http://ns.adobe.com/AdobeIllustrator/10.0/">
	<!ENTITY ns_graphs "http://ns.adobe.com/Graphs/1.0/">
	<!ENTITY ns_vars "http://ns.adobe.com/Variables/1.0/">
	<!ENTITY ns_imrep "http://ns.adobe.com/ImageReplacement/1.0/">
	<!ENTITY ns_sfw "http://ns.adobe.com/SaveForWeb/1.0/">
	<!ENTITY ns_custom "http://ns.adobe.com/GenericCustomNamespace/1.0/">
	<!ENTITY ns_adobe_xpath "http://ns.adobe.com/XPath/1.0/">
]>
<svg version="1.1" id="Слой_1" xmlns:x="&ns_extend;" xmlns:i="&ns_ai;" xmlns:graph="&ns_graphs;"
	 xmlns="http://www.w3.org/2000/svg" xmlns:xlink="http://www.w3.org/1999/xlink" x="0px" y="0px" viewBox="0 0 35 50"
	 style="enable-background:new 0 0 35 50;" xml:space="preserve">
<style type="text/css">
	.st0{fill:#D5C5B7;}
</style>
<metadata>
	<sfw  xmlns="&ns_sfw;">
		<slices></slices>
		<sliceSourceBounds  bottomLeftOrigin="true" height="50" width="35" x="0" y="0"></sliceSourceBounds>
	</sfw>
</metadata>
<rect id="apart_x5F_05_1_" y="11" class="st0" width="12" height="8"/>
<rect id="apart_x5F_04_1_" y="20" class="st0" width="9" height="8"/>
<rect id="apart_x5F_03" y="29" class="st0" width="9" height="8"/>
<rect id="apart_x5F_02" y="38" class="st0" width="9" height="12"/>
<polygon id="apart_x5F_01" class="st0" points="18,34 12,34 12,39 10,39 10,50 18,50 "/>
<rect id="apart_x5F_10" style="fill: #565440;" x="22" y="30" class="st0" width="13" height="9"/>
<rect id="apart_x5F_09" x="26" y="21" class="st0" width="9" height="8"/>
<rect id="apart_x5F_08" x="26" y="12" class="st0" width="9" height="8"/>
<rect id="apart_x5F_07" x="26" class="st0" width="9" height="11"/>
<polygon id="apart_x5F_06" class="st0" points="23,10 25,10 25,0 17,0 17,16 23,16 "/>
<g id="rectangles">
	<rect x="19" y="34" class="st0" width="2" height="1"/>
	<rect x="13" y="15" class="st0" width="3" height="1"/>
</g>
</svg>
