<?xml version="1.0" encoding="utf-8"?>
<!-- DO NOT EDIT THIS, THIS FILE IS GENERATED FROM "2_24.original_4.svg" using transform-svgs.js script -->
<!-- Generator: Adobe Illustrator 24.2.0, SVG Export Plug-In . SVG Version: 6.00 Build 0)  -->
<!DOCTYPE svg PUBLIC "-//W3C//DTD SVG 1.1//EN" "http://www.w3.org/Graphics/SVG/1.1/DTD/svg11.dtd" [
	<!ENTITY ns_extend "http://ns.adobe.com/Extensibility/1.0/">
	<!ENTITY ns_ai "http://ns.adobe.com/AdobeIllustrator/10.0/">
	<!ENTITY ns_graphs "http://ns.adobe.com/Graphs/1.0/">
	<!ENTITY ns_vars "http://ns.adobe.com/Variables/1.0/">
	<!ENTITY ns_imrep "http://ns.adobe.com/ImageReplacement/1.0/">
	<!ENTITY ns_sfw "http://ns.adobe.com/SaveForWeb/1.0/">
	<!ENTITY ns_custom "http://ns.adobe.com/GenericCustomNamespace/1.0/">
	<!ENTITY ns_adobe_xpath "http://ns.adobe.com/XPath/1.0/">
]>
<svg version="1.1" id="Слой_1" xmlns:x="&ns_extend;" xmlns:i="&ns_ai;" xmlns:graph="&ns_graphs;"
	 xmlns="http://www.w3.org/2000/svg" xmlns:xlink="http://www.w3.org/1999/xlink" x="0px" y="0px" viewBox="0 0 50 35"
	 style="enable-background:new 0 0 50 35;" xml:space="preserve">
<style type="text/css">
	.st0{fill:#D5C5B7;}
</style>
<metadata>
	<sfw  xmlns="&ns_sfw;">
		<slices></slices>
		<sliceSourceBounds  bottomLeftOrigin="true" height="35.0000229" width="50" x="0" y="-0.0000229"></sliceSourceBounds>
	</sfw>
</metadata>
<g id="rectangles">
	<rect x="15.000021" y="19.0000458" class="st0" width="1" height="2"/>
	<rect x="34.0000191" y="13.0000458" class="st0" width="1" height="3"/>
</g>
<polygon id="apart_x5F_01" class="st0" points="16,9.000061 16,0.000061 0,0.000061 0,18.000061 16,18.000061 16,12.000061
	12,12.000061 12,9.000061 "/>
<polygon id="apart_x5F_06" class="st0" points="24,35.0000229 24,26.0000229 20,26.0000229 20,22.0000229 11.0000019,22.0000229
	11.0000019,35.0000229 "/>
<rect id="apart_x5F_05_1_" x="25" y="26" class="st0" width="8" height="9"/>
<rect id="apart_x5F_04" style="fill: #565440;" x="34" y="26" class="st0" width="16" height="9"/>
<polygon id="apart_x5F_03" class="st0" points="40,23 40,25 50,25 50,17 34,17 34,23 "/>
<polygon id="apart_x5F_02" class="st0" points="17,0.000061 17,9.000061 31,9 31,12 39,12 39,0 "/>
</svg>
