<?xml version="1.0" encoding="utf-8"?>
<!-- DO NOT EDIT THIS, THIS FILE IS GENERATED FROM "2_25-36.original_2.svg" using transform-svgs.js script -->
<!-- Generator: Adobe Illustrator 24.2.0, SVG Export Plug-In . SVG Version: 6.00 Build 0)  -->
<!DOCTYPE svg PUBLIC "-//W3C//DTD SVG 1.1//EN" "http://www.w3.org/Graphics/SVG/1.1/DTD/svg11.dtd" [
	<!ENTITY ns_extend "http://ns.adobe.com/Extensibility/1.0/">
	<!ENTITY ns_ai "http://ns.adobe.com/AdobeIllustrator/10.0/">
	<!ENTITY ns_graphs "http://ns.adobe.com/Graphs/1.0/">
	<!ENTITY ns_vars "http://ns.adobe.com/Variables/1.0/">
	<!ENTITY ns_imrep "http://ns.adobe.com/ImageReplacement/1.0/">
	<!ENTITY ns_sfw "http://ns.adobe.com/SaveForWeb/1.0/">
	<!ENTITY ns_custom "http://ns.adobe.com/GenericCustomNamespace/1.0/">
	<!ENTITY ns_adobe_xpath "http://ns.adobe.com/XPath/1.0/">
]>
<svg version="1.1" id="Слой_1" xmlns:x="&ns_extend;" xmlns:i="&ns_ai;" xmlns:graph="&ns_graphs;"
	 xmlns="http://www.w3.org/2000/svg" xmlns:xlink="http://www.w3.org/1999/xlink" x="0px" y="0px" viewBox="0 0 50 35"
	 style="enable-background:new 0 0 50 35;" xml:space="preserve">
<style type="text/css">
	.st0{fill:#D5C5B7;}
</style>
<metadata>
	<sfw  xmlns="&ns_sfw;">
		<slices></slices>
		<sliceSourceBounds  bottomLeftOrigin="true" height="35" width="50" x="0" y="0"></sliceSourceBounds>
	</sfw>
</metadata>
<rect id="apart_x5F_02_2_" style="fill: #565440;" class="st0" width="16" height="9"/>
<polygon id="apart_x5F_01_3_" class="st0" points="16,18 16,12 11,12 11,10 0,10 0,18 "/>
<polygon id="apart_x5F_08" class="st0" points="20,26 20,22 11,22 11,35 24,35 24,26 "/>
<rect id="apart_x5F_07_2_" x="25" y="26" class="st0" width="8" height="9"/>
<polygon id="apart_x5F_06" class="st0" points="34,26 34,35 50,35 50,26 "/>
<polygon id="apart_x5F_05" class="st0" points="40,23 40,25 50,25 50,17 34,17 34,23 "/>
<polygon id="apart_x5F_04" class="st0" points="26,0 26,9 31,9 31,12 39,12 39,0 "/>
<rect id="apart_x5F_03" x="17" class="st0" width="8" height="9"/>
<g id="rectangles">
	<rect x="15" y="19" class="st0" width="1" height="2"/>
	<rect x="34" y="13" class="st0" width="1" height="3"/>
</g>
</svg>
