<?xml version="1.0" encoding="utf-8"?>
<!-- DO NOT EDIT THIS, THIS FILE IS GENERATED FROM "2_39.original_1.svg" using transform-svgs.js script -->
<!-- Generator: Adobe Illustrator 24.2.0, SVG Export Plug-In . SVG Version: 6.00 Build 0)  -->
<!DOCTYPE svg PUBLIC "-//W3C//DTD SVG 1.1//EN" "http://www.w3.org/Graphics/SVG/1.1/DTD/svg11.dtd" [
	<!ENTITY ns_extend "http://ns.adobe.com/Extensibility/1.0/">
	<!ENTITY ns_ai "http://ns.adobe.com/AdobeIllustrator/10.0/">
	<!ENTITY ns_graphs "http://ns.adobe.com/Graphs/1.0/">
	<!ENTITY ns_vars "http://ns.adobe.com/Variables/1.0/">
	<!ENTITY ns_imrep "http://ns.adobe.com/ImageReplacement/1.0/">
	<!ENTITY ns_sfw "http://ns.adobe.com/SaveForWeb/1.0/">
	<!ENTITY ns_custom "http://ns.adobe.com/GenericCustomNamespace/1.0/">
	<!ENTITY ns_adobe_xpath "http://ns.adobe.com/XPath/1.0/">
]>
<svg version="1.1" id="Слой_1" xmlns:x="&ns_extend;" xmlns:i="&ns_ai;" xmlns:graph="&ns_graphs;"
	 xmlns="http://www.w3.org/2000/svg" xmlns:xlink="http://www.w3.org/1999/xlink" x="0px" y="0px" viewBox="0 0 50 35"
	 style="enable-background:new 0 0 50 35;" xml:space="preserve">
<style type="text/css">
	.st0{fill:#D5C5B7;}
</style>
<metadata>
	<sfw  xmlns="&ns_sfw;">
		<slices></slices>
		<sliceSourceBounds  bottomLeftOrigin="true" height="35" width="50" x="0" y="0"></sliceSourceBounds>
	</sfw>
</metadata>
<polygon id="rectangles_1_" class="st0" points="50,35 50,34.999939 50,17 35,17 35,13 34,13 34,18 49,18 49,33.999939 
	12,33.999939 12,23 15,23 15,19 14,19 14,22 11,22 11,34.999939 "/>
<polygon id="apart_x5F_01_1_" style="fill: #565440;" class="st0" points="12,12 12,0 0,0 0,18 16,18 16,12 "/>
<rect id="apart_x5F_02" x="13" class="st0" width="8" height="9"/>
<polygon id="apart_x5F_03" class="st0" points="22,0 22,9 31,9 31,12 39,12 39,0 "/>
</svg>
