<svg width="145" height="103" viewBox="0 0 145 103" fill="none" xmlns="http://www.w3.org/2000/svg">
<path d="M3.99972 20.8035C3.99972 19.6036 4.10769 18.4062 4.32233 17.2257L4.67655 15.2775C4.89156 14.095 5.21273 12.9342 5.63617 11.8093L7.44652 7.00005C8.35884 3.31112 11.6692 0.719758 15.4692 0.719758L19.7594 0.719761L38.1424 2.7409C39.7067 2.91289 41.2404 3.29636 42.7016 3.88081L47.1248 5.65002C49.2572 6.50294 51.6622 6.33594 53.6562 5.19651C56.0289 3.84073 58.9498 3.87699 61.2881 5.29124L65.0114 7.54329C66.7338 8.58505 68.9576 8.22277 70.2603 6.6882C71.3311 5.42685 73.0549 4.93246 74.6314 5.4346L85.0244 8.74495C86.2895 9.1479 87.5916 9.42388 88.9114 9.56879L101.957 11.0012C104.947 11.3295 107.825 12.3279 110.375 13.9221L115.556 17.1604C117.504 18.3777 119.227 19.9215 120.65 21.7239L140.943 47.4169C142.184 48.988 141.331 51.3154 139.369 51.7125C138.728 51.8423 138.156 52.2017 137.761 52.7233L136.446 54.4605C134.899 56.5034 132.508 57.7337 129.947 57.8054L110.542 58.3484L106.904 58.232C104.064 58.1411 101.872 60.7079 102.407 63.499C102.839 65.7509 101.483 67.9605 99.2792 68.595L97.6838 69.0545C96.1445 69.4978 94.4938 69.3336 93.072 68.5955L78.6719 61.1205C77.447 60.4847 76.0996 60.1198 74.7212 60.0507L71.09 59.8686C69.6837 59.7981 68.4374 58.9406 67.869 57.6524C66.8444 55.3307 63.8487 54.691 61.9652 56.3918L50.5732 66.6789C47.8495 69.1385 44.31 70.5001 40.6401 70.5001H28.9992L11.8817 70.5001C7.44321 70.5001 4.45317 65.9586 6.20735 61.8814C6.98646 60.0706 6.8545 57.9966 5.85215 56.2991L1.41196 48.7796C-0.655854 45.2777 -0.422505 40.8774 2.00408 37.6139C3.29993 35.8711 3.99972 33.7571 3.99972 31.5854L3.99972 25.5001L3.99972 20.8035Z" fill="#D0D8AD"/>
<path d="M22 20V58H33V74H90V103H145V34L70 20H22Z" fill="#F6F2EB"/>
</svg>
