<svg width="420" height="54" viewBox="0 0 420 54" fill="none" xmlns="http://www.w3.org/2000/svg">
<path d="M43.8927 53.1518L23.1832 0.918849H20.8508L0 53.1518H4.7356L10.9555 37.3194H32.9372L39.1571 53.1518H43.8927ZM31.5236 33.2906H12.3691L21.9817 8.62303L31.5236 33.2906Z" fill="#565440"/>
<path d="M49.3594 0.918849V53.1518H53.6709V32.8665H64.8384C70.4222 32.8665 74.663 31.3115 77.6316 28.2016C80.6709 25.0209 82.1552 21.2749 82.1552 16.8927C82.1552 12.5812 80.7416 8.83508 77.8437 5.65445C75.0164 2.47382 70.917 0.918849 65.4746 0.918849H49.3594ZM53.6709 28.8377V5.01832H65.6866C73.1081 5.01832 77.773 9.96597 77.773 16.822C77.773 23.678 72.896 28.8377 64.9091 28.8377H53.6709Z" fill="#565440"/>
<path d="M122.931 53.1518L102.221 0.918849H99.8888L79.038 53.1518H83.7737L89.9935 37.3194H111.975L118.195 53.1518H122.931ZM110.562 33.2906H91.4072L101.02 8.62303L110.562 33.2906Z" fill="#565440"/>
<path d="M161.759 53.1518L147.764 30.6754C151.934 29.8979 155.115 28.2016 157.306 25.445C159.568 22.6885 160.698 19.5079 160.698 16.0445C160.698 11.945 159.285 8.411 156.387 5.44241C153.56 2.40314 149.46 0.918849 144.159 0.918849H128.397V53.1518H132.709V31.0995H143.17L156.528 53.1518H161.759ZM144.23 5.01832C151.651 5.01832 156.246 9.4712 156.246 15.9031C156.246 22.4764 151.651 27 143.17 27H132.709V5.01832H144.23Z" fill="#565440"/>
<path d="M178.188 53.1518H182.5V5.08901H198.332V0.918849H162.356V5.08901H178.188V53.1518Z" fill="#565440"/>
<path d="M208.02 53.1518V11.6623L228.022 41.1361H229.083L249.014 11.5916V53.1518H253.326V0.918849H251.347L228.588 34.7042L205.617 0.918849H203.708V53.1518H208.02Z" fill="#565440"/>
<path d="M296.391 53.1518V49.0524H269.109V28.6963H294.412V24.6675H269.109V5.01832H296.25V0.918849H264.797V53.1518H296.391Z" fill="#565440"/>
<path d="M340.255 43.822L306.328 0.918849H304.42V53.1518H308.731V10.6728L342.305 53.1518H344.566V0.918849H340.255V43.822Z" fill="#565440"/>
<path d="M365.737 53.1518H370.049V5.08901H385.881V0.918849H349.905V5.08901H365.737V53.1518Z" fill="#565440"/>
<path d="M403.142 54C407.807 54 411.694 52.6571 414.804 50.0419C417.985 47.356 419.54 43.8927 419.54 39.6518C419.54 34.5628 416.712 30.534 411.129 27.4948C410.069 26.9293 408.089 26.0105 405.192 24.7382C402.294 23.466 400.385 22.5471 399.466 22.0524C395.296 19.8613 393.176 16.9634 393.176 13.3586C393.176 7.77487 397.558 4.02879 403.707 4.02879C408.372 4.02879 412.189 6.14922 415.157 10.3901L418.409 7.77487C414.804 2.61518 409.856 0 403.637 0C399.184 0 395.508 1.27225 392.752 3.88743C389.995 6.43194 388.652 9.68325 388.652 13.5707C388.652 18.8717 391.621 23.0419 397.558 26.0105C398.477 26.5052 400.173 27.2827 402.718 28.4136C405.333 29.5445 407.1 30.3927 408.089 30.8874C412.613 33.1492 414.945 35.7644 414.945 39.7932C414.945 42.6911 413.815 45.0942 411.623 47.0026C409.432 48.911 406.534 49.9005 403 49.9005C396.851 49.9005 392.045 46.5079 389.43 40.7827L385.966 43.1152C389.147 50.2539 395.791 54 403.142 54Z" fill="#565440"/>
</svg>
