<svg width="1430" height="184" viewBox="0 0 1430 184" fill="none" xmlns="http://www.w3.org/2000/svg">
<path d="M149.56 181.11L78.9948 3.13089H71.0471L0 181.11H16.1361L37.3298 127.162H112.23L133.424 181.11H149.56ZM107.414 113.435H42.1466L74.9005 29.3822L107.414 113.435Z" fill="#565440"/>
<path d="M168.187 3.13089V181.11H182.879V111.99H220.931C239.957 111.99 254.407 106.691 264.523 96.0942C274.879 85.2565 279.936 72.4921 279.936 57.5602C279.936 42.8691 275.119 30.1047 265.245 19.267C255.612 8.42932 241.643 3.13089 223.098 3.13089H168.187ZM182.879 98.2618V17.0995H223.821C249.109 17.0995 265.004 33.9581 265.004 57.3194C265.004 80.6806 248.386 98.2618 221.172 98.2618H182.879Z" fill="#565440"/>
<path d="M418.875 181.11L348.31 3.13089H340.362L269.315 181.11H285.451L306.645 127.162H381.545L402.739 181.11H418.875ZM376.728 113.435H311.461L344.215 29.3822L376.728 113.435Z" fill="#565440"/>
<path d="M551.178 181.11L503.492 104.524C517.701 101.874 528.539 96.0942 536.005 86.7016C543.712 77.3089 547.565 66.4712 547.565 54.6702C547.565 40.7016 542.748 28.6597 532.874 18.5445C523.241 8.18848 509.272 3.13089 491.209 3.13089H437.502V181.11H452.193V105.969H487.837L533.356 181.11H551.178ZM491.45 17.0995C516.738 17.0995 532.392 32.2722 532.392 54.1885C532.392 76.5864 516.738 92 487.837 92H452.193V17.0995H491.45Z" fill="#565440"/>
<path d="M607.159 181.11H621.85V17.3403H675.798V3.13089H553.212V17.3403H607.159V181.11Z" fill="#565440"/>
<path d="M708.808 181.11V39.7382L776.965 140.168H780.577L848.494 39.4974V181.11H863.185V3.13089H856.441L778.892 118.251L700.619 3.13089H694.117V181.11H708.808Z" fill="#565440"/>
<path d="M1009.93 181.11V167.141H916.963V97.7801H1003.18V84.0524H916.963V17.0995H1009.44V3.13089H902.272V181.11H1009.93Z" fill="#565440"/>
<path d="M1159.39 149.319L1043.78 3.13089H1037.28V181.11H1051.97V36.3665L1166.37 181.11H1174.08V3.13089H1159.39V149.319Z" fill="#565440"/>
<path d="M1246.22 181.11H1260.91V17.3403H1314.86V3.13089H1192.27V17.3403H1246.22V181.11Z" fill="#565440"/>
<path d="M1373.67 184C1389.56 184 1402.81 179.424 1413.41 170.513C1424.24 161.361 1429.54 149.56 1429.54 135.11C1429.54 117.77 1419.91 104.042 1400.88 93.6859C1397.27 91.7592 1390.53 88.6283 1380.65 84.2932C1370.78 79.9581 1364.28 76.8272 1361.14 75.1414C1346.94 67.6754 1339.71 57.801 1339.71 45.5183C1339.71 26.4921 1354.64 13.7277 1375.6 13.7277C1391.49 13.7277 1404.5 20.9529 1414.61 35.4031L1425.69 26.4921C1413.41 8.91099 1396.55 0 1375.35 0C1360.18 0 1347.66 4.33508 1338.27 13.2461C1328.87 21.9162 1324.3 32.9948 1324.3 46.2408C1324.3 64.3037 1334.41 78.5131 1354.64 88.6283C1357.77 90.3141 1363.55 92.9633 1372.22 96.8168C1381.13 100.67 1387.16 103.56 1390.53 105.246C1405.94 112.953 1413.89 121.864 1413.89 135.592C1413.89 145.466 1410.03 153.654 1402.57 160.157C1395.1 166.66 1385.23 170.031 1373.19 170.031C1352.23 170.031 1335.86 158.471 1326.95 138.963L1315.14 146.911C1325.98 171.236 1348.62 184 1373.67 184Z" fill="#565440"/>
</svg>
