<svg width="863" height="111" viewBox="0 0 863 111" fill="none" xmlns="http://www.w3.org/2000/svg">
<path d="M90.2238 109.257L47.6544 1.88874H42.8599L0 109.257H9.73429L22.5196 76.712H67.7042L80.4895 109.257H90.2238ZM64.7984 68.4306H25.4254L45.1845 17.7251L64.7984 68.4306Z" fill="#565440"/>
<path d="M101.461 1.88874V109.257H110.323V67.5589H133.279C144.757 67.5589 153.474 64.3626 159.576 57.9699C165.823 51.4319 168.875 43.7317 168.875 34.7238C168.875 25.8613 165.969 18.161 160.012 11.623C154.2 5.08508 145.774 1.88874 134.587 1.88874H101.461ZM110.323 59.2775V10.3154H135.022C150.278 10.3154 159.867 20.4856 159.867 34.5785C159.867 48.6715 149.842 59.2775 133.424 59.2775H110.323Z" fill="#565440"/>
<path d="M252.691 109.257L210.122 1.88874H205.327L162.467 109.257H172.201L184.987 76.712H230.171L242.957 109.257H252.691ZM227.266 68.4306H187.893L207.652 17.7251L227.266 68.4306Z" fill="#565440"/>
<path d="M332.504 109.257L303.737 63.055C312.309 61.4568 318.847 57.9699 323.351 52.3037C328 46.6374 330.325 40.0995 330.325 32.9804C330.325 24.5537 327.419 17.2893 321.462 11.1872C315.651 4.93979 307.224 1.88874 296.327 1.88874H263.928V109.257H272.791V63.9267H294.293L321.753 109.257H332.504ZM296.473 10.3154C311.728 10.3154 321.171 19.4686 321.171 32.6898C321.171 46.2016 311.728 55.5 294.293 55.5H272.791V10.3154H296.473Z" fill="#565440"/>
<path d="M366.275 109.257H375.138V10.4607H407.683V1.88874H333.731V10.4607H366.275V109.257Z" fill="#565440"/>
<path d="M427.596 109.257V23.9725L468.713 84.5576H470.892L511.863 23.8272V109.257H520.726V1.88874H516.658L469.875 71.3364L422.656 1.88874H418.733V109.257H427.596Z" fill="#565440"/>
<path d="M609.249 109.257V100.83H553.168V58.9869H605.181V50.7055H553.168V10.3154H608.959V1.88874H544.305V109.257H609.249Z" fill="#565440"/>
<path d="M699.413 90.0785L629.675 1.88874H625.752V109.257H634.614V21.9385L703.626 109.257H708.275V1.88874H699.413V90.0785Z" fill="#565440"/>
<path d="M751.794 109.257H760.656V10.4607H793.201V1.88874H719.249V10.4607H751.794V109.257Z" fill="#565440"/>
<path d="M828.68 111C838.269 111 846.26 108.24 852.653 102.864C859.191 97.3429 862.387 90.2238 862.387 81.5065C862.387 71.0458 856.576 62.7644 845.098 56.517C842.919 55.3547 838.851 53.466 832.894 50.8508C826.937 48.2356 823.014 46.3469 821.125 45.3298C812.553 40.8259 808.195 34.8691 808.195 27.4594C808.195 15.9817 817.203 8.28141 829.843 8.28141C839.432 8.28141 847.277 12.6401 853.379 21.3573L860.063 15.9817C852.653 5.37565 842.483 0 829.697 0C820.544 0 812.989 2.61518 807.323 7.99084C801.657 13.2212 798.896 19.9045 798.896 27.8953C798.896 38.7919 804.998 47.3639 817.203 53.466C819.091 54.483 822.578 56.0811 827.809 58.4058C833.184 60.7304 836.817 62.4738 838.851 63.4908C848.149 68.14 852.943 73.5157 852.943 81.7971C852.943 87.7539 850.619 92.6937 846.115 96.6165C841.611 100.539 835.654 102.573 828.39 102.573C815.75 102.573 805.87 95.5995 800.495 83.8312L793.375 88.6257C799.913 103.3 813.57 111 828.68 111Z" fill="#565440"/>
</svg>
