<!-- DO NOT EDIT THIS, THIS FILE IS GENERATED FROM "plan-c1.original.svg" using transform-svgs.js script -->
<svg width="3200" height="1600" viewBox="0 0 3200 1600" fill="none" xmlns="http://www.w3.org/2000/svg">
<g>
<path data-nr="c1-42" class="plan__svg__hoverable" opacity="0.6" d="M1587.95 229.518L1453.61 237.349V265.06H1448.79V271.084L1453.61 271.687V270.482L1587.95 262.651L1603.01 271.084V272.892L1622.89 282.53H1653.01L1663.25 286.145H1684.64L1712.05 296.988V266.867L1684.64 254.217L1663.25 254.819L1653.01 250H1622.89L1603.01 239.157V236.747L1587.95 229.518Z" fill="#E9E4DC"/>
<path data-nr="c1-41" class="plan__svg__hoverable" opacity="0.6" d="M1587.95 262.651L1453.61 270.482V298.795H1448.79V304.819L1453.61 305.422V304.217L1587.95 296.386L1603.01 304.217V306.024L1622.89 315.663L1653.01 315.06L1663.25 318.072H1684.6L1712.05 325.904V296.988L1684.64 286.145H1663.25L1653.01 282.53H1622.89L1603.01 272.892V271.084L1587.95 262.651Z" fill="#CDC3B3"/>
<path data-nr="c1-40" class="plan__svg__hoverable" opacity="0.6" d="M1587.95 296.385L1453.61 304.217V328.916H1448.79V334.94L1453.61 335.542V334.337L1587.95 327.108L1603.01 334.94V336.747L1622.89 345.783H1653.61L1663.25 347.59H1684.34L1712.05 353.012V325.904L1684.64 318.072H1663.25L1653.01 315.06L1622.89 315.663L1603.01 306.024V304.217L1587.95 296.385Z" fill="#E9E4DC"/>
<path data-nr="c1-39" class="plan__svg__hoverable" opacity="0.6" d="M1587.95 327.108L1453.61 334.337V359.639H1448.79V365.663L1453.61 366.265V365.06L1588.55 358.434L1603.01 365.663V367.47L1622.89 377.108H1633.73V370.482V357.831L1712.05 355.422V353.012L1684.34 347.59H1663.25L1653.61 345.783H1633.73H1622.89L1603.01 336.747V334.94L1587.95 327.108Z" fill="#CDC3B3"/>
<path data-nr="c1-38" class="plan__svg__hoverable" opacity="0.6" d="M1588.55 358.434L1453.61 365.06V389.759H1448.79V396.386L1453.61 396.988V395.181L1588.55 389.157L1603.01 396.988V398.193L1622.89 407.831H1633.73V400L1724.7 395.783L1801.81 439.759V396.386L1795.78 392.771V390.964H1793.37V389.759H1789.16V386.145H1783.13L1781.93 383.133L1780.72 381.928H1777.11V380.723H1774.7L1773.49 377.711H1770.48V377.108H1768.07L1766.87 374.096L1764.46 372.892H1762.05V371.687H1759.64L1758.43 368.675H1756.02V368.072H1753.01L1751.81 366.867V365.06L1750 363.855H1746.99V362.651H1744.58L1743.37 360.241L1740.96 359.639V359.036H1737.95L1735.54 354.819H1731.93L1731.33 353.614H1728.92V353.012L1724.7 351.807H1716.49L1712.05 353.012L1707.23 353.916L1706.63 353.012H1695.78L1691.57 353.614V355.422L1674.7 356.024L1674.1 354.819L1661.45 353.916V356.024H1657.83L1657.23 357.831H1646.99L1645.18 356.024H1637.35L1633.73 357.229V377.108H1622.89L1603.01 367.47V365.663L1588.55 358.434Z" fill="#E9E4DC"/>
<path data-nr="c1-37" class="plan__svg__hoverable" opacity="0.6" d="M1588.55 389.157L1453.61 395.181V422.289H1448.79V428.313L1453.61 428.916V427.711L1588.55 421.084L1603.01 428.313V429.518L1622.89 438.554H1633.73V431.928L1725.3 428.313L1801.81 469.88V439.759L1724.7 395.783L1633.73 400V407.831H1622.89L1603.01 398.193V396.988L1588.55 389.157Z" fill="#CDC3B3"/>
<path data-nr="c1-36" class="plan__svg__hoverable" opacity="0.6" d="M1588.55 421.084L1453.61 427.711V451.807H1448.79V457.229L1453.61 457.831V456.627L1588.55 451.807L1622.89 468.675H1633.73V462.651L1725.3 459.036L1801.81 499.398V469.88L1725.3 428.313L1633.73 431.928V438.554H1622.89L1603.01 429.518V428.313L1588.55 421.084Z" fill="#E9E4DC"/>
<path data-nr="c1-35" class="plan__svg__hoverable" opacity="0.6" d="M1588.55 451.807L1453.61 457.831V481.928H1448.79V489.157L1453.61 489.759V488.554L1588.55 483.133L1622.89 499.398H1633.73V492.771L1725.3 489.157L1801.81 528.313V499.398L1725.3 459.036L1633.73 462.651V468.675H1622.89L1588.55 451.807Z" fill="#CDC3B3"/>
<path data-nr="c1-34" class="plan__svg__hoverable" opacity="0.6" d="M1588.55 483.133L1453.61 488.554V512.048H1448.79V519.277L1453.61 519.88V518.675L1588.55 513.253L1622.89 529.518H1633.73V522.892L1725.3 519.88L1801.81 557.831V528.313L1725.3 489.157L1633.73 492.771V499.398H1622.89L1588.55 483.133Z" fill="#E9E4DC"/>
<path data-nr="c1-33" class="plan__svg__hoverable" opacity="0.6" d="M1588.55 513.253L1453.61 518.675V543.374H1448.79V550.602L1453.61 551.205V550L1588.55 543.976L1622.89 560.241H1633.73V553.012L1725.3 550.602L1801.81 587.349V557.831L1725.3 519.88L1633.73 522.892V529.518H1622.89L1588.55 513.253Z" fill="#CDC3B3"/>
<path data-nr="c1-32" class="plan__svg__hoverable" opacity="0.6" d="M1588.55 543.976L1453.61 550V573.494H1448.79V580.723L1453.61 581.325V580.12L1588.55 574.096L1622.89 589.157H1633.73V583.735L1724.7 580.723L1801.81 616.265V587.349L1725.3 550.602L1633.73 553.012V560.241H1622.89L1588.55 543.976Z" fill="#E9E4DC"/>
<path data-nr="c1-31" class="plan__svg__hoverable" opacity="0.6" d="M1588.55 574.096L1453.61 580.121V604.217H1448.79V611.446L1453.61 612.048V610.843L1588.55 605.422L1622.89 618.675H1633.73V614.458L1724.7 611.446L1801.81 645.181V616.265L1724.7 580.723L1633.73 583.735V589.157H1622.89L1588.55 574.096Z" fill="#CDC3B3"/>
<path data-nr="c1-30" class="plan__svg__hoverable" opacity="0.6" d="M1588.55 605.422L1453.61 610.843V634.94H1448.79V642.169L1453.61 642.771V641.566L1588.55 636.747L1622.89 649.398H1633.73V644.578L1725.9 642.169L1801.81 674.699V645.181L1724.7 611.446L1633.73 614.458V618.675H1622.89L1588.55 605.422Z" fill="#E9E4DC"/>
<path data-nr="c1-29" class="plan__svg__hoverable" opacity="0.6" d="M1588.55 636.747L1453.61 641.566V665.663H1448.79V673.494L1453.61 674.096V672.892L1588.55 667.47L1622.89 680.723H1633.73V675.301L1725.9 672.289L1801.81 703.614V674.699L1725.9 642.169L1633.73 644.578V649.398H1622.89L1588.55 636.747Z" fill="#CDC3B3"/>
<path data-nr="c1-28" class="plan__svg__hoverable" opacity="0.6" d="M1588.55 667.47L1453.61 672.892V695.783H1448.79V703.614L1453.61 704.217V703.012L1588.55 698.193L1622.89 711.446H1633.73V706.024L1725.9 703.012L1801.81 733.132V703.614L1725.9 672.289L1633.73 675.301V680.723H1622.89L1588.55 667.47Z" fill="#E9E4DC"/>
<path data-nr="c1-27" class="plan__svg__hoverable" opacity="0.6" d="M1588.55 698.193L1453.61 703.012V725.904H1448.79V733.735L1453.61 734.337V733.133L1588.55 729.518L1622.89 741.566H1633.73V735.542L1725.9 733.735L1801.81 762.651V733.133L1725.9 703.012L1633.73 706.024V711.446H1622.89L1588.55 698.193Z" fill="#CDC3B3"/>
<path data-nr="c1-26" class="plan__svg__hoverable" opacity="0.6" d="M1588.55 729.518L1453.61 733.133V756.627H1448.79V764.458L1453.61 765.06V763.855L1588.55 760.241L1622.89 771.687H1633.73V765.663L1725.9 763.855L1801.81 792.169V762.651L1725.9 733.735L1633.73 735.542V741.566H1622.89L1588.55 729.518Z" fill="#E9E4DC"/>
<path data-nr="c1-25" class="plan__svg__hoverable" opacity="0.6" d="M1588.55 760.241L1453.61 763.855V786.747H1447.59V799.398L1455.42 803.012V800L1590.66 795.181L1622.89 806.024H1633.73V796.386L1725.9 794.578L1801.81 821.687V792.169L1725.9 763.855L1633.73 765.663V771.687H1622.89L1588.55 760.241Z" fill="#CDC3B3"/>
<path data-nr="c1-24" class="plan__svg__hoverable" opacity="0.6" d="M1590.7 795.181L1455.42 800V825.904L1590.66 822.289L1622.89 834.337H1633.73V827.108L1725.9 824.699L1801.81 850.602V821.687L1725.9 794.578L1633.73 796.386V806.024H1622.89L1590.7 795.181Z" fill="#E9E4DC"/>
<path data-nr="c1-23" class="plan__svg__hoverable" opacity="0.6" d="M1590.7 822.289L1455.42 825.904V844.578H1447.59V857.831L1453.61 859.639V857.831L1590.66 854.217L1622.89 863.855H1633.73V857.831L1725.9 856.024L1801.81 880.121V850.602L1725.9 824.699L1633.73 827.108V834.337H1622.89L1590.7 822.289Z" fill="#CDC3B3"/>
<path data-nr="c1-22" class="plan__svg__hoverable" opacity="0.6" d="M1590.96 854.217L1453.61 857.831V881.928H1448.79V889.157L1453.61 889.759V888.554L1588.55 884.94L1622.89 894.578H1633.73V890.361L1725.9 888.554L1801.81 912.048V880.12L1725.9 856.024L1633.73 857.831V863.855H1622.89L1590.96 854.217Z" fill="#E9E4DC"/>
<path data-nr="c1-21" class="plan__svg__hoverable" opacity="0.6" d="M1588.55 884.94L1453.61 888.554V912.048H1448.79V919.277L1453.61 919.879V918.675L1588.55 915.663L1622.89 925.904H1633.73V921.687L1725.9 919.277L1801.81 940.964V912.048L1725.9 888.554L1633.73 890.361V894.578H1622.89L1588.55 884.94Z" fill="#CDC3B3"/>
<path data-nr="c1-20" class="plan__svg__hoverable" opacity="0.6" d="M1588.55 915.663L1453.61 918.675V942.771H1448.79V950L1453.61 950.602V949.398L1588.55 946.385L1622.89 954.819H1633.73V951.807L1725.9 950L1801.81 969.879V940.964L1725.9 919.277L1633.73 921.687V925.904H1622.89L1588.55 915.663Z" fill="#E9E4DC"/>
<path data-nr="c1-19" class="plan__svg__hoverable" opacity="0.6" d="M1588.55 946.385L1453.61 949.398V972.892H1448.79V980.12L1453.61 980.723V979.518L1588.55 977.108L1622.89 984.94H1633.73V981.928L1725.9 980.12L1801.81 999.398V969.879L1725.9 950L1633.73 951.807V954.819H1622.89L1588.55 946.385Z" fill="#CDC3B3"/>
<path data-nr="c1-18" class="plan__svg__hoverable" opacity="0.6" d="M1588.55 977.108L1453.61 979.518V1003.61H1448.79V1010.84L1453.61 1011.45V1010.24L1588.55 1007.83L1622.89 1015.06H1633.73V1012.65L1725.9 1010.84L1801.81 1028.92V999.398L1725.9 980.12L1633.73 981.928V984.94H1622.89L1588.55 977.108Z" fill="#E9E4DC"/>
<path data-nr="c1-17" class="plan__svg__hoverable" opacity="0.6" d="M1588.55 1007.83L1453.61 1010.24V1033.73H1448.79V1040.96L1453.61 1041.57V1040.36L1588.55 1037.95L1622.89 1045.18H1633.73V1042.77L1725.9 1040.96L1801.81 1057.83V1028.92L1725.9 1010.84L1633.73 1012.65V1015.06H1622.89L1588.55 1007.83Z" fill="#CDC3B3"/>
<path data-nr="c1-16" class="plan__svg__hoverable" opacity="0.6" d="M1588.55 1037.95L1453.61 1040.36V1064.46H1448.79V1071.69L1453.61 1072.29V1071.08L1588.55 1068.67L1622.89 1075.9H1633.73V1073.49L1725.9 1071.69L1801.81 1086.75V1057.83L1725.9 1040.96L1633.73 1042.77V1045.18H1622.89L1588.55 1037.95Z" fill="#E9E4DC"/>
<path data-nr="c1-15" class="plan__svg__hoverable" opacity="0.6" d="M1588.55 1068.67L1453.61 1071.08V1095.18H1448.79V1102.41L1453.61 1103.01V1101.81L1588.55 1099.4L1622.89 1106.63H1633.73V1104.22L1725.9 1102.41L1801.81 1116.27V1086.75L1725.9 1071.69L1633.73 1073.49V1075.9H1622.89L1588.55 1068.67Z" fill="#CDC3B3"/>
<path data-nr="c1-14" class="plan__svg__hoverable" opacity="0.6" d="M1588.55 1099.4L1453.61 1101.81V1125.9H1448.79V1133.13L1453.61 1133.73V1132.53L1588.55 1130.72L1622.89 1135.54H1633.73V1133.73L1725.9 1132.53L1801.81 1145.78V1116.27L1725.9 1102.41L1633.73 1104.22V1106.63H1622.89L1588.55 1099.4Z" fill="#E9E4DC"/>
<path data-nr="c1-13" class="plan__svg__hoverable" opacity="0.6" d="M1588.55 1130.72L1453.61 1132.53V1156.63H1448.79V1163.86L1453.61 1164.46V1163.25L1588.55 1161.45L1622.89 1165.66H1633.73V1164.46L1725.9 1163.25L1801.81 1174.7V1145.78L1725.9 1132.53L1633.73 1133.73V1135.54H1622.89L1588.55 1130.72Z" fill="#CDC3B3"/>
<path data-nr="c1-12" class="plan__svg__hoverable" opacity="0.6" d="M1588.55 1161.45L1453.61 1163.25V1187.35H1448.79V1194.58L1453.61 1195.18V1193.98L1588.55 1192.17L1622.89 1196.39H1633.73V1195.18L1725.9 1193.98L1801.81 1203.61V1174.7L1725.9 1163.25L1633.73 1164.46V1165.66H1622.89L1588.55 1161.45Z" fill="#E9E4DC"/>
<path data-nr="c1-11" class="plan__svg__hoverable" opacity="0.6" d="M1588.55 1192.17L1453.61 1193.98V1216.87H1448.79V1224.7L1453.61 1225.3V1224.1L1588.55 1222.89L1622.89 1225.9H1633.73V1224.7L1725.9 1224.1L1801.81 1233.13V1203.61L1725.9 1193.98L1633.73 1195.18V1196.39H1622.89L1588.55 1192.17Z" fill="#CDC3B3"/>
<path data-nr="c1-10" class="plan__svg__hoverable" opacity="0.6" d="M1588.55 1222.89L1453.61 1224.1V1248.8H1448.79V1256.02H1452.41H1453.61L1588.55 1254.82L1622.89 1257.83H1633.73V1256.63L1725.9 1256.02L1801.81 1263.86V1233.13L1725.9 1224.1L1633.73 1224.7V1225.9H1622.89L1588.55 1222.89Z" fill="#E9E4DC"/>
<path data-nr="c1-9" class="plan__svg__hoverable" opacity="0.6" d="M1588.55 1254.82L1453.61 1256.02V1280.12H1448.79V1286.75H1452.41H1453.61L1588.55 1285.54L1622.89 1287.35H1633.73V1287.95L1725.9 1286.75L1801.81 1292.77V1263.86L1725.9 1256.02L1633.73 1256.63V1257.83H1622.89L1588.55 1254.82Z" fill="#CDC3B3"/>
<path data-nr="c1-8" class="plan__svg__hoverable" opacity="0.6" d="M1588.55 1285.54L1453.61 1286.75V1310.24H1448.79V1317.47H1452.41H1453.61L1588.55 1316.26L1622.89 1317.47H1633.73H1725.9L1801.81 1322.29V1292.77L1725.9 1286.75L1633.73 1287.95V1287.35H1622.89L1588.55 1285.54Z" fill="#E9E4DC"/>
<path data-nr="c1-7" class="plan__svg__hoverable" opacity="0.6" d="M1588.55 1316.27L1453.61 1317.47V1340.36H1448.79V1347.59H1452.41H1453.61L1588.55 1346.99L1622.89 1347.59H1633.73H1725.9L1801.81 1351.2V1322.29L1725.9 1317.47H1633.73H1622.89L1588.55 1316.27Z" fill="#CDC3B3"/>
<path data-nr="c1-6" class="plan__svg__hoverable" opacity="0.6" d="M1588.55 1346.99L1453.61 1347.59V1371.08H1448.79V1378.31H1452.41H1453.61L1588.55 1377.71L1622.89 1378.31H1633.73H1725.9L1801.81 1380.72V1351.2L1725.9 1347.59H1633.73H1622.89L1588.55 1346.99Z" fill="#E9E4DC"/>
<path data-nr="c1-5" class="plan__svg__hoverable" opacity="0.6" d="M1588.55 1377.71L1453.61 1378.31V1402.41H1448.79V1408.43H1452.41H1453.61H1588.55H1622.89H1633.73H1725.9L1801.81 1410.24V1380.72L1725.9 1378.31H1633.73H1622.89L1588.55 1377.71Z" fill="#CDC3B3"/>
<path data-nr="c1-4" class="plan__svg__hoverable" opacity="0.6" d="M1588.55 1408.43H1453.61V1431.93H1448.79V1439.16H1452.41H1453.61H1588.55H1622.89H1633.73H1725.9L1801.81 1439.76V1410.24L1725.9 1408.43H1633.73H1622.89H1588.55Z" fill="#E9E4DC"/>
<path data-nr="c1-3" class="plan__svg__hoverable" opacity="0.6" d="M1588.55 1439.16H1453.61V1462.05H1448.79V1469.28H1452.41H1453.61H1588.55H1622.89H1633.73H1725.9L1801.81 1468.67V1439.76L1725.9 1439.16H1633.73H1622.89H1588.55Z" fill="#CDC3B3"/>
<rect data-nr="c1-2" class="plan__svg__anchor " x="1388" y="1479" width="10" height="10" fill="#FF0000"/>
<rect data-nr="c1-3" class="plan__svg__anchor " x="1388" y="1449" width="10" height="10" fill="#FF0000"/>
<rect data-nr="c1-4" class="plan__svg__anchor " x="1388" y="1419" width="10" height="10" fill="#FF0000"/>
<rect data-nr="c1-5" class="plan__svg__anchor " x="1388" y="1388" width="10" height="10" fill="#FF0000"/>
<rect data-nr="c1-6" class="plan__svg__anchor " x="1388" y="1358" width="10" height="10" fill="#FF0000"/>
<rect data-nr="c1-7" class="plan__svg__anchor " x="1388" y="1328" width="10" height="10" fill="#FF0000"/>
<rect data-nr="c1-8" class="plan__svg__anchor " x="1388" y="1297" width="10" height="10" fill="#FF0000"/>
<rect data-nr="c1-9" class="plan__svg__anchor " x="1388" y="1267" width="10" height="10" fill="#FF0000"/>
<rect data-nr="c1-10" class="plan__svg__anchor " x="1388" y="1236" width="10" height="10" fill="#FF0000"/>
<rect data-nr="c1-11" class="plan__svg__anchor " x="1388" y="1206" width="10" height="10" fill="#FF0000"/>
<rect data-nr="c1-12" class="plan__svg__anchor " x="1388" y="1176" width="10" height="10" fill="#FF0000"/>
<rect data-nr="c1-13" class="plan__svg__anchor " x="1388" y="1144" width="10" height="10" fill="#FF0000"/>
<rect data-nr="c1-14" class="plan__svg__anchor " x="1388" y="1112" width="10" height="10" fill="#FF0000"/>
<rect data-nr="c1-15" class="plan__svg__anchor " x="1388" y="1082" width="10" height="10" fill="#FF0000"/>
<rect data-nr="c1-16" class="plan__svg__anchor " x="1388" y="1052" width="10" height="10" fill="#FF0000"/>
<rect data-nr="c1-17" class="plan__svg__anchor " x="1388" y="1021" width="10" height="10" fill="#FF0000"/>
<rect data-nr="c1-18" class="plan__svg__anchor " x="1388" y="991" width="10" height="10" fill="#FF0000"/>
<rect data-nr="c1-19" class="plan__svg__anchor " x="1388" y="961" width="10" height="10" fill="#FF0000"/>
<rect data-nr="c1-20" class="plan__svg__anchor " x="1388" y="930" width="10" height="10" fill="#FF0000"/>
<rect data-nr="c1-21" class="plan__svg__anchor " x="1388" y="900" width="10" height="10" fill="#FF0000"/>
<rect data-nr="c1-22" class="plan__svg__anchor " x="1388" y="869" width="10" height="10" fill="#FF0000"/>
<rect data-nr="c1-23" class="plan__svg__anchor " x="1388" y="839" width="10" height="10" fill="#FF0000"/>
<rect data-nr="c1-24" class="plan__svg__anchor " x="1388" y="809" width="10" height="10" fill="#FF0000"/>
<rect data-nr="c1-25" class="plan__svg__anchor " x="1388" y="777" width="10" height="10" fill="#FF0000"/>
<rect data-nr="c1-26" class="plan__svg__anchor " x="1388" y="742" width="10" height="10" fill="#FF0000"/>
<rect data-nr="c1-27" class="plan__svg__anchor " x="1388" y="712" width="10" height="10" fill="#FF0000"/>
<rect data-nr="c1-28" class="plan__svg__anchor " x="1388" y="682" width="10" height="10" fill="#FF0000"/>
<rect data-nr="c1-29" class="plan__svg__anchor " x="1388" y="651" width="10" height="10" fill="#FF0000"/>
<rect data-nr="c1-30" class="plan__svg__anchor " x="1388" y="621" width="10" height="10" fill="#FF0000"/>
<rect data-nr="c1-31" class="plan__svg__anchor " x="1388" y="591" width="10" height="10" fill="#FF0000"/>
<rect data-nr="c1-32" class="plan__svg__anchor " x="1388" y="560" width="10" height="10" fill="#FF0000"/>
<rect data-nr="c1-33" class="plan__svg__anchor " x="1388" y="530" width="10" height="10" fill="#FF0000"/>
<rect data-nr="c1-34" class="plan__svg__anchor " x="1388" y="499" width="10" height="10" fill="#FF0000"/>
<rect data-nr="c1-35" class="plan__svg__anchor " x="1388" y="469" width="10" height="10" fill="#FF0000"/>
<rect data-nr="c1-36" class="plan__svg__anchor " x="1388" y="439" width="10" height="10" fill="#FF0000"/>
<rect data-nr="c1-37" class="plan__svg__anchor " x="1388" y="407" width="10" height="10" fill="#FF0000"/>
<rect data-nr="c1-38" class="plan__svg__anchor " x="1388" y="374" width="10" height="10" fill="#FF0000"/>
<rect data-nr="c1-39" class="plan__svg__anchor " x="1388" y="343" width="10" height="10" fill="#FF0000"/>
<rect data-nr="c1-40" class="plan__svg__anchor " x="1388" y="313" width="10" height="10" fill="#FF0000"/>
<rect data-nr="c1-41" class="plan__svg__anchor " x="1388" y="283" width="10" height="10" fill="#FF0000"/>
<rect data-nr="c1-42" class="plan__svg__anchor " x="1388" y="251" width="10" height="10" fill="#FF0000"/>
<path data-nr="c1-2" class="plan__svg__hoverable" opacity="0.6" d="M1588.55 1469.28H1453.61V1492.77H1448.79V1500H1452.41H1453.61H1588.55H1622.89H1633.73H1725.9L1801.81 1497.59V1468.67L1725.9 1469.28H1633.73H1622.89H1588.55Z" fill="#E9E4DC"/>
<rect data-nr="label-c1-40" class="plan__svg__anchor " x="1858" y="323" width="31" height="30" fill="#C4C4C4"/>
<rect data-nr="label-c1-35" class="plan__svg__anchor " x="1858" y="495" width="31" height="30" fill="#C4C4C4"/>
<rect data-nr="label-c1-30" class="plan__svg__anchor " x="1858" y="643" width="31" height="31" fill="#C4C4C4"/>
<rect data-nr="label-c1-25" class="plan__svg__anchor " x="1858" y="787" width="31" height="29" fill="#C4C4C4"/>
<rect data-nr="label-c1-20" class="plan__svg__anchor " x="1858" y="937" width="31" height="31" fill="#C4C4C4"/>
<rect data-nr="label-c1-15" class="plan__svg__anchor " x="1858" y="1084" width="31" height="30" fill="#C4C4C4"/>
<rect data-nr="label-c1-10" class="plan__svg__anchor " x="1858" y="1229" width="31" height="31" fill="#C4C4C4"/>
<rect data-nr="label-c1-5" class="plan__svg__anchor " x="1858" y="1377" width="31" height="30" fill="#C4C4C4"/>
</g>
</svg>
