<svg width="570" height="138" viewBox="0 0 570 138" fill="none" xmlns="http://www.w3.org/2000/svg">
<path d="M11.7008 10.3308H11.2008V10.8308V137.5H0.5V0.5H100.467V137.5H89.9546V10.8308V10.3308H89.4546H11.7008ZM144.619 95.6705H144.28L144.154 95.986L127.672 137.5H116.108L171.378 0.5H176.93L231.825 137.5H220.259L203.777 95.986L203.651 95.6705H203.312H144.619ZM199.537 86.0264H200.27L200.003 85.3443L174.525 20.1725L174.062 18.9857L173.595 20.1713L147.928 85.3432L147.659 86.0264H148.394H199.537ZM258.672 83.906H258.172V84.406V137.5H247.66V0.5H290.189C304.624 0.5 315.416 4.57743 322.844 12.8457L322.848 12.8502C330.499 21.1592 334.228 30.9348 334.228 42.203C334.228 53.6516 330.315 63.4242 322.29 71.7339L322.29 71.734C314.483 79.8261 303.306 83.906 288.491 83.906H258.672ZM258.172 73.7618V74.2618H258.672H288.679C299.451 74.2618 308.168 70.8173 314.196 65.0427C320.225 59.2676 323.527 51.1964 323.527 42.0162C323.527 32.8423 320.371 24.9125 314.674 19.2755C308.977 13.6382 300.776 10.3308 290.755 10.3308H258.672H258.172V10.8308V73.7618ZM363.415 96.544V137.5H352.903V0.5H363.415V80.6712V82.0156L364.293 80.9979L433.782 0.5H446.432L391.277 64.8465L391.001 65.1685L391.274 65.4934L451.731 137.5H438.316L384.303 73.0671L383.925 72.6169L383.541 73.0615L363.536 96.2171L363.415 96.3579V96.544ZM468.977 137.5H463.306V0.5H473.818V114.844V116.305L474.713 115.151L563.64 0.5H569.5V137.5H558.988V22.5954V21.1318L558.092 22.2895L468.977 137.5Z" stroke="#C49F8A"/>
</svg>
