<svg width="360" height="87" viewBox="0 0 360 87" fill="none" xmlns="http://www.w3.org/2000/svg">
<path d="M7.38998 87V6.82814H56.4976V87H63.7684V0H0V87H7.38998Z" fill="#C49F8A"/>
<path d="M146.882 87L111.959 0H108.025L72.8634 87H80.8494L91.3384 60.6292H128.407L138.896 87H146.882ZM126.024 53.9188H93.7222L109.933 12.8322L126.024 53.9188Z" fill="#C49F8A"/>
<path d="M156.101 0V87H163.372V53.2124H182.205C191.621 53.2124 198.772 50.6225 203.779 45.4425C208.904 40.1448 211.407 33.9053 211.407 26.6062C211.407 19.4249 209.023 13.1854 204.136 7.88768C199.368 2.58999 192.455 0 183.277 0H156.101ZM163.372 46.502V6.82814H183.635C196.15 6.82814 204.017 15.069 204.017 26.4885C204.017 37.908 195.793 46.502 182.324 46.502H163.372Z" fill="#C49F8A"/>
<path d="M285.981 87L247.362 41.0866L282.644 0H273.823L229.841 50.8579V0H222.57V87H229.841V60.8647L242.475 46.2666L276.684 87H285.981Z" fill="#C49F8A"/>
<path d="M296.351 87L352.729 14.2449V87H360V0H355.828L299.569 72.4019V0H292.298V87H296.351Z" fill="#C49F8A"/>
</svg>
