<?xml version="1.0" encoding="utf-8"?>
<!-- DO NOT EDIT THIS, THIS FILE IS GENERATED FROM "2_13-22_10.original.svg" using transform-svgs.js script -->
<!-- Generator: Adobe Illustrator 24.2.0, SVG Export Plug-In . SVG Version: 6.00 Build 0)  -->
<!DOCTYPE svg PUBLIC "-//W3C//DTD SVG 1.1//EN" "http://www.w3.org/Graphics/SVG/1.1/DTD/svg11.dtd" [
	<!ENTITY ns_extend "http://ns.adobe.com/Extensibility/1.0/">
	<!ENTITY ns_ai "http://ns.adobe.com/AdobeIllustrator/10.0/">
	<!ENTITY ns_graphs "http://ns.adobe.com/Graphs/1.0/">
	<!ENTITY ns_vars "http://ns.adobe.com/Variables/1.0/">
	<!ENTITY ns_imrep "http://ns.adobe.com/ImageReplacement/1.0/">
	<!ENTITY ns_sfw "http://ns.adobe.com/SaveForWeb/1.0/">
	<!ENTITY ns_custom "http://ns.adobe.com/GenericCustomNamespace/1.0/">
	<!ENTITY ns_adobe_xpath "http://ns.adobe.com/XPath/1.0/">
]>
<svg version="1.1" id="Слой_1" xmlns:x="&ns_extend;" xmlns:i="&ns_ai;" xmlns:graph="&ns_graphs;"
	 xmlns="http://www.w3.org/2000/svg" xmlns:xlink="http://www.w3.org/1999/xlink" x="0px" y="0px" viewBox="0 0 150 100"
	 style="enable-background:new 0 0 150 100;" xml:space="preserve"><g transform="translate(17.492115356215823 11.661410237477215) scale(0.7667717952504557)">
<style type="text/css">
	.st0{fill:#DBD4CA;}
	.st1{fill:none;stroke:#565440;}
	.st2{fill:none;stroke:#565440;stroke-width:1.0000414;stroke-miterlimit:4.0001655;}
	.st3{fill:#565440;}
</style>
<metadata>
	<sfw  xmlns="&ns_sfw;">
		<slices></slices>
		<sliceSourceBounds  bottomLeftOrigin="true" height="100.0389023" width="89.5489197" x="35.0356216" y="-0.0389056">
			</sliceSourceBounds>
	</sfw>
</metadata>
<polygon id="Floor" class="st0" points="114.9605942,3.4107127 41.7594719,3.392638 36.6779137,25.8205776 42.5340462,28.4568501 
	40.9979134,40.6778603 35.7655678,63.7757301 39.744133,66.3374252 39.7812843,77.1116943 36.2217522,94.9794159 
	55.0754242,98.9938889 56.3637657,95.0490799 67.9588547,95.0490799 84.228714,99.3193665 85.5907593,95.0490799 
	97.8116226,95.0490799 113.0790634,99.4292068 114.9605942,95.0490799 "/>
<g id="Windows">
	<path class="st1" d="M41.3310165,11.8610754l-3.2845688,14.2332277l-1.3685455-0.2737198l3.284565-14.2332277
		L41.3310165,11.8610754z"/>
	<path class="st1" d="M42.4258766,40.6924362l-5.2917824,23.0833054l-1.3685379-0.2737198l5.2917709-23.0833855
		L42.4258766,40.6924362z"/>
	<polygon class="st1" points="54.1957245,98.9939041 54.5606422,97.6253433 37.8640175,93.8844757 42.1522446,71.8960114 
		40.874855,71.6222916 36.2217369,94.9794312 36.8603821,95.0706253 	"/>
	
		<rect x="76.1610031" y="88.4796753" transform="matrix(0.2514893 -0.9678601 0.9678601 0.2514893 -36.067997 146.7514954)" class="st2" width="1.3666992" height="16.4297943"/>
	
		<rect x="105.3231354" y="89.4004059" transform="matrix(0.2514893 -0.9678601 0.9678601 0.2514893 -14.4245443 175.1192169)" class="st2" width="1.3666916" height="14.9700317"/>
</g>
<path id="Doors" class="st1" d="M77.5527573,59.3050423c-1.0036316,0-1.8247604-0.1824532-2.7371216-0.5474396
	c-0.9123611-0.3650093-1.7334671-0.9123688-2.3722076-1.5510139c-0.7299118-0.6387253-1.2773972-1.4598465-1.6423035-2.3722115
	c-0.3650055-0.912365-0.5474548-1.8247528-0.5474548-2.8283844h7.2990875 M89.4137878,50.181221
	c1.0036316,0,1.8247757,0.1824722,2.7371216,0.5474586c0.9123688,0.3650093,1.7334671,0.9123688,2.3722076,1.5510139
	c0.7299118,0.6387062,1.2773972,1.4598236,1.6423187,2.3721924c0.3649902,0.912365,0.5474396,1.8247719,0.5474396,2.8284035
	h-7.2990875 M97.5235291,23.7219925c0,1.0036316,0.182457,1.8247509,0.5474396,2.7371178
	c0.3650055,0.9123669,0.9123688,1.7335644,1.5511093,2.3722115c0.638649,0.7299118,1.4598465,1.2773914,2.3722153,1.6422977
	c0.9123611,0.3649063,1.8247528,0.5474606,2.8283997,0.5474606v-7.2990875 M86.6766739,65.6917648
	c0,1.0036316-0.182457,1.8247452-0.5474396,2.737114c-0.3650055,0.9123688-0.9123688,1.7335815-1.5511093,2.3722153
	c-0.638649,0.7299118-1.4598465,1.2773895-2.3722153,1.6422958c-0.9123688,0.3649292-1.8247604,0.5474548-2.828392,0.5474548
	v-7.2990799 M114.8727036,12.3410435c1.1860886,0,2.3688965,0.2736998,3.4637909,0.7298927
	c1.0949402,0.456193,2.1897583,1.0949192,3.0108643,2.0073042c0.8211746,0.8211794,1.5509872,1.8247328,2.0073013,2.919652
	c0.4561691,1.094799,0.7298889,2.2809238,0.7298889,3.4670105h-9.2117615"/>
<g id="Walls">
	<polygon class="st3" points="39.2325668,0 39.2325668,9.4107866 38.6850853,11.678483 43.1557693,12.6821556 
		43.7944946,10.0362043 43.7944946,4.5618896 112.2234802,4.5618896 112.2234802,12.3418379 114.9605942,12.3418379 114.9605942,0 	
		"/>
	<polygon class="st3" points="39.2325668,41.0573235 44.6939316,41.0573235 44.6938896,26.4591904 41.0572968,26.4591904 
		36.5866547,25.455637 35.9479675,28.101469 39.2325668,28.838829 	"/>
	<polygon class="st3" points="39.7383347,63.8670082 35.6742706,62.9546623 35.0356216,65.6005783 39.232605,66.5427933 
		39.232605,77.5527954 44.6939316,77.5527954 44.6938896,63.8670082 	"/>
	<polygon class="st3" points="54.5964622,95.2947464 53.6839981,99.3588943 56.3299103,99.9975739 57.2721672,95.8005905 
		69.956749,95.8005905 69.956749,90.3242111 54.5964622,90.3242111 	"/>
	<polygon class="st3" points="97.6253433,91.2385864 84.3580933,91.2385864 84.3580933,95.2947083 83.4457397,99.3588486 
		86.0916519,99.9975357 87.0338745,95.8005905 96.9995651,95.8005905 99.26754,96.3479156 100.2712936,91.8772736 
		97.6253433,91.2598343 	"/>
	<polygon class="st3" points="78.4651642,52.0059929 78.4651642,51.0936089 78.4651642,50.181221 42.6084099,50.181221 
		40.1449509,49.6337814 39.9624176,50.5462494 42.4258766,51.0936089 77.5527725,51.0936089 77.5527725,52.0059929 	"/>
	<polygon class="st3" points="112.2234802,22.8095665 104.7828522,22.8095665 104.7828522,23.7219925 112.2234802,23.7219925 
		112.2234802,41.9697495 89.4137878,41.9697876 89.4137878,23.7219925 97.5235291,23.7219925 97.5235291,22.8095665 
		88.5014038,22.8096066 88.5014038,50.181221 89.4137878,50.181221 89.4137878,42.8821754 112.2234802,42.8821754 
		112.2234802,59.3050423 89.4137878,59.3050423 89.4137878,57.4803085 88.5014038,57.4803085 88.5014038,64.7793579 
		86.67659,64.7793579 86.67659,65.6917419 89.4138336,65.6917419 89.4137878,60.2174263 112.2234802,60.2174263 
		112.2234802,97.0935364 111.6759949,99.3613968 114.3219452,100 114.9605942,97.3540497 114.9605942,21.4649029 
		112.2234802,21.4649029 	"/>
	<polygon class="st3" points="78.4651642,59.3050423 77.5527725,59.3050423 77.5527725,93.793251 77.0054169,95.9830093 
		77.9178009,96.1654968 78.4651642,93.9757462 78.4651642,65.6917419 79.3775101,65.6917419 79.3775101,64.7793579 
		78.4651642,64.7793579 	"/>
</g>
</g></svg>
