<?xml version="1.0" encoding="utf-8"?>
<!-- DO NOT EDIT THIS, THIS FILE IS GENERATED FROM "2_13-22_8.original.svg" using transform-svgs.js script -->
<!-- Generator: Adobe Illustrator 24.2.0, SVG Export Plug-In . SVG Version: 6.00 Build 0)  -->
<!DOCTYPE svg PUBLIC "-//W3C//DTD SVG 1.1//EN" "http://www.w3.org/Graphics/SVG/1.1/DTD/svg11.dtd" [
	<!ENTITY ns_extend "http://ns.adobe.com/Extensibility/1.0/">
	<!ENTITY ns_ai "http://ns.adobe.com/AdobeIllustrator/10.0/">
	<!ENTITY ns_graphs "http://ns.adobe.com/Graphs/1.0/">
	<!ENTITY ns_vars "http://ns.adobe.com/Variables/1.0/">
	<!ENTITY ns_imrep "http://ns.adobe.com/ImageReplacement/1.0/">
	<!ENTITY ns_sfw "http://ns.adobe.com/SaveForWeb/1.0/">
	<!ENTITY ns_custom "http://ns.adobe.com/GenericCustomNamespace/1.0/">
	<!ENTITY ns_adobe_xpath "http://ns.adobe.com/XPath/1.0/">
]>
<svg version="1.1" id="Слой_1" xmlns:x="&ns_extend;" xmlns:i="&ns_ai;" xmlns:graph="&ns_graphs;"
	 xmlns="http://www.w3.org/2000/svg" xmlns:xlink="http://www.w3.org/1999/xlink" x="0px" y="0px" viewBox="0 0 150 100"
	 style="enable-background:new 0 0 150 100;" xml:space="preserve"><g transform="translate(13.382661867008796 8.921774578005865) scale(0.8215645084398827)">
<style type="text/css">
	.st0{fill:#DBD4CA;}
	.st1{fill:none;stroke:#565440;}
	.st2{fill:none;stroke:#565440;stroke-width:1.0000414;stroke-miterlimit:4.0001655;}
	.st3{fill:#565440;}
</style>
<metadata>
	<sfw  xmlns="&ns_sfw;">
		<slices></slices>
		<sliceSourceBounds  bottomLeftOrigin="true" height="100" width="79.3030014" x="35.3484993" y="0"></sliceSourceBounds>
	</sfw>
</metadata>
<polygon id="Floor" class="st0" points="113.8098145,91.8190155 113.8098145,11.4268036 36.2331276,11.4104757 
	36.2331276,93.6134949 48.1909027,93.8711624 67.8895721,99.1509323 70.061348,94.5337448 84.7480316,94.6554337 
	103.7460632,98.986702 105.8404922,93.0806046 "/>
<path id="Doors" class="st1" d="M73.5776978,26.6928959c-1.1949539,0-2.172554,0.2172298-3.2589417,0.6517849
	c-1.0862656,0.434576-2.0639648,1.0862656-2.8243561,1.8467808c-0.8690414,0.7603512-1.5208435,1.7380962-1.955307,2.8243618
	c-0.4344559,1.0862427-0.6518021,2.172554-0.6518021,3.3674812h8.6902924 M73.5776978,54.0855446
	c-1.1949539,0-2.172554-0.2172279-3.2589188-0.6518059c-1.0862885-0.4345551-2.0639877-1.0862656-2.8243561-1.8467598
	c-0.8690643-0.7603722-1.5208435-1.7380943-1.9553299-2.8243599c-0.4344559-1.0862656-0.6518021-2.172554-0.6518021-3.3674812
	h8.6902924 M77.7140198,11.4561844c0-1.4121571,0.3258896-2.8090382,0.8690338-4.1125331
	c0.5431519-1.303637,1.3035202-2.6071324,2.3899078-3.5847359c0.9776001-0.9776983,2.1725311-1.8466163,3.4761429-2.3898792
	C85.7526245,0.8258916,87.1647797,0.5,88.5769653,0.5l0.0000229,10.9562321"/>
<g id="Windows">
	
		<rect x="58.6924477" y="86.2845306" transform="matrix(0.2514893 -0.9678601 0.9678601 0.2514893 -48.4368248 129.4992981)" class="st2" width="1.6270692" height="19.561367"/>
	<polygon class="st1" points="84.7480392,94.6554565 85.1572647,93.0806274 103.2217941,97.7490311 102.8125916,99.3237381 	"/>
</g>
<g id="Walls">
	<polygon class="st3" points="38.6073189,37.2441826 73.5777206,37.2441826 73.5777206,45.3951378 74.6639633,45.3951378 
		74.6639633,35.3833313 73.5777206,35.3833313 73.5777206,36.1578941 38.6073189,36.1579399 38.6073189,14.6217613 
		73.5763016,14.6217613 73.5763474,26.6929207 74.66259,26.6929207 74.66259,14.6217613 77.7140198,14.6217613 
		77.7140198,11.3629408 35.3484993,11.3629408 35.3485451,95.0073166 50.5610428,94.9995117 50.5610428,88.5016403 
		38.6073685,88.4950638 	"/>
	<polygon class="st3" points="114.6476669,11.3628941 88.5770111,11.3629408 88.5770111,14.6217613 111.38871,14.6217613 
		111.38871,36.1578445 90.3649292,36.1578941 90.3649292,37.244133 111.38871,37.244133 111.3887558,88.495018 
		103.3590164,88.495018 103.3590164,94.3955917 102.2723999,99.2360306 102.2733917,99.2362671 102.2726364,99.2395782 
		105.4228668,100 106.5446701,95.0031509 114.6476669,95.0073166 114.6476669,95.0031509 114.6515045,95.0031509 	"/>
	<polygon class="st3" points="74.6639633,89.5716629 74.6639633,54.0855446 73.5777206,54.0855446 73.5777206,89.5716629 
		67.9238434,89.5716629 67.9238434,95.0031509 67.9326859,95.0031509 67.0547791,98.9139023 70.2050629,99.6742706 
		71.2536087,95.0031509 81.6332321,95.0031509 85.3991089,95.8721695 86.5940399,90.5493546 82.466156,89.5716629 	"/>
</g>
</g></svg>
