<?xml version="1.0" encoding="utf-8"?>
<!-- DO NOT EDIT THIS, THIS FILE IS GENERATED FROM "2_24_4.original.svg" using transform-svgs.js script -->
<!-- Generator: Adobe Illustrator 24.2.0, SVG Export Plug-In . SVG Version: 6.00 Build 0)  -->
<!DOCTYPE svg PUBLIC "-//W3C//DTD SVG 1.1//EN" "http://www.w3.org/Graphics/SVG/1.1/DTD/svg11.dtd" [
	<!ENTITY ns_extend "http://ns.adobe.com/Extensibility/1.0/">
	<!ENTITY ns_ai "http://ns.adobe.com/AdobeIllustrator/10.0/">
	<!ENTITY ns_graphs "http://ns.adobe.com/Graphs/1.0/">
	<!ENTITY ns_vars "http://ns.adobe.com/Variables/1.0/">
	<!ENTITY ns_imrep "http://ns.adobe.com/ImageReplacement/1.0/">
	<!ENTITY ns_sfw "http://ns.adobe.com/SaveForWeb/1.0/">
	<!ENTITY ns_custom "http://ns.adobe.com/GenericCustomNamespace/1.0/">
	<!ENTITY ns_adobe_xpath "http://ns.adobe.com/XPath/1.0/">
]>
<svg version="1.1" id="Слой_1" xmlns:x="&ns_extend;" xmlns:i="&ns_ai;" xmlns:graph="&ns_graphs;"
	 xmlns="http://www.w3.org/2000/svg" xmlns:xlink="http://www.w3.org/1999/xlink" x="0px" y="0px" viewBox="0 0 150 100"
	 style="enable-background:new 0 0 150 100;" xml:space="preserve"><g transform="translate(31.394329238411775 20.92955282560785) scale(0.581408943487843)">
<style type="text/css">
	.st0{fill:#DBD4CA;}
	.st1{fill:none;stroke:#565440;}
	.st2{fill:#565440;}
</style>
<metadata>
	<sfw  xmlns="&ns_sfw;">
		<slices></slices>
		<sliceSourceBounds  bottomLeftOrigin="true" height="84.1326447" width="150" x="0" y="7.9486427"></sliceSourceBounds>
	</sfw>
</metadata>
<path id="Floor" class="st0" d="M1.0797546,86.4723892V7.9187102h142.7484589v4.2346644l5.1165619,2.1349688l-4.6012268,19.6564426
	v31.2147217l4.5209198,2.0942001l-5.3669739,22.7586288c0,0-12.9428711-2.8862228-13.1526947-2.8817978
	c-0.2098389,0.0044327-35.4736404,0-35.4736404,0l-1.2883377,3.7590332l-21.3220901-4.7852783h-8.418396l-1.8239326,4.7484665
	L42.969326,86.6133118H29.7453995l-2.4054985,4.8029556l-16.3767109-4.3181076L1.0797546,86.4723892z"/>
<g id="Windows">
	<polygon class="st1" points="143.506485,89.9938202 149.2784576,65.2565079 147.6235504,64.780632 142.2637787,88.0748749 
		130.7255554,85.5617447 111.3480606,85.5617599 111.3480606,87.107811 130.7255554,87.107811 	"/>
	<polygon class="st1" points="63.5227242,89.5815887 63.2134819,91.1276779 44.0420647,86.7449188 44.3512878,85.1988068 	"/>
	<polygon class="st1" points="95.4750443,89.5815659 95.165802,91.127655 77.1282043,87.0047607 77.4374008,85.4586868 	"/>
	<polygon class="st1" points="149.072403,13.514513 144.6403656,32.8919411 143.0943298,32.5827179 147.5263519,13.2052679 	"/>
	<polygon class="st1" points="10.4153833,86.9802094 10.8036747,85.485939 27.9440784,89.9155121 27.555809,91.4096756 	"/>
</g>
<path id="Doors" class="st1" d="M58.574398,21.3480377c1.1338387,0,2.0613937,0.2061253,3.0921364,0.6184464
	c1.0306969,0.4122276,1.9583855,1.030695,2.6798859,1.7521706c0.8245468,0.7215405,1.4430389,1.6491871,1.8552399,2.679882
	c0.4122543,1.0306759,0.6184464,2.0613937,0.6184464,3.1952095H58.574398 M96.5056992,31.6551628
	c0-1.1338158,0.2061462-2.0614376,0.6184845-3.0921135c0.4122543-1.030695,1.0307007-1.9582958,1.7521515-2.679882
	c0.7214966-0.8245716,1.649231-1.4430618,2.6798859-1.8553123c1.0306931-0.4123211,2.0613937-0.6184464,3.1952286-0.6184464
	v8.2457542 M20.9314747,32.4898758c0,1.1081009-0.2014389,2.0147133-0.6044712,3.0220375
	c-0.4028759,1.0073242-1.0073013,1.9138947-1.7124329,2.6191177c-0.7051105,0.8058853-1.6118164,1.4103546-2.6191168,1.8132744
	c-1.0073681,0.4029655-2.0146685,0.6044273-3.1228123,0.6044273v-8.058857 M35.7253113,70.9916992
	c-1.2253036,0-2.2278023,0.2227631-3.341671,0.6684189c-1.1138687,0.4454956-2.1163235,1.1138458-2.8961525,1.8935394
	c-0.8911304,0.7797165-1.5595245,1.7823029-2.0050678,2.8961716c-0.4455872,1.1138916-0.6683483,2.2277603-0.6683483,3.4531097
	h8.9112396 M106.8128433,34.50103c1.1338348,0,2.0613937,0.2061234,3.0920868,0.6184654
	c1.0307465,0.4122314,1.9584351,1.0306969,2.6798859,1.7521477c0.8245468,0.7214775,1.4430389,1.649189,1.8552933,2.6798859
	c0.412384,1.0306969,0.6184845,2.0614166,0.6184845,3.1952095h-8.2457504 M104.3944168,52.2695045
	c0,1.1337929-0.2061005,2.0614128-0.6184845,3.0921097c-0.4122543,1.030674-1.0306549,1.9584122-1.7521515,2.679863
	c-0.7214966,0.8245926-1.6491394,1.4430618-2.6798859,1.8553123c-1.0306931,0.4122505-2.0613861,0.6184464-3.1952286,0.6184464
	v-8.2457314 M50.1233521,11.0407782c0,1.3399191-0.3092003,2.5767641-0.8245468,3.8136539
	c-0.5153961,1.2369585-1.2368469,2.4737806-2.2676773,3.4013586c-0.9276466,0.9276905-2.0613937,1.7522831-3.2983055,2.2676544
	c-1.2369156,0.5153255-2.5767441,0.8245487-3.9166832,0.8245697V11.0408001"/>
<g id="Walls">
	<polygon class="st2" points="57.5708389,29.5937252 57.5708389,32.6858139 96.5056992,32.6858139 96.5056992,31.6551628 
		77.9527969,31.6551628 77.9527512,11.0407333 105.7821503,11.0407333 105.7821884,31.6551628 104.7514496,31.6551628 
		104.7514496,32.6858139 105.7821884,32.6858139 105.7821884,34.50103 106.8128433,34.50103 106.8128433,11.0407333 
		141.857254,11.0407333 141.8561249,14.1568956 148.7631989,15.7820997 149.4846497,12.7930164 144.9494781,11.7258501 
		144.9494781,7.9486427 50.1233521,7.9486427 50.1233521,11.0407333 57.5708389,11.0407333 57.5708389,21.3480148 
		58.6015816,21.3480148 58.6015816,11.0407333 76.9220505,11.0407333 76.9220505,31.6551628 58.6015816,31.6551628 
		58.6015816,29.5937252 	"/>
	<polygon class="st2" points="62.0916328,82.1603851 62.0916328,87.314003 62.1001091,87.314003 61.2671738,91.0245819 
		64.2562103,91.7460327 65.2511139,87.314003 74.7613907,87.314003 78.3346176,88.1385956 79.4684982,83.0881195 
		75.5517731,82.1603851 	"/>
	<polygon class="st2" points="94.9829102,52.2694588 96.1486664,52.2694588 96.1486664,51.2388077 94.9829102,51.2388077 
		94.9829102,42.7467384 93.9522171,42.7467384 93.9606476,87.314003 93.1276703,91.0245819 96.1167068,91.7460327 
		97.1117477,87.314003 112.3730316,87.314003 112.3730316,81.1349182 94.9829102,81.1349182 	"/>
	<polygon class="st2" points="144.9495239,61.6350288 144.9495239,29.5937252 141.857254,29.5937252 141.857254,51.2388077 
		106.8128433,51.2388077 106.8128433,42.7467384 105.7821884,42.7467842 105.7821884,51.2388077 104.3944168,51.2388077 
		104.3944168,52.2694588 139.7958527,52.2694588 139.7958527,65.6688766 139.8190308,65.6688766 139.7958527,65.7719269 
		148.8663025,67.8334579 150,62.7828445 	"/>
	<polygon class="st2" points="39.8161163,11.0407782 39.8161163,7.9486427 0,7.948688 0.0000451,87.3140488 7.459929,87.3101273 
		11.0331516,88.1346741 12.1669455,83.0841522 8.2502623,82.1565094 3.0922253,82.1565094 3.0922253,32.5058556 
		12.8929949,32.5058556 12.8929949,31.4752064 3.0922253,31.4752064 3.0922253,11.0407782 30.2571507,11.0407782 
		30.2571507,31.4751606 20.9277782,31.4752064 20.9277782,32.5058556 35.6931915,32.5058556 35.6932373,71.0122299 
		38.7854614,71.0122299 38.7854614,29.4430923 35.6931915,29.4430923 35.6931915,31.4751606 31.2878036,31.4751606 
		31.2878036,11.0407782 	"/>
	<polygon class="st2" points="38.7890701,80.0989456 38.7854614,80.0989456 38.7854614,79.9029388 35.6932373,79.9029388 
		35.6932373,81.1349182 28.0742683,81.1349182 28.0742683,86.7336502 27.0432568,91.3264313 27.0442028,91.3266602 
		27.0434818,91.3298187 30.0325661,92.0513535 31.096981,87.3101273 45.4553757,87.3140488 45.4553757,81.134964 
		38.7890701,81.134964 	"/>
</g>
</g></svg>
