<?xml version="1.0" encoding="utf-8"?>
<!-- DO NOT EDIT THIS, THIS FILE IS GENERATED FROM "2_25-36_8.original.svg" using transform-svgs.js script -->
<!-- Generator: Adobe Illustrator 24.2.0, SVG Export Plug-In . SVG Version: 6.00 Build 0)  -->
<!DOCTYPE svg PUBLIC "-//W3C//DTD SVG 1.1//EN" "http://www.w3.org/Graphics/SVG/1.1/DTD/svg11.dtd" [
	<!ENTITY ns_extend "http://ns.adobe.com/Extensibility/1.0/">
	<!ENTITY ns_ai "http://ns.adobe.com/AdobeIllustrator/10.0/">
	<!ENTITY ns_graphs "http://ns.adobe.com/Graphs/1.0/">
	<!ENTITY ns_vars "http://ns.adobe.com/Variables/1.0/">
	<!ENTITY ns_imrep "http://ns.adobe.com/ImageReplacement/1.0/">
	<!ENTITY ns_sfw "http://ns.adobe.com/SaveForWeb/1.0/">
	<!ENTITY ns_custom "http://ns.adobe.com/GenericCustomNamespace/1.0/">
	<!ENTITY ns_adobe_xpath "http://ns.adobe.com/XPath/1.0/">
]>
<svg version="1.1" id="Слой_1" xmlns:x="&ns_extend;" xmlns:i="&ns_ai;" xmlns:graph="&ns_graphs;"
	 xmlns="http://www.w3.org/2000/svg" xmlns:xlink="http://www.w3.org/1999/xlink" x="0px" y="0px" viewBox="0 0 150 100"
	 style="enable-background:new 0 0 150 100;" xml:space="preserve"><g transform="translate(28.723221070888616 19.148814047259076) scale(0.6170237190548185)">
<style type="text/css">
	.st0{fill:#DBD4CA;}
	.st1{fill:none;stroke:#565440;}
	.st2{fill:none;stroke:#565440;stroke-width:1.0000414;stroke-miterlimit:4.0001655;}
	.st3{fill:#565440;}
</style>
<metadata>
	<sfw  xmlns="&ns_sfw;">
		<slices></slices>
		<sliceSourceBounds  bottomLeftOrigin="true" height="100.0389328" width="111.9817963" x="19.0091038" y="-0.0389303">
			</sliceSourceBounds>
	</sfw>
</metadata>
<path id="Floor" class="st0" d="M24.2944202,0.8159509v9.6525002l-3.6430511,16.4824677l4.2075272,0.7361965v12.7315083
	l-4.9374619,23.3570938l4.3729858,2.4512787v10.4355774l-4.3729858,18.1932526l19.2196712,4.5634003l1.030674-4.4437637h11.9263802
	l16.0490799,4.3803635l1.1411057-4.1949463h12.4785233l15.0866623,4.2166367V95.160881h15.5759201
	c0,0,15.2392578,4.1581345,15.3496933,4.1581345c0.1104279,0,1.4723969-4.1581345,1.4723969-4.1581345V25.5467625h-30.317482
	V0.8159509H24.2944202z"/>
<g id="Windows">
	<path class="st1" d="M25.3044872,11.8610506l-3.2845726,14.2332315l-1.3685455-0.2737007l3.2845726-14.2332325
		L25.3044872,11.8610506z"/>
	<path class="st1" d="M26.3993511,40.6924248l-5.2917957,23.0832939l-1.368536-0.2737045l5.2917767-23.0833893
		L26.3993511,40.6924248z"/>
	<polygon class="st1" points="38.1691933,98.9938965 38.5341148,97.6253357 21.8374805,93.8844681 26.1257191,71.8960037 
		24.8483315,71.6222763 20.1952038,94.9794083 	"/>
	
		<rect x="60.1344795" y="88.4796677" transform="matrix(0.2514893 -0.9678601 0.9678601 0.2514893 -48.0640182 131.2400818)" class="st2" width="1.366708" height="16.4298134"/>
	
		<rect x="89.2966003" y="89.4004211" transform="matrix(0.2514893 -0.9678601 0.9678601 0.2514893 -26.420599 159.6077881)" class="st2" width="1.3666981" height="14.9700413"/>
	
		<rect x="120.0353851" y="88.4770203" transform="matrix(0.2514893 -0.9678601 0.9678601 0.2514893 -3.2250304 189.2137451)" class="st2" width="1.3665988" height="16.4298134"/>
</g>
<g id="Doors">
	<path class="st1" d="M98.9340591,19.6141815c1.257576,0,2.2863998-0.2286148,3.4296875-0.6859818
		c1.1431885-0.4573269,2.1720886-1.1431694,2.9723358-1.9434967c0.9145737-0.8002281,1.6005402-1.8291693,2.0577469-2.9723377
		c0.4572296-1.1431694,0.6859818-2.2863979,0.6859818-3.5439138h-9.1456146"/>
	<path class="st1" d="M96.8535309,60.9148254c1.0036392,0,1.8247452-0.1824532,2.7372131-0.5474434
		c0.9123688-0.3650055,1.7335358-0.9123688,2.3722-1.551136c0.7299347-0.638649,1.2773819-1.4598351,1.6422882-2.3722038
		s0.5474854-1.8247414,0.5474854-2.8283768h-7.2990875"/>
	<path class="st1" d="M111.6172638,46.0766907c0-0.9051628,0.1645432-1.6456833,0.4937363-2.4686165
		c0.329155-0.8228302,0.8228302-1.5634308,1.3988953-2.1394348c0.5759659-0.6582718,1.3165894-1.1520081,2.1394348-1.4811249
		c0.8228378-0.3290787,1.6456833-0.4937553,2.5508423-0.4937553l-0.0000153,6.5828514"/>
	<path class="st1" d="M79.6700897,50.5567284c0-0.9339027,0.1697845-1.6979408,0.5094223-2.5469894
		c0.3396301-0.8489494,0.8489532-1.6130905,1.4433136-2.2073479c0.5942764-0.6791878,1.3583908-1.1886139,2.2073441-1.5281563
		c0.8489685-0.3395462,1.697937-0.5094261,2.6318359-0.5094261v6.7918205"/>
	<path class="st1" d="M86.4620056,20.7592964c0-0.9338818-0.1697769-1.6979408-0.5094223-2.5469704
		c-0.3396072-0.8489704-0.8489532-1.6130886-1.443306-2.207365c-0.5942612-0.6791878-1.3583984-1.1885939-2.2073441-1.5281382
		c-0.8489761-0.3395443-1.6979446-0.5094461-2.6318436-0.5094461v6.7918396"/>
	<path class="st1" d="M76.0586472,62.1061783c0,1.0278091-0.1868439,1.8686562-0.5606308,2.803093
		c-0.3737717,0.9343185-0.9343185,1.7752686-1.5884399,2.429306c-0.6540222,0.7474976-1.4949875,1.3081284-2.4292908,1.6817932
		c-0.9343338,0.3736877-1.8686752,0.5606537-2.8964615,0.5606537v-7.4747467"/>
	<path class="st1" d="M61.5304298,59.3200111c-1.0056915,0-1.8284645-0.1828346-2.7427902-0.5485764
		c-0.9142189-0.3657227-1.7370796-0.9142151-2.3770409-1.5542755c-0.7313957-0.6399612-1.2799683-1.4628105-1.6456223-2.3770294
		c-0.365654-0.914238-0.5485954-1.828476-0.5485954-2.834156h7.3139496"/>
</g>
<g id="Walls">
	<polygon class="st3" points="27.7679672,10.036191 27.7679672,4.5618706 96.1969681,4.5618706 96.1969681,10.4684324 
		98.9340591,10.4684324 98.9340591,0 23.2060165,0 23.2060165,9.4107704 22.6585751,11.6784573 27.1292286,12.6821537 	"/>
	<polygon class="st3" points="23.2060165,41.057312 28.6674061,41.057312 28.667366,26.4591522 25.0307465,26.4591522 
		20.560133,25.4556141 19.9214344,28.1014576 23.2060165,28.8388023 	"/>
	<polygon class="st3" points="23.7117977,63.8670044 19.6477337,62.9546318 19.0091038,65.6005554 23.2060566,66.542778 
		23.2060566,77.5527954 28.6674061,77.5527954 28.667366,63.8670044 	"/>
	<polygon class="st3" points="38.5699234,95.2947464 37.6574745,99.3588867 40.3033981,99.9975586 41.2456512,95.8005753 
		53.9302063,95.8005753 53.9302063,90.3242111 38.5699234,90.3242111 	"/>
	<polygon class="st3" points="81.5988083,91.2385635 68.3315506,91.2385635 68.3315506,95.2947006 67.4192276,99.3588486 
		70.0651474,99.9975204 71.0073471,95.8005753 80.973053,95.8005753 83.2410355,96.3479004 84.2447739,91.8772736 
		81.5988083,91.2598343 	"/>
	<polygon class="st3" points="62.4386292,52.0059929 62.4386292,50.1812134 26.5818653,50.1812134 24.1184254,49.63377 
		23.9359016,50.5462189 26.3993416,51.0935822 61.5262299,51.0935822 61.5262299,52.0059929 	"/>
	<polygon class="st3" points="68.5838242,62.1062393 68.5838242,61.1937904 62.4386292,61.1938286 62.4386292,59.3050156 
		61.5262299,59.3050156 61.5262299,93.7932205 60.9789047,95.9830093 61.8912659,96.1654816 62.4386292,93.9757538 
		62.4386292,62.1062393 	"/>
	<polygon class="st3" points="98.9340591,60.5033989 96.1969681,60.5033989 96.1969681,61.1937485 76.0586472,61.1937904 
		76.0586472,62.1062012 96.1969681,62.1062012 96.1969681,97.093544 95.6494904,99.3613739 98.2954102,100 98.9340591,97.3540344 
		98.9340591,95.8005753 113.532341,95.8005753 113.532341,90.3308411 98.9340591,90.3308411 	"/>
	<polygon class="st3" points="130.9887695,25.5467625 130.8590088,25.5467625 98.9340591,25.5467625 98.9340591,19.6141815 
		96.1969681,19.6141815 96.1969681,20.7592964 86.4620056,20.7593365 86.4620056,21.6717052 96.1969681,21.6717052 
		96.201561,32.1868744 73.8434143,32.1869125 73.8434143,21.6717453 79.6700897,21.6717453 79.6700897,20.7592964 
		72.9310455,20.7592964 72.9310455,51.4691582 73.0039597,51.4691582 79.6700897,51.4691582 79.6700897,50.5567665 
		73.8434525,50.5568085 73.8434143,33.0992851 96.201561,33.0992851 96.201561,50.5567284 86.4620056,50.5567665 
		86.4620056,51.4691582 96.201561,51.4691582 96.201561,53.6156464 97.1139679,53.6156464 97.1139679,46.9890976 
		111.6172638,46.9890976 111.6172638,46.0766907 97.1139679,46.0767288 97.1139297,28.2838516 128.2516785,28.2838516 
		128.2516785,46.0766907 118.2001572,46.0767288 118.2001572,46.9890976 128.2516785,46.9890976 128.2516785,94.8880844 
		127.2588272,99.3588486 129.9046326,99.9975204 130.9908905,94.9480896 	"/>
</g>
</g></svg>
