<?xml version="1.0" encoding="utf-8"?>
<!-- DO NOT EDIT THIS, THIS FILE IS GENERATED FROM "2_25-36_3.original.svg" using transform-svgs.js script -->
<!-- Generator: Adobe Illustrator 24.2.0, SVG Export Plug-In . SVG Version: 6.00 Build 0)  -->
<!DOCTYPE svg PUBLIC "-//W3C//DTD SVG 1.1//EN" "http://www.w3.org/Graphics/SVG/1.1/DTD/svg11.dtd" [
	<!ENTITY ns_extend "http://ns.adobe.com/Extensibility/1.0/">
	<!ENTITY ns_ai "http://ns.adobe.com/AdobeIllustrator/10.0/">
	<!ENTITY ns_graphs "http://ns.adobe.com/Graphs/1.0/">
	<!ENTITY ns_vars "http://ns.adobe.com/Variables/1.0/">
	<!ENTITY ns_imrep "http://ns.adobe.com/ImageReplacement/1.0/">
	<!ENTITY ns_sfw "http://ns.adobe.com/SaveForWeb/1.0/">
	<!ENTITY ns_custom "http://ns.adobe.com/GenericCustomNamespace/1.0/">
	<!ENTITY ns_adobe_xpath "http://ns.adobe.com/XPath/1.0/">
]>
<svg version="1.1" id="Слой_1" xmlns:x="&ns_extend;" xmlns:i="&ns_ai;" xmlns:graph="&ns_graphs;"
	 xmlns="http://www.w3.org/2000/svg" xmlns:xlink="http://www.w3.org/1999/xlink" x="0px" y="0px" viewBox="0 0 150 100"
	 style="enable-background:new 0 0 150 100;" xml:space="preserve"><g transform="translate(11.11472559766214 7.4098170651080935) scale(0.8518036586978381)">
<style type="text/css">
	.st0{fill:#DBD4CA;}
	.st1{fill:none;stroke:#565440;}
	.st2{fill:#565440;}
</style>
<metadata>
	<sfw  xmlns="&ns_sfw;">
		<slices></slices>
		<sliceSourceBounds  bottomLeftOrigin="true" height="100" width="75.8415527" x="37.0792236" y="0"></sliceSourceBounds>
	</sfw>
</metadata>
<polygon id="Floor_1_" class="st0" points="38.0915337,0.0000181 110.2208557,0.024946 110.2208557,89.1954727 
	38.1067963,89.1954727 "/>
<path id="Windows" class="st1" d="M110.7014999,0.5115516v1.5346773L43.3336296,2.0462456V0.5115683L110.7014999,0.5115516z"/>
<g id="Doors">
	<path id="Doors_10" class="st1" d="M74.7780075,15.2830372c1.1254501,0,2.0462341-0.2046881,3.0693436-0.6138983
		c1.0231094-0.4091988,1.9440079-1.0231094,2.6601563-1.7392626c0.8185043-0.7162437,1.4324417-1.6370411,1.8416367-2.6601391
		c0.4092178-1.0231085,0.6139069-2.0462513,0.6139069-3.1717038h-8.1850433"/>
	<path id="Doors_10_1_" class="st1" d="M58.0605164,63.5521507c0,1.1254539-0.204689,2.0462379-0.6138878,3.0693474
		s-1.0231094,1.9440079-1.7392731,2.6601563c-0.7162323,0.8185043-1.637043,1.4324341-2.6601295,1.8416367
		c-1.0231056,0.4092178-2.0462608,0.6139069-3.1717148,0.6139069v-8.1850471"/>
	<path id="Doors_10_3_" class="st1" d="M101.8057175,89.0124054c0,1.4420547-0.2622833,2.6218719-0.7865906,3.9327927
		c-0.5243301,1.3109207-1.3109207,2.4908752-2.2285461,3.4084778c-0.9177322,1.0487671-2.0975571,1.8354034-3.4084778,2.3597107
		C94.0711823,99.2377243,92.7602234,99.5,91.3181763,99.5V89.0124054"/>
	<path id="Doors_10_2_" class="st1" d="M88.5979385,75.6851425c-1.1254578,0-2.0462418,0.204689-3.0693512,0.6138992
		c-1.0231094,0.4091949-1.9440079,1.0231094-2.6601486,1.7392578c-0.818512,0.7162476-1.4324417,1.6370468-1.8416443,2.660141
		c-0.4092178,1.0231094-0.6139069,2.0462494-0.6139069,3.1717072h8.185051"/>
</g>
<g id="Walls">
	<polygon class="st2" points="75.1496048,15.2830429 72.0801697,15.2830429 72.0801697,62.7963638 58.0606728,62.7963638 
		58.0606728,63.8195839 72.0801697,63.8195839 72.0801697,85.9429703 40.1486626,85.9429703 40.1486626,63.8195839 
		49.8754883,63.8195839 49.8754883,62.7963638 40.1486626,62.7963638 40.1486626,5.1157002 44.2501831,5.1157002 44.2501831,0 
		37.0792236,0 37.0792236,89.0124512 91.3181763,89.0124054 91.3181763,85.9429703 89.6211548,85.9429703 89.6211548,83.8701553 
		88.5979385,83.8701553 88.5979385,85.9429703 75.1496048,85.9429703 75.1496048,64.842804 88.5979385,64.842804 
		88.5979385,75.6851501 89.6211548,75.6851501 89.6211548,64.842804 94.5554657,64.842804 94.5554657,63.8195839 
		75.1496048,63.8195839 	"/>
	<polygon class="st2" points="101.8057175,89.0124054 112.9207764,89.0124054 112.9207306,0 101.4060974,0 101.4060974,6.1336637 
		109.8513794,6.1336637 109.8514252,85.9429703 101.8057175,85.9429703 	"/>
	<polygon class="st2" points="69.1677551,6.1336637 72.0801697,6.1336637 72.0801697,7.0488157 75.1496048,7.0488157 
		75.1496048,6.1336637 78.1004639,6.1336637 78.1004639,5.1157002 87.8525467,5.1157002 87.8525467,0 58.7844543,0 
		58.7844543,5.1157002 69.1677551,5.1157002 	"/>
</g>
</g></svg>
