<?xml version="1.0" encoding="utf-8"?>
<!-- DO NOT EDIT THIS, THIS FILE IS GENERATED FROM "2_25-36_5.original.svg" using transform-svgs.js script -->
<!-- Generator: Adobe Illustrator 24.2.0, SVG Export Plug-In . SVG Version: 6.00 Build 0)  -->
<!DOCTYPE svg PUBLIC "-//W3C//DTD SVG 1.1//EN" "http://www.w3.org/Graphics/SVG/1.1/DTD/svg11.dtd" [
	<!ENTITY ns_extend "http://ns.adobe.com/Extensibility/1.0/">
	<!ENTITY ns_ai "http://ns.adobe.com/AdobeIllustrator/10.0/">
	<!ENTITY ns_graphs "http://ns.adobe.com/Graphs/1.0/">
	<!ENTITY ns_vars "http://ns.adobe.com/Variables/1.0/">
	<!ENTITY ns_imrep "http://ns.adobe.com/ImageReplacement/1.0/">
	<!ENTITY ns_sfw "http://ns.adobe.com/SaveForWeb/1.0/">
	<!ENTITY ns_custom "http://ns.adobe.com/GenericCustomNamespace/1.0/">
	<!ENTITY ns_adobe_xpath "http://ns.adobe.com/XPath/1.0/">
]>
<svg version="1.1" id="Слой_1" xmlns:x="&ns_extend;" xmlns:i="&ns_ai;" xmlns:graph="&ns_graphs;"
	 xmlns="http://www.w3.org/2000/svg" xmlns:xlink="http://www.w3.org/1999/xlink" x="0px" y="0px" viewBox="0 0 150 100"
	 style="enable-background:new 0 0 150 100;" xml:space="preserve"><g transform="translate(29.65046535632572 19.76697690421715) scale(0.604660461915657)">
<style type="text/css">
	.st0{fill:#DBD4CA;}
	.st1{fill:none;stroke:#565440;}
	.st2{fill:#565440;}
</style>
<metadata>
	<sfw  xmlns="&ns_sfw;">
		<slices></slices>
		<sliceSourceBounds  bottomLeftOrigin="true" height="84.1355362" width="149.9913025" x="0" y="7.9322305"></sliceSourceBounds>
	</sfw>
</metadata>
<polygon id="Floor" class="st0" points="48.3777504,90.9631882 141.1779175,90.9631882 144.1900787,85.8536758 
	148.0352783,69.191246 142.5398712,67.5153351 142.503067,37.2944794 149.644165,12.114954 1.8895706,12.0985966 
	1.8895706,61.9202499 32.9586525,62.295311 32.9595757,69.7929916 48.3777504,69.7929916 "/>
<g id="Windows">
	<path class="st1" d="M148.3797302,66.9937134L143.6612549,87.4403l-1.5775299-0.3155136l4.7184753-20.4465866
		L148.3797302,66.9937134z"/>
	<path class="st1" d="M76.7734528,12.1390648v1.577507l-30.4990883,0.0000114v-1.577507L76.7734528,12.1390648z"/>
	<polygon class="st1" points="149.3404846,12.1390419 118.4206467,12.1390533 118.4206467,13.7165947 147.2370148,13.7165833 
		142.3992004,32.2263985 143.8716583,32.6470909 	"/>
</g>
<path id="Doors" class="st1" d="M100.9625092,64.7237396c1.1569214,0,2.1033859-0.2103348,3.1551743-0.6310425
	c1.051651-0.4206276,1.9982529-1.0516739,2.7343674-1.7878342c0.8413849-0.736248,1.4724579-1.6827431,1.8930817-2.7344131
	s0.6310196-2.1033669,0.6310196-3.2602386h-8.4135056 M96.7556839,53.1551514c0-1.1568718-0.2103119-2.1033897-0.6310196-3.1550598
	c-0.4207611-1.0516472-1.0516968-1.9982567-1.7878571-2.7343903c-0.7361603-0.841362-1.6827164-1.4724312-2.7344131-1.893055
	c-1.051651-0.4206467-2.1033401-0.6310501-3.2602158-0.6310501v8.4135551 M80.9803162,67.8788681
	c0-1.156868,0.2103119-2.103363,0.6310272-3.1550369c0.4206238-1.0516701,1.0516968-1.9982529,1.7878571-2.7344131
	c0.7361526-0.8413582,1.6827164-1.4724312,2.7344131-1.8930511c1.0516434-0.4206238,2.1033401-0.6310501,3.2602158-0.6310501
	v8.4135513 M99.9108124,30.0178089c-1.156868,0-2.1033401,0.2103119-3.1549911,0.6310253
	c-1.0516891,0.4207382-1.9982529,1.051672-2.7344131,1.7879448c-0.8413773,0.7361603-1.4724045,1.6827431-1.8930283,2.7344131
	c-0.4206696,1.0516739-0.631073,2.1033897-0.631073,3.2602615h8.4135056 M26.2921505,28.9661503
	c1.1568947,0,2.1033649-0.2103119,3.1550598-0.6310387c1.0516701-0.4207249,1.9982319-1.0516701,2.7344151-1.7879429
	c0.8413582-0.7361584,1.4724083-1.6827431,1.8930283-2.7344151c0.4206238-1.051672,0.6310501-2.1033764,0.6310501-3.2602501
	h-8.4135303 M9.4650879,42.6381874c0-1.1568756,0.2103338-2.1033669,0.6310711-3.1550369
	c0.4206228-1.0516739,1.051672-1.9981422,1.7878304-2.734417c0.7361584-0.8413582,1.6827202-1.4724312,2.7344141-1.8930511
	c1.051671-0.4207382,2.103343-0.6310501,3.2602377-0.6310501v8.4135551 M51.5328789,76.2924042
	c1.3672333,0,2.6291924,0.3155136,3.8912888,0.8413544c1.2620049,0.5258255,2.5241013,1.2621002,3.4705734,2.3137741
	c0.9465599,0.9464645,1.7878532,2.1033859,2.3137894,3.3654633c0.5258484,1.2621155,0.8413391,2.6292114,0.8413391,3.9963913
	H51.5329704"/>
<g id="Walls">
	<polygon class="st2" points="137.7770691,88.912735 100.9625092,88.912735 100.9625092,64.7237167 99.9107208,64.7237167 
		99.9107208,67.8788452 89.3938293,67.8788452 89.3938293,68.930542 99.9107208,68.930542 99.9107666,88.912735 
		72.5666733,88.912735 72.5666733,68.930542 80.9803162,68.930542 80.9803162,67.8788452 71.5149765,67.8788452 
		71.5149765,68.930542 71.5149765,88.912735 51.5328789,88.912735 51.5328789,86.8092957 48.3777504,86.8092957 
		48.3777504,92.0677719 144.0819702,92.0677719 144.0819702,84.7059097 137.7770691,84.7059097 	"/>
	<polygon class="st2" points="88.3421783,54.2068214 88.3421783,53.1551285 76.7734985,53.1551285 76.7734985,41.5864906 
		100.9625092,41.5864906 100.9625092,38.4313164 99.9107208,38.4313164 99.9107208,40.5347519 76.7734985,40.5347977 
		76.7734528,17.3895111 99.9107208,17.3895111 99.9107208,30.0178089 100.9625092,30.0178089 100.9625092,17.3895111 
		128.3065643,17.3894653 128.3065643,11.0873585 127.254776,11.0873585 127.254776,7.9322305 124.0997391,7.9322305 
		124.0997391,11.0873585 111.4794083,11.0873585 111.4794083,7.9322305 108.3243713,7.9322305 108.3243713,11.0873585 
		95.7039948,11.0873585 95.7039948,7.9322305 92.5488663,7.9322305 92.5488663,11.0873585 78.8768387,11.0873585 
		78.8768387,7.9322305 75.7218018,7.9322305 75.7218018,54.2068214 76.7734985,54.2068214 	"/>
	<rect x="59.9463882" y="7.9322305" class="st2" width="3.1550369" height="7.3618598"/>
	<polygon class="st2" points="143.0303192,65.4113846 143.0302734,36.5383797 144.7129974,32.3315544 141.7683258,31.1746368 
		141.389679,32.1212425 139.8751526,32.1212425 139.8751526,34.2245865 137.7770691,34.2245865 137.7770691,41.5864449 
		139.8751526,41.5864449 139.8751526,53.1551285 96.7556839,53.1551285 96.7556839,54.2068214 99.9107208,54.2068214 
		99.9107208,56.3101654 100.9625092,56.3101654 100.9625092,54.2068214 139.8751526,54.2068214 139.8751526,67.4432068 
		139.7700653,67.8788452 147.9732666,69.7718811 148.7094269,66.7219315 	"/>
	<polygon class="st2" points="48.3777504,76.2925415 51.5327873,76.2925415 51.5327415,60.5170326 50.4811859,60.5170326 
		50.4811859,67.878891 34.7058182,67.878891 34.7058182,61.5687294 19.9820995,61.5687294 19.9820995,30.0179005 
		26.2922649,30.0179005 26.2922649,28.9662533 18.9304047,28.9662533 18.9304047,42.638279 17.8787098,42.638279 
		17.8787098,43.6899719 18.9304047,43.6899719 18.9304047,61.5686836 3.1549911,61.5686836 3.1549911,43.6899719 
		9.4651566,43.6899719 9.4651566,42.638279 3.1549911,42.638279 3.1549911,17.1899147 25.2405701,17.1899147 25.2405701,20.5527439 
		26.2922649,20.5527439 26.2922649,17.1899147 47.326149,17.1899147 47.326149,7.9324594 44.1711121,7.9324594 
		44.1711121,11.0874958 30.4990864,11.0874958 30.4990864,7.9324594 27.3439579,7.9324594 27.3439579,11.0874958 0,11.0873127 
		0,64.7239456 31.5506439,64.7239456 31.5506897,71.0340195 48.3777504,71.0340195 	"/>
</g>
</g></svg>
