<?xml version="1.0" encoding="utf-8"?>
<!-- DO NOT EDIT THIS, THIS FILE IS GENERATED FROM "2_25-36_4.original.svg" using transform-svgs.js script -->
<!-- Generator: Adobe Illustrator 24.2.0, SVG Export Plug-In . SVG Version: 6.00 Build 0)  -->
<!DOCTYPE svg PUBLIC "-//W3C//DTD SVG 1.1//EN" "http://www.w3.org/Graphics/SVG/1.1/DTD/svg11.dtd" [
	<!ENTITY ns_extend "http://ns.adobe.com/Extensibility/1.0/">
	<!ENTITY ns_ai "http://ns.adobe.com/AdobeIllustrator/10.0/">
	<!ENTITY ns_graphs "http://ns.adobe.com/Graphs/1.0/">
	<!ENTITY ns_vars "http://ns.adobe.com/Variables/1.0/">
	<!ENTITY ns_imrep "http://ns.adobe.com/ImageReplacement/1.0/">
	<!ENTITY ns_sfw "http://ns.adobe.com/SaveForWeb/1.0/">
	<!ENTITY ns_custom "http://ns.adobe.com/GenericCustomNamespace/1.0/">
	<!ENTITY ns_adobe_xpath "http://ns.adobe.com/XPath/1.0/">
]>
<svg version="1.1" id="Слой_1" xmlns:x="&ns_extend;" xmlns:i="&ns_ai;" xmlns:graph="&ns_graphs;"
	 xmlns="http://www.w3.org/2000/svg" xmlns:xlink="http://www.w3.org/1999/xlink" x="0px" y="0px" viewBox="0 0 150 100"
	 style="enable-background:new 0 0 150 100;" xml:space="preserve"><g transform="translate(26.49118542954319 17.660790286362126) scale(0.6467841942727575)">
<style type="text/css">
	.st0{fill:#DBD4CA;}
	.st1{fill:none;stroke:#565440;}
	.st2{fill:#565440;}
</style>
<metadata>
	<sfw  xmlns="&ns_sfw;">
		<slices></slices>
		<sliceSourceBounds  bottomLeftOrigin="true" height="100.1228485" width="104.7712021" x="22.6457329" y="-0.0614417">
			</sliceSourceBounds>
	</sfw>
</metadata>
<polygon id="Floor" class="st0" points="126.8665771,0.4495791 23.5889568,0.4386083 23.5889568,75.1777267 51.9156914,75.1777344 
	51.9156914,99.5614243 126.8665771,99.5614243 "/>
<polygon id="Windows" class="st1" points="126.9156342,0.4385929 24.6183662,0.4386144 24.6183662,1.7544003 125.599884,1.7543788 
	125.599884,98.2456512 113.7577744,98.2456589 113.7577744,99.5614395 126.9169312,99.5614395 "/>
<path id="Doors" class="st1" d="M51.9156151,88.8803558c-1.140358,0-2.1929474-0.263176-3.2456512-0.7017593
	c-1.0526085-0.4385757-2.1052933-1.0526962-2.894722-1.9298706c-0.7894058-0.789505-1.4911842-1.754364-1.9297638-2.807045
	c-0.4385948-1.0526886-0.7017746-2.1929474-0.7017746-3.3332977h8.7719879 M51.9156342,38.1579132
	c-0.9548187,0-1.8361549,0.2203522-2.7175713,0.5875778c-0.8813553,0.3672218-1.7627487,0.8814201-2.4237366,1.6158714
	c-0.6609688,0.6610489-1.2485733,1.4689217-1.6157875,2.3503265c-0.3672333,0.8814125-0.5876007,1.8361511-0.5876007,2.7909546
	h7.3447533 M94.0208588,37.5797577c0.96492,0,1.7543488,0.1754227,2.6315384,0.5263405
	c0.8771744,0.3508339,1.6666794,0.8771667,2.2807083,1.4911766c0.7017593,0.6140823,1.2281036,1.4035301,1.5789337,2.2807045
	s0.5263443,1.7543716,0.5263443,2.7192917l-7.0175247,0.0000038 M78.9846039,35.3760338
	c0-0.96492,0.175415-1.7543716,0.5263443-2.6315384c0.3509293-0.8771744,0.8771896-1.6665974,1.491188-2.2807102
	c0.6140137-0.7017536,1.4035339-1.2281208,2.2807083-1.5789566c0.8771896-0.3509159,1.754364-0.5263329,2.7193069-0.5263329
	v7.0175381 M39.5823975,53.7456131c0-0.96492-0.175415-1.7543716-0.5263405-2.6315384
	c-0.3509293-0.8771744-0.8771935-1.6665993-1.491188-2.2807121c-0.6140137-0.7017517-1.4035339-1.2281189-2.2807083-1.5789528
	c-0.8771935-0.3509178-1.7543678-0.5263329-2.7193069-0.5263329v7.0175362 M72.4509354,75.1777267
	c0,0.9649277-0.175415,1.7543793-0.5263443,2.6316299c-0.3509293,0.877243-0.8771896,1.6665878-1.491188,2.2807083
	c-0.614006,0.7017593-1.4035339,1.2281189-2.2807083,1.578949c-0.8771896,0.350914-1.754364,0.5263443-2.7193069,0.5263443
	v-7.0175476 M70.9306488,47.3684158c0,0.9649315-0.175415,1.7543755-0.5263443,2.6316261s-0.8771973,1.6665916-1.491188,2.2807121
	c-0.6140137,0.7017555-1.4035339,1.2281189-2.2807083,1.578949c-0.8771896,0.3509178-1.754364,0.5263443-2.7193069,0.5263443
	v-7.0175438"/>
<g id="Walls">
	<rect x="71.2137985" class="st2" width="6.1403508" height="5.2587276"/>
	<polygon class="st2" points="93.1436996,37.5797462 94.0208588,37.5797462 94.0208588,4.386003 95.7752838,4.386003 95.7752838,0 
		89.6348572,0 89.6348572,4.386003 93.1436615,4.386003 93.1436996,35.3701859 86.0021515,35.3701859 86.0021515,36.2473412 
		93.1436996,36.2473412 	"/>
	<rect x="34.0786095" class="st2" width="6.0872259" height="4.386003"/>
	<rect x="108.0559845" class="st2" width="6.1403508" height="5.2587276"/>
	<rect x="122.0954666" y="20.1753998" class="st2" width="5.2587657" height="6.1403508"/>
	<rect x="122.9682617" y="76.3157883" class="st2" width="4.386003" height="6.1403508"/>
	<polygon class="st2" points="78.2314606,87.3162994 77.354187,87.3162994 77.354187,95.6140366 54.5471725,95.6140366 
		54.5471725,88.8803558 51.9156342,88.8803558 51.9156342,100 114.196373,100 114.196373,95.6140366 78.2314606,95.6140366 	"/>
	<polygon class="st2" points="122.0954666,57.0175438 122.0954666,63.1579323 127.3542252,63.1579323 127.3542252,38.5965309 
		122.9682236,38.5965309 122.9682236,45.4744453 94.0208588,45.4744835 94.0208588,44.59729 93.1436996,44.59729 
		93.1436996,46.351635 122.9682236,46.351635 122.9682236,57.0175438 	"/>
	<polygon class="st2" points="51.9156723,76.3158264 51.9156723,80.1083832 54.5472107,80.1083832 54.5472107,75.1777039 
		65.4334106,75.1777039 65.4334106,74.3005142 54.5472107,74.3005142 54.5472107,62.8317719 77.2705154,62.8317719 
		77.2705154,74.3005905 72.4509354,74.3005905 72.4509354,75.1777802 78.1476669,75.1777802 78.1476669,46.5603561 
		70.9306488,46.5603561 70.9306488,47.4375496 77.2705154,47.4375496 77.2705154,61.9546204 54.5472107,61.9546204 
		54.5471725,47.4375114 63.9131012,47.4375114 63.9131012,46.560318 54.5471725,46.560318 54.5471725,45.4878883 
		51.9156342,45.4878883 51.9156342,53.7455254 39.5824165,53.7455254 39.5824165,54.622715 51.9156342,54.622715 
		51.9156723,73.684288 25.2773113,73.6843262 25.2773113,54.6227951 32.5648727,54.6227951 32.5648727,53.7456017 
		25.2773113,53.7456017 25.2772732,0 22.6457329,0 22.645771,76.3158264 	"/>
	<polygon class="st2" points="54.5472107,38.1578941 54.5472107,36.2472649 78.9846039,36.2472649 78.9846039,35.3701096 
		54.5472107,35.3701096 54.5471725,4.386003 58.736412,4.386003 58.736412,0 51.9156342,0 51.9156723,38.1578941 	"/>
</g>
</g></svg>
