<?xml version="1.0" encoding="utf-8"?>
<!-- DO NOT EDIT THIS, THIS FILE IS GENERATED FROM "2_25-36_7.original.svg" using transform-svgs.js script -->
<!-- Generator: Adobe Illustrator 24.2.0, SVG Export Plug-In . SVG Version: 6.00 Build 0)  -->
<!DOCTYPE svg PUBLIC "-//W3C//DTD SVG 1.1//EN" "http://www.w3.org/Graphics/SVG/1.1/DTD/svg11.dtd" [
	<!ENTITY ns_extend "http://ns.adobe.com/Extensibility/1.0/">
	<!ENTITY ns_ai "http://ns.adobe.com/AdobeIllustrator/10.0/">
	<!ENTITY ns_graphs "http://ns.adobe.com/Graphs/1.0/">
	<!ENTITY ns_vars "http://ns.adobe.com/Variables/1.0/">
	<!ENTITY ns_imrep "http://ns.adobe.com/ImageReplacement/1.0/">
	<!ENTITY ns_sfw "http://ns.adobe.com/SaveForWeb/1.0/">
	<!ENTITY ns_custom "http://ns.adobe.com/GenericCustomNamespace/1.0/">
	<!ENTITY ns_adobe_xpath "http://ns.adobe.com/XPath/1.0/">
]>
<svg version="1.1" id="Слой_1" xmlns:x="&ns_extend;" xmlns:i="&ns_ai;" xmlns:graph="&ns_graphs;"
	 xmlns="http://www.w3.org/2000/svg" xmlns:xlink="http://www.w3.org/1999/xlink" x="0px" y="0px" viewBox="0 0 150 100"
	 style="enable-background:new 0 0 150 100;" xml:space="preserve"><g transform="translate(13.452839582729977 8.968559721819986) scale(0.8206288055636003)">
<style type="text/css">
	.st0{fill:#DBD4CA;}
	.st1{fill:none;stroke:#565440;}
	.st2{fill:none;stroke:#565440;stroke-width:1.0000414;stroke-miterlimit:4.0001655;}
	.st3{fill:#565440;}
</style>
<metadata>
	<sfw  xmlns="&ns_sfw;">
		<slices></slices>
		<sliceSourceBounds  bottomLeftOrigin="true" height="100" width="80.7077026" x="34.6461487" y="0"></sliceSourceBounds>
	</sfw>
</metadata>
<polygon id="Floor" class="st0" points="113.8098145,92.4125748 113.8098145,11.4268036 36.2331276,11.4104757 
	36.2331276,93.6134949 51.4447861,94.5521469 71.9938354,99.2605743 73.4976501,94.2392654 90.9581146,94.8352661 
	108.6165314,99.3086243 109.4478531,93.9723892 "/>
<g id="Doors">
	<path class="st1" d="M46.2112617,11.4856796c0-1.5105429,0.2745895-2.7463551,0.8239517-4.1196742
		c0.5493431-1.3731542,1.3731537-2.6090846,2.3345451-3.5703087c0.9611778-1.0985656,2.1971321-1.9225193,3.5703087-2.4716959
		C54.313221,0.7747773,55.6864204,0.5,57.1969414,0.5v10.9855375"/>
	<path class="st1" d="M93.2142563,35.8925438c0-1.1262703,0.2047577-2.0477104,0.6143494-3.0716476
		c0.4095917-1.0238457,1.0238419-1.9453564,1.7406387-2.6620598c0.7167053-0.819109,1.6382217-1.4334564,2.6620636-1.8429527
		c1.0238419-0.4094944,2.0477066-0.6143723,3.1739807-0.6143723v8.190937"/>
	<path class="st1" d="M59.8188858,23.8787651c1.1262932,0,2.0477104-0.2047596,3.0716705-0.6143723
		c1.0238419-0.409565,1.9453506-1.0238438,2.662056-1.7406425c0.8190842-0.7166576,1.4334335-1.638216,1.8429337-2.6620598
		c0.4094925-1.023819,0.6143723-2.0476856,0.6143723-3.1739321h-8.1909142"/>
	<path class="st1" d="M77.1035004,78.429718c1.1262665,0,2.0476837,0.2047653,3.0716476,0.6143494
		c1.0238419,0.4095917,1.9453506,1.0238419,2.662056,1.7406464c0.8190842,0.7166824,1.4334335,1.6382141,1.842926,2.662056
		c0.4095001,1.0238419,0.6143723,2.0477142,0.6143723,3.1739578h-8.1909103"/>
</g>
<g id="Windows">
	
		<rect x="97.1806793" y="86.2855988" transform="matrix(0.2514893 -0.9678601 0.9678601 0.2514893 -19.6255646 166.7481842)" class="st2" width="1.6264435" height="19.553772"/>
	
		<rect x="61.1098137" y="87.3848724" transform="matrix(0.2514893 -0.9678601 0.9678601 0.2514893 -46.8481903 132.0092468)" class="st2" width="1.6264435" height="17.8164387"/>
</g>
<g id="Walls">
	<polygon class="st3" points="77.1035004,86.6207504 73.8458099,86.6207504 73.8458099,88.4953079 71.1517258,88.4953079 
		71.1517258,93.9190598 69.9573517,99.2398911 73.1062698,100 74.2276535,95.0050049 89.0524368,94.9972076 89.0524368,88.5018539 
		77.1035004,88.496727 	"/>
	<polygon class="st3" points="115.3538513,11.3932047 57.1969414,11.3932047 57.1969414,14.6507244 58.7863197,14.6507244 
		58.7863197,15.6877584 59.872261,15.6877584 59.8722153,14.6507244 73.8457642,14.6507244 73.8457642,35.8266373 
		59.872261,35.826683 59.8722153,23.878458 58.7863197,23.878458 58.7863197,35.826683 53.447094,35.826683 53.447094,36.9125328 
		73.8457642,36.9125328 73.8458099,78.429718 77.1035004,78.429718 77.1034241,36.9125328 93.2142792,36.9125328 
		93.2142792,35.8266373 77.1034241,35.826683 77.1034241,14.6507244 112.0962601,14.6507244 112.0962601,35.826683 
		101.4052887,35.8267326 101.4052887,36.9125786 112.0962601,36.9125786 112.0962601,89.5715103 106.4084625,89.5715103 
		106.4084625,95.0008698 106.4172745,95.0008698 105.5397339,98.9100647 108.688797,99.670166 109.7369461,95.0008698 
		115.3538513,95.0008698 	"/>
	<polygon class="st3" points="39.0878296,89.5756226 39.0878296,14.6507244 46.2112617,14.6507244 46.2112617,11.3932047 
		35.8302841,11.3932047 35.8302841,54.0991631 35.8274956,54.0991631 35.8274956,93.9190598 34.6461487,99.2398911 37.7950249,100 
		38.916378,95.0050049 49.7576218,95.0057602 53.5220528,95.874649 54.7165451,90.5538712 50.5901566,89.5765915 	"/>
</g>
</g></svg>
