<?xml version="1.0" encoding="utf-8"?>
<!-- DO NOT EDIT THIS, THIS FILE IS GENERATED FROM "2_25-36_6.original.svg" using transform-svgs.js script -->
<!-- Generator: Adobe Illustrator 24.2.0, SVG Export Plug-In . SVG Version: 6.00 Build 0)  -->
<!DOCTYPE svg PUBLIC "-//W3C//DTD SVG 1.1//EN" "http://www.w3.org/Graphics/SVG/1.1/DTD/svg11.dtd" [
	<!ENTITY ns_extend "http://ns.adobe.com/Extensibility/1.0/">
	<!ENTITY ns_ai "http://ns.adobe.com/AdobeIllustrator/10.0/">
	<!ENTITY ns_graphs "http://ns.adobe.com/Graphs/1.0/">
	<!ENTITY ns_vars "http://ns.adobe.com/Variables/1.0/">
	<!ENTITY ns_imrep "http://ns.adobe.com/ImageReplacement/1.0/">
	<!ENTITY ns_sfw "http://ns.adobe.com/SaveForWeb/1.0/">
	<!ENTITY ns_custom "http://ns.adobe.com/GenericCustomNamespace/1.0/">
	<!ENTITY ns_adobe_xpath "http://ns.adobe.com/XPath/1.0/">
]>
<svg version="1.1" id="Слой_1" xmlns:x="&ns_extend;" xmlns:i="&ns_ai;" xmlns:graph="&ns_graphs;"
	 xmlns="http://www.w3.org/2000/svg" xmlns:xlink="http://www.w3.org/1999/xlink" x="0px" y="0px" viewBox="0 0 150 100"
	 style="enable-background:new 0 0 150 100;" xml:space="preserve"><g transform="translate(30.935998357267614 20.623998904845074) scale(0.5875200219030985)">
<style type="text/css">
	.st0{fill:#DBD4CA;}
	.st1{fill:none;stroke:#565440;}
	.st2{fill:#565440;}
</style>
<metadata>
	<sfw  xmlns="&ns_sfw;">
		<slices></slices>
		<sliceSourceBounds  bottomLeftOrigin="true" height="84.1026993" width="150" x="0" y="7.9486508"></sliceSourceBounds>
	</sfw>
</metadata>
<polygon id="Floor" class="st0" points="143.6422119,90.1296234 149.0990295,66.7430801 144.0583954,64.5102615 
	144.1819763,34.463192 148.8469849,15.142951 142.3899689,13.3916245 142.3899689,7.9623809 1.5582823,7.9486508 
	1.0337423,86.7116547 9.8957052,86.7668686 27.2838726,91.339386 29.2481556,86.6231918 44.0516701,86.6829529 
	61.9489174,90.9756241 63.881382,86.431488 76.2091827,86.8949432 94.6192398,91.1276779 96.5636597,86.4733734 
	111.6168289,87.0839996 130.8401642,87.2388535 "/>
<g id="Windows">
	<polygon class="st1" points="143.5064697,89.9938049 149.2784729,65.2565079 147.6235657,64.7806396 142.2637939,88.0748672 
		130.7255554,85.5617371 111.3480759,85.5617599 111.3480759,87.1078033 130.7255554,87.1078033 	"/>
	<polygon class="st1" points="63.5227318,89.5815964 63.2134857,91.1276779 44.042057,86.7449112 44.3513031,85.1987991 	"/>
	<polygon class="st1" points="95.4750443,89.5815735 95.165802,91.127655 77.1281967,87.0047455 77.4374008,85.4586792 	"/>
	<polygon class="st1" points="149.072403,13.5145226 144.6403656,32.8919334 143.0943146,32.5827141 147.5263672,13.2052565 	"/>
	<polygon class="st1" points="10.4153795,86.980217 10.8036728,85.4859467 27.9440842,89.9155197 27.5558128,91.4096603 	"/>
</g>
<path id="Doors" class="st1" d="M58.5743828,21.3480473c1.1338501,0,2.0614014,0.2061176,3.0921669,0.6184425
	c1.0306778,0.4122124,1.9583664,1.0306988,2.6798859,1.7521553c0.8245163,0.7215481,1.4430084,1.649189,1.8552399,2.6798897
	c0.4122391,1.0306778,0.6184464,2.0613995,0.6184464,3.1952038h-8.245739 M96.5056763,31.6551609
	c0-1.1338253,0.2061615-2.0614452,0.6184921-3.092123c0.4122772-1.0306778,1.0307236-1.9582958,1.7521515-2.6798649
	c0.7215271-0.8245831,1.6492615-1.4430714,2.6798935-1.8553276c1.0307236-0.4123039,2.0614014-0.6184425,3.1952438-0.6184425
	v8.2457581 M20.9314842,32.4898872c0,1.1080894-0.2014503,2.0147057-0.6044865,3.0220261
	c-0.4028549,1.0073204-1.0072975,1.9138908-1.7124176,2.6191254c-0.705122,0.8058701-1.6118279,1.4103546-2.6191254,1.8132553
	c-1.0073652,0.4029694-2.0146618,0.6044426-3.1228189,0.6044426v-8.0588493 M35.7253036,70.9916992
	c-1.2252846,0-2.2278023,0.2227631-3.3416595,0.6684113c-1.1138783,0.4455109-2.1163292,1.1138535-2.8961468,1.8935394
	c-0.8911343,0.7797318-1.5595245,1.7823105-2.0050812,2.8961716c-0.4455776,1.1138992-0.6683445,2.2277603-0.6683445,3.4531097
	h8.911232 M106.8128586,34.5010262c1.1338043,0,2.0613556,0.2061157,3.0920792,0.6184654
	c1.0307236,0.4122353,1.9584122,1.0307007,2.6798935,1.7521553c0.8245544,0.7214775,1.4430466,1.649189,1.855278,2.6798897
	c0.4123688,1.0306778,0.6184921,2.0613976,0.6184921,3.1952019h-8.2457428 M104.3944244,52.2695045
	c0,1.1337814-0.2061157,2.0614243-0.6184921,3.0921021c-0.4122314,1.0306778-1.0306778,1.9584084-1.7521515,2.679863
	c-0.7214813,0.8246078-1.6491241,1.4430695-2.6798935,1.8553047c-1.0306778,0.4122581-2.0613937,0.6184654-3.1951981,0.6184654
	v-8.2457352 M50.1233368,11.0407743c0,1.339922-0.3092003,2.5767622-0.8245163,3.8136473
	c-0.5154076,1.2369747-1.2368393,2.473793-2.2676964,3.4013672c-0.9276428,0.9276867-2.0614014,1.7522907-3.2983093,2.2676525
	c-1.236908,0.5153389-2.5767403,0.8245602-3.9166832,0.8245831V11.0407963"/>
<g id="Walls">
	<polygon class="st2" points="57.5708542,29.5937157 57.5708542,32.6858177 96.5056763,32.6858177 96.5056763,31.6551609 
		77.9528046,31.6551609 77.9527588,11.0407295 105.782135,11.0407295 105.7821808,31.6551609 104.7514572,31.6551609 
		104.7514572,32.6858177 105.7821808,32.6858177 105.7821808,34.5010262 106.8128586,34.5010262 106.8128586,11.0407295 
		141.857254,11.0407295 141.8561401,14.1568842 148.7631989,15.7821083 149.4846344,12.7930212 144.9494629,11.7258587 
		144.9494629,7.9486508 50.1233368,7.9486508 50.1233368,11.0407295 57.5708542,11.0407295 57.5708542,21.3480244 
		58.6015778,21.3480244 58.6015778,11.0407295 76.9220352,11.0407295 76.9220352,31.6551609 58.6015778,31.6551609 
		58.6015778,29.5937157 	"/>
	<polygon class="st2" points="62.0916214,82.1603699 62.0916214,87.3140106 62.1001015,87.3140106 61.2671967,91.0245743 
		64.2562332,91.7460327 65.2511063,87.3140106 74.7614136,87.3140106 78.33461,88.1385956 79.4685059,83.0881271 
		75.5517807,82.1603699 	"/>
	<polygon class="st2" points="94.982933,52.2694588 96.1486893,52.2694588 96.1486893,51.2388039 94.982933,51.2388039 
		94.982933,42.7467384 93.9522095,42.7467384 93.9606476,87.3140106 93.1276474,91.0245743 96.1166916,91.7460327 
		97.1117325,87.3140106 112.3730545,87.3140106 112.3730545,81.1349258 94.982933,81.1349258 	"/>
	<polygon class="st2" points="144.9495087,61.6350212 144.9495087,29.5937157 141.857254,29.5937157 141.857254,51.2388039 
		106.8128586,51.2388039 106.8128586,42.7467384 105.7821808,42.7467842 105.7821808,51.2388039 104.3944244,51.2388039 
		104.3944244,52.2694588 139.7958527,52.2694588 139.7958527,65.6688766 139.8190155,65.6688766 139.7958527,65.7719345 
		148.8662872,67.8334503 150,62.7828484 	"/>
	<polygon class="st2" points="39.8161087,11.0407743 39.8161087,7.9486508 0,7.9486957 0.0000449,87.3140564 7.4599276,87.3101273 
		11.0331488,88.1346664 12.1669531,83.0841522 8.2502699,82.156517 3.0922356,82.156517 3.0922356,32.5058632 
		12.8930092,32.5058632 12.8930092,31.4752064 3.0922356,31.4752064 3.0922356,11.0407743 30.2571507,11.0407743 
		30.2571507,31.4751625 20.9277821,31.4752064 20.9277821,32.5058632 35.6931953,32.5058632 35.6932411,71.0122299 
		38.7854767,71.0122299 38.7854767,29.4430885 35.6931953,29.4430885 35.6931953,31.4751625 31.2878075,31.4751625 
		31.2878075,11.0407743 	"/>
	<polygon class="st2" points="38.7890663,80.0989532 38.7854767,80.0989532 38.7854767,79.9029312 35.6932411,79.9029312 
		35.6932411,81.1349258 28.0742702,81.1349258 28.0742702,86.7336426 27.0432549,91.3264389 27.0441971,91.3266602 
		27.0434799,91.3298035 30.0325661,92.0513458 31.0969925,87.3101273 45.4553757,87.3140564 45.4553757,81.1349716 
		38.7890663,81.1349716 	"/>
</g>
</g></svg>
