<?xml version="1.0" encoding="utf-8"?>
<!-- DO NOT EDIT THIS, THIS FILE IS GENERATED FROM "2_39_1.original.svg" using transform-svgs.js script -->
<!-- Generator: Adobe Illustrator 24.2.0, SVG Export Plug-In . SVG Version: 6.00 Build 0)  -->
<!DOCTYPE svg PUBLIC "-//W3C//DTD SVG 1.1//EN" "http://www.w3.org/Graphics/SVG/1.1/DTD/svg11.dtd" [
	<!ENTITY ns_extend "http://ns.adobe.com/Extensibility/1.0/">
	<!ENTITY ns_ai "http://ns.adobe.com/AdobeIllustrator/10.0/">
	<!ENTITY ns_graphs "http://ns.adobe.com/Graphs/1.0/">
	<!ENTITY ns_vars "http://ns.adobe.com/Variables/1.0/">
	<!ENTITY ns_imrep "http://ns.adobe.com/ImageReplacement/1.0/">
	<!ENTITY ns_sfw "http://ns.adobe.com/SaveForWeb/1.0/">
	<!ENTITY ns_custom "http://ns.adobe.com/GenericCustomNamespace/1.0/">
	<!ENTITY ns_adobe_xpath "http://ns.adobe.com/XPath/1.0/">
]>
<svg version="1.1" id="Слой_1" xmlns:x="&ns_extend;" xmlns:i="&ns_ai;" xmlns:graph="&ns_graphs;"
	 xmlns="http://www.w3.org/2000/svg" xmlns:xlink="http://www.w3.org/1999/xlink" x="0px" y="0px" viewBox="0 0 150 100"
	 style="enable-background:new 0 0 150 100;" xml:space="preserve"><g transform="translate(22.271736563367142 14.847824375578094) scale(0.7030435124884381)">
<style type="text/css">
	.st0{fill:#DBD4CA;}
	.st1{fill:none;stroke:#565440;}
	.st2{fill:#565440;}
</style>
<metadata>
	<sfw  xmlns="&ns_sfw;">
		<slices></slices>
		<sliceSourceBounds  bottomLeftOrigin="true" height="100.0062256" width="89.2319565" x="30.2896919" y="-0.0031146">
			</sliceSourceBounds>
	</sfw>
</metadata>
<polygon id="Floor_1_" class="st0" points="30.4783707,0.1855648 98.7893066,0.2133213 98.7893066,69.7104111 
	119.1656418,69.7104111 119.1656418,99.5030975 30.4928265,99.5030975 "/>
<path id="Doors_2_" class="st1" d="M58.499115,32.4799538c-0.6711578,0-1.2202682-0.1220131-1.8304405-0.3660927
	c-0.6101837-0.2440815-1.159214-0.6101227-1.5863647-1.0371952c-0.4881096-0.4271355-0.8542252-0.9762383-1.0982475-1.5863628
	c-0.244091-0.6101246-0.3661041-1.2202663-0.3661041-1.8914242l4.8810959-0.0000038 M58.499115,25.563242
	c-0.6711578,0-1.2202682-0.1220131-1.8304405-0.3660965c-0.6101837-0.2440815-1.159214-0.6101208-1.5863647-1.0371952
	c-0.4881096-0.4271355-0.8542252-0.9762383-1.0982475-1.5863628c-0.244091-0.6101246-0.3661041-1.2202663-0.3661041-1.8914204
	l4.8810959-0.0000038 M58.4989929,43.288311c-0.6849556,0-1.2453461,0.1245232-1.8680115,0.3736267
	c-0.6226654,0.2490463-1.1831169,0.6226654-1.6189728,1.0585175c-0.4981422,0.4359169-0.8717842,0.9963112-1.1208267,1.6189766
	c-0.2490463,0.6226654-0.3736229,1.2453499-0.3736229,1.9303055l4.9814339-0.0000076 M58.4989929,72.2011337
	c-0.6849556,0-1.2453461-0.124527-1.8680115-0.3736267c-0.6226654-0.2490387-1.1831169-0.6226654-1.6189728-1.0585251
	c-0.4981422-0.4359055-0.8717842-0.9962997-1.1208267-1.6189651c-0.2490463-0.622673-0.3736229-1.2453537-0.3736229-1.9303131
	l4.9814339,0.0000076 M73.443367,87.1553116c0.6849518,0,1.2453461,0.1245193,1.8680115,0.3736191
	c0.6226654,0.2490463,1.1831131,0.6226654,1.6189728,1.0585175c0.4981461,0.4359207,0.871788,0.996315,1.1208267,1.6189728
	c0.2490463,0.6226654,0.3736267,1.2453537,0.3736267,1.9303055H73.443367 M103.7764053,89.5774002
	c0.6849518,0,1.2453461-0.124527,1.8680115-0.3736267c0.622673-0.2490387,1.1831207-0.6226654,1.6189728-1.0585251
	c0.4981461-0.4359055,0.8717804-0.9962997,1.1208267-1.6189651c0.2490463-0.622673,0.3736191-1.2453537,0.3736191-1.9303131
	l-4.9814301,0.0000076 M67.4140701,66.1896973c0,0.6849594-0.1245193,1.2453537-0.3736191,1.8680115
	c-0.2490463,0.6226654-0.6226654,1.1831284-1.0585175,1.6189804c-0.4359207,0.4981461-0.996315,0.871788-1.6189728,1.1208267
	c-0.6226692,0.2490463-1.2453537,0.3736267-1.9303093,0.3736267l0.0000076-4.9814453 M62.3652039,74.2871475
	c0,0.6849442,0.124527,1.2453384,0.3736267,1.8680115c0.2490425,0.6226654,0.6226692,1.1831207,1.0585213,1.6189728
	c0.4359016,0.4981461,0.9963036,0.871788,1.6189766,1.1208267c0.6226654,0.2490463,1.2453384,0.3736267,1.9303055,0.3736267
	l-0.0000076-4.9814377 M81.234436,74.2871475c0,0.6849442-0.1245193,1.2453384-0.3736191,1.8680115
	c-0.2490463,0.6226654-0.6226654,1.1831207-1.0585175,1.6189728c-0.4359207,0.4981461-0.996315,0.871788-1.6189728,1.1208267
	c-0.6226654,0.2490463-1.2453537,0.3736267-1.9303055,0.3736267l0.0000076-4.9814377 M86.5196762,48.3181648
	c-0.646492,0-1.175415-0.117527-1.7631149-0.3526459c-0.5877075-0.2351074-1.116684-0.5876999-1.5280685-0.9991531
	c-0.4701691-0.411377-0.8228226-0.9403534-1.0578918-1.5280533c-0.2350616-0.5877037-0.3526382-1.1754227-0.3526382-1.821907
	l4.7017136-0.0000076 M98.7893143,61.8302574c0.8665924,0,1.5756073-0.1575356,2.3633957-0.472702
	c0.7877884-0.3151588,1.4968643-0.7877884,2.0483093-1.339325c0.630249-0.5514374,1.1029663-1.2605133,1.4180603-2.0483055
	c0.3150864-0.7877922,0.472702-1.5756073,0.472702-2.4422035h-6.3024597"/>
<polygon id="Windows_1_" class="st1" points="30.7896919,0.4969173 30.7896919,59.9111443 30.7896919,59.9111443 
	30.7897186,99.5031128 93.0577621,99.5030899 93.0577621,98.5690918 31.7237129,98.5691223 31.7237129,98.5690918 
	31.7236862,53.4870567 31.7236862,1.4309374 98.1110153,1.4309107 98.1110153,1.430884 98.1110153,0.4968906 "/>
<g id="Walls_1_">
	<rect x="79.4389877" y="0.18555" class="st2" width="4.0816584" height="3.1134276"/>
	<polygon class="st2" points="33.5917778,27.0034161 58.4989624,27.0033855 58.4989624,27.598875 59.1216393,27.598875 
		59.1217728,25.5632362 58.4991226,25.5632362 58.4991226,26.3807087 33.5917778,26.3807354 33.5917778,18.8659554 
		34.211319,18.8659554 34.211319,14.5071945 30.4783535,14.5071945 30.4783535,31.9422913 33.5917778,31.9422913 	"/>
	<polygon class="st2" points="58.4989624,20.6821594 59.1216393,20.6821594 59.1216393,3.2989779 59.9003983,3.2989779 
		59.9003983,3.918514 65.3484726,3.918514 65.3484726,3.2989779 70.6180115,3.2989779 70.6180115,0.18555 53.0505066,0.18555 
		53.0505066,3.2989779 58.4989624,3.2989779 	"/>
	<rect x="39.8185539" y="0.18555" class="st2" width="4.3587351" height="3.732964"/>
	<polygon class="st2" points="96.9212036,55.5277138 98.7893066,55.5277138 98.7893066,0.18555 92.3647842,0.18555 
		92.3647842,3.2989779 96.9212036,3.2989779 96.9212036,3.3064337 96.9212036,38.2364349 86.6896591,38.2364349 
		86.6896591,38.2364616 86.5196762,38.2364616 86.5196762,43.6164055 87.1423569,43.6164055 87.1423569,38.8591194 
		96.9212036,38.8591194 96.9212036,53.3383293 87.1423569,53.3383293 87.1423569,48.269722 86.5196762,48.269722 
		86.5196762,53.3383293 86.5196762,53.9610062 96.9212036,53.9610062 	"/>
	<polygon class="st2" points="33.5918083,74.2871475 62.3651962,74.287117 62.3651962,73.6644592 59.121666,73.6644592 
		59.121666,72.2011337 58.4990158,72.2011337 58.4990158,73.6644592 33.5918083,73.6644592 33.5917778,67.4350357 
		30.4783802,67.4350357 30.4783802,84.8700714 34.211319,84.8700714 34.211319,80.5113144 33.5918083,80.5113144 	"/>
	<polygon class="st2" points="33.5917778,54.3587799 58.4990158,54.3587532 58.4990158,67.2196884 59.121666,67.2196884 
		59.121666,66.1896973 62.4326515,66.1896973 62.4326515,65.5670166 59.121666,65.5670166 59.121666,54.3587532 
		74.1647034,54.3587532 74.1647034,65.5669937 67.4140625,65.5669937 67.4140625,66.1896973 74.7873535,66.1896973 
		74.7873535,38.2364616 59.121666,38.2364616 59.121666,32.2627983 58.4989891,32.2627983 58.4989891,43.288311 
		59.121666,43.288311 59.121666,38.8591461 74.1646729,38.8591461 74.1646729,52.4906578 59.121666,52.4906845 59.121666,48.269722 
		58.4989891,48.269722 58.4990158,52.4906845 34.211319,52.4906845 34.211319,48.4822769 33.5917778,48.4822769 
		33.5917778,41.0388222 30.4783535,41.0388222 30.4783535,58.1044273 33.5917778,58.1044273 	"/>
	<rect x="39.8185806" y="96.0814896" class="st2" width="4.3587351" height="3.7329574"/>
	<rect x="79.6701355" y="96.701004" class="st2" width="4.3587584" height="3.1134226"/>
	<polygon class="st2" points="67.3684082,73.6644592 67.3684082,74.287117 72.8206329,74.2871475 72.8206329,82.7007294 
		57.8763351,82.7007294 57.8763351,96.701004 56.0082664,96.701004 56.0082664,99.8144226 73.443367,99.8143997 
		73.443367,92.136734 72.8206329,92.136734 72.8206329,96.0814896 69.084549,96.0814896 69.084549,96.701004 58.4990158,96.701004 
		58.4990158,83.32341 72.8206329,83.32341 72.8206329,87.1553268 73.443367,87.1553268 73.443367,74.2871475 76.2530212,74.2871475 
		76.2530212,73.6644592 	"/>
	<polygon class="st2" points="119.5216217,68.6804199 98.7893066,68.6804199 98.7893066,61.8302574 96.9212036,61.8302574 
		96.9212036,69.9256744 81.509903,69.9256744 81.509903,73.6644592 81.2344284,73.6644592 81.2344284,74.2871475 
		82.1327209,74.2871475 82.1325836,70.5483475 96.9212036,70.5483475 96.9212036,70.548439 103.1589661,70.548439 
		103.1589661,84.5959549 103.7817001,84.5959549 103.7817001,70.548439 116.408287,70.548439 116.408287,96.0814896 
		103.7764053,96.0814896 103.7764053,89.5774002 103.1536789,89.5774002 103.1536789,96.0814896 92.7463989,96.0814896 
		92.7463989,99.8143997 119.5216446,99.8143997 	"/>
</g>
</g></svg>
