<?xml version="1.0" encoding="utf-8"?>
<!-- DO NOT EDIT THIS, THIS FILE IS GENERATED FROM "2_41-42_1.original.svg" using transform-svgs.js script -->
<!-- Generator: Adobe Illustrator 24.2.0, SVG Export Plug-In . SVG Version: 6.00 Build 0)  -->
<!DOCTYPE svg PUBLIC "-//W3C//DTD SVG 1.1//EN" "http://www.w3.org/Graphics/SVG/1.1/DTD/svg11.dtd" [
	<!ENTITY ns_extend "http://ns.adobe.com/Extensibility/1.0/">
	<!ENTITY ns_ai "http://ns.adobe.com/AdobeIllustrator/10.0/">
	<!ENTITY ns_graphs "http://ns.adobe.com/Graphs/1.0/">
	<!ENTITY ns_vars "http://ns.adobe.com/Variables/1.0/">
	<!ENTITY ns_imrep "http://ns.adobe.com/ImageReplacement/1.0/">
	<!ENTITY ns_sfw "http://ns.adobe.com/SaveForWeb/1.0/">
	<!ENTITY ns_custom "http://ns.adobe.com/GenericCustomNamespace/1.0/">
	<!ENTITY ns_adobe_xpath "http://ns.adobe.com/XPath/1.0/">
]>
<svg version="1.1" id="Слой_1" xmlns:x="&ns_extend;" xmlns:i="&ns_ai;" xmlns:graph="&ns_graphs;"
	 xmlns="http://www.w3.org/2000/svg" xmlns:xlink="http://www.w3.org/1999/xlink" x="0px" y="0px" viewBox="0 0 150 100"
	 style="enable-background:new 0 0 150 100;" xml:space="preserve"><g transform="translate(22.359305807796964 14.906203871864642) scale(0.7018759225627071)">
<style type="text/css">
	.st0{fill:#DBD4CA;}
	.st1{fill:none;stroke:#565440;}
	.st2{fill:#565440;}
</style>
<metadata>
	<sfw  xmlns="&ns_sfw;">
		<slices></slices>
		<sliceSourceBounds  bottomLeftOrigin="true" height="100.0062103" width="90.1693802" x="29.8209763" y="-0.0031038">
			</sliceSourceBounds>
	</sfw>
</metadata>
<polygon id="Floor_1_" class="st0" points="30.4783707,0.1855648 119.4233093,0.2133213 119.4233093,53.8588943 
	98.3205719,53.858902 98.3205719,69.7104111 118.1717758,69.7104111 118.1717758,99.5030975 30.4928265,99.5030975 "/>
<polygon id="Windows" class="st1" points="82.213089,0.496917 82.213089,0.496917 30.3209763,0.4969376 30.3209763,59.9111481 
	30.3209972,99.5031052 92.5890198,99.5030594 92.5890198,98.5690689 31.2549915,98.5691071 31.2549915,98.5690689 
	31.2549725,53.4870605 31.2549725,1.4309531 97.6422806,1.4309326 97.6422806,1.430912 119.0974426,1.430912 119.0974426,0.4968965 
	"/>
<g id="Doors">
	<path id="Doors_1_" class="st1" d="M58.0303879,32.4799652c-0.671154,0-1.2202606-0.1220169-1.8304367-0.3660927
		c-0.6101837-0.2440834-1.1592178-0.6101265-1.5863647-1.037199c-0.4881096-0.4271336-0.8542252-0.9762383-1.0982475-1.5863628
		c-0.2440872-0.6101227-0.3661003-1.2202644-0.3661003-1.8914204l4.8810959-0.0000057 M58.0303879,25.5632534
		c-0.671154,0-1.2202606-0.122015-1.8304367-0.3660965c-0.6101837-0.2440796-1.1592178-0.6101208-1.5863647-1.0371971
		c-0.4881096-0.4271336-0.8542252-0.9762383-1.0982475-1.5863609c-0.2440872-0.6101246-0.3661003-1.2202663-0.3661003-1.8914204
		l4.8810959-0.0000019 M58.0302734,43.2883186c-0.6849594,0-1.2453499,0.1245232-1.8680191,0.3736267
		c-0.6226616,0.2490425-1.1831169,0.6226616-1.618969,1.0585175c-0.4981422,0.4359131-0.8717842,0.9963074-1.1208267,1.6189728
		c-0.2490463,0.6226654-0.3736229,1.2453461-0.3736229,1.9303017l4.9814377-0.0000038 M58.0302734,72.2011261
		c-0.6849594,0-1.2453499-0.124527-1.8680191-0.3736267c-0.6226616-0.2490387-1.1831169-0.6226654-1.618969-1.0585175
		c-0.4981422-0.4359055-0.8717842-0.9963074-1.1208267-1.6189804c-0.2490463-0.6226578-0.3736229-1.2453461-0.3736229-1.9302979
		h4.9814377 M72.9746323,87.155304c0.6849518,0,1.2453461,0.1245117,1.8680115,0.3736191
		c0.622673,0.2490387,1.1831207,0.6226654,1.6189728,1.0585098c0.4981461,0.4359207,0.871788,0.996315,1.1208344,1.6189804
		c0.2490387,0.6226578,0.3736267,1.2453461,0.3736267,1.9303055l-4.9814453-0.0000076 M103.307663,89.5773926
		c0.6849518,0,1.2453461-0.124527,1.8680115-0.3736343c0.6226654-0.2490387,1.1831207-0.6226654,1.6189651-1.0585175
		c0.4981537-0.4359131,0.871788-0.9963074,1.1208344-1.6189728c0.2490463-0.622673,0.3736191-1.2453461,0.3736191-1.9303055
		l-4.9814301,0.0000076 M66.945343,66.1896973c0,0.6849518-0.1245193,1.2453461-0.3736191,1.8680038
		c-0.2490463,0.622673-0.6226654,1.1831284-1.0585175,1.6189804c-0.4359131,0.4981461-0.9963074,0.871788-1.6189728,1.1208267
		c-0.6226692,0.2490463-1.2453499,0.3736267-1.9303093,0.3736267l0.0000076-4.9814377 M61.8964767,74.2871399
		c0,0.6849518,0.124527,1.2453461,0.3736343,1.8680115c0.2490349,0.6226578,0.6226616,1.1831131,1.0585136,1.6189728
		c0.4359093,0.4981461,0.9963112,0.8717804,1.6189766,1.1208191c0.6226654,0.2490463,1.2453461,0.3736343,1.9303055,0.3736343
		l-0.0000076-4.9814377 M80.7657089,74.2871399c0,0.6849518-0.124527,1.2453461-0.3736267,1.8680115
		c-0.2490463,0.6226578-0.6226654,1.1831131-1.0585175,1.6189728c-0.4359131,0.4981461-0.9963074,0.8717804-1.6189728,1.1208191
		c-0.622673,0.2490463-1.2453461,0.3736343-1.9303055,0.3736343l0.0000076-4.9814377 M97.0520935,39.8850288
		c0.6464996,0,1.1754227,0.117527,1.7631149,0.3526421c0.5877151,0.2351112,1.116684,0.5876999,1.5280685,0.9991531
		c0.4701691,0.4113808,0.8228302,0.9403572,1.0578918,1.5280571c0.2350693,0.5876999,0.3526382,1.1754227,0.3526382,1.821907
		l-4.7017059,0.0000076 M110.6489182,39.8850288c0-0.6464958-0.1175385-1.1754227-0.3526535-1.7631226
		c-0.2351074-0.5877075-0.5876999-1.1166763-0.9991455-1.5280647c-0.4113846-0.4701653-0.940361-0.8228264-1.5280609-1.0578842
		c-0.5876999-0.2350655-1.1754227-0.3526459-1.821907-0.3526459l-0.0000076,4.7017097 M98.3205719,61.8302612
		c0.8666077,0,1.5756073-0.157547,2.3633957-0.4727097s1.4968567-0.7877884,2.0483093-1.339325
		c0.6302414-0.5514374,1.1029663-1.2605095,1.4180603-2.0483055c0.3150864-0.7877922,0.4727097-1.5755997,0.4727097-2.4422035
		h-6.302475"/>
</g>
<g id="Walls">
	<rect x="78.9702682" y="0.1855648" class="st2" width="4.0816555" height="3.11344"/>
	<polygon class="st2" points="33.1230659,27.0034294 58.0302353,27.0033894 58.0302353,27.598877 58.6529198,27.598877 
		58.6530418,25.5632572 58.0303993,25.5632572 58.0303993,26.3807259 33.1230659,26.3807468 33.1230659,18.8659592 
		33.7426071,18.8659592 33.7426071,14.5072126 30.0096455,14.5072126 30.0096455,31.9423008 33.1230659,31.9423008 	"/>
	<polygon class="st2" points="58.0302353,20.6821671 58.6529198,20.6821671 58.6529198,3.2990048 59.4316711,3.2990048 
		59.4316711,3.9185255 64.8797379,3.9185255 64.8797379,3.2990048 70.149292,3.2990048 70.149292,0.1855648 52.5817757,0.1855648 
		52.5817757,3.2990048 58.0302353,3.2990048 	"/>
	<rect x="39.3498421" y="0.1855648" class="st2" width="4.3587255" height="3.7329607"/>
	<polygon class="st2" points="96.4525375,39.8850288 97.0752182,39.8850288 97.0752182,39.1182938 98.3205643,39.1182938 
		98.3205643,3.9185255 101.9342499,3.9185255 101.9342499,3.2990048 109.4144821,3.2990048 109.4144821,0.1855648 
		91.8960419,0.1855648 91.8960419,3.2990048 96.4524689,3.2990048 	"/>
	<polygon class="st2" points="33.123085,74.2871246 61.8964844,74.2871094 61.8964844,73.6644669 58.6529388,73.6644669 
		58.6529388,72.2011185 58.0302963,72.2011185 58.0302963,73.6644669 33.123085,73.6644669 33.1230659,67.4350357 
		30.0096645,67.4350357 30.0096645,84.8700638 33.7426071,84.8700638 33.7426071,80.5112991 33.123085,80.5112991 	"/>
	<polygon class="st2" points="33.1230659,54.3587761 58.0302963,54.358757 58.0302963,67.2196884 58.6529388,67.2196884 
		58.6529388,66.1896896 61.9639168,66.1896896 61.9639168,65.567009 58.6529388,65.567009 58.6529388,54.358757 
		73.6959686,54.358757 73.6959686,65.5669861 66.9453278,65.5669861 66.9453278,66.1896896 74.318634,66.1896896 
		74.318634,38.2364693 58.6529388,38.2364693 58.6529388,32.2628136 58.0302544,32.2628136 58.0302544,43.2883148 
		58.6529388,43.2883148 58.6529388,38.8591537 73.6959457,38.8591537 73.6959457,52.4906654 58.6529388,52.4906845 
		58.6529388,48.269722 58.0302544,48.269722 58.0302963,52.4906845 33.7426071,52.4906845 33.7426071,48.4822769 
		33.1230659,48.4822769 33.1230659,41.038826 30.0096455,41.038826 30.0096455,58.1044312 33.1230659,58.1044312 	"/>
	<rect x="39.3498611" y="96.0814743" class="st2" width="4.3587255" height="3.7329607"/>
	<rect x="79.2014084" y="96.7009735" class="st2" width="4.358767" height="3.11344"/>
	<polygon class="st2" points="66.8996887,73.6644669 66.8996887,74.2871094 72.3519058,74.2871246 72.3519058,82.7007217 
		57.4076118,82.7007217 57.4076118,96.7009735 55.5395393,96.7009735 55.5395393,99.814415 72.9746323,99.814415 
		72.9746323,92.1367188 72.3519058,92.1367188 72.3519058,96.0814743 68.6158218,96.0814743 68.6158218,96.7009735 
		58.0302963,96.7009735 58.0302963,83.3233871 72.3519058,83.3233871 72.3519058,87.1553116 72.9746323,87.1553116 
		72.9746323,74.2871246 75.7842789,74.2871246 75.7842789,73.6644669 	"/>
	<polygon class="st2" points="98.3205643,68.6804047 98.3205643,61.830265 96.4524689,61.830265 96.4524689,69.9256668 
		81.0411758,69.9256668 81.0411758,73.6644669 80.7657089,73.6644669 80.7657089,74.2871246 81.6639786,74.2871246 
		81.6638565,70.5483551 96.4524689,70.5483551 96.4524689,70.548439 102.6902161,70.548439 102.6902161,84.5959473 
		103.3129654,84.5959473 103.3129654,70.548439 115.9395523,70.548439 115.9395523,96.0814743 103.307663,96.0814743 
		103.307663,89.5773773 102.6849365,89.5773773 102.6849365,96.0814743 92.2776642,96.0814743 92.2776642,99.8143768 
		119.052887,99.8143768 119.0528717,68.6804047 	"/>
	<polygon class="st2" points="118.122261,0.1855648 118.122261,39.8850899 110.6161194,39.8850899 110.6161194,40.5077744 
		118.122261,40.5077744 118.122261,52.4906654 105.5235443,52.4906654 105.5235443,40.5077744 105.9459457,40.5077744 
		105.9459457,39.8850899 104.9008636,39.8850899 104.9008636,52.4906654 98.3205643,52.4906654 98.3205643,48.4648781 
		97.0751572,48.4648781 97.0751572,44.4171982 96.4524689,44.4171982 96.4524689,55.5277138 98.3205643,55.5277138 
		98.3205643,54.358757 119.9903564,54.3587341 119.9903564,0.1855648 	"/>
</g>
</g></svg>
