<?xml version="1.0" encoding="utf-8"?>
<!-- DO NOT EDIT THIS, THIS FILE IS GENERATED FROM "2_7-12_5.original.svg" using transform-svgs.js script -->
<!-- Generator: Adobe Illustrator 24.2.0, SVG Export Plug-In . SVG Version: 6.00 Build 0)  -->
<!DOCTYPE svg PUBLIC "-//W3C//DTD SVG 1.1//EN" "http://www.w3.org/Graphics/SVG/1.1/DTD/svg11.dtd" [
	<!ENTITY ns_extend "http://ns.adobe.com/Extensibility/1.0/">
	<!ENTITY ns_ai "http://ns.adobe.com/AdobeIllustrator/10.0/">
	<!ENTITY ns_graphs "http://ns.adobe.com/Graphs/1.0/">
	<!ENTITY ns_vars "http://ns.adobe.com/Variables/1.0/">
	<!ENTITY ns_imrep "http://ns.adobe.com/ImageReplacement/1.0/">
	<!ENTITY ns_sfw "http://ns.adobe.com/SaveForWeb/1.0/">
	<!ENTITY ns_custom "http://ns.adobe.com/GenericCustomNamespace/1.0/">
	<!ENTITY ns_adobe_xpath "http://ns.adobe.com/XPath/1.0/">
]>
<svg version="1.1" id="Слой_1" xmlns:x="&ns_extend;" xmlns:i="&ns_ai;" xmlns:graph="&ns_graphs;"
	 xmlns="http://www.w3.org/2000/svg" xmlns:xlink="http://www.w3.org/1999/xlink" x="0px" y="0px" viewBox="0 0 150 100"
	 style="enable-background:new 0 0 150 100;" xml:space="preserve"><g transform="translate(16.66148640801795 11.1076576053453) scale(0.777846847893094)">
<style type="text/css">
	.st0{fill:#DBD4CA;}
	.st1{fill:none;stroke:#565440;}
	.st2{fill:#565440;}
</style>
<metadata>
	<sfw  xmlns="&ns_sfw;">
		<slices></slices>
		<sliceSourceBounds  bottomLeftOrigin="true" height="100.122818" width="84.7732086" x="28.0051613" y="-0.0614228">
			</sliceSourceBounds>
	</sfw>
</metadata>
<polygon id="Floor" class="st0" points="112.2783585,0.4495791 37.3274689,0.4386083 37.3274689,99.5614243 112.2783585,99.5614243 
	"/>
<polygon id="Windows" class="st1" points="112.2770615,0.4386083 43.8559952,0.4386297 43.8559952,1.7544152 110.9613113,1.7543937 
	110.9613113,98.245636 99.1192093,98.2456436 99.1192093,99.5614243 112.2783585,99.5614243 "/>
<path id="Doors" class="st1" d="M37.2770691,88.8825607c-1.1403542,0-2.1929436-0.2631683-3.2456474-0.7017593
	c-1.0526085-0.4385757-2.1052933-1.0526886-2.8947201-1.929863c-0.7894077-0.789505-1.4911861-1.7543716-1.9297619-2.807045
	c-0.4385967-1.0526962-0.7017784-2.192955-0.7017784-3.3332977h8.7719841 M79.3823013,40.3508873
	c0.96492,0,1.7543411,0.1754227,2.6315384,0.5263367c0.8771744,0.3508377,1.6666794,0.8771706,2.2807083,1.4911766
	c0.7017593,0.6140862,1.228096,1.4035301,1.5789337,2.2807045c0.3508301,0.8771744,0.5263367,1.7543716,0.5263367,2.7192917
	l-7.0175171,0.0000038 M69.7332382,37.7192688c0-0.96492,0.175415-1.7543716,0.5263443-2.6315422
	c0.3509216-0.8771744,0.8771896-1.6665955,1.4911804-2.2807083c0.6140137-0.7017517,1.4035339-1.2281189,2.2807083-1.5789547
	c0.8771973-0.3509178,1.7543716-0.5263329,2.7193069-0.5263329v7.0175381 M54.8209038,37.7192726
	c0-0.96492-0.175415-1.7543716-0.5263405-2.6315422c-0.350853-0.8771706-0.8771935-1.6665955-1.4912071-2.2807083
	c-0.6139908-0.7017517-1.4035149-1.2281132-2.2806892-1.578949c-0.8771935-0.3509178-1.754364-0.5263386-2.7193031-0.5263329
	v7.0175362 M53.9437485,72.8070755c0-0.9649277,0.175415-1.7543793,0.5263443-2.6316299
	c0.3509254-0.877243,0.8771935-1.6665878,1.4911842-2.2807083c0.6140137-0.7017517,1.4035339-1.2281189,2.2807083-1.578949
	c0.8771935-0.350914,1.7543678-0.5263443,2.7193069-0.5263443v7.0175476"/>
<g id="Walls">
	<rect x="56.5752525" y="0.0000119" class="st2" width="6.1403489" height="5.2587485"/>
	<polygon class="st2" points="78.5051041,4.3860002 78.505127,37.7192688 76.7507553,37.7192688 76.7507553,38.5965462 
		78.505127,38.5965462 78.505127,40.3508873 79.3823013,40.3508873 79.3822784,4.3860002 81.1367188,4.3860002 
		81.1367188,0.0000048 74.9962997,0.0000072 74.9962997,4.386003 	"/>
	<rect x="93.4174194" class="st2" width="6.1403489" height="5.2587605"/>
	<rect x="107.4568939" y="20.1754112" class="st2" width="5.2587638" height="6.140337"/>
	<rect x="108.3296967" y="76.3157959" class="st2" width="4.3860016" height="6.1403394"/>
	<polygon class="st2" points="99.5578079,95.6140213 63.592907,95.6140289 63.592907,85.0876923 68.8559875,85.0876846 
		68.8559875,84.210495 62.7156372,84.210495 62.7156372,95.6140289 39.9086075,95.6140366 39.9086075,88.8825607 
		37.2770691,88.8825607 37.2770691,100 39.9086075,100 99.5578079,99.9999771 	"/>
	<polygon class="st2" points="79.3823013,48.2455978 79.3823013,47.3684311 78.505127,47.3684311 78.505127,49.1227722 
		108.3296585,49.1227608 108.3296585,57.0175552 107.4568939,57.0175552 107.4568939,63.157917 112.7156601,63.157917 
		112.7156601,38.5965347 108.3296585,38.5965347 108.3296585,48.2455902 	"/>
	<polygon class="st2" points="53.9437485,73.684166 53.9437485,72.8070755 39.9086075,72.8070755 39.9085884,56.1404037 
		62.7156181,56.1403961 62.7156181,72.8070679 60.9612732,72.8070679 60.9612732,73.684166 68.8559875,73.684166 
		68.8559875,72.8070679 63.5928879,72.8070679 63.5928879,38.59655 69.733139,38.59655 69.733139,37.7192688 54.8209038,37.7192726 
		54.8209038,38.5965538 62.7156181,38.59655 62.7156181,55.2631454 39.9085884,55.2631493 39.9085884,38.5965614 
		47.8033829,38.5965538 47.8033829,37.7192764 39.9085884,37.7192764 39.9085693,5.2587628 44.2945518,5.2587605 
		44.2945518,0.0000167 37.2770309,0.0000191 37.2770691,80.1105957 39.9086075,80.1105957 39.9086075,73.6841736 	"/>
</g>
</g></svg>
