<?xml version="1.0" encoding="utf-8"?>
<!-- DO NOT EDIT THIS, THIS FILE IS GENERATED FROM "2_7-12_6.original.svg" using transform-svgs.js script -->
<!-- Generator: Adobe Illustrator 24.2.0, SVG Export Plug-In . SVG Version: 6.00 Build 0)  -->
<!DOCTYPE svg PUBLIC "-//W3C//DTD SVG 1.1//EN" "http://www.w3.org/Graphics/SVG/1.1/DTD/svg11.dtd" [
	<!ENTITY ns_extend "http://ns.adobe.com/Extensibility/1.0/">
	<!ENTITY ns_ai "http://ns.adobe.com/AdobeIllustrator/10.0/">
	<!ENTITY ns_graphs "http://ns.adobe.com/Graphs/1.0/">
	<!ENTITY ns_vars "http://ns.adobe.com/Variables/1.0/">
	<!ENTITY ns_imrep "http://ns.adobe.com/ImageReplacement/1.0/">
	<!ENTITY ns_sfw "http://ns.adobe.com/SaveForWeb/1.0/">
	<!ENTITY ns_custom "http://ns.adobe.com/GenericCustomNamespace/1.0/">
	<!ENTITY ns_adobe_xpath "http://ns.adobe.com/XPath/1.0/">
]>
<svg version="1.1" id="Слой_1" xmlns:x="&ns_extend;" xmlns:i="&ns_ai;" xmlns:graph="&ns_graphs;"
	 xmlns="http://www.w3.org/2000/svg" xmlns:xlink="http://www.w3.org/1999/xlink" x="0px" y="0px" viewBox="0 0 150 100"
	 style="enable-background:new 0 0 150 100;" xml:space="preserve"><g transform="translate(29.65046535632572 19.76697690421715) scale(0.604660461915657)">
<style type="text/css">
	.st0{fill:#DBD4CA;}
	.st1{fill:none;stroke:#565440;}
	.st2{fill:#565440;}
</style>
<metadata>
	<sfw  xmlns="&ns_sfw;">
		<slices></slices>
		<sliceSourceBounds  bottomLeftOrigin="true" height="84.225441" width="150.1508026" x="0" y="7.8872809"></sliceSourceBounds>
	</sfw>
</metadata>
<polygon id="Floor" class="st0" points="48.4294243,90.9631882 141.1779175,90.9631882 144.1900787,85.8536758 
	148.0352783,69.191246 142.5398712,67.5153351 142.503067,37.2944794 149.644165,12.114954 1.8895706,12.0985966 
	1.8895706,61.9202499 32.9586525,62.295311 32.9595757,69.7929916 48.4294243,69.7929916 "/>
<g id="Windows">
	<path class="st1" d="M148.5382233,67.0118561l-4.723526,20.4684296l-1.5792236-0.3158493l4.7235107-20.4684296
		L148.5382233,67.0118561z"/>
	<path class="st1" d="M76.8554535,12.0986195v1.5791922l-30.5316658,0.0000114v-1.5791922L76.8554535,12.0986195z"/>
	<polygon class="st1" points="149.5,12.0985966 118.5471268,12.098608 118.5471268,13.6778345 147.3942719,13.6778231 
		142.5513,32.2074089 144.0253296,32.6285515 	"/>
</g>
<path id="Doors" class="st1" d="M101.0703506,64.7394638c1.1581497,0,2.105629-0.2105637,3.1585388-0.6317215
	c1.0527725-0.4210739,2.0003891-1.0527954,2.7372894-1.7897415c0.8422852-0.7370377,1.4740295-1.6845398,1.8951035-2.7373352
	c0.4210663-1.0527954,0.6316986-2.1056099,0.6316986-3.2637215h-8.422493 M96.8590317,53.1585159
	c0-1.1581078-0.2105331-2.1056366-0.6316986-3.1584282c-0.4212112-1.0527725-1.0528183-2.0003929-1.7897644-2.7373123
	c-0.7369461-0.8422585-1.6845169-1.4740067-2.7373352-1.8950768c-1.0527725-0.4210968-2.1055908-0.6317215-3.2636948-0.6317215
	v8.4225388 M81.0668106,67.8979645c0-1.1581116,0.2105408-2.1056137,0.6317062-3.1584091
	c0.4210663-1.0527954,1.0528107-2.0003891,1.7897568-2.7373352c0.7369461-0.8422585,1.6845169-1.4740028,2.7373352-1.8950768
	c1.0527725-0.4210701,2.1055908-0.6317215,3.2637024-0.6317215v8.4225426 M100.0175323,29.99646
	c-1.1581116,0-2.1055908,0.210537-3.1583633,0.6317005c-1.0528183,0.4211864-2.0003891,1.0527954-2.7373352,1.789854
	c-0.8422852,0.7369461-1.4739838,1.6845398-1.89505,2.7373352c-0.4211197,1.0527954-0.631752,2.1056366-0.631752,3.2637444
	h8.4225006 M26.3202324,28.9436779c1.1581306,0,2.1056118-0.210537,3.1584301-0.631712
	c1.0527935-0.421175,2.0003662-1.0527935,2.7373333-1.789854c0.8422585-0.7369442,1.4739838-1.6845398,1.8950539-2.7373333
	c0.4210739-1.0527954,0.6317215-2.1056252,0.6317215-3.2637329h-8.4225159 M9.4751978,42.6303177
	c0-1.1581078,0.2105589-2.1056137,0.6317453-3.1584053c0.421072-1.0527954,1.0527945-2.0002785,1.7897396-2.7373352
	c0.7369442-0.8422585,1.6845169-1.4740067,2.7373343-1.8950768c1.0527945-0.4211884,2.1055899-0.6317253,3.2637205-0.6317253
	v8.4225426 M51.5879211,76.3204803c1.3686905,0,2.632,0.3158493,3.895443,0.8422546
	c1.2633553,0.5263901,2.5268021,1.2634506,3.4742813,2.316246c0.9475708,0.9474792,1.7897606,2.105629,2.3162613,3.3690567
	c0.5264091,1.2634659,0.8422356,2.632019,0.8422356,4.0006638H51.5880127"/>
<g id="Walls">
	<polygon class="st2" points="144.2358704,84.7429962 137.9242401,84.7429962 137.9242401,88.9542923 101.0703506,88.9543152 
		101.0703506,64.7394638 100.0174408,64.7394638 100.0174408,67.8979645 89.4893112,67.8979645 89.4893112,68.9507523 
		100.0174408,68.9507523 100.0174866,88.9543152 72.6441803,88.9543152 72.6441803,68.9507523 81.0668106,68.9507523 
		81.0668106,67.8979645 71.591362,67.8979645 71.591362,88.9543152 51.5879211,88.9543152 51.5879211,86.8486328 
		48.4294243,86.8486328 48.4294243,92.1127167 144.2358704,92.1126938 	"/>
	<polygon class="st2" points="75.802681,17.3546524 75.802681,54.2113342 88.4365387,54.2113342 88.4365387,53.1585159 
		76.8554993,53.1585159 76.8554993,41.5774994 100.0174408,41.5774994 101.0703506,41.5774994 101.0703506,38.4189568 
		100.0174408,38.4189568 100.0174408,40.5246582 76.8554993,40.5246811 76.8554535,17.3546524 100.0174408,17.3546524 
		100.0174408,29.99646 101.0703506,29.99646 101.0703506,17.3546524 128.4436035,17.354641 128.4436035,11.0457792 
		127.3906937,11.0457792 127.3906937,7.8872809 124.2322845,7.8872809 124.2322845,11.0457792 111.5984802,11.0457907 
		111.5984802,7.8872809 108.4400711,7.8872809 108.4400711,11.0457907 95.8062134,11.0457907 95.8062134,7.8872809 
		92.6477127,7.8872924 92.6477127,11.0457907 78.9610901,11.0458021 78.9610901,7.8872924 75.802681,7.8872924 	"/>
	<rect x="60.0104179" y="7.8872924" class="st2" width="3.1584067" height="7.3697114"/>
	<polygon class="st2" points="140.0245514,32.1021423 140.0245514,34.2077293 137.9242401,34.2077293 137.9242401,41.5774765 
		140.0245514,41.5774765 140.0245514,53.158493 96.8590317,53.1585159 96.8590317,54.2113342 100.0174408,54.2113342 
		100.0174408,56.3169212 101.0703506,56.3169212 101.0703506,54.2113342 140.0245514,54.2113113 140.0245514,67.4618301 
		139.9193573,67.8979416 148.1313171,69.7929916 148.8682556,66.7398071 143.1830902,65.4278412 143.1830444,36.5239944 
		144.867569,32.3127022 141.9197388,31.1545467 141.5407104,32.1021423 	"/>
	<polygon class="st2" points="51.5877838,60.5282631 50.5351028,60.5282631 50.5351028,67.8979874 34.7428856,67.8979874 
		34.7428856,61.5810776 20.0034409,61.5810776 20.0034409,29.9965534 26.3203468,29.9965534 26.3203468,28.9437809 
		18.9506245,28.9437809 18.9506245,42.6304092 17.8978062,42.6304092 17.8978062,43.6832275 18.9506245,43.6832275 
		18.9506245,61.5810318 3.158361,61.5810318 3.158361,43.6832275 9.4752665,43.6832275 9.4752665,42.6304092 3.158361,42.6304092 
		3.158361,17.1548653 25.2675285,17.1548653 25.2675285,20.521286 26.3203468,20.521286 26.3203468,17.1548653 
		47.3766975,17.1548653 47.3766975,7.8875217 44.2182922,7.8875217 44.2182922,11.045928 30.5316639,11.045928 
		30.5316639,7.8875217 27.3731651,7.8875217 27.3731651,11.045928 0,11.0457449 0,64.7396698 31.584343,64.7396698 
		31.5843887,71.0564804 48.4294243,71.0564804 48.4294243,76.3206177 51.5878296,76.3206177 51.5878296,67.8980789 	"/>
</g>
</g></svg>
