<?xml version="1.0" encoding="utf-8"?>
<!-- Generator: Adobe Illustrator 26.0.3, SVG Export Plug-In . SVG Version: 6.00 Build 0)  -->
<svg version="1.1" xmlns="http://www.w3.org/2000/svg" xmlns:xlink="http://www.w3.org/1999/xlink" x="0px" y="0px"
	 viewBox="0 0 720 480" style="enable-background:new 0 0 720 480;" xml:space="preserve">
<style type="text/css">
	.st0{fill:#DBD4CA;}
	.st1{clip-path:url(#SVGID_00000065076853931966529680000003538659224698960293_);}
	.st2{fill:none;stroke:#C49F8A;stroke-miterlimit:10;}
	.st3{opacity:0.3;clip-path:url(#SVGID_00000183211296788192138550000016044345916295791267_);}
	.st4{opacity:0.7;fill:#C49F8A;enable-background:new    ;}
	.st5{fill:none;stroke:#565440;}
	.st6{fill:none;stroke:#565440;stroke-width:1;stroke-miterlimit:4.0004;}
	.st7{fill:#565440;}
	.st8{opacity:0;}
	.st9{fill:#3F3F3F;fill-opacity:0;}
	.st10{fill:#E9E4DC;}
	.st11{fill:#C49F8A;}
	.st12{fill:#E9E4DC;stroke:#C49F8A;}
	.st13{fill:#E9E4DC;stroke:#C49F8A;stroke-miterlimit:3.9998;}
	.st14{fill:none;stroke:#C49F8A;}
</style>
<g id="_x31__x5F_2">
	<polygon id="Floor" class="st0" points="282.5,390.8 358.5,410.8 364.4,394.6 427.6,392.9 496.2,410.7 500.8,396.1 512.5,396.1 
		512.5,60.3 206.1,60.3 206.1,390.8 	"/>
	<g id="Wet_Floor_1_">
		<g>
			<g>
				<defs>
					<rect id="SVGID_1_" x="210.3" y="69.6" width="148.8" height="93.8"/>
				</defs>
				<clipPath id="SVGID_00000070108622468130647660000014863317589276038037_">
					<use xlink:href="#SVGID_1_"  style="overflow:visible;"/>
				</clipPath>
				<g style="clip-path:url(#SVGID_00000070108622468130647660000014863317589276038037_);">
					<g>
						<line class="st2" x1="-46.1" y1="65.6" x2="287.4" y2="-267.9"/>
						<line class="st2" x1="-56.5" y1="55.1" x2="277" y2="-278.3"/>
						<line class="st2" x1="-35.6" y1="76" x2="297.8" y2="-257.5"/>
						<line class="st2" x1="-25.2" y1="86.4" x2="308.3" y2="-247.1"/>
						<line class="st2" x1="-14.8" y1="96.8" x2="318.7" y2="-236.7"/>
						<line class="st2" x1="-4.4" y1="107.2" x2="329.1" y2="-226.2"/>
						<line class="st2" x1="6" y1="117.7" x2="339.5" y2="-215.8"/>
						<line class="st2" x1="16.5" y1="128.1" x2="350" y2="-205.4"/>
						<line class="st2" x1="26.9" y1="138.5" x2="360.4" y2="-195"/>
						<line class="st2" x1="37.3" y1="148.9" x2="370.8" y2="-184.5"/>
						<line class="st2" x1="26.9" y1="138.5" x2="360.4" y2="-195"/>
						<line class="st2" x1="47.7" y1="159.4" x2="381.2" y2="-174.1"/>
						<line class="st2" x1="58.2" y1="169.8" x2="391.6" y2="-163.7"/>
						<line class="st2" x1="68.6" y1="180.2" x2="402.1" y2="-153.3"/>
						<line class="st2" x1="79" y1="190.6" x2="412.5" y2="-142.9"/>
						<line class="st2" x1="89.4" y1="201" x2="422.9" y2="-132.4"/>
						<line class="st2" x1="99.8" y1="211.5" x2="433.3" y2="-122"/>
						<line class="st2" x1="110.3" y1="221.9" x2="443.7" y2="-111.6"/>
						<line class="st2" x1="120.7" y1="232.3" x2="454.2" y2="-101.2"/>
						<line class="st2" x1="110.3" y1="221.9" x2="443.7" y2="-111.6"/>
						<line class="st2" x1="131.1" y1="242.7" x2="464.6" y2="-90.8"/>
						<line class="st2" x1="141.5" y1="253.1" x2="475" y2="-80.3"/>
						<line class="st2" x1="151.9" y1="263.6" x2="485.4" y2="-69.9"/>
						<line class="st2" x1="162.4" y1="274" x2="495.9" y2="-59.5"/>
						<line class="st2" x1="172.8" y1="284.4" x2="506.3" y2="-49.1"/>
						<line class="st2" x1="183.2" y1="294.8" x2="516.7" y2="-38.7"/>
						<line class="st2" x1="193.6" y1="305.3" x2="527.1" y2="-28.2"/>
						<line class="st2" x1="204.1" y1="315.7" x2="537.5" y2="-17.8"/>
						<line class="st2" x1="193.6" y1="305.3" x2="527.1" y2="-28.2"/>
						<line class="st2" x1="214.5" y1="326.1" x2="548" y2="-7.4"/>
						<line class="st2" x1="224.9" y1="336.5" x2="558.4" y2="3"/>
						<line class="st2" x1="235.3" y1="346.9" x2="568.8" y2="13.5"/>
						<line class="st2" x1="245.7" y1="357.4" x2="579.2" y2="23.9"/>
						<line class="st2" x1="256.2" y1="367.8" x2="589.6" y2="34.3"/>
						<line class="st2" x1="266.6" y1="378.2" x2="600.1" y2="44.7"/>
						<line class="st2" x1="277" y1="388.6" x2="610.5" y2="55.1"/>
					</g>
					<g>
						<line class="st2" x1="287.4" y1="378.2" x2="-46.1" y2="44.7"/>
						<line class="st2" x1="277" y1="388.6" x2="-56.5" y2="55.1"/>
						<line class="st2" x1="297.8" y1="367.8" x2="-35.6" y2="34.3"/>
						<line class="st2" x1="308.3" y1="357.4" x2="-25.2" y2="23.9"/>
						<line class="st2" x1="318.7" y1="346.9" x2="-14.8" y2="13.5"/>
						<line class="st2" x1="329.1" y1="336.5" x2="-4.4" y2="3"/>
						<line class="st2" x1="339.5" y1="326.1" x2="6" y2="-7.4"/>
						<line class="st2" x1="350" y1="315.7" x2="16.5" y2="-17.8"/>
						<line class="st2" x1="360.4" y1="305.3" x2="26.9" y2="-28.2"/>
						<line class="st2" x1="370.8" y1="294.8" x2="37.3" y2="-38.7"/>
						<line class="st2" x1="360.4" y1="305.3" x2="26.9" y2="-28.2"/>
						<line class="st2" x1="381.2" y1="284.4" x2="47.7" y2="-49.1"/>
						<line class="st2" x1="391.6" y1="274" x2="58.2" y2="-59.5"/>
						<line class="st2" x1="402.1" y1="263.6" x2="68.6" y2="-69.9"/>
						<line class="st2" x1="412.5" y1="253.1" x2="79" y2="-80.3"/>
						<line class="st2" x1="422.9" y1="242.7" x2="89.4" y2="-90.8"/>
						<line class="st2" x1="433.3" y1="232.3" x2="99.8" y2="-101.2"/>
						<line class="st2" x1="443.7" y1="221.9" x2="110.3" y2="-111.6"/>
						<line class="st2" x1="454.2" y1="211.5" x2="120.7" y2="-122"/>
						<line class="st2" x1="443.7" y1="221.9" x2="110.3" y2="-111.6"/>
						<line class="st2" x1="464.6" y1="201" x2="131.1" y2="-132.4"/>
						<line class="st2" x1="475" y1="190.6" x2="141.5" y2="-142.9"/>
						<line class="st2" x1="485.4" y1="180.2" x2="151.9" y2="-153.3"/>
						<line class="st2" x1="495.9" y1="169.8" x2="162.4" y2="-163.7"/>
						<line class="st2" x1="506.3" y1="159.4" x2="172.8" y2="-174.1"/>
						<line class="st2" x1="516.7" y1="148.9" x2="183.2" y2="-184.5"/>
						<line class="st2" x1="527.1" y1="138.5" x2="193.6" y2="-195"/>
						<line class="st2" x1="537.5" y1="128.1" x2="204.1" y2="-205.4"/>
						<line class="st2" x1="527.1" y1="138.5" x2="193.6" y2="-195"/>
						<line class="st2" x1="548" y1="117.7" x2="214.5" y2="-215.8"/>
						<line class="st2" x1="558.4" y1="107.2" x2="224.9" y2="-226.2"/>
						<line class="st2" x1="568.8" y1="96.8" x2="235.3" y2="-236.7"/>
						<line class="st2" x1="579.2" y1="86.4" x2="245.7" y2="-247.1"/>
						<line class="st2" x1="589.6" y1="76" x2="256.2" y2="-257.5"/>
						<line class="st2" x1="600.1" y1="65.6" x2="266.6" y2="-267.9"/>
						<line class="st2" x1="610.5" y1="55.1" x2="277" y2="-278.3"/>
					</g>
				</g>
			</g>
		</g>
		<g>
			<g>
				<defs>
					<rect id="SVGID_00000119116103376943016280000007217250352228904609_" x="210.3" y="69.6" width="148.8" height="93.8"/>
				</defs>
				<clipPath id="SVGID_00000111168348313610991200000002816394790770781881_">
					<use xlink:href="#SVGID_00000119116103376943016280000007217250352228904609_"  style="overflow:visible;"/>
				</clipPath>
				<g style="opacity:0.3;clip-path:url(#SVGID_00000111168348313610991200000002816394790770781881_);">
					<rect x="115.9" y="-116.4" class="st4" width="322.2" height="322.2"/>
				</g>
			</g>
		</g>
	</g>
	<path id="Doors" class="st5" d="M354.7,122.5c-4.9,0-8.8,0.9-13.2,2.6c-4.4,1.8-8.4,4.4-11.5,7.5c-3.5,3.1-6.2,7.1-7.9,11.5
		c-1.8,4.4-2.6,8.8-2.6,13.7h35.3 M354.7,233.5c-4.9,0-8.8-0.9-13.2-2.6c-4.4-1.8-8.4-4.4-11.5-7.5c-3.5-3.1-6.2-7.1-7.9-11.5
		c-1.8-4.4-2.6-8.8-2.6-13.7h35.3 M381.2,60.2c0-5.7,1.3-11.2,3.5-16.5s5.3-10.6,9.7-14.6c4-4,8.8-7.5,14.1-9.7
		c5.3-2.2,11-3.5,16.8-3.5v44.3"/>
	<g id="Windows">
		
			<rect x="315.6" y="364.3" transform="matrix(0.2515 -0.9679 0.9679 0.2515 -152.3281 611.0032)" class="st6" width="6.6" height="79.4"/>
		
			<rect x="457.4" y="368.7" transform="matrix(0.2515 -0.9679 0.9679 0.2515 -47.0405 749.0275)" class="st6" width="6.6" height="72.4"/>
	</g>
	<g id="Walls">
		<path class="st7" d="M522.3,60h-96.8v13.2h83.6v73h-16.8v14.5h-65.4v4.4H509v208.1h-10.9v22l-4.9,21.6l12.8,3.1l4.6-20.3h11.7
			L522.3,60z M496.8,160.7v-10.1h12.3v10.1H496.8z"/>
		<path class="st7" d="M200.3,60v346l-2.6,11l12.8,3.1l3.1-12.8v-7.5h70.6v-26.4h-70.6V165.1h141.2v33.1h4.4v-40.4h-4.4v2.9H213.6
			V88.2h15.7v-15h125.5v49.3h4.4V73.3h22.3V60H200.3z M224.8,83.8h-11.3V73.3h11.3V83.8z"/>
		<polygon class="st7" points="359.1,377.7 359.1,233.5 354.7,233.5 354.7,395.3 349.9,416.9 362.6,420 367.2,399.7 411.2,399.7 
			426.5,403.3 431.4,381.6 414.6,377.7 		"/>
	</g>
	<g id="street_anchors" class="st8">
		<rect id="street_x5F_anchor_x5F_01_1_" x="355" y="450" class="st9" width="10" height="10"/>
	</g>
	<g id="Furniture">
		<g>
			<polygon class="st10" points="481.9,241.4 481.9,192.2 427.5,192.2 427.5,165.6 508.7,165.6 508.7,192.2 508.6,192.7 
				508.6,241.4 			"/>
			<path class="st11" d="M508.2,166.1v25.6l0,0v1v48.1h-25.7v-48.1v-1h-1H428v-25.6H508.2 M509.2,165.1H427v27.6h54.4v49.1h27.7
				v-49.1l0,0v-27.6H509.2z"/>
		</g>
		<g>
			<g>
				<rect x="214.2" y="252.8" class="st10" width="85.1" height="73.5"/>
				<path class="st11" d="M214.7,253.3h84.1v72.5h-84.1L214.7,253.3 M213.7,252.3v74.5h86.1v-74.5L213.7,252.3L213.7,252.3z"/>
			</g>
			<rect x="219.8" y="258.7" class="st12" width="21.3" height="29.1"/>
			<rect x="219.8" y="291.4" class="st12" width="21.3" height="29.1"/>
			<polygon class="st13" points="232.4,262.2 226.9,283.3 247.5,288.9 253,267.9 			"/>
			<polygon class="st13" points="247.5,290.4 226.9,296 232.4,317.1 253,311.4 			"/>
			<g>
				<polygon class="st10" points="232.2,326.3 230.4,297 236.6,252.8 300.1,252.8 300.1,326.3 				"/>
				<path class="st11" d="M237.1,253.3h62.5v72.5h-66.5h-0.4L231,297L237.1,253.3 M236.7,252.3h-0.5l-6.3,44.7l1.8,29.8h1.4h67.5
					v-74.5L236.7,252.3L236.7,252.3z"/>
			</g>
			<polyline class="st14" points="233.9,325.9 233.9,296.8 237.4,253.2 			"/>
		</g>
		<g>
			<g>
				<rect x="214" y="189.2" class="st10" width="140.2" height="1.8"/>
				<path class="st11" d="M214.5,189.7h139.2v0.8H214.5L214.5,189.7 M213.5,188.7v2.8h141.2v-2.8H213.5L213.5,188.7z"/>
			</g>
			<g>
				<rect x="214" y="165.6" class="st10" width="140.2" height="23.6"/>
				<path class="st11" d="M214.5,166.1h139.2v22.6H214.5L214.5,166.1 M213.5,165.1v24.6h141.2v-24.6H213.5L213.5,165.1z"/>
			</g>
			<path class="st12" d="M354.1,165.9l-140.3,23"/>
		</g>
		<g>
			<g>
				<rect x="483.2" y="73.6" class="st10" width="1.8" height="72.1"/>
				<path class="st11" d="M484.5,74.1v71.1h-0.8V74.1H484.5 M485.5,73.1h-2.8v73.1h2.8V73.1L485.5,73.1z"/>
			</g>
			<g>
				<rect x="485" y="73.6" class="st10" width="23.6" height="72.1"/>
				<path class="st11" d="M508.1,74.1v71.1h-22.6V74.1H508.1 M509.1,73.1h-24.6v73.1h24.6V73.1L509.1,73.1z"/>
			</g>
			<path class="st12" d="M508.3,145.9l-23-72.7"/>
		</g>
		<g>
			<g>
				<rect x="428.7" y="85.3" class="st10" width="19.9" height="1.8"/>
				<path class="st11" d="M429.2,85.8h18.9v0.8h-18.9V85.8 M428.2,84.8v2.8h20.9v-2.8H428.2L428.2,84.8z"/>
			</g>
			<g>
				<rect x="428.7" y="73.8" class="st10" width="19.9" height="11.5"/>
				<path class="st11" d="M448.1,74.3v10.5h-18.9V74.3H448.1 M449.1,73.3h-20.9v12.5h20.9V73.3L449.1,73.3z"/>
			</g>
			<path class="st12" d="M448.6,73.9l-19.9,11.3"/>
		</g>
		<g id="Sink_2">
			<g id="Rectangle_16_x5F_11">
				<rect x="252.1" y="73.8" class="st10" width="27.7" height="20"/>
				<path class="st11" d="M279.3,74.3v19h-26.7v-19H279.3 M280.3,73.3h-28.7v21h28.7V73.3L280.3,73.3z"/>
			</g>
			<path id="Rectangle_19_x5F_5" class="st12" d="M255,83.8L255,83.8c0,3.6,2.9,6.4,6.4,6.4h9.2c3.6,0,6.4-2.9,6.4-6.4l0,0
				c0-3.6-2.9-6.4-6.4-6.4h-9.2C257.8,77.3,255,80.2,255,83.8z"/>
			<circle id="Ellipse_7_x5F_2" class="st12" cx="266" cy="80.9" r="1.3"/>
		</g>
		<g id="Toilet_3_">
			<g id="Rectangle_21_3_">
				<rect x="291.3" y="84.3" class="st10" width="17.8" height="6"/>
				<path class="st11" d="M308.6,84.8v5h-16.8v-5H308.6 M309.6,83.8h-18.8v7h18.8V83.8L309.6,83.8z"/>
			</g>
			<path id="Rectangle_19_x5F_2_3_" class="st12" d="M293.5,102.7c-0.3,3.9,2.8,7.2,6.7,7.2l0,0c3.9,0,7-3.3,6.7-7.2l-0.8-12.4
				h-11.7L293.5,102.7z"/>
			<path id="Rectangle_18_x5F_13_3_" class="st12" d="M295.7,102.4c-0.2,2.7,1.9,5,4.6,5l0,0c2.7,0,4.8-2.3,4.6-5l-0.7-7.3h-7.8
				L295.7,102.4z"/>
			<ellipse id="Ellipse_6_x5F_2_3_" class="st12" cx="300.2" cy="98.1" rx="1.3" ry="1.3"/>
		</g>
		<g id="TV">
			<g id="Rectangle_16">
				<rect x="341.8" y="257.8" class="st10" width="8.8" height="63.6"/>
				<path class="st11" d="M350.2,258.3v62.6h-7.8v-62.6H350.2 M351.2,257.3h-9.8v64.6h9.8V257.3L351.2,257.3z"/>
			</g>
			<g id="Rectangle_15">
				<rect x="343.6" y="257.8" class="st10" width="10.6" height="63.6"/>
				<path class="st11" d="M353.7,258.3v62.6h-9.6v-62.6H353.7 M354.7,257.3h-11.6v64.6h11.6V257.3L354.7,257.3z"/>
			</g>
			<rect id="Rectangle_17" x="350.9" y="268.1" class="st12" width="1.7" height="42.9"/>
			<path id="Rectangle_18_x5F_2" class="st12" d="M352.6,298.7v-18.1l1.6,1.6V297L352.6,298.7z"/>
		</g>
		<g id="TV_1_">
			<g id="Rectangle_16_1_">
				<rect x="496.3" y="309.2" class="st10" width="8.8" height="63.6"/>
				<path class="st11" d="M504.6,309.7v62.6h-7.8v-62.6H504.6 M505.6,308.7h-9.8v64.6h9.8V308.7L505.6,308.7z"/>
			</g>
			<g id="Rectangle_15_1_">
				<rect x="498.1" y="309.2" class="st10" width="10.6" height="63.6"/>
				<path class="st11" d="M508.2,309.7v62.6h-9.6v-62.6H508.2 M509.2,308.7h-11.6v64.6h11.6V308.7L509.2,308.7z"/>
			</g>
			<rect id="Rectangle_17_1_" x="505.4" y="319.6" class="st12" width="1.7" height="42.9"/>
			<path id="Rectangle_18_x5F_2_1_" class="st12" d="M507.1,350.1V332l1.6,1.6v14.9L507.1,350.1z"/>
		</g>
		<g id="Sink_3">
			<rect id="Rectangle_28_x5F_2" x="475" y="168.9" class="st12" width="29.5" height="18.6"/>
			<path id="Rectangle_29_x5F_2" class="st12" d="M492.9,178.2L492.9,178.2c0,3.9-3.1,7-7,7h-1.6c-3.9,0-7-3.1-7-7l0,0
				c0-3.9,3.1-7,7-7h1.6C489.8,171.2,492.9,174.3,492.9,178.2z"/>
			<ellipse id="Ellipse_7_x5F_3" class="st12" cx="485.1" cy="175.1" rx="1.3" ry="1.3"/>
			<path id="Vector_2" class="st14" d="M502.9,171.2h-7.8 M502.9,173.5h-7.8 M502.9,175.9h-7.8 M502.9,178.2h-7.8 M502.9,180.5h-7.8
				 M502.9,182.9h-7.8 M502.9,185.2h-7.8"/>
		</g>
		<g id="Stove">
			<g id="Rectangle_25">
				<rect x="481.9" y="213.2" class="st10" width="26.7" height="26.1"/>
				<path class="st11" d="M508.1,213.7v25.1h-25.7v-25.1H508.1 M509.1,212.7h-27.7v27.1h27.7V212.7L509.1,212.7z"/>
			</g>
			<g id="Rectangle_28_x5F_3_1_">
				<rect x="506.8" y="213.2" class="st10" width="1.8" height="26.1"/>
				<path class="st11" d="M508.1,213.7v25.1h-0.8v-25.1H508.1 M509.1,212.7h-2.8v27.1h2.8V212.7L509.1,212.7z"/>
			</g>
			<g id="Ellipse_7_x5F_4">
				<path class="st10" d="M499.7,235.8c-1.6,0-3-1.3-3-3s1.3-3,3-3c1.6,0,3,1.3,3,3S501.3,235.8,499.7,235.8z"/>
				<path class="st11" d="M499.7,230.4c1.4,0,2.5,1.1,2.5,2.5s-1.1,2.5-2.5,2.5s-2.5-1.1-2.5-2.5S498.3,230.4,499.7,230.4
					 M499.7,229.4c-1.9,0-3.5,1.6-3.5,3.5s1.6,3.5,3.5,3.5s3.5-1.6,3.5-3.5C503.2,230.9,501.6,229.4,499.7,229.4L499.7,229.4z"/>
			</g>
			<g id="Ellipse_9">
				<path class="st10" d="M489.3,236.7c-2.1,0-3.8-1.7-3.8-3.8s1.7-3.8,3.8-3.8s3.8,1.7,3.8,3.8S491.4,236.7,489.3,236.7z"/>
				<path class="st11" d="M489.3,229.5c1.8,0,3.3,1.5,3.3,3.3s-1.5,3.3-3.3,3.3s-3.3-1.5-3.3-3.3C485.9,231,487.4,229.5,489.3,229.5
					 M489.3,228.5c-2.4,0-4.3,1.9-4.3,4.3c0,2.4,1.9,4.3,4.3,4.3s4.3-1.9,4.3-4.3C493.6,230.5,491.7,228.5,489.3,228.5L489.3,228.5z
					"/>
			</g>
			<g id="Ellipse_10">
				<path class="st10" d="M499.7,224.5c-2.1,0-3.8-1.7-3.8-3.8s1.7-3.8,3.8-3.8s3.8,1.7,3.8,3.8S501.8,224.5,499.7,224.5z"/>
				<path class="st11" d="M499.7,217.4c1.8,0,3.3,1.5,3.3,3.3s-1.5,3.3-3.3,3.3s-3.3-1.5-3.3-3.3S497.8,217.4,499.7,217.4
					 M499.7,216.4c-2.4,0-4.3,1.9-4.3,4.3s1.9,4.3,4.3,4.3s4.3-1.9,4.3-4.3S502.1,216.4,499.7,216.4L499.7,216.4z"/>
			</g>
			<g id="Ellipse_8">
				<path class="st10" d="M488.4,223.7c-1.6,0-3-1.3-3-3s1.3-3,3-3c1.6,0,3,1.3,3,3S490,223.7,488.4,223.7z"/>
				<path class="st11" d="M488.4,218.2c1.4,0,2.5,1.1,2.5,2.5s-1.1,2.5-2.5,2.5s-2.5-1.1-2.5-2.5S487,218.2,488.4,218.2
					 M488.4,217.2c-1.9,0-3.5,1.6-3.5,3.5s1.6,3.5,3.5,3.5s3.5-1.6,3.5-3.5S490.3,217.2,488.4,217.2L488.4,217.2z"/>
			</g>
		</g>
		<g>
			<g id="Rectangle_27">
				<rect x="436.2" y="165.6" class="st10" width="30.8" height="26.6"/>
				<path class="st11" d="M466.5,166.1v25.6h-29.8v-25.6H466.5 M467.5,165.1h-31.8v27.6h31.8V165.1L467.5,165.1z"/>
			</g>
			<g id="Rectangle_27_2_">
				<rect x="436.2" y="190.4" class="st10" width="30.8" height="1.8"/>
				<path class="st11" d="M466.5,190.9v0.8h-29.8v-0.8H466.5 M467.5,189.9h-31.8v2.8h31.8V189.9L467.5,189.9z"/>
			</g>
			<path id="Vector_3" class="st14" d="M455.1,178.5h-6.9 M453.3,181.6l-3.5-6.1 M453.3,175.5l-3.5,6.1"/>
		</g>
		<g>
			<path class="st12" d="M389.8,332.2c1.3,0,2.3-1,2.3-2.3V295c0-1.3-1-2.3-2.3-2.3h-22.9v39.6h22.9V332.2z"/>
			<path class="st12" d="M389.8,369.9c1.3,0,2.3-1,2.3-2.3v-33.2c0-1.3-1-2.3-2.3-2.3h-22.9v37.8H389.8z"/>
			<polygon class="st12" points="394,369.9 366.9,369.9 366.9,331.3 366.9,292.6 394,292.6 394,285.3 359.6,285.3 359.6,377.2 
				394,377.2 			"/>
		</g>
		<g>
			<rect x="280" y="73.8" class="st10" width="46.2" height="10.5"/>
			<path class="st11" d="M325.6,74.3v9.5h-45.2v-9.5H325.6 M326.6,73.3h-47.2v11.5h47.2V73.3L326.6,73.3z"/>
		</g>
		<g>
			<rect x="229.7" y="73.8" class="st10" width="22.4" height="20"/>
			<path class="st11" d="M251.6,74.3v19h-21.4v-19H251.6 M252.6,73.3h-23.4v21h23.4V73.3L252.6,73.3z"/>
		</g>
		<g>
			<g>
				<rect x="450.9" y="241.4" class="st10" width="57.7" height="39.5"/>
				<path class="st11" d="M508.1,241.9v38.5h-56.7v-38.5H508.1 M509.1,240.9h-58.7v40.5h58.7V240.9L509.1,240.9z"/>
			</g>
			<g>
				<rect x="450.9" y="265.8" class="st10" width="57.7" height="3.1"/>
				<path class="st11" d="M508.1,266.3v2.1h-56.7v-2.1H508.1 M509.1,265.3h-58.7v4.1h58.7V265.3L509.1,265.3z"/>
			</g>
		</g>
		<g>
			<path class="st10" d="M437,270.7c-4.9,0-8.9-4-8.9-8.9s4-8.9,8.9-8.9s8.9,4,8.9,8.9S441.9,270.7,437,270.7z"/>
			<path class="st11" d="M437,253.3c4.6,0,8.4,3.8,8.4,8.4s-3.8,8.4-8.4,8.4s-8.4-3.8-8.4-8.4S432.4,253.3,437,253.3 M437,252.3
				c-5.2,0-9.4,4.2-9.4,9.4s4.2,9.4,9.4,9.4c5.2,0,9.4-4.2,9.4-9.4S442.2,252.3,437,252.3L437,252.3z"/>
		</g>
		<g>
			<path class="st10" d="M460.3,304c-4.9,0-8.9-4-8.9-8.9s4-8.9,8.9-8.9s8.9,4,8.9,8.9C469.2,300,465.2,304,460.3,304z"/>
			<path class="st11" d="M460.3,286.7c4.6,0,8.4,3.8,8.4,8.4s-3.8,8.4-8.4,8.4s-8.4-3.8-8.4-8.4
				C451.9,290.4,455.7,286.7,460.3,286.7 M460.3,285.7c-5.2,0-9.4,4.2-9.4,9.4c0,5.2,4.2,9.4,9.4,9.4c5.2,0,9.4-4.2,9.4-9.4
				C469.7,289.9,465.5,285.7,460.3,285.7L460.3,285.7z"/>
		</g>
		<g>
			<path class="st10" d="M484.1,304c-4.9,0-8.9-4-8.9-8.9s4-8.9,8.9-8.9s8.9,4,8.9,8.9S489,304,484.1,304z"/>
			<path class="st11" d="M484.1,286.7c4.6,0,8.4,3.8,8.4,8.4s-3.8,8.4-8.4,8.4s-8.4-3.8-8.4-8.4
				C475.6,290.4,479.4,286.7,484.1,286.7 M484.1,285.7c-5.2,0-9.4,4.2-9.4,9.4c0,5.2,4.2,9.4,9.4,9.4c5.2,0,9.4-4.2,9.4-9.4
				C493.5,289.9,489.3,285.7,484.1,285.7L484.1,285.7z"/>
		</g>
		<g>
			<g>
				<rect x="337.3" y="73.8" class="st10" width="16.9" height="27.8"/>
				<path class="st11" d="M353.7,74.3v26.8h-15.9V74.3H353.7 M354.7,73.3h-17.9v28.8h17.9V73.3L354.7,73.3z"/>
			</g>
			<g>
				<circle class="st10" cx="345.8" cy="87.7" r="5.3"/>
				<path class="st11" d="M345.8,82.8c2.7,0,4.8,2.2,4.8,4.8c0,2.7-2.2,4.8-4.8,4.8c-2.7,0-4.8-2.2-4.8-4.8
					C340.9,85,343.1,82.8,345.8,82.8 M345.8,81.8c-3.2,0-5.8,2.6-5.8,5.8c0,3.2,2.6,5.8,5.8,5.8c3.2,0,5.8-2.6,5.8-5.8
					S349,81.8,345.8,81.8L345.8,81.8z"/>
			</g>
		</g>
		<g>
			<g>
				<path class="st10" d="M214,160.2v-34.4h23.9c5.8,0,10.5,4.7,10.5,10.5v23.9L214,160.2L214,160.2z"/>
				<path class="st11" d="M237.9,126.4c5.5,0,10,4.5,10,10v23.4h-33.4v-33.4L237.9,126.4 M237.9,125.4h-24.4v35.4h35.4v-24.4
					C248.9,130.3,244,125.4,237.9,125.4L237.9,125.4z"/>
			</g>
			<g>
				<path class="st10" d="M216.2,158.1V128h22c4.5,0,8.1,3.6,8.1,8.1v22H216.2z"/>
				<path class="st11" d="M238.2,127.5v1c4.2,0,7.6,3.4,7.6,7.6v21.5h-29.1v-29.1h21.5V127.5 M238.2,127.5h-22.5v31.1h31.1v-22.5
					C246.8,131.3,242.9,127.5,238.2,127.5L238.2,127.5z"/>
			</g>
			<ellipse class="st12" cx="222.6" cy="151.7" rx="1.3" ry="1.3"/>
		</g>
	</g>
</g>
<g id="комнаты">
	<g>
		<g>
			<path class="st7" d="M429.3,327.3l1.3-0.8h0.9v5.8h-1v-4.5l-1,0.6L429.3,327.3z"/>
			<path class="st7" d="M432.6,331.6l0.5-1c0.3,0.3,1,0.7,1.8,0.7c0.6,0,1.2-0.3,1.2-1c0-0.6-0.4-0.8-0.9-0.8c-0.6,0-1,0.3-1.4,0.6
				l-0.6-0.6v-3h3.5v1.1H434v1.4c0.4-0.3,0.7-0.6,1.3-0.6c0.9,0,1.8,0.6,1.8,1.9c0,1.5-1.1,2.2-2.2,2.2
				C433.7,332.5,433,331.9,432.6,331.6z"/>
			<path class="st7" d="M438.5,330.7c0.4,0,0.7,0.4,0.7,0.9c0,0.5-0.3,0.9-0.7,0.9c-0.4,0-0.7-0.4-0.7-0.9
				C437.8,331.1,438.1,330.7,438.5,330.7z"/>
			<path class="st7" d="M443.8,327.8c-0.3-0.2-0.8-0.3-1.2-0.3c-0.8,0-1.5,0.7-1.6,1.9c0.4-0.4,1-0.8,1.7-0.8c1.2,0,1.8,0.9,1.8,1.8
				c0,1.2-0.8,2.1-2,2.1c-1.2,0-2.4-1-2.4-3c0-2,1.2-3.2,2.5-3.2c0.8,0,1.4,0.3,1.7,0.5L443.8,327.8z M441.2,330.2
				c0.2,0.8,0.7,1.2,1.3,1.2c0.6,0,1-0.5,1-1c0-0.4-0.2-0.8-0.9-0.8C442.1,329.6,441.6,329.9,441.2,330.2z"/>
		</g>
	</g>
	<g>
		<g>
			<path class="st7" d="M399.1,105.5c-0.3-0.2-0.8-0.3-1.2-0.3c-0.8,0-1.5,0.7-1.5,1.9c0.4-0.4,1-0.8,1.7-0.8c1.2,0,1.8,0.9,1.8,1.8
				c0,1.2-0.8,2.1-2,2.1c-1.2,0-2.4-1-2.4-3c0-2,1.2-3.2,2.5-3.2c0.8,0,1.4,0.3,1.7,0.5L399.1,105.5z M396.4,107.9
				c0.2,0.8,0.7,1.2,1.3,1.2c0.6,0,1-0.5,1-1c0-0.4-0.2-0.8-0.9-0.8C397.3,107.3,396.8,107.6,396.4,107.9z"/>
			<path class="st7" d="M401.3,108.4c0.4,0,0.7,0.4,0.7,0.9c0,0.5-0.3,0.9-0.7,0.9c-0.4,0-0.7-0.4-0.7-0.9
				C400.6,108.8,400.9,108.4,401.3,108.4z"/>
			<path class="st7" d="M404.6,106.5h0.7c0.3,0,0.6-0.2,0.6-0.6c0-0.5-0.4-0.7-0.8-0.7c-0.5,0-1.1,0.4-1.5,0.9l-0.6-0.9
				c0.5-0.6,1.2-1.2,2.1-1.2c0.8,0,1.8,0.4,1.8,1.7c0,0.5-0.3,0.9-0.5,1.1c0.4,0.2,0.8,0.6,0.8,1.4c0,1.3-1,2-2.3,2
				c-0.9,0-1.6-0.4-2.3-1.2l0.6-0.9c0.4,0.6,1,1,1.7,1c0.7,0,1.2-0.4,1.2-1c0-0.5-0.4-0.6-0.7-0.6h-0.9V106.5z"/>
		</g>
	</g>
	<g>
		<g>
			<path class="st7" d="M279.6,131.3l0.5-1c0.3,0.3,0.9,0.7,1.8,0.7c0.6,0,1.2-0.3,1.2-1c0-0.6-0.4-0.8-0.9-0.8
				c-0.6,0-1,0.3-1.4,0.6l-0.6-0.6v-3h3.5v1.1H281v1.4c0.4-0.3,0.7-0.6,1.3-0.6c0.9,0,1.8,0.6,1.8,1.9c0,1.5-1.1,2.2-2.2,2.2
				C280.8,132.2,280,131.6,279.6,131.3z"/>
			<path class="st7" d="M285.6,130.4c0.4,0,0.7,0.4,0.7,0.9c0,0.5-0.3,0.9-0.7,0.9c-0.4,0-0.7-0.4-0.7-0.9
				C284.9,130.8,285.2,130.4,285.6,130.4z"/>
			<path class="st7" d="M290.9,127.5c-0.3-0.2-0.8-0.3-1.2-0.3c-0.8,0-1.5,0.7-1.5,1.9c0.4-0.4,1-0.8,1.7-0.8c1.2,0,1.8,0.9,1.8,1.8
				c0,1.2-0.8,2.1-2,2.1c-1.2,0-2.4-1-2.4-3c0-2,1.2-3.2,2.5-3.2c0.8,0,1.4,0.3,1.7,0.5L290.9,127.5z M288.2,129.9
				c0.2,0.8,0.7,1.2,1.3,1.2c0.6,0,1-0.5,1-1c0-0.4-0.2-0.8-0.9-0.8C289.1,129.3,288.6,129.6,288.2,129.9z"/>
		</g>
	</g>
	<g>
		<g>
			<path class="st7" d="M292.6,345.1l1.3-0.8h0.9v5.8h-1v-4.5l-1,0.6L292.6,345.1z"/>
			<path class="st7" d="M295.9,349.4l0.5-1c0.3,0.3,0.9,0.7,1.8,0.7c0.6,0,1.2-0.3,1.2-1c0-0.6-0.4-0.8-0.9-0.8
				c-0.6,0-1,0.3-1.4,0.6l-0.6-0.6v-3h3.5v1.1h-2.6v1.4c0.4-0.3,0.7-0.6,1.3-0.6c0.9,0,1.8,0.6,1.8,1.9c0,1.5-1.1,2.2-2.2,2.2
				C297,350.3,296.3,349.7,295.9,349.4z"/>
			<path class="st7" d="M301.8,348.5c0.4,0,0.7,0.4,0.7,0.9c0,0.5-0.3,0.9-0.7,0.9c-0.4,0-0.7-0.4-0.7-0.9
				C301.1,348.9,301.4,348.5,301.8,348.5z"/>
			<path class="st7" d="M303.2,345.1l1.3-0.8h0.9v5.8h-1v-4.5l-1,0.6L303.2,345.1z"/>
		</g>
	</g>
</g>
</svg>
