<?xml version="1.0" encoding="utf-8"?>
<!-- Generator: Adobe Illustrator 26.0.3, SVG Export Plug-In . SVG Version: 6.00 Build 0)  -->
<svg version="1.1" xmlns="http://www.w3.org/2000/svg" xmlns:xlink="http://www.w3.org/1999/xlink" x="0px" y="0px"
	 viewBox="0 0 720 480" style="enable-background:new 0 0 720 480;" xml:space="preserve">
<style type="text/css">
	.st0{fill:#DBD4CA;}
	.st1{clip-path:url(#SVGID_00000137819028104725950850000005960851049812317118_);}
	.st2{fill:none;stroke:#C49F8A;stroke-miterlimit:10;}
	.st3{opacity:0.3;clip-path:url(#SVGID_00000132770987187541761740000016640977785353692606_);}
	.st4{opacity:0.7;fill:#C49F8A;enable-background:new    ;}
	.st5{fill:none;stroke:#565440;}
	.st6{fill:#565440;}
	.st7{fill:#E9E4DC;}
	.st8{fill:#C49F8A;}
	.st9{fill:#E9E4DC;stroke:#C49F8A;}
	.st10{fill:#E9E4DC;stroke:#C49F8A;stroke-miterlimit:3.9998;}
	.st11{fill:none;stroke:#C49F8A;}
	.st12{fill:#E9E4DC;stroke:#C49F8A;stroke-linejoin:round;}
	.st13{opacity:0.68;}
	.st14{fill:#3F3F3F;fill-opacity:0;}
</style>
<g id="_x31__x5F_2">
	<rect id="Floor_1_" x="211" y="68.3" class="st0" width="295.1" height="351.7"/>
	<g id="Wet_Floor_2_">
		<g>
			<g>
				<defs>
					<rect id="SVGID_1_" x="360.7" y="312.8" width="139.4" height="106.4"/>
				</defs>
				<clipPath id="SVGID_00000111885756770928565790000009114334713608766620_">
					<use xlink:href="#SVGID_1_"  style="overflow:visible;"/>
				</clipPath>
				<g style="clip-path:url(#SVGID_00000111885756770928565790000009114334713608766620_);">
					<g>
						<line class="st2" x1="82.6" y1="293.7" x2="416.1" y2="-39.8"/>
						<line class="st2" x1="72.2" y1="283.2" x2="405.6" y2="-50.3"/>
						<line class="st2" x1="93" y1="304.1" x2="426.5" y2="-29.4"/>
						<line class="st2" x1="103.4" y1="314.5" x2="436.9" y2="-19"/>
						<line class="st2" x1="113.8" y1="324.9" x2="447.3" y2="-8.6"/>
						<line class="st2" x1="124.3" y1="335.3" x2="457.8" y2="1.9"/>
						<line class="st2" x1="134.7" y1="345.8" x2="468.2" y2="12.3"/>
						<line class="st2" x1="145.1" y1="356.2" x2="478.6" y2="22.7"/>
						<line class="st2" x1="155.5" y1="366.6" x2="489" y2="33.1"/>
						<line class="st2" x1="166" y1="377" x2="499.4" y2="43.5"/>
						<line class="st2" x1="155.5" y1="366.6" x2="489" y2="33.1"/>
						<line class="st2" x1="176.4" y1="387.4" x2="509.9" y2="54"/>
						<line class="st2" x1="186.8" y1="397.9" x2="520.3" y2="64.4"/>
						<line class="st2" x1="197.2" y1="408.3" x2="530.7" y2="74.8"/>
						<line class="st2" x1="207.6" y1="418.7" x2="541.1" y2="85.2"/>
						<line class="st2" x1="218.1" y1="429.1" x2="551.5" y2="95.6"/>
						<line class="st2" x1="228.5" y1="439.6" x2="562" y2="106.1"/>
						<line class="st2" x1="238.9" y1="450" x2="572.4" y2="116.5"/>
						<line class="st2" x1="249.3" y1="460.4" x2="582.8" y2="126.9"/>
						<line class="st2" x1="238.9" y1="450" x2="572.4" y2="116.5"/>
						<line class="st2" x1="259.7" y1="470.8" x2="593.2" y2="137.3"/>
						<line class="st2" x1="270.2" y1="481.2" x2="603.7" y2="147.8"/>
						<line class="st2" x1="280.6" y1="491.7" x2="614.1" y2="158.2"/>
						<line class="st2" x1="291" y1="502.1" x2="624.5" y2="168.6"/>
						<line class="st2" x1="301.4" y1="512.5" x2="634.9" y2="179"/>
						<line class="st2" x1="311.9" y1="522.9" x2="645.3" y2="189.4"/>
						<line class="st2" x1="322.3" y1="533.3" x2="655.8" y2="199.9"/>
						<line class="st2" x1="332.7" y1="543.8" x2="666.2" y2="210.3"/>
						<line class="st2" x1="322.3" y1="533.3" x2="655.8" y2="199.9"/>
						<line class="st2" x1="343.1" y1="554.2" x2="676.6" y2="220.7"/>
						<line class="st2" x1="353.5" y1="564.6" x2="687" y2="231.1"/>
						<line class="st2" x1="364" y1="575" x2="697.4" y2="241.5"/>
						<line class="st2" x1="374.4" y1="585.5" x2="707.9" y2="252"/>
						<line class="st2" x1="384.8" y1="595.9" x2="718.3" y2="262.4"/>
						<line class="st2" x1="395.2" y1="606.3" x2="728.7" y2="272.8"/>
						<line class="st2" x1="405.6" y1="616.7" x2="739.1" y2="283.2"/>
					</g>
					<g>
						<line class="st2" x1="416.1" y1="606.3" x2="82.6" y2="272.8"/>
						<line class="st2" x1="405.6" y1="616.7" x2="72.2" y2="283.2"/>
						<line class="st2" x1="426.5" y1="595.9" x2="93" y2="262.4"/>
						<line class="st2" x1="436.9" y1="585.5" x2="103.4" y2="252"/>
						<line class="st2" x1="447.3" y1="575" x2="113.8" y2="241.5"/>
						<line class="st2" x1="457.8" y1="564.6" x2="124.3" y2="231.1"/>
						<line class="st2" x1="468.2" y1="554.2" x2="134.7" y2="220.7"/>
						<line class="st2" x1="478.6" y1="543.8" x2="145.1" y2="210.3"/>
						<line class="st2" x1="489" y1="533.3" x2="155.5" y2="199.9"/>
						<line class="st2" x1="499.4" y1="522.9" x2="166" y2="189.4"/>
						<line class="st2" x1="489" y1="533.3" x2="155.5" y2="199.9"/>
						<line class="st2" x1="509.9" y1="512.5" x2="176.4" y2="179"/>
						<line class="st2" x1="520.3" y1="502.1" x2="186.8" y2="168.6"/>
						<line class="st2" x1="530.7" y1="491.7" x2="197.2" y2="158.2"/>
						<line class="st2" x1="541.1" y1="481.2" x2="207.6" y2="147.8"/>
						<line class="st2" x1="551.5" y1="470.8" x2="218.1" y2="137.3"/>
						<line class="st2" x1="562" y1="460.4" x2="228.5" y2="126.9"/>
						<line class="st2" x1="572.4" y1="450" x2="238.9" y2="116.5"/>
						<line class="st2" x1="582.8" y1="439.6" x2="249.3" y2="106.1"/>
						<line class="st2" x1="572.4" y1="450" x2="238.9" y2="116.5"/>
						<line class="st2" x1="593.2" y1="429.1" x2="259.7" y2="95.6"/>
						<line class="st2" x1="603.7" y1="418.7" x2="270.2" y2="85.2"/>
						<line class="st2" x1="614.1" y1="408.3" x2="280.6" y2="74.8"/>
						<line class="st2" x1="624.5" y1="397.9" x2="291" y2="64.4"/>
						<line class="st2" x1="634.9" y1="387.4" x2="301.4" y2="54"/>
						<line class="st2" x1="645.3" y1="377" x2="311.9" y2="43.5"/>
						<line class="st2" x1="655.8" y1="366.6" x2="322.3" y2="33.1"/>
						<line class="st2" x1="666.2" y1="356.2" x2="332.7" y2="22.7"/>
						<line class="st2" x1="655.8" y1="366.6" x2="322.3" y2="33.1"/>
						<line class="st2" x1="676.6" y1="345.8" x2="343.1" y2="12.3"/>
						<line class="st2" x1="687" y1="335.3" x2="353.5" y2="1.9"/>
						<line class="st2" x1="697.4" y1="324.9" x2="364" y2="-8.6"/>
						<line class="st2" x1="707.9" y1="314.5" x2="374.4" y2="-19"/>
						<line class="st2" x1="718.3" y1="304.1" x2="384.8" y2="-29.4"/>
						<line class="st2" x1="728.7" y1="293.7" x2="395.2" y2="-39.8"/>
						<line class="st2" x1="739.1" y1="283.2" x2="405.6" y2="-50.3"/>
					</g>
				</g>
			</g>
		</g>
		<g>
			<g>
				<defs>
					<rect id="SVGID_00000056423857972198253610000007157176098402439600_" x="360.7" y="312.8" width="139.4" height="106.4"/>
				</defs>
				<clipPath id="SVGID_00000181071200127351818330000013991530812063276463_">
					<use xlink:href="#SVGID_00000056423857972198253610000007157176098402439600_"  style="overflow:visible;"/>
				</clipPath>
				<g style="opacity:0.3;clip-path:url(#SVGID_00000181071200127351818330000013991530812063276463_);">
					<rect x="243.7" y="111.7" class="st4" width="322.2" height="322.2"/>
				</g>
			</g>
		</g>
	</g>
	<path id="Windows" class="st5" d="M500.7,62.1v6.2H269v-6.2L500.7,62.1z"/>
	<g id="Walls">
		<rect x="415.9" y="60" class="st6" width="29" height="20.7"/>
		<polygon class="st6" points="360.6,245.9 364.8,245.9 364.8,80.3 357.9,80.3 357.9,60 329,60 329,84.4 360.6,84.4 		"/>
		<path class="st6" d="M221.4,337h13.4v-15.3H298v-4.1h-76.6V84.8H271V60h-62v360h12.4h81v-12.4h-81V337z M230.6,321.7v11.2h-9.3
			v-11.2H230.6z"/>
		<path class="st6" d="M511,60h-12.4v250.3H364.8V279h-4.1v40.6h4.1v-5.2h133.8v77.7h-15.9v15.4H364.8v-54.8h-4.1v54.8h-16.9V420
			H511V60z M486.8,407.6v-11.3h11.8v11.3H486.8z"/>
	</g>
	<path id="Doors" class="st5" d="M364.8,245.9c4.6,0,8.3,0.8,12.4,2.5s7.9,4.1,10.8,7c3.3,2.9,5.8,6.6,7.4,10.8
		c1.7,4.1,2.5,8.3,2.5,12.8h-33.1 M364.8,352.8c4.6,0,8.3-0.8,12.4-2.5s7.9-4.1,10.8-7c3.3-2.9,5.8-6.6,7.4-10.8
		c1.7-4.1,2.5-8.3,2.5-12.8h-33.1 M343.8,420c0,5.4-1.2,10.3-3.3,15.3c-2.1,5-5,9.9-9.1,13.7c-3.7,3.7-8.3,7-13.2,9.1
		c-5,2.1-10.3,3.3-15.7,3.3V420"/>
	<g id="Furniture">
		<g>
			<rect x="221.9" y="249" class="st7" width="24.3" height="68"/>
			<path class="st8" d="M245.7,249.5v67h-23.3v-67H245.7 M246.7,248.5h-25.3v69h25.3V248.5L246.7,248.5z"/>
		</g>
		<g>
			<rect x="221.9" y="292.8" class="st7" width="75.6" height="24.3"/>
			<path class="st8" d="M297,293.3v23.3h-74.6v-23.3H297 M298,292.3h-76.6v25.3H298V292.3L298,292.3z"/>
		</g>
		<g>
			<g>
				<rect x="416.2" y="129.5" class="st7" width="82" height="67.2"/>
				<path class="st8" d="M416.7,130h81v66.2h-81V130 M415.7,129v68.2h83V129H415.7L415.7,129z"/>
			</g>
			<rect x="472.2" y="164.8" class="st9" width="20.5" height="26.6"/>
			<rect x="472.2" y="134.9" class="st9" width="20.5" height="26.6"/>
			<polygon class="st10" points="480.6,188.1 485.9,168.9 466.1,163.7 460.7,183 			"/>
			<polygon class="st10" points="466,162.4 485.9,157.2 480.6,138 460.7,143.1 			"/>
			<g>
				<polygon class="st7" points="415.3,196.7 415.3,129.5 480.8,129.5 482.5,156.3 476.5,196.7 				"/>
				<path class="st8" d="M415.8,130h64.1h0.4l1.7,26.2l-6,39.9h-60.2V130 M414.8,129v68.1h61.6h0.4l6.1-40.9l-1.7-27.3H480
					L414.8,129L414.8,129z"/>
			</g>
			<polyline class="st11" points="479.2,129.9 479.2,156.5 475.7,196.4 			"/>
		</g>
		<g>
			<g>
				<rect x="365.3" y="286" class="st7" width="132.8" height="1.8"/>
				<path class="st8" d="M497.6,286.5v0.8H365.8v-0.8H497.6 M498.6,285.5H364.8v2.8h133.8L498.6,285.5L498.6,285.5z"/>
			</g>
			<g>
				<rect x="365.3" y="287.8" class="st7" width="132.8" height="22"/>
				<path class="st8" d="M365.8,288.3h131.8v21H365.8V288.3 M364.8,287.3v23h133.8v-23H364.8L364.8,287.3z"/>
			</g>
			<path class="st9" d="M365.4,309.6l133-21.5"/>
		</g>
		<g>
			<g>
				<rect x="243.9" y="337.5" class="st7" width="1.8" height="69.6"/>
				<path class="st8" d="M245.2,338v68.6h-0.8V338H245.2 M246.2,337h-2.8v70.6h2.8V337L246.2,337z"/>
			</g>
			<g>
				<rect x="221.9" y="337.5" class="st7" width="22" height="69.6"/>
				<path class="st8" d="M243.4,338v68.6h-21V338H243.4 M244.4,337h-23v70.6h23V337L244.4,337z"/>
			</g>
			<path class="st9" d="M222.1,407.3l21.5-70.1"/>
		</g>
		<g>
			<g>
				<rect x="275.8" y="392.1" class="st7" width="22.1" height="1.8"/>
				<path class="st8" d="M276.3,392.6h21.1v0.8h-21.1V392.6 M275.3,391.6v2.8h23.1v-2.8H275.3L275.3,391.6z"/>
			</g>
			<g>
				<rect x="275.8" y="393.9" class="st7" width="22.1" height="13.2"/>
				<path class="st8" d="M276.3,394.4h21.1v12.2h-21.1V394.4 M275.3,393.4v14.2h23.1v-14.2H275.3L275.3,393.4z"/>
			</g>
			<path class="st9" d="M275.7,407.1l22.5-13.3"/>
		</g>
		<g>
			<g>
				<rect x="469.5" y="315" class="st7" width="28.7" height="76.7"/>
				<path class="st8" d="M470,315.5h27.7v75.7H470V315.5 M469,314.5v77.7h29.7v-77.7H469L469,314.5z"/>
			</g>
			<g>
				<g>
					<path class="st12" d="M483.8,382.7c5.5,0,9.8-4.8,9.3-10.2c-0.5-6-1-13.6-1-19.2s0.5-13.1,1-19.2c0.5-5.5-3.8-10.2-9.3-10.2
						s-9.8,4.8-9.3,10.2c0.5,6,1,13.6,1,19.2s-0.5,13.1-1,19.2C474,377.9,478.3,382.7,483.8,382.7z"/>
					<ellipse class="st12" cx="483.8" cy="373.1" rx="1.2" ry="1.2"/>
				</g>
			</g>
		</g>
		<g>
			<g id="Rectangle_16_x5F_11_2_">
				<rect x="437.3" y="389.3" class="st7" width="23.4" height="17.8"/>
				<path class="st8" d="M460.1,389.8v16.8h-22.4v-16.8H460.1 M461.1,388.8h-24.4v18.8h24.4V388.8L461.1,388.8z"/>
			</g>
			<path id="Rectangle_19_x5F_5_2_" class="st9" d="M458.8,398.2L458.8,398.2c0-3.2-2.6-5.8-5.8-5.8h-8.2c-3.2,0-5.8,2.6-5.8,5.8
				l0,0c0,3.2,2.6,5.8,5.8,5.8h8.2C456.2,404,458.8,401.4,458.8,398.2z"/>
			<circle id="Ellipse_7_x5F_2_2_" class="st9" cx="448.9" cy="400.8" r="1.2"/>
		</g>
		<g id="Sink_3">
			<rect id="Rectangle_28_x5F_2" x="225" y="294.9" class="st9" width="31.3" height="19.8"/>
			<path id="Rectangle_29_x5F_2" class="st9" d="M237.2,304.8L237.2,304.8c0-4.1,3.3-7.4,7.4-7.4h1.6c4.1,0,7.4,3.3,7.4,7.4l0,0
				c0,4.1-3.3,7.4-7.4,7.4h-1.6C240.6,312.2,237.2,308.9,237.2,304.8z"/>
			<ellipse id="Ellipse_7_x5F_3" class="st9" cx="245.5" cy="308.1" rx="1.2" ry="1.2"/>
			<path id="Vector_2" class="st11" d="M226.6,312.2h8.2 M226.6,309.7h8.2 M226.6,307.3h8.2 M226.6,304.8h8.2 M226.6,302.3h8.2
				 M226.6,299.8h8.2 M226.6,297.4h8.2"/>
		</g>
		<g id="Stove">
			<g id="Rectangle_25">
				<rect x="221.9" y="249" class="st7" width="24.3" height="23.7"/>
				<path class="st8" d="M245.7,249.5v22.7h-23.3v-22.7L245.7,249.5 M246.7,248.5h-25.3v24.7h25.3V248.5L246.7,248.5z"/>
			</g>
			<g id="Rectangle_28_x5F_3_1_">
				<rect x="221.9" y="249" class="st7" width="1.8" height="23.7"/>
				<path class="st8" d="M223.2,249.5v22.7h-0.8v-22.7L223.2,249.5 M224.2,248.5h-2.8v24.7h2.8V248.5L224.2,248.5z"/>
			</g>
			<g id="Ellipse_7_x5F_4">
				<circle class="st7" cx="230.3" cy="256.7" r="2.4"/>
				<path class="st8" d="M230.3,254.8c1.1,0,1.9,0.9,1.9,1.9c0,1.1-0.9,1.9-1.9,1.9s-1.9-0.9-1.9-1.9
					C228.4,255.6,229.2,254.8,230.3,254.8 M230.3,253.8c-1.6,0-2.9,1.3-2.9,2.9s1.3,2.9,2.9,2.9s2.9-1.3,2.9-2.9
					S231.9,253.8,230.3,253.8L230.3,253.8z"/>
			</g>
			<g id="Ellipse_9">
				<path class="st7" d="M239.1,259.9c-1.7,0-3.2-1.4-3.2-3.2c0-1.7,1.4-3.2,3.2-3.2s3.2,1.4,3.2,3.2
					C242.3,258.4,240.9,259.9,239.1,259.9z"/>
				<path class="st8" d="M239.1,254c1.5,0,2.7,1.2,2.7,2.7c0,1.5-1.2,2.7-2.7,2.7s-2.7-1.2-2.7-2.7S237.6,254,239.1,254 M239.1,253
					c-2,0-3.7,1.6-3.7,3.7c0,2,1.6,3.7,3.7,3.7s3.7-1.6,3.7-3.7C242.8,254.7,241.1,253,239.1,253L239.1,253z"/>
			</g>
			<g id="Ellipse_10">
				<path class="st7" d="M230.3,270.1c-1.7,0-3.2-1.4-3.2-3.2c0-1.7,1.4-3.2,3.2-3.2s3.2,1.4,3.2,3.2S232,270.1,230.3,270.1z"/>
				<path class="st8" d="M230.3,264.3c1.5,0,2.7,1.2,2.7,2.7s-1.2,2.7-2.7,2.7s-2.7-1.2-2.7-2.7S228.8,264.3,230.3,264.3
					 M230.3,263.3c-2,0-3.7,1.6-3.7,3.7s1.6,3.7,3.7,3.7s3.7-1.6,3.7-3.7S232.3,263.3,230.3,263.3L230.3,263.3z"/>
			</g>
			<g id="Ellipse_8">
				<circle class="st7" cx="239.8" cy="267" r="2.4"/>
				<path class="st8" d="M239.8,265c1.1,0,1.9,0.9,1.9,1.9c0,1.1-0.9,1.9-1.9,1.9s-1.9-0.9-1.9-1.9C237.9,265.9,238.8,265,239.8,265
					 M239.8,264c-1.6,0-2.9,1.3-2.9,2.9s1.3,2.9,2.9,2.9c1.6,0,2.9-1.3,2.9-2.9C242.8,265.3,241.5,264,239.8,264L239.8,264z"/>
			</g>
		</g>
		<g id="Toilet_1_">
			<g id="Rectangle_21_1_">
				<rect x="411.8" y="392.7" class="st7" width="16.8" height="5.6"/>
				<path class="st8" d="M428.1,393.2v4.6h-15.8v-4.6H428.1 M429.1,392.2h-17.8v6.6h17.8V392.2L429.1,392.2z"/>
			</g>
			<path id="Rectangle_19_x5F_2_1_" class="st9" d="M426.5,380.9c0.2-3.7-2.7-6.8-6.3-6.8l0,0c-3.7,0-6.6,3.1-6.3,6.8l0.8,11.8h11.1
				L426.5,380.9z"/>
			<path id="Rectangle_18_x5F_13_1_" class="st9" d="M424.5,381.2c0.2-2.5-1.8-4.7-4.3-4.7l0,0c-2.5,0-4.5,2.2-4.3,4.7l0.6,6.9h7.4
				L424.5,381.2z"/>
			<ellipse id="Ellipse_6_x5F_2_1_" class="st9" cx="420.2" cy="385.2" rx="1.2" ry="1.2"/>
		</g>
		<g>
			<g>
				<rect x="262" y="293.6" class="st7" width="23.5" height="23.5"/>
				<path class="st8" d="M285,294.1v22.5h-22.5v-22.5H285 M286,293.1h-24.5v24.5H286V293.1L286,293.1z"/>
			</g>
			<g id="Rectangle_27_2_">
				<rect x="262" y="292.8" class="st7" width="23.5" height="1.8"/>
				<path class="st8" d="M285,293.3v0.8h-22.5v-0.8H285 M286,292.3h-24.5v2.8H286V292.3L286,292.3z"/>
			</g>
			<path id="Vector_3" class="st11" d="M269.8,305.5h7.9 M271.8,302l3.9,7 M271.8,309l3.9-7"/>
		</g>
		<g>
			<path class="st9" d="M481.3,109.2h-17.4l-2.3-15.8h22.1L481.3,109.2z"/>
			<g>
				<rect x="445.3" y="69.2" class="st7" width="52.8" height="25.8"/>
				<path class="st8" d="M497.6,69.7v24.8h-51.8V69.7H497.6 M498.6,68.7h-53.8v26.8h53.8V68.7L498.6,68.7z"/>
			</g>
			<path class="st11" d="M479.3,87.5h-13.4 M480.5,90.7h-15.8V86h15.8V90.7z"/>
			<path class="st9" d="M486.1,91L486.1,91c-0.7,0-1.2-0.5-1.2-1.2v-1.6c0-0.7,0.5-1.2,1.2-1.2l0,0c0.7,0,1.2,0.5,1.2,1.2v1.6
				C487.3,90.4,486.8,91,486.1,91z"/>
			<path class="st9" d="M476.5,78.3c0,2.2-1.8,3.9-4,3.9s-3.9-1.8-3.9-4v-3.9h7.9V78.3z"/>
			<g>
				<rect x="464.2" y="95.3" class="st7" width="16.9" height="14.3"/>
				<path class="st8" d="M480.6,95.8v13.3h-15.9V95.8H480.6 M481.6,94.8h-17.9v15.3h17.9V94.8L481.6,94.8z"/>
			</g>
			<g>
				<rect x="463.9" y="109.6" class="st7" width="17.4" height="1.8"/>
				<path class="st8" d="M480.8,110.1v0.8h-16.4v-0.8H480.8 M481.8,109.1h-18.4v2.8h18.4V109.1L481.8,109.1z"/>
			</g>
			<g>
				<rect x="453.4" y="73.1" class="st7" width="38.3" height="2.5"/>
				<path class="st8" d="M491.3,73.6v1.5H454v-1.5H491.3 M492.3,72.6H453v3.5h39.3V72.6L492.3,72.6z"/>
			</g>
		</g>
		<g>
			<g>
				<path class="st7" d="M331,168.9c-1,0-1.8-0.8-1.8-1.8v-36c0-1,0.8-1.8,1.8-1.8h23.6v39.6H331z"/>
				<path class="st8" d="M331,128.7v1h23.1v38.6H331c-0.7,0-1.3-0.6-1.3-1.3v-36c0-0.7,0.6-1.3,1.3-1.3V128.7 M331,128.7
					c-1.3,0-2.3,1-2.3,2.3v36c0,1.3,1,2.3,2.3,2.3h24.1v-40.6L331,128.7L331,128.7z"/>
			</g>
			<g>
				<path class="st7" d="M331,129.9c-1,0-1.8-0.8-1.8-1.8v-36c0-1,0.8-1.8,1.8-1.8h23.6v39.6H331z"/>
				<path class="st8" d="M354.1,90.9v38.6H331c-0.7,0-1.3-0.6-1.3-1.3v-36c0-0.7,0.6-1.3,1.3-1.3L354.1,90.9 M355.1,89.9H331
					c-1.3,0-2.3,1-2.3,2.3v36c0,1.3,1,2.3,2.3,2.3h24.1V89.9L355.1,89.9z"/>
			</g>
			<g>
				<polygon class="st7" points="327.3,174.4 327.3,168.2 354,168.2 354,91 327.3,91 327.3,84.9 360.2,84.9 360.2,174.4 				"/>
				<path class="st8" d="M359.7,85.4v88.5h-31.9v-5.2h25.7h1v-1v-38.1V91.5v-1h-1h-25.7v-5.2L359.7,85.4 M360.7,84.4h-33.9v7.2h26.7
					v38.1v38.1h-26.7v7.2h33.9V84.4L360.7,84.4z"/>
			</g>
		</g>
		<g>
			<rect x="221.9" y="211.9" class="st7" width="55.4" height="37.1"/>
			<path class="st8" d="M276.7,212.4v36.1h-54.4v-36.1H276.7 M277.7,211.4h-56.4v38.1h56.4V211.4L277.7,211.4z"/>
		</g>
		<g>
			<rect x="221.9" y="223.8" class="st7" width="55.4" height="3.3"/>
			<path class="st8" d="M276.7,224.3v2.3h-54.4v-2.3H276.7 M277.7,223.3h-56.4v4.3h56.4V223.3L277.7,223.3z"/>
		</g>
		<g>
			<path class="st7" d="M246.9,206c-4.5,0-8.2-3.7-8.2-8.2s3.7-8.2,8.2-8.2s8.2,3.7,8.2,8.2C255.1,202.3,251.4,206,246.9,206z"/>
			<path class="st8" d="M246.9,190.1c4.2,0,7.7,3.4,7.7,7.7s-3.4,7.7-7.7,7.7s-7.7-3.4-7.7-7.7S242.6,190.1,246.9,190.1
				 M246.9,189.1c-4.8,0-8.7,3.9-8.7,8.7s3.9,8.7,8.7,8.7s8.7-3.9,8.7-8.7S251.7,189.1,246.9,189.1L246.9,189.1z"/>
		</g>
		<g>
			<path class="st7" d="M270,206c-4.5,0-8.2-3.7-8.2-8.2s3.7-8.2,8.2-8.2s8.2,3.7,8.2,8.2S274.5,206,270,206z"/>
			<path class="st8" d="M270,190.1c4.2,0,7.7,3.4,7.7,7.7s-3.4,7.7-7.7,7.7s-7.7-3.4-7.7-7.7S265.8,190.1,270,190.1 M270,189.1
				c-4.8,0-8.7,3.9-8.7,8.7s3.9,8.7,8.7,8.7s8.7-3.9,8.7-8.7S274.8,189.1,270,189.1L270,189.1z"/>
		</g>
		<g>
			<path class="st7" d="M291,237.7c-4.5,0-8.2-3.7-8.2-8.2s3.7-8.2,8.2-8.2s8.2,3.7,8.2,8.2S295.5,237.7,291,237.7z"/>
			<path class="st8" d="M291,221.8c4.2,0,7.7,3.4,7.7,7.7s-3.4,7.7-7.7,7.7c-4.2,0-7.7-3.4-7.7-7.7S286.7,221.8,291,221.8
				 M291,220.8c-4.8,0-8.7,3.9-8.7,8.7s3.9,8.7,8.7,8.7c4.8,0,8.7-3.9,8.7-8.7S295.8,220.8,291,220.8L291,220.8z"/>
		</g>
		<g id="TV">
			<g id="Rectangle_16">
				<rect x="232.4" y="96.3" class="st7" width="1.8" height="63.6"/>
				<path class="st8" d="M233.7,96.8v62.6h-0.8V96.8H233.7 M234.7,95.8h-2.8v64.6h2.8V95.8L234.7,95.8z"/>
			</g>
			<g id="Rectangle_15">
				<rect x="221.8" y="96.3" class="st7" width="10.6" height="63.6"/>
				<path class="st8" d="M231.9,96.8v62.6h-9.6V96.8H231.9 M232.9,95.8h-11.6v64.6h11.6V95.8L232.9,95.8z"/>
			</g>
			<g id="Rectangle_17">
				<rect x="223.5" y="107.1" class="st7" width="1.8" height="41.9"/>
				<path class="st8" d="M224.8,107.6v40.9H224v-40.9H224.8 M225.8,106.6H223v42.9h2.8V106.6L225.8,106.6z"/>
			</g>
			<path id="Rectangle_18_x5F_2" class="st9" d="M223.5,137.1V119l-1.6,1.6v14.9L223.5,137.1z"/>
		</g>
		<g id="TV_1_">
			<g id="Rectangle_16_1_">
				<rect x="375.9" y="131.3" class="st7" width="1.8" height="63.6"/>
				<path class="st8" d="M377.2,131.8v62.6h-0.8v-62.6L377.2,131.8 M378.2,130.8h-2.8v64.6h2.8V130.8L378.2,130.8z"/>
			</g>
			<g id="Rectangle_15_1_">
				<rect x="365.3" y="131.3" class="st7" width="10.6" height="63.6"/>
				<path class="st8" d="M375.4,131.8v62.6h-9.6v-62.6L375.4,131.8 M376.4,130.8h-11.6v64.6h11.6V130.8L376.4,130.8z"/>
			</g>
			<g id="Rectangle_17_1_">
				<rect x="366.9" y="142.2" class="st7" width="1.8" height="41.9"/>
				<path class="st8" d="M368.3,142.7v40.9h-0.8v-40.9L368.3,142.7 M369.3,141.7h-2.8v42.9h2.8V141.7L369.3,141.7z"/>
			</g>
			<path id="Rectangle_18_x5F_2_1_" class="st9" d="M366.9,154v18.1l-1.6-1.6v-14.9L366.9,154z"/>
		</g>
		<g>
			<rect x="394.2" y="398.3" class="st7" width="43.1" height="8.9"/>
			<path class="st8" d="M436.7,398.8v7.9h-42.1v-7.9H436.7 M437.7,397.8h-44.1v9.9h44.1V397.8L437.7,397.8z"/>
		</g>
		<g>
			<rect x="221.9" y="249" class="st7" width="24.3" height="1.8"/>
			<path class="st8" d="M245.7,249.5v0.8h-23.3v-0.8H245.7 M246.7,248.5h-25.3v2.8h25.3V248.5L246.7,248.5z"/>
		</g>
		<g>
			<g>
				<rect x="365.3" y="382.6" class="st7" width="16.4" height="24.5"/>
				<path class="st8" d="M381.2,383.1v23.5h-15.4v-23.5H381.2 M382.2,382.1h-17.4v25.5h17.4V382.1L382.2,382.1z"/>
			</g>
			<g>
				<path class="st7" d="M373.5,400c-2.9,0-5.2-2.3-5.2-5.2s2.3-5.2,5.2-5.2c2.9,0,5.2,2.3,5.2,5.2S376.4,400,373.5,400z"/>
				<path class="st8" d="M373.5,390.2c2.6,0,4.7,2.1,4.7,4.7s-2.1,4.7-4.7,4.7s-4.7-2.1-4.7-4.7
					C368.8,392.3,370.9,390.2,373.5,390.2 M373.5,389.2c-3.1,0-5.7,2.5-5.7,5.7s2.5,5.7,5.7,5.7s5.7-2.5,5.7-5.7
					S376.6,389.2,373.5,389.2L373.5,389.2z"/>
			</g>
		</g>
	</g>
	<g id="street_anchors" class="st13">
		<rect id="street_x5F_anchor_x5F_01_1_" x="355" y="20" class="st14" width="10" height="10"/>
	</g>
</g>
<g id="комнаты">
	<g>
		<g>
			<path class="st6" d="M324.3,361.8c-0.3-0.2-0.8-0.3-1.2-0.3c-0.8,0-1.5,0.7-1.5,1.9c0.4-0.4,1-0.8,1.7-0.8c1.2,0,1.8,0.9,1.8,1.8
				c0,1.2-0.8,2.1-2,2.1c-1.2,0-2.4-1-2.4-3c0-2,1.2-3.2,2.5-3.2c0.8,0,1.4,0.3,1.7,0.5L324.3,361.8z M321.6,364.2
				c0.2,0.8,0.7,1.2,1.3,1.2c0.6,0,1-0.5,1-1c0-0.4-0.2-0.8-0.9-0.8C322.5,363.6,322,363.9,321.6,364.2z"/>
			<path class="st6" d="M326.5,364.7c0.4,0,0.7,0.4,0.7,0.9c0,0.5-0.3,0.9-0.7,0.9c-0.4,0-0.7-0.4-0.7-0.9
				C325.8,365.1,326.1,364.7,326.5,364.7z"/>
			<path class="st6" d="M329.8,362.8h0.7c0.3,0,0.6-0.2,0.6-0.6c0-0.5-0.4-0.7-0.8-0.7c-0.5,0-1.1,0.4-1.5,0.9l-0.6-0.9
				c0.5-0.6,1.2-1.2,2.1-1.2c0.8,0,1.8,0.4,1.8,1.7c0,0.5-0.3,0.9-0.5,1.1c0.4,0.2,0.8,0.6,0.8,1.4c0,1.3-1,2-2.3,2
				c-0.9,0-1.6-0.4-2.3-1.2l0.6-0.9c0.4,0.6,1,1,1.7,1c0.7,0,1.2-0.4,1.2-1c0-0.5-0.4-0.6-0.7-0.6h-0.9V362.8z"/>
		</g>
	</g>
	<g>
		<g>
			<path class="st6" d="M282.5,164.3l1.3-0.8h0.9v5.8h-1v-4.5l-1,0.6L282.5,164.3z"/>
			<path class="st6" d="M285.9,163.5h4v1.1l-2.3,4.7h-1.3l2.4-4.6h-2.8V163.5z"/>
			<path class="st6" d="M291.4,167.7c0.4,0,0.7,0.4,0.7,0.9c0,0.5-0.3,0.9-0.7,0.9c-0.4,0-0.7-0.4-0.7-0.9
				C290.7,168.1,291,167.7,291.4,167.7z"/>
			<path class="st6" d="M293,167.6c0-0.8,0.4-1.3,0.9-1.5c-0.4-0.2-0.7-0.6-0.7-1.2c0-1.1,1.1-1.6,2-1.6c0.9,0,2,0.5,2,1.7
				c0,0.6-0.2,0.9-0.7,1.1c0.5,0.2,0.9,0.7,0.9,1.5c0,1.2-1.1,1.9-2.2,1.9C294.1,169.5,293,168.8,293,167.6z M296.3,167.5
				c0-0.6-0.6-0.8-1.1-0.8c-0.5,0-1.1,0.3-1.1,0.8c0,0.5,0.6,0.9,1.1,0.9C295.8,168.4,296.3,168.1,296.3,167.5z M296.1,165.1
				c0-0.5-0.5-0.7-0.9-0.7c-0.4,0-0.9,0.2-0.9,0.7c0,0.4,0.3,0.6,0.9,0.6C295.8,165.7,296.1,165.5,296.1,165.1z"/>
		</g>
	</g>
	<g>
		<g>
			<path class="st6" d="M423.8,227.5l1.3-0.8h0.9v5.8h-1V228l-1,0.6L423.8,227.5z"/>
			<path class="st6" d="M431,228c-0.3-0.2-0.8-0.3-1.2-0.3c-0.8,0-1.5,0.7-1.6,1.9c0.4-0.4,1-0.8,1.7-0.8c1.2,0,1.8,0.9,1.8,1.8
				c0,1.2-0.8,2.1-2,2.1c-1.2,0-2.4-1-2.4-3c0-2,1.2-3.2,2.5-3.2c0.8,0,1.4,0.3,1.7,0.5L431,228z M428.3,230.4
				c0.2,0.8,0.7,1.2,1.3,1.2c0.6,0,1-0.5,1-1c0-0.4-0.2-0.8-0.9-0.8C429.2,229.8,428.7,230.1,428.3,230.4z"/>
			<path class="st6" d="M433.2,230.9c0.4,0,0.7,0.4,0.7,0.9c0,0.5-0.3,0.9-0.7,0.9c-0.4,0-0.7-0.4-0.7-0.9
				C432.5,231.3,432.8,230.9,433.2,230.9z"/>
			<path class="st6" d="M438.5,228c-0.3-0.2-0.8-0.3-1.2-0.3c-0.8,0-1.5,0.7-1.6,1.9c0.4-0.4,1-0.8,1.7-0.8c1.2,0,1.8,0.9,1.8,1.8
				c0,1.2-0.8,2.1-2,2.1c-1.2,0-2.4-1-2.4-3c0-2,1.2-3.2,2.5-3.2c0.8,0,1.4,0.3,1.7,0.5L438.5,228z M435.8,230.4
				c0.2,0.8,0.7,1.2,1.3,1.2c0.6,0,1-0.5,1-1c0-0.4-0.2-0.8-0.9-0.8C436.7,229.8,436.2,230.1,435.8,230.4z"/>
		</g>
	</g>
	<g>
		<g>
			<path class="st6" d="M431.4,344.2c-0.3-0.2-0.8-0.3-1.2-0.3c-0.8,0-1.5,0.7-1.6,1.9c0.4-0.4,1-0.8,1.7-0.8c1.2,0,1.8,0.9,1.8,1.8
				c0,1.2-0.8,2.1-2,2.1c-1.2,0-2.4-1-2.4-3c0-2,1.2-3.2,2.5-3.2c0.8,0,1.4,0.3,1.7,0.5L431.4,344.2z M428.8,346.6
				c0.2,0.8,0.7,1.2,1.3,1.2c0.6,0,1-0.5,1-1c0-0.4-0.2-0.8-0.9-0.8C429.7,346,429.1,346.3,428.8,346.6z"/>
			<path class="st6" d="M433.6,347.1c0.4,0,0.7,0.4,0.7,0.9c0,0.5-0.3,0.9-0.7,0.9c-0.4,0-0.7-0.4-0.7-0.9
				C432.9,347.5,433.2,347.1,433.6,347.1z"/>
			<path class="st6" d="M435.2,342.9h4v1.1l-2.3,4.7h-1.3l2.4-4.6h-2.8V342.9z"/>
		</g>
	</g>
</g>
</svg>
