<?xml version="1.0" encoding="utf-8"?>
<!-- Generator: Adobe Illustrator 26.0.3, SVG Export Plug-In . SVG Version: 6.00 Build 0)  -->
<svg version="1.1" xmlns="http://www.w3.org/2000/svg" xmlns:xlink="http://www.w3.org/1999/xlink" x="0px" y="0px"
	 viewBox="0 0 720 480" style="enable-background:new 0 0 720 480;" xml:space="preserve">
<style type="text/css">
	.st0{fill:#DBD4CA;}
	.st1{clip-path:url(#SVGID_00000057839939615475942080000006949400888224900231_);}
	.st2{fill:none;stroke:#C49F8A;stroke-miterlimit:10;}
	.st3{opacity:0.3;clip-path:url(#SVGID_00000029027688676151332080000017756232343320113548_);}
	.st4{opacity:0.7;fill:#C49F8A;enable-background:new    ;}
	.st5{fill:none;stroke:#565440;}
	.st6{fill:none;stroke:#565440;stroke-width:1;stroke-miterlimit:4.0004;}
	.st7{fill:#565440;}
	.st8{fill:#E9E4DC;}
	.st9{fill:#C49F8A;}
	.st10{fill:#E9E4DC;stroke:#C49F8A;}
	.st11{fill:#E9E4DC;stroke:#C49F8A;stroke-miterlimit:3.9998;}
	.st12{fill:none;stroke:#C49F8A;}
	.st13{fill:#E9E4DC;stroke:#C49F8A;stroke-linejoin:round;}
	.st14{opacity:0;}
	.st15{fill:#3F3F3F;fill-opacity:0;}
</style>
<g id="_x31__x5F_2">
	<polygon id="Floor" class="st0" points="205.6,60.4 519.2,60.4 519.2,392.8 493.8,392.8 489,410.1 390.8,383.3 352.6,383.3 
		342.7,410.8 267.5,390.8 207.1,390.8 	"/>
	<g id="Wet_Floor_2_">
		<g>
			<g>
				<defs>
					<rect id="SVGID_1_" x="294.2" y="63" width="220.4" height="100.5"/>
				</defs>
				<clipPath id="SVGID_00000039100383257125367050000014667861773370930837_">
					<use xlink:href="#SVGID_1_"  style="overflow:visible;"/>
				</clipPath>
				<g style="clip-path:url(#SVGID_00000039100383257125367050000014667861773370930837_);">
					<g>
						<line class="st2" x1="72.9" y1="131.6" x2="406.4" y2="-201.9"/>
						<line class="st2" x1="62.5" y1="121.1" x2="396" y2="-212.3"/>
						<line class="st2" x1="83.3" y1="142" x2="416.8" y2="-191.5"/>
						<line class="st2" x1="93.7" y1="152.4" x2="427.2" y2="-181.1"/>
						<line class="st2" x1="104.2" y1="162.8" x2="437.6" y2="-170.6"/>
						<line class="st2" x1="114.6" y1="173.3" x2="448.1" y2="-160.2"/>
						<line class="st2" x1="125" y1="183.7" x2="458.5" y2="-149.8"/>
						<line class="st2" x1="135.4" y1="194.1" x2="468.9" y2="-139.4"/>
						<line class="st2" x1="145.8" y1="204.5" x2="479.3" y2="-129"/>
						<line class="st2" x1="156.3" y1="214.9" x2="489.8" y2="-118.5"/>
						<line class="st2" x1="145.8" y1="204.5" x2="479.3" y2="-129"/>
						<line class="st2" x1="166.7" y1="225.4" x2="500.2" y2="-108.1"/>
						<line class="st2" x1="177.1" y1="235.8" x2="510.6" y2="-97.7"/>
						<line class="st2" x1="187.5" y1="246.2" x2="521" y2="-87.3"/>
						<line class="st2" x1="198" y1="256.6" x2="531.4" y2="-76.9"/>
						<line class="st2" x1="208.4" y1="267" x2="541.9" y2="-66.4"/>
						<line class="st2" x1="218.8" y1="277.5" x2="552.3" y2="-56"/>
						<line class="st2" x1="229.2" y1="287.9" x2="562.7" y2="-45.6"/>
						<line class="st2" x1="239.6" y1="298.3" x2="573.1" y2="-35.2"/>
						<line class="st2" x1="229.2" y1="287.9" x2="562.7" y2="-45.6"/>
						<line class="st2" x1="250.1" y1="308.7" x2="583.5" y2="-24.7"/>
						<line class="st2" x1="260.5" y1="319.2" x2="594" y2="-14.3"/>
						<line class="st2" x1="270.9" y1="329.6" x2="604.4" y2="-3.9"/>
						<line class="st2" x1="281.3" y1="340" x2="614.8" y2="6.5"/>
						<line class="st2" x1="291.7" y1="350.4" x2="625.2" y2="16.9"/>
						<line class="st2" x1="302.2" y1="360.8" x2="635.7" y2="27.4"/>
						<line class="st2" x1="312.6" y1="371.3" x2="646.1" y2="37.8"/>
						<line class="st2" x1="323" y1="381.7" x2="656.5" y2="48.2"/>
						<line class="st2" x1="312.6" y1="371.3" x2="646.1" y2="37.8"/>
						<line class="st2" x1="333.4" y1="392.1" x2="666.9" y2="58.6"/>
						<line class="st2" x1="343.9" y1="402.5" x2="677.3" y2="69"/>
						<line class="st2" x1="354.3" y1="412.9" x2="687.8" y2="79.5"/>
						<line class="st2" x1="364.7" y1="423.4" x2="698.2" y2="89.9"/>
						<line class="st2" x1="375.1" y1="433.8" x2="708.6" y2="100.3"/>
						<line class="st2" x1="385.5" y1="444.2" x2="719" y2="110.7"/>
						<line class="st2" x1="396" y1="454.6" x2="729.4" y2="121.1"/>
					</g>
					<g>
						<line class="st2" x1="406.4" y1="444.2" x2="72.9" y2="110.7"/>
						<line class="st2" x1="396" y1="454.6" x2="62.5" y2="121.1"/>
						<line class="st2" x1="416.8" y1="433.8" x2="83.3" y2="100.3"/>
						<line class="st2" x1="427.2" y1="423.4" x2="93.7" y2="89.9"/>
						<line class="st2" x1="437.6" y1="412.9" x2="104.2" y2="79.5"/>
						<line class="st2" x1="448.1" y1="402.5" x2="114.6" y2="69"/>
						<line class="st2" x1="458.5" y1="392.1" x2="125" y2="58.6"/>
						<line class="st2" x1="468.9" y1="381.7" x2="135.4" y2="48.2"/>
						<line class="st2" x1="479.3" y1="371.3" x2="145.8" y2="37.8"/>
						<line class="st2" x1="489.8" y1="360.8" x2="156.3" y2="27.4"/>
						<line class="st2" x1="479.3" y1="371.3" x2="145.8" y2="37.8"/>
						<line class="st2" x1="500.2" y1="350.4" x2="166.7" y2="16.9"/>
						<line class="st2" x1="510.6" y1="340" x2="177.1" y2="6.5"/>
						<line class="st2" x1="521" y1="329.6" x2="187.5" y2="-3.9"/>
						<line class="st2" x1="531.4" y1="319.2" x2="198" y2="-14.3"/>
						<line class="st2" x1="541.9" y1="308.7" x2="208.4" y2="-24.7"/>
						<line class="st2" x1="552.3" y1="298.3" x2="218.8" y2="-35.2"/>
						<line class="st2" x1="562.7" y1="287.9" x2="229.2" y2="-45.6"/>
						<line class="st2" x1="573.1" y1="277.5" x2="239.6" y2="-56"/>
						<line class="st2" x1="562.7" y1="287.9" x2="229.2" y2="-45.6"/>
						<line class="st2" x1="583.5" y1="267" x2="250.1" y2="-66.4"/>
						<line class="st2" x1="594" y1="256.6" x2="260.5" y2="-76.9"/>
						<line class="st2" x1="604.4" y1="246.2" x2="270.9" y2="-87.3"/>
						<line class="st2" x1="614.8" y1="235.8" x2="281.3" y2="-97.7"/>
						<line class="st2" x1="625.2" y1="225.4" x2="291.7" y2="-108.1"/>
						<line class="st2" x1="635.7" y1="214.9" x2="302.2" y2="-118.5"/>
						<line class="st2" x1="646.1" y1="204.5" x2="312.6" y2="-129"/>
						<line class="st2" x1="656.5" y1="194.1" x2="323" y2="-139.4"/>
						<line class="st2" x1="646.1" y1="204.5" x2="312.6" y2="-129"/>
						<line class="st2" x1="666.9" y1="183.7" x2="333.4" y2="-149.8"/>
						<line class="st2" x1="677.3" y1="173.3" x2="343.9" y2="-160.2"/>
						<line class="st2" x1="687.8" y1="162.8" x2="354.3" y2="-170.6"/>
						<line class="st2" x1="698.2" y1="152.4" x2="364.7" y2="-181.1"/>
						<line class="st2" x1="708.6" y1="142" x2="375.1" y2="-191.5"/>
						<line class="st2" x1="719" y1="131.6" x2="385.5" y2="-201.9"/>
						<line class="st2" x1="729.4" y1="121.1" x2="396" y2="-212.3"/>
					</g>
				</g>
			</g>
		</g>
		<g>
			<g>
				<defs>
					<rect id="SVGID_00000152971996601859423630000012291788979626193086_" x="294.2" y="63" width="220.4" height="100.5"/>
				</defs>
				<clipPath id="SVGID_00000051373372198444481870000006110805251042643078_">
					<use xlink:href="#SVGID_00000152971996601859423630000012291788979626193086_"  style="overflow:visible;"/>
				</clipPath>
				<g style="opacity:0.3;clip-path:url(#SVGID_00000051373372198444481870000006110805251042643078_);">
					<rect x="234.9" y="-50.4" class="st4" width="322.2" height="322.2"/>
				</g>
			</g>
		</g>
	</g>
	<g id="Doors">
		<path class="st5" d="M243,60.3c0-6.1,1.1-11.2,3.3-16.7c2.2-5.6,5.6-10.6,9.5-14.5c3.9-4.5,8.9-7.8,14.5-10
			c5.6-2.2,11.2-3.3,17.3-3.3v44.6"/>
		<path class="st5" d="M434,159.5c0-4.6,0.8-8.3,2.5-12.5s4.2-7.9,7.1-10.8c2.9-3.3,6.7-5.8,10.8-7.5c4.2-1.7,8.3-2.5,12.9-2.5v33.3
			"/>
		<path class="st5" d="M298.3,110.7c4.6,0,8.3-0.8,12.5-2.5s7.9-4.2,10.8-7.1c3.3-2.9,5.8-6.7,7.5-10.8c1.7-4.2,2.5-8.3,2.5-12.9
			h-33.3"/>
		<path class="st5" d="M368.5,332.3c4.6,0,8.3,0.8,12.5,2.5s7.9,4.2,10.8,7.1c3.3,2.9,5.8,6.7,7.5,10.8c1.7,4.2,2.5,8.3,2.5,12.9
			h-33.3"/>
	</g>
	<g id="Windows">
		
			<rect x="450.2" y="364.3" transform="matrix(0.2515 -0.9679 0.9679 0.2515 -51.5859 741.2764)" class="st6" width="6.6" height="79.4"/>
		
			<rect x="303.6" y="368.7" transform="matrix(0.2515 -0.9679 0.9679 0.2515 -162.1545 600.072)" class="st6" width="6.6" height="72.4"/>
	</g>
	<g id="Walls">
		<polygon class="st7" points="368.5,365.6 355.3,365.6 355.3,373.2 344.4,373.2 344.4,395.3 339.5,416.9 352.3,420 356.9,399.7 
			417.1,399.6 417.1,373.3 368.5,373.2 		"/>
		<path class="st7" d="M287.7,60v13.2h6.5v4.2h4.4v-4.2h56.8v68.9h-17.9v17.1h-38.9v-48.5h-4.4v48.5h-21.7v4.4h82.9v168.7h13.2
			V163.6H434v-4.4h-65.5V91.6h18V73.2h124.2v86h-43.4v4.4h43.4v213.9h-23.1v22.1l0,0l-3.6,15.9l12.8,3.1l4.3-19H524V60H287.7z
			 M341.9,159.2v-12.7h13.4v12.7H341.9z M382.1,87.2h-13.6v-14h13.6V87.2z"/>
		<polygon class="st7" points="214.1,377.6 214.1,73.2 243,73.2 243,60 200.9,60 200.9,233.5 200.8,233.5 200.8,395.3 196,416.9 
			208.8,420 213.4,399.7 257.4,399.7 272.7,403.2 277.6,381.6 260.8,377.6 		"/>
	</g>
	<g id="Furniture_1_">
		<g>
			<rect x="387" y="73.7" class="st8" width="50.7" height="21.7"/>
			<path class="st9" d="M437.1,74.2v20.7h-49.7V74.2H437.1 M438.1,73.2h-51.7v22.7h51.7V73.2L438.1,73.2z"/>
		</g>
		<g>
			<polygon class="st8" points="328.2,239.9 328.2,190.8 273.8,190.8 273.8,164.2 355,164.2 355,190.8 354.9,191.3 354.9,239.9 			
				"/>
			<path class="st9" d="M354.5,164.7v25.6l0,0v1v48.1h-25.7v-48.1v-1h-1h-53.4v-25.6L354.5,164.7 M355.5,163.7h-82.1v27.6h54.4v49.1
				h27.7v-49.1l0,0V163.7L355.5,163.7z"/>
		</g>
		<g>
			<g>
				<rect x="369" y="220.6" class="st8" width="85.1" height="73.5"/>
				<path class="st9" d="M369.5,221.1h84.1v72.5h-84.1V221.1 M368.5,220.1v74.5h86.1v-74.5H368.5L368.5,220.1z"/>
			</g>
			<rect x="374.7" y="226.4" class="st10" width="21.3" height="29.1"/>
			<rect x="374.7" y="259.2" class="st10" width="21.3" height="29.1"/>
			<polygon class="st11" points="387.3,230 381.8,251.1 402.4,256.7 407.9,235.7 			"/>
			<polygon class="st11" points="402.4,258.2 381.8,263.8 387.3,284.9 407.9,279.2 			"/>
			<g>
				<polygon class="st8" points="387,294.1 385.3,264.8 391.5,220.6 455,220.6 455,294.1 				"/>
				<path class="st9" d="M392,221.1h62.5v72.5H388h-0.4l-1.7-28.8L392,221.1 M391.6,220.1h-0.5l-6.3,44.7l1.8,29.8h1.4h67.5v-74.5
					H391.6L391.6,220.1z"/>
			</g>
			<polyline class="st12" points="388.8,293.6 388.8,264.5 392.3,220.9 			"/>
		</g>
		<g>
			<g>
				<rect x="369" y="187.6" class="st8" width="64.5" height="1.8"/>
				<path class="st9" d="M369.5,188.1H433v0.8h-63.5V188.1 M368.5,187.1v2.8H434v-2.8H368.5L368.5,187.1z"/>
			</g>
			<g>
				<rect x="369" y="164" class="st8" width="64.5" height="23.6"/>
				<path class="st9" d="M369.5,164.5H433v22.6h-63.5V164.5 M368.5,163.5v24.6H434v-24.6H368.5L368.5,163.5z"/>
			</g>
			<path class="st10" d="M433.3,164.3l-64.1,23"/>
		</g>
		<g>
			<g>
				<rect x="276.7" y="139.9" class="st8" width="1.8" height="18.9"/>
				<path class="st9" d="M278.1,140.4v17.9h-0.8v-17.9H278.1 M279.1,139.4h-2.8v19.9h2.8V139.4L279.1,139.4z"/>
			</g>
			<g>
				<rect x="278.6" y="139.9" class="st8" width="15.1" height="18.9"/>
				<path class="st9" d="M293.1,140.4v17.9H279v-17.9H293.1 M294.1,139.4H278v19.9h16.1V139.4L294.1,139.4z"/>
			</g>
			<path class="st10" d="M293.6,158.9l-15-19"/>
		</g>
		<g>
			<g>
				<rect x="467.9" y="187.8" class="st8" width="42.3" height="1.8"/>
				<path class="st9" d="M468.4,188.3h41.3v0.8h-41.3V188.3 M467.4,187.3v2.8h43.3v-2.8H467.4L467.4,187.3z"/>
			</g>
			<g>
				<rect x="467.9" y="164.2" class="st8" width="42.3" height="23.6"/>
				<path class="st9" d="M468.4,164.7h41.3v22.6h-41.3V164.7 M467.4,163.7v24.6h43.3v-24.6H467.4L467.4,163.7z"/>
			</g>
			<path class="st10" d="M510.2,164.4L468,187.5"/>
		</g>
		<g>
			<g>
				<rect x="238.2" y="73.7" class="st8" width="1.8" height="72.1"/>
				<path class="st9" d="M239.6,74.2v71.1h-0.8V74.2L239.6,74.2 M240.6,73.2h-2.8v73.1h2.8V73.2L240.6,73.2z"/>
			</g>
			<g>
				<rect x="214.6" y="73.7" class="st8" width="23.6" height="72.1"/>
				<path class="st9" d="M215.1,74.2h22.6v71.1h-22.6V74.2 M214.1,73.2v73.1h24.6V73.2L214.1,73.2L214.1,73.2z"/>
			</g>
			<path class="st10" d="M214.9,73.6l23,72.7"/>
		</g>
		<g id="Sink_2_2_">
			<g id="Rectangle_16_x5F_11_2_">
				<rect x="397.2" y="73.7" class="st8" width="30.1" height="21.7"/>
				<path class="st9" d="M426.9,74.2v20.7h-29.1V74.2H426.9 M427.9,73.2h-31.1v22.7h31.1V73.2L427.9,73.2z"/>
			</g>
			<path id="Rectangle_19_x5F_5_2_" class="st10" d="M400.4,84.6L400.4,84.6c0,3.8,3.1,7,7,7h9.9c3.8,0,7-3.1,7-7l0,0
				c0-3.8-3.1-7-7-7h-9.9C403.5,77.6,400.4,80.7,400.4,84.6z"/>
			<circle id="Ellipse_7_x5F_2_2_" class="st10" cx="412.3" cy="81.5" r="1.4"/>
		</g>
		<g id="Sink_2_3_">
			<g id="Rectangle_16_x5F_11_3_">
				<rect x="333.1" y="103" class="st8" width="21.7" height="34"/>
				<path class="st9" d="M354.3,103.5v33h-20.7v-33H354.3 M355.3,102.5h-22.7v35h22.7V102.5L355.3,102.5z"/>
			</g>
			<path id="Rectangle_19_x5F_5_3_" class="st10" d="M344,108.1L344,108.1c-3.8,0-7,3.1-7,7v9.9c0,3.8,3.1,7,7,7l0,0
				c3.8,0,7-3.1,7-7v-10C350.9,111.2,347.8,108.1,344,108.1z"/>
			<circle id="Ellipse_7_x5F_2_3_" class="st10" cx="347" cy="120" r="1.4"/>
		</g>
		<g id="Toilet_3_">
			<g id="Rectangle_21_3_">
				<rect x="308.6" y="147.1" class="st8" width="17.8" height="6"/>
				<path class="st9" d="M326,147.6v5h-16.8v-5H326 M327,146.6h-18.8v7H327V146.6L327,146.6z"/>
			</g>
			<path id="Rectangle_19_x5F_2_3_" class="st10" d="M324.3,134.7c0.3-3.9-2.8-7.2-6.7-7.2l0,0c-3.9,0-7,3.3-6.7,7.2l0.8,12.4h11.7
				L324.3,134.7z"/>
			<path id="Rectangle_18_x5F_13_3_" class="st10" d="M322.1,135.1c0.2-2.7-1.9-5-4.6-5l0,0c-2.7,0-4.8,2.3-4.6,5l0.7,7.3h7.8
				L322.1,135.1z"/>
			<ellipse id="Ellipse_6_x5F_2_3_" class="st10" cx="317.5" cy="139.3" rx="1.3" ry="1.3"/>
		</g>
		<g id="TV_2_">
			<g id="Rectangle_16_2_">
				<rect x="498.2" y="225.6" class="st8" width="8.8" height="63.6"/>
				<path class="st9" d="M506.5,226.1v62.6h-7.8v-62.6H506.5 M507.5,225.1h-9.8v64.6h9.8V225.1L507.5,225.1z"/>
			</g>
			<g id="Rectangle_15_2_">
				<rect x="500" y="225.6" class="st8" width="10.6" height="63.6"/>
				<path class="st9" d="M510.1,226.1v62.6h-9.6v-62.6H510.1 M511.1,225.1h-11.6v64.6h11.6V225.1L511.1,225.1z"/>
			</g>
			<rect id="Rectangle_17_2_" x="507.3" y="235.9" class="st10" width="1.7" height="42.9"/>
			<path id="Rectangle_18_x5F_2_2_" class="st10" d="M509,266.4v-18.1l1.6,1.6v14.8L509,266.4z"/>
		</g>
		<g id="Sink_3">
			<rect id="Rectangle_28_x5F_2" x="321.2" y="167.4" class="st10" width="29.5" height="18.6"/>
			<path id="Rectangle_29_x5F_2" class="st10" d="M339.2,176.7L339.2,176.7c0,3.9-3.1,7-7,7h-1.6c-3.9,0-7-3.1-7-7l0,0
				c0-3.9,3.1-7,7-7h1.6C336.1,169.8,339.2,172.9,339.2,176.7z"/>
			<ellipse id="Ellipse_7_x5F_3" class="st10" cx="331.4" cy="173.6" rx="1.3" ry="1.3"/>
			<path id="Vector_2_1_" class="st12" d="M349.2,169.8h-7.8 M349.2,172.1h-7.8 M349.2,174.4h-7.8 M349.2,176.7h-7.8 M349.2,179.1
				h-7.8 M349.2,181.4h-7.8 M349.2,183.7h-7.8"/>
		</g>
		<g id="Stove">
			<g id="Rectangle_25">
				<rect x="328.2" y="211.8" class="st8" width="26.7" height="26.1"/>
				<path class="st9" d="M354.4,212.3v25.1h-25.7v-25.1H354.4 M355.4,211.3h-27.7v27.1h27.7V211.3L355.4,211.3z"/>
			</g>
			<g id="Rectangle_28_x5F_3_1_">
				<rect x="353.1" y="211.8" class="st8" width="1.8" height="26.1"/>
				<path class="st9" d="M354.4,212.3v25.1h-0.8v-25.1H354.4 M355.4,211.3h-2.8v27.1h2.8V211.3L355.4,211.3z"/>
			</g>
			<g id="Ellipse_7_x5F_4">
				<path class="st8" d="M346,234.4c-1.6,0-3-1.3-3-3c0-1.6,1.3-3,3-3c1.6,0,3,1.3,3,3C348.9,233,347.6,234.4,346,234.4z"/>
				<path class="st9" d="M346,228.9c1.4,0,2.5,1.1,2.5,2.5s-1.1,2.5-2.5,2.5s-2.5-1.1-2.5-2.5S344.6,228.9,346,228.9 M346,227.9
					c-1.9,0-3.5,1.6-3.5,3.5s1.6,3.5,3.5,3.5s3.5-1.6,3.5-3.5S347.9,227.9,346,227.9L346,227.9z"/>
			</g>
			<g id="Ellipse_9">
				<path class="st8" d="M335.5,235.2c-2.1,0-3.8-1.7-3.8-3.8s1.7-3.8,3.8-3.8s3.8,1.7,3.8,3.8S337.7,235.2,335.5,235.2z"/>
				<path class="st9" d="M335.5,228c1.8,0,3.3,1.5,3.3,3.3s-1.5,3.3-3.3,3.3s-3.3-1.5-3.3-3.3S333.7,228,335.5,228 M335.5,227
					c-2.4,0-4.3,1.9-4.3,4.3c0,2.4,1.9,4.3,4.3,4.3s4.3-1.9,4.3-4.3C339.9,229,337.9,227,335.5,227L335.5,227z"/>
			</g>
			<g id="Ellipse_10">
				<path class="st8" d="M346,223.1c-2.1,0-3.8-1.7-3.8-3.8s1.7-3.8,3.8-3.8s3.8,1.7,3.8,3.8S348.1,223.1,346,223.1z"/>
				<path class="st9" d="M346,215.9c1.8,0,3.3,1.5,3.3,3.3s-1.5,3.3-3.3,3.3s-3.3-1.5-3.3-3.3S344.1,215.9,346,215.9 M346,214.9
					c-2.4,0-4.3,1.9-4.3,4.3c0,2.4,1.9,4.3,4.3,4.3s4.3-1.9,4.3-4.3C350.3,216.8,348.4,214.9,346,214.9L346,214.9z"/>
			</g>
			<g id="Ellipse_8">
				<path class="st8" d="M334.7,222.2c-1.6,0-3-1.3-3-3c0-1.6,1.3-3,3-3c1.6,0,3,1.3,3,3C337.6,220.9,336.3,222.2,334.7,222.2z"/>
				<path class="st9" d="M334.7,216.8c1.4,0,2.5,1.1,2.5,2.5s-1.1,2.5-2.5,2.5s-2.5-1.1-2.5-2.5
					C332.2,217.9,333.3,216.8,334.7,216.8 M334.7,215.8c-1.9,0-3.5,1.6-3.5,3.5s1.6,3.5,3.5,3.5s3.5-1.6,3.5-3.5
					C338.1,217.3,336.6,215.8,334.7,215.8L334.7,215.8z"/>
			</g>
		</g>
		<g>
			<g id="Rectangle_27_5_">
				<rect x="282.5" y="164.2" class="st8" width="30.8" height="26.6"/>
				<path class="st9" d="M312.7,164.7v25.6H283v-25.6H312.7 M313.7,163.7H282v27.6h31.8L313.7,163.7L313.7,163.7z"/>
			</g>
			<g id="Rectangle_27_2_">
				<rect x="282.5" y="188.9" class="st8" width="30.8" height="1.8"/>
				<path class="st9" d="M312.7,189.4v0.8H283v-0.8H312.7 M313.7,188.4H282v2.8h31.8L313.7,188.4L313.7,188.4z"/>
			</g>
			<path id="Vector_3_1_" class="st12" d="M301.3,177.1h-6.9 M299.6,180.1l-3.5-6.1 M299.6,174.1l-3.5,6.1"/>
		</g>
		<g>
			<path class="st10" d="M244.8,332.2c1.3,0,2.3-1,2.3-2.3V295c0-1.3-1-2.3-2.3-2.3h-22.9v39.6h22.9V332.2z"/>
			<path class="st10" d="M244.8,369.9c1.3,0,2.3-1,2.3-2.3v-33.2c0-1.3-1-2.3-2.3-2.3h-22.9v37.8H244.8z"/>
			<polygon class="st10" points="249,369.9 221.9,369.9 221.9,331.2 221.9,292.6 249,292.6 249,285.3 214.6,285.3 214.6,377.2 
				249,377.2 			"/>
		</g>
		<g>
			<rect x="299" y="153.1" class="st8" width="37.9" height="5.7"/>
			<path class="st9" d="M336.5,153.6v4.7h-36.9v-4.7H336.5 M337.5,152.6h-38.9v6.7h38.9V152.6L337.5,152.6z"/>
		</g>
		<g id="Toilet_4_">
			<g id="Rectangle_21_4_">
				<rect x="376.4" y="135.7" class="st8" width="6" height="17.8"/>
				<path class="st9" d="M381.8,136.2V153h-5v-16.8H381.8 M382.8,135.2h-7V154h7V135.2L382.8,135.2z"/>
			</g>
			<path id="Rectangle_19_x5F_2_4_" class="st10" d="M394.7,151.3c3.9,0.3,7.2-2.8,7.2-6.7l0,0c0-3.9-3.3-7-7.2-6.7l-12.4,0.8v11.7
				L394.7,151.3z"/>
			<path id="Rectangle_18_x5F_13_4_" class="st10" d="M394.4,149.2c2.7,0.2,5-1.9,5-4.6l0,0c0-2.7-2.3-4.8-5-4.6l-7.3,0.7v7.8
				L394.4,149.2z"/>
			<ellipse id="Ellipse_6_x5F_2_4_" class="st10" cx="390.2" cy="144.6" rx="1.3" ry="1.3"/>
		</g>
		<g>
			<rect x="369" y="92.1" class="st8" width="7.3" height="66.7"/>
			<path class="st9" d="M375.9,92.6v65.7h-6.3V92.6H375.9 M376.9,91.6h-8.3v67.7h8.3V91.6L376.9,91.6z"/>
		</g>
		<g>
			<g>
				<rect x="297.1" y="239.9" class="st8" width="57.7" height="39.5"/>
				<path class="st9" d="M354.4,240.4v38.5h-56.7v-38.5H354.4 M355.4,239.4h-58.7v40.5h58.7V239.4L355.4,239.4z"/>
			</g>
			<g>
				<rect x="297.1" y="264.3" class="st8" width="57.7" height="3.1"/>
				<path class="st9" d="M354.4,264.8v2.1h-56.7v-2.1H354.4 M355.4,263.8h-58.7v4.1h58.7V263.8L355.4,263.8z"/>
			</g>
		</g>
		<g>
			<path class="st8" d="M283.3,269.2c-4.9,0-8.9-4-8.9-8.9s4-8.9,8.9-8.9s8.9,4,8.9,8.9C292.2,265.2,288.2,269.2,283.3,269.2z"/>
			<path class="st9" d="M283.3,251.8c4.6,0,8.4,3.8,8.4,8.4s-3.8,8.4-8.4,8.4s-8.4-3.8-8.4-8.4S278.6,251.8,283.3,251.8
				 M283.3,250.8c-5.2,0-9.4,4.2-9.4,9.4s4.2,9.4,9.4,9.4c5.2,0,9.4-4.2,9.4-9.4C292.7,255.1,288.5,250.8,283.3,250.8L283.3,250.8z"
				/>
		</g>
		<g>
			<path class="st8" d="M306.6,302.5c-4.9,0-8.9-4-8.9-8.9s4-8.9,8.9-8.9s8.9,4,8.9,8.9S311.5,302.5,306.6,302.5z"/>
			<path class="st9" d="M306.6,285.2c4.6,0,8.4,3.8,8.4,8.4s-3.8,8.4-8.4,8.4s-8.4-3.8-8.4-8.4S301.9,285.2,306.6,285.2
				 M306.6,284.2c-5.2,0-9.4,4.2-9.4,9.4s4.2,9.4,9.4,9.4s9.4-4.2,9.4-9.4S311.8,284.2,306.6,284.2L306.6,284.2z"/>
		</g>
		<g>
			<path class="st8" d="M330.3,302.5c-4.9,0-8.9-4-8.9-8.9s4-8.9,8.9-8.9s8.9,4,8.9,8.9C339.3,298.5,335.2,302.5,330.3,302.5z"/>
			<path class="st9" d="M330.3,285.2c4.6,0,8.4,3.8,8.4,8.4s-3.8,8.4-8.4,8.4s-8.4-3.8-8.4-8.4S325.7,285.2,330.3,285.2
				 M330.3,284.2c-5.2,0-9.4,4.2-9.4,9.4s4.2,9.4,9.4,9.4s9.4-4.2,9.4-9.4S335.5,284.2,330.3,284.2L330.3,284.2z"/>
		</g>
		<g>
			<g>
				<rect x="337" y="73.7" class="st8" width="17.8" height="29.3"/>
				<path class="st9" d="M354.3,74.2v28.3h-16.8V74.2H354.3 M355.3,73.2h-18.8v30.3h18.8V73.2L355.3,73.2z"/>
			</g>
			<g>
				<circle class="st8" cx="345.9" cy="88.4" r="5.6"/>
				<path class="st9" d="M345.9,83.2c2.8,0,5.1,2.3,5.1,5.1s-2.3,5.1-5.1,5.1c-2.8,0-5.1-2.3-5.1-5.1S343.1,83.2,345.9,83.2
					 M345.9,82.2c-3.4,0-6.1,2.7-6.1,6.1s2.7,6.1,6.1,6.1s6.1-2.7,6.1-6.1S349.3,82.2,345.9,82.2L345.9,82.2z"/>
			</g>
		</g>
		<g>
			<g>
				<rect x="478" y="73.7" class="st8" width="32.2" height="78.8"/>
				<path class="st9" d="M509.7,74.2V152h-31.2V74.2H509.7 M510.7,73.2h-33.2V153h33.2V73.2L510.7,73.2z"/>
			</g>
			<g>
				<g>
					<path class="st13" d="M494.1,80.6c-6.1,0-10.8,5.3-10.3,11.3c0.6,6.7,1.2,15,1.2,21.3c0,6.2-0.6,14.5-1.2,21.3
						c-0.5,6.1,4.2,11.3,10.3,11.3c6.1,0,10.8-5.3,10.3-11.3c-0.6-6.7-1.2-15-1.2-21.3c0-6.2,0.6-14.5,1.2-21.3
						C504.9,85.9,500.1,80.6,494.1,80.6z"/>
					<ellipse class="st13" cx="494.1" cy="91.2" rx="1.5" ry="1.5"/>
				</g>
			</g>
		</g>
	</g>
	<g id="street_anchors" class="st14">
		<rect id="street_x5F_anchor_x5F_01" x="355" y="450" class="st15" width="10" height="10"/>
	</g>
</g>
<g id="комнаты">
	<g>
		<g>
			<path class="st7" d="M311.6,121.8c0-1.4,0.9-2.1,1.9-2.5c0.3-0.1,0.8-0.3,0.8-0.8c0-0.4-0.4-0.6-0.7-0.6c-0.6,0-1,0.4-1.5,0.9
				l-0.6-0.9c0.6-0.6,1.1-1.1,2-1.1c0.9,0,1.8,0.5,1.8,1.7c0,1.3-1,1.7-1.7,2c-0.6,0.3-1,0.6-1,1.1v0.1h2.6v1.1h-3.7V121.8z"/>
			<path class="st7" d="M316.9,121.1c0.4,0,0.7,0.4,0.7,0.9c0,0.5-0.3,0.9-0.7,0.9c-0.4,0-0.7-0.4-0.7-0.9
				C316.2,121.5,316.5,121.1,316.9,121.1z"/>
			<path class="st7" d="M318.6,121.8c0-1.4,0.9-2.1,1.9-2.5c0.3-0.1,0.8-0.3,0.8-0.8c0-0.4-0.4-0.6-0.7-0.6c-0.6,0-1,0.4-1.5,0.9
				l-0.6-0.9c0.6-0.6,1.1-1.1,2-1.1c0.9,0,1.8,0.5,1.8,1.7c0,1.3-1,1.7-1.7,2c-0.6,0.3-1,0.6-1,1.1v0.1h2.6v1.1h-3.7V121.8z"/>
		</g>
	</g>
	<g>
		<g>
			<path class="st7" d="M289,327.3l1.3-0.8h0.9v5.8h-1v-4.5l-1,0.6L289,327.3z"/>
			<path class="st7" d="M292.3,331.6l0.5-1c0.3,0.3,0.9,0.7,1.8,0.7c0.6,0,1.2-0.3,1.2-1c0-0.6-0.4-0.8-0.9-0.8
				c-0.6,0-1,0.3-1.4,0.6l-0.6-0.6v-3h3.5v1.1h-2.6v1.4c0.4-0.3,0.7-0.6,1.3-0.6c0.9,0,1.8,0.6,1.8,1.9c0,1.5-1.1,2.2-2.2,2.2
				C293.4,332.5,292.7,331.9,292.3,331.6z"/>
			<path class="st7" d="M298.3,330.7c0.4,0,0.7,0.4,0.7,0.9c0,0.5-0.3,0.9-0.7,0.9c-0.4,0-0.7-0.4-0.7-0.9
				C297.6,331.1,297.9,330.7,298.3,330.7z"/>
			<path class="st7" d="M299.7,331.6l0.5-1c0.3,0.3,0.9,0.7,1.8,0.7c0.6,0,1.2-0.3,1.2-1c0-0.6-0.4-0.8-0.9-0.8
				c-0.6,0-1,0.3-1.4,0.6l-0.6-0.6v-3h3.5v1.1h-2.6v1.4c0.4-0.3,0.7-0.6,1.3-0.6c0.9,0,1.8,0.6,1.8,1.9c0,1.5-1.1,2.2-2.2,2.2
				C300.9,332.5,300.1,331.9,299.7,331.6z"/>
		</g>
	</g>
	<g>
		<g>
			<path class="st7" d="M259.6,118.9h0.7c0.3,0,0.6-0.2,0.6-0.6c0-0.5-0.4-0.7-0.8-0.7c-0.5,0-1.1,0.4-1.5,0.9l-0.6-0.9
				c0.5-0.6,1.2-1.2,2.1-1.2c0.8,0,1.8,0.4,1.8,1.7c0,0.5-0.3,0.9-0.5,1.1c0.4,0.2,0.8,0.6,0.8,1.4c0,1.3-1,2-2.3,2
				c-0.9,0-1.6-0.4-2.3-1.2l0.6-0.9c0.4,0.6,1,1,1.7,1c0.7,0,1.2-0.4,1.2-1c0-0.5-0.4-0.6-0.7-0.6h-0.9V118.9z"/>
			<path class="st7" d="M263.8,120.9c0.4,0,0.7,0.4,0.7,0.9c0,0.5-0.3,0.9-0.7,0.9c-0.4,0-0.7-0.4-0.7-0.9
				C263.1,121.3,263.4,120.9,263.8,120.9z"/>
			<path class="st7" d="M265.3,120.7c0-0.8,0.4-1.3,0.9-1.5c-0.4-0.2-0.7-0.6-0.7-1.2c0-1.1,1.1-1.6,2-1.6c0.9,0,2,0.5,2,1.7
				c0,0.6-0.2,0.9-0.7,1.1c0.5,0.2,0.9,0.7,0.9,1.5c0,1.2-1.1,1.9-2.2,1.9C266.4,122.7,265.3,122,265.3,120.7z M268.7,120.7
				c0-0.6-0.6-0.8-1.1-0.8c-0.5,0-1.1,0.3-1.1,0.8c0,0.5,0.6,0.9,1.1,0.9C268.1,121.5,268.7,121.2,268.7,120.7z M268.4,118.2
				c0-0.5-0.5-0.7-0.9-0.7c-0.4,0-0.9,0.2-0.9,0.7c0,0.4,0.3,0.6,0.9,0.6C268.1,118.8,268.4,118.6,268.4,118.2z"/>
		</g>
	</g>
	<g>
		<g>
			<path class="st7" d="M436.6,327.3l1.3-0.8h0.9v5.8h-1v-4.5l-1,0.6L436.6,327.3z"/>
			<path class="st7" d="M439.9,331.6l0.5-1c0.3,0.3,1,0.7,1.8,0.7c0.6,0,1.2-0.3,1.2-1c0-0.6-0.4-0.8-0.9-0.8c-0.6,0-1,0.3-1.4,0.6
				l-0.6-0.6v-3h3.5v1.1h-2.6v1.4c0.4-0.3,0.7-0.6,1.3-0.6c0.9,0,1.8,0.6,1.8,1.9c0,1.5-1.1,2.2-2.2,2.2
				C441,332.5,440.3,331.9,439.9,331.6z"/>
		</g>
	</g>
	<g>
		<g>
			<path class="st7" d="M429.4,122l0.5-1c0.3,0.3,1,0.7,1.8,0.7c0.6,0,1.2-0.3,1.2-1c0-0.6-0.4-0.8-0.9-0.8c-0.6,0-1,0.3-1.4,0.6
				l-0.6-0.6v-3h3.5v1.1h-2.6v1.4c0.4-0.3,0.7-0.6,1.3-0.6c0.9,0,1.8,0.6,1.8,1.9c0,1.5-1.1,2.2-2.2,2.2
				C430.6,122.9,429.8,122.3,429.4,122z"/>
			<path class="st7" d="M435.4,121.1c0.4,0,0.7,0.4,0.7,0.9c0,0.5-0.3,0.9-0.7,0.9c-0.4,0-0.7-0.4-0.7-0.9
				C434.7,121.5,435,121.1,435.4,121.1z"/>
			<path class="st7" d="M440.7,118.2c-0.3-0.2-0.8-0.3-1.2-0.3c-0.8,0-1.5,0.7-1.6,1.9c0.4-0.4,1-0.8,1.7-0.8c1.2,0,1.8,0.9,1.8,1.8
				c0,1.2-0.8,2.1-2,2.1c-1.2,0-2.4-1-2.4-3c0-2,1.2-3.2,2.5-3.2c0.8,0,1.4,0.3,1.7,0.5L440.7,118.2z M438,120.6
				c0.2,0.8,0.7,1.2,1.3,1.2c0.6,0,1-0.5,1-1c0-0.4-0.2-0.8-0.9-0.8C438.9,120,438.4,120.3,438,120.6z"/>
		</g>
	</g>
</g>
</svg>
