<?xml version="1.0" encoding="utf-8"?>
<!-- Generator: Adobe Illustrator 26.0.3, SVG Export Plug-In . SVG Version: 6.00 Build 0)  -->
<svg version="1.1" xmlns="http://www.w3.org/2000/svg" xmlns:xlink="http://www.w3.org/1999/xlink" x="0px" y="0px"
	 viewBox="0 0 720 480" style="enable-background:new 0 0 720 480;" xml:space="preserve">
<style type="text/css">
	.st0{fill:#DBD4CA;}
	.st1{clip-path:url(#SVGID_00000098917015337904109220000000535192248988203705_);}
	.st2{fill:none;stroke:#C49F8A;stroke-miterlimit:10;}
	.st3{opacity:0.3;clip-path:url(#SVGID_00000004547917985327738360000013962678908152347547_);}
	.st4{opacity:0.7;fill:#C49F8A;enable-background:new    ;}
	.st5{fill:none;stroke:#565440;}
	.st6{fill:#565440;}
	.st7{fill:#E9E4DC;}
	.st8{fill:#C49F8A;}
	.st9{fill:#E9E4DC;stroke:#C49F8A;}
	.st10{fill:#E9E4DC;stroke:#C49F8A;stroke-miterlimit:3.9998;}
	.st11{fill:none;stroke:#C49F8A;}
	.st12{fill:#E9E4DC;stroke:#C49F8A;stroke-linejoin:round;}
	.st13{fill:#3F3F3F;fill-opacity:0;}
</style>
<g id="_x31__x5F_2">
	<polygon id="Floor" class="st0" points="542.2,66.3 542.1,66.3 176.7,66.3 176.7,330.6 276.9,330.6 276.9,413.7 542.1,413.7 
		542.1,66.3 	"/>
	<g id="Wet_Floor_2_">
		<g>
			<g>
				<defs>
					<polygon id="SVGID_1_" points="370,330.6 177.9,330.6 177.9,253.5 283,253.5 283,227.7 370,227.7 					"/>
				</defs>
				<clipPath id="SVGID_00000129207940875275141510000006224770298082037908_">
					<use xlink:href="#SVGID_1_"  style="overflow:visible;"/>
				</clipPath>
				<g style="clip-path:url(#SVGID_00000129207940875275141510000006224770298082037908_);">
					<g>
						<line class="st2" x1="4" y1="194.4" x2="337.5" y2="-139"/>
						<line class="st2" x1="-6.4" y1="184" x2="327.1" y2="-149.5"/>
						<line class="st2" x1="14.4" y1="204.9" x2="347.9" y2="-128.6"/>
						<line class="st2" x1="24.8" y1="215.3" x2="358.3" y2="-118.2"/>
						<line class="st2" x1="35.3" y1="225.7" x2="368.7" y2="-107.8"/>
						<line class="st2" x1="45.7" y1="236.1" x2="379.2" y2="-97.4"/>
						<line class="st2" x1="56.1" y1="246.5" x2="389.6" y2="-86.9"/>
						<line class="st2" x1="66.5" y1="257" x2="400" y2="-76.5"/>
						<line class="st2" x1="76.9" y1="267.4" x2="410.4" y2="-66.1"/>
						<line class="st2" x1="87.4" y1="277.8" x2="420.8" y2="-55.7"/>
						<line class="st2" x1="76.9" y1="267.4" x2="410.4" y2="-66.1"/>
						<line class="st2" x1="97.8" y1="288.2" x2="431.3" y2="-45.3"/>
						<line class="st2" x1="108.2" y1="298.7" x2="441.7" y2="-34.8"/>
						<line class="st2" x1="118.6" y1="309.1" x2="452.1" y2="-24.4"/>
						<line class="st2" x1="129" y1="319.5" x2="462.5" y2="-14"/>
						<line class="st2" x1="139.5" y1="329.9" x2="473" y2="-3.6"/>
						<line class="st2" x1="149.9" y1="340.3" x2="483.4" y2="6.9"/>
						<line class="st2" x1="160.3" y1="350.8" x2="493.8" y2="17.3"/>
						<line class="st2" x1="170.7" y1="361.2" x2="504.2" y2="27.7"/>
						<line class="st2" x1="160.3" y1="350.8" x2="493.8" y2="17.3"/>
						<line class="st2" x1="181.2" y1="371.6" x2="514.6" y2="38.1"/>
						<line class="st2" x1="191.6" y1="382" x2="525.1" y2="48.5"/>
						<line class="st2" x1="202" y1="392.4" x2="535.5" y2="59"/>
						<line class="st2" x1="212.4" y1="402.9" x2="545.9" y2="69.4"/>
						<line class="st2" x1="222.8" y1="413.3" x2="556.3" y2="79.8"/>
						<line class="st2" x1="233.3" y1="423.7" x2="566.7" y2="90.2"/>
						<line class="st2" x1="243.7" y1="434.1" x2="577.2" y2="100.6"/>
						<line class="st2" x1="254.1" y1="444.6" x2="587.6" y2="111.1"/>
						<line class="st2" x1="243.7" y1="434.1" x2="577.2" y2="100.6"/>
						<line class="st2" x1="264.5" y1="455" x2="598" y2="121.5"/>
						<line class="st2" x1="274.9" y1="465.4" x2="608.4" y2="131.9"/>
						<line class="st2" x1="285.4" y1="475.8" x2="618.9" y2="142.3"/>
						<line class="st2" x1="295.8" y1="486.2" x2="629.3" y2="152.8"/>
						<line class="st2" x1="306.2" y1="496.7" x2="639.7" y2="163.2"/>
						<line class="st2" x1="316.6" y1="507.1" x2="650.1" y2="173.6"/>
						<line class="st2" x1="327.1" y1="517.5" x2="660.5" y2="184"/>
					</g>
					<g>
						<line class="st2" x1="337.5" y1="507.1" x2="4" y2="173.6"/>
						<line class="st2" x1="327.1" y1="517.5" x2="-6.4" y2="184"/>
						<line class="st2" x1="347.9" y1="496.7" x2="14.4" y2="163.2"/>
						<line class="st2" x1="358.3" y1="486.2" x2="24.8" y2="152.8"/>
						<line class="st2" x1="368.7" y1="475.8" x2="35.3" y2="142.3"/>
						<line class="st2" x1="379.2" y1="465.4" x2="45.7" y2="131.9"/>
						<line class="st2" x1="389.6" y1="455" x2="56.1" y2="121.5"/>
						<line class="st2" x1="400" y1="444.6" x2="66.5" y2="111.1"/>
						<line class="st2" x1="410.4" y1="434.1" x2="76.9" y2="100.6"/>
						<line class="st2" x1="420.8" y1="423.7" x2="87.4" y2="90.2"/>
						<line class="st2" x1="410.4" y1="434.1" x2="76.9" y2="100.6"/>
						<line class="st2" x1="431.3" y1="413.3" x2="97.8" y2="79.8"/>
						<line class="st2" x1="441.7" y1="402.9" x2="108.2" y2="69.4"/>
						<line class="st2" x1="452.1" y1="392.4" x2="118.6" y2="59"/>
						<line class="st2" x1="462.5" y1="382" x2="129" y2="48.5"/>
						<line class="st2" x1="473" y1="371.6" x2="139.5" y2="38.1"/>
						<line class="st2" x1="483.4" y1="361.2" x2="149.9" y2="27.7"/>
						<line class="st2" x1="493.8" y1="350.8" x2="160.3" y2="17.3"/>
						<line class="st2" x1="504.2" y1="340.3" x2="170.7" y2="6.9"/>
						<line class="st2" x1="493.8" y1="350.8" x2="160.3" y2="17.3"/>
						<line class="st2" x1="514.6" y1="329.9" x2="181.2" y2="-3.6"/>
						<line class="st2" x1="525.1" y1="319.5" x2="191.6" y2="-14"/>
						<line class="st2" x1="535.5" y1="309.1" x2="202" y2="-24.4"/>
						<line class="st2" x1="545.9" y1="298.7" x2="212.4" y2="-34.8"/>
						<line class="st2" x1="556.3" y1="288.2" x2="222.8" y2="-45.3"/>
						<line class="st2" x1="566.7" y1="277.8" x2="233.3" y2="-55.7"/>
						<line class="st2" x1="577.2" y1="267.4" x2="243.7" y2="-66.1"/>
						<line class="st2" x1="587.6" y1="257" x2="254.1" y2="-76.5"/>
						<line class="st2" x1="577.2" y1="267.4" x2="243.7" y2="-66.1"/>
						<line class="st2" x1="598" y1="246.5" x2="264.5" y2="-86.9"/>
						<line class="st2" x1="608.4" y1="236.1" x2="274.9" y2="-97.4"/>
						<line class="st2" x1="618.9" y1="225.7" x2="285.4" y2="-107.8"/>
						<line class="st2" x1="629.3" y1="215.3" x2="295.8" y2="-118.2"/>
						<line class="st2" x1="639.7" y1="204.9" x2="306.2" y2="-128.6"/>
						<line class="st2" x1="650.1" y1="194.4" x2="316.6" y2="-139"/>
						<line class="st2" x1="660.5" y1="184" x2="327.1" y2="-149.5"/>
					</g>
				</g>
			</g>
		</g>
		<g>
			<g>
				<defs>
					<polygon id="SVGID_00000178884274036322958740000000515233012530793869_" points="370,330.6 177.9,330.6 177.9,253.5 
						283,253.5 283,227.7 370,227.7 					"/>
				</defs>
				<clipPath id="SVGID_00000104698267959826492830000000361934244617044664_">
					<use xlink:href="#SVGID_00000178884274036322958740000000515233012530793869_"  style="overflow:visible;"/>
				</clipPath>
				<g style="opacity:0.3;clip-path:url(#SVGID_00000104698267959826492830000000361934244617044664_);">
					<rect x="166" y="12.5" class="st4" width="322.2" height="322.2"/>
				</g>
			</g>
		</g>
	</g>
	<polygon id="Windows" class="st5" points="546.9,61.6 178.6,61.6 178.6,66.3 542.2,66.3 542.2,413.7 499.5,413.7 499.5,418.4 
		546.9,418.4 	"/>
	<path id="Doors" class="st5" d="M276.9,380c-4.1,0-7.9-0.9-11.7-2.5c-3.8-1.6-7.6-3.8-10.4-6.9c-2.8-2.8-5.4-6.3-6.9-10.1
		c-1.6-3.8-2.5-7.9-2.5-12H277 M276.9,197.4c-3.4,0-6.6,0.8-9.8,2.1c-3.2,1.3-6.3,3.2-8.7,5.8c-2.4,2.4-4.5,5.3-5.8,8.5
		s-2.1,6.6-2.1,10h26.4 M428.5,195.3c3.5,0,6.3,0.6,9.5,1.9c3.2,1.3,6,3.2,8.2,5.4c2.5,2.2,4.4,5.1,5.7,8.2c1.3,3.2,1.9,6.3,1.9,9.8
		h-25.3 M374.3,187.4c0-3.5,0.6-6.3,1.9-9.5s3.2-6,5.4-8.2c2.2-2.5,5.1-4.4,8.2-5.7c3.2-1.3,6.3-1.9,9.8-1.9v25.3 M232.5,253.5
		c0-3.5-0.6-6.3-1.9-9.5c-1.3-3.2-3.2-6-5.4-8.2c-2.2-2.5-5.1-4.4-8.2-5.7c-3.2-1.3-6.3-1.9-9.8-1.9v25.3 M350.8,330.6
		c0,3.5-0.6,6.3-1.9,9.5s-3.2,6-5.4,8.2c-2.2,2.5-5.1,4.4-8.2,5.7c-3.2,1.3-6.3,1.9-9.8,1.9v-25.3 M345.4,230.5
		c0,3.5-0.6,6.3-1.9,9.5s-3.2,6-5.4,8.2c-2.2,2.5-5.1,4.4-8.2,5.7c-3.2,1.3-6.3,1.9-9.8,1.9v-25.3"/>
	<g id="Walls">
		<rect x="346.4" y="60" class="st6" width="22.1" height="18.9"/>
		<polygon class="st6" points="425.3,195.3 428.5,195.3 428.5,75.8 434.8,75.8 434.8,60 412.7,60 412.7,75.8 425.3,75.8 
			425.3,187.3 399.6,187.3 399.6,190.5 425.3,190.5 		"/>
		<rect x="212.7" y="60" class="st6" width="21.9" height="15.8"/>
		<rect x="479" y="60" class="st6" width="22.1" height="18.9"/>
		<rect x="529.5" y="132.6" class="st6" width="18.9" height="22.1"/>
		<rect x="532.7" y="334.7" class="st6" width="15.8" height="22.1"/>
		<path class="st6" d="M371.6,374.3h-3.2v16.3h-21.9v13.6h-60.2V380h-9.5v40H501v-15.8H371.6V374.3z M349.7,393.8h18.7v10.4h-18.7
			V393.8z"/>
		<polygon class="st6" points="529.5,265.3 529.5,287.4 548.5,287.4 548.5,198.9 532.7,198.9 532.7,223.7 428.5,223.7 428.5,220.6 
			425.3,220.6 425.3,226.9 532.7,226.9 532.7,265.3 		"/>
		<path class="st6" d="M276.9,348.4h9.5v-17.8h39.2v-3.2h-27.7v-16h-11.5v-25.3h81.8v41.3h-17.4v3.2h20.5v-103h-26v3.2h22.8V283
			h-81.8v-52.3H320v-3.2h-33.7v-3.9h-9.5v29.7h-44.4v3.2h44.4v56.1h-12.5v12.5h-83.4v-68.6h26.2v-3.2H181V60h-9.5v274.7h105.4V348.4
			z M294.7,314.7v12.8h-8.4v-12.8H294.7z M267.6,325.3V316h9.3v9.3H267.6z"/>
		<polygon class="st6" points="286.4,197.4 286.4,190.5 374.3,190.5 374.3,187.3 286.4,187.3 286.4,75.8 301.5,75.8 301.5,60 
			276.9,60 276.9,197.4 		"/>
	</g>
	<g id="Furniture">
		<g>
			<rect x="352.9" y="286.7" class="st7" width="14.8" height="40.3"/>
			<path class="st8" d="M367.2,287.2v39.3h-13.8v-39.3H367.2 M368.2,286.2h-15.8v41.3h15.8V286.2L368.2,286.2z"/>
		</g>
		<g>
			<rect x="236.4" y="311.2" class="st7" width="25.7" height="13.7"/>
			<path class="st8" d="M261.6,311.7v12.7h-24.7v-12.7H261.6 M262.6,310.7h-26.7v14.7h26.7V310.7L262.6,310.7z"/>
		</g>
		<g>
			<rect x="372.1" y="384.2" class="st7" width="100.3" height="19.5"/>
			<path class="st8" d="M471.9,384.7v18.5h-99.3v-18.5H471.9 M472.9,383.7H371.6v20.5h101.3L472.9,383.7L472.9,383.7z"/>
		</g>
		<g>
			<g>
				<rect x="286.9" y="97.5" class="st7" width="61.4" height="52.3"/>
				<path class="st8" d="M347.8,98v51.3h-60.4V98H347.8 M348.8,97h-62.4v53.3h62.4V97L348.8,97z"/>
			</g>
			<rect x="290.8" y="101.6" class="st9" width="15.4" height="20.8"/>
			<rect x="290.8" y="125" class="st9" width="15.4" height="20.8"/>
			<polygon class="st10" points="300,104.2 296,119.2 310.9,123.2 314.9,108.2 			"/>
			<polygon class="st10" points="310.9,124.3 296,128.3 300,143.3 314.9,139.3 			"/>
			<g>
				<polygon class="st7" points="299.9,149.8 298.6,129 303.2,97.6 348.9,97.6 348.9,149.8 				"/>
				<path class="st8" d="M348.4,98.1v51.3h-48l0,0l-1.2-20.3l4.5-31L348.4,98.1 M349.4,97.1H303h-0.3l-4.6,31.9l1.3,21.3h1h49V97.1
					L349.4,97.1z"/>
			</g>
			<polyline class="st11" points="301,149.6 301,128.8 303.6,97.7 			"/>
		</g>
		<g>
			<g>
				<rect x="429" y="118.8" class="st7" width="62.2" height="45.3"/>
				<path class="st8" d="M490.6,119.3v44.3h-61.2v-44.3H490.6 M491.6,118.3h-63.2v46.3h63.2V118.3L491.6,118.3z"/>
			</g>
			<rect x="432.9" y="122.2" class="st9" width="15.6" height="18.1"/>
			<rect x="432.9" y="142.5" class="st9" width="15.6" height="18.1"/>
			<polygon class="st10" points="442.2,124.4 438.2,137.5 453.3,141 457.3,127.9 			"/>
			<polygon class="st10" points="453.3,141.9 438.2,145.4 442.2,158.5 457.3,155 			"/>
			<g>
				<polygon class="st7" points="442.2,164 440.9,146 445.4,118.8 491.8,118.8 491.8,164 				"/>
				<path class="st8" d="M491.3,119.3v44.3h-48.6h-0.1l-1.3-17.5l4.5-26.8H491.3 M492.3,118.3h-46.9H445l-4.7,27.8l1.3,18.5h1h49.6
					v-46.3H492.3z"/>
			</g>
			<polyline class="st11" points="443.3,163.9 443.3,145.9 445.9,118.8 			"/>
		</g>
		<g>
			<g>
				<rect x="219.2" y="120.3" class="st7" width="57.2" height="48.9"/>
				<path class="st8" d="M275.9,120.8v47.9h-56.2v-47.9L275.9,120.8 M276.9,119.8h-58.2v49.9h58.2V119.8L276.9,119.8z"/>
			</g>
			<rect x="258.4" y="146" class="st9" width="14.4" height="19.5"/>
			<rect x="258.4" y="124.1" class="st9" width="14.4" height="19.5"/>
			<polygon class="st10" points="264.2,163.1 267.9,149 254,145.2 250.3,159.3 			"/>
			<polygon class="st10" points="254,144.2 267.9,140.4 264.2,126.3 250.3,130.1 			"/>
			<g>
				<polygon class="st7" points="218.6,169.2 218.6,120.3 264.2,120.3 265.4,139.7 261.2,169.2 				"/>
				<path class="st8" d="M219.1,120.8h44.6l1.2,18.9l-4.1,29h-41.6L219.1,120.8 M218.1,119.8v49.9h43.2h0.3l4.3-29.9l-1.2-20h-0.9
					L218.1,119.8L218.1,119.8z"/>
			</g>
			<polyline class="st11" points="263.2,120.5 263.2,139.9 260.8,169.1 			"/>
		</g>
		<g>
			<g>
				<rect x="389" y="228.1" class="st7" width="1.8" height="102"/>
				<path class="st8" d="M390.3,228.6v101h-0.8v-101H390.3 M391.3,227.6h-2.8v103h2.8V227.6L391.3,227.6z"/>
			</g>
			<g>
				<rect x="371.8" y="228.1" class="st7" width="17.2" height="102"/>
				<path class="st8" d="M372.3,228.6h16.2v101h-16.2V228.6 M371.3,227.6v103h18.2v-103H371.3L371.3,227.6z"/>
			</g>
			<path class="st9" d="M371.9,228.1l17,102.4"/>
		</g>
		<g>
			<g>
				<rect x="467.1" y="204.3" class="st7" width="65" height="1.8"/>
				<path class="st8" d="M531.7,204.8v0.8h-64v-0.8H531.7 M532.7,203.8h-66v2.8h66V203.8L532.7,203.8z"/>
			</g>
			<g>
				<rect x="467.1" y="206.1" class="st7" width="65" height="17.2"/>
				<path class="st8" d="M467.6,206.6h64v16.2h-64L467.6,206.6 M466.6,205.6v18.2h66v-18.2H466.6L466.6,205.6z"/>
			</g>
			<path class="st9" d="M466.9,223.2l65.6-17"/>
		</g>
		<g>
			<g>
				<rect x="286.8" y="386.9" class="st7" width="52.3" height="1.8"/>
				<path class="st8" d="M338.6,387.4v0.8h-51.3v-0.8H338.6 M339.6,386.4h-53.3v2.8h53.3V386.4L339.6,386.4z"/>
			</g>
			<g>
				<rect x="286.8" y="388.7" class="st7" width="52.3" height="15"/>
				<path class="st8" d="M287.3,389.2h51.3v14h-51.3V389.2 M286.3,388.2v16h53.3v-16H286.3L286.3,388.2z"/>
			</g>
			<path class="st9" d="M286.6,403.7l52.9-14.9"/>
		</g>
		<g>
			<g>
				<rect x="347.2" y="378.9" class="st7" width="17.1" height="1.8"/>
				<path class="st8" d="M347.7,379.4h16.1v0.8h-16.1V379.4 M346.7,378.4v2.8h18.1v-2.8H346.7L346.7,378.4z"/>
			</g>
			<g>
				<rect x="347.2" y="380.7" class="st7" width="17.1" height="9.4"/>
				<path class="st8" d="M347.7,381.2h16.1v8.4h-16.1V381.2 M346.7,380.2v10.4h18.1v-10.4H346.7L346.7,380.2z"/>
			</g>
			<path class="st9" d="M347.2,390l17.1-9.2"/>
		</g>
		<g>
			<g>
				<rect x="286.8" y="167.9" class="st7" width="57.5" height="1.8"/>
				<path class="st8" d="M287.3,168.3h56.5v0.8h-56.5V168.3 M286.3,167.3v2.8h58.5v-2.8H286.3L286.3,167.3z"/>
			</g>
			<g>
				<rect x="286.8" y="169.7" class="st7" width="57.5" height="17.2"/>
				<path class="st8" d="M343.8,170.2v16.2h-56.5v-16.2H343.8 M344.8,169.2h-58.5v18.2h58.5V169.2L344.8,169.2z"/>
			</g>
			<path class="st9" d="M286.6,186.8l58.1-17"/>
		</g>
		<g>
			<g>
				<rect x="181.5" y="234" class="st7" width="24.2" height="1.8"/>
				<path class="st8" d="M205.2,234.5v0.8H182v-0.8H205.2 M206.2,233.5H181v2.8h25.2V233.5L206.2,233.5z"/>
			</g>
			<g>
				<rect x="181.5" y="235.8" class="st7" width="24.2" height="17.2"/>
				<path class="st8" d="M182,236.3h23.2v16.2H182V236.3 M181,235.3v18.2h25.2v-18.2H181L181,235.3z"/>
			</g>
			<path class="st9" d="M181.4,252.8l24-16.9"/>
		</g>
		<g>
			<g>
				<rect x="234.1" y="234" class="st7" width="42.3" height="1.8"/>
				<path class="st8" d="M234.6,234.5h41.3v0.8h-41.3L234.6,234.5 M233.6,233.5v2.8h43.3v-2.8H233.6L233.6,233.5z"/>
			</g>
			<g>
				<rect x="234.1" y="235.8" class="st7" width="42.3" height="17.2"/>
				<path class="st8" d="M275.9,236.3v16.2h-41.3v-16.2H275.9 M276.9,235.3h-43.3v18.2h43.3V235.3L276.9,235.3z"/>
			</g>
			<path class="st9" d="M233.8,252.9l43-17"/>
		</g>
		<g>
			<g>
				<rect x="181.4" y="302.9" class="st7" width="55" height="22"/>
				<path class="st8" d="M181.9,303.4h54v21h-54V303.4 M180.9,302.4v23h56v-23H180.9L180.9,302.4z"/>
			</g>
			<g>
				<g>
					<path class="st12" d="M186.2,313.9c0,4.3,3.7,7.6,7.9,7.2c4.7-0.4,10.5-0.8,14.9-0.8c4.3,0,10.2,0.4,14.9,0.8
						c4.2,0.4,7.9-3,7.9-7.2s-3.7-7.6-7.9-7.2c-4.7,0.4-10.5,0.8-14.9,0.8c-4.3,0-10.2-0.4-14.9-0.8
						C189.9,306.3,186.2,309.6,186.2,313.9z"/>
					<ellipse class="st12" cx="193.6" cy="313.9" rx="0.9" ry="0.9"/>
				</g>
			</g>
		</g>
		<g>
			<g id="Rectangle_16_x5F_11_1_">
				<rect x="319.2" y="268.9" class="st7" width="24.8" height="13.7"/>
				<path class="st8" d="M319.7,269.4h23.8V282h-23.8V269.4 M318.7,268.4V283h25.8v-14.7L318.7,268.4L318.7,268.4z"/>
			</g>
			<path id="Rectangle_19_x5F_5_1_" class="st9" d="M323.9,275.7L323.9,275.7c0-2.5,2-4.5,4.5-4.5h6.4c2.5,0,4.5,2,4.5,4.5l0,0
				c0,2.5-2,4.5-4.5,4.5h-6.4C325.9,280.2,323.9,278.2,323.9,275.7z"/>
			<circle id="Ellipse_7_x5F_2_1_" class="st9" cx="331.6" cy="277.7" r="0.9"/>
		</g>
		<g>
			<g id="Rectangle_16_x5F_11_2_">
				<rect x="238.8" y="311.2" class="st7" width="21" height="13.7"/>
				<path class="st8" d="M259.2,311.7v12.7h-20v-12.7H259.2 M260.2,310.7h-22v14.7h22V310.7L260.2,310.7z"/>
			</g>
			<path id="Rectangle_19_x5F_5_2_" class="st9" d="M256.9,318L256.9,318c0-2.5-2-4.5-4.5-4.5H246c-2.5,0-4.5,2-4.5,4.5l0,0
				c0,2.5,2,4.5,4.5,4.5h6.4C254.9,322.5,256.9,320.5,256.9,318z"/>
			<circle id="Ellipse_7_x5F_2_2_" class="st9" cx="249.2" cy="320" r="0.9"/>
		</g>
		<g id="Sink_3">
			<rect id="Rectangle_28_x5F_2" x="397.7" y="386.1" class="st9" width="23.5" height="14.9"/>
			<path id="Rectangle_29_x5F_2" class="st9" d="M406.9,393.5L406.9,393.5c0-3.1,2.5-5.6,5.6-5.6h1.2c3.1,0,5.6,2.5,5.6,5.6l0,0
				c0,3.1-2.5,5.6-5.6,5.6h-1.2C409.4,399.1,406.9,396.6,406.9,393.5z"/>
			<ellipse id="Ellipse_7_x5F_3" class="st9" cx="413.1" cy="396" rx="0.9" ry="0.9"/>
			<path id="Vector_2" class="st11" d="M398.9,399.1h6.2 M398.9,397.2h6.2 M398.9,395.4h6.2 M398.9,393.5h6.2 M398.9,391.7h6.2
				 M398.9,389.8h6.2 M398.9,387.9h6.2"/>
		</g>
		<g id="Stove">
			<g id="Rectangle_25">
				<rect x="446.1" y="384.2" class="st7" width="19" height="19.5"/>
				<path class="st8" d="M446.6,384.7h18v18.5h-18V384.7 M445.6,383.7v20.5h20v-20.5H445.6L445.6,383.7z"/>
			</g>
			<g id="Rectangle_28_x5F_3_1_">
				<rect x="446.1" y="401.9" class="st7" width="19" height="1.8"/>
				<path class="st8" d="M446.6,402.4h18v0.8h-18V402.4 M445.6,401.4v2.8h20v-2.8H445.6L445.6,401.4z"/>
			</g>
			<g id="Ellipse_7_x5F_4">
				<path class="st7" d="M450.7,399.2c-1.1,0-2.1-0.9-2.1-2.1c0-1.1,0.9-2.1,2.1-2.1c1.1,0,2.1,0.9,2.1,2.1
					C452.8,398.3,451.8,399.2,450.7,399.2z"/>
				<path class="st8" d="M450.7,395.6c0.9,0,1.6,0.7,1.6,1.6s-0.7,1.6-1.6,1.6s-1.6-0.7-1.6-1.6S449.8,395.6,450.7,395.6
					 M450.7,394.6c-1.4,0-2.6,1.1-2.6,2.6s1.1,2.6,2.6,2.6s2.6-1.1,2.6-2.6S452.1,394.6,450.7,394.6L450.7,394.6z"/>
			</g>
			<g id="Ellipse_9">
				<path class="st7" d="M450.7,392.2c-1.5,0-2.7-1.2-2.7-2.7s1.2-2.7,2.7-2.7s2.7,1.2,2.7,2.7S452.2,392.2,450.7,392.2z"/>
				<path class="st8" d="M450.7,387.3c1.2,0,2.2,1,2.2,2.2s-1,2.2-2.2,2.2s-2.2-1-2.2-2.2S449.5,387.3,450.7,387.3 M450.7,386.3
					c-1.8,0-3.2,1.4-3.2,3.2s1.4,3.2,3.2,3.2c1.8,0,3.2-1.4,3.2-3.2S452.5,386.3,450.7,386.3L450.7,386.3z"/>
			</g>
			<g id="Ellipse_10">
				<path class="st7" d="M459.7,399.9c-1.5,0-2.7-1.2-2.7-2.7s1.2-2.7,2.7-2.7s2.7,1.2,2.7,2.7S461.2,399.9,459.7,399.9z"/>
				<path class="st8" d="M459.7,394.9c1.2,0,2.2,1,2.2,2.2s-1,2.2-2.2,2.2s-2.2-1-2.2-2.2S458.4,394.9,459.7,394.9 M459.7,393.9
					c-1.8,0-3.2,1.4-3.2,3.2s1.4,3.2,3.2,3.2s3.2-1.4,3.2-3.2S461.4,393.9,459.7,393.9L459.7,393.9z"/>
			</g>
			<g id="Ellipse_8">
				<path class="st7" d="M459.7,390.9c-1.1,0-2.1-0.9-2.1-2.1c0-1.1,0.9-2.1,2.1-2.1c1.1,0,2.1,0.9,2.1,2.1
					C461.7,390,460.8,390.9,459.7,390.9z"/>
				<path class="st8" d="M459.7,387.3L459.7,387.3c0.9,0,1.6,0.7,1.6,1.6s-0.7,1.6-1.6,1.6s-1.6-0.7-1.6-1.6
					S458.8,387.3,459.7,387.3 M459.7,386.3c-1.4,0-2.6,1.1-2.6,2.6c0,1.4,1.1,2.6,2.6,2.6c1.4,0,2.6-1.1,2.6-2.6
					C462.2,387.4,461.1,386.3,459.7,386.3L459.7,386.3z"/>
			</g>
		</g>
		<g>
			<path class="st9" d="M498.2,266.8c0,0.9,0.7,1.5,1.5,1.5h15.5v-35.4h-17.1L498.2,266.8z"/>
			<path class="st9" d="M470.7,248.5c0,0.9,0.7,1.5,1.6,1.5h24.3c0.9,0,1.6-0.7,1.6-1.5v-15.6h-27.5V248.5z"/>
			<path class="st9" d="M444.2,248.5c0,0.9,0.7,1.5,1.6,1.5h23.4c0.9,0,1.6-0.7,1.6-1.5v-15.6h-26.5v15.6H444.2z"/>
			<path class="st9" d="M444.2,251.3h-5.8v-24.5h83.1v47.6h-24.6v-6.1h18.3v-35.5h-71V251.3z"/>
		</g>
		<g>
			<path class="st9" d="M448.8,342.2V302h29.3v40.2H448.8z"/>
			<path class="st9" d="M455.5,299.6V299c0-4.3,3.5-7.9,7.9-7.9c4.3,0,7.9,3.5,7.9,7.9v0.7h-15.8V299.6z"/>
			<path class="st9" d="M457.3,302v-3c0-3.4,2.7-6.1,6.1-6.1s6.1,2.7,6.1,6.1v3H457.3z"/>
			<path class="st9" d="M455.5,344.5v0.7c0,4.3,3.5,7.9,7.9,7.9c4.3,0,7.9-3.5,7.9-7.9v-0.7H455.5z"/>
			<path class="st9" d="M457.3,342.2v3c0,3.4,2.7,6.1,6.1,6.1s6.1-2.7,6.1-6.1v-3H457.3z"/>
			<path class="st9" d="M480.4,330h0.7c4.3,0,7.9-3.5,7.9-7.9c0-4.3-3.5-7.9-7.9-7.9h-0.7V330z"/>
			<path class="st9" d="M478.1,328.2h3c3.4,0,6.1-2.7,6.1-6.1s-2.7-6.1-6.1-6.1h-3V328.2z"/>
			<path class="st9" d="M446.5,330h-0.7c-4.3,0-7.9-3.5-7.9-7.9c0-4.3,3.5-7.9,7.9-7.9h0.7V330z"/>
			<path class="st9" d="M448.8,328.2h-3c-3.4,0-6.1-2.7-6.1-6.1s2.7-6.1,6.1-6.1h3V328.2z"/>
		</g>
		<g>
			<g>
				<rect x="286.9" y="231.3" class="st7" width="12.9" height="17.9"/>
				<path class="st8" d="M299.3,231.8v16.9h-11.9v-16.9H299.3 M300.3,230.8h-13.9v18.9h13.9V230.8L300.3,230.8z"/>
			</g>
			<g>
				<path class="st7" d="M293.3,243.9c-2,0-3.7-1.7-3.7-3.7s1.7-3.7,3.7-3.7s3.7,1.7,3.7,3.7C297,242.3,295.3,243.9,293.3,243.9z"/>
				<path class="st8" d="M293.3,237.1c1.8,0,3.2,1.4,3.2,3.2s-1.4,3.2-3.2,3.2s-3.2-1.4-3.2-3.2S291.6,237.1,293.3,237.1
					 M293.3,236.1c-2.3,0-4.2,1.9-4.2,4.2s1.9,4.2,4.2,4.2c2.3,0,4.2-1.9,4.2-4.2C297.5,237.9,295.6,236.1,293.3,236.1L293.3,236.1z
					"/>
			</g>
		</g>
		<g id="Toilet_2_">
			<g id="Rectangle_21_2_">
				<rect x="298.4" y="300.9" class="st7" width="4.1" height="12.9"/>
				<path class="st8" d="M302,301.4v11.9h-3.1v-11.9H302 M303,300.4h-5.1v13.9h5.1V300.4L303,300.4z"/>
			</g>
			<path id="Rectangle_19_x5F_2_2_" class="st9" d="M311.8,312.3c2.9,0.2,5.3-2.1,5.3-4.9l0,0c0-2.9-2.4-5.1-5.3-4.9l-9.2,0.6v8.7
				L311.8,312.3z"/>
			<path id="Rectangle_18_x5F_13_2_" class="st9" d="M311.6,310.7c2,0.2,3.7-1.4,3.7-3.4l0,0c0-2-1.7-3.5-3.7-3.4l-5.4,0.5v5.7
				L311.6,310.7z"/>
			<ellipse id="Ellipse_6_x5F_2_2_" class="st9" cx="308.7" cy="307.4" rx="0.9" ry="0.9"/>
		</g>
		<g id="Toilet_1_">
			<g id="Rectangle_21_1_">
				<rect x="267" y="262.2" class="st7" width="4.1" height="12.9"/>
				<path class="st8" d="M270.7,262.7v11.9h-3.1v-11.9H270.7 M271.7,261.7h-5.1v13.9h5.1V261.7L271.7,261.7z"/>
			</g>
			<path id="Rectangle_19_x5F_2_1_" class="st9" d="M257.7,273.6c-2.9,0.2-5.3-2.1-5.3-4.9l0,0c0-2.9,2.4-5.1,5.3-4.9l9.2,0.6v8.7
				L257.7,273.6z"/>
			<path id="Rectangle_18_x5F_13_1_" class="st9" d="M258,272c-2,0.2-3.7-1.4-3.7-3.4l0,0c0-2,1.7-3.5,3.7-3.4l5.4,0.5v5.7L258,272z
				"/>
			<ellipse id="Ellipse_6_x5F_2_1_" class="st9" cx="261.1" cy="268.6" rx="0.9" ry="0.9"/>
		</g>
		<g id="Toilet_3_">
			<g id="Rectangle_21_3_">
				<rect x="348" y="278.4" class="st7" width="12.9" height="4.1"/>
				<path class="st8" d="M360.4,278.9v3.1h-11.9v-3.1H360.4 M361.4,277.9h-13.9v5.1h13.9V277.9L361.4,277.9z"/>
			</g>
			<path id="Rectangle_19_x5F_2_3_" class="st9" d="M349.5,269.2c-0.2-2.9,2.1-5.3,4.9-5.3l0,0c2.9,0,5.1,2.4,4.9,5.3l-0.6,9.2H350
				L349.5,269.2z"/>
			<path id="Rectangle_18_x5F_13_3_" class="st9" d="M351,269.4c-0.2-2,1.4-3.7,3.4-3.7l0,0c2,0,3.5,1.7,3.4,3.7l-0.5,5.4h-5.7
				L351,269.4z"/>
			<ellipse id="Ellipse_6_x5F_2_3_" class="st9" cx="354.4" cy="272.5" rx="0.9" ry="0.9"/>
		</g>
		<g>
			<rect x="372.1" y="384.8" class="st7" width="18.9" height="18.9"/>
			<path class="st8" d="M390.5,385.3v17.9h-17.9v-17.9H390.5 M391.5,384.3h-19.9v19.9h19.9V384.3L391.5,384.3z"/>
		</g>
		<g>
			<g>
				<rect x="470" y="384.2" class="st7" width="24.4" height="19.5"/>
				<path class="st8" d="M493.9,384.7v18.5h-23.4v-18.5H493.9 M494.9,383.7h-25.4v20.5h25.4V383.7L494.9,383.7z"/>
			</g>
			<g>
				<rect x="471.2" y="382.4" class="st7" width="21.9" height="1.8"/>
				<path class="st8" d="M492.7,382.9v0.8h-20.9v-0.8H492.7 M493.7,381.9h-22.9v2.8h22.9V381.9L493.7,381.9z"/>
			</g>
		</g>
		<g id="Rectangle_27_2_">
			<rect x="372.1" y="384.2" class="st7" width="18.9" height="1.8"/>
			<path class="st8" d="M372.6,384.7h17.9v0.8h-17.9V384.7 M371.6,383.7v2.8h19.9v-2.8H371.6L371.6,383.7z"/>
		</g>
		<path id="Vector_3" class="st11" d="M384.8,394.4h-6.4 M383.2,391.6l-3.2,5.7 M383.2,397.3l-3.2-5.7"/>
		<g>
			<g>
				<path class="st7" d="M292,282.5v-27.2h19c4.6,0,8.3,3.7,8.3,8.3v18.9H292z"/>
				<path class="st8" d="M311,255.9c4.3,0,7.8,3.5,7.8,7.8V282h-26.2v-26.2L311,255.9 M311,254.9h-19.4V283h28.2v-19.4
					C319.7,258.8,315.8,254.9,311,254.9L311,254.9z"/>
			</g>
			<g>
				<path class="st7" d="M293.9,280.7v-23.5h17.2c3.5,0,6.3,2.8,6.3,6.3v17.2H293.9z"/>
				<path class="st8" d="M311.1,256.7v1c3.2,0,5.8,2.6,5.8,5.8v16.7h-22.5v-22.5h16.7V256.7 M311.1,256.7h-17.7v24.5h24.5v-17.7
					C317.9,259.7,314.9,256.7,311.1,256.7L311.1,256.7z"/>
			</g>
			<ellipse class="st9" cx="298.8" cy="275.8" rx="0.9" ry="0.9"/>
		</g>
		<g>
			<path class="st9" d="M392.7,105.2v-14l12.7-1.9v17.8L392.7,105.2z"/>
			<g>
				<rect x="404.1" y="76.3" class="st7" width="20.7" height="42.4"/>
				<path class="st8" d="M424.3,76.8v41.4h-19.7V76.8H424.3 M425.3,75.8h-21.7v43.4h21.7V75.8L425.3,75.8z"/>
			</g>
			<path class="st11" d="M410.1,103.7V92.9 M407.6,104.6V91.9h3.8v12.7H407.6z"/>
			<path class="st9" d="M407.4,109.1L407.4,109.1c0-0.5,0.4-1,1-1h1.3c0.5,0,1,0.4,1,1l0,0c0,0.5-0.4,1-1,1h-1.3
				C407.8,110.1,407.4,109.7,407.4,109.1z"/>
			<path class="st9" d="M417.6,101.4c-1.8,0-3.2-1.4-3.2-3.2c0-1.8,1.4-3.2,3.2-3.2h3.2v6.4L417.6,101.4z"/>
			<g>
				<rect x="392.4" y="91.5" class="st7" width="11.3" height="13.5"/>
				<path class="st8" d="M403.2,92v12.5h-10.3V92H403.2 M404.2,91h-12.3v14.5h12.3V91L404.2,91z"/>
			</g>
			<g>
				<rect x="390.8" y="91.3" class="st7" width="1.8" height="13.9"/>
				<path class="st8" d="M392.2,91.8v12.9h-0.8V91.8H392.2 M393.2,90.8h-2.8v14.9h2.8V90.8L393.2,90.8z"/>
			</g>
			<g>
				<rect x="419.9" y="82.9" class="st7" width="1.8" height="30.7"/>
				<path class="st8" d="M421.2,83.4v29.7h-0.8V83.4H421.2 M422.2,82.4h-2.8v31.7h2.8V82.4L422.2,82.4z"/>
			</g>
		</g>
		<g>
			<path class="st9" d="M262.7,99.4h-14l-1.9-12.7h17.8L262.7,99.4z"/>
			<g>
				<rect x="235.1" y="67.3" class="st7" width="41.3" height="20.7"/>
				<path class="st8" d="M275.9,67.8v19.7h-40.3V67.8H275.9 M276.9,66.8h-42.3v21.7h42.3V66.8L276.9,66.8z"/>
			</g>
			<path class="st11" d="M261.2,82h-10.8 M262.1,84.5h-12.7v-3.8h12.7V84.5z"/>
			<path class="st9" d="M266.7,84.7L266.7,84.7c-0.5,0-1-0.4-1-1v-1.3c0-0.5,0.4-1,1-1l0,0c0.5,0,1,0.4,1,1v1.3
				C267.6,84.3,267.2,84.7,266.7,84.7z"/>
			<path class="st9" d="M258.9,74.5c0,1.8-1.4,3.2-3.2,3.2s-3.2-1.4-3.2-3.2v-3.2h6.4V74.5z"/>
			<g>
				<rect x="249" y="88.4" class="st7" width="13.5" height="11.3"/>
				<path class="st8" d="M262,88.9v10.3h-12.5V88.9H262 M263,87.9h-14.5v12.3H263V87.9L263,87.9z"/>
			</g>
			<g>
				<rect x="248.8" y="99.4" class="st7" width="13.9" height="1.8"/>
				<path class="st8" d="M262.2,99.9v0.8h-12.9v-0.8H262.2 M263.2,98.9h-14.9v2.8h14.9V98.9L263.2,98.9z"/>
			</g>
			<g>
				<rect x="240.4" y="70.4" class="st7" width="30.7" height="1.8"/>
				<path class="st8" d="M270.6,70.9v0.8h-29.7v-0.8H270.6 M271.6,69.9h-31.7v2.8h31.7V69.9L271.6,69.9z"/>
			</g>
		</g>
		<g>
			<path class="st9" d="M509,99.7v-14l12.7-1.9v17.8L509,99.7z"/>
			<g>
				<rect x="520.5" y="67.3" class="st7" width="20.7" height="64.8"/>
				<path class="st8" d="M540.7,67.8v63.8H521V67.8H540.7 M541.7,66.8H520v65.8h21.7V66.8L541.7,66.8z"/>
			</g>
			<path class="st11" d="M526.5,98.1V87.3 M523.9,99.1V86.4h3.8v12.7H523.9z"/>
			<path class="st9" d="M523.7,103.6L523.7,103.6c0-0.5,0.4-1,1-1h1.3c0.5,0,1,0.4,1,1l0,0c0,0.5-0.4,1-1,1h-1.3
				C524.2,104.6,523.7,104.2,523.7,103.6z"/>
			<path class="st9" d="M533.9,95.9c-1.8,0-3.2-1.4-3.2-3.2c0-1.8,1.4-3.2,3.2-3.2h3.2v6.4L533.9,95.9z"/>
			<g>
				<rect x="508.8" y="86" class="st7" width="11.3" height="13.5"/>
				<path class="st8" d="M519.6,86.5V99h-10.3V86.5H519.6 M520.6,85.5h-12.3V100h12.3V85.5L520.6,85.5z"/>
			</g>
			<g>
				<rect x="507.2" y="85.8" class="st7" width="1.8" height="13.9"/>
				<path class="st8" d="M508.5,86.3v12.9h-0.8V86.3H508.5 M509.5,85.3h-2.8v14.9h2.8V85.3L509.5,85.3z"/>
			</g>
			<g>
				<rect x="536.2" y="77.4" class="st7" width="1.8" height="30.7"/>
				<path class="st8" d="M537.6,77.9v29.7h-0.8V77.9H537.6 M538.6,76.9h-2.8v31.7h2.8V76.9L538.6,76.9z"/>
			</g>
		</g>
		<g>
			<rect x="286.8" y="286.7" class="st7" width="11.5" height="24.3"/>
			<path class="st8" d="M297.9,287.2v23.3h-10.5v-23.3H297.9 M298.9,286.2h-12.5v25.3h12.5V286.2L298.9,286.2z"/>
		</g>
		<g>
			<rect x="286.8" y="286.7" class="st7" width="80.8" height="4.1"/>
			<path class="st8" d="M367.2,287.2v3.1h-79.8v-3.1H367.2 M368.2,286.2h-81.8v5.1h81.8V286.2L368.2,286.2z"/>
		</g>
		<g>
			<rect x="271.2" y="257.1" class="st7" width="5.2" height="55.2"/>
			<path class="st8" d="M275.9,257.6v54.2h-4.2v-54.2H275.9 M276.9,256.6h-6.2v56.2h6.2V256.6L276.9,256.6z"/>
		</g>
		<g>
			<g id="Rectangle_16_x5F_11_3_">
				<rect x="352.9" y="298.4" class="st7" width="14.8" height="20.7"/>
				<path class="st8" d="M367.2,298.9v19.7h-13.8v-19.7H367.2 M368.2,297.9h-15.8v21.7h15.8V297.9L368.2,297.9z"/>
			</g>
			<path id="Rectangle_19_x5F_5_3_" class="st9" d="M360.3,301.1L360.3,301.1c-2.5,0-4.5,2-4.5,4.5v6.4c0,2.5,2,4.5,4.5,4.5l0,0
				c2.5,0,4.5-2,4.5-4.5v-6.4C364.8,303.1,362.8,301.1,360.3,301.1z"/>
			<circle id="Ellipse_7_x5F_2_3_" class="st9" cx="362" cy="308.7" r="0.9"/>
		</g>
		<g>
			<rect x="286.9" y="249.2" class="st7" width="5.1" height="33.3"/>
			<path class="st8" d="M291.5,249.7V282h-4.1v-32.3H291.5 M292.5,248.7h-6.1V283h6.1V248.7L292.5,248.7z"/>
		</g>
		<g id="TV">
			<g id="Rectangle_16">
				<rect x="189.8" y="121.4" class="st7" width="1.8" height="47.2"/>
				<path class="st8" d="M191.1,121.9v46.2h-0.8v-46.2L191.1,121.9 M192.1,120.9h-2.8v48.2h2.8V120.9L192.1,120.9z"/>
			</g>
			<g id="Rectangle_15">
				<rect x="181.5" y="121.4" class="st7" width="8.4" height="47.2"/>
				<path class="st8" d="M189.3,121.9v46.2H182v-46.2L189.3,121.9 M190.3,120.9H181v48.2h9.4L190.3,120.9L190.3,120.9z"/>
			</g>
			<rect id="Rectangle_17" x="183.1" y="129" class="st9" width="1.7" height="32"/>
			<path id="Rectangle_18_x5F_2" class="st9" d="M183.1,151.8v-13.6l-1.6,1.2v11.1L183.1,151.8z"/>
		</g>
	</g>
	<g id="street_anchors">
		<rect id="street_x5F_anchor_x5F_01_1_" x="355" y="20" class="st13" width="10" height="10"/>
		<rect id="street_x5F_anchor_x5F_02_1_" x="355" y="450" class="st13" width="10" height="10"/>
		<rect id="street_x5F_anchor_x5F_03" x="578.4" y="235" class="st13" width="10" height="10"/>
	</g>
</g>
<g id="комнаты">
	<g>
		<g>
			<path class="st6" d="M495.6,355.9c0-1.4,0.9-2.1,1.9-2.5c0.3-0.1,0.8-0.3,0.8-0.8c0-0.4-0.4-0.6-0.7-0.6c-0.6,0-1,0.4-1.5,0.9
				l-0.6-0.9c0.6-0.6,1.1-1.1,2-1.1c0.9,0,1.8,0.5,1.8,1.7c0,1.3-1,1.7-1.7,2c-0.6,0.3-1,0.6-1,1.1v0.1h2.6v1.1h-3.7V355.9z"/>
			<path class="st6" d="M500.1,351h4v1.1l-2.3,4.7h-1.3l2.4-4.6h-2.8V351z"/>
		</g>
	</g>
	<g>
		<g>
			<path class="st6" d="M329.8,211.1H329v1.2h-1v-1.2h-3v-0.8l3.1-3.7h0.9v3.5h0.8V211.1z M326.4,210.1h1.6v-1.9h-0.1
				C327.4,208.8,326.9,209.4,326.4,210.1L326.4,210.1z"/>
			<path class="st6" d="M331.3,210.7c0.4,0,0.7,0.4,0.7,0.9c0,0.5-0.3,0.9-0.7,0.9c-0.4,0-0.7-0.4-0.7-0.9
				C330.6,211.1,330.9,210.7,331.3,210.7z"/>
			<path class="st6" d="M332.8,206.5h4v1.1l-2.3,4.7h-1.3l2.4-4.6h-2.8V206.5z"/>
		</g>
	</g>
	<g>
		<g>
			<path class="st6" d="M307.6,365.2l0.5-1c0.3,0.3,0.9,0.7,1.8,0.7c0.6,0,1.2-0.3,1.2-1c0-0.6-0.4-0.8-0.9-0.8
				c-0.6,0-1,0.3-1.4,0.6l-0.6-0.6v-3h3.5v1.1h-2.6v1.4c0.4-0.3,0.7-0.6,1.3-0.6c0.9,0,1.8,0.6,1.8,1.9c0,1.5-1.1,2.2-2.2,2.2
				C308.7,366.1,308,365.5,307.6,365.2z"/>
			<path class="st6" d="M313.5,364.3c0.4,0,0.7,0.4,0.7,0.9c0,0.5-0.3,0.9-0.7,0.9c-0.4,0-0.7-0.4-0.7-0.9
				C312.8,364.7,313.1,364.3,313.5,364.3z"/>
			<path class="st6" d="M319.8,364.7H319v1.2h-1v-1.2h-3v-0.8l3.1-3.7h0.9v3.5h0.8V364.7z M316.4,363.6h1.6v-1.9h-0.1
				C317.4,362.3,316.9,363,316.4,363.6L316.4,363.6z"/>
		</g>
	</g>
	<g>
		<g>
			<path class="st6" d="M325.9,309.8c0-1.4,0.9-2.1,1.9-2.5c0.3-0.1,0.8-0.3,0.8-0.8c0-0.4-0.4-0.6-0.7-0.6c-0.6,0-1,0.4-1.5,0.9
				l-0.6-0.9c0.6-0.6,1.1-1.1,2-1.1c0.9,0,1.8,0.5,1.8,1.7c0,1.3-1,1.7-1.7,2c-0.6,0.3-1,0.6-1,1.1v0.1h2.6v1.1h-3.7V309.8z"/>
			<path class="st6" d="M331.3,309.2c0.4,0,0.7,0.4,0.7,0.9c0,0.5-0.3,0.9-0.7,0.9c-0.4,0-0.7-0.4-0.7-0.9
				C330.6,309.5,330.9,309.2,331.3,309.2z"/>
			<path class="st6" d="M332.9,309c0-0.8,0.4-1.3,0.9-1.5c-0.4-0.2-0.7-0.6-0.7-1.2c0-1.1,1.1-1.6,2-1.6c0.9,0,2,0.5,2,1.7
				c0,0.6-0.2,0.9-0.7,1.1c0.5,0.2,0.9,0.7,0.9,1.5c0,1.2-1.1,1.9-2.2,1.9C334,310.9,332.9,310.2,332.9,309z M336.2,308.9
				c0-0.6-0.6-0.8-1.1-0.8c-0.5,0-1.1,0.3-1.1,0.8c0,0.5,0.6,0.9,1.1,0.9C335.7,309.8,336.2,309.5,336.2,308.9z M336,306.5
				c0-0.5-0.5-0.7-0.9-0.7c-0.4,0-0.9,0.2-0.9,0.7c0,0.4,0.3,0.6,0.9,0.6C335.7,307.1,336,306.9,336,306.5z"/>
		</g>
	</g>
	<g>
		<g>
			<path class="st6" d="M220.9,280.1l0.5-1c0.3,0.3,0.9,0.7,1.8,0.7c0.6,0,1.2-0.3,1.2-1c0-0.6-0.4-0.8-0.9-0.8
				c-0.6,0-1,0.3-1.4,0.6l-0.6-0.6v-3h3.5v1.1h-2.6v1.4c0.4-0.3,0.7-0.6,1.3-0.6c0.9,0,1.8,0.6,1.8,1.9c0,1.5-1.1,2.2-2.2,2.2
				C222,281,221.3,280.4,220.9,280.1z"/>
			<path class="st6" d="M226.9,279.2c0.4,0,0.7,0.4,0.7,0.9c0,0.5-0.3,0.9-0.7,0.9c-0.4,0-0.7-0.4-0.7-0.9
				C226.2,279.6,226.5,279.2,226.9,279.2z"/>
			<path class="st6" d="M228.4,275h4v1.1l-2.3,4.7h-1.3l2.4-4.6h-2.8V275z"/>
		</g>
	</g>
	<g>
		<g>
			<path class="st6" d="M346.2,253.2h0.7c0.3,0,0.6-0.2,0.6-0.6c0-0.5-0.4-0.7-0.8-0.7c-0.5,0-1.1,0.4-1.5,0.9l-0.6-0.9
				c0.5-0.6,1.2-1.2,2.1-1.2c0.8,0,1.8,0.4,1.8,1.7c0,0.5-0.3,0.9-0.5,1.1c0.4,0.2,0.8,0.6,0.8,1.4c0,1.3-1,2-2.3,2
				c-0.9,0-1.6-0.4-2.3-1.2l0.6-0.9c0.4,0.6,1,1,1.7,1c0.7,0,1.2-0.4,1.2-1c0-0.5-0.4-0.6-0.7-0.6h-0.9V253.2z"/>
			<path class="st6" d="M350.4,255.1c0.4,0,0.7,0.4,0.7,0.9c0,0.5-0.3,0.9-0.7,0.9c-0.4,0-0.7-0.4-0.7-0.9
				C349.7,255.5,350,255.1,350.4,255.1z"/>
			<path class="st6" d="M352,255c0-0.8,0.4-1.3,0.9-1.5c-0.4-0.2-0.7-0.6-0.7-1.2c0-1.1,1.1-1.6,2-1.6c0.9,0,2,0.5,2,1.7
				c0,0.6-0.2,0.9-0.7,1.1c0.5,0.2,0.9,0.7,0.9,1.5c0,1.2-1.1,1.9-2.2,1.9C353.1,256.9,352,256.2,352,255z M355.3,254.9
				c0-0.6-0.6-0.8-1.1-0.8c-0.5,0-1.1,0.3-1.1,0.8c0,0.5,0.6,0.9,1.1,0.9C354.8,255.8,355.3,255.5,355.3,254.9z M355.1,252.5
				c0-0.5-0.5-0.7-0.9-0.7c-0.4,0-0.9,0.2-0.9,0.7c0,0.4,0.3,0.6,0.9,0.6C354.8,253.1,355.1,252.9,355.1,252.5z"/>
		</g>
	</g>
	<g>
		<g>
			<path class="st6" d="M220.7,185.9l1.3-0.8h0.9v5.8h-1v-4.5l-1,0.6L220.7,185.9z"/>
			<path class="st6" d="M224,185.1h4v1.1l-2.3,4.7h-1.3l2.4-4.6H224V185.1z"/>
			<path class="st6" d="M229.5,189.3c0.4,0,0.7,0.4,0.7,0.9c0,0.5-0.3,0.9-0.7,0.9c-0.4,0-0.7-0.4-0.7-0.9
				C228.8,189.7,229.1,189.3,229.5,189.3z"/>
			<path class="st6" d="M230.9,185.9l1.3-0.8h0.9v5.8h-1v-4.5l-1,0.6L230.9,185.9z"/>
		</g>
	</g>
	<g>
		<g>
			<path class="st6" d="M473.5,181.4l1.3-0.8h0.9v5.8h-1v-4.5l-1,0.6L473.5,181.4z"/>
			<path class="st6" d="M476.7,185.7l0.5-1c0.3,0.3,1,0.7,1.8,0.7c0.6,0,1.2-0.3,1.2-1c0-0.6-0.4-0.8-0.9-0.8c-0.6,0-1,0.3-1.4,0.6
				l-0.6-0.6v-3h3.5v1.1h-2.6v1.4c0.4-0.3,0.7-0.6,1.3-0.6c0.9,0,1.8,0.6,1.8,1.9c0,1.5-1.1,2.2-2.2,2.2
				C477.9,186.6,477.1,186,476.7,185.7z"/>
			<path class="st6" d="M482.7,184.8c0.4,0,0.7,0.4,0.7,0.9c0,0.5-0.3,0.9-0.7,0.9c-0.4,0-0.7-0.4-0.7-0.9
				C482,185.2,482.3,184.8,482.7,184.8z"/>
			<path class="st6" d="M489,185.2h-0.8v1.2h-1v-1.2h-3v-0.8l3.1-3.7h0.9v3.5h0.8V185.2z M485.6,184.2h1.6v-1.9h-0.1
				C486.6,182.9,486.1,183.5,485.6,184.2L485.6,184.2z"/>
		</g>
	</g>
	<g>
		<g>
			<path class="st6" d="M370.6,138.7l1.3-0.8h0.9v5.8h-1v-4.5l-1,0.6L370.6,138.7z"/>
			<path class="st6" d="M378.7,142.5h-0.8v1.2h-1v-1.2h-3v-0.8l3.1-3.7h0.9v3.5h0.8V142.5z M375.3,141.4h1.6v-1.9h-0.1
				C376.3,140.1,375.8,140.8,375.3,141.4L375.3,141.4z"/>
			<path class="st6" d="M380.2,142.1c0.4,0,0.7,0.4,0.7,0.9c0,0.5-0.3,0.9-0.7,0.9c-0.4,0-0.7-0.4-0.7-0.9
				C379.5,142.5,379.8,142.1,380.2,142.1z"/>
			<path class="st6" d="M385.5,139.2c-0.3-0.2-0.8-0.3-1.2-0.3c-0.8,0-1.5,0.7-1.6,1.9c0.4-0.4,1-0.8,1.7-0.8c1.2,0,1.8,0.9,1.8,1.8
				c0,1.2-0.8,2.1-2,2.1c-1.2,0-2.4-1-2.4-3c0-2,1.2-3.2,2.5-3.2c0.8,0,1.4,0.3,1.7,0.5L385.5,139.2z M382.8,141.5
				c0.2,0.8,0.7,1.2,1.3,1.2c0.6,0,1-0.5,1-1c0-0.4-0.2-0.8-0.9-0.8C383.7,140.9,383.2,141.2,382.8,141.5z"/>
		</g>
	</g>
</g>
</svg>
