<?xml version="1.0" encoding="utf-8"?>
<!-- Generator: Adobe Illustrator 26.0.3, SVG Export Plug-In . SVG Version: 6.00 Build 0)  -->
<svg version="1.1" xmlns="http://www.w3.org/2000/svg" xmlns:xlink="http://www.w3.org/1999/xlink" x="0px" y="0px"
	 viewBox="0 0 720 480" style="enable-background:new 0 0 720 480;" xml:space="preserve">
<style type="text/css">
	.st0{fill:#DBD4CA;}
	.st1{opacity:0.3;clip-path:url(#SVGID_00000054985225593801119320000017953043779888938388_);}
	.st2{opacity:0.7;fill:#C49F8A;enable-background:new    ;}
	.st3{clip-path:url(#SVGID_00000010300127639210065130000016337429638436492454_);}
	.st4{fill:none;stroke:#C49F8A;stroke-miterlimit:10;}
	.st5{opacity:0.3;clip-path:url(#SVGID_00000100383209207694027740000013428306917321386371_);}
	.st6{clip-path:url(#SVGID_00000024699632590144684940000015489993874200298130_);}
	.st7{opacity:0.3;clip-path:url(#SVGID_00000127029655865787400220000015742887255963778745_);}
	.st8{clip-path:url(#SVGID_00000163068201145952029070000001017757884772277406_);}
	.st9{fill:none;stroke:#565440;}
	.st10{fill:#565440;}
	.st11{fill:#E9E4DC;}
	.st12{fill:#C49F8A;}
	.st13{fill:#E9E4DC;stroke:#C49F8A;}
	.st14{fill:#E9E4DC;stroke:#C49F8A;stroke-width:1;stroke-miterlimit:3.9998;}
	.st15{fill:none;stroke:#C49F8A;}
	.st16{fill:#E9E4DC;stroke:#C49F8A;stroke-linejoin:round;}
	.st17{fill:#E9E4DC;stroke:#C49F8A;stroke-width:1;stroke-miterlimit:4;}
	.st18{opacity:0;}
	.st19{fill:#3F3F3F;fill-opacity:0;}
</style>
<g id="_x31__x5F_2">
	<polygon id="Floor_1_" class="st0" points="203.6,64.5 446,64.5 446,309.6 514.4,309.6 514.4,415.6 203.6,415.6 	"/>
	<g id="Wet_Floor">
		<g id="Wet_Floor_1_">
			<g>
				<defs>
					<rect id="SVGID_1_" x="300.4" y="198.6" width="57.7" height="99.9"/>
				</defs>
				<clipPath id="SVGID_00000131364028555432729420000016172967581115927958_">
					<use xlink:href="#SVGID_1_"  style="overflow:visible;"/>
				</clipPath>
				<g style="opacity:0.3;clip-path:url(#SVGID_00000131364028555432729420000016172967581115927958_);">
					<rect x="163" y="69.7" class="st2" width="322.2" height="322.2"/>
				</g>
			</g>
			<g>
				<defs>
					<rect id="SVGID_00000126281945796931774290000014178776865577100421_" x="300.4" y="198.6" width="57.7" height="99.9"/>
				</defs>
				<clipPath id="SVGID_00000021111284067210878270000012177157879293853324_">
					<use xlink:href="#SVGID_00000126281945796931774290000014178776865577100421_"  style="overflow:visible;"/>
				</clipPath>
				<g style="clip-path:url(#SVGID_00000021111284067210878270000012177157879293853324_);">
					<line class="st4" x1="339.7" y1="329.8" x2="225" y2="215.2"/>
					<line class="st4" x1="329.3" y1="340.2" x2="214.6" y2="225.6"/>
					<line class="st4" x1="350.1" y1="319.4" x2="235.5" y2="204.7"/>
					<line class="st4" x1="360.5" y1="308.9" x2="245.9" y2="194.3"/>
					<line class="st4" x1="370.9" y1="298.5" x2="256.3" y2="183.9"/>
					<line class="st4" x1="381.4" y1="288.1" x2="266.7" y2="173.5"/>
					<line class="st4" x1="391.8" y1="277.7" x2="277.2" y2="163"/>
					<line class="st4" x1="402.2" y1="267.3" x2="287.6" y2="152.6"/>
					<line class="st4" x1="412.6" y1="256.8" x2="298" y2="142.2"/>
					<line class="st4" x1="423" y1="246.4" x2="308.4" y2="131.8"/>
					<line class="st4" x1="412.6" y1="256.8" x2="298" y2="142.2"/>
					<line class="st4" x1="433.5" y1="236" x2="318.8" y2="121.4"/>
					<line class="st4" x1="423" y1="225.6" x2="318.8" y2="329.8"/>
					<line class="st4" x1="433.5" y1="236" x2="329.3" y2="340.2"/>
					<line class="st4" x1="412.6" y1="215.2" x2="308.4" y2="319.4"/>
					<line class="st4" x1="402.2" y1="204.7" x2="298" y2="308.9"/>
					<line class="st4" x1="391.8" y1="194.3" x2="287.6" y2="298.5"/>
					<line class="st4" x1="381.4" y1="183.9" x2="277.1" y2="288.1"/>
					<line class="st4" x1="370.9" y1="173.5" x2="266.7" y2="277.7"/>
					<line class="st4" x1="360.5" y1="163" x2="256.3" y2="267.3"/>
					<line class="st4" x1="350.1" y1="152.6" x2="245.9" y2="256.8"/>
					<line class="st4" x1="339.7" y1="142.2" x2="235.5" y2="246.4"/>
					<line class="st4" x1="350.1" y1="152.6" x2="245.9" y2="256.8"/>
					<line class="st4" x1="329.3" y1="131.8" x2="225" y2="236"/>
					<line class="st4" x1="318.8" y1="121.4" x2="214.6" y2="225.6"/>
				</g>
			</g>
		</g>
		<g id="Wet_Floor_2_">
			<g>
				<defs>
					<rect id="SVGID_00000137846456726720910670000007840762562200621963_" x="401.6" y="197.7" width="39.2" height="55.9"/>
				</defs>
				<clipPath id="SVGID_00000044160229801493121830000011300339636286108319_">
					<use xlink:href="#SVGID_00000137846456726720910670000007840762562200621963_"  style="overflow:visible;"/>
				</clipPath>
				<g style="opacity:0.3;clip-path:url(#SVGID_00000044160229801493121830000011300339636286108319_);">
					<rect x="348.8" y="153.4" class="st2" width="152.9" height="152.9"/>
				</g>
			</g>
			<g>
				<defs>
					<rect id="SVGID_00000005240644221288213780000007967139286865515917_" x="401.6" y="197.7" width="39.2" height="55.9"/>
				</defs>
				<clipPath id="SVGID_00000011739400542309905190000002873069127538633150_">
					<use xlink:href="#SVGID_00000005240644221288213780000007967139286865515917_"  style="overflow:visible;"/>
				</clipPath>
				<g style="clip-path:url(#SVGID_00000011739400542309905190000002873069127538633150_);">
					<line class="st4" x1="440.9" y1="328.9" x2="326.3" y2="214.3"/>
					<line class="st4" x1="430.5" y1="339.3" x2="315.9" y2="224.7"/>
					<line class="st4" x1="451.3" y1="318.5" x2="336.7" y2="203.9"/>
					<line class="st4" x1="461.8" y1="308.1" x2="347.1" y2="193.4"/>
					<line class="st4" x1="472.2" y1="297.7" x2="357.6" y2="183"/>
					<line class="st4" x1="482.6" y1="287.2" x2="368" y2="172.6"/>
					<line class="st4" x1="493" y1="276.8" x2="378.4" y2="162.2"/>
					<line class="st4" x1="503.5" y1="266.4" x2="388.8" y2="151.8"/>
					<line class="st4" x1="513.9" y1="256" x2="399.2" y2="141.3"/>
					<line class="st4" x1="524.3" y1="245.5" x2="409.7" y2="130.9"/>
					<line class="st4" x1="513.9" y1="256" x2="399.2" y2="141.3"/>
					<line class="st4" x1="534.7" y1="235.1" x2="420.1" y2="120.5"/>
					<line class="st4" x1="524.3" y1="224.7" x2="420.1" y2="328.9"/>
					<line class="st4" x1="534.7" y1="235.1" x2="430.5" y2="339.3"/>
					<line class="st4" x1="513.9" y1="214.3" x2="409.7" y2="318.5"/>
					<line class="st4" x1="503.5" y1="203.9" x2="399.2" y2="308.1"/>
					<line class="st4" x1="493" y1="193.4" x2="388.8" y2="297.7"/>
					<line class="st4" x1="482.6" y1="183" x2="378.4" y2="287.2"/>
					<line class="st4" x1="472.2" y1="172.6" x2="368" y2="276.8"/>
					<line class="st4" x1="461.8" y1="162.2" x2="357.6" y2="266.4"/>
					<line class="st4" x1="451.3" y1="151.8" x2="347.1" y2="256"/>
					<line class="st4" x1="440.9" y1="141.3" x2="336.7" y2="245.5"/>
					<line class="st4" x1="451.3" y1="151.8" x2="347.1" y2="256"/>
					<line class="st4" x1="430.5" y1="130.9" x2="326.3" y2="235.1"/>
					<line class="st4" x1="420.1" y1="120.5" x2="315.9" y2="224.7"/>
				</g>
			</g>
		</g>
		<g id="Wet_Floor_3_">
			<g>
				<defs>
					<rect id="SVGID_00000129895322557108337080000013508747576195029130_" x="298.8" y="358.4" width="55.5" height="55.9"/>
				</defs>
				<clipPath id="SVGID_00000178893989691404789890000005146029884331386526_">
					<use xlink:href="#SVGID_00000129895322557108337080000013508747576195029130_"  style="overflow:visible;"/>
				</clipPath>
				<g style="opacity:0.3;clip-path:url(#SVGID_00000178893989691404789890000005146029884331386526_);">
					<rect x="246" y="314.1" class="st2" width="152.9" height="152.9"/>
				</g>
			</g>
			<g>
				<defs>
					<rect id="SVGID_00000060022657456170127900000005580364253326323364_" x="298.8" y="358.4" width="55.5" height="55.9"/>
				</defs>
				<clipPath id="SVGID_00000167395671511074236240000000083108841453204370_">
					<use xlink:href="#SVGID_00000060022657456170127900000005580364253326323364_"  style="overflow:visible;"/>
				</clipPath>
				<g style="clip-path:url(#SVGID_00000167395671511074236240000000083108841453204370_);">
					<line class="st4" x1="338.1" y1="489.6" x2="223.5" y2="374.9"/>
					<line class="st4" x1="327.7" y1="500" x2="213.1" y2="385.4"/>
					<line class="st4" x1="348.6" y1="479.1" x2="233.9" y2="364.5"/>
					<line class="st4" x1="359" y1="468.7" x2="244.3" y2="354.1"/>
					<line class="st4" x1="369.4" y1="458.3" x2="254.8" y2="343.7"/>
					<line class="st4" x1="379.8" y1="447.9" x2="265.2" y2="333.2"/>
					<line class="st4" x1="390.2" y1="437.5" x2="275.6" y2="322.8"/>
					<line class="st4" x1="400.7" y1="427" x2="286" y2="312.4"/>
					<line class="st4" x1="411.1" y1="416.6" x2="296.4" y2="302"/>
					<line class="st4" x1="421.5" y1="406.2" x2="306.9" y2="291.6"/>
					<line class="st4" x1="411.1" y1="416.6" x2="296.4" y2="302"/>
					<line class="st4" x1="431.9" y1="395.8" x2="317.3" y2="281.1"/>
					<line class="st4" x1="421.5" y1="385.4" x2="317.3" y2="489.6"/>
					<line class="st4" x1="431.9" y1="395.8" x2="327.7" y2="500"/>
					<line class="st4" x1="411.1" y1="374.9" x2="306.9" y2="479.1"/>
					<line class="st4" x1="400.7" y1="364.5" x2="296.4" y2="468.7"/>
					<line class="st4" x1="390.2" y1="354.1" x2="286" y2="458.3"/>
					<line class="st4" x1="379.8" y1="343.7" x2="275.6" y2="447.9"/>
					<line class="st4" x1="369.4" y1="333.2" x2="265.2" y2="437.5"/>
					<line class="st4" x1="359" y1="322.8" x2="254.8" y2="427"/>
					<line class="st4" x1="348.6" y1="312.4" x2="244.3" y2="416.6"/>
					<line class="st4" x1="338.1" y1="302" x2="233.9" y2="406.2"/>
					<line class="st4" x1="348.6" y1="312.4" x2="244.3" y2="416.6"/>
					<line class="st4" x1="327.7" y1="291.6" x2="223.5" y2="395.8"/>
					<line class="st4" x1="317.3" y1="281.1" x2="213.1" y2="385.4"/>
				</g>
			</g>
		</g>
	</g>
	<path id="Doors_2_" class="st9" d="M300.4,176.7c-2.4,0-4.4-0.4-6.6-1.3c-2.2-0.9-4.2-2.2-5.7-3.7c-1.8-1.5-3.1-3.5-4-5.7
		c-0.9-2.2-1.3-4.4-1.3-6.8l17.6,0 M300.4,151.7c-2.4,0-4.4-0.4-6.6-1.3c-2.2-0.9-4.2-2.2-5.7-3.7c-1.8-1.5-3.1-3.5-4-5.7
		c-0.9-2.2-1.3-4.4-1.3-6.8h17.6 M300.4,215.7c-2.5,0-4.5,0.4-6.7,1.4c-2.2,0.9-4.3,2.2-5.8,3.8c-1.8,1.6-3.2,3.6-4.1,5.9
		c-0.9,2.2-1.4,4.5-1.4,7l18,0 M300.4,320.2c-2.5,0-4.5-0.4-6.7-1.4c-2.2-0.9-4.3-2.2-5.8-3.8c-1.8-1.6-3.2-3.6-4.1-5.9
		c-0.9-2.2-1.4-4.5-1.4-7l18,0 M354.4,374.3c2.5,0,4.5,0.4,6.7,1.4c2.2,0.9,4.3,2.2,5.9,3.8c1.8,1.6,3.2,3.6,4.1,5.9s1.4,4.5,1.4,7
		h-18 M464,383c2.5,0,4.5-0.4,6.7-1.4c2.2-0.9,4.3-2.2,5.9-3.8c1.8-1.6,3.2-3.6,4.1-5.9c0.9-2.2,1.4-4.5,1.4-7l-18,0 M332.6,298.5
		c0,2.5-0.4,4.5-1.4,6.7c-0.9,2.2-2.2,4.3-3.8,5.9c-1.6,1.8-3.6,3.2-5.9,4.1s-4.5,1.4-7,1.4v-18 M314.3,327.8c0,2.5,0.4,4.5,1.4,6.7
		c0.9,2.2,2.2,4.3,3.8,5.9c1.6,1.8,3.6,3.2,5.9,4.1c2.2,0.9,4.5,1.4,7,1.4l0-18 M382.5,327.8c0,2.5-0.4,4.5-1.4,6.7
		c-0.9,2.2-2.2,4.3-3.8,5.9c-1.6,1.8-3.6,3.2-5.9,4.1c-2.2,0.9-4.5,1.4-7,1.4l0-18 M401.6,233.9c-2.3,0-4.2-0.4-6.4-1.3
		c-2.1-0.8-4-2.1-5.5-3.6c-1.7-1.5-3-3.4-3.8-5.5c-0.8-2.1-1.3-4.2-1.3-6.6l17,0 M446,282.7c3.1,0,5.7-0.6,8.5-1.7
		c2.8-1.1,5.4-2.8,7.4-4.8c2.3-2,4-4.6,5.1-7.4c1.1-2.8,1.7-5.7,1.7-8.8H446"/>
	<polygon id="Windows" class="st9" points="200.3,61.1 200.3,275.8 200.3,275.8 200.3,418.9 425.3,418.9 425.3,415.5 203.6,415.5 
		203.6,415.5 203.6,252.6 203.6,64.5 443.5,64.5 443.5,64.5 443.5,61.1 	"/>
	<g id="Walls">
		<rect x="376" y="60" class="st10" width="14.7" height="11.3"/>
		<polygon class="st10" points="210.4,156.9 300.4,156.9 300.4,159.1 302.6,159.1 302.6,151.7 300.4,151.7 300.4,154.7 210.4,154.7 
			210.4,127.5 212.6,127.5 212.6,111.7 199.1,111.7 199.1,174.8 210.4,174.8 		"/>
		<polygon class="st10" points="300.4,134.1 302.6,134.1 302.6,71.3 305.4,71.3 305.4,73.5 325.1,73.5 325.1,71.3 344.2,71.3 
			344.2,60 280.7,60 280.7,71.3 300.4,71.3 		"/>
		<rect x="232.9" y="60" class="st10" width="15.7" height="13.5"/>
		<path class="st10" d="M439.2,260h6.8V60h-23.2v11.3h16.5v0v118.6h-7.5v0.1v2.2v5.4h-29.5v0h-0.6v19.4h2.2v-17.2h35.3v52.3h-35.3
			v-18.3h-2.2v18.3v2.2h37.6V260z M434,197.5v-5.4h5.2v5.4H434z"/>
		<polygon class="st10" points="210.4,327.8 314.3,327.8 314.3,325.5 302.6,325.5 302.6,320.2 300.4,320.2 300.4,325.5 210.4,325.5 
			210.4,303 199.1,303 199.1,366 212.6,366 212.6,350.2 210.4,350.2 		"/>
		<path class="st10" d="M210.4,255.8l90,0v46.5h2.2v-3.7h12v-2.2h-12v-32.5h8v-0.9h0v-7.1H357v40.5h-24.4v2.3h26.6v-42.8v-0.9v-2.8
			V249v-51.5h-56.6v-21.6h-2.2v39.8h2.2v-16H357V249l-46.4,0v-7.3h0v-0.9h-8v-7.1h-2.2l0,15.3h-87.8v-14.5h-2.2v-26.9h-11.3v61.7
			h11.3V255.8z M308.4,261.5h-5.7v-5.8h5.7V261.5z M308.4,243.1v5.9h-5.7v-5.9H308.4z"/>
		<rect x="232.9" y="406.5" class="st10" width="15.7" height="13.5"/>
		<rect x="376.9" y="408.7" class="st10" width="15.8" height="11.3"/>
		<path class="st10" d="M332.4,327.8l19.7,0v30.4h-54v50.6h-6.8V420l63,0v-27.7h-2.3v14.3h-13.5v2.2h-28.2v-9.6v-1.4v-0.9h-10.1
			v-36.5h51.7v13.8h2.3v-46.5h10.2v-2.2h-32.1V327.8z M308.2,399.1v9.6h-7.8v-9.6H308.2z"/>
		<path class="st10" d="M520.9,307.5H446v-24.8h-6.8V312h-55.7v13.5h-1v2.2h3.2v-2.2h0v-11.3l76,0V365h2.3v-50.8h37.8v5.8v1.4v0.9
			h7.9v84.2H464V383h-2.3v23.5h-37.6V420h96.7v-15.8L520.9,307.5z M504,320v-5.8h5.6v5.8H504z"/>
	</g>
	<g id="Furniture_1_">
		<g>
			<g>
				<rect x="213.1" y="205.4" class="st11" width="36.3" height="43.1"/>
				<path class="st12" d="M248.9,205.9V248l-35.3,0l0-42.1L248.9,205.9 M249.9,204.9l-37.3,0l0,44.1l37.3,0V204.9L249.9,204.9z"/>
			</g>
			<rect x="232.2" y="235" class="st13" width="14.6" height="10.9"/>
			<rect x="215.8" y="235" class="st13" width="14.6" height="10.9"/>
			
				<rect x="232.8" y="230.1" transform="matrix(0.9659 -0.2588 0.2588 0.9659 -52.8413 69.6878)" class="st14" width="10.9" height="10.9"/>
			
				<rect x="218.7" y="230.1" transform="matrix(0.2588 -0.9659 0.9659 0.2588 -61.3713 391.0868)" class="st14" width="10.9" height="10.9"/>
			<g>
				<polygon class="st11" points="213.1,239.3 213.1,205 249.4,205 249.4,237 227.5,240.2 				"/>
				<path class="st12" d="M248.9,205.5l0,31.1l-21.4,3.1l-13.9-0.9v-33.4H248.9 M249.9,204.5h-37.3v34.6v0.7l14.9,0.9l22.4-3.2v-0.2
					L249.9,204.5L249.9,204.5z"/>
			</g>
			<polyline class="st15" points="213.1,238.6 227.6,238.6 249.5,236.8 			"/>
		</g>
		<g>
			<g>
				<rect x="253" y="84.1" class="st11" width="46.9" height="28.6"/>
				<path class="st12" d="M299.4,84.6v27.6h-45.9l0-27.6H299.4 M300.4,83.6h-47.9l0,29.6h47.9V83.6L300.4,83.6z"/>
			</g>
			<rect x="285.1" y="86.1" class="st13" width="11.8" height="11.5"/>
			<rect x="285.1" y="99.1" class="st13" width="11.8" height="11.5"/>
			<polygon class="st14" points="289.9,87.5 293,95.8 281.6,98.1 278.5,89.7 			"/>
			<polygon class="st14" points="281.6,98.7 293,100.9 289.9,109.3 278.5,107 			"/>
			<g>
				<polygon class="st11" points="252.5,112.6 252.5,84.1 287.4,84.1 290.9,101.3 289.9,112.6 				"/>
				<path class="st12" d="M287,84.6l3.3,16.8l-0.9,10.8H253l0-27.6H287 M287.8,83.6h-0.3H252l0,29.6h37.6h0.8l1-11.8L287.8,83.6
					L287.8,83.6z"/>
			</g>
			<polyline class="st15" points="289.1,112.7 289.1,101.2 287.2,83.9 			"/>
		</g>
		<g>
			<g>
				<rect x="285.9" y="178.1" class="st11" width="1.8" height="36.6"/>
				<path class="st12" d="M287.2,178.6l0,35.6h-0.8l0-35.6H287.2 M288.2,177.6h-2.8l0,37.6h2.8L288.2,177.6L288.2,177.6z"/>
			</g>
			<g>
				<rect x="287.7" y="178.1" class="st11" width="12.1" height="36.6"/>
				<path class="st12" d="M299.4,178.6l0,35.6l-11.1,0v-35.6H299.4 M300.4,177.6h-13.1v37.6l13.1,0L300.4,177.6L300.4,177.6z"/>
			</g>
			<path class="st13" d="M299.9,214.6l-12.1-36.5"/>
		</g>
		<g>
			<g>
				<rect x="210.9" y="140.2" class="st11" width="55.2" height="1.8"/>
				<path class="st12" d="M211.4,140.7l54.2,0v0.8l-54.2,0V140.7 M210.4,139.7v2.8l56.2,0v-2.8L210.4,139.7L210.4,139.7z"/>
			</g>
			<g>
				<rect x="210.9" y="142" class="st11" width="55.2" height="12.1"/>
				<path class="st12" d="M211.4,142.5l54.2,0v11.1h-54.2L211.4,142.5 M210.4,141.5l0,13.1h56.2v-13.1L210.4,141.5L210.4,141.5z"/>
			</g>
			<path class="st13" d="M211.3,154.2l54.5-12.1"/>
		</g>
		<g>
			<g>
				<rect x="285.9" y="256.3" class="st11" width="1.8" height="41.7"/>
				<path class="st12" d="M287.2,256.8l0,40.7h-0.8l0-40.7H287.2 M288.2,255.8h-2.8l0,42.7h2.8L288.2,255.8L288.2,255.8z"/>
			</g>
			<g>
				<rect x="287.7" y="256.3" class="st11" width="12.1" height="41.7"/>
				<path class="st12" d="M288.2,256.8l11.1,0l0,40.7l-11.1,0V256.8 M287.2,255.8v42.7l13.1,0l0-42.7L287.2,255.8L287.2,255.8z"/>
			</g>
			<path class="st13" d="M299.9,297.8l-12.1-41.5"/>
		</g>
		<g>
			<g>
				<rect x="388" y="297.5" class="st11" width="50.7" height="1.8"/>
				<path class="st12" d="M388.5,298h49.7v0.8l-49.7,0V298 M387.5,297v2.8l51.7,0V297H387.5L387.5,297z"/>
			</g>
			<g>
				<rect x="388" y="299.4" class="st11" width="50.7" height="12.1"/>
				<path class="st12" d="M388.5,299.9h49.7V311h-49.7L388.5,299.9 M387.5,298.9l0,13.1h51.7v-13.1H387.5L387.5,298.9z"/>
			</g>
			<path class="st13" d="M388.3,311.5l50.2-12.1"/>
		</g>
		<g>
			<g>
				<rect x="337.7" y="328.3" class="st11" width="1.8" height="29.4"/>
				<path class="st12" d="M339,328.8l0,28.4h-0.8l0-28.4H339 M340,327.8h-2.8l0,30.4h2.8L340,327.8L340,327.8z"/>
			</g>
			<g>
				<rect x="339.5" y="328.3" class="st11" width="12.1" height="29.4"/>
				<path class="st12" d="M351.1,328.8l0,28.4H340l0-28.4H351.1 M352.1,327.8H339l0,30.4h13.1L352.1,327.8L352.1,327.8z"/>
			</g>
			<path class="st13" d="M351.6,357.7l-12.1-29.5"/>
		</g>
		<g>
			<g>
				<rect x="495.2" y="322.8" class="st11" width="1.8" height="83.2"/>
				<path class="st12" d="M496.5,323.3l0,82.2l-0.8,0l0-82.2H496.5 M497.5,322.3h-2.8l0,84.2l2.8,0L497.5,322.3L497.5,322.3z"/>
			</g>
			<g>
				<rect x="497" y="322.8" class="st11" width="12.1" height="83.2"/>
				<path class="st12" d="M497.5,323.3h11.1v82.2l-11.1,0L497.5,323.3 M496.5,322.3l0,84.2l13.1,0v-84.2H496.5L496.5,322.3z"/>
			</g>
			<path class="st13" d="M509.2,405.2L497,323.4"/>
		</g>
		<g>
			<g>
				<rect x="216.8" y="372.8" class="st11" width="1.8" height="41.7"/>
				<path class="st12" d="M218.1,373.3l0,40.7h-0.8l0-40.7H218.1 M219.1,372.3h-2.8l0,42.7h2.8L219.1,372.3L219.1,372.3z"/>
			</g>
			<g>
				<rect x="204.6" y="372.8" class="st11" width="12.1" height="41.7"/>
				<path class="st12" d="M205.1,373.3l11.1,0l0,40.7h-11.1L205.1,373.3 M204.1,372.3l0,42.7h13.1l0-42.7L204.1,372.3L204.1,372.3z"
					/>
			</g>
			<path class="st13" d="M204.6,373l12.1,41.5"/>
		</g>
		<g>
			<g>
				<rect x="340.7" y="209.1" class="st11" width="15.8" height="39.4"/>
				<path class="st12" d="M356,209.6l0,38.4l-14.8,0l0-38.4H356 M357,208.6h-16.8l0,40.4l16.8,0L357,208.6L357,208.6z"/>
			</g>
			<g>
				<g>
					<path class="st16" d="M348.6,245.3c3.1,0,5.5-2.7,5.2-5.7c-0.3-3.4-0.6-7.6-0.6-10.8c0-3.1,0.3-7.4,0.6-10.8
						c0.3-3.1-2.1-5.7-5.2-5.7c-3.1,0-5.5,2.7-5.2,5.7c0.3,3.4,0.6,7.6,0.6,10.8c0,3.1-0.3,7.4-0.6,10.8
						C343.1,242.6,345.5,245.3,348.6,245.3z"/>
					<ellipse class="st16" cx="348.6" cy="239.9" rx="0.8" ry="0.8"/>
				</g>
			</g>
		</g>
		<g>
			<g>
				<rect x="303.1" y="200.2" class="st11" width="13.6" height="9"/>
				<path class="st12" d="M316.2,200.7v8h-12.6v-8H316.2 M317.2,199.7h-14.6v10h14.6V199.7L317.2,199.7z"/>
			</g>
			<g>
				<path class="st11" d="M309.9,207.5c-1.5,0-2.7-1.2-2.7-2.7s1.2-2.7,2.7-2.7c1.5,0,2.7,1.2,2.7,2.7S311.4,207.5,309.9,207.5z"/>
				<path class="st12" d="M309.9,202.5c1.2,0,2.2,1,2.2,2.2s-1,2.2-2.2,2.2s-2.2-1-2.2-2.2S308.7,202.5,309.9,202.5 M309.9,201.5
					c-1.8,0-3.2,1.5-3.2,3.2s1.5,3.2,3.2,3.2s3.2-1.5,3.2-3.2S311.7,201.5,309.9,201.5L309.9,201.5z"/>
			</g>
		</g>
		<g>
			<path class="st13" d="M360.1,137.2v-29.9h21.7v29.9H360.1z"/>
			<path class="st13" d="M364.7,105.6v-0.5c0-3.5,2.8-6.3,6.3-6.3c3.5,0,6.3,2.8,6.3,6.3v0.5H364.7z"/>
			<path class="st13" d="M366.5,107.3V105c0-2.5,2-4.5,4.5-4.5s4.5,2,4.5,4.5v2.3H366.5z"/>
			<path class="st13" d="M364.7,138.9v0.5c0,3.5,2.8,6.3,6.3,6.3c3.5,0,6.3-2.8,6.3-6.3v-0.5H364.7z"/>
			<path class="st13" d="M366.5,137.2v2.3c0,2.5,2,4.5,4.5,4.5s4.5-2,4.5-4.5v-2.3H366.5z"/>
			<path class="st13" d="M383.6,127.6h0.5c3.5,0,6.3-2.8,6.3-6.3c0-3.5-2.8-6.3-6.3-6.3h-0.5V127.6z"/>
			<path class="st13" d="M381.9,125.8h2.3c2.5,0,4.5-2,4.5-4.5c0-2.5-2-4.5-4.5-4.5h-2.3V125.8z"/>
			<path class="st13" d="M358.5,114.9H358c-3.5,0-6.3,2.8-6.3,6.3c0,3.5,2.8,6.3,6.3,6.3h0.5V114.9z"/>
			<path class="st13" d="M360.1,116.7h-2.3c-2.5,0-4.5,2-4.5,4.5c0,2.5,2,4.5,4.5,4.5h2.3V116.7z"/>
		</g>
		<g>
			<path class="st13" d="M229.9,88.6l0,11l-10,1.5l0-14.1L229.9,88.6z"/>
			<g>
				<rect x="204.7" y="65.4" class="st11" width="16.1" height="46"/>
				<path class="st12" d="M220.2,65.9l0,45h-15.1l0-45H220.2 M221.2,64.9h-17.1l0,47h17.1L221.2,64.9L221.2,64.9z"/>
			</g>
			<path class="st15" d="M216.6,89.8l0,8.5 M218.2,89.1l0,10l-3,0l0-10L218.2,89.1z"/>
			<path class="st17" d="M218.3,85.5L218.3,85.5c0,0.4-0.3,0.8-0.8,0.8l-1,0c-0.4,0-0.8-0.3-0.8-0.8l0,0c0-0.4,0.3-0.8,0.8-0.8l1,0
				C218,84.8,218.3,85.1,218.3,85.5z"/>
			<path class="st13" d="M210.3,91.6c1.4,0,2.5,1.1,2.5,2.5c0,1.4-1.1,2.5-2.5,2.5l-2.5,0l0-5L210.3,91.6z"/>
			<g>
				<rect x="206.6" y="81.2" class="st11" width="1.8" height="25.8"/>
				<path class="st12" d="M207.9,81.7v24.8h-0.8V81.7H207.9 M208.9,80.7h-2.8v26.8h2.8V80.7L208.9,80.7z"/>
			</g>
			<g>
				<rect x="221.3" y="88.9" class="st11" width="8.7" height="10.4"/>
				<path class="st12" d="M229.5,89.4v9.4h-7.7v-9.4H229.5 M230.5,88.4h-9.7v11.4h9.7V88.4L230.5,88.4z"/>
			</g>
			<g>
				<rect x="230" y="88.6" class="st11" width="1.8" height="10.9"/>
				<path class="st12" d="M231.3,89.1v9.9h-0.8v-9.9H231.3 M232.3,88.1h-2.8v11.9h2.8V88.1L232.3,88.1z"/>
			</g>
		</g>
		<g>
			<path class="st13" d="M229.8,280.6l0,11l-10,1.5l0-14.1L229.8,280.6z"/>
			<g>
				<rect x="204.6" y="269.8" class="st11" width="16.1" height="32.7"/>
				<path class="st12" d="M220.2,270.3l0,31.7l-15.1,0v-31.7H220.2 M221.2,269.3h-17.1V303l17.1,0L221.2,269.3L221.2,269.3z"/>
			</g>
			<path class="st15" d="M216.5,281.9l0,8.5 M218.1,281.1l0,10l-3,0l0-10L218.1,281.1z"/>
			<path class="st17" d="M218,278.4L218,278.4c0,0.4-0.3,0.8-0.8,0.8l-1,0c-0.4,0-0.8-0.3-0.8-0.8l0,0c0-0.4,0.3-0.8,0.8-0.8l1,0
				C217.7,277.6,218,277.9,218,278.4z"/>
			<path class="st13" d="M210.2,283.6c1.4,0,2.5,1.1,2.5,2.5c0,1.4-1.1,2.5-2.5,2.5l-2.5,0l0-5L210.2,283.6z"/>
			<g>
				<rect x="206.5" y="273.3" class="st11" width="1.8" height="25.8"/>
				<path class="st12" d="M207.9,273.8v24.8H207v-24.8H207.9 M208.9,272.8H206v26.8h2.8V272.8L208.9,272.8z"/>
			</g>
			<g>
				<rect x="221.2" y="280.9" class="st11" width="8.7" height="10.4"/>
				<path class="st12" d="M229.4,281.4v9.4h-7.7v-9.4H229.4 M230.4,280.4h-9.7v11.4h9.7V280.4L230.4,280.4z"/>
			</g>
			<g>
				<rect x="229.9" y="280.7" class="st11" width="1.8" height="10.9"/>
				<path class="st12" d="M231.3,281.2v9.9h-0.8v-9.9H231.3 M232.3,280.2h-2.8v11.9h2.8V280.2L232.3,280.2z"/>
			</g>
		</g>
		<g id="Sink_2_3_">
			<g id="Rectangle_16_x5F_11_5_">
				<rect x="407.4" y="200.2" class="st11" width="15.5" height="9.9"/>
				<path class="st12" d="M422.5,200.7v8.9h-14.5v-8.9H422.5 M423.5,199.7h-16.5v10.9h16.5V199.7L423.5,199.7z"/>
			</g>
			<path id="Rectangle_19_x5F_5_3_" class="st13" d="M409.5,205.2L409.5,205.2c0,1.8,1.5,3.3,3.3,3.3h4.8c1.8,0,3.3-1.5,3.3-3.3l0,0
				c0-1.8-1.5-3.3-3.3-3.3h-4.8C411,201.8,409.5,203.3,409.5,205.2z"/>
			<circle id="Ellipse_7_x5F_2_3_" class="st13" cx="415.2" cy="203.7" r="0.8"/>
		</g>
		<g id="Sink_2_5_">
			<g id="Rectangle_16_x5F_11_7_">
				<rect x="325.1" y="238.6" class="st11" width="15.5" height="9.9"/>
				<path class="st12" d="M340.1,239.1v8.9l-14.5,0v-8.9L340.1,239.1 M341.1,238.1l-16.5,0V249l16.5,0V238.1L341.1,238.1z"/>
			</g>
			<path id="Rectangle_19_x5F_5_5_" class="st13" d="M338.6,243.6L338.6,243.6c0-1.8-1.5-3.3-3.3-3.3l-4.8,0c-1.8,0-3.3,1.5-3.3,3.3
				l0,0c0,1.8,1.5,3.3,3.3,3.3h4.8C337.1,246.9,338.6,245.4,338.6,243.6z"/>
			<circle id="Ellipse_7_x5F_2_5_" class="st13" cx="332.9" cy="245" r="0.8"/>
		</g>
		<g id="Toilet_4_">
			<g id="Rectangle_21_6_">
				<rect x="428" y="200.2" class="st11" width="9.5" height="3.2"/>
				<path class="st12" d="M437,200.7v2.2h-8.5v-2.2L437,200.7 M438,199.7l-10.5,0v4.2H438V199.7L438,199.7z"/>
			</g>
			<path id="Rectangle_19_x5F_2_4_" class="st13" d="M429.4,209.6c-0.1,1.9,1.4,3.5,3.3,3.5l0,0c1.9,0,3.4-1.6,3.3-3.5l-0.4-6.1
				l-5.8,0L429.4,209.6z"/>
			<path id="Rectangle_18_x5F_13_4_" class="st13" d="M430.7,209.4c-0.1,1.2,0.8,2.2,2,2.2l0,0c1.2,0,2.1-1,2-2.2l-0.3-3.1H431
				L430.7,209.4z"/>
			<ellipse id="Ellipse_6_x5F_2_4_" class="st13" cx="432.7" cy="208.1" rx="0.8" ry="0.8"/>
		</g>
		<g id="Toilet_5_">
			<g id="Rectangle_21_7_">
				<rect x="300.8" y="386.9" class="st11" width="3.2" height="9.5"/>
				<path class="st12" d="M303.5,387.4v8.5h-2.2v-8.5H303.5 M304.5,386.4h-4.2v10.5h4.2V386.4L304.5,386.4z"/>
			</g>
			<path id="Rectangle_19_x5F_2_5_" class="st13" d="M310.2,394.9c1.9,0.1,3.5-1.4,3.5-3.3l0,0c0-1.9-1.6-3.4-3.5-3.3l-6.1,0.4v5.8
				L310.2,394.9z"/>
			<path id="Rectangle_18_x5F_13_5_" class="st13" d="M310,393.6c1.2,0.1,2.2-0.8,2.2-2l0,0c0-1.2-1-2.1-2.2-2l-3.1,0.3l0,3.4
				L310,393.6z"/>
			<ellipse id="Ellipse_6_x5F_2_5_" class="st13" cx="308.7" cy="391.6" rx="0.8" ry="0.8"/>
		</g>
		<g id="Toilet_8_">
			<g id="Rectangle_21_12_">
				<rect x="303.1" y="282.4" class="st11" width="3.2" height="9.5"/>
				<path class="st12" d="M305.8,282.9l0,8.5h-2.2v-8.5H305.8 M306.8,281.9h-4.2v10.5h4.2L306.8,281.9L306.8,281.9z"/>
			</g>
			<path id="Rectangle_19_x5F_2_8_" class="st13" d="M312.4,290.4c1.9,0.1,3.5-1.4,3.5-3.3l0,0c0-1.9-1.6-3.4-3.5-3.3l-6.1,0.4v5.8
				L312.4,290.4z"/>
			<path id="Rectangle_18_x5F_13_8_" class="st13" d="M312.2,289.1c1.2,0.1,2.2-0.8,2.2-2l0,0c0-1.2-1-2.1-2.2-2l-3.1,0.3v3.4
				L312.2,289.1z"/>
			<ellipse id="Ellipse_6_x5F_2_8_" class="st13" cx="311.1" cy="287.1" rx="0.8" ry="0.8"/>
		</g>
		<g id="Toilet_7_">
			<g id="Rectangle_21_8_">
				<rect x="312.2" y="245.4" class="st11" width="9.5" height="3.2"/>
				<path class="st12" d="M321.2,245.9v2.2l-8.5,0v-2.2H321.2 M322.2,244.9h-10.5v4.2l10.5,0V244.9L322.2,244.9z"/>
			</g>
			<path id="Rectangle_19_x5F_2_7_" class="st13" d="M320.2,239.1c0.1-1.9-1.4-3.5-3.3-3.5l0,0c-1.9,0-3.4,1.6-3.3,3.5l0.4,6.1h5.8
				L320.2,239.1z"/>
			<path id="Rectangle_18_x5F_13_7_" class="st13" d="M318.9,239.4c0.1-1.2-0.8-2.2-2-2.2l0,0c-1.2,0-2.1,1-2,2.2l0.3,3.1h3.4
				L318.9,239.4z"/>
			<ellipse id="Ellipse_6_x5F_2_7_" class="st13" cx="316.9" cy="240.7" rx="0.8" ry="0.8"/>
		</g>
		<g id="TV_2_">
			<g id="Rectangle_16_2_">
				<rect x="214.8" y="163.3" class="st11" width="33.6" height="1.8"/>
				<path class="st12" d="M247.9,163.8v0.8h-32.6v-0.8H247.9 M248.9,162.8h-34.6v2.8h34.6V162.8L248.9,162.8z"/>
			</g>
			<g id="Rectangle_15_2_">
				<rect x="214.8" y="157.4" class="st11" width="33.6" height="5.9"/>
				<path class="st12" d="M247.9,157.9v4.9h-32.6v-4.9H247.9 M248.9,156.9h-34.6v6.9h34.6V156.9L248.9,156.9z"/>
			</g>
			<g id="Rectangle_17_2_">
				<rect x="220.6" y="159.3" class="st11" width="22" height="1.8"/>
				<path class="st12" d="M242.1,159.8v0.8h-21v-0.8H242.1 M243.1,158.8h-23v2.8h23V158.8L243.1,158.8z"/>
			</g>
			<path id="Rectangle_18_x5F_2_2_" class="st13" d="M236.4,159.3h-9.7l0.9-1.9h8L236.4,159.3z"/>
		</g>
		<g id="TV_3_">
			<g id="Rectangle_16_5_">
				<rect x="320.1" y="189.2" class="st11" width="33.6" height="1.8"/>
				<path class="st12" d="M320.6,189.7l32.6,0v0.8h-32.6V189.7 M319.6,188.7v2.8h34.6v-2.8L319.6,188.7L319.6,188.7z"/>
			</g>
			<g id="Rectangle_15_5_">
				<rect x="320.1" y="191.1" class="st11" width="33.6" height="5.9"/>
				<path class="st12" d="M320.6,191.6l32.6,0v4.9h-32.6V191.6 M319.6,190.6v6.9h34.6v-6.9L319.6,190.6L319.6,190.6z"/>
			</g>
			<g id="Rectangle_17_5_">
				<rect x="325.9" y="193.2" class="st11" width="22" height="1.8"/>
				<path class="st12" d="M347.4,193.7v0.8l-21,0v-0.8H347.4 M348.4,192.7h-23v2.8l23,0V192.7L348.4,192.7z"/>
			</g>
			<path id="Rectangle_18_x5F_2_3_" class="st13" d="M332,195.1l9.7,0l-0.9,1.9h-8L332,195.1z"/>
		</g>
		<g id="Kitchen_1_">
			<g id="Rectangle_24_1_">
				<rect x="425.5" y="131.4" class="st11" width="13.2" height="43.1"/>
				<path class="st12" d="M438.2,131.9V174H426v-42.1H438.2 M439.2,130.9H425V175h14.2V130.9L439.2,130.9z"/>
			</g>
			<g id="Rectangle_26_1_">
				<rect x="425.5" y="71.8" class="st11" width="13.2" height="111.5"/>
				<path class="st12" d="M438.2,72.3l0,110.5l-12.2,0l0-110.5H438.2 M439.2,71.3H425l0,112.5l14.2,0L439.2,71.3L439.2,71.3z"/>
			</g>
			<g id="Sink_3_1_">
				<rect id="Rectangle_28_x5F_2_1_" x="427.4" y="106.7" class="st13" width="9.3" height="14.8"/>
				<path id="Rectangle_29_x5F_2_1_" class="st13" d="M432.1,115.7L432.1,115.7c1.9,0,3.5-1.6,3.5-3.5v-0.8c0-1.9-1.6-3.5-3.5-3.5
					l0,0c-1.9,0-3.5,1.6-3.5,3.5v0.8C428.6,114.1,430.2,115.7,432.1,115.7z"/>
				<ellipse id="Ellipse_7_x5F_3_1_" class="st13" cx="434" cy="111.8" rx="0.8" ry="0.8"/>
				<line class="st15" x1="429.1" y1="120.6" x2="429.1" y2="116.7"/>
				<line class="st15" x1="431.1" y1="120.6" x2="431.1" y2="116.7"/>
				<line class="st15" x1="433.1" y1="120.6" x2="433.1" y2="116.7"/>
				<line class="st15" x1="435.1" y1="120.6" x2="435.1" y2="116.7"/>
			</g>
			<g id="Stove_1_">
				<g id="Rectangle_25_1_">
					<rect x="425.5" y="135.1" class="st11" width="13.2" height="12.8"/>
					<path class="st12" d="M438.2,135.6v11.8H426v-11.8H438.2 M439.2,134.6H425v13.8h14.2V134.6L439.2,134.6z"/>
				</g>
				<g id="Ellipse_7_x5F_4_1_">
					<path class="st11" d="M429.4,146.2c-0.7,0-1.3-0.6-1.3-1.3s0.6-1.3,1.3-1.3s1.3,0.6,1.3,1.3S430.1,146.2,429.4,146.2z"/>
					<path class="st12" d="M429.4,144.2c0.4,0,0.8,0.3,0.8,0.8s-0.3,0.8-0.8,0.8s-0.8-0.3-0.8-0.8S429,144.2,429.4,144.2
						 M429.4,143.2c-1,0-1.8,0.8-1.8,1.8s0.8,1.8,1.8,1.8s1.8-0.8,1.8-1.8S430.4,143.2,429.4,143.2L429.4,143.2z"/>
				</g>
				<g id="Ellipse_9_1_">
					<path class="st11" d="M434.8,146.6c-0.9,0-1.7-0.8-1.7-1.7s0.8-1.7,1.7-1.7c0.9,0,1.7,0.8,1.7,1.7S435.7,146.6,434.8,146.6z"/>
					<path class="st12" d="M434.8,143.7c0.7,0,1.2,0.5,1.2,1.2s-0.5,1.2-1.2,1.2s-1.2-0.5-1.2-1.2S434.1,143.7,434.8,143.7
						 M434.8,142.7c-1.2,0-2.2,1-2.2,2.2c0,1.2,1,2.2,2.2,2.2s2.2-1,2.2-2.2C437,143.7,436,142.7,434.8,142.7L434.8,142.7z"/>
				</g>
				<g id="Ellipse_10_1_">
					<path class="st11" d="M429.4,140.4c-0.9,0-1.7-0.8-1.7-1.7c0-0.9,0.8-1.7,1.7-1.7c0.9,0,1.7,0.8,1.7,1.7
						C431.2,139.7,430.4,140.4,429.4,140.4z"/>
					<path class="st12" d="M429.4,137.5c0.7,0,1.2,0.5,1.2,1.2c0,0.7-0.5,1.2-1.2,1.2s-1.2-0.5-1.2-1.2
						C428.2,138,428.8,137.5,429.4,137.5 M429.4,136.5c-1.2,0-2.2,1-2.2,2.2s1,2.2,2.2,2.2s2.2-1,2.2-2.2S430.7,136.5,429.4,136.5
						L429.4,136.5z"/>
				</g>
				<g id="Ellipse_8_1_">
					<path class="st11" d="M435.2,140c-0.7,0-1.3-0.6-1.3-1.3s0.6-1.3,1.3-1.3s1.3,0.6,1.3,1.3S435.9,140,435.2,140z"/>
					<path class="st12" d="M435.2,137.9c0.4,0,0.8,0.3,0.8,0.8s-0.3,0.8-0.8,0.8s-0.8-0.3-0.8-0.8S434.8,137.9,435.2,137.9
						 M435.2,136.9c-1,0-1.8,0.8-1.8,1.8c0,1,0.8,1.8,1.8,1.8s1.8-0.8,1.8-1.8C437,137.7,436.2,136.9,435.2,136.9L435.2,136.9z"/>
				</g>
			</g>
		</g>
		<g>
			<polygon class="st11" points="402.1,197 402.1,183.2 438.7,183.2 438.7,189.3 431.2,189.3 431.2,197 			"/>
			<path class="st12" d="M438.2,183.7v5.1h-6.5h-1v1v6.6h-28.1v-12.8h7.3h21.8H438.2 M439.2,182.7h-7.5h-21.8h-8.3v14.8h30.1v-7.6
				h7.5V182.7L439.2,182.7z"/>
		</g>
		<g id="Rectangle_27_1_">
			<rect x="411.7" y="183.2" class="st11" width="13.8" height="13.8"/>
			<path class="st12" d="M425,183.7v12.8h-12.8v-12.8H425 M426,182.7h-14.8v14.8H426V182.7L426,182.7z"/>
		</g>
		<path id="Vector_3_1_" class="st15" d="M420.4,191h-3.5 M419.5,192.5l-1.8-3.1 M419.5,189.4l-1.8,3.1"/>
		<g id="Rectangle_28_3_">
			<rect x="411.7" y="183.2" class="st11" width="13.8" height="1.8"/>
			<path class="st12" d="M425,183.7l0,0.8h-12.8v-0.8H425 M426,182.7h-14.8v2.8H426L426,182.7L426,182.7z"/>
		</g>
		<g>
			<path class="st13" d="M332.3,90.8c0.6,0,1.1-0.5,1.1-1.1V78.1h-26.3v12.7H332.3z"/>
			<path class="st13" d="M318.7,111.2c0.6,0,1.1-0.5,1.1-1.2V92c0-0.7-0.5-1.2-1.1-1.2h-11.5v20.4H318.7z"/>
			<path class="st13" d="M318.7,130.8c0.6,0,1.1-0.5,1.1-1.2v-17.3c0-0.6-0.5-1.2-1.1-1.2h-11.5v19.6H318.7z"/>
			<path class="st13" d="M320.8,130.8v4.3h-18.1V73.5h35.3v18.2h-4.5V78.1h-26.3v52.7H320.8z"/>
		</g>
		<g id="Shower_1_">
			<path id="Rectangle_22_3_" class="st13" d="M438.7,233.3v18.3h-18.3v-12.6c0-3.1,2.5-5.7,5.7-5.7H438.7z"/>
			<path id="Rectangle_22_2_" class="st13" d="M437.1,234.9v15h-15v-10.3c0-2.6,2.1-4.7,4.7-4.7H437.1z"/>
			<ellipse id="Ellipse_6_x5F_4_1_" class="st13" cx="434" cy="246.9" rx="0.8" ry="0.8"/>
		</g>
		<g>
			<g>
				<rect x="239.4" y="328.3" class="st11" width="36.7" height="45.1"/>
				<path class="st12" d="M239.9,328.8h35.7l0,44.1h-35.7L239.9,328.8 M238.9,327.8l0,46.1h37.7l0-46.1H238.9L238.9,327.8z"/>
			</g>
			<rect x="258.7" y="331" class="st13" width="14.7" height="11.4"/>
			<rect x="242.1" y="331" class="st13" width="14.7" height="11.4"/>
			<polygon class="st14" points="271.6,337.8 260.9,334.9 258.1,345.9 268.7,348.8 			"/>
			<polygon class="st14" points="257.3,345.9 254.5,334.9 243.8,337.8 246.7,348.8 			"/>
			<g>
				<polygon class="st11" points="239.4,373.8 239.4,337.9 254,337 276.1,340.3 276.1,373.8 				"/>
				<path class="st12" d="M253.9,337.5l21.6,3.3v32.6l-35.7,0l0-35L253.9,337.5 M254,336.5l-15.1,1v0.7l0,36.2l37.7,0v-34.3v-0.2
					L254,336.5L254,336.5z"/>
			</g>
			<polyline class="st15" points="239.4,338.6 254.1,338.6 276.2,340.5 			"/>
		</g>
		<g>
			<g>
				<rect x="392.9" y="314.7" class="st11" width="36.7" height="45.1"/>
				<path class="st12" d="M393.4,315.2h35.7l0,44.1h-35.7L393.4,315.2 M392.4,314.2l0,46.1h37.7l0-46.1H392.4L392.4,314.2z"/>
			</g>
			<rect x="412.2" y="317.5" class="st13" width="14.7" height="11.4"/>
			<rect x="395.6" y="317.5" class="st13" width="14.7" height="11.4"/>
			<polygon class="st14" points="425.1,324.3 414.4,321.3 411.6,332.4 422.2,335.3 			"/>
			<polygon class="st14" points="410.8,332.4 408,321.3 397.3,324.3 400.2,335.3 			"/>
			<g>
				<polygon class="st11" points="392.9,360.3 392.9,324.4 407.4,323.4 429.6,326.8 429.6,360.3 				"/>
				<path class="st12" d="M407.4,323.9l21.6,3.3v32.6h-35.7l0-35L407.4,323.9 M407.5,322.9l-15.1,1v0.7l0,36.2h37.7v-34.3v-0.2
					L407.5,322.9L407.5,322.9z"/>
			</g>
			<polyline class="st15" points="392.9,325.1 407.6,325.1 429.7,327 			"/>
		</g>
		<g>
			<g>
				<rect x="237.9" y="256.3" class="st11" width="30.6" height="47.6"/>
				<path class="st12" d="M238.4,256.8l29.6,0v46.6l-29.6,0L238.4,256.8 M237.4,255.8l0,48.6l31.6,0v-48.6L237.4,255.8L237.4,255.8z
					"/>
			</g>
			<rect x="254" y="259.2" class="st13" width="12.3" height="12"/>
			<rect x="240.1" y="259.2" class="st13" width="12.3" height="12"/>
			<polygon class="st14" points="264.8,266.4 255.9,263.3 253.5,274.9 262.4,278 			"/>
			<polygon class="st14" points="252.9,274.9 250.5,263.3 241.6,266.4 244,278 			"/>
			<g>
				<polygon class="st11" points="237.9,304.4 237.9,266.4 250,265.4 268.5,268.9 268.5,304.4 				"/>
				<path class="st12" d="M250,265.9l18,3.4v34.5l-29.6,0v-37L250,265.9 M250.1,264.9l-12.7,1v0.8v38.1l31.6,0v-36.1v-0.3
					L250.1,264.9L250.1,264.9z"/>
			</g>
			<polyline class="st15" points="237.8,267.2 250.2,267.2 268.7,269.2 			"/>
		</g>
		<g>
			<g>
				<rect x="300.8" y="360.9" class="st11" width="43.3" height="17.4"/>
				<path class="st12" d="M301.3,361.4h42.3l0,16.4h-42.3V361.4 M300.3,360.4v18.4h44.3l0-18.4H300.3L300.3,360.4z"/>
			</g>
			<g>
				<g>
					<path class="st16" d="M304.4,369.6c0,3.4,2.9,6,6.3,5.7c3.7-0.3,8.3-0.6,11.8-0.6c3.4,0,8.1,0.3,11.8,0.6
						c3.4,0.3,6.3-2.4,6.3-5.7c0-3.4-2.9-6-6.3-5.7c-3.7,0.3-8.3,0.6-11.8,0.6c-3.4,0-8.1-0.3-11.8-0.6
						C307.4,363.6,304.4,366.3,304.4,369.6z"/>
					<ellipse class="st16" cx="310.3" cy="369.6" rx="0.8" ry="0.8"/>
				</g>
			</g>
		</g>
		<g>
			<g>
				<rect x="340.6" y="256.3" class="st11" width="15.8" height="39.5"/>
				<path class="st12" d="M356,256.8v38.5h-14.8l0-38.5H356 M357,255.7h-16.8l0,40.5H357V255.7L357,255.7z"/>
			</g>
			<g>
				<g>
					<path class="st16" d="M348.6,259.5c3.1,0,5.5,2.7,5.2,5.7c-0.3,3.4-0.6,7.6-0.6,10.8c0,3.1,0.3,7.4,0.6,10.8
						c0.3,3.1-2.2,5.7-5.2,5.7c-3.1,0-5.5-2.7-5.2-5.7c0.3-3.4,0.6-7.6,0.6-10.8c0-3.1-0.3-7.4-0.6-10.8
						C343.1,262.2,345.5,259.5,348.6,259.5z"/>
					<ellipse class="st16" cx="348.6" cy="264.9" rx="0.8" ry="0.8"/>
				</g>
			</g>
		</g>
		<g id="Sink_2_4_">
			<g id="Rectangle_16_x5F_11_6_">
				<rect x="316.9" y="399.1" class="st11" width="16.1" height="9.2"/>
				<path class="st12" d="M332.5,399.6v8.2h-15.1v-8.2H332.5 M333.5,398.6h-17.1v10.2h17.1V398.6L333.5,398.6z"/>
			</g>
			<path id="Rectangle_19_x5F_5_4_" class="st13" d="M330.3,403.7L330.3,403.7c0-1.7-1.4-3.1-3.1-3.1h-4.5c-1.7,0-3.1,1.4-3.1,3.1
				l0,0c0,1.7,1.4,3.1,3.1,3.1h4.5C328.9,406.8,330.3,405.4,330.3,403.7z"/>
			<circle id="Ellipse_7_x5F_2_4_" class="st13" cx="324.9" cy="404.7" r="0.8"/>
		</g>
		<g id="Sink_2_6_">
			<g id="Rectangle_16_x5F_11_10_">
				<rect x="324.5" y="256.3" class="st11" width="16.1" height="9.2"/>
				<path class="st12" d="M340.1,256.8v8.2H325v-8.2H340.1 M341.1,255.7H324V266h17.1V255.7L341.1,255.7z"/>
			</g>
			<path id="Rectangle_19_x5F_5_6_" class="st13" d="M327.2,260.9L327.2,260.9c0,1.7,1.4,3.1,3.1,3.1h4.5c1.7,0,3.1-1.4,3.1-3.1l0,0
				c0-1.7-1.4-3.1-3.1-3.1h-4.5C328.6,257.7,327.2,259.1,327.2,260.9z"/>
			<circle id="Ellipse_7_x5F_2_6_" class="st13" cx="332.6" cy="259.6" r="0.8"/>
		</g>
		<circle class="st13" cx="228.8" cy="397.4" r="7.5"/>
	</g>
	<g id="street_anchors" class="st18">
		<rect id="street_x5F_anchor_x5F_01" x="355" y="20" class="st19" width="10" height="10"/>
		<rect id="street_x5F_anchor_x5F_02_1_" x="159.2" y="235" class="st19" width="10" height="10"/>
		<rect id="street_x5F_anchor_x5F_03" x="355" y="450" class="st19" width="10" height="10"/>
	</g>
</g>
<g id="комнаты">
	<g>
		<g>
			<path class="st10" d="M402.2,276.3c0-0.8,0.4-1.3,0.9-1.5c-0.4-0.2-0.7-0.6-0.7-1.2c0-1.1,1.1-1.6,2-1.6c0.9,0,2,0.5,2,1.7
				c0,0.6-0.2,0.9-0.7,1.1c0.5,0.2,0.9,0.7,0.9,1.5c0,1.2-1.1,1.9-2.2,1.9C403.3,278.2,402.2,277.5,402.2,276.3z M405.6,276.2
				c0-0.6-0.6-0.8-1.1-0.8c-0.5,0-1.1,0.3-1.1,0.8c0,0.5,0.6,0.9,1.1,0.9C405,277.1,405.6,276.7,405.6,276.2z M405.3,273.8
				c0-0.5-0.5-0.7-0.9-0.7c-0.4,0-0.9,0.2-0.9,0.7c0,0.4,0.3,0.6,0.9,0.6C405,274.4,405.3,274.1,405.3,273.8z"/>
			<path class="st10" d="M408.2,276.4c0.4,0,0.7,0.4,0.7,0.9c0,0.5-0.3,0.9-0.7,0.9c-0.4,0-0.7-0.4-0.7-0.9
				C407.5,276.8,407.8,276.4,408.2,276.4z"/>
			<path class="st10" d="M413.5,273.5c-0.3-0.2-0.8-0.3-1.2-0.3c-0.8,0-1.5,0.7-1.6,1.9c0.4-0.4,1-0.8,1.7-0.8
				c1.2,0,1.8,0.9,1.8,1.8c0,1.2-0.8,2.1-2,2.1c-1.2,0-2.4-1-2.4-3c0-2,1.2-3.2,2.5-3.2c0.8,0,1.4,0.3,1.7,0.5L413.5,273.5z
				 M410.9,275.8c0.2,0.8,0.7,1.2,1.3,1.2c0.6,0,1-0.5,1-1c0-0.4-0.2-0.8-0.9-0.8C411.8,275.2,411.2,275.5,410.9,275.8z"/>
		</g>
	</g>
	<g>
		<g>
			<path class="st10" d="M326.5,281.2h-0.8v1.2h-1v-1.2h-3v-0.8l3.1-3.7h0.9v3.5h0.8V281.2z M323.1,280.1h1.6v-1.9h-0.1
				C324.1,278.9,323.6,279.5,323.1,280.1L323.1,280.1z"/>
		</g>
	</g>
	<g>
		<g>
			<path class="st10" d="M415.2,223.4h0.7c0.3,0,0.6-0.2,0.6-0.6c0-0.5-0.4-0.7-0.8-0.7c-0.5,0-1.1,0.4-1.5,0.9l-0.6-0.9
				c0.5-0.6,1.2-1.2,2.1-1.2c0.8,0,1.8,0.4,1.8,1.7c0,0.5-0.3,0.9-0.5,1.1c0.4,0.2,0.8,0.6,0.8,1.4c0,1.3-1,2-2.3,2
				c-0.9,0-1.6-0.4-2.3-1.2l0.6-0.9c0.4,0.6,1,1,1.7,1c0.7,0,1.2-0.4,1.2-1c0-0.5-0.4-0.6-0.7-0.6h-0.9V223.4z"/>
			<path class="st10" d="M419.4,225.4c0.4,0,0.7,0.4,0.7,0.9c0,0.5-0.3,0.9-0.7,0.9c-0.4,0-0.7-0.4-0.7-0.9
				C418.7,225.8,419,225.4,419.4,225.4z"/>
			<path class="st10" d="M425.6,225.8h-0.8v1.2h-1v-1.2h-3v-0.8l3.1-3.7h0.9v3.5h0.8V225.8z M422.2,224.7h1.6v-1.9h-0.1
				C423.3,223.4,422.7,224.1,422.2,224.7L422.2,224.7z"/>
		</g>
	</g>
	<g>
		<g>
			<path class="st10" d="M324.4,222.7h-0.8v1.2h-1v-1.2h-3v-0.8l3.1-3.7h0.9v3.5h0.8V222.7z M321,221.7h1.6v-1.9h-0.1
				C322,220.4,321.5,221.1,321,221.7L321,221.7z"/>
			<path class="st10" d="M325.9,222.4c0.4,0,0.7,0.4,0.7,0.9c0,0.5-0.3,0.9-0.7,0.9c-0.4,0-0.7-0.4-0.7-0.9
				C325.2,222.8,325.5,222.4,325.9,222.4z"/>
			<path class="st10" d="M332.2,222.7h-0.8v1.2h-1v-1.2h-3v-0.8l3.1-3.7h0.9v3.5h0.8V222.7z M328.8,221.7h1.6v-1.9h-0.1
				C329.8,220.4,329.3,221.1,328.8,221.7L328.8,221.7z"/>
		</g>
	</g>
	<g>
		<g>
			<path class="st10" d="M247.8,309.7l1.3-0.8h0.9v5.8h-1v-4.5l-1,0.6L247.8,309.7z"/>
			<path class="st10" d="M251.3,313.8c0-1.4,0.9-2.1,1.9-2.5c0.3-0.1,0.8-0.3,0.8-0.8c0-0.4-0.4-0.6-0.7-0.6c-0.6,0-1,0.4-1.5,0.9
				l-0.6-0.9c0.6-0.6,1.1-1.1,2-1.1c0.9,0,1.8,0.5,1.8,1.7c0,1.3-1,1.7-1.7,2c-0.6,0.3-1,0.6-1,1.1v0.1h2.6v1.1h-3.7V313.8z"/>
		</g>
	</g>
	<g>
		<g>
			<path class="st10" d="M249.5,188.7l1.3-0.8h0.9v5.8h-1v-4.5l-1,0.6L249.5,188.7z"/>
			<path class="st10" d="M253,192.7c0-1.4,0.9-2.1,1.9-2.5c0.3-0.1,0.8-0.3,0.8-0.8c0-0.4-0.4-0.6-0.7-0.6c-0.6,0-1,0.4-1.5,0.9
				l-0.6-0.9c0.6-0.6,1.1-1.1,2-1.1c0.9,0,1.8,0.5,1.8,1.7c0,1.3-1,1.7-1.7,2c-0.6,0.3-1,0.6-1,1.1v0.1h2.6v1.1H253V192.7z"/>
			<path class="st10" d="M258.3,192.1c0.4,0,0.7,0.4,0.7,0.9c0,0.5-0.3,0.9-0.7,0.9c-0.4,0-0.7-0.4-0.7-0.9
				C257.6,192.5,257.9,192.1,258.3,192.1z"/>
			<path class="st10" d="M259.7,188.7l1.3-0.8h0.9v5.8h-1v-4.5l-1,0.6L259.7,188.7z"/>
		</g>
	</g>
	<g>
		<g>
			<path class="st10" d="M245.1,122.6l1.3-0.8h0.9v5.8h-1v-4.5l-1,0.6L245.1,122.6z"/>
			<path class="st10" d="M248.5,126.7c0-1.4,0.9-2.1,1.9-2.5c0.3-0.1,0.8-0.3,0.8-0.8c0-0.4-0.4-0.6-0.7-0.6c-0.6,0-1,0.4-1.5,0.9
				l-0.6-0.9c0.6-0.6,1.1-1.1,2-1.1c0.9,0,1.8,0.5,1.8,1.7c0,1.3-1,1.7-1.7,2c-0.6,0.3-1,0.6-1,1.1v0.1h2.6v1.1h-3.7V126.7z"/>
			<path class="st10" d="M253.9,126.1c0.4,0,0.7,0.4,0.7,0.9c0,0.5-0.3,0.9-0.7,0.9c-0.4,0-0.7-0.4-0.7-0.9
				C253.2,126.5,253.5,126.1,253.9,126.1z"/>
			<path class="st10" d="M255.2,122.6l1.3-0.8h0.9v5.8h-1v-4.5l-1,0.6L255.2,122.6z"/>
		</g>
	</g>
	<g>
		<g>
			<path class="st10" d="M407.6,127.8l1.3-0.8h0.9v5.8h-1v-4.5l-1,0.6L407.6,127.8z"/>
			<path class="st10" d="M412.8,129.2h0.7c0.3,0,0.6-0.2,0.6-0.6c0-0.5-0.4-0.7-0.8-0.7c-0.5,0-1.1,0.4-1.5,0.9l-0.6-0.9
				c0.5-0.6,1.2-1.2,2.1-1.2c0.8,0,1.8,0.4,1.8,1.7c0,0.5-0.3,0.9-0.5,1.1c0.4,0.2,0.8,0.6,0.8,1.4c0,1.3-1,2-2.3,2
				c-0.9,0-1.6-0.4-2.3-1.2l0.6-0.9c0.4,0.6,1,1,1.7,1c0.7,0,1.2-0.4,1.2-1c0-0.5-0.4-0.6-0.7-0.6h-0.9V129.2z"/>
			<path class="st10" d="M416.9,131.2c0.4,0,0.7,0.4,0.7,0.9c0,0.5-0.3,0.9-0.7,0.9c-0.4,0-0.7-0.4-0.7-0.9
				C416.2,131.6,416.5,131.2,416.9,131.2z"/>
			<path class="st10" d="M418.3,127.8l1.3-0.8h0.9v5.8h-1v-4.5l-1,0.6L418.3,127.8z"/>
		</g>
	</g>
	<g>
		<g>
			<path class="st10" d="M480,347.6h-0.8v1.2h-1v-1.2h-3v-0.8l3.1-3.7h0.9v3.5h0.8V347.6z M476.6,346.6h1.6v-1.9h-0.1
				C477.6,345.3,477.1,346,476.6,346.6L476.6,346.6z"/>
			<path class="st10" d="M481.5,347.3c0.4,0,0.7,0.4,0.7,0.9c0,0.5-0.3,0.9-0.7,0.9c-0.4,0-0.7-0.4-0.7-0.9
				C480.8,347.7,481.1,347.3,481.5,347.3z"/>
			<path class="st10" d="M483.1,347.9c0-1.4,0.9-2.1,1.9-2.5c0.3-0.1,0.8-0.3,0.8-0.8c0-0.4-0.4-0.6-0.7-0.6c-0.6,0-1,0.4-1.5,0.9
				l-0.6-0.9c0.6-0.6,1.1-1.1,2-1.1c0.9,0,1.8,0.5,1.8,1.7c0,1.3-1,1.7-1.7,2c-0.6,0.3-1,0.6-1,1.1v0.1h2.6v1.1h-3.7V347.9z"/>
		</g>
	</g>
	<g>
		<g>
			<path class="st10" d="M326,388.4h-0.8v1.2h-1v-1.2h-3v-0.8l3.1-3.7h0.9v3.5h0.8V388.4z M322.6,387.4h1.6v-1.9h-0.1
				C323.6,386.1,323.1,386.8,322.6,387.4L322.6,387.4z"/>
		</g>
	</g>
	<g>
		<g>
			<path class="st10" d="M406.7,383.3c0-1.4,0.9-2.1,1.9-2.5c0.3-0.1,0.8-0.3,0.8-0.8c0-0.4-0.4-0.6-0.7-0.6c-0.6,0-1,0.4-1.5,0.9
				l-0.6-0.9c0.6-0.6,1.1-1.1,2-1.1c0.9,0,1.8,0.5,1.8,1.7c0,1.3-1,1.7-1.7,2c-0.6,0.3-1,0.6-1,1.1v0.1h2.6v1.1h-3.7V383.3z"/>
			<path class="st10" d="M411.1,379.2l1.3-0.8h0.9v5.8h-1v-4.5l-1,0.6L411.1,379.2z"/>
			<path class="st10" d="M415.2,382.6c0.4,0,0.7,0.4,0.7,0.9c0,0.5-0.3,0.9-0.7,0.9c-0.4,0-0.7-0.4-0.7-0.9
				C414.5,383,414.8,382.6,415.2,382.6z"/>
			<path class="st10" d="M416.6,379.2l1.3-0.8h0.9v5.8h-1v-4.5l-1,0.6L416.6,379.2z"/>
		</g>
	</g>
	<g>
		<g>
			<path class="st10" d="M246.4,388.6l1.3-0.8h0.9v5.8h-1v-4.5l-1,0.6L246.4,388.6z"/>
			<path class="st10" d="M251.6,390h0.7c0.3,0,0.6-0.2,0.6-0.6c0-0.5-0.4-0.7-0.8-0.7c-0.5,0-1.1,0.4-1.5,0.9l-0.6-0.9
				c0.5-0.6,1.2-1.2,2.1-1.2c0.8,0,1.8,0.4,1.8,1.7c0,0.5-0.3,0.9-0.5,1.1c0.4,0.2,0.8,0.6,0.8,1.4c0,1.3-1,2-2.3,2
				c-0.9,0-1.6-0.4-2.3-1.2l0.6-0.9c0.4,0.6,1,1,1.7,1c0.7,0,1.2-0.4,1.2-1c0-0.5-0.4-0.6-0.7-0.6h-0.9V390z"/>
			<path class="st10" d="M255.8,392c0.4,0,0.7,0.4,0.7,0.9c0,0.5-0.3,0.9-0.7,0.9c-0.4,0-0.7-0.4-0.7-0.9
				C255.1,392.4,255.4,392,255.8,392z"/>
			<path class="st10" d="M257.3,387.8h4v1.1l-2.3,4.7h-1.3l2.4-4.6h-2.8V387.8z"/>
		</g>
	</g>
	<g>
		<g>
			<path class="st10" d="M306.6,347.1c0-1.4,0.9-2.1,1.9-2.5c0.3-0.1,0.8-0.3,0.8-0.8c0-0.4-0.4-0.6-0.7-0.6c-0.6,0-1,0.4-1.5,0.9
				l-0.6-0.9c0.6-0.6,1.1-1.1,2-1.1c0.9,0,1.8,0.5,1.8,1.7c0,1.3-1,1.7-1.7,2c-0.6,0.3-1,0.6-1,1.1v0.1h2.6v1.1h-3.7V347.1z"/>
			<path class="st10" d="M311.9,346.4c0.4,0,0.7,0.4,0.7,0.9c0,0.5-0.3,0.9-0.7,0.9c-0.4,0-0.7-0.4-0.7-0.9
				C311.2,346.8,311.5,346.4,311.9,346.4z"/>
			<path class="st10" d="M317.2,343.5c-0.3-0.2-0.8-0.3-1.2-0.3c-0.8,0-1.5,0.7-1.5,1.9c0.4-0.4,1-0.8,1.7-0.8
				c1.2,0,1.8,0.9,1.8,1.8c0,1.2-0.8,2.1-2,2.1c-1.2,0-2.4-1-2.4-3c0-2,1.2-3.2,2.5-3.2c0.8,0,1.4,0.3,1.7,0.5L317.2,343.5z
				 M314.6,345.9c0.2,0.8,0.7,1.2,1.3,1.2c0.6,0,1-0.5,1-1c0-0.4-0.2-0.8-0.9-0.8C315.5,345.3,314.9,345.6,314.6,345.9z"/>
		</g>
	</g>
	<g>
		<g>
			<path class="st10" d="M360.6,160.8h0.7c0.3,0,0.6-0.2,0.6-0.6c0-0.5-0.4-0.7-0.8-0.7c-0.5,0-1.1,0.4-1.5,0.9l-0.6-0.9
				c0.5-0.6,1.2-1.2,2.1-1.2c0.8,0,1.8,0.4,1.8,1.7c0,0.5-0.3,0.9-0.5,1.1c0.4,0.2,0.8,0.6,0.8,1.4c0,1.3-1,2-2.3,2
				c-0.9,0-1.6-0.4-2.3-1.2l0.6-0.9c0.4,0.6,1,1,1.7,1c0.7,0,1.2-0.4,1.2-1c0-0.5-0.4-0.6-0.7-0.6h-0.9V160.8z"/>
			<path class="st10" d="M368.7,163.2h-0.8v1.2h-1v-1.2h-3v-0.8l3.1-3.7h0.9v3.5h0.8V163.2z M365.3,162.1h1.6v-1.9h-0.1
				C366.3,160.9,365.8,161.5,365.3,162.1L365.3,162.1z"/>
			<path class="st10" d="M370.2,162.8c0.4,0,0.7,0.4,0.7,0.9c0,0.5-0.3,0.9-0.7,0.9c-0.4,0-0.7-0.4-0.7-0.9
				C369.5,163.2,369.8,162.8,370.2,162.8z"/>
			<path class="st10" d="M371.5,159.4l1.3-0.8h0.9v5.8h-1v-4.5l-1,0.6L371.5,159.4z"/>
		</g>
	</g>
</g>
</svg>
