<?xml version="1.0" encoding="utf-8"?>
<!-- Generator: Adobe Illustrator 26.0.3, SVG Export Plug-In . SVG Version: 6.00 Build 0)  -->
<svg version="1.1" xmlns="http://www.w3.org/2000/svg" xmlns:xlink="http://www.w3.org/1999/xlink" x="0px" y="0px"
	 viewBox="0 0 720 480" style="enable-background:new 0 0 720 480;" xml:space="preserve">
<style type="text/css">
	.st0{fill:#DBD4CA;}
	.st1{opacity:0.3;clip-path:url(#SVGID_00000080190222315132654140000016825348974137083061_);}
	.st2{opacity:0.7;fill:#C49F8A;enable-background:new    ;}
	.st3{clip-path:url(#SVGID_00000008141707155553807740000014053988637016818061_);}
	.st4{fill:none;stroke:#C49F8A;stroke-miterlimit:10;}
	.st5{opacity:0.3;clip-path:url(#SVGID_00000055667206539515910840000006725446925704843941_);}
	.st6{clip-path:url(#SVGID_00000086665064345321658000000016066170042534499746_);}
	.st7{opacity:0.3;clip-path:url(#SVGID_00000164483038662161218710000005071506941826702987_);}
	.st8{clip-path:url(#SVGID_00000103975968099679984910000012651523210475103906_);}
	.st9{fill:none;stroke:#565440;}
	.st10{fill:#565440;}
	.st11{fill:#E9E4DC;}
	.st12{fill:#C49F8A;}
	.st13{fill:#E9E4DC;stroke:#C49F8A;}
	.st14{fill:#E9E4DC;stroke:#C49F8A;stroke-width:1;stroke-miterlimit:3.9998;}
	.st15{fill:none;stroke:#C49F8A;}
	.st16{fill:#E9E4DC;stroke:#C49F8A;stroke-linejoin:round;}
	.st17{fill:#E9E4DC;stroke:#C49F8A;stroke-width:1;stroke-miterlimit:4;}
	.st18{opacity:0;}
	.st19{fill:#3F3F3F;fill-opacity:0;}
</style>
<g id="_x31__x5F_2">
	<polygon id="Floor" class="st0" points="519.2,253.7 519.2,64.5 202,64.5 202,415.6 514.4,415.6 514.4,309.6 444.3,309.6 
		444.3,253.7 	"/>
	<g id="Wet_Floor">
		<g id="Wet_Floor_1_">
			<g>
				<defs>
					<rect id="SVGID_1_" x="299.3" y="198.6" width="57.7" height="99.9"/>
				</defs>
				<clipPath id="SVGID_00000108290134421309374200000009269800255264443810_">
					<use xlink:href="#SVGID_1_"  style="overflow:visible;"/>
				</clipPath>
				<g style="opacity:0.3;clip-path:url(#SVGID_00000108290134421309374200000009269800255264443810_);">
					<rect x="161.9" y="69.7" class="st2" width="322.2" height="322.2"/>
				</g>
			</g>
			<g>
				<defs>
					<rect id="SVGID_00000022533968102274246300000015983619588070453415_" x="299.3" y="198.6" width="57.7" height="99.9"/>
				</defs>
				<clipPath id="SVGID_00000082328093437317423110000016192863446853761161_">
					<use xlink:href="#SVGID_00000022533968102274246300000015983619588070453415_"  style="overflow:visible;"/>
				</clipPath>
				<g style="clip-path:url(#SVGID_00000082328093437317423110000016192863446853761161_);">
					<line class="st4" x1="338.6" y1="329.8" x2="224" y2="215.2"/>
					<line class="st4" x1="328.2" y1="340.2" x2="213.6" y2="225.6"/>
					<line class="st4" x1="349" y1="319.4" x2="234.4" y2="204.7"/>
					<line class="st4" x1="359.5" y1="308.9" x2="244.8" y2="194.3"/>
					<line class="st4" x1="369.9" y1="298.5" x2="255.3" y2="183.9"/>
					<line class="st4" x1="380.3" y1="288.1" x2="265.7" y2="173.5"/>
					<line class="st4" x1="390.7" y1="277.7" x2="276.1" y2="163"/>
					<line class="st4" x1="401.2" y1="267.3" x2="286.5" y2="152.6"/>
					<line class="st4" x1="411.6" y1="256.8" x2="296.9" y2="142.2"/>
					<line class="st4" x1="422" y1="246.4" x2="307.4" y2="131.8"/>
					<line class="st4" x1="411.6" y1="256.8" x2="296.9" y2="142.2"/>
					<line class="st4" x1="432.4" y1="236" x2="317.8" y2="121.4"/>
					<line class="st4" x1="422" y1="225.6" x2="317.8" y2="329.8"/>
					<line class="st4" x1="432.4" y1="236" x2="328.2" y2="340.2"/>
					<line class="st4" x1="411.6" y1="215.2" x2="307.4" y2="319.4"/>
					<line class="st4" x1="401.2" y1="204.7" x2="296.9" y2="308.9"/>
					<line class="st4" x1="390.7" y1="194.3" x2="286.5" y2="298.5"/>
					<line class="st4" x1="380.3" y1="183.9" x2="276.1" y2="288.1"/>
					<line class="st4" x1="369.9" y1="173.5" x2="265.7" y2="277.7"/>
					<line class="st4" x1="359.5" y1="163" x2="255.3" y2="267.3"/>
					<line class="st4" x1="349" y1="152.6" x2="244.8" y2="256.8"/>
					<line class="st4" x1="338.6" y1="142.2" x2="234.4" y2="246.4"/>
					<line class="st4" x1="349" y1="152.6" x2="244.8" y2="256.8"/>
					<line class="st4" x1="328.2" y1="131.8" x2="224" y2="236"/>
					<line class="st4" x1="317.8" y1="121.4" x2="213.6" y2="225.6"/>
				</g>
			</g>
		</g>
		<g id="Wet_Floor_2_">
			<g>
				<defs>
					<rect id="SVGID_00000173879439597591796090000008784180256202855348_" x="469.2" y="203.5" width="47.8" height="50.2"/>
				</defs>
				<clipPath id="SVGID_00000023990656664697406340000002181219209897603757_">
					<use xlink:href="#SVGID_00000173879439597591796090000008784180256202855348_"  style="overflow:visible;"/>
				</clipPath>
				<g style="opacity:0.3;clip-path:url(#SVGID_00000023990656664697406340000002181219209897603757_);">
					<rect x="416.4" y="153.4" class="st2" width="152.9" height="152.9"/>
				</g>
			</g>
			<g>
				<defs>
					<rect id="SVGID_00000151513352761438856550000006686778266007540121_" x="469.2" y="203.5" width="47.8" height="50.2"/>
				</defs>
				<clipPath id="SVGID_00000026863095530730305840000006589539162074935993_">
					<use xlink:href="#SVGID_00000151513352761438856550000006686778266007540121_"  style="overflow:visible;"/>
				</clipPath>
				<g style="clip-path:url(#SVGID_00000026863095530730305840000006589539162074935993_);">
					<line class="st4" x1="508.5" y1="328.9" x2="393.9" y2="214.3"/>
					<line class="st4" x1="498.1" y1="339.3" x2="383.5" y2="224.7"/>
					<line class="st4" x1="518.9" y1="318.5" x2="404.3" y2="203.9"/>
					<line class="st4" x1="529.4" y1="308.1" x2="414.7" y2="193.4"/>
					<line class="st4" x1="539.8" y1="297.7" x2="425.1" y2="183"/>
					<line class="st4" x1="550.2" y1="287.2" x2="435.6" y2="172.6"/>
					<line class="st4" x1="560.6" y1="276.8" x2="446" y2="162.2"/>
					<line class="st4" x1="571" y1="266.4" x2="456.4" y2="151.8"/>
					<line class="st4" x1="581.5" y1="256" x2="466.8" y2="141.3"/>
					<line class="st4" x1="591.9" y1="245.5" x2="477.3" y2="130.9"/>
					<line class="st4" x1="581.5" y1="256" x2="466.8" y2="141.3"/>
					<line class="st4" x1="602.3" y1="235.1" x2="487.7" y2="120.5"/>
					<line class="st4" x1="591.9" y1="224.7" x2="487.7" y2="328.9"/>
					<line class="st4" x1="602.3" y1="235.1" x2="498.1" y2="339.3"/>
					<line class="st4" x1="581.5" y1="214.3" x2="477.3" y2="318.5"/>
					<line class="st4" x1="571" y1="203.9" x2="466.8" y2="308.1"/>
					<line class="st4" x1="560.6" y1="193.4" x2="456.4" y2="297.7"/>
					<line class="st4" x1="550.2" y1="183" x2="446" y2="287.2"/>
					<line class="st4" x1="539.8" y1="172.6" x2="435.6" y2="276.8"/>
					<line class="st4" x1="529.4" y1="162.2" x2="425.1" y2="266.4"/>
					<line class="st4" x1="518.9" y1="151.8" x2="414.7" y2="256"/>
					<line class="st4" x1="508.5" y1="141.3" x2="404.3" y2="245.5"/>
					<line class="st4" x1="518.9" y1="151.8" x2="414.7" y2="256"/>
					<line class="st4" x1="498.1" y1="130.9" x2="393.9" y2="235.1"/>
					<line class="st4" x1="487.7" y1="120.5" x2="383.5" y2="224.7"/>
				</g>
			</g>
		</g>
		<g id="Wet_Floor_3_">
			<g>
				<defs>
					<rect id="SVGID_00000054226374372162292550000000150422252127515574_" x="297.1" y="358.4" width="55.5" height="55.9"/>
				</defs>
				<clipPath id="SVGID_00000038378120970422865460000008917443981876296618_">
					<use xlink:href="#SVGID_00000054226374372162292550000000150422252127515574_"  style="overflow:visible;"/>
				</clipPath>
				<g style="opacity:0.3;clip-path:url(#SVGID_00000038378120970422865460000008917443981876296618_);">
					<rect x="244.3" y="314.1" class="st2" width="152.9" height="152.9"/>
				</g>
			</g>
			<g>
				<defs>
					<rect id="SVGID_00000129202371998945105530000004576724059210161546_" x="297.1" y="358.4" width="55.5" height="55.9"/>
				</defs>
				<clipPath id="SVGID_00000166672009554788266140000007266244344755073968_">
					<use xlink:href="#SVGID_00000129202371998945105530000004576724059210161546_"  style="overflow:visible;"/>
				</clipPath>
				<g style="clip-path:url(#SVGID_00000166672009554788266140000007266244344755073968_);">
					<line class="st4" x1="336.4" y1="489.6" x2="221.8" y2="374.9"/>
					<line class="st4" x1="326" y1="500" x2="211.4" y2="385.4"/>
					<line class="st4" x1="346.9" y1="479.1" x2="232.2" y2="364.5"/>
					<line class="st4" x1="357.3" y1="468.7" x2="242.6" y2="354.1"/>
					<line class="st4" x1="367.7" y1="458.3" x2="253.1" y2="343.7"/>
					<line class="st4" x1="378.1" y1="447.9" x2="263.5" y2="333.2"/>
					<line class="st4" x1="388.5" y1="437.5" x2="273.9" y2="322.8"/>
					<line class="st4" x1="399" y1="427" x2="284.3" y2="312.4"/>
					<line class="st4" x1="409.4" y1="416.6" x2="294.8" y2="302"/>
					<line class="st4" x1="419.8" y1="406.2" x2="305.2" y2="291.6"/>
					<line class="st4" x1="409.4" y1="416.6" x2="294.8" y2="302"/>
					<line class="st4" x1="430.2" y1="395.8" x2="315.6" y2="281.1"/>
					<line class="st4" x1="419.8" y1="385.4" x2="315.6" y2="489.6"/>
					<line class="st4" x1="430.2" y1="395.8" x2="326" y2="500"/>
					<line class="st4" x1="409.4" y1="374.9" x2="305.2" y2="479.1"/>
					<line class="st4" x1="399" y1="364.5" x2="294.8" y2="468.7"/>
					<line class="st4" x1="388.5" y1="354.1" x2="284.3" y2="458.3"/>
					<line class="st4" x1="378.1" y1="343.7" x2="273.9" y2="447.9"/>
					<line class="st4" x1="367.7" y1="333.2" x2="263.5" y2="437.5"/>
					<line class="st4" x1="357.3" y1="322.8" x2="253.1" y2="427"/>
					<line class="st4" x1="346.9" y1="312.4" x2="242.6" y2="416.6"/>
					<line class="st4" x1="336.4" y1="302" x2="232.2" y2="406.2"/>
					<line class="st4" x1="346.9" y1="312.4" x2="242.6" y2="416.6"/>
					<line class="st4" x1="326" y1="291.6" x2="221.8" y2="395.8"/>
					<line class="st4" x1="315.6" y1="281.1" x2="211.4" y2="385.4"/>
				</g>
			</g>
		</g>
	</g>
	<polygon id="Windows_1_" class="st9" points="386.1,61.1 386.1,61.1 198.6,61.1 198.6,275.8 198.6,418.9 423.6,418.9 423.6,415.5 
		201.9,415.5 201.9,415.5 201.9,252.6 201.9,64.5 441.8,64.5 441.8,64.5 519.3,64.5 519.3,61.1 	"/>
	<g id="Doors">
		<path id="Doors_1_" class="st9" d="M298.7,176.7c-2.4,0-4.4-0.4-6.6-1.3c-2.2-0.9-4.2-2.2-5.7-3.7c-1.8-1.5-3.1-3.5-4-5.7
			c-0.9-2.2-1.3-4.4-1.3-6.8l17.6,0 M298.7,151.7c-2.4,0-4.4-0.4-6.6-1.3c-2.2-0.9-4.2-2.2-5.7-3.7c-1.8-1.5-3.1-3.5-4-5.7
			c-0.9-2.2-1.3-4.4-1.3-6.8l17.6,0 M298.7,215.7c-2.5,0-4.5,0.4-6.7,1.4c-2.2,0.9-4.3,2.2-5.9,3.8c-1.8,1.6-3.2,3.6-4,5.9
			c-0.9,2.2-1.4,4.5-1.4,7l18,0 M298.7,320.2c-2.5,0-4.5-0.4-6.7-1.4c-2.2-0.9-4.3-2.2-5.9-3.8c-1.8-1.6-3.2-3.6-4-5.9
			s-1.4-4.5-1.4-7l18,0 M352.7,374.3c2.5,0,4.5,0.4,6.7,1.4c2.2,0.9,4.3,2.2,5.9,3.8c1.8,1.6,3.2,3.6,4.1,5.9s1.4,4.5,1.4,7l-18,0
			 M462.3,383c2.5,0,4.5-0.4,6.7-1.4c2.2-0.9,4.3-2.2,5.8-3.8c1.8-1.6,3.2-3.6,4.1-5.9c0.9-2.2,1.4-4.5,1.4-7l-18,0 M330.9,298.5
			c0,2.5-0.4,4.5-1.4,6.7c-0.9,2.2-2.2,4.3-3.8,5.9c-1.6,1.8-3.6,3.2-5.9,4s-4.5,1.4-7,1.4l0-18 M312.7,327.8c0,2.5,0.4,4.5,1.4,6.7
			c0.9,2.2,2.2,4.3,3.8,5.9c1.6,1.8,3.6,3.2,5.9,4c2.2,0.9,4.5,1.4,7,1.4v-18 M380.8,327.8c0,2.5-0.4,4.5-1.4,6.7
			c-0.9,2.2-2.2,4.3-3.8,5.9c-1.6,1.8-3.6,3.2-5.9,4s-4.5,1.4-7,1.4v-18 M439.7,203.5c2.3,0,4.2,0.4,6.4,1.3c2.1,0.8,4,2.1,5.5,3.6
			c1.7,1.5,3,3.4,3.8,5.5c0.8,2.1,1.3,4.2,1.3,6.6l-17,0 M488.8,203.5c0-2.3-0.4-4.2-1.3-6.4c-0.8-2.1-2.1-4-3.6-5.5
			c-1.5-1.7-3.4-3-5.5-3.8c-2.1-0.8-4.2-1.3-6.6-1.3l0,17 M444.3,282.7c3.1,0,5.7-0.6,8.5-1.7c2.8-1.1,5.4-2.8,7.4-4.8
			c2.3-2,4-4.6,5.1-7.4s1.7-5.7,1.7-8.8h-22.8"/>
	</g>
	<g id="Walls">
		<rect x="374.3" y="60" class="st10" width="14.7" height="11.3"/>
		<polygon class="st10" points="208.7,156.9 298.7,156.9 298.7,159.1 300.9,159.1 300.9,151.7 298.7,151.7 298.7,154.7 208.7,154.7 
			208.7,127.5 210.9,127.5 210.9,111.8 197.4,111.8 197.4,174.8 208.7,174.8 		"/>
		<polygon class="st10" points="298.7,134.1 300.9,134.1 300.9,71.3 303.7,71.3 303.7,73.5 323.4,73.5 323.4,71.3 342.5,71.3 
			342.5,60 279,60 279,71.3 298.7,71.3 		"/>
		<rect x="231.2" y="60" class="st10" width="15.7" height="13.5"/>
		<path class="st10" d="M437.5,189.8H430v9.9h7.5v3.7h2.3v-2.8h4.5V73.5h13.1v-2.2h27V60h-63.3v11.3h16.5L437.5,189.8z M432.3,197.5
			v-5.4h5.2v5.4H432.3z"/>
		<polygon class="st10" points="208.7,327.8 312.7,327.8 312.7,325.5 300.9,325.5 300.9,320.2 298.7,320.2 298.7,325.5 208.7,325.5 
			208.7,303 197.4,303 197.4,366 210.9,366 210.9,350.2 208.7,350.2 		"/>
		<path class="st10" d="M208.7,255.8l90,0l0,46.5h2.2v-3.7h12v-2.2h-12v-32.5h8l0-8h46.4v40.5h-24.4v2.3h26.6v-101h-56.6v-21.6h-2.2
			v39.8h2.2v-16h54.4V249l-46.4,0l0-8.1h-8v-7.1h-2.2l0,15.3h-87.8v-14.5h-2.2v-26.9h-11.3v61.7h11.3V255.8z M306.7,256.4v0.5v4.6
			h-5.7v-5.8h5.7V256.4z M306.7,243.1v5.9h-5.7v-5.9H306.7z"/>
		<rect x="231.2" y="406.5" class="st10" width="15.7" height="13.5"/>
		<rect x="375.2" y="408.7" class="st10" width="15.8" height="11.3"/>
		<path class="st10" d="M330.7,327.8l19.7,0v30.4h-54v38.7h0v11.9h-6.7V420h63v-27.7h-2.3v14.3h-13.5v2.2h-28.2v-11.9h-10.1v-36.5
			h51.7v13.8h2.3v-46.5h10.2v-2.2h-32.1V327.8z M306.5,399.1v9.6h-7.8v-9.6H306.5z"/>
		<path class="st10" d="M444.3,307.5v-24.8h-6.8V312h-55.7v13.5h-1v2.2h3.2l0-13.5h53.4v0h22.5V365h2.3v-50.8h37.8v8h7.9v84.2h-45.6
			V383H460v23.5h-37.6V420h96.7l0-112.5H444.3z M502.3,320v-5.8h5.6v5.8H502.3z"/>
		<path class="st10" d="M515.8,60v143.5h-27.1v2.2h27.1V249h-45.5v-43.3h1.5v-2.2H468V249h-15.8v-14.5h-12.5v-14.6h-2.2V260h6.8
			v-4.2l78.3,0V60H515.8z M444.3,236.7h5.7V249h-5.7V236.7z"/>
	</g>
	<g id="Furniture_1_">
		<g>
			<g>
				<rect x="211.4" y="205.4" class="st11" width="36.3" height="43.1"/>
				<path class="st12" d="M247.3,205.9V248l-35.3,0l0-42.1L247.3,205.9 M248.3,204.9l-37.3,0l0,44.1l37.3,0V204.9L248.3,204.9z"/>
			</g>
			<rect x="230.5" y="235" class="st13" width="14.6" height="10.9"/>
			<rect x="214.1" y="235" class="st13" width="14.6" height="10.9"/>
			
				<rect x="231.1" y="230.1" transform="matrix(0.9659 -0.2588 0.2588 0.9659 -52.8978 69.2588)" class="st14" width="10.9" height="10.9"/>
			
				<rect x="217" y="230.1" transform="matrix(0.2588 -0.9659 0.9659 0.2588 -62.5999 389.4857)" class="st14" width="10.9" height="10.9"/>
			<g>
				<polygon class="st11" points="211.4,239.3 211.4,205 247.7,205 247.7,237 225.8,240.2 				"/>
				<path class="st12" d="M247.2,205.5l0,31.1l-21.4,3.1l-13.9-0.9v-33.4H247.2 M248.2,204.5h-37.3v34.6v0.7l14.9,0.9l22.4-3.2v-0.2
					L248.2,204.5L248.2,204.5z"/>
			</g>
			<polyline class="st15" points="211.4,238.6 226,238.6 247.8,236.8 			"/>
		</g>
		<g>
			<g>
				<rect x="251.3" y="83.3" class="st11" width="46.9" height="28.6"/>
				<path class="st12" d="M297.7,83.8v27.6h-45.9l0-27.6H297.7 M298.7,82.8h-47.9l0,29.6h47.9V82.8L298.7,82.8z"/>
			</g>
			<rect x="283.4" y="85.4" class="st13" width="11.8" height="11.5"/>
			<rect x="283.4" y="98.3" class="st13" width="11.8" height="11.5"/>
			<polygon class="st14" points="288.2,86.8 291.3,95.1 279.9,97.4 276.8,89 			"/>
			<polygon class="st14" points="279.9,98 291.3,100.2 288.2,108.5 276.8,106.3 			"/>
			<g>
				<polygon class="st11" points="250.8,111.9 250.8,83.3 285.7,83.3 289.1,100.6 288.2,111.9 				"/>
				<path class="st12" d="M285.3,83.8l3.3,16.8l-0.9,10.8h-36.4l0-27.6H285.3 M286.1,82.8h-0.3h-35.5l0,29.6h37.6h0.8l1-11.8
					L286.1,82.8L286.1,82.8z"/>
			</g>
			<polyline class="st15" points="287.4,112 287.4,100.5 285.4,83.2 			"/>
		</g>
		<g>
			<g>
				<rect x="284.2" y="178.1" class="st11" width="1.8" height="36.6"/>
				<path class="st12" d="M285.5,178.6l0,35.6h-0.8l0-35.6H285.5 M286.5,177.6h-2.8l0,37.6h2.8L286.5,177.6L286.5,177.6z"/>
			</g>
			<g>
				<rect x="286" y="178.1" class="st11" width="12.1" height="36.6"/>
				<path class="st12" d="M297.7,178.6l0,35.6l-11.1,0v-35.6H297.7 M298.7,177.6h-13.1v37.6l13.1,0L298.7,177.6L298.7,177.6z"/>
			</g>
			<path class="st13" d="M298.2,214.6l-12.1-36.5"/>
		</g>
		<g>
			<g>
				<rect x="209.1" y="140.2" class="st11" width="55.2" height="1.8"/>
				<path class="st12" d="M209.6,140.7l54.2,0v0.8l-54.2,0V140.7 M208.6,139.7v2.8l56.2,0v-2.8L208.6,139.7L208.6,139.7z"/>
			</g>
			<g>
				<rect x="209.1" y="142" class="st11" width="55.2" height="12.1"/>
				<path class="st12" d="M209.6,142.5l54.2,0v11.1h-54.2L209.6,142.5 M208.6,141.5l0,13.1h56.2v-13.1L208.6,141.5L208.6,141.5z"/>
			</g>
			<path class="st13" d="M209.5,154.2l54.5-12.1"/>
		</g>
		<g>
			<g>
				<rect x="284.2" y="256.3" class="st11" width="1.8" height="41.7"/>
				<path class="st12" d="M285.5,256.8l0,40.7h-0.8l0-40.7H285.5 M286.5,255.8h-2.8l0,42.7h2.8L286.5,255.8L286.5,255.8z"/>
			</g>
			<g>
				<rect x="286" y="256.3" class="st11" width="12.1" height="41.7"/>
				<path class="st12" d="M286.5,256.8l11.1,0l0,40.7l-11.1,0V256.8 M285.5,255.8v42.7l13.1,0l0-42.7L285.5,255.8L285.5,255.8z"/>
			</g>
			<path class="st13" d="M298.2,297.8l-12.1-41.5"/>
		</g>
		<g>
			<g>
				<rect x="386.3" y="297.5" class="st11" width="50.7" height="1.8"/>
				<path class="st12" d="M386.8,298h49.7v0.8l-49.7,0V298 M385.8,297v2.8l51.7,0V297H385.8L385.8,297z"/>
			</g>
			<g>
				<rect x="386.3" y="299.4" class="st11" width="50.7" height="12.1"/>
				<path class="st12" d="M386.8,299.9h49.7V311h-49.7L386.8,299.9 M385.8,298.9l0,13.1h51.7v-13.1H385.8L385.8,298.9z"/>
			</g>
			<path class="st13" d="M386.6,311.5l50.2-12.1"/>
		</g>
		<g>
			<g>
				<rect x="452.7" y="234.5" class="st11" width="14.8" height="1.8"/>
				<path class="st12" d="M453.2,235l13.8,0v0.8l-13.8,0V235 M452.2,234v2.8l15.8,0V234L452.2,234L452.2,234z"/>
			</g>
			<g>
				<rect x="452.7" y="236.4" class="st11" width="14.8" height="12.1"/>
				<path class="st12" d="M453.2,236.9l13.8,0l0,11.1h-13.8V236.9 M452.2,235.9V249H468l0-13.1L452.2,235.9L452.2,235.9z"/>
			</g>
			<path class="st13" d="M452.5,248.5l15.3-12.1"/>
		</g>
		<g>
			<g>
				<rect x="336.6" y="328.3" class="st11" width="1.8" height="29.4"/>
				<path class="st12" d="M337.9,328.8l0,28.4h-0.8l0-28.4H337.9 M338.9,327.8h-2.8l0,30.4h2.8L338.9,327.8L338.9,327.8z"/>
			</g>
			<g>
				<rect x="338.4" y="328.3" class="st11" width="12.1" height="29.4"/>
				<path class="st12" d="M350.1,328.8l0,28.4h-11.1l0-28.4H350.1 M351.1,327.8h-13.1l0,30.4h13.1L351.1,327.8L351.1,327.8z"/>
			</g>
			<path class="st13" d="M350.6,357.7l-12.1-29.5"/>
		</g>
		<g>
			<g>
				<rect x="494.1" y="322.8" class="st11" width="1.8" height="83.2"/>
				<path class="st12" d="M495.5,323.3l0,82.2l-0.8,0l0-82.2H495.5 M496.5,322.3h-2.8l0,84.2l2.8,0L496.5,322.3L496.5,322.3z"/>
			</g>
			<g>
				<rect x="496" y="322.8" class="st11" width="12.1" height="83.2"/>
				<path class="st12" d="M496.5,323.3h11.1v82.2l-11.1,0L496.5,323.3 M495.5,322.3l0,84.2l13.1,0v-84.2H495.5L495.5,322.3z"/>
			</g>
			<path class="st13" d="M508.1,405.2L496,323.4"/>
		</g>
		<g>
			<g>
				<rect x="215.1" y="376" class="st11" width="1.8" height="38.5"/>
				<path class="st12" d="M215.6,376.5l0.8,0l0,37.5h-0.8L215.6,376.5 M214.6,375.5l0,39.5h2.8l0-39.5L214.6,375.5L214.6,375.5z"/>
			</g>
			<g>
				<rect x="202.9" y="376" class="st11" width="12.1" height="38.5"/>
				<path class="st12" d="M203.4,376.5h11.1l0,37.5l-11.1,0L203.4,376.5 M202.4,375.5l0,39.5l13.1,0l0-39.5H202.4L202.4,375.5z"/>
			</g>
			<path class="st13" d="M202.9,376.2l12.1,38.3"/>
		</g>
		<g>
			<g>
				<rect x="499.5" y="209.1" class="st11" width="15.8" height="39.4"/>
				<path class="st12" d="M514.8,209.6V248l-14.8,0l0-38.4H514.8 M515.8,208.6H499l0,40.4l16.8,0V208.6L515.8,208.6z"/>
			</g>
			<g>
				<g>
					<path class="st16" d="M507.4,245.3c3.1,0,5.5-2.7,5.2-5.7c-0.3-3.4-0.6-7.6-0.6-10.8c0-3.1,0.3-7.4,0.6-10.8
						c0.3-3.1-2.1-5.7-5.2-5.7c-3.1,0-5.5,2.7-5.2,5.7c0.3,3.4,0.6,7.6,0.6,10.8c0,3.1-0.3,7.4-0.6,10.8
						C501.9,242.6,504.4,245.3,507.4,245.3z"/>
					<ellipse class="st16" cx="507.4" cy="239.9" rx="0.8" ry="0.8"/>
				</g>
			</g>
		</g>
		<g>
			<g>
				<rect x="301.4" y="200.2" class="st11" width="13.6" height="9"/>
				<path class="st12" d="M314.5,200.7v8h-12.6v-8H314.5 M315.5,199.7h-14.6v10h14.6V199.7L315.5,199.7z"/>
			</g>
			<g>
				<path class="st11" d="M308.2,207.5c-1.5,0-2.7-1.2-2.7-2.7s1.2-2.7,2.7-2.7c1.5,0,2.7,1.2,2.7,2.7S309.7,207.5,308.2,207.5z"/>
				<path class="st12" d="M308.2,202.5c1.2,0,2.2,1,2.2,2.2s-1,2.2-2.2,2.2s-2.2-1-2.2-2.2S307,202.5,308.2,202.5 M308.2,201.5
					c-1.8,0-3.2,1.5-3.2,3.2s1.5,3.2,3.2,3.2s3.2-1.5,3.2-3.2S310,201.5,308.2,201.5L308.2,201.5z"/>
			</g>
		</g>
		<g>
			<path class="st13" d="M356.8,137.2v-29.9h21.7v29.9H356.8z"/>
			<path class="st13" d="M361.4,105.6v-0.5c0-3.5,2.8-6.3,6.3-6.3c3.5,0,6.3,2.8,6.3,6.3v0.5H361.4z"/>
			<path class="st13" d="M363.2,107.3V105c0-2.5,2-4.5,4.5-4.5s4.5,2,4.5,4.5v2.3H363.2z"/>
			<path class="st13" d="M361.4,138.9v0.5c0,3.5,2.8,6.3,6.3,6.3c3.5,0,6.3-2.8,6.3-6.3v-0.5H361.4z"/>
			<path class="st13" d="M363.2,137.2v2.3c0,2.5,2,4.5,4.5,4.5s4.5-2,4.5-4.5v-2.3H363.2z"/>
			<path class="st13" d="M380.3,127.6h0.5c3.5,0,6.3-2.8,6.3-6.3c0-3.5-2.8-6.3-6.3-6.3h-0.5V127.6z"/>
			<path class="st13" d="M378.6,125.8h2.3c2.5,0,4.5-2,4.5-4.5c0-2.5-2-4.5-4.5-4.5h-2.3V125.8z"/>
			<path class="st13" d="M355.2,114.9h-0.5c-3.5,0-6.3,2.8-6.3,6.3c0,3.5,2.8,6.3,6.3,6.3h0.5V114.9z"/>
			<path class="st13" d="M356.8,116.7h-2.3c-2.5,0-4.5,2-4.5,4.5c0,2.5,2,4.5,4.5,4.5h2.3V116.7z"/>
		</g>
		<g>
			<path class="st13" d="M228.1,88.6l0,11l-10,1.5l0-14.1L228.1,88.6z"/>
			<g>
				<rect x="202.9" y="65.5" class="st11" width="16.1" height="45.9"/>
				<path class="st12" d="M218.5,66l0,44.9h-15.1l0-44.9H218.5 M219.5,65h-17.1l0,46.9h17.1L219.5,65L219.5,65z"/>
			</g>
			<path class="st15" d="M214.8,89.8l0,8.5 M216.4,89.1l0,10l-3,0l0-10L216.4,89.1z"/>
			<path class="st17" d="M216.6,85.5L216.6,85.5c0,0.4-0.3,0.8-0.8,0.8l-1,0c-0.4,0-0.8-0.3-0.8-0.8l0,0c0-0.4,0.3-0.8,0.8-0.8l1,0
				C216.2,84.8,216.6,85.1,216.6,85.5z"/>
			<path class="st13" d="M208.5,91.6c1.4,0,2.5,1.1,2.5,2.5c0,1.4-1.1,2.5-2.5,2.5l-2.5,0l0-5L208.5,91.6z"/>
			<g>
				<rect x="204.8" y="81.2" class="st11" width="1.8" height="25.8"/>
				<path class="st12" d="M206.2,81.7v24.8h-0.8V81.7H206.2 M207.2,80.7h-2.8v26.8h2.8V80.7L207.2,80.7z"/>
			</g>
			<g>
				<rect x="219.5" y="88.9" class="st11" width="8.7" height="10.4"/>
				<path class="st12" d="M227.7,89.4v9.4H220v-9.4H227.7 M228.7,88.4H219v11.4h9.7V88.4L228.7,88.4z"/>
			</g>
			<g>
				<rect x="228.2" y="88.6" class="st11" width="1.8" height="10.9"/>
				<path class="st12" d="M229.6,89.1v9.9h-0.8v-9.9H229.6 M230.6,88.1h-2.8v11.9h2.8V88.1L230.6,88.1z"/>
			</g>
		</g>
		<g>
			<path class="st13" d="M228.1,280.6l0,11l-10,1.5l0-14.1L228.1,280.6z"/>
			<g>
				<rect x="202.9" y="269.8" class="st11" width="16.1" height="32.7"/>
				<path class="st12" d="M218.5,270.3l0,31.7l-15.1,0v-31.7H218.5 M219.5,269.3h-17.1V303l17.1,0L219.5,269.3L219.5,269.3z"/>
			</g>
			<path class="st15" d="M214.8,281.9l0,8.5 M216.4,281.1l0,10l-3,0l0-10L216.4,281.1z"/>
			<path class="st17" d="M216.3,278.4L216.3,278.4c0,0.4-0.3,0.8-0.8,0.8l-1,0c-0.4,0-0.8-0.3-0.8-0.8l0,0c0-0.4,0.3-0.8,0.8-0.8
				l1,0C216,277.6,216.3,277.9,216.3,278.4z"/>
			<path class="st13" d="M208.5,283.6c1.4,0,2.5,1.1,2.5,2.5c0,1.4-1.1,2.5-2.5,2.5l-2.5,0l0-5L208.5,283.6z"/>
			<g>
				<rect x="204.8" y="273.3" class="st11" width="1.8" height="25.8"/>
				<path class="st12" d="M206.2,273.8v24.8h-0.8v-24.8H206.2 M207.2,272.8h-2.8v26.8h2.8V272.8L207.2,272.8z"/>
			</g>
			<g>
				<rect x="219.5" y="280.9" class="st11" width="8.7" height="10.4"/>
				<path class="st12" d="M227.7,281.4v9.4H220v-9.4H227.7 M228.7,280.4H219v11.4h9.7V280.4L228.7,280.4z"/>
			</g>
			<g>
				<rect x="228.2" y="280.7" class="st11" width="1.8" height="10.9"/>
				<path class="st12" d="M229.6,281.2v9.9h-0.8v-9.9H229.6 M230.6,280.2h-2.8v11.9h2.8V280.2L230.6,280.2z"/>
			</g>
		</g>
		<g>
			<path class="st13" d="M505,86.8l-9.4,0l-1.3-8.5l11.9,0L505,86.8z"/>
			<g>
				<rect x="484.9" y="65.5" class="st11" width="30.5" height="13.5"/>
				<path class="st12" d="M514.8,66v12.5h-29.5V66H514.8 M515.8,65h-31.5v14.5h31.5V65L515.8,65z"/>
			</g>
			<path class="st15" d="M503.9,75.5l-7.2,0 M504.6,76.9l-8.5,0l0-2.6l8.5,0L504.6,76.9z"/>
			<path class="st17" d="M506.9,76.8L506.9,76.8c-0.4,0-0.6-0.3-0.6-0.6l0-0.9c0-0.4,0.3-0.6,0.6-0.6l0,0c0.4,0,0.6,0.3,0.6,0.6
				l0,0.9C507.6,76.5,507.3,76.8,506.9,76.8z"/>
			<path class="st13" d="M502.4,70.2c0,1.2-1,2.1-2.1,2.1c-1.2,0-2.1-1-2.1-2.1l0-2.1l4.3,0L502.4,70.2z"/>
			<g>
				<rect x="489.4" y="66.9" class="st11" width="21.7" height="1.8"/>
				<path class="st12" d="M510.7,67.4v0.8h-20.7v-0.8H510.7 M511.7,66.4h-22.7v2.8h22.7V66.4L511.7,66.4z"/>
			</g>
			<g>
				<rect x="496" y="79.6" class="st11" width="8.7" height="7.2"/>
				<path class="st12" d="M504.1,80.1v6.2h-7.7v-6.2H504.1 M505.1,79.1h-9.7v8.2h9.7V79.1L505.1,79.1z"/>
			</g>
			<g>
				<rect x="495.7" y="86.8" class="st11" width="9.3" height="1.8"/>
				<path class="st12" d="M504.4,87.3v0.8h-8.3v-0.8H504.4 M505.4,86.3h-10.3v2.8h10.3V86.3L505.4,86.3z"/>
			</g>
		</g>
		<g id="Sink_2_5_">
			<g id="Rectangle_16_x5F_11_7_">
				<rect x="484" y="238.6" class="st11" width="15.5" height="9.9"/>
				<path class="st12" d="M499,239.1v8.9l-14.5,0v-8.9L499,239.1 M500,238.1l-16.5,0V249l16.5,0V238.1L500,238.1z"/>
			</g>
			<path id="Rectangle_19_x5F_5_5_" class="st13" d="M497.4,243.6L497.4,243.6c0-1.8-1.5-3.3-3.3-3.3l-4.8,0c-1.8,0-3.3,1.5-3.3,3.3
				l0,0c0,1.8,1.5,3.3,3.3,3.3h4.8C495.9,246.9,497.4,245.4,497.4,243.6z"/>
			<circle id="Ellipse_7_x5F_2_5_" class="st13" cx="491.7" cy="245" r="0.8"/>
		</g>
		<g id="Toilet_5_">
			<g id="Rectangle_21_7_">
				<rect x="299.2" y="386.9" class="st11" width="3.2" height="9.5"/>
				<path class="st12" d="M301.8,387.4v8.5h-2.2v-8.5H301.8 M302.8,386.4h-4.2v10.5h4.2V386.4L302.8,386.4z"/>
			</g>
			<path id="Rectangle_19_x5F_2_5_" class="st13" d="M308.5,394.9c1.9,0.1,3.5-1.4,3.5-3.3l0,0c0-1.9-1.6-3.4-3.5-3.3l-6.1,0.4v5.8
				L308.5,394.9z"/>
			<path id="Rectangle_18_x5F_13_5_" class="st13" d="M308.3,393.6c1.2,0.1,2.2-0.8,2.2-2l0,0c0-1.2-1-2.1-2.2-2l-3.1,0.3v3.4
				L308.3,393.6z"/>
			<ellipse id="Ellipse_6_x5F_2_5_" class="st13" cx="307" cy="391.6" rx="0.8" ry="0.8"/>
		</g>
		<g id="Toilet_8_">
			<g id="Rectangle_21_12_">
				<rect x="301.4" y="282.4" class="st11" width="3.2" height="9.5"/>
				<path class="st12" d="M304,282.9l0,8.5h-2.2v-8.5H304 M305,281.9h-4.2v10.5h4.2L305,281.9L305,281.9z"/>
			</g>
			<path id="Rectangle_19_x5F_2_8_" class="st13" d="M310.7,290.4c1.9,0.1,3.5-1.4,3.5-3.3l0,0c0-1.9-1.6-3.4-3.5-3.3l-6.1,0.4v5.8
				L310.7,290.4z"/>
			<path id="Rectangle_18_x5F_13_8_" class="st13" d="M310.5,289.1c1.2,0.1,2.2-0.8,2.2-2l0,0c0-1.2-1-2.1-2.2-2l-3.1,0.3v3.4
				L310.5,289.1z"/>
			<ellipse id="Ellipse_6_x5F_2_8_" class="st13" cx="309.3" cy="287.1" rx="0.8" ry="0.8"/>
		</g>
		<g id="Toilet_7_">
			<g id="Rectangle_21_8_">
				<rect x="471" y="245.4" class="st11" width="9.5" height="3.2"/>
				<path class="st12" d="M480,245.9v2.2l-8.5,0v-2.2H480 M481,244.9h-10.5v4.2l10.5,0V244.9L481,244.9z"/>
			</g>
			<path id="Rectangle_19_x5F_2_7_" class="st13" d="M479.1,239.1c0.1-1.9-1.4-3.5-3.3-3.5l0,0c-1.9,0-3.4,1.6-3.3,3.5l0.4,6.1h5.8
				L479.1,239.1z"/>
			<path id="Rectangle_18_x5F_13_7_" class="st13" d="M477.7,239.4c0.1-1.2-0.8-2.2-2-2.2l0,0c-1.2,0-2.1,1-2,2.2l0.3,3.1h3.4
				L477.7,239.4z"/>
			<ellipse id="Ellipse_6_x5F_2_7_" class="st13" cx="475.8" cy="240.7" rx="0.8" ry="0.8"/>
		</g>
		<g>
			<g>
				<rect x="339" y="209.1" class="st11" width="15.8" height="39.4"/>
				<path class="st12" d="M339.5,209.6l14.8,0V248l-14.8,0L339.5,209.6 M338.5,208.6l0,40.4l16.8,0v-40.4L338.5,208.6L338.5,208.6z"
					/>
			</g>
			<g>
				<g>
					<path class="st16" d="M346.9,245.3c3.1,0,5.5-2.7,5.2-5.7c-0.3-3.4-0.6-7.6-0.6-10.8c0-3.1,0.3-7.4,0.6-10.8
						c0.3-3.1-2.1-5.7-5.2-5.7c-3.1,0-5.5,2.7-5.2,5.7c0.3,3.4,0.6,7.6,0.6,10.8c0,3.1-0.3,7.4-0.6,10.8
						C341.4,242.6,343.8,245.3,346.9,245.3z"/>
					<ellipse class="st16" cx="346.9" cy="239.9" rx="0.8" ry="0.8"/>
				</g>
			</g>
		</g>
		<g id="Sink_2_1_">
			<g id="Rectangle_16_x5F_11_1_">
				<rect x="323.4" y="238.6" class="st11" width="15.5" height="9.9"/>
				<path class="st12" d="M338.5,239.1l0,8.9l-14.5,0v-8.9H338.5 M339.5,238.1h-16.5V249l16.5,0L339.5,238.1L339.5,238.1z"/>
			</g>
			<path id="Rectangle_19_x5F_5_1_" class="st13" d="M336.9,243.6L336.9,243.6c0-1.8-1.5-3.3-3.3-3.3l-4.8,0c-1.8,0-3.3,1.5-3.3,3.3
				l0,0c0,1.8,1.5,3.3,3.3,3.3h4.8C335.4,246.9,336.9,245.4,336.9,243.6z"/>
			<circle id="Ellipse_7_x5F_2_1_" class="st13" cx="331.2" cy="245" r="0.8"/>
		</g>
		<g id="Toilet_1_">
			<g id="Rectangle_21_1_">
				<rect x="310.5" y="245.4" class="st11" width="9.5" height="3.2"/>
				<path class="st12" d="M319.5,245.9v2.2l-8.5,0v-2.2H319.5 M320.5,244.9H310v4.2l10.5,0V244.9L320.5,244.9z"/>
			</g>
			<path id="Rectangle_19_x5F_2_1_" class="st13" d="M318.5,239.1c0.1-1.9-1.4-3.5-3.3-3.5l0,0c-1.9,0-3.4,1.6-3.3,3.5l0.4,6.1h5.8
				L318.5,239.1z"/>
			<path id="Rectangle_18_x5F_13_1_" class="st13" d="M317.2,239.4c0.1-1.2-0.8-2.2-2-2.2l0,0c-1.2,0-2.1,1-2,2.2l0.3,3.1h3.4
				L317.2,239.4z"/>
			<ellipse id="Ellipse_6_x5F_2_1_" class="st13" cx="315.2" cy="240.7" rx="0.8" ry="0.8"/>
		</g>
		<g id="TV_2_">
			<g id="Rectangle_16_2_">
				<rect x="212.1" y="163.3" class="st11" width="33.6" height="1.8"/>
				<path class="st12" d="M245.2,163.8v0.8h-32.6v-0.8H245.2 M246.2,162.8h-34.6v2.8h34.6V162.8L246.2,162.8z"/>
			</g>
			<g id="Rectangle_15_2_">
				<rect x="212.1" y="157.4" class="st11" width="33.6" height="5.9"/>
				<path class="st12" d="M245.2,157.9v4.9h-32.6v-4.9H245.2 M246.2,156.9h-34.6v6.9h34.6V156.9L246.2,156.9z"/>
			</g>
			<g id="Rectangle_17_2_">
				<rect x="217.9" y="159.3" class="st11" width="22" height="1.8"/>
				<path class="st12" d="M239.4,159.8v0.8h-21v-0.8H239.4 M240.4,158.8h-23v2.8h23V158.8L240.4,158.8z"/>
			</g>
			<path id="Rectangle_18_x5F_2_2_" class="st13" d="M233.7,159.3H224l0.9-1.9h8L233.7,159.3z"/>
		</g>
		<g>
			<g>
				<rect x="472.2" y="114.3" class="st11" width="43.1" height="36.3"/>
				<path class="st12" d="M514.8,114.8v35.3h-42.1v-35.3L514.8,114.8 M515.8,113.8l-44.1,0v37.3h44.1V113.8L515.8,113.8z"/>
			</g>
			<rect x="501.8" y="117" class="st13" width="10.9" height="14.6"/>
			<rect x="501.8" y="133.3" class="st13" width="10.9" height="14.6"/>
			
				<rect x="496.9" y="120" transform="matrix(0.9659 -0.2588 0.2588 0.9659 -15.343 134.292)" class="st14" width="10.9" height="10.9"/>
			
				<rect x="496.9" y="134.1" transform="matrix(0.2588 -0.9659 0.9659 0.2588 237.5797 588.6717)" class="st14" width="10.9" height="10.9"/>
			<g>
				<polygon class="st11" points="471.8,150.6 471.8,114.3 503.8,114.3 507,136.2 506.1,150.6 				"/>
				<path class="st12" d="M503.4,114.8l3.1,21.4l-0.9,13.9l-33.4,0v-35.3H503.4 M504.3,113.8h-0.2h-32.7v37.3l34.6,0h0.7l0.9-14.9
					L504.3,113.8L504.3,113.8z"/>
			</g>
			<polyline class="st15" points="505.5,150.6 505.5,136 503.7,114.2 			"/>
		</g>
		<g id="TV_1_">
			<g id="Rectangle_16_1_">
				<rect x="450.7" y="115.3" class="st11" width="1.8" height="33.6"/>
				<path class="st12" d="M452,115.8v32.6h-0.8v-32.6H452 M453,114.8h-2.8v34.6h2.8V114.8L453,114.8z"/>
			</g>
			<g id="Rectangle_15_1_">
				<rect x="444.8" y="115.3" class="st11" width="5.9" height="33.6"/>
				<path class="st12" d="M450.2,115.8v32.6h-4.9v-32.6H450.2 M451.2,114.8h-6.9v34.6h6.9V114.8L451.2,114.8z"/>
			</g>
			<g id="Rectangle_17_1_">
				<rect x="446.7" y="121.1" class="st11" width="1.8" height="22"/>
				<path class="st12" d="M448,121.6v21h-0.8v-21H448 M449,120.6h-2.8v23h2.8V120.6L449,120.6z"/>
			</g>
			<path id="Rectangle_18_x5F_2_1_" class="st13" d="M446.7,127.2v9.7l-1.9-0.9v-8L446.7,127.2z"/>
		</g>
		<g id="TV_3_">
			<g id="Rectangle_16_5_">
				<rect x="312.4" y="189.2" class="st11" width="33.6" height="1.8"/>
				<path class="st12" d="M312.9,189.7l32.6,0v0.8h-32.6V189.7 M311.9,188.7v2.8h34.6v-2.8L311.9,188.7L311.9,188.7z"/>
			</g>
			<g id="Rectangle_15_5_">
				<rect x="312.4" y="191.1" class="st11" width="33.6" height="5.9"/>
				<path class="st12" d="M312.9,191.6l32.6,0v4.9h-32.6V191.6 M311.9,190.6v6.9h34.6v-6.9L311.9,190.6L311.9,190.6z"/>
			</g>
			<g id="Rectangle_17_5_">
				<rect x="318.2" y="193.2" class="st11" width="22" height="1.8"/>
				<path class="st12" d="M339.7,193.7v0.8l-21,0v-0.8H339.7 M340.7,192.7h-23v2.8l23,0V192.7L340.7,192.7z"/>
			</g>
			<path id="Rectangle_18_x5F_2_3_" class="st13" d="M324.3,195.1l9.7,0l-0.9,1.9h-8L324.3,195.1z"/>
		</g>
		<g id="Kitchen_1_">
			<g id="Rectangle_24_1_">
				<rect x="423.8" y="131.4" class="st11" width="13.2" height="43.1"/>
				<path class="st12" d="M436.5,131.9V174h-12.2v-42.1H436.5 M437.5,130.9h-14.2V175h14.2V130.9L437.5,130.9z"/>
			</g>
			<g id="Rectangle_26_1_">
				<rect x="423.8" y="71.8" class="st11" width="13.2" height="111.5"/>
				<path class="st12" d="M436.5,72.3l0,110.5l-12.2,0l0-110.5H436.5 M437.5,71.3h-14.2l0,112.5l14.2,0L437.5,71.3L437.5,71.3z"/>
			</g>
			<g id="Sink_3_1_">
				<rect id="Rectangle_28_x5F_2_1_" x="425.7" y="106.7" class="st13" width="9.3" height="14.8"/>
				<path id="Rectangle_29_x5F_2_1_" class="st13" d="M430.4,115.7L430.4,115.7c1.9,0,3.5-1.6,3.5-3.5v-0.8c0-1.9-1.6-3.5-3.5-3.5h0
					c-1.9,0-3.5,1.6-3.5,3.5v0.8C426.9,114.1,428.5,115.7,430.4,115.7z"/>
				<ellipse id="Ellipse_7_x5F_3_1_" class="st13" cx="432.3" cy="111.8" rx="0.8" ry="0.8"/>
				<line class="st15" x1="427.4" y1="120.6" x2="427.4" y2="116.7"/>
				<line class="st15" x1="429.4" y1="120.6" x2="429.4" y2="116.7"/>
				<line class="st15" x1="431.4" y1="120.6" x2="431.4" y2="116.7"/>
				<line class="st15" x1="433.4" y1="120.6" x2="433.4" y2="116.7"/>
			</g>
			<g id="Stove_1_">
				<g id="Rectangle_25_1_">
					<rect x="423.8" y="135.1" class="st11" width="13.2" height="12.8"/>
					<path class="st12" d="M436.5,135.6v11.8h-12.2v-11.8H436.5 M437.5,134.6h-14.2v13.8h14.2V134.6L437.5,134.6z"/>
				</g>
				<g id="Ellipse_7_x5F_4_1_">
					<path class="st11" d="M427.7,146.2c-0.7,0-1.3-0.6-1.3-1.3s0.6-1.3,1.3-1.3s1.3,0.6,1.3,1.3S428.4,146.2,427.7,146.2z"/>
					<path class="st12" d="M427.7,144.2c0.4,0,0.8,0.3,0.8,0.8s-0.3,0.8-0.8,0.8s-0.8-0.3-0.8-0.8S427.3,144.2,427.7,144.2
						 M427.7,143.2c-1,0-1.8,0.8-1.8,1.8s0.8,1.8,1.8,1.8s1.8-0.8,1.8-1.8S428.7,143.2,427.7,143.2L427.7,143.2z"/>
				</g>
				<g id="Ellipse_9_1_">
					<path class="st11" d="M433.1,146.6c-0.9,0-1.7-0.8-1.7-1.7s0.8-1.7,1.7-1.7c0.9,0,1.7,0.8,1.7,1.7S434,146.6,433.1,146.6z"/>
					<path class="st12" d="M433.1,143.7c0.7,0,1.2,0.5,1.2,1.2s-0.5,1.2-1.2,1.2s-1.2-0.5-1.2-1.2S432.4,143.7,433.1,143.7
						 M433.1,142.7c-1.2,0-2.2,1-2.2,2.2c0,1.2,1,2.2,2.2,2.2s2.2-1,2.2-2.2C435.3,143.7,434.3,142.7,433.1,142.7L433.1,142.7z"/>
				</g>
				<g id="Ellipse_10_1_">
					<path class="st11" d="M427.7,140.4c-0.9,0-1.7-0.8-1.7-1.7c0-0.9,0.8-1.7,1.7-1.7c0.9,0,1.7,0.8,1.7,1.7
						C429.5,139.7,428.7,140.4,427.7,140.4z"/>
					<path class="st12" d="M427.7,137.5c0.7,0,1.2,0.5,1.2,1.2c0,0.7-0.5,1.2-1.2,1.2s-1.2-0.5-1.2-1.2
						C426.5,138,427.1,137.5,427.7,137.5 M427.7,136.5c-1.2,0-2.2,1-2.2,2.2s1,2.2,2.2,2.2s2.2-1,2.2-2.2S429,136.5,427.7,136.5
						L427.7,136.5z"/>
				</g>
				<g id="Ellipse_8_1_">
					<path class="st11" d="M433.5,140c-0.7,0-1.3-0.6-1.3-1.3s0.6-1.3,1.3-1.3s1.3,0.6,1.3,1.3S434.2,140,433.5,140z"/>
					<path class="st12" d="M433.5,137.9c0.4,0,0.8,0.3,0.8,0.8s-0.3,0.8-0.8,0.8s-0.8-0.3-0.8-0.8S433.1,137.9,433.5,137.9
						 M433.5,136.9c-1,0-1.8,0.8-1.8,1.8c0,1,0.8,1.8,1.8,1.8s1.8-0.8,1.8-1.8C435.3,137.7,434.5,136.9,433.5,136.9L433.5,136.9z"/>
				</g>
			</g>
		</g>
		<g>
			<polygon class="st11" points="400.4,197 400.4,183.2 437,183.2 437,189.3 429.5,189.3 429.5,197 			"/>
			<path class="st12" d="M436.5,183.7v5.1H430h-1v1v6.6h-28.1v-12.8h7.3H430H436.5 M437.5,182.7H430h-21.8h-8.3v14.8H430v-7.6h7.5
				V182.7L437.5,182.7z"/>
		</g>
		<g id="Rectangle_27_1_">
			<rect x="410" y="183.2" class="st11" width="13.8" height="13.8"/>
			<path class="st12" d="M423.3,183.7v12.8h-12.8v-12.8H423.3 M424.3,182.7h-14.8v14.8h14.8V182.7L424.3,182.7z"/>
		</g>
		<path id="Vector_3_1_" class="st15" d="M418.7,191h-3.5 M417.8,192.5l-1.8-3.1 M417.8,189.4l-1.8,3.1"/>
		<g id="Rectangle_28_3_">
			<rect x="410" y="183.2" class="st11" width="13.8" height="1.8"/>
			<path class="st12" d="M423.3,183.7l0,0.8h-12.8v-0.8H423.3 M424.3,182.7h-14.8v2.8h14.8L424.3,182.7L424.3,182.7z"/>
		</g>
		<g>
			<path class="st13" d="M331.1,91.3c0.6,0,1.1-0.5,1.1-1.1V78.6h-26.3v12.7H331.1z"/>
			<path class="st13" d="M317.5,111.7c0.6,0,1.1-0.5,1.1-1.2v-18c0-0.7-0.5-1.2-1.1-1.2h-11.5v20.4H317.5z"/>
			<path class="st13" d="M317.5,131.3c0.6,0,1.1-0.5,1.1-1.2v-17.3c0-0.6-0.5-1.2-1.1-1.2h-11.5v19.6H317.5z"/>
			<path class="st13" d="M319.6,131.3v4.3h-18.1V74h35.3v18.2h-4.5V78.6h-26.3v52.7H319.6z"/>
		</g>
		<g>
			<g>
				<rect x="234.7" y="328.3" class="st11" width="36.7" height="45.1"/>
				<path class="st12" d="M235.2,328.8h35.7l0,44.1h-35.7L235.2,328.8 M234.2,327.8l0,46.1h37.7l0-46.1H234.2L234.2,327.8z"/>
			</g>
			<rect x="254" y="331" class="st13" width="14.7" height="11.4"/>
			<rect x="237.5" y="331" class="st13" width="14.7" height="11.4"/>
			<polygon class="st14" points="266.9,337.8 256.3,334.9 253.4,345.9 264.1,348.8 			"/>
			<polygon class="st14" points="252.7,345.9 249.8,334.9 239.2,337.8 242,348.8 			"/>
			<g>
				<polygon class="st11" points="234.7,373.8 234.7,337.9 249.3,337 271.4,340.3 271.4,373.8 				"/>
				<path class="st12" d="M249.3,337.5l21.6,3.3v32.6l-35.7,0l0-35L249.3,337.5 M249.3,336.5l-15.1,1v0.7l0,36.2l37.7,0v-34.3v-0.2
					L249.3,336.5L249.3,336.5z"/>
			</g>
			<polyline class="st15" points="234.7,338.6 249.5,338.6 271.5,340.5 			"/>
		</g>
		<g>
			<g>
				<rect x="388.3" y="314.7" class="st11" width="36.7" height="45.1"/>
				<path class="st12" d="M388.8,315.2h35.7l0,44.1h-35.7V315.2 M387.8,314.2v46.1h37.7l0-46.1H387.8L387.8,314.2z"/>
			</g>
			<rect x="407.5" y="317.5" class="st13" width="14.7" height="11.4"/>
			<rect x="391" y="317.5" class="st13" width="14.7" height="11.4"/>
			<polygon class="st14" points="420.4,324.3 409.8,321.3 407,332.4 417.6,335.3 			"/>
			<polygon class="st14" points="406.2,332.4 403.4,321.3 392.7,324.3 395.6,335.3 			"/>
			<g>
				<polygon class="st11" points="388.3,360.3 388.3,324.4 402.8,323.4 425,326.8 425,360.3 				"/>
				<path class="st12" d="M402.8,323.9l21.6,3.3v32.6h-35.7v-35L402.8,323.9 M402.9,322.9l-15.1,1v0.7v36.2h37.7v-34.3v-0.2
					L402.9,322.9L402.9,322.9z"/>
			</g>
			<polyline class="st15" points="388.3,325.1 403,325.1 425,327 			"/>
		</g>
		<g>
			<g>
				<rect x="233.4" y="256.3" class="st11" width="30.6" height="47.6"/>
				<path class="st12" d="M233.9,256.8l29.6,0l0,46.6l-29.6,0L233.9,256.8 M232.9,255.8l0,48.6l31.6,0l0-48.6L232.9,255.8
					L232.9,255.8z"/>
			</g>
			<rect x="249.5" y="259.2" class="st13" width="12.3" height="12"/>
			<rect x="235.6" y="259.2" class="st13" width="12.3" height="12"/>
			<polygon class="st14" points="260.4,266.4 251.4,263.3 249,274.9 258,278 			"/>
			<polygon class="st14" points="248.4,274.9 246,263.3 237.1,266.4 239.5,278 			"/>
			<g>
				<polygon class="st11" points="233.4,304.4 233.4,266.4 245.6,265.4 264.1,268.9 264.1,304.4 				"/>
				<path class="st12" d="M245.5,265.9l18,3.4v34.5l-29.6,0v-37L245.5,265.9 M245.6,264.9l-12.7,1v0.8v38.1l31.6,0v-36.1v-0.3
					L245.6,264.9L245.6,264.9z"/>
			</g>
			<polyline class="st15" points="233.4,267.2 245.7,267.2 264.2,269.2 			"/>
		</g>
		<g>
			<g>
				<rect x="299.2" y="360.9" class="st11" width="43.3" height="17.4"/>
				<path class="st12" d="M299.7,361.4H342v16.4h-42.3L299.7,361.4 M298.7,360.4l0,18.4H343v-18.4H298.7L298.7,360.4z"/>
			</g>
			<g>
				<g>
					<path class="st16" d="M302.8,369.6c0,3.4,2.9,6,6.3,5.7c3.7-0.3,8.3-0.6,11.8-0.6c3.4,0,8.1,0.3,11.8,0.6
						c3.4,0.3,6.3-2.4,6.3-5.7c0-3.4-2.9-6-6.3-5.7c-3.7,0.3-8.3,0.6-11.8,0.6c-3.4,0-8.1-0.3-11.8-0.6
						C305.7,363.6,302.8,366.3,302.8,369.6z"/>
					<ellipse class="st16" cx="308.7" cy="369.6" rx="0.8" ry="0.8"/>
				</g>
			</g>
		</g>
		<g>
			<g>
				<rect x="338.9" y="256.3" class="st11" width="15.8" height="39.5"/>
				<path class="st12" d="M354.3,256.8v38.5h-14.8l0-38.5H354.3 M355.3,255.7h-16.8l0,40.5h16.8V255.7L355.3,255.7z"/>
			</g>
			<g>
				<g>
					<path class="st16" d="M346.9,259.5c3.1,0,5.5,2.7,5.2,5.7c-0.3,3.4-0.6,7.6-0.6,10.8c0,3.1,0.3,7.4,0.6,10.8
						c0.3,3.1-2.2,5.7-5.2,5.7c-3.1,0-5.5-2.7-5.2-5.7c0.3-3.4,0.6-7.6,0.6-10.8c0-3.1-0.3-7.4-0.6-10.8
						C341.4,262.2,343.8,259.5,346.9,259.5z"/>
					<ellipse class="st16" cx="346.9" cy="264.9" rx="0.8" ry="0.8"/>
				</g>
			</g>
		</g>
		<g id="Sink_2_4_">
			<g id="Rectangle_16_x5F_11_6_">
				<rect x="312.7" y="399.1" class="st11" width="16.1" height="9.2"/>
				<path class="st12" d="M328.3,399.6v8.2h-15.1v-8.2H328.3 M329.3,398.6h-17.1v10.2h17.1V398.6L329.3,398.6z"/>
			</g>
			<path id="Rectangle_19_x5F_5_4_" class="st13" d="M326.1,403.7L326.1,403.7c0-1.7-1.4-3.1-3.1-3.1h-4.5c-1.7,0-3.1,1.4-3.1,3.1
				l0,0c0,1.7,1.4,3.1,3.1,3.1h4.5C324.7,406.8,326.1,405.4,326.1,403.7z"/>
			<circle id="Ellipse_7_x5F_2_4_" class="st13" cx="320.8" cy="404.7" r="0.8"/>
		</g>
		<g id="Sink_2_6_">
			<g id="Rectangle_16_x5F_11_10_">
				<rect x="322.8" y="256.3" class="st11" width="16.1" height="9.2"/>
				<path class="st12" d="M338.5,256.8v8.2h-15.1v-8.2H338.5 M339.5,255.7h-17.1V266h17.1V255.7L339.5,255.7z"/>
			</g>
			<path id="Rectangle_19_x5F_5_6_" class="st13" d="M325.5,260.9L325.5,260.9c0,1.7,1.4,3.1,3.1,3.1h4.5c1.7,0,3.1-1.4,3.1-3.1l0,0
				c0-1.7-1.4-3.1-3.1-3.1h-4.5C326.9,257.7,325.5,259.1,325.5,260.9z"/>
			<circle id="Ellipse_7_x5F_2_6_" class="st13" cx="330.9" cy="259.6" r="0.8"/>
		</g>
		<circle class="st13" cx="227.1" cy="395.7" r="7.5"/>
	</g>
	<g id="street_anchors" class="st18">
		<rect id="street_x5F_anchor_x5F_01" x="355" y="20" class="st19" width="10" height="10"/>
		<rect id="street_x5F_anchor_x5F_02_1_" x="157.4" y="235" class="st19" width="10" height="10"/>
		<rect id="street_x5F_anchor_x5F_03" x="355" y="450" class="st19" width="10" height="10"/>
	</g>
</g>
<g id="комнаты">
	<g>
		<g>
			<path class="st10" d="M483.5,218.7h0.7c0.3,0,0.6-0.2,0.6-0.6c0-0.5-0.4-0.7-0.8-0.7c-0.5,0-1.1,0.4-1.5,0.9l-0.6-0.9
				c0.5-0.6,1.2-1.2,2.1-1.2c0.8,0,1.8,0.4,1.8,1.7c0,0.5-0.3,0.9-0.5,1.1c0.4,0.2,0.8,0.6,0.8,1.4c0,1.3-1,2-2.3,2
				c-0.9,0-1.6-0.4-2.3-1.2l0.6-0.9c0.4,0.6,1,1,1.7,1c0.7,0,1.2-0.4,1.2-1c0-0.5-0.4-0.6-0.7-0.6h-0.9V218.7z"/>
			<path class="st10" d="M487.7,220.7c0.4,0,0.7,0.4,0.7,0.9c0,0.5-0.3,0.9-0.7,0.9c-0.4,0-0.7-0.4-0.7-0.9
				C487,221.1,487.3,220.7,487.7,220.7z"/>
			<path class="st10" d="M493,217.7c-0.3-0.2-0.8-0.3-1.2-0.3c-0.8,0-1.5,0.7-1.6,1.9c0.4-0.4,1-0.8,1.7-0.8c1.2,0,1.8,0.9,1.8,1.8
				c0,1.2-0.8,2.1-2,2.1c-1.2,0-2.4-1-2.4-3c0-2,1.2-3.2,2.5-3.2c0.8,0,1.4,0.3,1.7,0.5L493,217.7z M490.3,220.1
				c0.2,0.8,0.7,1.2,1.3,1.2c0.6,0,1-0.5,1-1c0-0.4-0.2-0.8-0.9-0.8C491.2,219.5,490.7,219.8,490.3,220.1z"/>
		</g>
	</g>
	<g>
		<g>
			<path class="st10" d="M472.6,164.6l1.3-0.8h0.9v5.8h-1v-4.5l-1,0.6L472.6,164.6z"/>
			<path class="st10" d="M476,163.9h4v1.1l-2.3,4.7h-1.3l2.4-4.6H476V163.9z"/>
			<path class="st10" d="M481.5,168.1c0.4,0,0.7,0.4,0.7,0.9c0,0.5-0.3,0.9-0.7,0.9c-0.4,0-0.7-0.4-0.7-0.9
				C480.8,168.5,481.1,168.1,481.5,168.1z"/>
			<path class="st10" d="M483,163.9h4v1.1l-2.3,4.7h-1.3l2.4-4.6H483V163.9z"/>
		</g>
	</g>
	<g>
		<g>
			<path class="st10" d="M357,161.1h0.7c0.3,0,0.6-0.2,0.6-0.6c0-0.5-0.4-0.7-0.8-0.7c-0.5,0-1.1,0.4-1.5,0.9l-0.6-0.9
				c0.5-0.6,1.2-1.2,2.1-1.2c0.8,0,1.8,0.4,1.8,1.7c0,0.5-0.3,0.9-0.5,1.1c0.4,0.2,0.8,0.6,0.8,1.4c0,1.3-1,2-2.3,2
				c-0.9,0-1.6-0.4-2.3-1.2l0.6-0.9c0.4,0.6,1,1,1.7,1c0.7,0,1.2-0.4,1.2-1c0-0.5-0.4-0.6-0.7-0.6H357V161.1z"/>
			<path class="st10" d="M362.2,161.1h0.7c0.3,0,0.6-0.2,0.6-0.6c0-0.5-0.4-0.7-0.8-0.7c-0.5,0-1.1,0.4-1.5,0.9l-0.6-0.9
				c0.5-0.6,1.2-1.2,2.1-1.2c0.8,0,1.8,0.4,1.8,1.7c0,0.5-0.3,0.9-0.5,1.1c0.4,0.2,0.8,0.6,0.8,1.4c0,1.3-1,2-2.3,2
				c-0.9,0-1.6-0.4-2.3-1.2l0.6-0.9c0.4,0.6,1,1,1.7,1c0.7,0,1.2-0.4,1.2-1c0-0.5-0.4-0.6-0.7-0.6h-0.9V161.1z"/>
			<path class="st10" d="M366.3,163.1c0.4,0,0.7,0.4,0.7,0.9c0,0.5-0.3,0.9-0.7,0.9c-0.4,0-0.7-0.4-0.7-0.9
				C365.6,163.5,365.9,163.1,366.3,163.1z"/>
			<path class="st10" d="M368.5,163.4c0.3,0.2,0.8,0.3,1.2,0.3c0.8,0,1.5-0.7,1.5-1.8c-0.4,0.4-1,0.8-1.6,0.8
				c-1.2,0-1.8-0.9-1.8-1.9c0-1.2,0.8-2.1,2-2.1c1.2,0,2.4,1,2.4,3c0,2-1.2,3.2-2.5,3.2c-0.8,0-1.4-0.3-1.7-0.5L368.5,163.4z
				 M371.2,161c-0.2-0.8-0.7-1.2-1.3-1.2c-0.6,0-1,0.5-1,1c0,0.4,0.2,0.8,0.9,0.8C370.3,161.6,370.8,161.3,371.2,161z"/>
		</g>
	</g>
	<g>
		<g>
			<path class="st10" d="M400.7,272.5l1.3-0.8h0.9v5.8h-1V273l-1,0.6L400.7,272.5z"/>
			<path class="st10" d="M408.9,276.3h-0.8v1.2h-1v-1.2h-3v-0.8l3.1-3.7h0.9v3.5h0.8V276.3z M405.5,275.3h1.6v-1.9H407
				C406.5,274,405.9,274.6,405.5,275.3L405.5,275.3z"/>
			<path class="st10" d="M410.3,275.9c0.4,0,0.7,0.4,0.7,0.9c0,0.5-0.3,0.9-0.7,0.9c-0.4,0-0.7-0.4-0.7-0.9
				C409.6,276.3,409.9,275.9,410.3,275.9z"/>
			<path class="st10" d="M415.6,273c-0.3-0.2-0.8-0.3-1.2-0.3c-0.8,0-1.5,0.7-1.6,1.9c0.4-0.4,1-0.8,1.7-0.8c1.2,0,1.8,0.9,1.8,1.8
				c0,1.2-0.8,2.1-2,2.1c-1.2,0-2.4-1-2.4-3c0-2,1.2-3.2,2.5-3.2c0.8,0,1.4,0.3,1.7,0.5L415.6,273z M413,275.4
				c0.2,0.8,0.7,1.2,1.3,1.2c0.6,0,1-0.5,1-1c0-0.4-0.2-0.8-0.9-0.8C413.9,274.8,413.4,275.1,413,275.4z"/>
		</g>
	</g>
	<g>
		<g>
			<path class="st10" d="M325.2,278.5h-0.8v1.2h-1v-1.2h-3v-0.8l3.1-3.7h0.9v3.5h0.8V278.5z M321.8,277.5h1.6v-1.9h-0.1
				C322.8,276.2,322.3,276.9,321.8,277.5L321.8,277.5z"/>
		</g>
	</g>
	<g>
		<g>
			<path class="st10" d="M319.7,221.2h0.7c0.3,0,0.6-0.2,0.6-0.6c0-0.5-0.4-0.7-0.8-0.7c-0.5,0-1.1,0.4-1.5,0.9l-0.6-0.9
				c0.5-0.6,1.2-1.2,2.1-1.2c0.8,0,1.8,0.4,1.8,1.7c0,0.5-0.3,0.9-0.5,1.1c0.4,0.2,0.8,0.6,0.8,1.4c0,1.3-1,2-2.3,2
				c-0.9,0-1.6-0.4-2.3-1.2l0.6-0.9c0.4,0.6,1,1,1.7,1c0.7,0,1.2-0.4,1.2-1c0-0.5-0.4-0.6-0.7-0.6h-0.9V221.2z"/>
			<path class="st10" d="M323.9,223.2c0.4,0,0.7,0.4,0.7,0.9c0,0.5-0.3,0.9-0.7,0.9c-0.4,0-0.7-0.4-0.7-0.9
				C323.2,223.6,323.5,223.2,323.9,223.2z"/>
			<path class="st10" d="M329.2,220.3c-0.3-0.2-0.8-0.3-1.2-0.3c-0.8,0-1.5,0.7-1.5,1.9c0.4-0.4,1-0.8,1.7-0.8
				c1.2,0,1.8,0.9,1.8,1.8c0,1.2-0.8,2.1-2,2.1c-1.2,0-2.4-1-2.4-3c0-2,1.2-3.2,2.5-3.2c0.8,0,1.4,0.3,1.7,0.5L329.2,220.3z
				 M326.5,222.6c0.2,0.8,0.7,1.2,1.3,1.2c0.6,0,1-0.5,1-1c0-0.4-0.2-0.8-0.9-0.8C327.4,222,326.9,222.3,326.5,222.6z"/>
		</g>
	</g>
	<g>
		<g>
			<path class="st10" d="M248.5,189.6l1.3-0.8h0.9v5.8h-1v-4.5l-1,0.6L248.5,189.6z"/>
			<path class="st10" d="M252,193.6c0-1.4,0.9-2.1,1.9-2.5c0.3-0.1,0.8-0.3,0.8-0.8c0-0.4-0.4-0.6-0.7-0.6c-0.6,0-1,0.4-1.5,0.9
				l-0.6-0.9c0.6-0.6,1.1-1.1,2-1.1c0.9,0,1.8,0.5,1.8,1.7c0,1.3-1,1.7-1.7,2c-0.6,0.3-1,0.6-1,1.1v0.1h2.6v1.1H252V193.6z"/>
			<path class="st10" d="M257.4,193c0.4,0,0.7,0.4,0.7,0.9c0,0.5-0.3,0.9-0.7,0.9c-0.4,0-0.7-0.4-0.7-0.9
				C256.7,193.4,257,193,257.4,193z"/>
			<path class="st10" d="M258.7,189.6l1.3-0.8h0.9v5.8h-1v-4.5l-1,0.6L258.7,189.6z"/>
		</g>
	</g>
	<g>
		<g>
			<path class="st10" d="M245.7,122.1l1.3-0.8h0.9v5.8h-1v-4.5l-1,0.6L245.7,122.1z"/>
			<path class="st10" d="M249.1,126.2c0-1.4,0.9-2.1,1.9-2.5c0.3-0.1,0.8-0.3,0.8-0.8c0-0.4-0.4-0.6-0.7-0.6c-0.6,0-1,0.4-1.5,0.9
				l-0.6-0.9c0.6-0.6,1.1-1.1,2-1.1c0.9,0,1.8,0.5,1.8,1.7c0,1.3-1,1.7-1.7,2c-0.6,0.3-1,0.6-1,1.1v0.1h2.6v1.1h-3.7V126.2z"/>
			<path class="st10" d="M254.5,125.5c0.4,0,0.7,0.4,0.7,0.9c0,0.5-0.3,0.9-0.7,0.9c-0.4,0-0.7-0.4-0.7-0.9
				C253.8,125.9,254.1,125.5,254.5,125.5z"/>
			<path class="st10" d="M255.8,122.1l1.3-0.8h0.9v5.8h-1v-4.5l-1,0.6L255.8,122.1z"/>
		</g>
	</g>
	<g>
		<g>
			<path class="st10" d="M397.7,106.5l1.3-0.8h0.9v5.8h-1v-4.5l-1,0.6L397.7,106.5z"/>
			<path class="st10" d="M405.8,110.3H405v1.2h-1v-1.2h-3v-0.8l3.1-3.7h0.9v3.5h0.8V110.3z M402.4,109.3h1.6v-1.9h-0.1
				C403.4,108,402.9,108.7,402.4,109.3L402.4,109.3z"/>
			<path class="st10" d="M407.3,110c0.4,0,0.7,0.4,0.7,0.9c0,0.5-0.3,0.9-0.7,0.9c-0.4,0-0.7-0.4-0.7-0.9
				C406.6,110.4,406.9,110,407.3,110z"/>
			<path class="st10" d="M409.5,110.3c0.3,0.2,0.8,0.3,1.2,0.3c0.8,0,1.5-0.7,1.5-1.8c-0.4,0.4-1,0.8-1.6,0.8
				c-1.2,0-1.8-0.9-1.8-1.9c0-1.2,0.8-2.1,2-2.1c1.2,0,2.4,1,2.4,3c0,2-1.2,3.2-2.5,3.2c-0.8,0-1.4-0.3-1.7-0.5L409.5,110.3z
				 M412.2,107.9c-0.2-0.8-0.7-1.2-1.3-1.2c-0.6,0-1,0.5-1,1c0,0.4,0.2,0.8,0.9,0.8C411.3,108.5,411.8,108.2,412.2,107.9z"/>
		</g>
	</g>
	<g>
		<g>
			<path class="st10" d="M477.2,346.8h-0.8v1.2h-1v-1.2h-3V346l3.1-3.7h0.9v3.5h0.8V346.8z M473.8,345.8h1.6v-1.9h-0.1
				C474.8,344.5,474.3,345.1,473.8,345.8L473.8,345.8z"/>
			<path class="st10" d="M478.7,346.4c0.4,0,0.7,0.4,0.7,0.9c0,0.5-0.3,0.9-0.7,0.9c-0.4,0-0.7-0.4-0.7-0.9
				C478,346.8,478.3,346.4,478.7,346.4z"/>
			<path class="st10" d="M480.3,347.1c0-1.4,0.9-2.1,1.9-2.5c0.3-0.1,0.8-0.3,0.8-0.8c0-0.4-0.4-0.6-0.7-0.6c-0.6,0-1,0.4-1.5,0.9
				l-0.6-0.9c0.6-0.6,1.1-1.1,2-1.1c0.9,0,1.8,0.5,1.8,1.7c0,1.3-1,1.7-1.7,2c-0.6,0.3-1,0.6-1,1.1v0.1h2.6v1.1h-3.7V347.1z"/>
		</g>
	</g>
	<g>
		<g>
			<path class="st10" d="M338.9,377.5h-0.8v1.2h-1v-1.2h-3v-0.8l3.1-3.7h0.9v3.5h0.8V377.5z M335.5,376.5h1.6v-1.9H337
				C336.5,375.2,336,375.8,335.5,376.5L335.5,376.5z"/>
		</g>
	</g>
	<g>
		<g>
			<path class="st10" d="M403,382.7c0-1.4,0.9-2.1,1.9-2.5c0.3-0.1,0.8-0.3,0.8-0.8c0-0.4-0.4-0.6-0.7-0.6c-0.6,0-1,0.4-1.5,0.9
				l-0.6-0.9c0.6-0.6,1.1-1.1,2-1.1c0.9,0,1.8,0.5,1.8,1.7c0,1.3-1,1.7-1.7,2c-0.6,0.3-1,0.6-1,1.1v0.1h2.6v1.1H403V382.7z"/>
			<path class="st10" d="M407.4,378.7l1.3-0.8h0.9v5.8h-1v-4.5l-1,0.6L407.4,378.7z"/>
			<path class="st10" d="M411.6,382.1c0.4,0,0.7,0.4,0.7,0.9c0,0.5-0.3,0.9-0.7,0.9c-0.4,0-0.7-0.4-0.7-0.9
				C410.9,382.5,411.2,382.1,411.6,382.1z"/>
			<path class="st10" d="M412.9,378.7l1.3-0.8h0.9v5.8h-1v-4.5l-1,0.6L412.9,378.7z"/>
		</g>
	</g>
	<g>
		<g>
			<path class="st10" d="M243,387.4l1.3-0.8h0.9v5.8h-1V388l-1,0.6L243,387.4z"/>
			<path class="st10" d="M248.2,388.9h0.7c0.3,0,0.6-0.2,0.6-0.6c0-0.5-0.4-0.7-0.8-0.7c-0.5,0-1.1,0.4-1.5,0.9l-0.6-0.9
				c0.5-0.6,1.2-1.2,2.1-1.2c0.8,0,1.8,0.4,1.8,1.7c0,0.5-0.3,0.9-0.5,1.1c0.4,0.2,0.8,0.6,0.8,1.4c0,1.3-1,2-2.3,2
				c-0.9,0-1.6-0.4-2.3-1.2l0.6-0.9c0.4,0.6,1,1,1.7,1c0.7,0,1.2-0.4,1.2-1c0-0.5-0.4-0.6-0.7-0.6h-0.9V388.9z"/>
			<path class="st10" d="M252.3,390.8c0.4,0,0.7,0.4,0.7,0.9c0,0.5-0.3,0.9-0.7,0.9c-0.4,0-0.7-0.4-0.7-0.9
				C251.6,391.2,251.9,390.8,252.3,390.8z"/>
			<path class="st10" d="M253.8,386.6h4v1.1l-2.3,4.7h-1.3l2.4-4.6h-2.8V386.6z"/>
		</g>
	</g>
	<g>
		<g>
			<path class="st10" d="M304.2,344.2c0-1.4,0.9-2.1,1.9-2.5c0.3-0.1,0.8-0.3,0.8-0.8c0-0.4-0.4-0.6-0.7-0.6c-0.6,0-1,0.4-1.5,0.9
				l-0.6-0.9c0.6-0.6,1.1-1.1,2-1.1c0.9,0,1.8,0.5,1.8,1.7c0,1.3-1,1.7-1.7,2c-0.6,0.3-1,0.6-1,1.1v0.1h2.6v1.1h-3.7V344.2z"/>
			<path class="st10" d="M309.5,343.5c0.4,0,0.7,0.4,0.7,0.9c0,0.5-0.3,0.9-0.7,0.9c-0.4,0-0.7-0.4-0.7-0.9
				C308.8,343.9,309.1,343.5,309.5,343.5z"/>
			<path class="st10" d="M314.8,340.6c-0.3-0.2-0.8-0.3-1.2-0.3c-0.8,0-1.5,0.7-1.5,1.9c0.4-0.4,1-0.8,1.7-0.8
				c1.2,0,1.8,0.9,1.8,1.8c0,1.2-0.8,2.1-2,2.1c-1.2,0-2.4-1-2.4-3c0-2,1.2-3.2,2.5-3.2c0.8,0,1.4,0.3,1.7,0.5L314.8,340.6z
				 M312.2,343c0.2,0.8,0.7,1.2,1.3,1.2c0.6,0,1-0.5,1-1c0-0.4-0.2-0.8-0.9-0.8C313.1,342.4,312.6,342.7,312.2,343z"/>
		</g>
	</g>
	<g>
		<g>
			<path class="st10" d="M246.1,310.2l1.3-0.8h0.9v5.8h-1v-4.5l-1,0.6L246.1,310.2z"/>
			<path class="st10" d="M249.5,314.3c0-1.4,0.9-2.1,1.9-2.5c0.3-0.1,0.8-0.3,0.8-0.8c0-0.4-0.4-0.6-0.7-0.6c-0.6,0-1,0.4-1.5,0.9
				l-0.6-0.9c0.6-0.6,1.1-1.1,2-1.1c0.9,0,1.8,0.5,1.8,1.7c0,1.3-1,1.7-1.7,2c-0.6,0.3-1,0.6-1,1.1v0.1h2.6v1.1h-3.7V314.3z"/>
		</g>
	</g>
</g>
</svg>
