<?xml version="1.0" encoding="utf-8"?>
<!-- Generator: Adobe Illustrator 26.0.3, SVG Export Plug-In . SVG Version: 6.00 Build 0)  -->
<svg version="1.1" xmlns="http://www.w3.org/2000/svg" xmlns:xlink="http://www.w3.org/1999/xlink" x="0px" y="0px"
	 viewBox="0 0 720 480" style="enable-background:new 0 0 720 480;" xml:space="preserve">
<style type="text/css">
	.st0{fill:#DBD4CA;}
	.st1{clip-path:url(#SVGID_00000095297139573968452440000014060438811758064809_);}
	.st2{fill:none;stroke:#C49F8A;stroke-miterlimit:10;}
	.st3{opacity:0.3;clip-path:url(#SVGID_00000163769039243991387260000000308694137225100431_);}
	.st4{opacity:0.7;fill:#C49F8A;enable-background:new    ;}
	.st5{clip-path:url(#SVGID_00000052096339314605133720000003054504104944425104_);}
	.st6{opacity:0.3;clip-path:url(#SVGID_00000172407876738347277440000010225783672147300522_);}
	.st7{fill:none;stroke:#565440;}
	.st8{fill:#565440;}
	.st9{fill:#E9E4DC;}
	.st10{fill:#C49F8A;}
	.st11{fill:#E9E4DC;stroke:#C49F8A;}
	.st12{fill:#E9E4DC;stroke:#C49F8A;stroke-miterlimit:3.9998;}
	.st13{fill:none;stroke:#C49F8A;}
	.st14{fill:#E9E4DC;stroke:#C49F8A;stroke-linejoin:round;}
	.st15{fill:#3F3F3F;fill-opacity:0;}
</style>
<g id="_x31__x5F_2">
	<polygon id="Floor_1_" class="st0" points="651.5,94.4 627.3,185.6 627.3,310.4 647.6,316.9 631.9,383.4 631.9,402.8 254.4,402.8 
		254.4,318.4 192,318.4 192,292.3 60,292.3 60,94.4 	"/>
	<g id="Wet_Floor">
		<g id="Wet_Floor_1_">
			<g>
				<g>
					<defs>
						<rect id="SVGID_1_" x="349.2" y="311.8" width="114.4" height="88.9"/>
					</defs>
					<clipPath id="SVGID_00000149343501023512013080000009492467252303002264_">
						<use xlink:href="#SVGID_1_"  style="overflow:visible;"/>
					</clipPath>
					<g style="clip-path:url(#SVGID_00000149343501023512013080000009492467252303002264_);">
						<g>
							<line class="st2" x1="65.3" y1="307.9" x2="398.8" y2="-25.6"/>
							<line class="st2" x1="54.9" y1="297.5" x2="388.3" y2="-36"/>
							<line class="st2" x1="75.7" y1="318.3" x2="409.2" y2="-15.2"/>
							<line class="st2" x1="86.1" y1="328.7" x2="419.6" y2="-4.8"/>
							<line class="st2" x1="96.6" y1="339.1" x2="430" y2="5.7"/>
							<line class="st2" x1="107" y1="349.6" x2="440.5" y2="16.1"/>
							<line class="st2" x1="117.4" y1="360" x2="450.9" y2="26.5"/>
							<line class="st2" x1="127.8" y1="370.4" x2="461.3" y2="36.9"/>
							<line class="st2" x1="138.2" y1="380.8" x2="471.7" y2="47.4"/>
							<line class="st2" x1="148.7" y1="391.3" x2="482.1" y2="57.8"/>
							<line class="st2" x1="138.2" y1="380.8" x2="471.7" y2="47.4"/>
							<line class="st2" x1="159.1" y1="401.7" x2="492.6" y2="68.2"/>
							<line class="st2" x1="169.5" y1="412.1" x2="503" y2="78.6"/>
							<line class="st2" x1="179.9" y1="422.5" x2="513.4" y2="89"/>
							<line class="st2" x1="190.3" y1="432.9" x2="523.8" y2="99.5"/>
							<line class="st2" x1="200.8" y1="443.4" x2="534.2" y2="109.9"/>
							<line class="st2" x1="211.2" y1="453.8" x2="544.7" y2="120.3"/>
							<line class="st2" x1="221.6" y1="464.2" x2="555.1" y2="130.7"/>
							<line class="st2" x1="232" y1="474.6" x2="565.5" y2="141.1"/>
							<line class="st2" x1="221.6" y1="464.2" x2="555.1" y2="130.7"/>
							<line class="st2" x1="242.4" y1="485" x2="575.9" y2="151.6"/>
							<line class="st2" x1="252.9" y1="495.5" x2="586.4" y2="162"/>
							<line class="st2" x1="263.3" y1="505.9" x2="596.8" y2="172.4"/>
							<line class="st2" x1="273.7" y1="516.3" x2="607.2" y2="182.8"/>
							<line class="st2" x1="284.1" y1="526.7" x2="617.6" y2="193.2"/>
							<line class="st2" x1="294.6" y1="537.2" x2="628" y2="203.7"/>
							<line class="st2" x1="305" y1="547.6" x2="638.5" y2="214.1"/>
							<line class="st2" x1="315.4" y1="558" x2="648.9" y2="224.5"/>
							<line class="st2" x1="305" y1="547.6" x2="638.5" y2="214.1"/>
							<line class="st2" x1="325.8" y1="568.4" x2="659.3" y2="234.9"/>
							<line class="st2" x1="336.2" y1="578.8" x2="669.7" y2="245.4"/>
							<line class="st2" x1="346.7" y1="589.3" x2="680.1" y2="255.8"/>
							<line class="st2" x1="357.1" y1="599.7" x2="690.6" y2="266.2"/>
							<line class="st2" x1="367.5" y1="610.1" x2="701" y2="276.6"/>
							<line class="st2" x1="377.9" y1="620.5" x2="711.4" y2="287"/>
							<line class="st2" x1="388.3" y1="630.9" x2="721.8" y2="297.5"/>
						</g>
						<g>
							<line class="st2" x1="398.8" y1="620.5" x2="65.3" y2="287"/>
							<line class="st2" x1="388.3" y1="630.9" x2="54.9" y2="297.5"/>
							<line class="st2" x1="409.2" y1="610.1" x2="75.7" y2="276.6"/>
							<line class="st2" x1="419.6" y1="599.7" x2="86.1" y2="266.2"/>
							<line class="st2" x1="430" y1="589.3" x2="96.6" y2="255.8"/>
							<line class="st2" x1="440.5" y1="578.8" x2="107" y2="245.4"/>
							<line class="st2" x1="450.9" y1="568.4" x2="117.4" y2="234.9"/>
							<line class="st2" x1="461.3" y1="558" x2="127.8" y2="224.5"/>
							<line class="st2" x1="471.7" y1="547.6" x2="138.2" y2="214.1"/>
							<line class="st2" x1="482.1" y1="537.2" x2="148.7" y2="203.7"/>
							<line class="st2" x1="471.7" y1="547.6" x2="138.2" y2="214.1"/>
							<line class="st2" x1="492.6" y1="526.7" x2="159.1" y2="193.2"/>
							<line class="st2" x1="503" y1="516.3" x2="169.5" y2="182.8"/>
							<line class="st2" x1="513.4" y1="505.9" x2="179.9" y2="172.4"/>
							<line class="st2" x1="523.8" y1="495.5" x2="190.3" y2="162"/>
							<line class="st2" x1="534.2" y1="485" x2="200.8" y2="151.6"/>
							<line class="st2" x1="544.7" y1="474.6" x2="211.2" y2="141.1"/>
							<line class="st2" x1="555.1" y1="464.2" x2="221.6" y2="130.7"/>
							<line class="st2" x1="565.5" y1="453.8" x2="232" y2="120.3"/>
							<line class="st2" x1="555.1" y1="464.2" x2="221.6" y2="130.7"/>
							<line class="st2" x1="575.9" y1="443.4" x2="242.4" y2="109.9"/>
							<line class="st2" x1="586.4" y1="432.9" x2="252.9" y2="99.5"/>
							<line class="st2" x1="596.8" y1="422.5" x2="263.3" y2="89"/>
							<line class="st2" x1="607.2" y1="412.1" x2="273.7" y2="78.6"/>
							<line class="st2" x1="617.6" y1="401.7" x2="284.1" y2="68.2"/>
							<line class="st2" x1="628" y1="391.3" x2="294.6" y2="57.8"/>
							<line class="st2" x1="638.5" y1="380.8" x2="305" y2="47.4"/>
							<line class="st2" x1="648.9" y1="370.4" x2="315.4" y2="36.9"/>
							<line class="st2" x1="638.5" y1="380.8" x2="305" y2="47.4"/>
							<line class="st2" x1="659.3" y1="360" x2="325.8" y2="26.5"/>
							<line class="st2" x1="669.7" y1="349.6" x2="336.2" y2="16.1"/>
							<line class="st2" x1="680.1" y1="339.1" x2="346.7" y2="5.7"/>
							<line class="st2" x1="690.6" y1="328.7" x2="357.1" y2="-4.8"/>
							<line class="st2" x1="701" y1="318.3" x2="367.5" y2="-15.2"/>
							<line class="st2" x1="711.4" y1="307.9" x2="377.9" y2="-25.6"/>
							<line class="st2" x1="721.8" y1="297.5" x2="388.3" y2="-36"/>
						</g>
					</g>
				</g>
			</g>
			<g>
				<g>
					<defs>
						<rect id="SVGID_00000089538631968757269480000013208433549394980227_" x="349.2" y="311.8" width="114.4" height="88.9"/>
					</defs>
					<clipPath id="SVGID_00000090275638185761188850000012036109287674020511_">
						<use xlink:href="#SVGID_00000089538631968757269480000013208433549394980227_"  style="overflow:visible;"/>
					</clipPath>
					<g style="opacity:0.3;clip-path:url(#SVGID_00000090275638185761188850000012036109287674020511_);">
						<rect x="227.3" y="126" class="st4" width="322.2" height="322.2"/>
					</g>
				</g>
			</g>
		</g>
		<g id="Wet_Floor_2_">
			<g>
				<g>
					<defs>
						<rect id="SVGID_00000142896282025273959820000011822701421827263166_" x="365.1" y="108.9" width="100.6" height="96.3"/>
					</defs>
					<clipPath id="SVGID_00000072282030932747622900000008900906576445495185_">
						<use xlink:href="#SVGID_00000142896282025273959820000011822701421827263166_"  style="overflow:visible;"/>
					</clipPath>
					<g style="clip-path:url(#SVGID_00000072282030932747622900000008900906576445495185_);">
						<g>
							<line class="st2" x1="67.3" y1="112.3" x2="400.8" y2="-221.2"/>
							<line class="st2" x1="56.9" y1="101.9" x2="390.4" y2="-231.6"/>
							<line class="st2" x1="77.8" y1="122.7" x2="411.2" y2="-210.8"/>
							<line class="st2" x1="88.2" y1="133.1" x2="421.7" y2="-200.3"/>
							<line class="st2" x1="98.6" y1="143.6" x2="432.1" y2="-189.9"/>
							<line class="st2" x1="109" y1="154" x2="442.5" y2="-179.5"/>
							<line class="st2" x1="119.4" y1="164.4" x2="452.9" y2="-169.1"/>
							<line class="st2" x1="129.9" y1="174.8" x2="463.4" y2="-158.7"/>
							<line class="st2" x1="140.3" y1="185.2" x2="473.8" y2="-148.2"/>
							<line class="st2" x1="150.7" y1="195.7" x2="484.2" y2="-137.8"/>
							<line class="st2" x1="140.3" y1="185.2" x2="473.8" y2="-148.2"/>
							<line class="st2" x1="161.1" y1="206.1" x2="494.6" y2="-127.4"/>
							<line class="st2" x1="171.6" y1="216.5" x2="505" y2="-117"/>
							<line class="st2" x1="182" y1="226.9" x2="515.5" y2="-106.6"/>
							<line class="st2" x1="192.4" y1="237.3" x2="525.9" y2="-96.1"/>
							<line class="st2" x1="202.8" y1="247.8" x2="536.3" y2="-85.7"/>
							<line class="st2" x1="213.2" y1="258.2" x2="546.7" y2="-75.3"/>
							<line class="st2" x1="223.7" y1="268.6" x2="557.1" y2="-64.9"/>
							<line class="st2" x1="234.1" y1="279" x2="567.6" y2="-54.5"/>
							<line class="st2" x1="223.7" y1="268.6" x2="557.1" y2="-64.9"/>
							<line class="st2" x1="244.5" y1="289.5" x2="578" y2="-44"/>
							<line class="st2" x1="254.9" y1="299.9" x2="588.4" y2="-33.6"/>
							<line class="st2" x1="265.3" y1="310.3" x2="598.8" y2="-23.2"/>
							<line class="st2" x1="275.8" y1="320.7" x2="609.3" y2="-12.8"/>
							<line class="st2" x1="286.2" y1="331.1" x2="619.7" y2="-2.3"/>
							<line class="st2" x1="296.6" y1="341.6" x2="630.1" y2="8.1"/>
							<line class="st2" x1="307" y1="352" x2="640.5" y2="18.5"/>
							<line class="st2" x1="317.5" y1="362.4" x2="650.9" y2="28.9"/>
							<line class="st2" x1="307" y1="352" x2="640.5" y2="18.5"/>
							<line class="st2" x1="327.9" y1="372.8" x2="661.4" y2="39.3"/>
							<line class="st2" x1="338.3" y1="383.2" x2="671.8" y2="49.8"/>
							<line class="st2" x1="348.7" y1="393.7" x2="682.2" y2="60.2"/>
							<line class="st2" x1="359.1" y1="404.1" x2="692.6" y2="70.6"/>
							<line class="st2" x1="369.6" y1="414.5" x2="703" y2="81"/>
							<line class="st2" x1="380" y1="424.9" x2="713.5" y2="91.4"/>
							<line class="st2" x1="390.4" y1="435.4" x2="723.9" y2="101.9"/>
						</g>
						<g>
							<line class="st2" x1="400.8" y1="424.9" x2="67.3" y2="91.4"/>
							<line class="st2" x1="390.4" y1="435.4" x2="56.9" y2="101.9"/>
							<line class="st2" x1="411.2" y1="414.5" x2="77.8" y2="81"/>
							<line class="st2" x1="421.7" y1="404.1" x2="88.2" y2="70.6"/>
							<line class="st2" x1="432.1" y1="393.7" x2="98.6" y2="60.2"/>
							<line class="st2" x1="442.5" y1="383.2" x2="109" y2="49.8"/>
							<line class="st2" x1="452.9" y1="372.8" x2="119.4" y2="39.3"/>
							<line class="st2" x1="463.4" y1="362.4" x2="129.9" y2="28.9"/>
							<line class="st2" x1="473.8" y1="352" x2="140.3" y2="18.5"/>
							<line class="st2" x1="484.2" y1="341.6" x2="150.7" y2="8.1"/>
							<line class="st2" x1="473.8" y1="352" x2="140.3" y2="18.5"/>
							<line class="st2" x1="494.6" y1="331.1" x2="161.1" y2="-2.3"/>
							<line class="st2" x1="505" y1="320.7" x2="171.6" y2="-12.8"/>
							<line class="st2" x1="515.5" y1="310.3" x2="182" y2="-23.2"/>
							<line class="st2" x1="525.9" y1="299.9" x2="192.4" y2="-33.6"/>
							<line class="st2" x1="536.3" y1="289.5" x2="202.8" y2="-44"/>
							<line class="st2" x1="546.7" y1="279" x2="213.2" y2="-54.5"/>
							<line class="st2" x1="557.1" y1="268.6" x2="223.7" y2="-64.9"/>
							<line class="st2" x1="567.6" y1="258.2" x2="234.1" y2="-75.3"/>
							<line class="st2" x1="557.1" y1="268.6" x2="223.7" y2="-64.9"/>
							<line class="st2" x1="578" y1="247.8" x2="244.5" y2="-85.7"/>
							<line class="st2" x1="588.4" y1="237.3" x2="254.9" y2="-96.1"/>
							<line class="st2" x1="598.8" y1="226.9" x2="265.3" y2="-106.6"/>
							<line class="st2" x1="609.3" y1="216.5" x2="275.8" y2="-117"/>
							<line class="st2" x1="619.7" y1="206.1" x2="286.2" y2="-127.4"/>
							<line class="st2" x1="630.1" y1="195.7" x2="296.6" y2="-137.8"/>
							<line class="st2" x1="640.5" y1="185.2" x2="307" y2="-148.2"/>
							<line class="st2" x1="650.9" y1="174.8" x2="317.5" y2="-158.7"/>
							<line class="st2" x1="640.5" y1="185.2" x2="307" y2="-148.2"/>
							<line class="st2" x1="661.4" y1="164.4" x2="327.9" y2="-169.1"/>
							<line class="st2" x1="671.8" y1="154" x2="338.3" y2="-179.5"/>
							<line class="st2" x1="682.2" y1="143.6" x2="348.7" y2="-189.9"/>
							<line class="st2" x1="692.6" y1="133.1" x2="359.1" y2="-200.3"/>
							<line class="st2" x1="703" y1="122.7" x2="369.6" y2="-210.8"/>
							<line class="st2" x1="713.5" y1="112.3" x2="380" y2="-221.2"/>
							<line class="st2" x1="723.9" y1="101.9" x2="390.4" y2="-231.6"/>
						</g>
					</g>
				</g>
			</g>
			<g>
				<g>
					<defs>
						<rect id="SVGID_00000142171951862120213790000016841859689357546387_" x="365.1" y="108.9" width="100.6" height="96.3"/>
					</defs>
					<clipPath id="SVGID_00000171688368738529621850000001538617684464927129_">
						<use xlink:href="#SVGID_00000142171951862120213790000016841859689357546387_"  style="overflow:visible;"/>
					</clipPath>
					<g style="opacity:0.3;clip-path:url(#SVGID_00000171688368738529621850000001538617684464927129_);">
						<rect x="229.3" y="-69.6" class="st4" width="322.2" height="322.2"/>
					</g>
				</g>
			</g>
		</g>
	</g>
	<g id="Windows">
		<path class="st7" d="M656.1,308.3l-19,82.1l-6.3-1.3l19-82.1L656.1,308.3z"/>
		<path class="st7" d="M368.4,87.9v6.3H245.9v-6.3H368.4z"/>
		<polygon class="st7" points="660,87.9 535.8,87.9 535.8,94.2 651.5,94.2 632.1,168.6 638,170.3 		"/>
	</g>
	<path id="Doors" class="st7" d="M465.6,299.2c4.6,0,8.5-0.8,12.7-2.5s8-4.2,11-7.2c3.4-3,5.9-6.8,7.6-11s2.5-8.5,2.5-13.1h-33.8
		 M448.7,252.7c0-4.6-0.8-8.5-2.5-12.7s-4.2-8-7.2-11c-3-3.4-6.8-5.9-11-7.6c-4.2-1.7-8.5-2.5-13.1-2.5v33.8 M385.4,311.8
		c0-4.6,0.8-8.5,2.5-12.7s4.2-8,7.2-11c3-3.4,6.8-5.9,11-7.6s8.5-2.5,13.1-2.5v33.8 M461.4,159.7c-4.6,0-8.5,0.8-12.7,2.5
		s-8,4.2-11,7.2c-3.4,3-5.9,6.8-7.6,11s-2.5,8.5-2.5,13.1h33.8 M165.6,155.5c4.6,0,8.5-0.8,12.7-2.5s8-4.2,11-7.2
		c3.4-3,5.9-6.8,7.6-11s2.5-8.5,2.5-13.1h-33.8 M98,210.4c0-4.6,0.8-8.5,2.5-12.7s4.2-8,7.2-11c3-3.4,6.8-5.9,11-7.6
		c4.2-1.7,8.5-2.5,13.1-2.5v33.8 M267,345.6c5.5,0,10.6,1.3,15.6,3.4c5.1,2.1,10.1,5.1,13.9,9.3c3.8,3.8,7.2,8.5,9.3,13.5
		c2.1,5.1,3.4,10.6,3.4,16.1H267"/>
	<g id="Walls">
		<path class="st8" d="M613.5,396.3H465.6v-97.2h-4.2v12.7h-42.3v4.2h42.3v65.7h-14.6v14.6h-95.3V316h33.8v-4.2h-38v84.5H267v-8.5
			h-12.7V409h384.5v-29.6h-25.3V396.3z M451.1,386h10.3v10.4h-10.3V386z"/>
		<path class="st8" d="M571.3,83.7V71h-12.7v12.7h-50.7V71h-12.7v12.7h-50.7V71h-12.7v12.7h-54.9V71h-12.7v185.9h50.7v-4.2h-46.5
			v-46.5h93h4.2v-12.7h-4.2v8.5h-93v-93h76.8v13.1v1.1v3.2h16.2v33.4h4.2V109h109.9V83.7H571.3z M449.5,122.1V109h11.9v13.1H449.5z"
			/>
		<rect x="300.8" y="71" class="st8" width="12.7" height="29.6"/>
		<polygon class="st8" points="634.6,301.9 634.6,185.9 641.4,169 629.6,164.4 628.1,168.2 622,168.2 622,176.6 613.5,176.6 
			613.5,206.2 622,206.2 622,252.7 448.7,252.7 448.7,256.9 461.4,256.9 461.4,265.4 465.6,265.4 465.6,256.9 622,256.9 622,310.1 
			621.5,311.8 654.5,319.4 657.5,307.2 		"/>
		<path class="st8" d="M254.4,345.6H267v-33.8v-29.6h-4.2v29.6h-63.4v-25.4h-59.2V159.7h25.4v-4.2H136v54.9h-4.2v4.2h4.2v71.8H87
			v-14.5H72.7v-57.3H98v-4.2H72.7V108.2h88.7v13.5h4.2v-13.5h84.5V71h-12.7v12.7h-54.9V71h-12.7v12.7H60v215.5h126.8v25.4h67.6
			V345.6z M72.7,276.2h10.1v10.3H72.7V276.2z"/>
	</g>
	<g id="Furniture">
		<g>
			<polygon class="st9" points="406.5,119.1 406.5,116 368.9,116 368.9,109.4 444.8,109.4 444.8,119.1 			"/>
			<path class="st10" d="M444.3,109.9v8.7H407v-2.2v-1h-1h-36.5v-5.6H406L444.3,109.9 M445.3,108.9H406l0,0h-37.5v7.6H406v3.2h39.3
				V108.9L445.3,108.9z"/>
		</g>
		<g>
			<rect x="368.9" y="161.4" class="st9" width="18.6" height="40.1"/>
			<path class="st10" d="M387.1,161.9V201h-17.6v-39.1H387.1 M388.1,160.9h-19.6V202h19.6V160.9L388.1,160.9z"/>
		</g>
		<g>
			<rect x="140.8" y="160.2" class="st9" width="26.7" height="125.8"/>
			<path class="st10" d="M167,160.7v124.8h-25.7V160.7H167 M168,159.7h-27.7v126.8H168V159.7L168,159.7z"/>
		</g>
		<g>
			<g>
				<rect x="512" y="310.9" class="st9" width="60.8" height="85.1"/>
				<path class="st10" d="M512.5,311.4h59.8v84.1h-59.8V311.4 M511.5,310.4v86.1h61.8v-86.1H511.5L511.5,310.4z"/>
			</g>
			<rect x="516.8" y="369.1" class="st11" width="24.1" height="21.3"/>
			<rect x="543.9" y="369.1" class="st11" width="24.1" height="21.3"/>
			<polygon class="st12" points="519.8,377.7 537.2,383.2 541.9,362.7 524.4,357.2 			"/>
			<polygon class="st12" points="543.1,362.7 547.8,383.2 565.2,377.7 560.6,357.2 			"/>
			<g>
				<polygon class="st9" points="512,373.5 512,310.1 572.8,310.1 572.8,378 548.6,379.8 				"/>
				<path class="st10" d="M512.5,310.6h59.8v66.5v0.4l-23.7,1.7l-36.1-6.2V310.6 M511.5,309.6v63.9v0.5l37.1,6.3l24.7-1.8v-1.4
					v-67.5H511.5L511.5,309.6z"/>
			</g>
			<polyline class="st13" points="572.5,376.3 548.4,376.3 512.2,372.7 			"/>
		</g>
		<g>
			<g>
				<rect x="509" y="171.6" class="st9" width="66.9" height="80.6"/>
				<path class="st10" d="M575.4,172.1v79.6h-65.9v-79.6H575.4 M576.4,171.1h-67.9v81.6h67.9V171.1L576.4,171.1z"/>
			</g>
			<rect x="514.3" y="226.7" class="st11" width="26.5" height="20.2"/>
			<rect x="544.1" y="226.7" class="st11" width="26.5" height="20.2"/>
			<polygon class="st12" points="517.5,234.9 536.7,240.1 541.8,220.6 522.7,215.4 			"/>
			<polygon class="st12" points="543.2,220.6 548.3,240.1 567.5,234.9 562.3,215.4 			"/>
			<g>
				<polygon class="st9" points="509,230.8 509,170.8 575.9,170.8 575.9,235.1 549.2,236.8 				"/>
				<path class="st10" d="M509.5,171.3h65.9v63v0.3l-26.1,1.7l-39.8-5.9L509.5,171.3 M508.5,170.3v60.6v0.4l40.7,6l27.2-1.7v-1.3
					v-64L508.5,170.3L508.5,170.3z"/>
			</g>
			<polyline class="st13" points="575.5,233.5 549,233.5 509.3,230.1 			"/>
		</g>
		<g>
			<g>
				<rect x="487.9" y="303.7" class="st9" width="1.8" height="92.2"/>
				<path class="st10" d="M489.2,304.2v91.2h-0.8v-91.2H489.2 M490.2,303.2h-2.8v93.2h2.8V303.2L490.2,303.2z"/>
			</g>
			<g>
				<rect x="466.1" y="303.7" class="st9" width="21.8" height="92.2"/>
				<path class="st10" d="M466.6,304.2h20.8v91.2h-20.8V304.2 M465.6,303.2v93.2h22.8v-93.2H465.6L465.6,303.2z"/>
			</g>
			<path class="st11" d="M466.4,303.6l21.3,92.6"/>
		</g>
		<g>
			<g>
				
					<rect x="591.5" y="128.5" transform="matrix(0.2552 -0.9669 0.9669 0.2552 336.6371 695.7171)" class="st9" width="56.8" height="1.8"/>
				<path class="st10" d="M626.6,102.2l0.8,0.2l-14.3,54l-0.8-0.2L626.6,102.2 M625.9,100.9l-14.8,55.9l2.7,0.7l14.8-55.9
					L625.9,100.9L625.9,100.9z"/>
			</g>
			<g>
				
					<rect x="602.1" y="122.1" transform="matrix(0.2552 -0.9669 0.9669 0.2552 341.8813 707.96)" class="st9" width="56.8" height="20"/>
				<path class="st10" d="M628.4,102.6l18.3,4.8l-14.3,54l-18.3-4.8L628.4,102.6 M627.6,101.4l-14.8,55.9l20.3,5.3l14.8-55.9
					L627.6,101.4L627.6,101.4z"/>
			</g>
			<path class="st11" d="M632.6,162.3l-4.3-60.6"/>
		</g>
		<g>
			<g>
				<rect x="390.5" y="206.6" class="st9" width="1.8" height="45.6"/>
				<path class="st10" d="M391.8,207.1v44.6H391v-44.6H391.8 M392.8,206.1H390v46.6h2.8V206.1L392.8,206.1z"/>
			</g>
			<g>
				<rect x="368.7" y="206.6" class="st9" width="21.8" height="45.6"/>
				<path class="st10" d="M390,207.1v44.6h-20.8v-44.6H390 M391,206.1h-22.8v46.6H391V206.1L391,206.1z"/>
			</g>
			<path class="st11" d="M368.9,206.3l21.3,46.3"/>
		</g>
		<g>
			<g>
				<rect x="323.3" y="324.5" class="st9" width="1.8" height="71.7"/>
				<path class="st10" d="M324.6,325v70.7h-0.8V325H324.6 M325.6,324h-2.8v72.7h2.8V324L325.6,324z"/>
			</g>
			<g>
				<rect x="325.1" y="324.5" class="st9" width="21.8" height="71.7"/>
				<path class="st10" d="M325.6,325h20.8v70.7h-20.8V325 M324.6,324v72.7h22.8V324H324.6L324.6,324z"/>
			</g>
			<path class="st11" d="M346.7,396.4l-21.3-72.2"/>
		</g>
		<g>
			<g>
				<rect x="95" y="215.1" class="st9" width="1.8" height="42.9"/>
				<path class="st10" d="M96.3,215.6v41.9h-0.8v-41.9H96.3 M97.3,214.6h-2.8v43.9h2.8V214.6L97.3,214.6z"/>
			</g>
			<g>
				<rect x="73.2" y="215.1" class="st9" width="21.8" height="42.9"/>
				<path class="st10" d="M94.5,215.6v41.9H73.7v-41.9H94.5 M95.5,214.6H72.7v43.9h22.8V214.6L95.5,214.6z"/>
			</g>
			<path class="st11" d="M73.3,215.1l21.6,43"/>
		</g>
		<g>
			<g>
				<rect x="94.9" y="108.7" class="st9" width="1.8" height="101.2"/>
				<path class="st10" d="M96.2,109.2v100.2h-0.8V109.2H96.2 M97.2,108.2h-2.8v102.2h2.8V108.2L97.2,108.2z"/>
			</g>
			<g>
				<rect x="73.1" y="108.7" class="st9" width="21.8" height="101.2"/>
				<path class="st10" d="M94.4,109.2v100.2H73.6V109.2H94.4 M95.4,108.2H72.6v102.2h22.8L95.4,108.2L95.4,108.2z"/>
			</g>
			<path class="st11" d="M73.4,108.7l21.3,101.6"/>
		</g>
		<g>
			<g>
				<rect x="280.5" y="313.7" class="st9" width="1.8" height="21.8"/>
				<path class="st10" d="M281.8,314.2V335H281v-20.8H281.8 M282.8,313.2H280V336h2.8V313.2L282.8,313.2z"/>
			</g>
			<g>
				<rect x="267.5" y="313.7" class="st9" width="13" height="21.8"/>
				<path class="st10" d="M268,314.2h12V335h-12V314.2 M267,313.2V336h14v-22.8H267L267,313.2z"/>
			</g>
			<path class="st11" d="M267.8,313.8l12.5,21.7"/>
		</g>
		<g>
			<g>
				<rect x="352" y="316.5" class="st9" width="31.3" height="79.3"/>
				<path class="st10" d="M352.5,317h30.3v78.3h-30.3V317 M351.5,316v80.3h32.3V316H351.5L351.5,316z"/>
			</g>
			<g>
				<g>
					<path class="st14" d="M367.7,388.1c6,0,10.6-5.2,10.1-11.1c-0.6-6.5-1.1-14.8-1.1-20.9s0.6-14.3,1.1-20.9
						c0.5-5.9-4.2-11.1-10.1-11.1s-10.6,5.2-10.1,11.1c0.6,6.5,1.1,14.8,1.1,20.9s-0.6,14.3-1.1,20.9
						C357,383,361.7,388.1,367.7,388.1z"/>
					<ellipse class="st14" cx="367.7" cy="377.7" rx="1.2" ry="1.2"/>
				</g>
			</g>
		</g>
		<g>
			<g id="Rectangle_16_x5F_11">
				<rect x="383.3" y="375.9" class="st9" width="30.4" height="20"/>
				<path class="st10" d="M413.2,376.4v19h-29.4v-19H413.2 M414.2,375.4h-31.4v21h31.4V375.4L414.2,375.4z"/>
			</g>
			<path id="Rectangle_19_x5F_5" class="st11" d="M409.5,385.9L409.5,385.9c0-3.5-2.9-6.4-6.4-6.4h-9.2c-3.5,0-6.4,2.9-6.4,6.4l0,0
				c0,3.5,2.9,6.4,6.4,6.4h9.2C406.6,392.3,409.5,389.4,409.5,385.9z"/>
			<circle id="Ellipse_7_x5F_2" class="st11" cx="398.5" cy="388.7" r="1.2"/>
		</g>
		<g>
			<g id="Rectangle_16_x5F_11_1_">
				<rect x="368.9" y="167.4" class="st9" width="18.6" height="28.4"/>
				<path class="st10" d="M387.1,167.9v27.4h-17.6v-27.4H387.1 M388.1,166.9h-19.6v29.4h19.6V166.9L388.1,166.9z"/>
			</g>
			<path id="Rectangle_19_x5F_5_1_" class="st11" d="M378.3,191.9L378.3,191.9c3.3,0,6-2.7,6-6v-8.6c0-3.3-2.7-6-6-6l0,0
				c-3.3,0-6,2.7-6,6v8.6C372.2,189.2,374.9,191.9,378.3,191.9z"/>
			<circle id="Ellipse_7_x5F_2_1_" class="st11" cx="375.6" cy="181.6" r="1.2"/>
		</g>
		<g id="TV_1_">
			<g id="Rectangle_16_1_">
				<rect x="507.3" y="268" class="st9" width="67.7" height="1.8"/>
				<path class="st10" d="M507.8,268.5h66.7v0.8h-66.7V268.5 M506.8,267.5v2.8h68.7v-2.8H506.8L506.8,267.5z"/>
			</g>
			<g id="Rectangle_15_1_">
				<rect x="507.3" y="257.4" class="st9" width="67.7" height="10.6"/>
				<path class="st10" d="M507.8,257.9h66.7v9.6h-66.7V257.9 M506.8,256.9v11.6h68.7v-11.6H506.8L506.8,256.9z"/>
			</g>
			<g id="Rectangle_17_1_">
				<rect x="518.8" y="259.1" class="st9" width="44.6" height="1.8"/>
				<path class="st10" d="M519.3,259.6h43.6v0.8h-43.6V259.6 M518.3,258.6v2.8h45.6v-2.8H518.3L518.3,258.6z"/>
			</g>
			<path id="Rectangle_18_x5F_2_1_" class="st11" d="M531.5,259.1h19.3l-1.8-1.6h-15.8L531.5,259.1z"/>
		</g>
		<g id="Sink_3">
			<rect id="Rectangle_28_x5F_2" x="144.7" y="241.3" class="st11" width="20.1" height="31.8"/>
			<path id="Rectangle_29_x5F_2" class="st11" d="M154.7,253.7L154.7,253.7c4.2,0,7.5,3.4,7.5,7.5v1.7c0,4.2-3.4,7.5-7.5,7.5l0,0
				c-4.2,0-7.5-3.4-7.5-7.5v-1.7C147.2,257.1,150.5,253.7,154.7,253.7z"/>
			<ellipse id="Ellipse_7_x5F_3" class="st11" cx="151.4" cy="262.1" rx="1.2" ry="1.2"/>
			<path id="Vector_2" class="st13" d="M147.2,242.9v8.4 M149.7,242.9v8.4 M152.2,242.9v8.4 M154.7,242.9v8.4 M157.2,242.9v8.4
				 M159.7,242.9v8.4 M162.2,242.9v8.4"/>
		</g>
		<g id="Stove">
			<g id="Rectangle_25">
				<rect x="140.8" y="204.2" class="st9" width="26.7" height="26"/>
				<path class="st10" d="M167,204.7v25h-25.7v-25H167 M168,203.7h-27.7v27H168V203.7L168,203.7z"/>
			</g>
			<g id="Rectangle_28_x5F_3_1_">
				<rect x="140.8" y="204.2" class="st9" width="1.8" height="26"/>
				<path class="st10" d="M142.1,204.7v25h-0.8v-25H142.1 M143.1,203.7h-2.8v27h2.8V203.7L143.1,203.7z"/>
			</g>
			<g id="Ellipse_7_x5F_4">
				<path class="st9" d="M149.8,213.5c-1.6,0-3-1.3-3-3s1.3-3,3-3s3,1.3,3,3S151.4,213.5,149.8,213.5z"/>
				<path class="st10" d="M149.8,208.1c1.4,0,2.5,1.1,2.5,2.5s-1.1,2.5-2.5,2.5s-2.5-1.1-2.5-2.5S148.4,208.1,149.8,208.1
					 M149.8,207.1c-1.9,0-3.5,1.6-3.5,3.5s1.6,3.5,3.5,3.5s3.5-1.6,3.5-3.5S151.7,207.1,149.8,207.1L149.8,207.1z"/>
			</g>
			<g id="Ellipse_9">
				<path class="st9" d="M160.2,214.4c-2.1,0-3.8-1.7-3.8-3.8s1.7-3.8,3.8-3.8s3.8,1.7,3.8,3.8S162.3,214.4,160.2,214.4z"/>
				<path class="st10" d="M160.2,207.3c1.8,0,3.3,1.5,3.3,3.3s-1.5,3.3-3.3,3.3s-3.3-1.5-3.3-3.3S158.4,207.3,160.2,207.3
					 M160.2,206.3c-2.4,0-4.3,1.9-4.3,4.3s1.9,4.3,4.3,4.3s4.3-1.9,4.3-4.3S162.6,206.3,160.2,206.3L160.2,206.3z"/>
			</g>
			<g id="Ellipse_10">
				<path class="st9" d="M149.8,226.5c-2.1,0-3.8-1.7-3.8-3.8s1.7-3.8,3.8-3.8s3.8,1.7,3.8,3.8S151.9,226.5,149.8,226.5z"/>
				<path class="st10" d="M149.8,219.4c1.8,0,3.3,1.5,3.3,3.3s-1.5,3.3-3.3,3.3s-3.3-1.5-3.3-3.3S148,219.4,149.8,219.4
					 M149.8,218.4c-2.4,0-4.3,1.9-4.3,4.3c0,2.4,1.9,4.3,4.3,4.3s4.3-1.9,4.3-4.3C154.1,220.3,152.2,218.4,149.8,218.4L149.8,218.4z
					"/>
			</g>
			<g id="Ellipse_8">
				<path class="st9" d="M161.1,225.7c-1.6,0-3-1.3-3-3s1.3-3,3-3s3,1.3,3,3S162.7,225.7,161.1,225.7z"/>
				<path class="st10" d="M161.1,220.2c1.4,0,2.5,1.1,2.5,2.5s-1.1,2.5-2.5,2.5s-2.5-1.1-2.5-2.5S159.7,220.2,161.1,220.2
					 M161.1,219.2c-1.9,0-3.5,1.6-3.5,3.5s1.6,3.5,3.5,3.5s3.5-1.6,3.5-3.5C164.5,220.8,163,219.2,161.1,219.2L161.1,219.2z"/>
			</g>
		</g>
		<g>
			<path class="st11" d="M309.1,136.3c-1.2,0-2.1-0.9-2.1-2.1V113h48.4v23.3H309.1z"/>
			<path class="st11" d="M334.1,173.8c-1.2,0-2.1-1-2.1-2.2v-33.2c0-1.2,0.9-2.2,2.1-2.2h21.3v37.6L334.1,173.8L334.1,173.8z"/>
			<path class="st11" d="M334.1,210c-1.2,0-2.1-1-2.1-2.1V176c0-1.2,0.9-2.1,2.1-2.1h21.3V210H334.1z"/>
			<path class="st11" d="M330.3,210v7.9h33.4V104.4h-65.1V138h8.3v-25.1h48.5V210H330.3z"/>
		</g>
		<g id="Toilet_1_">
			<g id="Rectangle_21_1_">
				<rect x="445.5" y="325.5" class="st9" width="5.7" height="17.1"/>
				<path class="st10" d="M450.7,326v16.1H446V326H450.7 M451.7,325H445v18.1h6.7V325L451.7,325z"/>
			</g>
			<path id="Rectangle_19_x5F_2_1_" class="st11" d="M433.5,327.6c-3.7-0.2-6.9,2.7-6.9,6.5l0,0c0,3.7,3.2,6.7,6.9,6.5l12-0.8v-11.3
				L433.5,327.6z"/>
			<path id="Rectangle_18_x5F_13_1_" class="st11" d="M433.8,329.6c-2.6-0.2-4.8,1.8-4.8,4.4l0,0c0,2.6,2.2,4.6,4.8,4.4l7-0.6v-7.5
				L433.8,329.6z"/>
			<ellipse id="Ellipse_6_x5F_2_1_" class="st11" cx="437.9" cy="334" rx="1.2" ry="1.2"/>
		</g>
		<g>
			<path class="st11" d="M250,218.8v-55.4h40.3v55.4L250,218.8L250,218.8z"/>
			<path class="st11" d="M260.1,160v-0.8c0-5.6,4.5-10.1,10.1-10.1s10.1,4.5,10.1,10.1v0.8H260.1z"/>
			<path class="st11" d="M261.7,163.4v-4.2c0-4.6,3.8-8.4,8.4-8.4s8.4,3.8,8.4,8.4v4.2H261.7z"/>
			<path class="st11" d="M260.1,222.2v0.8c0,5.6,4.5,10.1,10.1,10.1s10.1-4.5,10.1-10.1v-0.8H260.1z"/>
			<path class="st11" d="M261.7,218.8v4.2c0,4.6,3.8,8.4,8.4,8.4s8.4-3.8,8.4-8.4v-4.2H261.7z"/>
			<path class="st11" d="M246.6,181h-0.8c-5.6,0-10.1,4.5-10.1,10.1s4.5,10.1,10.1,10.1h0.8V181z"/>
			<path class="st11" d="M250,182.7h-4.2c-4.6,0-8.4,3.8-8.4,8.4c0,4.6,3.8,8.4,8.4,8.4h4.2V182.7z"/>
			<path class="st11" d="M293.7,181h0.8c5.6,0,10.1,4.5,10.1,10.1s-4.5,10.1-10.1,10.1h-0.8V181z"/>
			<path class="st11" d="M290.3,182.7h4.2c4.6,0,8.4,3.8,8.4,8.4c0,4.6-3.8,8.4-8.4,8.4h-4.2V182.7z"/>
		</g>
		<g>
			<path class="st11" d="M599.9,348.7l3.8-16.2l15.3,1.2l-4.8,20.6L599.9,348.7z"/>
			<g>
				
					<rect x="596" y="333.2" transform="matrix(0.2252 -0.9743 0.9743 0.2252 149.2484 878.7461)" class="st9" width="62.3" height="24.7"/>
				<path class="st10" d="M622.5,313.1l23.1,5.3l-13.8,59.7l-23.1-5.3L622.5,313.1 M621.8,311.9l-14.2,61.6l25.1,5.8l14.2-61.6
					L621.8,311.9L621.8,311.9z"/>
			</g>
			<path class="st13" d="M620.7,350.7l2.9-12.5 M617.5,351.1l3.4-14.7l4.4,1l-3.4,14.7L617.5,351.1z"/>
			<path class="st11" d="M615.8,357.2L615.8,357.2c0.1-0.6,0.8-1,1.4-0.8l1.5,0.3c0.6,0.1,1,0.8,0.8,1.4l0,0c-0.1,0.6-0.8,1-1.4,0.8
				l-1.5-0.3C616.1,358.4,615.7,357.8,615.8,357.2z"/>
			<path class="st11" d="M629.9,350.1c-2-0.5-3.3-2.5-2.8-4.5s2.5-3.3,4.5-2.8l3.7,0.9l-1.7,7.4L629.9,350.1z"/>
			<g>
				
					<rect x="599.9" y="335.3" transform="matrix(0.2252 -0.9743 0.9743 0.2252 137.7852 857.4445)" class="st9" width="16.2" height="13.6"/>
				<path class="st10" d="M603.6,333.3l12.3,2.8l-3.4,14.8l-12.3-2.8L603.6,333.3 M602.8,332.1l-3.9,16.7l14.3,3.3l3.9-16.7
					L602.8,332.1L602.8,332.1z"/>
			</g>
			<g>
				
					<rect x="614.8" y="347" transform="matrix(0.2252 -0.9743 0.9743 0.2252 152.0585 887.1147)" class="st9" width="38.1" height="2"/>
				<path class="st10" d="M637.5,329.8l0.9,0.2l-8.3,36.1l-0.9-0.2L637.5,329.8 M636.8,328.6l-8.8,38.1l2.9,0.7l8.8-38.1
					L636.8,328.6L636.8,328.6z"/>
			</g>
			<g>
				
					<rect x="593.5" y="339.6" transform="matrix(0.2252 -0.9743 0.9743 0.2252 134.3914 850.2036)" class="st9" width="16.5" height="2"/>
				<path class="st10" d="M603.1,332.9l0.9,0.2l-3.5,15.1l-0.9-0.2L603.1,332.9 M602.3,331.7l-3.9,17.1l2.9,0.7l3.9-17.1
					L602.3,331.7L602.3,331.7z"/>
			</g>
		</g>
		<g>
			<g>
				<rect x="110.4" y="269.1" class="st9" width="25.1" height="16.9"/>
				<path class="st10" d="M110.9,269.6H135v15.9h-24.1V269.6 M109.9,268.6v17.9H136v-17.9H109.9L109.9,268.6z"/>
			</g>
			<g>
				<path class="st9" d="M123,282.9c-2.9,0-5.3-2.4-5.3-5.3s2.4-5.3,5.3-5.3s5.3,2.4,5.3,5.3S125.9,282.9,123,282.9z"/>
				<path class="st10" d="M123,272.7c2.7,0,4.8,2.2,4.8,4.8c0,2.7-2.2,4.8-4.8,4.8s-4.8-2.2-4.8-4.8
					C118.2,274.9,120.3,272.7,123,272.7 M123,271.7c-3.2,0-5.8,2.6-5.8,5.8s2.6,5.8,5.8,5.8s5.8-2.6,5.8-5.8S126.2,271.7,123,271.7
					L123,271.7z"/>
			</g>
		</g>
		<g>
			<g>
				<rect x="419.1" y="377.5" class="st9" width="27.2" height="18.3"/>
				<path class="st10" d="M445.9,378v17.3h-26.2V378H445.9 M446.9,377h-28.2v19.3h28.2V377L446.9,377z"/>
			</g>
			<g>
				<path class="st9" d="M432.7,392.5c-3.2,0-5.8-2.6-5.8-5.8c0-3.2,2.6-5.8,5.8-5.8c3.2,0,5.8,2.6,5.8,5.8S435.9,392.5,432.7,392.5
					z"/>
				<path class="st10" d="M432.7,381.4c2.9,0,5.3,2.4,5.3,5.3s-2.4,5.3-5.3,5.3s-5.3-2.4-5.3-5.3
					C427.5,383.8,429.8,381.4,432.7,381.4 M432.7,380.4c-3.5,0-6.3,2.8-6.3,6.3s2.8,6.3,6.3,6.3s6.3-2.8,6.3-6.3
					C439,383.2,436.2,380.4,432.7,380.4L432.7,380.4z"/>
			</g>
		</g>
		<g>
			<rect x="451.5" y="316.6" class="st9" width="9.4" height="64.7"/>
			<path class="st10" d="M460.4,317.1v63.7H452v-63.7H460.4 M461.4,316.1H451v65.7h10.4V316.1L461.4,316.1z"/>
		</g>
		<g id="Toilet_2_">
			<g id="Rectangle_21_2_">
				<rect x="415.1" y="119.1" class="st9" width="17.1" height="5.7"/>
				<path class="st10" d="M431.7,119.6v4.7h-16.1v-4.7H431.7 M432.7,118.6h-18.1v6.7h18.1V118.6L432.7,118.6z"/>
			</g>
			<path id="Rectangle_19_x5F_2_2_" class="st11" d="M417.2,136.8c-0.2,3.7,2.7,6.9,6.5,6.9l0,0c3.7,0,6.7-3.2,6.5-6.9l-0.8-12H418
				L417.2,136.8z"/>
			<path id="Rectangle_18_x5F_13_2_" class="st11" d="M419.3,136.5c-0.2,2.6,1.8,4.8,4.4,4.8l0,0c2.6,0,4.6-2.2,4.4-4.8l-0.6-7H420
				L419.3,136.5z"/>
			<ellipse id="Ellipse_6_x5F_2_2_" class="st11" cx="423.7" cy="132.4" rx="1.2" ry="1.2"/>
		</g>
		<g>
			<rect x="199.8" y="283.7" class="st9" width="27.7" height="27.7"/>
			<path class="st10" d="M227,284.2v26.7h-26.7v-26.7H227 M228,283.2h-28.7v28.7H228V283.2L228,283.2z"/>
		</g>
		<g>
			<rect x="227.5" y="283.7" class="st9" width="34.8" height="27.7"/>
			<path class="st10" d="M261.8,284.2v26.7H228v-26.7H261.8 M262.8,283.2H227v28.7h35.8V283.2L262.8,283.2z"/>
		</g>
		<g>
			<rect x="229.2" y="281.8" class="st9" width="31.4" height="1.8"/>
			<path class="st10" d="M260.1,282.3v0.8h-30.4v-0.8H260.1 M261.1,281.3h-32.4v2.8h32.4V281.3L261.1,281.3z"/>
		</g>
		<g id="Rectangle_27_2_">
			<rect x="199.8" y="281.8" class="st9" width="27.7" height="1.8"/>
			<path class="st10" d="M227,282.3v0.8h-26.7v-0.8H227 M228,281.3h-28.7v2.8H228V281.3L228,281.3z"/>
		</g>
		<path id="Vector_3" class="st13" d="M210.1,297.5h7.1 M211.9,294.4l3.5,6.2 M211.9,300.6l3.5-6.2"/>
		<circle class="st11" cx="605.3" cy="124.6" r="9.7"/>
		<g>
			<g>
				<path class="st9" d="M368.9,148.8V116h32.8v22.8c0,5.5-4.5,10-10,10H368.9z"/>
				<path class="st10" d="M369.4,116.5h31.8v22.3c0,2.5-1,4.9-2.8,6.7s-4.2,2.8-6.7,2.8h-22.3V116.5 M368.4,115.5v33.8h23.3
					c5.8,0,10.5-4.7,10.5-10.5v-23.3H368.4L368.4,115.5z"/>
			</g>
			<g>
				<path class="st9" d="M371.3,146.5v-28.2h28.2v20.6c0,4.2-3.4,7.6-7.6,7.6L371.3,146.5L371.3,146.5z"/>
				<path class="st10" d="M398.9,118.8v20.1c0,3.9-3.2,7.1-7.1,7.1h-20.1v-27.2L398.9,118.8 M399.9,117.8h-29.2V147h21.1
					c4.5,0,8.1-3.6,8.1-8.1V117.8L399.9,117.8z"/>
			</g>
			<ellipse class="st11" cx="377.1" cy="124.1" rx="1.2" ry="1.2"/>
		</g>
	</g>
	<g id="street_anchors">
		<rect id="street_x5F_anchor_x5F_01_1_" x="355" y="31" class="st15" width="10" height="10"/>
		<rect id="street_x5F_anchor_x5F_02" x="690.6" y="235" class="st15" width="10" height="10"/>
	</g>
</g>
<g id="комнаты">
	<g>
		<g>
			<path class="st8" d="M120,144.2h-0.8v1.3h-1.1v-1.3h-3.2v-0.9l3.3-3.9h1v3.7h0.8V144.2z M116.4,143.1h1.6v-2H118
				C117.5,141.7,117,142.4,116.4,143.1L116.4,143.1z"/>
		</g>
	</g>
	<g>
		<g>
			<path class="st8" d="M103.8,232.5c0-1.5,0.9-2.2,2-2.6c0.3-0.1,0.8-0.3,0.8-0.9c0-0.5-0.4-0.6-0.8-0.6c-0.7,0-1.1,0.4-1.6,0.9
				l-0.6-1c0.6-0.6,1.2-1.2,2.1-1.2c0.9,0,1.9,0.5,1.9,1.8c0,1.4-1,1.8-1.8,2.1c-0.7,0.3-1.1,0.6-1.1,1.1v0.1h2.8v1.2h-3.9V232.5z"
				/>
			<path class="st8" d="M109.5,231.9c0.4,0,0.8,0.4,0.8,0.9c0,0.5-0.3,0.9-0.8,0.9c-0.4,0-0.7-0.4-0.7-0.9
				C108.8,232.3,109.1,231.9,109.5,231.9z"/>
			<path class="st8" d="M111.2,232.5c0-1.5,0.9-2.2,2-2.6c0.3-0.1,0.8-0.3,0.8-0.9c0-0.5-0.4-0.6-0.8-0.6c-0.7,0-1.1,0.4-1.6,0.9
				l-0.6-1c0.6-0.6,1.2-1.2,2.1-1.2c0.9,0,1.9,0.5,1.9,1.8c0,1.4-1,1.8-1.8,2.1c-0.7,0.3-1.1,0.6-1.1,1.1v0.1h2.8v1.2h-3.9V232.5z"
				/>
		</g>
	</g>
	<g>
		<g>
			<path class="st8" d="M202.7,170.1c0-1.5,0.9-2.2,2-2.6c0.3-0.1,0.8-0.3,0.8-0.9c0-0.5-0.4-0.6-0.8-0.6c-0.7,0-1.1,0.4-1.6,0.9
				l-0.6-1c0.6-0.6,1.2-1.2,2.1-1.2c0.9,0,1.9,0.5,1.9,1.8c0,1.4-1,1.8-1.8,2.1c-0.7,0.3-1.1,0.6-1.1,1.1v0.1h2.8v1.2h-3.9V170.1z"
				/>
			<path class="st8" d="M207.4,165.8l1.4-0.8h1v6.1h-1.1v-4.7l-1,0.6L207.4,165.8z"/>
			<path class="st8" d="M211.7,169.5c0.4,0,0.8,0.4,0.8,0.9c0,0.5-0.3,0.9-0.8,0.9c-0.4,0-0.7-0.4-0.7-0.9
				C211,169.9,211.3,169.5,211.7,169.5z"/>
			<path class="st8" d="M213.4,165h4.2v1.2l-2.4,4.9h-1.4l2.5-4.8h-2.9V165z"/>
		</g>
	</g>
	<g>
		<g>
			<path class="st8" d="M359.2,281.3c0-1.5,0.9-2.2,2-2.6c0.3-0.1,0.8-0.3,0.8-0.9c0-0.5-0.4-0.6-0.8-0.6c-0.7,0-1.1,0.4-1.6,0.9
				l-0.6-1c0.6-0.6,1.2-1.2,2.1-1.2c0.9,0,1.9,0.5,1.9,1.8c0,1.4-1,1.8-1.8,2.1c-0.7,0.3-1.1,0.6-1.1,1.1v0.1h2.8v1.2h-3.9V281.3z"
				/>
			<path class="st8" d="M364.9,280.7c0.4,0,0.8,0.4,0.8,0.9c0,0.5-0.3,0.9-0.8,0.9c-0.4,0-0.7-0.4-0.7-0.9
				C364.1,281.1,364.5,280.7,364.9,280.7z"/>
			<path class="st8" d="M370.5,277.6c-0.4-0.2-0.8-0.4-1.3-0.4c-0.8,0-1.6,0.7-1.6,2c0.4-0.5,1-0.9,1.7-0.9c1.2,0,1.9,1,1.9,1.9
				c0,1.3-0.9,2.2-2.1,2.2c-1.3,0-2.5-1.1-2.5-3.1c0-2.1,1.3-3.4,2.6-3.4c0.8,0,1.4,0.4,1.8,0.5L370.5,277.6z M367.7,280
				c0.2,0.8,0.8,1.3,1.4,1.3c0.6,0,1-0.5,1-1c0-0.4-0.2-0.8-0.9-0.8C368.6,279.4,368.1,279.7,367.7,280z"/>
		</g>
	</g>
	<g>
		<g>
			<path class="st8" d="M294.1,338.3h0.7c0.3,0,0.6-0.2,0.6-0.6c0-0.5-0.4-0.7-0.8-0.7c-0.6,0-1.1,0.4-1.6,1l-0.6-0.9
				c0.5-0.6,1.3-1.3,2.2-1.3c0.8,0,1.9,0.5,1.9,1.8c0,0.5-0.3,0.9-0.5,1.1c0.4,0.2,0.9,0.6,0.9,1.5c0,1.4-1.1,2.2-2.4,2.2
				c-0.9,0-1.7-0.4-2.4-1.3l0.6-1c0.5,0.6,1,1,1.8,1c0.7,0,1.3-0.4,1.3-1c0-0.5-0.5-0.6-0.7-0.6h-0.9V338.3z"/>
			<path class="st8" d="M298.5,340.4c0.4,0,0.8,0.4,0.8,0.9c0,0.5-0.3,0.9-0.8,0.9c-0.4,0-0.7-0.4-0.7-0.9
				C297.7,340.8,298,340.4,298.5,340.4z"/>
			<path class="st8" d="M305.1,340.8h-0.8v1.3h-1.1v-1.3h-3.2v-0.9l3.3-3.9h1v3.7h0.8V340.8z M301.5,339.7h1.6v-2h-0.1
				C302.6,338.4,302,339.1,301.5,339.7L301.5,339.7z"/>
		</g>
	</g>
	<g>
		<g>
			<path class="st8" d="M408.3,340.5h-0.8v1.3h-1.1v-1.3h-3.2v-0.9l3.3-3.9h1v3.7h0.8V340.5z M404.7,339.4h1.6v-2h-0.1
				C405.8,338,405.3,338.7,404.7,339.4L404.7,339.4z"/>
		</g>
	</g>
	<g>
		<g>
			<path class="st8" d="M403.7,175h0.7c0.3,0,0.6-0.2,0.6-0.6c0-0.5-0.4-0.7-0.8-0.7c-0.6,0-1.1,0.4-1.6,1l-0.6-0.9
				c0.5-0.6,1.3-1.3,2.2-1.3c0.8,0,1.9,0.5,1.9,1.8c0,0.5-0.3,0.9-0.5,1.1c0.4,0.2,0.9,0.6,0.9,1.5c0,1.4-1.1,2.2-2.4,2.2
				c-0.9,0-1.7-0.4-2.4-1.3l0.6-1c0.5,0.6,1,1,1.8,1c0.7,0,1.3-0.4,1.3-1c0-0.5-0.5-0.6-0.7-0.6h-0.9V175z"/>
			<path class="st8" d="M408.1,177.1c0.4,0,0.8,0.4,0.8,0.9c0,0.5-0.3,0.9-0.8,0.9c-0.4,0-0.7-0.4-0.7-0.9
				C407.4,177.5,407.7,177.1,408.1,177.1z"/>
			<path class="st8" d="M410.4,177.4c0.4,0.2,0.8,0.4,1.3,0.4c0.8,0,1.6-0.7,1.6-1.9c-0.4,0.4-1,0.9-1.7,0.9c-1.2,0-1.9-1-1.9-2
				c0-1.3,0.9-2.2,2.1-2.2c1.3,0,2.5,1.1,2.5,3.1c0,2.1-1.3,3.4-2.6,3.4c-0.8,0-1.4-0.4-1.8-0.5L410.4,177.4z M413.2,174.9
				c-0.2-0.8-0.8-1.3-1.4-1.3c-0.6,0-1,0.5-1,1c0,0.4,0.2,0.8,0.9,0.8C412.3,175.5,412.8,175.2,413.2,174.9z"/>
		</g>
	</g>
	<g>
		<g>
			<path class="st8" d="M579,284.9l1.4-0.8h1v6.1h-1.1v-4.7l-1,0.6L579,284.9z"/>
			<path class="st8" d="M582.4,284.9l1.4-0.8h1v6.1h-1.1v-4.7l-1,0.6L582.4,284.9z"/>
			<path class="st8" d="M586.8,288.6c0.4,0,0.8,0.4,0.8,0.9c0,0.5-0.3,0.9-0.8,0.9c-0.4,0-0.7-0.4-0.7-0.9
				C586,289,586.3,288.6,586.8,288.6z"/>
			<path class="st8" d="M588.3,289.5l0.5-1c0.3,0.3,1,0.7,1.9,0.7c0.6,0,1.2-0.3,1.2-1c0-0.6-0.5-0.9-0.9-0.9
				c-0.6,0-1.1,0.3-1.5,0.6l-0.6-0.6v-3.2h3.7v1.2h-2.7v1.4c0.4-0.3,0.7-0.6,1.3-0.6c0.9,0,1.9,0.6,1.9,2c0,1.6-1.2,2.3-2.3,2.3
				C589.5,290.4,588.7,289.8,588.3,289.5z"/>
		</g>
	</g>
	<g>
		<g>
			<path class="st8" d="M478,165.5l1.4-0.8h1v6.1h-1.1v-4.7l-1,0.6L478,165.5z"/>
			<path class="st8" d="M486.5,169.5h-0.8v1.3h-1.1v-1.3h-3.2v-0.9l3.3-3.9h1v3.7h0.8V169.5z M483,168.4h1.6v-2h-0.1
				C484,167.1,483.5,167.8,483,168.4L483,168.4z"/>
			<path class="st8" d="M488.1,169.2c0.4,0,0.8,0.4,0.8,0.9c0,0.5-0.3,0.9-0.8,0.9c-0.4,0-0.7-0.4-0.7-0.9
				C487.4,169.6,487.7,169.2,488.1,169.2z"/>
			<path class="st8" d="M490.4,169.5c0.4,0.2,0.8,0.4,1.3,0.4c0.8,0,1.6-0.7,1.6-1.9c-0.4,0.4-1,0.9-1.7,0.9c-1.2,0-1.9-1-1.9-2
				c0-1.3,0.9-2.2,2.1-2.2c1.3,0,2.5,1.1,2.5,3.1c0,2.1-1.3,3.4-2.6,3.4c-0.8,0-1.4-0.4-1.8-0.5L490.4,169.5z M493.2,167
				c-0.2-0.8-0.8-1.3-1.4-1.3c-0.6,0-1,0.5-1,1c0,0.4,0.2,0.8,0.9,0.8C492.3,167.6,492.8,167.3,493.2,167z"/>
		</g>
	</g>
</g>
</svg>
