<?xml version="1.0" encoding="utf-8"?>
<!-- Generator: Adobe Illustrator 26.0.3, SVG Export Plug-In . SVG Version: 6.00 Build 0)  -->
<svg version="1.1" xmlns="http://www.w3.org/2000/svg" xmlns:xlink="http://www.w3.org/1999/xlink" x="0px" y="0px"
	 viewBox="0 0 720 480" style="enable-background:new 0 0 720 480;" xml:space="preserve">
<style type="text/css">
	.st0{fill:#DBD4CA;}
	.st1{clip-path:url(#SVGID_00000079456363905189707420000016337425456821997696_);}
	.st2{fill:none;stroke:#C49F8A;stroke-miterlimit:10;}
	.st3{opacity:0.3;clip-path:url(#SVGID_00000120524810831054923980000009417219164090670219_);}
	.st4{opacity:0.7;fill:#C49F8A;enable-background:new    ;}
	.st5{fill:none;stroke:#565440;}
	.st6{fill:#565440;}
	.st7{fill:#E9E4DC;}
	.st8{fill:#C49F8A;}
	.st9{fill:#E9E4DC;stroke:#C49F8A;}
	.st10{fill:#E9E4DC;stroke:#C49F8A;stroke-miterlimit:3.9998;}
	.st11{fill:none;stroke:#C49F8A;}
	.st12{fill:#E9E4DC;stroke:#C49F8A;stroke-linejoin:round;}
	.st13{opacity:0;}
	.st14{fill:#3F3F3F;fill-opacity:0;}
</style>
<g id="_x31__x5F_2">
	<polygon id="Floor" class="st0" points="593.1,90.5 577.8,155.6 577.8,306.6 593.7,313.4 572.8,404.9 522.7,393.4 369.6,393.4 
		369.6,400.9 365.8,409.3 284.2,390.8 231,390.8 231,401.5 228.7,409.3 121.7,385.2 121.7,60 578.9,60 578.9,82.1 	"/>
	<g id="Wet_Floor_1_">
		<g>
			<g>
				<defs>
					<rect id="SVGID_1_" x="225.2" y="71.4" width="192.4" height="94.8"/>
				</defs>
				<clipPath id="SVGID_00000057861528564637468340000012402664054156309658_">
					<use xlink:href="#SVGID_1_"  style="overflow:visible;"/>
				</clipPath>
				<g style="clip-path:url(#SVGID_00000057861528564637468340000012402664054156309658_);">
					<g>
						<line class="st2" x1="-28.3" y1="71.4" x2="305.2" y2="-262.1"/>
						<line class="st2" x1="-38.7" y1="61" x2="294.8" y2="-272.5"/>
						<line class="st2" x1="-17.8" y1="81.8" x2="315.6" y2="-251.7"/>
						<line class="st2" x1="-7.4" y1="92.2" x2="326.1" y2="-241.3"/>
						<line class="st2" x1="3" y1="102.6" x2="336.5" y2="-230.8"/>
						<line class="st2" x1="13.4" y1="113.1" x2="346.9" y2="-220.4"/>
						<line class="st2" x1="23.8" y1="123.5" x2="357.3" y2="-210"/>
						<line class="st2" x1="34.3" y1="133.9" x2="367.7" y2="-199.6"/>
						<line class="st2" x1="44.7" y1="144.3" x2="378.2" y2="-189.2"/>
						<line class="st2" x1="55.1" y1="154.8" x2="388.6" y2="-178.7"/>
						<line class="st2" x1="44.7" y1="144.3" x2="378.2" y2="-189.2"/>
						<line class="st2" x1="65.5" y1="165.2" x2="399" y2="-168.3"/>
						<line class="st2" x1="75.9" y1="175.6" x2="409.4" y2="-157.9"/>
						<line class="st2" x1="86.4" y1="186" x2="419.9" y2="-147.5"/>
						<line class="st2" x1="96.8" y1="196.4" x2="430.3" y2="-137"/>
						<line class="st2" x1="107.2" y1="206.9" x2="440.7" y2="-126.6"/>
						<line class="st2" x1="117.6" y1="217.3" x2="451.1" y2="-116.2"/>
						<line class="st2" x1="128.1" y1="227.7" x2="461.5" y2="-105.8"/>
						<line class="st2" x1="138.5" y1="238.1" x2="472" y2="-95.4"/>
						<line class="st2" x1="128.1" y1="227.7" x2="461.5" y2="-105.8"/>
						<line class="st2" x1="148.9" y1="248.5" x2="482.4" y2="-84.9"/>
						<line class="st2" x1="159.3" y1="259" x2="492.8" y2="-74.5"/>
						<line class="st2" x1="169.7" y1="269.4" x2="503.2" y2="-64.1"/>
						<line class="st2" x1="180.2" y1="279.8" x2="513.6" y2="-53.7"/>
						<line class="st2" x1="190.6" y1="290.2" x2="524.1" y2="-43.3"/>
						<line class="st2" x1="201" y1="300.7" x2="534.5" y2="-32.8"/>
						<line class="st2" x1="211.4" y1="311.1" x2="544.9" y2="-22.4"/>
						<line class="st2" x1="221.8" y1="321.5" x2="555.3" y2="-12"/>
						<line class="st2" x1="211.4" y1="311.1" x2="544.9" y2="-22.4"/>
						<line class="st2" x1="232.3" y1="331.9" x2="565.7" y2="-1.6"/>
						<line class="st2" x1="242.7" y1="342.3" x2="576.2" y2="8.9"/>
						<line class="st2" x1="253.1" y1="352.8" x2="586.6" y2="19.3"/>
						<line class="st2" x1="263.5" y1="363.2" x2="597" y2="29.7"/>
						<line class="st2" x1="274" y1="373.6" x2="607.4" y2="40.1"/>
						<line class="st2" x1="284.4" y1="384" x2="617.9" y2="50.5"/>
						<line class="st2" x1="294.8" y1="394.4" x2="628.3" y2="61"/>
					</g>
					<g>
						<line class="st2" x1="305.2" y1="384" x2="-28.3" y2="50.5"/>
						<line class="st2" x1="294.8" y1="394.4" x2="-38.7" y2="61"/>
						<line class="st2" x1="315.6" y1="373.6" x2="-17.8" y2="40.1"/>
						<line class="st2" x1="326.1" y1="363.2" x2="-7.4" y2="29.7"/>
						<line class="st2" x1="336.5" y1="352.8" x2="3" y2="19.3"/>
						<line class="st2" x1="346.9" y1="342.3" x2="13.4" y2="8.9"/>
						<line class="st2" x1="357.3" y1="331.9" x2="23.8" y2="-1.6"/>
						<line class="st2" x1="367.7" y1="321.5" x2="34.3" y2="-12"/>
						<line class="st2" x1="378.2" y1="311.1" x2="44.7" y2="-22.4"/>
						<line class="st2" x1="388.6" y1="300.7" x2="55.1" y2="-32.8"/>
						<line class="st2" x1="378.2" y1="311.1" x2="44.7" y2="-22.4"/>
						<line class="st2" x1="399" y1="290.2" x2="65.5" y2="-43.3"/>
						<line class="st2" x1="409.4" y1="279.8" x2="75.9" y2="-53.7"/>
						<line class="st2" x1="419.9" y1="269.4" x2="86.4" y2="-64.1"/>
						<line class="st2" x1="430.3" y1="259" x2="96.8" y2="-74.5"/>
						<line class="st2" x1="440.7" y1="248.5" x2="107.2" y2="-84.9"/>
						<line class="st2" x1="451.1" y1="238.1" x2="117.6" y2="-95.4"/>
						<line class="st2" x1="461.5" y1="227.7" x2="128.1" y2="-105.8"/>
						<line class="st2" x1="472" y1="217.3" x2="138.5" y2="-116.2"/>
						<line class="st2" x1="461.5" y1="227.7" x2="128.1" y2="-105.8"/>
						<line class="st2" x1="482.4" y1="206.9" x2="148.9" y2="-126.6"/>
						<line class="st2" x1="492.8" y1="196.4" x2="159.3" y2="-137"/>
						<line class="st2" x1="503.2" y1="186" x2="169.7" y2="-147.5"/>
						<line class="st2" x1="513.6" y1="175.6" x2="180.2" y2="-157.9"/>
						<line class="st2" x1="524.1" y1="165.2" x2="190.6" y2="-168.3"/>
						<line class="st2" x1="534.5" y1="154.8" x2="201" y2="-178.7"/>
						<line class="st2" x1="544.9" y1="144.3" x2="211.4" y2="-189.2"/>
						<line class="st2" x1="555.3" y1="133.9" x2="221.8" y2="-199.6"/>
						<line class="st2" x1="544.9" y1="144.3" x2="211.4" y2="-189.2"/>
						<line class="st2" x1="565.7" y1="123.5" x2="232.3" y2="-210"/>
						<line class="st2" x1="576.2" y1="113.1" x2="242.7" y2="-220.4"/>
						<line class="st2" x1="586.6" y1="102.6" x2="253.1" y2="-230.8"/>
						<line class="st2" x1="597" y1="92.2" x2="263.5" y2="-241.3"/>
						<line class="st2" x1="607.4" y1="81.8" x2="274" y2="-251.7"/>
						<line class="st2" x1="617.9" y1="71.4" x2="284.4" y2="-262.1"/>
						<line class="st2" x1="628.3" y1="61" x2="294.8" y2="-272.5"/>
					</g>
				</g>
			</g>
		</g>
		<g>
			<g>
				<defs>
					<rect id="SVGID_00000069384388717298876370000006099730115963834023_" x="225.2" y="71.4" width="192.4" height="94.8"/>
				</defs>
				<clipPath id="SVGID_00000078019777980418480480000016511160167748850304_">
					<use xlink:href="#SVGID_00000069384388717298876370000006099730115963834023_"  style="overflow:visible;"/>
				</clipPath>
				<g style="opacity:0.3;clip-path:url(#SVGID_00000078019777980418480480000016511160167748850304_);">
					<rect x="133.7" y="-110.5" class="st4" width="322.2" height="322.2"/>
				</g>
			</g>
		</g>
	</g>
	<path id="Windows_1_" class="st5" d="M577.6,412.5l24.8-106.3l-7.1-2l-23,100.1l-49.6-10.8h-83.2v6.6h83.2L577.6,412.5z M234,410.7
		l-1.3,6.6l-82.4-18.8l1.3-6.6L234,410.7z M371.3,410.7l-1.3,6.6l-77.5-17.7l1.3-6.6L371.3,410.7z M601.5,83.9l-19,83.2l-6.6-1.3
		l19-83.2L601.5,83.9z"/>
	<path id="Doors_1_" class="st5" d="M229.6,117.6c4.9,0,8.9,0.9,13.3,2.7c4.4,1.8,8.4,4.4,11.5,7.5c3.5,3.1,6.2,7.1,8,11.5
		c1.8,4.4,2.7,8.9,2.7,13.7h-35.4 M375.7,161.8c0-4.9,0.9-8.9,2.7-13.3c1.8-4.4,4.4-8.4,7.5-11.5c3.1-3.5,7.1-6.2,11.5-8
		s8.9-2.7,13.7-2.7v35.4 M420,170.7c4.9,0,8.9,0.9,13.3,2.7s8.4,4.4,11.5,7.5c3.5,3.1,6.2,7.1,8,11.5s2.7,8.9,2.7,13.7H420
		 M409.6,250.4c0,4.9-0.9,8.9-2.7,13.3c-1.8,4.4-4.4,8.4-7.5,11.5c-3.1,3.5-7.1,6.2-11.5,8s-8.9,2.7-13.7,2.7v-35.4 M176.5,73.3
		c0,5.8-1.3,11.1-3.5,16.4s-5.3,10.6-9.7,14.6c-4,4-8.9,7.5-14.2,9.7s-11.1,3.5-16.8,3.5V73.3"/>
	<g id="Walls">
		<path class="st6" d="M225.2,117.6h4.4V73.3h46.6v15.3h15.3v73.3h-62V153h-4.4v13.3h4.4h146.1v-4.4H296V88.6V73.3h119.6v88.6h-4.4
			v4.4h4.4v4.4h4.4V73.3h150.6v13.4l29.7,7l3.1-12.8l-19.5-4.6V60H176.5v13.3h48.7L225.2,117.6L225.2,117.6z M280.7,73.3h10.9v10.8
			h-10.9V73.3z"/>
		<polygon class="st6" points="227.9,378.8 227.9,401 227.9,401 224.3,416.9 237.2,420 241.4,401 282.3,401 297.7,404.5 
			302.5,382.8 285.7,378.8 		"/>
		<path class="st6" d="M127.7,170.4h16.8v-19.3h-16.8V73.3h4.4V60h-17.7v341h41.9v-26.5h-28.7L127.7,170.4z M140.2,155.5V166h-12.4
			v-10.5H140.2z"/>
		<polygon class="st6" points="369.2,250.4 374.2,250.4 374.2,246 369.2,246 369.2,215 364.7,215 364.8,401 361.2,416.9 374,420 
			378.3,401 443.9,401 443.9,374.4 369.2,374.4 		"/>
		<polygon class="st6" points="583.8,290.6 583.8,153 570.6,153 570.6,246 420,246 420,206.1 415.6,206.1 415.6,246 409.6,246 
			409.6,250.4 561.7,250.4 561.7,308 561.8,308 561.7,308.4 600.7,317.3 605.5,295.6 		"/>
	</g>
	<g id="Furniture">
		<g>
			<rect x="374.2" y="73.8" class="st7" width="40.9" height="22.9"/>
			<path class="st8" d="M414.6,74.3v21.9h-39.9V74.3H414.6 M415.6,73.3h-41.9v23.9h41.9V73.3L415.6,73.3z"/>
		</g>
		<g>
			<rect x="128.2" y="170.9" class="st7" width="27.4" height="198.5"/>
			<path class="st8" d="M155.1,171.4v197.5h-26.4V171.4H155.1 M156.1,170.4h-28.4v199.5h28.4V170.4L156.1,170.4z"/>
		</g>
		<g>
			<g>
				<rect x="477.2" y="73.8" class="st7" width="73.5" height="85.1"/>
				<path class="st8" d="M477.7,74.3h72.5v84.1h-72.5V74.3 M476.7,73.3v86.1h74.5V73.3L476.7,73.3L476.7,73.3z"/>
			</g>
			<rect x="515.8" y="79.4" class="st9" width="29.1" height="21.3"/>
			<rect x="483.1" y="79.4" class="st9" width="29.1" height="21.3"/>
			<polygon class="st10" points="541.3,92 520.3,86.5 514.7,107.1 535.7,112.6 			"/>
			<polygon class="st10" points="513.2,107.1 507.5,86.5 486.5,92.1 492.1,112.6 			"/>
			<g>
				<polygon class="st7" points="477.2,159.7 477.2,91.8 506.5,90 550.7,96.3 550.7,159.7 				"/>
				<path class="st8" d="M506.5,90.5l43.7,6.2v62.5h-72.5V92.7v-0.4L506.5,90.5 M506.5,89.5l-29.8,1.8v1.4v67.5h74.5V96.3v-0.5
					L506.5,89.5L506.5,89.5z"/>
			</g>
			<polyline class="st11" points="477.7,93.5 506.8,93.5 550.4,97.1 			"/>
		</g>
		<g>
			<g>
				<rect x="470.2" y="250.9" class="st7" width="91" height="61.2"/>
				<path class="st8" d="M470.7,251.4h90v60.2h-90V251.4 M469.7,250.4v62.2h92v-62.2L469.7,250.4L469.7,250.4z"/>
			</g>
			<rect x="532.4" y="283" class="st9" width="22.7" height="24.3"/>
			<rect x="532.4" y="255.7" class="st9" width="22.7" height="24.3"/>
			<polygon class="st10" points="541.7,304.3 547.5,286.8 525.6,282.1 519.7,299.6 			"/>
			<polygon class="st10" points="525.6,280.8 547.5,276.1 541.7,258.5 519.7,263.3 			"/>
			<g>
				<polygon class="st7" points="469.3,312.1 469.3,250.9 542,250.9 543.9,275.3 537.2,312.1 				"/>
				<path class="st8" d="M469.8,251.4H541h0.5l1.9,23.8l-6.6,36.4h-67L469.8,251.4 M468.8,250.4v62.2h68.3h0.5l6.8-37.3l-1.9-24.9
					H541L468.8,250.4L468.8,250.4z"/>
			</g>
			<polyline class="st11" points="540.1,251.2 540.1,275.5 536.3,311.9 			"/>
		</g>
		<g>
			<g>
				<rect x="393.3" y="303.6" class="st7" width="1.8" height="70.3"/>
				<path class="st8" d="M393.8,304.1h0.8v69.3h-0.8V304.1 M392.8,303.1v71.3h2.8v-71.3L392.8,303.1L392.8,303.1z"/>
			</g>
			<g>
				<rect x="369.7" y="303.6" class="st7" width="23.6" height="70.3"/>
				<path class="st8" d="M370.2,304.1h22.6v69.3h-22.6V304.1 M369.2,303.1v71.3h24.6v-71.3L369.2,303.1L369.2,303.1z"/>
			</g>
			<path class="st9" d="M370,303.5l23,70.8"/>
		</g>
		<g>
			<g>
				<rect x="142.2" y="127" class="st7" width="1.8" height="23.6"/>
				<path class="st8" d="M143.6,127.5v22.6h-0.8v-22.6L143.6,127.5 M144.6,126.5h-2.8v24.6h2.8V126.5L144.6,126.5z"/>
			</g>
			<g>
				<rect x="128.2" y="127" class="st7" width="14" height="23.6"/>
				<path class="st8" d="M141.8,127.5v22.6h-13v-22.6L141.8,127.5 M142.8,126.5h-15v24.6h15V126.5L142.8,126.5z"/>
			</g>
			<path class="st9" d="M128.5,127l13.5,23.6"/>
		</g>
		<g>
			<g>
				<rect x="200.5" y="73.8" class="st7" width="1.8" height="43.3"/>
				<path class="st8" d="M201.8,74.3v42.3H201V74.3H201.8 M202.8,73.3H200v44.3h2.8V73.3L202.8,73.3z"/>
			</g>
			<g>
				<rect x="202.3" y="73.8" class="st7" width="22.4" height="43.3"/>
				<path class="st8" d="M202.8,74.3h21.4v42.3h-21.4V74.3 M201.8,73.3v44.3h23.4V73.3H201.8L201.8,73.3z"/>
			</g>
			<path class="st9" d="M224.2,116.9l-21.4-43.1"/>
		</g>
		<g>
			<g>
				<rect x="420.5" y="221.3" class="st7" width="47.8" height="1.8"/>
				<path class="st8" d="M467.8,221.8v0.8H421v-0.8H467.8 M468.8,220.8H420v2.8h48.8V220.8L468.8,220.8z"/>
			</g>
			<g>
				<rect x="420.5" y="223.1" class="st7" width="47.8" height="22.4"/>
				<path class="st8" d="M467.8,223.6V245H421v-21.4H467.8 M468.8,222.6H420V246h48.8V222.6L468.8,222.6z"/>
			</g>
			<path class="st9" d="M420.8,245l47.5-21.4"/>
		</g>
		<g>
			<g>
				<rect x="296.5" y="84.5" class="st7" width="31.3" height="76.8"/>
				<path class="st8" d="M327.3,85v75.8H297V85H327.3 M328.3,84H296v77.8h32.3V84L328.3,84z"/>
			</g>
			<g>
				<g>
					<path class="st12" d="M312.2,91c-6,0-10.6,5.2-10.1,11.1c0.6,6.5,1.1,14.8,1.1,20.9c0,6.1-0.6,14.3-1.1,20.9
						c-0.5,5.9,4.2,11.1,10.1,11.1s10.6-5.2,10.1-11.1c-0.6-6.5-1.1-14.8-1.1-20.9s0.6-14.3,1.1-20.9C322.8,96.2,318.1,91,312.2,91z
						"/>
					<ellipse class="st12" cx="312.2" cy="101.4" rx="1.1" ry="1.1"/>
				</g>
			</g>
		</g>
		<g id="Sink_2">
			<g id="Rectangle_16_x5F_11">
				<rect x="387.3" y="75.9" class="st7" width="25.7" height="18.6"/>
				<path class="st8" d="M412.6,76.4V94h-24.7V76.4H412.6 M413.6,75.4h-26.7V95h26.7V75.4L413.6,75.4z"/>
			</g>
			<path id="Rectangle_19_x5F_5" class="st9" d="M389.9,85.2L389.9,85.2c0,3.3,2.7,6,6,6h8.6c3.3,0,6-2.7,6-6l0,0c0-3.3-2.7-6-6-6
				h-8.6C392.6,79.2,389.9,81.9,389.9,85.2z"/>
			<circle id="Ellipse_7_x5F_2" class="st9" cx="400.2" cy="82.6" r="1.1"/>
		</g>
		<g id="Toilet_3_">
			<g id="Rectangle_21_3_">
				<rect x="242.8" y="84.5" class="st7" width="17.8" height="6"/>
				<path class="st8" d="M260.1,85v5h-16.8v-5H260.1 M261.1,84h-18.8v7h18.8V84L261.1,84z"/>
			</g>
			<path id="Rectangle_19_x5F_2_3_" class="st9" d="M245,102.9c-0.3,3.9,2.8,7.2,6.7,7.2l0,0c3.9,0,7-3.3,6.7-7.2l-0.8-12.4h-11.7
				L245,102.9z"/>
			<path id="Rectangle_18_x5F_13_3_" class="st9" d="M247.1,102.5c-0.2,2.7,1.9,5,4.6,5l0,0c2.7,0,4.8-2.3,4.6-5l-0.7-7.3h-7.8
				L247.1,102.5z"/>
			<ellipse id="Ellipse_6_x5F_2_3_" class="st9" cx="251.7" cy="98.3" rx="1.1" ry="1.1"/>
		</g>
		<g id="TV_1_">
			<g id="Rectangle_16_1_">
				<rect x="482" y="233.1" class="st7" width="67.7" height="1.8"/>
				<path class="st8" d="M549.2,233.6v0.8h-66.7v-0.8H549.2 M550.2,232.6h-68.7v2.8h68.7V232.6L550.2,232.6z"/>
			</g>
			<g id="Rectangle_15_1_">
				<rect x="482" y="234.9" class="st7" width="67.7" height="10.6"/>
				<path class="st8" d="M549.2,235.4v9.6h-66.7v-9.6H549.2 M550.2,234.4h-68.7V246h68.7V234.4L550.2,234.4z"/>
			</g>
			<g id="Rectangle_17_1_">
				<rect x="493.6" y="242" class="st7" width="44.6" height="1.8"/>
				<path class="st8" d="M537.7,242.5v0.8h-43.6v-0.8H537.7 M538.7,241.5h-45.6v2.8h45.6V241.5L538.7,241.5z"/>
			</g>
			<path id="Rectangle_18_x5F_2_1_" class="st9" d="M525.5,243.8h-19.3l1.8,1.6h15.8L525.5,243.8z"/>
		</g>
		<g id="Sink_3">
			<rect id="Rectangle_28_x5F_2" x="131.5" y="172.7" class="st9" width="20.9" height="33.1"/>
			<path id="Rectangle_29_x5F_2" class="st9" d="M142,185.7L142,185.7c4.3,0,7.8,3.5,7.8,7.8v1.7c0,4.3-3.5,7.8-7.8,7.8l0,0
				c-4.3,0-7.8-3.5-7.8-7.8v-1.7C134.1,189.2,137.6,185.7,142,185.7z"/>
			<ellipse id="Ellipse_7_x5F_3" class="st9" cx="138.5" cy="194.4" rx="1.1" ry="1.1"/>
			<path id="Vector_2" class="st11" d="M134.1,174.4v8.7 M136.7,174.4v8.7 M139.4,174.4v8.7 M142,174.4v8.7 M144.6,174.4v8.7
				 M147.2,174.4v8.7 M149.8,174.4v8.7"/>
		</g>
		<g id="Stove">
			<g id="Rectangle_25">
				<rect x="128.2" y="247.2" class="st7" width="27.5" height="26.7"/>
				<path class="st8" d="M128.7,247.7h26.5v25.7h-26.5V247.7 M127.7,246.7v27.7h28.5v-27.7H127.7L127.7,246.7z"/>
			</g>
			<g id="Rectangle_28_x5F_3_1_">
				<rect x="128.2" y="247.2" class="st7" width="1.8" height="26.7"/>
				<path class="st8" d="M129.6,247.7v25.7h-0.8v-25.7H129.6 M130.6,246.7h-2.8v27.7h2.8V246.7L130.6,246.7z"/>
			</g>
			<g id="Ellipse_7_x5F_4">
				<path class="st7" d="M137.5,256.9c-1.7,0-3.1-1.4-3.1-3.1s1.4-3.1,3.1-3.1c1.7,0,3.1,1.4,3.1,3.1S139.2,256.9,137.5,256.9z"/>
				<path class="st8" d="M137.5,251.3c1.4,0,2.6,1.1,2.6,2.6s-1.1,2.6-2.6,2.6s-2.6-1.1-2.6-2.6S136.1,251.3,137.5,251.3
					 M137.5,250.3c-2,0-3.6,1.6-3.6,3.6s1.6,3.6,3.6,3.6s3.6-1.6,3.6-3.6S139.5,250.3,137.5,250.3L137.5,250.3z"/>
			</g>
			<g id="Ellipse_9">
				<path class="st7" d="M148.2,257.8c-2.2,0-3.9-1.8-3.9-4s1.8-3.9,3.9-3.9s3.9,1.8,3.9,3.9S150.4,257.8,148.2,257.8z"/>
				<path class="st8" d="M148.2,250.4c1.9,0,3.4,1.5,3.4,3.4s-1.5,3.4-3.4,3.4s-3.4-1.5-3.4-3.4S146.3,250.4,148.2,250.4
					 M148.2,249.4c-2.5,0-4.4,2-4.4,4.4c0,2.5,2,4.4,4.4,4.4c2.5,0,4.4-2,4.4-4.4S150.7,249.4,148.2,249.4L148.2,249.4z"/>
			</g>
			<g id="Ellipse_10">
				<path class="st7" d="M137.5,270.2c-2.2,0-3.9-1.8-3.9-4s1.8-3.9,3.9-3.9s3.9,1.8,3.9,3.9S139.7,270.2,137.5,270.2z"/>
				<path class="st8" d="M137.5,262.8c1.9,0,3.4,1.5,3.4,3.4c0,0.9-0.4,1.8-1,2.4c-0.7,0.7-1.5,1-2.4,1c-1.9,0-3.4-1.5-3.4-3.4
					S135.6,262.8,137.5,262.8 M137.5,261.8c-2.5,0-4.4,2-4.4,4.4s2,4.4,4.4,4.4c2.5,0,4.4-2,4.4-4.4S140,261.8,137.5,261.8
					L137.5,261.8z"/>
			</g>
			<g id="Ellipse_8">
				<path class="st7" d="M149.1,269.4c-1.7,0-3.1-1.4-3.1-3.1s1.4-3.1,3.1-3.1c1.7,0,3.1,1.4,3.1,3.1S150.8,269.4,149.1,269.4z"/>
				<path class="st8" d="M149.1,263.7c1.4,0,2.6,1.1,2.6,2.6s-1.1,2.6-2.6,2.6s-2.6-1.1-2.6-2.6S147.7,263.7,149.1,263.7
					 M149.1,262.7c-2,0-3.6,1.6-3.6,3.6s1.6,3.6,3.6,3.6s3.6-1.6,3.6-3.6C152.7,264.3,151.1,262.7,149.1,262.7L149.1,262.7z"/>
			</g>
		</g>
		<g>
			<g id="Rectangle_27">
				<rect x="128.2" y="341.9" class="st7" width="27.5" height="27.5"/>
				<path class="st8" d="M155.2,342.4v26.5h-26.5v-26.5H155.2 M156.2,341.4h-28.5v28.5h28.5V341.4L156.2,341.4z"/>
			</g>
			<g id="Rectangle_27_2_">
				<rect x="155.7" y="341.9" class="st7" width="1.8" height="27.5"/>
				<path class="st8" d="M157.1,342.4v26.5h-0.8v-26.5H157.1 M158.1,341.4h-2.8v28.5h2.8V341.4L158.1,341.4z"/>
			</g>
			<path id="Vector_3" class="st11" d="M141.6,352.2v7.1 M144.7,353.9l-6.2,3.5 M138.5,353.9l6.2,3.5"/>
		</g>
		<g>
			<g id="Rectangle_27_5_">
				<rect x="128.2" y="311" class="st7" width="27.5" height="30.9"/>
				<path class="st8" d="M155.2,311.5v29.9h-26.5v-29.9H155.2 M156.2,310.5h-28.5v31.9h28.5V310.5L156.2,310.5z"/>
			</g>
			<g id="Rectangle_27_1_">
				<rect x="155.7" y="311" class="st7" width="1.8" height="30.9"/>
				<path class="st8" d="M157,311.5v29.9h-0.8v-29.9H157 M158,310.5h-2.8v31.9h2.8V310.5L158,310.5z"/>
			</g>
		</g>
		<g>
			<path class="st9" d="M307.4,340.6c-1.2,0-2.2,1-2.2,2.2v22.1h50.4v-24.3L307.4,340.6L307.4,340.6z"/>
			<path class="st9" d="M333.5,301.4c-1.2,0-2.2,1-2.2,2.3v34.6c0,1.3,1,2.3,2.2,2.3h22.2v-39.1L333.5,301.4L333.5,301.4z"/>
			<path class="st9" d="M333.5,263.8c-1.2,0-2.2,1-2.2,2.2v33.3c0,1.2,1,2.2,2.2,2.2h22.2v-37.7H333.5z"/>
			<path class="st9" d="M329.5,263.8v-8.2h34.8v118.2h-67.8v-35h8.7v26.1h50.5V263.8H329.5z"/>
		</g>
		<g>
			<rect x="230.1" y="73.8" class="st7" width="45.6" height="10.7"/>
			<path class="st8" d="M275.2,74.3V84h-44.6v-9.7H275.2 M276.2,73.3h-46.6V85h46.6V73.3L276.2,73.3z"/>
		</g>
		<g id="Toilet_1_">
			<g id="Rectangle_21_1_">
				<rect x="346.2" y="84.5" class="st7" width="17.8" height="6"/>
				<path class="st8" d="M363.5,85v5h-16.8v-5H363.5 M364.5,84h-18.8v7h18.8V84L364.5,84z"/>
			</g>
			<path id="Rectangle_19_x5F_2_1_" class="st9" d="M348.4,102.9c-0.3,3.9,2.8,7.2,6.7,7.2l0,0c3.9,0,7-3.3,6.7-7.2L361,90.5h-11.7
				L348.4,102.9z"/>
			<path id="Rectangle_18_x5F_13_1_" class="st9" d="M350.5,102.5c-0.2,2.7,1.9,5,4.6,5l0,0c2.7,0,4.8-2.3,4.6-5l-0.7-7.3h-7.8
				L350.5,102.5z"/>
			<ellipse id="Ellipse_6_x5F_2_1_" class="st9" cx="355.1" cy="98.3" rx="1.1" ry="1.1"/>
		</g>
		<g>
			<rect x="296.5" y="73.8" class="st7" width="77.7" height="10.7"/>
			<path class="st8" d="M373.7,74.3V84H297v-4.2v-5.5h36h38.9H373.7 M374.7,73.3h-2.8H333h-37v6.5V85h78.7V73.3L374.7,73.3z"/>
		</g>
		<g>
			<path class="st9" d="M223.4,339.6v-58.3h42.4v58.3H223.4z"/>
			<path class="st9" d="M234,277.8v-0.9c0-5.9,4.7-10.6,10.6-10.6c5.9,0,10.6,4.7,10.6,10.6v0.9H234z"/>
			<path class="st9" d="M235.7,281.3v-4.4c0-4.9,4-8.8,8.8-8.8s8.8,4,8.8,8.8v4.4H235.7z"/>
			<path class="st9" d="M234,343.1v0.9c0,5.9,4.7,10.6,10.6,10.6c5.9,0,10.6-4.7,10.6-10.6v-0.9H234z"/>
			<path class="st9" d="M235.7,339.6v4.4c0,4.9,4,8.8,8.8,8.8s8.8-4,8.8-8.8v-4.4H235.7z"/>
			<path class="st9" d="M219.8,299.9H219c-5.9,0-10.6,4.7-10.6,10.6s4.7,10.6,10.6,10.6h0.9L219.8,299.9L219.8,299.9z"/>
			<path class="st9" d="M223.4,301.6H219c-4.9,0-8.8,4-8.8,8.8c0,4.9,4,8.8,8.8,8.8h4.4V301.6z"/>
			<path class="st9" d="M269.3,299.9h0.9c5.9,0,10.6,4.7,10.6,10.6s-4.7,10.6-10.6,10.6h-0.9V299.9z"/>
			<path class="st9" d="M265.8,301.6h4.4c4.9,0,8.8,4,8.8,8.8c0,4.9-4,8.8-8.8,8.8h-4.4V301.6z"/>
		</g>
		<g>
			<path class="st9" d="M470.2,347.6h19.5l2.6,17.7h-24.8L470.2,347.6z"/>
			<g>
				<rect x="444.4" y="363.4" class="st7" width="73" height="29.1"/>
				<path class="st8" d="M516.9,363.9V392h-72v-28.1H516.9 M517.9,362.9h-74V393h74V362.9L517.9,362.9z"/>
			</g>
			<path class="st11" d="M473.4,371.9h15.1 M472.1,368.3h17.7v5.3h-17.7V368.3z"/>
			<path class="st9" d="M464.8,368L464.8,368c0.7,0,1.3,0.6,1.3,1.3v1.8c0,0.7-0.6,1.3-1.3,1.3l0,0c-0.7,0-1.3-0.6-1.3-1.3v-1.8
				C463.4,368.6,464,368,464.8,368z"/>
			<path class="st9" d="M476.5,382.2c0-2.4,2-4.4,4.4-4.4s4.4,2,4.4,4.4v4.4h-8.9L476.5,382.2z"/>
			<g>
				<rect x="470.3" y="347.1" class="st7" width="19.1" height="16.1"/>
				<path class="st8" d="M488.9,347.6v15.1h-18.1v-15.1H488.9 M489.9,346.6h-20.1v17.1h20.1V346.6L489.9,346.6z"/>
			</g>
			<g>
				<rect x="457.6" y="384.9" class="st7" width="44.7" height="1.8"/>
				<path class="st8" d="M501.8,385.4v0.8h-43.7v-0.8H501.8 M502.8,384.4h-45.7v2.8h45.7V384.4L502.8,384.4z"/>
			</g>
		</g>
		<g>
			<g>
				<rect x="272.7" y="134" class="st7" width="18.4" height="27.3"/>
				<path class="st8" d="M290.6,134.5v26.3h-17.4v-26.3H290.6 M291.6,133.5h-19.4v28.3h19.4V133.5L291.6,133.5z"/>
			</g>
			<g>
				<circle class="st7" cx="281.9" cy="147.7" r="5.8"/>
				<path class="st8" d="M281.9,142.4c2.9,0,5.3,2.4,5.3,5.3s-2.4,5.3-5.3,5.3s-5.3-2.4-5.3-5.3S279,142.4,281.9,142.4 M281.9,141.4
					c-3.5,0-6.3,2.8-6.3,6.3s2.8,6.3,6.3,6.3s6.3-2.8,6.3-6.3S285.4,141.4,281.9,141.4L281.9,141.4z"/>
			</g>
		</g>
		<g id="Sink_2_1_">
			<g id="Rectangle_16_x5F_11_1_">
				<rect x="271.8" y="102.8" class="st7" width="19.3" height="31.2"/>
				<path class="st8" d="M290.6,103.3v30.2h-18.3v-30.2H290.6 M291.6,102.3h-20.3v32.2h20.3V102.3L291.6,102.3z"/>
			</g>
			<path id="Rectangle_19_x5F_5_1_" class="st9" d="M281.4,107.7L281.4,107.7c-3.4,0-6.2,2.8-6.2,6.2v8.9c0,3.4,2.8,6.2,6.2,6.2l0,0
				c3.4,0,6.2-2.8,6.2-6.2v-8.9C287.7,110.5,284.9,107.7,281.4,107.7z"/>
			<circle id="Ellipse_7_x5F_2_1_" class="st9" cx="284.6" cy="118.4" r="1.1"/>
		</g>
	</g>
	<g id="street_anchors" class="st13">
		<rect id="street_x5F_anchor_x5F_01_1_" x="355" y="450" class="st14" width="10" height="10"/>
		<rect id="street_x5F_anchor_x5F_02" x="635.5" y="235" class="st14" width="10" height="10"/>
	</g>
</g>
<g id="комнаты">
	<g>
		<g>
			<path class="st6" d="M310.7,218.8c0-1.5,0.9-2.2,2-2.6c0.3-0.1,0.8-0.3,0.8-0.9c0-0.5-0.4-0.6-0.8-0.6c-0.7,0-1.1,0.4-1.6,0.9
				l-0.6-1c0.6-0.6,1.2-1.2,2.1-1.2c0.9,0,1.9,0.5,1.9,1.8c0,1.4-1,1.8-1.8,2.1c-0.7,0.3-1.1,0.6-1.1,1.1v0.1h2.8v1.2h-3.9V218.8z"
				/>
			<path class="st6" d="M315.4,219.1l0.5-1c0.3,0.3,1,0.7,1.9,0.7c0.6,0,1.2-0.3,1.2-1c0-0.6-0.5-0.9-0.9-0.9
				c-0.6,0-1.1,0.3-1.5,0.6l-0.6-0.6v-3.2h3.7v1.2h-2.7v1.4c0.4-0.3,0.7-0.6,1.3-0.6c0.9,0,1.9,0.6,1.9,2c0,1.6-1.2,2.3-2.3,2.3
				C316.6,220,315.9,219.4,315.4,219.1z"/>
			<path class="st6" d="M321.7,218.1c0.4,0,0.8,0.4,0.8,0.9c0,0.5-0.3,0.9-0.8,0.9c-0.4,0-0.7-0.4-0.7-0.9
				C321,218.5,321.3,218.1,321.7,218.1z"/>
			<path class="st6" d="M323.1,214.5l1.4-0.8h1v6.1h-1.1v-4.7l-1,0.6L323.1,214.5z"/>
		</g>
	</g>
	<g>
		<g>
			<path class="st6" d="M388.3,188l1.4-0.8h1v6.1h-1.1v-4.7l-1,0.6L388.3,188z"/>
			<path class="st6" d="M392.7,191.7c0.4,0,0.8,0.4,0.8,0.9c0,0.5-0.3,0.9-0.8,0.9c-0.4,0-0.7-0.4-0.7-0.9
				C392,192.1,392.3,191.7,392.7,191.7z"/>
			<path class="st6" d="M394.4,191.5c0-0.8,0.4-1.4,1-1.6c-0.4-0.2-0.7-0.6-0.7-1.2c0-1.1,1.2-1.7,2.1-1.7c0.9,0,2.1,0.5,2.1,1.7
				c0,0.6-0.2,1-0.7,1.2c0.5,0.2,1,0.7,1,1.6c0,1.3-1.1,2-2.3,2C395.5,193.5,394.4,192.8,394.4,191.5z M397.9,191.4
				c0-0.6-0.6-0.9-1.2-0.9s-1.2,0.3-1.2,0.9c0,0.6,0.6,0.9,1.2,0.9C397.3,192.3,397.9,192,397.9,191.4z M397.6,188.8
				c0-0.5-0.5-0.7-0.9-0.7c-0.4,0-0.9,0.2-0.9,0.7c0,0.4,0.3,0.6,0.9,0.6C397.3,189.5,397.6,189.3,397.6,188.8z"/>
		</g>
	</g>
	<g>
		<g>
			<path class="st6" d="M194.7,146.4h-0.8v1.3h-1.1v-1.3h-3.2v-0.9l3.3-3.9h1v3.7h0.8V146.4z M191.1,145.3h1.6v-2h-0.1
				C192.2,144,191.6,144.7,191.1,145.3L191.1,145.3z"/>
		</g>
	</g>
	<g>
		<g>
			<path class="st6" d="M254.4,121.9c0-1.5,0.9-2.2,2-2.6c0.3-0.1,0.8-0.3,0.8-0.9c0-0.5-0.4-0.6-0.8-0.6c-0.7,0-1.1,0.4-1.6,0.9
				l-0.6-1c0.6-0.6,1.2-1.2,2.1-1.2c0.9,0,1.9,0.5,1.9,1.8c0,1.4-1,1.8-1.8,2.1c-0.7,0.3-1.1,0.6-1.1,1.1v0.1h2.8v1.2h-3.9V121.9z"
				/>
			<path class="st6" d="M260.1,121.3c0.4,0,0.8,0.4,0.8,0.9c0,0.5-0.3,0.9-0.8,0.9c-0.4,0-0.7-0.4-0.7-0.9
				C259.4,121.7,259.7,121.3,260.1,121.3z"/>
			<path class="st6" d="M261.8,121.9c0-1.5,0.9-2.2,2-2.6c0.3-0.1,0.8-0.3,0.8-0.9c0-0.5-0.4-0.6-0.8-0.6c-0.7,0-1.1,0.4-1.6,0.9
				l-0.6-1c0.6-0.6,1.2-1.2,2.1-1.2c0.9,0,1.9,0.5,1.9,1.8c0,1.4-1,1.8-1.8,2.1c-0.7,0.3-1.1,0.6-1.1,1.1v0.1h2.8v1.2h-3.9V121.9z"
				/>
		</g>
	</g>
	<g>
		<g>
			<path class="st6" d="M363.5,131.3h-0.8v1.3h-1.1v-1.3h-3.2v-0.9l3.3-3.9h1v3.7h0.8V131.3z M359.9,130.2h1.6v-2h-0.1
				C361,128.8,360.4,129.5,359.9,130.2L359.9,130.2z"/>
			<path class="st6" d="M365.1,130.9c0.4,0,0.8,0.4,0.8,0.9c0,0.5-0.3,0.9-0.8,0.9c-0.4,0-0.7-0.4-0.7-0.9
				C364.3,131.3,364.6,130.9,365.1,130.9z"/>
			<path class="st6" d="M367.4,131.2c0.4,0.2,0.8,0.4,1.3,0.4c0.8,0,1.6-0.7,1.6-1.9c-0.4,0.4-1,0.9-1.7,0.9c-1.2,0-1.9-1-1.9-2
				c0-1.3,0.9-2.2,2.1-2.2c1.3,0,2.5,1.1,2.5,3.1c0,2.1-1.3,3.4-2.6,3.4c-0.8,0-1.4-0.4-1.8-0.5L367.4,131.2z M370.2,128.7
				c-0.2-0.8-0.8-1.3-1.4-1.3c-0.6,0-1,0.5-1,1c0,0.4,0.2,0.8,0.9,0.8C369.2,129.3,369.8,129,370.2,128.7z"/>
		</g>
	</g>
	<g>
		<g>
			<path class="st6" d="M429.8,321.3l1.4-0.8h1v6.1h-1.1v-4.7l-1,0.6L429.8,321.3z"/>
			<path class="st6" d="M435.3,322.8h0.7c0.3,0,0.6-0.2,0.6-0.6c0-0.5-0.4-0.7-0.8-0.7c-0.6,0-1.1,0.4-1.6,1l-0.6-0.9
				c0.5-0.6,1.3-1.3,2.2-1.3c0.8,0,1.9,0.5,1.9,1.8c0,0.5-0.3,0.9-0.5,1.1c0.4,0.2,0.9,0.6,0.9,1.5c0,1.4-1.1,2.2-2.4,2.2
				c-0.9,0-1.7-0.4-2.4-1.3l0.6-1c0.5,0.6,1,1,1.8,1c0.7,0,1.3-0.4,1.3-1c0-0.5-0.5-0.6-0.7-0.6h-0.9V322.8z"/>
			<path class="st6" d="M439.7,324.9c0.4,0,0.8,0.4,0.8,0.9c0,0.5-0.3,0.9-0.8,0.9c-0.4,0-0.7-0.4-0.7-0.9
				C438.9,325.4,439.3,324.9,439.7,324.9z"/>
			<path class="st6" d="M441.4,325.6c0-1.5,0.9-2.2,2-2.6c0.3-0.1,0.8-0.3,0.8-0.9c0-0.5-0.4-0.6-0.8-0.6c-0.7,0-1.1,0.4-1.6,0.9
				l-0.6-1c0.6-0.6,1.2-1.2,2.1-1.2c0.9,0,1.9,0.5,1.9,1.8c0,1.4-1,1.8-1.8,2.1c-0.7,0.3-1.1,0.6-1.1,1.1v0.1h2.8v1.2h-3.9V325.6z"
				/>
		</g>
	</g>
	<g>
		<g>
			<path class="st6" d="M492.7,190.2l1.4-0.8h1v6.1H494v-4.7l-1,0.6L492.7,190.2z"/>
			<path class="st6" d="M496.1,190.2l1.4-0.8h1v6.1h-1.1v-4.7l-1,0.6L496.1,190.2z"/>
			<path class="st6" d="M500.5,193.9c0.4,0,0.8,0.4,0.8,0.9c0,0.5-0.3,0.9-0.8,0.9c-0.4,0-0.7-0.4-0.7-0.9
				C499.7,194.3,500.1,193.9,500.5,193.9z"/>
			<path class="st6" d="M502.8,194.2c0.4,0.2,0.8,0.4,1.3,0.4c0.8,0,1.6-0.7,1.6-1.9c-0.4,0.4-1,0.9-1.7,0.9c-1.2,0-1.9-1-1.9-2
				c0-1.3,0.9-2.2,2.1-2.2c1.3,0,2.5,1.1,2.5,3.1c0,2.1-1.3,3.4-2.6,3.4c-0.8,0-1.4-0.4-1.8-0.5L502.8,194.2z M505.6,191.7
				c-0.2-0.8-0.8-1.3-1.4-1.3c-0.6,0-1,0.5-1,1c0,0.4,0.2,0.8,0.9,0.8C504.7,192.3,505.2,192,505.6,191.7z"/>
		</g>
	</g>
</g>
</svg>
