<?xml version="1.0" encoding="utf-8"?>
<!-- Generator: Adobe Illustrator 26.0.3, SVG Export Plug-In . SVG Version: 6.00 Build 0)  -->
<svg version="1.1" xmlns="http://www.w3.org/2000/svg" xmlns:xlink="http://www.w3.org/1999/xlink" x="0px" y="0px"
	 viewBox="0 0 720 480" style="enable-background:new 0 0 720 480;" xml:space="preserve">
<style type="text/css">
	.st0{fill:#DBD4CA;}
	.st1{clip-path:url(#SVGID_00000019644082347075153430000000131340473028297388_);}
	.st2{fill:none;stroke:#C49F8A;stroke-miterlimit:10;}
	.st3{opacity:0.3;clip-path:url(#SVGID_00000164490852282751413760000002847252779740954506_);}
	.st4{opacity:0.7;fill:#C49F8A;enable-background:new    ;}
	.st5{fill:none;stroke:#565440;}
	.st6{fill:none;stroke:#565440;stroke-width:1;stroke-miterlimit:4.0004;}
	.st7{fill:#565440;}
	.st8{fill:#E9E4DC;}
	.st9{fill:#C49F8A;}
	.st10{fill:#E9E4DC;stroke:#C49F8A;}
	.st11{fill:#E9E4DC;stroke:#C49F8A;stroke-miterlimit:3.9998;}
	.st12{fill:none;stroke:#C49F8A;}
	.st13{fill:#E9E4DC;stroke:#C49F8A;stroke-linejoin:round;}
	.st14{opacity:0;}
	.st15{fill:#3F3F3F;fill-opacity:0;}
</style>
<g id="_x31__x5F_2">
	<polygon id="Floor_1_" class="st0" points="400.7,391.9 479.9,412.3 483.9,396.3 515.9,396.3 515.9,60 203.6,60 203.6,389.9 
		259.5,390.8 334.4,409.8 339.5,393.6 	"/>
	<g id="Wet_Floor_1_">
		<g>
			<g>
				<defs>
					<rect id="SVGID_1_" x="208.2" y="72.6" width="114.3" height="110.9"/>
				</defs>
				<clipPath id="SVGID_00000036214081887047442300000011600360981254749829_">
					<use xlink:href="#SVGID_1_"  style="overflow:visible;"/>
				</clipPath>
				<g style="clip-path:url(#SVGID_00000036214081887047442300000011600360981254749829_);">
					<g>
						<line class="st2" x1="-45.5" y1="77.9" x2="288" y2="-255.6"/>
						<line class="st2" x1="-55.9" y1="67.4" x2="277.6" y2="-266"/>
						<line class="st2" x1="-35.1" y1="88.3" x2="298.4" y2="-245.2"/>
						<line class="st2" x1="-24.6" y1="98.7" x2="308.8" y2="-234.8"/>
						<line class="st2" x1="-14.2" y1="109.1" x2="319.3" y2="-224.4"/>
						<line class="st2" x1="-3.8" y1="119.5" x2="329.7" y2="-213.9"/>
						<line class="st2" x1="6.6" y1="130" x2="340.1" y2="-203.5"/>
						<line class="st2" x1="17" y1="140.4" x2="350.5" y2="-193.1"/>
						<line class="st2" x1="27.5" y1="150.8" x2="360.9" y2="-182.7"/>
						<line class="st2" x1="37.9" y1="161.2" x2="371.4" y2="-172.3"/>
						<line class="st2" x1="27.5" y1="150.8" x2="360.9" y2="-182.7"/>
						<line class="st2" x1="48.3" y1="171.7" x2="381.8" y2="-161.8"/>
						<line class="st2" x1="58.7" y1="182.1" x2="392.2" y2="-151.4"/>
						<line class="st2" x1="69.1" y1="192.5" x2="402.6" y2="-141"/>
						<line class="st2" x1="79.6" y1="202.9" x2="413.1" y2="-130.6"/>
						<line class="st2" x1="90" y1="213.3" x2="423.5" y2="-120.1"/>
						<line class="st2" x1="100.4" y1="223.8" x2="433.9" y2="-109.7"/>
						<line class="st2" x1="110.8" y1="234.2" x2="444.3" y2="-99.3"/>
						<line class="st2" x1="121.3" y1="244.6" x2="454.7" y2="-88.9"/>
						<line class="st2" x1="110.8" y1="234.2" x2="444.3" y2="-99.3"/>
						<line class="st2" x1="131.7" y1="255" x2="465.2" y2="-78.5"/>
						<line class="st2" x1="142.1" y1="265.4" x2="475.6" y2="-68"/>
						<line class="st2" x1="152.5" y1="275.9" x2="486" y2="-57.6"/>
						<line class="st2" x1="162.9" y1="286.3" x2="496.4" y2="-47.2"/>
						<line class="st2" x1="173.4" y1="296.7" x2="506.8" y2="-36.8"/>
						<line class="st2" x1="183.8" y1="307.1" x2="517.3" y2="-26.4"/>
						<line class="st2" x1="194.2" y1="317.5" x2="527.7" y2="-15.9"/>
						<line class="st2" x1="204.6" y1="328" x2="538.1" y2="-5.5"/>
						<line class="st2" x1="194.2" y1="317.5" x2="527.7" y2="-15.9"/>
						<line class="st2" x1="215" y1="338.4" x2="548.5" y2="4.9"/>
						<line class="st2" x1="225.5" y1="348.8" x2="558.9" y2="15.3"/>
						<line class="st2" x1="235.9" y1="359.2" x2="569.4" y2="25.8"/>
						<line class="st2" x1="246.3" y1="369.7" x2="579.8" y2="36.2"/>
						<line class="st2" x1="256.7" y1="380.1" x2="590.2" y2="46.6"/>
						<line class="st2" x1="267.2" y1="390.5" x2="600.6" y2="57"/>
						<line class="st2" x1="277.6" y1="400.9" x2="611.1" y2="67.4"/>
					</g>
					<g>
						<line class="st2" x1="288" y1="390.5" x2="-45.5" y2="57"/>
						<line class="st2" x1="277.6" y1="400.9" x2="-55.9" y2="67.4"/>
						<line class="st2" x1="298.4" y1="380.1" x2="-35.1" y2="46.6"/>
						<line class="st2" x1="308.8" y1="369.7" x2="-24.6" y2="36.2"/>
						<line class="st2" x1="319.3" y1="359.2" x2="-14.2" y2="25.8"/>
						<line class="st2" x1="329.7" y1="348.8" x2="-3.8" y2="15.3"/>
						<line class="st2" x1="340.1" y1="338.4" x2="6.6" y2="4.9"/>
						<line class="st2" x1="350.5" y1="328" x2="17" y2="-5.5"/>
						<line class="st2" x1="360.9" y1="317.5" x2="27.5" y2="-15.9"/>
						<line class="st2" x1="371.4" y1="307.1" x2="37.9" y2="-26.4"/>
						<line class="st2" x1="360.9" y1="317.5" x2="27.5" y2="-15.9"/>
						<line class="st2" x1="381.8" y1="296.7" x2="48.3" y2="-36.8"/>
						<line class="st2" x1="392.2" y1="286.3" x2="58.7" y2="-47.2"/>
						<line class="st2" x1="402.6" y1="275.9" x2="69.1" y2="-57.6"/>
						<line class="st2" x1="413.1" y1="265.4" x2="79.6" y2="-68"/>
						<line class="st2" x1="423.5" y1="255" x2="90" y2="-78.5"/>
						<line class="st2" x1="433.9" y1="244.6" x2="100.4" y2="-88.9"/>
						<line class="st2" x1="444.3" y1="234.2" x2="110.8" y2="-99.3"/>
						<line class="st2" x1="454.7" y1="223.8" x2="121.3" y2="-109.7"/>
						<line class="st2" x1="444.3" y1="234.2" x2="110.8" y2="-99.3"/>
						<line class="st2" x1="465.2" y1="213.3" x2="131.7" y2="-120.1"/>
						<line class="st2" x1="475.6" y1="202.9" x2="142.1" y2="-130.6"/>
						<line class="st2" x1="486" y1="192.5" x2="152.5" y2="-141"/>
						<line class="st2" x1="496.4" y1="182.1" x2="162.9" y2="-151.4"/>
						<line class="st2" x1="506.8" y1="171.7" x2="173.4" y2="-161.8"/>
						<line class="st2" x1="517.3" y1="161.2" x2="183.8" y2="-172.3"/>
						<line class="st2" x1="527.7" y1="150.8" x2="194.2" y2="-182.7"/>
						<line class="st2" x1="538.1" y1="140.4" x2="204.6" y2="-193.1"/>
						<line class="st2" x1="527.7" y1="150.8" x2="194.2" y2="-182.7"/>
						<line class="st2" x1="548.5" y1="130" x2="215" y2="-203.5"/>
						<line class="st2" x1="558.9" y1="119.5" x2="225.5" y2="-213.9"/>
						<line class="st2" x1="569.4" y1="109.1" x2="235.9" y2="-224.4"/>
						<line class="st2" x1="579.8" y1="98.7" x2="246.3" y2="-234.8"/>
						<line class="st2" x1="590.2" y1="88.3" x2="256.7" y2="-245.2"/>
						<line class="st2" x1="600.6" y1="77.9" x2="267.2" y2="-255.6"/>
						<line class="st2" x1="611.1" y1="67.4" x2="277.6" y2="-266"/>
					</g>
				</g>
			</g>
		</g>
		<g>
			<g>
				<defs>
					<rect id="SVGID_00000062160599239421768540000014576298631147017131_" x="208.2" y="72.6" width="114.3" height="110.9"/>
				</defs>
				<clipPath id="SVGID_00000145023023825605311750000013460550742605641877_">
					<use xlink:href="#SVGID_00000062160599239421768540000014576298631147017131_"  style="overflow:visible;"/>
				</clipPath>
				<g style="opacity:0.3;clip-path:url(#SVGID_00000145023023825605311750000013460550742605641877_);">
					<rect x="116.5" y="-104.1" class="st4" width="322.2" height="322.2"/>
				</g>
			</g>
		</g>
	</g>
	<path id="Doors" class="st5" d="M318.1,135c-4.9,0-8.8,0.9-13.2,2.6c-4.4,1.8-8.4,4.4-11.5,7.5c-3.5,3.1-6.2,7.1-7.9,11.5
		c-1.8,4.4-2.6,8.8-2.6,13.7h35.3 M353.4,249.7c-4.9,0-8.8-0.9-13.2-2.6c-4.4-1.8-8.4-4.4-11.5-7.5c-3.5-3.1-6.2-7.1-7.9-11.5
		c-1.8-4.4-2.6-8.8-2.6-13.7h35.3 M357.8,60.4c0-5.7,1.3-11.4,3.5-16.7s5.3-10.6,9.7-14.6c4-4,8.8-7.5,14.1-9.7
		c5.3-2.2,11-3.5,16.8-3.5v44.5"/>
	<g id="Windows">
		
			<rect x="293.8" y="364.2" transform="matrix(0.2515 -0.9679 0.9679 0.2515 -168.5833 589.8464)" class="st6" width="6.6" height="79.4"/>
		<polygon class="st5" points="399.6,398.2 401.2,391.8 474.6,410.8 472.9,417.2 		"/>
	</g>
	<g id="Walls">
		<path class="st7" d="M353.4,210v4.4h4.4v-30.9h-4.4v22.1h-30.9v-35.3h-4.4v8.8H212.2V88.8h15.5V73.2h90.4V135h4.4V73.2h35.3V60
			H199v339.6h61.8v-26.4h-48.5V183.5h105.9V210H353.4z M223.4,73.2v11.2h-11.1V73.2H223.4z"/>
		<path class="st7" d="M521,60H401.9v13.2h105.9v73.3h-15.1v17.3h15.1v209.3h-32.6v24l-4.4,19.7l0,0l0,0l12.8,3.1l4.6-20.3h32.9l0,0
			l0,0L521,60z M497,159.5V151h10.8v8.6H497V159.5z"/>
		<polygon class="st7" points="357.8,377.6 357.8,249.7 353.4,249.7 353.4,377.6 331.3,377.6 331.3,399.6 331.3,399.6 327.7,415.5 
			340.5,418.6 344.8,399.6 386.9,399.6 402.2,403.2 407.1,381.6 390.3,377.6 		"/>
	</g>
	<g id="Furniture">
		<g>
			<g>
				<rect x="212.7" y="266.2" class="st8" width="85.1" height="73.5"/>
				<path class="st9" d="M213.2,266.7h84.1v72.5h-84.1L213.2,266.7 M212.2,265.7v74.5h86.1v-74.5H212.2L212.2,265.7z"/>
			</g>
			<rect x="218.3" y="272.1" class="st10" width="21.3" height="29.1"/>
			<rect x="218.3" y="304.8" class="st10" width="21.3" height="29.1"/>
			<polygon class="st11" points="231,275.6 225.5,296.7 246,302.3 251.5,281.3 			"/>
			<polygon class="st11" points="246,303.8 225.5,309.4 231,330.5 251.5,324.8 			"/>
			<g>
				<polygon class="st8" points="230.7,339.7 228.9,310.4 235.2,266.2 298.6,266.2 298.6,339.7 				"/>
				<path class="st9" d="M235.6,266.7h62.5v72.5h-66.5h-0.4l-1.7-28.8L235.6,266.7 M235.2,265.7h-0.5l-6.3,44.7l1.8,29.8h1.4h67.5
					v-74.5H235.2L235.2,265.7z"/>
			</g>
			<polyline class="st12" points="232.4,339.2 232.4,310.2 236,266.5 			"/>
		</g>
		<g>
			<g>
				<rect x="346.6" y="73.8" class="st8" width="1.8" height="56.5"/>
				<path class="st9" d="M347.1,74.3h0.8v55.5h-0.8V74.3 M346.1,73.3v57.5h2.8V73.3H346.1L346.1,73.3z"/>
			</g>
			<g>
				<rect x="323" y="73.8" class="st8" width="23.6" height="56.5"/>
				<path class="st9" d="M323.5,74.3h22.6v55.5h-22.6V74.3 M322.5,73.3v57.5h24.6V73.3H322.5L322.5,73.3z"/>
			</g>
			<path class="st10" d="M323.3,73.5l23,57.1"/>
		</g>
		<g>
			<g>
				<rect x="212.7" y="207.7" class="st8" width="104.9" height="1.8"/>
				<path class="st9" d="M213.2,208.2h103.9v0.8H213.2L213.2,208.2 M212.2,207.2v2.8h105.9v-2.8H212.2L212.2,207.2z"/>
			</g>
			<g>
				<rect x="212.7" y="184.1" class="st8" width="104.9" height="23.6"/>
				<path class="st9" d="M213.2,184.6h103.9v22.6H213.2L213.2,184.6 M212.2,183.6v24.6h105.9v-24.6H212.2L212.2,183.6z"/>
			</g>
			<path class="st10" d="M317.6,184.4l-105.2,23"/>
		</g>
		<g>
			<g>
				<rect x="412.1" y="73.8" class="st8" width="1.8" height="18.4"/>
				<path class="st9" d="M413.4,74.3v17.4h-0.8V74.3H413.4 M414.4,73.3h-2.8v19.4h2.8V73.3L414.4,73.3z"/>
			</g>
			<g>
				<rect x="413.9" y="73.8" class="st8" width="14.6" height="18.4"/>
				<path class="st9" d="M428.1,74.3v17.4h-13.6V74.3H428.1 M429.1,73.3h-15.6v19.4h15.6V73.3L429.1,73.3z"/>
			</g>
			<path class="st10" d="M428.1,92l-13.7-18.1"/>
		</g>
		<g>
			<g>
				<rect x="212.7" y="98.7" class="st8" width="31.3" height="79.9"/>
				<path class="st9" d="M213.2,99.2h30.3v78.9h-30.3V99.2 M212.2,98.2v80.9h32.3V98.2L212.2,98.2L212.2,98.2z"/>
			</g>
			<g>
				<g>
					<path class="st13" d="M228.4,106.8c-6,0-10.6,5.2-10.1,11.1c0.6,6.5,1.1,14.8,1.1,20.9s-0.6,14.3-1.1,20.9
						c-0.5,5.9,4.2,11.1,10.1,11.1c5.9,0,10.6-5.2,10.1-11.1c-0.6-6.5-1.1-14.8-1.1-20.9c0-6.1,0.6-14.3,1.1-20.9
						C239,111.9,234.3,106.8,228.4,106.8z"/>
					<ellipse class="st13" cx="228.4" cy="117.2" rx="1.1" ry="1.1"/>
				</g>
			</g>
		</g>
		<g id="Sink_2">
			<g id="Rectangle_16_x5F_11">
				<rect x="244" y="73.8" class="st8" width="25.7" height="18.6"/>
				<path class="st9" d="M269.2,74.3v17.6h-24.7V74.3H269.2 M270.2,73.3h-26.7v19.6h26.7V73.3L270.2,73.3z"/>
			</g>
			<path id="Rectangle_19_x5F_5" class="st10" d="M246.6,83.1L246.6,83.1c0,3.3,2.7,6,6,6h8.6c3.3,0,6-2.7,6-6l0,0c0-3.3-2.7-6-6-6
				h-8.6C249.3,77.1,246.6,79.8,246.6,83.1z"/>
			<circle id="Ellipse_7_x5F_2" class="st10" cx="256.9" cy="80.4" r="1.1"/>
		</g>
		<g id="Toilet_3_">
			<g id="Rectangle_21_3_">
				<rect x="288.5" y="82.8" class="st8" width="17.8" height="6"/>
				<path class="st9" d="M305.8,83.3v5H289v-5H305.8 M306.8,82.3H288v7h18.8V82.3L306.8,82.3z"/>
			</g>
			<path id="Rectangle_19_x5F_2_3_" class="st10" d="M290.7,101.2c-0.3,3.9,2.8,7.2,6.7,7.2l0,0c3.9,0,7-3.3,6.7-7.2l-0.8-12.4
				h-11.7L290.7,101.2z"/>
			<path id="Rectangle_18_x5F_13_3_" class="st10" d="M292.9,100.9c-0.2,2.7,1.9,5,4.6,5l0,0c2.7,0,4.8-2.3,4.6-5l-0.7-7.3h-7.8
				L292.9,100.9z"/>
			<ellipse id="Ellipse_6_x5F_2_3_" class="st10" cx="297.4" cy="96.6" rx="1.1" ry="1.1"/>
		</g>
		<g id="TV">
			<g id="Rectangle_16">
				<rect x="340.4" y="273" class="st8" width="1.8" height="63.6"/>
				<path class="st9" d="M341.7,273.5v62.6h-0.8v-62.6H341.7 M342.7,272.5h-2.8v64.6h2.8V272.5L342.7,272.5z"/>
			</g>
			<g id="Rectangle_15">
				<rect x="342.3" y="273" class="st8" width="10.6" height="63.6"/>
				<path class="st9" d="M352.4,273.5v62.6h-9.6v-62.6H352.4 M353.4,272.5h-11.6v64.6h11.6V272.5L353.4,272.5z"/>
			</g>
			<g id="Rectangle_17">
				<rect x="349.4" y="283.8" class="st8" width="1.8" height="41.9"/>
				<path class="st9" d="M350.7,284.3v40.9h-0.8v-40.9H350.7 M351.7,283.3h-2.8v42.9h2.8V283.3L351.7,283.3z"/>
			</g>
			<path id="Rectangle_18_x5F_2" class="st10" d="M351.2,313.9v-18.1l1.6,1.6v14.9L351.2,313.9z"/>
		</g>
		<g id="TV_1_">
			<g id="Rectangle_16_1_">
				<rect x="368.8" y="273" class="st8" width="1.8" height="63.6"/>
				<path class="st9" d="M370.2,273.5v62.6h-0.8v-62.6H370.2 M371.2,272.5h-2.8v64.6h2.8V272.5L371.2,272.5z"/>
			</g>
			<g id="Rectangle_15_1_">
				<rect x="358.3" y="273" class="st8" width="10.6" height="63.6"/>
				<path class="st9" d="M368.3,273.5v62.6h-9.6v-62.6H368.3 M369.3,272.5h-11.6v64.6h11.6V272.5L369.3,272.5z"/>
			</g>
			<g id="Rectangle_17_1_">
				<rect x="359.9" y="283.8" class="st8" width="1.8" height="41.9"/>
				<path class="st9" d="M361.3,284.3v40.9h-0.8v-40.9H361.3 M362.3,283.3h-2.8v42.9h2.8V283.3L362.3,283.3z"/>
			</g>
			<path id="Rectangle_18_x5F_2_1_" class="st10" d="M359.9,313.9v-18.1l-1.6,1.6v14.9L359.9,313.9z"/>
		</g>
		<g>
			<polygon class="st8" points="479.7,146.1 479.7,97.6 428.6,97.6 428.6,73.8 507.3,73.8 507.3,146.1 			"/>
			<path class="st9" d="M506.8,74.3v23.8v47.5h-26.5V98.1v-1h-1h-50.1V74.3H506.8 M507.8,73.3h-79.6v24.8h51.1v48.5h28.5V98.1l0,0
				V73.3L507.8,73.3z"/>
		</g>
		<g id="Sink_3">
			<rect id="Rectangle_28_x5F_2" x="467.6" y="75.7" class="st10" width="29.5" height="18.6"/>
			<path id="Rectangle_29_x5F_2" class="st10" d="M485.6,85L485.6,85c0,3.9-3.1,7-7,7H477c-3.9,0-7-3.1-7-7l0,0c0-3.9,3.1-7,7-7h1.6
				C482.5,78,485.6,81.1,485.6,85z"/>
			<ellipse id="Ellipse_7_x5F_3" class="st10" cx="477.8" cy="81.9" rx="1.1" ry="1.1"/>
			<path id="Vector_2" class="st12" d="M495.6,78h-7.8 M495.6,80.3h-7.8 M495.6,82.6h-7.8 M495.6,85h-7.8 M495.6,87.3h-7.8
				 M495.6,89.6h-7.8 M495.6,92h-7.8"/>
		</g>
		<g id="Stove">
			<g id="Rectangle_25">
				<rect x="479.8" y="116.8" class="st8" width="27.5" height="26.8"/>
				<path class="st9" d="M506.8,117.3V143h-26.5v-25.8h26.5 M507.8,116.3h-28.5V144h28.5V116.3L507.8,116.3z"/>
			</g>
			<g id="Rectangle_28_x5F_3_1_">
				<rect x="505" y="116.8" class="st8" width="2.3" height="26.8"/>
				<path class="st9" d="M506.8,117.3V143h-1.3v-25.8h1.3 M507.8,116.3h-3.3V144h3.3V116.3L507.8,116.3z"/>
			</g>
			<g id="Ellipse_7_x5F_4">
				<path class="st8" d="M498,140c-1.7,0-3.1-1.4-3.1-3.1s1.4-3.1,3.1-3.1s3.1,1.4,3.1,3.1S499.7,140,498,140z"/>
				<path class="st9" d="M498,134.3c1.4,0,2.6,1.1,2.6,2.6s-1.1,2.6-2.6,2.6c-1.4,0-2.6-1.1-2.6-2.6S496.5,134.3,498,134.3
					 M498,133.3c-2,0-3.6,1.6-3.6,3.6s1.6,3.6,3.6,3.6s3.6-1.6,3.6-3.6C501.5,134.9,499.9,133.3,498,133.3L498,133.3z"/>
			</g>
			<g id="Ellipse_9">
				<path class="st8" d="M487.3,140.9c-2.2,0-4-1.8-4-4s1.8-4,4-4s4,1.8,4,4S489.5,140.9,487.3,140.9z"/>
				<path class="st9" d="M487.3,133.4c1.9,0,3.5,1.5,3.5,3.5s-1.5,3.5-3.5,3.5s-3.5-1.5-3.5-3.5S485.4,133.4,487.3,133.4
					 M487.3,132.4c-2.5,0-4.5,2-4.5,4.5s2,4.5,4.5,4.5s4.5-2,4.5-4.5S489.7,132.4,487.3,132.4L487.3,132.4z"/>
			</g>
			<g id="Ellipse_10">
				<path class="st8" d="M498,128.4c-2.2,0-4-1.8-4-4s1.8-4,4-4s4,1.8,4,4C501.9,126.6,500.1,128.4,498,128.4z"/>
				<path class="st9" d="M498,121c1.9,0,3.5,1.5,3.5,3.5S500,128,498,128s-3.5-1.5-3.5-3.5S496.1,121,498,121 M498,120
					c-2.5,0-4.5,2-4.5,4.5s2,4.5,4.5,4.5s4.5-2,4.5-4.5S500.4,120,498,120L498,120z"/>
			</g>
			<g id="Ellipse_8">
				<path class="st8" d="M486.4,127.5c-1.7,0-3.1-1.4-3.1-3.1s1.4-3.1,3.1-3.1s3.1,1.4,3.1,3.1C489.4,126.1,488.1,127.5,486.4,127.5
					z"/>
				<path class="st9" d="M486.4,121.9c1.4,0,2.6,1.1,2.6,2.6s-1.1,2.6-2.6,2.6c-1.4,0-2.6-1.1-2.6-2.6S485,121.9,486.4,121.9
					 M486.4,120.9c-2,0-3.6,1.6-3.6,3.6s1.6,3.6,3.6,3.6s3.6-1.6,3.6-3.6S488.4,120.9,486.4,120.9L486.4,120.9z"/>
			</g>
		</g>
		<g>
			<g id="Rectangle_27">
				<rect x="433.9" y="73.8" class="st8" width="27.5" height="23.8"/>
				<path class="st9" d="M460.9,74.3v22.8h-26.5V74.3H460.9 M461.9,73.3h-28.5v24.8h28.5V73.3L461.9,73.3z"/>
			</g>
			<g id="Rectangle_27_2_">
				<rect x="433.9" y="95.8" class="st8" width="27.5" height="1.8"/>
				<path class="st9" d="M460.9,96.3v0.8h-26.5v-0.8H460.9 M461.9,95.3h-28.5v2.8h28.5V95.3L461.9,95.3z"/>
			</g>
			<path id="Vector_3" class="st12" d="M450.8,85.4h-6.2 M449.2,88.1l-3.1-5.4 M449.2,82.7l-3.1,5.4"/>
		</g>
		<g>
			<path class="st10" d="M477.1,309.2c-1.3,0-2.3-1-2.3-2.3V272c0-1.3,1-2.3,2.3-2.3H500v39.6L477.1,309.2z"/>
			<path class="st10" d="M477.1,347c-1.3,0-2.3-1-2.3-2.3v-33.2c0-1.3,1-2.3,2.3-2.3H500V347H477.1z"/>
			<polygon class="st10" points="472.8,347 500,347 500,308.3 500,269.6 472.8,269.6 472.8,262.4 507.3,262.4 507.3,354.2 
				472.8,354.2 			"/>
		</g>
		<g>
			<rect x="269.8" y="73.8" class="st8" width="47.8" height="9.1"/>
			<path class="st9" d="M317.1,74.3v8.1h-46.8v-8.1H317.1 M318.1,73.3h-48.8v10.1h48.8V73.3L318.1,73.3z"/>
		</g>
		<g>
			<g>
				<rect x="323" y="184.2" class="st8" width="29.9" height="21.1"/>
				<path class="st9" d="M352.4,184.7v20.1h-28.9v-20.1H352.4 M353.4,183.7h-30.9v22.1h30.9V183.7L353.4,183.7z"/>
			</g>
			<g>
				<line class="st12" x1="323.2" y1="184.5" x2="333" y2="191.3"/>
			</g>
			<g>
				<line class="st12" x1="352.6" y1="184.5" x2="342.8" y2="191.3"/>
			</g>
			<g>
				<line class="st12" x1="323.2" y1="205" x2="333" y2="198.1"/>
			</g>
			<g>
				<line class="st12" x1="352.6" y1="205" x2="342.8" y2="198.1"/>
			</g>
		</g>
		<g>
			<g>
				<rect x="427.1" y="164.4" class="st8" width="80.2" height="39.5"/>
				<path class="st9" d="M506.8,164.9v38.5h-79.2v-38.5H506.8 M507.8,163.9h-81.2v40.5h81.2V163.9L507.8,163.9z"/>
			</g>
			<g>
				<rect x="427.1" y="188.8" class="st8" width="80.2" height="3.1"/>
				<path class="st9" d="M506.8,189.3v2.1h-79.2v-2.1H506.8 M507.8,188.3h-81.2v4.1h81.2V188.3L507.8,188.3z"/>
			</g>
		</g>
		<g>
			<path class="st8" d="M438.5,229.2c-4.9,0-8.9-4-8.9-8.9s4-8.9,8.9-8.9s8.9,4,8.9,8.9S443.4,229.2,438.5,229.2z"/>
			<path class="st9" d="M438.5,211.9c4.6,0,8.4,3.8,8.4,8.4c0,4.6-3.8,8.4-8.4,8.4s-8.4-3.8-8.4-8.4S433.8,211.9,438.5,211.9
				 M438.5,210.9c-5.2,0-9.4,4.2-9.4,9.4s4.2,9.4,9.4,9.4s9.4-4.2,9.4-9.4C447.9,215.1,443.7,210.9,438.5,210.9L438.5,210.9z"/>
		</g>
		<g>
			<path class="st8" d="M467.9,229.2c-4.9,0-8.9-4-8.9-8.9s4-8.9,8.9-8.9s8.9,4,8.9,8.9S472.8,229.2,467.9,229.2z"/>
			<path class="st9" d="M467.9,211.9c4.6,0,8.4,3.8,8.4,8.4c0,4.6-3.8,8.4-8.4,8.4s-8.4-3.8-8.4-8.4S463.2,211.9,467.9,211.9
				 M467.9,210.9c-5.2,0-9.4,4.2-9.4,9.4s4.2,9.4,9.4,9.4c5.2,0,9.4-4.2,9.4-9.4C477.3,215.1,473.1,210.9,467.9,210.9L467.9,210.9z"
				/>
		</g>
		<g>
			<path class="st8" d="M495.4,229.2c-4.9,0-8.9-4-8.9-8.9s4-8.9,8.9-8.9s8.9,4,8.9,8.9S500.3,229.2,495.4,229.2z"/>
			<path class="st9" d="M495.4,211.9c4.6,0,8.4,3.8,8.4,8.4c0,4.6-3.8,8.4-8.4,8.4s-8.4-3.8-8.4-8.4
				C486.9,215.7,490.7,211.9,495.4,211.9 M495.4,210.9c-5.2,0-9.4,4.2-9.4,9.4s4.2,9.4,9.4,9.4c5.2,0,9.4-4.2,9.4-9.4
				C504.8,215.1,500.6,210.9,495.4,210.9L495.4,210.9z"/>
		</g>
		<g>
			<polygon class="st8" points="212.7,98.7 212.7,89.3 228.2,89.3 228.2,73.8 244,73.8 244,98.7 			"/>
			<path class="st9" d="M243.5,74.3v23.9h-30.3v-8.4h14.5h1v-1V74.3H243.5 M244.5,73.3h-16.8v15.5h-15.5v10.4h32.3V73.3L244.5,73.3z
				"/>
		</g>
	</g>
	<g id="street_anchors" class="st14">
		<rect id="street_x5F_anchor_x5F_01_1_" x="355" y="450.4" class="st15" width="10" height="10"/>
	</g>
</g>
<g id="комнаты">
	<g>
		<g>
			<path class="st7" d="M416,292.7l1.4-0.8h1v6.1h-1.1v-4.7l-1,0.6L416,292.7z"/>
			<path class="st7" d="M420.3,296.7c0.4,0.2,0.8,0.4,1.3,0.4c0.8,0,1.6-0.7,1.6-1.9c-0.4,0.4-1,0.9-1.7,0.9c-1.2,0-1.9-1-1.9-2
				c0-1.3,0.9-2.2,2.1-2.2c1.3,0,2.5,1.1,2.5,3.1c0,2.1-1.3,3.4-2.6,3.4c-0.8,0-1.4-0.4-1.8-0.5L420.3,296.7z M423.1,294.2
				c-0.2-0.8-0.8-1.3-1.4-1.3c-0.6,0-1,0.5-1,1c0,0.4,0.2,0.8,0.9,0.8C422.1,294.8,422.7,294.5,423.1,294.2z"/>
			<path class="st7" d="M425.9,296.4c0.4,0,0.8,0.4,0.8,0.9c0,0.5-0.3,0.9-0.8,0.9c-0.4,0-0.7-0.4-0.7-0.9
				C425.1,296.8,425.4,296.4,425.9,296.4z"/>
			<path class="st7" d="M431.4,293.3c-0.4-0.2-0.8-0.4-1.3-0.4c-0.8,0-1.6,0.7-1.6,2c0.4-0.5,1-0.9,1.7-0.9c1.2,0,1.9,1,1.9,1.9
				c0,1.3-0.9,2.2-2.1,2.2c-1.3,0-2.5-1.1-2.5-3.1c0-2.1,1.3-3.4,2.6-3.4c0.8,0,1.4,0.4,1.8,0.5L431.4,293.3z M428.6,295.7
				c0.2,0.8,0.8,1.3,1.4,1.3c0.6,0,1-0.5,1-1c0-0.4-0.2-0.8-0.9-0.8C429.6,295.1,429,295.4,428.6,295.7z"/>
		</g>
	</g>
	<g>
		<g>
			<path class="st7" d="M381.5,107.4c0-1.5,0.9-2.2,2-2.6c0.3-0.1,0.8-0.3,0.8-0.9c0-0.5-0.4-0.6-0.8-0.6c-0.7,0-1.1,0.4-1.6,0.9
				l-0.6-1c0.6-0.6,1.2-1.2,2.1-1.2c0.9,0,1.9,0.5,1.9,1.8c0,1.4-1,1.8-1.8,2.1c-0.7,0.3-1.1,0.6-1.1,1.1v0.1h2.8v1.2h-3.9V107.4z"
				/>
			<path class="st7" d="M387.2,106.8c0.4,0,0.8,0.4,0.8,0.9c0,0.5-0.3,0.9-0.8,0.9c-0.4,0-0.7-0.4-0.7-0.9
				C386.5,107.2,386.8,106.8,387.2,106.8z"/>
			<path class="st7" d="M388.9,106.6c0-0.8,0.4-1.4,1-1.6c-0.4-0.2-0.7-0.6-0.7-1.2c0-1.1,1.2-1.7,2.1-1.7c0.9,0,2.1,0.5,2.1,1.7
				c0,0.6-0.2,1-0.7,1.2c0.5,0.2,1,0.7,1,1.6c0,1.3-1.1,2-2.3,2C390,108.6,388.9,107.9,388.9,106.6z M392.4,106.5
				c0-0.6-0.6-0.9-1.2-0.9s-1.2,0.3-1.2,0.9c0,0.6,0.6,0.9,1.2,0.9C391.8,107.4,392.4,107.1,392.4,106.5z M392.1,103.9
				c0-0.5-0.5-0.7-0.9-0.7c-0.4,0-0.9,0.2-0.9,0.7c0,0.4,0.3,0.6,0.9,0.6C391.8,104.6,392.1,104.4,392.1,103.9z"/>
		</g>
	</g>
	<g>
		<g>
			<path class="st7" d="M333.7,151.4l1.4-0.8h1v6.1H335V152l-1,0.6L333.7,151.4z"/>
			<path class="st7" d="M338.1,155.1c0.4,0,0.8,0.4,0.8,0.9c0,0.5-0.3,0.9-0.8,0.9c-0.4,0-0.7-0.4-0.7-0.9
				C337.4,155.5,337.7,155.1,338.1,155.1z"/>
			<path class="st7" d="M339.5,151.4l1.4-0.8h1v6.1h-1.1V152l-1,0.6L339.5,151.4z"/>
		</g>
	</g>
	<g>
		<g>
			<path class="st7" d="M267.8,135.6h-0.8v1.3h-1.1v-1.3h-3.2v-0.9l3.3-3.9h1v3.7h0.8V135.6z M264.2,134.5h1.6v-2h-0.1
				C265.3,133.2,264.7,133.9,264.2,134.5L264.2,134.5z"/>
			<path class="st7" d="M269.3,135.3c0.4,0,0.8,0.4,0.8,0.9c0,0.5-0.3,0.9-0.8,0.9c-0.4,0-0.7-0.4-0.7-0.9
				C268.6,135.7,268.9,135.3,269.3,135.3z"/>
			<path class="st7" d="M271.7,135.6c0.4,0.2,0.8,0.4,1.3,0.4c0.8,0,1.6-0.7,1.6-1.9c-0.4,0.4-1,0.9-1.7,0.9c-1.2,0-1.9-1-1.9-2
				c0-1.3,0.9-2.2,2.1-2.2c1.3,0,2.5,1.1,2.5,3.1c0,2.1-1.3,3.4-2.6,3.4c-0.8,0-1.4-0.4-1.8-0.5L271.7,135.6z M274.4,133.1
				c-0.2-0.8-0.8-1.3-1.4-1.3c-0.6,0-1,0.5-1,1c0,0.4,0.2,0.8,0.9,0.8C273.5,133.7,274,133.4,274.4,133.1z"/>
		</g>
	</g>
	<g>
		<g>
			<path class="st7" d="M260.1,238.2l1.4-0.8h1v6.1h-1.1v-4.7l-1,0.6L260.1,238.2z"/>
			<path class="st7" d="M265.5,239.8h0.7c0.3,0,0.6-0.2,0.6-0.6c0-0.5-0.4-0.7-0.8-0.7c-0.6,0-1.1,0.5-1.6,1l-0.6-0.9
				c0.5-0.6,1.3-1.3,2.2-1.3c0.8,0,1.9,0.5,1.9,1.8c0,0.5-0.3,0.9-0.5,1.1c0.4,0.2,0.9,0.6,0.9,1.5c0,1.4-1.1,2.2-2.4,2.2
				c-0.9,0-1.7-0.4-2.4-1.3l0.6-1c0.5,0.6,1,1,1.8,1c0.7,0,1.3-0.4,1.3-1c0-0.5-0.5-0.6-0.7-0.6h-0.9V239.8z"/>
			<path class="st7" d="M269.9,241.9c0.4,0,0.8,0.4,0.8,0.9c0,0.5-0.3,0.9-0.8,0.9c-0.4,0-0.7-0.4-0.7-0.9
				C269.2,242.3,269.5,241.9,269.9,241.9z"/>
			<path class="st7" d="M271.3,238.2l1.4-0.8h1v6.1h-1.1v-4.7l-1,0.6L271.3,238.2z"/>
		</g>
	</g>
</g>
</svg>
