<?xml version="1.0" encoding="utf-8"?>
<!-- Generator: Adobe Illustrator 26.0.3, SVG Export Plug-In . SVG Version: 6.00 Build 0)  -->
<svg version="1.1" xmlns="http://www.w3.org/2000/svg" xmlns:xlink="http://www.w3.org/1999/xlink" x="0px" y="0px"
	 viewBox="0 0 720 480" style="enable-background:new 0 0 720 480;" xml:space="preserve">
<style type="text/css">
	.st0{fill:#DBD4CA;}
	.st1{clip-path:url(#SVGID_00000116212441367119265270000014060256566344036264_);}
	.st2{fill:none;stroke:#C49F8A;stroke-miterlimit:10;}
	.st3{opacity:0.3;clip-path:url(#SVGID_00000132778564129142855630000000453996731623060906_);}
	.st4{opacity:0.7;fill:#C49F8A;enable-background:new    ;}
	.st5{fill:none;stroke:#565440;}
	.st6{fill:none;stroke:#565440;stroke-width:1;stroke-miterlimit:4.0004;}
	.st7{fill:#565440;}
	.st8{fill:#E9E4DC;}
	.st9{fill:#C49F8A;}
	.st10{fill:#E9E4DC;stroke:#C49F8A;}
	.st11{fill:#E9E4DC;stroke:#C49F8A;stroke-miterlimit:3.9998;}
	.st12{fill:none;stroke:#C49F8A;}
	.st13{fill:#E9E4DC;stroke:#C49F8A;stroke-linejoin:round;}
	.st14{opacity:0.76;}
	.st15{fill:#3F3F3F;fill-opacity:0;}
</style>
<g id="_x31__x5F_2">
	<polygon id="Floor_1_" class="st0" points="503.8,406.2 503.8,60 231.2,60 231.2,94.9 229.5,100.8 238.6,103.4 225.1,162.1 
		242.7,163.7 242.7,206.5 221.9,296.5 234.7,298.7 237.8,338.3 226.8,397.5 291.9,412.7 294.7,399.1 341.1,398.9 400.3,414 
		403,402.7 448.6,400.3 502.4,414 	"/>
	<g id="Wet_Floor_1_">
		<g>
			<g>
				<g>
					<g>
						<defs>
							<rect id="SVGID_1_" x="408.5" y="142.1" width="87.5" height="133.4"/>
						</defs>
						<clipPath id="SVGID_00000139989657266302241160000008844707849689362065_">
							<use xlink:href="#SVGID_1_"  style="overflow:visible;"/>
						</clipPath>
						<g style="clip-path:url(#SVGID_00000139989657266302241160000008844707849689362065_);">
							<g>
								<line class="st2" x1="139.8" y1="156.8" x2="473.3" y2="-176.7"/>
								<line class="st2" x1="129.4" y1="146.3" x2="462.9" y2="-187.2"/>
								<line class="st2" x1="150.3" y1="167.2" x2="483.7" y2="-166.3"/>
								<line class="st2" x1="160.7" y1="177.6" x2="494.2" y2="-155.9"/>
								<line class="st2" x1="171.1" y1="188" x2="504.6" y2="-145.5"/>
								<line class="st2" x1="181.5" y1="198.4" x2="515" y2="-135"/>
								<line class="st2" x1="191.9" y1="208.9" x2="525.4" y2="-124.6"/>
								<line class="st2" x1="202.4" y1="219.3" x2="535.8" y2="-114.2"/>
								<line class="st2" x1="212.8" y1="229.7" x2="546.3" y2="-103.8"/>
								<line class="st2" x1="223.2" y1="240.1" x2="556.7" y2="-93.4"/>
								<line class="st2" x1="212.8" y1="229.7" x2="546.3" y2="-103.8"/>
								<line class="st2" x1="233.6" y1="250.5" x2="567.1" y2="-82.9"/>
								<line class="st2" x1="244.1" y1="261" x2="577.5" y2="-72.5"/>
								<line class="st2" x1="254.5" y1="271.4" x2="588" y2="-62.1"/>
								<line class="st2" x1="264.9" y1="281.8" x2="598.4" y2="-51.7"/>
								<line class="st2" x1="275.3" y1="292.2" x2="608.8" y2="-41.3"/>
								<line class="st2" x1="285.7" y1="302.7" x2="619.2" y2="-30.8"/>
								<line class="st2" x1="296.2" y1="313.1" x2="629.6" y2="-20.4"/>
								<line class="st2" x1="306.6" y1="323.5" x2="640.1" y2="-10"/>
								<line class="st2" x1="296.2" y1="313.1" x2="629.6" y2="-20.4"/>
								<line class="st2" x1="317" y1="333.9" x2="650.5" y2="0.4"/>
								<line class="st2" x1="327.4" y1="344.3" x2="660.9" y2="10.9"/>
								<line class="st2" x1="337.8" y1="354.8" x2="671.3" y2="21.3"/>
								<line class="st2" x1="348.3" y1="365.2" x2="681.7" y2="31.7"/>
								<line class="st2" x1="358.7" y1="375.6" x2="692.2" y2="42.1"/>
								<line class="st2" x1="369.1" y1="386" x2="702.6" y2="52.5"/>
								<line class="st2" x1="379.5" y1="396.4" x2="713" y2="63"/>
								<line class="st2" x1="389.9" y1="406.9" x2="723.4" y2="73.4"/>
								<line class="st2" x1="379.5" y1="396.4" x2="713" y2="63"/>
								<line class="st2" x1="400.4" y1="417.3" x2="733.9" y2="83.8"/>
								<line class="st2" x1="410.8" y1="427.7" x2="744.3" y2="94.2"/>
								<line class="st2" x1="421.2" y1="438.1" x2="754.7" y2="104.6"/>
								<line class="st2" x1="431.6" y1="448.6" x2="765.1" y2="115.1"/>
								<line class="st2" x1="442.1" y1="459" x2="775.5" y2="125.5"/>
								<line class="st2" x1="452.5" y1="469.4" x2="786" y2="135.9"/>
								<line class="st2" x1="462.9" y1="479.8" x2="796.4" y2="146.3"/>
							</g>
							<g>
								<line class="st2" x1="473.3" y1="469.4" x2="139.8" y2="135.9"/>
								<line class="st2" x1="462.9" y1="479.8" x2="129.4" y2="146.3"/>
								<line class="st2" x1="483.7" y1="459" x2="150.3" y2="125.5"/>
								<line class="st2" x1="494.2" y1="448.6" x2="160.7" y2="115.1"/>
								<line class="st2" x1="504.6" y1="438.1" x2="171.1" y2="104.6"/>
								<line class="st2" x1="515" y1="427.7" x2="181.5" y2="94.2"/>
								<line class="st2" x1="525.4" y1="417.3" x2="191.9" y2="83.8"/>
								<line class="st2" x1="535.8" y1="406.9" x2="202.4" y2="73.4"/>
								<line class="st2" x1="546.3" y1="396.4" x2="212.8" y2="63"/>
								<line class="st2" x1="556.7" y1="386" x2="223.2" y2="52.5"/>
								<line class="st2" x1="546.3" y1="396.4" x2="212.8" y2="63"/>
								<line class="st2" x1="567.1" y1="375.6" x2="233.6" y2="42.1"/>
								<line class="st2" x1="577.5" y1="365.2" x2="244.1" y2="31.7"/>
								<line class="st2" x1="588" y1="354.8" x2="254.5" y2="21.3"/>
								<line class="st2" x1="598.4" y1="344.3" x2="264.9" y2="10.9"/>
								<line class="st2" x1="608.8" y1="333.9" x2="275.3" y2="0.4"/>
								<line class="st2" x1="619.2" y1="323.5" x2="285.7" y2="-10"/>
								<line class="st2" x1="629.6" y1="313.1" x2="296.2" y2="-20.4"/>
								<line class="st2" x1="640.1" y1="302.7" x2="306.6" y2="-30.8"/>
								<line class="st2" x1="629.6" y1="313.1" x2="296.2" y2="-20.4"/>
								<line class="st2" x1="650.5" y1="292.2" x2="317" y2="-41.3"/>
								<line class="st2" x1="660.9" y1="281.8" x2="327.4" y2="-51.7"/>
								<line class="st2" x1="671.3" y1="271.4" x2="337.8" y2="-62.1"/>
								<line class="st2" x1="681.7" y1="261" x2="348.3" y2="-72.5"/>
								<line class="st2" x1="692.2" y1="250.5" x2="358.7" y2="-82.9"/>
								<line class="st2" x1="702.6" y1="240.1" x2="369.1" y2="-93.4"/>
								<line class="st2" x1="713" y1="229.7" x2="379.5" y2="-103.8"/>
								<line class="st2" x1="723.4" y1="219.3" x2="389.9" y2="-114.2"/>
								<line class="st2" x1="713" y1="229.7" x2="379.5" y2="-103.8"/>
								<line class="st2" x1="733.9" y1="208.9" x2="400.4" y2="-124.6"/>
								<line class="st2" x1="744.3" y1="198.4" x2="410.8" y2="-135"/>
								<line class="st2" x1="754.7" y1="188" x2="421.2" y2="-145.5"/>
								<line class="st2" x1="765.1" y1="177.6" x2="431.6" y2="-155.9"/>
								<line class="st2" x1="775.5" y1="167.2" x2="442.1" y2="-166.3"/>
								<line class="st2" x1="786" y1="156.8" x2="452.5" y2="-176.7"/>
								<line class="st2" x1="796.4" y1="146.3" x2="462.9" y2="-187.2"/>
							</g>
						</g>
					</g>
				</g>
			</g>
		</g>
		<g>
			<g>
				<g>
					<g>
						<defs>
							<rect id="SVGID_00000111188663872528775020000000650497435049287610_" x="408.5" y="142.1" width="87.5" height="133.4"/>
						</defs>
						<clipPath id="SVGID_00000005963105229304892650000006515100406141261441_">
							<use xlink:href="#SVGID_00000111188663872528775020000000650497435049287610_"  style="overflow:visible;"/>
						</clipPath>
						<g style="opacity:0.3;clip-path:url(#SVGID_00000005963105229304892650000006515100406141261441_);">
							<rect x="301.8" y="-25.2" class="st4" width="322.2" height="322.2"/>
						</g>
					</g>
				</g>
			</g>
		</g>
	</g>
	<g id="Windows_1_">
		<path class="st5" d="M238.8,102.7L227,153.9l-4.9-1l11.8-51.2L238.8,102.7z"/>
		<path class="st5" d="M242.7,206.5l-19.1,83.1l-4.9-1l19.1-83.1L242.7,206.5z"/>
		<polygon class="st5" points="285.1,416.4 286.4,411.5 226.3,398 241.7,318.8 237.1,317.8 220.4,401.9 222.7,402.3 		"/>
		
			<rect x="364.1" y="378.6" transform="matrix(0.2515 -0.9679 0.9679 0.2515 -120.6386 660.2751)" class="st6" width="4.9" height="59.1"/>
		
			<rect x="469.1" y="381.9" transform="matrix(0.2515 -0.9679 0.9679 0.2515 -42.6926 762.4036)" class="st6" width="4.9" height="53.9"/>
	</g>
	<path id="Doors_1_" class="st5" d="M369.2,273.5c-3.6,0-6.6-0.7-9.9-2s-6.2-3.3-8.5-5.6c-2.6-2.3-4.6-5.3-5.9-8.5
		c-1.3-3.3-2-6.6-2-10.2h26.3 M411.9,240.7c3.6,0,6.6,0.7,9.9,2s6.2,3.3,8.5,5.6c2.6,2.3,4.6,5.3,5.9,8.5c1.3,3.3,2,6.6,2,10.2
		h-26.3 M441.1,145.4c0,3.6,0.7,6.6,2,9.9c1.3,3.3,3.3,6.2,5.6,8.5c2.3,2.6,5.3,4.6,8.5,5.9c3.3,1.3,6.6,2,10.2,2v-26.3 M402,296.5
		c0,3.6-0.7,6.6-2,9.9s-3.3,6.2-5.6,8.5c-2.3,2.6-5.3,4.6-8.5,5.9c-3.3,1.3-6.6,2-10.2,2v-26.3 M503.5,101.5c4.3,0,8.5,1,12.5,2.6
		c3.9,1.6,7.9,3.9,10.8,7.2c3,3,5.6,6.6,7.2,10.5c1.6,3.9,2.6,8.2,2.6,12.5h-33.2"/>
	<g id="Walls">
		<path class="st7" d="M247.7,96.1V76.4h166.1v9.4h12.7v-9.4H494v25.1h9.9V60H231.3v33.9l-2,8.2l16.1,3.6L247.7,96.1z M423.2,82.6
			H417v-6.1h6.2V82.6z"/>
		<polygon class="st7" points="231.2,207.8 250.9,207.8 250.9,155.3 237.8,155.3 221.7,151.6 219.4,161.2 231.2,163.8 		"/>
		<polygon class="st7" points="233.1,289.9 218.4,286.6 216.1,296.2 231.2,299.6 231.2,339.2 250.9,339.2 250.9,289.9 		"/>
		<polygon class="st7" points="286.6,385.2 286.6,403.1 283.3,417.7 292.8,420 296.2,404.9 341.9,404.9 341.9,385.2 		"/>
		<polygon class="st7" points="441.5,388.5 393.7,388.5 393.7,403.1 390.4,417.7 399.9,420 403.3,404.9 439.2,404.9 447.4,406.9 
			451,390.8 		"/>
		<polygon class="st7" points="372.5,247.2 372.5,240.7 243.4,240.7 234.5,238.7 233.9,242 242.7,243.9 369.2,243.9 369.2,247.2 		
			"/>
		<path class="st7" d="M503.9,134.4H494v7.7h-26.8v3.3h16.1v10.8H494v54.9h-82.1v-65.7h29.2v-3.3h-32.5v98.5h3.3v-26.3H494v59.1
			h-82.1v-6.6h-3.3v26.3H402v3.3h9.9v-19.7H494v132.8l-2,8.2l9.5,2.3l2.3-9.5L503.9,134.4z M486.6,152.9v-7.5h7.4v7.5H486.6z"/>
		<polygon class="st7" points="372.5,273.5 369.2,273.5 369.2,397.7 367.2,405.5 370.5,406.2 372.5,398.3 372.5,296.5 375.8,296.5 
			375.8,293.2 372.5,293.2 		"/>
	</g>
	<g id="Furniture">
		<g>
			<g>
				<rect x="430.9" y="317.2" class="st8" width="62.6" height="51.8"/>
				<path class="st9" d="M493,317.7v50.8h-61.6v-50.8H493 M494,316.7h-63.6v52.8H494V316.7L494,316.7z"/>
			</g>
			<rect x="473.7" y="321.2" class="st10" width="15.7" height="20.6"/>
			<rect x="473.7" y="344.4" class="st10" width="15.7" height="20.6"/>
			<polygon class="st11" points="480.2,323.8 484.2,338.7 469,342.7 464.9,327.8 			"/>
			<polygon class="st11" points="469,343.7 484.2,347.7 480.1,362.6 464.9,358.6 			"/>
			<g>
				<polygon class="st8" points="430.2,369 430.2,317.3 476.9,317.3 481.5,348.4 480.2,369 				"/>
				<path class="st9" d="M476.5,317.8l4.5,30.7l-1.3,20.1h-0.1h-48.9v-50.8L476.5,317.8 M477.3,316.8H477h-47.3v52.8h49.9h1
					l1.3-21.1L477.3,316.8L477.3,316.8z"/>
			</g>
			<polyline class="st12" points="479.1,368.8 479.1,348.2 476.4,317.3 			"/>
		</g>
		<g>
			<g>
				<rect x="306" y="301.5" class="st8" width="62.6" height="51.8"/>
				<path class="st9" d="M368.1,302v50.8h-61.6V302H368.1 M369.1,301h-63.6v52.8h63.6V301L369.1,301z"/>
			</g>
			<rect x="348.9" y="305.5" class="st10" width="15.7" height="20.6"/>
			<rect x="348.9" y="328.7" class="st10" width="15.7" height="20.6"/>
			<polygon class="st11" points="355.3,308 359.4,322.9 344.2,326.9 340.1,312 			"/>
			<polygon class="st11" points="344.1,328 359.3,332 355.3,346.9 340.1,342.9 			"/>
			<g>
				<polygon class="st8" points="305.4,353.3 305.4,301.5 352,301.5 356.7,332.7 355.3,353.3 				"/>
				<path class="st9" d="M351.6,302l4.5,30.7l-1.3,20.1h-0.1h-48.9V302H351.6 M352.5,301h-0.3h-47.3v52.8h49.9h1l1.3-21.1L352.5,301
					L352.5,301z"/>
			</g>
			<polyline class="st12" points="354.2,353.1 354.2,332.5 351.6,301.6 			"/>
		</g>
		<g>
			<g>
				<rect x="412.1" y="294.2" class="st8" width="81.3" height="1.8"/>
				<path class="st9" d="M412.6,294.7h80.3v0.8h-80.3L412.6,294.7 M411.6,293.7v2.8h82.3v-2.8H411.6L411.6,293.7z"/>
			</g>
			<g>
				<rect x="412.1" y="277.3" class="st8" width="81.3" height="16.9"/>
				<path class="st9" d="M412.6,277.8H493v15.9h-80.3v-15.9 M411.6,276.8v17.9H494v-17.9H411.6L411.6,276.8z"/>
			</g>
			<path class="st10" d="M493.6,277.4l-81.8,16.7"/>
		</g>
		<g>
			<g>
				<rect x="265.5" y="261.2" class="st8" width="63.7" height="1.8"/>
				<path class="st9" d="M266,261.7h62.7v0.8H266V261.7 M265,260.7v2.8h64.7v-2.8H265L265,260.7z"/>
			</g>
			<g>
				<rect x="265.5" y="244.4" class="st8" width="63.7" height="16.9"/>
				<path class="st9" d="M266,244.9h62.7v15.9H266V244.9 M265,243.9v17.9h64.7v-17.9H265L265,243.9z"/>
			</g>
			<path class="st10" d="M329.4,244.5l-64.3,16.7"/>
		</g>
		<g>
			<g>
				<rect x="409.1" y="128.8" class="st8" width="18.2" height="1.8"/>
				<path class="st9" d="M426.8,129.3v0.8h-17.2v-0.8H426.8 M427.8,128.3h-19.2v2.8h19.2V128.3L427.8,128.3z"/>
			</g>
			<g>
				<rect x="409.1" y="130.7" class="st8" width="18.2" height="11"/>
				<path class="st9" d="M426.8,131.2v10h-17.2v-10H426.8 M427.8,130.2h-19.2v12h19.2V130.2L427.8,130.2z"/>
			</g>
			<path class="st10" d="M409.1,141.6l18.1-10.8"/>
		</g>
		<g>
			<g>
				<rect x="438.1" y="90" class="st8" width="55.4" height="1.8"/>
				<path class="st9" d="M438.6,90.5H493v0.8h-54.4V90.5 M437.6,89.5v2.8H494v-2.8H437.6L437.6,89.5z"/>
			</g>
			<g>
				<rect x="438.1" y="76.9" class="st8" width="55.4" height="13.1"/>
				<path class="st9" d="M493,77.4v12.1h-54.4V77.4H493 M494,76.4h-56.4v14.1H494V76.4L494,76.4z"/>
			</g>
			<path class="st10" d="M493.4,77.1L438,89.9"/>
		</g>
		<g>
			<g>
				<rect x="469.9" y="214.9" class="st8" width="23.6" height="58.1"/>
				<path class="st9" d="M470.4,272.5H493v-57.1h-22.6V272.5 M469.4,273.5v-59.1H494v59.1H469.4L469.4,273.5z"/>
			</g>
			<g>
				<g>
					<path class="st13" d="M481.7,219.8c4.5,0,8,3.9,7.6,8.3c-0.4,4.9-0.9,11.1-0.9,15.8c0,4.6,0.4,10.8,0.9,15.8
						c0.4,4.5-3.1,8.3-7.6,8.3s-8-3.9-7.6-8.3c0.4-4.9,0.9-11.1,0.9-15.8c0-4.6-0.4-10.8-0.9-15.8
						C473.6,223.7,477.2,219.8,481.7,219.8z"/>
					<ellipse class="st13" cx="481.7" cy="227.7" rx="0.9" ry="0.9"/>
				</g>
			</g>
		</g>
		<g>
			<g>
				<rect x="412.4" y="151.9" class="st8" width="13.4" height="20"/>
				<path class="st9" d="M425.2,152.4v19h-12.4v-19H425.2 M426.2,151.4h-14.4v21h14.4V151.4L426.2,151.4z"/>
			</g>
			<g>
				<path class="st8" d="M419,166.1c-2.3,0-4.2-1.9-4.2-4.2s1.9-4.2,4.2-4.2s4.2,1.9,4.2,4.2S421.4,166.1,419,166.1z"/>
				<path class="st9" d="M419,158.3c2,0,3.7,1.7,3.7,3.7s-1.7,3.7-3.7,3.7s-3.7-1.7-3.7-3.7C415.4,159.9,417,158.3,419,158.3
					 M419,157.3c-2.6,0-4.7,2.1-4.7,4.7c0,2.6,2.1,4.7,4.7,4.7s4.7-2.1,4.7-4.7C423.7,159.4,421.6,157.3,419,157.3L419,157.3z"/>
			</g>
		</g>
		<g>
			<path class="st10" d="M270,163v-44.4h32.3V163H270z"/>
			<path class="st10" d="M278,115.9v-0.7c0-4.5,3.6-8.1,8.1-8.1s8.1,3.6,8.1,8.1v0.7H278z"/>
			<path class="st10" d="M279.4,118.6v-3.4c0-3.7,3-6.7,6.7-6.7s6.7,3,6.7,6.7v3.4H279.4z"/>
			<path class="st10" d="M278,165.7v0.7c0,4.5,3.6,8.1,8.1,8.1s8.1-3.6,8.1-8.1v-0.7H278z"/>
			<path class="st10" d="M279.4,163v3.4c0,3.7,3,6.7,6.7,6.7s6.7-3,6.7-6.7V163H279.4z"/>
			<path class="st10" d="M267.3,132.7h-0.7c-4.5,0-8.1,3.6-8.1,8.1s3.6,8.1,8.1,8.1h0.7V132.7z"/>
			<path class="st10" d="M270,134h-3.4c-3.7,0-6.7,3-6.7,6.7s3,6.7,6.7,6.7h3.4V134z"/>
			<path class="st10" d="M304.9,132.7h0.7c4.5,0,8.1,3.6,8.1,8.1s-3.6,8.1-8.1,8.1h-0.7V132.7z"/>
			<path class="st10" d="M302.2,134h3.4c3.7,0,6.7,3,6.7,6.7s-3,6.7-6.7,6.7h-3.4V134z"/>
		</g>
		<g>
			<path class="st10" d="M266.8,372.8l-2.9,14.6l-13.6-0.6l3.6-18.5L266.8,372.8z"/>
			<g>
				
					<rect x="214.9" y="360" transform="matrix(0.191 -0.9816 0.9816 0.191 -166.9583 539.2654)" class="st8" width="57.6" height="21.9"/>
				<path class="st9" d="M238.8,341.2l20.6,4l-10.8,55.6l-20.6-4L238.8,341.2 M238,340l-11.2,57.5l22.5,4.4l11.2-57.5L238,340
					L238,340z"/>
			</g>
			<path class="st12" d="M248.4,370.9l-2.2,11.3 M251.2,370.5l-2.6,13.2l-4-0.8l2.6-13.2L251.2,370.5z"/>
			<path class="st10" d="M252.3,365.8L252.3,365.8c-0.1,0.5-0.6,0.9-1.2,0.8l-1.3-0.3c-0.5-0.1-0.9-0.6-0.8-1.2l0,0
				c0.1-0.5,0.6-0.9,1.2-0.8l1.3,0.3C252.1,364.7,252.4,365.3,252.3,365.8z"/>
			<path class="st10" d="M240.2,371.7c1.8,0.4,3,2.1,2.7,4c-0.4,1.8-2.1,3-4,2.7l-3.3-0.7l1.3-6.6L240.2,371.7z"/>
			<g>
				
					<rect x="217.9" y="373.3" transform="matrix(0.191 -0.9816 0.9816 0.191 -176.9115 533.8859)" class="st8" width="35" height="1.9"/>
				<path class="st9" d="M238.2,357.5l0.9,0.2l-6.5,33.4l-0.9-0.2L238.2,357.5 M237.5,356.3l-6.9,35.3l2.8,0.5l6.9-35.3L237.5,356.3
					L237.5,356.3z"/>
			</g>
			<g>
				
					<rect x="252.6" y="373" transform="matrix(0.191 -0.9816 0.9816 0.191 -161.8732 561.6381)" class="st8" width="14.3" height="12"/>
				<path class="st9" d="M255.6,371.4l10.8,2.1l-2.5,13.1l-10.8-2.1L255.6,371.4 M254.8,370.2l-2.9,15l12.8,2.5l2.9-15L254.8,370.2
					L254.8,370.2z"/>
			</g>
			<g>
				
					<rect x="259.2" y="379.5" transform="matrix(0.191 -0.9816 0.9816 0.191 -157.699 569.3683)" class="st8" width="14.7" height="1.7"/>
				<path class="st9" d="M267.5,373.5l0.7,0.1l-2.6,13.5l-0.7-0.1L267.5,373.5 M266.7,372.4l-3,15.4l2.6,0.5l3-15.4L266.7,372.4
					L266.7,372.4z"/>
			</g>
		</g>
		<g id="Sink_2">
			<g id="Rectangle_16_x5F_11">
				<rect x="412.3" y="217.6" class="st8" width="25.1" height="13.3"/>
				<path class="st9" d="M436.9,218.1v12.3h-24.1v-12.3H436.9 M437.9,217.1h-26.1v14.3h26.1V217.1L437.9,217.1z"/>
			</g>
			<path id="Rectangle_19_x5F_5" class="st10" d="M417.4,224.2L417.4,224.2c0,2.4,2,4.4,4.4,4.4h6.2c2.4,0,4.4-2,4.4-4.4l0,0
				c0-2.4-2-4.4-4.4-4.4h-6.2C419.3,219.9,417.4,221.8,417.4,224.2z"/>
			<circle id="Ellipse_7_x5F_2" class="st10" cx="424.9" cy="222.3" r="0.9"/>
		</g>
		<g id="Sink_2_2_">
			<g id="Rectangle_16_x5F_11_2_">
				<rect x="480.2" y="156.7" class="st8" width="13.3" height="19.8"/>
				<path class="st9" d="M493,157.2V176h-12.3v-18.8H493 M494,156.2h-14.3V177H494V156.2L494,156.2z"/>
			</g>
			<path id="Rectangle_19_x5F_5_2_" class="st10" d="M486.8,159.1L486.8,159.1c-2.4,0-4.4,2-4.4,4.4v6.2c0,2.4,2,4.4,4.4,4.4l0,0
				c2.4,0,4.4-2,4.4-4.4v-6.2C491.2,161,489.2,159.1,486.8,159.1z"/>
			<circle id="Ellipse_7_x5F_2_2_" class="st10" cx="488.8" cy="166.6" r="0.9"/>
		</g>
		<g id="Toilet_2_">
			<g id="Rectangle_21_2_">
				<rect x="448" y="217.6" class="st8" width="11.7" height="3.7"/>
				<path class="st9" d="M459.2,218.1v2.7h-10.7v-2.7H459.2 M460.2,217.1h-12.7v4.7h12.7V217.1L460.2,217.1z"/>
			</g>
			<path id="Rectangle_19_x5F_2_2_" class="st10" d="M449.3,229.9c-0.2,2.6,1.9,4.9,4.5,4.9l0,0c2.6,0,4.7-2.2,4.5-4.9l-0.6-8.4h-8
				L449.3,229.9z"/>
			<path id="Rectangle_18_x5F_13_2_" class="st10" d="M450.8,229.7c-0.2,1.8,1.3,3.4,3.1,3.4l0,0c1.8,0,3.2-1.6,3.1-3.4l-0.4-4.9
				h-5.3L450.8,229.7z"/>
			<ellipse id="Ellipse_6_x5F_2_2_" class="st10" cx="453.9" cy="227.1" rx="0.9" ry="0.9"/>
		</g>
		<g id="Toilet_3_">
			<g id="Rectangle_21_3_">
				<rect x="484.2" y="189.1" class="st8" width="3.7" height="11.7"/>
				<path class="st9" d="M487.4,189.6v10.7h-2.7v-10.7H487.4 M488.4,188.6h-4.7v12.7h4.7V188.6L488.4,188.6z"/>
			</g>
			<path id="Rectangle_19_x5F_2_3_" class="st10" d="M475.6,190.5c-2.6-0.2-4.9,1.9-4.9,4.5l0,0c0,2.6,2.2,4.7,4.9,4.5l8.4-0.6v-8
				L475.6,190.5z"/>
			<path id="Rectangle_18_x5F_13_3_" class="st10" d="M475.8,191.9c-1.8-0.2-3.4,1.3-3.4,3.1l0,0c0,1.8,1.6,3.2,3.4,3.1l4.9-0.4
				v-5.3L475.8,191.9z"/>
			<ellipse id="Ellipse_6_x5F_2_3_" class="st10" cx="478.7" cy="195" rx="0.9" ry="0.9"/>
		</g>
		<g>
			<path class="st10" d="M282.7,197.7c0-0.9-0.7-1.6-1.6-1.6h-16.5v37.7h18.2v-36.1H282.7z"/>
			<path class="st10" d="M311.9,217.2c0-0.9-0.8-1.6-1.7-1.6h-25.8c-0.9,0-1.7,0.7-1.7,1.6v16.5h29.2V217.2z"/>
			<path class="st10" d="M340,217.2c0-0.9-0.7-1.6-1.7-1.6h-24.8c-0.9,0-1.7,0.7-1.7,1.6v16.5H340V217.2z"/>
			<path class="st10" d="M340,214.2h6.1v26h-88.3v-50.6H284v6.5h-19.5v37.7H340V214.2z"/>
		</g>
		<g id="Shower">
			<path id="Rectangle_22" class="st10" d="M412.3,182.5v28.1h28.1v-19.4c0-4.8-3.9-8.7-8.7-8.7L412.3,182.5L412.3,182.5z"/>
			<path id="Rectangle_22_1_" class="st10" d="M414.2,184.3v24.5h24.5v-16.9c0-4.2-3.4-7.6-7.6-7.6H414.2z"/>
			<ellipse id="Ellipse_6_x5F_4" class="st10" cx="419.6" cy="203.4" rx="0.9" ry="0.9"/>
		</g>
		<g>
			<path class="st10" d="M404.7,355v13.9l-12.6,1.9v-17.6L404.7,355z"/>
			<g>
				<rect x="372.9" y="338.1" class="st8" width="20.4" height="49"/>
				<path class="st9" d="M392.8,338.6v48h-19.4v-48H392.8 M393.8,337.6h-21.4v50h21.4V337.6L393.8,337.6z"/>
			</g>
			<path class="st12" d="M387.4,357.2v10.7 M389.9,356.3v12.6h-3.8v-12.6H389.9z"/>
			<path class="st10" d="M390.1,351.1L390.1,351.1c0,0.5-0.4,0.9-0.9,0.9h-1.3c-0.5,0-0.9-0.4-0.9-0.9l0,0c0-0.5,0.4-0.9,0.9-0.9
				h1.3C389.7,350.2,390.1,350.6,390.1,351.1z"/>
			<path class="st10" d="M380,359.5c1.7,0,3.1,1.4,3.1,3.2c0,1.7-1.4,3.1-3.2,3.1h-3.1v-6.3L380,359.5z"/>
			<polygon class="st10" points="378.2,346.2 378.1,379 376.3,379.1 376.5,346.2 			"/>
			<g>
				<rect x="393.7" y="355.2" class="st8" width="11.2" height="13.3"/>
				<path class="st9" d="M404.4,355.7V368h-10.2v-12.3H404.4 M405.4,354.7h-12.2V369h12.2V354.7L405.4,354.7z"/>
			</g>
			<g>
				<rect x="404.9" y="355" class="st8" width="1.8" height="13.7"/>
				<path class="st9" d="M406.2,355.5v12.7h-0.8v-12.7H406.2 M407.2,354.5h-2.8v14.7h2.8V354.5L407.2,354.5z"/>
			</g>
		</g>
		<g>
			<rect x="487.4" y="176.5" class="st8" width="6.1" height="34.1"/>
			<path class="st9" d="M493,177v33.1h-5.1V177H493 M494,176h-7.1v35.1h7.1V176L494,176z"/>
		</g>
		<g id="Kitchen_1_">
			<g id="Rectangle_24_1_">
				<rect x="354.3" y="76.9" class="st8" width="58.9" height="18.3"/>
				<path class="st9" d="M412.7,77.4v17.3h-57.9V77.4H412.7 M413.7,76.4h-59.9v19.3h59.9V76.4L413.7,76.4z"/>
			</g>
			<g id="Rectangle_26_1_">
				<rect x="278.3" y="76.9" class="st8" width="134.7" height="18.3"/>
				<path class="st9" d="M412.6,77.4v17.3H278.8V77.4L412.6,77.4 M413.6,76.4H277.8v19.3h135.7L413.6,76.4L413.6,76.4z"/>
			</g>
			<g id="Rectangle_27_1_">
				<rect x="394.8" y="76.9" class="st8" width="18.3" height="18.3"/>
				<path class="st9" d="M412.6,77.4v17.3h-17.3V77.4H412.6 M413.6,76.4h-19.3v19.3h19.3V76.4L413.6,76.4z"/>
			</g>
			<g id="Sink_3_1_">
				<rect id="Rectangle_28_x5F_2_1_" x="358.3" y="78.8" class="st10" width="22.9" height="14.5"/>
				<path id="Rectangle_29_x5F_2_1_" class="st10" d="M372.2,86.1L372.2,86.1c0,3-2.4,5.4-5.4,5.4h-1.2c-3,0-5.4-2.4-5.4-5.4l0,0
					c0-3,2.4-5.4,5.4-5.4h1.2C369.8,80.6,372.2,83.1,372.2,86.1z"/>
				<ellipse id="Ellipse_7_x5F_3_1_" class="st10" cx="366.2" cy="83.7" rx="0.9" ry="0.9"/>
				<path id="Vector_2_1_" class="st12" d="M380,80.6h-6 M380,82.5h-6 M380,84.3h-6 M380,86.1h-6 M380,87.9h-6 M380,89.7h-6
					 M380,91.5h-6"/>
			</g>
			<g id="Stove_1_">
				<g id="Rectangle_25_1_">
					<rect x="301.1" y="76.9" class="st8" width="17.8" height="18.3"/>
					<path class="st9" d="M318.4,77.4v17.3h-16.8V77.4H318.4 M319.4,76.4h-18.8v19.3h18.8V76.4L319.4,76.4z"/>
				</g>
				<g id="Rectangle_28_x5F_3">
					<rect x="301.1" y="76.9" class="st8" width="17.8" height="1.8"/>
					<path class="st9" d="M318.4,77.4v0.8h-16.8v-0.8H318.4 M319.4,76.4h-18.8v2.8h18.8V76.4L319.4,76.4z"/>
				</g>
				<g id="Ellipse_7_x5F_4_1_">
					<path class="st8" d="M314.2,85.3c-0.9,0-1.7-0.7-1.7-1.7s0.7-1.7,1.7-1.7s1.7,0.7,1.7,1.7S315.1,85.3,314.2,85.3z"/>
					<path class="st9" d="M314.2,82.5c0.6,0,1.2,0.5,1.2,1.2s-0.5,1.2-1.2,1.2c-0.6,0-1.2-0.5-1.2-1.2S313.5,82.5,314.2,82.5
						 M314.2,81.5c-1.2,0-2.2,1-2.2,2.2s1,2.2,2.2,2.2s2.2-1,2.2-2.2C316.3,82.5,315.3,81.5,314.2,81.5L314.2,81.5z"/>
				</g>
				<g id="Ellipse_9_1_">
					<path class="st8" d="M314.2,92.3c-1.2,0-2.2-1-2.2-2.2s1-2.2,2.2-2.2s2.2,1,2.2,2.2S315.4,92.3,314.2,92.3z"/>
					<path class="st9" d="M314.2,88.4c0.9,0,1.7,0.8,1.7,1.7s-0.8,1.7-1.7,1.7s-1.7-0.8-1.7-1.7S313.2,88.4,314.2,88.4 M314.2,87.4
						c-1.5,0-2.7,1.2-2.7,2.7s1.2,2.7,2.7,2.7s2.7-1.2,2.7-2.7S315.6,87.4,314.2,87.4L314.2,87.4z"/>
				</g>
				<g id="Ellipse_10_1_">
					<path class="st8" d="M306.6,85.9c-1.2,0-2.2-1-2.2-2.2s1-2.2,2.2-2.2s2.2,1,2.2,2.2S307.8,85.9,306.6,85.9z"/>
					<path class="st9" d="M306.6,82c0.9,0,1.7,0.8,1.7,1.7s-0.8,1.7-1.7,1.7s-1.7-0.8-1.7-1.7S305.7,82,306.6,82 M306.6,81
						c-1.5,0-2.7,1.2-2.7,2.7s1.2,2.7,2.7,2.7s2.7-1.2,2.7-2.7S308.1,81,306.6,81L306.6,81z"/>
				</g>
				<g id="Ellipse_8_1_">
					<path class="st8" d="M306.6,92.3c-0.9,0-1.7-0.7-1.7-1.7s0.7-1.7,1.7-1.7s1.7,0.7,1.7,1.7S307.5,92.3,306.6,92.3z"/>
					<path class="st9" d="M306.6,89.5c0.6,0,1.2,0.5,1.2,1.2s-0.5,1.2-1.2,1.2c-0.6,0-1.2-0.5-1.2-1.2S306,89.5,306.6,89.5
						 M306.6,88.5c-1.2,0-2.2,1-2.2,2.2s1,2.2,2.2,2.2s2.2-1,2.2-2.2C308.8,89.5,307.8,88.5,306.6,88.5L306.6,88.5z"/>
				</g>
			</g>
			<path id="Vector_3_1_" class="st12" d="M406.3,86.1h-4.8 M405.1,88.2l-2.4-4.2 M405.1,84l-2.4,4.2"/>
		</g>
		<g>
			<rect x="412.4" y="214.9" class="st8" width="57.5" height="2.7"/>
			<path class="st9" d="M469.4,215.4v1.7h-56.5v-1.7H469.4 M470.4,214.4h-58.5v3.7h58.5V214.4L470.4,214.4z"/>
		</g>
	</g>
	<g id="street_anchors" class="st14">
		<rect id="street_x5F_anchor_x5F_02" x="355" y="450" class="st15" width="10" height="10"/>
		<rect id="street_x5F_anchor_x5F_01_1_" x="176.1" y="235" class="st15" width="10" height="10"/>
	</g>
</g>
<g id="комнаты">
	<g>
		<g>
			<path class="st7" d="M369,141.3c0-1.4,0.9-2.1,1.9-2.5c0.3-0.1,0.8-0.3,0.8-0.8c0-0.4-0.4-0.6-0.7-0.6c-0.6,0-1,0.4-1.5,0.9
				l-0.6-0.9c0.6-0.6,1.1-1.1,2-1.1c0.9,0,1.8,0.5,1.8,1.7c0,1.3-1,1.7-1.7,2c-0.6,0.3-1,0.6-1,1.1v0.1h2.6v1.1H369V141.3z"/>
			<path class="st7" d="M375.4,138.7h0.7c0.3,0,0.6-0.2,0.6-0.6c0-0.5-0.4-0.7-0.8-0.7c-0.5,0-1.1,0.4-1.5,0.9l-0.6-0.9
				c0.5-0.6,1.2-1.2,2.1-1.2c0.8,0,1.8,0.4,1.8,1.7c0,0.5-0.3,0.9-0.5,1.1c0.4,0.2,0.8,0.6,0.8,1.4c0,1.3-1,2-2.3,2
				c-0.9,0-1.6-0.4-2.3-1.2l0.6-0.9c0.4,0.6,1,1,1.7,1c0.7,0,1.2-0.4,1.2-1c0-0.5-0.4-0.6-0.7-0.6h-0.9V138.7z"/>
			<path class="st7" d="M379.6,140.6c0.4,0,0.7,0.4,0.7,0.9c0,0.5-0.3,0.9-0.7,0.9c-0.4,0-0.7-0.4-0.7-0.9
				C378.9,141,379.2,140.6,379.6,140.6z"/>
			<path class="st7" d="M382.9,138.7h0.7c0.3,0,0.6-0.2,0.6-0.6c0-0.5-0.4-0.7-0.8-0.7c-0.5,0-1.1,0.4-1.5,0.9l-0.6-0.9
				c0.5-0.6,1.2-1.2,2.1-1.2c0.8,0,1.8,0.4,1.8,1.7c0,0.5-0.3,0.9-0.5,1.1c0.4,0.2,0.8,0.6,0.8,1.4c0,1.3-1,2-2.3,2
				c-0.9,0-1.6-0.4-2.3-1.2l0.6-0.9c0.4,0.6,1,1,1.7,1c0.7,0,1.2-0.4,1.2-1c0-0.5-0.4-0.6-0.7-0.6h-0.9V138.7z"/>
		</g>
	</g>
	<g>
		<g>
			<path class="st7" d="M455.7,112.7h-0.8v1.2h-1v-1.2h-3v-0.8l3.1-3.7h0.9v3.5h0.8V112.7z M452.3,111.7h1.6v-1.9h-0.1
				C453.3,110.4,452.7,111,452.3,111.7L452.3,111.7z"/>
			<path class="st7" d="M457.1,112.3c0.4,0,0.7,0.4,0.7,0.9c0,0.5-0.3,0.9-0.7,0.9c-0.4,0-0.7-0.4-0.7-0.9
				C456.4,112.7,456.7,112.3,457.1,112.3z"/>
			<path class="st7" d="M460.5,110.4h0.7c0.3,0,0.6-0.2,0.6-0.6c0-0.5-0.4-0.7-0.8-0.7c-0.5,0-1.1,0.4-1.5,0.9l-0.6-0.9
				c0.5-0.6,1.2-1.2,2.1-1.2c0.8,0,1.8,0.4,1.8,1.7c0,0.5-0.3,0.9-0.5,1.1c0.4,0.2,0.8,0.6,0.8,1.4c0,1.3-1,2-2.3,2
				c-0.9,0-1.6-0.4-2.3-1.2l0.6-0.9c0.4,0.6,1,1,1.7,1c0.7,0,1.2-0.4,1.2-1c0-0.5-0.4-0.6-0.7-0.6h-0.9V110.4z"/>
		</g>
	</g>
	<g>
		<g>
			<path class="st7" d="M451.8,180.7H451v1.2h-1v-1.2h-3v-0.8l3.1-3.7h0.9v3.5h0.8V180.7z M448.4,179.6h1.6v-1.9h-0.1
				C449.4,178.3,448.9,179,448.4,179.6L448.4,179.6z"/>
			<path class="st7" d="M453.3,180.3c0.4,0,0.7,0.4,0.7,0.9c0,0.5-0.3,0.9-0.7,0.9c-0.4,0-0.7-0.4-0.7-0.9
				C452.6,180.7,452.9,180.3,453.3,180.3z"/>
			<path class="st7" d="M454.9,180.9c0-1.4,0.9-2.1,1.9-2.5c0.3-0.1,0.8-0.3,0.8-0.8c0-0.4-0.4-0.6-0.7-0.6c-0.6,0-1,0.4-1.5,0.9
				l-0.6-0.9c0.6-0.6,1.1-1.1,2-1.1c0.9,0,1.8,0.5,1.8,1.7c0,1.3-1,1.7-1.7,2c-0.6,0.3-1,0.6-1,1.1v0.1h2.6v1.1h-3.7V180.9z"/>
		</g>
	</g>
	<g>
		<g>
			<path class="st7" d="M449,246h-0.8v1.2h-1V246h-3v-0.8l3.1-3.7h0.9v3.5h0.8V246z M445.6,245h1.6v-1.9h-0.1
				C446.6,243.7,446.1,244.3,445.6,245L445.6,245z"/>
		</g>
	</g>
	<g>
		<g>
			<path class="st7" d="M277.7,303.7l1.3-0.8h0.9v5.8h-1v-4.5l-1,0.6L277.7,303.7z"/>
			<path class="st7" d="M281.1,303h4v1.1l-2.3,4.7h-1.3l2.4-4.6h-2.8V303z"/>
			<path class="st7" d="M286.6,307.2c0.4,0,0.7,0.4,0.7,0.9c0,0.5-0.3,0.9-0.7,0.9c-0.4,0-0.7-0.4-0.7-0.9
				C285.9,307.6,286.2,307.2,286.6,307.2z"/>
			<path class="st7" d="M287.9,303.7l1.3-0.8h0.9v5.8h-1v-4.5l-1,0.6L287.9,303.7z"/>
		</g>
	</g>
	<g>
		<g>
			<path class="st7" d="M397.6,330.5l1.3-0.8h0.9v5.8h-1V331l-1,0.6L397.6,330.5z"/>
			<path class="st7" d="M400.8,330.5l1.3-0.8h0.9v5.8h-1V331l-1,0.6L400.8,330.5z"/>
			<path class="st7" d="M405,333.9c0.4,0,0.7,0.4,0.7,0.9c0,0.5-0.3,0.9-0.7,0.9c-0.4,0-0.7-0.4-0.7-0.9
				C404.3,334.3,404.6,333.9,405,333.9z"/>
			<path class="st7" d="M406.5,333.8c0-0.8,0.4-1.3,0.9-1.5c-0.4-0.2-0.7-0.6-0.7-1.2c0-1.1,1.1-1.6,2-1.6c0.9,0,2,0.5,2,1.7
				c0,0.6-0.2,0.9-0.7,1.1c0.5,0.2,0.9,0.7,0.9,1.5c0,1.2-1.1,1.9-2.2,1.9C407.6,335.7,406.5,335,406.5,333.8z M409.9,333.7
				c0-0.6-0.6-0.8-1.1-0.8c-0.5,0-1.1,0.3-1.1,0.8c0,0.5,0.6,0.9,1.1,0.9C409.3,334.6,409.9,334.3,409.9,333.7z M409.6,331.3
				c0-0.5-0.5-0.7-0.9-0.7c-0.4,0-0.9,0.2-0.9,0.7c0,0.4,0.3,0.6,0.9,0.6C409.3,331.9,409.6,331.7,409.6,331.3z"/>
		</g>
	</g>
	<g>
		<g>
			<path class="st7" d="M384.3,258l1.3-0.8h0.9v5.8h-1v-4.5l-1,0.6L384.3,258z"/>
			<path class="st7" d="M388.5,261.5c0.4,0,0.7,0.4,0.7,0.9c0,0.5-0.3,0.9-0.7,0.9c-0.4,0-0.7-0.4-0.7-0.9
				C387.8,261.9,388.1,261.5,388.5,261.5z"/>
			<path class="st7" d="M390,257.3h4v1.1l-2.3,4.7h-1.3l2.4-4.6H390V257.3z"/>
		</g>
	</g>
</g>
</svg>
