<svg width="680" height="99" viewBox="0 0 680 99" fill="none" xmlns="http://www.w3.org/2000/svg">
<path d="M49.0031 99C62.7447 99 74.4121 94.2055 84.0053 84.4869C93.7281 74.7683 98.5248 63.106 98.5248 49.5C98.5248 35.894 93.7281 24.2317 84.0053 14.5131C74.4121 4.7945 62.8743 0 49.2624 0C35.6504 0 23.983 4.92408 14.3898 14.6427C4.7966 24.3613 0 36.0236 0 49.7592C0 63.3652 4.7966 75.0275 14.2602 84.6165C23.7237 94.2055 35.3911 99 49.0031 99ZM49.2624 91.3547C37.7246 91.3547 27.8721 87.3377 19.9642 79.3037C12.0563 71.1401 8.03755 61.2919 8.03755 49.6296C8.03755 37.9673 12.0563 28.1191 19.9642 19.9555C28.0018 11.7919 37.7246 7.64529 49.2624 7.64529C60.8001 7.64529 70.523 11.6623 78.4309 19.8259C86.3388 27.9895 90.3576 37.8377 90.3576 49.6296C90.3576 61.2919 86.3388 71.1401 78.4309 79.3037C70.523 87.3377 60.8001 91.3547 49.2624 91.3547Z" fill="#E9E4DC"/>
<path d="M147.842 97.445V9.20026H201.253V97.445H209.16V1.68456H139.804V97.445H147.842Z" fill="#E9E4DC"/>
<path d="M230.201 1.68456V97.445H238.109V60.2552H258.592C268.833 60.2552 276.612 57.4044 282.056 51.7029C287.631 45.8717 290.353 39.0039 290.353 30.9699C290.353 23.0654 287.761 16.1976 282.445 10.3665C277.26 4.53534 269.741 1.68456 259.759 1.68456H230.201ZM238.109 52.8691V9.20026H260.148C273.76 9.20026 282.316 18.2709 282.316 30.8403C282.316 43.4097 273.371 52.8691 258.722 52.8691H238.109Z" fill="#E9E4DC"/>
<path d="M344.886 99C358.628 99 370.295 94.2055 379.888 84.4869C389.611 74.7683 394.408 63.106 394.408 49.5C394.408 35.894 389.611 24.2317 379.888 14.5131C370.295 4.7945 358.757 0 345.146 0C331.534 0 319.866 4.92408 310.273 14.6427C300.68 24.3613 295.883 36.0236 295.883 49.7592C295.883 63.3652 300.68 75.0275 310.143 84.6165C319.607 94.2055 331.274 99 344.886 99ZM345.146 91.3547C333.608 91.3547 323.755 87.3377 315.847 79.3037C307.939 71.1401 303.921 61.2919 303.921 49.6296C303.921 37.9673 307.939 28.1191 315.847 19.9555C323.885 11.7919 333.608 7.64529 345.146 7.64529C356.683 7.64529 366.406 11.6623 374.314 19.8259C382.222 27.9895 386.241 37.8377 386.241 49.6296C386.241 61.2919 382.222 71.1401 374.314 79.3037C366.406 87.3377 356.683 91.3547 345.146 91.3547Z" fill="#E9E4DC"/>
<path d="M466.791 97.445V89.9293H416.751V52.6099H463.161V45.2238H416.751V9.20026H466.532V1.68456H408.843V97.445H466.791Z" fill="#E9E4DC"/>
<path d="M550.484 97.445L508.481 46.9084L546.854 1.68456H537.261L489.424 57.6636V1.68456H481.516V97.445H489.424V68.678L503.166 52.6099L540.372 97.445H550.484Z" fill="#E9E4DC"/>
<path d="M575.245 97.445H583.153V9.32985H612.191V1.68456H546.206V9.32985H575.245V97.445Z" fill="#E9E4DC"/>
<path d="M680 97.445V89.9293H629.96V52.6099H676.37V45.2238H629.96V9.20026H679.741V1.68456H622.052V97.445H680Z" fill="#E9E4DC"/>
</svg>
