<svg width="1380" height="201" viewBox="0 0 1380 201" fill="none" xmlns="http://www.w3.org/2000/svg">
<path d="M99.4475 201C127.335 201 151.013 191.266 170.481 171.534C190.213 151.802 199.947 128.124 199.947 100.5C199.947 72.8757 190.213 49.1976 170.481 29.466C151.013 9.73429 127.598 0 99.9736 0C72.3493 0 48.6714 9.99738 29.2028 29.729C9.73428 49.4607 0 73.1387 0 101.026C0 128.651 9.73428 152.329 28.9397 171.797C48.1452 191.266 71.8232 201 99.4475 201ZM99.9736 185.478C76.5588 185.478 56.564 177.322 40.5156 161.01C24.4672 144.436 16.3115 124.441 16.3115 100.763C16.3115 77.0851 24.4672 57.0903 40.5156 40.5157C56.8271 23.9411 76.5588 15.5223 99.9736 15.5223C123.389 15.5223 143.12 23.678 159.169 40.2526C175.217 56.8272 183.373 76.822 183.373 100.763C183.373 124.441 175.217 144.436 159.169 161.01C143.12 177.322 123.389 185.478 99.9736 185.478Z" fill="#E9E4DC"/>
<path d="M300.032 197.843V18.6793H408.424V197.843H424.473V3.42016H283.72V197.843H300.032Z" fill="#E9E4DC"/>
<path d="M467.173 3.42016V197.843H483.222V122.336H524.79C545.574 122.336 561.359 116.548 572.409 104.973C583.721 93.1335 589.246 79.1898 589.246 62.8783C589.246 46.8298 583.985 32.8861 573.198 21.0471C562.674 9.20812 547.415 3.42016 527.157 3.42016H467.173ZM483.222 107.34V18.6793H527.947C555.571 18.6793 572.935 37.0956 572.935 62.6152C572.935 88.1348 554.782 107.34 525.053 107.34H483.222Z" fill="#E9E4DC"/>
<path d="M699.916 201C727.804 201 751.482 191.266 770.95 171.534C790.682 151.802 800.416 128.124 800.416 100.5C800.416 72.8757 790.682 49.1976 770.95 29.466C751.482 9.73429 728.067 0 700.442 0C672.818 0 649.14 9.99738 629.672 29.729C610.203 49.4607 600.469 73.1387 600.469 101.026C600.469 128.651 610.203 152.329 629.408 171.797C648.614 191.266 672.292 201 699.916 201ZM700.442 185.478C677.027 185.478 657.033 177.322 640.984 161.01C624.936 144.436 616.78 124.441 616.78 100.763C616.78 77.0851 624.936 57.0903 640.984 40.5157C657.296 23.9411 677.027 15.5223 700.442 15.5223C723.857 15.5223 743.589 23.678 759.637 40.2526C775.686 56.8272 783.841 76.822 783.841 100.763C783.841 124.441 775.686 144.436 759.637 161.01C743.589 177.322 723.857 185.478 700.442 185.478Z" fill="#E9E4DC"/>
<path d="M947.312 197.843V182.584H845.76V106.814H939.945V91.8181H845.76V18.6793H946.786V3.42016H829.711V197.843H947.312Z" fill="#E9E4DC"/>
<path d="M1117.16 197.843L1031.92 95.2382L1109.79 3.42016H1090.32L993.243 117.075V3.42016H977.195V197.843H993.243V139.437L1021.13 106.814L1096.64 197.843H1117.16Z" fill="#E9E4DC"/>
<path d="M1167.41 197.843H1183.46V18.9424H1242.39V3.42016H1108.48V18.9424H1167.41V197.843Z" fill="#E9E4DC"/>
<path d="M1380 197.843V182.584H1278.45V106.814H1372.63V91.8181H1278.45V18.6793H1379.47V3.42016H1262.4V197.843H1380Z" fill="#E9E4DC"/>
</svg>
