<!-- DO NOT EDIT THIS, THIS FILE IS GENERATED FROM "plan-c2.original.svg" using transform-svgs.js script -->
<svg width="3201" height="1600" viewBox="0 0 3201 1600" fill="none" xmlns="http://www.w3.org/2000/svg">
<g>
<path data-nr="c2-3" class="plan__svg__hoverable" opacity="0.6" d="M1443.27 1451.21H1328.81V1476.51H1323.99V1483.13H1328.81H1443.27L1511.95 1482.53H1523.39H1590.26L1757.73 1481.33V1451.21H1589.66H1523.39H1511.95H1443.27Z" fill="#A8977D"/>
<path data-nr="c2-4" class="plan__svg__hoverable" opacity="0.6" d="M1443.27 1419.88H1328.81V1444.58H1323.99V1451.2H1328.81H1443.27H1511.95H1523.39H1590.26H1757.73V1421.08L1589.66 1419.88L1523.39 1420.48H1511.95L1443.27 1419.88Z" fill="#E9E4DC"/>
<path data-nr="c2-5" class="plan__svg__hoverable" opacity="0.6" d="M1443.27 1387.95L1328.81 1389.16V1413.25H1323.99V1419.88H1328.81H1443.27L1511.95 1420.48H1523.39L1590.26 1419.88L1757.73 1421.08V1390.96L1590.26 1388.55H1523.39H1511.95L1443.27 1387.95Z" fill="#A8977D"/>
<path data-nr="c2-6" class="plan__svg__hoverable" opacity="0.6" d="M1443.27 1356.63L1328.81 1357.83V1382.53H1323.99V1389.16H1328.81L1443.27 1387.95L1511.95 1388.55H1523.39H1590.26L1757.73 1390.96V1359.64L1590.26 1357.23H1523.39H1511.95L1443.27 1356.63Z" fill="#E9E4DC"/>
<path data-nr="c2-7" class="plan__svg__hoverable" opacity="0.6" d="M1443.27 1325.3L1328.81 1326.51V1351.2H1323.99V1358.43H1328.81V1357.83L1443.27 1356.63L1511.95 1357.23H1523.39H1590.26L1757.73 1359.64V1328.31L1590.26 1325.3L1523.39 1325.9H1511.95L1443.27 1325.3Z" fill="#A8977D"/>
<path data-nr="c2-8" class="plan__svg__hoverable" opacity="0.6" d="M1443.27 1293.98L1328.81 1295.18V1319.88H1323.99V1327.11H1328.81V1326.51L1443.27 1325.3L1511.95 1325.9H1523.39L1590.26 1325.3L1757.73 1328.31V1296.99L1590.26 1293.98L1523.39 1294.58H1511.95L1443.27 1293.98Z" fill="#E9E4DC"/>
<path data-nr="c2-9" class="plan__svg__hoverable" opacity="0.6" d="M1443.27 1262.05L1328.81 1263.86V1288.55H1323.99V1296.39H1328.81V1295.18L1443.27 1293.98L1511.95 1294.58H1523.39L1590.26 1293.98L1757.73 1296.99V1268.67L1590.26 1261.45L1523.39 1263.25H1511.95L1443.27 1262.05Z" fill="#A8977D"/>
<path data-nr="c2-10" class="plan__svg__hoverable" opacity="0.6" d="M1443.27 1228.92L1328.81 1231.33V1257.23H1323.99V1265.06H1328.81V1263.86L1443.27 1262.05L1511.95 1263.25H1523.39L1590.26 1261.45L1757.73 1268.67V1237.35L1590.26 1229.52L1523.39 1230.12V1231.93H1511.95L1443.27 1228.92Z" fill="#E9E4DC"/>
<path data-nr="c2-11" class="plan__svg__hoverable" opacity="0.6" d="M1443.27 1196.99L1328.81 1200V1224.7H1323.99V1232.53H1328.81V1231.33L1443.27 1228.92L1511.95 1231.93H1523.39V1230.12L1590.26 1229.52L1757.73 1237.35V1206.63L1590.26 1196.99L1523.39 1198.8V1200.6H1511.95L1443.27 1196.99Z" fill="#A8977D"/>
<path data-nr="c2-12" class="plan__svg__hoverable" opacity="0.6" d="M1443.27 1165.66L1328.81 1169.28V1193.37H1323.99V1201.2H1328.81V1200L1443.27 1196.99L1511.95 1200.6H1523.39V1198.8L1590.26 1196.99L1757.73 1206.63V1176.51L1590.26 1165.66L1523.39 1168.07V1169.88H1511.95L1443.27 1165.66Z" fill="#E9E4DC"/>
<path data-nr="c2-13" class="plan__svg__hoverable" opacity="0.6" d="M1443.27 1134.34L1328.81 1137.95V1162.65H1323.99V1170.48H1328.81V1169.28L1443.27 1165.66L1511.95 1169.88H1523.39V1168.07L1590.26 1165.66L1757.73 1176.51V1145.78L1590.26 1134.34L1523.39 1136.14V1138.55H1511.95L1443.27 1134.34Z" fill="#A8977D"/>
<path data-nr="c2-14" class="plan__svg__hoverable" opacity="0.6" d="M1443.27 1102.41L1328.81 1106.63V1131.93H1323.99V1139.16H1328.81V1137.95L1443.27 1134.34L1511.95 1138.55H1523.39V1136.14L1590.26 1134.34L1757.73 1145.78V1115.66L1590.26 1102.41L1523.39 1104.22V1107.23H1511.95L1443.27 1102.41Z" fill="#E9E4DC"/>
<path data-nr="c2-15" class="plan__svg__hoverable" opacity="0.6" d="M1443.27 1071.08L1328.81 1075.9V1100.6H1323.99V1107.83H1328.81V1106.63L1443.27 1102.41L1511.95 1107.23H1523.39V1104.22L1590.26 1102.41L1757.73 1115.66V1084.94L1590.26 1071.08L1523.39 1073.49V1076.51H1511.95L1443.27 1071.08Z" fill="#A8977D"/>
<path data-nr="c2-16" class="plan__svg__hoverable" opacity="0.6" d="M1443.27 1039.16L1328.81 1044.58V1069.88H1323.99V1077.11H1328.81V1075.9L1443.27 1071.08L1511.95 1076.51H1523.39V1073.49L1590.26 1071.08L1757.73 1084.94V1054.82L1590.26 1039.76L1523.39 1042.17V1045.18H1511.95L1443.27 1039.16Z" fill="#E9E4DC"/>
<path data-nr="c2-17" class="plan__svg__hoverable" opacity="0.6" d="M1443.27 1007.83L1328.81 1013.25V1038.55H1323.99V1045.78H1328.81V1044.58L1443.27 1039.16L1511.95 1045.18H1523.39V1042.17L1590.26 1039.76L1757.73 1054.82V1024.1L1590.26 1007.83L1523.39 1010.84V1014.46H1511.95L1443.27 1007.83Z" fill="#A8977D"/>
<path data-nr="c2-18" class="plan__svg__hoverable" opacity="0.6" d="M1443.27 975.904L1328.81 981.928V1007.23H1323.99V1014.46H1328.81V1013.25L1443.27 1007.83L1511.95 1014.46H1523.39V1010.84L1590.26 1007.83L1757.73 1024.1V993.373L1590.26 975.904L1523.39 979.518V983.132H1511.95L1443.27 975.904Z" fill="#E9E4DC"/>
<path data-nr="c2-19" class="plan__svg__hoverable" opacity="0.6" d="M1443.27 944.578L1328.81 950.602V975.904H1323.99V983.133H1328.81V981.928L1443.27 975.904L1511.95 983.133H1523.39V979.518L1590.26 975.904L1757.73 993.374V962.048L1590.26 944.578L1523.39 948.193V951.807H1511.95L1443.27 944.578Z" fill="#A8977D"/>
<path data-nr="c2-20" class="plan__svg__hoverable" opacity="0.6" d="M1443.27 913.253L1328.81 919.277V944.578H1323.99V951.807H1328.81V950.602L1443.27 944.578L1511.95 951.807H1523.39V948.193L1590.26 944.578L1757.73 962.048V932.53L1590.26 913.253L1523.39 916.265V920.482H1511.95L1443.27 913.253Z" fill="#E9E4DC"/>
<path data-nr="c2-21" class="plan__svg__hoverable" opacity="0.6" d="M1443.27 881.928L1328.81 888.554V913.855H1323.99V921.084H1328.81V919.277L1443.27 913.253L1511.95 920.482H1523.39V916.265L1590.26 913.253L1757.73 932.53V902.41L1590.26 881.325L1523.39 884.94V889.157H1511.95L1443.27 881.928Z" fill="#A8977D"/>
<path data-nr="c2-22" class="plan__svg__hoverable" opacity="0.6" d="M1443.27 850L1328.81 856.627V883.133H1323.99V890.362H1328.81V888.554L1443.27 881.928L1511.95 889.157H1523.39V884.94L1590.26 881.325L1757.73 902.41V869.277L1590.26 846.988L1523.39 850.602V857.831H1511.95L1443.27 850Z" fill="#E9E4DC"/>
<path data-nr="c2-23" class="plan__svg__hoverable" opacity="0.6" d="M1443.27 818.072L1335.44 824.096V833.735H1333.63V843.373L1322.19 844.578V858.434H1328.81V856.626L1443.27 850L1511.95 857.831H1523.39V850.602L1590.26 846.988L1757.73 869.277V838.554L1590.26 815.663L1523.39 819.879V825.301H1511.95L1443.27 818.072Z" fill="#A8977D"/>
<path data-nr="c2-24" class="plan__svg__hoverable" opacity="0.6" d="M1445.08 788.554L1335.44 796.988V824.096L1443.27 818.072L1511.95 825.301H1523.39V819.88L1590.26 815.663L1757.73 838.554V808.434L1590.26 784.337L1523.39 788.554V796.386H1511.95L1445.08 788.554Z" fill="#E9E4DC"/>
<path data-nr="c2-25" class="plan__svg__hoverable" opacity="0.6" d="M1443.27 752.41L1328.81 761.446V786.145H1322.19V798.795H1335.44V796.988L1445.08 788.554L1511.95 796.386H1523.39V788.554L1590.26 784.337L1757.73 808.434V778.313L1590.26 752.41L1523.39 757.229V762.651H1511.95L1443.27 752.41Z" fill="#A8977D"/>
<path data-nr="c2-26" class="plan__svg__hoverable" opacity="0.6" d="M1443.27 720.482L1328.81 730.12V755.422H1323.99V762.048H1328.81V761.446L1443.27 752.41L1511.95 762.651H1523.39V757.229L1590.26 752.41L1757.73 778.313V748.193L1590.26 720.482L1523.39 725.301V731.325H1511.95L1443.27 720.482Z" fill="#E9E4DC"/>
<path data-nr="c2-27" class="plan__svg__hoverable" opacity="0.6" d="M1443.27 689.156L1328.81 698.795V724.096H1323.99V730.723H1328.81V730.12L1443.27 721.084L1511.95 731.325H1523.39V725.301L1590.26 720.482L1757.73 748.193V716.867L1590.26 689.156L1523.39 693.976V700H1511.95L1443.27 689.156Z" fill="#A8977D"/>
<path data-nr="c2-28" class="plan__svg__hoverable" opacity="0.6" d="M1443.27 657.831L1328.81 667.47V692.771H1323.99V700H1328.81V698.795L1443.27 689.157L1511.95 700H1523.39V693.976L1590.26 689.157L1757.73 716.868V686.145L1590.26 657.229L1523.39 662.651V668.675H1511.95L1443.27 657.831Z" fill="#E9E4DC"/>
<path data-nr="c2-29" class="plan__svg__hoverable" opacity="0.6" d="M1443.27 625.904L1328.81 636.747V662.048H1323.99V668.675H1328.81V667.47L1443.27 657.831L1511.95 668.675H1523.39V662.651L1590.26 657.229L1757.73 686.145V656.024L1590.26 625.904L1523.39 631.325V637.952H1511.95L1443.27 625.904Z" fill="#A8977D"/>
<path data-nr="c2-30" class="plan__svg__hoverable" opacity="0.6" d="M1443.27 594.578L1328.81 605.422V631.325H1323.99V637.952H1328.81V636.747L1443.27 625.904L1511.95 637.952H1523.39V631.325L1590.26 625.904L1757.73 656.024V625.301L1590.26 593.976L1523.39 600.602V606.626H1511.95L1443.27 594.578Z" fill="#E9E4DC"/>
<path data-nr="c2-31" class="plan__svg__hoverable" opacity="0.6" d="M1443.27 562.651L1328.81 574.096V600H1323.99V606.627H1328.81V605.422L1443.27 594.578L1511.95 606.627H1523.39V600.602L1590.26 593.976L1757.73 625.301V595.181L1590.26 562.651L1523.39 568.675V575.904H1511.95L1443.27 562.651Z" fill="#A8977D"/>
<path data-nr="c2-32" class="plan__svg__hoverable" opacity="0.6" d="M1443.27 531.325L1328.81 542.771V568.675H1323.99V575.301H1328.81V574.096L1443.27 562.65L1511.95 575.904H1523.39V568.675L1590.26 562.65L1757.73 595.181V565.06L1590.26 531.325L1523.39 537.349V544.578H1511.95L1443.27 531.325Z" fill="#E9E4DC"/>
<path data-nr="c2-33" class="plan__svg__hoverable" opacity="0.6" d="M1443.87 500L1328.81 512.048V537.349H1323.99V543.976H1328.81V542.771L1443.27 531.325L1511.95 544.578H1523.39V537.349L1590.26 531.325L1757.73 565.06V533.735L1590.26 500L1523.39 506.024V513.253H1511.95L1443.87 500Z" fill="#A8977D"/>
<path data-nr="c2-34" class="plan__svg__hoverable" opacity="0.6" d="M1443.87 468.072L1328.81 481.325V505.422H1323.99V513.253H1328.81V512.048L1443.87 500L1511.95 513.253H1523.39V506.024L1590.26 500L1757.73 533.735V504.217L1589.66 468.072L1523.39 475.301V481.325H1511.34L1443.87 468.072Z" fill="#E9E4DC"/>
<path data-nr="c2-35" class="plan__svg__hoverable" opacity="0.6" d="M1443.87 436.145L1328.81 449.398V474.699H1323.99V481.928H1328.81V481.325L1443.87 468.072L1511.95 481.325H1523.39V475.301L1589.66 468.072L1757.73 504.217V474.096L1589.66 436.145L1523.39 443.976V451.205H1511.95L1443.87 436.145Z" fill="#A8977D"/>
<path data-nr="c2-36" class="plan__svg__hoverable" opacity="0.6" d="M1443.87 404.819L1328.81 418.675V443.374H1323.99V450.602H1328.81V449.398L1443.87 436.145L1511.95 451.205H1523.39V443.976L1589.66 436.145L1757.73 474.096V443.976L1589.66 405.422L1523.39 412.651V420.482H1511.95L1443.87 404.819Z" fill="#E9E4DC"/>
<path data-nr="c2-37" class="plan__svg__hoverable" opacity="0.6" d="M1443.87 371.687L1328.81 385.542V412.048H1323.99V419.879H1328.81V418.675L1443.87 404.819L1511.95 420.482H1523.39V412.65L1589.66 405.422L1757.73 443.976V410.241L1589.66 371.084L1523.39 379.518V387.349H1511.95L1443.87 371.687Z" fill="#A8977D"/>
<path data-nr="c2-38" class="plan__svg__hoverable" opacity="0.6" d="M1443.87 340.361L1328.81 354.819V378.916H1323.99V386.747H1328.81V385.542L1443.87 371.687L1511.95 387.349H1523.39V379.518L1589.66 371.084L1757.73 410.241V387.349L1589.66 345.783L1511.95 356.626L1443.87 340.361Z" fill="#E9E4DC"/>
<path data-nr="c2-39" class="plan__svg__hoverable" opacity="0.6" d="M1443.87 308.434L1328.81 323.494V348.193H1323.99V356.024H1328.81V354.819L1443.87 340.361L1511.95 356.626L1589.66 345.783L1757.73 387.349V366.867L1742.07 364.458L1741.46 361.446L1725.8 359.638V357.831L1719.78 357.229L1710.14 355.422L1708.33 353.614L1693.87 351.807L1693.27 349.397H1689.66L1684.24 348.193L1677.01 347.59V345.181H1673.99L1666.16 343.976L1660.74 343.373V340.964H1655.32L1649.3 339.759H1644.48V337.952L1639.05 336.747V337.952L1630.02 337.349L1627.01 336.747L1623.39 333.735H1620.38L1610.74 333.132L1607.73 330.12L1603.51 329.518L1593.27 328.313L1590.26 325.903H1587.25L1582.43 324.699H1561.34L1538.45 321.687L1523.39 322.891L1511.95 323.494L1443.87 308.434Z" fill="#A8977D"/>
<path data-nr="c2-40" class="plan__svg__hoverable" opacity="0.6" d="M1443.87 276.506L1328.81 292.771V316.868H1323.99V324.699H1328.81V323.494L1443.87 308.434L1511.95 323.494L1523.39 322.892L1538.45 321.687L1561.34 324.699H1582.43L1587.25 325.904H1590.26L1593.27 328.313L1603.51 329.518L1607.73 330.121L1610.74 333.133L1620.38 333.735H1623.39L1627.01 336.747L1630.02 337.349L1639.05 337.952V304.217L1582.43 293.976L1561.34 295.181L1538.45 290.964L1511.95 293.976L1443.87 276.506Z" fill="#E9E4DC"/>
<path data-nr="c2-41" class="plan__svg__hoverable" opacity="0.6" d="M1443.87 242.771L1328.81 258.434V287.349H1323.99V293.976H1328.81V292.771L1443.87 276.506L1511.95 293.976L1538.45 290.964L1561.34 295.181L1582.43 293.976L1639.05 304.217V270.482L1582.43 259.638L1561.34 261.446L1538.45 256.024L1511.95 259.036L1443.87 242.771Z" fill="#A8977D"/>
<path data-nr="c2-42" class="plan__svg__hoverable" opacity="0.6" d="M1443.87 207.831L1328.81 224.096V253.012H1323.99V259.639H1328.81V258.434L1443.87 242.771L1511.95 259.036L1538.45 256.024L1561.34 261.446L1582.43 259.639L1639.05 270.482V236.145L1582.43 225.301L1561.34 227.108L1538.45 221.687L1511.95 225.904L1443.87 207.831Z" fill="#E9E4DC"/>
<rect data-nr="label-c2-5" class="plan__svg__anchor " x="1248" y="1387" width="30" height="30" fill="#C4C4C4"/>
<rect data-nr="label-c2-10" class="plan__svg__anchor " x="1248" y="1231" width="30" height="30" fill="#C4C4C4"/>
<rect data-nr="label-c2-15" class="plan__svg__anchor " x="1248" y="1073" width="30" height="31" fill="#C4C4C4"/>
<rect data-nr="label-c2-20" class="plan__svg__anchor " x="1248" y="918" width="30" height="30" fill="#C4C4C4"/>
<rect data-nr="label-c2-25" class="plan__svg__anchor " x="1248" y="760" width="30" height="30" fill="#C4C4C4"/>
<rect data-nr="label-c2-30" class="plan__svg__anchor " x="1248" y="602" width="30" height="31" fill="#C4C4C4"/>
<rect data-nr="label-c2-35" class="plan__svg__anchor " x="1248" y="447" width="30" height="30" fill="#C4C4C4"/>
<rect data-nr="label-c2-40" class="plan__svg__anchor " x="1248" y="292" width="30" height="30" fill="#C4C4C4"/>
<rect data-nr="c2-3" class="plan__svg__anchor " x="1809" y="1462" width="10" height="10" fill="#FF0000"/>
<rect data-nr="c2-4" class="plan__svg__anchor " x="1809" y="1431" width="10" height="10" fill="#FF0000"/>
<rect data-nr="c2-5" class="plan__svg__anchor " x="1809" y="1400" width="10" height="10" fill="#FF0000"/>
<rect data-nr="c2-6" class="plan__svg__anchor " x="1809" y="1369" width="10" height="10" fill="#FF0000"/>
<rect data-nr="c2-7" class="plan__svg__anchor " x="1809" y="1338" width="10" height="10" fill="#FF0000"/>
<rect data-nr="c2-8" class="plan__svg__anchor " x="1809" y="1307" width="10" height="10" fill="#FF0000"/>
<rect data-nr="c2-9" class="plan__svg__anchor " x="1809" y="1277" width="10" height="10" fill="#FF0000"/>
<rect data-nr="c2-10" class="plan__svg__anchor " x="1809" y="1247" width="10" height="10" fill="#FF0000"/>
<rect data-nr="c2-11" class="plan__svg__anchor " x="1809" y="1216" width="10" height="10" fill="#FF0000"/>
<rect data-nr="c2-12" class="plan__svg__anchor " x="1809" y="1185" width="10" height="10" fill="#FF0000"/>
<rect data-nr="c2-13" class="plan__svg__anchor " x="1809" y="1154" width="10" height="10" fill="#FF0000"/>
<rect data-nr="c2-14" class="plan__svg__anchor " x="1809" y="1124" width="10" height="10" fill="#FF0000"/>
<rect data-nr="c2-15" class="plan__svg__anchor " x="1809" y="1093" width="10" height="10" fill="#FF0000"/>
<rect data-nr="c2-16" class="plan__svg__anchor " x="1809" y="1063" width="10" height="10" fill="#FF0000"/>
<rect data-nr="c2-17" class="plan__svg__anchor " x="1809" y="1032" width="10" height="10" fill="#FF0000"/>
<rect data-nr="c2-18" class="plan__svg__anchor " x="1809" y="1002" width="10" height="10" fill="#FF0000"/>
<rect data-nr="c2-19" class="plan__svg__anchor " x="1809" y="971" width="10" height="10" fill="#FF0000"/>
<rect data-nr="c2-20" class="plan__svg__anchor " x="1809" y="941" width="10" height="10" fill="#FF0000"/>
<rect data-nr="c2-21" class="plan__svg__anchor " x="1809" y="910" width="10" height="10" fill="#FF0000"/>
<rect data-nr="c2-22" class="plan__svg__anchor " x="1809" y="879" width="10" height="10" fill="#FF0000"/>
<rect data-nr="c2-23" class="plan__svg__anchor " x="1809" y="848" width="10" height="10" fill="#FF0000"/>
<rect data-nr="c2-24" class="plan__svg__anchor " x="1809" y="817" width="10" height="10" fill="#FF0000"/>
<rect data-nr="c2-25" class="plan__svg__anchor " x="1809" y="787" width="10" height="10" fill="#FF0000"/>
<rect data-nr="c2-26" class="plan__svg__anchor " x="1809" y="757" width="10" height="10" fill="#FF0000"/>
<rect data-nr="c2-27" class="plan__svg__anchor " x="1809" y="726" width="10" height="10" fill="#FF0000"/>
<rect data-nr="c2-28" class="plan__svg__anchor " x="1809" y="695" width="10" height="10" fill="#FF0000"/>
<rect data-nr="c2-29" class="plan__svg__anchor " x="1809" y="664" width="10" height="10" fill="#FF0000"/>
<rect data-nr="c2-30" class="plan__svg__anchor " x="1809" y="634" width="10" height="10" fill="#FF0000"/>
<rect data-nr="c2-31" class="plan__svg__anchor " x="1809" y="603" width="10" height="10" fill="#FF0000"/>
<rect data-nr="c2-32" class="plan__svg__anchor " x="1809" y="573" width="10" height="10" fill="#FF0000"/>
<rect data-nr="c2-33" class="plan__svg__anchor " x="1809" y="542" width="10" height="10" fill="#FF0000"/>
<rect data-nr="c2-34" class="plan__svg__anchor " x="1809" y="512" width="10" height="10" fill="#FF0000"/>
<rect data-nr="c2-35" class="plan__svg__anchor " x="1809" y="483" width="10" height="10" fill="#FF0000"/>
<rect data-nr="c2-36" class="plan__svg__anchor " x="1809" y="453" width="10" height="10" fill="#FF0000"/>
<rect data-nr="c2-37" class="plan__svg__anchor " x="1809" y="421" width="10" height="10" fill="#FF0000"/>
<rect data-nr="c2-38" class="plan__svg__anchor " x="1809" y="392" width="10" height="10" fill="#FF0000"/>
<rect data-nr="c2-39" class="plan__svg__anchor " x="1809" y="361" width="10" height="10" fill="#FF0000"/>
<rect data-nr="c2-40" class="plan__svg__anchor " x="1809" y="319" width="10" height="10" fill="#FF0000"/>
<rect data-nr="c2-41" class="plan__svg__anchor " x="1809" y="280" width="10" height="10" fill="#FF0000"/>
<rect data-nr="c2-42" class="plan__svg__anchor " x="1809" y="248" width="10" height="10" fill="#FF0000"/>
</g>
</svg>
