<svg width="1200" height="294" viewBox="0 0 1200 294" fill="none" xmlns="http://www.w3.org/2000/svg">
<path d="M24.6333 22.5744H24.1333V23.0744V293.5H0.5V0.5H212.061V293.5H188.825V23.0744V22.5744H188.325H24.6333ZM304.461 204.385H304.12L303.996 204.702L269.157 293.5H243.616L360.424 0.5H372.856L488.872 293.5H463.329L428.49 204.702L428.366 204.385H428.025H304.461ZM420.079 182.708H420.808L420.545 182.028L366.908 43.1838L366.443 41.9809L365.976 43.1827L311.941 182.027L311.676 182.708H312.407H420.079ZM544.574 179.321H544.074V179.821V293.5H520.838V0.5H610.924C641.419 0.5 664.308 9.22041 680.08 26.9869L680.084 26.9914C696.288 44.7995 704.19 65.7639 704.19 89.9107C704.19 114.449 695.895 135.41 678.9 153.219L679.262 153.564L678.9 153.219C662.333 170.598 638.641 179.321 607.349 179.321H544.574ZM544.074 157.145V157.645H544.574H607.746C630.304 157.645 648.513 150.347 661.085 138.159C673.658 125.971 680.557 108.929 680.557 89.5129C680.557 70.1025 673.96 53.3602 662.084 41.4691C650.208 29.5771 633.09 22.5744 612.116 22.5744H544.574H544.074V23.0744V157.145ZM765.637 205.681V293.5H742.401V0.5H765.637V171.865V173.221L766.517 172.189L912.975 0.5H941.066L824.16 138.521L823.889 138.841L824.156 139.164L952.205 293.5H922.515L808.637 156.03L808.257 155.572L807.871 156.024L765.756 205.356L765.637 205.496V205.681ZM987.589 293.5H974.827V0.5H998.063V244.668V246.143L998.96 244.973L1186.34 0.5H1199.5V293.5H1176.26V48.138V46.6605L1175.37 47.8344L987.589 293.5Z" stroke="#C49F8A"/>
</svg>
