<svg width="570" height="138" viewBox="0 0 570 138" fill="none" xmlns="http://www.w3.org/2000/svg">
<path d="M11.7008 138V10.8308H89.4546V138H100.967V0H0V138H11.7008Z" fill="#C49F8A"/>
<path d="M232.564 138L177.268 0H171.04L115.367 138H128.011L144.619 96.1705H203.312L219.919 138H232.564ZM199.537 85.5264H148.394L174.06 20.3545L199.537 85.5264Z" fill="#C49F8A"/>
<path d="M247.16 0V138H258.672V84.406H288.491C303.4 84.406 314.723 80.2977 322.649 72.0812C330.765 63.6779 334.728 53.7808 334.728 42.203C334.728 30.8119 330.953 20.9147 323.216 12.5115C315.667 4.10826 304.721 0 290.189 0H247.16ZM258.672 73.7618V10.8308H290.755C310.571 10.8308 323.027 23.9026 323.027 42.0162C323.027 60.1299 310.005 73.7618 288.679 73.7618H258.672Z" fill="#C49F8A"/>
<path d="M452.803 138L391.657 65.1719L447.519 0H433.554L363.915 80.6712V0H352.403V138H363.915V96.544L383.919 73.3884L438.083 138H452.803Z" fill="#C49F8A"/>
<path d="M469.222 138L558.488 22.5954V138H570V0H563.395L474.318 114.844V0H462.806V138H469.222Z" fill="#C49F8A"/>
</svg>
