<svg width="1200" height="294" viewBox="0 0 1200 294" fill="none" xmlns="http://www.w3.org/2000/svg">
<path d="M24.6333 294V23.0744H188.325V294H212.561V0H0V294H24.6333Z" fill="#C49F8A"/>
<path d="M489.608 294L373.196 0H360.085L242.878 294H269.498L304.461 204.885H428.025L462.988 294H489.608ZM420.079 182.208H312.407L366.442 43.364L420.079 182.208Z" fill="#C49F8A"/>
<path d="M520.338 0V294H544.574V179.821H607.349C638.736 179.821 662.575 171.069 679.262 153.564C696.346 135.662 704.69 114.576 704.69 89.9107C704.69 65.6428 696.744 44.5575 680.454 26.6549C664.561 8.75237 641.517 0 610.924 0H520.338ZM544.574 157.145V23.0744H612.116C653.834 23.0744 680.057 50.9229 680.057 89.5129C680.057 128.103 652.642 157.145 607.746 157.145H544.574Z" fill="#C49F8A"/>
<path d="M953.27 294L824.541 138.844L942.145 0H912.744L766.137 171.865V0H741.901V294H766.137V205.681L808.251 156.349L922.28 294H953.27Z" fill="#C49F8A"/>
<path d="M987.836 294L1175.76 48.138V294H1200V0H1186.09L998.563 244.668V0H974.327V294H987.836Z" fill="#C49F8A"/>
</svg>
