<!-- DO NOT EDIT THIS, THIS FILE IS GENERATED FROM "1_37.original.svg" using transform-svgs.js script -->



<svg version="1.1" 
	 xmlns="http://www.w3.org/2000/svg" xmlns:xlink="http://www.w3.org/1999/xlink" x="0px" y="0px" viewBox="0 0 720 480"
	 style="enable-background:new 0 0 720 480;" xml:space="preserve">


<g>
	<polygon fill="#DBD4CA" points="508.2486877,244.8166199 503.7774048,242.829422 503.7774048,231.8995209
		508.2486877,212.0270081 503.8754883,210.0397186 503.9761047,197.2222137 508.046814,181.7217102 503.7774048,177.8463135
		504.2709045,164.2339172 507.9473877,148.6340179 503.7774048,145.4542084 503.7774048,132.0402222 507.7518921,114.1549149
		503.7774048,113.1613159 503.7774048,102.2314148 507.7518921,83.8494186 503.7774048,82.8558121 503.7774048,49.3706169
		506.7582092,37.1490135 480.9240112,31.1873169 479.9303894,36.1554146 452.1088867,36.1554146 432.7331848,31.6841164
		431.7395935,36.1554146 426.2746887,36.1554146 408.3894043,32.1809158 405.4085999,37.1490135 380.5679932,37.1490135
		355.528595,30.9886169 355.6279907,156.185318 323.9313965,156.185318 323.8320007,120.4148178 211.7512054,120.4148178
		211.7512054,449.5031433 369.638092,449.5031433 369.638092,327.8835449 368.8432007,325.3001404 400.4403992,325.3001404
		400.4403992,359.0833435 412.8606873,358.5865173 430.2492065,362.5610352 431.2427979,359.0833435 444.5574036,357.8910217
		470.6896973,363.4553223 472.4782104,359.0833435 482.315094,359.0833435 503.4793091,362.9585266 508.2486877,341.1981201
		503.7774048,340.2045288 503.7774048,327.7841187 508.2486877,308.4085388 503.7774048,307.414917 503.394989,296.579834
		508.0477905,279.447937 504.7709961,277.6061401 503.7774048,277.6061401 503.7774048,263.1986389 	"/>
	<g>
		<rect x="369.638092" y="323.8097229" fill="#565440" width="30.504303" height="2.980896"/>
		<path fill="#565440" d="M322.9377136,155.8872223h32.5909119v0.9936066h-32.5909119V155.8872223z"/>
		<path fill="#565440" d="M321.3479919,168.8043213v2.980896h36.7640991v-2.980896H321.3479919z"/>
	</g>
</g>
<g>
	<g>
		<polygon fill="#565440" points="261.1343079,202.587616 260.8362122,202.587616 260.8362122,201.3952179 259.8425903,201.3952179
			259.8425903,202.587616 217.017395,202.587616 217.017395,197.6194153 211.055603,197.6194153 211.055603,202.587616
			211.055603,205.568512 261.1343079,205.568512 		"/>
		<polygon fill="#565440" points="217.017395,176.7533112 216.0238037,176.7533112 216.0238037,168.4069214 259.8425903,168.4069214
			259.8425903,193.6449127 260.8362122,193.6449127 260.8362122,168.4069214 262.8234863,168.4069214 262.8234863,167.413208
			260.8362122,167.413208 259.8425903,167.413208 216.0238037,167.413208 216.0238037,155.8872223 211.055603,155.8872223
			211.055603,176.7533112 211.055603,182.5163116 211.055603,183.7087097 217.017395,183.7087097 		"/>
		<rect x="211.055603" y="135.0211182" fill="#565440" width="5.9617004" height="6.9553986"/>
		<polygon fill="#565440" points="240.8643951,125.084816 261.7304993,125.084816 261.7304993,120.1167145 240.8643951,120.1167145
			238.6784058,120.1167145 233.9089966,120.1167145 233.9089966,126.0785141 240.8643951,126.0785141 		"/>
		<polygon fill="#565440" points="319.3606873,135.0211182 319.3606873,179.8335114 295.9111938,179.8335114 294.9176025,179.8335114
			292.1354065,179.8335114 292.1354065,180.8272095 294.9176025,180.8272095 294.9176025,183.7087097 295.9111938,183.7087097
			295.9111938,180.8272095 319.3606873,180.8272095 319.3606873,202.587616 297.5010071,202.587616 295.9111938,202.587616
			295.9111938,192.4526215 294.9176025,192.4526215 294.9176025,202.587616 294.5201111,202.587616 294.5201111,205.568512
			294.5201111,206.9595184 274.6476135,206.9595184 274.6476135,180.8272095 275.6412048,180.8272095 276.6348877,180.8272095
			284.6832886,180.8272095 284.6832886,179.8335114 276.6348877,179.8335114 276.6348877,178.7406158 275.6412048,178.7406158
			275.6412048,179.8335114 274.6476135,179.8335114 273.6539917,179.8335114 273.6539917,180.8272095 273.6539917,216.4983215
			274.6476135,216.4983215 274.6476135,207.9532166 294.5201111,207.9532166 294.5201111,227.7263184 274.6476135,227.7263184
			274.6476135,224.2486115 273.6539917,224.2486115 273.6539917,241.338913 273.6539917,242.3326111 274.6476135,242.3326111
			275.4425049,242.3326111 275.4425049,241.338913 274.6476135,241.338913 274.6476135,228.7199097 294.5201111,228.7199097
			294.5201111,241.338913 282.2984924,241.338913 282.2984924,242.3326111 294.5201111,242.3326111 294.5201111,243.2268219
			297.5010071,243.2268219 297.5010071,205.568512 324.3287964,205.568512 324.3287964,202.587616 324.3287964,135.0211182 		"/>
		<polygon fill="#565440" points="275.6412048,170.8909149 276.6348877,170.8909149 276.6348877,126.0785141 282.5965881,126.0785141
			282.5965881,125.084816 302.0716858,125.084816 302.0716858,120.1167145 282.5965881,120.1167145 282.0004883,120.1167145
			275.6412048,120.1167145 275.6412048,125.084816 275.6412048,126.0785141 275.6412048,167.413208 270.1763,167.413208
			270.1763,168.4069214 275.6412048,168.4069214 		"/>
		<rect x="211.055603" y="218.485611" fill="#565440" width="4.9680939" height="6.9553986"/>
		<rect x="211.055603" y="239.3517151" fill="#565440" width="5.9617004" height="6.9553986"/>
		<polygon fill="#565440" points="294.5201111,260.7145386 281.2055054,260.7145386 281.2055054,261.7082214 294.5201111,261.7082214
			294.5201111,272.1412354 273.2565002,272.1412354 273.2565002,261.7082214 273.8526917,261.7082214 273.8526917,260.7145386
			273.2565002,260.7145386 272.2629089,260.7145386 272.2629089,261.7082214 272.2629089,272.1412354 217.017395,272.1412354
			217.017395,268.7629395 216.0238037,268.7629395 216.0238037,259.9196167 211.055603,259.9196167 211.055603,268.7629395
			211.055603,269.4584351 211.055603,275.1220398 216.3217926,275.1220398 216.3217926,275.1221313 297.5010071,275.1221313
			297.5010071,272.1412354 297.5010071,253.1631165 294.5201111,253.1631165 		"/>
	</g>
	<g>
		<polygon fill="none" stroke="#565440" points="322.3416138,120.6135178 211.5523987,120.6135178 211.5523987,198.1163177
			213.0428925,198.1163177 213.0428925,122.1039124 322.3416138,122.1039124 322.3416138,135.5179138 323.8320007,135.5179138
			323.8320007,120.6135178 		"/>
		<path fill="none" stroke="#565440" d="M211.5523987,205.0716095h1.4904022v55.6428986h-1.4904022V205.0716095z"/>
	</g>
	<g>
		<path fill="none" stroke="#565440" d="M273.7532959,224.4473114c-1.0929871,0-1.9872131-0.1987-2.980896-0.5962067
			c-0.9935913-0.3973999-1.8879089-0.9936066-2.5834045-1.6891937c-0.7948914-0.6954956-1.3911133-1.589798-1.7885132-2.5834045
			c-0.3974915-0.9936066-0.5961914-1.9871979-0.5961914-3.0802002h7.9490051"/>
		<path fill="none" stroke="#565440" d="M282.6960144,241.9351196c0,1.0930023-0.1987915,1.9871979-0.5961914,2.980896
			c-0.3974915,0.9936066-0.9935913,1.8878937-1.689209,2.5834045c-0.6955872,0.7949066-1.5898132,1.391098-2.5834045,1.7884979
			s-1.9872131,0.5962067-3.0802002,0.5962067v-7.9490051"/>
		<path fill="none" stroke="#565440" d="M281.8016968,260.8138428c0-1.0929871-0.1987915-1.9872131-0.5961914-2.9808044
			c-0.3974915-0.9935913-0.9935913-1.8879089-1.689209-2.5834198c-0.6955872-0.7949066-1.5898132-1.391098-2.5834045-1.7884979
			s-1.9872131-0.5962067-3.0802002-0.5962067v7.9489288"/>
		<path fill="none" stroke="#565440" d="M297.4016113,243.2268219c1.291687,0,2.4840088,0.2980957,3.6763916,0.7949066
			c1.1924133,0.4967957,2.3847046,1.1923065,3.2789001,2.1860046c0.8942871,0.8943024,1.689209,1.9873047,2.1860046,3.1795959
			c0.4967957,1.1923981,0.7948914,2.4841003,0.7948914,3.7758026h-9.9361877"/>
		<path fill="none" stroke="#565440" d="M262.4259949,167.7114105c0-1.0930023,0.1987915-1.9873047,0.5961914-2.980896
			s0.9935913-1.8878937,1.689209-2.5834045c0.6955872-0.7949066,1.5898132-1.391098,2.5834045-1.7884979
			s1.9872131-0.5962067,3.0802002-0.5962067v7.9490051"/>
		<path fill="none" stroke="#565440" d="M275.6412048,178.7406158c-1.0929871,0-1.9872131-0.1987-2.980896-0.5962067
			c-0.9937134-0.3973999-1.8879089-0.9936066-2.5834045-1.6891937c-0.7948914-0.6954956-1.3911133-1.589798-1.7885132-2.5834045
			c-0.3974915-0.9936066-0.5961914-1.9871979-0.5961914-3.0802002h7.9490051"/>
		<path fill="none" stroke="#565440" d="M259.9419861,201.4946136c-1.0929871,0-1.9873047-0.1987-2.980896-0.5962067
			c-0.9936066-0.3973999-1.8878937-0.9936066-2.5834045-1.6891022c-0.7949066-0.6954956-1.391098-1.589798-1.7884979-2.5834045
			s-0.5962067-1.9871979-0.5962067-3.0802002h7.9490051"/>
		<path fill="none" stroke="#565440" d="M284.5838928,180.2310181c0-1.0930023,0.1987-1.9871979,0.5961914-2.980896
			c0.3974915-0.9936066,0.9935913-1.8878937,1.689209-2.5834045c0.6955872-0.7949066,1.5898132-1.391098,2.5834045-1.7884979
			s1.9872131-0.5962067,3.0802002-0.5962067v7.9490051"/>
	</g>
</g>
<g>
	<path fill="none" stroke="#565440" d="M211.5523987,273.1348267h1.4904022v50.178009h-1.4904022V273.1348267z"/>
	<g>
		<polygon fill="#565440" points="216.0238037,307.9117432 255.868103,307.9117432 255.868103,306.9181213 216.0238037,306.9181213
			216.0238037,301.9500427 211.055603,301.9500427 211.055603,309.2034302 216.0238037,309.2034302 		"/>
		<polygon fill="#565440" points="294.5201111,340.7013245 273.8526917,340.7013245 273.8526917,322.6173401 272.8591003,322.6173401
			272.8591003,340.7013245 217.017395,340.7013245 217.017395,332.9510193 216.0238037,332.9510193 216.0238037,322.5179443
			211.055603,322.5179443 211.055603,332.9510193 211.055603,335.1370239 211.055603,343.6821289 214.8314056,343.6821289
			214.8314056,343.6822205 297.5010071,343.6822205 297.5010071,340.7013245 297.5010071,321.6237183 294.5201111,321.6237183 		"/>
		<polygon fill="#565440" points="211.055603,272.1412354 211.055603,275.1221313 211.055603,276.7119446 211.055603,278.3017273
			211.055603,287.5423279 216.0238037,287.5423279 216.0238037,278.3017273 217.017395,278.3017273 217.017395,275.1221313
			271.3687134,275.1221313 271.3687134,306.9181213 263.8171082,306.9181213 263.8171082,307.9117432 271.3687134,307.9117432
			272.3623047,307.9117432 273.5545959,307.9117432 273.5545959,306.9181213 272.3623047,306.9181213 272.3623047,275.1221313
			294.5201111,275.1221313 294.5201111,306.9181213 281.4042053,306.9181213 281.4042053,307.9117432 294.5201111,307.9117432
			294.5201111,311.6875305 297.5010071,311.6875305 297.5010071,275.1221313 297.5010071,272.1412354 		"/>
	</g>
	<g>
		<path fill="none" stroke="#565440" d="M255.868103,306.9181213c0-1.0929871,0.1987-1.9873047,0.5961914-2.980896
			s0.9937134-1.8879089,1.689209-2.5834045c0.6954956-0.7948914,1.5898132-1.3911133,2.5834045-1.7885132
			c0.9937134-0.3974915,1.9873047-0.5961914,3.0802917-0.5961914v7.9490051"/>
		<path fill="none" stroke="#565440" d="M281.5036011,306.9181213c0-1.0929871-0.1987-1.9873047-0.5961914-2.980896
			s-0.9937134-1.8879089-1.689209-2.5834045c-0.6955872-0.7948914-1.5898132-1.3911133-2.5834045-1.7885132
			c-0.9935913-0.3974915-1.9872131-0.5961914-3.0802002-0.5961914v7.9490051"/>
		<path fill="none" stroke="#565440" d="M297.5010071,311.687439c1.291687,0,2.4840088,0.2980957,3.6763916,0.7948914
			c1.1924133,0.4967957,2.3847046,1.1924133,3.2789001,2.1860046c0.8942871,0.8942871,1.689209,1.9872131,2.1860046,3.1795959
			c0.4967957,1.1924133,0.7948914,2.4840088,0.7948914,3.7757874h-9.9361877"/>
	</g>
</g>
<g>
	<g>
		<polygon fill="none" stroke="#565440" points="213.0429077,342.2910156 211.5524902,342.2910156 211.5524902,449.5031128 295.0170288,449.5031128
			295.0170288,448.0126953 213.0430298,448.0126953 		"/>
		<polygon fill="none" stroke="#565440" points="368.0483398,350.140686 368.0483398,448.0126953 296.1099243,448.0126953 296.1099243,449.5031128
			369.5387573,449.5031128 369.5387573,350.140686 		"/>
	</g>
	<g>
		<polygon fill="#565440" points="217.017395,343.6821899 272.064209,343.6821899 272.064209,359.5802002 272.064209,360.5737305
			272.064209,360.5737915 280.3113403,360.5737915 280.3113403,359.5802002 273.0578003,359.5802002 273.0578003,343.6821899
			296.3085938,343.6821899 296.3085938,359.5802002 287.6641235,359.5802002 287.6641235,360.5737915 297.3021851,360.5737915
			297.3021851,360.5737305 297.3021851,343.6821899 299.6870117,343.6821899 299.6870117,340.7012939 211.055603,340.7012939
			211.055603,350.6375122 217.017395,350.6375122 		"/>
		<rect x="211.055603" y="365.5419312" fill="#565440" width="4.9680786" height="6.9553833"/>
		<polygon fill="#565440" points="216.0238037,405.2869263 242.5656128,405.2869263 242.5656128,404.293335 216.0238037,404.293335
			216.0238037,403.7963867 217.017395,403.7963867 217.017395,395.1519165 216.0238037,395.1519165 216.0238037,386.5073853
			211.055603,386.5073853 211.055603,395.1519165 211.055603,403.7963867 211.055603,414.6268921 216.0238037,414.6268921 		"/>
		<polygon fill="#565440" points="252.7879028,405.2869263 254.3776245,405.2869263 254.3776245,404.293335 250.5145874,404.293335
			250.5145874,405.2869263 251.7941895,405.2869263 251.7941895,445.0319214 240.8643799,445.0319214 240.8643799,444.038208
			233.9089966,444.038208 233.9089966,450 261.7305298,450 261.7305298,445.0319214 252.7879028,445.0319214 		"/>
		<rect x="211.055603" y="428.1403198" fill="#565440" width="5.961731" height="6.9553833"/>
		<polygon fill="#565440" points="339.2332153,444.038269 339.2233887,444.038269 339.2233887,445.0316162 331.8499146,445.0316162
			331.8499146,414.354187 331.8499146,414.2295532 331.8500366,414.2295532 331.8500366,413.2359619 331.8499146,413.2359619
			331.8499146,412.6141357 330.8563232,412.6141357 330.8563232,413.2359619 329.6901855,413.2359619 329.6901855,414.2295532
			330.8563232,414.2295532 330.8563232,414.354187 330.8563232,445.0316162 318.3574829,445.0316162 318.3574829,449.9996948
			318.3671265,449.9996948 318.3671265,450 346.1885986,450 346.1885986,444.038208 339.2332153,444.038208 		"/>
		<polygon fill="#565440" points="320.3543091,307.9117432 320.3543091,307.9128418 320.3447876,307.9128418 320.3447876,340.7012939
			309.62323,340.7012939 309.62323,343.6821899 314,343.6821899 314,343.6829224 315.3759766,343.6829224 315.3759766,358.5870972
			315.3759766,359.4597778 315.3759766,359.5806885 322.3326416,359.5806885 322.3326416,367.0606079 324.684021,367.0606079
			324.684021,366.0670166 323.3262329,366.0670166 323.3262329,358.5917358 323.3256226,358.5917358 323.3256226,358.5870972
			316.3695679,358.5870972 316.3695679,343.6829224 323.3256226,343.6829224 323.3256226,343.6821899 323.3352051,343.6821899
			323.3352051,331.0256958 326.249939,331.0256958 326.249939,330.0321045 323.3352051,330.0321045 323.3352051,312.8807983
			347.4737549,312.8807983 347.4737549,330.0316162 333.6674194,330.0316162 333.6674194,331.0252075 353.6826782,331.0252075
			353.6826782,330.0316162 348.4673462,330.0316162 348.4673462,312.8807983 365.0674438,312.8807983 365.0674438,330.0317383
			361.2653198,330.0317383 361.2653198,331.0253296 365.0674438,331.0253296 365.0674438,350.6375122 365.0674438,350.6382446
			370.0255127,350.6382446 370.0255127,350.6375122 370.0356445,350.6375122 370.0356445,307.9117432 		"/>
		<polygon fill="#565440" points="364.0737915,381.4401855 363.9655762,381.4401855 363.9655762,388.3956299 365.0574341,388.3956299
			365.0574341,404.293396 334.3806763,404.293396 333.6116333,404.293396 333.6116333,387.2924194 332.618042,387.2924194
			332.618042,404.293396 331.8499146,404.293396 330.8563232,404.293396 330.8554077,404.293396 330.8554077,405.2869873
			330.8563232,405.2869873 330.8563232,406.0334473 331.8499146,406.0334473 331.8499146,405.2869873 332.618042,405.2869873
			333.6116333,405.2869873 334.3806763,405.2869873 365.0574341,405.2869873 365.0574341,409.2615356 370.0255127,409.2615356
			370.0255127,409.2614136 370.0356445,409.2614136 370.0356445,381.4399414 364.0737915,381.4399414 		"/>
		<polygon fill="#565440" points="370.0255127,428.1401978 363.9568481,428.1401978 363.9568481,435.09552 364.1732178,435.09552
			364.1732178,435.0957031 370.0355835,435.0957031 370.0355835,428.1403198 370.0255127,428.1403198 		"/>
		<polygon fill="#565440" points="370.0255127,371.5040894 370.0255127,371.5037231 370.0355225,371.5037231 370.0355225,364.5483398
			365.0674438,364.5483398 365.0674438,364.5488281 365.0574341,364.5488281 365.0574341,366.0668945 331.9447632,366.0668945
			331.9447632,367.0604858 332.618042,367.0604858 332.618042,378.4848022 333.6116333,378.4848022 333.6116333,367.0604858
			365.0574341,367.0604858 365.0574341,371.5040894 		"/>
		<polygon fill="#565440" points="297.5010376,445.0319214 297.5010376,405.2869873 320.7906494,405.2869873 320.7906494,413.2359619
			320.7906494,413.9818726 320.7906494,414.2295532 322.4294434,414.2295532 322.4294434,413.2359619 321.7842407,413.2359619
			321.7842407,405.2869873 321.7852783,405.2869873 321.7852783,404.293396 321.7842407,404.293396 320.7906494,404.293396
			316.3703003,404.293396 316.3703003,398.2755737 315.376709,398.2755737 315.376709,404.293396 297.5010376,404.293396
			297.5010376,379.4530029 315.376709,379.4530029 315.376709,391.1436768 316.3703003,391.1436768 316.3703003,378.4594116
			297.5010376,378.4594116 297.5010376,378.4590454 272.064209,378.4590454 272.064209,404.293335 262.3265991,404.293335
			262.3265991,405.2869263 280.2119141,405.2869263 280.2119141,404.293335 273.0578003,404.293335 273.0578003,379.4526978
			294.5106812,379.4526978 294.5106812,404.293335 287.4653931,404.293335 287.4653931,405.2869263 294.5106812,405.2869263
			294.5106812,444.038208 288.3596191,444.038208 288.3596191,445.0319214 276.2374268,445.0319214 276.2374268,450
			303.7608032,450 303.7608032,445.0319214 303.4533081,445.0319214 		"/>
	</g>
	<g>
		<path fill="none" stroke="#565440" d="M262.3265991,405.1875305c0,1.0929871-0.1987,1.9872131-0.5961914,2.980896
			c-0.3974915,0.9935913-0.9935913,1.8879089-1.689209,2.5834045c-0.6955872,0.7948914-1.5898132,1.3911133-2.5834045,1.7885132
			s-1.9873047,0.5961914-3.0802002,0.5961914v-7.9490051"/>
		<path fill="none" stroke="#565440" d="M250.5146027,405.1875305c0,1.0929871-0.1987,1.9872131-0.5962067,2.980896
			s-0.9936066,1.8879089-1.6891937,2.5834045c-0.6954956,0.7948914-1.589798,1.3911133-2.5834045,1.7885132
			s-1.9873047,0.5961914-3.0802002,0.5961914v-7.9490051"/>
		<path fill="none" stroke="#565440" d="M279.8143921,405.1875305c0,1.0929871,0.1987915,1.9872131,0.5961914,2.980896
			s0.9935913,1.8879089,1.689209,2.5834045c0.6955872,0.7948914,1.5898132,1.3911133,2.5834045,1.7885132
			s1.9872131,0.5961914,3.0802002,0.5961914v-7.9490051"/>
		<path fill="none" stroke="#565440" d="M288.1608887,360.2757263c0,1.0929871-0.1987,1.9872131-0.5961914,2.980896
			c-0.3974915,0.9935913-0.9935913,1.8879089-1.689209,2.5834045c-0.6955872,0.7948914-1.5898132,1.3911133-2.5834045,1.7885132
			s-1.9872131,0.5961914-3.0802002,0.5961914v-7.9490051"/>
		<path fill="none" stroke="#565440" d="M309.6231995,341.0987244c0-1.291687-0.2980957-2.4841003-0.7948914-3.6763916
			c-0.4967957-1.1924133-1.1924133-2.3847046-2.1860046-3.2789917c-0.8942871-0.8942871-1.9872131-1.6890869-3.1795959-2.1860046
			c-1.1924133-0.4967957-2.4841003-0.7948914-3.7757874-0.7948914v9.9361877"/>
		<path fill="none" stroke="#565440" d="M316.3703308,390.6762695c1.0929871,0,1.9872131,0.1987,2.980896,0.5961914
			c0.9935913,0.3974915,1.8877869,0.9935913,2.5834045,1.689209c0.7948914,0.6954956,1.3911133,1.5898132,1.7885132,2.5834045
			s0.5961914,1.9872131,0.5961914,3.0802002h-7.9489136"/>
		<path fill="none" stroke="#565440" d="M331.8500366,405.7837524c0.9743652,0,1.7715454,0.177124,2.6573792,0.5314941
			c0.8857727,0.3543396,1.6829224,0.8857422,2.3030396,1.5058899c0.7086182,0.6199951,1.2401428,1.4172668,1.5943909,2.303009
			c0.3542786,0.8857727,0.5314941,1.7715454,0.5314941,2.7459412h-7.0862427"/>
		<path fill="none" stroke="#565440" d="M322.3276367,414.2295532c0,1.0266113,0.186615,1.8665466,0.559967,2.7998657
			c0.3733521,0.9332581,0.9332581,1.7731628,1.5866394,2.4265442c0.6532593,0.7466125,1.4932556,1.3066101,2.4265137,1.6799011
			c0.9332581,0.3732605,1.8665466,0.559967,2.893158,0.559967v-7.4661865"/>
		<path fill="none" stroke="#565440" d="M332.0307007,366.0758972c0-1.0266113-0.1866455-1.8665466-0.5599976-2.7998962
			c-0.3733521-0.9332275-0.9332275-1.7731323-1.5866089-2.4265137c-0.6532593-0.7466125-1.4932861-1.3066406-2.4265442-1.6799011
			c-0.9332275-0.3732605-1.8665161-0.559967-2.8931274-0.559967v7.4661865"/>
		<path fill="none" stroke="#565440" d="M333.6116638,387.4488525c1.0641785,0,1.934845-0.2299194,2.9023438-0.6898804
			c0.9674072-0.4598389,1.8380432-1.1496887,2.5153198-1.9544678c0.7739563-0.8047485,1.3544617-1.8395996,1.741394-2.9892883
			c0.3869019-1.1497192,0.5804749-2.2994385,0.5804749-3.5641785h-7.7394409"/>
		<path fill="none" stroke="#565440" d="M353.4773254,331.025238c0,1.0929871,0.1987,1.9872131,0.5961914,2.9808044
			s0.9935913,1.8877869,1.689209,2.5834045c0.6954956,0.7948914,1.5898132,1.3911133,2.5834045,1.7885132
			c0.9935913,0.3974915,1.9872131,0.5961914,3.0802002,0.5961914v-7.9489136"/>
		<path fill="none" stroke="#565440" d="M333.9412842,331.025238c0,1.0929871-0.1987,1.9872131-0.5961914,2.9808044
			s-0.9935913,1.8877869-1.689209,2.5834045c-0.6954956,0.7948914-1.5898132,1.3911133-2.5834045,1.7885132
			c-0.9935913,0.3974915-1.9872131,0.5961914-3.0802002,0.5961914v-7.9489136"/>
	</g>
</g>
<g>
	<g>
		<polygon fill="#565440" points="437.0058899,324.9026184 438.7322083,324.9026184 438.7322083,323.9090271 437.0058899,323.9090271
			437.0058899,321.5243225 436.012207,321.5243225 436.012207,353.519043 428.6593933,353.519043 428.6593933,357.592926
			427.5664063,362.4616394 430.4479065,363.1572266 431.2731934,359.480835 444.5574036,359.480835 444.5574036,353.519043
			437.0058899,353.519043 		"/>
		<polygon fill="#565440" points="470.3916016,323.9090271 463.0387878,323.9090271 463.0387878,322.7167358 462.0451965,322.7167358
			462.0451965,323.9090271 447.0414124,323.9090271 447.0414124,324.9026184 469.3980103,324.9026184 469.3980103,359.4718323
			468.5036926,363.4553223 471.3853149,364.1508179 472.4335938,359.480835 484.3023987,359.480835 484.3023987,353.519043
			470.3916016,353.519043 		"/>
		<polygon fill="#565440" points="421.2072144,304.235321 421.2072144,305.2289429 436.012207,305.2289429 436.012207,313.1779175
			437.0058899,313.1779175 437.0058899,305.2289429 450.519104,305.2289429 450.519104,311.1906433 451.5127869,311.1906433
			451.5127869,300.4595337 450.519104,300.4595337 450.519104,304.235321 426.0759888,304.235321 426.0759888,280.0902405
			450.519104,280.0902405 450.519104,292.2124329 451.5127869,292.2124329 451.5127869,273.0355225 450.519104,273.0355225
			450.519104,279.0966187 430.6466064,279.0966187 430.6466064,263.6954346 450.519104,263.6954346 450.519104,265.3845215
			451.5127869,265.3845215 451.5127869,263.6954346 451.5127869,262.7018433 451.5127869,248.6917114 450.519104,248.6917114
			450.519104,262.7018433 430.6466064,262.7018433 430.6466064,250.0828094 427.665802,250.0828094 427.665802,277.1093445
			399.8442993,277.1093445 399.8442993,359.5802307 410.0929871,359.5802307 412.5627136,360.1763306 413.6557007,355.3076172
			410.7742004,354.6121216 404.8124084,354.6121216 404.8124084,305.2289429 413.4569092,305.2289429 413.4569092,304.235321
			404.8124084,304.235321 404.8124084,280.0902405 425.0823975,280.0902405 425.0823975,304.235321 		"/>
		<polygon fill="#565440" points="430.6466064,233.4893188 441.1789856,233.4893188 441.1789856,232.4956207 430.6466064,232.4956207
			430.6466064,210.5365143 450.519104,210.5365143 450.519104,232.4956207 448.8299866,232.4956207 448.8299866,233.4893188
			451.5127869,233.4893188 451.5127869,210.5365143 498.2001953,210.5365143 498.1993103,212.9021149 503.1582031,212.9021149
			508.0270081,213.9950104 508.7225952,211.1136169 504.151886,210.0874176 504.1453857,207.5556183 427.665802,207.5556183
			427.665802,239.3516083 430.6466064,239.3516083 		"/>
		<polygon fill="#565440" points="504.1758118,277.0085449 504.1758118,261.1132202 504.151886,261.1132202 504.151886,261.1117249
			498.1993103,261.1117249 498.1983948,277.0101318 462.0451965,277.0101318 462.0451965,282.3755188 463.0387878,282.3755188
			463.0387878,279.9909363 505.5635071,279.9894409 508.0297852,280.586731 508.0302124,280.5848389 508.0333862,280.5856323
			508.7290039,277.7041321 505.8475037,277.0085449 		"/>
		<polygon fill="#565440" points="504.151886,326.0207214 498.190094,326.0207214 498.190094,342.7487183 503.6010132,342.7487183
			508.0270081,343.7423401 508.7225952,340.8607178 504.151886,339.8347168 		"/>
		<polygon fill="#565440" points="504.151886,296.5700378 504.7481079,294.1001282 499.879303,293.007019 499.2069092,295.8886414
			499.1836853,295.8886414 499.1836853,312.1843262 463.0387878,312.1843262 463.0387878,290.821228 462.0451965,290.821228
			462.0451965,314.2709351 463.0387878,314.2709351 463.0387878,313.1779175 502.1646118,313.1779175 502.1646118,310.3370361
			503.6010132,310.3370361 508.0270081,311.3306274 508.7225952,308.4491272 504.151886,307.4230347 		"/>
		<polygon fill="#565440" points="504.1210938,232.4818115 504.9159851,229.0372162 500.0730896,227.9441223 499.1788025,231.7200165
			499.1788025,245.2095184 504.1210938,245.2095184 504.1210938,245.201416 507.6982117,246.0044098 508.3937073,243.1229095
			504.1210938,242.1638184 		"/>
	</g>
	<g>
		<path fill="none" stroke="#565440" d="M447.0414124,324.8033447c0,1.1924133-0.1987,2.0866089-0.5961914,3.0802917
			c-0.3974915,0.9935913-0.9937134,1.9872131-1.7885132,2.6828003c-0.6955872,0.7948914-1.689209,1.490387-2.6828003,1.8879089
			c-0.9935913,0.3973999-2.0866089,0.5961914-3.2789917,0.5961914v-8.346405"/>
		<path fill="none" stroke="#565440" d="M463.0387878,322.7167358c1.1924133,0,2.0866089-0.1987,3.1795959-0.5961914
			c1.0929871-0.3973999,1.9872131-1.0929871,2.7821045-1.7885132c0.7948914-0.6955872,1.490387-1.689209,1.8879089-2.7821045
			c0.3974915-1.0929871,0.5961914-2.0866089,0.5961914-3.2789001h-8.4458008"/>
		<path fill="none" stroke="#565440" d="M463.0387878,290.8213196c1.1924133,0,2.0866089-0.1987,3.1795959-0.5961914
			c1.0929871-0.3973999,1.9872131-1.0929871,2.7821045-1.7885132s1.490387-1.6890869,1.8879089-2.7821045
			c0.3974915-1.0929871,0.5961914-2.0866089,0.5961914-3.2789001h-8.4458008"/>
		<path fill="none" stroke="#565440" d="M436.210907,321.5243225c-1.1924133,0-2.0866089-0.1987915-3.1795959-0.5961914
			c-1.0929871-0.3974915-1.9872131-1.0929871-2.7821045-1.7885132c-0.7948914-0.6955872-1.490387-1.689209-1.8879089-2.7821045
			c-0.3974915-1.0929871-0.5961914-2.0866089-0.5961914-3.2789917h8.4458008"/>
		<path fill="none" stroke="#565440" d="M450.519104,292.2124329c-1.0929871,0-2.0866089,0.1987-3.0802002,0.5961914
			s-1.9873047,0.9935913-2.6828003,1.7885132c-0.7948914,0.6955872-1.490387,1.689209-1.8879089,2.6828003
			c-0.3974915,0.9935913-0.5961914,2.0866089-0.5961914,3.1795959h8.2471008"/>
		<path fill="none" stroke="#565440" d="M413.4569092,304.9308167c0,0.9935913,0.1987915,1.9873047,0.5961914,2.8815002
			c0.3974915,0.8942871,0.8942871,1.8879089,1.689209,2.5834045c0.6955872,0.6955872,1.5898132,1.291687,2.4841003,1.689209
			c0.8942871,0.3974915,1.9872131,0.5961914,2.980896,0.5961914v-7.7503052"/>
		<path fill="none" stroke="#565440" d="M441.1789856,232.4957123c0-1.0930023,0.1987-1.8878937,0.5961914-2.8815002
			s0.9937134-1.7884979,1.5898132-2.4841003c0.6955872-0.7949066,1.490387-1.391098,2.4841003-1.6891937
			c0.9935913-0.3973999,1.8879089-0.5962067,2.980896-0.5962067v7.6508942"/>
		<path fill="none" stroke="#565440" d="M427.665802,239.2523193c-1.3911133,0-2.7821045,0.2980957-4.0739136,0.8943024
			c-1.291687,0.5962067-2.5834045,1.2917023-3.5770874,2.3847046c-0.9935913,0.9936066-1.8879089,2.1860046-2.3847046,3.4777069
			c-0.5961914,1.2917023-0.8942871,2.782196-0.8942871,4.1732025h10.9299011"/>
		<path fill="none" stroke="#565440" d="M450.519104,265.3845215c-0.9935913,0-1.8879089,0.1987-2.8815002,0.5961914
			c-0.8942871,0.3973999-1.8879089,0.8942871-2.4841003,1.689209c-0.6955872,0.6954956-1.291687,1.490387-1.689209,2.4840088
			c-0.3973999,0.8942871-0.5961914,1.8879089-0.5961914,2.8815002h7.6509094"/>
	</g>
	<g>
		<path fill="none" stroke="#565440" d="M412.7614136,357.1955261l15.5004883,3.5769958l-0.2980957,1.490387l-15.5004883-3.5770874
			L412.7614136,357.1955261z"/>
		<path fill="none" stroke="#565440" d="M444.1599121,356.0031433l25.1387024,5.7630005l-0.2980957,1.490387l-25.1387024-5.7630005
			L444.1599121,356.0031433z"/>
		<polygon fill="none" stroke="#565440" points="507.6525879,343.0860291 506.1621094,342.7879333 502.0882874,360.9712219 478.1419067,356.2018433
			477.9432068,357.6923218 503.2806091,362.7598267 503.3800049,362.0642395 		"/>

			<rect x="496.1768494" y="252.54245" transform="matrix(0.2514896 -0.96786 0.96786 0.2514896 132.9439697 678.4762573)" fill="none" stroke="#565440" stroke-width="1.0000414" stroke-miterlimit="4.0001655" width="17.8927383" height="1.488358"/>

			<rect x="496.1797485" y="317.7769775" transform="matrix(0.2514896 -0.96786 0.96786 0.2514896 69.8082123 727.3076782)" fill="none" stroke="#565440" stroke-width="1.0000414" stroke-miterlimit="4.0001655" width="17.8926163" height="1.4883733"/>

			<rect x="496.1781311" y="286.9819946" transform="matrix(0.2514896 -0.96786 0.96786 0.2514896 99.6122894 704.2558594)" fill="none" stroke="#565440" stroke-width="1.0000414" stroke-miterlimit="4.0001655" width="17.8927383" height="1.4883733"/>

			<rect x="497.1796875" y="220.6040649" transform="matrix(0.2514896 -0.96786 0.96786 0.2514896 164.0114899 654.7712402)" fill="none" stroke="#565440" stroke-width="1.0000414" stroke-miterlimit="4.0001655" width="16.3028584" height="1.488358"/>
	</g>
</g>
<g>
	<path fill="none" stroke="#565440" d="M441.2770996,175.3627167c0,1.0930023,0.1987,1.9871979,0.5961914,2.9808044
		c0.3973999,0.9936066,0.9935913,1.8878937,1.689209,2.5834045c0.6954956,0.7949066,1.5898132,1.391098,2.583313,1.7884979
		c0.9937134,0.3973999,1.9873047,0.5962067,3.0802002,0.5962067v-7.9488983 M467.1109009,175.3627167
		c0,1.0930023-0.1987,1.9871979-0.5960999,2.9808044c-0.3974915,0.9936066-0.9935913,1.8878937-1.689209,2.5834045
		c-0.6954956,0.7949066-1.5898132,1.391098-2.5834045,1.7884979s-1.9872131,0.5962067-3.0802002,0.5962067v-7.9488983
		 M427.6646118,171.7857208c-1.291687,0-2.4840088-0.2980957-3.6763916-0.7949066
		c-1.1922913-0.4967957-2.384613-1.1923065-3.2789001-2.1858978c-0.8941956-0.8943024-1.6890869-1.9871979-2.1860046-3.1795959
		c-0.4967957-1.1923065-0.7948914-2.4839935-0.7948914-3.7756958h9.9360962"/>
	<g>
		<polygon fill="none" stroke="#565440" points="503.8330078,165.3518219 502.3924866,164.9775085 506.6626892,148.4539185 508.1030884,148.8282166
					"/>

			<rect x="496.1737976" y="187.5972595" transform="matrix(0.2514896 -0.96786 0.96786 0.2514896 195.7995605 629.861145)" fill="none" stroke="#565440" stroke-width="1.0000414" stroke-miterlimit="4.0001655" width="17.8927383" height="1.488358"/>
	</g>
	<g>
		<polygon fill="#565440" points="430.6453857,140.9837189 450.5177002,140.9837189 450.5177002,160.5579224 451.5112915,160.5579224
			451.5112915,140.9837189 498.2020874,140.9837189 498.2020874,141.9041138 498.2020874,141.9041138 498.2020874,148.3285217
			503.5952148,148.3285217 508.0227966,149.3223114 508.0230103,149.3214111 508.0260925,149.322113 508.7215881,146.4406128
			504.151001,145.4146118 504.1513062,144.4665222 504.1514893,144.4665222 504.1514893,144.2470093 504.1524048,141.9041138
			504.1546936,141.9041138 504.1546936,140.9836121 504.1546936,139.3804169 504.1546936,138.0029144 427.6646118,138.0029144
			427.6646118,161.8496094 430.6453857,161.8496094 		"/>
		<polygon fill="#565440" points="504.1481018,198.9304199 504.1448975,198.9304199 504.1448975,196.52211 498.2054138,196.52211
			498.2012939,207.5557098 451.5112915,207.5557098 451.5112915,175.3627167 459.1621094,175.3627167 459.1621094,174.3691101
			449.2260132,174.3691101 449.2260132,175.3627167 450.5177002,175.3627167 450.5177002,207.5557098 430.6676941,207.5557098
			430.6453857,175.3627167 441.2770996,175.3627167 441.2770996,174.3691101 430.6453857,174.3691101 430.6453857,171.785614
			427.6646118,171.785614 427.6646118,210.5365143 504.151886,210.5365143 504.1512146,208.7268219 504.151886,208.7268219
			504.151886,207.4560089 504.1509094,207.4560089 		"/>
		<polygon fill="#565440" points="504.1263123,177.698822 504.1263123,168.3707123 504.9212036,164.9260101 500.078186,163.8330078
			499.1839905,167.6088104 499.1839905,174.3674164 467.1176147,174.3712158 467.1176147,175.3648224 499.1839905,175.3611145
			499.1839905,180.7445221 504.1263123,180.7445221 504.1263123,180.7364197 507.7033081,181.5394135 508.3988953,178.6579132 		"/>
	</g>
</g>
<g>
	<g>
		<polygon fill="#565440" points="430.6466064,116.1422119 440.5828857,116.1422119 440.5828857,115.148613 430.6466064,115.148613
			430.6466064,101.2378159 450.519104,101.2378159 450.519104,115.148613 448.5318909,115.148613 448.5318909,116.1422119
			451.5127869,116.1422119 451.5127869,115.148613 451.5127869,82.3589172 450.519104,82.3589172 450.519104,100.2442169
			430.6466064,100.2442169 430.6466064,73.4163132 450.519104,73.4163132 450.519104,74.4100189 451.5127869,74.4100189
			451.5127869,73.4163132 452.5064087,73.4163132 452.5064087,72.4227142 430.6466064,72.4227142 430.6466064,38.6395149
			433.6275024,38.6395149 435.2172852,31.8828163 432.3357849,31.1873169 431.2836914,35.6586151 430.6466064,35.6586151
			427.665802,35.6586151 427.665802,127.072113 430.6466064,127.072113 		"/>
		<polygon fill="#565440" points="470.3916016,82.3589172 469.3980103,82.3589172 469.3980103,83.827713 462.4425964,83.827713
			462.4425964,84.8197174 504.1546936,84.8132172 507.7318115,85.6162186 508.4273987,82.7346115 504.1546936,81.7755127
			504.1546936,67.0635147 498.2112122,67.0635147 498.2112122,83.827713 470.3916016,83.827713 		"/>
		<polygon fill="#565440" points="469.3980103,72.4227142 460.4554138,72.4227142 460.4554138,73.4163132 469.3980103,73.4163132
			469.3980103,74.4100189 470.3916016,74.4100189 470.3916016,73.4163132 470.3916016,72.4227142 470.3916016,40.6267166
			470.8207092,40.6267166 470.8207092,40.6278152 483.311615,40.6278152 483.311615,40.6056137 483.4108887,40.6278152
			485.3981934,31.8839169 485.3952026,31.8833179 485.3952942,31.8828163 480.5266113,30.789917 479.4200134,35.6586151
			470.3916016,35.6586151 448.5318909,35.6586151 448.5318909,38.6395149 469.3980103,38.6395149 		"/>
		<polygon fill="#565440" points="504.1546936,103.3215179 504.949707,99.876915 500.1066895,98.7838135 499.2124023,102.5597153
			499.2124023,115.5353165 504.1546936,115.5353165 504.1546936,115.5272141 507.7318115,116.3302155 508.4273987,113.448616
			504.1546936,112.4895172 		"/>
		<polygon fill="#565440" points="498.2020874,138.0020142 430.6466064,138.0020142 430.6466064,137.0084229 427.665802,137.0084229
			427.665802,138.0020142 427.665802,140.9828186 504.1546936,140.9828186 504.1546936,131.5728149 498.2020874,131.5728149 		"/>
	</g>
	<path fill="none" stroke="#565440" d="M440.5828857,115.148613c0-1.0930023,0.1987-1.9872971,0.5961914-2.9809036
		c0.3973999-0.9935989,0.9935913-1.8879013,1.689209-2.5833969c0.6954956-0.794899,1.5898132-1.391098,2.5834045-1.7884979
		c0.9937134-0.3974991,1.9873047-0.596199,3.0802917-0.596199v7.9489975 M450.519104,82.3590164
		c-1.0929871,0-1.9872131-0.1987-2.980896-0.596199c-0.9935913-0.3974991-1.8879089-0.9935989-2.5834045-1.6892014
		c-0.7948914-0.6955032-1.3911133-1.589798-1.7885132-2.5833969c-0.3974915-0.9935989-0.5961914-1.9872971-0.5961914-3.0802002
		h7.9490051 M452.5064087,72.4227142c0-1.0930023,0.1987-1.9872971,0.5961914-2.9809036
		c0.3973999-0.9935989,0.9935913-1.8879013,1.689209-2.5833969c0.6954956-0.794899,1.5898132-1.391098,2.5834045-1.7884979
		c0.9937134-0.3974991,1.9873047-0.596199,3.0802917-0.596199v7.9489975 M470.3916016,74.4100189
		c1.0929871,0,1.9872131,0.1987,2.980896,0.596199s1.8879089,0.9935989,2.5834045,1.6892014
		c0.7948914,0.6955032,1.3911133,1.589798,1.7885132,2.5833969s0.5961914,1.9872971,0.5961914,3.0802002h-7.9490051
		 M430.6466064,127.072113c1.291687,0,2.4841003,0.2981033,3.6763916,0.794899
		c1.1924133,0.4968033,2.3847046,1.1924057,3.2789917,2.185997c0.8942871,0.8943024,1.689209,1.9871979,2.1860046,3.1795959
		s0.7948914,2.4841003,0.7948914,3.7758026h-9.9361877"/>
	<g>
		<polygon fill="none" stroke="#565440" points="506.7668152,37.0530167 482.9198914,31.488718 482.6217957,32.9791145 505.0776978,38.1460152
			502.4942932,49.3740158 502.4942932,68.0541153 503.9847107,68.0541153 503.9847107,49.3740158 		"/>
		<polygon fill="none" stroke="#565440" points="506.3693848,114.1583176 507.8598022,114.4564133 503.8853149,131.8448181 502.3948975,131.5467224
					"/>
		<polygon fill="none" stroke="#565440" points="506.3693848,83.3559189 507.8598022,83.6540146 503.8853149,101.0424118 502.3948975,100.7443161
			"/>
		<polygon fill="none" stroke="#565440" points="433.0398865,31.687418 451.7200012,35.9600143 451.4219971,37.4505157 432.7417908,33.1779137 		"/>
	</g>
</g>
<g>
	<g>
		<path fill="none" stroke="#565440" d="M406.8989868,31.5848179l19.3757019,4.4712963l-0.2980957,1.4903984l-19.3757019-4.5707016
			L406.8989868,31.5848179z"/>
		<path fill="none" stroke="#565440" d="M355.1311951,99.250618h1.490387v28.8151016h-1.490387V99.250618z"/>
		<polygon fill="none" stroke="#565440" points="355.1311951,30.6905174 355.1311951,59.9030151 356.6216125,59.9030151 356.6216125,32.6778145
			374.1094055,37.2484169 374.506897,35.7580147 		"/>
	</g>
	<g>
		<path fill="#565440" d="M427.665802,35.6586151h2.980896v90.4197998h-2.980896V35.6586151z"/>
		<path fill="#565440" d="M425.6784973,123.0976181h1.9872131v2.9809036h-1.9872131V123.0976181z"/>
		<path fill="#565440" d="M407.7933044,123.0976181h7.9490051v2.9809036h-7.9490051V123.0976181z"/>
		<path fill="#565440" d="M407.7933044,126.0784149h2.980896v15.897995h-2.980896V126.0784149z"/>
		<path fill="#565440" d="M404.8124084,138.9956207h2.980896v2.980896h-2.980896V138.9956207z"/>
		<path fill="#565440" d="M401.8315125,138.9956207h2.980896v32.7895966h-2.980896V138.9956207z"/>
		<path fill="#565440" d="M356.1247864,168.8043213h46.5015869v2.980896h-46.5015869V168.8043213z"/>
		<path fill="#565440" d="M354.1376038,127.072113h5.9617004v44.7131958h-5.9617004V127.072113z"/>
		<path fill="#565440" d="M354.1376038,50.563015h5.9617004v49.6812019h-5.9617004V50.563015z"/>
		<path fill="#565440" d="M351.1567078,51.5566139h2.980896v2.9808998h-2.980896V51.5566139z"/>
		<path fill="#565440" d="M351.1567078,66.4610138h2.980896v2.9809036h-2.980896V66.4610138z"/>
		<path fill="#565440" d="M351.1567078,81.3653183h2.980896v2.9809036h-2.980896V81.3653183z"/>
		<path fill="#565440" d="M351.1567078,97.2633133h2.980896v2.9809036h-2.980896V97.2633133z"/>
		<path fill="#565440" d="M351.1567078,127.072113h2.980896v2.980896h-2.980896V127.072113z"/>
		<path fill="#565440" d="M351.1567078,142.970108h2.980896v2.980896h-2.980896V142.970108z"/>
		<path fill="#565440" d="M351.1567078,112.167717h6.9554138v2.9809036h-6.9554138V112.167717z"/>
		<path fill="#565440" d="M374.0100098,36.6522141h33.7832031v2.9808998h-33.7832031V36.6522141z"/>
		<path fill="#565440" d="M374.2088013,35.0625153l6.4585876,2.5834007l-1.0929871,2.7821007l-6.4585876-2.5834007
			L374.2088013,35.0625153z"/>
		<path fill="#565440" d="M406.7002869,31.2867165l2.8815002,0.6954994l-1.7885132,7.7502975l-2.8815002-0.6954994
			L406.7002869,31.2867165z"/>
		<path fill="#565440" d="M423.6913147,35.6586151h4.5707092v5.9617004h-4.5707092V35.6586151z"/>
		<path fill="#565440" d="M375.9973145,36.6522141h6.9554138v4.9681015h-6.9554138V36.6522141z"/>
		<path fill="#565440" d="M393.8825073,39.6331139h0.9935913v40.7386055h-0.9935913V39.6331139z"/>
		<path fill="#565440" d="M393.8825073,88.3207169h0.9935913V99.250618h-0.9935913V88.3207169z"/>
		<path fill="#565440" d="M380.5679932,77.3908157h0.9935913v21.8597031h-0.9935913V77.3908157z"/>
		<path fill="#565440" d="M371.0292053,146.9446106h0.9935913v5.9617004h-0.9935913V146.9446106z"/>
		<path fill="#565440" d="M359.9999084,146.9446106h3.0802002v0.9936066h-3.0802002V146.9446106z"/>
		<path fill="#565440" d="M383.9462891,162.8426208h0.9935913v6.9553986h-0.9935913V162.8426208z"/>
		<path fill="#565440" d="M383.9462891,153.9000092h0.9935913v0.9936066h-0.9935913V153.9000092z"/>
		<path fill="#565440" d="M404.8124084,76.3972168h22.8533936v0.9935989h-22.8533936V76.3972168z"/>
		<path fill="#565440" d="M394.8761902,76.3972168h1.9872131v0.9935989h-1.9872131V76.3972168z"/>
		<path fill="#565440" d="M379.9718018,76.3972168h1.5898132v0.9935989h-1.5898132V76.3972168z"/>
		<path fill="#565440" d="M358.509491,76.3972168h13.5133057v0.9935989H358.509491V76.3972168z"/>
		<path fill="#565440" d="M407.7933044,77.3908157h0.9935913v8.9426041h-0.9935913V77.3908157z"/>
		<path fill="#565440" d="M407.7933044,94.1831131h0.9935913v10.0355988h-0.9935913V94.1831131z"/>
		<path fill="#565440" d="M400.8378906,123.0976181h6.9554138v0.9935989h-6.9554138V123.0976181z"/>
		<path fill="#565440" d="M408.7868958,103.2251129h18.8789063v0.9935989h-18.8789063V103.2251129z"/>
		<path fill="#565440" d="M358.9070129,99.250618h35.9692078v0.9935989h-35.9692078V99.250618z"/>
		<path fill="#565440" d="M371.0292053,152.906311h30.8023987v0.9936981h-30.8023987V152.906311z"/>
	</g>
	<path fill="none" stroke="#565440" d="M404.8124084,76.3972168c0-1.0930023-0.1987-1.9871979-0.5961914-2.9809036
		c-0.3973999-0.9935989-0.9935913-1.8879013-1.6890869-2.5833969c-0.6955872-0.794899-1.5898132-1.391098-2.5834045-1.7884979
		s-1.9872131-0.596199-3.0802917-0.596199v7.9489975 M393.8825073,80.3717117c-1.0929871,0-1.9872131,0.1987-2.980896,0.596199
		c-0.9935913,0.3974991-1.8879089,0.9935989-2.5834045,1.6892014c-0.7948914,0.6955032-1.3911133,1.589798-1.7885132,2.5833969
		s-0.5961914,1.9872971-0.5961914,3.0802002h7.9490051 M407.7933044,94.1831131c-1.0929871,0-1.9872131-0.1987-2.980896-0.596199
		c-0.9935913-0.3973999-1.8879089-0.9935989-2.5834045-1.6892014c-0.7948914-0.6955032-1.3911133-1.589798-1.7885132-2.5833969
		s-0.5961914-1.9872971-0.5961914-3.0802002h7.9490051 M371.9234009,77.3908157c0,0.9935989,0.1987,1.8879013,0.5961914,2.7822037
		c0.3973999,0.8943024,0.8942871,1.7884979,1.689209,2.4841003c0.6954956,0.6955032,1.5898132,1.2917023,2.4840088,1.6892014
		c0.8942871,0.3974991,1.8879089,0.596199,2.8815002,0.596199v-7.5514984 M371.0292053,146.9446106
		c0-1.0930023-0.1987-1.9871979-0.5961914-2.980896c-0.3973999-0.9936066-0.9935913-1.8878937-1.6890869-2.5834045
		c-0.6955872-0.7949066-1.5898132-1.391098-2.5834045-1.7884979s-1.9872131-0.5962067-3.0802917-0.5962067v7.9490051
		 M383.9462891,162.8426208c-1.0929871,0-1.9872131-0.1987-2.980896-0.5962067
		c-0.9935913-0.3973999-1.8879089-0.9936066-2.5834045-1.6891937c-0.7948914-0.6954956-1.3911133-1.589798-1.7885132-2.5834045
		s-0.5961914-1.9871979-0.5961914-3.0802002h7.9490051 M415.7423096,123.0976181
		c0-1.2917023,0.2980957-2.4841003,0.7948914-3.6763992s1.1924133-2.384697,2.1860046-3.2789993
		c0.8942871-0.8943024,1.9872131-1.6892014,3.1795959-2.185997c1.1924133-0.4968033,2.4840088-0.794899,3.7757874-0.794899v9.936203
		"/>
</g>
<g >
	<rect x="355" y="-0.0001832" fill="none" width="10" height="10"/>
	<rect x="181.0650024" y="235.0000153" fill="none" width="10" height="10"/>
	<rect x="355" y="469.9998169" fill="none" width="10" height="10"/>
	<rect x="528.7661743" y="235.0000153" fill="none" width="10" height="10"/>
</g>
<g >
	<path data-nr="3" class="plan__svg__hoverable" fill="none" d="M324.32901,120.1168137h-22.2572937v-0.0000992h-19.4750977h-0.5960999h-6.3591919
		v0.0000992h-13.9107056v-0.0000992h-20.8661041h-2.1860046h-4.7693939v0.0000992h-22.8531952v14.9043045h-0.0001984v6.9553986
		h0.0001984v13.9107971h-0.0001984v20.8661041v5.7630005v1.1923981h0.0001984v13.9107056h-0.0001984v4.9680939v2.980896h0.0001984
		v12.917099h-0.0001984v6.9553986h0.0001984v13.9107056h-0.0001984v6.9553986h0.0001984v13.6125031h-0.0001984v8.8432922v0.6955872
		v5.6636047h0.6956024h4.5706024v0.0000916h81.1791077v-2.980896v-13.9831848v-4.4982147h10.3338013v-0.4967957
		c0-1.2866974-0.288208-2.6578064-0.8334961-3.9667053c-0.4885864-1.1730957-1.281311-2.3278046-2.2749023-3.3204956
		c-0.8326111-0.925705-1.9960022-1.7033997-3.4573059-2.3123016c-1.3286133-0.5538025-2.5293884-0.8146973-3.7680054-0.8282013
		v-8.2229919v-28.9438019h26.8279114v-2.980896v-66.5727997h0.0002136v-15.8980942H324.32901z M304.0057983,246.5589142
		c0.9204102,0.9208069,1.6388855,1.9649048,2.0784912,3.0196991c0.4249878,1.0198059,0.6777954,2.0774994,0.7413025,3.0876007
		h-9.3246155v-8.9373016c1.1037903,0.0137024,2.1827087,0.2503052,3.3857117,0.7514954
		C302.2112122,245.032608,303.2547913,245.7254181,304.0057983,246.5589142z"/>
	<path data-nr="2" class="plan__svg__hoverable" fill="none" d="M307.100708,317.6564331
		c-0.489502-1.1751099-1.2828064-2.3287964-2.2749023-3.3204956c-0.8334961-0.9256897-1.9970093-1.7038879-3.4573059-2.3122864
		c-1.3633118-0.567688-2.5922852-0.8326111-3.8673096-0.8326111v-4.2732849l-0.0002136-0.0018921v-31.7937012v-2.980896h-86.4452972
		v2.980896v1.5898132v1.5898132v9.2406006h0.0001984v14.4076538h-0.0001984v7.2533875h0.0001984v13.3145142h-0.0001984v10.4330139
		v2.1860046v8.5451965h3.7758026v0.0000916h82.6696167v-0.894104h0.0002136v-20.6672058h10.4330139v-0.4967957
		C307.9342041,320.3190308,307.6538086,318.9838257,307.100708,317.6564331z M297.5011902,321.1273193v-8.9425964
		c1.1391907,0,2.2467957,0.2406921,3.4849854,0.756897c1.3234863,0.5510864,2.3666077,1.243988,3.1191101,2.0784912
		c0.9194031,0.9189148,1.6379089,1.9630127,2.0784912,3.0187073c0.4249878,1.0198059,0.6777954,2.0775146,0.7413025,3.0885925
		h-9.4238892V321.1273193z"/>
	<path data-nr="1" class="plan__svg__hoverable" fill="none" d="M370.0357056,349.6435242h-0.0002136v-41.7318115h-0.0993042h-4.8688049h-44.7131042
		v4.9681091v27.8215027h-6.221405h-4.0340881c-0.0499878-1.1347961-0.3031921-2.2486877-0.8120117-3.4703979
		c-0.6079102-1.4594116-1.3861084-2.6228027-2.293396-3.4389038c-1.0105896-1.0111084-2.1653137-1.803894-3.339386-2.2939148
		c-1.3269043-0.5520935-2.6615906-0.8326111-3.9671936-0.8326111h-0.4967957v10.035614h-87.8699036h-0.2644958v2.980896v6.9554138
		h0.0001984v14.9043884h-0.0001984v6.9554138h0.0001984v14.0101013h-0.0001984v8.6445007v8.6445007v10.8305054h0.0001984v13.5133057
		h-0.0001984v6.9554138h0.0001984v14.9039001h22.8531952v0.0005798h6.9553986h20.8661041v-0.0003967h14.506897v0.0003967h12.1223145
		h9.1413879h6.2597961v-0.0003967h14.6062927v0.0003967h20.8660889h6.9554138v-0.0003967h23.8471985V349.6435242H370.0357056z
		 M303.271698,332.4162292c1.0556946,0.4395142,2.0993042,1.1585999,3.0380859,2.0958862
		c0.8156128,0.7344971,1.5089111,1.778595,2.0599976,3.1011963c0.4559937,1.0943909,0.6852112,2.0864868,0.7351074,3.0880127
		h-8.9212952v-9.0264893C301.1947021,331.7379456,302.2524109,331.9911194,303.271698,332.4162292z"/>
	<path data-nr="7" class="plan__svg__hoverable" fill="none" d="M504.151886,307.4230347v-10.8529968l0.4858093-2.0122986l4.0625916-15.6317139
		l-0.2503967-0.0651855l0.2792053-1.1567993l-2.8815002-0.6955872h-1.6716919v-15.1109009l4.5244141-17.4120178
		l-0.5979919-0.1551971l0.2915039-1.2075043l-4.2726135-0.959198v-9.6819l0.7948914-3.4445953l-0.2750854-0.0621033
		l4.0690002-15.6593933l-0.4883118-0.1268005l0.5010071-2.0753937l-4.5707092-1.0260925l-0.0064087-2.5317993h-76.4797058v31.196701
		c-1.4902039,0-2.931488,0.3164978-4.283905,0.9403992c-1.3075867,0.6035004-2.6650085,1.3242035-3.7207031,2.4853973
		c-1.1621094,1.1620941-2.0263977,2.4248047-2.4854126,3.6221008c-0.6054993,1.3135071-0.9395142,2.8701019-0.9395142,4.3818054v0.5
		h11.4294128v26.4274139h-27.8215027v82.4709167h10.2486877l2.469696,0.5960999l0.2037048-0.9072876l15.5871887,3.5965881
		l0.0407104-0.20401l2.0537109,0.495697l0.8252869-3.6765137h13.2840881v-1.3147888l24.833313,5.692688l0.0361023-0.1806946
		l1.9584961,0.4728088l1.0484009-4.6700134h11.8687134v-0.0062866l19.3977966,3.8793945l0.1669922-1.1806946l4.1507874-18.4328918
		l0.0090942,0.0021057l0.6955872-2.8815918l-4.5707092-1.0260925v-12.6109924l4.5483093-17.502594l-0.2677917-0.0694885
		l0.2901917-1.2023926L504.151886,307.4230347z M418.0967102,246.1888123
		c0.4219055-1.097702,1.2070007-2.2393036,2.2880859-3.3202972c0.9512024-1.0469055,2.2041016-1.7079926,3.4169922-2.2675934
		c1.219696-0.5630035,2.5195007-0.8486023,3.8642883-0.8486023v9.9297028H417.25
		C417.3135071,248.4730225,417.6054993,247.2562103,418.0967102,246.1888123z"/>
	<path data-nr="6" class="plan__svg__hoverable" fill="none" d="M508.2601013,148.352417l0.4614868-1.9116974l-4.5707092-1.0260925l0.0003967-0.947998
		h0.0000916v-0.2194977l0.0010071-2.3430023h0.0022888v-0.9205017v-1.6031036v-1.377594h-76.4901123v16.8907013v6.4559021
		h-10.4360962v0.5c0,1.2881012,0.2880859,2.660202,0.8330078,3.9683075c0.4892883,1.1732941,1.282196,2.3280945,2.2753906,3.3217926
		c0.8340149,0.925293,1.9971008,1.703598,3.4590149,2.3130035c1.3651123,0.5688019,2.5943909,0.8334961,3.8687134,0.8334961
		v35.4085999v2.8419952h76.4872131l-0.0007019-1.8096924h0.0007019v-1.2707977h-0.0010071l-0.0026855-8.5256042h-0.0032043
		v-1.8598938l4.5552979-17.5305939l-0.4837952-0.1259003l0.1824951-0.7561035l-4.2726135-0.9591064v-9.3280945l0.7950134-3.4445953
		l-0.436615-0.0984955l4.228302-16.3574982L508.2601013,148.352417z M421.0625,168.4515228
		c-0.9198914-0.9208984-1.6387024-1.964798-2.0770874-3.0186005c-0.4248047-1.0175934-0.6777039-2.0737-0.7412109-3.0834961
		h9.4205017v8.9364929c-1.1376038,0-2.2449036-0.2402954-3.4838867-0.7563019
		C422.8564148,169.9778137,421.8135071,169.2850189,421.0625,168.4515228z"/>
	<polygon data-nr="5" class="plan__svg__hoverable" fill="none" points="508.4273987,113.4487152 504.1546936,112.4896164 504.1546936,103.3215179
		504.949585,99.8768158 504.6787109,99.815712 508.460907,83.2645187 508.3068848,83.2336121 508.4273987,82.7347183
		504.1546936,81.7755127 504.1546936,68.5540161 504.4844055,68.5540161 504.4844055,49.4295158 507.3633118,36.6790161
		482.531311,30.8846169 482.4631958,31.224617 480.5266113,30.789917 479.4200134,35.6586151 470.3916016,35.6586151
		452.2901917,35.6586151 452.3056946,35.5814171 432.6503906,31.0853176 432.6164856,31.2551174 432.3357849,31.1873169
		431.2838135,35.6586151 430.646698,35.6586151 427.665802,35.6586151 427.665802,87.2344131 427.665802,127.0720139
		427.665802,137.0084229 427.665802,138.0020142 427.665802,139.6516113 427.665802,140.9828186 504.1546936,140.9828186
		504.1546936,132.4090118 504.2645874,132.431015 508.460907,114.0667191 508.2865906,114.0319138 	"/>
	<polygon data-nr="4" class="plan__svg__hoverable" fill="none" points="428.2619934,35.6586151 427.665802,35.6586151 426.7608948,35.6586151
		406.5184021,30.9870167 406.0129089,33.3474159 406.2138062,33.3948135 405.4620972,36.652317 382.9526978,36.652317
		378.1832886,36.652317 375.1104126,35.4231148 375.115387,35.4040146 374.9630127,35.3641167 374.2088013,35.0624161
		374.1716003,35.1571159 354.634613,30.0472164 354.634613,50.563015 354.1376038,50.563015 354.1376038,51.5566139
		351.1567078,51.5566139 351.1567078,54.5375137 354.1376038,54.5375137 354.1376038,66.4610138 351.1567078,66.4610138
		351.1567078,69.4419174 354.1376038,69.4419174 354.1376038,81.3654175 351.1567078,81.3654175 351.1567078,84.3462143
		354.1376038,84.3462143 354.1376038,97.2633133 351.1567078,97.2633133 351.1567078,100.2442169 354.1376038,100.2442169
		354.634613,100.2442169 354.634613,112.167717 351.1567078,112.167717 351.1567078,115.148613 354.634613,115.148613
		354.634613,127.072113 354.1376038,127.072113 351.1567078,127.072113 351.1567078,130.0529175 354.1376038,130.0529175
		354.1376038,142.970108 351.1567078,142.970108 351.1567078,145.9510193 354.1376038,145.9510193 354.1376038,171.7852173
		356.1247864,171.7852173 360.0993042,171.7852173 401.8315125,171.7852173 402.6264038,171.7852173 404.8124084,171.7852173
		404.8124084,141.9765167 407.7933044,141.9765167 410.7742004,141.9765167 410.7742004,126.0785141 415.7423096,126.0785141
		415.7423096,123.0976181 416.2392883,123.0976181 416.2392883,123.0976181 425.1818848,123.0976181 425.1818848,123.0976181
		425.6784973,123.0976181 425.6784973,126.0785141 427.665802,126.0785141 430.6466064,126.0785141 430.6466064,35.6586151 	"/>
</g>
</svg>
