<!-- DO NOT EDIT THIS, THIS FILE IS GENERATED FROM "1_39.original.svg" using transform-svgs.js script -->



<svg version="1.1" 
	 xmlns="http://www.w3.org/2000/svg" xmlns:xlink="http://www.w3.org/1999/xlink" x="0px" y="0px" viewBox="0 0 720 480"
	 style="enable-background:new 0 0 720 480;" xml:space="preserve">


<g>
	<polygon fill="#DBD4CA" points="357.8999939,31.699955 358,151.4999695 325.7999878,151.4999695 325.7000122,115.0999451
		211.8000031,115.0999451 211.8000031,449.499939 372.2000122,449.499939 372.2000122,325.8999329 371.3999939,323.2999268
		403.5,323.2999268 403.5,323.499939 405.1000061,323.499939 405.1000061,356.0999451 506,356.0999451 506,31.699955 	"/>
	<g>
		<path fill="#565440" d="M506.4000244,29.9999561h-2.5H362.6000366H356.5v2.9999981v12.0999756h-2.9711914v3H356.5V60.299942
			h-2.9711914v3H356.5v12.0999756h-2.9711914v3H356.5v13.2000122h-2.9711914v3H356.5v12.1000366h-2.9711914v3H356.5v12.1999512
			h-2.9711914v3H356.5v13.1000366h-2.9711914v3H356.5v10.2000122h-31.7000122v1H356.5v9.2000122h-31.3999634v6.0999756h83.5
			v-3.0999756h17.7000122v3.0999756h1.7999878v106.799942h-19h-6H403v47.5h-30.7999878v3H403v33.3000488h4.1000366h2h94.7999878h2.5
			h2.5V29.9999561H506.4000244z M409.1000366,353.0999451v-29.8000488h3v-3h-3v-13.1999512h3v-3h-3v-13.1000366h3v-3h-3v-7.5999756
			h3.1999512v3h3v-3H428.5v3h3v-3h2.8000488v-6.1000366h-0.1000366v-8.6999512h3v-3h-3v-12.1999664h3v-3h-3V234.299942h3v-3h-3
			v-12.1999512h3v-3h-3v-12.1000366h3v-3h-3V187.799942h3v-3h-3v-13.0999756h3v-3h-3v-1.2000122v-6.0999756h-6.0999756h-1.7999878
			h-17.7000122h-25.7000122v-3.1000366h-3v3.1000366h-17.2999878V32.9999542h141.2999878v320.0999756H409.1000366z"/>
		<rect x="426.2999878" y="158.299942" fill="#565440" width="3" height="3"/>
		<rect x="395" y="158.299942" fill="#565440" width="3" height="3"/>
		<rect x="364.7000122" y="158.299942" fill="#565440" width="3" height="3"/>
		<rect x="348.6000366" y="158.299942" fill="#565440" width="3" height="3"/>
		<rect x="332.4000244" y="158.299942" fill="#565440" width="3" height="3"/>
	</g>
</g>
<g>
	<g>
		<polygon fill="#565440" points="262.0004883,198.5985718 261.7005005,198.5985718 261.7005005,197.3985596 260.7005005,197.3985596
			260.7005005,198.5985718 217.2005005,198.5985718 217.2005005,193.5985718 211.1004639,193.5985718 211.1004639,198.5985718
			211.1004639,201.5985718 262.0004883,201.5985718 		"/>
		<polygon fill="#565440" points="217.2005005,172.2985229 216.1004639,172.2985229 216.1004639,163.8985596 260.7005005,163.8985596
			260.7005005,189.4985352 261.7005005,189.4985352 261.7005005,163.8985596 263.7005005,163.8985596 263.7005005,162.8985596
			216.1004639,162.8985596 216.1004639,151.0985718 211.1004639,151.0985718 211.1004639,172.2985229 211.1004639,178.1985474
			211.1004639,179.3985596 217.2005005,179.3985596 		"/>
		<polygon fill="#565440" points="217.2005005,129.9985352 211.1004639,129.9985352 211.1004639,136.9985352 211.1004639,137.0985718
			217.2005005,137.0985718 		"/>
		<polygon fill="#565440" points="241.4005127,119.8985519 262.5004883,119.8985519 262.5004883,114.8985519 241.4005127,114.8985519
			241.4005127,114.7985764 234.3004761,114.7985764 234.3004761,120.8985519 241.4005127,120.8985519 		"/>
		<polygon fill="#565440" points="321.2005005,129.9985352 321.2005005,175.4985352 297.3004761,175.4985352 296.3004761,175.4985352
			293.5004883,175.4985352 293.5004883,176.4985352 296.3004761,176.4985352 296.3004761,179.3985596 297.3004761,179.3985596
			297.3004761,176.4985352 321.2005005,176.4985352 321.2005005,198.5985718 298.9005127,198.5985718 297.3004761,198.5985718
			297.3004761,188.298584 296.3004761,188.298584 296.3004761,198.5985718 295.9005127,198.5985718 295.9005127,201.5985718
			295.9005127,202.9985352 275.7005005,202.9985352 275.7005005,176.4985352 276.7005005,176.4985352 277.7005005,176.4985352
			285.9005127,176.4985352 285.9005127,175.4985352 277.7005005,175.4985352 277.7005005,174.3985596 276.7005005,174.3985596
			276.7005005,175.4985352 275.7005005,175.4985352 275.7005005,175.3985596 274.7005005,175.3985596 274.7005005,175.4985352
			274.7005005,176.4985352 274.7005005,212.6985474 275.7005005,212.6985474 275.7005005,203.9985352 295.9005127,203.9985352
			295.9005127,224.0985718 275.7005005,224.0985718 275.7005005,220.5985718 274.7005005,220.5985718 274.7005005,237.9985352
			274.7005005,238.9985352 275.7005005,238.9985352 276.5004883,238.9985352 276.5004883,237.9985352 275.7005005,237.9985352
			275.7005005,225.0985718 295.9005127,225.0985718 295.9005127,237.9985352 283.5004883,237.9985352 283.5004883,238.9985352
			295.9005127,238.9985352 295.9005127,239.8985596 298.9005127,239.8985596 298.9005127,201.5985718 326.2005005,201.5985718
			326.2005005,198.6985474 326.2005005,198.5985718 326.2005005,129.9985352 		"/>
		<polygon fill="#565440" points="276.7005005,166.3985596 277.7005005,166.3985596 277.7005005,120.8985519 283.8005371,120.8985519
			283.8005371,119.8985519 303.6005249,119.8985519 303.6005249,114.8985519 283.8005371,114.8985519 283.8005371,114.7985764
			276.7005005,114.7985764 276.7005005,119.8985519 276.7005005,120.8985519 276.7005005,162.8985596 271.2005005,162.8985596
			271.2005005,163.8985596 276.7005005,163.8985596 		"/>
		<rect x="211.1004639" y="214.798584" fill="#565440" width="5" height="7.0999756"/>
		<rect x="211.1004639" y="235.9985352" fill="#565440" width="6.1000366" height="7.1000366"/>
		<polygon fill="#565440" points="295.9005127,257.6985474 282.4005127,257.6985474 282.4005127,258.6985474 295.9005127,258.6985474
			295.9005127,269.2985229 274.3004761,269.2985229 274.3004761,258.6985474 274.9005127,258.6985474 274.9005127,257.6985474
			274.3004761,257.6985474 273.3004761,257.6985474 273.3004761,258.6985474 273.3004761,269.2985229 217.2005005,269.2985229
			217.2005005,265.7985229 216.1004639,265.7985229 216.1004639,256.8985596 211.1004639,256.8985596 211.1004639,265.7985229
			211.1004639,266.5985718 211.1004639,272.2985229 216.4004517,272.2985229 217.2005005,272.2985229 298.9005127,272.2985229
			298.9005127,269.2985229 298.9005127,249.8985596 295.9005127,249.8985596 		"/>
	</g>
	<g>
		<polygon fill="none" stroke="#565440" points="324.2005005,115.2985458 211.6004791,115.2985458 211.6004791,194.0985718
			213.1004791,194.0985718 213.1004791,116.7985458 324.2005005,116.7985458 324.2005005,130.4985657 325.7005005,130.4985657
			325.7005005,115.2985458 		"/>
		<path fill="none" stroke="#565440" d="M211.6004791,201.0985718h1.5v56.4999695h-1.5V201.0985718z"/>
	</g>
	<g>
		<path fill="none" stroke="#565440" d="M274.8004761,220.7985687c-1.1000061,0-2-0.1999969-3-0.6000061
			c-1-0.3999939-1.8999939-1-2.6000061-1.6999969c-0.7999878-0.6999969-1.3999939-1.6000061-1.7999878-2.6000061
			s-0.6000061-2-0.6000061-3.1000061h8.1000061"/>
		<path fill="none" stroke="#565440" d="M283.9004822,238.5985718c0,1.1000061-0.2000122,2-0.6000061,3s-1,1.8999939-1.7000122,2.6000061
			c-0.7000122,0.8000031-1.6000061,1.3999939-2.6000061,1.8000031c-1,0.3999939-2,0.6000061-3.1000061,0.6000061v-8.1000061"/>
		<path fill="none" stroke="#565440" d="M283.0004883,257.7985229c0-1.1000061-0.2000122-1.9999695-0.6000061-2.9999695
			s-1-1.8999939-1.7000122-2.6000061c-0.7000122-0.8000031-1.6000061-1.3999939-2.6000061-1.8000031
			c-1-0.3999939-2-0.6000061-3.1000061-0.6000061v8.0999603"/>
		<path fill="none" stroke="#565440" d="M298.8004761,249.8985596c1.2999878,0,2.5-0.3000031,3.7000122-0.8000031
			s2.3999939-1.1999969,3.2999878-2.1999969c0.8999939-0.8999939,1.7000122-2,2.2000122-3.1999969
			s0.7999878-2.5,0.7999878-3.8000031H298.70047"/>
		<path fill="none" stroke="#565440" d="M263.3004761,163.1985626c0-1.1000061,0.2000122-2,0.6000061-3s1-1.8999939,1.7000122-2.6000061
			c0.7000122-0.8000031,1.6000061-1.3999939,2.6000061-1.8000031c1-0.3999939,2-0.6000061,3.1000061-0.6000061v8.1000061"/>
		<path fill="none" stroke="#565440" d="M276.7005005,174.3985596c-1.1000061,0-2-0.1999969-3-0.6000061
			c-1-0.3999939-1.8999939-1-2.6000061-1.6999969c-0.7999878-0.6999969-1.3999939-1.6000061-1.7999878-2.6000061
			s-0.6000061-2-0.6000061-3.1000061h8.1000061"/>
		<path fill="none" stroke="#565440" d="M260.8004761,197.4985657c-1.1000061,0-2-0.1999969-3-0.6000061
			c-1-0.3999939-1.9000092-1-2.6000214-1.6999969c-0.8000031-0.6999969-1.3999939-1.6000061-1.8000031-2.6000061
			c-0.3999939-1-0.6000061-2-0.6000061-3.1000061h8.1000061"/>
		<path fill="none" stroke="#565440" d="M285.8004761,175.8985596c0-1.1000061,0.2000122-2,0.6000061-3s1-1.8999939,1.7000122-2.6000061
			c0.7000122-0.8000031,1.6000061-1.3999939,2.6000061-1.8000031s2-0.6000061,3.1000061-0.6000061v8.1000061"/>
	</g>
</g>
<g>
	<path fill="none" stroke="#565440" d="M211.6004791,270.2985229h1.5v51h-1.5V270.2985229z"/>
	<g>
		<polygon fill="#565440" points="216.1004639,305.5985718 256.6005249,305.5985718 256.6005249,304.5985718 216.1004639,304.5985718
			216.1004639,299.5985718 211.1004639,299.5985718 211.1004639,306.9985352 216.1004639,306.9985352 		"/>
		<polygon fill="#565440" points="295.9005127,338.8985596 274.9005127,338.8985596 274.9005127,320.4985352 273.9005127,320.4985352
			273.9005127,338.8985596 217.2005005,338.8985596 217.2005005,331.0985718 216.1004639,331.0985718 216.1004639,320.4985352
			211.1004639,320.4985352 211.1004639,331.0985718 211.1004639,333.2985229 211.1004639,341.9985352 217.2005005,341.9985352
			217.2005005,341.8985596 298.9005127,341.8985596 298.9005127,338.9985352 298.9005127,338.8985596 298.9005127,319.5985718
			295.9005127,319.5985718 		"/>
		<polygon fill="#565440" points="211.1004639,269.2985229 211.1004639,272.2985229 211.1004639,273.8985596 211.1004639,275.4985352
			211.1004639,284.8985596 216.1004639,284.8985596 216.1004639,275.4985352 217.2005005,275.4985352 217.2005005,272.2985229
			272.4005127,272.2985229 272.4005127,304.5985718 264.7005005,304.5985718 264.7005005,305.5985718 272.4005127,305.5985718
			273.4005127,305.5985718 274.6005249,305.5985718 274.6005249,304.5985718 273.4005127,304.5985718 273.4005127,272.2985229
			295.9005127,272.2985229 295.9005127,304.5985718 282.6005249,304.5985718 282.6005249,305.5985718 295.9005127,305.5985718
			295.9005127,309.4985352 298.9005127,309.4985352 298.9005127,272.2985229 298.9005127,269.2985229 		"/>
	</g>
	<path fill="none" stroke="#565440" d="M256.6004944,304.5985413c0-1.1000061,0.2000122-2,0.6000061-3
		s1-1.8999939,1.7000122-2.6000061c0.7000122-0.7999878,1.6000061-1.3999939,2.6000061-1.7999878s2-0.6000061,3.1000061-0.6000061
		v8.1000061 M282.7005005,304.5985413c0-1.1000061-0.2000122-2-0.6000061-3s-1-1.8999939-1.7000122-2.6000061
		c-0.7000122-0.7999878-1.6000061-1.3999939-2.6000061-1.7999878s-2-0.6000061-3.1000061-0.6000061v8.1000061
		 M298.9004822,309.4985352c1.2999878,0,2.5,0.2999878,3.7000122,0.7999878s2.3999939,1.2000122,3.2999878,2.2000122
		c0.8999939,0.8999939,1.7000122,2,2.2000122,3.2000122s0.7999878,2.5,0.7999878,3.7999878h-10.1000061"/>
</g>
<g>
	<g>
		<path fill="none" stroke="#565440" d="M213.1193695,340.5241089h-1.5140228v108.9114685h84.7874451v-1.5140076h-83.2733154
			L213.1193695,340.5241089L213.1193695,340.5241089z"/>
		<path fill="none" stroke="#565440" d="M370.5816956,447.9215698h-73.0786438v1.5140076h74.5926819V348.49823h-1.5140076v99.4233398
			H370.5816956z"/>
	</g>
	<g>
		<polygon fill="#565440" points="217.1568756,341.9373474 273.0762024,341.9373474 273.0762024,358.0873413 273.0762024,359.0966187
			273.0762024,359.0966797 281.4540405,359.0966797 281.4540405,358.0873413 274.0855408,358.0873413 274.0855408,341.9373474
			297.7048645,341.9373474 297.7048645,358.0873413 288.9233704,358.0873413 288.9233704,359.0966797 298.7142029,359.0966797
			298.7142029,359.0966187 298.7142029,341.9373474 301.1368408,341.9373474 301.1368408,338.9092102 211.1005859,338.9092102
			211.1005859,349.0029297 217.1568756,349.0029297 		"/>
		<rect x="211.1005859" y="364.1435852" fill="#565440" width="5.0468245" height="7.065629"/>
		<polygon fill="#565440" points="216.1475372,404.5185547 243.1100464,404.5185547 243.1100464,403.5092163 216.1475372,403.5092163
			216.1475372,403.0043945 217.1568756,403.0043945 217.1568756,394.2229004 216.1475372,394.2229004 216.1475372,385.4413452
			211.1005859,385.4413452 211.1005859,394.2229004 211.1005859,403.0043945 211.1005859,414.0065613 216.1475372,414.0065613 		"/>
		<polygon fill="#565440" points="253.4943542,404.5185547 255.1092834,404.5185547 255.1092834,403.5092163 251.1850128,403.5092163
			251.1850128,404.5185547 252.4848938,404.5185547 252.4848938,444.8935242 241.3818512,444.8935242 241.3818512,443.8840637
			234.3162079,443.8840637 234.3162079,449.9403381 262.5787354,449.9403381 262.5787354,444.8935242 253.4943542,444.8935242 		"/>
		<rect x="211.1005859" y="427.7341919" fill="#565440" width="6.0562267" height="7.065629"/>
		<polygon fill="#565440" points="341.3098755,443.8841248 341.2998962,443.8841248 341.2998962,444.893219 333.8095398,444.893219
			333.8095398,413.7295227 333.8095398,413.6029358 333.8096619,413.6029358 333.8096619,412.5935669 333.8095398,412.5935669
			333.8095398,411.9619141 332.8002014,411.9619141 332.8002014,412.5935669 331.6155701,412.5935669 331.6155701,413.6029358
			332.8002014,413.6029358 332.8002014,413.7295227 332.8002014,444.893219 320.103241,444.893219 320.103241,449.940033
			320.1130371,449.940033 320.1130371,449.9403381 348.3754883,449.9403381 348.3754883,443.8840637 341.3098755,443.8840637 		"/>
		<polygon fill="#565440" points="322.1317139,305.5999451 322.1317139,305.6010437 322.1220398,305.6010437 322.1220398,338.9092102
			311.2305603,338.9092102 311.2305603,341.9373474 315.6766968,341.9373474 315.6766968,341.9381104 317.0744934,341.9381104
			317.0744934,357.0785217 317.0744934,357.9650269 317.0744934,358.0878601 324.1414185,358.0878601 324.1414185,365.6863403
			326.5300598,365.6863403 326.5300598,364.677002 325.1507568,364.677002 325.1507568,357.0832214 325.150116,357.0832214
			325.150116,357.0785217 318.0838318,357.0785217 318.0838318,341.9381104 325.150116,341.9381104 325.150116,341.9373474
			325.1598511,341.9373474 325.1598511,329.0802612 328.1207886,329.0802612 328.1207886,328.0709229 325.1598511,328.0709229
			325.1598511,310.6477356 349.6810303,310.6477356 349.6810303,328.0704041 335.6558533,328.0704041 335.6558533,329.0797424
			355.9883423,329.0797424 355.9883423,328.0704041 350.6903687,328.0704041 350.6903687,310.6477356 367.5535889,310.6477356
			367.5535889,328.0705261 363.6911926,328.0705261 363.6911926,329.0798645 367.5535889,329.0798645 367.5535889,349.0029297
			367.5535889,349.0036621 372.5902405,349.0036621 372.5902405,349.0029297 372.6005249,349.0029297 372.6005249,305.5999451 		"/>
		<polygon fill="#565440" points="366.5441589,380.2938232 366.4342346,380.2938232 366.4342346,387.3595276 367.543396,387.3595276
			367.543396,403.5092773 336.3804016,403.5092773 335.5991821,403.5092773 335.5991821,386.2388306 334.5898438,386.2388306
			334.5898438,403.5092773 333.8095398,403.5092773 332.8002014,403.5092773 332.7992554,403.5092773 332.7992554,404.5186157
			332.8002014,404.5186157 332.8002014,405.2769165 333.8095398,405.2769165 333.8095398,404.5186157 334.5898438,404.5186157
			335.5991821,404.5186157 336.3804016,404.5186157 367.543396,404.5186157 367.543396,408.5561523 372.5902405,408.5561523
			372.5902405,408.5560303 372.6005249,408.5560303 372.6005249,380.2935791 366.5441589,380.2935791 		"/>
		<polygon fill="#565440" points="372.5902405,427.7340698 366.4253845,427.7340698 366.4253845,434.7996216 366.6451721,434.7996216
			366.6451721,434.7998047 372.6004639,434.7998047 372.6004639,427.7341919 372.5902405,427.7341919 		"/>
		<polygon fill="#565440" points="372.5902405,370.2002563 372.5902405,370.1998596 372.6004028,370.1998596 372.6004028,363.1342468
			367.5535889,363.1342468 367.5535889,363.1347351 367.543396,363.1347351 367.543396,364.6768799 333.9058838,364.6768799
			333.9058838,365.6862183 334.5898438,365.6862183 334.5898438,377.2915955 335.5991821,377.2915955 335.5991821,365.6862183
			367.543396,365.6862183 367.543396,370.2002563 		"/>
		<polygon fill="#565440" points="298.9162292,444.8935242 298.9162292,404.5186157 322.5749817,404.5186157 322.5749817,412.5935669
			322.5749817,413.3513184 322.5749817,413.6029358 324.2397461,413.6029358 324.2397461,412.5935669 323.5843201,412.5935669
			323.5843201,404.5186157 323.5853577,404.5186157 323.5853577,403.5092773 323.5843201,403.5092773 322.5749817,403.5092773
			318.0845642,403.5092773 318.0845642,397.3960571 317.0752258,397.3960571 317.0752258,403.5092773 298.9162292,403.5092773
			298.9162292,378.2751465 317.0752258,378.2751465 317.0752258,390.151123 318.0845642,390.151123 318.0845642,377.2658081
			298.9162292,377.2658081 298.9162292,377.2654419 273.0762024,377.2654419 273.0762024,403.5092163 263.1842346,403.5092163
			263.1842346,404.5185547 281.3530579,404.5185547 281.3530579,403.5092163 274.0855408,403.5092163 274.0855408,378.2748413
			295.8784485,378.2748413 295.8784485,403.5092163 288.7214966,403.5092163 288.7214966,404.5185547 295.8784485,404.5185547
			295.8784485,443.8840637 289.6299133,443.8840637 289.6299133,444.8935242 277.3155823,444.8935242 277.3155823,449.9403381
			305.2752075,449.9403381 305.2752075,444.8935242 304.9628296,444.8935242 		"/>
	</g>
	<g>
		<path fill="none" stroke="#565440" d="M263.1842346,404.417572c0,1.1102905-0.2018433,2.0187073-0.6056213,3.0281372
			c-0.4038086,1.0093384-1.0093384,1.9178467-1.7160034,2.6243591c-0.706604,0.8074951-1.6149902,1.413147-2.6243286,1.816864
			c-1.0093384,0.4036865-2.0188293,0.6056213-3.1290283,0.6056213v-8.0749817"/>
		<path fill="none" stroke="#565440" d="M251.1850281,404.417572c0,1.1102905-0.2018585,2.0187073-0.6056519,3.0281372
			c-0.4038086,1.0094299-1.0093689,1.9178467-1.7159729,2.6243591c-0.7065277,0.8074951-1.6150055,1.413147-2.6243591,1.816864
			c-1.0093536,0.4036865-2.0187988,0.6056213-3.1290131,0.6056213v-8.0749817"/>
		<path fill="none" stroke="#565440" d="M280.9492188,404.417572c0,1.1102905,0.2019653,2.0187073,0.6056519,3.0281372
			s1.0093384,1.9178467,1.7159729,2.6243591c0.7066345,0.8074951,1.6150208,1.413147,2.6243591,1.816864
			c1.0093384,0.4036865,2.0187073,0.6056213,3.1290283,0.6056213v-8.0749817"/>
		<path fill="none" stroke="#565440" d="M289.428009,358.7938843c0,1.110321-0.2018433,2.0187073-0.6056213,3.0281372
			c-0.4038086,1.0093689-1.0093384,1.9178467-1.7160034,2.6243591c-0.706604,0.8074951-1.6149902,1.4131775-2.6243286,1.816864
			c-1.0093384,0.403717-2.0187378,0.6056519-3.1290283,0.6056519v-8.0750122"/>
		<path fill="none" stroke="#565440" d="M311.2305298,339.3129272c0-1.3121643-0.3028259-2.523468-0.8074951-3.7346802
			c-0.5046692-1.2113037-1.2113342-2.4224854-2.2206726-3.3309631c-0.9084473-0.9084473-2.0187073-1.7158508-3.2299805-2.2206421
			c-1.2113037-0.5046692-2.523468-0.8074951-3.8356323-0.8074951v10.093689"/>
		<path fill="none" stroke="#565440" d="M318.0845947,389.6763306c1.1102905,0,2.0187073,0.2018433,3.0281372,0.6056213
			c1.0093384,0.4038086,1.9176941,1.0093384,2.6243591,1.7160034c0.8074646,0.7065125,1.413147,1.6149902,1.8168335,2.6243286
			c0.403717,1.0093384,0.6056519,2.0187378,0.6056519,3.1290283h-8.0748901"/>
		<path fill="none" stroke="#565440" d="M333.8096619,405.0232544c0.9898071,0,1.7996216,0.1799316,2.6994934,0.539917
			c0.8998108,0.3599548,1.7095947,0.8997803,2.3395386,1.5297546c0.7198486,0.6298218,1.2597961,1.4397278,1.6196899,2.3395386
			c0.3598938,0.8997803,0.539917,1.7996216,0.539917,2.7894287h-7.1985779"/>
		<path fill="none" stroke="#565440" d="M324.136322,413.6029358c0,1.0428772,0.1895752,1.8961182,0.5688477,2.8442383
			c0.3792725,0.9480591,0.9480591,1.801239,1.6117859,2.4649963c0.6636047,0.7584534,1.5169373,1.3273315,2.4649658,1.7065125
			c0.9480591,0.3791809,1.8961182,0.5688782,2.9390259,0.5688782v-7.5845642"/>
		<path fill="none" stroke="#565440" d="M333.9931946,364.6860046c0-1.0428772-0.1896057-1.8961182-0.5688782-2.8442688
			c-0.3792725-0.9480286-0.9480286-1.801239-1.6117554-2.4649658c-0.6636353-0.7584534-1.5169373-1.3273621-2.4649963-1.706543
			s-1.8961182-0.5688477-2.9389954-0.5688477v7.5845337"/>
		<path fill="none" stroke="#565440" d="M335.5991821,386.3977356c1.0810547,0,1.9655151-0.2335815,2.9483643-0.7008057
			c0.9827271-0.4671326,1.8671875-1.1679077,2.5552063-1.9854431c0.7861938-0.8175354,1.3759155-1.8687744,1.7689819-3.0366821
			c0.3930664-1.1679382,0.5896606-2.335907,0.5896606-3.6206665h-7.8621216"/>
		<path fill="none" stroke="#565440" d="M355.7797546,329.0797729c0,1.110321,0.2018433,2.0187073,0.6056519,3.0280457
			c0.4037781,1.0093384,1.0093384,1.9177246,1.7159729,2.6243591c0.7065125,0.8074951,1.6150208,1.4131775,2.6243591,1.816864
			c1.0093384,0.4037781,2.0187073,0.6056519,3.1290283,0.6056519v-8.0749207"/>
		<path fill="none" stroke="#565440" d="M335.934082,329.0797729c0,1.110321-0.2018738,2.0187073-0.6056519,3.0280457
			c-0.4038086,1.0093384-1.0093384,1.9177246-1.7159729,2.6243591c-0.706543,0.8074951-1.6150208,1.4131775-2.6243591,1.816864
			c-1.0093384,0.4037781-2.0187073,0.6056519-3.1290283,0.6056519v-8.0749207"/>
	</g>
</g>
<g >
	<rect x="355" y="-0.0000489" fill="none" width="10" height="10"/>
	<rect x="181.1000061" y="235.0000153" fill="none" width="10" height="10"/>
	<rect x="355" y="469.999939" fill="none" width="10" height="10"/>
	<rect x="528.9000244" y="235.0000153" fill="none" width="10" height="10"/>
</g>
<g >
	<path data-nr="1" class="plan__svg__hoverable" display="inline" fill="none" d="M372.6005249,408.5985413v-21.2000122h0.0999756v-7.0999756h-0.0999756h-0.0004272v-10
		h0.0004272v-7.0999756h-0.0004272v-14.2000122h0.0004272v-43.4000244h-0.1000366h-4.8999634h-45.5v3.3399048v1.6600952v28.2999878
		h-10.4210205c-0.050354-1.1412964-0.3052979-2.262207-0.817688-3.4924316
		c-0.612793-1.4707031-1.3955078-2.6416016-2.3076172-3.4609375c-1.0180664-1.0175781-2.1801758-1.8164063-3.3613281-2.3085938
		c-1.3164063-0.5478516-2.6967773-0.8378906-3.9921875-0.8378906h-0.5v10.0998535h-1.2001953h-88.3999786v3h0.000061v0.1000366
		h-0.000061v7.0999756h0.000061v15.1000366h-0.000061v7.0999756h0.000061v14.2000122h-0.000061v8.7999878v8.7999878v11h0.000061
		v13.7000122h-0.000061v7.0999756h0.000061v15.1003418h85.7998199v-0.0003052h0.1000977v0.0003052h75.5996094v-15.1003418h0.1004028
		v-7.0999756h-0.1004028v-19.2000122H372.6005249z M304.8081055,330.5603943
		c1.0615234,0.4423828,2.112793,1.1650391,3.0581055,2.1103516c0.8198242,0.7373047,1.5170898,1.7871094,2.0727539,3.1201172
		c0.4588013,1.1013184,0.6897583,2.1003418,0.7402344,3.107666h-8.9785156v-9.0842285
		C302.7177734,329.8777771,303.7822266,330.1326599,304.8081055,330.5603943z"/>
	<path data-nr="2" class="plan__svg__hoverable" display="inline" fill="none" d="M309.4003906,319.4988708c0-1.2958984-0.2900391-2.6767578-0.8383789-3.9921875
		c-0.4921875-1.1816406-1.2905273-2.3447266-2.2900391-3.3417969c-0.8378906-0.9316406-2.0087891-1.7148438-3.4790039-2.328125
		c-1.3729858-0.5712891-2.6098022-0.8378906-3.8924561-0.8378906v-36.7003174v-1.5v-1.5h-87.8000641v3h0.000061v1.5999756v1.6000366
		v9.3999634h0.000061v14.7000122h-0.000061v7.4000244h0.000061v13.5h-0.000061v10.5999756v2.2000122v8.7000122h6.0999756v-0.1000366
		h81.7000275v-0.7999878v-2.0999756v-0.1000366v-18.8996582h10.4998779V319.4988708z M298.9005127,318.9988708v-9
		c1.1464233,0,2.2611694,0.2421875,3.5076904,0.7617188c1.3325195,0.5546875,2.3823242,1.2519531,3.1386719,2.0917969
		c0.9262695,0.9257813,1.6494141,1.9765625,2.0922852,3.0390625c0.4272461,1.0253906,0.6821289,2.0898438,0.7456055,3.1074219
		H298.9005127z"/>
	<path data-nr="3" class="plan__svg__hoverable" fill="none" d="M298.9 201.601V272.301H211.1L211.1 114.801L326.2 114.801V201.601H298.9Z"/>
</g>
</svg>
