<!-- DO NOT EDIT THIS, THIS FILE IS GENERATED FROM "1_41-42.original.svg" using transform-svgs.js script -->



<svg version="1.1" 
	 xmlns="http://www.w3.org/2000/svg" xmlns:xlink="http://www.w3.org/1999/xlink" x="0px" y="0px" viewBox="0 0 720 480"
	 style="enable-background:new 0 0 720 480;" xml:space="preserve">


<g>
	<polygon fill="#DBD4CA" points="361.7999878,93.2999725 361.7999878,61.1999702 362,61.1999702 361.8999939,30.3999748
		219.1999969,30.3999748 219.1999969,449.3999634 420.2000122,449.3999634 420.2000122,294.4999695 419.2000122,291.1999817
		459.3999939,291.1999817 459.3999939,291.4999695 461.3999939,291.4999695 461.3999939,291.5999756 461.6000061,291.5999756
		461.6000061,233.5999908 495.5,233.5999908 495.5,93.2999725 	"/>
	<g>
		<rect x="420.2000122" y="289.2999573" fill="#565440" width="38.7999878" height="3.7999878"/>
		<path fill="#565440" d="M463,229.8999786h34.8999939v3.8000031H463V229.8999786z"/>
		<path fill="#565440" d="M403,91.9999695h94.8999939v3.8000031H403V91.9999695z"/>
		<path fill="#565440" d="M497.8999939,88.2999725v7.5999985H361.2000122v-7.5999985H497.8999939z"/>
		<path fill="#565440" d="M491.7999878,84.4999695v3.8000031H488v-3.8000031H491.7999878z"/>
		<path fill="#565440" d="M472.7999878,84.4999695v3.8000031H469v-3.8000031H472.7999878z"/>
		<path fill="#565440" d="M452.5,84.4999695v3.8000031h-3.7999878v-3.8000031H452.5z"/>
		<path fill="#565440" d="M414.6000061,84.4999695v3.8000031h-3.7999878v-3.8000031H414.6000061z"/>
		<path fill="#565440" d="M394.3999939,84.4999695v3.8000031h-3.7999878v-3.8000031H394.3999939z"/>
		<path fill="#565440" d="M374.1000061,84.4999695v3.8000031h-3.7999878v-3.8000031H374.1000061z"/>
		<path fill="#565440" d="M433.6000061,84.4999695v8.9000015h-3.7999878v-8.9000015H433.6000061z"/>
		<path fill="#565440" d="M458.8999939,237.4999847v-7.6000061h39v7.6000061H458.8999939z"/>
		<path fill="#565440" d="M470.5,241.2999878v-3.8000031h3.7999878v3.8000031H470.5z"/>
		<path fill="#565440" d="M490.7000122,241.2999878v-3.8000031H494.5v3.8000031H490.7000122z"/>
		<path fill="#565440" d="M494.2000122,130.1999817v94.9000092h-3.7999878v-94.8999939L494.2000122,130.1999817
			L494.2000122,130.1999817z"/>
		<path fill="#565440" d="M497.8999939,233.6999817h-7.6000061V88.2999725h7.6000061V233.6999817z"/>
		<path fill="#565440" d="M501.7000122,218.8999786h-3.7999878v-3.8000031h3.7999878V218.8999786z"/>
		<path fill="#565440" d="M501.7000122,199.8999786h-3.7999878v-3.8000031h3.7999878V199.8999786z"/>
		<path fill="#565440" d="M501.7000122,179.6999817h-3.7999878v-3.8000031h3.7999878V179.6999817z"/>
		<path fill="#565440" d="M501.7000122,141.6999817h-3.7999878v-3.6999969h3.7999878V141.6999817z"/>
		<path fill="#565440" d="M501.7000122,121.4999695h-3.7999878v-3.8000031h3.7999878V121.4999695z"/>
		<path fill="#565440" d="M501.7000122,101.2999725h-3.7999878v-3.8000031h3.7999878V101.2999725z"/>
		<path fill="#565440" d="M501.7000122,160.6999817h-8.8999939v-3.8000031h8.8999939V160.6999817z"/>
		<path fill="#565440" d="M466.3999939,293.0999756h-7.6000061v-63.2999878h7.6000061V293.0999756z"/>
		<path fill="#565440" d="M470.2000122,291.1999817h-3.7999878v-3.7999878h3.7999878V291.1999817z"/>
		<path fill="#565440" d="M470.2000122,270.9999695h-3.7999878v-3.7999878h3.7999878V270.9999695z"/>
		<path fill="#565440" d="M470.2000122,250.7999878h-3.7999878v-3.8000031h3.7999878V250.7999878z"/>
	</g>
</g>
<g>
	<g>
		<polygon fill="#565440" points="282.1000366,135 281.7000122,135 281.7000122,133.5 280.4000244,133.5 280.4000244,135
			225.9000244,135 225.9000244,128.6999512 218.2999878,128.6999512 218.2999878,135 218.2999878,138.7999878
			282.1000366,138.7999878 		"/>
		<polygon fill="#565440" points="225.9000244,102.099968 224.6000366,102.099968 224.6000366,91.4999924 280.4000244,91.4999924
			280.4000244,123.599968 281.7000122,123.599968 281.7000122,91.4999924 284.2000122,91.4999924 284.2000122,90.1999435
			281.7000122,90.1999435 280.4000244,90.1999435 224.6000366,90.1999435 224.6000366,75.4999924 218.2999878,75.4999924
			218.2999878,102.099968 218.2999878,109.3999557 218.2999878,110.9999924 225.9000244,110.9999924 		"/>
		<polygon fill="#565440" points="225.9000244,48.9999924 218.2999878,48.9999924 218.2999878,57.7999802 218.2999878,57.8999557
			225.9000244,57.8999557 		"/>
		<polygon fill="#565440" points="256.2999878,36.2999802 282.7999878,36.2999802 282.7999878,29.9999962 256.2999878,29.9999962
			253.5,29.9999962 247.4000244,29.9999962 247.4000244,37.599968 256.2999878,37.599968 		"/>
		<polygon fill="#565440" points="356.2000122,48.9999924 356.2000122,105.9999924 326.2999878,105.9999924 325,105.9999924
			321.5,105.9999924 321.5,107.2999802 325,107.2999802 325,110.9999924 326.2999878,110.9999924 326.2999878,107.2999802
			356.2000122,107.2999802 356.2000122,135 328.4000244,135 326.2999878,135 326.2999878,122.099968 325,122.099968 325,135
			324.6000366,135 324.6000366,138.7999878 324.6000366,140.5999756 299.2999878,140.5999756 299.2999878,107.2999802
			300.5,107.2999802 301.7999878,107.2999802 312,107.2999802 312,105.9999924 301.7999878,105.9999924 301.7999878,104.599968
			300.5,104.599968 300.5,105.9999924 299.2999878,105.9999924 298,105.9999924 298,107.2999802 298,152.6999512
			299.2999878,152.6999512 299.2999878,141.8999634 324.6000366,141.8999634 324.6000366,167 299.2999878,167
			299.2999878,162.5999756 298,162.5999756 298,184.2999878 298,185.5999756 299.2999878,185.5999756 300.2999878,185.5999756
			300.2999878,184.2999878 299.2999878,184.2999878 299.2999878,168.2999878 324.6000366,168.2999878 324.6000366,184.2999878
			309,184.2999878 309,185.5999756 324.6000366,185.5999756 324.6000366,193.8999634 328.4000244,193.8999634
			328.4000244,138.7999878 356.2000122,138.7999878 362.5,138.7999878 362.5,135 362.5,48.9999924 		"/>
		<polygon fill="#565440" points="300.5,94.599968 301.7999878,94.599968 301.7999878,37.599968 309.4000244,37.599968
			309.4000244,36.2999802 334.2000122,36.2999802 334.2000122,29.9999962 309.4000244,29.9999962 308.6000366,29.9999962
			300.5,29.9999962 300.5,36.2999802 300.5,37.599968 300.5,90.1999435 293.6000366,90.1999435 293.6000366,91.4999924
			300.5,91.4999924 		"/>
		<rect x="218.2999878" y="155.1999512" fill="#565440" width="6.3000488" height="8.9000244"/>
		<rect x="218.2999878" y="181.7999878" fill="#565440" width="7.6000366" height="8.8999634"/>
		<polygon fill="#565440" points="324.6000366,226.0999756 315,226.0999756 315,227.3999634 324.6000366,227.3999634
			324.6000366,241.8999634 317.7999878,241.8999634 317.7999878,243.1999512 324.6000366,243.1999512 324.6000366,266.8999634
			300.2000122,266.8999634 300.2000122,243.1999512 308.1000366,243.1999512 308.1000366,241.8999634 300.2000122,241.8999634
			298.9000244,241.8999634 298.9000244,243.1999512 298.9000244,266.8999634 224.6000366,266.8999634 224.6000366,261.5
			218.2999878,261.5 218.2999878,266.8999634 218.2999878,270.6999512 218.2999878,270.7000122 224.6000366,270.7000122
			224.6000366,270.6999512 328.4000244,270.6999512 328.4000244,268.8999634 328.4000244,266.8999634 328.4000244,206.5
			324.6000366,206.5 		"/>
		<polygon fill="#565440" points="224.6000366,231.2999878 225.9000244,231.2999878 225.9000244,227.3999634 302.2999878,227.3999634
			302.9000244,227.3999634 305.5999756,227.3999634 305.5999756,226.0999756 302.9000244,226.0999756 302.9000244,223.5999756
			225.9000244,223.5999756 225.9000244,219.2999878 224.6000366,219.2999878 224.6000366,208 218.2999878,208
			218.2999878,219.2999878 218.2999878,220.0999756 218.2999878,223.5999756 218.2999878,227.2999878 218.2999878,227.3999634
			218.2999878,229.3999634 218.2999878,231.2999878 218.2999878,243.1999512 224.6000366,243.1999512 		"/>
	</g>
	<g>
		<polygon fill="none" stroke="#565440" points="360,30.5999756 218.8999939,30.5999756 218.8999939,129.2999878
			220.8000031,129.2999878 220.8000031,32.4999695 360,32.4999695 360,49.599968 361.8999939,49.599968 361.8999939,30.5999756
			"/>
		<path fill="none" stroke="#565440" d="M218.8999939,138.1999817h1.8999939v70.8000031h-1.8999939V138.1999817z"/>
		<path fill="none" stroke="#565440" d="M218.8999939,224.7999878h1.8999939v43.5999756h-1.8999939V224.7999878z"/>
	</g>
	<g>
		<path fill="none" stroke="#565440" d="M298.1000061,162.7999878c-1.3999939,0-2.5-0.3000031-3.7999878-0.8000031
			s-2.3999939-1.3000031-3.2999878-2.1999969c-1-0.8999939-1.7999878-2-2.2999878-3.3000031s-0.7999878-2.5-0.7999878-3.8999939H298
			"/>
		<path fill="none" stroke="#565440" d="M309.5,185.0999908c0,1.3999939-0.2999878,2.5-0.7999878,3.8000031s-1.2999878,2.3999939-2.2000122,3.3000031
			c-0.8999939,1-2,1.8000031-3.2999878,2.3000031s-2.5,0.8000031-3.8999939,0.8000031v-10.1000061"/>
		<path fill="none" stroke="#565440" d="M315,226.4999847c0-1.3000031-0.2000122-2.3000031-0.7000122-3.5s-1.2000122-2.1999969-2-3
			c-0.7999878-0.8999939-1.8999939-1.6000061-3-2.1000061c-1.2000122-0.5-2.2999878-0.6999969-3.6000061-0.6999969v9.3999939"/>
		<path fill="none" stroke="#565440" d="M328.2000122,193.8999786c1.6000061,0,3.2000122,0.3999939,4.7000122,1s3,1.5,4.2000122,2.8000031
			c1.1000061,1.1000061,2.2000122,2.5,2.7999878,4c0.6000061,1.5,1,3.1999969,1,4.8000031h-12.7000122"/>
		<path fill="none" stroke="#565440" d="M283.7000122,90.599968c0-1.4000015,0.2999878-2.5,0.7999878-3.8000031
			s1.2999878-2.4000015,2.2000122-3.3000031c0.8999939-1,2-1.8000031,3.2999878-2.3000031s2.5-0.8000031,3.8999939-0.8000031
			v10.0999985"/>
		<path fill="none" stroke="#565440" d="M300.5,104.599968c-1.3999939,0-2.5-0.3000031-3.7999878-0.8000031s-2.3999939-1.3000031-3.2999878-2.1999969
			c-1-0.9000015-1.7999878-2-2.2999878-3.3000031s-0.7999878-2.5-0.7999878-3.9000015h10.1000061"/>
		<path fill="none" stroke="#565440" d="M280.6000061,133.5999908c-1.3999939,0-2.5-0.3000031-3.7999878-0.8000031
			s-2.3999939-1.3000031-3.2999878-2.1999969c-1-0.8999939-1.7999878-2-2.2999878-3.3000183
			c-0.5-1.3000031-0.7999878-2.5-0.7999878-3.9000015h10.1000061"/>
		<path fill="none" stroke="#565440" d="M311.8999939,106.4999695c0-1.4000015,0.2999878-2.5,0.7999878-3.8000031
			s1.2999878-2.4000015,2.2000122-3.3000031c0.8999939-1,2-1.8000031,3.2999878-2.3000031s2.5-0.8000031,3.8999939-0.8000031
			v10.0999985"/>
		<path fill="none" stroke="#565440" d="M308.1000061,242.1999817c0-1.3000031,0.2000122-2.3999939,0.7000122-3.6999969
			c0.5-1.1999969,1.2000122-2.3000031,2.1000061-3.1999969c0.8999939-1,2-1.6999969,3.2000122-2.1999969
			s2.3999939-0.6999969,3.7999878-0.6999969v9.8000031"/>
	</g>
</g>
<g>
	<g>
		<polygon fill="#565440" points="298.9000244,278.5 300.2000122,278.5 300.2000122,270.6999512 324.6000366,270.6999512
			324.6000366,297 300.2000122,297 300.2000122,288.6999512 298.9000244,288.6999512 298.9000244,298.2999878
			324.6000366,298.2999878 324.6000366,310.8322754 315.8496704,310.8322754 315.8496704,313.3615723 314.9639282,313.3615723
			314.9639282,314.6261597 315.8496704,314.6261597 324.5828247,314.6261597 331.164978,314.6261597 331.164978,310.8322754
			328.4000244,310.8322754 328.4000244,266.8999634 218.2999878,266.8999634 218.2999878,270.6999512 298.9000244,270.6999512 		"/>
		<polygon fill="#565440" points="218.3609009,323.4784546 225.9486694,323.4784546 225.9486694,314.6261597 305.3588867,314.6254883
			305.3588867,313.3609619 297.2000122,313.3609619 297.2000122,310.7999878 225.9000244,310.7999878 225.9000244,301
			224.6000366,301 224.6000366,287.7000122 218.2999878,287.7000122 218.2999878,314.5999756 218.3609009,314.5999756 		"/>
		<rect x="218.3609009" y="342.4478149" fill="#565440" width="6.3230591" height="8.8522949"/>
		<polygon fill="#565440" points="218.3609009,380.1333618 218.3609009,391.135498 218.3609009,404.9197998 224.684082,404.9197998
			224.684082,393.0325317 258.4647217,393.0325317 258.4647217,391.7679443 224.684082,391.7679443 224.684082,391.135498
			225.9486694,391.135498 225.9486694,380.1333618 224.684082,380.1333618 224.684082,369.1312256 218.3609009,369.1312256 		"/>
		<polygon fill="#565440" points="271.4749756,393.0325317 273.49823,393.0325317 273.49823,391.7679443 268.581665,391.7679443
			268.581665,393.0325317 270.2102661,393.0325317 270.2102661,443.6173096 256.2994995,443.6173096 256.2994995,442.3526001
			247.4471436,442.3526001 247.4471436,449.9403687 282.8565674,449.9403687 282.8565674,443.6173096 271.4749756,443.6173096 		"/>
		<rect x="218.3609009" y="422.1188354" fill="#565440" width="7.5877075" height="8.8522949"/>
		<polygon fill="#565440" points="381.4967651,442.3526611 381.4842529,442.3526611 381.4842529,443.6169434 372.0997925,443.6169434
			372.0997925,404.5727539 372.0997925,404.4141235 372.0999146,404.4141235 372.0999146,403.1495361 372.0997925,403.1495361
			372.0997925,402.3581543 370.8352051,402.3581543 370.8352051,403.1495361 369.3510132,403.1495361 369.3510132,404.4141235
			370.8352051,404.4141235 370.8352051,404.5727539 370.8352051,443.6169434 354.9275513,443.6169434 354.9275513,449.9399414
			354.9398193,449.9399414 354.9398193,449.9403687 390.3491211,449.9403687 390.3491211,442.3526001 381.4967651,442.3526001 		"/>
		<polygon fill="#565440" points="357.4689331,269.0999756 357.4689331,269.1013794 357.4568481,269.1013794 357.4568481,310.8322754
			343.8111572,310.8322754 343.8111572,314.6261597 349.3815918,314.6261597 349.3815918,314.6271362 351.1328735,314.6271362
			351.1328735,333.5961304 351.1328735,334.7068481 351.1328735,334.8607178 359.9868164,334.8607178 359.9868164,344.3806763
			362.9794922,344.3806763 362.9794922,343.1160889 361.2514038,343.1160889 361.2514038,333.6020508 361.2506104,333.6020508
			361.2506104,333.5961304 352.3974609,333.5961304 352.3974609,314.6271362 361.2506104,314.6271362 361.2506104,314.6261597
			361.2628174,314.6261597 361.2628174,298.5178223 364.9725342,298.5178223 364.9725342,297.2532959 361.2628174,297.2532959
			361.2628174,275.4242554 391.9847412,275.4242554 391.9847412,297.2526245 374.4129639,297.2526245 374.4129639,298.5172119
			399.887085,298.5172119 399.887085,297.2526245 393.2493286,297.2526245 393.2493286,275.4242554 414.3768311,275.4242554
			414.3768311,297.2528076 409.5377197,297.2528076 409.5377197,298.517395 414.3768311,298.517395 414.3768311,323.4784546
			414.3768311,323.4793701 420.6871338,323.4793701 420.6871338,323.4784546 420.7000122,323.4784546 420.7000122,269.0999756 		"/>
		<polygon fill="#565440" points="413.1121826,362.6820068 412.9744263,362.6820068 412.9744263,371.5344238 414.3640747,371.5344238
			414.3640747,391.7680664 375.3207397,391.7680664 374.34198,391.7680664 374.34198,370.1303711 373.0773926,370.1303711
			373.0773926,391.7680664 372.0997925,391.7680664 370.8352051,391.7680664 370.8340454,391.7680664 370.8340454,393.0326538
			370.8352051,393.0326538 370.8352051,393.982666 372.0997925,393.982666 372.0997925,393.0326538 373.0773926,393.0326538
			374.34198,393.0326538 375.3207397,393.0326538 414.3640747,393.0326538 414.3640747,398.0911865 420.6871338,398.0911865
			420.6871338,398.0910034 420.7000122,398.0910034 420.7000122,362.6817017 413.1121826,362.6817017 		"/>
		<polygon fill="#565440" points="420.6871338,422.1186523 412.9633179,422.1186523 412.9633179,430.9709473 413.2387085,430.9709473
			413.2387085,430.9711304 420.6999512,430.9711304 420.6999512,422.1188354 420.6871338,422.1188354 		"/>
		<polygon fill="#565440" points="420.6871338,350.0360107 420.6871338,350.0355835 420.6998291,350.0355835 420.6998291,341.1832275
			414.3768311,341.1832275 414.3768311,341.1838379 414.3640747,341.1838379 414.3640747,343.1159058 372.22052,343.1159058
			372.22052,344.3804932 373.0773926,344.3804932 373.0773926,358.9205933 374.34198,358.9205933 374.34198,344.3804932
			414.3640747,344.3804932 414.3640747,350.0360107 		"/>
		<polygon fill="#565440" points="328.3828125,443.6173096 328.3828125,393.0326538 358.024292,393.0326538 358.024292,403.1495361
			358.024292,404.098877 358.024292,404.4141235 360.1100464,404.4141235 360.1100464,403.1495361 359.2888794,403.1495361
			359.2888794,393.0326538 359.2901611,393.0326538 359.2901611,391.7680664 359.2888794,391.7680664 358.024292,391.7680664
			352.3983765,391.7680664 352.3983765,384.1089478 351.1337891,384.1089478 351.1337891,391.7680664 328.3828125,391.7680664
			328.3828125,360.1528931 351.1337891,360.1528931 351.1337891,375.0319824 352.3983765,375.0319824 352.3983765,358.8883057
			328.3828125,358.8883057 328.3828125,358.8878174 296.0085449,358.8878174 296.0085449,391.7679443 283.6151733,391.7679443
			283.6151733,393.0325317 306.378418,393.0325317 306.378418,391.7679443 297.2731323,391.7679443 297.2731323,360.1524658
			324.5769043,360.1524658 324.5769043,391.7679443 315.6101685,391.7679443 315.6101685,393.0325317 324.5769043,393.0325317
			324.5769043,442.3526001 316.74823,442.3526001 316.74823,443.6173096 301.3199463,443.6173096 301.3199463,449.9403687
			336.3498535,449.9403687 336.3498535,443.6173096 335.9584961,443.6173096 		"/>
	</g>
	<g>
		<polygon fill="none" stroke="#565440" points="418.2000122,322.8999634 418.2000122,447.5 326.6000366,447.5 326.6000366,449.3999634
			420.1000366,449.3999634 420.1000366,322.8999634 		"/>
		<polygon fill="none" stroke="#565440" points="220.7999878,312.8999634 220.7999878,269.0999756 218.9000244,269.0999756 218.9000244,449.4000244
			325.2000122,449.4000244 325.2000122,447.5 220.7999878,447.5 		"/>
	</g>
	<g>
		<path fill="none" stroke="#565440" d="M283.6151733,392.9060364c0,1.3910828-0.2528992,2.5291748-0.7587891,3.7938843
			c-0.5058899,1.2645569-1.2645874,2.4028015-2.1499023,3.2879639c-0.8853149,1.0116882-2.023407,1.7705383-3.2879944,2.2763062
			c-1.2645569,0.5057983-2.5292969,0.7587891-3.9202576,0.7587891v-10.1169434"/>
		<path fill="none" stroke="#565440" d="M268.581665,392.9060364c0,1.3910828-0.2528992,2.5291748-0.7588196,3.7938843
			c-0.5059204,1.264679-1.2645874,2.4028015-2.1498718,3.2879639c-0.8851929,1.0116882-2.023407,1.7705383-3.2879944,2.2763062
			c-1.2645874,0.5057983-2.5292969,0.7587891-3.9202881,0.7587891v-10.1169434"/>
		<path fill="none" stroke="#565440" d="M305.872467,392.9060364c0,1.3910828,0.2530212,2.5291748,0.7587891,3.7938843
			c0.5057983,1.264679,1.2645874,2.4028015,2.1499023,3.2879639c0.8853149,1.0116882,2.023407,1.7705383,3.2879944,2.2763062
			c1.2645874,0.5057983,2.5292053,0.7587891,3.9202881,0.7587891v-10.1169434"/>
		<path fill="none" stroke="#565440" d="M343.8111267,311.3381042c0-1.6439819-0.379425-3.1615906-1.0116882-4.6790771
			c-0.6322937-1.5176086-1.5176392-3.0350647-2.782196-4.1732788c-1.1382141-1.1381836-2.5292053-2.1497498-4.0467834-2.782196
			c-1.5176392-0.6322937-3.1615906-1.0116882-4.8055725-1.0116882v12.6461182"/>
		<path fill="none" stroke="#565440" d="M352.3983765,374.4371033c1.3910828,0,2.5292053,0.2528992,3.7938843,0.7587891
			c1.2645874,0.5058899,2.4026489,1.2645874,3.2879944,2.1499023c1.0116882,0.8851929,1.7705078,2.023407,2.2763062,3.2879944
			c0.5057678,1.2645874,0.7587891,2.5291748,0.7587891,3.9202576h-10.1168518"/>
		<path fill="none" stroke="#565440" d="M298.9066467,288.8710632c-1.442627,0-2.6228943-0.2622375-3.9344482-0.7868958
			c-1.3114319-0.5246277-2.4916687-1.3114319-3.40979-2.2295532c-1.0491638-0.9179688-1.8361206-2.0983887-2.3606262-3.40979
			c-0.5245361-1.3114319-0.7868958-2.6228943-0.7868958-4.0655212h10.4916382"/>
		<path fill="none" stroke="#565440" d="M372.0999146,393.6648865c1.2401123,0,2.2547302,0.2254333,3.3821716,0.6764221
			c1.1273193,0.4510193,2.1418762,1.1273499,2.9311218,1.9165955c0.901886,0.7891235,1.5783691,1.8038025,2.0292664,2.9311523
			c0.4508972,1.1273193,0.6764526,2.2546997,0.6764526,3.494812h-9.0188904"/>
		<path fill="none" stroke="#565440" d="M359.9804382,404.4141235c0,1.3066101,0.2375488,2.3756104,0.712738,3.5634766
			c0.4751587,1.1878052,1.1877747,2.2567444,2.0193481,3.0883179c0.8314209,0.9502563,1.9005127,1.6629944,3.0883179,2.1380615
			c1.1877747,0.4750977,2.3755798,0.712738,3.6821899,0.712738v-9.5024719"/>
		<path fill="none" stroke="#565440" d="M372.3298645,343.1273804c0-1.3066101-0.2375183-2.3756104-0.7127075-3.5635071
			c-0.4751892-1.1877747-1.1877747-2.2567444-2.0193481-3.0883179c-0.8314209-0.9502258-1.9005432-1.6629944-3.0883179-2.1380615
			s-2.3756104-0.7127075-3.6821899-0.7127075v9.5024719"/>
		<path fill="none" stroke="#565440" d="M374.3420105,370.3294373c1.3544006,0,2.4625244-0.2926331,3.6939087-0.8779907
			c1.2312317-0.5852661,2.339325-1.4632874,3.2013245-2.4875488c0.9850464-1.0242615,1.723877-2.3413086,2.2163391-3.8045654
			c0.4924316-1.4632874,0.7387695-2.9265747,0.7387695-4.5362244h-9.8502502"/>
		<path fill="none" stroke="#565440" d="M399.6257019,298.5172424c0,1.3910828,0.2528992,2.5292053,0.7587891,3.7937927
			c0.5059204,1.2645569,1.2645874,2.4026489,2.1499329,3.2879639c0.8851624,1.0116882,2.023407,1.7705078,3.2879639,2.2763062
			c1.2645874,0.5058899,2.5292053,0.7587891,3.9202881,0.7587891v-10.1168518"/>
		<path fill="none" stroke="#565440" d="M374.7615662,298.5172424c0,1.3910828-0.2528992,2.5292053-0.7587891,3.7937927
			c-0.5059204,1.2645569-1.2645874,2.4026489-2.1499329,3.2879639c-0.8851624,1.0116882-2.023407,1.7705078-3.2879639,2.2763062
			c-1.2645874,0.5058899-2.5292053,0.7587891-3.9202881,0.7587891v-10.1168518"/>
		<path fill="none" stroke="#565440" d="M305.2999573,314.6261597c0,1.2835083,0.2962036,2.4683838,0.789856,3.6531067
			c0.4936523,1.1848755,1.184845,2.3695984,2.1721497,3.2582397c0.8886414,0.8886108,1.9746399,1.6783752,3.1594849,2.1721497
			c1.184845,0.4936523,2.4683533,0.789856,3.7518616,0.789856v-9.8732605"/>
	</g>
</g>
<g >
	<rect x="355.5" y="-0.000027" fill="none" width="10" height="10"/>
	<rect x="188.3000031" y="234.9999847" fill="none" width="10" height="10"/>
	<rect x="355.5" y="469.9999695" fill="none" width="10" height="10"/>
	<rect x="521.7000122" y="234.9999847" fill="none" width="10" height="10"/>
</g>
<g >
	<path data-nr="2" class="plan__svg__hoverable" fill="none" d="M362.4003906,48.9999924V30.7681236v-0.6682129h-28.2003784v-0.0999146h-24.7999878
		h-0.7999878H300.5v0.0999146h-17.7000122v-0.0999146h-26.5H253.5h-6.0999756v0.0999146h-29.0001221v0.500061v18.4000206h-0.0999146
		v8.7999878v0.0999756h0.0999146v17.6000366h-0.0999146v26.5999756v7.2999878v1.6000366h0.0999146v17.6999588h-0.0999146V135
		v3.7999878h0.0999146v16.3999634h-0.0999146v8.9000244h0.0999146v17.7000122h-0.0999146v8.8999634h0.0999146V208h-0.0999146
		v11.2999878v0.7999878v3.5v3.7000122v0.0999756v2v1.9000244v11.8999634h0.0999146V261.5h-0.0999146v5.3999634v3.7999878v0.000061
		h6.3000488v-0.000061h103.7999878v-1.1000366v-0.6999512v-2v-59.9001465h12.9998779v-0.5
		c0-1.5454102-0.3676758-3.315918-1.0356445-4.9853516c-0.6933594-1.7324219-1.965332-3.2226563-2.8969727-4.1538086
		c-1.1391602-1.2338867-2.6137695-2.2177734-4.3818359-2.9248047c-1.644104-0.6575317-3.2171631-0.9959106-4.6854248-1.0244751
		v-54.6113892h27.7999878H362.5V135V48.9999924H362.4003906z M336.746582,198.0535278
		c0.8789063,0.8789063,2.059082,2.2573242,2.6889648,3.8320313c0.550293,1.375,0.8818359,2.8164063,0.9506836,4.1142578h-11.9862061
		v-11.5882568c1.3415527,0.0288086,2.7894287,0.3427734,4.3143311,0.9530029
		C334.3432617,196.0154419,335.6953125,196.9153442,336.746582,198.0535278z"/>
	<path data-nr="1" class="plan__svg__hoverable" fill="none" d="M420.7000122,271.7251587v-2.6251831h-0.0999756h-6.2000122H357.5v6.2999878
		v35.4000244h-13.2281494c-0.0667114-1.3831177-0.3944092-2.8522339-1.0076904-4.3856201
		c-0.7070313-1.7685547-1.690918-3.2421875-2.9106445-4.3681641c-0.9462891-0.9462891-2.4379883-2.21875-4.1679688-2.9101563
		c-1.6708984-0.6679688-3.4414063-1.0361328-4.9853516-1.0361328h-0.5v12.7000732h-1.9639893h-0.3361816v-40.1000366v-3.7999878
		h-3.7999878H218.2999878v3.7999878h0.0999146v17.000061h-0.0999146V301v2.7999878v10.7999878v0.1000366V323.5h0.0999146v19
		h-0.0999146v8.8999634h0.0999146v17.8000488h-0.0999146v11v11V405h0.0999146v17.2000122h-0.0999146v8.8999634h0.0999146v18.7997437
		h29.0001221V450h8.8999634h26.6000366v-0.1002808h18.3999634V450h15.4000244h11.6000366h7.999939v-0.1002808h18.6000366V450H381.5
		h8.9000244v-0.1002808h30.199585h0.2003784v-18.7997437v-8.8999634V271.7251587H420.7000122z M335.8144531,300.0637817
		c1.5727539,0.6289063,2.9516602,1.8095703,3.8461914,2.703125c1.1240234,1.0380859,2.0239258,2.3896484,2.6748047,4.0185547
		c0.5653076,1.4126587,0.8691406,2.7565918,0.9359741,4.0145264h-11.571228v-11.6864014
		C332.9975586,299.1829224,334.4384766,299.5139771,335.8144531,300.0637817z"/>
</g>
</svg>
