<!-- DO NOT EDIT THIS, THIS FILE IS GENERATED FROM "2_13-22.original.svg" using transform-svgs.js script -->



<svg version="1.1" 
	 xmlns="http://www.w3.org/2000/svg" xmlns:xlink="http://www.w3.org/1999/xlink" x="0px" y="0px" viewBox="0 0 720 480"
	 style="enable-background:new 0 0 720 480;" xml:space="preserve">


<g>
	<polygon fill="#DBD4CA" points="263.8267212,449.2934265 265.2285156,442.9850159 281.2193298,442.6882629
		304.9200134,449.5199585 307.2841492,444.3869934 307.2841492,442.9851685 327.611145,442.9851685 353.5454102,449.293396
		356.3490601,442.9849854 371.7695313,442.9849854 399.8065796,449.2933655 402.610321,442.9849548 419.3597717,442.9849548
		442.8797913,448.5214539 448.0305176,442.9849548 465.2233582,442.9849548 488.8800659,448.7768555 493.7310181,442.9849243
		500.7402954,442.9849243 500.7402954,442.9851074 512.6560059,442.9851074 537.8895264,448.5924683 539.2913208,442.9850769
		554.711792,442.9850769 580.6461792,448.5924377 582.0479736,442.9850769 629.2905273,442.9850464 646.5333862,447.1905212
		654.944458,410.7422791 647.9351807,409.3404541 647.9351807,370.0884705 654.2435913,342.7522888 647.9351807,341.3504639
		647.9351807,336.4439697 647.9351807,333.6403198 653.5426025,308.4068298 646.5333252,304.201355 646.5333252,266.2926331
		655.5030518,233.2674408 478.21521,233.4151001 478.21521,189.109024 528.7793579,189.1090088 528.5782471,30.6992741
		380.8814697,30.6993217 380.8814697,30.8395119 312.8914795,30.8395348 64.7629547,30.8396168 64.7627792,30.839529
		64.7629547,30.8397884 64.7630234,253.734726 64.7630234,253.7348175 236.3503571,253.7347565 236.350174,253.7344971
		236.350174,253.7344208 236.3503571,253.7346802 237.0511322,252.759201 237.0511322,254.192276 238.7935333,254.192276
		238.7935486,296.5317383 237.0511475,296.5317383 237.0511475,297.1921082 192.3319855,297.1921387 193.0329437,314.71521
		187.4254913,339.2477722 192.3320923,340.6495667 194.0142059,359.4345398 186.3041534,395.1689148 192.332016,398.8267212
		192.3320313,412.7051086 186.5844727,442.5646362 217.5655365,449.2934265 218.9673462,442.9850159 236.4905243,442.9850159 	"/>
	<g>
		<rect x="237.8924103" y="253.7346802" fill="#565440" width="4.2055054" height="42.7566528"/>
		<rect x="456.5820007" y="188.6809845" fill="#565440" width="4.2052307" height="44.9355927"/>
		<rect x="477.6094971" y="188.6809845" fill="#565440" width="1.4021301" height="44.9355927"/>
	</g>
</g>
<g>
	<path fill="none" stroke="#565440" d="M216.0232086,32.8020897v-2.1027565L64.7629089,30.6993828l0.0000381,117.7559662h2.1027374
		L66.8656464,32.8021584l149.1575623-0.0000496V32.8020897z"/>
	<g>
		<polygon fill="#565440" points="211.256958,147.7542114 211.256958,151.9598999 218.2662964,151.9598999 218.2662354,29.9984131
			204.2475586,29.9984131 204.2475586,38.4025269 214.0606079,38.4025269 214.0606079,147.7542114 		"/>
		<rect x="173.4068604" y="29.9984131" fill="#565440" width="9.8129272" height="7.0093384"/>
		<polygon fill="#565440" points="141.1640625,87.4744873 134.1548462,87.4744873 134.1548462,88.8763428 142.56604,88.8763428
			142.565979,38.4025269 153.7808228,38.4025269 153.7808228,29.9984131 114.5287476,29.9984741 114.5287476,38.4025269
			141.1640625,38.4025269 		"/>
		<polygon fill="#565440" points="71.0713501,88.8764038 117.3325806,88.8763428 117.3325806,91.6801758 118.734436,91.6801758
			118.734436,88.8763428 122.9398804,88.8763428 122.9398804,87.4744873 71.0713501,87.4745483 71.0713501,72.0540771
			72.4661255,72.0540771 72.4661255,62.2410889 64.0620117,62.2410889 64.0620117,101.4931641 71.0713501,101.4931641 		"/>
		<rect x="85.0898438" y="29.9984131" fill="#565440" width="9.8129272" height="8.4041138"/>
		<polygon fill="#565440" points="184.6216431,123.9227905 183.2198486,123.9227905 183.2198486,147.7542114 155.1826782,147.7542114
			155.1826782,105.6986694 183.2198486,105.6986694 183.2198486,112.7079468 184.6216431,112.7079468 184.6216431,104.296814
			118.734436,104.296814 118.734436,102.8949585 117.3325806,102.8949585 117.3325806,105.6986694 127.1455688,105.6986694
			127.1455688,122.5209961 128.5474243,122.5209961 128.5474243,105.6986694 153.7808838,105.6986694 153.7808838,147.7542114
			128.5474243,147.7542725 128.5474243,133.7357788 127.1455688,133.7357788 127.1456299,147.7542725 72.4661255,147.7542725
			72.4661255,121.1191406 64.0620117,121.1191406 64.0620728,151.9599609 197.2383423,151.9598999 197.2383423,147.7542114
			184.6216431,147.7542114 		"/>
	</g>
	<path fill="none" stroke="#565440" d="M122.9400711,87.4745102c0-1.5420609,0.2803345-2.803688,0.8411407-4.2056427
		c0.5606766-1.401825,1.401825-2.663414,2.3830719-3.6448364c0.9813766-1.1214828,2.2430038-1.9626694,3.6448288-2.5233459
		s2.8036957-0.8411484,4.3457489-0.8411484v11.2148361 M117.3325653,102.894989
		c-1.5420532,0-2.803688-0.2803421-4.2056351-0.8411407c-1.4019547-0.5608063-2.663414-1.401825-3.6448364-2.3830719
		c-1.1214828-0.9813843-1.9626694-2.2430115-2.5233459-3.6448364c-0.5608139-1.401825-0.8411484-2.803688-0.8411484-4.3457413
		l11.2148361-0.0000076 M127.1455917,122.5209732c-1.5420609,0-2.803688,0.2803421-4.205513,0.8411484
		c-1.4018173,0.5606766-2.6635818,1.401825-3.6448288,2.3830719c-1.1214828,0.9813766-1.9626694,2.2430115-2.5233459,3.6448364
		c-0.5606842,1.401825-0.8411484,2.8036804-0.8411484,4.3457489l11.2148361-0.0000153 M183.2198334,123.9227753
		c-1.5420685,0-2.8036957-0.2803345-4.2055206-0.8411407s-2.6635742-1.401825-3.6448364-2.3832474
		c-1.1214752-0.9812469-1.9626617-2.2430038-2.5233459-3.6448288s-0.8411407-2.803688-0.8411407-4.3457413l11.2148285-0.0000076
		 M197.2384491,147.7542267c0-1.8223877,0.4205627-3.5045929,1.1214752-5.1868896
		c0.7009125-1.6823273,1.6821594-3.3643646,3.0840302-4.6260834c1.2617188-1.2617188,2.8036804-2.3830719,4.4859772-3.0841522
		c1.6823273-0.7009125,3.5045929-1.1214905,5.3269958-1.1214905v14.0186157"/>
</g>
<g>
	<path fill="none" stroke="#565440" d="M66.865715,251.4917603l-0.0000305-101.4943085h-2.1027374l0.0000381,103.5970917
		l140.1856079-0.0000458v-2.1027374L66.865715,251.491806V251.4917603z"/>
	<g>
		<polygon fill="#565440" points="71.0714111,198.2211914 132.7529297,198.2211304 132.7529297,196.8193359 128.5474243,196.8193359
			128.5474243,194.015625 127.1456299,194.015625 127.1456299,196.8193359 71.0714111,196.8193359 71.0713501,181.3988647
			64.0620728,181.3988647 64.0620728,220.6508179 72.4661255,220.6508179 72.4661255,210.8378296 71.0714111,210.8378296 		"/>
		<rect x="85.0899048" y="245.8913574" fill="#565440" width="9.8129272" height="8.4041138"/>
		<rect x="174.8087158" y="247.2860718" fill="#565440" width="9.8129883" height="7.0093384"/>
		<polygon fill="#565440" points="143.9678955,198.2211304 159.3882446,198.2211304 159.3882446,215.043457 127.1456299,215.043457
			127.1456299,217.8471069 128.5474243,217.8471069 128.5474243,216.4453125 159.3882446,216.4453125 159.3882446,245.8913574
			150.9771118,245.8913574 150.9771118,247.2860718 128.5474854,247.2860718 128.5474854,229.0619507 127.1456299,229.0619507
			127.1456299,247.2860718 121.538147,247.2860718 121.538147,254.2954102 160.7902222,254.2953491 160.7902222,196.8193359
			143.9678955,196.8193359 		"/>
		<polygon fill="#565440" points="264.5273438,184.2026367 257.5181885,184.2026367 218.2662964,184.2026367 218.2662964,174.3895264
			195.8364868,174.3895264 195.8364868,167.3803101 191.6309814,167.3803711 191.6309814,188.4081421 193.0328369,188.4081421
			193.0328369,178.5951538 214.0606079,178.5951538 214.0606079,188.4081421 235.0884399,188.4081421 235.0884399,229.0618896
			225.2754517,229.0618896 225.2754517,231.8657227 226.6773071,231.8657227 226.6773071,230.4637451 236.4904175,230.4637451
			236.4904175,212.239563 237.8922119,212.239563 237.8922119,210.8377686 236.4904175,210.8377686 236.4904175,188.4081421
			257.5182495,188.4081421 257.5182495,210.8377686 249.1070557,210.8377686 249.1070557,212.239563 257.5182495,212.239563
			257.5182495,245.8913574 226.6773071,245.8913574 226.6773071,243.0805664 225.2754517,243.0805664 225.2754517,245.8913574
			204.2476196,245.8913574 204.2476196,254.2953491 264.5274048,254.2953491 		"/>
		<polygon fill="#565440" points="191.6309814,153.3617554 195.8364868,153.3617554 195.8364868,147.7542114 64.0620117,147.7542725
			64.0620728,160.3710938 72.4661255,160.3710938 72.4661255,151.9599609 127.1456299,151.9598999 127.1456299,182.8007202
			128.5474243,182.8007202 128.5474243,178.5952148 141.1641235,178.5952148 141.1641235,177.1933594 128.5474243,177.1933594
			128.5474243,151.9598999 163.5938721,151.9598999 163.5938721,177.1932983 152.3790894,177.1932983 152.3790894,178.5952148
			164.9956665,178.5952148 164.9956665,177.1932983 164.9956665,151.9598999 191.6309814,151.9598999 		"/>
	</g>
	<path fill="none" stroke="#565440" d="M152.3790588,178.5951996c0,1.5420532-0.2803345,2.8036957-0.8411407,4.2056427
		c-0.5608063,1.401825-1.401825,2.6634064-2.3832397,3.6448364c-0.9812622,1.1214752-2.2430115,1.9626617-3.6448364,2.5233459
		s-2.8036957,0.8411407-4.3457489,0.8411407v-11.2148285 M132.7530823,198.2211456
		c0,1.5420685,0.2803345,2.8036957,0.8411407,4.2056427c0.5606842,1.401825,1.401825,2.6634064,2.3830719,3.6448364
		c0.9812469,1.1214752,2.2430115,1.962677,3.6448364,2.5233459c1.401825,0.5606842,2.8036957,0.8411407,4.3457489,0.8411407
		V198.221283 M127.145607,182.8007202c-1.5420532,0-2.8036804,0.2803345-4.2055054,0.8411407
		s-2.6635818,1.401825-3.6448364,2.383255c-1.1214828,0.9812469-1.9626694,2.2430115-2.5233459,3.6448364
		c-0.5606766,1.4018097-0.8411407,2.8036804-0.8411407,4.3457336h11.2148361 M128.5474548,229.0619354
		c1.5420532,0,2.8036804-0.2803345,4.2055054-0.8411407s2.6635742-1.401825,3.6448364-2.3830719
		c1.1214752-0.9813843,1.9626617-2.2430115,2.5233459-3.6448364c0.5608063-1.401825,0.8411407-2.8036957,0.8411407-4.3457489
		h-11.2148438 M225.2756195,231.8657227c-1.5420685,0-2.8036957,0.2803345-4.2055206,0.8411407
		s-2.6634064,1.401825-3.6448364,2.383255c-1.1214752,0.9812469-1.9626617,2.2430115-2.5233459,3.6448364
		c-0.5608063,1.4018097-0.8411407,2.8036804-0.8411407,4.3457336h11.2148438 M249.1070557,212.2395935
		c0,1.5420532-0.2803345,2.8036957-0.8411407,4.2055206c-0.5606689,1.4018097-1.401825,2.6635742-2.3830719,3.6448212
		c-0.981369,1.1214905-2.2430115,1.962677-3.6448212,2.5233612c-1.401825,0.5606689-2.8036957,0.8411407-4.3457489,0.8411407
		v-11.2148438 M191.6309967,167.3803558c-1.822403,0-3.5046082-0.420578-5.1868896-1.1214905
		c-1.6823425-0.7009125-3.364502-1.6823273-4.6260834-3.0841522c-1.2615967-1.2617188-2.3830872-2.8036957-3.0840302-4.4859772
		c-0.7009125-1.6823273-1.1214905-3.5045929-1.1214905-5.3269958h14.0186157"/>
</g>
<g>
	<g>
		<path fill="none" stroke="#565440" d="M194.8552551,314.5752869l-5.0466461,21.8689575l-2.1027374-0.4205627l5.0466461-21.8689575
			L194.8552551,314.5752869z"/>
		<path fill="none" stroke="#565440" d="M196.5374756,358.8738708l-8.1306763,35.4668579l-2.1027222-0.4205627l8.130661-35.46698
			L196.5374756,358.8738708z"/>
		<polygon fill="none" stroke="#565440" points="214.621521,448.4524536 215.1822052,446.3497009 189.5283051,440.6019592 196.1170502,406.8172913
			194.1543732,406.3967285 187.0049896,442.2843323 187.9862518,442.4244385 		"/>

			<rect x="248.3705444" y="432.2976379" transform="matrix(0.2514893 -0.9678601 0.9678601 0.2514893 -243.9260254 574.4312134)" fill="none" stroke="#565440" stroke-width="1.0000414" stroke-miterlimit="4.0001655" width="2.0998993" height="25.243927"/>

			<rect x="293.1773376" y="433.7123413" transform="matrix(0.2514893 -0.9678601 0.9678601 0.2514893 -210.6714783 618.017395)" fill="none" stroke="#565440" stroke-width="1.0000414" stroke-miterlimit="4.0001655" width="2.099884" height="23.0010376"/>
	</g>
	<g>
		<polygon fill="#565440" points="191.6310425,296.3510742 191.6310425,310.8104858 190.789856,314.2947388 197.6589355,315.836853
			198.6403198,311.7714233 198.6403198,303.3602905 303.779541,303.3602905 303.779541,315.3139648 307.9850464,315.3139648
			307.9850464,296.3510742 		"/>
		<polygon fill="#565440" points="191.6310425,359.4345093 200.0222778,359.4345093 200.0222168,337.0048828 194.4346924,337.0048828
			187.5656738,335.4629517 186.5843506,339.5281982 191.6310425,340.6611328 		"/>
		<polygon fill="#565440" points="192.4081421,394.480957 186.1638184,393.0791626 185.1825562,397.1445313 191.6311035,398.5922241
			191.6311035,415.5087891 200.0222778,415.5087891 200.0222168,394.480957 		"/>
		<polygon fill="#565440" points="215.2372437,442.7687988 213.8352661,449.0132446 217.9006348,449.9945679 219.3483887,443.5460205
			238.8378906,443.5460205 238.8378906,435.1317139 215.2372437,435.1317139 		"/>
		<polygon fill="#565440" points="281.3499146,436.5366211 260.9651489,436.5366211 260.9651489,442.7687378 259.5633545,449.0131836
			263.6287231,449.9945068 265.076416,443.5460205 280.3884277,443.5460205 283.8731079,444.3869629 285.4153442,437.5179443
			281.3499146,436.5692749 		"/>
		<polygon fill="#565440" points="251.9108276,376.2568359 251.9108276,374.8549805 251.9108276,373.453125 196.8179321,373.453125
			193.0328979,372.6119995 192.7524414,374.0139771 196.5374756,374.8549805 250.5089722,374.8549805 250.5089722,376.2568359 		"/>
		<polygon fill="#565440" points="303.779541,331.3973389 292.347229,331.3973389 292.347229,332.7992554 303.779541,332.7992554
			303.779541,360.8364258 268.7330933,360.8364868 268.7330933,332.7992554 281.1934814,332.7992554 281.1934814,331.3973389
			267.3312378,331.3973999 267.3312378,373.453125 268.7330933,373.453125 268.7330933,362.2383423 303.779541,362.2383423
			303.779541,387.4716187 268.7330933,387.4716187 268.7330933,384.6679688 267.3312378,384.6679688 267.3312378,395.8827515
			264.5274658,395.8827515 264.5274658,397.2846069 268.7331543,397.2846069 268.7330933,388.8734741 303.779541,388.8734741
			303.779541,445.5325928 302.9383545,449.0170898 307.0037842,449.998291 307.9850464,445.9328613 307.9850464,329.3312988
			303.779541,329.3312988 		"/>
		<polygon fill="#565440" points="251.9108276,387.4716187 250.5089722,387.4716187 250.5089722,440.461792 249.6679688,443.8262939
			251.0698242,444.1066895 251.9108276,440.7421875 251.9108276,397.2846069 253.3126221,397.2846069 253.3126221,395.8827515
			251.9108276,395.8827515 		"/>
	</g>
	<path fill="none" stroke="#565440" d="M250.5089417,387.4716187c-1.5420532,0-2.8036957-0.2803345-4.2055054-0.8411255
		c-1.401825-0.5608215-2.6634216-1.401825-3.6448364-2.3830872c-1.1214905-0.9813843-1.962677-2.2430115-2.5233459-3.6448364
		c-0.5608215-1.401825-0.841156-2.8036804-0.841156-4.3457336h11.2148438 M268.7330933,373.453125
		c1.5420532,0,2.8037109,0.280365,4.2055054,0.841156c1.401825,0.5608215,2.6634216,1.401825,3.6448364,2.3830872
		c1.1214905,0.9813538,1.962677,2.242981,2.5233765,3.6448059c0.560791,1.401825,0.8411255,2.8037109,0.8411255,4.3457642
		h-11.2148438 M281.1934814,332.7992554c0,1.5420532,0.2803345,2.8036804,0.8411255,4.2055054
		c0.5608215,1.401825,1.401825,2.6635742,2.3832397,3.6448364c0.9812622,1.1214905,2.2430115,1.962677,3.6448364,2.5233459
		s2.8036804,0.841156,4.3457642,0.841156v-11.2148438 M264.5275879,397.2846375
		c0,1.5420532-0.2803345,2.8036804-0.8411255,4.2055054c-0.5608215,1.401825-1.401825,2.6636047-2.3832397,3.6448364
		c-0.9812622,1.1214905-2.2430115,1.962677-3.6448364,2.5233459c-1.401825,0.5606995-2.8036957,0.841156-4.3457489,0.841156
		v-11.2148438 M307.8500061,315.3127441c1.8223877,0,3.63974,0.4205322,5.3220215,1.12146
		c1.6823425,0.7009277,3.364502,1.682312,4.6260986,3.0841675c1.2617188,1.2617188,2.3830566,2.8036499,3.0841675,4.4859619
		c0.7008972,1.6821289,1.12146,3.5045776,1.12146,5.3269653h-14.1536255"/>
</g>
<g>
	<path fill="none" stroke="#565440" d="M352.8444519,355.4662476c-1.5420837,0-2.8036499,0.2803345-4.2054749,0.8411255
		c-1.401825,0.5608215-2.6634216,1.401825-3.6448364,2.3832703c-1.1214905,0.9812317-1.962677,2.2430115-2.5233459,3.6448364
		c-0.5606995,1.4017944-0.841156,2.8036804-0.841156,4.3457336h11.2148132 M352.8444519,390.7364502
		c-1.5420837,0-2.8036804-0.2803345-4.205658-0.841156c-1.401825-0.560791-2.6635437-1.401825-3.6448364-2.3832397
		c-1.1214905-0.9812622-1.9626465-2.2430115-2.5233154-3.6448364s-0.8411865-2.8036804-0.8411865-4.3457336h11.2148438
		 M361.2556458,335.6652222c0-1.8224182,0.4205627-3.5669556,1.1214905-5.2492981
		c0.7009277-1.682312,1.6821899-3.3644714,3.0840149-4.6260681c1.2615967-1.2617188,2.8036804-2.3830872,4.4859924-3.0841675
		c1.6821594-0.7008972,3.5045776-1.12146,5.3269958-1.12146l-0.0000305,14.0808105"/>
	<g>

			<rect x="340.4065857" y="432.2936707" transform="matrix(0.2514893 -0.9678601 0.9678601 0.2514893 -175.0322571 663.5061646)" fill="none" stroke="#565440" stroke-width="1.0000414" stroke-miterlimit="4.0001655" width="2.0997314" height="25.243927"/>

			<rect x="385.4671936" y="433.708374" transform="matrix(0.2514893 -0.9678601 0.9678601 0.2514893 -141.5877533 707.3380127)" fill="none" stroke="#565440" stroke-width="1.0000414" stroke-miterlimit="4.0001655" width="2.0997314" height="23.0010376"/>
	</g>
	<g>
		<polygon fill="#565440" points="307.9850464,369.0026855 352.8444824,369.0026855 352.8444824,379.5214844 354.2462769,379.5214844
			354.2462769,366.6812134 352.8444824,366.6812134 352.8444824,367.6008301 307.9850464,367.6008911 307.9850464,339.8085327
			352.8444824,339.8084717 352.8444824,355.4662476 354.2462769,355.4662476 354.2462769,339.8084717 361.3250732,339.8084717
			361.3250732,335.6029663 303.779541,335.6030273 303.779541,445.5325928 302.9383545,449.0170898 307.0037842,449.998291
			307.9850464,445.9328613 307.9850464,443.5460205 330.414856,443.5460205 330.414856,435.1419067 307.9850464,435.1419067 		"/>
		<polygon fill="#565440" points="406.1149902,335.6029663 375.3435669,335.6029663 375.3435669,339.8084717 401.9093628,339.8084717
			401.9093628,367.6008911 375.8129883,367.6009521 375.8129883,369.0027466 401.9093628,369.0027466 401.9094238,435.1419067
			398.4313354,435.1419067 398.4313354,442.1439819 396.8894043,449.0131836 400.9546509,449.9945068 402.4023438,443.5459595
			406.1150513,443.5459595 		"/>
		<polygon fill="#565440" points="354.2463379,436.5366211 354.2462769,390.7364502 352.8444824,390.7364502 352.8444824,442.1439819
			351.3025513,449.0131836 355.3677979,449.9945068 356.8154907,443.5459595 370.8115234,443.546936 375.6713867,444.6686401
			377.213501,437.7994995 371.8863525,436.5378418 		"/>
	</g>
</g>
<g>
	<path fill="none" stroke="#565440" d="M451.2441101,355.386261c-1.5420837,0-2.8036804,0.2803345-4.205658,0.8411255
		c-1.401825,0.5608215-2.6635437,1.401825-3.6448364,2.3832703c-1.1214905,0.9812317-1.9626465,2.2430115-2.5233154,3.6448364
		c-0.5606689,1.4017944-0.841156,2.8036804-0.841156,4.3457336h11.2148132 M451.2441101,390.7364502
		c-1.5420837,0-2.8036804-0.2803345-4.2056274-0.841156c-1.4018555-0.560791-2.6635742-1.401825-3.6448364-2.3832397
		c-1.121521-0.9812622-1.9626465-2.2430115-2.5233459-3.6448364c-0.5606689-1.401825-0.841156-2.8036804-0.841156-4.3457336
		h11.2148132 M456.5820313,335.7232971c0-1.8223877,0.4205627-3.625061,1.1214905-5.3072205
		c0.7009277-1.6823425,1.6821899-3.364502,3.0841675-4.6260986c1.2615967-1.2617188,2.8036499-2.3830566,4.4859619-3.084137
		c1.6821899-0.7009277,3.5045776-1.1214905,5.3269958-1.1214905l0.0000305,14.1390076"/>
	<g>
		<polygon fill="#565440" points="406.1148682,369.0026855 451.2441406,369.0026855 451.2441406,379.5214844 452.6459351,379.5214844
			452.6459351,366.6012573 451.2441406,366.6012573 451.2441406,367.6008301 406.1148682,367.6008911 406.1148682,339.8084717
			451.2423096,339.8084717 451.2423706,355.3862915 452.644165,355.3862915 452.644165,339.8084717 456.5820313,339.8084717
			456.5820313,335.6029663 401.9093628,335.6029663 401.9094238,443.5459595 421.5411377,443.5358887 421.5411377,435.1503906
			406.1149292,435.1419067 		"/>
		<polygon fill="#565440" points="504.244873,335.6029053 470.600708,335.6029663 470.600708,339.8084717 500.0391846,339.8084717
			500.0391846,367.600769 472.90802,367.6008301 472.90802,369.0026245 500.0391846,369.0026245 500.0392456,435.1418457
			489.6768799,435.1418457 489.6768799,442.7565308 488.2745972,449.0031128 488.2758789,449.003418 488.2749023,449.0076904
			492.340271,449.9890137 493.7879639,443.5405884 504.244873,443.5459595 504.244873,443.5405884 504.2498169,443.5405884 		"/>
		<polygon fill="#565440" points="452.6459351,436.53125 452.6459351,390.7364502 451.2441406,390.7364502 451.2441406,436.53125
			443.9478149,436.53125 443.9478149,443.5405884 443.9592285,443.5405884 442.8262939,448.5874023 446.8917236,449.5686646
			448.244873,443.5405884 461.6397705,443.5405884 466.4996338,444.6620483 468.041687,437.7929688 462.7146606,436.53125 		"/>
	</g>
	<g>

			<rect x="432.0346985" y="432.2892456" transform="matrix(0.2514893 -0.9678601 0.9678601 0.2514893 -106.4433746 752.1860352)" fill="none" stroke="#565440" stroke-width="1.0000414" stroke-miterlimit="4.0001655" width="2.0997314" height="25.243927"/>
		<polygon fill="none" stroke="#565440" points="465.6594238,443.0918884 466.1875305,441.0595703 489.4997864,447.084137 488.9717102,449.1163025
			"/>
	</g>
</g>
<g>
	<path fill="none" stroke="#565440" d="M646.6734619,447.1906128l7.8503418-33.6446228l-2.2507935-0.6472168l-7.2896729,31.6819458
		l-15.6928711-3.4180603l-26.3549194,0.0000305v2.1027527h26.3549194L646.6734619,447.1906128z M537.8894653,446.6299744
		l-0.4205933,2.1027832l-26.074585-5.9608765l0.4205627-2.1028442L537.8894653,446.6299744z M581.3470459,446.6299438
		l-0.4205933,2.1027832l-24.5325317-5.6074524l0.4205933-2.1027832L581.3470459,446.6299438z M654.2435303,343.1729126
		l-6.0278931,26.3547974l-2.1027222-0.4205627l6.0278931-26.3548279L654.2435303,343.1729126z"/>
	<g>
		<polygon fill="#565440" points="535.0857544,353.8270874 536.4876099,353.8270874 536.4876099,339.8084106 556.1135864,339.8084106
			556.1135864,367.8455811 536.4876099,367.8455811 536.4876099,365.0418701 535.0857544,365.0418701 535.0857544,369.2473755
			582.7488403,369.2473755 582.7488403,367.8455811 557.5154419,367.8455811 557.5153809,339.8084106 595.3654785,339.8084106
			595.3655396,367.8455811 593.9636841,367.8455811 593.9636841,369.2473755 595.3655396,369.2473755 595.3655396,370.649353
			596.767334,370.649353 596.767334,339.8084106 644.4304199,339.8084106 644.428894,344.0466309 653.822998,346.257019
			654.8042603,342.1916504 648.6360474,340.7402344 648.6360474,335.6029053 519.6652832,335.6029053 519.6652832,339.8084106
			535.0857544,339.8084106 		"/>
		<polygon fill="#565440" points="535.9430542,436.5365601 535.9430542,443.5458984 535.9545898,443.5458984 534.8217163,448.5925293
			538.887085,449.5737915 540.2402344,443.5458984 553.1749268,443.5458984 558.03479,444.6673584 559.5769653,437.7983398
			554.2498779,436.5365601 		"/>
		<polygon fill="#565440" points="504.244873,339.8084717 505.6466675,339.8084717 505.6466675,335.6029053 500.0393677,335.6029663
			500.0393677,443.5459595 513.3164673,443.5459595 513.3164673,435.1419067 504.244873,435.1419067 		"/>
		<polygon fill="#565440" points="580.6777344,395.8826294 582.2632446,395.8826294 582.2632446,394.480835 580.6777344,394.480835
			580.6777344,384.6678467 579.2758789,384.6678467 579.2873535,443.5458984 578.1544189,448.5925293 582.2197876,449.5737915
			583.5731201,443.5458984 604.3295898,443.5458984 604.3295898,435.1418457 580.6777344,435.1418457 		"/>
		<polygon fill="#565440" points="648.6361084,408.6204834 648.6361084,365.0418701 644.4304199,365.0418701 644.4304199,394.480835
			596.767334,394.480835 596.767334,381.8641357 595.3655396,381.8641968 595.3655396,394.480835 593.4780884,394.480835
			593.4780884,395.8826294 641.62677,395.8826294 641.62677,414.1068115 641.6582642,414.1068115 641.62677,414.2470093
			653.9632568,417.0508423 655.505188,410.1816406 		"/>
	</g>
	<path fill="none" stroke="#565440" d="M536.4876099,353.8271179c1.5420532,0,2.8036499,0.2803345,4.2055054,0.8411255
		c1.4018555,0.5606689,2.6635742,1.401825,3.6448364,2.3830872c1.12146,0.9813538,1.9626465,2.2430115,2.5233154,3.6448364
		c0.5606689,1.4017944,0.8411255,2.8036804,0.8411255,4.3457336h-11.2147827 M582.7488403,367.8455811
		c0-1.5420532,0.2803345-2.8037109,0.8411865-4.2055054c0.5606689-1.401825,1.4017944-2.6634216,2.3830566-3.6448364
		c0.9812622-1.1214905,2.243042-1.962677,3.6448364-2.5233765c1.4018555-0.560791,2.8036499-0.8411255,4.3457642-0.8411255
		v11.2148438 M596.767334,370.6493835c1.5421143,0,2.8036499,0.2803345,4.2055054,0.841156
		c1.4018555,0.5606689,2.6635742,1.401825,3.6448364,2.3830566c1.12146,0.9812622,1.9626465,2.2430115,2.5233154,3.6448364
		c0.5608521,1.401825,0.8411865,2.8036804,0.8411865,4.3457336H596.767334 M593.4780884,395.8826599
		c0,1.5420532-0.2803345,2.8036804-0.8411865,4.2055054c-0.5606689,1.401825-1.4017944,2.6636047-2.3830566,3.6448364
		c-0.9812622,1.1214905-2.242981,1.962677-3.6448364,2.5233459c-1.4018555,0.5606995-2.8036499,0.841156-4.3457642,0.841156
		v-11.2148438 M519.6652832,339.8084412c0,1.8224182-0.4205322,3.5046082-1.12146,5.1868896
		c-0.7009277,1.6823425-1.6821899,3.364502-3.0841675,4.6260986c-1.2617188,1.2617188-2.8036499,2.3832397-4.4859619,3.0841675
		c-1.682312,0.7008972-3.5045776,1.12146-5.3269958,1.1214905v-14.0186157"/>
</g>
<g>
	<g>
		<path fill="none" stroke="#565440" d="M654.3647461,306.3859558l-6.2894897,27.2542725l-2.1027832-0.4205627l6.2894897-27.2542725
			L654.3647461,306.3859558z"/>
		<path fill="none" stroke="#565440" d="M558.9171753,233.2674713v2.1027374l-40.6537476,0.0000153v-2.1027374L558.9171753,233.2674713z"/>
		<polygon fill="none" stroke="#565440" points="655.6453857,233.2674408 614.4307861,233.2674561 614.4307861,235.3702393 652.8415527,235.370224
			646.3930054,260.0428772 648.3557129,260.6036377 		"/>
	</g>
	<g>
		<polygon fill="#565440" points="640.2319336,335.6029053 591.1599731,335.6029053 591.1599731,303.3601685 589.7579956,303.3601685
			589.7579956,307.5657959 575.739502,307.5657959 575.739502,308.9676514 589.7579956,308.9676514 589.7580566,335.6029053
			553.3097534,335.6029053 553.3097534,308.9676514 564.5247192,308.9676514 564.5247192,307.5657959 551.9078979,307.5657959
			551.9078979,335.6029053 525.2727661,335.6029053 525.2727661,332.7991333 521.0671387,332.7991333 521.0671387,339.8084106
			648.6360474,339.8084106 648.6360474,329.9954224 640.2319336,329.9954224 		"/>
		<polygon fill="#565440" points="574.3377075,289.3416748 574.3377075,287.9398193 558.9172363,287.9398193 558.9172363,272.5194092
			591.1599731,272.5194092 591.1599731,268.3137207 589.7579956,268.3137207 589.7579956,271.1174927 558.9172363,271.1175537
			558.9171753,240.2660522 589.7579956,240.2660522 589.7579956,257.098938 591.1599731,257.098938 591.1599731,240.2660522
			627.6082153,240.2659912 627.6082153,231.8656006 626.2062378,231.8656006 626.2062378,227.6599731 622.0007324,227.6599731
			622.0007324,231.8656006 605.1784668,231.8656006 605.1784668,227.6599731 600.9729614,227.6599731 600.9729614,231.8656006
			584.1506348,231.8656006 584.1506348,227.6599731 579.9450073,227.6599731 579.9450073,231.8656006 561.7208862,231.8656006
			561.7208862,227.6599731 557.5153809,227.6599731 557.5153809,289.3416748 		"/>
		<rect x="536.4875488" y="227.6599731" fill="#565440" width="4.2055054" height="9.8129883"/>
		<polygon fill="#565440" points="647.2342529,304.2767944 647.2341919,265.7905273 649.4771729,260.1830444 645.552063,258.6409302
			645.0473633,259.90271 643.0285645,259.90271 643.0285645,262.7063599 640.2319336,262.7063599 640.2319336,272.5193481
			643.0285645,272.5193481 643.0285645,287.9398193 585.5524902,287.9398193 585.5524902,289.3416748 589.7579956,289.3416748
			589.7579956,292.1453247 591.1599731,292.1453247 591.1599731,289.3416748 643.0285645,289.3416748 643.0285645,306.9851074
			642.8884888,307.5657959 653.822937,310.0891113 654.8041992,306.0236816 		"/>
		<polygon fill="#565440" points="521.0671387,318.7808228 525.272644,318.7808228 525.272644,307.565979 525.272583,297.7528687
			523.8709106,297.7528687 523.8709106,307.5658569 502.8431396,307.5658569 502.8431396,299.1547241 483.2171631,299.1547241
			483.2171631,257.0990601 491.6282959,257.0990601 491.6282959,255.6972656 481.8153076,255.6972656 481.8153076,273.9213867
			480.4134521,273.9213867 480.4134521,275.3232422 481.8153076,275.3232422 481.8153076,299.1546631 460.7874756,299.1546631
			460.7874756,275.3232422 469.1986084,275.3232422 469.1986084,273.9213867 460.7874756,273.9213867 460.7874756,240
			490.2264404,240 490.2264404,244.4824829 491.6282959,244.4824829 491.6282959,240 519.6654053,240 519.6654053,227.6602783
			515.4598999,227.6602783 515.4598999,231.8657837 497.2357788,231.8657837 497.2357788,227.6602783 493.0301514,227.6602783
			493.0301514,231.8657837 456.5820313,231.8655396 456.5820313,303.3604736 498.6374512,303.3604736 498.6375122,311.7714844
			521.0671387,311.7714844 		"/>
	</g>
	<path fill="none" stroke="#565440" d="M591.1599731,303.360199c1.5421143,0,2.8037109-0.280365,4.2056885-0.841156
		c1.4017944-0.5606689,2.6635742-1.401825,3.6447754-2.3830872c1.121521-0.9813843,1.9627075-2.2430115,2.5233765-3.6448364
		s0.8411255-2.8036804,0.8411255-4.3457336h-11.2147827 M585.5524902,287.9398499
		c0-1.5420532-0.2803345-2.8037109-0.8411255-4.2055359c-0.5608521-1.4017944-1.4018555-2.6635742-2.3831177-3.6448059
		c-0.9812622-1.1214905-2.242981-1.962677-3.6448364-2.5233459c-1.4017944-0.5606995-2.8036499-0.841156-4.3457031-0.841156
		v11.2148438 M564.5247192,307.5658264c0-1.5420532,0.2803345-2.8036804,0.8411255-4.2055054
		c0.5606689-1.401825,1.4018555-2.6635742,2.3831177-3.6448364c0.9812622-1.1214905,2.242981-1.962677,3.6448364-2.5233459
		c1.4017944-0.5606689,2.8036499-0.841156,4.3457031-0.841156v11.2148438 M589.7581177,257.098938
		c-1.5420532,0-2.8036499,0.2803345-4.2054443,0.8411255c-1.4018555,0.5608215-2.6635742,1.401825-3.6448364,2.3832397
		c-1.121521,0.9812622-1.9626465,2.2430115-2.5233154,3.6448364c-0.56073,1.401825-0.8411865,2.8037109-0.8411865,4.3457642
		h11.2147827 M491.6281433,255.6971283c1.5420837,0,2.8036804-0.2803345,4.2055359-0.8411407
		c1.401825-0.5608063,2.6635437-1.401825,3.6448364-2.3832397c1.1214905-0.9812622,1.9626465-2.2430115,2.5233154-3.6448364
		s0.841156-2.8036957,0.841156-4.3457489h-11.2148132 M469.1985168,273.9212646c0-1.5420532,0.280365-2.8036804,0.8411865-4.2055054
		c0.5606689-1.401825,1.401825-2.6634216,2.3830872-3.6448364c0.9812622-1.1214905,2.242981-1.962677,3.6448364-2.5233459
		c1.401825-0.5608215,2.8036499-0.841156,4.3457336-0.841156v11.2148438 M525.2727661,318.7806396
		c1.8224487,0,3.5045776,0.4205627,5.1868896,1.1214905c1.6821899,0.7008972,3.364502,1.682312,4.6260986,3.084137
		c1.2617188,1.2615967,2.3831177,2.8037109,3.0841675,4.4859924c0.7009277,1.6823425,1.12146,3.5046082,1.12146,5.3269958
		h-14.0184937"/>
</g>
<g>
	<polygon fill="none" stroke="#565440" points="528.7772827,30.6992741 419.4324951,30.6993084 419.4324951,32.8020859
		526.6745605,32.8020515 526.6745605,187.0062256 507.7495117,187.0062408 507.7495117,189.1090088 528.7793579,189.1090088 	"/>
	<g>
		<rect x="439.7593384" y="29.9983521" fill="#565440" width="9.8129883" height="8.4040527"/>
		<polygon fill="#565440" points="474.8058472,90.2780762 472.0021362,90.2780762 472.0021362,91.6800537 474.8058472,91.6800537
			474.8058472,94.4837036 476.2076416,94.4837036 476.2076416,37.0076904 479.0114136,37.0076904 479.0114136,29.9983521
			469.1983032,29.9983521 469.1983032,37.0076904 474.8057861,37.0076904 		"/>
		<rect x="498.6373901" y="29.9983521" fill="#565440" width="9.8129883" height="8.4040527"/>
		<rect x="521.0740967" y="62.2409668" fill="#565440" width="8.4041138" height="9.8129883"/>
		<rect x="522.4689331" y="151.9597778" fill="#565440" width="7.0093384" height="9.8129883"/>
		<polygon fill="#565440" points="450.9743652,165.9783325 459.385376,165.9782715 459.385376,164.576416 449.5723877,164.576416
			449.5723877,182.8005981 413.1241455,182.8005981 413.1241455,172.0429382 408.9186401,172.0429382 408.9186401,189.8098755
			508.4504395,189.8098755 508.4504395,182.8005981 450.9743652,182.8005981 		"/>
		<polygon fill="#565440" points="521.0740967,121.1189575 521.0740967,130.9320068 529.4782104,130.9320068 529.4782104,91.6800537
			522.4688721,91.6800537 522.4688721,107.1003418 476.2076416,107.1004028 476.2076416,105.6985474 474.8058472,105.6985474
			474.8058472,108.5021973 522.4688721,108.5021973 522.4688721,121.1189575 		"/>
		<polygon fill="#565440" points="413.1241455,158.0243225 413.1241455,147.7541504 435.553894,147.7541504 435.553894,146.352478
			413.1241455,146.352478 413.1240845,119.7171631 449.5723877,119.7171631 449.5723877,146.352417 446.7687378,146.352417
			446.7687378,147.7541504 459.385376,147.7541504 459.385376,146.352417 450.9743652,146.352417 450.9743652,91.6800537
			460.7871704,91.6800537 460.7871704,90.2780762 436.9556885,90.2780762 436.9556885,91.6801147 449.5723877,91.6800537
			449.5723877,118.3152466 413.1240845,118.3152466 413.1240845,91.6801147 425.7409058,91.6801147 425.7409058,90.2780762
			413.1240845,90.2780762 413.1240845,38.4024658 420.1333618,38.4024048 420.1333618,29.9983521 408.9185791,29.9983521
			408.9186401,158.0243225 		"/>
	</g>
	<path fill="none" stroke="#565440" d="M408.9186401,172.0429382c-1.8223877,0-3.5045776-0.420578-5.1868896-1.1214905
		c-1.6821899-0.7008972-3.364502-1.6823273-4.6260986-3.0841522c-1.2615967-1.2617188-2.3831177-2.8036804-3.0839844-4.4859772
		c-0.7009277-1.6823273-1.121521-3.5045929-1.121521-5.3269958h14.0186157 M476.2077026,94.4837189
		c1.5420532,0,2.8036499,0.2803421,4.2055054,0.8411484c1.4017944,0.5606766,2.6635132,1.4018173,3.6448364,2.3830719
		c1.12146,0.9813766,1.9626465,2.2430038,2.5233154,3.6448288s0.8411255,2.803688,0.8411255,4.3457413l-11.2147827,0.0000076
		 M460.7873535,90.2780838c0-1.5420532,0.2803345-2.803688,0.8411865-4.2055054
		c0.560791-1.401825,1.4018555-2.663414,2.3830566-3.6448364c0.9812622-1.1214828,2.243042-1.962677,3.6448364-2.5233536
		c1.4018555-0.5608063,2.8037109-0.8411407,4.3457642-0.8411407v11.2148361 M436.9557495,90.2780914
		c0-1.5420532-0.2803345-2.803688-0.8411865-4.2055054c-0.5606689-1.401825-1.4018555-2.663414-2.3831177-3.6448364
		c-0.9812012-1.1214828-2.242981-1.9626694-3.6447754-2.5233459c-1.4018555-0.5608063-2.8037109-0.8411484-4.3457642-0.8411407
		v11.2148361 M435.5539551,146.3524628c0-1.5420685,0.2803345-2.8036957,0.8411255-4.2056427
		c0.5608521-1.401947,1.4018555-2.6634064,2.3831177-3.6448364c0.9812622-1.1214905,2.242981-1.962677,3.6448364-2.5233459
		c1.4018555-0.5608063,2.8036499-0.841156,4.3457642-0.841156v11.2148438"/>
</g>
<g>
	<path fill="none" stroke="#565440" d="M409.6194763,30.6992912v2.1027565l-78.5038757,0.0000229V30.699316L409.6194763,30.6992912z"
		/>
	<g>
		<rect x="380.8814697" y="29.9983521" fill="#565440" width="9.8129883" height="7.0093384"/>
		<polygon fill="#565440" points="362.1746826,92.9876709 363.5765381,92.9876709 363.5765381,36.8588867 361.2554932,36.8588867
			361.2554932,29.9983521 351.4425049,29.9983521 351.4425049,38.2607422 362.1746826,38.2607422 		"/>
		<polygon fill="#565440" points="314.9942627,118.6682739 340.9447632,118.6682739 340.9447632,117.2664185 314.9942627,117.2664185
			314.9942017,38.4024658 331.8165283,38.4024658 331.8165283,29.9983521 310.7886963,29.9984131 310.7887573,151.9598389
			314.9942627,151.9598389 342.4414673,151.9598389 342.4414673,147.7541504 314.9942627,147.7542114 		"/>
		<polygon fill="#565440" points="413.1240845,29.9983521 408.9185791,29.9983521 408.9185791,114.8005981 363.5765381,114.8006592
			363.5765381,104.2024536 362.1746826,104.2024536 362.1746826,117.9673462 363.5765381,117.9673462 363.5765381,116.2024536
			408.9185791,116.2024536 408.9185791,147.7541504 363.5828247,147.7541504 363.5828247,129.1801758 362.1809692,129.1801758
			362.1809692,147.7541504 356.460144,147.7541504 356.460144,151.9598389 408.9186401,151.9598389 413.1241455,151.9598389 		"/>
	</g>
	<path fill="none" stroke="#565440" d="M363.5765381,92.9876556c1.5420837,0,2.8036804,0.2804718,4.2055054,0.8411484
		c1.4018555,0.5606766,2.6635742,1.4018173,3.6448364,2.3830719c1.121521,0.9813766,1.9626465,2.2430115,2.5233459,3.6448288
		c0.5606689,1.401825,0.841156,2.803688,0.841156,4.3457489h-11.2148132 M363.5765381,129.1821594
		c1.5420837,0,2.8036804-0.2804718,4.2056274-0.841156c1.4018555-0.5606766,2.6635742-1.4018173,3.6448364-2.3830719
		c1.121521-0.9813766,1.9626465-2.2430115,2.5233459-3.6448364c0.5606689-1.4018173,0.841156-2.803688,0.841156-4.3457413
		h-11.2148132 M356.4599609,151.9598541c0,1.822403-0.4205933,3.5046082-1.121521,5.1868896
		c-0.7008972,1.6823425-1.6821594,3.364502-3.0839844,4.6260834c-1.2617493,1.2617188-2.8036804,2.3830719-4.4859924,3.0841675
		c-1.6821899,0.7009125-3.5045776,1.1214752-5.3269958,1.1214752v-14.0184784"/>
</g>
<g>
	<path fill="none" stroke="#565440" d="M313.5923767,30.6993217v2.1027565l-70.7937927,0.0000229v-2.1027565L313.5923767,30.6993217z
		"/>
	<g>
		<polygon fill="#565440" points="264.5273438,92.6310425 265.9293213,92.6310425 265.9293213,37.0077515 272.9386597,37.0077515
			272.9386597,29.9984131 263.1254883,29.9984131 263.1254883,37.0077515 264.5273438,37.0077515 		"/>
		<polygon fill="#565440" points="218.2662354,118.6682739 244.3743896,118.6682739 244.3743896,117.2664185 218.2662354,117.2664185
			218.2662354,38.4025269 243.4995728,38.4025269 243.4995728,29.9984131 214.0606079,29.9984131 214.0606079,151.9598999
			245.3741455,151.9598999 245.3741455,147.7542114 218.2662354,147.7542114 		"/>
		<polygon fill="#565440" points="314.9942017,29.9984131 310.7886963,29.9984131 292.5645752,29.9984131 292.5645752,38.4025269
			310.7886963,38.4025269 310.7887573,114.868103 265.9293213,114.868103 265.9293213,103.8458862 264.5273438,103.8458862
			264.5273438,117.9673462 265.9293213,117.9673462 265.9293213,116.2699585 310.7887573,116.2698975 310.7887573,147.7542114
			265.9293213,147.7542114 265.9293213,129.1821289 264.5275269,129.1821289 264.5275269,147.7542114 259.3926392,147.7542114
			259.3926392,151.9598999 314.9942627,151.9598389 		"/>
	</g>
	<path fill="none" stroke="#565440" d="M265.9293213,92.631073c1.5420532,0,2.8036804,0.2804565,4.2055054,0.8411407
		c1.401825,0.5606689,2.6636047,1.401825,3.6448364,2.3830719c1.1214905,0.981369,1.962677,2.2430115,2.5233459,3.6448212
		c0.5606995,1.401825,0.841156,2.8036957,0.841156,4.3457489h-11.2148438 M265.9292603,129.1821594
		c1.5420532,0,2.8036804-0.2804718,4.2056274-0.8411407c1.401947-0.5606918,2.6634216-1.4018326,3.6448364-2.3830872
		c1.1214905-0.9813766,1.962677-2.2430115,2.5233459-3.6448288c0.5608215-1.401825,0.841156-2.803688,0.841156-4.3457489
		l-11.2148438,0.0000076 M259.3927612,151.9598846c0,1.822403-0.4205933,3.5046082-1.1214905,5.1868896
		c-0.7008972,1.6823425-1.6823425,3.364502-3.0841522,4.6260834c-1.2616882,1.2617188-2.8036804,2.3830872-4.4859619,3.0841675
		c-1.6823273,0.7009125-3.5045929,1.1214752-5.3269958,1.1214752V151.960022"/>
</g>
<g>
	<rect x="355" y="-0.0001" fill="none" width="10" height="10"/>
	<rect x="34.0490799" y="235" fill="none" width="10" height="10"/>
	<rect x="355" y="469.9999084" fill="none" width="10" height="10"/>
	<rect x="676.3088989" y="235" fill="none" width="10" height="10"/>
</g>
<g>
	<polygon data-nr="2" class="plan__svg__hoverable" fill="none" points="218.2662964,151.9598999 218.2662354,29.9984131 214.0606079,29.9984131
		204.2475586,29.9984131 204.2475586,30.1992188 183.2197876,30.1992188 183.2197876,29.9984131 173.4068604,29.9984131
		173.4068604,30.1992188 153.7808228,30.1992188 153.7808228,29.9984131 114.5287476,29.9984741 114.5287476,30.1992188
		94.902771,30.1992188 94.902771,29.9984131 85.0898438,29.9984131 85.0898438,30.1992188 64.2626953,30.1992188
		64.2628174,62.2410889 64.0620117,62.2410889 64.0620117,72.0540771 64.0620117,101.4931641 64.2630005,101.4931641
		64.2630615,121.1191406 64.0620117,121.1191406 64.0620728,151.9599609 64.7630005,151.9599609 64.7630005,151.9599609
		215.5234375,151.9599609 215.5234375,151.9598999 	"/>
	<polygon data-nr="1" class="plan__svg__hoverable" fill="none" points="264.5273438,184.2026367 257.5181885,184.2026367 218.2662964,184.2026367
		218.2662964,174.3895264 214.0606079,174.3895264 195.8364868,174.3895264 195.8364868,167.3803101 195.8364868,153.3617554
		195.8364868,151.9598999 195.8364868,150.8220825 195.8364868,147.7542114 64.0620117,147.7542725 64.0620728,151.9599609
		64.0620728,160.3710938 64.2631836,160.3710938 64.2631836,181.3988647 64.0620728,181.3988647 64.0620728,210.8378296
		64.0620728,220.6508179 64.2631836,220.6508179 64.2631836,254.0947266 85.0899048,254.0947266 85.0899048,254.2954712
		94.902832,254.2954712 94.902832,254.0947266 121.538147,254.0947266 121.538147,254.2954102 160.7902222,254.2953491
		160.7902222,254.0947266 174.8087158,254.0947266 174.8087158,254.2954102 184.6217041,254.2954102 184.6217041,254.0947266
		204.2476196,254.0947266 204.2476196,254.2953491 264.5274048,254.2953491 264.5274048,244.4823608 	"/>
	<path data-nr="10" class="plan__svg__hoverable" fill="none" d="M322.5039063,329.3310547c0-1.7880859-0.4008789-3.6972656-1.1601563-5.5195313
		c-0.6806641-1.6318359-1.7841797-3.2392578-3.1738281-4.6269531c-1.1557617-1.2851563-2.7729492-2.3652344-4.8056641-3.2119141
		c-1.802002-0.7505493-3.6102905-1.1341553-5.3792114-1.1529541v-18.4686279H191.6310425v14.4594116l-0.8411865,3.4842529
		l1.347229,0.3024292l-5.0340576,21.815918l0.2225342,0.0445557l-0.7412109,3.0705566l5.0466919,1.1329346v18.7733765h2.0653687
		l-7.9942627,34.875061l0.1571045,0.0314331l-0.6766968,2.8035278l6.4485474,1.4476929v16.9165649h0.197998l-5.4179688,27.1953125
		l1.4648438,0.2080078l26.0076904,5.8855591l-0.0484009,0.2155762l4.0653687,0.9813232l1.4477539-6.4485474h18.6209106
		l23.7611694,6.1737061l0.0448608-0.1726074l1.8533936,0.4473877l1.4476929-6.4484863h15.3120117l3.4846802,0.8409424
		l0.0557861-0.2483521l21.5237427,5.5918579l0.026062-0.1002808l1.5250854,0.368103l0.9812622-4.0654297V329.8310547h14.5188599
		V329.3310547z M307.8500977,328.8310547v0.5002441h-0.000061v-14.017334h0.000061V315.8125
		c1.6787109,0,3.4042969,0.3642578,5.1298828,1.0839844c1.8950195,0.7880859,3.3911133,1.7832031,4.4648438,2.9755859
		c1.3164063,1.3164063,2.3452148,2.8115234,2.9760742,4.3242188c0.6376953,1.53125,1.0048828,3.1230469,1.0717773,4.6347656
		H307.8500977z"/>
	<path data-nr="9" class="plan__svg__hoverable" fill="none" d="M406.1149902,335.6029663h-4.2056274h-26.1349487v-14.5189819h-0.5
		c-1.7900391,0-3.6982422,0.4013672-5.5195313,1.1601563c-1.6328125,0.6806641-3.2392578,1.7841797-4.6289063,3.1738281
		c-1.2832031,1.15625-2.3632813,2.7724609-3.2109375,4.8056641c-0.7712402,1.8504028-1.1472168,3.611145-1.1558838,5.3793335
		l-52.7741089,0.000061h-4.2055054v109.9295654l-0.8411865,3.4844971l4.0654297,0.9812012l0.9812622-4.0654297v-2.3868408
		h22.0354614l23.746582,6.1697998l0.0263062-0.1013794l1.5744019,0.3800659l1.4476929-6.4485474h2.5526733v0.0009766h11.4433594
		l4.8598633,1.1217041l0.1434326-0.638916l21.9273682,5.6968384l0.1240845-0.4776001l3.0883789,0.7455444l1.4476929-6.4485474
		h3.7127075L406.1149902,335.6029663z M362.8388672,330.6083984c0.7890625-1.8955078,1.7841797-3.3916016,2.9755859-4.4648438
		c1.3164063-1.3164063,2.8125-2.3457031,4.3251953-2.9755859c1.5302734-0.6386719,3.1220703-1.0058594,4.6347656-1.0732422
		v13.5703125h-13.0185547C361.7558594,334.0107422,362.1103516,332.3564453,362.8388672,330.6083984z"/>
	<path data-nr="8" class="plan__svg__hoverable" fill="none" d="M504.244873,433.7328491v-98.1299438l-33.1442871,0.000061v-14.5189819h-0.5
		c-1.7890625,0-3.6972656,0.4013672-5.5195313,1.1601563c-1.6337891,0.6816406-3.2412109,1.7851563-4.6269531,3.1738281
		c-1.2841797,1.1552734-2.3652344,2.7724609-3.2128906,4.8056641c-0.7524414,1.8085327-1.1357422,3.616394-1.15271,5.3793335
		h-52.2173462h-1.961792l0.000061,107.9429932l16.2339478-0.0053101v-0.0047607h3.3977661v-0.0228882l23.8543701,6.197937
		l0.1229248-0.4737549l1.373291,0.3314819l1.3531494-6.0280762h13.3948975l4.8598633,1.12146l0.1775513-0.7910156
		l22.6528931,5.8545532l0.1133423-0.4358521l2.8968506,0.6992798l1.4476929-6.4484253l10.4569092,0.0053711v-0.0053711h0.0049438
		v-9.8077393H504.244873z M458.1650391,330.6083984c0.7890625-1.8955078,1.7841797-3.3916016,2.9765625-4.4648438
		c1.3144531-1.3154297,2.8095703-2.3447266,4.3242188-2.9755859c1.53125-0.6386719,3.1230469-1.0058594,4.6347656-1.0732422
		v13.5082397H457.088562C457.1055908,333.9724731,457.463501,332.2936401,458.1650391,330.6083984z"/>
	<polygon data-nr="7" class="plan__svg__hoverable" fill="none" points="655.505188,410.1816406 648.6361084,408.6204834 648.6361084,395.8826294
		648.6361084,369.932312 654.8447266,342.7832031 654.6699219,342.74823 654.8042603,342.1916504 648.6360474,340.7402344
		648.6360474,339.8084106 648.6360474,335.6029053 519.6652832,335.6029053 519.6652832,335.6029663 505.6466675,335.6029663
		505.6466675,335.6029053 504.244873,335.6029053 500.0393677,335.6029663 500.0393677,443.5459595 512.5390015,443.5459595
		537.8583984,449.3339844 537.8600464,449.3258667 538.887085,449.5737915 540.2402344,443.5458984 553.1749268,443.5458984
		558.03479,444.6673584 558.1745605,444.0448608 579.6192017,448.946106 582.2197876,449.5737915 583.5731201,443.5458984
		602.4355469,443.5458984 602.4355469,443.765625 629.234375,443.765625 647.0478516,447.7871094 655.1181641,413.1972656
		654.8458862,413.1188965 	"/>
	<polygon data-nr="6" class="plan__svg__hoverable" fill="none" points="652.8765869,305.5788574 647.2342529,304.2767944 647.2341919,265.7905273
		649.4771729,260.1830444 649.03125,260.0078735 656.2958984,232.7675781 627.6082153,232.7675781 627.6082153,231.8656006
		626.2062378,231.8656006 626.2062378,227.6599731 622.0007324,227.6599731 622.0007324,231.8656006 605.1784668,231.8656006
		605.1784668,227.6599731 600.9729614,227.6599731 600.9729614,231.8656006 584.1506348,231.8656006 584.1506348,227.6599731
		579.9450073,227.6599731 579.9450073,231.8656006 561.7208862,231.8656006 561.7208862,227.6599731 557.5153809,227.6599731
		557.5153809,231.8656006 557.5153809,232.7675781 540.6930542,232.7675781 540.6930542,227.6599731 536.4875488,227.6599731
		536.4875488,232.7675781 519.6654053,232.7675781 519.6654053,227.6602783 515.4598999,227.6602783 515.4598999,231.8657837
		497.2357788,231.8657837 497.2357788,227.6602783 493.0301514,227.6602783 493.0301514,231.8657837 456.5820313,231.8655396
		456.5820313,303.3604736 498.6374512,303.3604736 498.6374512,307.565979 498.6375122,311.7714844 521.0671387,311.7714844
		521.0671387,318.7808228 521.0671387,332.7991333 521.0671387,334.0797729 521.0671387,335.6029053 521.0671387,339.8084106
		648.6360474,339.8084106 648.6360474,333.434021 654.96875,305.9960938 	"/>
	<path data-nr="5" class="plan__svg__hoverable" fill="none" d="M529.4782715,151.9597778h-0.1994629l-0.0002441-21.027771h0.199646V91.6800537
		h-0.2001343l-0.0002441-19.6260986h0.2003784v-9.8129883H529.27771l-0.0003662-32.041748h-20.8269653v-0.2008667h-9.8129883
		v0.2008667h-19.6259766v-0.2008667h-9.8131104v0.2008667h-19.6259766v-0.2008667h-9.8129883v0.2008667h-19.6259766v-0.2008667
		h-11.2147827l0.000061,127.526062h-14.5182495v0.5c0,1.7905273,0.4013672,3.6992188,1.1591797,5.5195313
		c0.6806641,1.6323242,1.7841797,3.2392578,3.1738281,4.6279297c1.1552734,1.2832031,2.7724609,2.3637695,4.8056641,3.2109375
		c1.899292,0.7914429,3.6082153,1.1601563,5.3795776,1.1601563v17.2669067h99.5317993v-0.2009888h20.3289185h0.499939
		l-0.0003662-27.8361206h0.1993408V151.9597778z M399.4589844,167.4838867
		c-1.3164063-1.3164063-2.3457031-2.8120117-2.9755859-4.324707c-0.6376953-1.5297852-1.0048828-3.121582-1.0722656-4.6347656
		h13.5078125v13.0185547c-1.6347656,0-3.2216797-0.3442383-4.9951172-1.0830078
		C402.0283203,169.6699219,400.5322266,168.675293,399.4589844,167.4838867z"/>
	<path data-nr="4" class="plan__svg__hoverable" fill="none" d="M413.1241455,151.9598389l-0.000061-121.9614868h-4.2055054v0.2008667H390.694458
		v-0.2008667h-9.8129883v0.2008667h-19.6259766v-0.2008667h-9.8129883v0.2008667h-19.6259766v-0.2008667l-21.027832,0.000061
		l0.000061,121.9614258h2.6038818v0.0001221h28.5487671v14.5185547h0.5c1.7900391,0,3.6987305-0.4013672,5.5195313-1.1601563
		c1.6323242-0.6801758,3.2392578-1.7841797,4.6279297-3.1738281c1.2836914-1.1552734,2.3642578-2.7719727,3.2109375-4.8051758
		c0.7915039-1.8994141,1.1601563-3.6083984,1.1601563-5.3793945h10.395874l0.0026855-0.0001221h41.5601196H413.1241455z
		 M354.8769531,156.9545898c-0.7895508,1.8950195-1.7841797,3.3911133-2.9760742,4.4648438
		c-1.3164063,1.3164063-2.8120117,2.3452148-4.324707,2.9760742c-1.5302734,0.6376953-3.1220703,1.0048828-4.6347656,1.0717773
		v-13.5073242h13.0185547C355.9599609,153.5942383,355.6157227,155.1811523,354.8769531,156.9545898z"/>


	<polygon data-nr="3" class="plan__svg__hoverable" fill="none" points="245.3741455,151.9598389 259.3926392,151.9598389 259.3926392,151.9598999 314.9942627,151.9598389
		314.9942017,29.9984131 310.7886963,29.9984131 292.5645752,29.9984131 292.5645752,30.1992188 272.9386597,30.1992188
			272.9386597,29.9984131 263.1254883,29.9984131 263.1254883,30.1992188 243.4995728,30.1992188 243.4995728,29.9984131
			214.0606079,29.9984131 214.0606079,151.9598999 218.2662964,151.9598999 245.3741455,151.9598999 		"/>
	<g>
		<path fill="none" d="M257.8100586,156.9545898c-0.7900391,1.8955078-1.7851563,3.3916016-2.9765625,4.4648438
			c-1.3164063,1.3164063-2.8120117,2.3452148-4.324707,2.9760742c-1.5302734,0.6376953-3.1220703,1.0048828-4.6347656,1.0717773
			v-13.5073242h-1v14.5185547h0.5c1.7900391,0,3.6987305-0.4013672,5.5195313-1.1601563
			c1.6323242-0.6801758,3.2392578-1.7841797,4.6279297-3.1738281c1.2832031-1.1552734,2.3637695-2.7719727,3.2114258-4.8051758
			c0.7910156-1.8999023,1.159668-3.6088867,1.159668-5.3793945h-1
			C258.8925781,153.59375,258.5483398,155.1811523,257.8100586,156.9545898z"/>
	</g>
</g>
</svg>
