<!-- DO NOT EDIT THIS, THIS FILE IS GENERATED FROM "2_24.original.svg" using transform-svgs.js script -->



<svg version="1.1" 
	 xmlns="http://www.w3.org/2000/svg" xmlns:xlink="http://www.w3.org/1999/xlink" x="0px" y="0px" viewBox="0 0 720 480"
	 style="enable-background:new 0 0 720 480;" xml:space="preserve">


<g>
	<path fill="#DBD4CA" d="M265.5182,449.1875l1.3955-6.28l15.9187-0.2954l23.5939,6.8009l2.3535-5.1098v-1.3955h20.2354
		l25.8174,6.2798l2.791-6.28h15.351l27.9107,6.2799l2.7911-6.28h16.674l23.414,5.5115l5.1275-5.5115h17.1154l23.5501,5.7658
		l4.8291-5.7658h6.9777v0.0002h11.862l25.1198,5.5821l1.3955-5.5821h15.351l25.8175,5.5821l1.3954-5.5821l47.0296,0l17.1652,4.1865
		l8.3732-36.284l-6.9777-1.3955v-39.075l6.28-27.213l-6.28-1.3955c0-1.7757,0-5.9458,0-7.6754l5.5822-25.1198l-6.9777-4.1865
		v-37.7379l8.9293-32.8763l-176.4888,0.147v-44.1064l45.6898,0l-0.2002-154.5635c0,0-404.5497,0.0251-453.437,0
		c0,0,0.0001,213.8478,0.0001,213.8478l90.2564,0.2423l0.0182,4.0633h79.3301l0,44.046l-46.2522-0.04l0.6978,17.4441l-5.5822,24.422
		l4.8845,1.3955l1.6745,18.7003l-7.6753,35.5733l6.0007,3.6413l0,13.8158l-5.7216,29.7249l30.8414,6.6985l1.3955-6.28h17.4442
		L265.5182,449.1875z"/>
	<g>
		<rect x="239.7008" y="254.6193" fill="#565440" width="4.1866" height="42.5639"/>
		<rect x="457.4047" y="189.8588" fill="#565440" width="4.1863" height="44.7331"/>
		<rect x="478.3374" y="189.8588" fill="#565440" width="1.3958" height="44.7331"/>
	</g>
</g>
<g>
	<g>
		<rect x="160.8464" y="251.6725" fill="none" stroke="#565440" width="45.2552" height="2.0933"/>
		<polygon fill="none" stroke="#565440" points="264.8202,59.663 264.8202,57.5697 94.7637,57.5697 92.6705,57.5697 92.6705,59.663 92.6705,226.8668
			92.6705,228.0031 92.6705,228.9601 108.2147,228.9601 108.2147,226.8668 94.7637,226.8668 94.7637,59.663 		"/>
		<polygon fill="none" stroke="#565440" points="70.9932,35.6124 70.9932,249.4052 71.7294,249.4052 73.0865,249.4052 122.0681,249.4052
			122.0681,247.3118 73.0865,247.3118 73.0864,37.7056 266.2157,37.7056 266.2157,37.7056 266.2157,35.6123 		"/>
	</g>
	<g>
		<polygon fill="#565440" points="219.8248,139.3635 217.0337,139.3635 217.0337,131.6865 215.6381,131.6865 215.6381,158.3498
			219.8248,158.3498 219.8248,151.3495 268.3091,151.3497 268.309,32.5892 264.1224,32.5892 264.1224,116.2412 256.0013,116.2412
			256.0013,117.6368 264.1224,117.6368 264.1224,147.1628 236.907,147.1629 236.907,117.6368 245.9427,117.6368 245.9427,116.2412
			235.5115,116.2412 235.5115,147.1629 219.8248,147.1629 		"/>
		<polygon fill="#565440" points="166.1781,151.1666 166.1781,146.9799 92.4277,146.9799 92.4277,151.1666 127.931,151.1666
			127.931,178.6108 137.9257,178.6108 137.9257,177.2152 129.3265,177.2152 129.3265,151.1666 164.7825,151.1666 164.7825,177.2152
			148.0485,177.2152 148.0485,178.6108 160.5319,178.6108 160.5319,182.7866 161.9274,182.7866 161.9274,178.6108
			166.1781,178.6108 166.1781,177.2152 166.178,177.2152 166.178,151.1666 		"/>
		<polygon fill="#565440" points="83.3629,40.2577 99.9077,40.2577 99.9077,39.2889 101.7991,39.2889 101.7991,36.5956
			99.9077,36.5956 99.9077,35.6123 101.7991,35.6123 101.7991,32.919 99.9077,32.919 99.9077,31.8915 98.4968,31.8915 98.4968,30
			95.8035,30 95.8035,31.8915 94.8203,31.8915 94.8203,30 92.1269,30 92.1269,31.8915 91.1436,31.8915 91.1436,30 88.4503,30
			88.4503,31.8915 87.467,31.8915 87.467,30 84.7737,30 84.7737,31.8915 83.3629,31.8915 83.3629,32.919 81.4714,32.919
			81.4714,35.6123 83.3629,35.6123 83.3629,36.5956 81.4714,36.5956 81.4714,39.2889 83.3629,39.2889 		"/>
		<polygon fill="#565440" points="73.0761,57.9445 70.3828,57.9445 70.3828,59.836 69.3995,59.836 69.3995,57.9445 66.7062,57.9445
			66.7062,59.836 65.6786,59.836 65.6786,61.2468 63.7872,61.2468 63.7872,63.9401 65.6786,63.9401 65.6786,64.9234
			63.7872,64.9234 63.7872,67.6168 65.6786,67.6168 65.6786,68.6 63.7872,68.6 63.7872,71.2933 65.6786,71.2933 65.6786,72.2766
			63.7872,72.2766 63.7872,74.97 65.6786,74.97 65.6786,76.3807 66.7062,76.3807 66.7062,78.2722 69.3995,78.2722 69.3995,76.3807
			70.3828,76.3807 70.3828,78.2722 73.0761,78.2722 73.0761,76.3807 74.0449,76.3807 74.0449,59.836 73.0761,59.836 		"/>
		<polygon fill="#565440" points="73.0761,205.5251 70.3828,205.5251 70.3828,207.4166 69.3995,207.4166 69.3995,205.5251
			66.7062,205.5251 66.7062,207.4166 65.6786,207.4166 65.6786,208.8273 63.7872,208.8273 63.7872,211.5207 65.6786,211.5207
			65.6786,212.504 63.7872,212.504 63.7872,215.1973 65.6786,215.1973 65.6786,216.1805 63.7872,216.1805 63.7872,218.8739
			65.6786,218.8739 65.6786,219.8572 63.7872,219.8572 63.7872,222.5505 65.6786,222.5505 65.6786,223.9612 66.7062,223.9612
			66.7062,225.8528 69.3995,225.8528 69.3995,223.9612 70.3828,223.9612 70.3828,225.8528 73.0761,225.8528 73.0761,223.9612
			74.0449,223.9612 74.0449,207.4166 73.0761,207.4166 		"/>
		<polygon fill="#565440" points="100.0542,246.8116 83.5095,246.8116 83.5095,247.7805 81.618,247.7805 81.618,250.4738
			83.5095,250.4738 83.5095,251.4571 81.618,251.4571 81.618,254.1504 83.5095,254.1504 83.5095,255.1779 84.9203,255.1779
			84.9203,257.0694 87.6136,257.0694 87.6136,255.1779 88.5969,255.1779 88.5969,257.0694 91.2902,257.0694 91.2902,255.1779
			92.2735,255.1779 92.2735,257.0694 94.9668,257.0694 94.9668,255.1779 95.9501,255.1779 95.9501,257.0694 98.6434,257.0694
			98.6434,255.1779 100.0542,255.1779 100.0542,254.1504 101.9457,254.1504 101.9457,251.4571 100.0542,251.4571 100.0542,250.4738
			101.9457,250.4738 101.9457,247.7805 100.0542,247.7805 		"/>
		<polygon fill="#565440" points="184.9214,246.8116 175.2495,246.8116 175.2495,255.1778 176.9005,255.1778 176.9005,257.0693
			179.5938,257.0693 179.5938,255.1778 180.5771,255.1778 180.5771,257.0693 183.2704,257.0693 183.2704,255.1778
			184.9214,255.1778 		"/>
		<polygon fill="#565440" points="128.1585,40.2577 147.1583,40.2577 147.1583,39.2889 149.0498,39.2889 149.0498,36.5956
			147.1583,36.5956 147.1583,35.6123 149.0498,35.6123 149.0498,32.919 147.1583,32.919 147.1583,31.8915 146.3583,31.8915
			146.3583,30 143.665,30 143.665,31.8915 142.6817,31.8915 142.6817,30 139.9883,30 139.9883,31.8915 139.0051,31.8915
			139.0051,30 136.3118,30 136.3118,31.8915 135.3285,31.8915 135.3285,30 132.6351,30 132.6351,31.8915 131.6519,31.8915
			131.6519,30 128.9586,30 128.9586,31.8915 128.1585,31.8915 128.1585,32.919 126.267,32.919 126.267,35.6123 128.1585,35.6123
			128.1585,36.5956 126.267,36.5956 126.267,39.2889 128.1585,39.2889 		"/>
		<polygon fill="#565440" points="73.0761,133.5512 70.3828,133.5512 70.3828,135.4427 69.3995,135.4427 69.3995,133.5512
			66.7062,133.5512 66.7062,135.4427 65.6786,135.4427 65.6786,136.2427 63.7872,136.2427 63.7872,138.9361 65.6786,138.9361
			65.6786,139.9194 63.7872,139.9194 63.7872,142.6127 65.6786,142.6127 65.6786,143.5959 63.7872,143.5959 63.7872,146.2893
			65.6786,146.2893 65.6786,147.2726 63.7872,147.2726 63.7872,149.9659 65.6786,149.9659 65.6786,150.9492 63.7872,150.9492
			63.7872,153.6425 65.6786,153.6425 65.6786,154.4426 66.7062,154.4426 66.7062,156.334 69.3995,156.334 69.3995,154.4426
			70.3828,154.4426 70.3828,156.334 73.0761,156.334 73.0761,154.4426 74.0449,154.4426 74.0449,135.4427 73.0761,135.4427 		"/>
		<polygon fill="#565440" points="211.8715,40.2577 230.8713,40.2577 230.8713,39.2889 232.7628,39.2889 232.7628,36.5956
			230.8713,36.5956 230.8713,35.6123 232.7628,35.6123 232.7628,32.919 230.8713,32.919 230.8713,31.8915 230.0713,31.8915
			230.0713,30 227.3779,30 227.3779,31.8915 226.3947,31.8915 226.3947,30 223.7014,30 223.7014,31.8915 222.7181,31.8915
			222.7181,30 220.0247,30 220.0247,31.8915 219.0414,31.8915 219.0414,30 216.3481,30 216.3481,31.8915 215.3649,31.8915
			215.3649,30 212.6715,30 212.6715,31.8915 211.8715,31.8915 211.8715,32.919 209.98,32.919 209.98,35.6123 211.8715,35.6123
			211.8715,36.5956 209.98,36.5956 209.98,39.2889 211.8715,39.2889 		"/>
		<polygon fill="#565440" points="161.9274,192.9341 160.5319,192.9341 160.5319,196.528 147.9111,196.528 147.9111,197.9235
			160.5317,197.9235 160.5317,221.8184 129.3265,221.8184 129.3265,197.9235 139.4326,197.9235 139.4326,196.528 127.931,196.528
			127.931,221.8124 106.7101,221.8124 106.7101,230.1786 120.9603,230.1786 120.9603,255.1779 124.5516,255.1779 124.5516,257.0693
			127.2449,257.0693 127.2449,255.1779 128.2282,255.1779 128.2282,257.0693 130.9216,257.0693 130.9216,255.1779
			131.9048,255.1779 131.9048,257.0693 134.5981,257.0693 134.5981,255.1779 135.5814,255.1779 135.5814,257.0693
			138.2748,257.0693 138.2748,255.1779 139.2581,255.1779 139.2581,257.0693 141.9514,257.0693 141.9514,255.1779
			142.9346,255.1779 142.9346,257.0693 145.628,257.0693 145.628,255.1779 146.6113,255.1779 146.6113,257.0693 149.3046,257.0693
			149.3046,255.1779 150.2878,255.1779 150.2878,257.0693 152.9812,257.0693 152.9812,255.1779 153.9645,255.1779
			153.9645,257.0693 156.6578,257.0693 156.6578,255.1779 157.6411,255.1779 157.6411,257.0693 160.3344,257.0693
			160.3344,255.1779 161.9273,255.1779 161.9273,255.1774 161.9274,255.1774 161.9274,242.3695 160.5317,242.3695
			160.5317,246.8113 129.3265,246.8116 129.3265,223.2139 160.5317,223.2139 160.5317,232.2467 161.9274,232.2467
			161.9274,197.9235 167.5522,197.9235 167.5522,196.528 161.9274,196.528 		"/>
		<polygon fill="#565440" points="219.8248,184.0981 219.8248,172.2195 215.6381,172.2195 215.6381,186.8892 179.9089,186.8892
			179.9089,187.1976 179.9088,187.1976 179.9088,196.528 177.9194,196.528 177.9194,197.9235 181.3043,197.9235 181.3043,188.2847
			215.6381,188.2847 215.6381,188.2848 228.9825,188.2848 228.9825,222.9941 230.3782,222.9941 230.3782,188.2848
			259.2382,188.2848 259.2382,246.8117 230.3782,246.8117 230.3782,233.1169 228.9826,233.1169 228.9826,246.8117
			205.1006,246.8117 205.1006,255.1779 206.5117,255.1779 206.5117,257.0693 209.205,257.0693 209.205,255.1779 210.1883,255.1779
			210.1883,257.0693 212.8817,257.0693 212.8817,255.1779 213.8649,255.1779 213.8649,257.0693 216.5582,257.0693
			216.5582,255.1779 217.5415,255.1779 217.5415,257.0693 220.2349,257.0693 220.2349,255.1779 221.2181,255.1779
			221.2181,257.0693 223.9114,257.0693 223.9114,255.1779 224.8947,255.1779 224.8947,257.0693 227.5881,257.0693
			227.5881,255.1779 228.5714,255.1779 228.5714,257.0693 231.2646,257.0693 231.2646,255.1779 232.2479,255.1779
			232.2479,257.0693 234.9413,257.0693 234.9413,255.1779 235.9246,255.1779 235.9246,257.0693 238.6179,257.0693
			238.6179,255.1779 239.6011,255.1779 239.6011,257.0693 242.2945,257.0693 242.2945,255.1779 266.2156,255.1779 266.2158,184.098
			266.2157,184.098 		"/>
		<polygon fill="#565440" points="162.3855,135.1779 162.3855,119.1992 215.6381,119.1992 215.6381,121.6279 217.0337,121.6279
			217.0337,117.8536 219.8248,117.8536 219.8247,57.0797 215.6381,57.0797 215.6381,117.8037 162.3855,117.8037 161.1935,117.8037
			160.99,117.8037 160.99,133.7824 152.6764,133.7824 152.6764,135.1779 		"/>
	</g>
	<g>
		<g>
			<path fill="none" stroke="#565440" d="M219.8248,172.2195c1.9071,0,3.4674-0.3467,5.2012-1.0403c1.7339-0.6936,3.2939-1.7337,4.5077-2.9472
				c1.387-1.2137,2.4273-2.774,3.1207-4.5077c0.6936-1.7337,1.0403-3.4674,1.0403-5.3745l-13.8698,0"/>
		</g>
		<g>
			<path fill="none" stroke="#565440" d="M217.0337,121.6279c1.3831,0,2.5146,0.2514,3.772,0.7544c1.2574,0.503,2.3888,1.2573,3.2691,2.1374
				c1.0059,0.8802,1.7603,2.0118,2.2632,3.2691c0.503,1.2573,0.7544,2.5146,0.7544,3.8977l-10.0586,0"/>
		</g>
		<g>
			<path fill="none" stroke="#565440" d="M245.9427,116.2412c0-1.3831,0.2514-2.5146,0.7544-3.772s1.2573-2.3888,2.1374-3.2691
				c0.8802-1.0059,2.0118-1.7603,3.2691-2.2632c1.2573-0.503,2.5146-0.7544,3.8977-0.7544v10.0586"/>
		</g>
		<g>
			<path fill="none" stroke="#565440" d="M148.0485,178.6107c0,1.3919-0.253,2.5307-0.7592,3.7961s-1.2653,2.4041-2.151,3.2899
				c-0.8858,1.0123-2.0246,1.7716-3.2899,2.2776c-1.2653,0.5062-2.5307,0.7592-3.9226,0.7592l0-10.1228"/>
		</g>
		<g>
			<path fill="none" stroke="#565440" d="M167.5523,196.5753c0-1.3919,0.2531-2.5307,0.7592-3.7961s1.2653-2.4041,2.151-3.2899
				c0.8858-1.0123,2.0246-1.7716,3.2899-2.2777c1.2653-0.5062,2.5307-0.7592,3.9226-0.7592l0,10.1228"/>
		</g>
		<g>
			<path fill="none" stroke="#565440" d="M160.5319,192.9094c-1.3919,0-2.5307-0.2531-3.7961-0.7592s-2.4041-1.2653-3.2899-2.151
				c-1.0123-0.8858-1.7716-2.0246-2.2776-3.2899c-0.5062-1.2653-0.7592-2.5307-0.7592-3.9226h10.1229"/>
		</g>
		<g>
			<path fill="none" stroke="#565440" d="M161.9273,232.2467c1.3919,0,2.5307,0.2531,3.7961,0.7592c1.2655,0.5062,2.4041,1.2653,3.2899,2.151
				c1.0123,0.8858,1.7716,2.0246,2.2776,3.2899c0.5062,1.2653,0.7592,2.5307,0.7592,3.9226h-10.1229"/>
		</g>
		<g>
			<path fill="none" stroke="#565440" d="M230.3782,233.1169c1.3919,0,2.5307-0.253,3.7961-0.7592s2.4041-1.2653,3.2899-2.151
				c1.0123-0.8858,1.7716-2.0246,2.2776-3.2899c0.5062-1.2653,0.7592-2.5307,0.7592-3.9226l-10.1228,0"/>
		</g>
	</g>
</g>
<g>
	<g>
		<path fill="none" stroke="#565440" d="M196.8577,315.1857l-5.0239,21.7704l-2.0933-0.4186l5.0239-21.7704L196.8577,315.1857z"/>
		<path fill="none" stroke="#565440" d="M198.5323,359.2846l-8.094,35.307l-2.0932-0.4186l8.094-35.3071L198.5323,359.2846z"/>
		<polygon fill="none" stroke="#565440" points="216.5348,448.4594 217.093,446.3661 191.5547,440.6443 198.1138,407.0119 196.1599,406.5933
			189.0428,442.3191 		"/>

			<rect x="250.1317" y="432.3774" transform="matrix(0.2515 -0.9679 0.9679 0.2515 -242.6334 576.1484)" fill="none" stroke="#565440" stroke-width="1" stroke-miterlimit="4.0002" width="2.0904" height="25.1302"/>

			<rect x="294.7365" y="433.7857" transform="matrix(0.2515 -0.9679 0.9679 0.2515 -209.5288 619.5381)" fill="none" stroke="#565440" stroke-width="1" stroke-miterlimit="4.0002" width="2.0904" height="22.8974"/>

			<rect x="341.753" y="432.3734" transform="matrix(0.2515 -0.9679 0.9679 0.2515 -174.0501 664.8218)" fill="none" stroke="#565440" stroke-width="1" stroke-miterlimit="4.0002" width="2.0903" height="25.1302"/>
	</g>
	<g>
		<polygon fill="#565440" points="200.6257,312.3945 200.6257,304.0212 305.291,304.0212 305.291,313.0556 309.4775,313.0556
			309.4775,297.0436 193.6479,297.0436 193.6479,311.4379 192.8106,314.9064 199.6487,316.4416 		"/>
		<polygon fill="#565440" points="193.6479,359.8427 202.0014,359.8427 202.0013,337.5142 196.439,337.5142 189.601,335.9792
			188.624,340.0261 193.6479,341.1539 		"/>
		<polygon fill="#565440" points="194.4216,394.7312 188.2054,393.3357 187.2286,397.3828 193.648,398.8239 193.648,415.6642
			202.0014,415.6642 202.0013,394.7312 		"/>
		<polygon fill="#565440" points="217.1478,442.8014 215.7521,449.0177 219.7992,449.9946 221.2404,443.5751 240.642,443.5751
			240.642,435.1987 217.1478,435.1987 		"/>
		<polygon fill="#565440" points="282.9625,436.5973 262.6696,436.5973 262.6696,442.8013 261.2741,449.0176 265.3212,449.9945
			266.7623,443.5751 282.0053,443.5751 285.4743,444.4122 287.0096,437.5742 282.9625,436.6298 		"/>
		<polygon fill="#565440" points="253.6561,376.5892 253.6561,373.7982 198.8115,373.7982 195.0435,372.9608 194.7643,374.3564
			198.5323,375.1937 252.2605,375.1937 252.2605,376.5892 		"/>
		<polygon fill="#565440" points="263.0554,392.038 263.0554,390.6424 253.6561,390.6425 253.6561,387.7534 252.2605,387.7534
			252.2605,440.5048 251.4233,443.8541 252.8188,444.1332 253.6561,440.7839 253.6561,392.038 		"/>
		<polygon fill="#565440" points="309.4775,389.5864 305.291,389.5864 305.291,390.6423 274.4885,390.6424 274.4885,392.038
			305.291,392.038 305.291,445.5527 304.4536,449.0215 308.5007,449.9983 309.4775,445.9512 309.4775,443.5751 331.8063,443.5751
			331.8063,435.2089 309.4775,435.2089 		"/>
		<polygon fill="#565440" points="358.5067,336.1186 358.3082,336.1186 309.4775,336.1186 309.4775,327.0444 305.291,327.0444
			305.291,328.796 290.4009,328.796 290.4009,330.1915 305.291,330.1915 305.298,346.275 271.1002,346.275 271.1002,330.1916
			280.0124,330.1916 280.0124,328.796 269.7047,328.796 269.7047,375.7681 269.8162,375.7681 280.0124,375.7681 280.0124,374.3726
			271.1003,374.3726 271.1002,347.6705 305.298,347.6705 305.298,374.3725 290.4009,374.3726 290.4009,375.7681 305.298,375.7681
			305.298,379.0513 306.6936,379.0513 306.6936,368.9156 328.8771,368.9156 328.8771,367.5201 306.6936,367.5201 306.6935,340.3051
			354.3202,340.3051 354.3202,367.5201 338.9459,367.5201 338.9459,368.9156 354.3202,368.9156 354.3202,442.1794
			352.8016,449.0176 356.8484,449.9945 358.5099,442.2712 		"/>
	</g>
	<g>
		<path fill="none" stroke="#565440" d="M309.4775,327.0444c1.9235,0,3.4971-0.3497,5.2458-1.0492c1.7486-0.6995,3.3223-1.7485,4.5463-2.9727
			c1.3989-1.224,2.4481-2.7978,3.1474-4.5463s1.0492-3.4971,1.0492-5.4206h-13.9886"/>
		<path fill="none" stroke="#565440" d="M306.2953,390.2157c1.5351,0,2.791-0.2791,4.1867-0.8373c1.3955-0.5583,2.6515-1.3955,3.6284-2.3725
			c1.1165-0.9768,1.9538-2.2329,2.512-3.6284c0.5581-1.3955,0.8374-2.791,0.8374-4.3261h-11.1643"/>
		<path fill="none" stroke="#565440" d="M328.8771,367.5201c0-1.3845,0.2517-2.5172,0.7552-3.7758c0.5035-1.2586,1.2586-2.3914,2.1397-3.2724
			c0.881-1.0069,2.0138-1.7621,3.2724-2.2654c1.2586-0.5034,2.5172-0.7552,3.9016-0.7552l0,10.0688"/>
		<path fill="none" stroke="#565440" d="M280.0124,374.3725c0-1.4284,0.2597-2.5971,0.7792-3.8957c0.5195-1.2985,1.2985-2.4673,2.2076-3.3763
			c0.909-1.0388,2.0777-1.818,3.3763-2.3374s2.5971-0.7792,4.0255-0.7792v10.3884"/>
		<path fill="none" stroke="#565440" d="M290.4009,328.796c0-1.4284-0.2597-2.5971-0.7792-3.8957c-0.5195-1.2985-1.2985-2.4673-2.2076-3.3763
			c-0.909-1.0388-2.0777-1.818-3.3763-2.3374s-2.5971-0.7792-4.0255-0.7792v10.3884"/>
		<path fill="none" stroke="#565440" d="M274.4885,392.0379c0,1.5721-0.2858,2.8582-0.8575,4.2875c-0.5717,1.4291-1.4291,2.7153-2.4296,3.7157
			c-1.0004,1.1433-2.2867,2.0008-3.7157,2.5724c-1.4291,0.5716-2.8582,0.8575-4.4303,0.8575v-11.433"/>
		<path fill="none" stroke="#565440" d="M252.2669,387.7764c-1.5383,0-2.7967-0.2797-4.1952-0.8391c-1.3983-0.5594-2.6569-1.3983-3.6358-2.3773
			c-1.1187-0.9789-1.9578-2.2375-2.5171-3.6358s-0.8391-2.7967-0.8391-4.335h11.187"/>
	</g>
</g>
<g>
	<g>
		<path fill="none" stroke="#565440" d="M381.7838,336.2375c0-1.9413-0.3529-3.5296-1.0589-5.2945c-0.706-1.7648-1.7648-3.3531-3.0003-4.5885
			c-1.2353-1.4119-2.8237-2.4708-4.5885-3.1766c-1.7648-0.7058-3.5296-1.059-5.4709-1.059v14.1184"/>
		<path fill="none" stroke="#565440" d="M428.0727,367.6047c0-1.4475,0.2632-2.6317,0.7896-3.9476c0.5264-1.3158,1.3158-2.5002,2.237-3.4212
			c0.9211-1.0527,2.1054-1.8423,3.4212-2.3685s2.6317-0.7896,4.0791-0.7896v10.5269"/>
		<path fill="none" stroke="#565440" d="M385.1535,352.1648c1.4475,0,2.6317-0.2632,3.9477-0.7896c1.3158-0.5264,2.5001-1.3158,3.4212-2.237
			c1.0527-0.9211,1.8422-2.1054,2.3685-3.4212c0.5263-1.3158,0.7896-2.6317,0.7896-4.0791h-10.5268"/>
		<path fill="none" stroke="#565440" d="M407.3674,422.2728c1.4475,0,2.6317,0.2632,3.9476,0.7896c1.3158,0.5264,2.5002,1.3158,3.4212,2.237
			c1.0527,0.9211,1.8422,2.1054,2.3685,3.4212s0.7896,2.6317,0.7896,4.0791h-10.5268"/>
	</g>
	<g>

			<rect x="433.1702" y="432.369" transform="matrix(0.2515 -0.9679 0.9679 0.2515 -105.6191 753.2976)" fill="none" stroke="#565440" stroke-width="1" stroke-miterlimit="4.0002" width="2.0903" height="25.1302"/>

			<rect x="386.8126" y="433.7818" transform="matrix(0.2515 -0.9679 0.9679 0.2515 -140.6051 708.6517)" fill="none" stroke="#565440" stroke-width="1" stroke-miterlimit="4.0002" width="2.0903" height="22.8974"/>
	</g>
	<g>
		<polygon fill="#565440" points="407.3674,432.7997 403.1807,432.7997 403.1807,435.2089 399.7183,435.2089 399.7183,442.1794
			398.1833,449.0176 402.2302,449.9945 403.6714,443.575 422.7239,443.565 422.7239,435.2173 407.3674,435.2107 		"/>
		<polygon fill="#565440" points="456.5261,336.1186 381.7838,336.1186 381.7838,340.3051 383.8265,340.3051 383.8265,341.6379
			385.2221,341.6379 385.222,340.3051 403.1806,340.3051 403.1806,367.52 385.2221,367.5201 385.222,352.1644 383.8265,352.1644
			383.8265,367.5201 376.9646,367.5201 376.9646,368.9156 403.1806,368.9156 403.1807,422.2728 407.3674,422.2728
			407.3673,368.9156 428.0727,368.9156 428.0727,367.52 407.3673,367.5201 407.3673,340.3051 452.3395,340.3051 452.3395,367.5201
			438.5996,367.5201 438.5996,368.9156 452.3395,368.9156 452.3395,436.592 445.0296,436.592 445.0296,443.5697 445.041,443.5697
			443.9131,448.5938 447.9603,449.5706 449.3073,443.5697 456.5261,443.5697 		"/>
		<polygon fill="#565440" points="358.5103,436.5973 358.5103,340.3051 367.6652,340.3051 367.6652,336.1186 354.3238,336.1186
			354.3238,391.0035 354.3202,391.0035 354.3202,442.1794 352.8019,449.0176 356.8488,449.9945 358.29,443.575 372.223,443.576
			377.0609,444.6927 378.5961,437.8545 373.2929,436.5985 		"/>
	</g>
</g>
<g>
	<g>
		<polygon fill="none" stroke="#565440" points="646.6394,447.2033 654.4543,413.7103 652.2137,413.066 644.9568,444.6051 629.3347,441.2025
			603.0986,441.2025 603.0986,443.2958 629.3347,443.2958 		"/>
		<polygon fill="none" stroke="#565440" points="538.3457,446.6451 537.927,448.7385 511.9699,442.8044 512.3886,440.7111 		"/>
		<polygon fill="none" stroke="#565440" points="581.6074,446.6451 581.1887,448.7384 556.7668,443.1563 557.1854,441.063 		"/>
		<polygon fill="none" stroke="#565440" points="654.1754,343.6544 648.1746,369.8904 646.0814,369.4717 652.0821,343.2357 		"/>
		<polygon fill="none" stroke="#565440" points="466.4412,443.123 466.9669,441.0999 490.1741,447.0973 489.6484,449.1203 		"/>
	</g>
	<g>
		<polygon fill="#565440" points="530.2872,365.4248 530.2872,369.6113 583.0029,369.6113 583.0029,368.2159 557.8832,368.2159
			557.8832,340.3051 595.5627,340.3051 595.5627,368.2159 594.1672,368.2159 594.1672,369.6113 595.5627,369.6113 595.5627,372.069
			596.9582,372.069 596.9582,340.3051 644.4064,340.3051 644.4049,344.5242 653.7567,346.7246 654.7335,342.6776 648.5931,341.2327
			648.5931,336.1185 520.2037,336.1185 520.2037,340.3051 530.2872,340.3051 530.2872,354.2606 531.6827,354.2606
			531.6827,340.3051 556.4877,340.3051 556.4877,368.2159 531.6827,368.2159 531.6827,365.4248 		"/>
		<polygon fill="#565440" points="536.4081,436.5972 536.4081,443.575 536.4196,443.575 535.2918,448.5989 539.3388,449.5757
			540.6859,443.575 553.5623,443.575 558.4002,444.6914 559.9354,437.8533 554.6324,436.5972 		"/>
		<polygon fill="#565440" points="580.9411,396.1265 582.5195,396.1265 582.5195,394.7311 580.9411,394.7311 580.9411,383.2333
			579.5456,383.2333 579.557,443.575 578.4292,448.5989 582.4762,449.5757 583.8234,443.575 604.4864,443.575 604.4864,435.2088
			580.9411,435.2088 		"/>
		<polygon fill="#565440" points="648.5932,408.807 648.5932,365.4248 644.4064,365.4248 644.4064,394.7311 596.9582,394.7311
			596.9582,383.2333 595.5627,383.2333 595.5627,394.7311 593.6838,394.7311 593.6838,396.1265 641.6154,396.1265
			641.6154,414.2686 641.6468,414.2686 641.6154,414.4081 653.8963,417.1993 655.4313,410.3611 		"/>
		<polygon fill="#565440" points="506.2482,340.3051 506.2482,336.1185 452.3394,336.1186 452.3394,443.575 462.4397,443.5697
			467.2776,444.6861 468.8127,437.848 463.5098,436.592 456.5261,436.592 456.5261,369.3677 469.7958,369.3677 469.7958,367.9722
			456.5261,367.9722 456.5261,340.3051 493.3059,340.3051 493.3059,367.9722 480.6744,367.9722 480.6744,369.3677 500.666,369.3677
			500.6661,421.5032 504.8528,421.5032 504.8528,365.2209 500.666,365.2209 500.666,367.9722 494.7014,367.9722 494.7014,340.3051
					"/>
		<polygon fill="#565440" points="504.8577,433.8062 504.8528,433.8062 504.8528,433.5408 500.6661,433.5408 500.6661,435.2088
			490.3504,435.2088 490.3504,442.7892 488.9545,449.0076 488.9557,449.0079 488.9548,449.0121 493.0018,449.9891 494.443,443.5697
			513.8835,443.575 513.8835,435.2089 504.8577,435.2089 		"/>
	</g>
	<path fill="none" stroke="#565440" d="M531.6459,354.2606c1.5352,0,2.791,0.2791,4.1866,0.8373
		c1.3955,0.5581,2.6516,1.3955,3.6284,2.3723c1.1164,0.9769,1.9538,2.2329,2.5119,3.6284c0.5582,1.3955,0.8373,2.791,0.8373,4.3261
		h-11.1642 M583.0029,368.2159c0-1.5351,0.2791-2.7911,0.8374-4.1866c0.5582-1.3955,1.3955-2.6514,2.3723-3.6284
		c0.9769-1.1164,2.233-1.9538,3.6284-2.512c1.3955-0.5583,2.791-0.8373,4.3262-0.8373v11.1643 M480.6794,369.346
		c0,1.5003-0.2727,2.7278-0.8184,4.0917c-0.5455,1.3639-1.3638,2.5913-2.3185,3.5461c-0.9547,1.0911-2.1823,1.9095-3.5461,2.4551
		c-1.3639,0.5456-2.7278,0.8184-4.2281,0.8184V369.346 M500.7095,421.4754c-1.659,0-3.0163,0.3016-4.5244,0.905
		c-1.5081,0.6032-2.8654,1.5081-3.9212,2.5638c-1.2065,1.0557-2.1115,2.4131-2.7148,3.9213
		c-0.6033,1.5081-0.9049,3.0163-0.9049,4.6753h12.0653 M596.9582,372.069c1.5352,0,2.791,0.2791,4.1865,0.8374
		c1.3956,0.5581,2.6516,1.3955,3.6284,2.3723c1.1164,0.9768,1.9538,2.2329,2.512,3.6284c0.5583,1.3955,0.8374,2.791,0.8374,4.3261
		h-11.1643 M593.6838,396.1266c0,1.5351-0.2791,2.791-0.8374,4.1866c-0.5582,1.3955-1.3954,2.6516-2.3723,3.6284
		c-0.9769,1.1165-2.2328,1.9538-3.6284,2.512c-1.3955,0.5582-2.791,0.8373-4.3262,0.8373v-11.1643 M520.2037,340.3051
		c0,1.8142-0.4186,3.4888-1.1164,5.1635c-0.6978,1.6748-1.6746,3.3494-3.0703,4.6053c-1.256,1.256-2.791,2.3725-4.4657,3.0703
		c-1.6747,0.6977-3.4888,1.1164-5.303,1.1164v-13.9554"/>
</g>
<g>
	<g>
		<path fill="none" stroke="#565440" d="M654.1543,307.0333l-6.2611,27.1314l-2.0933-0.4187l6.2611-27.1314L654.1543,307.0333z"/>
		<path fill="none" stroke="#565440" d="M559.137,234.2443v2.0933l-40.4705,0v-2.0933L559.137,234.2443z"/>
		<polygon fill="none" stroke="#565440" points="655.4292,234.2443 625.6559,234.2443 625.6559,236.3376 652.638,236.3376 646.2185,260.8991
			648.1724,261.4573 		"/>
	</g>
	<g>
		<polygon fill="#565440" points="640.2269,336.1185 591.3761,336.1185 591.3761,304.0211 589.9805,304.0211 589.9805,308.2078
			576.0251,308.2078 576.0251,309.6033 589.9805,309.6033 589.9805,336.1185 553.6965,336.1185 553.6965,309.6033
			564.8609,309.6033 564.8609,308.2078 552.301,308.2078 552.301,336.1185 525.7859,336.1185 525.7859,333.3274 521.5992,333.3274
			521.5992,340.3051 648.5931,340.3051 648.5931,330.5363 640.2269,330.5363 		"/>
		<polygon fill="#565440" points="574.6296,290.0658 574.6296,288.6703 559.2787,288.6703 559.2787,273.3193 591.3761,273.3193
			591.3761,269.1326 589.9805,269.1326 589.9805,271.9238 559.2787,271.9238 559.2786,241.2114 589.9805,241.2114
			589.9805,257.9684 591.3761,257.9684 591.3761,241.2114 627.66,241.2113 627.66,232.8488 626.2644,232.8488 626.2644,228.6621
			622.0779,228.6621 622.0779,232.8488 605.3314,232.8488 605.3314,228.6621 601.1448,228.6621 601.1448,232.8488
			584.3984,232.8488 584.3984,228.6621 580.2117,228.6621 580.2117,232.8488 562.0697,232.8488 562.0697,228.6621
			557.8832,228.6621 557.8832,290.0658 		"/>
		<rect x="536.9501" y="228.6621" fill="#565440" width="4.1865" height="9.7688"/>
		<polygon fill="#565440" points="647.1976,304.9336 647.1976,266.6208 649.4305,261.0386 645.523,259.5034 645.0206,260.7595
			643.0109,260.7595 643.0109,263.5505 640.2269,263.5505 640.2269,273.3193 643.0109,273.3193 643.0109,288.6703
			585.7939,288.6703 585.7939,290.0658 589.9805,290.0658 589.9805,292.8568 591.3761,292.8568 591.3761,290.0658
			643.0109,290.0658 643.0109,307.6297 642.8715,308.2078 653.7567,310.7197 654.7335,306.6726 		"/>
		<polygon fill="#565440" points="521.5992,319.3723 525.7858,319.3723 525.7857,298.4391 524.3903,298.4391 524.3903,308.2078
			503.4573,308.2078 503.4573,299.8346 483.9198,299.8346 483.9198,257.9685 492.293,257.9685 492.293,256.5731 482.5243,256.5731
			482.5243,274.715 481.1288,274.715 481.1288,276.1105 482.5243,276.1105 482.5243,299.8345 461.5912,299.8345 461.5912,276.1105
			469.9645,276.1105 469.9645,274.715 461.5912,274.715 461.5912,240.9465 490.8975,240.9465 490.8975,245.4088 492.293,245.4088
			492.293,240.9465 520.2038,240.9465 520.2038,228.6624 516.0172,228.6624 516.0172,232.849 497.8752,232.849 497.8752,228.6624
			493.6886,228.6624 493.6886,232.849 457.4047,232.8488 457.4047,304.0214 499.2706,304.0214 499.2707,312.3945 521.5992,312.3945
					"/>
	</g>
	<path fill="none" stroke="#565440" d="M591.3761,304.0211c1.5352,0,2.7911-0.2791,4.1868-0.8374
		c1.3954-0.5581,2.6516-1.3955,3.6283-2.3723c1.1165-0.977,1.9539-2.2329,2.512-3.6284s0.8373-2.791,0.8373-4.3261h-11.1642
		 M585.7939,288.6703c0-1.5351-0.2791-2.7911-0.8373-4.1866c-0.5583-1.3954-1.3955-2.6516-2.3724-3.6284
		c-0.9768-1.1165-2.2328-1.9538-3.6284-2.512c-1.3954-0.5582-2.791-0.8374-4.3261-0.8374v11.1643 M564.8609,308.2078
		c0-1.5351,0.2791-2.791,0.8373-4.1866c0.5582-1.3955,1.3955-2.6516,2.3724-3.6284c0.9769-1.1164,2.2328-1.9538,3.6284-2.512
		c1.3954-0.5581,2.791-0.8374,4.3261-0.8374v11.1643 M589.9806,257.9684c-1.5351,0-2.791,0.2791-4.1865,0.8373
		c-1.3955,0.5583-2.6516,1.3955-3.6284,2.3725c-1.1165,0.9768-1.9538,2.2329-2.5119,3.6284
		c-0.5582,1.3955-0.8374,2.7911-0.8374,4.3262h11.1642 M492.2929,256.5729c1.5351,0,2.791-0.2791,4.1866-0.8374
		c1.3955-0.5583,2.6515-1.3955,3.6284-2.3725c1.1165-0.9768,1.9538-2.2329,2.512-3.6284c0.5581-1.3955,0.8373-2.7911,0.8373-4.3262
		h-11.1642 M469.9644,274.7149c0-1.5351,0.2791-2.791,0.8374-4.1866c0.5581-1.3955,1.3955-2.6514,2.3723-3.6284
		c0.9768-1.1164,2.2329-1.9538,3.6284-2.512c1.3955-0.5583,2.791-0.8374,4.3261-0.8374v11.1643 M525.7859,319.3721
		c1.8142,0,3.4888,0.4187,5.1635,1.1165c1.6746,0.6977,3.3493,1.6747,4.6052,3.0702c1.256,1.2559,2.3724,2.7911,3.0703,4.4658
		c0.6978,1.6747,1.1165,3.4888,1.1165,5.303H525.786"/>
</g>
<g>
	<g>
		<path fill="none" stroke="#565440" d="M351.2565,151.2098c0,1.8142-0.4187,3.4888-1.1165,5.1635
			c-0.6977,1.6748-1.6746,3.3493-3.0701,4.6052c-1.2561,1.256-2.791,2.3723-4.4658,3.0703
			c-1.6746,0.6977-3.4888,1.1164-5.303,1.1164v-13.9553"/>
		<path fill="none" stroke="#565440" d="M422.5022,114.772c0-1.3188,0.3044-2.5361,0.8116-3.7534
			c0.5072-1.2174,1.2173-2.4347,2.2317-3.3476c0.913-0.913,2.0288-1.7245,3.2462-2.2318c1.2173-0.5072,2.536-0.8115,3.8548-0.8115
			v10.1443"/>
		<path fill="none" stroke="#565440" d="M434.7215,128.5933c1.3188,0,2.5361-0.3044,3.7534-0.8116
			c1.2174-0.5072,2.4347-1.2173,3.3476-2.2317c0.913-0.913,1.7245-2.0288,2.2318-3.2462c0.5072-1.2173,0.8115-2.536,0.8115-3.8548
			h-10.1443"/>
		<path fill="none" stroke="#565440" d="M441.7954,151.9507c1.3188,0,2.5361,0.3044,3.7534,0.8116
			c1.2174,0.5072,2.4347,1.2173,3.3476,2.2317c0.913,0.913,1.7245,2.0288,2.2318,3.2462c0.5072,1.2173,0.8115,2.536,0.8115,3.8548
			h-10.1443"/>
		<path fill="none" stroke="#565440" d="M298.6184,118.4039c0-1.3469,0.3109-2.5902,0.8289-3.8336
			c0.518-1.2434,1.2433-2.4867,2.2793-3.4191c0.9326-0.9325,2.0722-1.7613,3.3156-2.2795c1.2433-0.518,2.5902-0.8289,3.9371-0.8289
			v10.3608"/>
		<path fill="none" stroke="#565440" d="M297.7133,128.7003c1.3469,0,2.5902,0.3109,3.8336,0.8289
			c1.2434,0.518,2.4866,1.2433,3.4191,2.2793c0.9325,0.9325,1.7613,2.0722,2.2794,3.3155c0.518,1.2433,0.8289,2.5902,0.8289,3.9371
			l-10.3609,0"/>
	</g>
	<g>
		<polygon fill="none" stroke="#565440" points="502.7888,57.3544 266.0648,57.3545 266.0648,59.4478 500.6956,59.4478 500.6956,184.6171
			502.7889,184.6171 		"/>
		<polygon fill="none" stroke="#565440" points="266.0648,35.6123 266.0648,37.7056 522.8057,37.7056 522.8058,184.6172 524.899,184.6172
			524.899,35.6123 		"/>
	</g>
	<g>
		<polygon fill="#565440" points="500.6956,116.1674 500.6956,114.772 432.6465,114.772 432.6465,116.1674 433.326,116.1674
			433.326,118.449 434.7215,118.449 434.7214,116.1674 		"/>
		<polygon fill="#565440" points="308.9793,119.7994 311.6718,119.7994 311.6718,124.3029 315.8583,124.3029 315.8583,57.0613
			311.6717,57.0613 311.6718,118.404 308.9793,118.404 		"/>
		<polygon fill="#565440" points="315.8583,139.0612 311.6717,139.0612 311.6718,147.1627 297.7133,147.1627 297.7133,139.0612
			296.3179,139.0612 296.3179,147.1627 268.3091,147.1627 268.3091,119.7994 296.3179,119.7994 296.3179,128.6727
			297.7133,128.6727 297.7133,119.7994 298.6184,119.7994 298.6184,118.4039 268.3091,118.4039 268.3091,32.919 264.1226,32.919
			264.1224,151.3492 337.3015,151.3492 337.3015,147.1627 315.8583,147.1627 		"/>
		<polygon fill="#565440" points="422.5022,116.1679 422.5022,114.7725 414.1427,114.7725 414.1427,61.2479 423.4,61.2479
			423.4,57.0613 409.9561,57.0613 409.9562,116.1679 		"/>
		<polygon fill="#565440" points="529.3344,182.3015 528.5343,182.3015 528.5343,180.41 525.8409,180.41 525.8409,182.3015
			524.8577,182.3015 524.8577,180.41 522.1644,180.41 522.1644,182.3015 521.1811,182.3015 521.1811,180.41 518.4877,180.41
			518.4877,182.3015 517.5045,182.3015 517.5045,180.41 514.8112,180.41 514.8112,182.3015 513.8279,182.3015 513.8279,180.41
			511.1345,180.41 511.1345,182.3015 510.1512,182.3015 510.1512,180.41 507.4579,180.41 507.4579,182.3015 506.4747,182.3015
			506.4747,180.41 503.7813,180.41 503.7813,182.3015 500.2789,182.3015 500.2789,183.6935 441.7955,183.6935 441.7954,161.982
			440.4,161.982 440.4,183.6935 414.1427,183.6935 414.1427,143.1376 440.4,143.1376 440.4,151.9507 441.7955,151.9507
			441.7955,141.7421 434.7215,141.7421 434.7214,128.5353 433.326,128.5353 433.326,141.7421 414.1427,141.7421 414.1427,130.8988
			409.9561,130.8988 409.9561,147.1627 351.2565,147.1627 351.2565,151.3492 409.9561,151.3492 409.9561,190.6712
			511.1345,190.6677 511.1345,192.5592 513.8279,192.5592 513.8279,190.6677 514.8112,190.6677 514.8112,192.5592
			517.5045,192.5592 517.5045,190.6677 518.4877,190.6677 518.4877,192.5592 521.1811,192.5592 521.1811,190.6677
			522.1644,190.6677 522.1644,192.5592 524.8577,192.5592 524.8577,190.6677 525.8409,190.6677 525.8409,192.5592
			528.5343,192.5592 528.5343,190.6677 529.3344,190.6677 529.3344,189.6402 531.2258,189.6402 531.2258,186.9469
			529.3344,186.9469 529.3344,185.9636 531.2258,185.9636 531.2258,183.2703 529.3344,183.2703 		"/>
		<polygon fill="#565440" points="365.3408,40.2577 365.3408,39.2889 367.2323,39.2889 367.2323,36.5956 365.3408,36.5956
			365.3408,35.6123 367.2323,35.6123 367.2323,32.919 365.3408,32.919 365.3408,31.8915 363.93,31.8915 363.93,30 361.2367,30
			361.2367,31.8915 360.2534,31.8915 360.2534,30 357.5601,30 357.5601,31.8915 356.5768,31.8915 356.5768,30 353.8835,30
			353.8835,31.8915 352.9002,31.8915 352.9002,30 350.2068,30 350.2068,31.8915 348.7961,31.8915 348.7961,32.919 346.9046,32.919
			346.9046,35.6123 348.7961,35.6123 348.7961,36.5956 346.9046,36.5956 346.9046,39.2889 348.7961,39.2889 348.7961,40.2577 		"/>
		<polygon fill="#565440" points="437.0712,40.2577 453.616,40.2577 453.616,39.2889 455.5074,39.2889 455.5074,36.5956
			453.616,36.5956 453.616,35.6123 455.5074,35.6123 455.5074,32.919 453.616,32.919 453.616,31.8915 452.2051,31.8915 452.2051,30
			449.5118,30 449.5118,31.8915 448.5286,31.8915 448.5286,30 445.8352,30 445.8352,31.8915 444.8519,31.8915 444.8519,30
			442.1586,30 442.1586,31.8915 441.1754,31.8915 441.1754,30 438.482,30 438.482,31.8915 437.0712,31.8915 437.0712,32.919
			435.1797,32.919 435.1797,35.6123 437.0712,35.6123 437.0712,36.5956 435.1797,36.5956 435.1797,39.2889 437.0712,39.2889 		"/>
		<polygon fill="#565440" points="496.1046,40.2577 512.6493,40.2577 512.6493,39.2889 514.5408,39.2889 514.5408,36.5956
			512.6493,36.5956 512.6493,35.6123 514.5408,35.6123 514.5408,32.919 512.6493,32.919 512.6493,31.8915 511.2385,31.8915
			511.2385,30 508.5452,30 508.5452,31.8915 507.5619,31.8915 507.5619,30 504.8685,30 504.8685,31.8915 503.8853,31.8915
			503.8853,30 501.192,30 501.192,31.8915 500.2087,31.8915 500.2087,30 497.5153,30 497.5153,31.8915 496.1046,31.8915
			496.1046,32.919 494.2131,32.919 494.2131,35.6123 496.1046,35.6123 496.1046,36.5956 494.2131,36.5956 494.2131,39.2889
			496.1046,39.2889 		"/>
		<polygon fill="#565440" points="529.3344,118.9337 528.3068,118.9337 528.3068,117.0422 525.6135,117.0422 525.6135,118.9337
			524.6302,118.9337 524.6302,117.0422 521.9369,117.0422 521.9369,118.9337 520.9681,118.9337 520.9681,135.4784
			521.9369,135.4784 521.9369,137.3699 524.6302,137.3699 524.6302,135.4784 525.6135,135.4784 525.6135,137.3699
			528.3068,137.3699 528.3068,135.4784 529.3344,135.4784 529.3344,134.0676 531.2258,134.0676 531.2258,131.3743
			529.3344,131.3743 529.3344,130.391 531.2258,130.391 531.2258,127.6977 529.3344,127.6977 529.3344,126.7144 531.2258,126.7144
			531.2258,124.0211 529.3344,124.0211 529.3344,123.0378 531.2258,123.0378 531.2258,120.3445 529.3344,120.3445 		"/>
		<polygon fill="#565440" points="531.2258,64.0738 531.2258,61.3805 529.3344,61.3805 529.3344,59.9697 528.3068,59.9697
			528.3068,58.0782 525.6135,58.0782 525.6135,59.9697 524.6302,59.9697 524.6302,58.0782 521.9369,58.0782 521.9369,59.9697
			520.9681,59.9697 520.9681,76.5144 521.9369,76.5144 521.9369,78.4059 524.6302,78.4059 524.6302,76.5144 525.6135,76.5144
			525.6135,78.4059 528.3068,78.4059 528.3068,76.5144 529.3344,76.5144 529.3344,75.1036 531.2258,75.1036 531.2258,72.4103
			529.3344,72.4103 529.3344,71.427 531.2258,71.427 531.2258,68.7337 529.3344,68.7337 529.3344,67.7504 531.2258,67.7504
			531.2258,65.0571 529.3344,65.0571 529.3344,64.0738 		"/>
		<polygon fill="#565440" points="304.0818,40.2577 323.0817,40.2577 323.0817,39.2889 324.9732,39.2889 324.9732,36.5956
			323.0817,36.5956 323.0817,35.6123 324.9732,35.6123 324.9732,32.919 323.0817,32.919 323.0817,31.8915 322.2817,31.8915
			322.2817,30 319.5883,30 319.5883,31.8915 318.605,31.8915 318.605,30 315.9117,30 315.9117,31.8915 314.9285,31.8915
			314.9285,30 312.2351,30 312.2351,31.8915 311.2518,31.8915 311.2518,30 308.5585,30 308.5585,31.8915 307.5753,31.8915
			307.5753,30 304.8819,30 304.8819,31.8915 304.0818,31.8915 304.0818,32.919 302.1904,32.919 302.1904,35.6123 304.0818,35.6123
			304.0818,36.5956 302.1904,36.5956 302.1904,39.2889 304.0818,39.2889 		"/>
	</g>
</g>
<g>
	<rect x="355" y="-0.0001" fill="none" width="10" height="10"/>
	<rect x="33.7872" y="235" fill="none" width="10" height="10"/>
	<rect x="355" y="469.9999" fill="none" width="10" height="10"/>
	<rect x="676.3089" y="235" fill="none" width="10" height="10"/>
</g>
<g>
	<g data-nr="1" class="plan__svg__hoverable">
		<rect x="180.644" y="255.1779" fill="none" width="2.6934" height="1.8915"/>
		<rect x="176.9674" y="255.1779" fill="none" width="2.6933" height="1.8915"/>
		<path fill="none" d="M219.8917,184.0981v-11.3784c1.8906,0,3.5014-0.3218,5.3866-1.0762
			c1.7637-0.7056,3.3804-1.7627,4.6514-3.0352c1.4053-1.229,2.5005-2.8101,3.2559-4.6982c0.7241-1.8096,1.0762-3.6284,1.0762-5.5605
			v-0.5h-14.3696v1h13.3613c-0.0537,1.6313-0.374,3.1338-0.9966,4.689c-0.6958,1.7407-1.7007,3.1929-3.0098,4.3398
			c-1.2002,1.2002-2.7012,2.1812-4.3398,2.8364c-1.7602,0.7046-3.2602,1.0049-5.0155,1.0049v-13.3699v-7.0002l48.4843,0.0001
			l-0.0001-118.7605h-4.1866v2.5231h-31.3596V32.919h-1.8915v-1.0275h-0.8V30h-2.6934v1.8915h-0.9833V30h-2.6933v1.8915h-0.9833V30
			h-2.6934v1.8915h-0.9833V30h-2.6933v1.8915h-0.9833V30h-2.6934v1.8915h-0.8v1.0275h-1.8915v2.1933h-60.9302V32.919h-1.8915
			v-1.0275h-0.8V30h-2.6933v1.8915h-0.9833V30h-2.6934v1.8915h-0.9833V30h-2.6933v1.8915h-0.9833V30h-2.6934v1.8915h-0.9833V30
			h-2.6933v1.8915h-0.8v1.0275h-1.8915v2.1933H101.866V32.919h-1.8915v-1.0275h-1.4108V30h-2.6933v1.8915h-0.9833V30h-2.6934v1.8915
			h-0.9833V30h-2.6933v1.8915h-0.9833V30h-2.6934v1.8915h-1.4108v1.0275h-1.8915v2.1933H70.56v22.8322h-0.1104v1.8915h-0.9833
			v-1.8915H66.773v1.8915h-1.0275v1.4108H63.854v2.6933h1.8915v0.9833H63.854v2.6934h1.8915V68.6H63.854v2.6933h1.8915v0.9833
			H63.854V74.97h1.8915v1.4108h1.0275v1.8915h2.6933v-1.8915h0.9833v1.8915H70.56v55.279h-0.1104v1.8915h-0.9833v-1.8915H66.773
			v1.8915h-1.0275v0.8H63.854v2.6934h1.8915v0.9833H63.854v2.6933h1.8915v0.9833H63.854v2.6934h1.8915v0.9833H63.854v2.6933h1.8915
			v0.9833H63.854v2.6934h1.8915v0.8h1.0275v1.8915h2.6933v-1.8915h0.9833l0.0001,1.8915H70.56v49.191h-0.1104v1.8915h-0.9833
			v-1.8915H66.773v1.8915h-1.0275v1.4108H63.854v2.6934h1.8915v0.9833H63.854v2.6933h1.8915v0.9833H63.854v2.6934h1.8915v0.9833
			H63.854v2.6933h1.8915v1.4108h1.0275v1.8915h2.6933v-1.8915h0.9833v1.8915H70.56v24.0525h11.1248v0.5685h1.8915v0.9833h-1.8915
			v2.6933h1.8915v1.0275h1.4108v1.8915h2.6933v-1.8915h0.9833v1.8915h2.6934v-1.8915h0.9833v1.8915h2.6933v-1.8915h0.9833v1.8915
			h2.6934v-1.8915h1.4108v-1.0275h1.8915v-2.6933h-1.8915v-0.9833h1.8915v-0.5685h19.0146v5.2726h3.5913v1.8914h2.6933v-1.8914
			h0.9833v1.8914h2.6934v-1.8914h0.9833v1.8914h2.6933v-1.8914h0.9833v1.8914h2.6934v-1.8914h0.9833v1.8914h2.6933v-1.8914h0.9833
			v1.8914h2.6934v-1.8914h0.9833v1.8914h2.6933v-1.8914h0.9833v1.8914h2.6934v-1.8914h0.9833v1.8914h2.6933v-1.8914h0.9833v1.8914
			h2.6934v-1.8914h1.5929v-0.0005h0.0001v-0.9118h13.3221v0.9122h9.6719v-0.9122h20.1792v0.9123h1.4111v1.8914h2.6933v-1.8914
			h0.9833v1.8914h2.6934v-1.8914h0.9833v1.8914h2.6933v-1.8914h0.9833v1.8914h2.6934v-1.8914h0.9833v1.8914h2.6933v-1.8914h0.9833
			v1.8914h2.6934v-1.8914h0.9833v1.8914h2.6933v-1.8914h0.9833v1.8914h2.6934v-1.8914h0.9833v1.8914h2.6933v-1.8914h0.9833v1.8914
			h2.6934v-1.8914h23.9211v-2.6397h0.0002l-0.0001-64.2534h0.0001v-4.1868h-0.0001L219.8917,184.0981z"/>
	</g>
	<path data-nr="6" class="plan__svg__hoverable" fill="none" d="M358.5768,442.2712l-0.0032-106.1526h-0.1985h-3.988h-44.8427v-8.5746
		c1.9058,0,3.5303-0.3242,5.4316-1.085c1.7793-0.7109,3.4092-1.7773,4.6895-3.0605c1.4165-1.2383,2.521-2.832,3.2827-4.7363
		c0.73-1.8252,1.085-3.6592,1.085-5.6064v-0.5h-14.4888v-3.2121v-12.2999H193.7148v14.3942l-0.8373,3.4685l1.3388,0.3006
		l-5.0117,21.7198l0.2237,0.0448l-0.7374,3.0546l5.0239,1.1278v18.6888h2.054l-7.9587,34.7198l0.1584,0.0317l-0.673,2.7885
		l6.4194,1.4412v16.8403h0.1952l-5.3862,27.0369l27.3423,6.1061l-0.0472,0.2104l4.0471,0.9769l1.4412-6.4195h18.53l23.6631,6.1486
		l0.0452-0.1738l1.8424,0.4447l1.4412-6.4194h15.243l3.469,0.8372l0.0549-0.2447l21.4283,5.5668l0.0266-0.1021l1.5166,0.366
		l0.9769-4.0471v-2.3761h21.929l23.6481,6.1447l0.0387-0.1489l1.7551,0.4236L358.5768,442.2712z M323.0249,313.5557
		c-0.0537,1.6475-0.377,3.1641-1.0054,4.7354c-0.7021,1.7559-1.7158,3.2207-3.0366,4.3779c-1.21,1.2109-2.7236,2.2002-4.3779,2.8623
		c-1.7764,0.71-3.2896,1.0127-5.0605,1.0127v-12.9883H323.0249z"/>
	<path data-nr="5" class="plan__svg__hoverable" fill="none" d="M438.3184,336.1186h-55.9727c-0.0137-1.8694-0.3381-3.4826-1.0903-5.3608
		c-0.7168-1.7949-1.793-3.4395-3.0879-4.7324c-1.25-1.4287-2.8574-2.543-4.7793-3.3115c-1.8398-0.7363-3.6904-1.0947-5.6563-1.0947
		h-0.5v14.4995h-4.3h-8.5413v54.8849h-0.0036v51.1758l-1.5182,6.8383l4.0469,0.9769l1.4412-6.4195l13.933,0.001l4.838,1.1167
		l0.1422-0.6336l21.8311,5.6714l0.124-0.4775l3.0721,0.7416l1.4412-6.4195l19.0526-0.01v-0.0198l23.7477,6.1696l0.1233-0.4738
		l1.3653,0.3295l1.347-6.0009h7.2188V336.1186H438.3184z M373.0171,323.6416c1.7734,0.71,3.2529,1.7334,4.4209,3.0664
		c1.2227,1.2227,2.2217,2.751,2.8896,4.4209c0.7004,1.753,1.0043,3.2547,1.0181,4.9897h-13.1138V322.627
		C369.8969,322.6807,371.4301,323.0068,373.0171,323.6416z"/>
	<polygon data-nr="4" class="plan__svg__hoverable" fill="none" points="655.4982,410.3611 648.66,408.807 648.66,370.3039 654.8442,343.2646
		654.6672,343.2292 654.8004,342.6776 648.66,341.2327 648.66,336.1185 520.2705,336.1185 520.2705,336.1186 506.3151,336.1186
		506.3151,336.1185 452.4062,336.1186 452.4063,443.575 462.5066,443.5697 467.3445,444.6861 467.5208,443.9006 490.0737,449.7295
		490.1869,449.2935 493.0687,449.9891 494.5099,443.5697 513.1621,443.5748 538.3833,449.3398 538.3854,449.3294 539.4056,449.5757
		540.7527,443.575 553.6292,443.575 558.467,444.6914 558.6057,444.0741 580.156,448.9995 582.5431,449.5757 583.8903,443.575
		602.6655,443.575 602.6655,443.7959 629.3462,443.7959 647.0806,447.7998 655.1157,413.3604 654.8425,413.2819 	"/>
	<polygon data-nr="3" class="plan__svg__hoverable" fill="none" points="653.6995,306.4186 647.2645,304.9336 647.2644,266.6208 649.4973,261.0386
		648.927,260.8145 656.146,233.7441 655.4961,233.7441 627.7269,233.7441 627.7269,232.8488 626.3313,232.8488 626.3313,228.6621
		622.1448,228.6621 622.1448,232.8488 605.3983,232.8488 605.3983,228.6621 601.2117,228.6621 601.2117,232.8488 584.4652,232.8488
		584.4652,228.6621 580.2786,228.6621 580.2786,232.8488 562.1366,232.8488 562.1366,228.6621 557.9501,228.6621 557.9501,232.8488
		557.9501,233.7441 541.2035,233.7441 541.2035,228.6621 537.017,228.6621 537.017,233.7441 520.2706,233.7441 520.2706,228.6624
		516.0841,228.6624 516.0841,232.849 497.9421,232.849 497.9421,228.6624 493.7555,228.6624 493.7555,232.849 457.4716,232.8488
		457.4716,304.0214 499.3375,304.0214 499.3376,312.3945 521.666,312.3945 521.666,319.3723 521.666,333.3274 521.666,334.751
		521.666,340.3051 648.66,340.3051 648.66,333.3569 654.8237,306.6436 	"/>
	<path data-nr="2" class="plan__svg__hoverable" fill="none" d="M531.2258,64.0738v-2.6933h-1.8915v-1.4108h-1.0275v-1.8915h-2.6933v1.8915h-0.2141
		V35.1123h-10.8586V32.919h-1.8915v-1.0275h-1.4108V30h-2.6933v1.8915h-0.9833V30h-2.6934v1.8915h-0.9833V30h-2.6933v1.8915h-0.9833
		V30h-2.6934v1.8915h-1.4108v1.0275h-1.8915v2.1933h-38.7056V32.919h-1.8915v-1.0275h-1.4108V30h-2.6933v1.8915h-0.9833V30h-2.6934
		v1.8915h-0.9833V30h-2.6933v1.8915h-0.9833V30h-2.6934v1.8915h-1.4108v1.0275h-1.8915v2.1933h-67.9474V32.919h-1.8915v-1.0275
		H363.93V30h-2.6933v1.8915h-0.9833V30h-2.6934v1.8915h-0.9833V30h-2.6933v1.8915h-0.9833V30h-2.6934v1.8915h-1.4108v1.0275h-1.8915
		v2.1933h-21.9314V32.919h-1.8915v-1.0275h-0.8V30h-2.6934v1.8915h-0.9833V30h-2.6933v1.8915h-0.9833V30h-2.6934v1.8915h-0.9833V30
		h-2.6933v1.8915h-0.9833V30h-2.6934v1.8915h-0.8v1.0275h-1.8915v2.1933h-33.8812V32.919h-4.1866l-0.0002,118.4302h69.9206h2.7583
		v14.3159h0.5c1.7822,0,3.6826-0.3994,5.4951-1.1548c1.6245-0.6768,3.2246-1.7759,4.6079-3.1602
		c1.2778-1.1499,2.3535-2.7598,3.1973-4.7842c0.7672-1.841,1.1284-3.5032,1.1474-5.2167h58.2072v39.322l101.1784-0.0035v1.8915
		h2.6934v-1.8915h0.9833v1.8915h2.6933v-1.8915h0.9833v1.8915h2.6934v-1.8915h0.9833v1.8915h2.6933v-1.8915h0.9833v1.8915h2.6934
		v-1.8915h0.8v-1.0275h1.8915v-2.6933h-1.8915v-0.9833h1.8915v-2.6934h-1.8915v-0.9688h-0.8V180.41h-2.6934v1.8915h-0.4415v-46.8231
		h0.2141v1.8915h2.6933v-1.8915h1.0275v-1.4108h1.8915v-2.6934h-1.8915v-0.9833h1.8915v-2.6933h-1.8915v-0.9833h1.8915v-2.6934
		h-1.8915v-0.9833h1.8915v-2.6933h-1.8915v-1.4108h-1.0275v-1.8915h-2.6933v1.8915h-0.2141V76.5144h0.2141v1.8915h2.6933v-1.8915
		h1.0275v-1.4108h1.8915v-2.6933h-1.8915V71.427h1.8915v-2.6933h-1.8915v-0.9833h1.8915v-2.6933h-1.8915v-0.9833H531.2258z
		 M349.6787,156.1812c-0.7861,1.8867-1.7764,3.3755-2.9624,4.4438c-1.311,1.311-2.7993,2.335-4.3047,2.9624
		c-1.522,0.6343-3.1055,0.9995-4.6104,1.0664v-13.3046h12.9476C350.7298,152.9271,350.393,154.467,349.6787,156.1812z"/>
</g>
</svg>
