<!-- DO NOT EDIT THIS, THIS FILE IS GENERATED FROM "2_39.original.svg" using transform-svgs.js script -->



<svg version="1.1" 
	 xmlns="http://www.w3.org/2000/svg" xmlns:xlink="http://www.w3.org/1999/xlink" x="0px" y="0px" viewBox="0 0 720 480"
	 style="enable-background:new 0 0 720 480;" xml:space="preserve">


<g>
	<polygon fill="#DBD4CA" points="239.8490906,301.3623352 197.1543427,301.3623962 197.1543427,445.0711365 
		651.8198242,445.0711365 651.8198242,236.4512482 484.7756653,236.5903473 484.7756653,191.5930176 536.1286621,191.5930176 
		535.9244385,30.7118626 385.9233704,30.7119255 385.9233704,30.854311 316.8726501,30.854311 64.8729248,30.854372 
		64.8727417,30.854311 64.8729248,30.8545589 64.8729858,257.2270203 64.8729858,257.2270813 239.1373444,257.2270203 
		239.1371613,257.2267761 239.1371613,257.2267151 239.1373444,257.2269592 239.8490906,256.2362671 239.8490906,257.6916809 
		241.6186371,257.6916809 241.6186981,300.6917114 239.8490906,300.6917114 	"/>
	<path fill="#565440" d="M655.8388672,235.0168457l-20.7633057-0.0001831v-4.2712402h-4.2711182v4.2712402h-17.0847168
		v-4.2712402h-4.2711182v4.2712402h-17.0847778v-4.2712402l-5.706665-0.0007324v4.2712402h-17.072998v-4.2705078h-0.0117188
		v-0.0007324h-4.2709961v4.2712402h-17.0731812v-4.2705078h-0.0116577v-0.0007324h-4.2712402v4.2712402h-17.0728149v-4.2702026
		l-5.7067261-0.0010376v4.2714233h-17.072876v-4.2703857h-0.0119629v-0.0010376h-4.2709961v4.2714233h-14.2254639v-43.8577881
		h-1.4240112v43.8577881h-1.4352417v-4.2711182h-4.2709961v4.2711182h-11.378479v-43.8577881h-4.270813v149.2141724
		l-150.9153442,0.000061v-39.8643188l-66.9151001-0.0906372v-43.1906738h-4.2711182v43.1906738h-46.9830933v0.0906372v149.491394
		L655.8388672,450v-0.0003662h0.000061L655.8388672,235.0168457z M648.7200928,442.8808594H200.8389893V308.9489746h16.8632813
		v4.2711182h4.2709961v-4.2711182h17.0847168v4.2714233h4.2709961v-4.2714233h17.0848389v4.2714233h4.2711182v-4.2712402h18.5084229
		v4.2712402h4.2712402v-4.2712402h15.8760376v8.0978394h-4.2712402v4.2712402h4.2712402v17.0847168h-4.2712402v4.2709961h4.2712402
		v6.2310791l5.4703979,0.0009766v4.2711182h4.2712402v-4.2711182h18.5085449v4.2711182h4.2709961v-4.2711182h17.0847168v4.2714233
		h4.2709961v-4.2714233h17.0848389v4.2714233h4.2711182v-4.2712402h18.5084229v4.2712402h4.2712402v-4.2712402h17.0848389v4.2712402
		h4.2709961v-0.0003052h0.0029297v-4.2709351h17.0817871v4.2712402h0.0029297h4.2683105h0.0026855v-4.2712402l17.0848389-0.0001831
		v4.2714233h4.2711182v-4.2712402h5.9100342l0.0039063-4.9187012h4.2714233v-4.2709961h-4.2714233v-17.0848389h4.2714233v-4.2711182
		h-4.2712402v-18.5084229h4.2712402v-4.2712402h-4.2712402v-17.0848389h4.2712402v-4.2709961h-4.2712402v-17.0847168h4.2712402
		v-4.2712402h-4.2712402v-9.3208618h177.3823853V442.8808594z"/>
</g>
<g>
	<path fill="none" stroke="#565440" d="M128.2291107,103.8395767c-1.5345688,0-2.7900772-0.2789764-4.1852112-0.8370514
		c-1.3951492-0.5580826-2.6504822-1.3950195-3.6271362-2.3714981c-1.1160431-0.9766235-1.9531479-2.2321167-2.5110931-3.6271362
		c-0.5580978-1.3950195-0.8370743-2.7900772-0.8370743-4.324646l11.1603775-0.0000076 M128.2291107,88.0248642
		c-1.5345688,0-2.7900772-0.2789764-4.1852112-0.837059c-1.3951492-0.5580826-2.6504822-1.3950119-3.6271362-2.3714981
		c-1.1160431-0.9766235-1.9531479-2.2321167-2.5110931-3.6271362c-0.5580978-1.3950195-0.8370743-2.7900772-0.8370743-4.3246384
		l11.1603775-0.0000076 M128.2288361,128.5523376c-1.5661163,0-2.8474274,0.2847137-4.2711182,0.8542786
		c-1.4236908,0.5694275-2.7051392,1.4236908-3.7016983,2.4202423c-1.1389771,0.9967041-1.9932861,2.2780151-2.5627136,3.7017059
		s-0.8542709,2.8474274-0.8542709,4.4135437l11.389801-0.0000153 M128.2288361,194.6600342
		c-1.5661163,0-2.8474274-0.284729-4.2711182-0.8542786c-1.4236908-0.5694122-2.7051392-1.4236908-3.7016983-2.4202576
		c-1.1389771-0.9966736-1.9932861-2.2779999-2.5627136-3.7016907c-0.5694275-1.4237061-0.8542709-2.8474274-0.8542709-4.413559
		l11.389801,0.0000153 M162.3983765,228.852005c1.5661163,0,2.8474274,0.2846985,4.2711182,0.8542633
		c1.4236908,0.5694275,2.7051392,1.4236908,3.7017059,2.4202423c1.1389771,0.9967041,1.9933014,2.2780151,2.5627136,3.7017059
		c0.5694275,1.4236908,0.8542786,2.8474274,0.8542786,4.4135437l-11.3898163-0.0000153 M231.7533264,234.3899841
		c1.5661163,0,2.8474274-0.284729,4.2711182-0.8542786c1.4237061-0.5694122,2.7051544-1.4236908,3.7017059-2.4202576
		c1.1389771-0.9966736,1.9932861-2.2779999,2.5627136-3.7016907c0.5694275-1.4237061,0.8542633-2.8474274,0.8542633-4.413559
		l-11.389801,0.0000153 M148.6127014,180.9151917c0,1.5661163-0.2846985,2.8474274-0.8542633,4.2711182
		c-0.5694275,1.4236908-1.4236908,2.7051544-2.4202423,3.7017059c-0.9967041,1.1389923-2.2780151,1.9933014-3.7017059,2.5627136
		c-1.4236908,0.5694275-2.8474274,0.8542786-4.4135437,0.8542786l0.0000153-11.3898163 M137.0687256,199.4295959
		c0,1.5661011,0.284729,2.8474121,0.8542786,4.2711182c0.5694275,1.4236908,1.4237061,2.7051392,2.4202576,3.7016907
		c0.9966736,1.1389923,2.2779999,1.9933014,3.7017059,2.5627136c1.4236908,0.5694427,2.8474121,0.8542786,4.4135437,0.8542786
		l-0.0000153-11.389801 M180.212265,199.4295959c0,1.5661011-0.2846985,2.8474121-0.8542633,4.2711182
		c-0.5694275,1.4236908-1.4236908,2.7051392-2.4202423,3.7016907c-0.9967041,1.1389923-2.2780151,1.9933014-3.7017059,2.5627136
		c-1.4236908,0.5694427-2.8474274,0.8542786-4.4135437,0.8542786l0.0000153-11.389801 M192.2967072,140.0528412
		c-1.4781799,0-2.6875305-0.2687225-4.0312805-0.8063049c-1.3437653-0.5375671-2.5532379-1.34375-3.4938507-2.2845154
		c-1.0750122-0.9405975-1.8813477-2.1500702-2.418808-3.4938202s-0.8063049-2.6875458-0.8063049-4.1656952l10.7502289-0.0000153
		 M220.3506012,170.9475555c1.9814301,0,3.6025543-0.360199,5.4037933-1.0808105
		c1.801239-0.7205963,3.4225006-1.801239,4.6833496-3.0623016c1.4410248-1.2608337,2.5218811-2.8820953,3.2423248-4.6833496
		c0.7204285-1.801239,1.0808105-3.6025391,1.0808105-5.5839691h-14.4102631"/>
	<polygon fill="none" stroke="#565440" points="64.8729248,30.7119865 64.8729248,166.5596008 64.8729248,166.5596008 
		64.8729858,257.0846252 207.245697,257.0845642 207.245697,254.9490356 67.0085144,254.9490967 67.0085144,254.9490356 
		67.0084534,151.8712463 67.0084534,32.8475761 218.7997131,32.8475151 218.7997131,32.8474541 218.7997131,30.7119255 	"/>
	<g>
		<rect x="176.1070709" y="30.000061" fill="#565440" width="9.3325043" height="7.1186943"/>
		<polygon fill="#565440" points="71.2797546,91.317749 128.2287598,91.3176804 128.2287598,92.6792374 129.6524811,92.6792374 
			129.6527863,88.0248489 128.229126,88.0248489 128.229126,89.893959 71.2797546,89.8940201 71.2797546,72.7118607 
			72.6962967,72.7118607 72.6962967,62.7457733 64.1610641,62.7457733 64.1610641,102.6102371 71.2797546,102.6102371 		"/>
		<polygon fill="#565440" points="128.2287598,76.8645172 129.6524811,76.8645172 129.6524811,37.1187553 131.433075,37.1187553 
			131.433075,38.5352936 143.8898163,38.5352936 143.8898163,37.1187553 155.9383545,37.1187553 155.9383545,30.000061 
			115.7711487,30.000061 115.7711487,37.1187553 128.2287598,37.1187553 		"/>
		<rect x="85.5169601" y="30.000061" fill="#565440" width="9.9660263" height="8.5352325"/>
		<polygon fill="#565440" points="216.0792694,156.5371094 220.3505859,156.5371094 220.3505859,30.000061 205.6612396,30.000061 
			205.6612396,37.1187553 216.0792694,37.1187553 216.0792694,37.1358032 216.0792694,117.0014801 192.6853638,117.0014801 
			192.6853638,117.0015411 192.2966919,117.0015411 192.2966919,129.3025055 193.7204285,129.3025055 193.7204285,118.425209 
			216.0792694,118.425209 216.0792694,151.531189 193.7204285,151.531189 193.7204285,139.9420776 192.2966919,139.9420776 
			192.2966919,151.531189 192.2966919,152.9549103 216.0792694,152.9549103 		"/>
		<polygon fill="#565440" points="71.2798233,199.4295959 137.0687103,199.4295349 137.0687103,198.0058594 129.6525421,198.0058594 
			129.6525421,194.6600342 128.2288818,194.6600342 128.2288818,198.0058594 71.2798233,198.0058594 71.2797546,183.7625885 
			64.1611252,183.7625885 64.1611252,223.6269226 72.6962967,223.6269226 72.6962967,213.6608429 71.2798233,213.6608429 		"/>
		<polygon fill="#565440" points="71.2797546,153.8643951 128.2288818,153.8643341 128.2288818,183.2702179 129.6525421,183.2702179 
			129.6525421,180.9151917 137.2229462,180.9151917 137.2229462,179.4914703 129.6525421,179.4914703 129.6525421,153.8643341 
			164.0476837,153.8643341 164.0476837,179.4914093 148.6126862,179.4914093 148.6126862,180.9151917 165.471344,180.9151917 
			165.471344,117.0015411 129.6525421,117.0015411 129.6525421,103.3430557 128.2288208,103.3430557 128.2288208,128.5523376 
			129.6525421,128.5523376 129.6525421,118.4252701 164.0476074,118.4252701 164.0476074,149.5930328 129.6525421,149.5930939 
			129.6525421,139.9420776 128.2288208,139.9420776 128.2288818,149.5930939 72.6962967,149.5930939 72.6962967,140.4280701 
			71.2797546,140.4280701 71.2797546,123.408989 64.1610641,123.408989 64.1610641,162.4286346 71.2797546,162.4286346 		"/>
		<rect x="85.5170212" y="249.261261" fill="#565440" width="9.9660263" height="8.5352173"/>
		<rect x="176.6355743" y="250.6777344" fill="#565440" width="9.9660797" height="7.1186829"/>
		<polygon fill="#565440" points="148.5083008,198.0058594 148.5083008,199.4295349 160.9745331,199.4295959 160.9745331,218.6668243 
			126.8051529,218.6668243 126.8051529,250.6777344 122.5339127,250.6777344 122.5339127,257.7964172 162.3983765,257.7964783 
			162.3983765,240.2417755 160.9745331,240.2417755 160.9745331,249.261261 152.4321747,249.261261 152.4321747,250.6777344 
			128.2288818,250.6777344 128.2288818,220.0905457 160.9745331,220.0905457 160.9745331,228.8520355 162.3983765,228.8520355 
			162.3983765,199.4295959 168.8225098,199.4295959 168.8225098,198.0058594 		"/>
		<polygon fill="#565440" points="267.7539673,186.6101074 220.3505859,186.6101074 220.3505859,170.9475555 216.0792694,170.9475555 
			216.0792694,189.4573059 180.8421021,189.4573059 180.8421021,198.0058594 180.2122498,198.0058594 180.2122498,199.4295959 
			182.2661438,199.4295959 182.2658386,190.8810272 216.0792694,190.8810272 216.0792694,190.8812256 230.3415833,190.8812256 
			230.3415833,223.0001678 231.7654419,223.0001678 231.7654419,190.8812256 260.635498,190.8812256 260.635498,249.261261 
			231.7533417,249.261261 231.7533417,234.3899841 230.3294983,234.3899841 230.3294983,249.261261 206.533783,249.261261 
			206.533783,257.7963562 267.7540283,257.7963562 		"/>
	</g>
</g>
<g>
	<g>
		<path fill="none" stroke="#565440" d="M317.1572876,30.7119675v2.1355629l-84.3342438,0.0000229v-2.1355629
			L317.1572876,30.7119675z"/>
	</g>
	<g>
		<polygon fill="#565440" points="295.829895,30.0001221 295.829895,37.1188354 310.2786255,37.1188354 310.2786255,38.5353394 
			314.3314209,38.5353394 314.3314209,116.2064667 268.7647095,116.2064667 268.7647095,105.0106659 267.3409424,105.0106659 
			267.3409424,119.3545609 268.7647095,119.3545609 268.7647095,117.6302948 314.3314209,117.6302948 314.3314209,149.5930786 
			268.7647095,149.5930786 268.7647095,130.7792053 267.3409424,130.7792053 267.3409424,149.5930786 263.6980591,149.5930786 
			263.6980591,153.8643799 318.6026611,153.8643188 318.6026611,30.0001221 		"/>
		<polygon fill="#565440" points="220.3505707,120.0662766 246.8705292,120.0662766 246.8705292,118.6425705 220.3505707,118.6425705 
			220.3505707,39.8088379 220.3505707,38.5353394 228.6130829,38.5353394 228.6130829,37.1188354 245.7162323,37.1188354 
			245.7162323,30.0001221 216.0792694,30.0001221 216.0792694,153.8643799 249.5668182,153.8643799 249.5668182,149.5930786 
			220.3505707,149.5930786 		"/>
		<polygon fill="#565440" points="267.3409424,93.7727661 268.7647095,93.7727661 268.7647095,37.1188354 275.6049194,37.1188354 
			275.6049194,30.0001221 265.6261902,30.0001221 265.6261902,37.1188354 267.3409424,37.1188354 		"/>
	</g>
	<g>
		<path fill="none" stroke="#565440" d="M268.7185364,130.7792053c1.5722961,0,2.8586426-0.2859497,4.2879944-0.8576355
			c1.4292908-0.5716705,2.7158508-1.4293213,3.7163086-2.4298172c1.1434937-1.000618,2.0012207-2.2870102,2.572876-3.7163239
			c0.5716858-1.429306,0.8576355-2.8586807,0.8576355-4.4309769h-11.434845"/>
		<path fill="none" stroke="#565440" d="M268.7281799,93.735199c1.6359558,0,2.9744263,0.2975388,4.4615784,0.8923645
			c1.4872131,0.5948105,2.8258362,1.4871826,3.8667908,2.528183c1.1897888,1.0411377,2.0821838,2.3796005,2.677002,3.8667679
			c0.5948486,1.4871902,0.8923645,2.9744263,0.8923645,4.6103745h-11.8977661"/>
		<path fill="none" stroke="#565440" d="M264.1606445,153.8643341c0,2.0066681-0.3649292,3.6484375-1.0945435,5.4726257
			c-0.7296143,1.8242035-1.8242188,3.466156-3.1011353,4.7430267c-1.2770386,1.4594116-2.9188232,2.5540466-4.7430115,3.2836304
			c-1.8241882,0.7296448-3.6484528,1.0946045-5.6551208,1.0946045v-14.5938873"/>
	</g>
</g>
<g>
	<polygon fill="none" stroke="#565440" points="514.770752,189.457489 514.770752,191.5930786 536.1286621,191.5930786 
		536.1265869,30.7119236 416.5335693,30.7119236 416.5335693,30.7119865 323.9758911,30.7119865 323.9758911,32.8475761 
		417.7208252,32.8475151 533.9910278,32.8475151 533.9910278,189.457489 	"/>
	<g>
		<rect x="385.4476318" y="30.000061" fill="#565440" width="9.8798523" height="7.1186943"/>
		<polygon fill="#565440" points="468.298584,104.146843 469.72229,104.146843 469.72229,37.1187553 485.5842896,37.1187553 
			485.5842896,30.000061 445.7197876,30.000061 445.7197876,38.5352287 455.6859131,38.5352287 455.6859131,37.1187553 
			468.298584,37.1187553 468.298584,100.1154327 432.437439,100.1154327 432.437439,101.5391541 468.298584,101.5391541 		"/>
		<polygon fill="#565440" points="452.0111084,185.1862183 452.0111084,145.9984741 450.5874634,145.9984741 450.5874634,150.5935669 
			446.151123,150.5935669 446.151123,152.0172729 450.5874634,152.0172729 450.5874634,185.1862183 418.6691284,185.1862183 
			418.6692505,152.0170898 434.104126,152.0170898 434.104126,150.5934448 418.6692505,150.5934448 418.6692505,149.5932007 
			412.6079712,149.5932007 412.6079712,120.0289917 450.5874634,120.0288086 450.5874634,135.3439331 452.0111084,135.3439331 
			452.0111084,125.6233521 454.2285767,125.6233521 454.2285767,124.199707 452.0111084,124.199707 452.0112305,118.6051636 
			399.7434692,118.6052856 399.7434692,120.0289917 411.1841431,120.0289917 411.1841431,149.5932007 383.1118774,149.5932617 
			383.1118774,120.0289917 388.3536987,120.0289917 388.3536987,118.6052856 362.0053101,118.6051636 362.0053101,118.6052856 
			362.005249,118.6052856 362.0053101,121.4276733 363.4291382,121.4276733 363.4291382,120.0291138 381.6880493,120.0289917 
			381.6880493,149.5932617 363.4291382,149.5931396 363.4291382,132.1437988 362.0053101,132.1437988 362.0053101,149.5931396 
			359.9434814,149.5932617 359.9434814,153.8643799 414.3980103,153.8643188 414.3980103,192.3048706 418.6691284,192.3048706 
			515.482605,192.3048706 515.482605,185.1862183 		"/>
		<rect x="505.5164795" y="30.000061" fill="#565440" width="9.9660645" height="8.5351677"/>
		<polygon fill="#565440" points="469.72229,124.1995773 469.72229,115.5366516 468.298584,115.5366516 468.298584,124.1995773 
			465.6184082,124.1995773 465.6184082,125.6232452 528.3032227,125.6232452 528.3032227,132.7176361 529.7197876,132.7176361 
			529.7197876,163.8303528 536.838501,163.8303528 536.838501,124.1995773 536.8384399,124.1995773 		"/>
		<polygon fill="#565440" points="536.8384399,62.7457085 528.3032227,62.7457085 528.3032227,72.711792 529.7197876,72.711792 
			529.7197876,102.857132 536.838501,102.857132 		"/>
		<polygon fill="#565440" points="421.0476685,101.5394058 421.0476685,100.1157379 418.6691284,100.1157379 418.6690674,37.1187553 
			425.4683838,37.1187553 425.4683838,30.000061 414.3979492,30.000061 414.3980103,101.5393448 		"/>
		<polygon fill="#565440" points="335.8120117,149.5930939 335.8120117,130.3769989 334.3881836,130.3769989 334.3881836,149.5930939 
			318.6026611,149.5930939 318.6026611,118.6051559 334.3881836,118.6051559 334.3881836,119.6608582 335.8120117,119.6608582 
			335.8120117,117.1813049 318.6026611,117.1813049 318.6026611,38.5353546 322.7088623,38.5353546 322.7088623,37.1188164 
			336.2792969,37.1188164 336.2792969,30.0001221 314.3314209,30.0001221 314.3314209,153.8643341 345.0270996,153.8643951 
			345.0270996,149.593277 		"/>
		<rect x="355.4386597" y="30.0001221" fill="#565440" width="10.1497498" height="8.5352325"/>
	</g>
	<path fill="none" stroke="#565440" d="M362.0050659,132.1438599c-1.3930664,0-2.6789551-0.3215027-3.9649658-0.8573151
		c-1.2859497-0.5357666-2.5718994-1.2859955-3.5363159-2.3575897c-0.9643555-0.9644852-1.8217163-2.1432037-2.3574829-3.4291916
		c-0.5358276-1.2860107-0.8572998-2.6789932-0.8572998-4.0720901h10.7161865 M452.0111694,135.3439026
		c1.3931274,0,2.6790161,0.3215027,3.9650269,0.8572998c1.2858887,0.5357971,2.5718994,1.2860107,3.5363159,2.357605
		c0.9643555,0.9644928,1.8216553,2.1431885,2.3574829,3.429184c0.5358276,1.286026,0.8572998,2.6790009,0.8572998,4.0720978
		h-10.7161865 M335.8120728,130.3770142c1.3931274,0,2.6789551-0.3215027,3.9649658-0.8572998
		c1.2859497-0.5357819,2.5719604-1.2860107,3.5363159-2.3575974c0.9644165-0.9644928,1.8217163-2.1432037,2.3574829-3.4291916
		c0.5358276-1.2860107,0.8573608-2.6790009,0.8573608-4.0720901h-10.7162476 M388.3536377,118.6052933
		c0-1.5661087,0.284729-2.8474274,0.8543091-4.2711182c0.569519-1.4236908,1.4237061-2.7049637,2.4202271-3.7016983
		c0.996582-1.1389847,2.2780151-1.9933014,3.7017212-2.5627213c1.4237061-0.5695572,2.8474121-0.8542633,4.4135742-0.8542633
		v11.389801 M345.0270996,153.8643341c0,2.0510101,0.3728638,3.7290497,1.1187744,5.5935364
		c0.7459106,1.864502,1.864563,3.5424652,3.1696167,4.8478241c1.3051758,1.4916229,2.9833374,2.6104584,4.8478394,3.3561859
		c1.864563,0.7458954,3.7290039,1.1187744,5.7800903,1.1187744v-14.9163208 M421.0476074,100.1157303
		c0-1.566124,0.284729-2.847435,0.8543091-4.2712555s1.4237061-2.7049561,2.4202271-3.7016983
		c0.996582-1.1389923,2.2780151-1.9933014,3.7017212-2.5627136c1.4237061-0.5695572,2.8474121-0.8542786,4.4135742-0.8542786
		v11.3898087 M454.2285156,124.1995697c0-1.566124,0.284729-2.847435,0.8543091-4.2712555s1.4237061-2.7049561,2.4202881-3.7016983
		c0.996521-1.1389923,2.2779541-1.9933014,3.7016602-2.5627136c1.4237671-0.5695572,2.8474121-0.8542862,4.4135742-0.8542862
		v11.3898163 M469.72229,104.1468735c1.5661011,0,2.8474121,0.2847061,4.2712402,0.8542786s2.7049561,1.4237213,3.7017212,2.4202576
		c1.1389771,0.9965744,1.9932861,2.2780075,2.5626831,3.7017059c0.5695801,1.4237213,0.8543091,2.8474197,0.8543091,4.413559
		l-11.3898315,0.0000076"/>
</g>
<g>
	<rect x="355" y="-0.0001" fill="none" width="10" height="10"/>
	<rect x="34.1611252" y="235" fill="none" width="10" height="10"/>
	<rect x="355" y="469.9999084" fill="none" width="10" height="10"/>
	<rect x="675.8389282" y="235" fill="none" width="10" height="10"/>
</g>
<g>
	<path data-nr="1" class="plan__svg__hoverable" fill="none" d="M267.7539673,186.6101074h-47.4033813v-15.1623535
		c1.9614258,0,3.6328125-0.3339844,5.5893555-1.1166992c1.8305664-0.7324219,3.5078125-1.8295898,4.8266602-3.1499023
		c1.4575195-1.2753906,2.59375-2.9155273,3.3779297-4.8745117c0.7509766-1.878418,1.1162109-3.765625,1.1162109-5.7695313v-0.5
		h-14.9101563v-0.8530884V39.8087769v-2.6729736v-0.0170288v-1.0297241V30.000061h-14.6893311v0.211853h-20.2216797v-0.211853
		h-9.3325195v0.211853h-20.1687012v-0.211853h-12.0485229h-12.4567871h-15.6618652v0.211853h-20.288208v-0.211853h-9.9660034
		v0.211853H64.3730469v32.5338745h-0.2119751v39.8644409h0.2119751v20.7987671h-0.2119751v23.921936h0.000061v5.5460815h-0.000061
		v9.5516357h0.2119751v21.3339233h-0.2119141v29.8982544v9.9661255h0.2119141v33.9580078h21.1439819v0.2115479h9.9660034v-0.2115479
		h27.0509033v0.2114868l39.8644409,0.0000305v-0.2115173h14.2371826v0.2114868h9.9661255v-0.2114868h19.9320679v0.2114258
		h61.2202759v-9.9661255L267.7539673,186.6101074z M234.2529297,157.0371094
		c-0.0537109,1.7041016-0.387207,3.2734375-1.0371094,4.8984375c-0.7246094,1.8110352-1.7700195,3.3227539-3.1318359,4.515625
		c-1.2485352,1.2485352-2.8095703,2.269043-4.5151367,2.9511719c-1.831543,0.7329102-3.3920898,1.0454102-5.2182617,1.0454102
		v-13.4106445H234.2529297z"/>
	<path data-nr="2" class="plan__svg__hoverable" fill="none" d="M318.6026611,30.000061H295.829895v0.211853h-20.2249756v-0.211853h-5.7075195
		h-1.0401611h-3.2310791v0.211853h-19.9099121v-0.211853h-29.6369629v5.2665405v4.5421753v114.055542h32.9876099v15.093689h0.5
		c2.0288086,0,3.9394531-0.3696289,5.8408203-1.1298828c1.9833984-0.793457,3.6430664-1.9438477,4.9106445-3.3945313
		c1.3603516-1.3603516,2.4711914-3.0585938,3.2119141-4.9111328c0.7924805-1.9799805,1.1303711-3.6723022,1.1303711-5.6581421
		l53.9420166-0.000061V30.000061z M262.6015625,159.1513672c-0.690918,1.7275391-1.7250977,3.3095703-3.0131836,4.5996094
		c-1.1850586,1.3549805-2.7167969,2.4140625-4.5517578,3.1484375c-1.6484375,0.6591797-3.2402344,0.9970703-4.9697266,1.0507813
		v-14.0859375h13.59375C263.6606445,155.715332,263.34375,157.2963867,262.6015625,159.1513672z"/>
	<path data-nr="3" class="plan__svg__hoverable" fill="none" d="M536.838501,102.8570557V67.6016235h-0.000061v-4.855957h-0.2111206
		l-0.0003662-32.5337524h-21.1444092V30h-9.9660645v0.2119141h-19.9321899V30h-29.8983765h-2.9738159h-6.9922485v0.2119141
		h-20.2514038V30h-6.7993774h-1.5944824h-2.6766357v0.2119141h-19.0704346V30h-9.8798828v0.2119141h-19.8591919v-0.211853
		h-10.1497803v0.211853h-19.1593628v-0.211853h-13.5704346h-8.3774414v119.5929565v1.5907593v2.680481h2.1109009v0.0001221
		l28.0845337-0.000061c0,2.027832,0.3452148,3.7562866,1.1547852,5.7792358
		c0.7568359,1.8920898,1.8911133,3.6264648,3.2573242,4.9912109c1.3183594,1.5068359,3.0136719,2.6811523,5.0385742,3.4912109
		c1.9423828,0.7768555,3.8935547,1.1547852,5.9658203,1.1547852h0.5v-15.4164429l53.9545898-0.000061v38.4405518h4.2711182
		h96.8135376v-0.2115479h21.1463013l-0.0003662-28.2630005h0.2099609v-39.6307373h-0.000061h-0.2103271l-0.0003052-21.3424683
		H536.838501z M359.4433594,168.2734375c-1.7734375-0.0541992-3.4047852-0.3999023-5.0947266-1.0761719
		c-1.8769531-0.7504883-3.4438477-1.8344727-4.6796875-3.2451172c-1.2939453-1.2944336-2.3520508-2.9125977-3.0585938-4.6796875
		c-0.7592773-1.8979492-1.0834961-3.515625-1.0834961-5.4082031h13.9165039V168.2734375z"/>
</g>
</svg>
