<!-- DO NOT EDIT THIS, THIS FILE IS GENERATED FROM "2_41-42.original.svg" using transform-svgs.js script -->



<svg version="1.1" 
	 xmlns="http://www.w3.org/2000/svg" xmlns:xlink="http://www.w3.org/1999/xlink" x="0px" y="0px" viewBox="0 0 720 480"
	 style="enable-background:new 0 0 720 480;" xml:space="preserve">


<g>
	<polygon fill="#DBD4CA" points="573.7997437,240.0055847 666.22229,240.0055847 665.9568481,30.9251213 
		471.0161743,30.9251995 471.0161743,31.1102562 381.2780762,31.1102562 53.7803421,31.1103363 53.7801018,31.1102562 
		53.7803421,31.1105728 53.7804222,324.9364624 283.4783325,324.9902954 283.4784241,386.9104309 370.9115906,384.0002441 
		370.8236084,438.1926575 573.7997437,438.1926575 	"/>
	<polygon fill="#565440" points="587.5692139,319.6367798 582.0202026,319.6367798 582.0182495,295.583313 587.5692139,295.583313 
		587.5692139,290.0324707 582.0182495,290.0324707 582.0182495,267.8290405 587.5692139,267.8290405 587.5692139,262.2785034 
		582.0182495,262.2785034 582.0182495,240.5184326 570.9291992,240.5184326 570.9311523,343.9337769 570.9311523,433.3587646 
		374.8022461,433.3588257 374.8022461,381.5513306 287.8396606,381.4335327 287.8396606,325.3031006 282.2889404,325.3031006 
		282.2889404,392.520874 307.90448,392.520874 307.90448,398.0720215 313.4552002,398.0720215 313.4552002,392.5211182 
		337.508667,392.5211182 337.508667,398.0720215 343.0595703,398.0720215 343.0595703,392.5211182 363.6919556,392.5211182 
		363.6919556,403.0450439 358.1411133,403.0450439 358.1411133,408.5958862 363.6919556,408.5958862 363.6919556,430.7991333 
		358.1411133,430.7991333 358.1411133,436.3497314 363.6919556,436.3497314 363.6919556,444.4475708 370.8012695,444.4488525 
		370.8012695,449.9995728 376.3521729,449.9995728 376.3521729,444.4488525 400.4057617,444.4488525 400.4057617,449.9995728 
		405.9563599,449.9995728 405.9563599,444.4488525 428.1596069,444.4488525 428.1596069,450 433.710144,450 433.710144,444.4488525 
		455.9135132,444.4488525 455.9135132,450 461.4642334,450 461.4642334,444.4490967 485.5177002,444.4490967 485.5177002,450 
		491.0686035,450 491.0686035,444.4490967 513.2719727,444.4490967 513.2719727,450 518.8225708,450 518.8225708,449.9995728 
		518.826355,449.9995728 518.826355,444.4490967 541.0257568,444.4490967 541.0257568,450 546.5801392,450 546.5801392,444.4490967 
		568.7835083,444.4488525 568.7835083,450 574.3342896,450 574.3342896,444.4490967 582.0148926,444.4490967 
		582.0200195,438.0567627 587.571106,438.0567627 587.571106,432.5062256 582.0200195,432.5062256 582.0200195,410.3027954 
		587.571106,410.3027954 587.571106,404.7520752 582.0202026,404.7520752 582.0202026,380.6986084 587.571106,380.6986084 
		587.571106,375.1477661 582.0202026,375.1477661 582.0202026,352.9443359 587.571106,352.9443359 587.571106,347.3937988 
		582.0202026,347.3937988 582.0202026,325.1905518 587.571106,325.1905518 587.571106,319.6397095 587.5692139,319.6397095 	"/>
</g>
<g>
	<polygon fill="none" stroke="#565440" points="207.975708,30.9252319 207.975708,30.9252319 53.7803345,30.925293 
		53.7803345,207.47229 53.7803955,325.1182251 238.807373,325.118103 238.807373,322.3427734 56.5557251,322.3428955 
		56.5557251,322.3427734 56.5556641,188.3833618 56.5556641,33.7006836 253.822937,33.7006226 253.822937,33.7005615 
		317.5761108,33.7005615 317.5761108,30.9251709 	"/>
	<g>
		<path fill="none" stroke="#565440" d="M136.1177673,125.9616013c-1.9943085,0-3.6259613-0.3625641-5.4390717-1.0878296
			c-1.8131409-0.7252808-3.4445724-1.8129654-4.7138214-3.0819931c-1.4504013-1.2692108-2.5382996-2.900856-3.2634048-4.7138138
			c-0.725296-1.8129578-1.0878525-3.6259689-1.0878525-5.620285l14.5039825-0.0000153 M136.1177673,105.4088669
			c-1.9943085,0-3.6259613-0.3625641-5.4390717-1.0878448c-1.8131409-0.7252731-3.4445724-1.8129501-4.7138214-3.0819855
			c-1.4504013-1.2692108-2.5382996-2.900856-3.2634048-4.7138138c-0.725296-1.8129578-1.0878525-3.6259689-1.0878525-5.6202774
			l14.5039825-0.0000076 M136.1174164,158.0782013c-2.0353241,0-3.7005005,0.3700104-5.5507355,1.1102142
			c-1.8502197,0.7400208-3.5155869,1.8502197-4.8107071,3.14534c-1.4802094,1.2953033-2.5904694,2.960495-3.3304901,4.8107147
			c-0.7400284,1.850235-1.1102066,3.7005005-1.1102066,5.7358246l14.8021393-0.0000153 M136.1174164,243.9914703
			c-2.0353241,0-3.7005005-0.3700256-5.5507355-1.1102142c-1.8502197-0.7400208-3.5155869-1.850235-4.8107071-3.1453552
			c-1.4802094-1.2952728-2.5904694-2.9604797-3.3304901-4.8107147c-0.7400284-1.8502197-1.1102066-3.7005005-1.1102066-5.7358246
			l14.8021393,0.0000153 M180.5240021,288.4272156c2.0353088,0,3.7005005,0.3699951,5.5507202,1.110199
			c1.850235,0.7400208,3.5155945,1.8502197,4.8107147,3.1453247c1.4802246,1.2953186,2.5904846,2.9605103,3.3305054,4.81073
			s1.1102142,3.7005005,1.1102142,5.7358398l-14.8021545-0.0000305 M270.6574097,295.6243591
			c2.0353088,0,3.7005005-0.3700256,5.5507202-1.1102295c1.8502197-0.7400208,3.5155945-1.8502197,4.8106995-3.1453552
			c1.4802246-1.2952881,2.5904846-2.9604797,3.3305054-4.8106995c0.7400208-1.8502502,1.110199-3.7005005,1.110199-5.7358398
			l-14.802124,0.0000305 M162.6082001,226.1287384c0,2.0353088-0.3700104,3.7005005-1.110199,5.5507202
			c-0.7400208,1.850235-1.8502197,3.5156097-3.14534,4.81073c-1.2953033,1.4802094-2.960495,2.5904694-4.8107147,3.3304901
			c-1.850235,0.7400208-3.7005005,1.1102142-5.7358398,1.1102142l0.0000305-14.8021545 M147.6056976,250.1899719
			c0,2.0353088,0.3700256,3.7005005,1.1102295,5.5507202c0.7400055,1.8502197,1.8502197,3.5155945,3.14534,4.81073
			c1.2952881,1.4802246,2.960495,2.5904541,4.8107147,3.3304749c1.850235,0.7400208,3.7005005,1.1102295,5.7358246,1.1102295
			l-0.0000153-14.8021545 M203.6748657,250.1899719c0,2.0353088-0.3700104,3.7005005-1.110199,5.5507202
			c-0.740036,1.8502197-1.850235,3.5155945-3.1453552,4.81073c-1.2953033,1.4802246-2.9604797,2.5904541-4.8107147,3.3304749
			s-3.7005005,1.1102295-5.7358246,1.1102295l0.0000153-14.8021545 M252.0692291,147.9654541
			c1.9210358,0,3.4927216,0.3492279,5.2390289,1.0478668c1.7463684,0.6986237,3.3181763,1.7463226,4.5405884,2.9689484
			c1.3970947,1.2223969,2.4450073,2.7942352,3.1434937,4.5405579s1.0478516,3.4927216,1.0478516,5.4137268l-13.9709473,0.0000153
			 M292.4716492,147.9654541c0-1.9210358-0.3492432-3.4927216-1.0478821-5.2390442
			c-0.6986084-1.7463531-1.7463379-3.318161-2.9689331-4.5405884c-1.2224121-1.3970795-2.7942505-2.4449921-4.5405579-3.1434631
			c-1.7463379-0.6984863-3.4927368-1.0478668-5.4137268-1.0478668l-0.0000305,13.9709473 M255.8384552,213.1748505
			c2.5750885,0,4.6818695-0.4681396,7.0227509-1.4046326s4.4478455-2.3408813,6.0864563-3.9797516
			c1.8727417-1.6385803,3.2774353-3.7455597,4.2137146-6.0864563s1.4046326-4.681839,1.4046326-7.2569122h-18.7275391"/>
	</g>
	<g>
		<rect x="198.3397827" y="30.000061" fill="#565440" width="12.128479" height="9.2514648"/>
		<polygon fill="#565440" points="62.1066284,109.6882935 136.1173096,109.6881714 136.1173096,111.4576416 137.9675903,111.4576416 
			137.9679565,105.4088745 136.1177979,105.4088745 136.1177979,107.8379517 62.1066284,107.8380127 62.1066284,85.5081177 
			63.9475708,85.5081177 63.9475708,72.5562744 52.8552246,72.5562744 52.8552246,124.3639526 62.1066284,124.3639526 		"/>
		<polygon fill="#565440" points="136.1173096,90.9049072 137.9675903,90.9049072 137.9675903,39.2515259 140.2816162,39.2515259 
			140.2816162,41.0924072 156.4703369,41.0924072 156.4703369,39.2515259 172.1286011,39.2515259 172.1286011,30.000061 
			119.9274292,30.000061 119.9274292,39.2515259 136.1173096,39.2515259 		"/>
		<rect x="80.6092529" y="30.000061" fill="#565440" width="12.9517822" height="11.0923462"/>
		<polygon fill="#565440" points="250.2876587,147.9654541 252.1379395,147.9654541 252.1379395,145.6871338 255.8384399,145.6871338 
			255.8384399,41.0924072 266.576355,41.0924072 266.576355,39.2515259 288.8035889,39.2515259 288.8035889,30.000061 
			236.74823,30.000061 236.74823,39.2515259 250.2874756,39.2515259 		"/>
		<polygon fill="#565440" points="62.1066895,250.1899414 147.6057129,250.1898804 147.6057129,248.3397217 137.9676514,248.3397217 
			137.9676514,243.9914551 136.1174927,243.9914551 136.1174927,248.3397217 62.1066895,248.3397217 62.1066284,229.8292236 
			52.8552856,229.8292236 52.8552856,281.6367188 63.9475708,281.6367188 63.9475708,268.6848145 62.1066895,268.6848145 		"/>
		<polygon fill="#565440" points="62.1066284,190.9736328 136.1174927,190.9735718 136.1174927,229.1893311 137.9676514,229.1893311 
			137.9676514,226.1287231 147.8060913,226.1287231 147.8060913,224.2784424 137.9676514,224.2784424 137.9676514,190.9735718 
			182.6674194,190.9735718 182.6674194,224.2783813 162.6081543,224.2783813 162.6081543,226.1287231 184.5176392,226.1287231 
			184.5176392,143.0668335 137.9676514,143.0668335 137.9676514,125.3163452 136.1173706,125.3163452 136.1173706,158.078186 
			137.9676514,158.078186 137.9676514,144.9171143 182.6673584,144.9171143 182.6673584,185.4226074 137.9676514,185.4226685 
			137.9676514,172.880249 136.1173706,172.880249 136.1174927,185.4226685 63.9475708,185.4226685 63.9475708,173.5118408 
			62.1066284,173.5118408 62.1066284,151.3939209 52.8552246,151.3939209 52.8552246,202.1036987 62.1066284,202.1036987 		"/>
		<rect x="80.609314" y="314.9509888" fill="#565440" width="12.9517822" height="11.0923462"/>
		<rect x="199.0266113" y="316.7918091" fill="#565440" width="12.9519043" height="9.2514648"/>
		<polygon fill="#565440" points="162.4725342,248.3397217 162.4725342,250.1898804 178.673584,250.1899414 178.673584,275.1906128 
			134.2672119,275.1906128 134.2672119,316.7918091 128.7163086,316.7918091 128.7163086,326.0432739 180.5239868,326.0432739 
			180.5239868,303.2293091 178.673584,303.2293091 178.673584,314.9509888 167.5719604,314.9509888 167.5719604,316.7918091 
			136.1174927,316.7918091 136.1174927,277.0408325 178.673584,277.0408325 178.673584,288.4272461 180.5239868,288.4272461 
			180.5239868,250.1899414 188.8727417,250.1899414 188.8727417,248.3397217 		"/>
		<polygon fill="#565440" points="255.8384399,233.5297852 255.8384399,213.1748657 250.2874756,213.1748657 250.2874756,237.2300415 
			204.4934082,237.2300415 204.4934082,248.3397217 203.6748657,248.3397217 203.6748657,250.1899414 206.3440552,250.1899414 
			206.343689,239.0803223 250.2874756,239.0803223 250.2874756,239.0805664 268.8226929,239.0805664 268.8226929,280.8222046 
			270.6731567,280.8222046 270.6731567,239.0805664 308.1925659,239.0805664 308.1925659,314.9509888 270.6574097,314.9509888 
			270.6574097,295.6243286 268.8070068,295.6243286 268.8070068,314.9509888 237.8822021,314.9509888 237.8822021,326.0431519 
			317.4437256,326.0431519 317.4436646,233.5297852 		"/>
		<polygon fill="#565440" points="314.6784058,30.000061 314.6784058,147.9656372 292.3742065,147.9656372 292.3742065,149.815918 
			314.6784058,149.815918 314.6784058,185.4226074 277.2418213,185.4226074 277.2418213,149.815918 278.4969482,149.815918 
			278.4969482,147.9656372 275.3915405,147.9656372 275.3915405,185.4226074 255.8384399,185.4226074 255.8384399,173.460144 
			252.1377563,173.460144 252.1377563,161.4326172 250.2874756,161.4326172 250.2874756,194.4470825 255.8384399,194.4470825 
			255.8384399,190.9735718 320.2293701,190.9735107 320.2293701,30.000061 		"/>
	</g>
</g>
<g>
	<polygon fill="none" stroke="#565440" points="638.4656372,237.2301941 638.4656372,240.0056 666.22229,240.0056 
		666.2196045,30.9251347 510.7969971,30.9251347 510.7969971,30.9252148 325.0245361,30.9252148 325.0245361,33.7006187 
		512.3400269,33.7005386 663.4442749,33.7005386 663.4442749,237.2301941 	"/>
	<g>
		<rect x="470.3978271" y="30" fill="#565440" width="12.8398438" height="9.2514038"/>
		<polygon fill="#565440" points="578.0706177,126.3608398 579.9208374,126.3608398 579.9208374,39.2514038 600.5350342,39.2514038 
			600.5350342,30 548.727356,30 548.727356,41.0922852 561.6791992,41.0922852 561.6791992,39.2514038 578.0706177,39.2514038 
			578.0706177,121.1216431 531.4656372,121.1216431 531.4656372,122.9719238 578.0706177,122.9719238 		"/>
		<polygon fill="#565440" points="556.9034424,180.7510986 555.0532837,180.7510986 555.0532837,186.7227783 549.2878418,186.7227783 
			549.2878418,188.5730591 555.0532837,188.5730591 555.0532837,231.6793213 513.5723267,231.6793213 513.5724487,188.5728149 
			533.6316528,188.5728149 533.6316528,186.7226563 513.5724487,186.7226563 513.5724487,185.4227295 505.6953125,185.4227295 
			505.6953125,147.0012207 555.0532837,147.0012207 555.0532837,166.9044189 556.9034424,166.9044189 556.9034424,154.2716675 
			559.7852783,154.2716675 559.7852783,152.4214478 556.9034424,152.4214478 556.9034424,145.1509399 556.9034424,145.1508179 
			488.9766846,145.1509399 488.9766846,147.0012207 503.8448486,147.0012207 503.8448486,185.4227295 467.3623047,185.4228516 
			467.3623047,147.0012207 474.1744995,147.0012207 474.1744995,145.1509399 439.932312,145.1508179 439.932312,145.1509399 
			439.9321899,145.1509399 439.932312,148.8189697 441.7827148,148.8189697 441.7827148,147.0014038 465.5119019,147.0012207 
			465.5119019,185.4228516 441.7827148,185.4226685 441.7827148,162.7456055 439.932312,162.7456055 439.932312,185.4226685 
			426.9741821,185.4228516 426.9741821,190.9735718 508.0216064,190.9734497 508.0216064,240.9306641 639.3907471,240.9306641 
			639.3907471,231.6793213 556.9034424,231.6793213 		"/>
		<polygon fill="#565440" points="383.5264282,167.6533813 381.6759644,167.6533813 381.6759644,185.4226074 359.2871704,185.4226074 
			359.2871704,175.1624146 357.4367065,175.1624146 357.4367065,185.4226074 320.2293701,185.4226074 320.2293701,149.8156738 
			357.4367065,149.8156738 357.4367065,161.2357178 359.2871704,161.2357178 359.2871704,147.9654541 359.1307373,147.9654541 
			359.1307373,147.96521 320.2293701,147.96521 320.2293701,39.2515259 327.789856,39.2515259 327.789856,30.000061 
			314.6785278,30.000061 314.6785278,190.9736328 407.5889282,190.9735718 407.5889282,185.4228516 383.5264282,185.4226074 		"/>
		<rect x="626.4387817" y="30" fill="#565440" width="12.9519043" height="11.0922852"/>
		<polygon fill="#565440" points="579.9208374,152.4212646 579.9208374,141.1629639 578.0706177,141.1629639 578.0706177,152.4212646 
			574.5874634,152.4212646 574.5874634,154.2714844 656.0523682,154.2714844 656.0523682,163.491333 657.8933716,163.491333 
			657.8933716,203.925293 667.1447754,203.925293 667.1447754,152.4212646 667.1447144,152.4212646 		"/>
		<polygon fill="#565440" points="657.8933716,124.6847534 667.1447754,124.6847534 667.1447144,72.5560913 656.0523682,72.5560913 
			656.0523682,85.5079956 657.8933716,85.5079956 		"/>
		<polygon fill="#565440" points="516.6635132,122.972229 516.6635132,121.1220093 513.5723877,121.1220093 513.5723267,39.2514038 
			522.4086914,39.2514038 522.4086914,30 508.0216064,30 508.0216675,122.972168 		"/>
		<rect x="431.3983154" y="30.000061" fill="#565440" width="13.1906128" height="11.0923462"/>
		<polygon fill="#565440" points="372.7084961,41.0924072 377.9755249,41.0924072 377.9755249,153.4907837 383.5264282,153.4907837 
			383.5264282,41.0924072 388.862854,41.0924072 388.862854,39.2515259 406.4989014,39.2515259 406.4989014,30.000061 
			353.9310303,30.000061 353.9310303,39.2515259 372.7084961,39.2515259 		"/>
	</g>
	<path fill="none" stroke="#565440" d="M439.9320374,162.745636c-1.8104553,0-3.4815674-0.4178162-5.1528625-1.114151
		c-1.6712036-0.6962891-3.3424683-1.6712799-4.5957947-3.0639191c-1.2532959-1.2534485-2.3674622-2.7852936-3.0637512-4.4565582
		c-0.6963501-1.6712952-1.1141663-3.4816132-1.1141663-5.2920685h13.9266968 M556.9035645,166.9044037
		c1.8104858,0,3.4816284,0.4178162,5.1528931,1.114151c1.6712036,0.6963043,3.3424683,1.6712799,4.5958252,3.0639191
		c1.2532959,1.2534485,2.3674316,2.7852936,3.0637207,4.4565582c0.6963501,1.6713104,1.1141968,3.4816284,1.1141968,5.2920837
		h-13.9267578 M383.4818115,167.6533813c1.8104553,0,3.4815674-0.4178314,5.1528625-1.1141357
		c1.6712036-0.6963043,3.3424683-1.6712952,4.5957947-3.0639343c1.2532959-1.2534485,2.3674622-2.7852936,3.0637817-4.4565582
		c0.6962891-1.6712952,1.1141357-3.4816132,1.1141357-5.2920685h-13.9266968 M359.2872925,161.2357178
		c1.8104553,0,3.4815674,0.4178162,5.1528931,1.1141357c1.6711731,0.6962891,3.3424377,1.6712799,4.5957642,3.0639191
		c1.2532959,1.2534485,2.3674622,2.7853088,3.0637817,4.4565735c0.6962891,1.6712799,1.1141663,3.4816132,1.1141663,5.2920532
		h-13.9267273 M474.1744995,145.1509857c0-2.0353241,0.3700256-3.7005157,1.1102295-5.5507355
		s1.8502808-3.5153656,3.1453552-4.8107147c1.295166-1.4802094,2.9605103-2.5904846,4.81073-3.3305054
		c1.8502808-0.7401886,3.7005005-1.1101837,5.7358398-1.1101837v14.8021393 M426.9741516,190.973465
		c0,2.6654816-0.4845581,4.8462677-1.453949,7.2693481c-0.9693909,2.4230957-2.4231567,4.603775-4.1192322,6.3002014
		c-1.696167,1.9385223-3.8771362,3.3925476-6.3002014,4.3617096c-2.4231567,0.9693604-4.8462524,1.4539337-7.5118103,1.4539337
		V190.973465 M516.6634521,121.1220245c0-2.0353317,0.3699951-3.7005157,1.1102295-5.5509033
		c0.7402344-1.8503952,1.8502808-3.515358,3.1453857-4.8107147c1.295105-1.4802246,2.9604492-2.5904846,4.81073-3.3304977
		c1.8502197-0.7401886,3.7004395-1.1102142,5.7358398-1.1102142v14.8021469 M559.7852783,152.4212799
		c0-2.0353394,0.3699951-3.7005157,1.1101685-5.5509033c0.7402344-1.8503876,1.8502808-3.5153656,3.1453857-4.8107147
		c1.295166-1.4802246,2.9605103-2.5904846,4.81073-3.3304901c1.8502808-0.7402039,3.7005005-1.1102295,5.7358398-1.1102295
		v14.8021545 M579.9208374,126.360878c2.0353394,0,3.7005005,0.3700027,5.5509033,1.1102219
		c1.8504028,0.7402039,3.5153198,1.8502502,4.81073,3.1453552c1.4802246,1.2951355,2.5904541,2.9604797,3.3305054,4.8107147
		c0.7401733,1.8502655,1.1101685,3.7005005,1.1101685,5.7358551h-14.802124"/>
</g>
<g >
	<rect x="355" y="-0.0001" fill="none" width="10" height="10"/>
	<rect x="22.8552094" y="235" fill="none" width="10" height="10"/>
	<rect x="355" y="469.9999084" fill="none" width="10" height="10"/>
	<rect x="686.7147217" y="235" fill="none" width="10" height="10"/>
</g>
<g >
	<path data-nr="1" class="plan__svg__hoverable" fill="none" d="M320.2293701,190.9735107V30.000061h-5.5509644v0.4252319h-25.8748169V30.000061
		H236.74823v0.4252319h-26.2799683V30.000061h-12.128479v0.4252319h-26.2111816V30.000061h-52.2011719v0.4252319h-26.366394
		V30.000061H80.6092529v0.4252319H53.2802734v42.1309814h-0.4250488v51.8076782h0.4250488v27.0299683h-0.4250488v50.7097778
		h0.4250488v27.7255249h-0.4249878v51.8074951h0.4249878v43.9814453H80.609314v0.4251709h12.9517822v-0.4251709h35.1552124
		v0.4251099h51.8076782v-0.4251099h18.5026245v0.4251099h12.9519043v-0.4251099h25.9036865v0.4249878h79.5615234
		l-0.000061-92.5133667h-61.6052246v-19.8549805c2.5288086,0,4.6849976-0.4306641,7.2084351-1.4404297
		c2.3598633-0.9443359,4.5229492-2.3588867,6.2299805-4.0673828c1.8764648-1.6420898,3.3393555-3.7539063,4.3491211-6.2773438
		c0.96875-2.4233398,1.4399414-4.8574219,1.4399414-7.4423828v-0.5h-19.227478v-2.9736938L320.2293701,190.9735107z
		 M274.0595703,194.9472656c-0.0566406,2.2705078-0.5039063,4.425293-1.3623047,6.5712891
		c-0.9501953,2.375-2.3227539,4.3588867-4.1030273,5.918457c-1.6367188,1.6367188-3.6835938,2.9746094-5.918457,3.8686523
		c-2.3984375,0.9599609-4.4432983,1.3691406-6.8373413,1.3691406v-17.7275391H274.0595703z"/>
	<path data-nr="2" class="plan__svg__hoverable" fill="none" d="M666.7214355,152.4212646l-0.0003662-27.7365112h0.4237061l-0.000061-52.1286621
		h-0.4243774l-0.0006104-42.1307983H639.390686V30h-12.9519043v0.425293h-25.9037476V30H548.727356v0.425293h-26.3186646V30
		h-14.387085v0.425293h-24.7839355V30h-12.8398438v0.425293h-25.8088989V30.000061h-13.1906128v0.4252319h-24.8994141V30.000061
		h-52.5678711v0.4252319H327.789856V30.000061h-13.1113281v160.9735718l92.4103394-0.000061v19.8853149h0.5
		c2.6738281,0,5.1914063-0.4873047,7.6972656-1.4897461c2.6103516-1.0444336,4.7939453-2.5571289,6.46875-4.4726563
		c1.7910156-1.7919922,3.2539063-4.0288086,4.2294922-6.4682617c1.034668-2.5862427,1.4782715-4.8728638,1.4868774-7.4546509
		l80.550354-0.0001221v49.9572144h131.3691406v-0.425293h27.3319092l-0.0004883-36.5800781h0.4226074v-51.5040283h-0.000061
		H666.7214355z M425.0566406,198.0571289c-0.9267578,2.3144531-2.3125,4.4355469-4.03125,6.1567383
		c-1.5927734,1.8198242-3.6484375,3.2416992-6.1103516,4.2265625c-2.2617188,0.9047852-4.4433594,1.3579102-6.8261719,1.4125977
		v-18.8795776h18.3823853C426.4626465,193.4207153,426.0405273,195.5963745,425.0566406,198.0571289z"/>
</g>
</svg>
