<svg width="486" height="140" viewBox="0 0 486 140" fill="none" xmlns="http://www.w3.org/2000/svg">
<path d="M1 3.34817V136.832H12.0183V84.9922H40.5576C54.8272 84.9922 65.6649 81.0183 73.2513 73.0707C81.0183 64.9424 84.8115 55.3691 84.8115 44.1702C84.8115 33.1518 81.199 23.5785 73.7932 15.4503C66.5681 7.32199 56.0916 3.34817 42.1833 3.34817H1ZM12.0183 74.6963V13.8246H42.7251C61.6911 13.8246 73.6126 26.4686 73.6126 43.9895C73.6126 61.5105 61.1492 74.6963 40.7382 74.6963H12.0183Z" stroke="#C49F8A"/>
<path d="M189.016 136.832L136.092 3.34817H130.131L76.8455 136.832H88.9476L104.843 96.3717H161.018L176.914 136.832H189.016ZM157.406 86.0759H108.455L133.021 23.0366L157.406 86.0759Z" stroke="#C49F8A"/>
<path d="M288.243 136.832L252.478 79.3927C263.135 77.4058 271.264 73.0707 276.863 66.0262C282.643 58.9817 285.533 50.8534 285.533 42.0026C285.533 31.5262 281.921 22.4948 274.515 14.9084C267.29 7.14136 256.813 3.34817 243.266 3.34817H202.986V136.832H214.004V80.4764H240.737L274.876 136.832H288.243ZM243.447 13.8246C262.413 13.8246 274.154 25.2042 274.154 41.6414C274.154 58.4398 262.413 70 240.737 70H214.004V13.8246H243.447Z" stroke="#C49F8A"/>
<path d="M403.69 136.832L345.166 66.3874L398.632 3.34817H385.265L318.614 81.3796V3.34817H307.595V136.832H318.614V96.733L337.76 74.3351L389.601 136.832H403.69Z" stroke="#C49F8A"/>
<path d="M443.105 139C455.026 139 464.961 135.568 472.908 128.885C481.037 122.021 485.01 113.17 485.01 102.332C485.01 89.3272 477.785 79.0314 463.516 71.2644C460.806 69.8194 455.749 67.4712 448.343 64.2199C440.937 60.9686 436.06 58.6204 433.712 57.356C423.055 51.7565 417.636 44.3508 417.636 35.1387C417.636 20.8691 428.835 11.2958 444.55 11.2958C456.471 11.2958 466.225 16.7147 473.811 27.5524L482.12 20.8691C472.908 7.68325 460.264 1 444.369 1C432.989 1 423.597 4.25131 416.552 10.9346C409.508 17.4372 406.076 25.7461 406.076 35.6806C406.076 49.2278 413.662 59.8848 428.835 67.4712C431.183 68.7356 435.518 70.7225 442.021 73.6126C448.704 76.5026 453.22 78.6702 455.749 79.9346C467.309 85.7147 473.27 92.3979 473.27 102.694C473.27 110.099 470.38 116.241 464.78 121.118C459.181 125.995 451.775 128.524 442.743 128.524C427.029 128.524 414.746 119.853 408.063 105.223L399.212 111.183C407.34 129.427 424.319 139 443.105 139Z" stroke="#C49F8A"/>
</svg>
