<svg width="1033" height="296" viewBox="0 0 1033 296" fill="none" xmlns="http://www.w3.org/2000/svg">
<path d="M1 6.00262V290.382H24.4738V179.94H85.2749C115.675 179.94 138.764 171.474 154.927 154.542C171.474 137.225 179.555 116.83 179.555 92.9712C179.555 69.4974 171.859 49.1021 156.081 31.7853C140.688 14.4686 118.369 6.00262 88.7382 6.00262H1ZM24.4738 158.005V28.322H89.8927C130.298 28.322 155.696 55.2592 155.696 92.5864C155.696 129.914 129.144 158.005 85.6597 158.005H24.4738Z" stroke="#C49F8A"/>
<path d="M401.555 290.382L288.804 6.00262H276.105L162.584 290.382H188.367L222.231 204.183H341.909L375.772 290.382H401.555ZM334.212 182.249H229.927L282.262 47.9476L334.212 182.249Z" stroke="#C49F8A"/>
<path d="M612.952 290.382L536.758 168.01C559.462 163.777 576.779 154.542 588.708 139.534C601.022 124.526 607.18 107.209 607.18 88.3534C607.18 66.034 599.483 46.7932 583.706 30.6309C568.313 14.0838 545.994 6.00262 517.132 6.00262H431.318V290.382H454.792V170.319H511.745L584.475 290.382H612.952ZM517.517 28.322C557.923 28.322 582.936 52.5654 582.936 87.5838C582.936 123.372 557.923 148 511.745 148H454.792V28.322H517.517Z" stroke="#C49F8A"/>
<path d="M858.904 290.382L734.223 140.304L848.129 6.00262H819.653L677.655 172.243V6.00262H654.181V290.382H677.655V204.953L718.446 157.236L828.888 290.382H858.904Z" stroke="#C49F8A"/>
<path d="M942.875 295C968.273 295 989.438 287.689 1006.37 273.45C1023.69 258.827 1032.15 239.971 1032.15 216.882C1032.15 189.175 1016.76 167.241 986.359 150.694C980.587 147.615 969.812 142.613 954.035 135.686C938.257 128.759 927.867 123.757 922.865 121.063C900.16 109.134 888.616 93.356 888.616 73.7304C888.616 43.3298 912.475 22.9345 945.954 22.9345C971.352 22.9345 992.132 34.4791 1008.29 57.5681L1026 43.3298C1006.37 15.2382 979.433 1 945.569 1C921.325 1 901.315 7.9267 886.307 22.1649C871.299 36.0183 863.988 53.7199 863.988 74.8848C863.988 103.746 880.15 126.45 912.475 142.613C917.477 145.306 926.713 149.539 940.566 155.696C954.804 161.853 964.425 166.471 969.812 169.165C994.441 181.479 1007.14 195.717 1007.14 217.652C1007.14 233.429 1000.98 246.513 989.053 256.903C977.124 267.293 961.346 272.681 942.105 272.681C908.626 272.681 882.459 254.209 868.221 223.039L849.365 235.738C866.681 274.605 902.854 295 942.875 295Z" stroke="#C49F8A"/>
</svg>
