<svg width="1032" height="294" viewBox="0 0 1032 294" fill="none" xmlns="http://www.w3.org/2000/svg">
<path d="M0 5.00262V289.382H23.4738V178.94H84.2749C114.675 178.94 137.764 170.474 153.927 153.542C170.474 136.225 178.555 115.83 178.555 91.9712C178.555 68.4974 170.859 48.1021 155.081 30.7853C139.688 13.4686 117.369 5.00262 87.7382 5.00262H0ZM23.4738 157.005V27.322H88.8927C129.298 27.322 154.696 54.2592 154.696 91.5864C154.696 128.914 128.144 157.005 84.6597 157.005H23.4738Z" fill="#C49F8A"/>
<path d="M400.555 289.382L287.804 5.00262H275.105L161.584 289.382H187.367L221.231 203.183H340.909L374.772 289.382H400.555ZM333.212 181.249H228.927L281.262 46.9476L333.212 181.249Z" fill="#C49F8A"/>
<path d="M611.952 289.382L535.758 167.01C558.462 162.777 575.779 153.542 587.708 138.534C600.022 123.526 606.18 106.209 606.18 87.3534C606.18 65.034 598.483 45.7932 582.706 29.6309C567.313 13.0838 544.994 5.00262 516.132 5.00262H430.318V289.382H453.792V169.319H510.745L583.475 289.382H611.952ZM516.517 27.322C556.923 27.322 581.936 51.5654 581.936 86.5838C581.936 122.372 556.923 147 510.745 147H453.792V27.322H516.517Z" fill="#C49F8A"/>
<path d="M857.904 289.382L733.223 139.304L847.129 5.00262H818.653L676.655 171.243V5.00262H653.181V289.382H676.655V203.953L717.446 156.236L827.888 289.382H857.904Z" fill="#C49F8A"/>
<path d="M941.875 294C967.273 294 988.438 286.689 1005.37 272.45C1022.69 257.827 1031.15 238.971 1031.15 215.882C1031.15 188.175 1015.76 166.241 985.359 149.694C979.587 146.615 968.812 141.613 953.035 134.686C937.257 127.759 926.867 122.757 921.865 120.063C899.16 108.134 887.616 92.356 887.616 72.7304C887.616 42.3298 911.475 21.9345 944.954 21.9345C970.352 21.9345 991.132 33.4791 1007.29 56.5681L1025 42.3298C1005.37 14.2382 978.433 0 944.569 0C920.325 0 900.315 6.9267 885.307 21.1649C870.299 35.0183 862.988 52.7199 862.988 73.8848C862.988 102.746 879.15 125.45 911.475 141.613C916.477 144.306 925.713 148.539 939.566 154.696C953.804 160.853 963.425 165.471 968.812 168.165C993.441 180.479 1006.14 194.717 1006.14 216.652C1006.14 232.429 999.982 245.513 988.053 255.903C976.124 266.293 960.346 271.681 941.105 271.681C907.626 271.681 881.459 253.209 867.221 222.039L848.365 234.738C865.681 273.605 901.854 294 941.875 294Z" fill="#C49F8A"/>
</svg>
