<?xml version="1.0" encoding="utf-8"?>
<!-- Generator: Adobe Illustrator 26.0.3, SVG Export Plug-In . SVG Version: 6.00 Build 0)  -->
<svg version="1.1" xmlns="http://www.w3.org/2000/svg" xmlns:xlink="http://www.w3.org/1999/xlink" x="0px" y="0px"
	 viewBox="0 0 720 480" style="enable-background:new 0 0 720 480;" xml:space="preserve">
<style type="text/css">
	.st0{fill:#DBD4CA;}
	.st1{clip-path:url(#SVGID_00000120535541714583837670000013215310299848603572_);}
	.st2{fill:none;stroke:#C49F8A;stroke-miterlimit:10;}
	.st3{opacity:0.3;clip-path:url(#SVGID_00000047743578194495793310000006918296134586759613_);}
	.st4{opacity:0.7;fill:#C49F8A;enable-background:new    ;}
	.st5{fill:none;stroke:#565440;}
	.st6{fill:none;stroke:#565440;stroke-width:1;stroke-miterlimit:4.0004;}
	.st7{fill:#565440;}
	.st8{fill:#E9E4DC;}
	.st9{fill:#C49F8A;}
	.st10{fill:#E9E4DC;stroke:#C49F8A;}
	.st11{fill:#E9E4DC;stroke:#C49F8A;stroke-miterlimit:3.9998;}
	.st12{fill:none;stroke:#C49F8A;}
	.st13{opacity:0.7;}
	.st14{fill:#3F3F3F;fill-opacity:0;}
</style>
<g id="_x31__x5F_2">
	<polygon id="Floor_1_" class="st0" points="399.1,391.9 478.3,412.3 482.3,396.3 514.3,396.3 514.3,60 202,60 202,389.9 
		257.9,390.8 332.9,409.8 337.9,393.6 	"/>
	<g id="Wet_Floor_1_">
		<g>
			<g>
				<defs>
					<rect id="SVGID_1_" x="206.2" y="70.5" width="152" height="93.1"/>
				</defs>
				<clipPath id="SVGID_00000067954200048644056240000009187847997617924019_">
					<use xlink:href="#SVGID_1_"  style="overflow:visible;"/>
				</clipPath>
				<g style="clip-path:url(#SVGID_00000067954200048644056240000009187847997617924019_);">
					<g>
						<line class="st2" x1="-47.5" y1="62.6" x2="286" y2="-270.9"/>
						<line class="st2" x1="-57.9" y1="52.2" x2="275.6" y2="-281.3"/>
						<line class="st2" x1="-37" y1="73" x2="296.4" y2="-260.5"/>
						<line class="st2" x1="-26.6" y1="83.4" x2="306.9" y2="-250.1"/>
						<line class="st2" x1="-16.2" y1="93.8" x2="317.3" y2="-239.6"/>
						<line class="st2" x1="-5.8" y1="104.3" x2="327.7" y2="-229.2"/>
						<line class="st2" x1="4.6" y1="114.7" x2="338.1" y2="-218.8"/>
						<line class="st2" x1="15.1" y1="125.1" x2="348.5" y2="-208.4"/>
						<line class="st2" x1="25.5" y1="135.5" x2="359" y2="-198"/>
						<line class="st2" x1="35.9" y1="146" x2="369.4" y2="-187.5"/>
						<line class="st2" x1="25.5" y1="135.5" x2="359" y2="-198"/>
						<line class="st2" x1="46.3" y1="156.4" x2="379.8" y2="-177.1"/>
						<line class="st2" x1="56.8" y1="166.8" x2="390.2" y2="-166.7"/>
						<line class="st2" x1="67.2" y1="177.2" x2="400.7" y2="-156.3"/>
						<line class="st2" x1="77.6" y1="187.6" x2="411.1" y2="-145.8"/>
						<line class="st2" x1="88" y1="198.1" x2="421.5" y2="-135.4"/>
						<line class="st2" x1="98.4" y1="208.5" x2="431.9" y2="-125"/>
						<line class="st2" x1="108.9" y1="218.9" x2="442.3" y2="-114.6"/>
						<line class="st2" x1="119.3" y1="229.3" x2="452.8" y2="-104.2"/>
						<line class="st2" x1="108.9" y1="218.9" x2="442.3" y2="-114.6"/>
						<line class="st2" x1="129.7" y1="239.7" x2="463.2" y2="-93.7"/>
						<line class="st2" x1="140.1" y1="250.2" x2="473.6" y2="-83.3"/>
						<line class="st2" x1="150.5" y1="260.6" x2="484" y2="-72.9"/>
						<line class="st2" x1="161" y1="271" x2="494.4" y2="-62.5"/>
						<line class="st2" x1="171.4" y1="281.4" x2="504.9" y2="-52.1"/>
						<line class="st2" x1="181.8" y1="291.9" x2="515.3" y2="-41.6"/>
						<line class="st2" x1="192.2" y1="302.3" x2="525.7" y2="-31.2"/>
						<line class="st2" x1="202.7" y1="312.7" x2="536.1" y2="-20.8"/>
						<line class="st2" x1="192.2" y1="302.3" x2="525.7" y2="-31.2"/>
						<line class="st2" x1="213.1" y1="323.1" x2="546.6" y2="-10.4"/>
						<line class="st2" x1="223.5" y1="333.5" x2="557" y2="0.1"/>
						<line class="st2" x1="233.9" y1="344" x2="567.4" y2="10.5"/>
						<line class="st2" x1="244.3" y1="354.4" x2="577.8" y2="20.9"/>
						<line class="st2" x1="254.8" y1="364.8" x2="588.2" y2="31.3"/>
						<line class="st2" x1="265.2" y1="375.2" x2="598.7" y2="41.7"/>
						<line class="st2" x1="275.6" y1="385.6" x2="609.1" y2="52.2"/>
					</g>
					<g>
						<line class="st2" x1="286" y1="375.2" x2="-47.5" y2="41.7"/>
						<line class="st2" x1="275.6" y1="385.6" x2="-57.9" y2="52.2"/>
						<line class="st2" x1="296.4" y1="364.8" x2="-37" y2="31.3"/>
						<line class="st2" x1="306.9" y1="354.4" x2="-26.6" y2="20.9"/>
						<line class="st2" x1="317.3" y1="344" x2="-16.2" y2="10.5"/>
						<line class="st2" x1="327.7" y1="333.5" x2="-5.8" y2="0.1"/>
						<line class="st2" x1="338.1" y1="323.1" x2="4.6" y2="-10.4"/>
						<line class="st2" x1="348.5" y1="312.7" x2="15.1" y2="-20.8"/>
						<line class="st2" x1="359" y1="302.3" x2="25.5" y2="-31.2"/>
						<line class="st2" x1="369.4" y1="291.9" x2="35.9" y2="-41.6"/>
						<line class="st2" x1="359" y1="302.3" x2="25.5" y2="-31.2"/>
						<line class="st2" x1="379.8" y1="281.4" x2="46.3" y2="-52.1"/>
						<line class="st2" x1="390.2" y1="271" x2="56.8" y2="-62.5"/>
						<line class="st2" x1="400.7" y1="260.6" x2="67.2" y2="-72.9"/>
						<line class="st2" x1="411.1" y1="250.2" x2="77.6" y2="-83.3"/>
						<line class="st2" x1="421.5" y1="239.7" x2="88" y2="-93.7"/>
						<line class="st2" x1="431.9" y1="229.3" x2="98.4" y2="-104.2"/>
						<line class="st2" x1="442.3" y1="218.9" x2="108.9" y2="-114.6"/>
						<line class="st2" x1="452.8" y1="208.5" x2="119.3" y2="-125"/>
						<line class="st2" x1="442.3" y1="218.9" x2="108.9" y2="-114.6"/>
						<line class="st2" x1="463.2" y1="198.1" x2="129.7" y2="-135.4"/>
						<line class="st2" x1="473.6" y1="187.6" x2="140.1" y2="-145.8"/>
						<line class="st2" x1="484" y1="177.2" x2="150.5" y2="-156.3"/>
						<line class="st2" x1="494.4" y1="166.8" x2="161" y2="-166.7"/>
						<line class="st2" x1="504.9" y1="156.4" x2="171.4" y2="-177.1"/>
						<line class="st2" x1="515.3" y1="146" x2="181.8" y2="-187.5"/>
						<line class="st2" x1="525.7" y1="135.5" x2="192.2" y2="-198"/>
						<line class="st2" x1="536.1" y1="125.1" x2="202.7" y2="-208.4"/>
						<line class="st2" x1="525.7" y1="135.5" x2="192.2" y2="-198"/>
						<line class="st2" x1="546.6" y1="114.7" x2="213.1" y2="-218.8"/>
						<line class="st2" x1="557" y1="104.3" x2="223.5" y2="-229.2"/>
						<line class="st2" x1="567.4" y1="93.8" x2="233.9" y2="-239.6"/>
						<line class="st2" x1="577.8" y1="83.4" x2="244.3" y2="-250.1"/>
						<line class="st2" x1="588.2" y1="73" x2="254.8" y2="-260.5"/>
						<line class="st2" x1="598.7" y1="62.6" x2="265.2" y2="-270.9"/>
						<line class="st2" x1="609.1" y1="52.2" x2="275.6" y2="-281.3"/>
					</g>
				</g>
			</g>
		</g>
		<g>
			<g>
				<defs>
					<rect id="SVGID_00000078032222497840143320000004683198703588418725_" x="206.2" y="70.5" width="152" height="93.1"/>
				</defs>
				<clipPath id="SVGID_00000098218974502208173410000000597025729794474687_">
					<use xlink:href="#SVGID_00000078032222497840143320000004683198703588418725_"  style="overflow:visible;"/>
				</clipPath>
				<g style="opacity:0.3;clip-path:url(#SVGID_00000098218974502208173410000000597025729794474687_);">
					<rect x="114.5" y="-119.3" class="st4" width="322.2" height="322.2"/>
				</g>
			</g>
		</g>
	</g>
	<path id="Doors" class="st5" d="M354.2,122.3c-4.9,0-8.8,0.9-13.2,2.6c-4.4,1.8-8.4,4.4-11.5,7.5c-3.5,3.1-6.2,7.1-7.9,11.5
		c-1.8,4.4-2.6,8.8-2.6,13.7h35.3 M354.2,233.5c-4.9,0-8.8-0.9-13.2-2.6c-4.4-1.8-8.4-4.4-11.5-7.5c-3.5-3.1-6.2-7.1-7.9-11.5
		c-1.8-4.4-2.6-8.8-2.6-13.7h35.3 M371,60.4c0-5.7,1.3-11.4,3.5-16.7s5.3-10.6,9.7-14.6c4-4,8.8-7.5,14.1-9.7
		c5.3-2.2,11-3.5,16.8-3.5v44.5"/>
	<g id="Windows">
		
			<rect x="293.8" y="364.3" transform="matrix(0.2515 -0.9679 0.9679 0.2515 -168.6432 589.9092)" class="st6" width="6.6" height="79.4"/>
		<polygon class="st5" points="399.6,398.3 401.3,391.9 474.6,410.9 473,417.3 		"/>
	</g>
	<g id="Walls_1_">
		<g>
			<path class="st7" d="M199,399.7h61.8v-26.4h-48.5V165.1h142v33.1h4.4v-40.7h-4.4v3.1h-142V91.4h17.6V73.2h124.4v49h4.4v-49H371
				V60H199V399.7z M225.4,73.2V87h-13.2V73.2H225.4z"/>
			<path class="st7" d="M521,60H415.1v13.2h92.6v69H490v18.5h-67.6v4.4h85.4v208.2h-32.6v24l-4.4,19.7l0,0l0,0l12.8,3.1l4.6-20.3
				h32.9l0,0l0,0L521,60z M494.4,160.7v-14.1h13.4v14.1H494.4z"/>
		</g>
		<polygon class="st7" points="358.6,377.7 358.6,233.5 354.2,233.5 354.2,377.7 331.3,377.7 331.3,399.7 331.3,399.7 327.7,415.6 
			340.5,418.7 344.8,399.7 386.9,399.7 402.2,403.2 407.1,381.6 390.3,377.7 		"/>
	</g>
	<g id="Furniture_1_">
		<g>
			<rect x="229.4" y="73.7" class="st8" width="26.6" height="20"/>
			<path class="st9" d="M255.5,74.2v19h-25.6v-19H255.5 M256.5,73.2h-27.6v21h27.6V73.2L256.5,73.2z"/>
		</g>
		<g>
			<polygon class="st8" points="480.5,241.4 480.5,192.2 426.1,192.2 426.1,165.6 507.3,165.6 507.3,241.4 			"/>
			<path class="st9" d="M506.8,166.1v74.7H481v-48.1v-1h-1h-53.4v-25.6H506.8 M507.8,165.1h-82.1v27.6H480v49.1h27.7L507.8,165.1
				L507.8,165.1z"/>
		</g>
		<g>
			<g>
				<rect x="212.7" y="272.7" class="st8" width="85.1" height="73.5"/>
				<path class="st9" d="M213.2,273.2h84.1v72.5h-84.1L213.2,273.2 M212.2,272.2v74.5h86.1v-74.5H212.2L212.2,272.2z"/>
			</g>
			<rect x="218.3" y="278.5" class="st10" width="21.3" height="29.1"/>
			<rect x="218.3" y="311.2" class="st10" width="21.3" height="29.1"/>
			<polygon class="st11" points="230.9,282.1 225.4,303.1 246,308.8 251.5,287.7 			"/>
			<polygon class="st11" points="246,310.3 225.4,315.9 230.9,336.9 251.5,331.3 			"/>
			<g>
				<polygon class="st8" points="230.7,346.2 228.9,316.9 235.2,272.7 298.6,272.7 298.6,346.2 				"/>
				<path class="st9" d="M235.6,273.2h62.5v72.5h-66.5h-0.4l-1.7-28.8L235.6,273.2 M235.2,272.2h-0.5l-6.3,44.7l1.8,29.8h1.4h67.5
					v-74.5H235.2L235.2,272.2z"/>
			</g>
			<polyline class="st12" points="232.4,345.7 232.4,316.6 235.9,273 			"/>
		</g>
		<g>
			<g>
				<rect x="212.6" y="189.1" class="st8" width="141.1" height="1.8"/>
				<path class="st9" d="M213.1,189.6h140.1v0.8H213.1V189.6 M212.1,188.6v2.8h142.1v-2.8H212.1L212.1,188.6z"/>
			</g>
			<g>
				<rect x="212.6" y="165.5" class="st8" width="141.1" height="23.6"/>
				<path class="st9" d="M213.1,166h140.1v22.6H213.1V166 M212.1,165v24.6h142.1V165H212.1L212.1,165z"/>
			</g>
			<path class="st10" d="M353.6,165.8l-141.2,23"/>
		</g>
		<g>
			<g>
				<rect x="481.9" y="73.7" class="st8" width="1.8" height="68"/>
				<path class="st9" d="M483.2,74.2v67h-0.8v-67H483.2 M484.2,73.2h-2.8v69h2.8V73.2L484.2,73.2z"/>
			</g>
			<g>
				<rect x="483.7" y="73.7" class="st8" width="23.6" height="68"/>
				<path class="st9" d="M484.2,74.2h22.6v67h-22.6V74.2 M483.2,73.2v69h24.6v-69H483.2L483.2,73.2z"/>
			</g>
			<path class="st10" d="M507,141.9l-23-68.6"/>
		</g>
		<g>
			<g>
				<rect x="423.1" y="85.3" class="st8" width="19.9" height="1.8"/>
				<path class="st9" d="M423.6,85.8h18.9v0.8h-18.9V85.8 M422.6,84.8v2.8h20.9v-2.8H422.6L422.6,84.8z"/>
			</g>
			<g>
				<rect x="423.1" y="73.7" class="st8" width="19.9" height="11.5"/>
				<path class="st9" d="M423.6,74.2h18.9v10.5h-18.9V74.2 M422.6,73.2v12.5h20.9V73.2H422.6L422.6,73.2z"/>
			</g>
			<path class="st10" d="M443,73.9l-19.9,11.3"/>
		</g>
		<g id="Sink_2_1_">
			<g id="Rectangle_16_x5F_11_1_">
				<rect x="253.3" y="73.7" class="st8" width="32.3" height="20"/>
				<path class="st9" d="M285.1,74.2v19h-31.3v-19H285.1 M286.1,73.2h-33.3v21h33.3V73.2L286.1,73.2z"/>
			</g>
			<path id="Rectangle_19_x5F_5_1_" class="st10" d="M258.4,83.7L258.4,83.7c0,3.6,2.9,6.4,6.4,6.4h9.2c3.6,0,6.4-2.9,6.4-6.4l0,0
				c0-3.6-2.9-6.4-6.4-6.4h-9.2C261.3,77.3,258.4,80.2,258.4,83.7z"/>
			<circle id="Ellipse_7_x5F_2_1_" class="st10" cx="269.4" cy="80.9" r="1.3"/>
		</g>
		<g id="Toilet_1_">
			<g id="Rectangle_21_1_">
				<rect x="287.2" y="84.3" class="st8" width="17.8" height="6"/>
				<path class="st9" d="M304.5,84.8v5h-16.8v-5H304.5 M305.5,83.8h-18.8v7h18.8V83.8L305.5,83.8z"/>
			</g>
			<path id="Rectangle_19_x5F_2_1_" class="st10" d="M289.4,102.7c-0.3,3.9,2.8,7.2,6.7,7.2l0,0c3.9,0,7-3.3,6.7-7.2L302,90.2h-11.7
				L289.4,102.7z"/>
			<path id="Rectangle_18_x5F_13_1_" class="st10" d="M291.6,102.3c-0.2,2.7,1.9,5,4.6,5l0,0c2.7,0,4.8-2.3,4.6-5l-0.7-7.3h-7.8
				L291.6,102.3z"/>
			<ellipse id="Ellipse_6_x5F_2_1_" class="st10" cx="296.1" cy="98.1" rx="1.3" ry="1.3"/>
		</g>
		<g id="TV_3_">
			<g id="Rectangle_16_5_">
				<rect x="341.3" y="277.7" class="st8" width="8.8" height="63.6"/>
				<path class="st9" d="M349.7,278.2v62.6h-7.8v-62.6H349.7 M350.7,277.2h-9.8v64.6h9.8V277.2L350.7,277.2z"/>
			</g>
			<g id="Rectangle_15_5_">
				<rect x="343.1" y="277.7" class="st8" width="10.6" height="63.6"/>
				<path class="st9" d="M353.2,278.2v62.6h-9.6v-62.6H353.2 M354.2,277.2h-11.6v64.6h11.6V277.2L354.2,277.2z"/>
			</g>
			<rect id="Rectangle_17_5_" x="350.4" y="288" class="st10" width="1.7" height="42.9"/>
			<path id="Rectangle_18_x5F_2_3_" class="st10" d="M352.1,318.5v-18.1l1.6,1.6v14.9L352.1,318.5z"/>
		</g>
		<g id="TV_2_">
			<g id="Rectangle_16_2_">
				<rect x="494.9" y="309.3" class="st8" width="8.8" height="63.6"/>
				<path class="st9" d="M503.2,309.8v62.6h-7.8v-62.6H503.2 M504.2,308.8h-9.8v64.6h9.8V308.8L504.2,308.8z"/>
			</g>
			<g id="Rectangle_15_3_">
				<rect x="496.7" y="309.3" class="st8" width="10.6" height="63.6"/>
				<path class="st9" d="M506.8,309.8v62.6h-9.6v-62.6H506.8 M507.8,308.8h-11.6v64.6h11.6V308.8L507.8,308.8z"/>
			</g>
			<rect id="Rectangle_17_2_" x="504" y="319.6" class="st10" width="1.7" height="42.9"/>
			<path id="Rectangle_18_x5F_2_2_" class="st10" d="M505.6,350.1V332l1.6,1.6v14.9L505.6,350.1z"/>
		</g>
		<g id="Sink_3_1_">
			<rect id="Rectangle_28_x5F_2_1_" x="473.6" y="168.9" class="st10" width="29.5" height="18.6"/>
			<path id="Rectangle_29_x5F_2_1_" class="st10" d="M491.5,178.2L491.5,178.2c0,3.9-3.1,7-7,7H483c-3.9,0-7-3.1-7-7l0,0
				c0-3.9,3.1-7,7-7h1.6C488.4,171.2,491.5,174.3,491.5,178.2z"/>
			<ellipse id="Ellipse_7_x5F_3_1_" class="st10" cx="483.8" cy="175.1" rx="1.3" ry="1.3"/>
			<path id="Vector_2_1_" class="st12" d="M501.5,171.2h-7.8 M501.5,173.5h-7.8 M501.5,175.9h-7.8 M501.5,178.2h-7.8 M501.5,180.5
				h-7.8 M501.5,182.8h-7.8 M501.5,185.2h-7.8"/>
		</g>
		<g id="Stove_1_">
			<g id="Rectangle_25_1_">
				<rect x="480.6" y="213.2" class="st8" width="26.7" height="26.1"/>
				<path class="st9" d="M506.8,213.7v25.1h-25.7v-25.1H506.8 M507.8,212.7h-27.7v27.1h27.7V212.7L507.8,212.7z"/>
			</g>
			<g id="Rectangle_28_x5F_3_2_">
				<rect x="505.4" y="213.2" class="st8" width="1.8" height="26.1"/>
				<path class="st9" d="M506.8,213.7v25.1H506v-25.1H506.8 M507.8,212.7H505v27.1h2.8V212.7L507.8,212.7z"/>
			</g>
			<g id="Ellipse_7_x5F_4_1_">
				<path class="st8" d="M498.3,235.8c-1.6,0-3-1.3-3-3c0-1.6,1.3-3,3-3c1.6,0,3,1.3,3,3S499.9,235.8,498.3,235.8z"/>
				<path class="st9" d="M498.3,230.4c1.4,0,2.5,1.1,2.5,2.5s-1.1,2.5-2.5,2.5s-2.5-1.1-2.5-2.5S496.9,230.4,498.3,230.4
					 M498.3,229.4c-1.9,0-3.5,1.6-3.5,3.5s1.6,3.5,3.5,3.5s3.5-1.6,3.5-3.5C501.8,230.9,500.2,229.4,498.3,229.4L498.3,229.4z"/>
			</g>
			<g id="Ellipse_9_1_">
				<path class="st8" d="M487.9,236.7c-2.1,0-3.8-1.7-3.8-3.8s1.7-3.8,3.8-3.8s3.8,1.7,3.8,3.8S490,236.7,487.9,236.7z"/>
				<path class="st9" d="M487.9,229.5c1.8,0,3.3,1.5,3.3,3.3s-1.5,3.3-3.3,3.3s-3.3-1.5-3.3-3.3S486,229.5,487.9,229.5 M487.9,228.5
					c-2.4,0-4.3,1.9-4.3,4.3s1.9,4.3,4.3,4.3s4.3-1.9,4.3-4.3S490.3,228.5,487.9,228.5L487.9,228.5z"/>
			</g>
			<g id="Ellipse_10_1_">
				<path class="st8" d="M498.3,224.5c-2.1,0-3.8-1.7-3.8-3.8s1.7-3.8,3.8-3.8s3.8,1.7,3.8,3.8S500.4,224.5,498.3,224.5z"/>
				<path class="st9" d="M498.3,217.3c1.8,0,3.3,1.5,3.3,3.3s-1.5,3.3-3.3,3.3s-3.3-1.5-3.3-3.3S496.5,217.3,498.3,217.3
					 M498.3,216.3c-2.4,0-4.3,1.9-4.3,4.3s1.9,4.3,4.3,4.3s4.3-1.9,4.3-4.3S500.7,216.3,498.3,216.3L498.3,216.3z"/>
			</g>
			<g id="Ellipse_8_1_">
				<path class="st8" d="M487,223.7c-1.6,0-3-1.3-3-3s1.3-3,3-3c1.6,0,3,1.3,3,3S488.6,223.7,487,223.7z"/>
				<path class="st9" d="M487,218.2c1.4,0,2.5,1.1,2.5,2.5s-1.1,2.5-2.5,2.5s-2.5-1.1-2.5-2.5S485.6,218.2,487,218.2 M487,217.2
					c-1.9,0-3.5,1.6-3.5,3.5s1.6,3.5,3.5,3.5s3.5-1.6,3.5-3.5S488.9,217.2,487,217.2L487,217.2z"/>
			</g>
		</g>
		<g>
			<g id="Rectangle_27_4_">
				<rect x="434.8" y="165.6" class="st8" width="30.8" height="26.6"/>
				<path class="st9" d="M465.1,166.1v25.6h-29.8v-25.6H465.1 M466.1,165.1h-31.8v27.6h31.8V165.1L466.1,165.1z"/>
			</g>
			<g id="Rectangle_27_1_">
				<rect x="434.8" y="190.4" class="st8" width="30.8" height="1.8"/>
				<path class="st9" d="M465.1,190.9v0.8h-29.8v-0.8H465.1 M466.1,189.9h-31.8v2.8h31.8V189.9L466.1,189.9z"/>
			</g>
			<path id="Vector_3_1_" class="st12" d="M453.7,178.5h-6.9 M451.9,181.6l-3.5-6.1 M451.9,175.5l-3.5,6.1"/>
		</g>
		<g>
			<path class="st10" d="M389.3,332.2c1.3,0,2.3-1,2.3-2.3V295c0-1.3-1-2.3-2.3-2.3h-22.9v39.6h22.9V332.2z"/>
			<path class="st10" d="M389.3,369.9c1.3,0,2.3-1,2.3-2.3v-33.2c0-1.3-1-2.3-2.3-2.3h-22.9v37.8H389.3z"/>
			<polygon class="st10" points="393.5,369.9 366.4,369.9 366.4,331.2 366.4,292.6 393.5,292.6 393.5,285.3 359.1,285.3 
				359.1,377.2 393.5,377.2 			"/>
		</g>
		<g>
			<rect x="285.6" y="73.7" class="st8" width="37" height="10.5"/>
			<path class="st9" d="M322.1,74.2v9.5h-36v-9.5H322.1 M323.1,73.2h-38v11.5h38V73.2L323.1,73.2z"/>
		</g>
		<g>
			<g>
				<rect x="449.6" y="241.3" class="st8" width="57.7" height="39.5"/>
				<path class="st9" d="M506.8,241.8v38.5h-56.7v-38.5L506.8,241.8 M507.8,240.8h-58.7v40.5h58.7V240.8L507.8,240.8z"/>
			</g>
			<g>
				<rect x="449.6" y="265.7" class="st8" width="57.7" height="3.1"/>
				<path class="st9" d="M506.8,266.2v2.1h-56.7v-2.1H506.8 M507.8,265.2h-58.7v4.1h58.7V265.2L507.8,265.2z"/>
			</g>
		</g>
		<g>
			<path class="st8" d="M435.7,270.6c-4.9,0-8.9-4-8.9-8.9s4-8.9,8.9-8.9s8.9,4,8.9,8.9S440.6,270.6,435.7,270.6z"/>
			<path class="st9" d="M435.7,253.3c4.6,0,8.4,3.8,8.4,8.4s-3.8,8.4-8.4,8.4s-8.4-3.8-8.4-8.4S431,253.3,435.7,253.3 M435.7,252.3
				c-5.2,0-9.4,4.2-9.4,9.4s4.2,9.4,9.4,9.4s9.4-4.2,9.4-9.4S440.9,252.3,435.7,252.3L435.7,252.3z"/>
		</g>
		<g>
			<circle class="st8" cx="459" cy="295" r="8.9"/>
			<path class="st9" d="M459,286.6c4.6,0,8.4,3.8,8.4,8.4s-3.8,8.4-8.4,8.4s-8.4-3.8-8.4-8.4S454.3,286.6,459,286.6 M459,285.6
				c-5.2,0-9.4,4.2-9.4,9.4c0,5.2,4.2,9.4,9.4,9.4c5.2,0,9.4-4.2,9.4-9.4C468.4,289.8,464.2,285.6,459,285.6L459,285.6z"/>
		</g>
		<g>
			<path class="st8" d="M482.7,304c-4.9,0-8.9-4-8.9-8.9s4-8.9,8.9-8.9s8.9,4,8.9,8.9S487.6,304,482.7,304z"/>
			<path class="st9" d="M482.7,286.6c4.6,0,8.4,3.8,8.4,8.4s-3.8,8.4-8.4,8.4s-8.4-3.8-8.4-8.4S478.1,286.6,482.7,286.6
				 M482.7,285.6c-5.2,0-9.4,4.2-9.4,9.4c0,5.2,4.2,9.4,9.4,9.4c5.2,0,9.4-4.2,9.4-9.4C492.1,289.8,487.9,285.6,482.7,285.6
				L482.7,285.6z"/>
		</g>
		<g>
			<g>
				<rect x="336.8" y="73.8" class="st8" width="16.9" height="27.8"/>
				<path class="st9" d="M353.2,74.3v26.8h-15.9V74.3H353.2 M354.2,73.3h-17.9v28.8h17.9V73.3L354.2,73.3z"/>
			</g>
			<g>
				<circle class="st8" cx="345.3" cy="87.7" r="5.3"/>
				<path class="st9" d="M345.3,82.8c2.7,0,4.8,2.2,4.8,4.8c0,2.7-2.2,4.8-4.8,4.8c-2.7,0-4.8-2.2-4.8-4.8S342.6,82.8,345.3,82.8
					 M345.3,81.8c-3.2,0-5.8,2.6-5.8,5.8c0,3.2,2.6,5.8,5.8,5.8c3.2,0,5.8-2.6,5.8-5.8C351.1,84.4,348.5,81.8,345.3,81.8L345.3,81.8
					z"/>
			</g>
		</g>
		<g>
			<g>
				<path class="st8" d="M212.6,160.2v-34.4h23.9c5.8,0,10.5,4.7,10.5,10.5v23.9L212.6,160.2L212.6,160.2z"/>
				<path class="st9" d="M236.5,126.4c5.5,0,10,4.5,10,10v23.4h-33.4v-33.4L236.5,126.4 M236.5,125.4L236.5,125.4h-24.4v35.4h35.4
					v-24.4C247.5,130.3,242.6,125.4,236.5,125.4L236.5,125.4z"/>
			</g>
			<g>
				<path class="st8" d="M214.8,128h22c4.5,0,8.1,3.6,8.1,8.1v22h-30.1V128z"/>
				<path class="st9" d="M236.8,127.5v1c4.2,0,7.6,3.4,7.6,7.6v21.5h-29.1v-29.1h21.5V127.5 M236.8,127.5h-22.5v31.1h31.1v-22.5
					C245.4,131.4,241.5,127.5,236.8,127.5L236.8,127.5z"/>
			</g>
			<ellipse class="st10" cx="221.2" cy="151.7" rx="1.3" ry="1.3"/>
		</g>
		<g>
			<rect x="465.6" y="165.6" class="st8" width="41.7" height="26.6"/>
			<path class="st9" d="M506.8,166.1v25.6h-40.7v-25.6H506.8 M507.8,165.1h-42.7v27.6h42.7V165.1L507.8,165.1z"/>
		</g>
	</g>
	<g id="street_anchors" class="st13">
		<rect id="street_x5F_anchor_x5F_01_1_" x="355" y="450" class="st14" width="10" height="10"/>
	</g>
</g>
<g id="комнаты">
	<g>
		<g>
			<path class="st7" d="M429,326.7l1.3-0.8h0.9v5.8h-1v-4.5l-1,0.6L429,326.7z"/>
			<path class="st7" d="M432.3,331l0.5-1c0.3,0.3,1,0.7,1.8,0.7c0.6,0,1.2-0.3,1.2-1c0-0.6-0.4-0.8-0.9-0.8c-0.6,0-1,0.3-1.4,0.6
				l-0.6-0.6v-3h3.5v1.1h-2.6v1.4c0.4-0.3,0.7-0.6,1.3-0.6c0.9,0,1.8,0.6,1.8,1.9c0,1.5-1.1,2.2-2.2,2.2
				C433.4,331.9,432.7,331.4,432.3,331z"/>
			<path class="st7" d="M438.3,330.1c0.4,0,0.7,0.4,0.7,0.9c0,0.5-0.3,0.9-0.7,0.9c-0.4,0-0.7-0.4-0.7-0.9
				C437.6,330.5,437.9,330.1,438.3,330.1z"/>
			<path class="st7" d="M439.6,326.7l1.3-0.8h0.9v5.8h-1v-4.5l-1,0.6L439.6,326.7z"/>
		</g>
	</g>
	<g>
		<g>
			<path class="st7" d="M388.4,117.6c-0.3-0.2-0.8-0.3-1.2-0.3c-0.8,0-1.5,0.7-1.6,1.9c0.4-0.4,1-0.8,1.7-0.8c1.2,0,1.8,0.9,1.8,1.8
				c0,1.2-0.8,2.1-2,2.1c-1.2,0-2.4-1-2.4-3c0-2,1.2-3.2,2.5-3.2c0.8,0,1.4,0.3,1.7,0.5L388.4,117.6z M385.7,119.9
				c0.2,0.8,0.7,1.2,1.3,1.2c0.6,0,1-0.5,1-1c0-0.4-0.2-0.8-0.9-0.8C386.6,119.3,386.1,119.6,385.7,119.9z"/>
			<path class="st7" d="M390.6,120.5c0.4,0,0.7,0.4,0.7,0.9c0,0.5-0.3,0.9-0.7,0.9c-0.4,0-0.7-0.4-0.7-0.9
				C389.9,120.9,390.2,120.5,390.6,120.5z"/>
			<path class="st7" d="M391.9,117l1.3-0.8h0.9v5.8h-1v-4.5l-1,0.6L391.9,117z"/>
		</g>
	</g>
	<g>
		<g>
			<path class="st7" d="M260.5,123.2l0.5-1c0.3,0.3,0.9,0.7,1.8,0.7c0.6,0,1.2-0.3,1.2-1c0-0.6-0.4-0.8-0.9-0.8
				c-0.6,0-1,0.3-1.4,0.6l-0.6-0.6v-3h3.5v1.1h-2.6v1.4c0.4-0.3,0.7-0.6,1.3-0.6c0.9,0,1.8,0.6,1.8,1.9c0,1.5-1.1,2.2-2.2,2.2
				C261.6,124.1,260.9,123.5,260.5,123.2z"/>
			<path class="st7" d="M266.5,122.3c0.4,0,0.7,0.4,0.7,0.9c0,0.5-0.3,0.9-0.7,0.9c-0.4,0-0.7-0.4-0.7-0.9
				C265.8,122.7,266.1,122.3,266.5,122.3z"/>
			<path class="st7" d="M267.9,123.2l0.5-1c0.3,0.3,0.9,0.7,1.8,0.7c0.6,0,1.2-0.3,1.2-1c0-0.6-0.4-0.8-0.9-0.8
				c-0.6,0-1,0.3-1.4,0.6l-0.6-0.6v-3h3.5v1.1h-2.6v1.4c0.4-0.3,0.7-0.6,1.3-0.6c0.9,0,1.8,0.6,1.8,1.9c0,1.5-1.1,2.2-2.2,2.2
				C269,124.1,268.3,123.5,267.9,123.2z"/>
		</g>
	</g>
	<g>
		<g>
			<path class="st7" d="M259.5,235.6l1.3-0.8h0.9v5.8h-1v-4.5l-1,0.6L259.5,235.6z"/>
			<path class="st7" d="M267.6,239.4h-0.8v1.2h-1v-1.2h-3v-0.8l3.1-3.7h0.9v3.5h0.8V239.4z M264.2,238.3h1.6v-1.9h-0.1
				C265.2,237.1,264.7,237.7,264.2,238.3L264.2,238.3z"/>
			<path class="st7" d="M269,239c0.4,0,0.7,0.4,0.7,0.9c0,0.5-0.3,0.9-0.7,0.9c-0.4,0-0.7-0.4-0.7-0.9
				C268.3,239.4,268.7,239,269,239z"/>
			<path class="st7" d="M270.6,234.8h4v1.1l-2.3,4.7H271l2.4-4.6h-2.8V234.8z"/>
		</g>
	</g>
</g>
</svg>
