<?xml version="1.0" encoding="utf-8"?>
<!-- Generator: Adobe Illustrator 26.0.3, SVG Export Plug-In . SVG Version: 6.00 Build 0)  -->
<svg version="1.1" xmlns="http://www.w3.org/2000/svg" xmlns:xlink="http://www.w3.org/1999/xlink" x="0px" y="0px"
	 viewBox="0 0 720 480" style="enable-background:new 0 0 720 480;" xml:space="preserve">
<style type="text/css">
	.st0{fill:#DBD4CA;}
	.st1{clip-path:url(#SVGID_00000074408625124360555090000003190425490601381790_);}
	.st2{fill:none;stroke:#C49F8A;stroke-miterlimit:10;}
	.st3{opacity:0.3;clip-path:url(#SVGID_00000126325510672744577560000012058701175280221860_);}
	.st4{opacity:0.7;fill:#C49F8A;enable-background:new    ;}
	.st5{clip-path:url(#SVGID_00000087376358678008955450000001814767559686276531_);}
	.st6{opacity:0.3;clip-path:url(#SVGID_00000091737765262579332420000017931677442701135259_);}
	.st7{fill:none;stroke:#565440;}
	.st8{fill:#565440;}
	.st9{fill:#E9E4DC;}
	.st10{fill:#C49F8A;}
	.st11{fill:#E9E4DC;stroke:#C49F8A;}
	.st12{fill:#E9E4DC;stroke:#C49F8A;stroke-width:1;stroke-miterlimit:3.9996;}
	.st13{fill:none;stroke:#C49F8A;}
	.st14{fill:#E9E4DC;stroke:#C49F8A;stroke-miterlimit:3.9998;}
	.st15{fill:#E9E4DC;stroke:#C49F8A;stroke-linejoin:round;}
	.st16{fill:#E9E4DC;stroke:#C49F8A;stroke-width:1;stroke-miterlimit:4;}
	.st17{opacity:0;}
	.st18{fill:#3F3F3F;fill-opacity:0;}
</style>
<g id="_x31__x5F_2">
	<polygon id="Floor_1_" class="st0" points="520.5,191 520.5,163 454.3,163 454.3,87.2 68.2,87.2 68.2,390.8 411.7,390.8 
		456.7,390.8 492.7,390.8 521.3,390.8 653.2,390.8 653.2,191 	"/>
	<g id="Wet_Floor">
		<g id="Wet_Floor_1_">
			<g>
				<g>
					<g>
						<defs>
							<rect id="SVGID_1_" x="250.9" y="90.7" width="109.2" height="82.1"/>
						</defs>
						<clipPath id="SVGID_00000158734376638699898070000005716179010037976448_">
							<use xlink:href="#SVGID_1_"  style="overflow:visible;"/>
						</clipPath>
						<g style="clip-path:url(#SVGID_00000158734376638699898070000005716179010037976448_);">
							<g>
								<line class="st2" x1="-15.5" y1="154.2" x2="318" y2="-179.3"/>
								<line class="st2" x1="-25.9" y1="143.8" x2="307.6" y2="-189.7"/>
								<line class="st2" x1="-5.1" y1="164.7" x2="328.4" y2="-168.8"/>
								<line class="st2" x1="5.4" y1="175.1" x2="338.8" y2="-158.4"/>
								<line class="st2" x1="15.8" y1="185.5" x2="349.3" y2="-148"/>
								<line class="st2" x1="26.2" y1="195.9" x2="359.7" y2="-137.6"/>
								<line class="st2" x1="36.6" y1="206.3" x2="370.1" y2="-127.1"/>
								<line class="st2" x1="47" y1="216.8" x2="380.5" y2="-116.7"/>
								<line class="st2" x1="57.5" y1="227.2" x2="391" y2="-106.3"/>
								<line class="st2" x1="67.9" y1="237.6" x2="401.4" y2="-95.9"/>
								<line class="st2" x1="57.5" y1="227.2" x2="391" y2="-106.3"/>
								<line class="st2" x1="78.3" y1="248" x2="411.8" y2="-85.5"/>
								<line class="st2" x1="88.7" y1="258.4" x2="422.2" y2="-75"/>
								<line class="st2" x1="99.2" y1="268.9" x2="432.6" y2="-64.6"/>
								<line class="st2" x1="109.6" y1="279.3" x2="443.1" y2="-54.2"/>
								<line class="st2" x1="120" y1="289.7" x2="453.5" y2="-43.8"/>
								<line class="st2" x1="130.4" y1="300.1" x2="463.9" y2="-33.4"/>
								<line class="st2" x1="140.8" y1="310.6" x2="474.3" y2="-22.9"/>
								<line class="st2" x1="151.3" y1="321" x2="484.7" y2="-12.5"/>
								<line class="st2" x1="140.8" y1="310.6" x2="474.3" y2="-22.9"/>
								<line class="st2" x1="161.7" y1="331.4" x2="495.2" y2="-2.1"/>
								<line class="st2" x1="172.1" y1="341.8" x2="505.6" y2="8.3"/>
								<line class="st2" x1="182.5" y1="352.2" x2="516" y2="18.8"/>
								<line class="st2" x1="192.9" y1="362.7" x2="526.4" y2="29.2"/>
								<line class="st2" x1="203.4" y1="373.1" x2="536.9" y2="39.6"/>
								<line class="st2" x1="213.8" y1="383.5" x2="547.3" y2="50"/>
								<line class="st2" x1="224.2" y1="393.9" x2="557.7" y2="60.4"/>
								<line class="st2" x1="234.6" y1="404.3" x2="568.1" y2="70.9"/>
								<line class="st2" x1="224.2" y1="393.9" x2="557.7" y2="60.4"/>
								<line class="st2" x1="245.1" y1="414.8" x2="578.5" y2="81.3"/>
								<line class="st2" x1="255.5" y1="425.2" x2="589" y2="91.7"/>
								<line class="st2" x1="265.9" y1="435.6" x2="599.4" y2="102.1"/>
								<line class="st2" x1="276.3" y1="446" x2="609.8" y2="112.5"/>
								<line class="st2" x1="286.7" y1="456.4" x2="620.2" y2="123"/>
								<line class="st2" x1="297.2" y1="466.9" x2="630.6" y2="133.4"/>
								<line class="st2" x1="307.6" y1="477.3" x2="641.1" y2="143.8"/>
							</g>
							<g>
								<line class="st2" x1="318" y1="466.9" x2="-15.5" y2="133.4"/>
								<line class="st2" x1="307.6" y1="477.3" x2="-25.9" y2="143.8"/>
								<line class="st2" x1="328.4" y1="456.4" x2="-5.1" y2="123"/>
								<line class="st2" x1="338.8" y1="446" x2="5.4" y2="112.5"/>
								<line class="st2" x1="349.3" y1="435.6" x2="15.8" y2="102.1"/>
								<line class="st2" x1="359.7" y1="425.2" x2="26.2" y2="91.7"/>
								<line class="st2" x1="370.1" y1="414.8" x2="36.6" y2="81.3"/>
								<line class="st2" x1="380.5" y1="404.3" x2="47" y2="70.9"/>
								<line class="st2" x1="391" y1="393.9" x2="57.5" y2="60.4"/>
								<line class="st2" x1="401.4" y1="383.5" x2="67.9" y2="50"/>
								<line class="st2" x1="391" y1="393.9" x2="57.5" y2="60.4"/>
								<line class="st2" x1="411.8" y1="373.1" x2="78.3" y2="39.6"/>
								<line class="st2" x1="422.2" y1="362.7" x2="88.7" y2="29.2"/>
								<line class="st2" x1="432.6" y1="352.2" x2="99.2" y2="18.8"/>
								<line class="st2" x1="443.1" y1="341.8" x2="109.6" y2="8.3"/>
								<line class="st2" x1="453.5" y1="331.4" x2="120" y2="-2.1"/>
								<line class="st2" x1="463.9" y1="321" x2="130.4" y2="-12.5"/>
								<line class="st2" x1="474.3" y1="310.6" x2="140.8" y2="-22.9"/>
								<line class="st2" x1="484.7" y1="300.1" x2="151.3" y2="-33.4"/>
								<line class="st2" x1="474.3" y1="310.6" x2="140.8" y2="-22.9"/>
								<line class="st2" x1="495.2" y1="289.7" x2="161.7" y2="-43.8"/>
								<line class="st2" x1="505.6" y1="279.3" x2="172.1" y2="-54.2"/>
								<line class="st2" x1="516" y1="268.9" x2="182.5" y2="-64.6"/>
								<line class="st2" x1="526.4" y1="258.4" x2="192.9" y2="-75"/>
								<line class="st2" x1="536.9" y1="248" x2="203.4" y2="-85.5"/>
								<line class="st2" x1="547.3" y1="237.6" x2="213.8" y2="-95.9"/>
								<line class="st2" x1="557.7" y1="227.2" x2="224.2" y2="-106.3"/>
								<line class="st2" x1="568.1" y1="216.8" x2="234.6" y2="-116.7"/>
								<line class="st2" x1="557.7" y1="227.2" x2="224.2" y2="-106.3"/>
								<line class="st2" x1="578.5" y1="206.3" x2="245.1" y2="-127.1"/>
								<line class="st2" x1="589" y1="195.9" x2="255.5" y2="-137.6"/>
								<line class="st2" x1="599.4" y1="185.5" x2="265.9" y2="-148"/>
								<line class="st2" x1="609.8" y1="175.1" x2="276.3" y2="-158.4"/>
								<line class="st2" x1="620.2" y1="164.7" x2="286.7" y2="-168.8"/>
								<line class="st2" x1="630.6" y1="154.2" x2="297.2" y2="-179.3"/>
								<line class="st2" x1="641.1" y1="143.8" x2="307.6" y2="-189.7"/>
							</g>
						</g>
					</g>
				</g>
			</g>
			<g>
				<g>
					<g>
						<defs>
							<rect id="SVGID_00000088811186143933820560000000379000020612595115_" x="250.9" y="90.7" width="109.2" height="82.1"/>
						</defs>
						<clipPath id="SVGID_00000182498721630679336020000013069933988623641225_">
							<use xlink:href="#SVGID_00000088811186143933820560000000379000020612595115_"  style="overflow:visible;"/>
						</clipPath>
						<g style="opacity:0.3;clip-path:url(#SVGID_00000182498721630679336020000013069933988623641225_);">
							<rect x="146.5" y="-27.7" class="st4" width="322.2" height="322.2"/>
						</g>
					</g>
				</g>
			</g>
		</g>
		<g id="Wet_Floor_2_">
			<g>
				<g>
					<g>
						<defs>
							<rect id="SVGID_00000121966728181136901110000008097465083946403994_" x="248.8" y="284.1" width="98.6" height="97.6"/>
						</defs>
						<clipPath id="SVGID_00000104688101005057072590000005538443089600232117_">
							<use xlink:href="#SVGID_00000121966728181136901110000008097465083946403994_"  style="overflow:visible;"/>
						</clipPath>
						<g style="clip-path:url(#SVGID_00000104688101005057072590000005538443089600232117_);">
							<g>
								<line class="st2" x1="-17.6" y1="363.1" x2="315.9" y2="29.6"/>
								<line class="st2" x1="-28" y1="352.6" x2="305.5" y2="19.2"/>
								<line class="st2" x1="-7.1" y1="373.5" x2="326.3" y2="40"/>
								<line class="st2" x1="3.3" y1="383.9" x2="336.8" y2="50.4"/>
								<line class="st2" x1="13.7" y1="394.3" x2="347.2" y2="60.8"/>
								<line class="st2" x1="24.1" y1="404.7" x2="357.6" y2="71.3"/>
								<line class="st2" x1="34.5" y1="415.2" x2="368" y2="81.7"/>
								<line class="st2" x1="45" y1="425.6" x2="378.4" y2="92.1"/>
								<line class="st2" x1="55.4" y1="436" x2="388.9" y2="102.5"/>
								<line class="st2" x1="65.8" y1="446.4" x2="399.3" y2="113"/>
								<line class="st2" x1="55.4" y1="436" x2="388.9" y2="102.5"/>
								<line class="st2" x1="76.2" y1="456.9" x2="409.7" y2="123.4"/>
								<line class="st2" x1="86.7" y1="467.3" x2="420.1" y2="133.8"/>
								<line class="st2" x1="97.1" y1="477.7" x2="430.6" y2="144.2"/>
								<line class="st2" x1="107.5" y1="488.1" x2="441" y2="154.6"/>
								<line class="st2" x1="117.9" y1="498.5" x2="451.4" y2="165.1"/>
								<line class="st2" x1="128.3" y1="509" x2="461.8" y2="175.5"/>
								<line class="st2" x1="138.8" y1="519.4" x2="472.2" y2="185.9"/>
								<line class="st2" x1="149.2" y1="529.8" x2="482.7" y2="196.3"/>
								<line class="st2" x1="138.8" y1="519.4" x2="472.2" y2="185.9"/>
								<line class="st2" x1="159.6" y1="540.2" x2="493.1" y2="206.7"/>
								<line class="st2" x1="170" y1="550.6" x2="503.5" y2="217.2"/>
								<line class="st2" x1="180.4" y1="561.1" x2="513.9" y2="227.6"/>
								<line class="st2" x1="190.9" y1="571.5" x2="524.3" y2="238"/>
								<line class="st2" x1="201.3" y1="581.9" x2="534.8" y2="248.4"/>
								<line class="st2" x1="211.7" y1="592.3" x2="545.2" y2="258.9"/>
								<line class="st2" x1="222.1" y1="602.8" x2="555.6" y2="269.3"/>
								<line class="st2" x1="232.6" y1="613.2" x2="566" y2="279.7"/>
								<line class="st2" x1="222.1" y1="602.8" x2="555.6" y2="269.3"/>
								<line class="st2" x1="243" y1="623.6" x2="576.5" y2="290.1"/>
								<line class="st2" x1="253.4" y1="634" x2="586.9" y2="300.5"/>
								<line class="st2" x1="263.8" y1="644.4" x2="597.3" y2="311"/>
								<line class="st2" x1="274.2" y1="654.9" x2="607.7" y2="321.4"/>
								<line class="st2" x1="284.7" y1="665.3" x2="618.1" y2="331.8"/>
								<line class="st2" x1="295.1" y1="675.7" x2="628.6" y2="342.2"/>
								<line class="st2" x1="305.5" y1="686.1" x2="639" y2="352.6"/>
							</g>
							<g>
								<line class="st2" x1="315.9" y1="675.7" x2="-17.6" y2="342.2"/>
								<line class="st2" x1="305.5" y1="686.1" x2="-28" y2="352.6"/>
								<line class="st2" x1="326.3" y1="665.3" x2="-7.1" y2="331.8"/>
								<line class="st2" x1="336.8" y1="654.9" x2="3.3" y2="321.4"/>
								<line class="st2" x1="347.2" y1="644.4" x2="13.7" y2="311"/>
								<line class="st2" x1="357.6" y1="634" x2="24.1" y2="300.5"/>
								<line class="st2" x1="368" y1="623.6" x2="34.5" y2="290.1"/>
								<line class="st2" x1="378.4" y1="613.2" x2="45" y2="279.7"/>
								<line class="st2" x1="388.9" y1="602.8" x2="55.4" y2="269.3"/>
								<line class="st2" x1="399.3" y1="592.3" x2="65.8" y2="258.9"/>
								<line class="st2" x1="388.9" y1="602.8" x2="55.4" y2="269.3"/>
								<line class="st2" x1="409.7" y1="581.9" x2="76.2" y2="248.4"/>
								<line class="st2" x1="420.1" y1="571.5" x2="86.7" y2="238"/>
								<line class="st2" x1="430.6" y1="561.1" x2="97.1" y2="227.6"/>
								<line class="st2" x1="441" y1="550.6" x2="107.5" y2="217.2"/>
								<line class="st2" x1="451.4" y1="540.2" x2="117.9" y2="206.7"/>
								<line class="st2" x1="461.8" y1="529.8" x2="128.3" y2="196.3"/>
								<line class="st2" x1="472.2" y1="519.4" x2="138.8" y2="185.9"/>
								<line class="st2" x1="482.7" y1="509" x2="149.2" y2="175.5"/>
								<line class="st2" x1="472.2" y1="519.4" x2="138.8" y2="185.9"/>
								<line class="st2" x1="493.1" y1="498.5" x2="159.6" y2="165.1"/>
								<line class="st2" x1="503.5" y1="488.1" x2="170" y2="154.6"/>
								<line class="st2" x1="513.9" y1="477.7" x2="180.4" y2="144.2"/>
								<line class="st2" x1="524.3" y1="467.3" x2="190.9" y2="133.8"/>
								<line class="st2" x1="534.8" y1="456.9" x2="201.3" y2="123.4"/>
								<line class="st2" x1="545.2" y1="446.4" x2="211.7" y2="113"/>
								<line class="st2" x1="555.6" y1="436" x2="222.1" y2="102.5"/>
								<line class="st2" x1="566" y1="425.6" x2="232.6" y2="92.1"/>
								<line class="st2" x1="555.6" y1="436" x2="222.1" y2="102.5"/>
								<line class="st2" x1="576.5" y1="415.2" x2="243" y2="81.7"/>
								<line class="st2" x1="586.9" y1="404.7" x2="253.4" y2="71.3"/>
								<line class="st2" x1="597.3" y1="394.3" x2="263.8" y2="60.8"/>
								<line class="st2" x1="607.7" y1="383.9" x2="274.2" y2="50.4"/>
								<line class="st2" x1="618.1" y1="373.5" x2="284.7" y2="40"/>
								<line class="st2" x1="628.6" y1="363.1" x2="295.1" y2="29.6"/>
								<line class="st2" x1="639" y1="352.6" x2="305.5" y2="19.2"/>
							</g>
						</g>
					</g>
				</g>
			</g>
			<g>
				<g>
					<g>
						<defs>
							<rect id="SVGID_00000000928876180785976050000000072005080218803072_" x="248.8" y="284.1" width="98.6" height="97.6"/>
						</defs>
						<clipPath id="SVGID_00000116206074165766066420000013792709981889578683_">
							<use xlink:href="#SVGID_00000000928876180785976050000000072005080218803072_"  style="overflow:visible;"/>
						</clipPath>
						<g style="opacity:0.3;clip-path:url(#SVGID_00000116206074165766066420000013792709981889578683_);">
							<rect x="144.4" y="181.1" class="st4" width="322.2" height="322.2"/>
						</g>
					</g>
				</g>
			</g>
		</g>
	</g>
	<path id="Windows_1_" class="st7" d="M68.4,391V87.2h-6.3v310.1h419.6V391H68.4L68.4,391z"/>
	<path id="Doors_1_" class="st7" d="M324.3,172.9c0,4.6-0.8,8.4-2.5,12.6c-1.7,4.2-4.2,8-7.1,10.9c-2.9,3.4-6.7,5.9-10.9,7.6
		c-4.2,1.7-8.4,2.5-13,2.5v-33.6 M265.6,231.6c0,4.6,0.8,8.4,2.5,12.6c1.7,4.2,4.2,8,7.1,10.9c2.9,3.4,6.7,5.9,10.9,7.6
		c4.2,1.7,8.4,2.5,13,2.5v-33.6 M248.8,185.5c-4.6,0-8.4,0.8-12.6,2.5s-8,4.2-10.9,7.1c-3.4,2.9-5.9,6.7-7.6,10.9
		c-1.7,4.2-2.5,8.4-2.5,13h33.6 M253,323.9c4.6,0,8.4-0.8,12.6-2.5s8-4.2,10.9-7.1c3.4-2.9,5.9-6.7,7.6-10.9c1.7-4.2,2.5-8.4,2.5-13
		H253 M542.5,332.3c-4.6,0-8.4,0.8-12.6,2.5c-4.2,1.7-8,4.2-10.9,7.1c-3.4,2.9-5.9,6.7-7.6,10.9c-1.7,4.2-2.5,8.4-2.5,13h33.6
		 M613.8,273.5c0,4.6-0.8,8.4-2.5,12.6s-4.2,8-7.1,10.9c-2.9,3.4-6.7,5.9-10.9,7.6s-8.4,2.5-13,2.5v-33.6 M441.8,139.3
		c-5.5,0-10.5-1.3-15.5-3.4c-5-2.1-10.1-5-13.8-9.2c-3.8-3.8-7.1-8.4-9.2-13.4s-3.4-10.5-3.4-15.9h42"/>
	<g id="Walls">
		<polygon class="st8" points="81,231.6 265.6,231.6 265.6,227.4 253,227.4 253,219 248.8,219 248.8,227.4 81,227.4 81,181.3 
			60,181.3 60,298.7 85.2,298.7 85.2,269.4 81,269.4 		"/>
		<rect x="122.9" y="374.3" class="st8" width="29.4" height="25.2"/>
		<rect x="391.5" y="378.5" class="st8" width="29.4" height="21"/>
		<path class="st8" d="M299.2,231.6h46.2V282h-96.5v8.4h4.2v-4.2h92.3v88.1h-25.2v4.2h-52.7V356l0,0H253v-32.1h-4.2v54.5H232v21
			h117.5v-172h-50.3V231.6z M253,378.5v-18.3h10.3v18.3H253z"/>
		<path class="st8" d="M479.6,399.4H660V189.6H521.5v-29.4h-67.1v-21h-12.6v62.9h4.2v-29.4h63v29.4h62.9v121.7h-29.4v8.4h4.2V328
			h25.2h4.2v-54.5h4.2v-4.2h-4.2v-67.1h46.1v16.6H639v50.5h-25.2v4.2H639v100.7h-92.3v-8.4h-4.2v8.4h-62.9V399.4z M626.3,214.7
			v-12.4H639v12.4H626.3z"/>
		<path class="st8" d="M441.8,97.3h12.6V80.6H60v37.8h25.2V93.2h163.7v92.3h4.2v-12.6h37.8v-4.2H253v-58.8h16.5V93.1h88.4v75.5
			h-33.6v4.2h37.8v-4.2V93.1h79.7V97.3z M265.3,105.7H253V93.1h12.3V105.7z"/>
	</g>
	<g id="Furniture_1_">
		<g>
			<rect x="325" y="286.6" class="st9" width="19.9" height="43"/>
			<path class="st10" d="M344.4,287.1v42h-18.9v-42H344.4 M345.4,286.1h-20.9v44h20.9V286.1L345.4,286.1z"/>
		</g>
		<g>
			<g>
				<rect x="135.6" y="232" class="st9" width="68.5" height="81.1"/>
				<path class="st10" d="M136.1,232.5h67.5v80.1h-67.5V232.5 M135.1,231.5v82.1h69.5v-82.1H135.1L135.1,231.5z"/>
			</g>
			<rect x="171.5" y="237.3" class="st11" width="27.1" height="20.3"/>
			<rect x="141" y="237.3" class="st11" width="27.1" height="20.3"/>
			
				<rect x="172.7" y="246.5" transform="matrix(0.2588 -0.9659 0.9659 0.2588 -112.3527 366.789)" class="st12" width="20.3" height="20.3"/>
			
				<rect x="146.5" y="246.4" transform="matrix(0.9659 -0.2588 0.2588 0.9659 -61.0578 49.2819)" class="st12" width="20.3" height="20.3"/>
			<g>
				<polygon class="st9" points="135.6,313.9 135.6,249.1 162.9,247.5 204.1,253.4 204.1,313.9 				"/>
				<path class="st10" d="M162.8,248l40.7,5.9v59.5H136V250v-0.4L162.8,248 M162.9,247l-27.8,1.7v1.3v64.4h69.5v-60.9V253L162.9,247
					L162.9,247z"/>
			</g>
			<polyline class="st13" points="136,250.8 163.1,250.8 203.8,254.1 			"/>
		</g>
		<g>
			<g>
				<rect x="133.9" y="93.7" class="st9" width="57.3" height="88.6"/>
				<path class="st10" d="M134.4,94.2h56.3v87.6h-56.3V94.2 M133.4,93.2v89.6h58.3V93.2H133.4L133.4,93.2z"/>
			</g>
			<rect x="164" y="99.5" class="st11" width="22.8" height="22.2"/>
			<rect x="138.4" y="99.5" class="st11" width="22.8" height="22.2"/>
			<polygon class="st14" points="183.9,112.7 167.5,106.9 163.1,128.4 179.5,134.1 			"/>
			<polygon class="st14" points="161.9,128.4 157.5,107 141,112.7 145.5,134.1 			"/>
			<g>
				<polygon class="st9" points="133.9,183.2 133.9,112.4 156.7,110.5 191.2,117.1 191.2,183.2 				"/>
				<path class="st10" d="M156.7,111l34,6.4v65.2h-56.3v-69.3v-0.5L156.7,111 M156.7,110l-23.3,1.9v1.4v70.3h58.3v-66.5v-0.5
					L156.7,110L156.7,110z"/>
			</g>
			<polyline class="st13" points="134.2,114.2 156.9,114.2 191.1,117.9 			"/>
		</g>
		<g>
			<g>
				<rect x="615.9" y="274" class="st9" width="1.8" height="99.8"/>
				<path class="st10" d="M616.4,274.5h0.8v98.8h-0.8V274.5 M615.4,273.5v100.8h2.8V273.5H615.4L615.4,273.5z"/>
			</g>
			<g>
				<rect x="617.7" y="274" class="st9" width="20.8" height="99.8"/>
				<path class="st10" d="M638.1,274.5v98.8h-19.8v-98.8H638.1 M639.1,273.5h-21.8v100.8h21.8V273.5L639.1,273.5z"/>
			</g>
			<path class="st11" d="M638.4,373.6L618,273.9"/>
		</g>
		<g>
			<g>
				<rect x="615.9" y="230.1" class="st9" width="1.8" height="38.8"/>
				<path class="st10" d="M617.3,230.6v37.8h-0.8v-37.8L617.3,230.6 M618.3,229.6h-2.8v39.8h2.8V229.6L618.3,229.6z"/>
			</g>
			<g>
				<rect x="617.7" y="230.1" class="st9" width="20.8" height="38.8"/>
				<path class="st10" d="M638.1,230.6v37.8h-19.8v-37.8L638.1,230.6 M639.1,229.6h-21.8v39.8h21.8V229.6L639.1,229.6z"/>
			</g>
			<path class="st11" d="M638.4,269L618,229.7"/>
		</g>
		<g>
			<g>
				<rect x="223.4" y="93.7" class="st9" width="1.8" height="82.3"/>
				<path class="st10" d="M224.7,94.2v81.3h-0.8V94.2H224.7 M225.7,93.2h-2.8v83.3h2.8V93.2L225.7,93.2z"/>
			</g>
			<g>
				<rect x="225.2" y="93.7" class="st9" width="23.2" height="82.3"/>
				<path class="st10" d="M225.7,94.2h22.2v81.3h-22.2V94.2 M224.7,93.2v83.3h24.2V93.2H224.7L224.7,93.2z"/>
			</g>
			<path class="st11" d="M248.1,175.8l-22.6-82.4"/>
		</g>
		<g>
			<g>
				<rect x="319.1" y="232" class="st9" width="16.6" height="49.5"/>
				<path class="st10" d="M335.3,232.5V281h-15.6v-48.5H335.3 M336.3,231.5h-17.6V282h17.6V231.5L336.3,231.5z"/>
			</g>
			<g>
				<rect x="321.7" y="232" class="st9" width="23.2" height="49.5"/>
				<path class="st10" d="M344.4,232.5V281h-22.2v-48.5H344.4 M345.4,231.5h-24.2V282h24.2V231.5L345.4,231.5z"/>
			</g>
			<path class="st11" d="M344.6,281.6l-22.6-50"/>
		</g>
		<g>
			<g>
				<rect x="382.8" y="93.6" class="st9" width="1.8" height="79"/>
				<path class="st10" d="M384.2,94.1v78h-0.8v-78L384.2,94.1 M385.2,93.1h-2.8v80h2.8V93.1L385.2,93.1z"/>
			</g>
			<g>
				<rect x="362.6" y="93.6" class="st9" width="20.2" height="79"/>
				<path class="st10" d="M382.3,94.1v78h-19.2v-78L382.3,94.1 M383.3,93.1h-21.2v80h21.2V93.1L383.3,93.1z"/>
			</g>
			<path class="st11" d="M362.8,93.8l19.8,78.9"/>
		</g>
		<g>
			<g>
				<rect x="425.4" y="148.3" class="st9" width="1.8" height="22"/>
				<path class="st10" d="M426.7,148.8v21h-0.8v-21H426.7 M427.7,147.8h-2.8v23h2.8V147.8L427.7,147.8z"/>
			</g>
			<g>
				<rect x="427.2" y="148.3" class="st9" width="14.1" height="22"/>
				<path class="st10" d="M440.7,148.8v21h-13.1v-21H440.7 M441.7,147.8h-15.1v23h15.1V147.8L441.7,147.8z"/>
			</g>
			<path class="st11" d="M441.2,170.1l-13.9-21.8"/>
		</g>
		<g>
			<g>
				<rect x="327" y="93.6" class="st9" width="30.4" height="74.5"/>
				<path class="st10" d="M327.5,94.1h29.4v73.5h-29.4V94.1 M326.5,93.1v75.5h31.4V93.1H326.5L326.5,93.1z"/>
			</g>
			<g>
				<g>
					<path class="st15" d="M342.2,100c-5.8,0-10.3,5-9.7,10.7c0.6,6.3,1.1,14.2,1.1,20.1c0,5.8-0.6,13.8-1.1,20.1
						c-0.5,5.7,4,10.7,9.7,10.7s10.3-5,9.7-10.7c-0.6-6.3-1.1-14.2-1.1-20.1c0-5.8,0.6-13.8,1.1-20.1C352.4,105,347.9,100,342.2,100
						z"/>
					<ellipse class="st15" cx="342.2" cy="110.1" rx="1.2" ry="1.2"/>
				</g>
			</g>
		</g>
		<g>
			<g>
				<rect x="576.6" y="202.7" class="st9" width="26.5" height="17.8"/>
				<path class="st10" d="M577.1,203.2h25.5V220h-25.5V203.2 M576.1,202.2V221h27.5v-18.8H576.1L576.1,202.2z"/>
			</g>
			<g>
				<path class="st9" d="M589.9,217.3c-3.1,0-5.6-2.5-5.6-5.6s2.5-5.6,5.6-5.6s5.6,2.5,5.6,5.6S593,217.3,589.9,217.3z"/>
				<path class="st10" d="M589.9,206.5c2.8,0,5.1,2.3,5.1,5.1s-2.3,5.1-5.1,5.1s-5.1-2.3-5.1-5.1S587.1,206.5,589.9,206.5
					 M589.9,205.5c-3.4,0-6.1,2.7-6.1,6.1c0,3.4,2.7,6.1,6.1,6.1s6.1-2.7,6.1-6.1S593.3,205.5,589.9,205.5L589.9,205.5z"/>
			</g>
		</g>
		<g>
			<g>
				<rect x="269.9" y="93.6" class="st9" width="26.5" height="17.8"/>
				<path class="st10" d="M270.4,94.1h25.5v16.8h-25.5V94.1 M269.4,93.1v18.8h27.5V93.1H269.4L269.4,93.1z"/>
			</g>
			<g>
				<path class="st9" d="M283.1,108.1c-3.1,0-5.6-2.5-5.6-5.6s2.5-5.6,5.6-5.6s5.6,2.5,5.6,5.6C288.8,105.6,286.2,108.1,283.1,108.1
					z"/>
				<path class="st10" d="M283.1,97.3c2.8,0,5.1,2.3,5.1,5.1s-2.3,5.1-5.1,5.1c-2.8,0-5.1-2.3-5.1-5.1S280.3,97.3,283.1,97.3
					 M283.1,96.3c-3.4,0-6.1,2.7-6.1,6.1s2.7,6.1,6.1,6.1s6.1-2.7,6.1-6.1S286.5,96.3,283.1,96.3L283.1,96.3z"/>
			</g>
		</g>
		<g>
			<path class="st11" d="M457.7,304.4v-55.2h40.1v55.2H457.7z"/>
			<path class="st11" d="M467.7,245.9V245c0-5.5,4.5-10,10-10s10,4.5,10,10v0.8L467.7,245.9L467.7,245.9z"/>
			<path class="st11" d="M469.4,249.2V245c0-4.6,3.7-8.4,8.4-8.4c4.6,0,8.4,3.7,8.4,8.4v4.2H469.4z"/>
			<path class="st11" d="M467.7,307.7v0.8c0,5.5,4.5,10,10,10s10-4.5,10-10v-0.8H467.7z"/>
			<path class="st11" d="M469.4,304.4v4.2c0,4.6,3.7,8.4,8.4,8.4c4.6,0,8.4-3.7,8.4-8.4v-4.2H469.4z"/>
			<path class="st11" d="M454.3,266.8h-0.8c-5.5,0-10,4.5-10,10s4.5,10,10,10h0.8V266.8z"/>
			<path class="st11" d="M457.7,268.4h-4.2c-4.6,0-8.4,3.7-8.4,8.4c0,4.6,3.7,8.4,8.4,8.4h4.2V268.4z"/>
			<path class="st11" d="M501.2,266.8h0.8c5.5,0,10,4.5,10,10s-4.5,10-10,10h-0.8V266.8z"/>
			<path class="st11" d="M497.8,268.4h4.2c4.6,0,8.4,3.7,8.4,8.4c0,4.6-3.7,8.4-8.4,8.4h-4.2V268.4z"/>
		</g>
		<g>
			<path class="st11" d="M114.2,349.6v19.5l-17.7,2.6v-24.8L114.2,349.6z"/>
			<g>
				<rect x="69.4" y="299.2" class="st9" width="29.1" height="88.4"/>
				<path class="st10" d="M98,299.7v87.4H69.9v-87.4H98 M99,298.7H68.9v89.4H99V298.7L99,298.7z"/>
			</g>
			<path class="st13" d="M90,352.8v15.1 M93.5,351.5v17.7h-5.3v-17.7H93.5z"/>
			<path class="st11" d="M93.8,344.2L93.8,344.2c0,0.7-0.6,1.3-1.3,1.3h-1.8c-0.7,0-1.3-0.6-1.3-1.3l0,0c0-0.7,0.6-1.3,1.3-1.3h1.8
				C93.2,342.9,93.8,343.5,93.8,344.2z"/>
			<path class="st11" d="M79.6,355.9c2.4,0,4.4,2,4.4,4.4s-2,4.4-4.4,4.4h-4.4v-8.9L79.6,355.9z"/>
			<g>
				<polygon class="st9" points="75.1,382.9 75.2,337.8 76.9,337.8 76.8,382.9 				"/>
				<path class="st10" d="M75.7,338.3h0.7l-0.1,44h-0.7L75.7,338.3 M74.7,337.3l-0.1,46h2.7l0.1-46H74.7L74.7,337.3z"/>
			</g>
			<g>
				<rect x="98.7" y="349.8" class="st9" width="16.1" height="19.1"/>
				<path class="st10" d="M114.3,350.3v18.1H99.2v-18.1H114.3 M115.3,349.3H98.2v20.1h17.1L115.3,349.3L115.3,349.3z"/>
			</g>
			<g>
				<rect x="114.7" y="349.7" class="st9" width="1.8" height="19.4"/>
				<path class="st10" d="M116.1,350.2v18.4h-0.8v-18.4H116.1 M117.1,349.2h-2.8v20.4h2.8V349.2L117.1,349.2z"/>
			</g>
		</g>
		<g>
			<path class="st11" d="M114.3,140.1v19.5l-17.7,2.6v-24.8L114.3,140.1z"/>
			<g>
				<rect x="69.4" y="118.8" class="st9" width="29.1" height="62"/>
				<path class="st10" d="M98,119.3v61H69.9v-61H98 M99,118.3H68.9v63H99V118.3L99,118.3z"/>
			</g>
			<path class="st13" d="M90,142.3v15.1 M93.5,141v17.7h-5.3V141H93.5z"/>
			<path class="st11" d="M93.8,134.7L93.8,134.7c0,0.7-0.6,1.3-1.3,1.3h-1.8c-0.7,0-1.3-0.6-1.3-1.3l0,0c0-0.7,0.6-1.3,1.3-1.3h1.8
				C93.2,133.4,93.8,134,93.8,134.7z"/>
			<path class="st11" d="M79.6,145.4c2.4,0,4.4,2,4.4,4.4s-2,4.4-4.4,4.4h-4.4v-8.9L79.6,145.4z"/>
			
				<rect x="53.1" y="148.9" transform="matrix(1.695896e-03 -1 1 1.695896e-03 -73.8537 225.5967)" class="st16" width="46" height="1.8"/>
			<g>
				<rect x="98.7" y="140.3" class="st9" width="16.1" height="19.1"/>
				<path class="st10" d="M114.3,140.8v18.1H99.2v-18.1H114.3 M115.3,139.8H98.2v20.1h17.1L115.3,139.8L115.3,139.8z"/>
			</g>
			<g>
				<rect x="114.6" y="140.2" class="st9" width="1.8" height="19.4"/>
				<path class="st10" d="M116,140.7v18.4h-0.8v-18.4H116 M117,139.7h-2.8v20.4h2.8V139.7L117,139.7z"/>
			</g>
		</g>
		<g id="Sink_2_2_">
			<g id="Rectangle_16_x5F_11_3_">
				<rect x="296.4" y="93.6" class="st9" width="30.6" height="17.8"/>
				<path class="st10" d="M326.5,94.1v16.8h-29.6V94.1H326.5 M327.5,93.1h-31.6v18.8h31.6V93.1L327.5,93.1z"/>
			</g>
			<path id="Rectangle_19_x5F_5_2_" class="st11" d="M301.8,102.5L301.8,102.5c0,3.2,2.6,5.8,5.8,5.8h8.2c3.2,0,5.8-2.6,5.8-5.8l0,0
				c0-3.2-2.6-5.8-5.8-5.8h-8.2C304.4,96.7,301.8,99.3,301.8,102.5z"/>
			<circle id="Ellipse_7_x5F_2_2_" class="st11" cx="311.7" cy="99.9" r="1.2"/>
		</g>
		<g id="Toilet_4_">
			<g id="Rectangle_21_3_">
				<rect x="261.1" y="141.9" class="st9" width="5.3" height="16"/>
				<path class="st10" d="M265.9,142.4v15h-4.3v-15H265.9 M266.9,141.4h-6.3v17h6.3V141.4L266.9,141.4z"/>
			</g>
			<path id="Rectangle_19_x5F_2_4_" class="st11" d="M277.7,156c3.5,0.2,6.5-2.5,6.5-6.1l0,0c0-3.5-3-6.3-6.5-6.1l-11.2,0.7v10.6
				L277.7,156z"/>
			<path id="Rectangle_18_x5F_13_4_" class="st11" d="M277.5,154.4c2.6,0.2,4.9-1.8,4.9-4.4l0,0c0-2.6-2.3-4.7-4.9-4.4l-7.1,0.6v7.6
				L277.5,154.4z"/>
			<ellipse id="Ellipse_6_x5F_2_4_" class="st11" cx="273.5" cy="149.9" rx="1.2" ry="1.2"/>
		</g>
		<g id="TV_1_">
			<g id="Rectangle_16_1_">
				<rect x="360.3" y="264.6" class="st9" width="1.8" height="63"/>
				<path class="st10" d="M361.6,265.1v62h-0.8v-62H361.6 M362.6,264.1h-2.8v64h2.8V264.1L362.6,264.1z"/>
			</g>
			<g id="Rectangle_15_1_">
				<rect x="350" y="264.6" class="st9" width="10.3" height="63"/>
				<path class="st10" d="M359.8,265.1v62h-9.3v-62H359.8 M360.8,264.1h-11.3v64h11.3V264.1L360.8,264.1z"/>
			</g>
			<g id="Rectangle_17_1_">
				<rect x="352.1" y="275.4" class="st9" width="1.8" height="41.5"/>
				<path class="st10" d="M353.4,275.9v40.5h-0.8v-40.5H353.4 M354.4,274.9h-2.8v42.5h2.8V274.9L354.4,274.9z"/>
			</g>
			<path id="Rectangle_18_x5F_2_1_" class="st11" d="M351.6,287.1v18l-1.6-1.6v-14.7L351.6,287.1z"/>
		</g>
		<g id="Kitchen_1_">
			<g id="Rectangle_24_1_">
				<rect x="545.1" y="202.6" class="st9" width="26.3" height="84"/>
				<path class="st10" d="M545.6,203.1h25.3v83h-25.3V203.1 M544.6,202.1v85h27.3v-85H544.6L544.6,202.1z"/>
			</g>
			<g id="Rectangle_26_1_">
				<rect x="545.1" y="202.7" class="st9" width="26.3" height="120.6"/>
				<path class="st10" d="M545.6,203.2h25.3v119.6h-25.3V203.2 M544.6,202.2v121.6h27.3V202.2H544.6L544.6,202.2z"/>
			</g>
			<g id="Sink_3_1_">
				<rect id="Rectangle_28_x5F_2_1_" x="548" y="207.1" class="st11" width="20.5" height="32.4"/>
				<path id="Rectangle_29_x5F_2_1_" class="st11" d="M558.3,219.8L558.3,219.8c4.2,0,7.7,3.4,7.7,7.7v1.7c0,4.2-3.4,7.7-7.7,7.7
					l0,0c-4.2,0-7.7-3.4-7.7-7.7v-1.7C550.6,223.3,554,219.8,558.3,219.8z"/>
				<ellipse id="Ellipse_7_x5F_3_1_" class="st11" cx="562.5" cy="228.4" rx="1.2" ry="1.2"/>
				<path id="Vector_2_1_" class="st13" d="M550.6,208.8v8.5 M553.2,208.8v8.5 M555.7,208.8v8.5 M558.3,208.8v8.5 M560.8,208.8v8.5
					 M563.4,208.8v8.5 M566,208.8v8.5"/>
			</g>
			<g id="Stove_1_">
				<g id="Rectangle_25_1_">
					<rect x="545.1" y="260.1" class="st9" width="26.3" height="25.6"/>
					<path class="st10" d="M570.9,260.6v24.6h-25.3v-24.6H570.9 M571.9,259.6h-27.3v26.6h27.3V259.6L571.9,259.6z"/>
				</g>
				<g id="Rectangle_28_x5F_3_1_">
					<rect x="569.5" y="260.1" class="st9" width="1.8" height="25.6"/>
					<path class="st10" d="M570.9,260.6v24.6h-0.8v-24.6H570.9 M571.9,259.6h-2.8v26.6h2.8V259.6L571.9,259.6z"/>
				</g>
				<g id="Ellipse_7_x5F_4_1_">
					<path class="st9" d="M562.5,269.3c-1.6,0-2.9-1.3-2.9-2.9s1.3-2.9,2.9-2.9s2.9,1.3,2.9,2.9S564.1,269.3,562.5,269.3z"/>
					<path class="st10" d="M562.5,264c1.3,0,2.4,1.1,2.4,2.4s-1.1,2.4-2.4,2.4c-1.3,0-2.4-1.1-2.4-2.4S561.2,264,562.5,264
						 M562.5,263c-1.9,0-3.4,1.5-3.4,3.4s1.5,3.4,3.4,3.4s3.4-1.5,3.4-3.4S564.4,263,562.5,263L562.5,263z"/>
				</g>
				<g id="Ellipse_9_1_">
					<path class="st9" d="M552.2,270.2c-2.1,0-3.8-1.7-3.8-3.8s1.7-3.8,3.8-3.8s3.8,1.7,3.8,3.8S554.3,270.2,552.2,270.2z"/>
					<path class="st10" d="M552.2,263.1c1.8,0,3.3,1.5,3.3,3.3s-1.5,3.3-3.3,3.3s-3.3-1.5-3.3-3.3S550.4,263.1,552.2,263.1
						 M552.2,262.1c-2.4,0-4.3,1.9-4.3,4.3s1.9,4.3,4.3,4.3c2.4,0,4.3-1.9,4.3-4.3S554.6,262.1,552.2,262.1L552.2,262.1z"/>
				</g>
				<g id="Ellipse_10_1_">
					<path class="st9" d="M562.5,282.1c-2.1,0-3.8-1.7-3.8-3.8s1.7-3.8,3.8-3.8s3.8,1.7,3.8,3.8S564.6,282.1,562.5,282.1z"/>
					<path class="st10" d="M562.5,275.1c1.8,0,3.3,1.5,3.3,3.3s-1.5,3.3-3.3,3.3s-3.3-1.5-3.3-3.3S560.7,275.1,562.5,275.1
						 M562.5,274.1c-2.4,0-4.3,1.9-4.3,4.3s1.9,4.3,4.3,4.3c2.4,0,4.3-1.9,4.3-4.3S564.8,274.1,562.5,274.1L562.5,274.1z"/>
				</g>
				<g id="Ellipse_8_1_">
					<path class="st9" d="M551.4,281.3c-1.6,0-2.9-1.3-2.9-2.9s1.3-2.9,2.9-2.9s2.9,1.3,2.9,2.9S553,281.3,551.4,281.3z"/>
					<path class="st10" d="M551.4,275.9c1.3,0,2.4,1.1,2.4,2.4s-1.1,2.4-2.4,2.4s-2.4-1.1-2.4-2.4S550.1,275.9,551.4,275.9
						 M551.4,274.9c-1.9,0-3.4,1.5-3.4,3.4s1.5,3.4,3.4,3.4s3.4-1.5,3.4-3.4S553.3,274.9,551.4,274.9L551.4,274.9z"/>
				</g>
			</g>
		</g>
		<g>
			<polygon class="st9" points="268,378 268,366.8 344.9,366.8 344.9,373.8 319.7,373.8 319.7,378 			"/>
			<path class="st10" d="M344.4,367.3v6h-24.2h-1v1v3.2h-50.7v-10.2H344.4 M345.4,366.3h-77.9v12.2h52.7v-4.2h25.2L345.4,366.3
				L345.4,366.3z"/>
		</g>
		<g>
			<g id="Oven_1_">
				<g id="Rectangle_28_1_">
					<rect x="450.9" y="204" class="st9" width="22.7" height="1.8"/>
					<path class="st10" d="M473.1,204.5v0.8h-21.7v-0.8H473.1 M474.1,203.5h-23.7v2.8h23.7V203.5L474.1,203.5z"/>
				</g>
				<g id="Rectangle_29_1_">
					<rect x="446.4" y="173.5" class="st9" width="31.7" height="30.6"/>
					<path class="st10" d="M477.6,174v29.6h-30.7V174H477.6 M478.6,173h-32.7v31.6h32.7V173L478.6,173z"/>
				</g>
			</g>
			<g id="Rectangle_27_1_">
				<rect x="477.8" y="173.5" class="st9" width="30.6" height="30.6"/>
				<path class="st10" d="M507.9,174v29.6h-29.6V174H507.9 M508.9,173h-31.6v31.6h31.6V173L508.9,173z"/>
			</g>
			<path id="Vector_3_1_" class="st13" d="M489.2,188.8h7.9 M491.2,185.3l3.9,6.9 M491.2,192.2l3.9-6.9"/>
		</g>
		<g>
			<rect x="253.5" y="110.4" class="st9" width="7.6" height="57.8"/>
			<path class="st10" d="M260.6,110.9v56.8H254v-56.8L260.6,110.9 M261.6,109.9H253v58.8h8.6V109.9L261.6,109.9z"/>
		</g>
		<g id="Toilet_2_">
			<g id="Rectangle_21_2_">
				<rect x="280.5" y="361.5" class="st9" width="16" height="5.3"/>
				<path class="st10" d="M296,362v4.3h-15V362H296 M297,361h-17v6.3h17V361L297,361z"/>
			</g>
			<path id="Rectangle_19_x5F_2_2_" class="st11" d="M294.6,350.3c0.2-3.5-2.5-6.5-6.1-6.5l0,0c-3.5,0-6.3,3-6.1,6.5l0.7,11.2h10.6
				L294.6,350.3z"/>
			<path id="Rectangle_18_x5F_13_2_" class="st11" d="M293,350.5c0.2-2.6-1.8-4.9-4.4-4.9l0,0c-2.6,0-4.7,2.3-4.4,4.9l0.6,7.1h7.6
				L293,350.5z"/>
			<ellipse id="Ellipse_6_x5F_2_2_" class="st11" cx="288.5" cy="354.4" rx="1.2" ry="1.2"/>
		</g>
		<g>
			<g>
				<path class="st9" d="M312.9,366.8v-22.2c0-5.4,4.4-9.8,9.8-9.8h22.2v32H312.9z"/>
				<path class="st10" d="M344.4,335.3v31h-31v-21.7c0-5.1,4.2-9.3,9.3-9.3H344.4 M345.4,334.3h-22.7c-5.7,0-10.3,4.6-10.3,10.3
					v22.7h33V334.3L345.4,334.3z"/>
			</g>
			<g>
				<path class="st9" d="M315.6,364.1v-19.5c0-3.9,3.2-7.2,7.2-7.2h19.5V364h-26.7V364.1z"/>
				<path class="st10" d="M322.7,337v1h19v25.6h-25.6v-19c0-3.7,3-6.7,6.7-6.7V337 M322.7,337c-4.2,0-7.7,3.4-7.7,7.7v20h27.6v-27.6
					h-19.9V337z"/>
			</g>
			<ellipse class="st11" cx="336.9" cy="358.8" rx="1.2" ry="1.2"/>
		</g>
		<g id="Sink_2_1_">
			<g id="Rectangle_16_x5F_11_1_">
				<rect x="327" y="297.7" class="st9" width="17.9" height="28.9"/>
				<path class="st10" d="M344.4,298.2v27.9h-16.9v-27.9H344.4 M345.4,297.2h-18.9v29.9h18.9V297.2L345.4,297.2z"/>
			</g>
			<path id="Rectangle_19_x5F_5_1_" class="st11" d="M336,322.1L336,322.1c-3.2,0-5.8-2.6-5.8-5.8V308c0-3.2,2.6-5.8,5.8-5.8l0,0
				c3.2,0,5.8,2.6,5.8,5.8v8.3C341.7,319.5,339.2,322.1,336,322.1z"/>
			<circle id="Ellipse_7_x5F_2_1_" class="st11" cx="339.3" cy="312.2" r="1.2"/>
		</g>
	</g>
	<g id="street_anchors" class="st17">
		<rect id="street_x5F_anchor_x5F_02" x="355" y="429.3" class="st18" width="10" height="10"/>
		<rect id="street_x5F_anchor_x5F_01_1_" x="20" y="235" class="st18" width="10" height="10"/>
	</g>
</g>
<g id="комнаты">
	<g>
		<g>
			<path class="st8" d="M187.7,344.8l1.3-0.8h0.9v5.8h-1v-4.5l-1,0.6L187.7,344.8z"/>
			<path class="st8" d="M192.9,346.3h0.7c0.3,0,0.6-0.2,0.6-0.6c0-0.5-0.4-0.7-0.8-0.7c-0.5,0-1.1,0.4-1.5,0.9l-0.6-0.9
				c0.5-0.6,1.2-1.2,2.1-1.2c0.8,0,1.8,0.4,1.8,1.7c0,0.5-0.3,0.9-0.5,1.1c0.4,0.2,0.8,0.6,0.8,1.4c0,1.3-1,2-2.3,2
				c-0.9,0-1.6-0.4-2.3-1.2l0.6-0.9c0.4,0.6,1,1,1.7,1c0.7,0,1.2-0.4,1.2-1c0-0.5-0.4-0.6-0.7-0.6h-0.9V346.3z"/>
			<path class="st8" d="M197.1,348.2c0.4,0,0.7,0.4,0.7,0.9c0,0.5-0.3,0.9-0.7,0.9c-0.4,0-0.7-0.4-0.7-0.9
				C196.4,348.6,196.7,348.2,197.1,348.2z"/>
			<path class="st8" d="M198.6,344h4v1.1l-2.3,4.7H199l2.4-4.6h-2.8V344z"/>
		</g>
	</g>
	<g>
		<g>
			<path class="st8" d="M155.1,201.3l1.3-0.8h0.9v5.8h-1v-4.5l-1,0.6L155.1,201.3z"/>
			<path class="st8" d="M158.3,201.3l1.3-0.8h0.9v5.8h-1v-4.5l-1,0.6L158.3,201.3z"/>
			<path class="st8" d="M162.5,204.7c0.4,0,0.7,0.4,0.7,0.9c0,0.5-0.3,0.9-0.7,0.9c-0.4,0-0.7-0.4-0.7-0.9
				C161.8,205.1,162.1,204.7,162.5,204.7z"/>
			<path class="st8" d="M164,204.6c0-0.8,0.4-1.3,0.9-1.5c-0.4-0.2-0.7-0.6-0.7-1.2c0-1.1,1.1-1.6,2-1.6c0.9,0,2,0.5,2,1.7
				c0,0.6-0.2,0.9-0.7,1.1c0.5,0.2,0.9,0.7,0.9,1.5c0,1.2-1.1,1.9-2.2,1.9C165.1,206.5,164,205.8,164,204.6z M167.4,204.5
				c0-0.6-0.6-0.8-1.1-0.8c-0.5,0-1.1,0.3-1.1,0.8c0,0.5,0.6,0.9,1.1,0.9C166.8,205.4,167.4,205.1,167.4,204.5z M167.1,202.1
				c0-0.5-0.5-0.7-0.9-0.7c-0.4,0-0.9,0.2-0.9,0.7c0,0.4,0.3,0.6,0.9,0.6C166.8,202.7,167.1,202.5,167.1,202.1z"/>
		</g>
	</g>
	<g>
		<g>
			<path class="st8" d="M332.5,204.4c0-1.4,0.9-2.1,1.9-2.5c0.3-0.1,0.8-0.3,0.8-0.8c0-0.4-0.4-0.6-0.7-0.6c-0.6,0-1,0.4-1.5,0.9
				l-0.6-0.9c0.6-0.6,1.1-1.1,2-1.1c0.9,0,1.8,0.5,1.8,1.7c0,1.3-1,1.7-1.7,2c-0.6,0.3-1,0.6-1,1.1v0.1h2.6v1.1h-3.7V204.4z"/>
			<path class="st8" d="M337.8,203.7c0.4,0,0.7,0.4,0.7,0.9c0,0.5-0.3,0.9-0.7,0.9c-0.4,0-0.7-0.4-0.7-0.9
				C337.1,204.1,337.4,203.7,337.8,203.7z"/>
			<path class="st8" d="M343.1,200.8c-0.3-0.2-0.8-0.3-1.2-0.3c-0.8,0-1.5,0.7-1.6,1.9c0.4-0.4,1-0.8,1.7-0.8c1.2,0,1.8,0.9,1.8,1.8
				c0,1.2-0.8,2.1-2,2.1c-1.2,0-2.4-1-2.4-3c0-2,1.2-3.2,2.5-3.2c0.8,0,1.4,0.3,1.7,0.5L343.1,200.8z M340.5,203.2
				c0.2,0.8,0.7,1.2,1.3,1.2c0.6,0,1-0.5,1-1c0-0.4-0.2-0.8-0.9-0.8C341.4,202.6,340.9,202.9,340.5,203.2z"/>
		</g>
	</g>
	<g>
		<g>
			<path class="st8" d="M270,270.6c0-1.4,0.9-2.1,1.9-2.5c0.3-0.1,0.8-0.3,0.8-0.8c0-0.4-0.4-0.6-0.7-0.6c-0.6,0-1,0.4-1.5,0.9
				l-0.6-0.9c0.6-0.6,1.1-1.1,2-1.1c0.9,0,1.8,0.5,1.8,1.7c0,1.3-1,1.7-1.7,2c-0.6,0.3-1,0.6-1,1.1v0.1h2.6v1.1H270V270.6z"/>
			<path class="st8" d="M275.3,269.9c0.4,0,0.7,0.4,0.7,0.9c0,0.5-0.3,0.9-0.7,0.9c-0.4,0-0.7-0.4-0.7-0.9
				C274.6,270.3,274.9,269.9,275.3,269.9z"/>
			<path class="st8" d="M280.6,267c-0.3-0.2-0.8-0.3-1.2-0.3c-0.8,0-1.5,0.7-1.5,1.9c0.4-0.4,1-0.8,1.7-0.8c1.2,0,1.8,0.9,1.8,1.8
				c0,1.2-0.8,2.1-2,2.1c-1.2,0-2.4-1-2.4-3c0-2,1.2-3.2,2.5-3.2c0.8,0,1.4,0.3,1.7,0.5L280.6,267z M278,269.4
				c0.2,0.8,0.7,1.2,1.3,1.2c0.6,0,1-0.5,1-1c0-0.4-0.2-0.8-0.9-0.8C278.9,268.8,278.4,269.1,278,269.4z"/>
		</g>
	</g>
	<g>
		<g>
			<path class="st8" d="M402.2,146.3h0.7c0.3,0,0.6-0.2,0.6-0.6c0-0.5-0.4-0.7-0.8-0.7c-0.5,0-1.1,0.4-1.5,0.9l-0.6-0.9
				c0.5-0.6,1.2-1.2,2.1-1.2c0.8,0,1.8,0.4,1.8,1.7c0,0.5-0.3,0.9-0.5,1.1c0.4,0.2,0.8,0.6,0.8,1.4c0,1.3-1,2-2.3,2
				c-0.9,0-1.6-0.4-2.3-1.2l0.6-0.9c0.4,0.6,1,1,1.7,1c0.7,0,1.2-0.4,1.2-1c0-0.5-0.4-0.6-0.7-0.6h-0.9V146.3z"/>
			<path class="st8" d="M406.4,148.3c0.4,0,0.7,0.4,0.7,0.9c0,0.5-0.3,0.9-0.7,0.9c-0.4,0-0.7-0.4-0.7-0.9
				C405.7,148.7,406,148.3,406.4,148.3z"/>
			<path class="st8" d="M412.6,148.7h-0.8v1.2h-1v-1.2h-3v-0.8l3.1-3.7h0.9v3.5h0.8V148.7z M409.2,147.6h1.6v-1.9h-0.1
				C410.3,146.3,409.7,147,409.2,147.6L409.2,147.6z"/>
		</g>
	</g>
	<g>
		<g>
			<path class="st8" d="M409.4,275c0-1.4,0.9-2.1,1.9-2.5c0.3-0.1,0.8-0.3,0.8-0.8c0-0.4-0.4-0.6-0.7-0.6c-0.6,0-1,0.4-1.5,0.9
				l-0.6-0.9c0.6-0.6,1.1-1.1,2-1.1c0.9,0,1.8,0.5,1.8,1.7c0,1.3-1,1.7-1.7,2c-0.6,0.3-1,0.6-1,1.1v0.1h2.6v1.1h-3.7V275z"/>
			<path class="st8" d="M414.1,275c0-1.4,0.9-2.1,1.9-2.5c0.3-0.1,0.8-0.3,0.8-0.8c0-0.4-0.4-0.6-0.7-0.6c-0.6,0-1,0.4-1.5,0.9
				l-0.6-0.9c0.6-0.6,1.1-1.1,2-1.1c0.9,0,1.8,0.5,1.8,1.7c0,1.3-1,1.7-1.7,2c-0.6,0.3-1,0.6-1,1.1v0.1h2.6v1.1h-3.7V275z"/>
		</g>
	</g>
	<g>
		<g>
			<path class="st8" d="M594.6,347.4h-0.8v1.2h-1v-1.2h-3v-0.8l3.1-3.7h0.9v3.5h0.8V347.4z M591.2,346.3h1.6v-1.9h-0.1
				C592.2,345,591.7,345.7,591.2,346.3L591.2,346.3z"/>
		</g>
	</g>
	<g>
		<g>
			<path class="st8" d="M590,249.8c0-1.4,0.9-2.1,1.9-2.5c0.3-0.1,0.8-0.3,0.8-0.8c0-0.4-0.4-0.6-0.7-0.6c-0.6,0-1,0.4-1.5,0.9
				l-0.6-0.9c0.6-0.6,1.1-1.1,2-1.1c0.9,0,1.8,0.5,1.8,1.7c0,1.3-1,1.7-1.7,2c-0.6,0.3-1,0.6-1,1.1v0.1h2.6v1.1H590V249.8z"/>
			<path class="st8" d="M595.4,249.1c0.4,0,0.7,0.4,0.7,0.9c0,0.5-0.3,0.9-0.7,0.9c-0.4,0-0.7-0.4-0.7-0.9
				C594.7,249.5,595,249.1,595.4,249.1z"/>
			<path class="st8" d="M597,249.8c0-1.4,0.9-2.1,1.9-2.5c0.3-0.1,0.8-0.3,0.8-0.8c0-0.4-0.4-0.6-0.7-0.6c-0.6,0-1,0.4-1.5,0.9
				l-0.6-0.9c0.6-0.6,1.1-1.1,2-1.1c0.9,0,1.8,0.5,1.8,1.7c0,1.3-1,1.7-1.7,2c-0.6,0.3-1,0.6-1,1.1v0.1h2.6v1.1H597V249.8z"/>
		</g>
	</g>
	<g>
		<g>
			<path class="st8" d="M292.3,321.9h0.7c0.3,0,0.6-0.2,0.6-0.6c0-0.5-0.4-0.7-0.8-0.7c-0.5,0-1.1,0.4-1.5,0.9l-0.6-0.9
				c0.5-0.6,1.2-1.2,2.1-1.2c0.8,0,1.8,0.4,1.8,1.7c0,0.5-0.3,0.9-0.5,1.1c0.4,0.2,0.8,0.6,0.8,1.4c0,1.3-1,2-2.3,2
				c-0.9,0-1.6-0.4-2.3-1.2l0.6-0.9c0.4,0.6,1,1,1.7,1c0.7,0,1.2-0.4,1.2-1c0-0.5-0.4-0.6-0.7-0.6h-0.9V321.9z"/>
			<path class="st8" d="M296.5,323.9c0.4,0,0.7,0.4,0.7,0.9c0,0.5-0.3,0.9-0.7,0.9c-0.4,0-0.7-0.4-0.7-0.9
				C295.8,324.3,296.1,323.9,296.5,323.9z"/>
			<path class="st8" d="M298.7,324.2c0.3,0.2,0.8,0.3,1.2,0.3c0.8,0,1.5-0.7,1.5-1.8c-0.4,0.4-1,0.8-1.6,0.8c-1.2,0-1.8-0.9-1.8-1.9
				c0-1.2,0.8-2.1,2-2.1c1.2,0,2.4,1,2.4,3c0,2-1.2,3.2-2.5,3.2c-0.8,0-1.4-0.3-1.7-0.5L298.7,324.2z M301.4,321.8
				c-0.2-0.8-0.7-1.2-1.3-1.2c-0.6,0-1,0.5-1,1c0,0.4,0.2,0.8,0.9,0.8C300.5,322.4,301,322.1,301.4,321.8z"/>
		</g>
	</g>
	<g>
		<g>
			<path class="st8" d="M303.1,141.8h-0.8v1.2h-1v-1.2h-3V141l3.1-3.7h0.9v3.5h0.8V141.8z M299.7,140.8h1.6v-1.9h-0.1
				C300.7,139.5,300.2,140.1,299.7,140.8L299.7,140.8z"/>
		</g>
	</g>
</g>
</svg>
