<?xml version="1.0" encoding="utf-8"?>
<!-- Generator: Adobe Illustrator 26.0.3, SVG Export Plug-In . SVG Version: 6.00 Build 0)  -->
<svg version="1.1" xmlns="http://www.w3.org/2000/svg" xmlns:xlink="http://www.w3.org/1999/xlink" x="0px" y="0px"
	 viewBox="0 0 720 480" style="enable-background:new 0 0 720 480;" xml:space="preserve">
<style type="text/css">
	.st0{fill:#DBD4CA;}
	.st1{clip-path:url(#SVGID_00000111170914661794527410000001089922234280251266_);}
	.st2{fill:none;stroke:#C49F8A;stroke-miterlimit:10;}
	.st3{opacity:0.3;clip-path:url(#SVGID_00000111912205554925603990000007573414167130747563_);}
	.st4{opacity:0.7;fill:#C49F8A;enable-background:new    ;}
	.st5{fill:none;stroke:#565440;}
	.st6{fill:none;stroke:#565440;stroke-width:1;stroke-miterlimit:4.0004;}
	.st7{fill:#565440;}
	.st8{fill:#E9E4DC;}
	.st9{fill:#C49F8A;}
	.st10{fill:#E9E4DC;stroke:#C49F8A;}
	.st11{fill:#E9E4DC;stroke:#C49F8A;stroke-miterlimit:3.9998;}
	.st12{fill:none;stroke:#C49F8A;}
	.st13{fill:#E9E4DC;stroke:#C49F8A;stroke-linejoin:round;}
	.st14{opacity:0.64;}
	.st15{fill:#3F3F3F;fill-opacity:0;}
</style>
<g id="_x31__x5F_2">
	<polygon id="Floor_1_" class="st0" points="181.1,67.3 446.2,67.3 446.2,152.5 557.4,152.5 557.4,402.6 554.8,413.2 487.9,396 
		440.6,396 440.6,409.8 439.5,413.2 386.5,399.1 341.4,399.1 337.5,413 278.9,397.8 234,397.8 230.8,411.5 168.6,398 180.4,337 
		180.4,297.5 165.6,291.6 185.1,206.5 185.1,163 168.4,157.4 181.1,102.7 	"/>
	<g id="Wet_Floor_1_">
		<g>
			<g>
				<defs>
					<polygon id="SVGID_1_" points="437.8,245.3 352.9,245.3 352.9,134.7 437.8,134.7 437.8,161.8 553,161.8 553,229.2 437.8,229.2 
											"/>
				</defs>
				<clipPath id="SVGID_00000175300096030267324610000015376646170402879632_">
					<use xlink:href="#SVGID_1_"  style="overflow:visible;"/>
				</clipPath>
				<g style="clip-path:url(#SVGID_00000175300096030267324610000015376646170402879632_);">
					<g>
						<line class="st2" x1="101.9" y1="232.6" x2="435.4" y2="-100.9"/>
						<line class="st2" x1="91.5" y1="222.1" x2="425" y2="-111.3"/>
						<line class="st2" x1="112.3" y1="243" x2="445.8" y2="-90.5"/>
						<line class="st2" x1="122.7" y1="253.4" x2="456.2" y2="-80.1"/>
						<line class="st2" x1="133.2" y1="263.8" x2="466.6" y2="-69.7"/>
						<line class="st2" x1="143.6" y1="274.3" x2="477.1" y2="-59.2"/>
						<line class="st2" x1="154" y1="284.7" x2="487.5" y2="-48.8"/>
						<line class="st2" x1="164.4" y1="295.1" x2="497.9" y2="-38.4"/>
						<line class="st2" x1="174.8" y1="305.5" x2="508.3" y2="-28"/>
						<line class="st2" x1="185.3" y1="315.9" x2="518.8" y2="-17.5"/>
						<line class="st2" x1="174.8" y1="305.5" x2="508.3" y2="-28"/>
						<line class="st2" x1="195.7" y1="326.4" x2="529.2" y2="-7.1"/>
						<line class="st2" x1="206.1" y1="336.8" x2="539.6" y2="3.3"/>
						<line class="st2" x1="216.5" y1="347.2" x2="550" y2="13.7"/>
						<line class="st2" x1="227" y1="357.6" x2="560.4" y2="24.1"/>
						<line class="st2" x1="237.4" y1="368" x2="570.9" y2="34.6"/>
						<line class="st2" x1="247.8" y1="378.5" x2="581.3" y2="45"/>
						<line class="st2" x1="258.2" y1="388.9" x2="591.7" y2="55.4"/>
						<line class="st2" x1="268.6" y1="399.3" x2="602.1" y2="65.8"/>
						<line class="st2" x1="258.2" y1="388.9" x2="591.7" y2="55.4"/>
						<line class="st2" x1="279.1" y1="409.7" x2="612.5" y2="76.2"/>
						<line class="st2" x1="289.5" y1="420.2" x2="623" y2="86.7"/>
						<line class="st2" x1="299.9" y1="430.6" x2="633.4" y2="97.1"/>
						<line class="st2" x1="310.3" y1="441" x2="643.8" y2="107.5"/>
						<line class="st2" x1="320.7" y1="451.4" x2="654.2" y2="117.9"/>
						<line class="st2" x1="331.2" y1="461.8" x2="664.7" y2="128.4"/>
						<line class="st2" x1="341.6" y1="472.3" x2="675.1" y2="138.8"/>
						<line class="st2" x1="352" y1="482.7" x2="685.5" y2="149.2"/>
						<line class="st2" x1="341.6" y1="472.3" x2="675.1" y2="138.8"/>
						<line class="st2" x1="362.4" y1="493.1" x2="695.9" y2="159.6"/>
						<line class="st2" x1="372.9" y1="503.5" x2="706.3" y2="170"/>
						<line class="st2" x1="383.3" y1="513.9" x2="716.8" y2="180.5"/>
						<line class="st2" x1="393.7" y1="524.4" x2="727.2" y2="190.9"/>
						<line class="st2" x1="404.1" y1="534.8" x2="737.6" y2="201.3"/>
						<line class="st2" x1="414.5" y1="545.2" x2="748" y2="211.7"/>
						<line class="st2" x1="425" y1="555.6" x2="758.4" y2="222.1"/>
					</g>
					<g>
						<line class="st2" x1="435.4" y1="545.2" x2="101.9" y2="211.7"/>
						<line class="st2" x1="425" y1="555.6" x2="91.5" y2="222.1"/>
						<line class="st2" x1="445.8" y1="534.8" x2="112.3" y2="201.3"/>
						<line class="st2" x1="456.2" y1="524.4" x2="122.7" y2="190.9"/>
						<line class="st2" x1="466.6" y1="513.9" x2="133.2" y2="180.5"/>
						<line class="st2" x1="477.1" y1="503.5" x2="143.6" y2="170"/>
						<line class="st2" x1="487.5" y1="493.1" x2="154" y2="159.6"/>
						<line class="st2" x1="497.9" y1="482.7" x2="164.4" y2="149.2"/>
						<line class="st2" x1="508.3" y1="472.3" x2="174.8" y2="138.8"/>
						<line class="st2" x1="518.8" y1="461.8" x2="185.3" y2="128.4"/>
						<line class="st2" x1="508.3" y1="472.3" x2="174.8" y2="138.8"/>
						<line class="st2" x1="529.2" y1="451.4" x2="195.7" y2="117.9"/>
						<line class="st2" x1="539.6" y1="441" x2="206.1" y2="107.5"/>
						<line class="st2" x1="550" y1="430.6" x2="216.5" y2="97.1"/>
						<line class="st2" x1="560.4" y1="420.2" x2="227" y2="86.7"/>
						<line class="st2" x1="570.9" y1="409.7" x2="237.4" y2="76.2"/>
						<line class="st2" x1="581.3" y1="399.3" x2="247.8" y2="65.8"/>
						<line class="st2" x1="591.7" y1="388.9" x2="258.2" y2="55.4"/>
						<line class="st2" x1="602.1" y1="378.5" x2="268.6" y2="45"/>
						<line class="st2" x1="591.7" y1="388.9" x2="258.2" y2="55.4"/>
						<line class="st2" x1="612.5" y1="368" x2="279.1" y2="34.6"/>
						<line class="st2" x1="623" y1="357.6" x2="289.5" y2="24.1"/>
						<line class="st2" x1="633.4" y1="347.2" x2="299.9" y2="13.7"/>
						<line class="st2" x1="643.8" y1="336.8" x2="310.3" y2="3.3"/>
						<line class="st2" x1="654.2" y1="326.4" x2="320.7" y2="-7.1"/>
						<line class="st2" x1="664.7" y1="315.9" x2="331.2" y2="-17.5"/>
						<line class="st2" x1="675.1" y1="305.5" x2="341.6" y2="-28"/>
						<line class="st2" x1="685.5" y1="295.1" x2="352" y2="-38.4"/>
						<line class="st2" x1="675.1" y1="305.5" x2="341.6" y2="-28"/>
						<line class="st2" x1="695.9" y1="284.7" x2="362.4" y2="-48.8"/>
						<line class="st2" x1="706.3" y1="274.3" x2="372.9" y2="-59.2"/>
						<line class="st2" x1="716.8" y1="263.8" x2="383.3" y2="-69.7"/>
						<line class="st2" x1="727.2" y1="253.4" x2="393.7" y2="-80.1"/>
						<line class="st2" x1="737.6" y1="243" x2="404.1" y2="-90.5"/>
						<line class="st2" x1="748" y1="232.6" x2="414.5" y2="-100.9"/>
						<line class="st2" x1="758.4" y1="222.1" x2="425" y2="-111.3"/>
					</g>
				</g>
			</g>
		</g>
		<g>
			<g>
				<defs>
					<polygon id="SVGID_00000072982731766392617370000017989063549263605893_" points="437.8,245.3 352.9,245.3 352.9,134.7 
						437.8,134.7 437.8,161.8 553,161.8 553,229.2 437.8,229.2 					"/>
				</defs>
				<clipPath id="SVGID_00000020359213396065583980000016787405157561090966_">
					<use xlink:href="#SVGID_00000072982731766392617370000017989063549263605893_"  style="overflow:visible;"/>
				</clipPath>
				<g style="opacity:0.3;clip-path:url(#SVGID_00000020359213396065583980000016787405157561090966_);">
					<rect x="263.9" y="50.6" class="st4" width="322.2" height="322.2"/>
				</g>
			</g>
		</g>
	</g>
	<g id="Windows">
		<path class="st5" d="M181.1,102.7l-11.8,51.2l-4.9-1l11.8-51.2L181.1,102.7z"/>
		<path class="st5" d="M185,206.5l-19,83.1l-4.9-1l19.1-83.1L185,206.5z"/>
		<polygon class="st5" points="227.4,416.4 228.7,411.5 168.6,398 184.1,318.8 179.5,317.8 162.7,401.9 		"/>
		
			<rect x="306.5" y="378.5" transform="matrix(0.2515 -0.9679 0.9679 0.2515 -163.7317 604.4354)" class="st6" width="4.9" height="59.1"/>
		
			<rect x="411.5" y="381.8" transform="matrix(0.2515 -0.9679 0.9679 0.2515 -85.7857 706.5639)" class="st6" width="4.9" height="53.9"/>
		
			<rect x="522.1" y="378.5" transform="matrix(0.2515 -0.9679 0.9679 0.2515 -2.3455 813.1679)" class="st6" width="4.9" height="59.1"/>
	</g>
	<g id="Doors">
		<path class="st5" d="M446.2,130.6c4.5,0,8.2-0.8,12.3-2.5c4.1-1.6,7.8-4.1,10.7-7c3.3-2.9,5.8-6.6,7.4-10.7s2.5-8.2,2.5-12.8
			h-32.9"/>
		<path class="st5" d="M438.7,279.3c3.6,0,6.6-0.7,9.9-2s6.2-3.3,8.5-5.6c2.6-2.3,4.6-5.3,5.9-8.5c1.3-3.3,2-6.6,2-10.2h-26.3"/>
		<path class="st5" d="M491.8,225.9c0-3.3,0.6-5.9,1.8-8.9c1.2-3,3-5.6,5-7.7c2.1-2.4,4.7-4.1,7.7-5.3s5.9-1.8,9.2-1.8v23.7"/>
		<path class="st5" d="M376.8,242c0-3.4,0.6-6.1,1.8-9.2c1.2-3.1,3.1-5.8,5.2-7.9c2.1-2.4,4.9-4.3,7.9-5.5c3.1-1.2,6.1-1.8,9.5-1.8
			V242"/>
		<path class="st5" d="M401.3,134.7c0-3.4-0.6-6.1-1.8-9.2c-1.2-3.1-3.1-5.8-5.2-7.9c-2.1-2.4-4.9-4.3-7.9-5.5
			c-3.1-1.2-6.1-1.8-9.5-1.8v24.5"/>
		<path class="st5" d="M363.8,283.6c0,3.7-0.7,6.7-2,10.1s-3.4,6.4-5.7,8.7c-2.4,2.7-5.4,4.7-8.7,6.1c-3.4,1.3-6.7,2-10.4,2v-26.9"
			/>
		<path class="st5" d="M311.5,273.6c-3.6,0-6.6-0.7-9.9-2s-6.3-3.3-8.6-5.6c-2.6-2.3-4.6-5.3-5.9-8.6c-1.3-3.3-2-6.6-2-10.2h26.3"/>
	</g>
	<g id="Walls">
		<path class="st7" d="M190,96.1V76.4h167.5v12.3h15.2V76.4h63.7v21.3h9.9V60H173.5v33.9l-2,8.2l16.1,3.6L190,96.1z M369.4,85.4
			h-8.6v-9h8.6V85.4z"/>
		<polygon class="st7" points="173.5,207.8 193.2,207.8 193.2,155.3 180.1,155.3 164,151.6 161.7,161.2 173.5,163.8 		"/>
		<polygon class="st7" points="175.4,289.9 160.7,286.6 158.4,296.2 173.5,299.6 173.5,339.2 193.2,339.2 193.2,289.9 		"/>
		<polygon class="st7" points="228.9,403.1 225.6,417.7 235.1,420 238.5,404.9 284.1,404.9 284.1,385.2 228.9,385.2 		"/>
		<polygon class="st7" points="383.8,388.5 336,388.5 336,403.1 332.7,417.7 342.2,420 345.6,404.9 381.5,404.9 389.7,406.9 
			393.3,390.8 		"/>
		<polygon class="st7" points="314.8,247.2 314.8,240.7 185.7,240.7 176.8,238.7 176.2,242 185,243.9 311.5,243.9 311.5,247.2 		"/>
		<polygon class="st7" points="336.9,280.3 314.8,280.3 314.8,273.5 311.5,273.5 311.5,397.7 309.5,405.5 312.8,406.2 314.8,398.3 
			314.8,283.6 336.9,283.6 		"/>
		<polygon class="st7" points="446.2,277.8 436.3,277.8 436.3,280.3 363.8,280.3 363.8,283.6 436.3,283.6 436.3,409.5 434.3,417.7 
			443.9,420 446.2,410.5 446.2,404.9 498.7,404.9 498.7,385.2 446.2,385.2 		"/>
		<path class="st7" d="M561.6,152h-0.5H446.2v-21.4h-9.9v4.1h-35v3.3h24.4v16.4h10.6v21.4h-80.5V138h21v-3.3h-24.3v110.6h0.3h24V242
			h-21v-62.8h80.5V242h-35.1v3.3h35.1v7.7h3.3v-23.9h52.2v-3.3h-52.2v-50.4h15v-13.6h97.1v64.1h-36.2v3.3h36.2v172.4l-3.6,16.1
			l9.5,2.3l3.9-18.2L561.6,152z M429,151.1V138h7.3v13.1H429z M451.3,172.2h-11.7v-10.4h11.7V172.2z"/>
	</g>
	<g id="Furniture">
		<g>
			<rect x="356.3" y="138.5" class="st8" width="14.5" height="36.9"/>
			<path class="st9" d="M370.4,139v35.9h-13.5V139H370.4 M371.4,138h-15.5v37.9h15.5V138L371.4,138z"/>
		</g>
		<g>
			<rect x="356.3" y="179.7" class="st8" width="79.5" height="4.3"/>
			<path class="st9" d="M435.3,180.2v3.3h-78.5v-3.3H435.3 M436.3,179.2h-80.5v5.3h80.5V179.2L436.3,179.2z"/>
		</g>
		<g>
			<rect x="356.3" y="186" class="st8" width="14.5" height="28.7"/>
			<path class="st9" d="M370.4,186.5v27.7h-13.5v-27.7H370.4 M371.4,185.5h-15.5v29.7h15.5V185.5L371.4,185.5z"/>
		</g>
		<g>
			<g>
				<rect x="245.9" y="302.5" class="st8" width="65" height="52.1"/>
				<path class="st9" d="M310.5,303v51.1h-64V303H310.5 M311.5,302h-66v53.1h66V302L311.5,302z"/>
			</g>
			<rect x="290.5" y="306.5" class="st10" width="16.3" height="20.7"/>
			<rect x="290.5" y="329.8" class="st10" width="16.3" height="20.7"/>
			<polygon class="st11" points="297.1,309.1 301.3,324 285.6,328 281.3,313.1 			"/>
			<polygon class="st11" points="285.5,329.1 301.3,333.1 297.1,348.1 281.3,344.1 			"/>
			<g>
				<polygon class="st8" points="245.3,354.6 245.3,302.5 293.8,302.5 298.5,333.8 297.2,354.6 				"/>
				<path class="st9" d="M293.3,303l4.7,30.9l-1.3,20.2h-0.1h-50.8V303H293.3 M294.2,302h-0.3h-49v53.1h51.8h1l1.4-21.2L294.2,302
					L294.2,302z"/>
			</g>
			<polyline class="st12" points="296,354.4 296,333.6 293.3,302.6 			"/>
		</g>
		<g>
			<g>
				<rect x="486.2" y="298.1" class="st8" width="65" height="52.1"/>
				<path class="st9" d="M550.7,298.6v51.1h-64v-51.1H550.7 M551.7,297.6h-66v53.1h66V297.6L551.7,297.6z"/>
			</g>
			<rect x="530.7" y="302.2" class="st10" width="16.3" height="20.7"/>
			<rect x="530.7" y="325.5" class="st10" width="16.3" height="20.7"/>
			<polygon class="st11" points="537.3,304.7 541.5,319.7 525.8,323.7 521.5,308.7 			"/>
			<polygon class="st11" points="525.8,324.8 541.5,328.8 537.3,343.8 521.5,339.8 			"/>
			<g>
				<polygon class="st8" points="485.5,350.2 485.5,298.2 534,298.2 538.8,329.5 537.4,350.2 				"/>
				<path class="st9" d="M533.5,298.7l4.7,30.9l-1.3,20.2h-0.1H486v-51.1H533.5 M534.4,297.7H534h-49v53.1h51.8h1l1.4-21.2
					L534.4,297.7L534.4,297.7z"/>
			</g>
			<polyline class="st12" points="536.2,350 536.2,329.3 533.5,298.3 			"/>
		</g>
		<g>
			<g>
				<rect x="391.5" y="284.1" class="st8" width="44.3" height="71.4"/>
				<path class="st9" d="M435.3,284.6V355H392v-70.4H435.3 M436.3,283.6H391V356h45.3V283.6L436.3,283.6z"/>
			</g>
			<rect x="394.9" y="288.7" class="st10" width="17.7" height="17.9"/>
			<rect x="414.8" y="288.7" class="st10" width="17.7" height="17.9"/>
			<polygon class="st11" points="397.1,299.4 409.8,294.7 413.3,312 400.5,316.7 			"/>
			<polygon class="st11" points="414.2,312 417.6,294.7 430.4,299.4 427,316.7 			"/>
			<g>
				<polygon class="st8" points="391.6,356.2 391.6,303 418.2,297.7 435.8,299.2 435.8,356.2 				"/>
				<path class="st9" d="M418.3,298.2l17.1,1.4v0.2v55.8h-43.3v-52.3L418.3,298.2 M418.2,297.2l-27.1,5.3v0.4v53.8h45.3v-56.8v-1.1
					L418.2,297.2L418.2,297.2z"/>
			</g>
			<polyline class="st12" points="435.7,300.6 418,300.6 391.6,303.6 			"/>
		</g>
		<g>
			<g>
				<rect x="333.3" y="284.1" class="st8" width="1.8" height="47.5"/>
				<path class="st9" d="M334.6,284.6v46.5h-0.8v-46.5H334.6 M335.6,283.6h-2.8v48.5h2.8V283.6L335.6,283.6z"/>
			</g>
			<g>
				<rect x="315.2" y="284.1" class="st8" width="18.1" height="47.5"/>
				<path class="st9" d="M332.8,284.6v46.5h-17.1v-46.5H332.8 M333.8,283.6h-19.1v48.5h19.1V283.6L333.8,283.6z"/>
			</g>
			<path class="st10" d="M315.2,331.8l18.2-48.2"/>
		</g>
		<g>
			<g>
				<rect x="208" y="262.5" class="st8" width="66" height="1.8"/>
				<path class="st9" d="M273.6,263v0.8h-65V263H273.6 M274.6,262h-67v2.8h67V262L274.6,262z"/>
			</g>
			<g>
				<rect x="208" y="244.4" class="st8" width="66" height="18.1"/>
				<path class="st9" d="M273.6,244.9V262h-65v-17.1H273.6 M274.6,243.9h-67V263h67V243.9L274.6,243.9z"/>
			</g>
			<path class="st10" d="M207.8,244.4l66.6,18.2"/>
		</g>
		<g>
			<g>
				<rect x="440" y="247.8" class="st8" width="51.3" height="1.8"/>
				<path class="st9" d="M490.8,248.3v0.8h-50.3v-0.8H490.8 M491.8,247.3h-52.3v2.8h52.3V247.3L491.8,247.3z"/>
			</g>
			<g>
				<rect x="440" y="229.7" class="st8" width="51.3" height="18.1"/>
				<path class="st9" d="M490.8,230.2v17.1h-50.3v-17.1H490.8 M491.8,229.2h-52.3v19.1h52.3V229.2L491.8,229.2z"/>
			</g>
			<path class="st10" d="M439.7,229.7l52,18.2"/>
		</g>
		<g>
			<g>
				<rect x="520.8" y="247.8" class="st8" width="30.4" height="1.8"/>
				<path class="st9" d="M550.7,248.3v0.8h-29.4v-0.8H550.7 M551.7,247.3h-31.4v2.8h31.4V247.3L551.7,247.3z"/>
			</g>
			<g>
				<rect x="520.8" y="229.7" class="st8" width="30.4" height="18.1"/>
				<path class="st9" d="M550.7,230.2v17.1h-29.4v-17.1H550.7 M551.7,229.2h-31.4v19.1h31.4V229.2L551.7,229.2z"/>
			</g>
			<path class="st10" d="M520.4,229.7l31.2,18.2"/>
		</g>
		<g>
			<g>
				<rect x="381.3" y="95" class="st8" width="54.6" height="1.8"/>
				<path class="st9" d="M435.3,95.5v0.8h-53.6v-0.8H435.3 M436.3,94.5h-55.6v2.8h55.6V94.5L436.3,94.5z"/>
			</g>
			<g>
				<rect x="381.3" y="76.9" class="st8" width="54.6" height="18.1"/>
				<path class="st9" d="M435.3,77.4v17.1h-53.6V77.4H435.3 M436.3,76.4h-55.6v19.1h55.6V76.4L436.3,76.4z"/>
			</g>
			<path class="st10" d="M381,76.9l55.2,18.2"/>
		</g>
		<g>
			<g>
				<rect x="356.3" y="121.8" class="st8" width="18" height="1.8"/>
				<path class="st9" d="M373.8,122.3v0.8h-17v-0.8H373.8 M374.8,121.3h-19v2.8h19V121.3L374.8,121.3z"/>
			</g>
			<g>
				<rect x="356.3" y="123.6" class="st8" width="18" height="10.7"/>
				<path class="st9" d="M373.8,124.1v9.7h-17v-9.7L373.8,124.1 M374.8,123.1h-19v11.7h19V123.1L374.8,123.1z"/>
			</g>
			<path class="st10" d="M374.4,134.2l-18.2-10.7"/>
		</g>
		<g>
			<g>
				<rect x="526.7" y="162.3" class="st8" width="24.5" height="56.6"/>
				<path class="st9" d="M527.2,162.8h23.5v55.6h-23.5V162.8 M526.2,161.8v57.6h25.5v-57.6L526.2,161.8L526.2,161.8z"/>
			</g>
			<g>
				<g>
					<path class="st13" d="M539,167.2c-4.4,0-7.8,3.8-7.4,8.1c0.4,4.8,0.8,10.8,0.8,15.4c0,4.5-0.4,10.5-0.8,15.4
						c-0.4,4.4,3.1,8.1,7.4,8.1s7.8-3.8,7.4-8.1c-0.4-4.8-0.8-10.8-0.8-15.4c0-4.5,0.4-10.5,0.8-15.4
						C546.8,171,543.3,167.2,539,167.2z"/>
					<ellipse class="st13" cx="539" cy="174.8" rx="1.3" ry="1.3"/>
				</g>
			</g>
		</g>
		<g>
			<g>
				<rect x="356.3" y="221.2" class="st8" width="13.6" height="20.4"/>
				<path class="st9" d="M369.4,221.7V241h-12.6v-19.4L369.4,221.7 M370.4,220.7h-14.6V242h14.6V220.7L370.4,220.7z"/>
			</g>
			<g>
				<path class="st8" d="M363.1,235.6c-2.3,0-4.3-1.9-4.3-4.3c0-2.3,1.9-4.3,4.3-4.3s4.3,1.9,4.3,4.3
					C367.4,233.7,365.5,235.6,363.1,235.6z"/>
				<path class="st9" d="M363.1,227.6c2.1,0,3.8,1.7,3.8,3.8s-1.7,3.8-3.8,3.8c-2.1,0-3.8-1.7-3.8-3.8S361.1,227.6,363.1,227.6
					 M363.1,226.6c-2.6,0-4.8,2.1-4.8,4.8s2.1,4.8,4.8,4.8c2.6,0,4.8-2.1,4.8-4.8S365.8,226.6,363.1,226.6L363.1,226.6z"/>
			</g>
		</g>
		<g>
			<path class="st10" d="M212.6,158.8V116h31.1v42.8H212.6z"/>
			<path class="st10" d="M220.1,113.3v-0.7c0-4.5,3.6-8.1,8.1-8.1s8.1,3.6,8.1,8.1v0.7H220.1z"/>
			<path class="st10" d="M221.7,116v-3.2c0-3.6,2.9-6.5,6.5-6.5s6.5,2.9,6.5,6.5v3.2H221.7z"/>
			<path class="st10" d="M220.1,161.5v0.7c0,4.5,3.6,8.1,8.1,8.1s8.1-3.6,8.1-8.1v-0.7H220.1z"/>
			<path class="st10" d="M221.7,158.8v3.2c0,3.6,2.9,6.5,6.5,6.5s6.5-2.9,6.5-6.5v-3.2H221.7z"/>
			<path class="st10" d="M246.4,145.4h0.7c4.5,0,8.1-3.6,8.1-8.1s-3.6-8.1-8.1-8.1h-0.7V145.4z"/>
			<path class="st10" d="M243.7,143.9h3.2c3.6,0,6.5-2.9,6.5-6.5s-2.9-6.5-6.5-6.5h-3.2V143.9z"/>
			<path class="st10" d="M209.9,129.3h-0.7c-4.5,0-8.1,3.6-8.1,8.1s3.6,8.1,8.1,8.1h0.7V129.3z"/>
			<path class="st10" d="M212.6,130.9h-3.2c-3.6,0-6.5,2.9-6.5,6.5s2.9,6.5,6.5,6.5h3.2V130.9z"/>
		</g>
		<g id="Sink_2">
			<g id="Rectangle_16_x5F_11">
				<rect x="356.3" y="189" class="st8" width="14.5" height="22.6"/>
				<path class="st9" d="M370.4,189.5v21.6h-13.5v-21.6H370.4 M371.4,188.5h-15.5v23.6h15.5V188.5L371.4,188.5z"/>
			</g>
			<path id="Rectangle_19_x5F_5" class="st10" d="M363.6,208.5L363.6,208.5c2.6,0,4.8-2.1,4.8-4.8V197c0-2.6-2.1-4.8-4.8-4.8l0,0
				c-2.6,0-4.8,2.1-4.8,4.8v6.8C358.8,206.4,361,208.5,363.6,208.5z"/>
			<circle id="Ellipse_7_x5F_2" class="st10" cx="362.1" cy="200.4" r="1.3"/>
		</g>
		<g id="Sink_2_1_">
			<g id="Rectangle_16_x5F_11_1_">
				<rect x="356.3" y="144.7" class="st8" width="14.5" height="22.6"/>
				<path class="st9" d="M370.4,145.2v21.6h-13.5v-21.6H370.4 M371.4,144.2h-15.5v23.6h15.5V144.2L371.4,144.2z"/>
			</g>
			<path id="Rectangle_19_x5F_5_1_" class="st10" d="M363.6,164.2L363.6,164.2c2.6,0,4.8-2.1,4.8-4.8v-6.8c0-2.6-2.1-4.8-4.8-4.8
				l0,0c-2.6,0-4.8,2.1-4.8,4.8v6.8C358.8,162.1,361,164.2,363.6,164.2z"/>
			<circle id="Ellipse_7_x5F_2_1_" class="st10" cx="362.1" cy="156" r="1.3"/>
		</g>
		<g>
			<rect x="455.1" y="162.3" class="st8" width="71.6" height="14.5"/>
			<path class="st9" d="M526.2,162.8v13.5h-70.6v-13.5H526.2 M527.2,161.8h-72.6v15.5h72.6V161.8L527.2,161.8z"/>
		</g>
		<g id="Sink_2_4_">
			<g id="Rectangle_16_x5F_11_7_">
				<rect x="466" y="162.3" class="st8" width="22.6" height="14.5"/>
				<path class="st9" d="M488.1,162.8v13.5h-21.6v-13.5H488.1 M489.1,161.8h-23.6v15.5h23.6V161.8L489.1,161.8z"/>
			</g>
			<path id="Rectangle_19_x5F_5_4_" class="st10" d="M469.1,169.6L469.1,169.6c0,2.6,2.1,4.8,4.8,4.8h6.8c2.6,0,4.8-2.1,4.8-4.8l0,0
				c0-2.6-2.1-4.8-4.8-4.8h-6.8C471.3,164.8,469.1,167,469.1,169.6z"/>
			<circle id="Ellipse_7_x5F_2_4_" class="st10" cx="477.3" cy="168.1" r="1.3"/>
		</g>
		<g id="Sink_2_5_">
			<g id="Rectangle_16_x5F_11_9_">
				<rect x="490.1" y="162.3" class="st8" width="22.6" height="14.5"/>
				<path class="st9" d="M512.2,162.8v13.5h-21.6v-13.5H512.2 M513.2,161.8h-23.6v15.5h23.6V161.8L513.2,161.8z"/>
			</g>
			<path id="Rectangle_19_x5F_5_5_" class="st10" d="M493.2,169.6L493.2,169.6c0,2.6,2.1,4.8,4.8,4.8h6.8c2.6,0,4.8-2.1,4.8-4.8l0,0
				c0-2.6-2.1-4.8-4.8-4.8H498C495.4,164.8,493.2,167,493.2,169.6z"/>
			<circle id="Ellipse_7_x5F_2_5_" class="st10" cx="501.4" cy="168.1" r="1.3"/>
		</g>
		<g id="Toilet_1_">
			<g id="Rectangle_21_1_">
				<rect x="425.5" y="186.7" class="st8" width="4.9" height="14.3"/>
				<path class="st9" d="M429.9,187.2v13.3H426v-13.3H429.9 M430.9,186.2H425v15.3h5.9V186.2L430.9,186.2z"/>
			</g>
			<path id="Rectangle_19_x5F_2_1_" class="st10" d="M415.3,199.4c-3.2,0.2-5.9-2.3-5.9-5.5l0,0c0-3.2,2.7-5.7,5.9-5.5l10.2,0.7v9.6
				L415.3,199.4z"/>
			<path id="Rectangle_18_x5F_13_1_" class="st10" d="M415.5,197.2c-2,0.2-3.7-1.4-3.7-3.4l0,0c0-2,1.7-3.6,3.7-3.4l5.4,0.5v5.8
				L415.5,197.2z"/>
			<ellipse id="Ellipse_6_x5F_2_1_" class="st10" cx="417.7" cy="193.9" rx="1.3" ry="1.3"/>
		</g>
		<g id="TV">
			<g id="Rectangle_16">
				<rect x="453.8" y="299.3" class="st8" width="2.2" height="49.7"/>
				<path class="st9" d="M455.5,299.8v48.7h-1.2v-48.7H455.5 M456.5,298.8h-3.2v50.7h3.2V298.8L456.5,298.8z"/>
			</g>
			<g id="Rectangle_15">
				<rect x="446.6" y="299.3" class="st8" width="7.1" height="49.7"/>
				<path class="st9" d="M453.3,299.8v48.7h-6.1v-48.7H453.3 M454.3,298.8h-8.1v50.7h8.1V298.8L454.3,298.8z"/>
			</g>
			<g id="Rectangle_17">
				<rect x="449" y="307.8" class="st8" width="2.2" height="32.7"/>
				<path class="st9" d="M450.7,308.3V340h-1.2v-31.7H450.7 M451.7,307.3h-3.2V341h3.2V307.3L451.7,307.3z"/>
			</g>
			<path id="Rectangle_18_x5F_2" class="st10" d="M448.5,331.3V317l-1.8,1.3V330L448.5,331.3z"/>
		</g>
		<g>
			<path class="st10" d="M224.9,197.8c0-0.9-0.7-1.6-1.6-1.6h-16.5v37.6h18.1V197.8z"/>
			<path class="st10" d="M254,217.2c0-0.9-0.8-1.6-1.7-1.6h-25.7c-0.9,0-1.7,0.7-1.7,1.6v16.5H254V217.2z"/>
			<path class="st10" d="M282.1,217.2c0-0.9-0.7-1.6-1.6-1.6h-24.8c-0.9,0-1.6,0.7-1.6,1.6v16.5h28.1L282.1,217.2L282.1,217.2z"/>
			<path class="st10" d="M282.1,214.2h6.1v25.9h-88v-50.5h26.1v6.4h-19.4v37.6h75.3v-19.4H282.1z"/>
		</g>
		<g id="Shower">
			<path id="Rectangle_22" class="st10" d="M435.9,215v26.5h-26.5v-18.3c0-4.6,3.7-8.2,8.2-8.2H435.9z"/>
			<path id="Rectangle_22_1_" class="st10" d="M433.1,217.8v21h-21v-14.5c0-3.6,2.9-6.5,6.5-6.5H433.1z"/>
			<ellipse id="Ellipse_6_x5F_4" class="st10" cx="429.1" cy="234.7" rx="1.3" ry="1.3"/>
		</g>
		<g>
			<path class="st10" d="M349.2,355v14.8l-13.5,2v-18.9L349.2,355z"/>
			<g>
				<rect x="315.2" y="340.7" class="st8" width="21.9" height="44.9"/>
				<path class="st9" d="M336.6,341.2v43.9h-20.9v-43.9H336.6 M337.6,340.2h-22.9v45.9h22.9V340.2L337.6,340.2z"/>
			</g>
			<path class="st12" d="M331,357.4v11.5 M333.5,356.4v13.5h-4v-13.5H333.5z"/>
			<path class="st10" d="M333.7,350.9L333.7,350.9c0,0.6-0.5,1-1,1h-1.3c-0.6,0-1-0.5-1-1l0,0c0-0.6,0.5-1,1-1h1.3
				C333.2,349.8,333.7,350.3,333.7,350.9z"/>
			<path class="st10" d="M322.9,359.8c1.9,0,3.4,1.5,3.4,3.4s-1.5,3.4-3.4,3.4h-3.4v-6.7L322.9,359.8z"/>
			<g>
				<rect x="337.5" y="355.2" class="st8" width="12" height="14.3"/>
				<path class="st9" d="M349,355.7V369h-11v-13.3H349 M350,354.7h-13V370h13V354.7L350,354.7z"/>
			</g>
			<g>
				<rect x="349.5" y="355.1" class="st8" width="1.8" height="14.7"/>
				<path class="st9" d="M350.9,355.6v13.7H350v-13.7H350.9 M351.9,354.6H349v15.7h2.8v-15.7H351.9z"/>
			</g>
			<g>
				<rect x="317.7" y="345.6" class="st8" width="1.8" height="33.6"/>
				<path class="st9" d="M319,346.1v32.6h-0.8v-32.6H319 M320,345.1h-2.8v34.6h2.8V345.1L320,345.1z"/>
			</g>
		</g>
		<g>
			<path class="st10" d="M217.3,368.7l-3.5,17.6l-16.5-0.7l4.4-22.4L217.3,368.7z"/>
			<g>
				
					<rect x="160.8" y="359.7" transform="matrix(0.191 -0.9816 0.9816 0.191 -214.0168 486.418)" class="st8" width="54.5" height="26.7"/>
				<path class="st9" d="M180.6,344.3l25.2,4.9l-10.2,52.5l-25.2-4.9L180.6,344.3 M179.8,343.1l-10.6,54.5l27.2,5.3l10.6-54.5
					L179.8,343.1L179.8,343.1z"/>
			</g>
			<path class="st12" d="M195.2,367.4l-2.7,13.6 M198.3,366.7l-3.1,16l-4.8-0.9l3.1-16L198.3,366.7z"/>
			<path class="st10" d="M199.8,360.2L199.8,360.2c-0.1,0.7-0.8,1.1-1.4,1l-1.6-0.3c-0.7-0.1-1.1-0.8-1-1.4l0,0
				c0.1-0.7,0.8-1.1,1.4-1l1.6,0.3C199.5,358.9,200,359.5,199.8,360.2z"/>
			<path class="st10" d="M185,368.3c2.2,0.4,3.6,2.6,3.2,4.8c-0.4,2.2-2.6,3.6-4.8,3.2l-4-0.8l1.6-8L185,368.3z"/>
			<g>
				
					<rect x="200" y="368.7" transform="matrix(0.191 -0.9816 0.9816 0.191 -200.2278 509.1575)" class="st8" width="17.5" height="14.7"/>
				<path class="st9" d="M203.7,366.7l13.5,2.6l-3.1,16.2l-13.5-2.6L203.7,366.7 M202.9,365.5l-3.5,18.1l15.5,3l3.5-18.1
					L202.9,365.5L202.9,365.5z"/>
			</g>
			<g>
				
					<rect x="207.8" y="376.8" transform="matrix(0.1911 -0.9816 0.9816 0.1911 -195.3949 518.3007)" class="st8" width="18" height="1.9"/>
				<path class="st9" d="M218,369.3l0.9,0.2l-3.2,16.6l-0.9-0.2L218,369.3 M217.2,368.1l-3.6,18.6l2.9,0.6l3.6-18.6L217.2,368.1
					L217.2,368.1z"/>
			</g>
			<g>
				
					<rect x="159.1" y="369.5" transform="matrix(0.191 -0.9816 0.9816 0.191 -218.3831 475.8821)" class="st8" width="40.8" height="1.9"/>
				<path class="st9" d="M182.9,350.8l0.9,0.2l-7.6,39.1l-0.9-0.2L182.9,350.8 M182.1,349.6l-8,41l2.9,0.6l8-41L182.1,349.6
					L182.1,349.6z"/>
			</g>
		</g>
		<g>
			<rect x="430.4" y="179.7" class="st8" width="5.4" height="31.6"/>
			<path class="st9" d="M435.3,180.2v30.6h-4.4v-30.6H435.3 M436.3,179.2h-6.4v32.6h6.4V179.2L436.3,179.2z"/>
		</g>
		<g id="Toilet_5_">
			<g id="Rectangle_21_8_">
				<rect x="445.5" y="190.9" class="st8" width="4.9" height="14.3"/>
				<path class="st9" d="M450,191.4v13.3h-4v-13.3H450 M451,190.4h-6v15.3h5.9v-15.3H451z"/>
			</g>
			<path id="Rectangle_19_x5F_2_5_" class="st10" d="M460.7,203.5c3.2,0.2,5.9-2.3,5.9-5.5l0,0c0-3.2-2.7-5.7-5.9-5.5l-10.2,0.7v9.6
				L460.7,203.5z"/>
			<path id="Rectangle_18_x5F_13_5_" class="st10" d="M460.4,201.4c2,0.2,3.7-1.4,3.7-3.4l0,0c0-2-1.7-3.6-3.7-3.4l-5.4,0.5v5.8
				L460.4,201.4z"/>
			<ellipse id="Ellipse_6_x5F_2_5_" class="st10" cx="458.3" cy="198" rx="1.3" ry="1.3"/>
		</g>
		<g>
			<rect x="440.1" y="176" class="st8" width="5.4" height="49.4"/>
			<path class="st9" d="M445.1,176.5v48.4h-4.4v-48.4H445.1 M446.1,175.5h-6.4v50.4h6.4V175.5L446.1,175.5z"/>
		</g>
		<g id="Toilet_2_">
			<g id="Rectangle_21_2_">
				<rect x="421.2" y="158" class="st8" width="4.9" height="14.3"/>
				<path class="st9" d="M425.7,158.5v13.3h-3.9v-13.3H425.7 M426.7,157.5h-5.9v15.3h5.9V157.5L426.7,157.5z"/>
			</g>
			<path id="Rectangle_19_x5F_2_2_" class="st10" d="M411.1,170.6c-3.2,0.2-5.9-2.3-5.9-5.5l0,0c0-3.2,2.7-5.7,5.9-5.5l10.2,0.7v9.6
				L411.1,170.6z"/>
			<path id="Rectangle_18_x5F_13_2_" class="st10" d="M411.3,168.5c-2,0.2-3.7-1.4-3.7-3.4l0,0c0-2,1.7-3.6,3.7-3.4l5.4,0.5v5.8
				L411.3,168.5z"/>
			<ellipse id="Ellipse_6_x5F_2_2_" class="st10" cx="413.5" cy="165.1" rx="1.3" ry="1.3"/>
		</g>
		<g>
			<rect x="426.2" y="154.9" class="st8" width="9.6" height="20.4"/>
			<path class="st9" d="M435.3,155.4v19.4h-8.6v-19.4H435.3 M436.3,154.4h-10.6v21.4h10.6V154.4L436.3,154.4z"/>
		</g>
		<g id="Rectangle_24">
			<rect x="219.8" y="76.9" class="st8" width="137.2" height="19.4"/>
			<path class="st9" d="M356.5,77.4v18.4H220.3V77.4H356.5 M357.5,76.4H219.3v20.4h138.2V76.4L357.5,76.4z"/>
		</g>
		<g id="Sink_3_1_">
			<rect id="Rectangle_28_x5F_2_1_" x="301.3" y="78.9" class="st10" width="24.2" height="15.3"/>
			<path id="Rectangle_29_x5F_2_1_" class="st10" d="M316.1,86.6L316.1,86.6c0,3.2-2.6,5.7-5.7,5.7h-1.3c-3.2,0-5.7-2.6-5.7-5.7l0,0
				c0-3.2,2.6-5.7,5.7-5.7h1.3C313.5,80.9,316.1,83.4,316.1,86.6z"/>
			<ellipse id="Ellipse_7_x5F_3_1_" class="st10" cx="309.7" cy="84.1" rx="0.6" ry="0.6"/>
			<path id="Vector_2" class="st12" d="M324.3,80.9h-6.4 M324.3,82.8h-6.4 M324.3,84.7h-6.4 M324.3,86.6h-6.4 M324.3,88.5h-6.4
				 M324.3,90.4h-6.4 M324.3,92.3h-6.4"/>
		</g>
		<g id="Stove_1_">
			<g id="Rectangle_25_1_">
				<rect x="241.7" y="76.9" class="st8" width="18.9" height="19.4"/>
				<path class="st9" d="M260.1,77.4v18.4h-17.9V77.4H260.1 M261.1,76.4h-19.9v20.4h19.9V76.4L261.1,76.4z"/>
			</g>
			<g id="Rectangle_28_x5F_3">
				<rect x="241.7" y="76.9" class="st8" width="18.9" height="1.8"/>
				<path class="st9" d="M260.1,77.4v0.8h-17.9v-0.8H260.1 M261.1,76.4h-19.9v2.8h19.9V76.4L261.1,76.4z"/>
			</g>
			<g id="Ellipse_7_x5F_4_1_">
				<path class="st8" d="M256,85.5c-1.1,0-2.1-0.9-2.1-2.1c0-1.1,0.9-2.1,2.1-2.1c1.1,0,2.1,0.9,2.1,2.1
					C258,84.5,257.1,85.5,256,85.5z"/>
				<path class="st9" d="M256,81.9c0.9,0,1.6,0.7,1.6,1.6s-0.7,1.6-1.6,1.6s-1.6-0.7-1.6-1.6S255.1,81.9,256,81.9 M256,80.9
					c-1.4,0-2.6,1.1-2.6,2.6c0,1.4,1.1,2.6,2.6,2.6c1.4,0,2.6-1.1,2.6-2.6C258.5,82,257.4,80.9,256,80.9L256,80.9z"/>
			</g>
			<g id="Ellipse_9_1_">
				
					<ellipse transform="matrix(0.3162 -0.9487 0.9487 0.3162 88.6805 305.1476)" class="st8" cx="256" cy="91.1" rx="2.7" ry="2.7"/>
				<path class="st9" d="M256,88.9c1.2,0,2.2,1,2.2,2.2s-1,2.2-2.2,2.2c-1.2,0-2.2-1-2.2-2.2S254.8,88.9,256,88.9 M256,87.9
					c-1.8,0-3.2,1.4-3.2,3.2c0,1.8,1.4,3.2,3.2,3.2c1.8,0,3.2-1.4,3.2-3.2S257.7,87.9,256,87.9L256,87.9z"/>
			</g>
			<g id="Ellipse_10_1_">
				<circle class="st8" cx="247.1" cy="83.4" r="2.7"/>
				<path class="st9" d="M247.1,81.2c1.2,0,2.2,1,2.2,2.2s-1,2.2-2.2,2.2s-2.2-1-2.2-2.2C244.9,82.2,245.9,81.2,247.1,81.2
					 M247.1,80.2c-1.8,0-3.2,1.4-3.2,3.2c0,1.8,1.4,3.2,3.2,3.2s3.2-1.4,3.2-3.2C250.2,81.7,248.8,80.2,247.1,80.2L247.1,80.2z"/>
			</g>
			<g id="Ellipse_8_1_">
				<path class="st8" d="M247.1,93.8c-1.1,0-2.1-0.9-2.1-2.1c0-1.1,0.9-2.1,2.1-2.1c1.1,0,2.1,0.9,2.1,2.1
					C249.1,92.8,248.2,93.8,247.1,93.8z"/>
				<path class="st9" d="M247.1,90.2c0.9,0,1.6,0.7,1.6,1.6s-0.7,1.6-1.6,1.6s-1.6-0.7-1.6-1.6C245.5,90.8,246.2,90.2,247.1,90.2
					 M247.1,89.2c-1.4,0-2.6,1.1-2.6,2.6c0,1.4,1.1,2.6,2.6,2.6s2.6-1.1,2.6-2.6C249.6,90.3,248.5,89.2,247.1,89.2L247.1,89.2z"/>
			</g>
		</g>
		<g>
			<g id="Rectangle_27">
				<rect x="337.6" y="76.9" class="st8" width="19.4" height="19.4"/>
				<path class="st9" d="M356.5,77.4v18.4h-18.4V77.4H356.5 M357.5,76.4h-20.4v20.4h20.4V76.4L357.5,76.4z"/>
			</g>
			<g id="Rectangle_27_1_">
				<rect x="337.6" y="94.5" class="st8" width="19.4" height="1.8"/>
				<path class="st9" d="M356.5,95v0.8h-18.4V95H356.5 M357.5,94h-20.4v2.8h20.4V94L357.5,94z"/>
			</g>
			<path id="Vector_3" class="st12" d="M349.8,86.6h-5.1 M348.6,88.8l-2.6-4.5 M348.6,84.4l-2.6,4.5"/>
		</g>
	</g>
	<g id="street_anchors" class="st14">
		<rect id="street_x5F_anchor_x5F_02" x="355" y="450" class="st15" width="10" height="10"/>
		<rect id="street_x5F_anchor_x5F_01" x="118.4" y="235" class="st15" width="10" height="10"/>
	</g>
</g>
<g id="комнаты">
	<g>
		<g>
			<path class="st7" d="M405.2,110.8h-0.8v1.2h-1v-1.2h-3v-0.8l3.1-3.7h0.9v3.5h0.8V110.8z M401.9,109.7h1.6v-1.9h-0.1
				C402.9,108.4,402.3,109.1,401.9,109.7L401.9,109.7z"/>
			<path class="st7" d="M406.7,110.4c0.4,0,0.7,0.4,0.7,0.9c0,0.5-0.3,0.9-0.7,0.9c-0.4,0-0.7-0.4-0.7-0.9
				C406,110.8,406.3,110.4,406.7,110.4z"/>
			<path class="st7" d="M410.1,108.4h0.7c0.3,0,0.6-0.2,0.6-0.6c0-0.5-0.4-0.7-0.8-0.7c-0.5,0-1.1,0.4-1.5,0.9l-0.6-0.9
				c0.5-0.6,1.2-1.2,2.1-1.2c0.8,0,1.8,0.4,1.8,1.7c0,0.5-0.3,0.9-0.5,1.1c0.4,0.2,0.8,0.6,0.8,1.4c0,1.3-1,2-2.3,2
				c-0.9,0-1.6-0.4-2.3-1.2l0.6-0.9c0.4,0.6,1,1,1.7,1c0.7,0,1.2-0.4,1.2-1c0-0.5-0.4-0.6-0.7-0.6h-0.9V108.4z"/>
		</g>
	</g>
	<g>
		<g>
			<path class="st7" d="M298.2,140.2c0-1.4,0.9-2.1,1.9-2.5c0.3-0.1,0.8-0.3,0.8-0.8c0-0.4-0.4-0.6-0.7-0.6c-0.6,0-1,0.4-1.5,0.9
				l-0.6-0.9c0.6-0.6,1.1-1.1,2-1.1c0.9,0,1.8,0.5,1.8,1.7c0,1.3-1,1.7-1.7,2c-0.6,0.3-1,0.6-1,1.1v0.1h2.6v1.1h-3.7V140.2z"/>
			<path class="st7" d="M304.6,137.6h0.7c0.3,0,0.6-0.2,0.6-0.6c0-0.5-0.4-0.7-0.8-0.7c-0.5,0-1.1,0.4-1.5,0.9l-0.6-0.9
				c0.5-0.6,1.2-1.2,2.1-1.2c0.8,0,1.8,0.4,1.8,1.7c0,0.5-0.3,0.9-0.5,1.1c0.4,0.2,0.8,0.6,0.8,1.4c0,1.3-1,2-2.3,2
				c-0.9,0-1.6-0.4-2.3-1.2l0.6-0.9c0.4,0.6,1,1,1.7,1c0.7,0,1.2-0.4,1.2-1c0-0.5-0.4-0.6-0.7-0.6h-0.9V137.6z"/>
			<path class="st7" d="M308.8,139.5c0.4,0,0.7,0.4,0.7,0.9c0,0.5-0.3,0.9-0.7,0.9c-0.4,0-0.7-0.4-0.7-0.9
				C308.1,139.9,308.4,139.5,308.8,139.5z"/>
			<path class="st7" d="M310.3,135.3h4v1.1l-2.3,4.7h-1.3l2.4-4.6h-2.8V135.3z"/>
		</g>
	</g>
	<g>
		<g>
			<path class="st7" d="M512.4,364.3l1.3-0.8h0.9v5.8h-1v-4.5l-1,0.6L512.4,364.3z"/>
			<path class="st7" d="M520.5,368.1h-0.8v1.2h-1v-1.2h-3v-0.8l3.1-3.7h0.9v3.5h0.8V368.1z M517.1,367.1h1.6v-1.9h-0.1
				C518.1,365.8,517.6,366.4,517.1,367.1L517.1,367.1z"/>
			<path class="st7" d="M522,367.7c0.4,0,0.7,0.4,0.7,0.9c0,0.5-0.3,0.9-0.7,0.9c-0.4,0-0.7-0.4-0.7-0.9
				C521.3,368.1,521.6,367.7,522,367.7z"/>
			<path class="st7" d="M523.6,367.6c0-0.8,0.4-1.3,0.9-1.5c-0.4-0.2-0.7-0.6-0.7-1.2c0-1.1,1.1-1.6,2-1.6c0.9,0,2,0.5,2,1.7
				c0,0.6-0.2,0.9-0.7,1.1c0.5,0.2,0.9,0.7,0.9,1.5c0,1.2-1.1,1.9-2.2,1.9C524.6,369.5,523.6,368.8,523.6,367.6z M526.9,367.5
				c0-0.6-0.6-0.8-1.1-0.8c-0.5,0-1.1,0.3-1.1,0.8c0,0.5,0.6,0.9,1.1,0.9C526.3,368.4,526.9,368.1,526.9,367.5z M526.6,365.1
				c0-0.5-0.5-0.7-0.9-0.7c-0.4,0-0.9,0.2-0.9,0.7c0,0.4,0.3,0.6,0.9,0.6C526.3,365.7,526.6,365.5,526.6,365.1z"/>
		</g>
	</g>
	<g>
		<g>
			<path class="st7" d="M356.8,328.9l1.3-0.8h0.9v5.8h-1v-4.5l-1,0.6L356.8,328.9z"/>
			<path class="st7" d="M360,328.9l1.3-0.8h0.9v5.8h-1v-4.5l-1,0.6L360,328.9z"/>
			<path class="st7" d="M364.2,332.3c0.4,0,0.7,0.4,0.7,0.9c0,0.5-0.3,0.9-0.7,0.9c-0.4,0-0.7-0.4-0.7-0.9
				C363.5,332.7,363.8,332.3,364.2,332.3z"/>
			<path class="st7" d="M369.5,329.4c-0.3-0.2-0.8-0.3-1.2-0.3c-0.8,0-1.5,0.7-1.6,1.9c0.4-0.4,1-0.8,1.7-0.8c1.2,0,1.8,0.9,1.8,1.8
				c0,1.2-0.8,2.1-2,2.1c-1.2,0-2.4-1-2.4-3c0-2,1.2-3.2,2.5-3.2c0.8,0,1.4,0.3,1.7,0.5L369.5,329.4z M366.8,331.8
				c0.2,0.8,0.7,1.2,1.3,1.2c0.6,0,1-0.5,1-1c0-0.4-0.2-0.8-0.9-0.8C367.7,331.2,367.2,331.5,366.8,331.8z"/>
		</g>
	</g>
	<g>
		<g>
			<path class="st7" d="M216.9,330.2l1.3-0.8h0.9v5.8h-1v-4.5l-1,0.6L216.9,330.2z"/>
			<path class="st7" d="M220.2,329.4h4v1.1l-2.3,4.7h-1.3l2.4-4.6h-2.8V329.4z"/>
			<path class="st7" d="M225.7,333.6c0.4,0,0.7,0.4,0.7,0.9c0,0.5-0.3,0.9-0.7,0.9c-0.4,0-0.7-0.4-0.7-0.9
				C225,334,225.3,333.6,225.7,333.6z"/>
			<path class="st7" d="M227.1,330.2l1.3-0.8h0.9v5.8h-1v-4.5l-1,0.6L227.1,330.2z"/>
		</g>
	</g>
	<g>
		<g>
			<path class="st7" d="M391.8,258.8h0.7c0.3,0,0.6-0.2,0.6-0.6c0-0.5-0.4-0.7-0.8-0.7c-0.5,0-1.1,0.4-1.5,0.9l-0.6-0.9
				c0.5-0.6,1.2-1.2,2.1-1.2c0.8,0,1.8,0.4,1.8,1.7c0,0.5-0.3,0.9-0.5,1.1c0.4,0.2,0.8,0.6,0.8,1.4c0,1.3-1,2-2.3,2
				c-0.9,0-1.6-0.4-2.3-1.2l0.6-0.9c0.4,0.6,1,1,1.7,1c0.7,0,1.2-0.4,1.2-1c0-0.5-0.4-0.6-0.7-0.6h-0.9V258.8z"/>
			<path class="st7" d="M396,260.8c0.4,0,0.7,0.4,0.7,0.9c0,0.5-0.3,0.9-0.7,0.9c-0.4,0-0.7-0.4-0.7-0.9
				C395.3,261.2,395.6,260.8,396,260.8z"/>
			<path class="st7" d="M397.6,260.7c0-0.8,0.4-1.3,0.9-1.5c-0.4-0.2-0.7-0.6-0.7-1.2c0-1.1,1.1-1.6,2-1.6c0.9,0,2,0.5,2,1.7
				c0,0.6-0.2,0.9-0.7,1.1c0.5,0.2,0.9,0.7,0.9,1.5c0,1.2-1.1,1.9-2.2,1.9C398.7,262.6,397.6,261.9,397.6,260.7z M400.9,260.6
				c0-0.6-0.6-0.8-1.1-0.8c-0.5,0-1.1,0.3-1.1,0.8c0,0.5,0.6,0.9,1.1,0.9C400.4,261.4,400.9,261.1,400.9,260.6z M400.7,258.1
				c0-0.5-0.5-0.7-0.9-0.7c-0.4,0-0.9,0.2-0.9,0.7c0,0.4,0.3,0.6,0.9,0.6C400.4,258.7,400.7,258.5,400.7,258.1z"/>
		</g>
	</g>
	<g>
		<g>
			<path class="st7" d="M489.2,198.2l0.5-1c0.3,0.3,1,0.7,1.8,0.7c0.6,0,1.2-0.3,1.2-1c0-0.6-0.4-0.8-0.9-0.8c-0.6,0-1,0.3-1.4,0.6
				l-0.6-0.6v-3h3.5v1.1h-2.6v1.4c0.4-0.3,0.7-0.6,1.3-0.6c0.9,0,1.8,0.6,1.8,1.9c0,1.5-1.1,2.2-2.2,2.2
				C490.3,199.1,489.6,198.5,489.2,198.2z"/>
			<path class="st7" d="M495.1,197.3c0.4,0,0.7,0.4,0.7,0.9c0,0.5-0.3,0.9-0.7,0.9c-0.4,0-0.7-0.4-0.7-0.9
				C494.4,197.7,494.8,197.3,495.1,197.3z"/>
			<path class="st7" d="M500.4,194.4c-0.3-0.2-0.8-0.3-1.2-0.3c-0.8,0-1.5,0.7-1.6,1.9c0.4-0.4,1-0.8,1.7-0.8c1.2,0,1.8,0.9,1.8,1.8
				c0,1.2-0.8,2.1-2,2.1c-1.2,0-2.4-1-2.4-3c0-2,1.2-3.2,2.5-3.2c0.8,0,1.4,0.3,1.7,0.5L500.4,194.4z M497.8,196.7
				c0.2,0.8,0.7,1.2,1.3,1.2c0.6,0,1-0.5,1-1c0-0.4-0.2-0.8-0.9-0.8C498.7,196.1,498.2,196.4,497.8,196.7z"/>
		</g>
	</g>
	<g>
		<g>
			<path class="st7" d="M392.2,154c0-1.4,0.9-2.1,1.9-2.5c0.3-0.1,0.8-0.3,0.8-0.8c0-0.4-0.4-0.6-0.7-0.6c-0.6,0-1,0.4-1.5,0.9
				l-0.6-0.9c0.6-0.6,1.1-1.1,2-1.1c0.9,0,1.8,0.5,1.8,1.7c0,1.3-1,1.7-1.7,2c-0.6,0.3-1,0.6-1,1.1v0.1h2.6v1.1h-3.7V154z"/>
			<path class="st7" d="M397.5,153.3c0.4,0,0.7,0.4,0.7,0.9c0,0.5-0.3,0.9-0.7,0.9c-0.4,0-0.7-0.4-0.7-0.9
				C396.8,153.7,397.1,153.3,397.5,153.3z"/>
			<path class="st7" d="M398.9,149.9l1.3-0.8h0.9v5.8h-1v-4.5l-1,0.6L398.9,149.9z"/>
		</g>
	</g>
	<g>
		<g>
			<path class="st7" d="M389.9,201.7h0.7c0.3,0,0.6-0.2,0.6-0.6c0-0.5-0.4-0.7-0.8-0.7c-0.5,0-1.1,0.4-1.5,0.9l-0.6-0.9
				c0.5-0.6,1.2-1.2,2.1-1.2c0.8,0,1.8,0.4,1.8,1.7c0,0.5-0.3,0.9-0.5,1.1c0.4,0.2,0.8,0.6,0.8,1.4c0,1.3-1,2-2.3,2
				c-0.9,0-1.6-0.4-2.3-1.2l0.6-0.9c0.4,0.6,1,1,1.7,1c0.7,0,1.2-0.4,1.2-1c0-0.5-0.4-0.6-0.7-0.6h-0.9V201.7z"/>
			<path class="st7" d="M394.1,203.6c0.4,0,0.7,0.4,0.7,0.9c0,0.5-0.3,0.9-0.7,0.9c-0.4,0-0.7-0.4-0.7-0.9
				C393.4,204,393.7,203.6,394.1,203.6z"/>
			<path class="st7" d="M395.6,203.5c0-0.8,0.4-1.3,0.9-1.5c-0.4-0.2-0.7-0.6-0.7-1.2c0-1.1,1.1-1.6,2-1.6c0.9,0,2,0.5,2,1.7
				c0,0.6-0.2,0.9-0.7,1.1c0.5,0.2,0.9,0.7,0.9,1.5c0,1.2-1.1,1.9-2.2,1.9C396.7,205.4,395.6,204.7,395.6,203.5z M399,203.4
				c0-0.6-0.6-0.8-1.1-0.8c-0.5,0-1.1,0.3-1.1,0.8c0,0.5,0.6,0.9,1.1,0.9C398.4,204.3,399,204,399,203.4z M398.7,201
				c0-0.5-0.5-0.7-0.9-0.7c-0.4,0-0.9,0.2-0.9,0.7c0,0.4,0.3,0.6,0.9,0.6C398.4,201.6,398.7,201.4,398.7,201z"/>
		</g>
	</g>
</g>
</svg>
