<?xml version="1.0" encoding="utf-8"?>
<!-- Generator: Adobe Illustrator 26.0.3, SVG Export Plug-In . SVG Version: 6.00 Build 0)  -->
<svg version="1.1" xmlns="http://www.w3.org/2000/svg" xmlns:xlink="http://www.w3.org/1999/xlink" x="0px" y="0px"
	 viewBox="0 0 720 480" style="enable-background:new 0 0 720 480;" xml:space="preserve">
<style type="text/css">
	.st0{fill:#DBD4CA;}
	.st1{clip-path:url(#SVGID_00000178918133642434276470000009529187274872088465_);}
	.st2{fill:none;stroke:#C49F8A;stroke-miterlimit:10;}
	.st3{opacity:0.3;clip-path:url(#SVGID_00000070093338200063832140000002021016941785380778_);}
	.st4{opacity:0.7;fill:#C49F8A;enable-background:new    ;}
	.st5{clip-path:url(#SVGID_00000018919662061910811890000018057564241251197363_);}
	.st6{opacity:0.3;clip-path:url(#SVGID_00000098925367317349822820000018367895928486050726_);}
	.st7{fill:none;stroke:#565440;}
	.st8{fill:#565440;}
	.st9{fill:#E9E4DC;}
	.st10{fill:#C49F8A;}
	.st11{fill:#E9E4DC;stroke:#C49F8A;}
	.st12{fill:#E9E4DC;stroke:#C49F8A;stroke-miterlimit:3.9998;}
	.st13{fill:none;stroke:#C49F8A;}
	.st14{fill:#E9E4DC;stroke:#C49F8A;stroke-linejoin:round;}
	.st15{fill:#3F3F3F;fill-opacity:0;}
</style>
<g id="_x31__x5F_2">
	<polygon id="Floor_1_" class="st0" points="651.5,94.4 627.3,185.6 627.3,310.4 647.6,316.9 631.9,383.4 631.9,402.8 254.4,402.8 
		254.4,318.4 192,318.4 192,292.3 60,292.3 60,94.4 	"/>
	<g id="Wet_Floor">
		<g id="Wet_Floor_1_">
			<g>
				<g>
					<defs>
						<rect id="SVGID_1_" x="349.2" y="311.8" width="114.4" height="88.9"/>
					</defs>
					<clipPath id="SVGID_00000170254082204201033000000011852460705757111487_">
						<use xlink:href="#SVGID_1_"  style="overflow:visible;"/>
					</clipPath>
					<g style="clip-path:url(#SVGID_00000170254082204201033000000011852460705757111487_);">
						<g>
							<line class="st2" x1="65.3" y1="307.9" x2="398.8" y2="-25.6"/>
							<line class="st2" x1="54.9" y1="297.5" x2="388.3" y2="-36"/>
							<line class="st2" x1="75.7" y1="318.3" x2="409.2" y2="-15.2"/>
							<line class="st2" x1="86.1" y1="328.7" x2="419.6" y2="-4.8"/>
							<line class="st2" x1="96.6" y1="339.1" x2="430" y2="5.7"/>
							<line class="st2" x1="107" y1="349.6" x2="440.5" y2="16.1"/>
							<line class="st2" x1="117.4" y1="360" x2="450.9" y2="26.5"/>
							<line class="st2" x1="127.8" y1="370.4" x2="461.3" y2="36.9"/>
							<line class="st2" x1="138.2" y1="380.8" x2="471.7" y2="47.4"/>
							<line class="st2" x1="148.7" y1="391.3" x2="482.1" y2="57.8"/>
							<line class="st2" x1="138.2" y1="380.8" x2="471.7" y2="47.4"/>
							<line class="st2" x1="159.1" y1="401.7" x2="492.6" y2="68.2"/>
							<line class="st2" x1="169.5" y1="412.1" x2="503" y2="78.6"/>
							<line class="st2" x1="179.9" y1="422.5" x2="513.4" y2="89"/>
							<line class="st2" x1="190.3" y1="432.9" x2="523.8" y2="99.5"/>
							<line class="st2" x1="200.8" y1="443.4" x2="534.2" y2="109.9"/>
							<line class="st2" x1="211.2" y1="453.8" x2="544.7" y2="120.3"/>
							<line class="st2" x1="221.6" y1="464.2" x2="555.1" y2="130.7"/>
							<line class="st2" x1="232" y1="474.6" x2="565.5" y2="141.1"/>
							<line class="st2" x1="221.6" y1="464.2" x2="555.1" y2="130.7"/>
							<line class="st2" x1="242.4" y1="485" x2="575.9" y2="151.6"/>
							<line class="st2" x1="252.9" y1="495.5" x2="586.4" y2="162"/>
							<line class="st2" x1="263.3" y1="505.9" x2="596.8" y2="172.4"/>
							<line class="st2" x1="273.7" y1="516.3" x2="607.2" y2="182.8"/>
							<line class="st2" x1="284.1" y1="526.7" x2="617.6" y2="193.2"/>
							<line class="st2" x1="294.6" y1="537.2" x2="628" y2="203.7"/>
							<line class="st2" x1="305" y1="547.6" x2="638.5" y2="214.1"/>
							<line class="st2" x1="315.4" y1="558" x2="648.9" y2="224.5"/>
							<line class="st2" x1="305" y1="547.6" x2="638.5" y2="214.1"/>
							<line class="st2" x1="325.8" y1="568.4" x2="659.3" y2="234.9"/>
							<line class="st2" x1="336.2" y1="578.8" x2="669.7" y2="245.4"/>
							<line class="st2" x1="346.7" y1="589.3" x2="680.1" y2="255.8"/>
							<line class="st2" x1="357.1" y1="599.7" x2="690.6" y2="266.2"/>
							<line class="st2" x1="367.5" y1="610.1" x2="701" y2="276.6"/>
							<line class="st2" x1="377.9" y1="620.5" x2="711.4" y2="287"/>
							<line class="st2" x1="388.3" y1="630.9" x2="721.8" y2="297.5"/>
						</g>
						<g>
							<line class="st2" x1="398.8" y1="620.5" x2="65.3" y2="287"/>
							<line class="st2" x1="388.3" y1="630.9" x2="54.9" y2="297.5"/>
							<line class="st2" x1="409.2" y1="610.1" x2="75.7" y2="276.6"/>
							<line class="st2" x1="419.6" y1="599.7" x2="86.1" y2="266.2"/>
							<line class="st2" x1="430" y1="589.3" x2="96.6" y2="255.8"/>
							<line class="st2" x1="440.5" y1="578.8" x2="107" y2="245.4"/>
							<line class="st2" x1="450.9" y1="568.4" x2="117.4" y2="234.9"/>
							<line class="st2" x1="461.3" y1="558" x2="127.8" y2="224.5"/>
							<line class="st2" x1="471.7" y1="547.6" x2="138.2" y2="214.1"/>
							<line class="st2" x1="482.1" y1="537.2" x2="148.7" y2="203.7"/>
							<line class="st2" x1="471.7" y1="547.6" x2="138.2" y2="214.1"/>
							<line class="st2" x1="492.6" y1="526.7" x2="159.1" y2="193.2"/>
							<line class="st2" x1="503" y1="516.3" x2="169.5" y2="182.8"/>
							<line class="st2" x1="513.4" y1="505.9" x2="179.9" y2="172.4"/>
							<line class="st2" x1="523.8" y1="495.5" x2="190.3" y2="162"/>
							<line class="st2" x1="534.2" y1="485" x2="200.8" y2="151.6"/>
							<line class="st2" x1="544.7" y1="474.6" x2="211.2" y2="141.1"/>
							<line class="st2" x1="555.1" y1="464.2" x2="221.6" y2="130.7"/>
							<line class="st2" x1="565.5" y1="453.8" x2="232" y2="120.3"/>
							<line class="st2" x1="555.1" y1="464.2" x2="221.6" y2="130.7"/>
							<line class="st2" x1="575.9" y1="443.4" x2="242.4" y2="109.9"/>
							<line class="st2" x1="586.4" y1="432.9" x2="252.9" y2="99.5"/>
							<line class="st2" x1="596.8" y1="422.5" x2="263.3" y2="89"/>
							<line class="st2" x1="607.2" y1="412.1" x2="273.7" y2="78.6"/>
							<line class="st2" x1="617.6" y1="401.7" x2="284.1" y2="68.2"/>
							<line class="st2" x1="628" y1="391.3" x2="294.6" y2="57.8"/>
							<line class="st2" x1="638.5" y1="380.8" x2="305" y2="47.4"/>
							<line class="st2" x1="648.9" y1="370.4" x2="315.4" y2="36.9"/>
							<line class="st2" x1="638.5" y1="380.8" x2="305" y2="47.4"/>
							<line class="st2" x1="659.3" y1="360" x2="325.8" y2="26.5"/>
							<line class="st2" x1="669.7" y1="349.6" x2="336.2" y2="16.1"/>
							<line class="st2" x1="680.1" y1="339.1" x2="346.7" y2="5.7"/>
							<line class="st2" x1="690.6" y1="328.7" x2="357.1" y2="-4.8"/>
							<line class="st2" x1="701" y1="318.3" x2="367.5" y2="-15.2"/>
							<line class="st2" x1="711.4" y1="307.9" x2="377.9" y2="-25.6"/>
							<line class="st2" x1="721.8" y1="297.5" x2="388.3" y2="-36"/>
						</g>
					</g>
				</g>
			</g>
			<g>
				<g>
					<defs>
						<rect id="SVGID_00000124159454412855217910000015889000236704553902_" x="349.2" y="311.8" width="114.4" height="88.9"/>
					</defs>
					<clipPath id="SVGID_00000158710014271822284090000013753776030978180998_">
						<use xlink:href="#SVGID_00000124159454412855217910000015889000236704553902_"  style="overflow:visible;"/>
					</clipPath>
					<g style="opacity:0.3;clip-path:url(#SVGID_00000158710014271822284090000013753776030978180998_);">
						<rect x="227.3" y="126" class="st4" width="322.2" height="322.2"/>
					</g>
				</g>
			</g>
		</g>
		<g id="Wet_Floor_2_">
			<g>
				<g>
					<defs>
						<rect id="SVGID_00000109011193195733327530000006228045508070744975_" x="365.1" y="108.9" width="100.6" height="96.3"/>
					</defs>
					<clipPath id="SVGID_00000059992052610843656960000014691472927369851293_">
						<use xlink:href="#SVGID_00000109011193195733327530000006228045508070744975_"  style="overflow:visible;"/>
					</clipPath>
					<g style="clip-path:url(#SVGID_00000059992052610843656960000014691472927369851293_);">
						<g>
							<line class="st2" x1="67.3" y1="112.3" x2="400.8" y2="-221.2"/>
							<line class="st2" x1="56.9" y1="101.9" x2="390.4" y2="-231.6"/>
							<line class="st2" x1="77.8" y1="122.7" x2="411.2" y2="-210.8"/>
							<line class="st2" x1="88.2" y1="133.1" x2="421.7" y2="-200.3"/>
							<line class="st2" x1="98.6" y1="143.6" x2="432.1" y2="-189.9"/>
							<line class="st2" x1="109" y1="154" x2="442.5" y2="-179.5"/>
							<line class="st2" x1="119.4" y1="164.4" x2="452.9" y2="-169.1"/>
							<line class="st2" x1="129.9" y1="174.8" x2="463.4" y2="-158.7"/>
							<line class="st2" x1="140.3" y1="185.2" x2="473.8" y2="-148.2"/>
							<line class="st2" x1="150.7" y1="195.7" x2="484.2" y2="-137.8"/>
							<line class="st2" x1="140.3" y1="185.2" x2="473.8" y2="-148.2"/>
							<line class="st2" x1="161.1" y1="206.1" x2="494.6" y2="-127.4"/>
							<line class="st2" x1="171.6" y1="216.5" x2="505" y2="-117"/>
							<line class="st2" x1="182" y1="226.9" x2="515.5" y2="-106.6"/>
							<line class="st2" x1="192.4" y1="237.3" x2="525.9" y2="-96.1"/>
							<line class="st2" x1="202.8" y1="247.8" x2="536.3" y2="-85.7"/>
							<line class="st2" x1="213.2" y1="258.2" x2="546.7" y2="-75.3"/>
							<line class="st2" x1="223.7" y1="268.6" x2="557.1" y2="-64.9"/>
							<line class="st2" x1="234.1" y1="279" x2="567.6" y2="-54.5"/>
							<line class="st2" x1="223.7" y1="268.6" x2="557.1" y2="-64.9"/>
							<line class="st2" x1="244.5" y1="289.5" x2="578" y2="-44"/>
							<line class="st2" x1="254.9" y1="299.9" x2="588.4" y2="-33.6"/>
							<line class="st2" x1="265.3" y1="310.3" x2="598.8" y2="-23.2"/>
							<line class="st2" x1="275.8" y1="320.7" x2="609.3" y2="-12.8"/>
							<line class="st2" x1="286.2" y1="331.1" x2="619.7" y2="-2.3"/>
							<line class="st2" x1="296.6" y1="341.6" x2="630.1" y2="8.1"/>
							<line class="st2" x1="307" y1="352" x2="640.5" y2="18.5"/>
							<line class="st2" x1="317.5" y1="362.4" x2="650.9" y2="28.9"/>
							<line class="st2" x1="307" y1="352" x2="640.5" y2="18.5"/>
							<line class="st2" x1="327.9" y1="372.8" x2="661.4" y2="39.3"/>
							<line class="st2" x1="338.3" y1="383.2" x2="671.8" y2="49.8"/>
							<line class="st2" x1="348.7" y1="393.7" x2="682.2" y2="60.2"/>
							<line class="st2" x1="359.1" y1="404.1" x2="692.6" y2="70.6"/>
							<line class="st2" x1="369.6" y1="414.5" x2="703" y2="81"/>
							<line class="st2" x1="380" y1="424.9" x2="713.5" y2="91.4"/>
							<line class="st2" x1="390.4" y1="435.4" x2="723.9" y2="101.9"/>
						</g>
						<g>
							<line class="st2" x1="400.8" y1="424.9" x2="67.3" y2="91.4"/>
							<line class="st2" x1="390.4" y1="435.4" x2="56.9" y2="101.9"/>
							<line class="st2" x1="411.2" y1="414.5" x2="77.8" y2="81"/>
							<line class="st2" x1="421.7" y1="404.1" x2="88.2" y2="70.6"/>
							<line class="st2" x1="432.1" y1="393.7" x2="98.6" y2="60.2"/>
							<line class="st2" x1="442.5" y1="383.2" x2="109" y2="49.8"/>
							<line class="st2" x1="452.9" y1="372.8" x2="119.4" y2="39.3"/>
							<line class="st2" x1="463.4" y1="362.4" x2="129.9" y2="28.9"/>
							<line class="st2" x1="473.8" y1="352" x2="140.3" y2="18.5"/>
							<line class="st2" x1="484.2" y1="341.6" x2="150.7" y2="8.1"/>
							<line class="st2" x1="473.8" y1="352" x2="140.3" y2="18.5"/>
							<line class="st2" x1="494.6" y1="331.1" x2="161.1" y2="-2.3"/>
							<line class="st2" x1="505" y1="320.7" x2="171.6" y2="-12.8"/>
							<line class="st2" x1="515.5" y1="310.3" x2="182" y2="-23.2"/>
							<line class="st2" x1="525.9" y1="299.9" x2="192.4" y2="-33.6"/>
							<line class="st2" x1="536.3" y1="289.5" x2="202.8" y2="-44"/>
							<line class="st2" x1="546.7" y1="279" x2="213.2" y2="-54.5"/>
							<line class="st2" x1="557.1" y1="268.6" x2="223.7" y2="-64.9"/>
							<line class="st2" x1="567.6" y1="258.2" x2="234.1" y2="-75.3"/>
							<line class="st2" x1="557.1" y1="268.6" x2="223.7" y2="-64.9"/>
							<line class="st2" x1="578" y1="247.8" x2="244.5" y2="-85.7"/>
							<line class="st2" x1="588.4" y1="237.3" x2="254.9" y2="-96.1"/>
							<line class="st2" x1="598.8" y1="226.9" x2="265.3" y2="-106.6"/>
							<line class="st2" x1="609.3" y1="216.5" x2="275.8" y2="-117"/>
							<line class="st2" x1="619.7" y1="206.1" x2="286.2" y2="-127.4"/>
							<line class="st2" x1="630.1" y1="195.7" x2="296.6" y2="-137.8"/>
							<line class="st2" x1="640.5" y1="185.2" x2="307" y2="-148.2"/>
							<line class="st2" x1="650.9" y1="174.8" x2="317.5" y2="-158.7"/>
							<line class="st2" x1="640.5" y1="185.2" x2="307" y2="-148.2"/>
							<line class="st2" x1="661.4" y1="164.4" x2="327.9" y2="-169.1"/>
							<line class="st2" x1="671.8" y1="154" x2="338.3" y2="-179.5"/>
							<line class="st2" x1="682.2" y1="143.6" x2="348.7" y2="-189.9"/>
							<line class="st2" x1="692.6" y1="133.1" x2="359.1" y2="-200.3"/>
							<line class="st2" x1="703" y1="122.7" x2="369.6" y2="-210.8"/>
							<line class="st2" x1="713.5" y1="112.3" x2="380" y2="-221.2"/>
							<line class="st2" x1="723.9" y1="101.9" x2="390.4" y2="-231.6"/>
						</g>
					</g>
				</g>
			</g>
			<g>
				<g>
					<defs>
						<rect id="SVGID_00000018942483231607644780000003778589788729152908_" x="365.1" y="108.9" width="100.6" height="96.3"/>
					</defs>
					<clipPath id="SVGID_00000088831283233919516720000000711205662840605340_">
						<use xlink:href="#SVGID_00000018942483231607644780000003778589788729152908_"  style="overflow:visible;"/>
					</clipPath>
					<g style="opacity:0.3;clip-path:url(#SVGID_00000088831283233919516720000000711205662840605340_);">
						<rect x="229.3" y="-69.6" class="st4" width="322.2" height="322.2"/>
					</g>
				</g>
			</g>
		</g>
	</g>
	<g id="Windows_1_">
		<path class="st7" d="M656.1,308.3l-19,82.2l-6.3-1.3l19-82.2L656.1,308.3z"/>
		<path class="st7" d="M368.2,87.8v6.3H245.6v-6.3H368.2z"/>
		<polygon class="st7" points="660,87.8 569.8,87.8 569.8,94.1 651.5,94.1 632.1,168.5 638,170.2 		"/>
	</g>
	<path id="Doors_1_" class="st7" d="M465.9,299.2c4.7,0,8.5-0.8,12.7-2.5s8-4.2,11-7.2c3.4-3,5.9-6.8,7.6-11s2.5-8.5,2.5-13.1h-33.8
		 M449,252.7c0-4.7-0.8-8.5-2.5-12.7s-4.2-8-7.2-11c-3-3.4-6.8-5.9-11-7.6c-4.2-1.7-8.5-2.5-13.1-2.5v33.8 M385.6,311.9
		c0-4.7,0.8-8.5,2.5-12.7s4.2-8,7.2-11c3-3.4,6.8-5.9,11-7.6s8.5-2.5,13.1-2.5v33.8 M461.7,159.7c-4.7,0-8.5,0.8-12.7,2.5
		s-8,4.2-11,7.2c-3.4,3-5.9,6.8-7.6,11s-2.5,8.5-2.5,13.1h33.8 M165.7,155.4c4.7,0,8.5-0.8,12.7-2.5s8-4.2,11-7.2
		c3.4-3,5.9-6.8,7.6-11c1.7-4.2,2.5-8.5,2.5-13.1h-33.8 M98.1,210.4c0-4.7,0.8-8.5,2.5-12.7s4.2-8,7.2-11c3-3.4,6.8-5.9,11-7.6
		c4.2-1.7,8.5-2.5,13.1-2.5v33.8 M267.2,345.7c5.5,0,10.6,1.3,15.6,3.4c5.1,2.1,10.1,5.1,14,9.3c3.8,3.8,7.2,8.5,9.3,13.5
		c2.1,5.1,3.4,10.6,3.4,16.1h-42.3"/>
	<g id="Walls">
		<path class="st8" d="M613.9,396.5h-148v-97.3h-4.2v12.7h-42.3v4.2h42.3v65.7h-14.9v14.7h-95.1v-80.3h33.8V312h-38.1v84.6h-80.3
			V388h-12.7v21.1h384.8v-29.6h-25.3L613.9,396.5L613.9,396.5z M451.1,386h10.3v10.5h-10.3V386z"/>
		<path class="st8" d="M415.2,252.7h-46.5v-46.5H466v-12.7h-4.2v8.5h-93v-93.1h76.6v17.4h16.4v33.4h4.2v-50.8h109.9V83.6h-4.2V70.9
			H559v12.7h-50.7V70.9h-12.7v12.7h-50.7V70.9h-12.7v12.7h-55V70.9h-12.7v186h50.7L415.2,252.7L415.2,252.7z M449.5,122.1v-13.2
			h11.9v13.2H449.5z"/>
		<rect x="301" y="70.9" class="st8" width="12.7" height="29.6"/>
		<polygon class="st8" points="635.1,302 635.1,185.9 641.8,169 630,164.3 628.5,168.1 622.4,168.1 622.4,176.6 613.9,176.6 
			613.9,206.2 622.4,206.2 622.4,252.7 449,252.7 449,256.9 461.7,256.9 461.7,265.4 465.9,265.4 465.9,256.9 622.4,256.9 
			622.4,310.1 622,311.9 654.9,319.5 657.9,307.2 		"/>
		<path class="st8" d="M254.5,345.7h12.7v-63.4H263v29.6h-63.4v-25.4h-59.2V159.7h25.4v-4.2h-29.6v55H132v4.2h4.2v71.9H87V272H72.7
			v-57.3h25.4v-4.2H72.7V108.1h88.8v13.5h4.2v-13.5h84.6V70.9h-12.7v12.7h-55V70.9h-12.7v12.7H60v215.6h126.9v25.4h67.7L254.5,345.7
			L254.5,345.7z M72.7,276.2h10.1v10.3H72.7V276.2z"/>
	</g>
	<g id="Furniture">
		<g>
			<polygon class="st9" points="406.5,119.1 406.5,116 369.2,116 369.2,109.4 444.8,109.4 444.8,119.1 			"/>
			<path class="st10" d="M444.3,109.9v8.8H407v-2.2v-1h-1h-36.3v-5.6L444.3,109.9 M445.3,108.9h-76.6v7.6H406v3.2h39.3L445.3,108.9
				L445.3,108.9z"/>
		</g>
		<g>
			<rect x="369.2" y="148.8" class="st9" width="18.6" height="52.6"/>
			<path class="st10" d="M387.3,149.3V201h-17.6v-51.6L387.3,149.3 M388.3,148.3h-19.6V202h19.6V148.3L388.3,148.3z"/>
		</g>
		<g>
			<rect x="140.8" y="160.2" class="st9" width="26.7" height="125.9"/>
			<path class="st10" d="M167,160.7l-0.1,124.9h-25.7l0.1-124.9L167,160.7 M168,159.7h-27.7l-0.1,126.9h27.7L168,159.7L168,159.7z"
				/>
		</g>
		<g>
			<g>
				<rect x="512" y="310.9" class="st9" width="60.8" height="85.1"/>
				<path class="st10" d="M512.5,311.4h59.8v84.1h-59.8V311.4 M511.5,310.4v86.1h61.8v-86.1H511.5L511.5,310.4z"/>
			</g>
			<rect x="516.8" y="369.1" class="st11" width="24.1" height="21.3"/>
			<rect x="543.9" y="369.1" class="st11" width="24.1" height="21.3"/>
			<polygon class="st12" points="519.8,377.7 537.2,383.2 541.9,362.7 524.4,357.2 			"/>
			<polygon class="st12" points="543.1,362.7 547.8,383.2 565.2,377.7 560.6,357.2 			"/>
			<g>
				<polygon class="st9" points="512,373.5 512,310.1 572.8,310.1 572.8,378 548.6,379.8 				"/>
				<path class="st10" d="M512.5,310.6h59.8v66.5v0.4l-23.7,1.7l-36.1-6.2V310.6 M511.5,309.6v63.9v0.5l37.1,6.3l24.7-1.8v-1.4
					v-67.5H511.5L511.5,309.6z"/>
			</g>
			<polyline class="st13" points="572.5,376.3 548.4,376.3 512.2,372.7 			"/>
		</g>
		<g>
			<g>
				<rect x="509" y="171.6" class="st9" width="66.9" height="80.6"/>
				<path class="st10" d="M575.4,172.1v79.6h-65.9v-79.6H575.4 M576.4,171.1h-67.9v81.6h67.9V171.1L576.4,171.1z"/>
			</g>
			<rect x="514.3" y="226.7" class="st11" width="26.5" height="20.2"/>
			<rect x="544.1" y="226.7" class="st11" width="26.5" height="20.2"/>
			<polygon class="st12" points="517.5,234.9 536.7,240.1 541.8,220.6 522.7,215.4 			"/>
			<polygon class="st12" points="543.2,220.6 548.3,240.1 567.5,234.9 562.3,215.4 			"/>
			<g>
				<polygon class="st9" points="509,230.8 509,170.8 575.9,170.8 575.9,235.1 549.2,236.8 				"/>
				<path class="st10" d="M509.5,171.3h65.9v63v0.3l-26.1,1.7l-39.8-5.9L509.5,171.3 M508.5,170.3v60.6v0.4l40.7,6l27.2-1.7v-1.3
					v-64L508.5,170.3L508.5,170.3z"/>
			</g>
			<polyline class="st13" points="575.5,233.5 549,233.5 509.3,230.1 			"/>
		</g>
		<g>
			<g>
				<rect x="488.2" y="303.8" class="st9" width="1.8" height="92.2"/>
				<path class="st10" d="M489.5,304.3v91.2h-0.8v-91.2H489.5 M490.5,303.3h-2.8v93.2h2.8V303.3L490.5,303.3z"/>
			</g>
			<g>
				<rect x="466.4" y="303.8" class="st9" width="21.8" height="92.2"/>
				<path class="st10" d="M466.9,304.3h20.8v91.2h-20.8V304.3 M465.9,303.3v93.2h22.8v-93.2H465.9L465.9,303.3z"/>
			</g>
			<path class="st11" d="M466.7,303.7l21.3,92.6"/>
		</g>
		<g>
			<g>
				
					<rect x="591.5" y="128.5" transform="matrix(0.2552 -0.9669 0.9669 0.2552 336.6371 695.7171)" class="st9" width="56.8" height="1.8"/>
				<path class="st10" d="M626.6,102.2l0.8,0.2l-14.3,54l-0.8-0.2L626.6,102.2 M625.9,100.9l-14.8,55.9l2.7,0.7l14.8-55.9
					L625.9,100.9L625.9,100.9z"/>
			</g>
			<g>
				
					<rect x="602.1" y="122.1" transform="matrix(0.2552 -0.9669 0.9669 0.2552 341.8813 707.96)" class="st9" width="56.8" height="20"/>
				<path class="st10" d="M628.4,102.6l18.3,4.8l-14.3,54l-18.3-4.8L628.4,102.6 M627.6,101.4l-14.8,55.9l20.3,5.3l14.8-55.9
					L627.6,101.4L627.6,101.4z"/>
			</g>
			<path class="st11" d="M632.6,162.3l-4.3-60.6"/>
		</g>
		<g>
			<g>
				<rect x="390.5" y="206.6" class="st9" width="1.8" height="45.6"/>
				<path class="st10" d="M391.8,207.1v44.6H391v-44.6H391.8 M392.8,206.1H390v46.6h2.8V206.1L392.8,206.1z"/>
			</g>
			<g>
				<rect x="368.7" y="206.6" class="st9" width="21.8" height="45.6"/>
				<path class="st10" d="M390,207.1v44.6h-20.8v-44.6H390 M391,206.1h-22.8v46.6H391V206.1L391,206.1z"/>
			</g>
			<path class="st11" d="M368.9,206.3l21.3,46.3"/>
		</g>
		<g>
			<g>
				<rect x="323.4" y="324.5" class="st9" width="1.8" height="71.7"/>
				<path class="st10" d="M324.8,325v70.7H324V325H324.8 M325.8,324H323v72.7h2.8V324L325.8,324z"/>
			</g>
			<g>
				<rect x="325.2" y="324.5" class="st9" width="21.8" height="71.7"/>
				<path class="st10" d="M325.7,325h20.8v70.7h-20.8V325 M324.7,324v72.7h22.8V324H324.7L324.7,324z"/>
			</g>
			<path class="st11" d="M346.8,396.4l-21.3-72.2"/>
		</g>
		<g>
			<g>
				<rect x="95" y="215.1" class="st9" width="1.8" height="42.9"/>
				<path class="st10" d="M96.3,215.6v41.9h-0.8v-41.9H96.3 M97.3,214.6h-2.8v43.9h2.8V214.6L97.3,214.6z"/>
			</g>
			<g>
				<rect x="73.2" y="215.1" class="st9" width="21.8" height="42.9"/>
				<path class="st10" d="M94.5,215.6v41.9H73.7v-41.9H94.5 M95.5,214.6H72.7v43.9h22.8V214.6L95.5,214.6z"/>
			</g>
			<path class="st11" d="M73.3,215.1l21.6,43"/>
		</g>
		<g>
			<g>
				<rect x="95" y="108.6" class="st9" width="1.8" height="101.3"/>
				<path class="st10" d="M96.3,109.1v100.3h-0.8V109.1L96.3,109.1 M97.3,108.1h-2.8v102.3h2.8V108.1L97.3,108.1z"/>
			</g>
			<g>
				<rect x="73.2" y="108.6" class="st9" width="21.8" height="101.3"/>
				<path class="st10" d="M94.5,109.1v100.3H73.7V109.1L94.5,109.1 M95.5,108.1H72.7v102.3h22.8V108.1L95.5,108.1z"/>
			</g>
			<path class="st11" d="M73.4,108.5l21.3,101.7"/>
		</g>
		<g>
			<g>
				<rect x="280.5" y="313.7" class="st9" width="1.8" height="21.8"/>
				<path class="st10" d="M281.8,314.2V335H281v-20.8H281.8 M282.8,313.2H280V336h2.8V313.2L282.8,313.2z"/>
			</g>
			<g>
				<rect x="267.5" y="313.7" class="st9" width="13" height="21.8"/>
				<path class="st10" d="M268,314.2h12V335h-12V314.2 M267,313.2V336h14v-22.8H267L267,313.2z"/>
			</g>
			<path class="st11" d="M267.8,313.8l12.5,21.7"/>
		</g>
		<g>
			<g>
				<rect x="352.3" y="316.6" class="st9" width="31.3" height="79.3"/>
				<path class="st10" d="M352.8,317.1h30.3v78.3h-30.3V317.1 M351.8,316.1v80.3h32.3v-80.3L351.8,316.1L351.8,316.1z"/>
			</g>
			<g>
				<g>
					<path class="st14" d="M367.9,388.2c6,0,10.6-5.2,10.1-11.1c-0.6-6.5-1.1-14.8-1.1-20.9s0.6-14.3,1.1-20.9
						c0.5-5.9-4.2-11.1-10.1-11.1s-10.6,5.2-10.1,11.1c0.6,6.5,1.1,14.8,1.1,20.9s-0.6,14.3-1.1,20.9
						C357.3,383.1,362,388.2,367.9,388.2z"/>
					<ellipse class="st14" cx="367.9" cy="377.8" rx="1.2" ry="1.2"/>
				</g>
			</g>
		</g>
		<g>
			<g id="Rectangle_16_x5F_11">
				<rect x="383.3" y="376" class="st9" width="30.4" height="20"/>
				<path class="st10" d="M413.2,376.5v19h-29.4v-19H413.2 M414.2,375.5h-31.4v21h31.4V375.5L414.2,375.5z"/>
			</g>
			<path id="Rectangle_19_x5F_5" class="st11" d="M409.5,386L409.5,386c0-3.5-2.9-6.4-6.4-6.4h-9.2c-3.5,0-6.4,2.9-6.4,6.4l0,0
				c0,3.5,2.9,6.4,6.4,6.4h9.2C406.6,392.4,409.5,389.5,409.5,386z"/>
			<circle id="Ellipse_7_x5F_2" class="st11" cx="398.5" cy="388.8" r="1.2"/>
		</g>
		<g>
			<g id="Rectangle_16_x5F_11_1_">
				<rect x="369.2" y="160.9" class="st9" width="18.6" height="28.4"/>
				<path class="st10" d="M387.3,161.4v27.4h-17.6v-27.4H387.3 M388.3,160.4h-19.6v29.4h19.6V160.4L388.3,160.4z"/>
			</g>
			<path id="Rectangle_19_x5F_5_1_" class="st11" d="M378.5,185.4L378.5,185.4c3.3,0,6-2.7,6-6v-8.6c0-3.3-2.7-6-6-6l0,0
				c-3.3,0-6,2.7-6,6v8.6C372.5,182.8,375.2,185.4,378.5,185.4z"/>
			<circle id="Ellipse_7_x5F_2_1_" class="st11" cx="375.8" cy="175.1" r="1.2"/>
		</g>
		<g id="TV_1_">
			<g id="Rectangle_16_1_">
				<rect x="507.3" y="268" class="st9" width="67.7" height="1.8"/>
				<path class="st10" d="M507.8,268.5h66.7v0.8h-66.7V268.5 M506.8,267.5v2.8h68.7v-2.8H506.8L506.8,267.5z"/>
			</g>
			<g id="Rectangle_15_1_">
				<rect x="507.3" y="257.4" class="st9" width="67.7" height="10.6"/>
				<path class="st10" d="M507.8,257.9h66.7v9.6h-66.7V257.9 M506.8,256.9v11.6h68.7v-11.6H506.8L506.8,256.9z"/>
			</g>
			<g id="Rectangle_17_1_">
				<rect x="518.8" y="259.1" class="st9" width="44.6" height="1.8"/>
				<path class="st10" d="M519.3,259.6h43.6v0.8h-43.6V259.6 M518.3,258.6v2.8h45.6v-2.8H518.3L518.3,258.6z"/>
			</g>
			<path id="Rectangle_18_x5F_2_1_" class="st11" d="M531.5,259.1h19.3l-1.8-1.6h-15.8L531.5,259.1z"/>
		</g>
		<g id="Sink_3">
			<rect id="Rectangle_28_x5F_2" x="144.7" y="241.3" class="st11" width="20.1" height="31.8"/>
			<path id="Rectangle_29_x5F_2" class="st11" d="M154.7,253.7L154.7,253.7c4.2,0,7.5,3.4,7.5,7.5v1.7c0,4.2-3.4,7.5-7.5,7.5l0,0
				c-4.2,0-7.5-3.4-7.5-7.5v-1.7C147.2,257.1,150.5,253.7,154.7,253.7z"/>
			<ellipse id="Ellipse_7_x5F_3" class="st11" cx="151.4" cy="262.1" rx="1.2" ry="1.2"/>
			<path id="Vector_2" class="st13" d="M147.2,242.9v8.4 M149.7,242.9v8.4 M152.2,242.9v8.4 M154.7,242.9v8.4 M157.2,242.9v8.4
				 M159.7,242.9v8.4 M162.2,242.9v8.4"/>
		</g>
		<g id="Stove">
			<g id="Rectangle_25">
				<rect x="140.8" y="204.2" class="st9" width="26.7" height="26"/>
				<path class="st10" d="M167,204.7v25h-25.7v-25H167 M168,203.7h-27.7v27H168V203.7L168,203.7z"/>
			</g>
			<g id="Rectangle_28_x5F_3_1_">
				<rect x="140.8" y="204.2" class="st9" width="1.8" height="26"/>
				<path class="st10" d="M142.1,204.7v25h-0.8v-25H142.1 M143.1,203.7h-2.8v27h2.8V203.7L143.1,203.7z"/>
			</g>
			<g id="Ellipse_7_x5F_4">
				<path class="st9" d="M149.8,213.5c-1.6,0-3-1.3-3-3s1.3-3,3-3s3,1.3,3,3S151.4,213.5,149.8,213.5z"/>
				<path class="st10" d="M149.8,208.1c1.4,0,2.5,1.1,2.5,2.5s-1.1,2.5-2.5,2.5s-2.5-1.1-2.5-2.5S148.4,208.1,149.8,208.1
					 M149.8,207.1c-1.9,0-3.5,1.6-3.5,3.5s1.6,3.5,3.5,3.5s3.5-1.6,3.5-3.5S151.7,207.1,149.8,207.1L149.8,207.1z"/>
			</g>
			<g id="Ellipse_9">
				<path class="st9" d="M160.2,214.4c-2.1,0-3.8-1.7-3.8-3.8s1.7-3.8,3.8-3.8s3.8,1.7,3.8,3.8S162.3,214.4,160.2,214.4z"/>
				<path class="st10" d="M160.2,207.3c1.8,0,3.3,1.5,3.3,3.3s-1.5,3.3-3.3,3.3s-3.3-1.5-3.3-3.3S158.4,207.3,160.2,207.3
					 M160.2,206.3c-2.4,0-4.3,1.9-4.3,4.3s1.9,4.3,4.3,4.3s4.3-1.9,4.3-4.3S162.6,206.3,160.2,206.3L160.2,206.3z"/>
			</g>
			<g id="Ellipse_10">
				<path class="st9" d="M149.8,226.5c-2.1,0-3.8-1.7-3.8-3.8s1.7-3.8,3.8-3.8s3.8,1.7,3.8,3.8S151.9,226.5,149.8,226.5z"/>
				<path class="st10" d="M149.8,219.4c1.8,0,3.3,1.5,3.3,3.3s-1.5,3.3-3.3,3.3s-3.3-1.5-3.3-3.3S148,219.4,149.8,219.4
					 M149.8,218.4c-2.4,0-4.3,1.9-4.3,4.3c0,2.4,1.9,4.3,4.3,4.3s4.3-1.9,4.3-4.3C154.1,220.3,152.2,218.4,149.8,218.4L149.8,218.4z
					"/>
			</g>
			<g id="Ellipse_8">
				<path class="st9" d="M161.1,225.7c-1.6,0-3-1.3-3-3s1.3-3,3-3s3,1.3,3,3S162.7,225.7,161.1,225.7z"/>
				<path class="st10" d="M161.1,220.2c1.4,0,2.5,1.1,2.5,2.5s-1.1,2.5-2.5,2.5s-2.5-1.1-2.5-2.5S159.7,220.2,161.1,220.2
					 M161.1,219.2c-1.9,0-3.5,1.6-3.5,3.5s1.6,3.5,3.5,3.5s3.5-1.6,3.5-3.5C164.5,220.8,163,219.2,161.1,219.2L161.1,219.2z"/>
			</g>
		</g>
		<g>
			<path class="st11" d="M309.3,136.3c-1.2,0-2.1-0.9-2.1-2.1V113h48.4v23.3H309.3z"/>
			<path class="st11" d="M334.4,173.8c-1.2,0-2.1-1-2.1-2.2v-33.2c0-1.2,0.9-2.2,2.1-2.2h21.3v37.6L334.4,173.8L334.4,173.8z"/>
			<path class="st11" d="M334.4,210c-1.2,0-2.1-1-2.1-2.1V176c0-1.2,0.9-2.1,2.1-2.1h21.3V210H334.4z"/>
			<path class="st11" d="M330.6,210v7.9H364V104.4h-65.1V138h8.3v-25.1h48.5V210H330.6z"/>
		</g>
		<g id="Toilet_1_">
			<g id="Rectangle_21_1_">
				<rect x="445.8" y="325.5" class="st9" width="5.7" height="17.1"/>
				<path class="st10" d="M451,326v16.1h-4.7V326H451 M452,325h-6.7v18.1h6.7V325L452,325z"/>
			</g>
			<path id="Rectangle_19_x5F_2_1_" class="st11" d="M433.8,327.6c-3.7-0.2-6.9,2.7-6.9,6.5l0,0c0,3.7,3.2,6.7,6.9,6.5l12-0.8v-11.3
				L433.8,327.6z"/>
			<path id="Rectangle_18_x5F_13_1_" class="st11" d="M434.1,329.6c-2.6-0.2-4.8,1.8-4.8,4.4l0,0c0,2.6,2.2,4.6,4.8,4.4l7-0.6v-7.5
				L434.1,329.6z"/>
			<ellipse id="Ellipse_6_x5F_2_1_" class="st11" cx="438.2" cy="334" rx="1.2" ry="1.2"/>
		</g>
		<g>
			<path class="st11" d="M250,218.8v-55.4h40.3v55.4L250,218.8L250,218.8z"/>
			<path class="st11" d="M260.1,160v-0.8c0-5.6,4.5-10.1,10.1-10.1s10.1,4.5,10.1,10.1v0.8H260.1z"/>
			<path class="st11" d="M261.7,163.4v-4.2c0-4.6,3.8-8.4,8.4-8.4s8.4,3.8,8.4,8.4v4.2H261.7z"/>
			<path class="st11" d="M260.1,222.2v0.8c0,5.6,4.5,10.1,10.1,10.1s10.1-4.5,10.1-10.1v-0.8H260.1z"/>
			<path class="st11" d="M261.7,218.8v4.2c0,4.6,3.8,8.4,8.4,8.4s8.4-3.8,8.4-8.4v-4.2H261.7z"/>
			<path class="st11" d="M246.6,181h-0.8c-5.6,0-10.1,4.5-10.1,10.1s4.5,10.1,10.1,10.1h0.8V181z"/>
			<path class="st11" d="M250,182.7h-4.2c-4.6,0-8.4,3.8-8.4,8.4c0,4.6,3.8,8.4,8.4,8.4h4.2V182.7z"/>
			<path class="st11" d="M293.7,181h0.8c5.6,0,10.1,4.5,10.1,10.1s-4.5,10.1-10.1,10.1h-0.8V181z"/>
			<path class="st11" d="M290.3,182.7h4.2c4.6,0,8.4,3.8,8.4,8.4c0,4.6-3.8,8.4-8.4,8.4h-4.2V182.7z"/>
		</g>
		<g>
			<path class="st11" d="M599.9,348.7l3.8-16.2l15.3,1.2l-4.8,20.6L599.9,348.7z"/>
			<g>
				
					<rect x="596" y="333.2" transform="matrix(0.2252 -0.9743 0.9743 0.2252 149.2484 878.7461)" class="st9" width="62.3" height="24.7"/>
				<path class="st10" d="M622.5,313.1l23.1,5.3l-13.8,59.7l-23.1-5.3L622.5,313.1 M621.8,311.9l-14.2,61.6l25.1,5.8l14.2-61.6
					L621.8,311.9L621.8,311.9z"/>
			</g>
			<path class="st13" d="M620.7,350.7l2.9-12.5 M617.5,351.1l3.4-14.7l4.4,1l-3.4,14.7L617.5,351.1z"/>
			<path class="st11" d="M615.8,357.2L615.8,357.2c0.1-0.6,0.8-1,1.4-0.8l1.5,0.3c0.6,0.1,1,0.8,0.8,1.4l0,0c-0.1,0.6-0.8,1-1.4,0.8
				l-1.5-0.3C616.1,358.4,615.7,357.8,615.8,357.2z"/>
			<path class="st11" d="M629.9,350.1c-2-0.5-3.3-2.5-2.8-4.5s2.5-3.3,4.5-2.8l3.7,0.9l-1.7,7.4L629.9,350.1z"/>
			<g>
				
					<rect x="599.9" y="335.3" transform="matrix(0.2252 -0.9743 0.9743 0.2252 137.7852 857.4445)" class="st9" width="16.2" height="13.6"/>
				<path class="st10" d="M603.6,333.3l12.3,2.8l-3.4,14.8l-12.3-2.8L603.6,333.3 M602.8,332.1l-3.9,16.7l14.3,3.3l3.9-16.7
					L602.8,332.1L602.8,332.1z"/>
			</g>
			<g>
				
					<rect x="614.8" y="347" transform="matrix(0.2252 -0.9743 0.9743 0.2252 152.0585 887.1147)" class="st9" width="38.1" height="2"/>
				<path class="st10" d="M637.5,329.8l0.9,0.2l-8.3,36.1l-0.9-0.2L637.5,329.8 M636.8,328.6l-8.8,38.1l2.9,0.7l8.8-38.1
					L636.8,328.6L636.8,328.6z"/>
			</g>
			<g>
				
					<rect x="593.5" y="339.6" transform="matrix(0.2252 -0.9743 0.9743 0.2252 134.3914 850.2036)" class="st9" width="16.5" height="2"/>
				<path class="st10" d="M603.1,332.9l0.9,0.2l-3.5,15.1l-0.9-0.2L603.1,332.9 M602.3,331.7l-3.9,17.1l2.9,0.7l3.9-17.1
					L602.3,331.7L602.3,331.7z"/>
			</g>
		</g>
		<g>
			<g>
				<rect x="110.5" y="269.1" class="st9" width="25.1" height="16.9"/>
				<path class="st10" d="M111,269.6h24.1v15.9H111V269.6 M110,268.6v17.9h26.1v-17.9H110L110,268.6z"/>
			</g>
			<g>
				<path class="st9" d="M123,282.9c-2.9,0-5.3-2.4-5.3-5.3s2.4-5.3,5.3-5.3s5.3,2.4,5.3,5.3C128.4,280.5,126,282.9,123,282.9z"/>
				<path class="st10" d="M123,272.8c2.7,0,4.8,2.2,4.8,4.8c0,2.7-2.2,4.8-4.8,4.8s-4.8-2.2-4.8-4.8
					C118.2,274.9,120.4,272.8,123,272.8 M123,271.8c-3.2,0-5.8,2.6-5.8,5.8s2.6,5.8,5.8,5.8s5.8-2.6,5.8-5.8S126.3,271.8,123,271.8
					L123,271.8z"/>
			</g>
		</g>
		<g>
			<g>
				<rect x="416.3" y="377.6" class="st9" width="30" height="18.3"/>
				<path class="st10" d="M445.8,378.1v17.3h-29v-17.3H445.8 M446.8,377.1h-31v19.3h31V377.1L446.8,377.1z"/>
			</g>
			<g>
				<path class="st9" d="M431.3,392.6c-3.2,0-5.8-2.6-5.8-5.8c0-3.2,2.6-5.8,5.8-5.8c3.2,0,5.8,2.6,5.8,5.8
					C437.1,390,434.5,392.6,431.3,392.6z"/>
				<path class="st10" d="M431.3,381.5c2.9,0,5.3,2.4,5.3,5.3s-2.4,5.3-5.3,5.3s-5.3-2.4-5.3-5.3S428.4,381.5,431.3,381.5
					 M431.3,380.5c-3.5,0-6.3,2.8-6.3,6.3s2.8,6.3,6.3,6.3s6.3-2.8,6.3-6.3C437.6,383.3,434.8,380.5,431.3,380.5L431.3,380.5z"/>
			</g>
		</g>
		<g>
			<rect x="451.8" y="316.6" class="st9" width="9.4" height="64.7"/>
			<path class="st10" d="M460.7,317.1v63.7h-8.4v-63.7H460.7 M461.7,316.1h-10.4v65.7h10.4V316.1L461.7,316.1z"/>
		</g>
		<g id="Toilet_2_">
			<g id="Rectangle_21_2_">
				<rect x="415.1" y="119.1" class="st9" width="17.1" height="5.7"/>
				<path class="st10" d="M431.7,119.6v4.7h-16.1v-4.7H431.7 M432.7,118.6h-18.1v6.7h18.1V118.6L432.7,118.6z"/>
			</g>
			<path id="Rectangle_19_x5F_2_2_" class="st11" d="M417.2,136.8c-0.2,3.7,2.7,6.9,6.5,6.9l0,0c3.7,0,6.7-3.2,6.5-6.9l-0.8-12H418
				L417.2,136.8z"/>
			<path id="Rectangle_18_x5F_13_2_" class="st11" d="M419.3,136.5c-0.2,2.6,1.8,4.8,4.4,4.8l0,0c2.6,0,4.6-2.2,4.4-4.8l-0.6-7H420
				L419.3,136.5z"/>
			<ellipse id="Ellipse_6_x5F_2_2_" class="st11" cx="423.7" cy="132.4" rx="1.2" ry="1.2"/>
		</g>
		<g>
			<rect x="199.9" y="283.6" class="st9" width="27.7" height="27.7"/>
			<path class="st10" d="M227.1,284.1v26.7h-26.7v-26.7H227.1 M228.1,283.1h-28.7v28.7h28.7V283.1L228.1,283.1z"/>
		</g>
		<g>
			<rect x="227.7" y="283.6" class="st9" width="34.8" height="27.7"/>
			<path class="st10" d="M262,284.1v26.7h-33.8v-26.7H262 M263,283.1h-35.8v28.7H263V283.1L263,283.1z"/>
		</g>
		<g>
			<rect x="229.2" y="281.8" class="st9" width="31.4" height="1.8"/>
			<path class="st10" d="M260.1,282.3v0.8h-30.4v-0.8H260.1 M261.1,281.3h-32.4v2.8h32.4V281.3L261.1,281.3z"/>
		</g>
		<g id="Rectangle_27_2_">
			<rect x="199.9" y="281.8" class="st9" width="27.6" height="1.8"/>
			<path class="st10" d="M227,282.3v0.8h-26.6v-0.8H227 M228,281.3h-28.6v2.8H228V281.3L228,281.3z"/>
		</g>
		<path id="Vector_3" class="st13" d="M210.1,297.5h7.1 M211.9,294.4l3.5,6.2 M211.9,300.6l3.5-6.2"/>
		<circle class="st11" cx="605.3" cy="124.6" r="9.7"/>
		<g>
			<g>
				<path class="st9" d="M369.2,148.8V116H402v22.8c0,5.5-4.5,10-10,10H369.2z"/>
				<path class="st10" d="M369.7,116.5h31.8v22.3c0,2.5-1,4.9-2.8,6.7s-4.2,2.8-6.7,2.8h-22.3V116.5 M368.7,115.5v33.8H392
					c5.8,0,10.5-4.7,10.5-10.5v-23.3H368.7L368.7,115.5z"/>
			</g>
			<g>
				<path class="st9" d="M371.5,146.5v-28.2h28.2v20.6c0,4.2-3.4,7.6-7.6,7.6L371.5,146.5L371.5,146.5z"/>
				<path class="st10" d="M399.2,118.8v20.1c0,3.9-3.2,7.1-7.1,7.1H372v-27.2L399.2,118.8 M400.2,117.8H371V147h21.1
					c4.5,0,8.1-3.6,8.1-8.1V117.8L400.2,117.8z"/>
			</g>
			<ellipse class="st11" cx="377.3" cy="124.1" rx="1.2" ry="1.2"/>
		</g>
	</g>
	<g id="street_anchors">
		<rect id="street_x5F_anchor_x5F_01_1_" x="355" y="31" class="st15" width="10" height="10"/>
		<rect id="street_x5F_anchor_x5F_02" x="690.6" y="235" class="st15" width="10" height="10"/>
	</g>
</g>
<g id="комнаты">
	<g>
		<g>
			<path class="st8" d="M478.8,165.2l1.3-0.8h0.9v5.8h-1v-4.5l-1,0.6L478.8,165.2z"/>
			<path class="st8" d="M482.1,169.5l0.5-1c0.3,0.3,1,0.7,1.8,0.7c0.6,0,1.2-0.3,1.2-1c0-0.6-0.4-0.8-0.9-0.8c-0.6,0-1,0.3-1.4,0.6
				l-0.6-0.6v-3h3.5v1.1h-2.6v1.4c0.4-0.3,0.7-0.6,1.3-0.6c0.9,0,1.8,0.6,1.8,1.9c0,1.5-1.1,2.2-2.2,2.2
				C483.2,170.4,482.5,169.8,482.1,169.5z"/>
			<path class="st8" d="M488.1,168.6c0.4,0,0.7,0.4,0.7,0.9c0,0.5-0.3,0.9-0.7,0.9c-0.4,0-0.7-0.4-0.7-0.9
				C487.4,169,487.7,168.6,488.1,168.6z"/>
			<path class="st8" d="M489.7,169.3c0-1.4,0.9-2.1,1.9-2.5c0.3-0.1,0.8-0.3,0.8-0.8c0-0.4-0.4-0.6-0.7-0.6c-0.6,0-1,0.4-1.5,0.9
				l-0.6-0.9c0.6-0.6,1.1-1.1,2-1.1c0.9,0,1.8,0.5,1.8,1.7c0,1.3-1,1.7-1.7,2c-0.6,0.3-1,0.6-1,1.1v0.1h2.6v1.1h-3.7V169.3z"/>
		</g>
	</g>
	<g>
		<g>
			<path class="st8" d="M576.3,285.1l1.3-0.8h0.9v5.8h-1v-4.5l-1,0.6L576.3,285.1z"/>
			<path class="st8" d="M579.5,285.1l1.3-0.8h0.9v5.8h-1v-4.5l-1,0.6L579.5,285.1z"/>
			<path class="st8" d="M583.6,288.5c0.4,0,0.7,0.4,0.7,0.9c0,0.5-0.3,0.9-0.7,0.9c-0.4,0-0.7-0.4-0.7-0.9
				C582.9,288.9,583.2,288.5,583.6,288.5z"/>
			<path class="st8" d="M585.1,289.4l0.5-1c0.3,0.3,1,0.7,1.8,0.7c0.6,0,1.2-0.3,1.2-1c0-0.6-0.4-0.8-0.9-0.8c-0.6,0-1,0.3-1.4,0.6
				l-0.6-0.6v-3h3.5v1.1h-2.6v1.4c0.4-0.3,0.7-0.6,1.3-0.6c0.9,0,1.8,0.6,1.8,1.9c0,1.5-1.1,2.2-2.2,2.2
				C586.2,290.3,585.5,289.7,585.1,289.4z"/>
		</g>
	</g>
	<g>
		<g>
			<path class="st8" d="M362.1,284.2c0-1.4,0.9-2.1,1.9-2.5c0.3-0.1,0.8-0.3,0.8-0.8c0-0.4-0.4-0.6-0.7-0.6c-0.6,0-1,0.4-1.5,0.9
				l-0.6-0.9c0.6-0.6,1.1-1.1,2-1.1c0.9,0,1.8,0.5,1.8,1.7c0,1.3-1,1.7-1.7,2c-0.6,0.3-1,0.6-1,1.1v0.1h2.6v1.1h-3.7V284.2z"/>
			<path class="st8" d="M367.4,283.5c0.4,0,0.7,0.4,0.7,0.9c0,0.5-0.3,0.9-0.7,0.9c-0.4,0-0.7-0.4-0.7-0.9
				C366.7,283.9,367,283.5,367.4,283.5z"/>
			<path class="st8" d="M372.7,280.6c-0.3-0.2-0.8-0.3-1.2-0.3c-0.8,0-1.5,0.7-1.6,1.9c0.4-0.4,1-0.8,1.7-0.8c1.2,0,1.8,0.9,1.8,1.8
				c0,1.2-0.8,2.1-2,2.1c-1.2,0-2.4-1-2.4-3c0-2,1.2-3.2,2.5-3.2c0.8,0,1.4,0.3,1.7,0.5L372.7,280.6z M370.1,283
				c0.2,0.8,0.7,1.2,1.3,1.2c0.6,0,1-0.5,1-1c0-0.4-0.2-0.8-0.9-0.8C371,282.4,370.5,282.7,370.1,283z"/>
		</g>
	</g>
	<g>
		<g>
			<path class="st8" d="M294.8,337h0.7c0.3,0,0.6-0.2,0.6-0.6c0-0.5-0.4-0.7-0.8-0.7c-0.5,0-1.1,0.4-1.5,0.9l-0.6-0.9
				c0.5-0.6,1.2-1.2,2.1-1.2c0.8,0,1.8,0.4,1.8,1.7c0,0.5-0.3,0.9-0.5,1.1c0.4,0.2,0.8,0.6,0.8,1.4c0,1.3-1,2-2.3,2
				c-0.9,0-1.6-0.4-2.3-1.2l0.6-0.9c0.4,0.6,1,1,1.7,1c0.7,0,1.2-0.4,1.2-1c0-0.5-0.4-0.6-0.7-0.6h-0.9V337z"/>
			<path class="st8" d="M299,339c0.4,0,0.7,0.4,0.7,0.9c0,0.5-0.3,0.9-0.7,0.9c-0.4,0-0.7-0.4-0.7-0.9
				C298.3,339.4,298.6,339,299,339z"/>
			<path class="st8" d="M305.3,339.4h-0.8v1.2h-1v-1.2h-3v-0.8l3.1-3.7h0.9v3.5h0.8V339.4z M301.9,338.3h1.6v-1.9h-0.1
				C302.9,337,302.4,337.7,301.9,338.3L301.9,338.3z"/>
		</g>
	</g>
	<g>
		<g>
			<path class="st8" d="M201.4,170.7c0-1.4,0.9-2.1,1.9-2.5c0.3-0.1,0.8-0.3,0.8-0.8c0-0.4-0.4-0.6-0.7-0.6c-0.6,0-1,0.4-1.5,0.9
				l-0.6-0.9c0.6-0.6,1.1-1.1,2-1.1c0.9,0,1.8,0.5,1.8,1.7c0,1.3-1,1.7-1.7,2c-0.6,0.3-1,0.6-1,1.1v0.1h2.6v1.1h-3.7V170.7z"/>
			<path class="st8" d="M205.8,166.6l1.3-0.8h0.9v5.8h-1v-4.5l-1,0.6L205.8,166.6z"/>
			<path class="st8" d="M209.9,170c0.4,0,0.7,0.4,0.7,0.9c0,0.5-0.3,0.9-0.7,0.9c-0.4,0-0.7-0.4-0.7-0.9
				C209.2,170.4,209.6,170,209.9,170z"/>
			<path class="st8" d="M211.5,169.9c0-0.8,0.4-1.3,0.9-1.5c-0.4-0.2-0.7-0.6-0.7-1.2c0-1.1,1.1-1.6,2-1.6c0.9,0,2,0.5,2,1.7
				c0,0.6-0.2,0.9-0.7,1.1c0.5,0.2,0.9,0.7,0.9,1.5c0,1.2-1.1,1.9-2.2,1.9C212.6,171.8,211.5,171.1,211.5,169.9z M214.8,169.8
				c0-0.6-0.6-0.8-1.1-0.8c-0.5,0-1.1,0.3-1.1,0.8c0,0.5,0.6,0.9,1.1,0.9C214.3,170.7,214.8,170.4,214.8,169.8z M214.6,167.4
				c0-0.5-0.5-0.7-0.9-0.7c-0.4,0-0.9,0.2-0.9,0.7c0,0.4,0.3,0.6,0.9,0.6C214.3,168,214.6,167.8,214.6,167.4z"/>
		</g>
	</g>
	<g>
		<g>
			<path class="st8" d="M117.4,144.3h-0.8v1.2h-1v-1.2h-3v-0.8l3.1-3.7h0.9v3.5h0.8V144.3z M114,143.2h1.6v-1.9h-0.1
				C115,141.9,114.5,142.6,114,143.2L114,143.2z"/>
		</g>
	</g>
	<g>
		<g>
			<path class="st8" d="M104.1,235.9c0-1.4,0.9-2.1,1.9-2.5c0.3-0.1,0.8-0.3,0.8-0.8c0-0.4-0.4-0.6-0.7-0.6c-0.6,0-1,0.4-1.5,0.9
				l-0.6-0.9c0.6-0.6,1.1-1.1,2-1.1c0.9,0,1.8,0.5,1.8,1.7c0,1.3-1,1.7-1.7,2c-0.6,0.3-1,0.6-1,1.1v0.1h2.6v1.1h-3.7V235.9z"/>
			<path class="st8" d="M109.5,235.2c0.4,0,0.7,0.4,0.7,0.9c0,0.5-0.3,0.9-0.7,0.9c-0.4,0-0.7-0.4-0.7-0.9
				C108.8,235.6,109.1,235.2,109.5,235.2z"/>
			<path class="st8" d="M111.1,235.9c0-1.4,0.9-2.1,1.9-2.5c0.3-0.1,0.8-0.3,0.8-0.8c0-0.4-0.4-0.6-0.7-0.6c-0.6,0-1,0.4-1.5,0.9
				l-0.6-0.9c0.6-0.6,1.1-1.1,2-1.1c0.9,0,1.8,0.5,1.8,1.7c0,1.3-1,1.7-1.7,2c-0.6,0.3-1,0.6-1,1.1v0.1h2.6v1.1h-3.7V235.9z"/>
		</g>
	</g>
	<g>
		<g>
			<path class="st8" d="M406.9,175.7h0.7c0.3,0,0.6-0.2,0.6-0.6c0-0.5-0.4-0.7-0.8-0.7c-0.5,0-1.1,0.4-1.5,0.9l-0.6-0.9
				c0.5-0.6,1.2-1.2,2.1-1.2c0.8,0,1.8,0.4,1.8,1.7c0,0.5-0.3,0.9-0.5,1.1c0.4,0.2,0.8,0.6,0.8,1.4c0,1.3-1,2-2.3,2
				c-0.9,0-1.6-0.4-2.3-1.2l0.6-0.9c0.4,0.6,1,1,1.7,1c0.7,0,1.2-0.4,1.2-1c0-0.5-0.4-0.6-0.7-0.6h-0.9V175.7z"/>
			<path class="st8" d="M411.1,177.6c0.4,0,0.7,0.4,0.7,0.9c0,0.5-0.3,0.9-0.7,0.9c-0.4,0-0.7-0.4-0.7-0.9
				C410.4,178,410.7,177.6,411.1,177.6z"/>
			<path class="st8" d="M412.6,177.5c0-0.8,0.4-1.3,0.9-1.5c-0.4-0.2-0.7-0.6-0.7-1.2c0-1.1,1.1-1.6,2-1.6c0.9,0,2,0.5,2,1.7
				c0,0.6-0.2,0.9-0.7,1.1c0.5,0.2,0.9,0.7,0.9,1.5c0,1.2-1.1,1.9-2.2,1.9C413.7,179.4,412.6,178.7,412.6,177.5z M416,177.4
				c0-0.6-0.6-0.8-1.1-0.8c-0.5,0-1.1,0.3-1.1,0.8c0,0.5,0.6,0.9,1.1,0.9C415.4,178.3,416,178,416,177.4z M415.7,175
				c0-0.5-0.5-0.7-0.9-0.7c-0.4,0-0.9,0.2-0.9,0.7c0,0.4,0.3,0.6,0.9,0.6C415.4,175.6,415.7,175.4,415.7,175z"/>
		</g>
	</g>
	<g>
		<g>
			<path class="st8" d="M408.2,341h-0.8v1.2h-1V341h-3v-0.8l3.1-3.7h0.9v3.5h0.8V341z M404.8,340h1.6v-1.9h-0.1
				C405.8,338.7,405.3,339.3,404.8,340L404.8,340z"/>
		</g>
	</g>
</g>
</svg>
