<?xml version="1.0" encoding="utf-8"?>
<!-- Generator: Adobe Illustrator 26.0.3, SVG Export Plug-In . SVG Version: 6.00 Build 0)  -->
<svg version="1.1" xmlns="http://www.w3.org/2000/svg" xmlns:xlink="http://www.w3.org/1999/xlink" x="0px" y="0px"
	 viewBox="0 0 720 480" style="enable-background:new 0 0 720 480;" xml:space="preserve">
<style type="text/css">
	.st0{fill:#DBD4CA;}
	.st1{clip-path:url(#SVGID_00000172413036450632707370000011101538348770309546_);}
	.st2{fill:none;stroke:#C49F8A;stroke-miterlimit:10;}
	.st3{opacity:0.3;clip-path:url(#SVGID_00000050649718257612270130000007221142485826786997_);}
	.st4{opacity:0.7;fill:#C49F8A;enable-background:new    ;}
	.st5{opacity:0.3;clip-path:url(#SVGID_00000183208214129558321560000005387580660109249974_);}
	.st6{clip-path:url(#SVGID_00000141443849567588571250000003450359557246726792_);}
	.st7{fill:none;stroke:#565440;}
	.st8{fill:#565440;}
	.st9{fill:#E9E4DC;}
	.st10{fill:#C49F8A;}
	.st11{fill:#E9E4DC;stroke:#C49F8A;}
	.st12{fill:#E9E4DC;stroke:#C49F8A;stroke-miterlimit:3.9998;}
	.st13{fill:none;stroke:#C49F8A;}
	.st14{fill:#E9E4DC;stroke:#C49F8A;stroke-linejoin:round;}
	.st15{opacity:0;}
	.st16{fill:#3F3F3F;fill-opacity:0;}
</style>
<g id="_x31__x5F_2">
	<polygon id="Floor_1_" class="st0" points="64.9,71.8 637.6,71.8 637.6,94.7 649,98.2 634.5,160.3 634.5,298.1 649,304.2 
		629.2,391.9 582.9,382.2 444,382.2 439.5,397.7 360,379.7 311.8,379.7 311.8,390.8 310,397.5 238.4,380.8 177.5,380.8 170.8,399.4 
		93.6,379.5 65.8,379.5 	"/>
	<g id="Wet_Floor">
		<g id="Wet_Floor_2_">
			<g>
				<g>
					<defs>
						<rect id="SVGID_1_" x="290.3" y="73.7" width="196.3" height="97.1"/>
					</defs>
					<clipPath id="SVGID_00000106836204278401274910000010404601883886718857_">
						<use xlink:href="#SVGID_1_"  style="overflow:visible;"/>
					</clipPath>
					<g style="clip-path:url(#SVGID_00000106836204278401274910000010404601883886718857_);">
						<g>
							<line class="st2" x1="56.4" y1="139.3" x2="389.9" y2="-194.2"/>
							<line class="st2" x1="46" y1="128.9" x2="379.4" y2="-204.6"/>
							<line class="st2" x1="66.8" y1="149.7" x2="400.3" y2="-183.7"/>
							<line class="st2" x1="77.2" y1="160.2" x2="410.7" y2="-173.3"/>
							<line class="st2" x1="87.6" y1="170.6" x2="421.1" y2="-162.9"/>
							<line class="st2" x1="98.1" y1="181" x2="431.5" y2="-152.5"/>
							<line class="st2" x1="108.5" y1="191.4" x2="442" y2="-142.1"/>
							<line class="st2" x1="118.9" y1="201.8" x2="452.4" y2="-131.6"/>
							<line class="st2" x1="129.3" y1="212.3" x2="462.8" y2="-121.2"/>
							<line class="st2" x1="139.7" y1="222.7" x2="473.2" y2="-110.8"/>
							<line class="st2" x1="129.3" y1="212.3" x2="462.8" y2="-121.2"/>
							<line class="st2" x1="150.2" y1="233.1" x2="483.7" y2="-100.4"/>
							<line class="st2" x1="160.6" y1="243.5" x2="494.1" y2="-90"/>
							<line class="st2" x1="171" y1="254" x2="504.5" y2="-79.5"/>
							<line class="st2" x1="181.4" y1="264.4" x2="514.9" y2="-69.1"/>
							<line class="st2" x1="191.9" y1="274.8" x2="525.3" y2="-58.7"/>
							<line class="st2" x1="202.3" y1="285.2" x2="535.8" y2="-48.3"/>
							<line class="st2" x1="212.7" y1="295.6" x2="546.2" y2="-37.8"/>
							<line class="st2" x1="223.1" y1="306.1" x2="556.6" y2="-27.4"/>
							<line class="st2" x1="212.7" y1="295.6" x2="546.2" y2="-37.8"/>
							<line class="st2" x1="233.5" y1="316.5" x2="567" y2="-17"/>
							<line class="st2" x1="244" y1="326.9" x2="577.4" y2="-6.6"/>
							<line class="st2" x1="254.4" y1="337.3" x2="587.9" y2="3.8"/>
							<line class="st2" x1="264.8" y1="347.7" x2="598.3" y2="14.3"/>
							<line class="st2" x1="275.2" y1="358.2" x2="608.7" y2="24.7"/>
							<line class="st2" x1="285.6" y1="368.6" x2="619.1" y2="35.1"/>
							<line class="st2" x1="296.1" y1="379" x2="629.6" y2="45.5"/>
							<line class="st2" x1="306.5" y1="389.4" x2="640" y2="55.9"/>
							<line class="st2" x1="296.1" y1="379" x2="629.6" y2="45.5"/>
							<line class="st2" x1="316.9" y1="399.8" x2="650.4" y2="66.4"/>
							<line class="st2" x1="327.3" y1="410.3" x2="660.8" y2="76.8"/>
							<line class="st2" x1="337.8" y1="420.7" x2="671.2" y2="87.2"/>
							<line class="st2" x1="348.2" y1="431.1" x2="681.7" y2="97.6"/>
							<line class="st2" x1="358.6" y1="441.5" x2="692.1" y2="108.1"/>
							<line class="st2" x1="369" y1="452" x2="702.5" y2="118.5"/>
							<line class="st2" x1="379.4" y1="462.4" x2="712.9" y2="128.9"/>
						</g>
						<g>
							<line class="st2" x1="389.9" y1="452" x2="56.4" y2="118.5"/>
							<line class="st2" x1="379.4" y1="462.4" x2="46" y2="128.9"/>
							<line class="st2" x1="400.3" y1="441.5" x2="66.8" y2="108.1"/>
							<line class="st2" x1="410.7" y1="431.1" x2="77.2" y2="97.6"/>
							<line class="st2" x1="421.1" y1="420.7" x2="87.6" y2="87.2"/>
							<line class="st2" x1="431.5" y1="410.3" x2="98.1" y2="76.8"/>
							<line class="st2" x1="442" y1="399.8" x2="108.5" y2="66.4"/>
							<line class="st2" x1="452.4" y1="389.4" x2="118.9" y2="55.9"/>
							<line class="st2" x1="462.8" y1="379" x2="129.3" y2="45.5"/>
							<line class="st2" x1="473.2" y1="368.6" x2="139.7" y2="35.1"/>
							<line class="st2" x1="462.8" y1="379" x2="129.3" y2="45.5"/>
							<line class="st2" x1="483.7" y1="358.2" x2="150.2" y2="24.7"/>
							<line class="st2" x1="494.1" y1="347.7" x2="160.6" y2="14.3"/>
							<line class="st2" x1="504.5" y1="337.3" x2="171" y2="3.8"/>
							<line class="st2" x1="514.9" y1="326.9" x2="181.4" y2="-6.6"/>
							<line class="st2" x1="525.3" y1="316.5" x2="191.9" y2="-17"/>
							<line class="st2" x1="535.8" y1="306.1" x2="202.3" y2="-27.4"/>
							<line class="st2" x1="546.2" y1="295.6" x2="212.7" y2="-37.8"/>
							<line class="st2" x1="556.6" y1="285.2" x2="223.1" y2="-48.3"/>
							<line class="st2" x1="546.2" y1="295.6" x2="212.7" y2="-37.8"/>
							<line class="st2" x1="567" y1="274.8" x2="233.5" y2="-58.7"/>
							<line class="st2" x1="577.4" y1="264.4" x2="244" y2="-69.1"/>
							<line class="st2" x1="587.9" y1="254" x2="254.4" y2="-79.5"/>
							<line class="st2" x1="598.3" y1="243.5" x2="264.8" y2="-90"/>
							<line class="st2" x1="608.7" y1="233.1" x2="275.2" y2="-100.4"/>
							<line class="st2" x1="619.1" y1="222.7" x2="285.6" y2="-110.8"/>
							<line class="st2" x1="629.6" y1="212.3" x2="296.1" y2="-121.2"/>
							<line class="st2" x1="640" y1="201.8" x2="306.5" y2="-131.6"/>
							<line class="st2" x1="629.6" y1="212.3" x2="296.1" y2="-121.2"/>
							<line class="st2" x1="650.4" y1="191.4" x2="316.9" y2="-142.1"/>
							<line class="st2" x1="660.8" y1="181" x2="327.3" y2="-152.5"/>
							<line class="st2" x1="671.2" y1="170.6" x2="337.8" y2="-162.9"/>
							<line class="st2" x1="681.7" y1="160.2" x2="348.2" y2="-173.3"/>
							<line class="st2" x1="692.1" y1="149.7" x2="358.6" y2="-183.7"/>
							<line class="st2" x1="702.5" y1="139.3" x2="369" y2="-194.2"/>
							<line class="st2" x1="712.9" y1="128.9" x2="379.4" y2="-204.6"/>
						</g>
					</g>
				</g>
			</g>
			<g>
				<g>
					<defs>
						<rect id="SVGID_00000124863491738153070720000001223231732611306898_" x="290.3" y="73.7" width="196.3" height="97.1"/>
					</defs>
					<clipPath id="SVGID_00000018201803330067060930000011176609018689753250_">
						<use xlink:href="#SVGID_00000124863491738153070720000001223231732611306898_"  style="overflow:visible;"/>
					</clipPath>
					<g style="opacity:0.3;clip-path:url(#SVGID_00000018201803330067060930000011176609018689753250_);">
						<rect x="218.4" y="-42.6" class="st4" width="322.2" height="322.2"/>
					</g>
				</g>
			</g>
		</g>
		<g id="Wet_Floor_1_">
			<g>
				<g>
					<defs>
						<rect id="SVGID_00000099659016858869985500000002672750440070005181_" x="70.1" y="84.1" width="111.8" height="85.8"/>
					</defs>
					<clipPath id="SVGID_00000025406969213305354160000017043765858384098222_">
						<use xlink:href="#SVGID_00000099659016858869985500000002672750440070005181_"  style="overflow:visible;"/>
					</clipPath>
					<g style="opacity:0.3;clip-path:url(#SVGID_00000025406969213305354160000017043765858384098222_);">
						<rect x="-23.9" y="-30.9" class="st4" width="322.2" height="322.2"/>
					</g>
				</g>
			</g>
			<g>
				<g>
					<defs>
						<rect id="SVGID_00000106144668090568140240000008474725945154326416_" x="70.1" y="84.1" width="111.8" height="85.8"/>
					</defs>
					<clipPath id="SVGID_00000129914079733527104020000006798825873896315838_">
						<use xlink:href="#SVGID_00000106144668090568140240000008474725945154326416_"  style="overflow:visible;"/>
					</clipPath>
					<g style="clip-path:url(#SVGID_00000129914079733527104020000006798825873896315838_);">
						<line class="st2" x1="152.9" y1="229.2" x2="38.2" y2="114.6"/>
						<line class="st2" x1="142.4" y1="239.7" x2="27.8" y2="125"/>
						<line class="st2" x1="163.3" y1="218.8" x2="48.6" y2="104.2"/>
						<line class="st2" x1="173.7" y1="208.4" x2="59.1" y2="93.8"/>
						<line class="st2" x1="184.1" y1="198" x2="69.5" y2="83.3"/>
						<line class="st2" x1="194.5" y1="187.5" x2="79.9" y2="72.9"/>
						<line class="st2" x1="205" y1="177.1" x2="90.3" y2="62.5"/>
						<line class="st2" x1="215.4" y1="166.7" x2="100.7" y2="52.1"/>
						<line class="st2" x1="225.8" y1="156.3" x2="111.2" y2="41.6"/>
						<line class="st2" x1="236.2" y1="145.9" x2="121.6" y2="31.2"/>
						<line class="st2" x1="225.8" y1="156.3" x2="111.2" y2="41.6"/>
						<line class="st2" x1="246.6" y1="135.4" x2="132" y2="20.8"/>
						<line class="st2" x1="236.2" y1="125" x2="132" y2="229.2"/>
						<line class="st2" x1="246.6" y1="135.4" x2="142.4" y2="239.7"/>
						<line class="st2" x1="225.8" y1="114.6" x2="121.6" y2="218.8"/>
						<line class="st2" x1="215.4" y1="104.2" x2="111.2" y2="208.4"/>
						<line class="st2" x1="205" y1="93.8" x2="100.7" y2="198"/>
						<line class="st2" x1="194.5" y1="83.3" x2="90.3" y2="187.5"/>
						<line class="st2" x1="184.1" y1="72.9" x2="79.9" y2="177.1"/>
						<line class="st2" x1="173.7" y1="62.5" x2="69.5" y2="166.7"/>
						<line class="st2" x1="163.3" y1="52.1" x2="59.1" y2="156.3"/>
						<line class="st2" x1="152.9" y1="41.6" x2="48.6" y2="145.9"/>
						<line class="st2" x1="163.3" y1="52.1" x2="59.1" y2="156.3"/>
						<line class="st2" x1="142.4" y1="31.2" x2="38.2" y2="135.4"/>
						<line class="st2" x1="132" y1="20.8" x2="27.8" y2="125"/>
					</g>
				</g>
			</g>
		</g>
	</g>
	<g id="Windows">
		<polygon class="st7" points="634,400 657.1,301 650.5,299.1 629.1,392.3 582.9,382.2 505.4,382.2 505.4,388.4 582.9,388.4 		"/>
		<polygon class="st7" points="314.1,398.3 312.9,404.5 236.2,387 237.4,380.8 		"/>
		<polygon class="st7" points="441.9,398.3 440.7,404.5 368.5,388 369.7,381.8 		"/>
		<polygon class="st7" points="656.3,94.1 638.6,171.6 632.4,170.3 650.1,92.8 		"/>
		<polygon class="st7" points="101.7,387.9 103.2,381.9 171.8,399.7 170.2,405.6 		"/>
	</g>
	<path id="Doors" class="st7" d="M294.3,125.4c4.5,0,8.2,0.8,12.4,2.5c4.1,1.6,7.8,4.1,10.7,7c3.3,2.9,5.8,6.6,7.4,10.7
		c1.6,4.1,2.5,8.2,2.5,12.8h-33 M446,166.6c0-4.5,0.8-8.2,2.5-12.4c1.6-4.1,4.1-7.8,7-10.7c2.9-3.3,6.6-5.8,10.7-7.4
		c4.1-1.6,8.2-2.5,12.8-2.5v33 M143.7,170c0,4.4-0.8,8.1-2.4,12.1c-1.6,4-4,7.7-6.8,10.5c-2.8,3.2-6.4,5.6-10.5,7.3
		c-4,1.6-8.1,2.4-12.5,2.4V170 M202.9,324c-4.9,0-8.9,0.9-13.4,2.7c-4.5,1.8-8.5,4.5-11.6,7.6c-3.6,3.1-6.2,7.1-8,11.6
		s-2.7,8.9-2.7,13.8h35.6 M487.3,178c4.5,0,8.2,0.8,12.4,2.5c4.1,1.6,7.8,4.1,10.7,7c3.3,2.9,5.8,6.6,7.4,10.7
		c1.6,4.1,2.5,8.2,2.5,12.8h-33 M477.6,249.1c0,4.5-0.8,8.2-2.5,12.4c-1.6,4.1-4.1,7.8-7,10.7c-2.9,3.3-6.6,5.8-10.7,7.4
		s-8.2,2.5-12.8,2.5v-33 M260.5,84.2c0,5.4-1.2,10.3-3.3,15.3c-2.1,4.9-4.9,9.9-9.1,13.6c-3.7,3.7-8.2,7-13.2,9.1
		c-4.9,2.1-10.3,3.3-15.7,3.3V84.2"/>
	<g id="Walls">
		<path class="st8" d="M290.3,158.4v12.4H446v-4.1h-74.2V99.5l0,0v-6.3v-9h111.3v82.5H479v4.1h4.1v7.3h4.1V84.2h140.2v12.5l27.6,6.5
			l2.9-12l-18.1-4.3V71.8H260.5v12.4h29.8v41.2h4.1V84.2h57.2v15.3h16.1v67.2h-73.3v-8.2h-4.1V158.4z M355.7,95.3V84.2h12v11.1
			C367.7,95.3,355.7,95.3,355.7,95.3z"/>
		<polygon class="st8" points="308.4,368.6 308.4,389.3 308.4,389.3 305.1,404.1 317,407 321,389.3 359,389.3 373.3,392.6 
			377.9,372.4 362.2,368.6 		"/>
		<polygon class="st8" points="439.9,249.1 444.6,249.1 444.6,245 439.9,245 439.9,211 435.8,211 435.8,389.3 432.5,404.1 
			444.5,407 448.4,389.3 509.5,389.3 509.5,364.5 439.9,364.5 		"/>
		<polygon class="st8" points="639.8,286.5 639.8,158.4 627.4,158.4 627.4,245 487.3,245 487.3,211 483.1,211 483.1,245 477.6,245 
			477.6,249.1 619.2,249.1 619.2,302.7 619.3,302.7 619.2,303.1 655.5,311.3 660,291.1 		"/>
		<polygon class="st8" points="215.2,360.4 215.1,360.4 215.1,359.6 202.8,359.6 202.8,364.5 172.3,364.5 172.3,386.9 168.2,405.3 
			168.2,405.3 168.2,405.3 180.1,408.2 184.4,389.2 241.8,389.3 241.8,364.5 215.2,364.5 		"/>
		<path class="st8" d="M181,165.9h-37.3v4.1H181h21.7v154h12.4V169.8H231v-16.7h-15.9h-5.3H206h-3.3h-17.6v-69h34.1V71.8H60v317.5
			h29.8l14.3,3.3l4.5-20.2L93,368.6H72.4V170h39.2v-4.1H72.4V84.2H181v46.7V165.9z M227,157.3v8.5h-11.8v-8.5H227z M202.8,157.3v8.6
			h-17.6v-8.6H202.8z"/>
	</g>
	<g id="Furniture">
		<g>
			<rect x="101.9" y="84.7" class="st9" width="44.9" height="19.9"/>
			<path class="st10" d="M146.3,85.2V104h-43.9V85.2H146.3 M147.3,84.2h-45.9V105h45.9V84.2L147.3,84.2z"/>
		</g>
		<g>
			<rect x="444.6" y="84.7" class="st9" width="38" height="21.2"/>
			<path class="st10" d="M482.1,85.2v20.2h-37V85.2H482.1 M483.1,84.2h-39v22.2h39V84.2L483.1,84.2z"/>
		</g>
		<g>
			<rect x="215.7" y="170.3" class="st9" width="21" height="153.2"/>
			<path class="st10" d="M236.1,170.8V323h-20V170.8H236.1 M237.1,169.8h-22V324h22V169.8L237.1,169.8z"/>
		</g>
		<g>
			<g>
				<rect x="539.6" y="84.6" class="st9" width="70.4" height="81.4"/>
				<path class="st10" d="M540.1,85.1h69.4v80.4h-69.4V85.1 M539.1,84.1v82.4h71.4V84.1H539.1L539.1,84.1z"/>
			</g>
			<rect x="576.5" y="90" class="st11" width="27.9" height="20.4"/>
			<rect x="545.2" y="90" class="st11" width="27.9" height="20.4"/>
			<polygon class="st12" points="600.9,102.1 580.8,96.8 575.4,116.5 595.5,121.8 			"/>
			<polygon class="st12" points="574,116.5 568.6,96.8 548.4,102.1 553.8,121.8 			"/>
			<g>
				<polygon class="st9" points="539.6,166.9 539.6,101.9 567.6,100.2 609.9,106.2 609.9,166.9 				"/>
				<path class="st10" d="M567.6,100.7l41.8,5.9v59.8H540v-63.7v-0.4L567.6,100.7 M567.6,99.7l-28.6,1.7v1.3v64.7h71.4v-61.2v-0.4
					L567.6,99.7L567.6,99.7z"/>
			</g>
			<polyline class="st13" points="540,103.5 567.9,103.5 609.6,106.9 			"/>
		</g>
		<g>
			<g>
				<rect x="72.9" y="228.8" class="st9" width="78.5" height="66.1"/>
				<path class="st10" d="M73.4,229.3h77.5v65.1H73.4L73.4,229.3 M72.4,228.3v67.1h79.5v-67.1L72.4,228.3L72.4,228.3z"/>
			</g>
			<rect x="78" y="234" class="st11" width="19.7" height="26.2"/>
			<rect x="78" y="263.5" class="st11" width="19.7" height="26.2"/>
			<polygon class="st12" points="89.7,237.2 84.6,256.2 103.6,261.2 108.7,242.3 			"/>
			<polygon class="st12" points="103.6,262.6 84.6,267.7 89.7,286.6 108.7,281.5 			"/>
			<g>
				<polygon class="st9" points="89.5,294.9 87.9,268.6 93.6,228.8 152.2,228.8 152.2,294.9 				"/>
				<path class="st10" d="M94.1,229.3h57.6v65.1H90.3H90l-1.6-25.8L94.1,229.3 M93.6,228.3h-0.4l-5.9,40.2l1.7,26.8h1.3h62.4v-67.1
					L93.6,228.3L93.6,228.3z"/>
			</g>
			<polyline class="st13" points="91.1,294.5 91.1,268.3 94.3,229 			"/>
		</g>
		<g>
			<g>
				<rect x="535" y="249.6" class="st9" width="83.7" height="58.2"/>
				<path class="st10" d="M618.2,250.1v57.2h-82.7v-57.2L618.2,250.1 M619.2,249.1h-84.7v59.2h84.7V249.1L619.2,249.1z"/>
			</g>
			<rect x="592.2" y="254.1" class="st11" width="20.9" height="23.1"/>
			<rect x="592.2" y="280.1" class="st11" width="20.9" height="23.1"/>
			<polygon class="st12" points="600.7,257 606.2,273.7 585.9,278.1 580.5,261.4 			"/>
			<polygon class="st12" points="585.9,279.3 606.1,283.8 600.7,300.5 580.5,296 			"/>
			<g>
				<polygon class="st9" points="534.2,307.7 534.2,249.6 596.6,249.6 602.7,284.6 601,307.7 				"/>
				<path class="st10" d="M596.2,250.1l6.1,34.5l-1.7,22.6h-0.4h-65.4v-57.1H596.2 M597,249.1h-0.4h-62.9v59.1h66.4h1.3l1.8-23.7
					L597,249.1L597,249.1z"/>
			</g>
			<polyline class="st13" points="599.3,307.5 599.3,284.4 595.8,249.8 			"/>
		</g>
		<g>
			<g>
				<rect x="464" y="299.2" class="st9" width="1.8" height="65"/>
				<path class="st10" d="M465.3,299.7v64h-0.8v-64H465.3 M466.3,298.7h-2.8v66h2.8V298.7L466.3,298.7z"/>
			</g>
			<g>
				<rect x="440.4" y="299.2" class="st9" width="23.6" height="65"/>
				<path class="st10" d="M440.9,299.7h22.6v64h-22.6V299.7 M439.9,298.7v66h24.6v-66H439.9L439.9,298.7z"/>
			</g>
			<path class="st11" d="M440.7,299l23,65.5"/>
		</g>
		<g>
			<g>
				<rect x="72.9" y="194.9" class="st9" width="36.3" height="1.8"/>
				<path class="st10" d="M73.4,195.4h35.3v0.8H73.4V195.4 M72.4,194.4v2.8h37.3v-2.8H72.4L72.4,194.4z"/>
			</g>
			<g>
				<rect x="72.9" y="170.5" class="st9" width="36.3" height="24.4"/>
				<path class="st10" d="M108.7,171v23.4H73.4V171H108.7 M109.7,170H72.4v25.4h37.3V170L109.7,170z"/>
			</g>
			<path class="st11" d="M108.8,170.8l-35.7,23.8"/>
		</g>
		<g>
			<g>
				<rect x="145.4" y="194.9" class="st9" width="56.9" height="1.8"/>
				<path class="st10" d="M145.9,195.4h55.9v0.8h-55.9V195.4 M144.9,194.4v2.8h57.9v-2.8H144.9L144.9,194.4z"/>
			</g>
			<g>
				<rect x="145.4" y="170.5" class="st9" width="56.9" height="24.4"/>
				<path class="st10" d="M201.8,171v23.4h-55.9V171H201.8 M202.8,170h-57.9v25.4h57.9L202.8,170L202.8,170z"/>
			</g>
			<path class="st11" d="M202.1,170.5l-56.4,24.3"/>
		</g>
		<g>
			<g>
				<rect x="268.1" y="98.3" class="st9" width="21.7" height="1.8"/>
				<path class="st10" d="M268.6,98.8h20.7v0.8h-20.7V98.8 M267.6,97.8v2.8h22.7v-2.8H267.6L267.6,97.8z"/>
			</g>
			<g>
				<rect x="268.1" y="84.7" class="st9" width="21.7" height="13.7"/>
				<path class="st10" d="M268.6,85.2h20.7v12.7h-20.7V85.2 M267.6,84.2v14.7h22.7V84.2H267.6L267.6,84.2z"/>
			</g>
			<path class="st11" d="M290,84.8l-22.1,13.5"/>
		</g>
		<g>
			<g>
				<rect x="186.9" y="84.7" class="st9" width="15.3" height="68"/>
				<path class="st10" d="M187.4,85.2h14.3v67h-14.3V85.2 M186.4,84.2v69h16.3v-69H186.4L186.4,84.2z"/>
			</g>
			<path class="st11" d="M202.1,152.1l-15-67.1"/>
			<g>
				<rect x="185.7" y="84.7" class="st9" width="1.8" height="68"/>
				<path class="st10" d="M187,85.2v67h-0.8v-67H187 M188,84.2h-2.8v69h2.8V84.2L188,84.2z"/>
			</g>
		</g>
		<g>
			<g>
				<rect x="487.8" y="219.7" class="st9" width="47.3" height="1.8"/>
				<path class="st10" d="M534.5,220.2v0.8h-46.3v-0.8H534.5 M535.5,219.2h-48.3v2.8h48.3V219.2L535.5,219.2z"/>
			</g>
			<g>
				<rect x="487.8" y="221.5" class="st9" width="47.3" height="23"/>
				<path class="st10" d="M534.5,222v22h-46.3v-22H534.5 M535.5,221h-48.3v24h48.3V221L535.5,221z"/>
			</g>
			<path class="st11" d="M488,243.9l46.9-21.9"/>
		</g>
		<g>
			<g>
				<rect x="372.3" y="94.7" class="st9" width="29.1" height="71.5"/>
				<path class="st10" d="M372.8,95.2h28.1v70.5h-28.1V95.2 M371.8,94.2v72.5h30.1V94.2H371.8L371.8,94.2z"/>
			</g>
			<g>
				<g>
					<path class="st14" d="M386.8,100.7c-5.6,0-9.9,4.8-9.4,10.3c0.6,6.1,1.1,13.7,1.1,19.4c0,5.6-0.6,13.3-1.1,19.4
						c-0.5,5.5,3.9,10.3,9.4,10.3s9.9-4.8,9.4-10.3c-0.6-6.1-1.1-13.7-1.1-19.4c0-5.6,0.6-13.3,1.1-19.4
						C396.7,105.5,392.4,100.7,386.8,100.7z"/>
					<ellipse class="st14" cx="386.8" cy="110.3" rx="1.3" ry="1.3"/>
				</g>
			</g>
		</g>
		<g>
			<g>
				<rect x="72.9" y="84.7" class="st9" width="29.1" height="74.2"/>
				<path class="st10" d="M73.4,85.2h28.1v73.2H73.4V85.2 M72.4,84.2v75.2h30.1V84.2H72.4L72.4,84.2z"/>
			</g>
			<g>
				<g>
					<path class="st14" d="M87.4,92c-5.6,0-9.9,4.8-9.4,10.3c0.6,6.1,1.1,13.7,1.1,19.4c0,5.6-0.6,13.3-1.1,19.4
						c-0.5,5.5,3.9,10.3,9.4,10.3s9.9-4.8,9.4-10.3c-0.6-6.1-1.1-13.7-1.1-19.4c0-5.6,0.6-13.3,1.1-19.4C97.3,96.8,92.9,92,87.4,92z
						"/>
					<ellipse class="st14" cx="87.4" cy="101.7" rx="1.3" ry="1.3"/>
				</g>
			</g>
		</g>
		<g id="Sink_2">
			<g id="Rectangle_16_x5F_11">
				<rect x="456.9" y="86.6" class="st9" width="23.9" height="17.3"/>
				<path class="st10" d="M480.2,87.1v16.3h-22.9V87.1H480.2 M481.2,86.1h-24.9v18.3h24.9V86.1L481.2,86.1z"/>
			</g>
			<path id="Rectangle_19_x5F_5" class="st11" d="M459.2,95.3L459.2,95.3c0,3.1,2.5,5.6,5.6,5.6h8c3.1,0,5.6-2.5,5.6-5.6l0,0
				c0-3.1-2.5-5.6-5.6-5.6h-8C461.7,89.7,459.2,92.2,459.2,95.3z"/>
			<circle id="Ellipse_7_x5F_2" class="st11" cx="468.8" cy="92.8" r="1.3"/>
		</g>
		<g id="Toilet_2_">
			<g id="Rectangle_21_2_">
				<rect x="165.8" y="141.3" class="st9" width="5.2" height="15.8"/>
				<path class="st10" d="M170.6,141.8v14.8h-4.2v-14.8H170.6 M171.6,140.8h-6.2v16.8h6.2V140.8L171.6,140.8z"/>
			</g>
			<path id="Rectangle_19_x5F_2_2_" class="st11" d="M154.7,143.2c-3.5-0.2-6.4,2.5-6.4,6l0,0c0,3.5,2.9,6.2,6.4,6l11.1-0.7V144
				L154.7,143.2z"/>
			<path id="Rectangle_18_x5F_13_2_" class="st11" d="M155,145.1c-2.4-0.2-4.4,1.7-4.4,4.1l0,0c0,2.4,2.1,4.3,4.4,4.1l6.5-0.6v-6.9
				L155,145.1z"/>
			<ellipse id="Ellipse_6_x5F_2_2_" class="st11" cx="158.8" cy="149.2" rx="1.3" ry="1.3"/>
		</g>
		<g id="TV_1_">
			<g id="Rectangle_16_1_">
				<rect x="191.1" y="231.6" class="st9" width="1.8" height="60.5"/>
				<path class="st10" d="M192.4,232.1v59.5h-0.8v-59.5H192.4 M193.4,231.1h-2.8v61.5h2.8V231.1L193.4,231.1z"/>
			</g>
			<g id="Rectangle_15_1_">
				<rect x="192.9" y="231.6" class="st9" width="9.4" height="60.5"/>
				<path class="st10" d="M201.8,232.1v59.5h-8.4v-59.5H201.8 M202.8,231.1h-10.4v61.5h10.4V231.1L202.8,231.1z"/>
			</g>
			<g id="Rectangle_17_1_">
				<rect x="198.9" y="241.9" class="st9" width="1.8" height="39.9"/>
				<path class="st10" d="M200.2,242.4v38.9h-0.8v-38.9H200.2 M201.2,241.4h-2.8v40.9h2.8V241.4L201.2,241.4z"/>
			</g>
			<path id="Rectangle_18_x5F_2_1_" class="st11" d="M200.9,253.2v17.3l1.4-1.6v-14.1L200.9,253.2z"/>
		</g>
		<g id="TV_2_">
			<g id="Rectangle_16_2_">
				<rect x="544.5" y="233.2" class="st9" width="60.5" height="1.8"/>
				<path class="st10" d="M545,233.7h59.5v0.8H545V233.7 M544,232.7v2.8h61.5v-2.8H544L544,232.7z"/>
			</g>
			<g id="Rectangle_15_2_">
				<rect x="544.5" y="235.1" class="st9" width="60.5" height="9.4"/>
				<path class="st10" d="M545,235.6h59.5v8.4H545V235.6 M544,234.6V245h61.5v-10.4H544L544,234.6z"/>
			</g>
			<g id="Rectangle_17_2_">
				<rect x="554.8" y="241.1" class="st9" width="39.9" height="1.8"/>
				<path class="st10" d="M594.2,241.6v0.8h-38.9v-0.8H594.2 M595.2,240.6h-40.9v2.8h40.9V240.6L595.2,240.6z"/>
			</g>
			<path id="Rectangle_18_x5F_2_2_" class="st11" d="M583.4,243h-17.3l1.6,1.4h14.1L583.4,243z"/>
		</g>
		<g id="Sink_3_1_">
			<rect id="Rectangle_28_x5F_2_1_" x="218.1" y="178.3" class="st11" width="16.2" height="25.6"/>
			<path id="Rectangle_29_x5F_2_1_" class="st11" d="M226.2,188.3L226.2,188.3c3.3,0,6.1,2.7,6.1,6.1v1.3c0,3.3-2.7,6.1-6.1,6.1l0,0
				c-3.3,0-6.1-2.7-6.1-6.1v-1.3C220.1,191,222.8,188.3,226.2,188.3z"/>
			<ellipse id="Ellipse_7_x5F_3_1_" class="st11" cx="223.5" cy="195.1" rx="1.3" ry="1.3"/>
			<path id="Vector_2" class="st13" d="M220.1,179.6v6.7 M222.1,179.6v6.7 M224.1,179.6v6.7 M226.2,179.6v6.7 M228.2,179.6v6.7
				 M230.2,179.6v6.7 M232.2,179.6v6.7"/>
		</g>
		<g id="Stove_1_">
			<g id="Rectangle_25_1_">
				<rect x="215.7" y="243.9" class="st9" width="21" height="20.4"/>
				<path class="st10" d="M236.2,244.4v19.4h-20v-19.4H236.2 M237.2,243.4h-22v21.4h22V243.4L237.2,243.4z"/>
			</g>
			<g id="Ellipse_7_x5F_4_1_">
				<path class="st9" d="M222,251.1c-1.2,0-2.3-1-2.3-2.3s1-2.3,2.3-2.3c1.2,0,2.3,1,2.3,2.3S223.3,251.1,222,251.1z"/>
				<path class="st10" d="M222,247.1c1,0,1.8,0.8,1.8,1.8s-0.8,1.8-1.8,1.8s-1.8-0.8-1.8-1.8S221.1,247.1,222,247.1 M222,246.1
					c-1.5,0-2.8,1.2-2.8,2.8c0,1.5,1.2,2.8,2.8,2.8c1.5,0,2.8-1.2,2.8-2.8C224.8,247.4,223.5,246.1,222,246.1L222,246.1z"/>
			</g>
			<g id="Ellipse_9_1_">
				<path class="st9" d="M230.3,251.8c-1.6,0-2.9-1.3-2.9-2.9c0-1.6,1.3-2.9,2.9-2.9s2.9,1.3,2.9,2.9S231.9,251.8,230.3,251.8z"/>
				<path class="st10" d="M230.3,246.4c1.3,0,2.4,1.1,2.4,2.4s-1.1,2.4-2.4,2.4s-2.4-1.1-2.4-2.4c0-0.7,0.3-1.3,0.7-1.7
					S229.6,246.4,230.3,246.4L230.3,246.4 M230.3,245.4c-1.9,0-3.4,1.5-3.4,3.4s1.5,3.4,3.4,3.4s3.4-1.5,3.4-3.4
					S232.2,245.4,230.3,245.4L230.3,245.4z"/>
			</g>
			<g id="Ellipse_10_1_">
				<path class="st9" d="M222,261.5c-1.6,0-2.9-1.3-2.9-2.9s1.3-2.9,2.9-2.9s2.9,1.3,2.9,2.9C225,260.1,223.6,261.5,222,261.5z"/>
				<path class="st10" d="M222,256.1c1.3,0,2.4,1.1,2.4,2.4s-1.1,2.4-2.4,2.4s-2.4-1.1-2.4-2.4S220.7,256.1,222,256.1 M222,255.1
					c-1.9,0-3.4,1.5-3.4,3.4s1.5,3.4,3.4,3.4s3.4-1.5,3.4-3.4C225.5,256.6,223.9,255.1,222,255.1L222,255.1z"/>
			</g>
			<g id="Ellipse_8_1_">
				<path class="st9" d="M231,260.8c-1.2,0-2.3-1-2.3-2.3s1-2.3,2.3-2.3c1.2,0,2.3,1,2.3,2.3S232.2,260.8,231,260.8z"/>
				<path class="st10" d="M231,256.8c1,0,1.8,0.8,1.8,1.8s-0.8,1.8-1.8,1.8s-1.8-0.8-1.8-1.8S230,256.8,231,256.8 M231,255.8
					c-1.5,0-2.8,1.2-2.8,2.8c0,1.5,1.2,2.8,2.8,2.8s2.8-1.2,2.8-2.8C233.7,257,232.5,255.8,231,255.8L231,255.8z"/>
			</g>
		</g>
		<g>
			<g id="Rectangle_27">
				<rect x="215.7" y="302.5" class="st9" width="21" height="21"/>
				<path class="st10" d="M236.2,303v20h-20v-20H236.2 M237.2,302h-22v22h22V302L237.2,302z"/>
			</g>
			<g id="Rectangle_27_4_">
				<rect x="236.6" y="302.5" class="st9" width="1.8" height="21"/>
				<path class="st10" d="M237.9,303v20h-0.8v-20H237.9 M238.9,302h-2.8v22h2.8V302L238.9,302z"/>
			</g>
			<path id="Vector_3" class="st13" d="M225.9,310.3v5.5 M228.3,311.7l-4.8,2.7 M223.5,311.7l4.8,2.7"/>
		</g>
		<g>
			<g id="Rectangle_27_1_">
				<rect x="236.6" y="266.5" class="st9" width="1.8" height="35.8"/>
				<path class="st10" d="M237.9,267v34.8h-0.8V267H237.9 M238.9,266h-2.8v36.8h2.8V266L238.9,266z"/>
			</g>
		</g>
		<g>
			<path class="st11" d="M381,335.4c-1.2,0-2.1,0.9-2.1,2.1v21.1h48.2v-23.2H381z"/>
			<path class="st11" d="M405.9,298c-1.2,0-2.1,1-2.1,2.2v33c0,1.2,0.9,2.2,2.1,2.2h21.2V298L405.9,298L405.9,298z"/>
			<path class="st11" d="M405.9,262c-1.2,0-2.1,0.9-2.1,2.1v31.8c0,1.2,0.9,2.1,2.1,2.1h21.2v-36H405.9z"/>
			<path class="st11" d="M402.1,262v-7.8h33.2v112.9h-64.7v-33.5h8.3v24.9h48.2v-96.6L402.1,262z"/>
		</g>
		<g>
			<rect x="171.1" y="103.9" class="st9" width="9.5" height="61.5"/>
			<path class="st10" d="M180,104.4v60.5h-8.5v-60.5L180,104.4 M181,103.4h-10.5v62.5H181V103.4L181,103.4z"/>
		</g>
		<g id="Toilet_1_">
			<g id="Rectangle_21_1_">
				<rect x="418.5" y="94.6" class="st9" width="16.5" height="5.5"/>
				<path class="st10" d="M434.5,95.1v4.5H419v-4.5H434.5 M435.5,94.1H418v6.5h17.5V94.1L435.5,94.1z"/>
			</g>
			<path id="Rectangle_19_x5F_2_1_" class="st11" d="M420.5,111.7c-0.2,3.6,2.6,6.7,6.2,6.7l0,0c3.6,0,6.5-3.1,6.2-6.7l-0.8-11.6
				h-10.9L420.5,111.7z"/>
			<path id="Rectangle_18_x5F_13_1_" class="st11" d="M422.5,111.4c-0.2,2.5,1.7,4.6,4.2,4.6l0,0c2.5,0,4.5-2.1,4.2-4.6l-0.6-6.8
				H423L422.5,111.4z"/>
			<ellipse id="Ellipse_6_x5F_2_1_" class="st11" cx="426.8" cy="107.4" rx="1.3" ry="1.3"/>
		</g>
		<g>
			<rect x="372.3" y="84.7" class="st9" width="72.2" height="9.9"/>
			<path class="st10" d="M444,85.2v8.9h-71.2v-3.8v-5.1h33.4h36.2H444 M445,84.2h-2.6h-36.2h-34.4v6.1v4.8H445V84.2L445,84.2z"/>
		</g>
		<g id="Toilet_5_">
			<g id="Rectangle_21_6_">
				<rect x="320.8" y="94.6" class="st9" width="16.5" height="5.5"/>
				<path class="st10" d="M336.8,95.1v4.5h-15.5v-4.5H336.8 M337.8,94.1h-17.5v6.5h17.5V94.1L337.8,94.1z"/>
			</g>
			<path id="Rectangle_19_x5F_2_5_" class="st11" d="M322.9,111.7c-0.2,3.6,2.6,6.7,6.2,6.7l0,0c3.6,0,6.5-3.1,6.2-6.7l-0.8-11.6
				h-10.9L322.9,111.7z"/>
			<path id="Rectangle_18_x5F_13_5_" class="st11" d="M324.9,111.4c-0.2,2.5,1.7,4.6,4.2,4.6l0,0c2.5,0,4.5-2.1,4.2-4.6l-0.6-6.8
				h-7.3L324.9,111.4z"/>
			<ellipse id="Ellipse_6_x5F_2_5_" class="st11" cx="329.1" cy="107.4" rx="1.3" ry="1.3"/>
		</g>
		<g>
			<rect x="294.9" y="84.7" class="st9" width="56.2" height="9.9"/>
			<path class="st10" d="M350.6,85.2v8.9h-55.2v-3.8v-5.1h25.9h28.3H350.6 M351.6,84.2h-2h-28.3h-26.9v6.1v4.8h57.2L351.6,84.2
				L351.6,84.2z"/>
		</g>
		<g>
			<path class="st11" d="M300,334.5v-58.3h42.4v58.3H300z"/>
			<path class="st11" d="M310.6,272.7v-0.9c0-5.9,4.7-10.6,10.6-10.6s10.6,4.7,10.6,10.6v0.9H310.6z"/>
			<path class="st11" d="M312.3,276.2v-4.4c0-4.9,4-8.8,8.8-8.8c4.9,0,8.8,4,8.8,8.8v4.4H312.3z"/>
			<path class="st11" d="M310.6,338.1v0.9c0,5.9,4.7,10.6,10.6,10.6s10.6-4.7,10.6-10.6v-0.9H310.6z"/>
			<path class="st11" d="M312.3,334.5v4.4c0,4.9,4,8.8,8.8,8.8c4.9,0,8.8-4,8.8-8.8v-4.4H312.3z"/>
			<path class="st11" d="M296.4,294.8h-0.9c-5.9,0-10.6,4.7-10.6,10.6s4.7,10.6,10.6,10.6h0.9V294.8z"/>
			<path class="st11" d="M300,296.6h-4.4c-4.9,0-8.8,4-8.8,8.8c0,4.9,4,8.8,8.8,8.8h4.4V296.6z"/>
			<path class="st11" d="M345.9,294.8h0.9c5.9,0,10.6,4.7,10.6,10.6s-4.7,10.6-10.6,10.6h-0.9V294.8z"/>
			<path class="st11" d="M342.4,296.6h4.4c4.9,0,8.8,4,8.8,8.8c0,4.9-4,8.8-8.8,8.8h-4.4V296.6z"/>
		</g>
		<g>
			<path class="st11" d="M534.7,334.3h20.4l2.8,18.6h-26L534.7,334.3z"/>
			<g>
				<rect x="510" y="350.8" class="st9" width="69.7" height="30.6"/>
				<path class="st10" d="M579.2,351.3v29.6h-68.7v-29.6H579.2 M580.2,350.3h-70.7v31.6h70.7V350.3L580.2,350.3z"/>
			</g>
			<path class="st13" d="M537,359.7h15.8 M535.6,356h18.6v5.6h-18.6V356z"/>
			<path class="st11" d="M528.6,355.7L528.6,355.7c0.8,0,1.4,0.6,1.4,1.4v1.9c0,0.8-0.6,1.4-1.4,1.4l0,0c-0.8,0-1.4-0.6-1.4-1.4
				v-1.9C527.2,356.3,527.8,355.7,528.6,355.7z"/>
			<path class="st11" d="M540.2,370.6c0-2.6,2.1-4.6,4.6-4.6c2.6,0,4.6,2.1,4.6,4.6v4.6h-9.3L540.2,370.6z"/>
			<g>
				<rect x="534.8" y="333.7" class="st9" width="20.1" height="16.9"/>
				<path class="st10" d="M554.4,334.2v15.9h-19.1v-15.9H554.4 M555.4,333.2h-21.1v17.9h21.1V333.2L555.4,333.2z"/>
			</g>
			<g>
				<rect x="534.7" y="331.9" class="st9" width="20.3" height="1.8"/>
				<path class="st10" d="M554.5,332.4v0.8h-19.3v-0.8H554.5 M555.5,331.4h-21.3v2.8h21.3V331.4L555.5,331.4z"/>
			</g>
			<g>
				<rect x="521.4" y="373.3" class="st9" width="46.9" height="2"/>
				<path class="st10" d="M567.8,373.8v1h-45.9v-1H567.8 M568.8,372.8h-47.9v3h47.9V372.8L568.8,372.8z"/>
			</g>
		</g>
		<g>
			<g>
				<rect x="349.3" y="139.5" class="st9" width="17.9" height="26.6"/>
				<path class="st10" d="M366.7,140v25.6h-16.9V140H366.7 M367.7,139h-18.9v27.6h18.9V139L367.7,139z"/>
			</g>
			<g>
				<circle class="st9" cx="358.2" cy="152.8" r="5.7"/>
				<path class="st10" d="M358.2,147.7c2.8,0,5.2,2.3,5.2,5.2c0,2.8-2.3,5.2-5.2,5.2s-5.2-2.3-5.2-5.2
					C353.1,150,355.4,147.7,358.2,147.7 M358.2,146.7c-3.4,0-6.2,2.8-6.2,6.2s2.8,6.2,6.2,6.2c3.4,0,6.2-2.8,6.2-6.2
					C364.4,149.4,361.6,146.7,358.2,146.7L358.2,146.7z"/>
			</g>
		</g>
		<g id="Sink_2_1_">
			<g id="Rectangle_16_x5F_11_1_">
				<rect x="348.4" y="109" class="st9" width="18.8" height="30.4"/>
				<path class="st10" d="M366.7,109.5V139h-17.8v-29.4L366.7,109.5 M367.7,108.5h-19.8V140h19.8V108.5L367.7,108.5z"/>
			</g>
			<path id="Rectangle_19_x5F_5_1_" class="st11" d="M357.8,113.9L357.8,113.9c-3.3,0-6.1,2.7-6.1,6.1v8.7c0,3.3,2.7,6.1,6.1,6.1
				l0,0c3.3,0,6.1-2.7,6.1-6.1V120C363.9,116.6,361.1,113.9,357.8,113.9z"/>
			<circle id="Ellipse_7_x5F_2_1_" class="st11" cx="360.9" cy="124.3" r="1.3"/>
		</g>
		<g id="Sink_2_4_">
			<g id="Rectangle_16_x5F_11_5_">
				<rect x="108.3" y="84.7" class="st9" width="32.1" height="19.9"/>
				<path class="st10" d="M139.9,85.2v18.9h-31.1V85.2H139.9 M140.9,84.2h-33.1V105h33.1V84.2L140.9,84.2z"/>
			</g>
			<path id="Rectangle_19_x5F_5_4_" class="st11" d="M113.4,94.6L113.4,94.6c0,3.5,2.9,6.4,6.4,6.4h9.1c3.5,0,6.4-2.9,6.4-6.4l0,0
				c0-3.5-2.9-6.4-6.4-6.4h-9.1C116.3,88.2,113.4,91.1,113.4,94.6z"/>
			<circle id="Ellipse_7_x5F_2_4_" class="st11" cx="124.4" cy="91.4" r="1.3"/>
		</g>
	</g>
	<g id="street_anchors_1_" class="st15">
		<rect id="street_x5F_anchor_x5F_02_1_" x="690" y="235" class="st16" width="10" height="10"/>
		<rect id="street_x5F_anchor_x5F_01" x="355" y="438.2" class="st16" width="10" height="10"/>
	</g>
</g>
<g id="комнаты">
	<g>
		<g>
			<path class="st8" d="M557,184.8l1.3-0.8h0.9v5.8h-1v-4.5l-1,0.6L557,184.8z"/>
			<path class="st8" d="M560.2,184.8l1.3-0.8h0.9v5.8h-1v-4.5l-1,0.6L560.2,184.8z"/>
			<path class="st8" d="M564.3,188.2c0.4,0,0.7,0.4,0.7,0.9c0,0.5-0.3,0.9-0.7,0.9c-0.4,0-0.7-0.4-0.7-0.9
				C563.6,188.6,563.9,188.2,564.3,188.2z"/>
			<path class="st8" d="M566.5,188.5c0.3,0.2,0.8,0.3,1.2,0.3c0.8,0,1.5-0.7,1.5-1.8c-0.4,0.4-1,0.8-1.6,0.8c-1.2,0-1.8-0.9-1.8-1.9
				c0-1.2,0.8-2.1,2-2.1c1.2,0,2.4,1,2.4,3c0,2-1.2,3.2-2.5,3.2c-0.8,0-1.4-0.3-1.7-0.5L566.5,188.5z M569.2,186.2
				c-0.2-0.8-0.7-1.2-1.3-1.2c-0.6,0-1,0.5-1,1c0,0.4,0.2,0.8,0.9,0.8C568.3,186.7,568.8,186.5,569.2,186.2z"/>
		</g>
	</g>
	<g>
		<g>
			<path class="st8" d="M492,311.8l1.3-0.8h0.9v5.8h-1v-4.5l-1,0.6L492,311.8z"/>
			<path class="st8" d="M497.2,313.3h0.7c0.3,0,0.6-0.2,0.6-0.6c0-0.5-0.4-0.7-0.8-0.7c-0.5,0-1.1,0.4-1.5,0.9l-0.6-0.9
				c0.5-0.6,1.2-1.2,2.1-1.2c0.8,0,1.8,0.4,1.8,1.7c0,0.5-0.3,0.9-0.5,1.1c0.4,0.2,0.8,0.6,0.8,1.4c0,1.3-1,2-2.3,2
				c-0.9,0-1.6-0.4-2.3-1.2l0.6-0.9c0.4,0.6,1,1,1.7,1c0.7,0,1.2-0.4,1.2-1c0-0.5-0.4-0.6-0.7-0.6h-0.9V313.3z"/>
			<path class="st8" d="M501.3,315.3c0.4,0,0.7,0.4,0.7,0.9c0,0.5-0.3,0.9-0.7,0.9c-0.4,0-0.7-0.4-0.7-0.9
				C500.6,315.7,500.9,315.3,501.3,315.3z"/>
			<path class="st8" d="M503,315.9c0-1.4,0.9-2.1,1.9-2.5c0.3-0.1,0.8-0.3,0.8-0.8c0-0.4-0.4-0.6-0.7-0.6c-0.6,0-1,0.4-1.5,0.9
				l-0.6-0.9c0.6-0.6,1.1-1.1,2-1.1c0.9,0,1.8,0.5,1.8,1.7c0,1.3-1,1.7-1.7,2c-0.6,0.3-1,0.6-1,1.1v0.1h2.6v1.1H503V315.9z"/>
		</g>
	</g>
	<g>
		<g>
			<path class="st8" d="M128.9,324.7l1.3-0.8h0.9v5.8h-1v-4.5l-1,0.6L128.9,324.7z"/>
			<path class="st8" d="M137,328.5h-0.8v1.2h-1v-1.2h-3v-0.8l3.1-3.7h0.9v3.5h0.8V328.5z M133.6,327.4h1.6v-1.9h-0.1
				C134.6,326.2,134.1,326.8,133.6,327.4L133.6,327.4z"/>
			<path class="st8" d="M138.5,328.1c0.4,0,0.7,0.4,0.7,0.9c0,0.5-0.3,0.9-0.7,0.9c-0.4,0-0.7-0.4-0.7-0.9
				C137.8,328.5,138.1,328.1,138.5,328.1z"/>
			<path class="st8" d="M140,323.9h4v1.1l-2.3,4.7h-1.3l2.4-4.6H140V323.9z"/>
		</g>
	</g>
	<g>
		<g>
			<path class="st8" d="M452.6,184.8l1.3-0.8h0.9v5.8h-1v-4.5l-1,0.6L452.6,184.8z"/>
			<path class="st8" d="M456.8,188.2c0.4,0,0.7,0.4,0.7,0.9c0,0.5-0.3,0.9-0.7,0.9c-0.4,0-0.7-0.4-0.7-0.9
				C456.1,188.6,456.4,188.2,456.8,188.2z"/>
			<path class="st8" d="M458.4,188.1c0-0.8,0.4-1.3,0.9-1.5c-0.4-0.2-0.7-0.6-0.7-1.2c0-1.1,1.1-1.6,2-1.6c0.9,0,2,0.5,2,1.7
				c0,0.6-0.2,0.9-0.7,1.1c0.5,0.2,0.9,0.7,0.9,1.5c0,1.2-1.1,1.9-2.2,1.9C459.4,190,458.4,189.3,458.4,188.1z M461.7,188
				c0-0.6-0.6-0.8-1.1-0.8c-0.5,0-1.1,0.3-1.1,0.8c0,0.5,0.6,0.9,1.1,0.9C461.1,188.9,461.7,188.5,461.7,188z M461.4,185.5
				c0-0.5-0.5-0.7-0.9-0.7c-0.4,0-0.9,0.2-0.9,0.7c0,0.4,0.3,0.6,0.9,0.6C461.1,186.2,461.4,185.9,461.4,185.5z"/>
		</g>
	</g>
	<g>
		<g>
			<path class="st8" d="M260.4,137.8h-0.8v1.2h-1v-1.2h-3V137l3.1-3.7h0.9v3.5h0.8V137.8z M257,136.8h1.6v-1.9h-0.1
				C258.1,135.5,257.5,136.1,257,136.8L257,136.8z"/>
			<path class="st8" d="M261.9,137.4c0.4,0,0.7,0.4,0.7,0.9c0,0.5-0.3,0.9-0.7,0.9c-0.4,0-0.7-0.4-0.7-0.9
				C261.2,137.8,261.5,137.4,261.9,137.4z"/>
			<path class="st8" d="M263.6,138.1c0-1.4,0.9-2.1,1.9-2.5c0.3-0.1,0.8-0.3,0.8-0.8c0-0.4-0.4-0.6-0.7-0.6c-0.6,0-1,0.4-1.5,0.9
				l-0.6-0.9c0.6-0.6,1.1-1.1,2-1.1c0.9,0,1.8,0.5,1.8,1.7c0,1.3-1,1.7-1.7,2c-0.6,0.3-1,0.6-1,1.1v0.1h2.6v1.1h-3.7V138.1z"/>
		</g>
	</g>
	<g>
		<g>
			<path class="st8" d="M354.3,247.2c0-1.4,0.9-2.1,1.9-2.5c0.3-0.1,0.8-0.3,0.8-0.8c0-0.4-0.4-0.6-0.7-0.6c-0.6,0-1,0.4-1.5,0.9
				l-0.6-0.9c0.6-0.6,1.1-1.1,2-1.1c0.9,0,1.8,0.5,1.8,1.7c0,1.3-1,1.7-1.7,2c-0.6,0.3-1,0.6-1,1.1v0.1h2.6v1.1h-3.7V247.2z"/>
			<path class="st8" d="M358.8,247.4l0.5-1c0.3,0.3,0.9,0.7,1.8,0.7c0.6,0,1.2-0.3,1.2-1c0-0.6-0.4-0.8-0.9-0.8
				c-0.6,0-1,0.3-1.4,0.6l-0.6-0.6v-3h3.5v1.1h-2.6v1.4c0.4-0.3,0.7-0.6,1.3-0.6c0.9,0,1.8,0.6,1.8,1.9c0,1.5-1.1,2.2-2.2,2.2
				C359.9,248.3,359.2,247.7,358.8,247.4z"/>
			<path class="st8" d="M364.7,246.5c0.4,0,0.7,0.4,0.7,0.9c0,0.5-0.3,0.9-0.7,0.9c-0.4,0-0.7-0.4-0.7-0.9
				C364,246.9,364.3,246.5,364.7,246.5z"/>
			<path class="st8" d="M366.4,247.2c0-1.4,0.9-2.1,1.9-2.5c0.3-0.1,0.8-0.3,0.8-0.8c0-0.4-0.4-0.6-0.7-0.6c-0.6,0-1,0.4-1.5,0.9
				l-0.6-0.9c0.6-0.6,1.1-1.1,2-1.1c0.9,0,1.8,0.5,1.8,1.7c0,1.3-1,1.7-1.7,2c-0.6,0.3-1,0.6-1,1.1v0.1h2.6v1.1h-3.7V247.2z"/>
		</g>
	</g>
	<g>
		<g>
			<path class="st8" d="M426.1,136h-0.8v1.2h-1V136h-3v-0.8l3.1-3.7h0.9v3.5h0.8V136z M422.8,135h1.6v-1.9h-0.1
				C423.8,133.7,423.2,134.3,422.8,135L422.8,135z"/>
			<path class="st8" d="M427.6,135.6c0.4,0,0.7,0.4,0.7,0.9c0,0.5-0.3,0.9-0.7,0.9c-0.4,0-0.7-0.4-0.7-0.9
				C426.9,136,427.2,135.6,427.6,135.6z"/>
			<path class="st8" d="M429.8,135.9c0.3,0.2,0.8,0.3,1.2,0.3c0.8,0,1.5-0.7,1.5-1.8c-0.4,0.4-1,0.8-1.6,0.8c-1.2,0-1.8-0.9-1.8-1.9
				c0-1.2,0.8-2.1,2-2.1c1.2,0,2.4,1,2.4,3c0,2-1.2,3.2-2.5,3.2c-0.8,0-1.4-0.3-1.7-0.5L429.8,135.9z M432.5,133.6
				c-0.2-0.8-0.7-1.2-1.3-1.2c-0.6,0-1,0.5-1,1c0,0.4,0.2,0.8,0.9,0.8C431.6,134.2,432.1,133.9,432.5,133.6z"/>
		</g>
	</g>
	<g>
		<g>
			<path class="st8" d="M331.2,136.2c0-1.4,0.9-2.1,1.9-2.5c0.3-0.1,0.8-0.3,0.8-0.8c0-0.4-0.4-0.6-0.7-0.6c-0.6,0-1,0.4-1.5,0.9
				l-0.6-0.9c0.6-0.6,1.1-1.1,2-1.1c0.9,0,1.8,0.5,1.8,1.7c0,1.3-1,1.7-1.7,2c-0.6,0.3-1,0.6-1,1.1v0.1h2.6v1.1h-3.7V136.2z"/>
			<path class="st8" d="M336.6,135.6c0.4,0,0.7,0.4,0.7,0.9c0,0.5-0.3,0.9-0.7,0.9c-0.4,0-0.7-0.4-0.7-0.9
				C335.9,136,336.2,135.6,336.6,135.6z"/>
			<path class="st8" d="M338.8,135.8c0.3,0.2,0.8,0.3,1.2,0.3c0.8,0,1.5-0.7,1.5-1.8c-0.4,0.4-1,0.8-1.6,0.8c-1.2,0-1.8-0.9-1.8-1.9
				c0-1.2,0.8-2.1,2-2.1c1.2,0,2.4,1,2.4,3c0,2-1.2,3.2-2.5,3.2c-0.8,0-1.4-0.3-1.7-0.5L338.8,135.8z M341.4,133.5
				c-0.2-0.8-0.7-1.2-1.3-1.2c-0.6,0-1,0.5-1,1c0,0.4,0.2,0.8,0.9,0.8C340.5,134.1,341,133.8,341.4,133.5z"/>
		</g>
	</g>
	<g>
		<g>
			<path class="st8" d="M127,135.9h-0.8v1.2h-1v-1.2h-3v-0.8l3.1-3.7h0.9v3.5h0.8V135.9z M123.6,134.9h1.6V133h-0.1
				C124.6,133.6,124.1,134.3,123.6,134.9L123.6,134.9z"/>
			<path class="st8" d="M128.4,135.6c0.4,0,0.7,0.4,0.7,0.9c0,0.5-0.3,0.9-0.7,0.9c-0.4,0-0.7-0.4-0.7-0.9
				C127.7,136,128,135.6,128.4,135.6z"/>
			<path class="st8" d="M130,131.3h4v1.1l-2.3,4.7h-1.3l2.4-4.6H130V131.3z"/>
		</g>
	</g>
</g>
</svg>
