<?xml version="1.0" encoding="utf-8"?>
<!-- Generator: Adobe Illustrator 26.0.3, SVG Export Plug-In . SVG Version: 6.00 Build 0)  -->
<svg version="1.1" xmlns="http://www.w3.org/2000/svg" xmlns:xlink="http://www.w3.org/1999/xlink" x="0px" y="0px"
	 viewBox="0 0 720 480" style="enable-background:new 0 0 720 480;" xml:space="preserve">
<style type="text/css">
	.st0{fill:#DBD4CA;}
	.st1{clip-path:url(#SVGID_00000160157022912902404830000002213170373319673271_);}
	.st2{fill:none;stroke:#C49F8A;stroke-miterlimit:10;}
	.st3{opacity:0.3;clip-path:url(#SVGID_00000000926267843873856340000006523465551818154633_);}
	.st4{opacity:0.7;fill:#C49F8A;enable-background:new    ;}
	.st5{clip-path:url(#SVGID_00000114765858579323981960000004972682935632782720_);}
	.st6{opacity:0.3;clip-path:url(#SVGID_00000128453471111990892990000011524807609881291665_);}
	.st7{fill:none;stroke:#565440;}
	.st8{fill:#565440;}
	.st9{fill:#E9E4DC;}
	.st10{fill:#C49F8A;}
	.st11{fill:#E9E4DC;stroke:#C49F8A;}
	.st12{fill:#E9E4DC;stroke:#C49F8A;stroke-width:1;stroke-miterlimit:3.9997;}
	.st13{fill:none;stroke:#C49F8A;}
	.st14{fill:#E9E4DC;stroke:#C49F8A;stroke-miterlimit:3.9998;}
	.st15{fill:#E9E4DC;stroke:#C49F8A;stroke-linejoin:round;}
	.st16{fill:#E9E4DC;stroke:#C49F8A;stroke-width:1;stroke-miterlimit:4;}
	.st17{opacity:0;}
	.st18{fill:#3F3F3F;fill-opacity:0;}
</style>
<g id="_x31__x5F_2">
	<polygon id="Floor_1_" class="st0" points="520.5,191 520.5,163 454.3,163 454.3,87.2 68.2,87.2 68.2,390.8 411.7,390.8 
		456.7,390.8 492.7,390.8 521.3,390.8 653.2,390.8 653.2,191 	"/>
	<g id="Wet_Floor">
		<g id="Wet_Floor_1_">
			<g>
				<g>
					<defs>
						<rect id="SVGID_1_" x="250.9" y="90.7" width="109.2" height="82.1"/>
					</defs>
					<clipPath id="SVGID_00000161625936484571395170000007386276696820685233_">
						<use xlink:href="#SVGID_1_"  style="overflow:visible;"/>
					</clipPath>
					<g style="clip-path:url(#SVGID_00000161625936484571395170000007386276696820685233_);">
						<g>
							<line class="st2" x1="-15.5" y1="154.2" x2="318" y2="-179.3"/>
							<line class="st2" x1="-25.9" y1="143.8" x2="307.6" y2="-189.7"/>
							<line class="st2" x1="-5.1" y1="164.7" x2="328.4" y2="-168.8"/>
							<line class="st2" x1="5.4" y1="175.1" x2="338.8" y2="-158.4"/>
							<line class="st2" x1="15.8" y1="185.5" x2="349.3" y2="-148"/>
							<line class="st2" x1="26.2" y1="195.9" x2="359.7" y2="-137.6"/>
							<line class="st2" x1="36.6" y1="206.3" x2="370.1" y2="-127.1"/>
							<line class="st2" x1="47" y1="216.8" x2="380.5" y2="-116.7"/>
							<line class="st2" x1="57.5" y1="227.2" x2="391" y2="-106.3"/>
							<line class="st2" x1="67.9" y1="237.6" x2="401.4" y2="-95.9"/>
							<line class="st2" x1="57.5" y1="227.2" x2="391" y2="-106.3"/>
							<line class="st2" x1="78.3" y1="248" x2="411.8" y2="-85.5"/>
							<line class="st2" x1="88.7" y1="258.4" x2="422.2" y2="-75"/>
							<line class="st2" x1="99.2" y1="268.9" x2="432.6" y2="-64.6"/>
							<line class="st2" x1="109.6" y1="279.3" x2="443.1" y2="-54.2"/>
							<line class="st2" x1="120" y1="289.7" x2="453.5" y2="-43.8"/>
							<line class="st2" x1="130.4" y1="300.1" x2="463.9" y2="-33.4"/>
							<line class="st2" x1="140.8" y1="310.6" x2="474.3" y2="-22.9"/>
							<line class="st2" x1="151.3" y1="321" x2="484.7" y2="-12.5"/>
							<line class="st2" x1="140.8" y1="310.6" x2="474.3" y2="-22.9"/>
							<line class="st2" x1="161.7" y1="331.4" x2="495.2" y2="-2.1"/>
							<line class="st2" x1="172.1" y1="341.8" x2="505.6" y2="8.3"/>
							<line class="st2" x1="182.5" y1="352.2" x2="516" y2="18.8"/>
							<line class="st2" x1="192.9" y1="362.7" x2="526.4" y2="29.2"/>
							<line class="st2" x1="203.4" y1="373.1" x2="536.9" y2="39.6"/>
							<line class="st2" x1="213.8" y1="383.5" x2="547.3" y2="50"/>
							<line class="st2" x1="224.2" y1="393.9" x2="557.7" y2="60.4"/>
							<line class="st2" x1="234.6" y1="404.3" x2="568.1" y2="70.9"/>
							<line class="st2" x1="224.2" y1="393.9" x2="557.7" y2="60.4"/>
							<line class="st2" x1="245.1" y1="414.8" x2="578.5" y2="81.3"/>
							<line class="st2" x1="255.5" y1="425.2" x2="589" y2="91.7"/>
							<line class="st2" x1="265.9" y1="435.6" x2="599.4" y2="102.1"/>
							<line class="st2" x1="276.3" y1="446" x2="609.8" y2="112.5"/>
							<line class="st2" x1="286.7" y1="456.4" x2="620.2" y2="123"/>
							<line class="st2" x1="297.2" y1="466.9" x2="630.6" y2="133.4"/>
							<line class="st2" x1="307.6" y1="477.3" x2="641.1" y2="143.8"/>
						</g>
						<g>
							<line class="st2" x1="318" y1="466.9" x2="-15.5" y2="133.4"/>
							<line class="st2" x1="307.6" y1="477.3" x2="-25.9" y2="143.8"/>
							<line class="st2" x1="328.4" y1="456.4" x2="-5.1" y2="123"/>
							<line class="st2" x1="338.8" y1="446" x2="5.4" y2="112.5"/>
							<line class="st2" x1="349.3" y1="435.6" x2="15.8" y2="102.1"/>
							<line class="st2" x1="359.7" y1="425.2" x2="26.2" y2="91.7"/>
							<line class="st2" x1="370.1" y1="414.8" x2="36.6" y2="81.3"/>
							<line class="st2" x1="380.5" y1="404.3" x2="47" y2="70.9"/>
							<line class="st2" x1="391" y1="393.9" x2="57.5" y2="60.4"/>
							<line class="st2" x1="401.4" y1="383.5" x2="67.9" y2="50"/>
							<line class="st2" x1="391" y1="393.9" x2="57.5" y2="60.4"/>
							<line class="st2" x1="411.8" y1="373.1" x2="78.3" y2="39.6"/>
							<line class="st2" x1="422.2" y1="362.7" x2="88.7" y2="29.2"/>
							<line class="st2" x1="432.6" y1="352.2" x2="99.2" y2="18.8"/>
							<line class="st2" x1="443.1" y1="341.8" x2="109.6" y2="8.3"/>
							<line class="st2" x1="453.5" y1="331.4" x2="120" y2="-2.1"/>
							<line class="st2" x1="463.9" y1="321" x2="130.4" y2="-12.5"/>
							<line class="st2" x1="474.3" y1="310.6" x2="140.8" y2="-22.9"/>
							<line class="st2" x1="484.7" y1="300.1" x2="151.3" y2="-33.4"/>
							<line class="st2" x1="474.3" y1="310.6" x2="140.8" y2="-22.9"/>
							<line class="st2" x1="495.2" y1="289.7" x2="161.7" y2="-43.8"/>
							<line class="st2" x1="505.6" y1="279.3" x2="172.1" y2="-54.2"/>
							<line class="st2" x1="516" y1="268.9" x2="182.5" y2="-64.6"/>
							<line class="st2" x1="526.4" y1="258.4" x2="192.9" y2="-75"/>
							<line class="st2" x1="536.9" y1="248" x2="203.4" y2="-85.5"/>
							<line class="st2" x1="547.3" y1="237.6" x2="213.8" y2="-95.9"/>
							<line class="st2" x1="557.7" y1="227.2" x2="224.2" y2="-106.3"/>
							<line class="st2" x1="568.1" y1="216.8" x2="234.6" y2="-116.7"/>
							<line class="st2" x1="557.7" y1="227.2" x2="224.2" y2="-106.3"/>
							<line class="st2" x1="578.5" y1="206.3" x2="245.1" y2="-127.1"/>
							<line class="st2" x1="589" y1="195.9" x2="255.5" y2="-137.6"/>
							<line class="st2" x1="599.4" y1="185.5" x2="265.9" y2="-148"/>
							<line class="st2" x1="609.8" y1="175.1" x2="276.3" y2="-158.4"/>
							<line class="st2" x1="620.2" y1="164.7" x2="286.7" y2="-168.8"/>
							<line class="st2" x1="630.6" y1="154.2" x2="297.2" y2="-179.3"/>
							<line class="st2" x1="641.1" y1="143.8" x2="307.6" y2="-189.7"/>
						</g>
					</g>
				</g>
			</g>
			<g>
				<g>
					<defs>
						<rect id="SVGID_00000143605768574495798210000010698398933303235208_" x="250.9" y="90.7" width="109.2" height="82.1"/>
					</defs>
					<clipPath id="SVGID_00000128445099509642327700000016891557277019119489_">
						<use xlink:href="#SVGID_00000143605768574495798210000010698398933303235208_"  style="overflow:visible;"/>
					</clipPath>
					<g style="opacity:0.3;clip-path:url(#SVGID_00000128445099509642327700000016891557277019119489_);">
						<rect x="146.5" y="-27.7" class="st4" width="322.2" height="322.2"/>
					</g>
				</g>
			</g>
		</g>
		<g id="Wet_Floor_2_">
			<g>
				<g>
					<defs>
						<rect id="SVGID_00000077322256183117527130000012397369681953339814_" x="248.8" y="284.1" width="98.6" height="97.6"/>
					</defs>
					<clipPath id="SVGID_00000128457052196645442510000004915128197745634751_">
						<use xlink:href="#SVGID_00000077322256183117527130000012397369681953339814_"  style="overflow:visible;"/>
					</clipPath>
					<g style="clip-path:url(#SVGID_00000128457052196645442510000004915128197745634751_);">
						<g>
							<line class="st2" x1="-17.6" y1="363.1" x2="315.9" y2="29.6"/>
							<line class="st2" x1="-28" y1="352.6" x2="305.5" y2="19.2"/>
							<line class="st2" x1="-7.1" y1="373.5" x2="326.3" y2="40"/>
							<line class="st2" x1="3.3" y1="383.9" x2="336.8" y2="50.4"/>
							<line class="st2" x1="13.7" y1="394.3" x2="347.2" y2="60.8"/>
							<line class="st2" x1="24.1" y1="404.7" x2="357.6" y2="71.3"/>
							<line class="st2" x1="34.5" y1="415.2" x2="368" y2="81.7"/>
							<line class="st2" x1="45" y1="425.6" x2="378.4" y2="92.1"/>
							<line class="st2" x1="55.4" y1="436" x2="388.9" y2="102.5"/>
							<line class="st2" x1="65.8" y1="446.4" x2="399.3" y2="113"/>
							<line class="st2" x1="55.4" y1="436" x2="388.9" y2="102.5"/>
							<line class="st2" x1="76.2" y1="456.9" x2="409.7" y2="123.4"/>
							<line class="st2" x1="86.7" y1="467.3" x2="420.1" y2="133.8"/>
							<line class="st2" x1="97.1" y1="477.7" x2="430.6" y2="144.2"/>
							<line class="st2" x1="107.5" y1="488.1" x2="441" y2="154.6"/>
							<line class="st2" x1="117.9" y1="498.5" x2="451.4" y2="165.1"/>
							<line class="st2" x1="128.3" y1="509" x2="461.8" y2="175.5"/>
							<line class="st2" x1="138.8" y1="519.4" x2="472.2" y2="185.9"/>
							<line class="st2" x1="149.2" y1="529.8" x2="482.7" y2="196.3"/>
							<line class="st2" x1="138.8" y1="519.4" x2="472.2" y2="185.9"/>
							<line class="st2" x1="159.6" y1="540.2" x2="493.1" y2="206.7"/>
							<line class="st2" x1="170" y1="550.6" x2="503.5" y2="217.2"/>
							<line class="st2" x1="180.4" y1="561.1" x2="513.9" y2="227.6"/>
							<line class="st2" x1="190.9" y1="571.5" x2="524.3" y2="238"/>
							<line class="st2" x1="201.3" y1="581.9" x2="534.8" y2="248.4"/>
							<line class="st2" x1="211.7" y1="592.3" x2="545.2" y2="258.9"/>
							<line class="st2" x1="222.1" y1="602.8" x2="555.6" y2="269.3"/>
							<line class="st2" x1="232.6" y1="613.2" x2="566" y2="279.7"/>
							<line class="st2" x1="222.1" y1="602.8" x2="555.6" y2="269.3"/>
							<line class="st2" x1="243" y1="623.6" x2="576.5" y2="290.1"/>
							<line class="st2" x1="253.4" y1="634" x2="586.9" y2="300.5"/>
							<line class="st2" x1="263.8" y1="644.4" x2="597.3" y2="311"/>
							<line class="st2" x1="274.2" y1="654.9" x2="607.7" y2="321.4"/>
							<line class="st2" x1="284.7" y1="665.3" x2="618.1" y2="331.8"/>
							<line class="st2" x1="295.1" y1="675.7" x2="628.6" y2="342.2"/>
							<line class="st2" x1="305.5" y1="686.1" x2="639" y2="352.6"/>
						</g>
						<g>
							<line class="st2" x1="315.9" y1="675.7" x2="-17.6" y2="342.2"/>
							<line class="st2" x1="305.5" y1="686.1" x2="-28" y2="352.6"/>
							<line class="st2" x1="326.3" y1="665.3" x2="-7.1" y2="331.8"/>
							<line class="st2" x1="336.8" y1="654.9" x2="3.3" y2="321.4"/>
							<line class="st2" x1="347.2" y1="644.4" x2="13.7" y2="311"/>
							<line class="st2" x1="357.6" y1="634" x2="24.1" y2="300.5"/>
							<line class="st2" x1="368" y1="623.6" x2="34.5" y2="290.1"/>
							<line class="st2" x1="378.4" y1="613.2" x2="45" y2="279.7"/>
							<line class="st2" x1="388.9" y1="602.8" x2="55.4" y2="269.3"/>
							<line class="st2" x1="399.3" y1="592.3" x2="65.8" y2="258.9"/>
							<line class="st2" x1="388.9" y1="602.8" x2="55.4" y2="269.3"/>
							<line class="st2" x1="409.7" y1="581.9" x2="76.2" y2="248.4"/>
							<line class="st2" x1="420.1" y1="571.5" x2="86.7" y2="238"/>
							<line class="st2" x1="430.6" y1="561.1" x2="97.1" y2="227.6"/>
							<line class="st2" x1="441" y1="550.6" x2="107.5" y2="217.2"/>
							<line class="st2" x1="451.4" y1="540.2" x2="117.9" y2="206.7"/>
							<line class="st2" x1="461.8" y1="529.8" x2="128.3" y2="196.3"/>
							<line class="st2" x1="472.2" y1="519.4" x2="138.8" y2="185.9"/>
							<line class="st2" x1="482.7" y1="509" x2="149.2" y2="175.5"/>
							<line class="st2" x1="472.2" y1="519.4" x2="138.8" y2="185.9"/>
							<line class="st2" x1="493.1" y1="498.5" x2="159.6" y2="165.1"/>
							<line class="st2" x1="503.5" y1="488.1" x2="170" y2="154.6"/>
							<line class="st2" x1="513.9" y1="477.7" x2="180.4" y2="144.2"/>
							<line class="st2" x1="524.3" y1="467.3" x2="190.9" y2="133.8"/>
							<line class="st2" x1="534.8" y1="456.9" x2="201.3" y2="123.4"/>
							<line class="st2" x1="545.2" y1="446.4" x2="211.7" y2="113"/>
							<line class="st2" x1="555.6" y1="436" x2="222.1" y2="102.5"/>
							<line class="st2" x1="566" y1="425.6" x2="232.6" y2="92.1"/>
							<line class="st2" x1="555.6" y1="436" x2="222.1" y2="102.5"/>
							<line class="st2" x1="576.5" y1="415.2" x2="243" y2="81.7"/>
							<line class="st2" x1="586.9" y1="404.7" x2="253.4" y2="71.3"/>
							<line class="st2" x1="597.3" y1="394.3" x2="263.8" y2="60.8"/>
							<line class="st2" x1="607.7" y1="383.9" x2="274.2" y2="50.4"/>
							<line class="st2" x1="618.1" y1="373.5" x2="284.7" y2="40"/>
							<line class="st2" x1="628.6" y1="363.1" x2="295.1" y2="29.6"/>
							<line class="st2" x1="639" y1="352.6" x2="305.5" y2="19.2"/>
						</g>
					</g>
				</g>
			</g>
			<g>
				<g>
					<defs>
						<rect id="SVGID_00000125570913766680811400000005305291290431468676_" x="248.8" y="284.1" width="98.6" height="97.6"/>
					</defs>
					<clipPath id="SVGID_00000006674438461135925350000017852944976162617753_">
						<use xlink:href="#SVGID_00000125570913766680811400000005305291290431468676_"  style="overflow:visible;"/>
					</clipPath>
					<g style="opacity:0.3;clip-path:url(#SVGID_00000006674438461135925350000017852944976162617753_);">
						<rect x="144.4" y="181.1" class="st4" width="322.2" height="322.2"/>
					</g>
				</g>
			</g>
		</g>
	</g>
	<path id="Windows_1_" class="st7" d="M68.4,391V87.2h-6.3v310.1h419.6V391H68.4L68.4,391z"/>
	<path id="Doors_1_" class="st7" d="M324.3,172.9c0,4.6-0.8,8.4-2.5,12.6c-1.7,4.2-4.2,8-7.1,10.9c-2.9,3.4-6.7,5.9-10.9,7.6
		c-4.2,1.7-8.4,2.5-13,2.5v-33.6 M265.6,231.6c0,4.6,0.8,8.4,2.5,12.6c1.7,4.2,4.2,8,7.1,10.9c2.9,3.4,6.7,5.9,10.9,7.6
		c4.2,1.7,8.4,2.5,13,2.5v-33.6 M248.8,185.5c-4.6,0-8.4,0.8-12.6,2.5s-8,4.2-10.9,7.1c-3.4,2.9-5.9,6.7-7.6,10.9
		c-1.7,4.2-2.5,8.4-2.5,13h33.6 M253,323.9c4.6,0,8.4-0.8,12.6-2.5s8-4.2,10.9-7.1c3.4-2.9,5.9-6.7,7.6-10.9c1.7-4.2,2.5-8.4,2.5-13
		H253 M542.5,332.3c-4.6,0-8.4,0.8-12.6,2.5c-4.2,1.7-8,4.2-10.9,7.1c-3.4,2.9-5.9,6.7-7.6,10.9c-1.7,4.2-2.5,8.4-2.5,13h33.6
		 M613.8,273.6c0,4.6-0.8,8.4-2.5,12.6s-4.2,8-7.1,10.9c-2.9,3.4-6.7,5.9-10.9,7.6s-8.4,2.5-13,2.5v-33.6 M441.8,139.3
		c-5.5,0-10.5-1.3-15.5-3.4c-5-2.1-10.1-5-13.8-9.2c-3.8-3.8-7.1-8.4-9.2-13.4s-3.4-10.5-3.4-15.9h42"/>
	<g id="Walls">
		<polygon class="st8" points="81,231.6 265.6,231.6 265.6,227.4 253,227.4 253,219 248.8,219 248.8,227.4 81,227.4 81,181.3 
			60,181.3 60,298.7 85.2,298.7 85.2,269.4 81,269.4 		"/>
		<rect x="122.9" y="374.3" class="st8" width="29.4" height="25.2"/>
		<rect x="391.5" y="378.5" class="st8" width="29.4" height="21"/>
		<path class="st8" d="M299.2,231.6h46.2V282h-96.5v8.4h4.2v-4.2h92.3v88.1h-25.2v4.2h-52.7V356l0,0H253v-32.1h-4.2v54.5H232v21
			h117.5v-172h-50.3V231.6z M253,378.5v-18.3h10.3v18.3H253z"/>
		<path class="st8" d="M479.6,399.4H660V189.6H521.5v-29.4h-67.1v-21h-12.6v62.9h4.2v-29.4h63v29.4h62.9v121.7h-29.4v8.4h4.2V328
			h25.2h4.2v-54.5h4.2v-4.2h-4.2v-67.1h46.1v16.6H639v50.5h-25.2v4.2H639v100.7h-92.3v-8.4h-4.2v8.4h-62.9V399.4z M626.3,214.7
			v-12.4H639v12.4H626.3z"/>
		<path class="st8" d="M441.8,97.3h12.6V80.6H60v37.8h25.2V93.2h163.7v92.3h4.2v-12.6h37.8v-4.2H253v-58.8h16.5V93.1h88.4v75.5
			h-33.6v4.2h37.8v-4.2V93.1h79.7V97.3z M265.3,105.7H253V93.1h12.3V105.7z"/>
	</g>
	<g id="Furniture">
		<g>
			<g>
				<rect x="135.5" y="232" class="st9" width="68.5" height="81.1"/>
				<path class="st10" d="M136,232.5h67.5v80.1H136V232.5 M135,231.5v82.1h69.5v-82.1H135L135,231.5z"/>
			</g>
			<rect x="171.5" y="237.3" class="st11" width="27.1" height="20.3"/>
			<rect x="141" y="237.3" class="st11" width="27.1" height="20.3"/>
			
				<rect x="172.7" y="246.4" transform="matrix(0.2588 -0.9659 0.9659 0.2588 -112.2917 366.7167)" class="st12" width="20.3" height="20.3"/>
			
				<rect x="146.4" y="246.4" transform="matrix(0.9659 -0.2588 0.2588 0.9659 -61.0627 49.2544)" class="st12" width="20.3" height="20.3"/>
			<g>
				<polygon class="st9" points="135.5,313.9 135.5,249.2 162.8,247.5 204,253.4 204,313.9 				"/>
				<path class="st10" d="M162.8,248l40.7,5.9v59.5H136V250v-0.4L162.8,248 M162.8,247l-27.8,1.7v1.3v64.4h69.5v-60.9V253L162.8,247
					L162.8,247z"/>
			</g>
			<polyline class="st13" points="135.9,250.8 163.1,250.8 203.7,254.2 			"/>
		</g>
		<g>
			<g>
				<rect x="133.8" y="93.7" class="st9" width="57.3" height="88.6"/>
				<path class="st10" d="M134.3,94.2h56.3v87.6h-56.3V94.2 M133.3,93.2v89.6h58.3V93.2L133.3,93.2L133.3,93.2z"/>
			</g>
			<rect x="163.9" y="99.5" class="st11" width="22.8" height="22.2"/>
			<rect x="138.3" y="99.5" class="st11" width="22.8" height="22.2"/>
			<polygon class="st14" points="183.9,112.7 167.4,107 163,128.4 179.5,134.1 			"/>
			<polygon class="st14" points="161.8,128.4 157.4,107 141,112.7 145.4,134.1 			"/>
			<g>
				<polygon class="st9" points="133.8,183.2 133.8,112.4 156.6,110.6 191.1,117.1 191.1,183.2 				"/>
				<path class="st10" d="M156.6,111.1l34,6.4v65.2h-56.3v-69.3v-0.5L156.6,111.1 M156.7,110.1l-23.3,1.9v1.4v70.3h58.3v-66.5v-0.5
					L156.7,110.1L156.7,110.1z"/>
			</g>
			<polyline class="st13" points="134.1,114.2 156.9,114.2 191,117.9 			"/>
		</g>
		<g>
			<g>
				<rect x="615.9" y="274" class="st9" width="1.8" height="99.8"/>
				<path class="st10" d="M616.4,274.5h0.8v98.8h-0.8V274.5 M615.4,273.5v100.8h2.8V273.5H615.4L615.4,273.5z"/>
			</g>
			<g>
				<rect x="617.7" y="274" class="st9" width="20.8" height="99.8"/>
				<path class="st10" d="M638,274.5v98.8h-19.8v-98.8H638 M639,273.5h-21.8v100.8H639V273.5L639,273.5z"/>
			</g>
			<path class="st11" d="M638.3,373.6l-20.4-99.7"/>
		</g>
		<g>
			<g>
				<rect x="615.9" y="231.3" class="st9" width="1.8" height="37.5"/>
				<path class="st10" d="M617.2,231.8v36.5h-0.8v-36.5L617.2,231.8 M618.2,230.8h-2.8v38.5h2.8V230.8L618.2,230.8z"/>
			</g>
			<g>
				<rect x="617.7" y="231.3" class="st9" width="20.8" height="37.5"/>
				<path class="st10" d="M638,231.8v36.5h-19.8v-36.5L638,231.8 M639,230.8h-21.8v38.5H639V230.8L639,230.8z"/>
			</g>
			<path class="st11" d="M638.3,269l-20.4-38"/>
		</g>
		<g>
			<g>
				<rect x="223.3" y="93.7" class="st9" width="1.8" height="82.3"/>
				<path class="st10" d="M224.7,94.2v81.3h-0.8V94.2H224.7 M225.7,93.2h-2.8v83.3h2.8V93.2L225.7,93.2z"/>
			</g>
			<g>
				<rect x="225.2" y="93.7" class="st9" width="23.2" height="82.3"/>
				<path class="st10" d="M225.7,94.2h22.2v81.3h-22.2V94.2 M224.7,93.2v83.3h24.2V93.2H224.7L224.7,93.2z"/>
			</g>
			<path class="st11" d="M248,175.9l-22.6-82.4"/>
		</g>
		<g>
			<g>
				<rect x="319.1" y="232" class="st9" width="16.6" height="49.5"/>
				<path class="st10" d="M319.6,232.5h15.6V281h-15.6V232.5 M318.6,231.5V282h17.6v-50.5H318.6L318.6,231.5z"/>
			</g>
			<g>
				<rect x="321.6" y="232" class="st9" width="23.2" height="49.5"/>
				<path class="st10" d="M322.1,232.5h22.2V281h-22.2V232.5 M321.1,231.5V282h24.2v-50.5H321.1L321.1,231.5z"/>
			</g>
			<path class="st11" d="M344.5,281.6l-22.6-50"/>
		</g>
		<g>
			<g>
				<rect x="382.8" y="93.3" class="st9" width="1.8" height="79"/>
				<path class="st10" d="M384.1,93.8v78h-0.8v-78H384.1 M385.1,92.8h-2.8v80h2.8V92.8L385.1,92.8z"/>
			</g>
			<g>
				<rect x="362.6" y="93.3" class="st9" width="20.2" height="79"/>
				<path class="st10" d="M382.3,93.8v78h-19.2v-78H382.3 M383.3,92.8h-21.2v80h21.2V92.8L383.3,92.8z"/>
			</g>
			<path class="st11" d="M362.8,93.5l19.8,78.9"/>
		</g>
		<g>
			<g>
				<rect x="425.4" y="148.3" class="st9" width="1.8" height="22"/>
				<path class="st10" d="M426.8,148.8v21H426v-21H426.8 M427.8,147.8H425v23h2.8V147.8L427.8,147.8z"/>
			</g>
			<g>
				<rect x="427.3" y="148.3" class="st9" width="14.1" height="22"/>
				<path class="st10" d="M440.8,148.8v21h-13.1v-21H440.8 M441.8,147.8h-15.1v23h15.1V147.8L441.8,147.8z"/>
			</g>
			<path class="st11" d="M441.2,170.2l-13.9-21.8"/>
		</g>
		<g>
			<g>
				<rect x="327.1" y="93.6" class="st9" width="30.4" height="74.5"/>
				<path class="st10" d="M327.6,94.1H357v73.5h-29.4V94.1 M326.6,93.1v75.5H358V93.1L326.6,93.1L326.6,93.1z"/>
			</g>
			<g>
				<g>
					<path class="st15" d="M342.3,100.1c-5.8,0-10.3,5-9.7,10.7c0.6,6.3,1.1,14.2,1.1,20.1c0,5.8-0.6,13.8-1.1,20.1
						c-0.5,5.7,4,10.7,9.7,10.7s10.3-5,9.7-10.7c-0.6-6.3-1.1-14.2-1.1-20.1c0-5.8,0.6-13.8,1.1-20.1
						C352.6,105.1,348,100.1,342.3,100.1z"/>
					<ellipse class="st15" cx="342.3" cy="110.1" rx="1.2" ry="1.2"/>
				</g>
			</g>
		</g>
		<g>
			<g>
				<rect x="576.6" y="202.7" class="st9" width="26.5" height="17.8"/>
				<path class="st10" d="M602.6,203.2V220h-25.5v-16.8H602.6 M603.6,202.2h-27.5V221h27.5V202.2L603.6,202.2z"/>
			</g>
			<g>
				<path class="st9" d="M589.8,217.3c-3.1,0-5.6-2.5-5.6-5.6s2.5-5.6,5.6-5.6s5.6,2.5,5.6,5.6C595.5,214.7,592.9,217.3,589.8,217.3
					z"/>
				<path class="st10" d="M589.8,206.5c2.8,0,5.1,2.3,5.1,5.1s-2.3,5.1-5.1,5.1s-5.1-2.3-5.1-5.1S587,206.5,589.8,206.5
					 M589.8,205.5c-3.4,0-6.1,2.7-6.1,6.1s2.7,6.1,6.1,6.1s6.1-2.7,6.1-6.1S593.2,205.5,589.8,205.5L589.8,205.5z"/>
			</g>
		</g>
		<g>
			<g>
				<rect x="270" y="93.6" class="st9" width="26.5" height="17.8"/>
				<path class="st10" d="M296,94.1V111h-25.5V94.1H296 M297,93.1h-27.5V112H297V93.1L297,93.1z"/>
			</g>
			<g>
				<path class="st9" d="M283.3,108.2c-3.1,0-5.6-2.5-5.6-5.6s2.5-5.6,5.6-5.6s5.6,2.5,5.6,5.6C288.9,105.6,286.4,108.2,283.3,108.2
					z"/>
				<path class="st10" d="M283.3,97.4c2.8,0,5.1,2.3,5.1,5.1s-2.3,5.1-5.1,5.1s-5.1-2.3-5.1-5.1S280.4,97.4,283.3,97.4 M283.3,96.4
					c-3.4,0-6.1,2.7-6.1,6.1s2.7,6.1,6.1,6.1s6.1-2.7,6.1-6.1S286.6,96.4,283.3,96.4L283.3,96.4z"/>
			</g>
		</g>
		<g>
			<path class="st11" d="M461.6,304.4v-55.2h40.1v55.2H461.6z"/>
			<path class="st11" d="M471.6,245.9V245c0-5.5,4.5-10,10-10s10,4.5,10,10v0.8L471.6,245.9L471.6,245.9z"/>
			<path class="st11" d="M473.3,249.2V245c0-4.6,3.7-8.4,8.4-8.4c4.6,0,8.4,3.7,8.4,8.4v4.2H473.3z"/>
			<path class="st11" d="M471.6,307.8v0.8c0,5.5,4.5,10,10,10s10-4.5,10-10v-0.8H471.6z"/>
			<path class="st11" d="M473.3,304.4v4.2c0,4.6,3.7,8.4,8.4,8.4c4.6,0,8.4-3.7,8.4-8.4v-4.2H473.3z"/>
			<path class="st11" d="M458.3,266.8h-0.8c-5.5,0-10,4.5-10,10s4.5,10,10,10h0.8V266.8z"/>
			<path class="st11" d="M461.6,268.5h-4.2c-4.6,0-8.4,3.7-8.4,8.4c0,4.6,3.7,8.4,8.4,8.4h4.2V268.5z"/>
			<path class="st11" d="M505.1,266.8h0.8c5.5,0,10,4.5,10,10s-4.5,10-10,10h-0.8L505.1,266.8L505.1,266.8z"/>
			<path class="st11" d="M501.7,268.5h4.2c4.6,0,8.4,3.7,8.4,8.4c0,4.6-3.7,8.4-8.4,8.4h-4.2L501.7,268.5L501.7,268.5z"/>
		</g>
		<g>
			<path class="st11" d="M114.2,349.6v19.5l-17.7,2.6v-24.8L114.2,349.6z"/>
			<g>
				<rect x="69.3" y="301.6" class="st9" width="29.1" height="88.4"/>
				<path class="st10" d="M97.9,302.1v87.4H69.8v-87.4H97.9 M98.9,301.1H68.8v89.4h30.1V301.1L98.9,301.1z"/>
			</g>
			<path class="st13" d="M89.9,352.8v15.1 M93.5,351.5v17.7h-5.3v-17.7H93.5z"/>
			<path class="st11" d="M93.7,344.2L93.7,344.2c0,0.7-0.6,1.3-1.3,1.3h-1.8c-0.7,0-1.3-0.6-1.3-1.3l0,0c0-0.7,0.6-1.3,1.3-1.3h1.8
				C93.2,342.9,93.7,343.5,93.7,344.2z"/>
			<path class="st11" d="M79.6,355.9c2.4,0,4.4,2,4.4,4.4s-2,4.4-4.4,4.4h-4.4v-8.9L79.6,355.9z"/>
			<g>
				<polygon class="st9" points="75,382.9 75.1,337.8 76.8,337.8 76.7,382.9 				"/>
				<path class="st10" d="M75.6,338.3h0.7l-0.1,44h-0.7L75.6,338.3 M74.6,337.3l-0.1,46h2.7l0.1-46H74.6L74.6,337.3z"/>
			</g>
			<g>
				<rect x="98.6" y="349.8" class="st9" width="16.1" height="19.1"/>
				<path class="st10" d="M114.2,350.3v18.1H99.1v-18.1H114.2 M115.2,349.3H98.1v20.1h17.1V349.3L115.2,349.3z"/>
			</g>
			<g>
				<rect x="114.7" y="349.7" class="st9" width="1.8" height="19.4"/>
				<path class="st10" d="M116,350.2v18.4h-0.8v-18.4H116 M117,349.2h-2.8v20.4h2.8V349.2L117,349.2z"/>
			</g>
		</g>
		<g>
			<path class="st11" d="M114.2,140.1v19.5l-17.7,2.6v-24.8L114.2,140.1z"/>
			<g>
				<rect x="69.3" y="118.8" class="st9" width="29.1" height="62"/>
				<path class="st10" d="M97.9,119.3v61H69.8v-61H97.9 M98.9,118.3H68.8v63h30.1V118.3L98.9,118.3z"/>
			</g>
			<path class="st13" d="M89.9,142.3v15.1 M93.5,141v17.7h-5.3V141H93.5z"/>
			<path class="st11" d="M93.8,134.7L93.8,134.7c0,0.7-0.6,1.3-1.3,1.3h-1.8c-0.7,0-1.3-0.6-1.3-1.3l0,0c0-0.7,0.6-1.3,1.3-1.3h1.8
				C93.2,133.4,93.8,134,93.8,134.7z"/>
			<path class="st11" d="M79.6,145.4c2.4,0,4.4,2,4.4,4.4s-2,4.4-4.4,4.4h-4.4v-8.9L79.6,145.4z"/>
			
				<rect x="53" y="149" transform="matrix(1.695898e-03 -1 1 1.695898e-03 -73.9949 225.592)" class="st16" width="46" height="1.8"/>
			<g>
				<rect x="98.6" y="140.3" class="st9" width="16.1" height="19.1"/>
				<path class="st10" d="M114.2,140.8v18.1H99.1v-18.1H114.2 M115.2,139.8H98.1v20.1h17.1V139.8L115.2,139.8z"/>
			</g>
			<g>
				<rect x="114.5" y="140.2" class="st9" width="1.8" height="19.4"/>
				<path class="st10" d="M115.9,140.7v18.4H115v-18.4H115.9 M116.9,139.7H114v20.4h2.8L116.9,139.7L116.9,139.7z"/>
			</g>
		</g>
		<g id="Sink_2">
			<g id="Rectangle_16_x5F_11">
				<rect x="296.5" y="93.6" class="st9" width="30.6" height="17.8"/>
				<path class="st10" d="M326.6,94.1v16.8H297V94.1H326.6 M327.6,93.1H296v18.8h31.6V93.1L327.6,93.1z"/>
			</g>
			<path id="Rectangle_19_x5F_5" class="st11" d="M301.9,102.5L301.9,102.5c0,3.2,2.6,5.8,5.8,5.8h8.2c3.2,0,5.8-2.6,5.8-5.8l0,0
				c0-3.2-2.6-5.8-5.8-5.8h-8.2C304.5,96.8,301.9,99.4,301.9,102.5z"/>
			<circle id="Ellipse_7_x5F_2" class="st11" cx="311.8" cy="100" r="1.2"/>
		</g>
		<g id="Toilet_1_">
			<g id="Rectangle_21_1_">
				<rect x="261.2" y="141.8" class="st9" width="5.3" height="16"/>
				<path class="st10" d="M265.9,142.3v15h-4.3v-15H265.9 M266.9,141.3h-6.3v17h6.3V141.3L266.9,141.3z"/>
			</g>
			<path id="Rectangle_19_x5F_2_1_" class="st11" d="M277.7,155.9c3.5,0.2,6.5-2.5,6.5-6.1l0,0c0-3.5-3-6.3-6.5-6.1l-11.2,0.7V155
				L277.7,155.9z"/>
			<path id="Rectangle_18_x5F_13_1_" class="st11" d="M277.5,154.3c2.6,0.2,4.9-1.8,4.9-4.4l0,0c0-2.6-2.3-4.7-4.9-4.4l-7.1,0.6v7.6
				L277.5,154.3z"/>
			<ellipse id="Ellipse_6_x5F_2_1_" class="st11" cx="273.6" cy="149.8" rx="1.2" ry="1.2"/>
		</g>
		<g id="TV">
			<g id="Rectangle_16">
				<rect x="360.3" y="264.7" class="st9" width="1.8" height="63"/>
				<path class="st10" d="M361.7,265.2v62h-0.8v-62H361.7 M362.7,264.2h-2.8v64h2.8V264.2L362.7,264.2z"/>
			</g>
			<g id="Rectangle_15">
				<rect x="350" y="264.7" class="st9" width="10.3" height="63"/>
				<path class="st10" d="M359.8,265.2v62h-9.3v-62H359.8 M360.8,264.2h-11.3v64h11.3V264.2L360.8,264.2z"/>
			</g>
			<g id="Rectangle_17">
				<rect x="352.1" y="275.4" class="st9" width="1.8" height="41.5"/>
				<path class="st10" d="M353.4,275.9v40.5h-0.8v-40.5H353.4 M354.4,274.9h-2.8v42.5h2.8V274.9L354.4,274.9z"/>
			</g>
			<path id="Rectangle_18_x5F_2" class="st11" d="M351.6,287.1v18l-1.6-1.6v-14.7L351.6,287.1z"/>
		</g>
		<g id="Kitchen">
			<g id="Rectangle_24">
				<rect x="545.1" y="202.7" class="st9" width="26.3" height="83.8"/>
				<path class="st10" d="M545.6,203.2h25.3V286h-25.3V203.2 M544.6,202.2V287h27.3v-84.8H544.6L544.6,202.2z"/>
			</g>
			<g id="Rectangle_26">
				<rect x="545.1" y="202.8" class="st9" width="26.3" height="120.6"/>
				<path class="st10" d="M545.6,203.3h25.3v119.6h-25.3V203.3 M544.6,202.3v121.6h27.3V202.3H544.6L544.6,202.3z"/>
			</g>
			<g id="Sink_3">
				<rect id="Rectangle_28_x5F_2" x="548" y="207" class="st11" width="20.5" height="32.4"/>
				<path id="Rectangle_29_x5F_2" class="st11" d="M558.2,219.8L558.2,219.8c4.2,0,7.7,3.4,7.7,7.7v1.7c0,4.2-3.4,7.7-7.7,7.7l0,0
					c-4.2,0-7.7-3.4-7.7-7.7v-1.7C550.5,223.2,554,219.8,558.2,219.8z"/>
				<ellipse id="Ellipse_7_x5F_3" class="st11" cx="562.5" cy="228.3" rx="1.2" ry="1.2"/>
				<path id="Vector_2" class="st13" d="M550.5,208.7v8.5 M553.1,208.7v8.5 M555.7,208.7v8.5 M558.2,208.7v8.5 M560.8,208.7v8.5
					 M563.3,208.7v8.5 M565.9,208.7v8.5"/>
			</g>
			<g id="Stove">
				<g id="Rectangle_25">
					<rect x="545.1" y="265.8" class="st9" width="26.3" height="25.6"/>
					<path class="st10" d="M545.6,266.3h25.3v24.6h-25.3V266.3 M544.6,265.3v26.6h27.3v-26.6H544.6L544.6,265.3z"/>
				</g>
				<g id="Rectangle_28_x5F_3">
					<rect x="569.5" y="265.8" class="st9" width="1.8" height="25.6"/>
					<path class="st10" d="M570.9,266.3v24.6H570v-24.6H570.9 M571.9,265.3H569v26.6h2.8v-26.6H571.9z"/>
				</g>
				<g id="Ellipse_7_x5F_4">
					<path class="st9" d="M562.5,275c-1.6,0-2.9-1.3-2.9-2.9s1.3-2.9,2.9-2.9s2.9,1.3,2.9,2.9S564.1,275,562.5,275z"/>
					<path class="st10" d="M562.5,269.7c1.3,0,2.4,1.1,2.4,2.4s-1.1,2.4-2.4,2.4s-2.4-1.1-2.4-2.4
						C560.1,270.8,561.2,269.7,562.5,269.7 M562.5,268.7c-1.9,0-3.4,1.5-3.4,3.4s1.5,3.4,3.4,3.4s3.4-1.5,3.4-3.4
						S564.4,268.7,562.5,268.7L562.5,268.7z"/>
				</g>
				<g id="Ellipse_9">
					<path class="st9" d="M552.3,275.9c-2.1,0-3.8-1.7-3.8-3.8s1.7-3.8,3.8-3.8s3.8,1.7,3.8,3.8S554.3,275.9,552.3,275.9z"/>
					<path class="st10" d="M552.3,268.8c1.8,0,3.3,1.5,3.3,3.3c0,0.9-0.3,1.7-1,2.3c-0.6,0.6-1.4,1-2.3,1c-1.8,0-3.3-1.5-3.3-3.3
						S550.4,268.8,552.3,268.8 M552.3,267.8c-2.4,0-4.3,1.9-4.3,4.3s1.9,4.3,4.3,4.3c2.4,0,4.3-1.9,4.3-4.3S554.6,267.8,552.3,267.8
						L552.3,267.8z"/>
				</g>
				<g id="Ellipse_10">
					<path class="st9" d="M562.5,287.8c-2.1,0-3.8-1.7-3.8-3.8s1.7-3.8,3.8-3.8s3.8,1.7,3.8,3.8S564.6,287.8,562.5,287.8z"/>
					<path class="st10" d="M562.5,280.8c1.8,0,3.3,1.5,3.3,3.3s-1.5,3.3-3.3,3.3s-3.3-1.5-3.3-3.3
						C559.2,282.2,560.7,280.8,562.5,280.8 M562.5,279.8c-2.4,0-4.3,1.9-4.3,4.3s1.9,4.3,4.3,4.3s4.3-1.9,4.3-4.3
						S564.8,279.8,562.5,279.8L562.5,279.8z"/>
				</g>
				<g id="Ellipse_8">
					<path class="st9" d="M551.4,287c-1.6,0-2.9-1.3-2.9-2.9s1.3-2.9,2.9-2.9s2.9,1.3,2.9,2.9S553,287,551.4,287z"/>
					<path class="st10" d="M551.4,281.6c1.3,0,2.4,1.1,2.4,2.4s-1.1,2.4-2.4,2.4s-2.4-1.1-2.4-2.4S550.1,281.6,551.4,281.6
						 M551.4,280.6c-1.9,0-3.4,1.5-3.4,3.4s1.5,3.4,3.4,3.4s3.4-1.5,3.4-3.4S553.3,280.6,551.4,280.6L551.4,280.6z"/>
				</g>
			</g>
		</g>
		<g>
			<polygon class="st9" points="268,378 268,366.8 344.8,366.8 344.8,373.8 319.7,373.8 319.7,378 			"/>
			<path class="st10" d="M344.3,367.3v6h-24.2h-1v1v3.2h-50.7v-10.2H344.3 M345.3,366.3h-77.9v12.2h52.7v-4.2h25.2L345.3,366.3
				L345.3,366.3z"/>
		</g>
		<g>
			<g id="Oven">
				<g id="Rectangle_28">
					<rect x="451" y="203.9" class="st9" width="22.7" height="1.8"/>
					<path class="st10" d="M473.2,204.4v0.8h-21.7v-0.8H473.2 M474.2,203.4h-23.7v2.8h23.7V203.4L474.2,203.4z"/>
				</g>
				<g id="Rectangle_29">
					<rect x="446.5" y="173.4" class="st9" width="31.7" height="30.6"/>
					<path class="st10" d="M477.7,173.9v29.6H447v-29.6H477.7 M478.7,172.9H446v31.6h32.7V172.9L478.7,172.9z"/>
				</g>
			</g>
			<g id="Rectangle_27">
				<rect x="477.9" y="173.4" class="st9" width="30.6" height="30.6"/>
				<path class="st10" d="M508,173.9v29.6h-29.6v-29.6H508 M509,172.9h-31.6v31.6H509V172.9L509,172.9z"/>
			</g>
			<path id="Vector_3" class="st13" d="M489.3,188.6h7.9 M491.3,185.2l3.9,6.9 M491.3,192.1l3.9-6.9"/>
		</g>
		<g>
			<rect x="253.5" y="110.3" class="st9" width="7.6" height="57.8"/>
			<path class="st10" d="M260.6,110.8v56.8H254v-56.8H260.6 M261.6,109.8H253v58.8h8.6V109.8L261.6,109.8z"/>
		</g>
		<g id="Toilet_3_">
			<g id="Rectangle_21_4_">
				<rect x="285.6" y="361.5" class="st9" width="16" height="5.3"/>
				<path class="st10" d="M301.1,362v4.3h-15V362H301.1 M302.1,361h-17v6.3h17V361L302.1,361z"/>
			</g>
			<path id="Rectangle_19_x5F_2_3_" class="st11" d="M299.7,350.3c0.2-3.5-2.5-6.5-6.1-6.5l0,0c-3.5,0-6.3,3-6.1,6.5l0.7,11.2h10.6
				L299.7,350.3z"/>
			<path id="Rectangle_18_x5F_13_3_" class="st11" d="M298.1,350.5c0.2-2.6-1.8-4.9-4.4-4.9l0,0c-2.6,0-4.7,2.3-4.4,4.9l0.6,7.1h7.6
				L298.1,350.5z"/>
			<ellipse id="Ellipse_6_x5F_2_3_" class="st11" cx="293.6" cy="354.4" rx="1.2" ry="1.2"/>
		</g>
		<g>
			<rect x="324.9" y="286.7" class="st9" width="19.9" height="43"/>
			<path class="st10" d="M344.3,287.2v42h-18.9v-42H344.3 M345.3,286.2h-20.9v44h20.9V286.2L345.3,286.2z"/>
		</g>
		<g>
			<g>
				<path class="st9" d="M312.8,366.8v-22.2c0-5.4,4.4-9.8,9.8-9.8h22.2v32H312.8z"/>
				<path class="st10" d="M344.3,335.3v31h-31v-21.7c0-5.1,4.2-9.3,9.3-9.3H344.3 M345.3,334.3h-22.7c-5.7,0-10.3,4.6-10.3,10.3
					v22.7h33V334.3L345.3,334.3z"/>
			</g>
			<g>
				<path class="st9" d="M315.5,364.1v-19.5c0-3.9,3.2-7.2,7.2-7.2h19.5V364h-26.7V364.1z"/>
				<path class="st10" d="M341.6,338v25.6H316v-19c0-3.7,3-6.7,6.7-6.7h18.9 M342.6,337h-20c-4.2,0-7.7,3.4-7.7,7.7v20h27.6V337
					H342.6z"/>
			</g>
			<ellipse class="st11" cx="336.9" cy="358.9" rx="1.7" ry="1.7"/>
		</g>
		<g id="Sink_2_1_">
			<g id="Rectangle_16_x5F_11_1_">
				<rect x="327" y="297.7" class="st9" width="17.9" height="28.9"/>
				<path class="st10" d="M344.3,298.2v27.9h-16.9v-27.9H344.3 M345.3,297.2h-18.9v29.9h18.9V297.2L345.3,297.2z"/>
			</g>
			<path id="Rectangle_19_x5F_5_1_" class="st11" d="M335.9,322.1L335.9,322.1c-3.2,0-5.8-2.6-5.8-5.8V308c0-3.2,2.6-5.8,5.8-5.8
				l0,0c3.2,0,5.8,2.6,5.8,5.8v8.3C341.7,319.5,339.1,322.1,335.9,322.1z"/>
			<circle id="Ellipse_7_x5F_2_1_" class="st11" cx="339.2" cy="312.2" r="0.8"/>
		</g>
	</g>
	<g id="street_anchors" class="st17">
		<rect id="street_x5F_anchor_x5F_02" x="355" y="429.3" class="st18" width="10" height="10"/>
		<rect id="street_x5F_anchor_x5F_01_1_" x="20" y="235" class="st18" width="10" height="10"/>
	</g>
</g>
<g id="комнаты">
	<g>
		<g>
			<path class="st8" d="M189.8,340.7l1.3-0.8h0.9v5.8h-1v-4.5l-1,0.6L189.8,340.7z"/>
			<path class="st8" d="M194.9,342.2h0.7c0.3,0,0.6-0.2,0.6-0.6c0-0.5-0.4-0.7-0.8-0.7c-0.5,0-1.1,0.4-1.5,0.9l-0.6-0.9
				c0.5-0.6,1.2-1.2,2.1-1.2c0.8,0,1.8,0.4,1.8,1.7c0,0.5-0.3,0.9-0.5,1.1c0.4,0.2,0.8,0.6,0.8,1.4c0,1.3-1,2-2.3,2
				c-0.9,0-1.6-0.4-2.3-1.2l0.6-0.9c0.4,0.6,1,1,1.7,1c0.7,0,1.2-0.4,1.2-1c0-0.5-0.4-0.6-0.7-0.6h-0.9V342.2z"/>
			<path class="st8" d="M199.1,344.1c0.4,0,0.7,0.4,0.7,0.9c0,0.5-0.3,0.9-0.7,0.9c-0.4,0-0.7-0.4-0.7-0.9
				C198.4,344.5,198.7,344.1,199.1,344.1z"/>
			<path class="st8" d="M200.6,339.9h4v1.1l-2.3,4.7H201l2.4-4.6h-2.8V339.9z"/>
		</g>
	</g>
	<g>
		<g>
			<path class="st8" d="M154.3,203.5l1.3-0.8h0.9v5.8h-1V204l-1,0.6L154.3,203.5z"/>
			<path class="st8" d="M157.5,203.5l1.3-0.8h0.9v5.8h-1V204l-1,0.6L157.5,203.5z"/>
			<path class="st8" d="M161.7,206.9c0.4,0,0.7,0.4,0.7,0.9c0,0.5-0.3,0.9-0.7,0.9c-0.4,0-0.7-0.4-0.7-0.9
				C161,207.3,161.3,206.9,161.7,206.9z"/>
			<path class="st8" d="M163.2,206.8c0-0.8,0.4-1.3,0.9-1.5c-0.4-0.2-0.7-0.6-0.7-1.2c0-1.1,1.1-1.6,2-1.6c0.9,0,2,0.5,2,1.7
				c0,0.6-0.2,0.9-0.7,1.1c0.5,0.2,0.9,0.7,0.9,1.5c0,1.2-1.1,1.9-2.2,1.9C164.3,208.7,163.2,208,163.2,206.8z M166.6,206.7
				c0-0.6-0.6-0.8-1.1-0.8c-0.5,0-1.1,0.3-1.1,0.8c0,0.5,0.6,0.9,1.1,0.9C166,207.6,166.6,207.3,166.6,206.7z M166.3,204.3
				c0-0.5-0.5-0.7-0.9-0.7c-0.4,0-0.9,0.2-0.9,0.7c0,0.4,0.3,0.6,0.9,0.6C166,204.9,166.3,204.7,166.3,204.3z"/>
		</g>
	</g>
	<g>
		<g>
			<path class="st8" d="M334.4,200.6c0-1.4,0.9-2.1,1.9-2.5c0.3-0.1,0.8-0.3,0.8-0.8c0-0.4-0.4-0.6-0.7-0.6c-0.6,0-1,0.4-1.5,0.9
				l-0.6-0.9c0.6-0.6,1.1-1.1,2-1.1c0.9,0,1.8,0.5,1.8,1.7c0,1.3-1,1.7-1.7,2c-0.6,0.3-1,0.6-1,1.1v0.1h2.6v1.1h-3.7V200.6z"/>
			<path class="st8" d="M339.7,199.9c0.4,0,0.7,0.4,0.7,0.9c0,0.5-0.3,0.9-0.7,0.9c-0.4,0-0.7-0.4-0.7-0.9
				C339,200.3,339.3,199.9,339.7,199.9z"/>
			<path class="st8" d="M345,197c-0.3-0.2-0.8-0.3-1.2-0.3c-0.8,0-1.5,0.7-1.5,1.9c0.4-0.4,1-0.8,1.7-0.8c1.2,0,1.8,0.9,1.8,1.8
				c0,1.2-0.8,2.1-2,2.1c-1.2,0-2.4-1-2.4-3c0-2,1.2-3.2,2.5-3.2c0.8,0,1.4,0.3,1.7,0.5L345,197z M342.4,199.4
				c0.2,0.8,0.7,1.2,1.3,1.2c0.6,0,1-0.5,1-1c0-0.4-0.2-0.8-0.9-0.8C343.3,198.8,342.8,199.1,342.4,199.4z"/>
		</g>
	</g>
	<g>
		<g>
			<path class="st8" d="M272.1,270.6c0-1.4,0.9-2.1,1.9-2.5c0.3-0.1,0.8-0.3,0.8-0.8c0-0.4-0.4-0.6-0.7-0.6c-0.6,0-1,0.4-1.5,0.9
				l-0.6-0.9c0.6-0.6,1.1-1.1,2-1.1c0.9,0,1.8,0.5,1.8,1.7c0,1.3-1,1.7-1.7,2c-0.6,0.3-1,0.6-1,1.1v0.1h2.6v1.1h-3.7V270.6z"/>
			<path class="st8" d="M277.4,269.9c0.4,0,0.7,0.4,0.7,0.9c0,0.5-0.3,0.9-0.7,0.9c-0.4,0-0.7-0.4-0.7-0.9
				C276.7,270.3,277,269.9,277.4,269.9z"/>
			<path class="st8" d="M282.7,267c-0.3-0.2-0.8-0.3-1.2-0.3c-0.8,0-1.5,0.7-1.5,1.9c0.4-0.4,1-0.8,1.7-0.8c1.2,0,1.8,0.9,1.8,1.8
				c0,1.2-0.8,2.1-2,2.1c-1.2,0-2.4-1-2.4-3c0-2,1.2-3.2,2.5-3.2c0.8,0,1.4,0.3,1.7,0.5L282.7,267z M280.1,269.4
				c0.2,0.8,0.7,1.2,1.3,1.2c0.6,0,1-0.5,1-1c0-0.4-0.2-0.8-0.9-0.8C281,268.8,280.5,269.1,280.1,269.4z"/>
		</g>
	</g>
	<g>
		<g>
			<path class="st8" d="M404,142.8h0.7c0.3,0,0.6-0.2,0.6-0.6c0-0.5-0.4-0.7-0.8-0.7c-0.5,0-1.1,0.4-1.5,0.9l-0.6-0.9
				c0.5-0.6,1.2-1.2,2.1-1.2c0.8,0,1.8,0.4,1.8,1.7c0,0.5-0.3,0.9-0.5,1.1c0.4,0.2,0.8,0.6,0.8,1.4c0,1.3-1,2-2.3,2
				c-0.9,0-1.6-0.4-2.3-1.2l0.6-0.9c0.4,0.6,1,1,1.7,1c0.7,0,1.2-0.4,1.2-1c0-0.5-0.4-0.6-0.7-0.6H404V142.8z"/>
			<path class="st8" d="M408.2,144.7c0.4,0,0.7,0.4,0.7,0.9c0,0.5-0.3,0.9-0.7,0.9c-0.4,0-0.7-0.4-0.7-0.9
				C407.5,145.1,407.8,144.7,408.2,144.7z"/>
			<path class="st8" d="M414.4,145.1h-0.8v1.2h-1v-1.2h-3v-0.8l3.1-3.7h0.9v3.5h0.8V145.1z M411,144.1h1.6v-1.9h-0.1
				C412.1,142.8,411.5,143.4,411,144.1L411,144.1z"/>
		</g>
	</g>
	<g>
		<g>
			<path class="st8" d="M411.7,277.7c0-1.4,0.9-2.1,1.9-2.5c0.3-0.1,0.8-0.3,0.8-0.8c0-0.4-0.4-0.6-0.7-0.6c-0.6,0-1,0.4-1.5,0.9
				l-0.6-0.9c0.6-0.6,1.1-1.1,2-1.1c0.9,0,1.8,0.5,1.8,1.7c0,1.3-1,1.7-1.7,2c-0.6,0.3-1,0.6-1,1.1v0.1h2.6v1.1h-3.7V277.7z"/>
			<path class="st8" d="M416.4,277.7c0-1.4,0.9-2.1,1.9-2.5c0.3-0.1,0.8-0.3,0.8-0.8c0-0.4-0.4-0.6-0.7-0.6c-0.6,0-1,0.4-1.5,0.9
				l-0.6-0.9c0.6-0.6,1.1-1.1,2-1.1c0.9,0,1.8,0.5,1.8,1.7c0,1.3-1,1.7-1.7,2c-0.6,0.3-1,0.6-1,1.1v0.1h2.6v1.1h-3.7V277.7z"/>
		</g>
	</g>
	<g>
		<g>
			<path class="st8" d="M591.5,249.7c0-1.4,0.9-2.1,1.9-2.5c0.3-0.1,0.8-0.3,0.8-0.8c0-0.4-0.4-0.6-0.7-0.6c-0.6,0-1,0.4-1.5,0.9
				l-0.6-0.9c0.6-0.6,1.1-1.1,2-1.1c0.9,0,1.8,0.5,1.8,1.7c0,1.3-1,1.7-1.7,2c-0.6,0.3-1,0.6-1,1.1v0.1h2.6v1.1h-3.7V249.7z"/>
			<path class="st8" d="M596.9,249c0.4,0,0.7,0.4,0.7,0.9c0,0.5-0.3,0.9-0.7,0.9c-0.4,0-0.7-0.4-0.7-0.9
				C596.2,249.4,596.5,249,596.9,249z"/>
			<path class="st8" d="M600.2,247.1h0.7c0.3,0,0.6-0.2,0.6-0.6c0-0.5-0.4-0.7-0.8-0.7c-0.5,0-1.1,0.4-1.5,0.9l-0.6-0.9
				c0.5-0.6,1.2-1.2,2.1-1.2c0.8,0,1.8,0.4,1.8,1.7c0,0.5-0.3,0.9-0.5,1.1c0.4,0.2,0.8,0.6,0.8,1.4c0,1.3-1,2-2.3,2
				c-0.9,0-1.6-0.4-2.3-1.2l0.6-0.9c0.4,0.6,1,1,1.7,1c0.7,0,1.2-0.4,1.2-1c0-0.5-0.4-0.6-0.7-0.6h-0.9V247.1z"/>
		</g>
	</g>
	<g>
		<g>
			<path class="st8" d="M290.9,320.4h0.7c0.3,0,0.6-0.2,0.6-0.6c0-0.5-0.4-0.7-0.8-0.7c-0.5,0-1.1,0.4-1.5,0.9l-0.6-0.9
				c0.5-0.6,1.2-1.2,2.1-1.2c0.8,0,1.8,0.4,1.8,1.7c0,0.5-0.3,0.9-0.5,1.1c0.4,0.2,0.8,0.6,0.8,1.4c0,1.3-1,2-2.3,2
				c-0.9,0-1.6-0.4-2.3-1.2l0.6-0.9c0.4,0.6,1,1,1.7,1c0.7,0,1.2-0.4,1.2-1c0-0.5-0.4-0.6-0.7-0.6h-0.9V320.4z"/>
			<path class="st8" d="M295.1,322.3c0.4,0,0.7,0.4,0.7,0.9c0,0.5-0.3,0.9-0.7,0.9c-0.4,0-0.7-0.4-0.7-0.9
				C294.4,322.7,294.7,322.3,295.1,322.3z"/>
			<path class="st8" d="M297.3,322.6c0.3,0.2,0.8,0.3,1.2,0.3c0.8,0,1.5-0.7,1.5-1.8c-0.4,0.4-1,0.8-1.6,0.8c-1.2,0-1.8-0.9-1.8-1.9
				c0-1.2,0.8-2.1,2-2.1c1.2,0,2.4,1,2.4,3c0,2-1.2,3.2-2.5,3.2c-0.8,0-1.4-0.3-1.7-0.5L297.3,322.6z M300,320.3
				c-0.2-0.8-0.7-1.2-1.3-1.2c-0.6,0-1,0.5-1,1c0,0.4,0.2,0.8,0.9,0.8C299.1,320.9,299.6,320.6,300,320.3z"/>
		</g>
	</g>
	<g>
		<g>
			<path class="st8" d="M301.7,139.1h-0.8v1.2h-1v-1.2h-3v-0.8l3.1-3.7h0.9v3.5h0.8V139.1z M298.3,138.1h1.6v-1.9h-0.1
				C299.4,136.8,298.8,137.4,298.3,138.1L298.3,138.1z"/>
			<path class="st8" d="M303.2,138.7c0.4,0,0.7,0.4,0.7,0.9c0,0.5-0.3,0.9-0.7,0.9c-0.4,0-0.7-0.4-0.7-0.9
				C302.5,139.1,302.8,138.7,303.2,138.7z"/>
			<path class="st8" d="M304.6,135.3l1.3-0.8h0.9v5.8h-1v-4.5l-1,0.6L304.6,135.3z"/>
		</g>
	</g>
	<g>
		<g>
			<path class="st8" d="M593.3,343h-0.8v1.2h-1V343h-3v-0.8l3.1-3.7h0.9v3.5h0.8V343z M589.9,342h1.6v-1.9h-0.1
				C591,340.7,590.4,341.3,589.9,342L589.9,342z"/>
		</g>
	</g>
</g>
</svg>
