<?xml version="1.0" encoding="utf-8"?>
<!-- Generator: Adobe Illustrator 26.0.3, SVG Export Plug-In . SVG Version: 6.00 Build 0)  -->
<svg version="1.1" xmlns="http://www.w3.org/2000/svg" xmlns:xlink="http://www.w3.org/1999/xlink" x="0px" y="0px"
	 viewBox="0 0 720 480" style="enable-background:new 0 0 720 480;" xml:space="preserve">
<style type="text/css">
	.st0{fill:#DBD4CA;}
	.st1{opacity:0.3;clip-path:url(#SVGID_00000163769761182146773230000015636713391656262551_);}
	.st2{opacity:0.7;fill:#C49F8A;enable-background:new    ;}
	.st3{clip-path:url(#SVGID_00000017485003431640278000000008567809269589655181_);}
	.st4{fill:none;stroke:#C49F8A;stroke-miterlimit:10;}
	.st5{opacity:0.3;clip-path:url(#SVGID_00000032616600212651918350000003816275896550011575_);}
	.st6{clip-path:url(#SVGID_00000160869967029159061860000008112503939563800254_);}
	.st7{opacity:0.3;clip-path:url(#SVGID_00000018956912921819854860000008646992519014580128_);}
	.st8{clip-path:url(#SVGID_00000148637028431536315020000010707388511032375975_);}
	.st9{fill:none;stroke:#565440;}
	.st10{fill:#565440;}
	.st11{fill:#E9E4DC;}
	.st12{fill:#C49F8A;}
	.st13{fill:#E9E4DC;stroke:#C49F8A;}
	.st14{fill:#E9E4DC;stroke:#C49F8A;stroke-width:1;stroke-miterlimit:3.9998;}
	.st15{fill:none;stroke:#C49F8A;}
	.st16{fill:#E9E4DC;stroke:#C49F8A;stroke-linejoin:round;}
	.st17{fill:#E9E4DC;stroke:#C49F8A;stroke-width:1;stroke-miterlimit:4;}
	.st18{fill:#3F3F3F;fill-opacity:0;}
</style>
<g id="_x31__x5F_2">
	<polygon id="Floor" class="st0" points="653.7,66.8 653.7,413.2 395.1,413.2 395.1,334.5 65,334.5 65,66.8 	"/>
	<g id="Wet_Floor">
		<g id="Wet_Floor_2_">
			<g>
				<defs>
					<rect id="SVGID_1_" x="68.7" y="263.6" width="67.2" height="63.5"/>
				</defs>
				<clipPath id="SVGID_00000029759741574993405230000004154040862239411854_">
					<use xlink:href="#SVGID_1_"  style="overflow:visible;"/>
				</clipPath>
				<g style="opacity:0.3;clip-path:url(#SVGID_00000029759741574993405230000004154040862239411854_);">
					<rect x="-74.8" y="134.9" class="st2" width="322.2" height="322.2"/>
				</g>
			</g>
			<g>
				<defs>
					<rect id="SVGID_00000062907684284343691210000002229138950548097166_" x="68.7" y="263.6" width="67.2" height="63.5"/>
				</defs>
				<clipPath id="SVGID_00000029728106779682493380000016473502280564602024_">
					<use xlink:href="#SVGID_00000062907684284343691210000002229138950548097166_"  style="overflow:visible;"/>
				</clipPath>
				<g style="clip-path:url(#SVGID_00000029728106779682493380000016473502280564602024_);">
					<line class="st4" x1="101.9" y1="395" x2="-12.7" y2="280.3"/>
					<line class="st4" x1="91.5" y1="405.4" x2="-23.2" y2="290.7"/>
					<line class="st4" x1="112.3" y1="384.5" x2="-2.3" y2="269.9"/>
					<line class="st4" x1="122.7" y1="374.1" x2="8.1" y2="259.5"/>
					<line class="st4" x1="133.2" y1="363.7" x2="18.5" y2="249.1"/>
					<line class="st4" x1="143.6" y1="353.3" x2="28.9" y2="238.6"/>
					<line class="st4" x1="154" y1="342.8" x2="39.4" y2="228.2"/>
					<line class="st4" x1="164.4" y1="332.4" x2="49.8" y2="217.8"/>
					<line class="st4" x1="174.8" y1="322" x2="60.2" y2="207.4"/>
					<line class="st4" x1="185.3" y1="311.6" x2="70.6" y2="196.9"/>
					<line class="st4" x1="174.8" y1="322" x2="60.2" y2="207.4"/>
					<line class="st4" x1="195.7" y1="301.2" x2="81" y2="186.5"/>
					<line class="st4" x1="185.3" y1="290.7" x2="81" y2="395"/>
					<line class="st4" x1="195.7" y1="301.2" x2="91.5" y2="405.4"/>
					<line class="st4" x1="174.8" y1="280.3" x2="70.6" y2="384.5"/>
					<line class="st4" x1="164.4" y1="269.9" x2="60.2" y2="374.1"/>
					<line class="st4" x1="154" y1="259.5" x2="49.8" y2="363.7"/>
					<line class="st4" x1="143.6" y1="249.1" x2="39.4" y2="353.3"/>
					<line class="st4" x1="133.2" y1="238.6" x2="28.9" y2="342.8"/>
					<line class="st4" x1="122.7" y1="228.2" x2="18.5" y2="332.4"/>
					<line class="st4" x1="112.3" y1="217.8" x2="8.1" y2="322"/>
					<line class="st4" x1="101.9" y1="207.4" x2="-2.3" y2="311.6"/>
					<line class="st4" x1="112.3" y1="217.8" x2="8.1" y2="322"/>
					<line class="st4" x1="91.5" y1="196.9" x2="-12.7" y2="301.2"/>
					<line class="st4" x1="81" y1="186.5" x2="-23.2" y2="290.7"/>
				</g>
			</g>
		</g>
		<g id="Wet_Floor_1_">
			<g>
				<defs>
					<rect id="SVGID_00000055702701713048023260000014123691776264425873_" x="339.1" y="256.5" width="44" height="70.6"/>
				</defs>
				<clipPath id="SVGID_00000008853971001556355720000008398456286973318041_">
					<use xlink:href="#SVGID_00000055702701713048023260000014123691776264425873_"  style="overflow:visible;"/>
				</clipPath>
				<g style="opacity:0.3;clip-path:url(#SVGID_00000008853971001556355720000008398456286973318041_);">
					<rect x="174.9" y="134.9" class="st2" width="322.2" height="322.2"/>
				</g>
			</g>
			<g>
				<defs>
					<rect id="SVGID_00000130619450664561358580000013279439952050309267_" x="339.1" y="256.5" width="44" height="70.6"/>
				</defs>
				<clipPath id="SVGID_00000159439754586943827930000016110604552487803837_">
					<use xlink:href="#SVGID_00000130619450664561358580000013279439952050309267_"  style="overflow:visible;"/>
				</clipPath>
				<g style="clip-path:url(#SVGID_00000159439754586943827930000016110604552487803837_);">
					<line class="st4" x1="351.7" y1="395" x2="237" y2="280.3"/>
					<line class="st4" x1="341.2" y1="405.4" x2="226.6" y2="290.7"/>
					<line class="st4" x1="362.1" y1="384.5" x2="247.4" y2="269.9"/>
					<line class="st4" x1="372.5" y1="374.1" x2="257.9" y2="259.5"/>
					<line class="st4" x1="382.9" y1="363.7" x2="268.3" y2="249.1"/>
					<line class="st4" x1="393.3" y1="353.3" x2="278.7" y2="238.6"/>
					<line class="st4" x1="403.8" y1="342.8" x2="289.1" y2="228.2"/>
					<line class="st4" x1="414.2" y1="332.4" x2="299.6" y2="217.8"/>
					<line class="st4" x1="424.6" y1="322" x2="310" y2="207.4"/>
					<line class="st4" x1="435" y1="311.6" x2="320.4" y2="196.9"/>
					<line class="st4" x1="424.6" y1="322" x2="310" y2="207.4"/>
					<line class="st4" x1="445.5" y1="301.2" x2="330.8" y2="186.5"/>
					<line class="st4" x1="435" y1="290.7" x2="330.8" y2="395"/>
					<line class="st4" x1="445.5" y1="301.2" x2="341.2" y2="405.4"/>
					<line class="st4" x1="424.6" y1="280.3" x2="320.4" y2="384.5"/>
					<line class="st4" x1="414.2" y1="269.9" x2="310" y2="374.1"/>
					<line class="st4" x1="403.8" y1="259.5" x2="299.6" y2="363.7"/>
					<line class="st4" x1="393.3" y1="249.1" x2="289.1" y2="353.3"/>
					<line class="st4" x1="382.9" y1="238.6" x2="278.7" y2="342.8"/>
					<line class="st4" x1="372.5" y1="228.2" x2="268.3" y2="332.4"/>
					<line class="st4" x1="362.1" y1="217.8" x2="257.9" y2="322"/>
					<line class="st4" x1="351.7" y1="207.4" x2="247.4" y2="311.6"/>
					<line class="st4" x1="362.1" y1="217.8" x2="257.9" y2="322"/>
					<line class="st4" x1="341.2" y1="196.9" x2="237" y2="301.2"/>
					<line class="st4" x1="330.8" y1="186.5" x2="226.6" y2="290.7"/>
				</g>
			</g>
		</g>
		<g id="Wet_Floor_3_">
			<g>
				<defs>
					<rect id="SVGID_00000150807648792374522200000014582667072448646289_" x="398.1" y="327.5" width="72.3" height="80.1"/>
				</defs>
				<clipPath id="SVGID_00000116219151053477722480000006009446021735815042_">
					<use xlink:href="#SVGID_00000150807648792374522200000014582667072448646289_"  style="overflow:visible;"/>
				</clipPath>
				<g style="opacity:0.3;clip-path:url(#SVGID_00000116219151053477722480000006009446021735815042_);">
					<rect x="254.6" y="205.8" class="st2" width="322.2" height="322.2"/>
				</g>
			</g>
			<g>
				<defs>
					<rect id="SVGID_00000150815065446890150510000003341367297550117522_" x="398.1" y="327.5" width="72.3" height="80.1"/>
				</defs>
				<clipPath id="SVGID_00000179643407889013204470000000144423022865696660_">
					<use xlink:href="#SVGID_00000150815065446890150510000003341367297550117522_"  style="overflow:visible;"/>
				</clipPath>
				<g style="clip-path:url(#SVGID_00000179643407889013204470000000144423022865696660_);">
					<line class="st4" x1="431.3" y1="465.9" x2="316.7" y2="351.2"/>
					<line class="st4" x1="420.9" y1="476.3" x2="306.2" y2="361.7"/>
					<line class="st4" x1="441.7" y1="455.5" x2="327.1" y2="340.8"/>
					<line class="st4" x1="452.1" y1="445" x2="337.5" y2="330.4"/>
					<line class="st4" x1="462.6" y1="434.6" x2="347.9" y2="320"/>
					<line class="st4" x1="473" y1="424.2" x2="358.4" y2="309.6"/>
					<line class="st4" x1="483.4" y1="413.8" x2="368.8" y2="299.1"/>
					<line class="st4" x1="493.8" y1="403.3" x2="379.2" y2="288.7"/>
					<line class="st4" x1="504.2" y1="392.9" x2="389.6" y2="278.3"/>
					<line class="st4" x1="514.7" y1="382.5" x2="400" y2="267.9"/>
					<line class="st4" x1="504.2" y1="392.9" x2="389.6" y2="278.3"/>
					<line class="st4" x1="525.1" y1="372.1" x2="410.5" y2="257.5"/>
					<line class="st4" x1="514.7" y1="361.7" x2="410.5" y2="465.9"/>
					<line class="st4" x1="525.1" y1="372.1" x2="420.9" y2="476.3"/>
					<line class="st4" x1="504.2" y1="351.2" x2="400" y2="455.5"/>
					<line class="st4" x1="493.8" y1="340.8" x2="389.6" y2="445"/>
					<line class="st4" x1="483.4" y1="330.4" x2="379.2" y2="434.6"/>
					<line class="st4" x1="473" y1="320" x2="368.8" y2="424.2"/>
					<line class="st4" x1="462.6" y1="309.6" x2="358.3" y2="413.8"/>
					<line class="st4" x1="452.1" y1="299.1" x2="347.9" y2="403.3"/>
					<line class="st4" x1="441.7" y1="288.7" x2="337.5" y2="392.9"/>
					<line class="st4" x1="431.3" y1="278.3" x2="327.1" y2="382.5"/>
					<line class="st4" x1="441.7" y1="288.7" x2="337.5" y2="392.9"/>
					<line class="st4" x1="420.9" y1="267.9" x2="316.7" y2="372.1"/>
					<line class="st4" x1="410.5" y1="257.4" x2="306.2" y2="361.7"/>
				</g>
			</g>
		</g>
	</g>
	<polygon id="Windows" class="st9" points="611.2,413.2 611.2,418 658.4,418 658.4,62 393.9,62 393.9,62 77.6,62 77.6,66.8 
		396.5,66.8 653.7,66.8 653.7,413.2 	"/>
	<g id="Walls">
		<rect x="325.1" y="60.5" class="st10" width="21.9" height="15.7"/>
		<polygon class="st10" points="508.4,224.5 511.5,224.5 511.5,76.2 546.6,76.2 546.6,60.5 458.4,60.5 458.4,79.3 480.5,79.3 
			480.5,76.2 508.4,76.2 508.4,215.6 429,215.6 429,218.7 508.4,218.7 		"/>
		<path class="st10" d="M472.3,317.1h-3.1v10.2h-9.8v3.1h9.8v61.8l-10.9,0v0h0l0,11.6h-59.7l0-73.4h34.1v-3.1h-34.1V325h10.4v-14.2
			h-23.8v-51.2h84v33.9h3.1V272h4.9v-3.1h-4.9v-12.4v0l-102.1,0v3.1H382V325l-41.3,0v-65.4h4.3v-3.1l-7.4,0v0l0,0v3.2l0,0l0,0v0V325
			l-61.2,0l0,0h-3.1l0,0l-22.1,0v9.4l138,0v85h223.6v-15.7H472.3V317.1z M405.8,314v7.9h-20.6V314H405.8z M461.5,395.4h7.7v8.4h-7.7
			V395.4z"/>
		<path class="st10" d="M177.2,294.8H174v19.5l-10.9,0v0h0l0,10.8h-27.2v-17.5h-3.2V325H69.4v-60.6h63.3v19.4h3.2v-22.6l-66.5,0
			V76.2h12.9V60.5H60v274l158.2,0V325l-41,0V294.8z M166.3,325v-7.6h7.7v7.6H166.3z"/>
		<rect x="590.7" y="60.5" class="st10" width="22" height="18.9"/>
		<polygon class="st10" points="511.5,268.9 511.5,249.7 508.4,249.7 508.4,268.9 502.4,268.9 502.4,272 641.1,272 641.1,287.7 
			644.3,287.7 644.3,356.5 660,356.5 660,268.9 660,268.9 		"/>
		<polygon class="st10" points="644.3,221.6 660,221.6 660,132.9 641.1,132.9 641.1,155 644.3,155 		"/>
		<polygon class="st10" points="403.8,218.7 403.8,215.6 398.6,215.6 398.6,76.2 413.6,76.2 413.6,60.5 389.1,60.5 389.1,218.7 		
			"/>
		<rect x="258.7" y="60.5" class="st10" width="22.5" height="18.9"/>
		<path class="st10" d="M158.8,79.3h9v191.3h9.4v-2.2l11.9,0v-13.8h-11.9V79.3h9.1v-3.1h30V60.5h-89.5v15.7h32V79.3z M185.9,257.8
			v7.5h-8.7v-7.5L185.9,257.8z"/>
	</g>
	<path id="Doors" class="st9" d="M472.3,293.5c3.1,0,5.9,0.7,8.8,1.9c2.8,1.2,5.7,2.8,7.8,5.2c2.1,2.1,4,4.7,5.2,7.6
		c1.2,2.8,1.9,5.9,1.9,9h-23.7 M177.1,294.8c3.1,0,5.9-0.7,8.8-1.9c2.8-1.2,5.7-2.8,7.8-5.2c2.1-2.1,4-4.7,5.2-7.6
		c1.2-2.8,1.9-5.9,1.9-9h-23.7 M135.9,283.9c3.1,0,5.9,0.7,8.8,1.9c2.8,1.2,5.7,2.8,7.8,5.2c2.1,2.1,4,4.7,5.2,7.6
		c1.2,2.8,1.9,5.9,1.9,9h-23.7 M345,256.5c0-3.5,0.6-6.3,1.9-9.4s3.1-6,5.4-8.2c2.2-2.5,5-4.4,8.2-5.7c3.1-1.3,6.3-1.9,9.8-1.9v25.2
		 M251.2,334.5c0,4.5-0.8,8.2-2.5,12.4c-1.7,4.1-4.1,7.8-7,10.7c-2.9,3.3-6.6,5.8-10.7,7.4c-4.1,1.7-8.2,2.5-12.8,2.5v-33
		 M403.8,215.6c0-3.5,0.6-6.3,1.9-9.4c1.3-3.1,3.1-6,5.4-8.2c2.2-2.5,5-4.4,8.2-5.7c3.1-1.3,6.3-1.9,9.8-1.9v25.2 M477.2,268.9
		c0-3.5,0.6-6.3,1.9-9.4c1.3-3.1,3.1-6,5.4-8.2c2.2-2.5,5-4.4,8.2-5.7c3.1-1.3,6.3-1.9,9.8-1.9v25.2 M511.5,224.5
		c3.5,0,6.3,0.6,9.4,1.9c3.1,1.3,6,3.1,8.2,5.4c2.5,2.2,4.4,5,5.7,8.2c1.3,3.1,1.9,6.3,1.9,9.8h-25.2"/>
	<g id="Furniture">
		<g>
			<rect x="177.7" y="79.8" class="st11" width="19.4" height="174.3"/>
			<path class="st12" d="M196.6,80.3l0,173.3h-18.4l0-173.3H196.6 M197.6,79.3h-20.4l0,175.3h20.4L197.6,79.3L197.6,79.3z"/>
		</g>
		<g>
			<g>
				<rect x="512" y="150.6" class="st11" width="62" height="51.5"/>
				<path class="st12" d="M573.6,151.1v50.5l-61,0l0-50.5H573.6 M574.6,150.1h-63l0,52.5l63,0V150.1L574.6,150.1z"/>
			</g>
			<rect x="516" y="154.6" class="st13" width="15.6" height="20.5"/>
			<rect x="516" y="177.7" class="st13" width="15.6" height="20.5"/>
			<polygon class="st14" points="525.3,157.1 521.2,171.9 536.3,175.9 540.3,161.1 			"/>
			<polygon class="st14" points="536.3,177 521.2,180.9 525.3,195.8 540.3,191.8 			"/>
			<g>
				<polygon class="st11" points="525.2,202.2 523.9,181.7 528.5,150.6 574.7,150.6 574.7,202.2 				"/>
				<path class="st12" d="M528.9,151.1l45.3,0l0,50.5h-48.5h-0.1l-1.3-20L528.9,151.1 M528.4,150.1H528l-4.6,31.5l1.3,21h1h49.5
					l0-52.5L528.4,150.1L528.4,150.1z"/>
			</g>
			<polyline class="st15" points="526.3,202 526.3,181.4 528.9,150.7 			"/>
		</g>
		<g>
			<g>
				<rect x="465.5" y="146.2" class="st11" width="42.4" height="68.9"/>
				<path class="st12" d="M507.4,146.7v67.9l-41.4,0l0-67.9H507.4 M508.4,145.7H465l0,69.9l43.4,0V145.7L508.4,145.7z"/>
			</g>
			<rect x="468.7" y="193.3" class="st13" width="16.9" height="17.3"/>
			<rect x="487.7" y="193.3" class="st13" width="16.9" height="17.3"/>
			<polygon class="st14" points="470.8,200.4 483,204.8 486.3,188.1 474,183.6 			"/>
			<polygon class="st14" points="487.2,188.1 490.4,204.8 502.7,200.3 499.4,183.6 			"/>
			<g>
				<polygon class="st11" points="465.5,196.9 465.5,145.5 507.9,145.5 507.9,200.5 491,201.9 				"/>
				<path class="st12" d="M507.4,146v53.9v0.2l-16.3,1.4l-25.1-5V146H507.4 M508.4,145H465v51.9v0.4l26,5.2l17.4-1.5v-1.1V145
					L508.4,145z"/>
			</g>
			<polyline class="st15" points="507.8,199.2 490.9,199.2 465.5,196.3 			"/>
		</g>
		<g>
			<g>
				<rect x="533.4" y="334.4" class="st11" width="42.4" height="68.9"/>
				<path class="st12" d="M533.9,334.9h41.4l0,67.9l-41.4,0V334.9 M532.9,333.9v69.9l43.4,0l0-69.9H532.9L532.9,333.9z"/>
			</g>
			<rect x="536.6" y="381.5" class="st13" width="16.9" height="17.3"/>
			<rect x="555.7" y="381.5" class="st13" width="16.9" height="17.3"/>
			<polygon class="st14" points="538.7,388.6 551,393.1 554.2,376.3 542,371.9 			"/>
			<polygon class="st14" points="555.1,376.3 558.4,393 570.6,388.6 567.4,371.9 			"/>
			<g>
				<polygon class="st11" points="533.4,385.1 533.4,333.7 575.8,333.7 575.8,388.7 559,390.1 				"/>
				<path class="st12" d="M533.9,334.2h41.4v53.9v0.2l-16.3,1.4l-25.1-5V334.2 M532.9,333.2v51.9v0.4l26,5.2l17.4-1.5v-1.1v-54.9
					H532.9L532.9,333.2z"/>
			</g>
			<polyline class="st15" points="575.8,387.4 558.8,387.4 533.4,384.5 			"/>
		</g>
		<g>
			<g>
				<rect x="489" y="76.7" class="st11" width="1.8" height="49.8"/>
				<path class="st12" d="M490.3,77.2V126h-0.8V77.2H490.3 M491.3,76.2h-2.8V127h2.8V76.2L491.3,76.2z"/>
			</g>
			<g>
				<rect x="490.8" y="76.7" class="st11" width="17.1" height="49.8"/>
				<path class="st12" d="M507.4,77.2V126h-16.1V77.2H507.4 M508.4,76.2h-18.1V127h18.1V76.2L508.4,76.2z"/>
			</g>
			<path class="st13" d="M507.8,126.8l-16.9-50.5"/>
		</g>
		<g>
			<g>
				<rect x="319.4" y="260.1" class="st11" width="1.8" height="64.4"/>
				<path class="st12" d="M320.7,260.6l0,63.4h-0.8l0-63.4H320.7 M321.7,259.6h-2.8l0,65.4h2.8L321.7,259.6L321.7,259.6z"/>
			</g>
			<g>
				<rect x="321.2" y="260.1" class="st11" width="15.9" height="64.4"/>
				<path class="st12" d="M321.7,260.6h14.9V324l-14.9,0V260.6 M320.7,259.6V325l16.9,0v-65.4H320.7L320.7,259.6z"/>
			</g>
			<path class="st13" d="M337,324.7l-15.7-65"/>
		</g>
		<g>
			<g>
				<rect x="199.1" y="313.5" class="st11" width="17.3" height="1.8"/>
				<path class="st12" d="M215.9,314v0.8h-16.3V314L215.9,314 M216.9,313l-18.3,0v2.8h18.3V313L216.9,313z"/>
			</g>
			<g>
				<rect x="199.1" y="315.3" class="st11" width="17.3" height="9.3"/>
				<path class="st12" d="M215.9,315.8l0,8.3h-16.3v-8.3L215.9,315.8 M216.9,314.8l-18.3,0V325h18.3L216.9,314.8L216.9,314.8z"/>
			</g>
			<path class="st13" d="M199.2,324.2l17.2-8.8"/>
		</g>
		<g>
			<g>
				<rect x="416.1" y="76.7" class="st11" width="1.8" height="81.1"/>
				<path class="st12" d="M417.5,77.2v80.1l-0.8,0V77.2H417.5 M418.5,76.2h-2.8v82.1l2.8,0V76.2L418.5,76.2z"/>
			</g>
			<g>
				<rect x="399" y="76.7" class="st11" width="17.1" height="81.1"/>
				<path class="st12" d="M399.5,77.2l16.1,0v80.1l-16.1,0V77.2 M398.5,76.2v82.1l18.1,0V76.2L398.5,76.2L398.5,76.2z"/>
			</g>
			<path class="st13" d="M399.1,76.6l16.9,81.6"/>
		</g>
		<g>
			<g>
				<rect x="402.8" y="260.1" class="st11" width="1.8" height="50.2"/>
				<path class="st12" d="M404.1,260.6v49.2h-0.8v-49.2H404.1 M405.1,259.6h-2.8v51.2h2.8V259.6L405.1,259.6z"/>
			</g>
			<g>
				<rect x="385.7" y="260.1" class="st11" width="17.1" height="50.2"/>
				<path class="st12" d="M386.2,260.6l16.1,0l0,49.2l-16.1,0V260.6 M385.2,259.6v51.2l18.1,0l0-51.2L385.2,259.6L385.2,259.6z"/>
			</g>
			<path class="st13" d="M385.8,259.9l16.9,50.9"/>
		</g>
		<g>
			<g>
				<rect x="529.1" y="76.7" class="st11" width="1.8" height="63"/>
				<path class="st12" d="M530.4,77.2v62h-0.8v-62L530.4,77.2 M531.4,76.2l-2.8,0v64h2.8V76.2L531.4,76.2z"/>
			</g>
			<g>
				<rect x="512" y="76.7" class="st11" width="17.1" height="63"/>
				<path class="st12" d="M528.6,77.2l0,62h-16.1l0-62L528.6,77.2 M529.6,76.2l-18.1,0l0,64h18.1L529.6,76.2L529.6,76.2z"/>
			</g>
			<path class="st13" d="M512.1,139.9L529,76.3"/>
		</g>
		<g>
			<g>
				<rect x="399.1" y="347" class="st11" width="23.4" height="56.3"/>
				<path class="st12" d="M399.6,347.5H422l0,55.3l-22.4,0L399.6,347.5 M398.6,346.5l0,57.3l24.4,0l0-57.3H398.6L398.6,346.5z"/>
			</g>
			<g>
				<g>
					<path class="st16" d="M410.8,396.6c4.3,0,7.6-3.7,7.2-7.9c-0.4-4.7-0.8-10.5-0.8-14.8c0-4.3,0.4-10.1,0.8-14.8
						c0.4-4.2-3-7.9-7.2-7.9c-4.2,0-7.6,3.7-7.2,7.9c0.4,4.7,0.8,10.5,0.8,14.8c0,4.3-0.4,10.1-0.8,14.8
						C403.2,392.9,406.5,396.6,410.8,396.6z"/>
					<ellipse class="st16" cx="410.8" cy="389.2" rx="0.9" ry="0.9"/>
				</g>
			</g>
		</g>
		<g>
			<g id="Rectangle_16_x5F_11_1_">
				<rect x="455.1" y="354.8" class="st11" width="13.6" height="19"/>
				<path class="st12" d="M468.2,355.3v18h-12.6v-18H468.2 M469.2,354.3h-14.6v20h14.6V354.3L469.2,354.3z"/>
			</g>
			<path id="Rectangle_19_x5F_5_1_" class="st13" d="M461.9,372L461.9,372c-2.5,0-4.5-2-4.5-4.5v-6.4c0-2.5,2-4.5,4.5-4.5l0,0
				c2.5,0,4.5,2,4.5,4.5v6.4C466.4,370,464.4,372,461.9,372z"/>
			<circle id="Ellipse_7_x5F_2_1_" class="st13" cx="463.9" cy="364.3" r="0.9"/>
		</g>
		<g>
			<g id="Rectangle_16_x5F_11_6_">
				<rect x="93.4" y="311" class="st11" width="18.7" height="13.6"/>
				<path class="st12" d="M93.9,311.5l17.7,0v12.6H93.9V311.5 M92.9,310.5v14.6h19.7v-14.6L92.9,310.5L92.9,310.5z"/>
			</g>
			<path id="Rectangle_19_x5F_5_4_" class="st13" d="M95.1,317.8L95.1,317.8c0-2.5,2-4.5,4.5-4.5h6.4c2.5,0,4.5,2,4.5,4.5l0,0
				c0,2.5-2,4.5-4.5,4.5h-6.4C97.1,322.2,95.1,320.2,95.1,317.8z"/>
			<circle id="Ellipse_7_x5F_2_4_" class="st13" cx="102.8" cy="319.7" r="0.9"/>
		</g>
		<g id="Sink_3">
			<rect id="Rectangle_28_x5F_2" x="180" y="120.2" class="st13" width="14.8" height="23.5"/>
			<path id="Rectangle_29_x5F_2" class="st13" d="M187.4,129.4L187.4,129.4c3.1,0,5.6,2.5,5.6,5.6v1.2c0,3.1-2.5,5.6-5.6,5.6h0
				c-3.1,0-5.6-2.5-5.6-5.6V135C181.9,131.9,184.4,129.4,187.4,129.4z"/>
			<ellipse id="Ellipse_7_x5F_3" class="st13" cx="185" cy="135.6" rx="0.9" ry="0.9"/>
			<path id="Vector_2" class="st15" d="M181.9,121.4v6.2 M183.7,121.4v6.2 M185.6,121.4v6.2 M187.4,121.4v6.2 M189.3,121.4v6.2
				 M191.1,121.4v6.2 M193,121.4v6.2"/>
		</g>
		<g id="Stove">
			<g id="Rectangle_25">
				<rect x="177.7" y="159.8" class="st11" width="19.4" height="18.9"/>
				<path class="st12" d="M196.6,160.3v17.9h-18.4v-17.9H196.6 M197.6,159.3h-20.4v19.9h20.4V159.3L197.6,159.3z"/>
			</g>
			<g id="Rectangle_28_x5F_3_1_">
				<rect x="177.7" y="159.8" class="st11" width="1.8" height="18.9"/>
				<path class="st12" d="M179,160.3v17.9h-0.8v-17.9H179 M180,159.3h-2.8v19.9h2.8V159.3L180,159.3z"/>
			</g>
			<g id="Ellipse_7_x5F_4">
				<path class="st11" d="M184.2,166.5c-1.1,0-2.1-0.9-2.1-2.1c0-1.1,0.9-2.1,2.1-2.1c1.1,0,2.1,0.9,2.1,2.1
					C186.3,165.6,185.4,166.5,184.2,166.5z"/>
				<path class="st12" d="M184.2,162.9c0.9,0,1.6,0.7,1.6,1.6c0,0.9-0.7,1.6-1.6,1.6s-1.6-0.7-1.6-1.6
					C182.7,163.6,183.4,162.9,184.2,162.9 M184.2,161.9c-1.4,0-2.6,1.1-2.6,2.6c0,1.4,1.1,2.6,2.6,2.6c1.4,0,2.6-1.1,2.6-2.6
					C186.8,163,185.6,161.9,184.2,161.9L184.2,161.9z"/>
			</g>
			<g id="Ellipse_9">
				<path class="st11" d="M191.9,167.1c-1.5,0-2.7-1.2-2.7-2.7s1.2-2.7,2.7-2.7s2.7,1.2,2.7,2.7S193.4,167.1,191.9,167.1z"/>
				<path class="st12" d="M191.9,162.2c1.2,0,2.2,1,2.2,2.2s-1,2.2-2.2,2.2s-2.2-1-2.2-2.2S190.7,162.2,191.9,162.2 M191.9,161.2
					c-1.8,0-3.2,1.4-3.2,3.2c0,1.8,1.4,3.2,3.2,3.2s3.2-1.4,3.2-3.2C195.1,162.7,193.7,161.2,191.9,161.2L191.9,161.2z"/>
			</g>
			<g id="Ellipse_10">
				<path class="st11" d="M184.2,176.1c-1.5,0-2.7-1.2-2.7-2.7s1.2-2.7,2.7-2.7s2.7,1.2,2.7,2.7S185.7,176.1,184.2,176.1z"/>
				<path class="st12" d="M184.2,171.2c1.2,0,2.2,1,2.2,2.2s-1,2.2-2.2,2.2c-1.2,0-2.2-1-2.2-2.2S183,171.2,184.2,171.2
					 M184.2,170.2c-1.8,0-3.2,1.4-3.2,3.2c0,1.8,1.4,3.2,3.2,3.2c1.8,0,3.2-1.4,3.2-3.2C187.4,171.6,186,170.2,184.2,170.2
					L184.2,170.2z"/>
			</g>
			<g id="Ellipse_8">
				<path class="st11" d="M192.5,175.5c-1.1,0-2.1-0.9-2.1-2.1s0.9-2.1,2.1-2.1c1.1,0,2.1,0.9,2.1,2.1S193.7,175.5,192.5,175.5z"/>
				<path class="st12" d="M192.5,171.8c0.9,0,1.6,0.7,1.6,1.6s-0.7,1.6-1.6,1.6s-1.6-0.7-1.6-1.6S191.7,171.8,192.5,171.8
					 M192.5,170.8c-1.4,0-2.6,1.1-2.6,2.6s1.1,2.6,2.6,2.6s2.6-1.1,2.6-2.6S194,170.8,192.5,170.8L192.5,170.8z"/>
			</g>
		</g>
		<g>
			<path class="st13" d="M348.8,102.4c-0.8,0-1.5-0.7-1.5-1.5V85.4l35.3,0v17L348.8,102.4z"/>
			<path class="st13" d="M367,129.8c-0.8,0-1.5-0.7-1.5-1.6V104c0-0.9,0.7-1.6,1.5-1.6l15.5,0l0,27.4H367z"/>
			<path class="st13" d="M367,156.2c-0.8,0-1.5-0.7-1.5-1.5v-23.3c0-0.9,0.7-1.5,1.5-1.5h15.5v26.4L367,156.2z"/>
			<path class="st13" d="M364.2,156.2v5.7l24.4,0l0-82.8l-47.5,0v24.5h6.1V85.4l35.4,0l0,70.9L364.2,156.2z"/>
		</g>
		<g>
			<path class="st13" d="M272.2,161.3v-40.1h29.2v40.1H272.2z"/>
			<path class="st13" d="M278.9,118.8v-0.7c0-4.3,3.5-7.9,7.9-7.9c4.3,0,7.9,3.5,7.9,7.9v0.7H278.9z"/>
			<path class="st13" d="M280.7,121.1v-3c0-3.4,2.7-6.1,6.1-6.1c3.4,0,6.1,2.7,6.1,6.1v3H280.7z"/>
			<path class="st13" d="M278.9,163.6v0.7c0,4.3,3.5,7.9,7.9,7.9c4.3,0,7.9-3.5,7.9-7.9v-0.7H278.9z"/>
			<path class="st13" d="M280.7,161.3v3c0,3.4,2.7,6.1,6.1,6.1c3.4,0,6.1-2.7,6.1-6.1v-3H280.7z"/>
			<path class="st13" d="M303.7,149h0.7c4.3,0,7.9-3.5,7.9-7.9c0-4.3-3.5-7.9-7.9-7.9h-0.7V149z"/>
			<path class="st13" d="M301.4,147.3h3c3.4,0,6.1-2.7,6.1-6.1c0-3.4-2.7-6.1-6.1-6.1h-3V147.3z"/>
			<path class="st13" d="M269.9,149h-0.7c-4.3,0-7.9-3.5-7.9-7.9c0-4.3,3.5-7.9,7.9-7.9h0.7V149z"/>
			<path class="st13" d="M272.2,147.3h-3c-3.4,0-6.1-2.7-6.1-6.1c0-3.4,2.7-6.1,6.1-6.1h3V147.3z"/>
		</g>
		<g>
			<g>
				<rect x="454.3" y="330.9" class="st11" width="14.4" height="23.9"/>
				<path class="st12" d="M468.2,331.4v22.9h-13.4v-22.9H468.2 M469.2,330.4h-15.4v24.9h15.4V330.4L469.2,330.4z"/>
			</g>
			<g>
				<path class="st11" d="M461.5,347.4c-2.5,0-4.5-2-4.5-4.5s2-4.5,4.5-4.5s4.5,2,4.5,4.5S464,347.4,461.5,347.4z"/>
				<path class="st12" d="M461.5,338.8c2.2,0,4,1.8,4,4c0,2.2-1.8,4-4,4c-2.2,0-4-1.8-4-4C457.5,340.6,459.3,338.8,461.5,338.8
					 M461.5,337.8c-2.8,0-5,2.2-5,5s2.2,5,5,5s5-2.2,5-5S464.3,337.8,461.5,337.8L461.5,337.8z"/>
			</g>
		</g>
		<g id="Toilet_1_">
			<g id="Rectangle_21_1_">
				<rect x="445" y="399.2" class="st11" width="12.8" height="4.1"/>
				<path class="st12" d="M457.3,399.7v3.1l-11.8,0l0-3.1H457.3 M458.3,398.7h-13.8l0,5.1l13.8,0V398.7L458.3,398.7z"/>
			</g>
			<path id="Rectangle_19_x5F_2_1_" class="st13" d="M446.4,389.9c-0.2-2.9,2.1-5.3,4.9-5.3l0,0c2.9,0,5.1,2.4,4.9,5.3l-0.6,9.1
				h-8.6L446.4,389.9z"/>
			<path id="Rectangle_18_x5F_13_1_" class="st13" d="M448,390.1c-0.2-2,1.4-3.7,3.4-3.7l0,0c2,0,3.5,1.7,3.4,3.7l-0.5,5.3h-5.7
				L448,390.1z"/>
			<ellipse id="Ellipse_6_x5F_2_1_" class="st13" cx="451.4" cy="393.3" rx="0.9" ry="0.9"/>
		</g>
		<g>
			<g>
				<rect x="69.9" y="264.9" class="st11" width="23.4" height="59.6"/>
				<path class="st12" d="M70.4,265.4l22.4,0l0,58.6l-22.4,0L70.4,265.4 M69.4,264.4l0,60.6l24.4,0l0-60.6L69.4,264.4L69.4,264.4z"
					/>
			</g>
			<g>
				<g>
					<path class="st16" d="M81.7,317.4c4.3,0,7.6-3.7,7.2-7.9c-0.4-4.7-0.8-10.5-0.8-14.8c0-4.3,0.4-10.1,0.8-14.8
						c0.4-4.2-3-7.9-7.2-7.9s-7.6,3.7-7.2,7.9c0.4,4.7,0.8,10.5,0.8,14.8c0,4.3-0.4,10.1-0.8,14.8C74.1,313.8,77.4,317.4,81.7,317.4
						z"/>
					<ellipse class="st16" cx="81.7" cy="310" rx="0.9" ry="0.9"/>
				</g>
			</g>
		</g>
		<g>
			<g id="Rectangle_16_x5F_11_3_">
				<rect x="367.9" y="265.7" class="st11" width="13.6" height="23.9"/>
				<path class="st12" d="M381,266.2v22.9h-12.6v-22.9H381 M382,265.2h-14.6v24.9H382V265.2L382,265.2z"/>
			</g>
			<path id="Rectangle_19_x5F_5_3_" class="st13" d="M374.7,285.3L374.7,285.3c-2.5,0-4.5-2-4.5-4.5v-6.4c0-2.5,2-4.5,4.5-4.5l0,0
				c2.5,0,4.5,2,4.5,4.5v6.4C379.2,283.3,377.2,285.3,374.7,285.3z"/>
			<circle id="Ellipse_7_x5F_2_3_" class="st13" cx="376.7" cy="277.6" r="0.9"/>
		</g>
		<g id="Toilet_3_">
			<g id="Rectangle_21_3_">
				<rect x="366.1" y="320.4" class="st11" width="12.8" height="4.1"/>
				<path class="st12" d="M378.4,320.9v3.1h-11.8v-3.1H378.4 M379.4,319.9h-13.8v5.1h13.8V319.9L379.4,319.9z"/>
			</g>
			<path id="Rectangle_19_x5F_2_3_" class="st13" d="M367.6,311.2c-0.2-2.9,2.1-5.3,4.9-5.3l0,0c2.9,0,5.1,2.4,4.9,5.3l-0.6,9.1
				h-8.6L367.6,311.2z"/>
			<path id="Rectangle_18_x5F_13_3_" class="st13" d="M369.2,311.4c-0.2-2,1.4-3.7,3.4-3.7l0,0c2,0,3.5,1.7,3.4,3.7l-0.5,5.3l-5.7,0
				L369.2,311.4z"/>
			<ellipse id="Ellipse_6_x5F_2_3_" class="st13" cx="372.5" cy="314.5" rx="0.9" ry="0.9"/>
		</g>
		<g id="Toilet_4_">
			<g id="Rectangle_21_6_">
				<rect x="117.3" y="320.4" class="st11" width="12.8" height="4.1"/>
				<path class="st12" d="M129.6,320.9v3.1h-11.8v-3.1H129.6 M130.6,319.9h-13.8v5.1h13.8V319.9L130.6,319.9z"/>
			</g>
			<path id="Rectangle_19_x5F_2_4_" class="st13" d="M118.8,311.2c-0.2-2.9,2.1-5.3,4.9-5.3l0,0c2.9,0,5.1,2.4,4.9,5.3l-0.6,9.1
				h-8.6L118.8,311.2z"/>
			<path id="Rectangle_18_x5F_13_4_" class="st13" d="M120.3,311.4c-0.2-2,1.4-3.7,3.4-3.7l0,0c2,0,3.5,1.7,3.4,3.7l-0.5,5.3h-5.7
				L120.3,311.4z"/>
			<ellipse id="Ellipse_6_x5F_2_4_" class="st13" cx="123.7" cy="314.6" rx="0.9" ry="0.9"/>
		</g>
		<g>
			<g>
				<rect x="177.7" y="218.5" class="st11" width="19.4" height="19.4"/>
				<path class="st12" d="M196.6,219l0,18.4l-18.4,0l0-18.4H196.6 M197.6,218h-20.4l0,20.4l20.4,0L197.6,218L197.6,218z"/>
			</g>
			<g id="Rectangle_27_2_">
				<rect x="195.2" y="218.5" class="st11" width="1.8" height="19.4"/>
				<path class="st12" d="M196.6,219l0,18.4l-0.8,0l0-18.4H196.6 M197.6,218h-2.8l0,20.4l2.8,0L197.6,218L197.6,218z"/>
			</g>
			<path id="Vector_3" class="st15" d="M187,225.2v5.9 M189.6,226.7l-5.2,2.9 M184.4,226.7l5.2,2.9"/>
		</g>
		<g>
			<path class="st13" d="M620.7,110.4l0-14l12.7-1.9l0,17.8L620.7,110.4z"/>
			<g>
				<rect x="632.1" y="67.8" class="st11" width="20.6" height="64.7"/>
				<path class="st12" d="M652.2,68.3v63.7l-19.6,0V68.3H652.2 M653.2,67.3h-21.6v65.7l21.6,0V67.3L653.2,67.3z"/>
			</g>
			<path class="st15" d="M638.1,108.8l0-10.8 M635.5,109.8l0-12.7l3.8,0l0,12.7L635.5,109.8z"/>
			<path class="st17" d="M635.3,114.3L635.3,114.3c0-0.5,0.4-1,1-1l1.3,0c0.5,0,1,0.4,1,1l0,0c0,0.5-0.4,1-1,1l-1.3,0
				C635.7,115.3,635.3,114.8,635.3,114.3z"/>
			<path class="st13" d="M645.5,106.6c-1.8,0-3.2-1.4-3.2-3.2c0-1.8,1.4-3.2,3.2-3.2l3.2,0l0,6.4L645.5,106.6z"/>
			<g>
				<rect x="620.4" y="96.7" class="st11" width="11.3" height="13.4"/>
				<path class="st12" d="M631.2,97.2v12.4h-10.3V97.2H631.2 M632.2,96.2h-12.3v14.4h12.3V96.2L632.2,96.2z"/>
			</g>
			<g>
				<rect x="618.8" y="96.5" class="st11" width="1.8" height="13.8"/>
				<path class="st12" d="M620.1,97v12.8h-0.8V97H620.1 M621.1,96h-2.8v14.8h2.8V96L621.1,96z"/>
			</g>
			<g>
				<rect x="647.8" y="88.1" class="st11" width="1.8" height="30.6"/>
				<path class="st12" d="M649.1,88.6v29.6h-0.8V88.6H649.1 M650.1,87.6h-2.8v31.6h2.8V87.6L650.1,87.6z"/>
			</g>
		</g>
		<g>
			<path class="st13" d="M98.3,96.9l12.7,0l1.7-11.6l-16.2,0L98.3,96.9z"/>
			<g>
				<rect x="82.8" y="67.8" class="st11" width="43.6" height="18.7"/>
				<path class="st12" d="M125.9,68.3l0,17.7H83.3l0-17.7H125.9 M126.9,67.3H82.3l0,19.7h44.6L126.9,67.3L126.9,67.3z"/>
			</g>
			<path class="st15" d="M99.7,81.5l9.8,0 M98.8,83.4l11.6,0l0-3.5l-11.6,0L98.8,83.4z"/>
			<path class="st17" d="M93.9,83.5L93.9,83.5c0.5,0,0.9-0.4,0.9-0.9l0-1.2c0-0.5-0.4-0.9-0.9-0.9l0,0c-0.5,0-0.9,0.4-0.9,0.9l0,1.2
				C93.1,83.2,93.5,83.5,93.9,83.5z"/>
			<path class="st13" d="M101.7,74.3c0,1.6,1.3,2.9,2.9,2.9c1.6,0,2.9-1.3,2.9-2.9l0-2.9l-5.8,0L101.7,74.3z"/>
			<g>
				<rect x="98.5" y="86.9" class="st11" width="12.1" height="10.2"/>
				<path class="st12" d="M110.2,87.4v9.2H99v-9.2H110.2 M111.2,86.4H98v11.2h13.1V86.4L111.2,86.4z"/>
			</g>
			<g>
				<rect x="98.3" y="97.1" class="st11" width="12.6" height="1.8"/>
				<path class="st12" d="M110.4,97.6v0.8H98.8v-0.8H110.4 M111.4,96.6H97.8v2.8h13.6V96.6L111.4,96.6z"/>
			</g>
			<g>
				<rect x="90.7" y="70.5" class="st11" width="27.8" height="1.8"/>
				<path class="st12" d="M118,71v0.8H91.2V71H118 M119,70H90.2v2.8H119V70L119,70z"/>
			</g>
		</g>
		<circle class="st13" cx="475.7" cy="101.5" r="10"/>
		<g>
			<g>
				<rect x="633.9" y="357" class="st11" width="1.8" height="49.8"/>
				<path class="st12" d="M635.2,357.5v48.8h-0.8v-48.8H635.2 M636.2,356.5h-2.8v50.8h2.8V356.5L636.2,356.5z"/>
			</g>
			<g>
				<rect x="635.7" y="357" class="st11" width="17.1" height="49.8"/>
				<path class="st12" d="M636.2,357.5l16.1,0v48.8h-16.1V357.5 M635.2,356.5v50.8h18.1v-50.8L635.2,356.5L635.2,356.5z"/>
			</g>
			<path class="st13" d="M652.7,407.1l-16.9-50.5"/>
		</g>
		<circle class="st13" cx="620.6" cy="381.9" r="10"/>
		<g id="TV">
			<g id="Rectangle_16">
				<rect x="631.4" y="155.4" class="st11" width="1.8" height="47.1"/>
				<path class="st12" d="M632.7,155.9V202h-0.8v-46.1H632.7 M633.7,154.9h-2.8V203h2.8V154.9L633.7,154.9z"/>
			</g>
			<g id="Rectangle_15">
				<rect x="633.2" y="155.4" class="st11" width="10.6" height="47.1"/>
				<path class="st12" d="M643.3,155.9V202h-9.6v-46.1H643.3 M644.3,154.9h-11.6V203h11.6V154.9L644.3,154.9z"/>
			</g>
			<path id="Rectangle_18_x5F_2" class="st13" d="M642.1,185.7v-13.5l1.6,1.2v11.1L642.1,185.7z"/>
			<g id="Rectangle_16_1_">
				<rect x="640.2" y="163.9" class="st11" width="1.8" height="30"/>
				<path class="st12" d="M641.6,164.4v29h-0.8v-29H641.6 M642.6,163.4h-2.8v31h2.8V163.4L642.6,163.4z"/>
			</g>
		</g>
		<g>
			<g>
				<rect x="105.2" y="134.5" class="st11" width="62" height="51.5"/>
				<path class="st12" d="M166.7,135v50.5l-61,0l0-50.5H166.7 M167.7,134h-63l0,52.5l63,0V134L167.7,134z"/>
			</g>
			<rect x="147.7" y="161.6" class="st13" width="15.6" height="20.5"/>
			<rect x="147.7" y="138.5" class="st13" width="15.6" height="20.5"/>
			<polygon class="st14" points="154,179.6 158,164.8 143,160.8 138.9,175.6 			"/>
			<polygon class="st14" points="143,159.7 158,155.8 154,140.9 138.9,144.9 			"/>
			<g>
				<polygon class="st11" points="104.6,186.1 104.6,134.5 154.1,134.5 155.4,155 150.8,186.1 				"/>
				<path class="st12" d="M105.1,135l48.5,0h0.1l1.3,20l-4.5,30.5l-45.3,0L105.1,135 M104.1,134l0,52.5l46.8,0h0.3l4.6-31.5l-1.3-21
					h-1L104.1,134L104.1,134z"/>
			</g>
			<polyline class="st15" points="152.9,134.7 152.9,155.3 150.3,186 			"/>
		</g>
		<g id="TV_1_">
			<g id="Rectangle_16_5_">
				<rect x="80.5" y="139.4" class="st11" width="1.8" height="47.1"/>
				<path class="st12" d="M81.8,139.9v46.1H81v-46.1H81.8 M82.8,138.9H80v48.1h2.8V138.9L82.8,138.9z"/>
			</g>
			<g id="Rectangle_15_1_">
				<rect x="70" y="139.4" class="st11" width="10.6" height="47.1"/>
				<path class="st12" d="M80,139.9v46.1h-9.6v-46.1H80 M81,138.9H69.5v48.1H81V138.9L81,138.9z"/>
			</g>
			<path id="Rectangle_18_x5F_2_1_" class="st13" d="M71.6,169.7v-13.5l-1.6,1.2v11.1L71.6,169.7z"/>
			<g id="Rectangle_16_2_">
				<rect x="71.6" y="147.9" class="st11" width="1.8" height="30"/>
				<path class="st12" d="M73,148.4v29h-0.8v-29H73 M74,147.4h-2.8v31H74V147.4L74,147.4z"/>
			</g>
		</g>
	</g>
	<g id="street_anchors">
		<rect id="street_x5F_anchor_x5F_01_1_" x="355" y="20.5" class="st18" width="10" height="10"/>
		<rect id="street_x5F_anchor_x5F_02_1_" x="355" y="449.5" class="st18" width="10" height="10"/>
		<rect id="street_x5F_anchor_x5F_03" x="690" y="235" class="st18" width="10" height="10"/>
	</g>
</g>
<g id="комнаты">
	<g>
		<g>
			<path class="st10" d="M103.2,203.2l1.7-1h1.2v7.3h-1.3v-5.6l-1.3,0.7L103.2,203.2z"/>
			<path class="st10" d="M107.5,207.4c0-1,0.5-1.6,1.2-1.9c-0.5-0.2-0.9-0.7-0.9-1.5c0-1.4,1.4-2.1,2.5-2.1c1.1,0,2.5,0.7,2.5,2.1
				c0,0.7-0.3,1.2-0.9,1.4c0.6,0.3,1.2,0.9,1.2,1.9c0,1.5-1.4,2.4-2.8,2.4C108.9,209.8,107.5,208.9,107.5,207.4z M111.7,207.2
				c0-0.7-0.8-1-1.4-1c-0.6,0-1.4,0.3-1.4,1c0,0.7,0.7,1.1,1.4,1.1C111,208.3,111.7,207.9,111.7,207.2z M111.4,204.2
				c0-0.6-0.6-0.9-1.1-0.9c-0.5,0-1.1,0.3-1.1,0.9c0,0.5,0.4,0.8,1.1,0.8C111,204.9,111.4,204.6,111.4,204.2z"/>
			<path class="st10" d="M115.1,207.5c0.5,0,0.9,0.5,0.9,1.1c0,0.6-0.4,1.1-0.9,1.1c-0.5,0-0.9-0.5-0.9-1.1
				C114.2,208,114.6,207.5,115.1,207.5z"/>
			<path class="st10" d="M116.9,208.7l0.6-1.2c0.4,0.3,1.2,0.9,2.2,0.9c0.7,0,1.5-0.4,1.5-1.3c0-0.7-0.5-1-1.1-1
				c-0.7,0-1.3,0.3-1.8,0.7l-0.8-0.7v-3.8h4.5v1.5h-3.3v1.7c0.5-0.4,0.9-0.7,1.6-0.7c1.1,0,2.3,0.8,2.3,2.4c0,2-1.5,2.7-2.8,2.7
				C118.3,209.8,117.4,209.1,116.9,208.7z"/>
		</g>
	</g>
	<g>
		<g>
			<path class="st10" d="M107.7,287.3h0.9c0.4,0,0.7-0.3,0.7-0.7c0-0.6-0.5-0.9-1-0.9c-0.7,0-1.4,0.5-1.9,1.1l-0.7-1.1
				c0.6-0.7,1.5-1.5,2.6-1.5c1,0,2.3,0.6,2.3,2.1c0,0.6-0.3,1.1-0.6,1.4c0.5,0.2,1,0.7,1,1.8c0,1.6-1.3,2.6-2.9,2.6
				c-1.1,0-2.1-0.5-2.9-1.5l0.7-1.2c0.6,0.7,1.2,1.2,2.2,1.2c0.9,0,1.5-0.5,1.5-1.2c0-0.6-0.5-0.7-0.9-0.7h-1.1V287.3z"/>
			<path class="st10" d="M113,289.8c0.5,0,0.9,0.5,0.9,1.1c0,0.6-0.4,1.1-0.9,1.1c-0.5,0-0.9-0.5-0.9-1.1
				C112.1,290.3,112.5,289.8,113,289.8z"/>
			<path class="st10" d="M114.8,291l0.6-1.2c0.4,0.3,1.2,0.9,2.2,0.9c0.7,0,1.5-0.4,1.5-1.3c0-0.7-0.5-1-1.1-1
				c-0.7,0-1.3,0.3-1.8,0.7l-0.8-0.7v-3.8h4.5v1.5h-3.3v1.7c0.5-0.4,0.9-0.7,1.6-0.7c1.1,0,2.3,0.8,2.3,2.4c0,2-1.5,2.7-2.8,2.7
				C116.3,292.1,115.3,291.4,114.8,291z"/>
		</g>
	</g>
	<g>
		<g>
			<path class="st10" d="M597.5,164.6c0-1.8,1.1-2.6,2.5-3.1c0.3-0.1,1-0.4,1-1.1c0-0.6-0.5-0.7-0.9-0.7c-0.8,0-1.3,0.5-1.9,1.1
				l-0.7-1.2c0.7-0.7,1.4-1.4,2.5-1.4c1.1,0,2.3,0.6,2.3,2.2c0,1.7-1.2,2.2-2.2,2.5c-0.8,0.3-1.3,0.7-1.3,1.4v0.1h3.3v1.4h-4.7
				V164.6z"/>
			<path class="st10" d="M603,159.5l1.7-1h1.2v7.3h-1.3v-5.6l-1.3,0.7L603,159.5z"/>
		</g>
	</g>
	<g>
		<g>
			<path class="st10" d="M441.7,139.1l1.7-1h1.2v7.3h-1.3v-5.6l-1.3,0.7L441.7,139.1z"/>
			<path class="st10" d="M445.9,138.2h5.1v1.4l-2.9,5.9h-1.7l3-5.8h-3.5V138.2z"/>
		</g>
	</g>
	<g>
		<g>
			<path class="st10" d="M439.2,357.6l0.6-1.2c0.4,0.3,1.2,0.9,2.2,0.9c0.8,0,1.5-0.4,1.5-1.3c0-0.7-0.5-1-1.1-1
				c-0.8,0-1.3,0.3-1.8,0.7l-0.8-0.7v-3.8h4.5v1.5h-3.3v1.7c0.5-0.4,0.9-0.7,1.6-0.7c1.1,0,2.3,0.8,2.3,2.4c0,2-1.5,2.7-2.8,2.7
				C440.6,358.7,439.7,358,439.2,357.6z"/>
		</g>
	</g>
	<g>
		<g>
			<path class="st10" d="M435,288.5h-1v1.5h-1.3v-1.5h-3.8v-1.1l4-4.7h1.2v4.5h1V288.5z M430.7,287.2h2v-2.4h-0.1
				C432,285.6,431.3,286.4,430.7,287.2L430.7,287.2z"/>
			<path class="st10" d="M436.8,288.1c0.5,0,0.9,0.5,0.9,1.1c0,0.6-0.4,1.1-0.9,1.1c-0.5,0-0.9-0.5-0.9-1.1
				C436,288.6,436.3,288.1,436.8,288.1z"/>
			<path class="st10" d="M438.7,289.2l0.6-1.2c0.4,0.3,1.2,0.9,2.2,0.9c0.8,0,1.5-0.4,1.5-1.3c0-0.7-0.5-1-1.1-1
				c-0.8,0-1.3,0.3-1.8,0.7l-0.8-0.7v-3.8h4.5v1.5h-3.3v1.7c0.5-0.4,0.9-0.7,1.6-0.7c1.1,0,2.3,0.8,2.3,2.4c0,2-1.5,2.7-2.8,2.7
				C440.1,290.3,439.2,289.6,438.7,289.2z"/>
		</g>
	</g>
	<g>
		<g>
			<path class="st10" d="M353.2,290.6c0-1.8,1.1-2.6,2.5-3.1c0.3-0.1,1-0.4,1-1.1c0-0.6-0.5-0.7-0.9-0.7c-0.8,0-1.3,0.5-1.9,1.1
				l-0.7-1.2c0.7-0.7,1.4-1.4,2.5-1.4c1.1,0,2.3,0.6,2.3,2.2c0,1.7-1.2,2.2-2.2,2.5c-0.8,0.3-1.3,0.7-1.3,1.4v0.1h3.3v1.4h-4.7
				V290.6z"/>
			<path class="st10" d="M360,289.8c0.5,0,0.9,0.5,0.9,1.1c0,0.6-0.4,1.1-0.9,1.1c-0.5,0-0.9-0.5-0.9-1.1
				C359.1,290.3,359.5,289.8,360,289.8z"/>
			<path class="st10" d="M362.1,290.6c0-1.8,1.1-2.6,2.5-3.1c0.3-0.1,1-0.4,1-1.1c0-0.6-0.5-0.7-0.9-0.7c-0.8,0-1.3,0.5-1.9,1.1
				l-0.7-1.2c0.7-0.7,1.4-1.4,2.5-1.4c1.1,0,2.3,0.6,2.3,2.2c0,1.7-1.2,2.2-2.2,2.5c-0.8,0.3-1.3,0.7-1.3,1.4v0.1h3.3v1.4h-4.7
				V290.6z"/>
		</g>
	</g>
	<g>
		<g>
			<path class="st10" d="M226.5,286.1c-0.4-0.3-1-0.4-1.5-0.4c-1,0-1.9,0.8-2,2.4c0.5-0.5,1.2-1,2.1-1c1.5,0,2.2,1.2,2.2,2.3
				c0,1.5-1,2.7-2.5,2.7c-1.5,0-3-1.3-3-3.8c0-2.5,1.5-4,3.2-4c1,0,1.7,0.4,2.1,0.7L226.5,286.1z M223.1,289.1
				c0.2,1,0.9,1.5,1.7,1.5c0.7,0,1.2-0.6,1.2-1.3c0-0.5-0.3-1-1.1-1C224.2,288.3,223.6,288.7,223.1,289.1z"/>
			<path class="st10" d="M229.3,289.8c0.5,0,0.9,0.5,0.9,1.1c0,0.6-0.4,1.1-0.9,1.1c-0.5,0-0.9-0.5-0.9-1.1
				C228.4,290.3,228.8,289.8,229.3,289.8z"/>
			<path class="st10" d="M236,286.1c-0.4-0.3-1-0.4-1.5-0.4c-1,0-1.9,0.8-2,2.4c0.5-0.5,1.2-1,2.1-1c1.5,0,2.2,1.2,2.2,2.3
				c0,1.5-1,2.7-2.5,2.7c-1.5,0-3-1.3-3-3.8c0-2.5,1.5-4,3.2-4c1,0,1.7,0.4,2.1,0.7L236,286.1z M232.6,289.1c0.2,1,0.9,1.5,1.7,1.5
				c0.7,0,1.2-0.6,1.2-1.3c0-0.5-0.3-1-1.1-1C233.7,288.3,233.1,288.7,232.6,289.1z"/>
		</g>
	</g>
	<g>
		<g>
			<path class="st10" d="M215.1,120.2l1.7-1h1.2v7.3h-1.3v-5.6l-1.3,0.7L215.1,120.2z"/>
			<path class="st10" d="M219.5,124.4c0-1,0.5-1.6,1.2-1.9c-0.5-0.2-0.9-0.7-0.9-1.5c0-1.4,1.4-2.1,2.5-2.1c1.1,0,2.5,0.7,2.5,2.1
				c0,0.7-0.3,1.2-0.9,1.4c0.6,0.3,1.2,0.9,1.2,1.9c0,1.5-1.4,2.4-2.8,2.4C220.8,126.8,219.5,125.9,219.5,124.4z M223.6,124.3
				c0-0.7-0.8-1-1.4-1c-0.6,0-1.4,0.3-1.4,1c0,0.7,0.7,1.1,1.4,1.1C223,125.3,223.6,124.9,223.6,124.3z M223.3,121.2
				c0-0.6-0.6-0.9-1.1-0.9c-0.5,0-1.1,0.3-1.1,0.9c0,0.5,0.4,0.8,1.1,0.8C223,121.9,223.3,121.7,223.3,121.2z"/>
			<path class="st10" d="M227,124.5c0.5,0,0.9,0.5,0.9,1.1c0,0.6-0.4,1.1-0.9,1.1c-0.5,0-0.9-0.5-0.9-1.1
				C226.1,125,226.5,124.5,227,124.5z"/>
			<path class="st10" d="M233.7,120.8c-0.4-0.3-1-0.4-1.5-0.4c-1,0-1.9,0.8-2,2.4c0.5-0.5,1.2-1,2.1-1c1.5,0,2.2,1.2,2.2,2.3
				c0,1.5-1,2.7-2.5,2.7c-1.5,0-3-1.3-3-3.8c0-2.5,1.5-4,3.2-4c1,0,1.7,0.4,2.1,0.7L233.7,120.8z M230.4,123.8
				c0.2,1,0.9,1.5,1.7,1.5c0.7,0,1.2-0.6,1.2-1.3c0-0.5-0.3-1-1.1-1C231.5,123.1,230.9,123.4,230.4,123.8z"/>
		</g>
	</g>
	<g>
		<g>
			<path class="st10" d="M274.9,193.4c0-1.8,1.1-2.6,2.5-3.1c0.3-0.1,1-0.4,1-1.1c0-0.6-0.5-0.7-0.9-0.7c-0.8,0-1.3,0.5-1.9,1.1
				l-0.7-1.2c0.7-0.7,1.4-1.4,2.5-1.4c1.1,0,2.3,0.6,2.3,2.2c0,1.7-1.2,2.2-2.2,2.5c-0.8,0.3-1.3,0.7-1.3,1.4v0.1h3.3v1.4h-4.7
				V193.4z"/>
			<path class="st10" d="M281.6,193c0.4,0.3,1,0.4,1.5,0.4c1,0,1.9-0.8,2-2.3c-0.5,0.5-1.2,1-2.1,1c-1.5,0-2.2-1.2-2.2-2.4
				c0-1.5,1.1-2.7,2.5-2.7c1.5,0,3,1.3,3,3.8c0,2.5-1.5,4-3.2,4c-1,0-1.7-0.4-2.1-0.7L281.6,193z M284.9,190c-0.2-1-0.9-1.5-1.7-1.5
				c-0.7,0-1.2,0.6-1.2,1.2c0,0.5,0.3,1,1.1,1C283.8,190.8,284.4,190.4,284.9,190z"/>
			<path class="st10" d="M288.3,192.6c0.5,0,0.9,0.5,0.9,1.1c0,0.6-0.4,1.1-0.9,1.1c-0.5,0-0.9-0.5-0.9-1.1
				C287.4,193.1,287.8,192.6,288.3,192.6z"/>
			<path class="st10" d="M290.3,192.4c0-1,0.5-1.6,1.2-1.9c-0.5-0.2-0.9-0.7-0.9-1.5c0-1.4,1.4-2.1,2.5-2.1c1.1,0,2.5,0.7,2.5,2.1
				c0,0.7-0.3,1.2-0.9,1.4c0.6,0.3,1.2,0.9,1.2,1.9c0,1.5-1.4,2.4-2.8,2.4C291.6,194.9,290.3,194,290.3,192.4z M294.5,192.3
				c0-0.7-0.8-1-1.4-1s-1.4,0.3-1.4,1c0,0.7,0.7,1.1,1.4,1.1C293.8,193.4,294.5,193,294.5,192.3z M294.1,189.2
				c0-0.6-0.6-0.9-1.1-0.9c-0.5,0-1.1,0.3-1.1,0.9c0,0.5,0.4,0.8,1.1,0.8C293.8,190,294.1,189.7,294.1,189.2z"/>
		</g>
	</g>
	<g>
		<g>
			<path class="st10" d="M545.5,311.1c0-1.8,1.1-2.6,2.5-3.1c0.3-0.1,1-0.4,1-1.1c0-0.6-0.5-0.7-0.9-0.7c-0.8,0-1.3,0.5-1.9,1.1
				l-0.7-1.2c0.7-0.7,1.4-1.4,2.5-1.4c1.1,0,2.3,0.6,2.3,2.2c0,1.7-1.2,2.2-2.2,2.5c-0.8,0.3-1.3,0.7-1.3,1.4v0.1h3.3v1.4h-4.7
				V311.1z"/>
			<path class="st10" d="M554.4,304.7c1.6,0,3,1.7,3,3.9c0,2.2-1.4,3.9-3,3.9c-1.7,0-3-1.7-3-3.9
				C551.4,306.4,552.7,304.7,554.4,304.7z M554.4,311c0.9,0,1.7-1.1,1.7-2.4c0-1.3-0.8-2.4-1.7-2.4c-1,0-1.7,1.1-1.7,2.4
				C552.7,309.9,553.4,311,554.4,311z"/>
			<path class="st10" d="M559.4,310.2c0.5,0,0.9,0.5,0.9,1.1c0,0.6-0.4,1.1-0.9,1.1c-0.5,0-0.9-0.5-0.9-1.1
				C558.5,310.8,558.9,310.2,559.4,310.2z"/>
			<path class="st10" d="M561.3,304.9h5.1v1.4l-2.9,5.9h-1.7l3-5.8h-3.5V304.9z"/>
		</g>
	</g>
</g>
</svg>
