<?xml version="1.0" encoding="utf-8"?>
<!-- Generator: Adobe Illustrator 26.0.3, SVG Export Plug-In . SVG Version: 6.00 Build 0)  -->
<svg version="1.1" xmlns="http://www.w3.org/2000/svg" xmlns:xlink="http://www.w3.org/1999/xlink" x="0px" y="0px"
	 viewBox="0 0 720 480" style="enable-background:new 0 0 720 480;" xml:space="preserve">
<style type="text/css">
	.st0{fill:#DBD4CA;}
	.st1{clip-path:url(#SVGID_00000097469031603815639320000006261797261847850385_);}
	.st2{fill:none;stroke:#C49F8A;stroke-miterlimit:10;}
	.st3{opacity:0.3;clip-path:url(#SVGID_00000132088560362679506960000004981772506619913366_);}
	.st4{opacity:0.7;fill:#C49F8A;enable-background:new    ;}
	.st5{fill:none;stroke:#565440;}
	.st6{fill:#565440;}
	.st7{fill:#E9E4DC;}
	.st8{fill:#C49F8A;}
	.st9{fill:#E9E4DC;stroke:#C49F8A;}
	.st10{fill:#E9E4DC;stroke:#C49F8A;stroke-width:1;stroke-miterlimit:3.9997;}
	.st11{fill:none;stroke:#C49F8A;}
	.st12{fill:#E9E4DC;stroke:#C49F8A;stroke-miterlimit:3.9998;}
	.st13{fill:#E9E4DC;stroke:#C49F8A;stroke-linejoin:round;}
	.st14{opacity:0;}
	.st15{fill:#3F3F3F;fill-opacity:0;}
</style>
<g id="_x31__x5F_2">
	<rect id="Floor" x="140.5" y="68.3" class="st0" width="442.4" height="351.7"/>
	<g id="Wet_Floor_1_">
		<g>
			<g>
				<defs>
					<rect id="SVGID_1_" x="318.6" y="281.4" width="169.7" height="129.6"/>
				</defs>
				<clipPath id="SVGID_00000110436174717252933190000014463990975307852696_">
					<use xlink:href="#SVGID_1_"  style="overflow:visible;"/>
				</clipPath>
				<g style="clip-path:url(#SVGID_00000110436174717252933190000014463990975307852696_);">
					<g>
						<line class="st2" x1="78.9" y1="296" x2="412.4" y2="-37.5"/>
						<line class="st2" x1="68.5" y1="285.6" x2="401.9" y2="-47.9"/>
						<line class="st2" x1="89.3" y1="306.4" x2="422.8" y2="-27"/>
						<line class="st2" x1="99.7" y1="316.9" x2="433.2" y2="-16.6"/>
						<line class="st2" x1="110.1" y1="327.3" x2="443.6" y2="-6.2"/>
						<line class="st2" x1="120.6" y1="337.7" x2="454.1" y2="4.2"/>
						<line class="st2" x1="131" y1="348.1" x2="464.5" y2="14.6"/>
						<line class="st2" x1="141.4" y1="358.5" x2="474.9" y2="25.1"/>
						<line class="st2" x1="151.8" y1="369" x2="485.3" y2="35.5"/>
						<line class="st2" x1="162.3" y1="379.4" x2="495.7" y2="45.9"/>
						<line class="st2" x1="151.8" y1="369" x2="485.3" y2="35.5"/>
						<line class="st2" x1="172.7" y1="389.8" x2="506.2" y2="56.3"/>
						<line class="st2" x1="183.1" y1="400.2" x2="516.6" y2="66.7"/>
						<line class="st2" x1="193.5" y1="410.7" x2="527" y2="77.2"/>
						<line class="st2" x1="203.9" y1="421.1" x2="537.4" y2="87.6"/>
						<line class="st2" x1="214.4" y1="431.5" x2="547.8" y2="98"/>
						<line class="st2" x1="224.8" y1="441.9" x2="558.3" y2="108.4"/>
						<line class="st2" x1="235.2" y1="452.3" x2="568.7" y2="118.9"/>
						<line class="st2" x1="245.6" y1="462.8" x2="579.1" y2="129.3"/>
						<line class="st2" x1="235.2" y1="452.3" x2="568.7" y2="118.9"/>
						<line class="st2" x1="256" y1="473.2" x2="589.5" y2="139.7"/>
						<line class="st2" x1="266.5" y1="483.6" x2="600" y2="150.1"/>
						<line class="st2" x1="276.9" y1="494" x2="610.4" y2="160.5"/>
						<line class="st2" x1="287.3" y1="504.4" x2="620.8" y2="171"/>
						<line class="st2" x1="297.7" y1="514.9" x2="631.2" y2="181.4"/>
						<line class="st2" x1="308.2" y1="525.3" x2="641.6" y2="191.8"/>
						<line class="st2" x1="318.6" y1="535.7" x2="652.1" y2="202.2"/>
						<line class="st2" x1="329" y1="546.1" x2="662.5" y2="212.6"/>
						<line class="st2" x1="318.6" y1="535.7" x2="652.1" y2="202.2"/>
						<line class="st2" x1="339.4" y1="556.5" x2="672.9" y2="223.1"/>
						<line class="st2" x1="349.8" y1="567" x2="683.3" y2="233.5"/>
						<line class="st2" x1="360.3" y1="577.4" x2="693.7" y2="243.9"/>
						<line class="st2" x1="370.7" y1="587.8" x2="704.2" y2="254.3"/>
						<line class="st2" x1="381.1" y1="598.2" x2="714.6" y2="264.8"/>
						<line class="st2" x1="391.5" y1="608.7" x2="725" y2="275.2"/>
						<line class="st2" x1="401.9" y1="619.1" x2="735.4" y2="285.6"/>
					</g>
					<g>
						<line class="st2" x1="412.4" y1="608.7" x2="78.9" y2="275.2"/>
						<line class="st2" x1="401.9" y1="619.1" x2="68.5" y2="285.6"/>
						<line class="st2" x1="422.8" y1="598.2" x2="89.3" y2="264.8"/>
						<line class="st2" x1="433.2" y1="587.8" x2="99.7" y2="254.3"/>
						<line class="st2" x1="443.6" y1="577.4" x2="110.1" y2="243.9"/>
						<line class="st2" x1="454.1" y1="567" x2="120.6" y2="233.5"/>
						<line class="st2" x1="464.5" y1="556.5" x2="131" y2="223.1"/>
						<line class="st2" x1="474.9" y1="546.1" x2="141.4" y2="212.6"/>
						<line class="st2" x1="485.3" y1="535.7" x2="151.8" y2="202.2"/>
						<line class="st2" x1="495.7" y1="525.3" x2="162.3" y2="191.8"/>
						<line class="st2" x1="485.3" y1="535.7" x2="151.8" y2="202.2"/>
						<line class="st2" x1="506.2" y1="514.9" x2="172.7" y2="181.4"/>
						<line class="st2" x1="516.6" y1="504.4" x2="183.1" y2="171"/>
						<line class="st2" x1="527" y1="494" x2="193.5" y2="160.5"/>
						<line class="st2" x1="537.4" y1="483.6" x2="203.9" y2="150.1"/>
						<line class="st2" x1="547.8" y1="473.2" x2="214.4" y2="139.7"/>
						<line class="st2" x1="558.3" y1="462.8" x2="224.8" y2="129.3"/>
						<line class="st2" x1="568.7" y1="452.3" x2="235.2" y2="118.9"/>
						<line class="st2" x1="579.1" y1="441.9" x2="245.6" y2="108.4"/>
						<line class="st2" x1="568.7" y1="452.3" x2="235.2" y2="118.9"/>
						<line class="st2" x1="589.5" y1="431.5" x2="256" y2="98"/>
						<line class="st2" x1="600" y1="421.1" x2="266.5" y2="87.6"/>
						<line class="st2" x1="610.4" y1="410.6" x2="276.9" y2="77.2"/>
						<line class="st2" x1="620.8" y1="400.2" x2="287.3" y2="66.7"/>
						<line class="st2" x1="631.2" y1="389.8" x2="297.7" y2="56.3"/>
						<line class="st2" x1="641.6" y1="379.4" x2="308.2" y2="45.9"/>
						<line class="st2" x1="652.1" y1="369" x2="318.6" y2="35.5"/>
						<line class="st2" x1="662.5" y1="358.5" x2="329" y2="25.1"/>
						<line class="st2" x1="652.1" y1="369" x2="318.6" y2="35.5"/>
						<line class="st2" x1="672.9" y1="348.1" x2="339.4" y2="14.6"/>
						<line class="st2" x1="683.3" y1="337.7" x2="349.8" y2="4.2"/>
						<line class="st2" x1="693.7" y1="327.3" x2="360.3" y2="-6.2"/>
						<line class="st2" x1="704.2" y1="316.9" x2="370.7" y2="-16.6"/>
						<line class="st2" x1="714.6" y1="306.4" x2="381.1" y2="-27"/>
						<line class="st2" x1="725" y1="296" x2="391.5" y2="-37.5"/>
						<line class="st2" x1="735.4" y1="285.6" x2="401.9" y2="-47.9"/>
					</g>
				</g>
			</g>
		</g>
		<g>
			<g>
				<defs>
					<rect id="SVGID_00000022545173389604718630000000809506078615437492_" x="318.6" y="281.4" width="169.7" height="129.6"/>
				</defs>
				<clipPath id="SVGID_00000087391362298531555280000005490682125156512391_">
					<use xlink:href="#SVGID_00000022545173389604718630000000809506078615437492_"  style="overflow:visible;"/>
				</clipPath>
				<g style="opacity:0.3;clip-path:url(#SVGID_00000087391362298531555280000005490682125156512391_);">
					<rect x="240.9" y="114.1" class="st4" width="322.2" height="322.2"/>
				</g>
			</g>
		</g>
	</g>
	<path id="Windows" class="st5" d="M581,68.3v-6.2H134.5v347.6h6.2V68.3L581,68.3L581,68.3z"/>
	<path id="Doors" class="st5" d="M306.2,229.7c0-4.6,0.8-8.3,2.5-12.4c1.7-4.1,4.1-7.9,7-10.8c2.9-3.3,6.6-5.8,10.8-7.4
		c4.1-1.7,8.3-2.5,12.8-2.5v33.1 M289.7,275.2c-4.6,0-8.3-0.8-12.4-2.5s-7.9-4.1-10.8-7c-3.3-2.9-5.8-6.6-7.4-10.8
		c-1.7-4.1-2.5-8.3-2.5-12.8h33.1 M318.6,333.1c-4.6,0-8.3,0.8-12.4,2.5s-7.9,4.1-10.8,7c-3.3,2.9-5.8,6.6-7.4,10.8
		c-1.7,4.1-2.5,8.3-2.5,12.8h33.1 M484.1,337.2c-4.6,0-8.3-0.8-12.4-2.5s-7.9-4.1-10.8-7c-3.3-2.9-5.8-6.6-7.4-10.8
		c-1.7-4.1-2.5-8.3-2.5-12.8h33.1 M525.5,407.6c0-5.4,1.2-10.3,3.3-15.3s5-9.9,9.1-13.7c3.7-3.7,8.3-7,13.2-9.1
		c5-2.1,10.3-3.3,15.7-3.3v41.4"/>
	<g id="Walls">
		<path class="st6" d="M587.6,60h-41.4v29h29v213.1H560v16.6h15.2v89h-8.3V420h20.7L587.6,60z M564.2,314.5v-8.3h11v8.3H564.2z"/>
		<rect x="455.2" y="60" class="st6" width="29" height="20.7"/>
		<polygon class="st6" points="360,89 360,229.7 339.3,229.7 339.3,233.8 364.1,233.8 364.1,89 397.2,89 397.2,60 281.4,60 
			281.4,89 		"/>
		<polygon class="st6" points="132.4,271 153.1,271 153.1,233.8 289.7,233.8 289.7,242.1 293.8,242.1 293.8,233.8 306.2,233.8 
			306.2,229.7 153.1,229.7 153.1,184.1 161.4,184.1 161.4,155.2 132.4,155.2 		"/>
		<rect x="194.5" y="60" class="st6" width="29" height="29"/>
		<path class="st6" d="M488.3,337.2h-4.1v70.3h-82.8V283.4h82.8v20.7h4.1v-24.8H293.8v-4.1h-4.1v8.3h29v49.7h4.1v-49.7h74.5v124.1
			h-60.5v-14.1h-13.9v-27.3h-4.1v41.4H161.6V329h-29v91h393.1v-12.4h-37.2v-70.4H488.3z M322.8,397.7h9.8v9.9h-9.8V397.7z"/>
	</g>
	<g id="Furniture">
		<g>
			<g>
				<rect x="172.9" y="323.9" class="st7" width="70.3" height="83.2"/>
				<path class="st8" d="M242.8,324.4v82.2h-69.3v-82.2L242.8,324.4 M243.8,323.4h-71.3v84.2h71.3V323.4L243.8,323.4z"/>
			</g>
			<rect x="209.8" y="380.8" class="st9" width="27.8" height="20.8"/>
			<rect x="178.5" y="380.8" class="st9" width="27.8" height="20.8"/>
			
				<rect x="211.1" y="371.5" transform="matrix(0.9659 -0.2588 0.2588 0.9659 -91.2902 70.3339)" class="st10" width="20.8" height="20.8"/>
			
				<rect x="184.1" y="371.6" transform="matrix(0.2588 -0.9659 0.9659 0.2588 -224.7672 470.9878)" class="st10" width="20.8" height="20.8"/>
			<g>
				<polygon class="st7" points="172.9,389.5 172.9,323.1 243.2,323.1 243.2,385.1 201,391.3 				"/>
				<path class="st8" d="M242.7,323.6v61.1l-41.8,6.1l-27.5-1.7v-0.4v-65.1H242.7 M243.7,322.6h-71.3v66.1v1.3l28.5,1.8l42.8-6.2
					v-0.4V322.6L243.7,322.6z"/>
			</g>
			<polyline class="st11" points="173.4,387.8 201.2,387.8 243,384.4 			"/>
		</g>
		<g>
			<g>
				<rect x="228.3" y="141.9" class="st7" width="53.5" height="87.3"/>
				<path class="st8" d="M281.4,142.4v86.3h-52.5v-86.3H281.4 M282.4,141.4h-54.5v88.3h54.5V141.4L282.4,141.4z"/>
			</g>
			<rect x="256.4" y="201.5" class="st9" width="21.3" height="21.8"/>
			<rect x="232.5" y="201.5" class="st9" width="21.3" height="21.8"/>
			<polygon class="st12" points="275.1,210.4 259.7,216.1 255.6,195 271,189.3 			"/>
			<polygon class="st12" points="254.5,195 250.4,216.1 235,210.4 239.1,189.3 			"/>
			<g>
				<polygon class="st7" points="228.3,210.7 228.3,141 281.9,141 281.9,206.1 249.6,212.5 				"/>
				<path class="st8" d="M281.4,141.5v64.2l-31.8,6.3l-20.8-1.8v-0.5v-68.2H281.4 M282.4,140.5h-54.5v69.2v1.4l21.8,1.9l32.7-6.5
					V206V140.5L282.4,140.5z"/>
			</g>
			<polyline class="st11" points="228.6,208.9 249.9,208.9 281.8,205.3 			"/>
		</g>
		<g>
			<g>
				<rect x="560.5" y="319.1" class="st7" width="1.8" height="21.5"/>
				<path class="st8" d="M561.9,319.6v20.5H561v-20.5H561.9 M562.9,318.6H560v22.5h2.8L562.9,318.6L562.9,318.6z"/>
			</g>
			<g>
				<rect x="562.4" y="319.1" class="st7" width="12.4" height="21.5"/>
				<path class="st8" d="M574.2,319.6v20.5h-11.4v-20.5H574.2 M575.2,318.6h-13.4v22.5h13.4V318.6L575.2,318.6z"/>
			</g>
			<path class="st9" d="M574.8,340.5l-12.5-21.4"/>
		</g>
		<g>
			<g>
				<rect x="511.3" y="362.4" class="st7" width="1.8" height="44.7"/>
				<path class="st8" d="M512.7,362.9v43.7h-0.8v-43.7H512.7 M513.7,361.9h-2.8v45.7h2.8V361.9L513.7,361.9z"/>
			</g>
			<g>
				<rect x="488.8" y="362.4" class="st7" width="22.5" height="44.7"/>
				<path class="st8" d="M510.8,362.9v43.7h-21.5v-43.7H510.8 M511.8,361.9h-23.5v45.7h23.5V361.9L511.8,361.9z"/>
			</g>
			<path class="st9" d="M489,363l22,43.6"/>
		</g>
		<g>
			<g>
				<rect x="335.1" y="89.3" class="st7" width="1.8" height="100.7"/>
				<path class="st8" d="M335.6,89.8h0.8v99.7h-0.8V89.8 M334.6,88.8v101.7h2.8V88.8H334.6L334.6,88.8z"/>
			</g>
			<g>
				<rect x="337" y="89.3" class="st7" width="22.5" height="100.7"/>
				<path class="st8" d="M337.5,89.8H359v99.7h-21.5V89.8 M336.5,88.8v101.7H360V88.8H336.5L336.5,88.8z"/>
			</g>
			<path class="st9" d="M359.2,190.1L337.2,89"/>
		</g>
		<g>
			<g>
				<rect x="293.7" y="370.3" class="st7" width="1.8" height="36.9"/>
				<path class="st8" d="M295.1,370.8v35.9h-0.8v-35.9H295.1 M296.1,369.8h-2.8v37.9h2.8V369.8L296.1,369.8z"/>
			</g>
			<g>
				<rect x="295.6" y="370.3" class="st7" width="22.5" height="36.9"/>
				<path class="st8" d="M296.1,370.8h21.5v35.9h-21.5V370.8 M295.1,369.8v37.9h23.5v-37.9H295.1L295.1,369.8z"/>
			</g>
			<path class="st9" d="M317.9,406.7l-22-36.1"/>
		</g>
		<g>
			<g>
				<rect x="293.7" y="284" class="st7" width="1.8" height="47.7"/>
				<path class="st8" d="M295.1,284.5v46.7h-0.8v-46.7H295.1 M296.1,283.5h-2.8v48.7h2.8V283.5L296.1,283.5z"/>
			</g>
			<g>
				<rect x="295.6" y="284" class="st7" width="22.5" height="47.7"/>
				<path class="st8" d="M296.1,284.5h21.5v46.7h-21.5V284.5 M295.1,283.5v48.7h23.5v-48.7H295.1L295.1,283.5z"/>
			</g>
			<path class="st9" d="M317.9,331l-22-46.5"/>
		</g>
		<g>
			<g>
				<rect x="323.2" y="283.8" class="st7" width="73.6" height="30"/>
				<path class="st8" d="M323.7,284.3h72.6v29h-72.6V284.3 M322.7,283.3v31h74.6v-31H322.7L322.7,283.3z"/>
			</g>
			<g>
				<g>
					<path class="st13" d="M390.4,298.8c0-5.7-4.9-10.1-10.5-9.6c-6.2,0.6-14,1.1-19.9,1.1c-5.8,0-13.6-0.6-19.9-1.1
						c-5.7-0.5-10.5,4-10.5,9.6c0,5.7,4.9,10.1,10.5,9.6c6.2-0.6,14-1.1,19.9-1.1c5.8,0,13.6,0.6,19.9,1.1
						C385.4,308.9,390.4,304.4,390.4,298.8z"/>
					<ellipse class="st13" cx="380.4" cy="298.8" rx="1.3" ry="1.3"/>
				</g>
			</g>
		</g>
		<g>
			<g>
				<rect x="401.9" y="326.8" class="st7" width="17.4" height="25.9"/>
				<path class="st8" d="M418.8,327.3v24.9h-16.4v-24.9H418.8 M419.8,326.3h-18.4v26.9h18.4V326.3L419.8,326.3z"/>
			</g>
			<g>
				<path class="st7" d="M410.6,345.3c-3,0-5.5-2.5-5.5-5.5s2.5-5.5,5.5-5.5s5.5,2.5,5.5,5.5S413.6,345.3,410.6,345.3z"/>
				<path class="st8" d="M410.6,334.8c2.8,0,5,2.2,5,5s-2.2,5-5,5s-5-2.2-5-5S407.8,334.8,410.6,334.8 M410.6,333.8
					c-3.3,0-6,2.7-6,6s2.7,6,6,6s6-2.7,6-6S413.9,333.8,410.6,333.8L410.6,333.8z"/>
			</g>
		</g>
		<g>
			<path class="st9" d="M441.9,194.4v-55.1H482v55.1H441.9z"/>
			<path class="st9" d="M451.9,135.9v-0.8c0-5.5,4.5-10,10-10s10,4.5,10,10v0.8H451.9z"/>
			<path class="st9" d="M453.5,139.3v-4.2c0-4.6,3.7-8.4,8.4-8.4c4.6,0,8.4,3.7,8.4,8.4v4.2H453.5z"/>
			<path class="st9" d="M451.9,197.8v0.8c0,5.5,4.5,10,10,10s10-4.5,10-10v-0.8H451.9z"/>
			<path class="st9" d="M453.5,194.4v4.2c0,4.6,3.7,8.4,8.4,8.4c4.6,0,8.4-3.7,8.4-8.4v-4.2H453.5z"/>
			<path class="st9" d="M438.5,156.8h-0.8c-5.5,0-10,4.5-10,10s4.5,10,10,10h0.8V156.8z"/>
			<path class="st9" d="M441.9,158.5h-4.2c-4.6,0-8.4,3.7-8.4,8.4c0,4.6,3.7,8.4,8.4,8.4h4.2V158.5z"/>
			<path class="st9" d="M485.3,156.8h0.8c5.5,0,10,4.5,10,10s-4.5,10-10,10h-0.8V156.8z"/>
			<path class="st9" d="M482,158.5h4.2c4.6,0,8.4,3.7,8.4,8.4c0,4.6-3.7,8.4-8.4,8.4H482V158.5z"/>
		</g>
		<g>
			<path class="st9" d="M188.6,112.3v20.4l-18.5,2.7v-25.9L188.6,112.3z"/>
			<g>
				<rect x="141.7" y="69.3" class="st7" width="30.5" height="85.6"/>
				<path class="st8" d="M171.6,69.8v84.6h-29.5V69.8L171.6,69.8 M172.6,68.8h-31.5v86.6h31.5V68.8L172.6,68.8z"/>
			</g>
			<path class="st11" d="M163.2,114.6v15.7 M166.9,113.2v18.5h-5.6v-18.5H166.9z"/>
			<path class="st9" d="M167.2,106.7L167.2,106.7c0,0.8-0.6,1.4-1.4,1.4h-1.9c-0.8,0-1.4-0.6-1.4-1.4l0,0c0-0.8,0.6-1.4,1.4-1.4h1.9
				C166.6,105.3,167.2,105.9,167.2,106.7z"/>
			<path class="st9" d="M152.4,117.9c2.6,0,4.6,2.1,4.6,4.6c0,2.6-2.1,4.6-4.6,4.6h-4.6v-9.3L152.4,117.9z"/>
			<g>
				<rect x="145.6" y="98.3" class="st7" width="2.2" height="48.4"/>
				<path class="st8" d="M147.3,98.8v47.4h-1.2V98.8H147.3 M148.3,97.8h-3.2v49.4h3.2V97.8L148.3,97.8z"/>
			</g>
			<g>
				<rect x="172.3" y="112.5" class="st7" width="16.9" height="20"/>
				<path class="st8" d="M188.7,113v19h-15.9v-19H188.7 M189.7,112h-17.9v21h17.9V112L189.7,112z"/>
			</g>
			<g>
				<rect x="189.2" y="112.3" class="st7" width="1.8" height="20.4"/>
				<path class="st8" d="M190.5,112.8v19.4h-0.8v-19.4L190.5,112.8 M191.5,111.8h-2.8v21.4h2.8V111.8L191.5,111.8z"/>
			</g>
		</g>
		<g id="Sink_2">
			<g id="Rectangle_16_x5F_11">
				<rect x="401.9" y="283.9" class="st7" width="19" height="43"/>
				<path class="st8" d="M420.4,284.4v42h-18v-42H420.4 M421.4,283.4h-20v44h20V283.4L421.4,283.4z"/>
			</g>
			<path id="Rectangle_19_x5F_5" class="st9" d="M411.4,316L411.4,316c3.4,0,6.1-2.7,6.1-6.1v-8.8c0-3.4-2.7-6.1-6.1-6.1l0,0
				c-3.4,0-6.1,2.7-6.1,6.1v8.8C405.3,313.2,408,316,411.4,316z"/>
			<circle id="Ellipse_7_x5F_2" class="st9" cx="408.7" cy="305.4" r="1.3"/>
		</g>
		<g id="Rectangle_16_x5F_11_1_">
			<rect x="377.7" y="313.7" class="st7" width="19" height="83.2"/>
			<path class="st8" d="M396.3,314.2v82.2h-18v-82.2H396.3 M397.3,313.2h-20v84.2h20V313.2L397.3,313.2z"/>
		</g>
		<g>
			<rect x="377.7" y="325.6" class="st7" width="19" height="28.3"/>
			<path class="st8" d="M396.2,326.1v27.3h-18v-27.3H396.2 M397.2,325.1h-20v29.3h20V325.1L397.2,325.1z"/>
		</g>
		<path id="Rectangle_19_x5F_5_1_" class="st9" d="M387.2,329.3L387.2,329.3c-3.4,0-6.1,2.7-6.1,6.1v8.8c0,3.4,2.7,6.1,6.1,6.1l0,0
			c3.4,0,6.1-2.7,6.1-6.1v-8.8C393.4,332,390.6,329.3,387.2,329.3z"/>
		<circle id="Ellipse_7_x5F_2_1_" class="st9" cx="390" cy="339.8" r="1.3"/>
		<g id="Toilet_1_">
			<g id="Rectangle_21_1_">
				<rect x="460" y="391.5" class="st7" width="16.1" height="5.3"/>
				<path class="st8" d="M475.6,392v4.3h-15.1V392H475.6 M476.6,391h-17.1v6.3h17.1V391L476.6,391z"/>
			</g>
			<path id="Rectangle_19_x5F_2_1_" class="st9" d="M474.1,380.2c0.2-3.5-2.6-6.5-6.1-6.5l0,0c-3.5,0-6.3,3-6.1,6.5l0.8,11.3h10.7
				L474.1,380.2z"/>
			<path id="Rectangle_18_x5F_13_1_" class="st9" d="M472.5,380.4c0.2-2.6-1.8-4.9-4.5-4.9l0,0c-2.6,0-4.7,2.3-4.5,4.9l0.6,7.1h7.7
				L472.5,380.4z"/>
			<ellipse id="Ellipse_6_x5F_2_1_" class="st9" cx="468" cy="384.4" rx="1.3" ry="1.3"/>
		</g>
		<g id="Toilet_2_">
			<g id="Rectangle_21_2_">
				<rect x="351.9" y="391.5" class="st7" width="16.1" height="5.3"/>
				<path class="st8" d="M367.5,392v4.3h-15.1V392H367.5 M368.5,391h-17.1v6.3h17.1V391L368.5,391z"/>
			</g>
			<path id="Rectangle_19_x5F_2_2_" class="st9" d="M366.1,380.2c0.2-3.5-2.6-6.5-6.1-6.5l0,0c-3.5,0-6.3,3-6.1,6.5l0.8,11.3h10.7
				L366.1,380.2z"/>
			<path id="Rectangle_18_x5F_13_2_" class="st9" d="M364.4,380.4c0.2-2.6-1.8-4.9-4.5-4.9l0,0c-2.6,0-4.7,2.3-4.5,4.9l0.6,7.1h7.7
				L364.4,380.4z"/>
			<ellipse id="Ellipse_6_x5F_2_2_" class="st9" cx="360" cy="384.4" rx="1.3" ry="1.3"/>
		</g>
		<g id="TV">
			<g id="Rectangle_16">
				<rect x="388.6" y="265.1" class="st7" width="62.7" height="2.2"/>
				<path class="st8" d="M450.9,265.6v1.2h-61.7v-1.2H450.9 M451.9,264.6h-63.7v3.2h63.7V264.6L451.9,264.6z"/>
			</g>
			<g id="Rectangle_15">
				<rect x="388.6" y="267.2" class="st7" width="62.7" height="11.7"/>
				<path class="st8" d="M450.9,267.7v10.7h-61.7v-10.7H450.9 M451.9,266.7h-63.7v12.7h63.7V266.7L451.9,266.7z"/>
			</g>
			<g id="Rectangle_17">
				<rect x="399.3" y="274.4" class="st7" width="41.4" height="2.2"/>
				<path class="st8" d="M440.2,274.9v1.2h-40.4v-1.2H440.2 M441.2,273.9h-42.4v3.2h42.4V273.9L441.2,273.9z"/>
			</g>
			<path id="Rectangle_18_x5F_2" class="st9" d="M411,277.1h18l-1.6,1.8h-14.7L411,277.1z"/>
		</g>
		<g id="TV_1_">
			<g id="Rectangle_16_1_">
				<rect x="174.3" y="246" class="st7" width="62.7" height="1.8"/>
				<path class="st8" d="M236.5,246.5v0.8h-61.7v-0.8H236.5 M237.5,245.5h-63.7v2.8h63.7V245.5L237.5,245.5z"/>
			</g>
			<g id="Rectangle_15_1_">
				<rect x="174.3" y="234.3" class="st7" width="62.7" height="11.7"/>
				<path class="st8" d="M236.5,234.8v10.7h-61.7v-10.7H236.5 M237.5,233.8h-63.7v12.7h63.7V233.8L237.5,233.8z"/>
			</g>
			<g id="Rectangle_17_1_">
				<rect x="185" y="236.7" class="st7" width="41.4" height="1.8"/>
				<path class="st8" d="M225.8,237.2v0.8h-40.4v-0.8H225.8 M226.8,236.2h-42.4v2.8h42.4L226.8,236.2L226.8,236.2z"/>
			</g>
			<path id="Rectangle_18_x5F_2_1_" class="st9" d="M214.6,236.1h-17.9l1.6-1.8H213L214.6,236.1z"/>
		</g>
		<g id="Kitchen">
			<g id="Rectangle_24">
				<rect x="549.5" y="221.2" class="st7" width="25.2" height="80.3"/>
				<path class="st8" d="M574.2,221.7V301H550v-79.3H574.2 M575.2,220.7H549V302h26.2V220.7L575.2,220.7z"/>
			</g>
			<g id="Rectangle_26">
				<rect x="549.5" y="107.9" class="st7" width="25.2" height="193.6"/>
				<path class="st8" d="M550,108.4h24.2V301H550V108.4 M549,107.4V302h26.2V107.4H549L549,107.4z"/>
			</g>
			<g id="Sink_3">
				<rect id="Rectangle_28_x5F_2" x="552.3" y="265.8" class="st9" width="19.6" height="31.1"/>
				<path id="Rectangle_29_x5F_2" class="st9" d="M562.1,284.7L562.1,284.7c4.1,0,7.4-3.3,7.4-7.4v-1.6c0-4.1-3.3-7.4-7.4-7.4l0,0
					c-4.1,0-7.4,3.3-7.4,7.4v1.6C554.8,281.4,558.1,284.7,562.1,284.7z"/>
				<ellipse id="Ellipse_7_x5F_3" class="st9" cx="566.2" cy="276.6" rx="1.3" ry="1.3"/>
				<path id="Vector_2" class="st11" d="M554.8,295.3v-8.2 M557.2,295.3v-8.2 M559.7,295.3v-8.2 M562.1,295.3v-8.2 M564.6,295.3
					v-8.2 M567,295.3v-8.2 M569.5,295.3v-8.2"/>
			</g>
			<g id="Stove">
				<g id="Rectangle_25">
					<rect x="549.5" y="169.8" class="st7" width="25.2" height="24.5"/>
					<path class="st8" d="M574.2,170.3v23.5H550v-23.5H574.2 M575.2,169.3H549v25.5h26.2V169.3L575.2,169.3z"/>
				</g>
				<g id="Ellipse_7_x5F_4">
					<path class="st7" d="M557.2,191.1c-1.5,0-2.8-1.2-2.8-2.8s1.2-2.8,2.8-2.8s2.8,1.2,2.8,2.8S558.7,191.1,557.2,191.1z"/>
					<path class="st8" d="M557.2,186c1.3,0,2.3,1,2.3,2.3s-1,2.3-2.3,2.3s-2.3-1-2.3-2.3S556,186,557.2,186 M557.2,185
						c-1.8,0-3.3,1.5-3.3,3.3s1.5,3.3,3.3,3.3s3.3-1.5,3.3-3.3S559,185,557.2,185L557.2,185z"/>
				</g>
				<g id="Ellipse_9">
					<circle class="st7" cx="567" cy="188.3" r="3.6"/>
					<path class="st8" d="M567,185.2c1.7,0,3.1,1.4,3.1,3.1s-1.4,3.1-3.1,3.1s-3.1-1.4-3.1-3.1S565.3,185.2,567,185.2 M567,184.2
						c-2.3,0-4.1,1.8-4.1,4.1s1.8,4.1,4.1,4.1s4.1-1.8,4.1-4.1S569.3,184.2,567,184.2L567,184.2z"/>
				</g>
				<g id="Ellipse_10">
					<circle class="st7" cx="557.2" cy="176.8" r="3.6"/>
					<path class="st8" d="M557.2,173.7c1.7,0,3.1,1.4,3.1,3.1c0,1.7-1.4,3.1-3.1,3.1s-3.1-1.4-3.1-3.1
						C554.1,175.1,555.5,173.7,557.2,173.7 M557.2,172.7c-2.3,0-4.1,1.8-4.1,4.1s1.8,4.1,4.1,4.1s4.1-1.8,4.1-4.1
						C561.3,174.6,559.5,172.7,557.2,172.7L557.2,172.7z"/>
				</g>
				<g id="Ellipse_8">
					<path class="st7" d="M567.9,179.6c-1.5,0-2.8-1.2-2.8-2.8s1.2-2.8,2.8-2.8s2.8,1.2,2.8,2.8S569.4,179.6,567.9,179.6z"/>
					<path class="st8" d="M567.9,174.5c1.3,0,2.3,1,2.3,2.3s-1,2.3-2.3,2.3s-2.3-1-2.3-2.3C565.6,175.6,566.6,174.5,567.9,174.5
						 M567.9,173.5c-1.8,0-3.3,1.5-3.3,3.3s1.5,3.3,3.3,3.3s3.3-1.5,3.3-3.3C571.1,175,569.7,173.5,567.9,173.5L567.9,173.5z"/>
				</g>
			</g>
		</g>
		<g>
			<g id="Oven">
				<g id="Rectangle_28">
					<rect x="547.8" y="133.1" class="st7" width="1.8" height="36.8"/>
					<path class="st8" d="M549.1,133.6v35.8h-0.8v-35.8H549.1 M550.1,132.6h-2.8v37.8h2.8V132.6L550.1,132.6z"/>
				</g>
				<g id="Rectangle_29">
					<rect x="549.6" y="133.1" class="st7" width="25.1" height="36.8"/>
					<path class="st8" d="M574.2,133.6v35.8h-24.1v-35.8H574.2 M575.2,132.6h-26.1v37.8h26.1V132.6L575.2,132.6z"/>
				</g>
			</g>
			<g id="Rectangle_27">
				<rect x="549.6" y="107.9" class="st7" width="25.1" height="25.1"/>
				<path class="st8" d="M574.2,108.4v24.1h-24.1v-24.1H574.2 M575.2,107.4h-26.1v26.1h26.1V107.4L575.2,107.4z"/>
			</g>
			<path id="Vector_3" class="st11" d="M563,117.2v6.5 M565.8,118.8l-5.7,3.3 M560.1,118.8l5.7,3.3"/>
			<g id="Rectangle_28_1_">
				<rect x="549.6" y="107.9" class="st7" width="1.8" height="25.1"/>
				<path class="st8" d="M550.1,108.4h0.8v24.1h-0.8V108.4 M549.1,107.4v26.1h2.8v-26.1H549.1L549.1,107.4z"/>
			</g>
		</g>
		<g>
			<path class="st9" d="M419.3,124.5c1.2,0,2.1-0.9,2.1-2.1v-21.2h-48.5v23.3H419.3z"/>
			<path class="st9" d="M394.2,162.1c1.2,0,2.1-1,2.1-2.2v-33.2c0-1.2-0.9-2.2-2.1-2.2h-21.3v37.6H394.2z"/>
			<path class="st9" d="M394.2,198.3c1.2,0,2.1-1,2.1-2.1v-31.9c0-1.2-0.9-2.1-2.1-2.1h-21.3v36.2L394.2,198.3L394.2,198.3z"/>
			<path class="st9" d="M398.1,198.3v7.9h-33.4V92.6h65.1v33.6h-8.3v-25.1H373v97.1h25.1V198.3z"/>
		</g>
		<g id="Shower">
			<path id="Rectangle_22" class="st9" d="M401.9,361.8v34.9h34.9v-24c0-6-4.9-10.8-10.8-10.8h-24.1V361.8z"/>
			<path id="Rectangle_22_1_" class="st9" d="M403.7,363.6V395h31.4v-21.6c0-5.4-4.4-9.8-9.8-9.8H403.7z"/>
			<ellipse id="Ellipse_6_x5F_4" class="st9" cx="410.9" cy="387.7" rx="1.3" ry="1.3"/>
		</g>
		<g>
			<rect x="337.2" y="396.8" class="st7" width="59.5" height="10.3"/>
			<path class="st8" d="M396.3,397.3v9.3h-58.5v-9.3H396.3 M397.3,396.3h-60.5v11.3h60.5V396.3L397.3,396.3z"/>
		</g>
		<g>
			<rect x="401.9" y="396.8" class="st7" width="81.8" height="10.3"/>
			<path class="st8" d="M483.1,397.3v9.3h-80.8v-9.3H483.1 M484.1,396.3h-82.8v11.3h82.8L484.1,396.3L484.1,396.3z"/>
		</g>
	</g>
	<g id="street_anchors" class="st14">
		<rect id="street_x5F_anchor_x5F_01" x="355" y="20" class="st15" width="10" height="10"/>
		<rect id="street_x5F_anchor_x5F_02_1_" x="92.4" y="235" class="st15" width="10" height="10"/>
	</g>
</g>
<g id="комнаты">
	<g>
		<g>
			<path class="st6" d="M202.5,289.7l1.4-0.8h1v6.1h-1.1v-4.7l-1,0.6L202.5,289.7z"/>
			<path class="st6" d="M211.1,293.7h-0.8v1.3h-1.1v-1.3H206v-0.9l3.3-3.9h1v3.7h0.8V293.7z M207.5,292.6h1.6v-2h-0.1
				C208.6,291.3,208,292,207.5,292.6L207.5,292.6z"/>
			<path class="st6" d="M212.6,293.4c0.4,0,0.8,0.4,0.8,0.9c0,0.5-0.3,0.9-0.8,0.9c-0.4,0-0.7-0.4-0.7-0.9
				C211.9,293.8,212.2,293.4,212.6,293.4z"/>
			<path class="st6" d="M214.1,289.7l1.4-0.8h1v6.1h-1.1v-4.7l-1,0.6L214.1,289.7z"/>
		</g>
	</g>
	<g>
		<g>
			<path class="st6" d="M248,114.9l1.4-0.8h1v6.1h-1.1v-4.7l-1,0.6L248,114.9z"/>
			<path class="st6" d="M255.5,115.5c-0.4-0.2-0.8-0.4-1.3-0.4c-0.8,0-1.6,0.7-1.6,2c0.4-0.4,1-0.9,1.7-0.9c1.2,0,1.9,1,1.9,1.9
				c0,1.3-0.9,2.2-2.1,2.2c-1.3,0-2.5-1.1-2.5-3.1c0-2.1,1.3-3.4,2.6-3.4c0.8,0,1.4,0.4,1.8,0.5L255.5,115.5z M252.7,117.9
				c0.2,0.8,0.8,1.3,1.4,1.3c0.6,0,1-0.5,1-1c0-0.4-0.2-0.8-0.9-0.8C253.6,117.3,253.1,117.6,252.7,117.9z"/>
			<path class="st6" d="M257.8,118.6c0.4,0,0.8,0.4,0.8,0.9c0,0.5-0.3,0.9-0.8,0.9c-0.4,0-0.7-0.4-0.7-0.9
				C257.1,119,257.4,118.6,257.8,118.6z"/>
			<path class="st6" d="M259.5,118.4c0-0.8,0.4-1.4,1-1.6c-0.4-0.2-0.7-0.6-0.7-1.2c0-1.1,1.2-1.7,2.1-1.7c0.9,0,2.1,0.5,2.1,1.7
				c0,0.6-0.2,1-0.7,1.2c0.5,0.2,1,0.7,1,1.6c0,1.3-1.1,2-2.3,2C260.6,120.4,259.5,119.7,259.5,118.4z M263,118.3
				c0-0.6-0.6-0.9-1.2-0.9c-0.5,0-1.2,0.3-1.2,0.9c0,0.6,0.6,0.9,1.2,0.9C262.4,119.2,263,118.9,263,118.3z M262.7,115.7
				c0-0.5-0.5-0.7-0.9-0.7c-0.4,0-0.9,0.2-0.9,0.7c0,0.4,0.3,0.6,0.9,0.6C262.4,116.4,262.7,116.2,262.7,115.7z"/>
		</g>
	</g>
	<g>
		<g>
			<path class="st6" d="M317.2,255.1l1.4-0.8h1v6.1h-1.1v-4.7l-1,0.6L317.2,255.1z"/>
			<path class="st6" d="M321.6,258.8c0.4,0,0.8,0.4,0.8,0.9c0,0.5-0.3,0.9-0.8,0.9c-0.4,0-0.7-0.4-0.7-0.9
				C320.9,259.2,321.2,258.8,321.6,258.8z"/>
			<path class="st6" d="M327.2,255.7c-0.4-0.2-0.8-0.4-1.3-0.4c-0.8,0-1.6,0.7-1.6,2c0.4-0.5,1-0.9,1.7-0.9c1.2,0,1.9,1,1.9,1.9
				c0,1.3-0.9,2.2-2.1,2.2c-1.3,0-2.5-1.1-2.5-3.1c0-2.1,1.3-3.4,2.6-3.4c0.8,0,1.4,0.4,1.8,0.5L327.2,255.7z M324.4,258.1
				c0.2,0.8,0.8,1.3,1.4,1.3c0.6,0,1-0.5,1-1c0-0.4-0.2-0.8-0.9-0.8C325.4,257.5,324.8,257.8,324.4,258.1z"/>
		</g>
	</g>
	<g>
		<g>
			<path class="st6" d="M527.8,347.2h-0.8v1.3h-1.1v-1.3h-3.2v-0.9l3.3-3.9h1v3.7h0.8V347.2z M524.2,346.1h1.6v-2h-0.1
				C525.2,344.8,524.7,345.5,524.2,346.1L524.2,346.1z"/>
			<path class="st6" d="M529.3,346.9c0.4,0,0.8,0.4,0.8,0.9c0,0.5-0.3,0.9-0.8,0.9c-0.4,0-0.7-0.4-0.7-0.9
				C528.6,347.3,528.9,346.9,529.3,346.9z"/>
			<path class="st6" d="M530.9,342.4h4.2v1.2l-2.4,4.9h-1.4l2.5-4.8h-2.9V342.4z"/>
		</g>
	</g>
	<g>
		<g>
			<path class="st6" d="M476.7,238c0-1.5,0.9-2.2,2-2.6c0.3-0.1,0.8-0.3,0.8-0.9c0-0.5-0.4-0.6-0.8-0.6c-0.7,0-1.1,0.4-1.6,0.9
				l-0.6-1c0.6-0.6,1.2-1.2,2.1-1.2c0.9,0,1.9,0.5,1.9,1.8c0,1.4-1,1.8-1.8,2.1c-0.7,0.3-1.1,0.6-1.1,1.1v0.1h2.8v1.2h-3.9V238z"/>
			<path class="st6" d="M483.4,235.3h0.7c0.3,0,0.6-0.2,0.6-0.6c0-0.5-0.4-0.7-0.8-0.7c-0.6,0-1.1,0.4-1.6,1l-0.6-0.9
				c0.5-0.6,1.3-1.3,2.2-1.3c0.8,0,1.9,0.5,1.9,1.8c0,0.5-0.3,0.9-0.5,1.1c0.4,0.2,0.9,0.6,0.9,1.5c0,1.4-1.1,2.2-2.4,2.2
				c-0.9,0-1.7-0.4-2.4-1.3l0.6-1c0.5,0.6,1,1,1.8,1c0.7,0,1.3-0.4,1.3-1c0-0.5-0.5-0.6-0.7-0.6h-0.9V235.3z"/>
			<path class="st6" d="M487.8,237.4c0.4,0,0.8,0.4,0.8,0.9c0,0.5-0.3,0.9-0.8,0.9c-0.4,0-0.7-0.4-0.7-0.9
				C487,237.8,487.3,237.4,487.8,237.4z"/>
			<path class="st6" d="M491.3,235.3h0.7c0.3,0,0.6-0.2,0.6-0.6c0-0.5-0.4-0.7-0.8-0.7c-0.6,0-1.1,0.4-1.6,1l-0.6-0.9
				c0.5-0.6,1.3-1.3,2.2-1.3c0.8,0,1.9,0.5,1.9,1.8c0,0.5-0.3,0.9-0.5,1.1c0.4,0.2,0.9,0.6,0.9,1.5c0,1.4-1.1,2.2-2.4,2.2
				c-0.9,0-1.7-0.4-2.4-1.3l0.6-1c0.5,0.6,1,1,1.8,1c0.7,0,1.3-0.4,1.3-1c0-0.5-0.5-0.6-0.7-0.6h-0.9V235.3z"/>
		</g>
	</g>
	<g>
		<g>
			<path class="st6" d="M350,349h-0.8v1.3h-1.1V349h-3.2v-0.9l3.3-3.9h1v3.7h0.8V349z M346.4,347.9h1.6v-2H348
				C347.5,346.6,347,347.3,346.4,347.9L346.4,347.9z"/>
			<path class="st6" d="M351.6,348.7c0.4,0,0.8,0.4,0.8,0.9c0,0.5-0.3,0.9-0.8,0.9c-0.4,0-0.7-0.4-0.7-0.9
				C350.8,349.1,351.2,348.7,351.6,348.7z"/>
			<path class="st6" d="M353.1,349.6l0.5-1c0.3,0.3,1,0.7,1.9,0.7c0.6,0,1.2-0.3,1.2-1c0-0.6-0.5-0.9-0.9-0.9
				c-0.6,0-1.1,0.3-1.5,0.6l-0.6-0.6v-3.2h3.7v1.2h-2.7v1.4c0.4-0.3,0.7-0.6,1.3-0.6c0.9,0,1.9,0.6,1.9,2c0,1.6-1.2,2.3-2.3,2.3
				C354.3,350.5,353.5,349.9,353.1,349.6z"/>
		</g>
	</g>
	<g>
		<g>
			<path class="st6" d="M440.2,346.9l0.5-1c0.3,0.3,1,0.7,1.9,0.7c0.6,0,1.2-0.3,1.2-1c0-0.6-0.5-0.9-0.9-0.9
				c-0.6,0-1.1,0.3-1.5,0.6l-0.6-0.6v-3.2h3.7v1.2h-2.7v1.4c0.4-0.3,0.7-0.6,1.3-0.6c0.9,0,1.9,0.6,1.9,2c0,1.6-1.2,2.3-2.3,2.3
				C441.4,347.8,440.6,347.2,440.2,346.9z"/>
			<path class="st6" d="M446.5,346c0.4,0,0.8,0.4,0.8,0.9c0,0.5-0.3,0.9-0.8,0.9c-0.4,0-0.7-0.4-0.7-0.9
				C445.8,346.4,446.1,346,446.5,346z"/>
			<path class="st6" d="M447.9,342.3l1.4-0.8h1v6.1h-1.1v-4.7l-1,0.6L447.9,342.3z"/>
		</g>
	</g>
</g>
</svg>
