<?xml version="1.0" encoding="utf-8"?>
<!-- Generator: Adobe Illustrator 26.0.3, SVG Export Plug-In . SVG Version: 6.00 Build 0)  -->
<svg version="1.1" xmlns="http://www.w3.org/2000/svg" xmlns:xlink="http://www.w3.org/1999/xlink" x="0px" y="0px"
	 viewBox="0 0 720 480" style="enable-background:new 0 0 720 480;" xml:space="preserve">
<style type="text/css">
	.st0{fill:#DBD4CA;}
	.st1{clip-path:url(#SVGID_00000081637677221645729810000003164264791360027326_);}
	.st2{fill:none;stroke:#C49F8A;stroke-miterlimit:10;}
	.st3{opacity:0.3;clip-path:url(#SVGID_00000083768082606044264660000010237025502139920265_);}
	.st4{opacity:0.7;fill:#C49F8A;enable-background:new    ;}
	.st5{fill:none;stroke:#565440;}
	.st6{fill:#565440;}
	.st7{fill:#E9E4DC;}
	.st8{fill:#C49F8A;}
	.st9{fill:#E9E4DC;stroke:#C49F8A;}
	.st10{fill:#E9E4DC;stroke:#C49F8A;stroke-miterlimit:3.9998;}
	.st11{fill:none;stroke:#C49F8A;}
	.st12{fill:#E9E4DC;stroke:#C49F8A;stroke-linejoin:round;}
	.st13{opacity:0;}
	.st14{fill:#3F3F3F;fill-opacity:0;}
</style>
<g id="_x31__x5F_2">
	<rect id="Floor" x="217.7" y="68.3" class="st0" width="287.1" height="351.7"/>
	<g id="Wet_Floor_2_">
		<g>
			<g>
				<g>
					<defs>
						<rect id="SVGID_1_" x="389" y="300.5" width="109.1" height="111.9"/>
					</defs>
					<clipPath id="SVGID_00000106851133072024770120000015027123760445016226_">
						<use xlink:href="#SVGID_1_"  style="overflow:visible;"/>
					</clipPath>
					<g style="clip-path:url(#SVGID_00000106851133072024770120000015027123760445016226_);">
						<g>
							<line class="st2" x1="110.9" y1="286.9" x2="444.3" y2="-46.6"/>
							<line class="st2" x1="100.4" y1="276.5" x2="433.9" y2="-57"/>
							<line class="st2" x1="121.3" y1="297.3" x2="454.8" y2="-36.2"/>
							<line class="st2" x1="131.7" y1="307.7" x2="465.2" y2="-25.8"/>
							<line class="st2" x1="142.1" y1="318.1" x2="475.6" y2="-15.3"/>
							<line class="st2" x1="152.5" y1="328.6" x2="486" y2="-4.9"/>
							<line class="st2" x1="163" y1="339" x2="496.4" y2="5.5"/>
							<line class="st2" x1="173.4" y1="349.4" x2="506.9" y2="15.9"/>
							<line class="st2" x1="183.8" y1="359.8" x2="517.3" y2="26.3"/>
							<line class="st2" x1="194.2" y1="370.3" x2="527.7" y2="36.8"/>
							<line class="st2" x1="183.8" y1="359.8" x2="517.3" y2="26.3"/>
							<line class="st2" x1="204.6" y1="380.7" x2="538.1" y2="47.2"/>
							<line class="st2" x1="215.1" y1="391.1" x2="548.6" y2="57.6"/>
							<line class="st2" x1="225.5" y1="401.5" x2="559" y2="68"/>
							<line class="st2" x1="235.9" y1="411.9" x2="569.4" y2="78.5"/>
							<line class="st2" x1="246.3" y1="422.4" x2="579.8" y2="88.9"/>
							<line class="st2" x1="256.8" y1="432.8" x2="590.2" y2="99.3"/>
							<line class="st2" x1="267.2" y1="443.2" x2="600.7" y2="109.7"/>
							<line class="st2" x1="277.6" y1="453.6" x2="611.1" y2="120.1"/>
							<line class="st2" x1="267.2" y1="443.2" x2="600.7" y2="109.7"/>
							<line class="st2" x1="288" y1="464" x2="621.5" y2="130.6"/>
							<line class="st2" x1="298.4" y1="474.5" x2="631.9" y2="141"/>
							<line class="st2" x1="308.9" y1="484.9" x2="642.3" y2="151.4"/>
							<line class="st2" x1="319.3" y1="495.3" x2="652.8" y2="161.8"/>
							<line class="st2" x1="329.7" y1="505.7" x2="663.2" y2="172.2"/>
							<line class="st2" x1="340.1" y1="516.2" x2="673.6" y2="182.7"/>
							<line class="st2" x1="350.5" y1="526.6" x2="684" y2="193.1"/>
							<line class="st2" x1="361" y1="537" x2="694.5" y2="203.5"/>
							<line class="st2" x1="350.5" y1="526.6" x2="684" y2="193.1"/>
							<line class="st2" x1="371.4" y1="547.4" x2="704.9" y2="213.9"/>
							<line class="st2" x1="381.8" y1="557.8" x2="715.3" y2="224.4"/>
							<line class="st2" x1="392.2" y1="568.3" x2="725.7" y2="234.8"/>
							<line class="st2" x1="402.7" y1="578.7" x2="736.1" y2="245.2"/>
							<line class="st2" x1="413.1" y1="589.1" x2="746.6" y2="255.6"/>
							<line class="st2" x1="423.5" y1="599.5" x2="757" y2="266"/>
							<line class="st2" x1="433.9" y1="609.9" x2="767.4" y2="276.5"/>
						</g>
						<g>
							<line class="st2" x1="444.3" y1="599.5" x2="110.9" y2="266"/>
							<line class="st2" x1="433.9" y1="609.9" x2="100.4" y2="276.5"/>
							<line class="st2" x1="454.8" y1="589.1" x2="121.3" y2="255.6"/>
							<line class="st2" x1="465.2" y1="578.7" x2="131.7" y2="245.2"/>
							<line class="st2" x1="475.6" y1="568.3" x2="142.1" y2="234.8"/>
							<line class="st2" x1="486" y1="557.8" x2="152.5" y2="224.4"/>
							<line class="st2" x1="496.4" y1="547.4" x2="163" y2="213.9"/>
							<line class="st2" x1="506.9" y1="537" x2="173.4" y2="203.5"/>
							<line class="st2" x1="517.3" y1="526.6" x2="183.8" y2="193.1"/>
							<line class="st2" x1="527.7" y1="516.2" x2="194.2" y2="182.7"/>
							<line class="st2" x1="517.3" y1="526.6" x2="183.8" y2="193.1"/>
							<line class="st2" x1="538.1" y1="505.7" x2="204.6" y2="172.2"/>
							<line class="st2" x1="548.6" y1="495.3" x2="215.1" y2="161.8"/>
							<line class="st2" x1="559" y1="484.9" x2="225.5" y2="151.4"/>
							<line class="st2" x1="569.4" y1="474.5" x2="235.9" y2="141"/>
							<line class="st2" x1="579.8" y1="464" x2="246.3" y2="130.6"/>
							<line class="st2" x1="590.2" y1="453.6" x2="256.8" y2="120.1"/>
							<line class="st2" x1="600.7" y1="443.2" x2="267.2" y2="109.7"/>
							<line class="st2" x1="611.1" y1="432.8" x2="277.6" y2="99.3"/>
							<line class="st2" x1="600.7" y1="443.2" x2="267.2" y2="109.7"/>
							<line class="st2" x1="621.5" y1="422.4" x2="288" y2="88.9"/>
							<line class="st2" x1="631.9" y1="411.9" x2="298.4" y2="78.5"/>
							<line class="st2" x1="642.3" y1="401.5" x2="308.9" y2="68"/>
							<line class="st2" x1="652.8" y1="391.1" x2="319.3" y2="57.6"/>
							<line class="st2" x1="663.2" y1="380.7" x2="329.7" y2="47.2"/>
							<line class="st2" x1="673.6" y1="370.3" x2="340.1" y2="36.8"/>
							<line class="st2" x1="684" y1="359.8" x2="350.5" y2="26.3"/>
							<line class="st2" x1="694.5" y1="349.4" x2="361" y2="15.9"/>
							<line class="st2" x1="684" y1="359.8" x2="350.5" y2="26.3"/>
							<line class="st2" x1="704.9" y1="339" x2="371.4" y2="5.5"/>
							<line class="st2" x1="715.3" y1="328.6" x2="381.8" y2="-4.9"/>
							<line class="st2" x1="725.7" y1="318.1" x2="392.2" y2="-15.3"/>
							<line class="st2" x1="736.1" y1="307.7" x2="402.7" y2="-25.8"/>
							<line class="st2" x1="746.6" y1="297.3" x2="413.1" y2="-36.2"/>
							<line class="st2" x1="757" y1="286.9" x2="423.5" y2="-46.6"/>
							<line class="st2" x1="767.4" y1="276.5" x2="433.9" y2="-57"/>
						</g>
					</g>
				</g>
			</g>
		</g>
		<g>
			<g>
				<g>
					<defs>
						<rect id="SVGID_00000041973770274469154670000017500360968849970840_" x="389" y="300.5" width="109.1" height="111.9"/>
					</defs>
					<clipPath id="SVGID_00000064350259359039024500000016535762275362179983_">
						<use xlink:href="#SVGID_00000041973770274469154670000017500360968849970840_"  style="overflow:visible;"/>
					</clipPath>
					<g style="opacity:0.3;clip-path:url(#SVGID_00000064350259359039024500000016535762275362179983_);">
						<rect x="272" y="104.9" class="st4" width="322.2" height="322.2"/>
					</g>
				</g>
			</g>
		</g>
	</g>
	<path id="Windows_1_" class="st5" d="M504.8,62v6.2h-209V62H504.8z"/>
	<path id="Doors_1_" class="st5" d="M364.1,237.9c4.6,0,8.3,0.8,12.4,2.5s7.9,4.1,10.8,7c3.3,2.9,5.8,6.6,7.4,10.8
		c1.7,4.1,2.5,8.3,2.5,12.8h-33.1 M393.1,345.5c4.6,0,8.3-0.8,12.4-2.5s7.9-4.1,10.8-7c3.3-2.9,5.8-6.6,7.4-10.8
		c1.7-4.1,2.5-8.3,2.5-12.8h-33.1 M360,420c0,5.4-1.2,10.3-3.3,15.3c-2.1,5-5,9.9-9.1,13.7c-3.7,3.7-8.3,7-13.2,9.1
		c-5,2.1-10.3,3.3-15.7,3.3V420"/>
	<g id="Walls">
		<polygon class="st6" points="364.1,237.9 364.1,80.7 384.8,80.7 384.8,60 355.9,60 355.9,80.7 360,80.7 360,237.9 		"/>
		<path class="st6" d="M509,60h-66.2v24.8h53.8V300H393.1v-24.8h-29V271H360v33.1h4.1v-24.8H389v33.1h4.1v-8.3h103.4v87.7h-16.7
			v15.7H393v-62.1h-4v62.1h-29V420h149V60z M484,407.5v-11.6h12.5v11.6H484z"/>
		<path class="st6" d="M295.7,407.5v-28.1h-4.1v28.1h-54.3v-17.2h-13.8V84.8H298V60h-87v360h107.6v-12.4h-22.9V407.5z M223.4,394.5
			h9.7v13h-9.7V394.5z"/>
	</g>
	<g id="Furniture">
		<g>
			<rect x="223.9" y="301.7" class="st7" width="26" height="81.9"/>
			<path class="st8" d="M249.5,302.2v80.9h-25v-80.9H249.5 M250.5,301.2h-27v82.9h27V301.2L250.5,301.2z"/>
		</g>
		<g>
			<rect x="249" y="384.6" class="st7" width="42.1" height="22.5"/>
			<path class="st8" d="M290.6,385.1v21.5h-41.1v-21.5H290.6 M291.6,384.1h-43.1v23.5h43.1V384.1L291.6,384.1z"/>
		</g>
		<g>
			<g>
				<rect x="415.5" y="132.3" class="st7" width="80.6" height="67.2"/>
				<path class="st8" d="M416,132.8h79.6V199H416V132.8 M415,131.8V200h81.6v-68.2H415L415,131.8z"/>
			</g>
			<rect x="470.6" y="167.5" class="st9" width="20.2" height="26.6"/>
			<rect x="470.6" y="137.6" class="st9" width="20.2" height="26.6"/>
			<polygon class="st10" points="478.8,190.9 484,171.7 464.5,166.5 459.3,185.7 			"/>
			<polygon class="st10" points="464.5,165.1 484,160 478.8,140.7 459.3,145.9 			"/>
			<g>
				<polygon class="st7" points="414.7,199.4 414.7,132.3 479,132.3 480.7,159.1 474.7,199.4 				"/>
				<path class="st8" d="M478.5,132.8l1.7,26.2l-5.9,39.9h-59.1v-66.1h63L478.5,132.8 M479.5,131.8h-1.3h-64v68.1h60.6h0.4l6-40.9
					L479.5,131.8L479.5,131.8z"/>
			</g>
			<polyline class="st11" points="477.4,132.7 477.4,159.3 474,199.2 			"/>
		</g>
		<g>
			<g>
				<rect x="393.6" y="275.7" class="st7" width="102.6" height="1.8"/>
				<path class="st8" d="M495.7,276.2v0.8H394.1v-0.8H495.7 M496.7,275.2H393.1v2.8h103.6V275.2L496.7,275.2z"/>
			</g>
			<g>
				<rect x="393.6" y="277.5" class="st7" width="102.6" height="22"/>
				<path class="st8" d="M394.1,278h101.6v21H394.1V278 M393.1,277v23h103.6v-23H393.1L393.1,277z"/>
			</g>
			<path class="st9" d="M393.6,299.3l102.9-21.5"/>
		</g>
		<g>
			<g>
				<rect x="364.7" y="348.3" class="st7" width="1.8" height="58.7"/>
				<path class="st8" d="M366,348.8v57.7h-0.8v-57.7H366 M367,347.8h-2.8v59.7h2.8V347.8L367,347.8z"/>
			</g>
			<g>
				<rect x="366.5" y="348.3" class="st7" width="22" height="58.7"/>
				<path class="st8" d="M367,348.8h21v57.7h-21V348.8 M366,347.8v59.7h23v-59.7H366L366,347.8z"/>
			</g>
			<path class="st9" d="M388.2,407.3L366.8,348"/>
		</g>
		<g>
			<g>
				<rect x="309.4" y="389.3" class="st7" width="1.8" height="17.9"/>
				<path class="st8" d="M310.7,389.8v16.9h-0.8v-16.9H310.7 M311.7,388.8h-2.8v18.9h2.8V388.8L311.7,388.8z"/>
			</g>
			<g>
				<rect x="296.2" y="389.3" class="st7" width="13.2" height="17.9"/>
				<path class="st8" d="M296.7,389.8h12.2v16.9h-12.2V389.8 M295.7,388.8v18.9h14.2v-18.9H295.7L295.7,388.8z"/>
			</g>
			<path class="st9" d="M296.4,389.3l12.8,17.8"/>
		</g>
		<g>
			<g>
				<rect x="467.4" y="304.7" class="st7" width="28.7" height="78.9"/>
				<path class="st8" d="M467.9,305.2h27.7v77.9h-27.7V305.2 M466.9,304.2v79.9h29.7v-79.9H466.9L466.9,304.2z"/>
			</g>
			<g>
				<g>
					<path class="st12" d="M481.7,373.5c5.5,0,9.8-4.8,9.3-10.2c-0.5-6-1-13.6-1-19.2s0.5-13.1,1-19.2c0.5-5.5-3.8-10.2-9.3-10.2
						s-9.8,4.8-9.3,10.2c0.5,6,1,13.6,1,19.2s-0.5,13.1-1,19.2C471.9,368.7,476.2,373.5,481.7,373.5z"/>
					<ellipse class="st12" cx="481.7" cy="363.9" rx="1.2" ry="1.2"/>
				</g>
			</g>
		</g>
		<g>
			<g id="Rectangle_16_x5F_11_2_">
				<rect x="441.7" y="389.3" class="st7" width="25.7" height="17.8"/>
				<path class="st8" d="M466.9,389.8v16.8h-24.7v-16.8H466.9 M467.9,388.8h-26.7v18.8h26.7V388.8L467.9,388.8z"/>
			</g>
			<path id="Rectangle_19_x5F_5_2_" class="st9" d="M464.4,398.2L464.4,398.2c0-3.2-2.6-5.8-5.8-5.8h-8.2c-3.2,0-5.8,2.6-5.8,5.8
				l0,0c0,3.2,2.6,5.8,5.8,5.8h8.2C461.8,403.9,464.4,401.4,464.4,398.2z"/>
			<circle id="Ellipse_7_x5F_2_2_" class="st9" cx="454.5" cy="400.7" r="1.2"/>
		</g>
		<g id="Sink_3">
			<rect id="Rectangle_28_x5F_2" x="256.1" y="386.8" class="st9" width="27.9" height="17.6"/>
			<path id="Rectangle_29_x5F_2" class="st9" d="M267,395.7L267,395.7c0-3.7,3-6.6,6.6-6.6h1.5c3.7,0,6.6,3,6.6,6.6l0,0
				c0,3.7-3,6.6-6.6,6.6h-1.5C270,402.3,267,399.3,267,395.7z"/>
			<ellipse id="Ellipse_7_x5F_3" class="st9" cx="274.4" cy="398.6" rx="1.2" ry="1.2"/>
			<path id="Vector_2" class="st11" d="M257.5,402.3h7.4 M257.5,400.1h7.4 M257.5,397.9h7.4 M257.5,395.7h7.4 M257.5,393.5h7.4
				 M257.5,391.3h7.4 M257.5,389h7.4"/>
		</g>
		<g id="Stove">
			<g id="Rectangle_25">
				<rect x="223.9" y="304.1" class="st7" width="26" height="25.3"/>
				<path class="st8" d="M249.5,304.6v24.3h-25v-24.3H249.5 M250.5,303.6h-27v26.3h27V303.6L250.5,303.6z"/>
			</g>
			<g id="Rectangle_28_x5F_3_1_">
				<rect x="223.9" y="304.1" class="st7" width="1.8" height="25.3"/>
				<path class="st8" d="M225.3,304.6v24.3h-0.8v-24.3H225.3 M226.3,303.6h-2.8v26.3h2.8V303.6L226.3,303.6z"/>
			</g>
			<g id="Ellipse_7_x5F_4">
				<path class="st7" d="M232.7,313.3c-1.6,0-2.9-1.3-2.9-2.9s1.3-2.9,2.9-2.9c1.6,0,2.9,1.3,2.9,2.9S234.3,313.3,232.7,313.3z"/>
				<path class="st8" d="M232.7,308c1.3,0,2.4,1.1,2.4,2.4s-1.1,2.4-2.4,2.4s-2.4-1.1-2.4-2.4C230.4,309.1,231.4,308,232.7,308
					 M232.7,307c-1.9,0-3.4,1.5-3.4,3.4s1.5,3.4,3.4,3.4s3.4-1.5,3.4-3.4C236.1,308.5,234.6,307,232.7,307L232.7,307z"/>
			</g>
			<g id="Ellipse_9">
				<path class="st7" d="M242.9,314.1c-2.1,0-3.7-1.7-3.7-3.7s1.7-3.7,3.7-3.7c2.1,0,3.7,1.7,3.7,3.7S244.9,314.1,242.9,314.1z"/>
				<path class="st8" d="M242.9,307.2c1.8,0,3.2,1.4,3.2,3.2c0,1.8-1.4,3.2-3.2,3.2s-3.2-1.4-3.2-3.2
					C239.6,308.6,241.1,307.2,242.9,307.2 M242.9,306.2c-2.3,0-4.2,1.9-4.2,4.2s1.9,4.2,4.2,4.2s4.2-1.9,4.2-4.2
					S245.2,306.2,242.9,306.2L242.9,306.2z"/>
			</g>
			<g id="Ellipse_10">
				<path class="st7" d="M232.7,325.9c-2.1,0-3.7-1.7-3.7-3.7s1.7-3.7,3.7-3.7c2.1,0,3.7,1.7,3.7,3.7S234.8,325.9,232.7,325.9z"/>
				<path class="st8" d="M232.7,319c1.8,0,3.2,1.4,3.2,3.2c0,1.8-1.4,3.2-3.2,3.2s-3.2-1.4-3.2-3.2S231,319,232.7,319 M232.7,318
					c-2.3,0-4.2,1.9-4.2,4.2c0,2.3,1.9,4.2,4.2,4.2s4.2-1.9,4.2-4.2C237,319.9,235.1,318,232.7,318L232.7,318z"/>
			</g>
			<g id="Ellipse_8">
				<path class="st7" d="M243.7,325.1c-1.6,0-2.9-1.3-2.9-2.9s1.3-2.9,2.9-2.9c1.6,0,2.9,1.3,2.9,2.9S245.3,325.1,243.7,325.1z"/>
				<path class="st8" d="M243.7,319.8c1.3,0,2.4,1.1,2.4,2.4s-1.1,2.4-2.4,2.4s-2.4-1.1-2.4-2.4S242.4,319.8,243.7,319.8
					 M243.7,318.8c-1.9,0-3.4,1.5-3.4,3.4s1.5,3.4,3.4,3.4s3.4-1.5,3.4-3.4C247.1,320.3,245.6,318.8,243.7,318.8L243.7,318.8z"/>
			</g>
		</g>
		<g id="Toilet_1_">
			<g id="Rectangle_21_1_">
				<rect x="408.9" y="392.6" class="st7" width="16.8" height="5.6"/>
				<path class="st8" d="M425.2,393.1v4.6h-15.8v-4.6H425.2 M426.2,392.1h-17.8v6.6h17.8V392.1L426.2,392.1z"/>
			</g>
			<path id="Rectangle_19_x5F_2_1_" class="st9" d="M423.6,380.9c0.2-3.7-2.7-6.8-6.3-6.8l0,0c-3.7,0-6.6,3.1-6.3,6.8l0.8,11.8h11.1
				L423.6,380.9z"/>
			<path id="Rectangle_18_x5F_13_1_" class="st9" d="M421.6,381.2c0.2-2.5-1.8-4.7-4.3-4.7l0,0c-2.5,0-4.5,2.2-4.3,4.7l0.6,6.9h7.4
				L421.6,381.2z"/>
			<ellipse id="Ellipse_6_x5F_2_1_" class="st9" cx="417.3" cy="385.2" rx="1.2" ry="1.2"/>
		</g>
		<g>
			<g>
				<rect x="223.9" y="356.9" class="st7" width="26" height="26.6"/>
				<path class="st8" d="M249.4,357.4V383h-25v-25.6H249.4 M250.4,356.4h-27V384h27V356.4L250.4,356.4z"/>
			</g>
			<g id="Rectangle_27_2_">
				<rect x="248.1" y="356.9" class="st7" width="1.8" height="26.6"/>
				<path class="st8" d="M249.4,357.4V383h-0.8v-25.6H249.4 M250.4,356.4h-2.8V384h2.8V356.4L250.4,356.4z"/>
			</g>
			<path id="Vector_3" class="st11" d="M237,365.8v8.9 M240.9,368l-7.8,4.4 M233.1,368l7.8,4.4"/>
		</g>
		<g>
			<g>
				<path class="st7" d="M229.5,204.7v-39.6h23.6c1,0,1.8,0.8,1.8,1.8v36c0,1-0.8,1.8-1.8,1.8L229.5,204.7L229.5,204.7z"/>
				<path class="st8" d="M253.2,164.6v1c0.7,0,1.3,0.6,1.3,1.3v36c0,0.7-0.6,1.3-1.3,1.3H230v-38.6h23.1L253.2,164.6 M253.2,164.6
					h-24.1v40.6h24.1c1.3,0,2.3-1,2.3-2.3v-36C255.5,165.6,254.4,164.6,253.2,164.6L253.2,164.6z"/>
			</g>
			<g>
				<path class="st7" d="M229.5,165.8v-39.6h23.6c1,0,1.8,0.8,1.8,1.8v36c0,1-0.8,1.8-1.8,1.8H229.5z"/>
				<path class="st8" d="M253.2,125.7v1c0.7,0,1.3,0.6,1.3,1.3v36c0,0.7-0.6,1.3-1.3,1.3H230v-38.6h23.1L253.2,125.7 M253.2,125.7
					h-24.1v40.6h24.1c1.3,0,2.3-1,2.3-2.3v-36C255.5,126.7,254.4,125.7,253.2,125.7L253.2,125.7z"/>
			</g>
			<g>
				<polygon class="st7" points="223.9,210.2 223.9,120.7 256.8,120.7 256.8,126.8 230.1,126.8 230.1,204 256.8,204 256.8,210.2 
									"/>
				<path class="st8" d="M256.3,121.2v5.2h-25.7h-1v1v38.1v38.1v1h1h25.7v5.2h-31.9v-88.5L256.3,121.2 M257.3,120.2h-33.9v90.5h33.9
					v-7.2h-26.7v-38.1v-38.1h26.7V120.2L257.3,120.2z"/>
			</g>
		</g>
		<g>
			<rect x="223.9" y="265" class="st7" width="78.6" height="36.7"/>
			<path class="st8" d="M302,265.5v35.7h-77.6v-35.7H302 M303,264.5h-79.6v37.7H303V264.5L303,264.5z"/>
		</g>
		<g>
			<rect x="223.9" y="275.4" class="st7" width="78.6" height="3.5"/>
			<path class="st8" d="M302,275.9v2.5h-77.6v-2.5H302 M303,274.9h-79.6v4.5H303V274.9L303,274.9z"/>
		</g>
		<g>
			<circle class="st7" cx="235.2" cy="248.5" r="8.5"/>
			<path class="st8" d="M235.2,240.5c4.4,0,8,3.6,8,8s-3.6,8-8,8s-8-3.6-8-8S230.8,240.5,235.2,240.5 M235.2,239.5c-5,0-9,4-9,9
				s4,9,9,9s9-4,9-9S240.1,239.5,235.2,239.5L235.2,239.5z"/>
		</g>
		<g>
			<circle class="st7" cx="262.5" cy="248.5" r="8.5"/>
			<path class="st8" d="M262.5,240.5c4.4,0,8,3.6,8,8s-3.6,8-8,8s-8-3.6-8-8S258.1,240.5,262.5,240.5 M262.5,239.5c-5,0-9,4-9,9
				s4,9,9,9s9-4,9-9S267.5,239.5,262.5,239.5L262.5,239.5z"/>
		</g>
		<g>
			<path class="st7" d="M292.3,257c-4.7,0-8.5-3.8-8.5-8.5s3.8-8.5,8.5-8.5s8.5,3.8,8.5,8.5S297,257,292.3,257z"/>
			<path class="st8" d="M292.3,240.5c4.4,0,8,3.6,8,8s-3.6,8-8,8s-8-3.6-8-8S287.9,240.5,292.3,240.5 M292.3,239.5c-5,0-9,4-9,9
				s4,9,9,9s9-4,9-9S297.3,239.5,292.3,239.5L292.3,239.5z"/>
		</g>
		<g>
			<g>
				<rect x="364.6" y="279.8" class="st7" width="23.8" height="20.6"/>
				<path class="st8" d="M388,280.3v19.6h-22.8v-19.6H388 M389,279.3h-24.8v21.6H389V279.3L389,279.3z"/>
			</g>
			<g>
				<line class="st11" x1="364.7" y1="280.1" x2="372.6" y2="286.8"/>
			</g>
			<g>
				<line class="st11" x1="388.4" y1="280.1" x2="380.4" y2="286.8"/>
			</g>
			<g>
				<line class="st11" x1="364.7" y1="300.2" x2="372.6" y2="293.5"/>
			</g>
			<g>
				<line class="st11" x1="388.4" y1="300.2" x2="380.4" y2="293.5"/>
			</g>
		</g>
		<g id="TV">
			<g id="Rectangle_16">
				<rect x="347.1" y="133.3" class="st7" width="1.8" height="63.6"/>
				<path class="st8" d="M348.4,133.8v62.6h-0.8v-62.6L348.4,133.8 M349.4,132.8h-2.8v64.6h2.8V132.8L349.4,132.8z"/>
			</g>
			<g id="Rectangle_15">
				<rect x="348.9" y="133.3" class="st7" width="10.6" height="63.6"/>
				<path class="st8" d="M359,133.8v62.6h-9.6v-62.6L359,133.8 M360,132.8h-11.6v64.6H360V132.8L360,132.8z"/>
			</g>
			<g id="Rectangle_17">
				<rect x="356" y="144.2" class="st7" width="1.8" height="41.9"/>
				<path class="st8" d="M357.4,144.7v40.9h-0.8v-40.9L357.4,144.7 M358.4,143.7h-2.8v42.9h2.8V143.7L358.4,143.7z"/>
			</g>
			<path id="Rectangle_18_x5F_2" class="st9" d="M357.9,174.2V156l1.6,1.6v14.9L357.9,174.2z"/>
		</g>
		<g id="TV_1_">
			<g id="Rectangle_16_1_">
				<rect x="375.2" y="133.3" class="st7" width="1.8" height="63.6"/>
				<path class="st8" d="M376.6,133.8v62.6h-0.8v-62.6L376.6,133.8 M377.6,132.8h-2.8v64.6h2.8V132.8L377.6,132.8z"/>
			</g>
			<g id="Rectangle_15_1_">
				<rect x="364.6" y="133.3" class="st7" width="10.6" height="63.6"/>
				<path class="st8" d="M374.7,133.8v62.6h-9.6v-62.6L374.7,133.8 M375.7,132.8h-11.6v64.6h11.6V132.8L375.7,132.8z"/>
			</g>
			<g id="Rectangle_17_1_">
				<rect x="366.3" y="144.2" class="st7" width="1.8" height="41.9"/>
				<path class="st8" d="M367.6,144.7v40.9h-0.8v-40.9L367.6,144.7 M368.6,143.7h-2.8v42.9h2.8V143.7L368.6,143.7z"/>
			</g>
			<path id="Rectangle_18_x5F_2_1_" class="st9" d="M366.3,156v18.1l-1.6-1.6v-14.9L366.3,156z"/>
		</g>
		<g>
			<rect x="393.6" y="398.2" class="st7" width="48" height="8.9"/>
			<path class="st8" d="M441.1,398.7v7.9h-47v-7.9H441.1 M442.1,397.7h-49v9.9h49V397.7L442.1,397.7z"/>
		</g>
		<g>
			<polygon class="st7" points="237.8,407.1 237.8,389.9 223.9,389.9 223.9,383.6 249,383.6 249,407.1 			"/>
			<path class="st8" d="M248.5,384.1v22.5h-10.2v-16.2v-1h-1h-12.8v-5.3H248.5 M249.5,383.1h-26v7.3h13.8v17.2h12.2V383.1
				L249.5,383.1z"/>
		</g>
		<g>
			<polygon class="st7" points="467.4,407.1 467.4,383.6 496.1,383.6 496.1,391.3 479.4,391.3 479.4,407.1 			"/>
			<path class="st8" d="M495.6,384.1v6.7h-15.7h-1v1v14.8h-11v-22.5H495.6 M496.6,383.1h-29.7v24.5h13v-15.8h16.7V383.1L496.6,383.1
				z"/>
		</g>
	</g>
	<g id="street_anchors" class="st13">
		<rect id="street_x5F_anchor_x5F_01_1_" x="355" y="20" class="st14" width="10" height="10"/>
	</g>
</g>
<g id="комнаты">
	<g>
		<g>
			<path class="st6" d="M335.5,366.1c0-1.5,0.9-2.2,2-2.6c0.3-0.1,0.8-0.3,0.8-0.9c0-0.5-0.4-0.6-0.8-0.6c-0.7,0-1.1,0.4-1.6,0.9
				l-0.6-1c0.6-0.6,1.2-1.2,2.1-1.2c0.9,0,1.9,0.5,1.9,1.8c0,1.4-1,1.8-1.8,2.1c-0.7,0.3-1.1,0.6-1.1,1.1v0.1h2.8v1.2h-3.9V366.1z"
				/>
			<path class="st6" d="M341.2,365.4c0.4,0,0.8,0.4,0.8,0.9c0,0.5-0.3,0.9-0.8,0.9c-0.4,0-0.7-0.4-0.7-0.9
				C340.5,365.8,340.8,365.4,341.2,365.4z"/>
			<path class="st6" d="M347.8,365.8H347v1.3h-1.1v-1.3h-3.2v-0.9l3.3-3.9h1v3.7h0.8V365.8z M344.2,364.7h1.6v-2h-0.1
				C345.3,363.3,344.7,364,344.2,364.7L344.2,364.7z"/>
		</g>
	</g>
	<g>
		<g>
			<path class="st6" d="M293.2,167c0-1.5,0.9-2.2,2-2.6c0.3-0.1,0.8-0.3,0.8-0.9c0-0.5-0.4-0.6-0.8-0.6c-0.7,0-1.1,0.4-1.6,0.9
				l-0.6-1c0.6-0.6,1.2-1.2,2.1-1.2c0.9,0,1.9,0.5,1.9,1.8c0,1.4-1,1.8-1.8,2.1c-0.7,0.3-1.1,0.6-1.1,1.1v0.1h2.8v1.2h-3.9V167z"/>
			<path class="st6" d="M297.8,162.7l1.4-0.8h1v6.1h-1.1v-4.7l-1,0.6L297.8,162.7z"/>
			<path class="st6" d="M302.2,166.3c0.4,0,0.8,0.4,0.8,0.9c0,0.5-0.3,0.9-0.8,0.9c-0.4,0-0.7-0.4-0.7-0.9
				C301.5,166.7,301.8,166.3,302.2,166.3z"/>
			<path class="st6" d="M304.5,166.6c0.4,0.2,0.8,0.4,1.3,0.4c0.8,0,1.6-0.7,1.6-1.9c-0.4,0.4-1,0.9-1.7,0.9c-1.2,0-1.9-1-1.9-2
				c0-1.3,0.9-2.2,2.1-2.2c1.3,0,2.5,1.1,2.5,3.1c0,2.1-1.3,3.4-2.6,3.4c-0.8,0-1.4-0.4-1.8-0.5L304.5,166.6z M307.3,164.1
				c-0.2-0.8-0.8-1.3-1.4-1.3c-0.6,0-1,0.5-1,1c0,0.4,0.2,0.8,0.9,0.8C306.4,164.8,306.9,164.4,307.3,164.1z"/>
		</g>
	</g>
	<g>
		<g>
			<path class="st6" d="M370.9,321.5l1.4-0.8h1v6.1h-1.1v-4.7l-1,0.6L370.9,321.5z"/>
			<path class="st6" d="M375.3,325.2c0.4,0,0.8,0.4,0.8,0.9c0,0.5-0.3,0.9-0.8,0.9c-0.4,0-0.7-0.4-0.7-0.9
				C374.6,325.6,374.9,325.2,375.3,325.2z"/>
			<path class="st6" d="M377,325.8c0-1.5,0.9-2.2,2-2.6c0.3-0.1,0.8-0.3,0.8-0.9c0-0.5-0.4-0.6-0.8-0.6c-0.7,0-1.1,0.4-1.6,0.9
				l-0.6-1c0.6-0.6,1.2-1.2,2.1-1.2c0.9,0,1.9,0.5,1.9,1.8c0,1.4-1,1.8-1.8,2.1c-0.7,0.3-1.1,0.6-1.1,1.1v0.1h2.8v1.2H377V325.8z"/>
		</g>
	</g>
	<g>
		<g>
			<path class="st6" d="M433.3,223.8l1.4-0.8h1v6.1h-1.1v-4.7l-1,0.6L433.3,223.8z"/>
			<path class="st6" d="M436.7,228.4l0.5-1c0.3,0.3,1,0.7,1.9,0.7c0.6,0,1.2-0.3,1.2-1c0-0.6-0.5-0.9-0.9-0.9
				c-0.6,0-1.1,0.3-1.5,0.6l-0.6-0.6V223h3.7v1.2h-2.7v1.4c0.4-0.3,0.7-0.6,1.3-0.6c0.9,0,1.9,0.6,1.9,2c0,1.6-1.2,2.3-2.3,2.3
				C437.9,229.3,437.2,228.7,436.7,228.4z"/>
			<path class="st6" d="M443,227.5c0.4,0,0.8,0.4,0.8,0.9c0,0.5-0.3,0.9-0.8,0.9c-0.4,0-0.7-0.4-0.7-0.9
				C442.3,227.9,442.6,227.5,443,227.5z"/>
			<path class="st6" d="M446.5,225.4h0.7c0.3,0,0.6-0.2,0.6-0.6c0-0.5-0.4-0.7-0.8-0.7c-0.6,0-1.1,0.4-1.6,1l-0.6-0.9
				c0.5-0.6,1.3-1.3,2.2-1.3c0.8,0,1.9,0.5,1.9,1.8c0,0.5-0.3,0.9-0.5,1.1c0.4,0.2,0.9,0.6,0.9,1.5c0,1.4-1.1,2.2-2.4,2.2
				c-0.9,0-1.7-0.4-2.4-1.3l0.6-1c0.5,0.6,1,1,1.8,1c0.7,0,1.3-0.4,1.3-1c0-0.5-0.5-0.6-0.7-0.6h-0.9V225.4z"/>
		</g>
	</g>
	<g>
		<g>
			<path class="st6" d="M433.6,355.4l0.5-1c0.3,0.3,1,0.7,1.9,0.7c0.6,0,1.2-0.3,1.2-1c0-0.6-0.5-0.9-0.9-0.9
				c-0.6,0-1.1,0.3-1.5,0.6l-0.6-0.6V350h3.7v1.2h-2.7v1.4c0.4-0.3,0.7-0.6,1.3-0.6c0.9,0,1.9,0.6,1.9,2c0,1.6-1.2,2.3-2.3,2.3
				C434.8,356.3,434,355.7,433.6,355.4z"/>
		</g>
	</g>
</g>
</svg>
