<?xml version="1.0" encoding="utf-8"?>
<!-- Generator: Adobe Illustrator 26.0.3, SVG Export Plug-In . SVG Version: 6.00 Build 0)  -->
<svg version="1.1" xmlns="http://www.w3.org/2000/svg" xmlns:xlink="http://www.w3.org/1999/xlink" x="0px" y="0px"
	 viewBox="0 0 720 480" style="enable-background:new 0 0 720 480;" xml:space="preserve">
<style type="text/css">
	.st0{fill:#DBD4CA;}
	.st1{clip-path:url(#SVGID_00000069373382929973700260000013181559260273487533_);}
	.st2{fill:none;stroke:#C49F8A;stroke-miterlimit:10;}
	.st3{opacity:0.3;clip-path:url(#SVGID_00000014613603944108651290000013946870628456202132_);}
	.st4{opacity:0.7;fill:#C49F8A;enable-background:new    ;}
	.st5{fill:none;stroke:#565440;}
	.st6{fill:#565440;}
	.st7{fill:#E9E4DC;}
	.st8{fill:#C49F8A;}
	.st9{fill:#E9E4DC;stroke:#C49F8A;}
	.st10{fill:#E9E4DC;stroke:#C49F8A;stroke-miterlimit:3.9998;}
	.st11{fill:none;stroke:#C49F8A;}
	.st12{fill:#E9E4DC;stroke:#C49F8A;stroke-linejoin:round;}
	.st13{opacity:0;}
	.st14{fill:#3F3F3F;fill-opacity:0;}
</style>
<g id="_x31__x5F_2">
	<rect id="Floor_1_" x="211.8" y="68.3" class="st0" width="295.1" height="351.7"/>
	<g id="Wet_Floor_2_">
		<g>
			<g>
				<g>
					<defs>
						<rect id="SVGID_1_" x="395.2" y="302.1" width="107.1" height="111.9"/>
					</defs>
					<clipPath id="SVGID_00000072281311579796003020000016423021729630320288_">
						<use xlink:href="#SVGID_1_"  style="overflow:visible;"/>
					</clipPath>
					<g style="clip-path:url(#SVGID_00000072281311579796003020000016423021729630320288_);">
						<g>
							<line class="st2" x1="117" y1="288.4" x2="450.5" y2="-45"/>
							<line class="st2" x1="106.6" y1="278" x2="440.1" y2="-55.5"/>
							<line class="st2" x1="127.5" y1="298.9" x2="460.9" y2="-34.6"/>
							<line class="st2" x1="137.9" y1="309.3" x2="471.4" y2="-24.2"/>
							<line class="st2" x1="148.3" y1="319.7" x2="481.8" y2="-13.8"/>
							<line class="st2" x1="158.7" y1="330.1" x2="492.2" y2="-3.4"/>
							<line class="st2" x1="169.1" y1="340.6" x2="502.6" y2="7.1"/>
							<line class="st2" x1="179.6" y1="351" x2="513" y2="17.5"/>
							<line class="st2" x1="190" y1="361.4" x2="523.5" y2="27.9"/>
							<line class="st2" x1="200.4" y1="371.8" x2="533.9" y2="38.3"/>
							<line class="st2" x1="190" y1="361.4" x2="523.5" y2="27.9"/>
							<line class="st2" x1="210.8" y1="382.2" x2="544.3" y2="48.8"/>
							<line class="st2" x1="221.2" y1="392.7" x2="554.7" y2="59.2"/>
							<line class="st2" x1="231.7" y1="403.1" x2="565.2" y2="69.6"/>
							<line class="st2" x1="242.1" y1="413.5" x2="575.6" y2="80"/>
							<line class="st2" x1="252.5" y1="423.9" x2="586" y2="90.4"/>
							<line class="st2" x1="262.9" y1="434.3" x2="596.4" y2="100.9"/>
							<line class="st2" x1="273.4" y1="444.8" x2="606.8" y2="111.3"/>
							<line class="st2" x1="283.8" y1="455.2" x2="617.3" y2="121.7"/>
							<line class="st2" x1="273.4" y1="444.8" x2="606.8" y2="111.3"/>
							<line class="st2" x1="294.2" y1="465.6" x2="627.7" y2="132.1"/>
							<line class="st2" x1="304.6" y1="476" x2="638.1" y2="142.5"/>
							<line class="st2" x1="315" y1="486.5" x2="648.5" y2="153"/>
							<line class="st2" x1="325.5" y1="496.9" x2="658.9" y2="163.4"/>
							<line class="st2" x1="335.9" y1="507.3" x2="669.4" y2="173.8"/>
							<line class="st2" x1="346.3" y1="517.7" x2="679.8" y2="184.2"/>
							<line class="st2" x1="356.7" y1="528.1" x2="690.2" y2="194.7"/>
							<line class="st2" x1="367.1" y1="538.6" x2="700.6" y2="205.1"/>
							<line class="st2" x1="356.7" y1="528.1" x2="690.2" y2="194.7"/>
							<line class="st2" x1="377.6" y1="549" x2="711" y2="215.5"/>
							<line class="st2" x1="388" y1="559.4" x2="721.5" y2="225.9"/>
							<line class="st2" x1="398.4" y1="569.8" x2="731.9" y2="236.3"/>
							<line class="st2" x1="408.8" y1="580.2" x2="742.3" y2="246.8"/>
							<line class="st2" x1="419.3" y1="590.7" x2="752.7" y2="257.2"/>
							<line class="st2" x1="429.7" y1="601.1" x2="763.2" y2="267.6"/>
							<line class="st2" x1="440.1" y1="611.5" x2="773.6" y2="278"/>
						</g>
						<g>
							<line class="st2" x1="450.5" y1="601.1" x2="117" y2="267.6"/>
							<line class="st2" x1="440.1" y1="611.5" x2="106.6" y2="278"/>
							<line class="st2" x1="460.9" y1="590.7" x2="127.5" y2="257.2"/>
							<line class="st2" x1="471.4" y1="580.2" x2="137.9" y2="246.8"/>
							<line class="st2" x1="481.8" y1="569.8" x2="148.3" y2="236.3"/>
							<line class="st2" x1="492.2" y1="559.4" x2="158.7" y2="225.9"/>
							<line class="st2" x1="502.6" y1="549" x2="169.1" y2="215.5"/>
							<line class="st2" x1="513" y1="538.6" x2="179.6" y2="205.1"/>
							<line class="st2" x1="523.5" y1="528.1" x2="190" y2="194.7"/>
							<line class="st2" x1="533.9" y1="517.7" x2="200.4" y2="184.2"/>
							<line class="st2" x1="523.5" y1="528.1" x2="190" y2="194.7"/>
							<line class="st2" x1="544.3" y1="507.3" x2="210.8" y2="173.8"/>
							<line class="st2" x1="554.7" y1="496.9" x2="221.2" y2="163.4"/>
							<line class="st2" x1="565.2" y1="486.5" x2="231.7" y2="153"/>
							<line class="st2" x1="575.6" y1="476" x2="242.1" y2="142.5"/>
							<line class="st2" x1="586" y1="465.6" x2="252.5" y2="132.1"/>
							<line class="st2" x1="596.4" y1="455.2" x2="262.9" y2="121.7"/>
							<line class="st2" x1="606.8" y1="444.8" x2="273.4" y2="111.3"/>
							<line class="st2" x1="617.3" y1="434.3" x2="283.8" y2="100.9"/>
							<line class="st2" x1="606.8" y1="444.8" x2="273.4" y2="111.3"/>
							<line class="st2" x1="627.7" y1="423.9" x2="294.2" y2="90.4"/>
							<line class="st2" x1="638.1" y1="413.5" x2="304.6" y2="80"/>
							<line class="st2" x1="648.5" y1="403.1" x2="315" y2="69.6"/>
							<line class="st2" x1="658.9" y1="392.7" x2="325.5" y2="59.2"/>
							<line class="st2" x1="669.4" y1="382.2" x2="335.9" y2="48.8"/>
							<line class="st2" x1="679.8" y1="371.8" x2="346.3" y2="38.3"/>
							<line class="st2" x1="690.2" y1="361.4" x2="356.7" y2="27.9"/>
							<line class="st2" x1="700.6" y1="351" x2="367.1" y2="17.5"/>
							<line class="st2" x1="690.2" y1="361.4" x2="356.7" y2="27.9"/>
							<line class="st2" x1="711" y1="340.6" x2="377.6" y2="7.1"/>
							<line class="st2" x1="721.5" y1="330.1" x2="388" y2="-3.4"/>
							<line class="st2" x1="731.9" y1="319.7" x2="398.4" y2="-13.8"/>
							<line class="st2" x1="742.3" y1="309.3" x2="408.8" y2="-24.2"/>
							<line class="st2" x1="752.7" y1="298.9" x2="419.3" y2="-34.6"/>
							<line class="st2" x1="763.2" y1="288.4" x2="429.7" y2="-45"/>
							<line class="st2" x1="773.6" y1="278" x2="440.1" y2="-55.5"/>
						</g>
					</g>
				</g>
			</g>
		</g>
		<g>
			<g>
				<g>
					<defs>
						<rect id="SVGID_00000129207977228111135460000005864484782356273544_" x="395.2" y="302.1" width="107.1" height="111.9"/>
					</defs>
					<clipPath id="SVGID_00000072964508482244231890000007891587601833349262_">
						<use xlink:href="#SVGID_00000129207977228111135460000005864484782356273544_"  style="overflow:visible;"/>
					</clipPath>
					<g style="opacity:0.3;clip-path:url(#SVGID_00000072964508482244231890000007891587601833349262_);">
						<rect x="278.1" y="106.5" class="st4" width="322.2" height="322.2"/>
					</g>
				</g>
			</g>
		</g>
	</g>
	<path id="Windows" class="st5" d="M500.7,61.9v6.2H269v-6.2L500.7,61.9z"/>
	<path id="Doors" class="st5" d="M370.3,237.8c4.6,0,8.3,0.8,12.4,2.5s7.9,4.1,10.8,7c3.3,2.9,5.8,6.6,7.4,10.8
		c1.7,4.1,2.5,8.3,2.5,12.8h-33.1 M399.3,345.4c4.6,0,8.3-0.8,12.4-2.5s7.9-4.1,10.8-7c3.3-2.9,5.8-6.6,7.4-10.8
		c1.7-4.1,2.5-8.3,2.5-12.8h-33.1 M361.4,419.9c0,5.4-1.2,10.3-3.3,15.3c-2.1,5-5,9.9-9.1,13.7c-3.7,3.7-8.3,7-13.2,9.1
		c-5,2.1-10.3,3.3-15.7,3.3v-41.4"/>
	<g id="Walls">
		<rect x="415.9" y="59.9" class="st6" width="29" height="20.7"/>
		<polygon class="st6" points="366.2,237.8 370.3,237.8 370.3,80.1 357.9,80.1 357.9,59.9 329,59.9 329,84.3 366.2,84.3 		"/>
		<path class="st6" d="M301.9,379.3h-4.2v28.1h-76.3v-68.9h14.2v-18h-14.2V84.6h49.7V59.8H209v360h111v-12.4h-18.1V379.3z
			 M231.5,324.7v9.7h-10.1v-9.7H231.5z"/>
		<path class="st6" d="M511,59.9h-12.4v240h-99.3v-24.8h-29V271h-4.1v33h4.1v-24.8h24.8v33.1h4.1V304h99.3v88.1h-16.2v15.3h-83.1
			v-62.1h-4.1v62.1h-33.8v12.4h149.6L511,59.9z M486.5,407.5v-11.2h12.1v11.2H486.5z"/>
	</g>
	<g id="Furniture">
		<g>
			<rect x="221.9" y="339" class="st7" width="24.3" height="68"/>
			<path class="st8" d="M245.7,339.5v67h-23.3v-67H245.7 M246.7,338.5h-25.3v69h25.3V338.5L246.7,338.5z"/>
		</g>
		<g>
			<rect x="221.5" y="382.8" class="st7" width="75.7" height="24.3"/>
			<path class="st8" d="M296.7,383.3v23.3H222v-23.3H296.7 M297.7,382.3H221v25.3h76.7V382.3L297.7,382.3z"/>
		</g>
		<g>
			<g>
				<rect x="417.5" y="131.4" class="st7" width="80.6" height="67.2"/>
				<path class="st8" d="M418,131.9h79.6v66.2H418V131.9 M417,130.9v68.2h81.6v-68.2H417L417,130.9z"/>
			</g>
			<rect x="472.6" y="166.6" class="st9" width="20.2" height="26.6"/>
			<rect x="472.6" y="136.7" class="st9" width="20.2" height="26.6"/>
			<polygon class="st10" points="480.9,190 486.1,170.7 466.6,165.6 461.4,184.8 			"/>
			<polygon class="st10" points="466.6,164.2 486.1,159.1 480.8,139.8 461.4,145 			"/>
			<g>
				<polygon class="st7" points="416.7,198.5 416.7,131.4 481.1,131.4 482.8,158.1 476.8,198.5 				"/>
				<path class="st8" d="M417.2,131.9h63h0.3l1.7,26.2l-5.9,39.9h-59.1V131.9 M416.2,130.9V199h60.6h0.4l6-40.9l-1.7-27.3h-1.3
					L416.2,130.9L416.2,130.9z"/>
			</g>
			<polyline class="st11" points="479.5,131.8 479.5,158.4 476.1,198.3 			"/>
		</g>
		<g>
			<g>
				<rect x="399.8" y="275.7" class="st7" width="98.3" height="1.8"/>
				<path class="st8" d="M400.3,276.2h97.3v0.8h-97.3V276.2 M399.3,275.2v2.8h99.3v-2.8H399.3L399.3,275.2z"/>
			</g>
			<g>
				<rect x="399.8" y="277.5" class="st7" width="98.3" height="22"/>
				<path class="st8" d="M400.3,278h97.3v21h-97.3V278 M399.3,277v23h99.3v-23H399.3L399.3,277z"/>
			</g>
			<path class="st9" d="M399.8,299.2l98.7-21.5"/>
		</g>
		<g>
			<g>
				<rect x="370.9" y="348.3" class="st7" width="1.8" height="58.7"/>
				<path class="st8" d="M372.2,348.8v57.7h-0.8v-57.7H372.2 M373.2,347.8h-2.8v59.7h2.8V347.8L373.2,347.8z"/>
			</g>
			<g>
				<rect x="372.7" y="348.3" class="st7" width="22" height="58.7"/>
				<path class="st8" d="M373.2,348.8h21v57.7h-21V348.8 M372.2,347.8v59.7h23v-59.7H372.2L372.2,347.8z"/>
			</g>
			<path class="st9" d="M394.4,407.3L372.9,348"/>
		</g>
		<g>
			<g>
				<rect x="315.6" y="389.2" class="st7" width="1.8" height="17.9"/>
				<path class="st8" d="M316.9,389.7v16.9h-0.8v-16.9H316.9 M317.9,388.7h-2.8v18.9h2.8V388.7L317.9,388.7z"/>
			</g>
			<g>
				<rect x="302.4" y="389.2" class="st7" width="13.2" height="17.9"/>
				<path class="st8" d="M302.9,389.7h12.2v16.9h-12.2V389.7 M301.9,388.7v18.9h14.2v-18.9H301.9L301.9,388.7z"/>
			</g>
			<path class="st9" d="M302.4,389l13.3,18.4"/>
		</g>
		<g>
			<g>
				<rect x="469.6" y="304.6" class="st7" width="28.7" height="78.3"/>
				<path class="st8" d="M470.1,305.1h27.7v77.3h-27.7V305.1 M469.1,304.1v79.3h29.7v-79.3L469.1,304.1L469.1,304.1z"/>
			</g>
			<g>
				<g>
					<path class="st12" d="M483.9,373.1c5.5,0,9.8-4.8,9.3-10.2c-0.5-6-1-13.6-1-19.2s0.5-13.1,1-19.2c0.5-5.5-3.8-10.2-9.3-10.2
						s-9.8,4.8-9.3,10.2c0.5,6,1,13.6,1,19.2s-0.5,13.1-1,19.2C474.2,368.4,478.5,373.1,483.9,373.1z"/>
					<ellipse class="st12" cx="483.9" cy="363.6" rx="1.2" ry="1.2"/>
				</g>
			</g>
		</g>
		<g>
			<g id="Rectangle_16_x5F_11_2_">
				<rect x="442.9" y="389.3" class="st7" width="23.4" height="17.8"/>
				<path class="st8" d="M465.8,389.8v16.8h-22.4v-16.8H465.8 M466.8,388.8h-24.4v18.8h24.4V388.8L466.8,388.8z"/>
			</g>
			<path id="Rectangle_19_x5F_5_2_" class="st9" d="M464.5,398.2L464.5,398.2c0-3.2-2.6-5.8-5.8-5.8h-8.2c-3.2,0-5.8,2.6-5.8,5.8
				l0,0c0,3.2,2.6,5.8,5.8,5.8h8.2C461.9,403.9,464.5,401.4,464.5,398.2z"/>
			<circle id="Ellipse_7_x5F_2_2_" class="st9" cx="454.6" cy="400.7" r="1.2"/>
		</g>
		<g id="Sink_3">
			<rect id="Rectangle_28_x5F_2" x="224.6" y="384.9" class="st9" width="31.3" height="19.8"/>
			<path id="Rectangle_29_x5F_2" class="st9" d="M236.9,394.8L236.9,394.8c0-4.1,3.3-7.4,7.4-7.4h1.6c4.1,0,7.4,3.3,7.4,7.4l0,0
				c0,4.1-3.3,7.4-7.4,7.4h-1.6C240.2,402.2,236.9,398.9,236.9,394.8z"/>
			<ellipse id="Ellipse_7_x5F_3" class="st9" cx="245.1" cy="398.1" rx="1.2" ry="1.2"/>
			<path id="Vector_2" class="st11" d="M226.3,402.2h8.2 M226.3,399.7h8.2 M226.3,397.3h8.2 M226.3,394.8h8.2 M226.3,392.3h8.2
				 M226.3,389.8h8.2 M226.3,387.4h8.2"/>
		</g>
		<g id="Stove">
			<g id="Rectangle_25">
				<rect x="221.9" y="339" class="st7" width="24.3" height="23.7"/>
				<path class="st8" d="M245.7,339.5v22.7h-23.3v-22.7H245.7 M246.7,338.5h-25.3v24.7h25.3V338.5L246.7,338.5z"/>
			</g>
			<g id="Rectangle_28_x5F_3_1_">
				<rect x="221.9" y="339" class="st7" width="1.8" height="23.7"/>
				<path class="st8" d="M223.2,339.5v22.7h-0.8v-22.7H223.2 M224.2,338.5h-2.8v24.7h2.8V338.5L224.2,338.5z"/>
			</g>
			<g id="Ellipse_7_x5F_4">
				<circle class="st7" cx="230.3" cy="346.7" r="2.4"/>
				<path class="st8" d="M230.3,344.7c1.1,0,1.9,0.9,1.9,1.9s-0.9,1.9-1.9,1.9s-1.9-0.9-1.9-1.9S229.2,344.7,230.3,344.7
					 M230.3,343.7c-1.6,0-2.9,1.3-2.9,2.9s1.3,2.9,2.9,2.9s2.9-1.3,2.9-2.9S231.9,343.7,230.3,343.7L230.3,343.7z"/>
			</g>
			<g id="Ellipse_9">
				<path class="st7" d="M239.1,349.9c-1.7,0-3.2-1.4-3.2-3.2c0-1.7,1.4-3.2,3.2-3.2s3.2,1.4,3.2,3.2
					C242.2,348.4,240.8,349.9,239.1,349.9z"/>
				<path class="st8" d="M239.1,344c1.5,0,2.7,1.2,2.7,2.7s-1.2,2.7-2.7,2.7s-2.7-1.2-2.7-2.7S237.6,344,239.1,344 M239.1,343
					c-2,0-3.7,1.6-3.7,3.7s1.6,3.7,3.7,3.7s3.7-1.6,3.7-3.7S241.1,343,239.1,343L239.1,343z"/>
			</g>
			<g id="Ellipse_10">
				<path class="st7" d="M230.3,360.1c-1.7,0-3.2-1.4-3.2-3.2c0-1.7,1.4-3.2,3.2-3.2s3.2,1.4,3.2,3.2
					C233.4,358.7,232,360.1,230.3,360.1z"/>
				<path class="st8" d="M230.3,354.3c1.5,0,2.7,1.2,2.7,2.7s-1.2,2.7-2.7,2.7s-2.7-1.2-2.7-2.7S228.8,354.3,230.3,354.3
					 M230.3,353.3c-2,0-3.7,1.6-3.7,3.7s1.6,3.7,3.7,3.7s3.7-1.6,3.7-3.7S232.3,353.3,230.3,353.3L230.3,353.3z"/>
			</g>
			<g id="Ellipse_8">
				<circle class="st7" cx="239.8" cy="357" r="2.4"/>
				<path class="st8" d="M239.8,355c1.1,0,1.9,0.9,1.9,1.9c0,1.1-0.9,1.9-1.9,1.9s-1.9-0.9-1.9-1.9C237.9,355.9,238.7,355,239.8,355
					 M239.8,354c-1.6,0-2.9,1.3-2.9,2.9s1.3,2.9,2.9,2.9c1.6,0,2.9-1.3,2.9-2.9C242.8,355.3,241.4,354,239.8,354L239.8,354z"/>
			</g>
		</g>
		<g id="Toilet_1_">
			<g id="Rectangle_21_1_">
				<rect x="414.9" y="392.6" class="st7" width="16.8" height="5.6"/>
				<path class="st8" d="M431.2,393.1v4.6h-15.8v-4.6H431.2 M432.2,392.1h-17.8v6.6h17.8V392.1L432.2,392.1z"/>
			</g>
			<path id="Rectangle_19_x5F_2_1_" class="st9" d="M429.6,380.9c0.2-3.7-2.7-6.8-6.3-6.8l0,0c-3.7,0-6.6,3.1-6.3,6.8l0.8,11.8h11.1
				L429.6,380.9z"/>
			<path id="Rectangle_18_x5F_13_1_" class="st9" d="M427.6,381.2c0.2-2.5-1.8-4.7-4.3-4.7l0,0c-2.5,0-4.5,2.2-4.3,4.7l0.6,6.9h7.4
				L427.6,381.2z"/>
			<ellipse id="Ellipse_6_x5F_2_1_" class="st9" cx="423.3" cy="385.2" rx="1.2" ry="1.2"/>
		</g>
		<g>
			<g>
				<rect x="261.6" y="383.5" class="st7" width="23.5" height="23.5"/>
				<path class="st8" d="M284.6,384v22.5h-22.5V384H284.6 M285.6,383h-24.5v24.5h24.5V383L285.6,383z"/>
			</g>
			<g id="Rectangle_27_2_">
				<rect x="261.6" y="382.8" class="st7" width="23.5" height="1.8"/>
				<path class="st8" d="M284.6,383.3v0.8h-22.5v-0.8H284.6 M285.6,382.3h-24.5v2.8h24.5V382.3L285.6,382.3z"/>
			</g>
			<path id="Vector_3" class="st11" d="M269.4,395.5h7.9 M271.4,392l3.9,7 M271.4,399l3.9-7"/>
		</g>
		<g>
			<path class="st9" d="M481.3,109.2h-17.4l-2.3-15.8h22.1L481.3,109.2z"/>
			<g>
				<rect x="445.3" y="69.3" class="st7" width="52.8" height="25.8"/>
				<path class="st8" d="M497.6,69.8v24.8h-51.8V69.8H497.6 M498.6,68.8h-53.8v26.8h53.8V68.8L498.6,68.8z"/>
			</g>
			<path class="st11" d="M479.3,87.6h-13.4 M480.5,90.7h-15.8V86h15.8V90.7z"/>
			<path class="st9" d="M486.1,91L486.1,91c-0.7,0-1.2-0.5-1.2-1.2v-1.6c0-0.7,0.5-1.2,1.2-1.2l0,0c0.7,0,1.2,0.5,1.2,1.2v1.6
				C487.3,90.5,486.8,91,486.1,91z"/>
			<path class="st9" d="M476.5,78.4c0,2.2-1.8,3.9-4,3.9s-3.9-1.8-3.9-4v-3.9h7.9V78.4z"/>
			<g>
				<rect x="464.2" y="95.4" class="st7" width="16.9" height="14.3"/>
				<path class="st8" d="M480.6,95.9v13.3h-15.9V95.9H480.6 M481.6,94.9h-17.9v15.3h17.9V94.9L481.6,94.9z"/>
			</g>
			<g>
				<rect x="463.9" y="109.6" class="st7" width="17.4" height="1.8"/>
				<path class="st8" d="M480.8,110.1v0.8h-16.4v-0.8H480.8 M481.8,109.1h-18.4v2.8h18.4V109.1L481.8,109.1z"/>
			</g>
			<g>
				<rect x="453.4" y="73.1" class="st7" width="38.3" height="2.5"/>
				<path class="st8" d="M491.3,73.6v1.5H454v-1.5H491.3 M492.3,72.6H453v3.5h39.3V72.6L492.3,72.6z"/>
			</g>
		</g>
		<g>
			<g>
				<path class="st7" d="M227.5,203.8v-39.6h23.6c1,0,1.8,0.8,1.8,1.8v36c0,1-0.8,1.8-1.8,1.8L227.5,203.8L227.5,203.8z"/>
				<path class="st8" d="M251.1,163.7v1c0.7,0,1.3,0.6,1.3,1.3v36c0,0.7-0.6,1.3-1.3,1.3H228v-38.6h23.1V163.7 M251.1,163.7H227
					v40.6h24.1c1.3,0,2.3-1,2.3-2.3v-36C253.4,164.7,252.4,163.7,251.1,163.7L251.1,163.7z"/>
			</g>
			<g>
				<path class="st7" d="M227.5,164.9v-39.6h23.6c1,0,1.8,0.8,1.8,1.8v36c0,1-0.8,1.8-1.8,1.8L227.5,164.9L227.5,164.9z"/>
				<path class="st8" d="M251.1,125.8c0.7,0,1.3,0.6,1.3,1.3v36c0,0.7-0.6,1.3-1.3,1.3H228v-38.6L251.1,125.8 M251.1,124.8H227v40.6
					h24.1c1.3,0,2.3-1,2.3-2.3v-36C253.4,125.8,252.4,124.8,251.1,124.8L251.1,124.8z"/>
			</g>
			<g>
				<polygon class="st7" points="221.9,209.3 221.9,119.8 254.8,119.8 254.8,125.9 228.1,125.9 228.1,203.1 254.8,203.1 
					254.8,209.3 				"/>
				<path class="st8" d="M254.3,120.3v5.2h-25.7h-1v1v38.1v38.1v1h1h25.7v5.2h-31.9v-88.5h31.9 M255.3,119.3h-33.9v90.5h33.9v-7.2
					h-26.7v-38.1v-38.1h26.7L255.3,119.3L255.3,119.3z"/>
			</g>
		</g>
		<g>
			<rect x="221.9" y="284.7" class="st7" width="75.8" height="35.4"/>
			<path class="st8" d="M297.1,285.2v34.4h-74.8v-34.4H297.1 M298.1,284.2h-76.8v36.4h76.8V284.2L298.1,284.2z"/>
		</g>
		<g>
			<rect x="221.9" y="294.8" class="st7" width="75.8" height="3.3"/>
			<path class="st8" d="M297.1,295.3v2.3h-74.8v-2.3H297.1 M298.1,294.3h-76.8v4.3h76.8V294.3L298.1,294.3z"/>
		</g>
		<g>
			<path class="st7" d="M232.5,277c-4.5,0-8.2-3.7-8.2-8.2s3.7-8.2,8.2-8.2s8.2,3.7,8.2,8.2C240.7,273.4,237,277,232.5,277z"/>
			<path class="st8" d="M232.5,261.2c4.2,0,7.7,3.4,7.7,7.7c0,4.2-3.4,7.7-7.7,7.7s-7.7-3.4-7.7-7.7S228.3,261.2,232.5,261.2
				 M232.5,260.2c-4.8,0-8.7,3.9-8.7,8.7s3.9,8.7,8.7,8.7s8.7-3.9,8.7-8.7S237.3,260.2,232.5,260.2L232.5,260.2z"/>
		</g>
		<g>
			<path class="st7" d="M258.8,277c-4.5,0-8.2-3.7-8.2-8.2s3.7-8.2,8.2-8.2s8.2,3.7,8.2,8.2C267,273.4,263.4,277,258.8,277z"/>
			<path class="st8" d="M258.8,261.2c4.2,0,7.7,3.4,7.7,7.7c0,4.2-3.4,7.7-7.7,7.7s-7.7-3.4-7.7-7.7
				C251.2,264.6,254.6,261.2,258.8,261.2 M258.8,260.2c-4.8,0-8.7,3.9-8.7,8.7s3.9,8.7,8.7,8.7c4.8,0,8.7-3.9,8.7-8.7
				S263.6,260.2,258.8,260.2L258.8,260.2z"/>
		</g>
		<g>
			<path class="st7" d="M287.6,277c-4.5,0-8.2-3.7-8.2-8.2s3.7-8.2,8.2-8.2s8.2,3.7,8.2,8.2C295.8,273.4,292.1,277,287.6,277z"/>
			<path class="st8" d="M287.6,261.2c4.2,0,7.7,3.4,7.7,7.7c0,4.2-3.4,7.7-7.7,7.7c-4.2,0-7.7-3.4-7.7-7.7S283.4,261.2,287.6,261.2
				 M287.6,260.2c-4.8,0-8.7,3.9-8.7,8.7s3.9,8.7,8.7,8.7c4.8,0,8.7-3.9,8.7-8.7S292.4,260.2,287.6,260.2L287.6,260.2z"/>
		</g>
		<g>
			<g>
				<rect x="370.8" y="279.8" class="st7" width="23.8" height="20.6"/>
				<path class="st8" d="M394.2,280.3v19.6h-22.8v-19.6H394.2 M395.2,279.3h-24.8v21.6h24.8V279.3L395.2,279.3z"/>
			</g>
			<g>
				<line class="st11" x1="370.9" y1="280.1" x2="378.8" y2="286.8"/>
			</g>
			<g>
				<line class="st11" x1="394.6" y1="280.1" x2="386.6" y2="286.8"/>
			</g>
			<g>
				<line class="st11" x1="370.9" y1="300.2" x2="378.8" y2="293.5"/>
			</g>
			<g>
				<line class="st11" x1="394.6" y1="300.2" x2="386.6" y2="293.5"/>
			</g>
		</g>
		<g id="TV">
			<g id="Rectangle_16">
				<rect x="353.4" y="132.4" class="st7" width="1.8" height="63.6"/>
				<path class="st8" d="M354.7,132.9v62.6h-0.8v-62.6H354.7 M355.7,131.9h-2.8v64.6h2.8V131.9L355.7,131.9z"/>
			</g>
			<g id="Rectangle_15">
				<rect x="355.2" y="132.4" class="st7" width="10.6" height="63.6"/>
				<path class="st8" d="M365.3,132.9v62.6h-9.6v-62.6H365.3 M366.3,131.9h-11.6v64.6h11.6V131.9L366.3,131.9z"/>
			</g>
			<g id="Rectangle_17">
				<rect x="362.3" y="143.3" class="st7" width="1.8" height="41.9"/>
				<path class="st8" d="M363.7,143.8v40.9h-0.8v-40.9L363.7,143.8 M364.7,142.8h-2.8v42.9h2.8V142.8L364.7,142.8z"/>
			</g>
			<path id="Rectangle_18_x5F_2" class="st9" d="M364.2,173.3v-18.1l1.6,1.6v14.9L364.2,173.3z"/>
		</g>
		<g id="TV_1_">
			<g id="Rectangle_16_1_">
				<rect x="381.4" y="132.4" class="st7" width="1.8" height="63.6"/>
				<path class="st8" d="M382.8,132.9v62.6H382v-62.6H382.8 M383.8,131.9H381v64.6h2.8V131.9L383.8,131.9z"/>
			</g>
			<g id="Rectangle_15_1_">
				<rect x="370.8" y="132.4" class="st7" width="10.6" height="63.6"/>
				<path class="st8" d="M380.9,132.9v62.6h-9.6v-62.6H380.9 M381.9,131.9h-11.6v64.6h11.6V131.9L381.9,131.9z"/>
			</g>
			<g id="Rectangle_17_1_">
				<rect x="372.5" y="143.3" class="st7" width="1.8" height="41.9"/>
				<path class="st8" d="M373.8,143.8v40.9H373v-40.9L373.8,143.8 M374.8,142.8H372v42.9h2.8V142.8L374.8,142.8z"/>
			</g>
			<path id="Rectangle_18_x5F_2_1_" class="st9" d="M372.5,155.1v18.1l-1.6-1.6v-14.9L372.5,155.1z"/>
		</g>
		<g>
			<rect x="399.8" y="398.2" class="st7" width="43.1" height="8.9"/>
			<path class="st8" d="M442.4,398.7v7.9h-42.1v-7.9H442.4 M443.4,397.7h-44.1v9.9h44.1V397.7L443.4,397.7z"/>
		</g>
		<g>
			<rect x="221.9" y="339" class="st7" width="24.3" height="1.8"/>
			<path class="st8" d="M245.7,339.5v0.8h-23.3v-0.8H245.7 M246.7,338.5h-25.3v2.8h25.3V338.5L246.7,338.5z"/>
		</g>
		<g>
			<polygon class="st7" points="466.3,407.1 466.3,389.3 469.6,389.3 469.6,382.9 498.1,382.9 498.1,391.6 481.9,391.6 481.9,407.1 
							"/>
			<path class="st8" d="M497.6,383.4v7.7h-15.2h-1v1v14.5h-14.6v-16.8h2.3h1v-1v-5.3h27.5 M498.6,382.4h-29.5v6.3h-3.3v18.8h16.6
				V392h16.2L498.6,382.4L498.6,382.4z"/>
		</g>
	</g>
	<g id="street_anchors" class="st13">
		<rect id="street_x5F_anchor_x5F_01_1_" x="355" y="20" class="st14" width="10" height="10"/>
	</g>
</g>
<g id="комнаты">
	<g>
		<g>
			<path class="st6" d="M325.8,376.7c0-1.5,0.9-2.2,2-2.6c0.3-0.1,0.8-0.3,0.8-0.9c0-0.5-0.4-0.6-0.8-0.6c-0.7,0-1.1,0.4-1.6,0.9
				l-0.6-1c0.6-0.6,1.2-1.2,2.1-1.2c0.9,0,1.9,0.5,1.9,1.8c0,1.4-1,1.8-1.8,2.1c-0.7,0.3-1.1,0.6-1.1,1.1v0.1h2.8v1.2h-3.9V376.7z"
				/>
			<path class="st6" d="M331.5,376c0.4,0,0.8,0.4,0.8,0.9c0,0.5-0.3,0.9-0.8,0.9c-0.4,0-0.7-0.4-0.7-0.9
				C330.8,376.4,331.1,376,331.5,376z"/>
			<path class="st6" d="M333.2,375.9c0-0.8,0.4-1.4,1-1.6c-0.4-0.2-0.7-0.6-0.7-1.2c0-1.1,1.2-1.7,2.1-1.7c0.9,0,2.1,0.5,2.1,1.7
				c0,0.6-0.2,1-0.7,1.2c0.5,0.2,1,0.8,1,1.6c0,1.3-1.1,2-2.3,2C334.3,377.9,333.2,377.1,333.2,375.9z M336.7,375.8
				c0-0.6-0.6-0.9-1.2-0.9c-0.5,0-1.2,0.3-1.2,0.9c0,0.6,0.6,0.9,1.2,0.9C336.1,376.7,336.7,376.3,336.7,375.8z M336.4,373.2
				c0-0.5-0.5-0.7-0.9-0.7c-0.4,0-0.9,0.2-0.9,0.7c0,0.4,0.3,0.6,0.9,0.6C336.1,373.8,336.4,373.6,336.4,373.2z"/>
		</g>
	</g>
	<g>
		<g>
			<path class="st6" d="M375,324.9l1.4-0.8h1v6.1h-1.1v-4.7l-1,0.6L375,324.9z"/>
			<path class="st6" d="M379.4,328.6c0.4,0,0.8,0.4,0.8,0.9c0,0.5-0.3,0.9-0.8,0.9c-0.4,0-0.7-0.4-0.7-0.9
				C378.7,329,379,328.6,379.4,328.6z"/>
			<path class="st6" d="M380.8,324.9l1.4-0.8h1v6.1h-1.1v-4.7l-1,0.6L380.8,324.9z"/>
		</g>
	</g>
	<g>
		<g>
			<path class="st6" d="M292.6,183.7c0-1.5,0.9-2.2,2-2.6c0.3-0.1,0.8-0.3,0.8-0.9c0-0.5-0.4-0.6-0.8-0.6c-0.7,0-1.1,0.4-1.6,0.9
				l-0.6-1c0.6-0.6,1.2-1.2,2.1-1.2c0.9,0,1.9,0.5,1.9,1.8c0,1.4-1,1.8-1.8,2.1c-0.7,0.3-1.1,0.6-1.1,1.1v0.1h2.8v1.2h-3.9V183.7z"
				/>
			<path class="st6" d="M297.5,183.7c0-1.5,0.9-2.2,2-2.6c0.3-0.1,0.8-0.3,0.8-0.9c0-0.5-0.4-0.6-0.8-0.6c-0.7,0-1.1,0.4-1.6,0.9
				l-0.6-1c0.6-0.6,1.2-1.2,2.1-1.2c0.9,0,1.9,0.5,1.9,1.8c0,1.4-1,1.8-1.8,2.1c-0.7,0.3-1.1,0.6-1.1,1.1v0.1h2.8v1.2h-3.9V183.7z"
				/>
			<path class="st6" d="M303.2,183.1c0.4,0,0.8,0.4,0.8,0.9c0,0.5-0.3,0.9-0.8,0.9c-0.4,0-0.7-0.4-0.7-0.9
				C302.4,183.5,302.7,183.1,303.2,183.1z"/>
			<path class="st6" d="M304.8,182.9c0-0.8,0.4-1.4,1-1.6c-0.4-0.2-0.7-0.6-0.7-1.2c0-1.1,1.2-1.7,2.1-1.7c0.9,0,2.1,0.5,2.1,1.7
				c0,0.6-0.2,1-0.7,1.2c0.5,0.2,1,0.7,1,1.6c0,1.3-1.1,2-2.3,2C306,184.9,304.8,184.2,304.8,182.9z M308.3,182.8
				c0-0.6-0.6-0.9-1.2-0.9c-0.5,0-1.2,0.3-1.2,0.9c0,0.6,0.6,0.9,1.2,0.9C307.7,183.7,308.3,183.4,308.3,182.8z M308.1,180.2
				c0-0.5-0.5-0.7-0.9-0.7c-0.4,0-0.9,0.2-0.9,0.7c0,0.4,0.3,0.6,0.9,0.6C307.7,180.9,308.1,180.7,308.1,180.2z"/>
		</g>
	</g>
	<g>
		<g>
			<path class="st6" d="M436,235.7l1.4-0.8h1v6.1h-1.1v-4.7l-1,0.6L436,235.7z"/>
			<path class="st6" d="M439.5,240.3l0.5-1c0.3,0.3,1,0.7,1.9,0.7c0.6,0,1.2-0.3,1.2-1c0-0.6-0.5-0.9-0.9-0.9
				c-0.6,0-1.1,0.3-1.5,0.6l-0.6-0.6v-3.2h3.7v1.2H441v1.4c0.4-0.3,0.7-0.6,1.3-0.6c0.9,0,1.9,0.6,1.9,2c0,1.6-1.2,2.3-2.3,2.3
				C440.7,241.2,439.9,240.6,439.5,240.3z"/>
			<path class="st6" d="M445.8,239.4c0.4,0,0.8,0.4,0.8,0.9c0,0.5-0.3,0.9-0.8,0.9c-0.4,0-0.7-0.4-0.7-0.9
				C445,239.8,445.4,239.4,445.8,239.4z"/>
			<path class="st6" d="M447.5,239.2c0-0.8,0.4-1.4,1-1.6c-0.4-0.2-0.7-0.6-0.7-1.2c0-1.1,1.2-1.7,2.1-1.7c0.9,0,2.1,0.5,2.1,1.7
				c0,0.6-0.2,1-0.7,1.2c0.5,0.2,1,0.7,1,1.6c0,1.3-1.1,2-2.3,2C448.6,241.2,447.5,240.5,447.5,239.2z M450.9,239.1
				c0-0.6-0.6-0.9-1.2-0.9s-1.2,0.3-1.2,0.9c0,0.6,0.6,0.9,1.2,0.9C450.4,240,450.9,239.7,450.9,239.1z M450.7,236.5
				c0-0.5-0.5-0.7-0.9-0.7c-0.4,0-0.9,0.2-0.9,0.7c0,0.4,0.3,0.6,0.9,0.6C450.4,237.2,450.7,237,450.7,236.5z"/>
		</g>
	</g>
	<g>
		<g>
			<path class="st6" d="M434.6,351.3l0.5-1c0.3,0.3,1,0.7,1.9,0.7c0.6,0,1.2-0.3,1.2-1c0-0.6-0.5-0.9-0.9-0.9
				c-0.6,0-1.1,0.3-1.5,0.6l-0.6-0.6V346h3.7v1.2h-2.7v1.4c0.4-0.3,0.7-0.6,1.3-0.6c0.9,0,1.9,0.6,1.9,2c0,1.6-1.2,2.3-2.3,2.3
				C435.8,352.3,435,351.7,434.6,351.3z"/>
		</g>
	</g>
</g>
</svg>
