<svg width="40" height="40" viewBox="0 0 40 40" fill="none" xmlns="http://www.w3.org/2000/svg">
<path d="M14.9971 22.2265C15.8877 24.1191 17.7802 25.455 20.0067 25.455C22.2333 25.455 24.1258 24.1191 25.0164 22.2265L27.5769 23.4511C26.241 26.2342 23.4578 28.2381 20.1181 28.2381C15.5537 28.2381 11.88 24.5644 11.88 20C11.88 15.4357 15.4424 11.762 20.0067 11.762C24.5711 11.762 28.2448 15.4357 28.2448 20" stroke="#E9E4DC" stroke-width="1.2" stroke-miterlimit="10"/>
<path d="M17.7804 18.8867C18.3952 18.8867 18.8936 18.3882 18.8936 17.7734C18.8936 17.1586 18.3952 16.6602 17.7804 16.6602C17.1655 16.6602 16.6671 17.1586 16.6671 17.7734C16.6671 18.3882 17.1655 18.8867 17.7804 18.8867Z" fill="#E9E4DC"/>
<path d="M22.2334 18.8867C22.8482 18.8867 23.3466 18.3882 23.3466 17.7734C23.3466 17.1586 22.8482 16.6602 22.2334 16.6602C21.6185 16.6602 21.1201 17.1586 21.1201 17.7734C21.1201 18.3882 21.6185 18.8867 22.2334 18.8867Z" fill="#E9E4DC"/>
</svg>
