<?xml version="1.0" encoding="UTF-8"?><!DOCTYPE svg PUBLIC "-//W3C//DTD SVG 1.1//EN" "http://www.w3.org/Graphics/SVG/1.1/DTD/svg11.dtd"><svg xmlns="http://www.w3.org/2000/svg" xmlns:xlink="http://www.w3.org/1999/xlink"><defs><clipPath id="clip0_3531_2283"><path fill="currentColor" transform="translate(0 .254)" d="M0 0h16v16H0z"/></clipPath></defs><symbol id="arrow-right"><path d="M14 1l6 6m0 0l-6 6m6-6H0" stroke="currentColor" fill="none" stroke-width="1.2"/></symbol><symbol id="back"><path display="var(--is-visible--only-desktop)" d="M8 5l-6 6 6 6M2 11h20" fill="none" stroke="currentColor" stroke-width="2"/><path display="var(--is-visible--non-desktop)" d="M3 11h16M8 6l-5 5 5 5" fill="none" stroke="currentColor" stroke-width="2"/></symbol><symbol id="btn-angle-down"><path d="M8.5 13L1 5.5M10.5 11L16 5.5" stroke="currentColor" fill="none" stroke-width="1.2" stroke-miterlimit="10"/></symbol><symbol id="btn-angle-left"><path d="M12 3L6 9l6 6" stroke="currentColor" fill="none" stroke-width="1.2"/></symbol><symbol id="btn-angle-right"><path d="M6 15l6-6-6-6" stroke="currentColor" fill="none" stroke-width="1.2"/></symbol><symbol id="btn-angle-up"><path d="M8.5 5.194l-7.083 7.083M10.389 7.083l5.194 5.194" stroke="currentColor" fill="none" stroke-width="1.2" stroke-miterlimit="10"/></symbol><symbol id="btn-arrow-down"><path d="M10 0v18.518l9.375-9.259M7.5 16.05L.625 9.26" display="var(--is-visible--only-desktop)" fill="none" stroke="currentColor" stroke-width="1.2" stroke-miterlimit="10"/><path display="var(--is-visible--non-desktop)" fill="none" d="M10.125 1.8v15l7.594-7.5M8.1 14.8L2.531 9.3" stroke="currentColor" stroke-width="1.2" stroke-miterlimit="10"/></symbol><symbol id="btn-arrow-left"><path fill="none" display="var(--is-visible--only-desktop)" d="M20 9.877H1.481l9.26 9.259M3.95 7.407l6.79-6.79" stroke="currentColor" stroke-width="1.2" stroke-miterlimit="10"/><path fill="none" display="var(--is-visible--non-desktop)" d="M18.2 10h-15l7.5 7.5M5.2 8l5.5-5.5" stroke="currentColor" stroke-width="1.2" stroke-miterlimit="10"/></symbol><symbol id="btn-arrow-right"><path display="var(--is-visible--only-desktop)" d="M0 9.877h18.518L9.26 19.136M16.05 7.407L9.26.617" fill="none" stroke="currentColor" stroke-width="1.2" stroke-miterlimit="10"/><path display="var(--is-visible--non-desktop)" d="M1.8 10h15l-7.5 7.5M14.8 8L9.3 2.5" fill="none" stroke="currentColor" stroke-width="1.2" stroke-miterlimit="10"/></symbol><symbol id="btn-arrow-up"><path d="M10 18.2v-15l-7.5 7.5M12 5.2l5.5 5.5" fill="none" stroke="currentColor" stroke-width="1.2" stroke-miterlimit="10"/></symbol><symbol id="btn-panorama"><path fill="none" d="M22 10h18.519L31.259.74m6.79 11.73l-6.79 6.79M23 10H1.481l9.26 9.26M3.95 7.53L10.74.74" stroke="currentColor" stroke-width="1.2" stroke-miterlimit="10"/></symbol><symbol id="close-bold"><path d="M17 1L1 17M1 1l16 16" stroke="currentColor" stroke-width="2"/></symbol><symbol id="close"><path display="var(--is-visible--only-desktop)" fill="none" d="M1 1l17 17M7.233 11.767L1 18M18 1L9.5 9.5" stroke="currentColor" stroke-width="1.2" stroke-miterlimit="10"/><path display="var(--is-visible--non-desktop)" fill="none" d="M2.5 2.5l15 15M8 12l-5.5 5.5M17.5 2.5L10 10" stroke="currentColor" stroke-width="1.2" stroke-miterlimit="10"/></symbol><symbol id="download-xs"><path d="M1 16.5h16" fill="none" stroke="currentColor" stroke-width="1.2" stroke-miterlimit="10"/><path d="M9 16L1.5 8.5" sfill="none" stroke="currentColor" stroke-width="1.2" stroke-miterlimit="10"/><path d="M9 1v15M11 14l5.5-5.5" fill="none" stroke="currentColor" stroke-width="1.2" stroke-miterlimit="10"/></symbol><symbol id="download"><path display="var(--is-visible--only-desktop)" d="M0 19.375h20M10 18.75L.625 9.375M10 0v18.75M12.5 16.25l6.875-6.875" fill="none" stroke="currentColor" stroke-width="1.2" stroke-miterlimit="10"/><path display="var(--is-visible--non-desktop)" d="M2 19.5h16M10 19l-7.5-7.5M10 4v15M12 17l5.5-5.5" fill="none" stroke="currentColor" stroke-width="1.2" stroke-miterlimit="10"/></symbol><symbol id="dropdown"><path d="M1 1l5 5 5-5" fill="none" stroke="currentColor" stroke-width="2" display="var(--is-visible--only-desktop)"/><path d="M2 3l4 4 4-4" fill="none" stroke="currentColor" stroke-width="2" display="var(--is-visible--only-non-desktop)"/></symbol><symbol id="eye"><path display="var(--is-visible--only-desktop)" fill="none" d="M17.375 3.875c1.5 1.625 2.125 3.25 2.125 3.25s-2.25 6.125-9.25 6.125S1 7.125 1 7.125 3.375 1 10.25 1" stroke="currentColor" stroke-width="1.2" stroke-miterlimit="10"/><path display="var(--is-visible--only-desktop)" fill="none" d="M5.625 5.625c0 2.5 2.125 4.625 4.625 4.625s4.625-2.125 4.625-4.625S12.75 1 10.25 1" stroke="currentColor" stroke-width="1.2" stroke-miterlimit="10"/><path display="var(--is-visible--non-desktop)" fill="none" d="M16.1 4.3c1.2 1.3 1.7 2.6 1.7 2.6s-1.8 4.9-7.4 4.9C4.8 11.8 3 6.9 3 6.9S4.9 2 10.4 2" stroke="currentColor" stroke-width="1.2" stroke-miterlimit="10"/><path display="var(--is-visible--non-desktop)" fill="none" d="M6.7 5.7c0 2 1.7 3.7 3.7 3.7s3.7-1.7 3.7-3.7S12.4 2 10.4 2" stroke="currentColor" stroke-width="1.2" stroke-miterlimit="10"/></symbol><symbol id="favourite"><path display="var(--is-visible--only-desktop)" d="M1 0v18.375L9.125 10l8.125 8.375V.625H4.125V11.25" fill="none" stroke="currentColor" stroke-width="1.2" stroke-miterlimit="10"/><path display="var(--is-visible--non-desktop)" d="M2 2v14.7L8.5 10l6.5 6.7V2.5H4.5V11" fill="none" stroke="currentColor" stroke-width="1.2" stroke-miterlimit="10"/></symbol><symbol id="feature-Parking-3"><path d="M11.156 14.306a6.778 6.778 0 006.825-6.825A6.778 6.778 0 0011.156.656H4.331v19.688h3.282V5.38" stroke="currentColor" fill="none" stroke-width="1.2" stroke-miterlimit="10"/></symbol><symbol id="feature-parking-nav"><path d="M11.485 14.375h1.443c.765 0 1.498-.296 2.04-.824.54-.527.844-1.243.844-1.989 0-.745-.304-1.46-.845-1.988a2.923 2.923 0 00-2.04-.824H9.563v7.5h1.923v-1.875zm0-3.75h1.443c.255 0 .5.099.68.275.18.175.281.414.281.662a.926.926 0 01-.281.663.974.974 0 01-.68.275h-1.443v-1.875z" fill="currentColor" display="var(--is-visible--mobile)"/><rect x="6.25" y="6.25" width="12.5" height="12.5" rx="2" fill="none" stroke="currentColor" display="var(--is-visible--mobile)"/><path d="M10.377 15h2.308a4.676 4.676 0 003.263-1.318A4.443 4.443 0 0017.3 10.5a4.443 4.443 0 00-1.352-3.182A4.676 4.676 0 0012.685 6H7.3v12h3.077v-3zm0-6h2.308c.408 0 .799.158 1.088.44.288.28.45.662.45 1.06s-.162.78-.45 1.06c-.289.282-.68.44-1.088.44h-2.308V9z" fill="currentColor" display="var(--is-visible--non-mobile)"/><rect x="2" y="2" width="20" height="20" rx="2" fill="none" stroke="currentColor" stroke-width="1.2" display="var(--is-visible--non-mobile)"/></symbol><symbol id="feature-penthouse-2"><path d="M8.438 9.688V6.563h8.125v3.125m-8.125 0v8.75h1.874m-1.874-8.75h8.124m0 0v8.75h-4.375m-1.874 0h1.875m-1.876 0v-3.75h1.876v3.75" fill="none" stroke="currentColor" stroke-miterlimit="10" stroke-linecap="square" display="var(--is-visible--only-non-desktop)"/><path fill="currentColor" display="var(--is-visible--only-non-desktop)" d="M8.75 6.875h7.5v2.5h-7.5z"/><path d="M5.5 7.5v-5h13v5m-13 0v14h3m-3-14h13m0 0v14h-7m-3 0h3m-3 0v-6h3v6" fill="none" stroke="currentColor" stroke-width="1.2" stroke-miterlimit="10" stroke-linecap="square" display="var(--is-visible--only-desktop)"/><path fill="currentColor" display="var(--is-visible--only-desktop)" d="M6 3h12v4H6z"/></symbol><symbol id="feature-penthouse-3"><path display="var(--is-visible--only-desktop)" fill="none" d="M7.25 15.125V5.75L1 10.375v9.375h18.75V1h-9.375v18.75" stroke="currentColor" stroke-width="1.2" stroke-miterlimit="10" stroke-linecap="square"/><path display="var(--is-visible--non-desktop)" fill="none" d="M7.5 13.8V6.3l-5 3.7v7.5h15v-15H10v15" stroke="currentColor" stroke-width="1.2" stroke-miterlimit="10" stroke-linecap="square"/></symbol><symbol id="feature-penthouse-4"><path d="M5.5 7.5v-5h13v5m-13 0v14h3m-3-14h13m0 0v14h-7m-3 0h3m-3 0v-6h3v6" fill="none" stroke="currentColor" stroke-width="1.2" stroke-miterlimit="10" stroke-linecap="square" display="var(--is-visible--only-desktop)"/><path fill="currentColor" display="var(--is-visible--only-desktop)" d="M6 3h12v4H6z"/><path d="M7.125 8.626v-3.75h9.75v3.75m-9.75 0v10.5h2.25m-2.25-10.5h9.75m0 0v10.5h-5.25m-2.25 0h2.249m-2.25 0v-4.5h2.25v4.5" fill="none" stroke="currentColor" stroke-miterlimit="10" stroke-linecap="square" display="var(--is-visible--only-tablet)"/><path fill="currentColor" display="var(--is-visible--only-tablet)" d="M7.499 5.25h9v3h-9z"/><path d="M8.438 9.688V6.562h8.125v3.125m-8.125 0v8.75h1.874m-1.874-8.75h8.124m0 0v8.75h-4.375m-1.874 0h1.875m-1.876 0v-3.75h1.876v3.75" fill="none" stroke="currentColor" stroke-miterlimit="10" stroke-linecap="square" display="var(--is-visible--only-mobile)"/><path fill="currentColor" display="var(--is-visible--only-mobile)" d="M8.75 6.875h7.5v2.5h-7.5z"/></symbol><symbol id="feature-penthouse-nav"><path d="M8.438 9.688V6.563h8.125v3.125m-8.125 0v8.75h1.874m-1.874-8.75h8.124m0 0v8.75h-4.375m-1.874 0h1.875m-1.876 0v-3.75h1.876v3.75" fill="none" stroke="currentColor" stroke-miterlimit="10" stroke-linecap="square" display="var(--is-visible--mobile)"/><path fill="currentColor" stroke="currentColor" display="var(--is-visible--mobile)" d="M9.25 7.375h6.5v1.5h-6.5z"/><path d="M5.5 8.5v-5h13v5m-13 0v14h3m-3-14h13m0 0v14h-7m-3 0h3m-3 0v-6h3v6" fill="none" stroke="currentColor" stroke-width="1.2" stroke-miterlimit="10" stroke-linecap="square" display="var(--is-visible--non-mobile)"/><path fill="currentColor" stroke="currentColor" display="var(--is-visible--non-mobile)" d="M6.5 4.5h11v3h-11z"/></symbol><symbol id="feature-penthouse"><path d="M17.5 1.5v5m0-5h-4m4 0l-5 5m-3-5h-5v5m5-5l-5 5m5-5h4m-9 5v14h5m-5-14h4m9 0v14h-5m5-14h-5m-3 14h3m-3 0v-6h3v6m0-14h-4m0 0l5-5" fill="none" stroke="currentColor" stroke-width="1.2" stroke-miterlimit="10" stroke-linecap="square" display="var(--is-visible--large-desktop)"/><path d="M16.5 3.5v4m0-4H13m3.5 0l-4 4m-3-4h-4v4m4-4l-4 4m4-4H13m-7.5 4v11h4m-4-11H9m7.5 0v11h-4m4-11h-4m-3 11v-5h3v5m-3 0h3m0-11H9m0 0l4-4" fill="none" stroke="currentColor" stroke-width="1.2" stroke-miterlimit="10" stroke-linecap="square" display="var(--is-visible--small-desktop)"/><path d="M14.5 4.5v3m0-3H12m2.5 0l-3 3m-2-3H6.437v3m3.063-3l-3.063 3m3.063-3H12m-5.563 3l.063 9h3m-3.063-9H9m5.5 0v9h-3m3-9h-3m-2 9v-4h2v4m-2 0h2m0-9H9m0 0l3-3" fill="none" stroke="currentColor" stroke-width="1.2" stroke-miterlimit="10" stroke-linecap="square" display="var(--is-visible--non-any-desktop)"/></symbol><symbol id="feature-terrace-2"><path d="M12.5 6.25v12.5" fill="none" stroke="currentColor" stroke-miterlimit="10" display="var(--is-visible--only-non-desktop)"/><path d="M17.916 12.083H7.083L12.5 7.5l5.416 4.583z" fill="currentColor" stroke="currentColor" stroke-width="1.2" display="var(--is-visible--only-non-desktop)"/><path d="M12 2v20" fill="none" stroke="currentColor" stroke-width="1.2" stroke-miterlimit="10" display="var(--is-visible--only-desktop)"/><path d="M20.666 11.333H3.333L12 4l8.666 7.333z" fill="currentColor" stroke="currentColor" stroke-width="1.2" display="var(--is-visible--only-desktop)"/></symbol><symbol id="feature-terrace-3"><path d="M10.5 20.344v-8.925M.656 11.419h19.688M.656 11.419V8.138L10.5.918l8.531 7.22H5.25" stroke="currentColor" fill="none" display="var(--is-visible--only-desktop)" stroke-width="1.2" stroke-miterlimit="10" stroke-linecap="square"/><path d="M10 18.5v-6.8M2.5 11.7h15M2.5 11.7V9.2L10 3.7l6.5 5.5H6" stroke="currentColor" fill="none" display="var(--is-visible--non-desktop)" stroke-width="1.2" stroke-miterlimit="10" stroke-linecap="square"/></symbol><symbol id="feature-terrace-4"><path d="M12 2v20" fill="none" stroke="currentColor" stroke-width="1.2" stroke-miterlimit="10" display="var(--is-visible--only-desktop)"/><path d="M20.666 11.333H3.333L12 4l8.666 7.333z" fill="currentColor" stroke="currentColor" stroke-width="1.2" display="var(--is-visible--only-desktop)"/><path d="M12 4.5v15" fill="none" stroke="currentColor" stroke-miterlimit="10" display="var(--is-visible--only-tablet)"/><path d="M18.5 11.499h-13l6.5-5.5 6.5 5.5z" fill="currentColor" stroke="currentColor" stroke-width="1.2" display="var(--is-visible--only-tablet)"/><path d="M12.5 6.25v12.5" fill="none" stroke="currentColor" stroke-miterlimit="10" display="var(--is-visible--only-mobile)"/><path d="M17.916 12.083H7.083L12.5 7.5l5.416 4.583z" fill="currentColor" stroke="currentColor" stroke-width="1.2" display="var(--is-visible--only-mobile)"/></symbol><symbol id="feature-terrace-nav"><path d="M12.5 6.25v12.5" fill="none" stroke="currentColor" stroke-miterlimit="10" display="var(--is-visible--mobile)"/><path d="M17.916 12.083H7.083L12.5 7.5l5.416 4.583z" fill="currentColor" stroke="currentColor" stroke-width="1.2" display="var(--is-visible--mobile)"/><path d="M12 3v20" fill="none" stroke="currentColor" stroke-width="1.2" stroke-miterlimit="10" display="var(--is-visible--non-mobile)"/><path d="M20.666 12.333H3.333L12 5l8.666 7.333z" fill="currentColor" stroke="currentColor" stroke-width="1.2" display="var(--is-visible--non-mobile)"/></symbol><symbol id="feature-terrace"><path d="M11 1v20" fill="none" stroke="currentColor" stroke-width="1.2" stroke-miterlimit="10" display="var(--is-visible--large-desktop)"/><path d="M19.5 10.5h-17L11 3l8.5 7.5z" fill="none" stroke="currentColor" stroke-width="1.2" display="var(--is-visible--large-desktop)"/><path d="M11 3.5v15" fill="none" stroke="currentColor" stroke-width="1.2" stroke-miterlimit="10" display="var(--is-visible--small-desktop)"/><path d="M17.5 10.625h-13L11 5l6.5 5.625z" fill="none" stroke="currentColor" stroke-width="1.2" display="var(--is-visible--small-desktop)"/><path d="M10.5 4.166v12.5" fill="none" stroke="currentColor" stroke-width="1.2" stroke-miterlimit="10" display="var(--is-visible--non-any-desktop)"/><path d="M16 10.666H5l5.5-5 5.5 5z" fill="none" stroke="currentColor" stroke-width="1.2" display="var(--is-visible--non-any-desktop)"/></symbol><symbol id="feature-twofloors-2"><path d="M7.5 6.563h10" fill="currentColor" stroke="currentColor" display="var(--is-visible--only-non-desktop)"/><path d="M12.188 15.938h2.5v2.5H7.811v-7.5h1.875v2.5h2.5v2.5z" fill="currentColor" display="var(--is-visible--only-non-desktop)"/><path d="M14.688 18.438v-2.5h-2.5v-2.5h-2.5v-2.5H7.812v7.5h6.875zm0 0H17.5" fill="currentColor" stroke="currentColor" stroke-width="1.2" display="var(--is-visible--only-non-desktop)"/><path d="M4 2.5h16" fill="currentColor" stroke="currentColor" stroke-width="1.2" display="var(--is-visible--only-desktop)"/><path d="M11.5 17.5h4v4h-11v-12h3v4h4v4z" fill="currentColor" display="var(--is-visible--only-desktop)"/><path d="M15.5 21.5v-4h-4v-4h-4v-4h-3v12h11zm0 0H20" fill="currentColor" stroke="currentColor" stroke-width="1.2" display="var(--is-visible--only-desktop)"/></symbol><symbol id="feature-twofloors-3"><path display="var(--is-visible--only-desktop)" d="M21 20.344H.656V14.83H7.22V9.45h6.562V3.938h6.563V.655H0" stroke="currentColor" fill="none" stroke-width="1.2" stroke-miterlimit="10"/><path display="var(--is-visible--non-desktop)" d="M18.9 18.375H2.625v-4.41h5.25V9.66h5.25V5.25h5.25V2.625H2.1" stroke="currentColor" fill="none" stroke-width="1.2" stroke-miterlimit="10"/></symbol><symbol id="feature-twofloors-4"><path d="M6 4.876h12" fill="none" stroke="currentColor" display="var(--is-visible--only-mobile)"/><path d="M11.625 16.125h3v3h-8.25v-9h2.25v3h3v3z" fill="currentColor" display="var(--is-visible--only-mobile)"/><path d="M14.625 19.125v-3h-3v-3h-3v-3h-2.25v9h8.25zm0 0H18" fill="none" stroke="currentColor" stroke-width="1.2" display="var(--is-visible--only-mobile)"/><path d="M7.5 6.563h10" fill="none" stroke="currentColor" display="var(--is-visible--only-tablet)"/><path d="M12.188 15.938h2.5v2.5H7.811v-7.5h1.875v2.5h2.5v2.5z" fill="currentColor" display="var(--is-visible--only-tablet)"/><path d="M14.688 18.438v-2.5h-2.5v-2.5h-2.5v-2.5H7.812v7.5h6.875zm0 0H17.5" fill="none" stroke="currentColor" stroke-width="1.2" display="var(--is-visible--only-tablet)"/><path d="M4 2.5h16" fill="none" stroke="currentColor" stroke-width="1.2" display="var(--is-visible--only-desktop)"/><path d="M11.5 17.5h4v4h-11v-12h3v4h4v4z" fill="currentColor" display="var(--is-visible--only-desktop)"/><path d="M15.5 21.5v-4h-4v-4h-4v-4h-3v12h11zm0 0H20" fill="none" stroke="currentColor" stroke-width="1.2" display="var(--is-visible--only-desktop)"/></symbol><symbol id="feature-twofloors-nav"><path d="M7.5 6.563h10" fill="none" stroke="currentColor" display="var(--is-visible--mobile)"/><path d="M12.188 15.938h2.5v2.5H7.811v-7.5h1.875v2.5h2.5v2.5z" fill="currentColor" display="var(--is-visible--mobile)"/><path d="M14.688 18.438v-2.5h-2.5v-2.5h-2.5v-2.5H7.812v7.5h6.875zm0 0H17.5" fill="none" stroke="currentColor" stroke-width="1.2" display="var(--is-visible--mobile)"/><path d="M4 2.5h16" fill="none" stroke="currentColor" stroke-width="1.2" display="var(--is-visible--non-mobile)"/><path d="M11.5 17.5h4v4h-11v-12h3v4h4v4z" fill="currentColor" display="var(--is-visible--non-mobile)"/><path d="M15.5 21.5v-4h-4v-4h-4v-4h-3v12h11zm0 0H20" fill="none" stroke="currentColor" stroke-width="1.2" display="var(--is-visible--non-mobile)"/></symbol><symbol id="feature-twofloors"><path d="M1.5 21v-6.5h7v-7h6v-6H21" fill="none" stroke="currentColor" stroke-width="1.2" display="var(--is-visible--large-desktop)"/><path d="M3.5 19v-5.5h5v-5h5v-5H19" fill="none" stroke="currentColor" stroke-width="1.2" display="var(--is-visible--small-desktop)"/><path d="M4.5 17v-4.5h4v-4h4v-4H17" fill="none" stroke="currentColor" stroke-width="1.2" display="var(--is-visible--non-any-desktop)"/></symbol><symbol id="feature-whitebox-3"><path d="M15.8 3.5H3v4h12.8v-2H17a1 1 0 011 1v2.476a1 1 0 01-.778.975l-4.829 1.099a3 3 0 00-2.334 2.925v.525" fill="none" stroke="currentColor" stroke-width="1.2"/><path d="M9.667 13.5H9v5h2v-3" fill="none" stroke="currentColor"/></symbol><symbol id="fitness-icon"><path d="M21.1 21.8l-6.9-4L17 13c-.9 1.5-.4 3.3 1.1 4.1 1.3.7 2.9.4 3.8-.7l1.2.7 4.3 9.1c.1.3.1.6 0 .9-.3.5-.9.6-1.4.4L13 20" stroke="currentColor" fill="none" stroke-width="1.2" stroke-miterlimit="10" stroke-linecap="square"/></symbol><symbol id="key-xs"><circle display="var(--is-visible--only-desktop)" cx="6" cy="9" r="4" fill="none" stroke="currentColor" stroke-width="2"/><path display="var(--is-visible--only-desktop)" fill="none" stroke="currentColor" stroke-width="2" d="M9 9h8M15 9.5v3"/><circle display="var(--is-visible--non-desktop)" cx="6.375" cy="9.375" r="3.5" fill="none" stroke="currentColor" stroke-width="1.75"/><path display="var(--is-visible--non-desktop)" fill="none" stroke="currentColor" stroke-width="1.75" d="M9 9.375h7M14.25 9.813v2.625"/></symbol><symbol id="key"><path d="M19.943 18.136A4.088 4.088 0 0012 19.5a4.088 4.088 0 007.943 1.364h2.966v2.727h2.727v-2.727H27v-2.728h-7.057zm-3.852 2.728a1.363 1.363 0 110-2.727 1.363 1.363 0 010 2.727z" fill="currentColor"/></symbol><symbol id="lock" viewBox="0 0 18 18"><path d="M3.663 8.427a1.4 1.4 0 011.4-1.4h8a1.4 1.4 0 011.4 1.4v2.908a5.4 5.4 0 01-10.8 0V8.427zM5.832 6.428c0-2.631.583-4.764 3.23-4.764 2.648 0 3.095 3.387 3.095 3.387M9.076 12.259v2.293" stroke="currentColor" fill="none" stroke-width="1.2"/></symbol><symbol id="logo"><path d="M137.898.66h-19.755v4.174h19.755V.661zm-9.902 34.927c-7.144-.009-12.974-5.86-12.953-13 .02-7.133 5.841-12.93 12.973-12.924 7.158.007 12.997 5.84 12.984 12.97-.014 7.133-5.864 12.963-13.004 12.954zm-8.399-12.966c.008 4.66 3.766 8.424 8.41 8.425 4.654.001 8.463-3.807 8.451-8.448-.012-4.627-3.808-8.4-8.451-8.4a8.412 8.412 0 00-8.41 8.423zm-76.133 4.565V10.368h4.514v24.544h-3.281l-14.52-16.857v16.833h-4.51V10.327c.813 0 3.28-.014 3.28-.014s9.558 11.135 14.074 16.377c.111.13.228.256.443.496zM4.529 14.532v5.96h12.593v4.242H4.54v5.918h15.218v4.241H0V10.359h19.755v4.174L4.53 14.532zm106.877 20.366H91.671v-24.54h19.745v4.206H96.21v5.93h12.57v4.247H96.205v5.915h15.201v4.242zM86.3 10.36v4.211h-8.583v20.323h-4.502v-20.3h-8.606V10.36H86.3zm-31.412-.006h4.471v24.531h-4.471v-24.53zM19.758.66H.002v4.174h19.756V.661z" fill="currentColor"/></symbol><symbol id="mail-xs"><path d="M17 15.8H2.5v-2.5h14v-11h-14l7 6 7-6" fill="none" stroke="currentColor" stroke-width="1.2" stroke-miterlimit="10"/></symbol><symbol id="mail"><path d="M16.5 14.5H2V12h14V1H2l7 6 7-6" fill="none" stroke="currentColor" stroke-width="1.2" stroke-miterlimit="10"/></symbol><symbol id="mall-icon"><path d="M14.997 22.227c.89 1.892 2.783 3.228 5.01 3.228 2.226 0 4.119-1.336 5.01-3.228l2.56 1.224c-1.336 2.783-4.12 4.787-7.459 4.787A8.22 8.22 0 0111.88 20c0-4.564 3.562-8.238 8.127-8.238A8.22 8.22 0 0128.245 20" stroke="currentColor" fill="none" stroke-width="1.2" stroke-miterlimit="10"/><path d="M17.78 18.887a1.113 1.113 0 100-2.227 1.113 1.113 0 000 2.227zM22.233 18.887a1.113 1.113 0 100-2.227 1.113 1.113 0 000 2.227z" fill="#E9E4DC"/></symbol><symbol id="medic-icon"><path d="M20 18.6c0-1-.4-1.9-1.1-2.7-1.5-1.4-3.8-1.4-5.3.1s-1.5 3.8 0 5.3l6.4 6.4" stroke="currentColor" fill="none" stroke-width="1.2" stroke-miterlimit="10"/><path d="M20 18.6c0-1 .4-1.9 1.1-2.7 1.5-1.5 3.8-1.5 5.3 0s1.5 3.8 0 5.3l-4.8 4.4-6.2-6" stroke="currentColor" fill="none" stroke-width="1.2" stroke-miterlimit="10"/></symbol><symbol id="menu"><path d="M12 8h8M0 8h8M0 2h20M0 14h20" stroke="currentColor" fill="none" display="var(--is-visible--only-desktop)" stroke-width="1.2" stroke-miterlimit="10"/><path d="M11.367 8H18M2 8h6.996M2 2h16M2 14h16" stroke="currentColor" fill="none" display="var(--is-visible--non-desktop)" stroke-width="1.2" stroke-miterlimit="10"/></symbol><symbol id="more-formats"><path d="M18 10H2M10 2v16" fill="none" stroke="currentColor" stroke-width="2" display="var(--is-visible--non-mobile)"/><path d="M15 10H5M10 5v10" fill="none" stroke="currentColor" stroke-width="2" display="var(--is-visible--only-mobile)"/></symbol><symbol id="more"><path d="M18 10H2M10 2v16" fill="none" stroke="currentColor" stroke-width="2" display="var(--is-visible--only-desktop)"/><path d="M15 10H5M10 5v10" fill="none" stroke="currentColor" stroke-width="2" display="var(--is-visible--non-desktop)"/></symbol><symbol id="msu"><path display="var(--is-visible--only-desktop)" d="M10.5 0v4.987H8.006v7.35H.656v8.007h19.688v-3.282h-14.7" stroke="currentColor" fill="none" stroke-width="1.2" stroke-miterlimit="10"/><path display="var(--is-visible--only-desktop)" d="M20.344 14.831v-2.493h-7.35v-7.35h-2.588M.656 12.338V9.844M20.344 12.338V9.844" stroke="currentColor" fill="none" stroke-width="1.2" stroke-miterlimit="10"/><path display="var(--is-visible--non-desktop)" d="M10 4v3.8H8.1v5.6H2.5v6.1h15V17H6.3" stroke="currentColor" fill="none" stroke-width="1.2" stroke-miterlimit="10"/><path display="var(--is-visible--non-desktop)" d="M17.5 15.3v-1.9h-5.6V7.8H9.928M2.5 13.4v-1.9M17.5 13.4v-1.9" stroke="currentColor" fill="none" stroke-width="1.2" stroke-miterlimit="10"/></symbol><symbol id="mute"><path d="M.664 4.143l16 12.857h-2.947v3l-8-5.571h-4.21V7.57h2.947v4.715h1.684V7.143L13.717 2v9.857" stroke="currentColor" fill="none" stroke-width="1.2"/></symbol><symbol id="nocamera"><path display="var(--is-visible--only-desktop)" d="M1 41l9.989-9.989M41 1L10.989 31.011m8.035 0h10.389V11.122H1v19.89h9.989m18.424-12.787l11.543-4.44v14.562l-11.543-4.44v-5.682z" stroke="currentColor" fill="none" stroke-width="1.2"/><path display="var(--is-visible--non-desktop)" d="M11 31l4.995-4.994M31 11L15.995 26.006m4.017 0h5.194V16.06H11v9.945h4.995m9.211-6.393l5.772-2.22v7.28l-5.772-2.22v-2.84z" stroke="currentColor" fill="none" stroke-width="1.2"/></symbol><symbol id="panorama"><path display="var(--is-visible--only-desktop)" fill="none" d="M.625 18.75V1.25c0 2 4.25 3.5 9.375 3.5 2.375 0 4.625-.375 6.25-.875V16.25" stroke="currentColor" stroke-width="1.2" stroke-miterlimit="10"/><path display="var(--is-visible--only-desktop)" fill="none" d="M.625 18.75c0-2 4.25-3.5 9.375-3.5s9.375 1.625 9.375 3.5V1.25M3.75 3.875V16.25" stroke="currentColor" stroke-width="1.2" stroke-miterlimit="10"/><path display="var(--is-visible--non-desktop)" fill="none" d="M2.5 17V3c0 1.6 3.4 2.8 7.5 2.8 1.9 0 3.7-.3 5-.7V15" stroke="currentColor" stroke-width="1.2" stroke-miterlimit="10"/><path display="var(--is-visible--non-desktop)" fill="none" d="M2.5 17c0-1.6 3.4-2.8 7.5-2.8s7.5 1.3 7.5 2.8V3M5 5.1V15" stroke="currentColor" stroke-width="1.2" stroke-miterlimit="10"/></symbol><symbol id="park-icon"><path d="M21.8 25.8c1.5-1.5 2.4-3.6 2.4-5.8 0-3.1-1.7-5.8-4.2-7.3-2.5 1.5-4.2 4.2-4.2 7.3 0 3.1 1.7 5.7 4.2 7.1V18" stroke="currentColor" fill="none" stroke-width="1.2" stroke-miterlimit="10"/></symbol><symbol id="pause"><path d="M9.406 9.125V19.75H12.5V1H9.406v6.25m-5.312 8.102V1H1v18.75h3.094v-2.5" stroke="currentColor" fill="none" stroke-width="1.2" stroke-miterlimit="10"/></symbol><symbol id="pdf"><path d="M9.688 9.5v-8h2.666c2.52 0 3.334 2.249 3.334 3.826S14.816 8.9 12.297 8.9h-.72M18.5 9.5v-8h5M18.5 4.5h4M2.34 9.5v-8h2.657c1.744 0 2.344 1.051 2.344 2.103 0 1.051-.6 2.07-2.344 2.07h-.872" stroke="currentColor" fill="none" stroke-width="1.2"/></symbol><symbol id="phone-small"><path d="M4.3 5.4c-.9 2-.1 5.3 2.2 8 2.8 3.3 6.8 4.6 8.8 2.9l1.6-1.3-2.2-2.7-1.7 1.3c-1.2 1-3.4.3-4.9-1.6-1.5-1.9-1.9-4.1-.7-5.1L9 5.6 6.7 2.9" fill="none" stroke="currentColor" stroke-width="1.2" stroke-miterlimit="10" stroke-linecap="square"/></symbol><symbol id="phone"><path display="var(--is-visible--only-desktop)" d="M1.451 4.125c-1.125 2.5-.125 6.625 2.75 10 3.5 4.125 8.5 5.75 11 3.625l2-1.625-2.75-3.375-2.125 1.625c-1.5 1.25-4.25.375-6.125-2S3.826 7.25 5.326 6l2-1.625L4.451 1" fill="none" stroke="currentColor" stroke-width="1.2" stroke-miterlimit="10" stroke-linecap="square"/><path display="var(--is-visible--non-desktop)" d="M3.361 5.5c-.9 2-.1 5.3 2.2 8 2.8 3.3 6.8 4.6 8.8 2.9l1.6-1.3-2.2-2.7-1.7 1.3c-1.2 1-3.4.3-4.9-1.6-1.5-1.9-1.9-4.1-.7-5.1l1.6-1.3-2.3-2.7" fill="none" stroke="currentColor" stroke-width="1.2" stroke-miterlimit="10" stroke-linecap="square"/></symbol><symbol id="play-xs"><path d="M10 11l-8 6V5l8 6z" fill="none" stroke="currentColor" stroke-width="2"/></symbol><symbol id="play"><path fill="none" display="var(--is-visible--only-desktop)" d="M3 19.75V1l14 9.5-10.875 7.125v-10.5" stroke="currentColor" stroke-width="1.2" stroke-miterlimit="10"/><path fill="none" display="var(--is-visible--non-desktop)" d="M3.4 18V3l11.2 7.6-8.7 5.7V7.9" stroke="currentColor" stroke-width="1.2" stroke-miterlimit="10"/></symbol><symbol id="reset"><path d="M11 5.8h4v-4" fill="none" stroke="currentColor" stroke-width="1.2" stroke-miterlimit="10"/><path fill="none" d="M3.5 8c0 2.5 2 4.5 4.5 4.5 1.2 0 2.4-.5 3.2-1.3L13 13c-1.3 1.2-3.1 2-5 2-3.9 0-7-3.1-7-7s3.1-7 7-7c3 0 5.6 1.9 6.6 4.5" stroke="currentColor" stroke-width="1.2" stroke-miterlimit="10"/></symbol><symbol id="school-icon"><path d="M20 27.5c0-2.1 3.4-3.8 7.5-3.8V12.5" stroke="currentColor" fill="none" stroke-width="1.2" stroke-miterlimit="10"/><path d="M20 16.1c0-1.7 2.2-3.1 5.2-3.6v9.3M20 27.5c0-2.1-3.4-3.8-7.5-3.8V12.5c4.1 0 7.5 1.7 7.5 3.8v11.2z" stroke="currentColor" fill="none" stroke-width="1.2" stroke-miterlimit="10"/></symbol><symbol id="settings-xs"><path d="M9 3.667h6M1.667 3.667H3M14.334 8.333H15M1.667 8.333h6.666M9 13h6M1.667 13H3" fill="none" stroke="currentColor" stroke-miterlimit="10" stroke-linecap="square"/><path d="M5 5.667a2 2 0 100-4 2 2 0 000 4zM10.334 10.333a2 2 0 100-4 2 2 0 000 4zM5 15a2 2 0 100-4 2 2 0 000 4z" fill="currentColor"/></symbol><symbol id="settings"><path fill="none" display="var(--is-visible--only-desktop)" d="M9.838 9.616a5 5 0 10-6.428-7.66 5 5 0 006.428 7.66zM12.75 10.625l3.625 4.625-.5 1.875H14l-5.25-6.5" stroke="currentColor" stroke-width="1.2" stroke-miterlimit="10"/><path fill="none" display="var(--is-visible--non-desktop)" d="M9.87 9.693a4 4 0 10-5.142-6.128A4 4 0 009.87 9.693zM12.2 11l4.5 5.3-.4 1.5-1.6.1L9 11" stroke="currentColor" stroke-width="1.2" stroke-miterlimit="10"/></symbol><symbol id="shop-icon"><path d="M26 27.5H14v-12h3c0-1.7 1.3-3 3-3s3 1.3 3 3h3V25h-7.9" stroke="currentColor" fill="none" stroke-width="1.2" stroke-miterlimit="10" stroke-linecap="square"/><path d="M17 15.5h6" stroke="currentColor" fill="none" stroke-width="1.2" stroke-miterlimit="10"/></symbol><symbol id="sort"><path d="M1 1l4 4 4-4" fill="none" stroke="currentColor" stroke-width="2" display="var(--is-visible--non-mobile)"/><path d="M2 2l3 3 3-3" fill="none" stroke="currentColor" stroke-width="1.5" display="var(--is-visible--mobile)"/></symbol><symbol id="swipe"><path display="var(--is-visible--non-mobile)" d="M14.666 6l4 4-4 4M5.333 6l-4 4 4 4" fill="none" stroke="currentColor" stroke-width="1.2"/><path display="var(--is-visible--mobile)" d="M13.111 7.333L15.778 10l-2.667 2.667M6.89 7.333L4.223 10l2.666 2.667" fill="none" stroke="currentColor" stroke-width="1.2"/></symbol><symbol id="taxi"><path fill="currentColor" d="M.5 5h5v5h-5zM10.5 5h5v5h-5zM20.5 5h5v5h-5zM15.5 0h5v5h-5zM5.5 0h5v5h-5z"/></symbol><symbol id="tour-header"><path fill="none" stroke="currentColor" stroke-width="1.2" d="M11.058 10.5V1.41h3.085C17.058 1.41 18 4.014 18 5.839c0 1.825-1.008 4.135-3.923 4.135h-.832"/><text x="2" y="10" fill="currentColor" stroke-width=".5" font-family="inherit" font-size="12">&#x417;</text><path fill="currentColor" d="M2.653 21H3.94v-6.897h2.376v-1.232H.277v1.232h2.376V21zm5.634.132c.66 0 1.21-.242 1.64-.715.428-.473.692-.913 1.011-1.584.528-1.1 1.1-2.365 1.837-4.004l.87-1.947h-1.43l-1.717 4.103-1.826-4.103H7.198l2.63 5.478c-.265.517-.408.759-.705 1.122-.275.352-.605.517-.968.517-.198 0-.418-.055-.67-.154l-.11 1.078c.263.143.571.209.912.209zm6.78-8.261V21h1.265v-3.014h1.43c.924 0 1.628-.242 2.1-.737a2.508 2.508 0 00.716-1.804c0-.715-.231-1.32-.693-1.815-.451-.506-1.122-.759-2.013-.759h-2.805zm1.265 3.949v-2.761h1.595c.869 0 1.364.605 1.364 1.364 0 .759-.517 1.397-1.496 1.397h-1.463z"/></symbol><symbol id="tour-main"><path fill="none" d="M20.625 18.75V1.25c0 2 4.25 3.5 9.375 3.5 2.375 0 4.625-.375 6.25-.875V16.25" stroke="currentColor" stroke-width="1.2" stroke-miterlimit="10"/><path fill="none" d="M20.625 18.75c0-2 4.25-3.5 9.375-3.5s9.375 1.625 9.375 3.5V1.25M23.75 3.875V16.25" stroke="currentColor" stroke-width="1.2" stroke-miterlimit="10"/><path fill="currentColor" d="M13.292 40.132c.836 0 1.518-.22 2.035-.66a2.159 2.159 0 00.792-1.716c0-1.001-.583-1.771-1.584-2.002v-.044c.825-.264 1.397-.979 1.397-1.848 0-.605-.242-1.111-.715-1.518-.473-.407-1.067-.616-1.804-.616-.935 0-1.881.363-2.486.968l.638.891c.605-.451 1.188-.682 1.727-.682.759 0 1.353.451 1.353 1.166 0 .715-.583 1.199-1.43 1.199h-.968v1.144h1.012c.913 0 1.54.528 1.54 1.287 0 .748-.594 1.265-1.551 1.265-.605 0-1.254-.22-1.947-.66l-.561 1.023c.814.539 1.66.803 2.552.803zM21.065 40c1.21 0 2.156-.363 2.849-1.089.693-.726 1.045-1.716 1.045-2.959 0-1.254-.341-2.244-1.023-2.981-.671-.737-1.595-1.1-2.772-1.1h-3.07V40h2.97zm-1.705-6.919h1.77c.782 0 1.398.264 1.838.803.45.539.67 1.21.67 2.035 0 .836-.22 1.529-.67 2.068-.44.539-1.056.803-1.848.803h-1.76v-5.709zM31.235 40h1.287v-6.897h2.376v-1.232H28.86v1.232h2.376V40zm5.634.132c.66 0 1.21-.242 1.639-.715.429-.473.693-.913 1.012-1.584.528-1.1 1.1-2.365 1.837-4.004l.869-1.947h-1.43l-1.716 4.103-1.826-4.103H35.78l2.629 5.478c-.264.517-.407.759-.704 1.122-.275.352-.605.517-.968.517-.198 0-.418-.055-.671-.154l-.11 1.078c.264.143.572.209.913.209zm6.78-8.261V40h1.265v-3.014h1.43c.924 0 1.628-.242 2.1-.737a2.508 2.508 0 00.716-1.804c0-.715-.231-1.32-.693-1.815-.451-.506-1.122-.759-2.013-.759h-2.805zm1.265 3.949v-2.761h1.595c.869 0 1.364.605 1.364 1.364 0 .759-.517 1.397-1.496 1.397h-1.463z"/></symbol><symbol id="tour-modal-xs"><path d="M28.25 12.108c.684 0 1.242-.18 1.665-.54.432-.369.648-.837.648-1.404 0-.819-.477-1.449-1.296-1.638V8.49c.675-.216 1.143-.801 1.143-1.512 0-.495-.198-.909-.585-1.242-.387-.333-.873-.504-1.476-.504-.765 0-1.539.297-2.034.792l.522.729c.495-.369.972-.558 1.413-.558.621 0 1.107.369 1.107.954s-.477.981-1.17.981h-.792v.936h.828c.747 0 1.26.432 1.26 1.053 0 .612-.486 1.035-1.269 1.035-.495 0-1.026-.18-1.593-.54l-.459.837c.666.441 1.359.657 2.088.657zM34.79 12c.99 0 1.764-.297 2.33-.891.568-.594.856-1.404.856-2.421 0-1.026-.28-1.836-.837-2.439-.55-.603-1.305-.9-2.268-.9H32.36V12h2.43zm-1.395-5.661h1.449c.639 0 1.143.216 1.503.657.369.441.549.99.549 1.665 0 .684-.18 1.251-.55 1.692-.36.441-.863.657-1.511.657h-1.44V6.339zM43.47 12h1.053V6.357h1.944V5.349h-4.94v1.008h1.943V12zm4.79.108c.54 0 .99-.198 1.34-.585.352-.387.568-.747.829-1.296.432-.9.9-1.935 1.503-3.276l.71-1.593h-1.17L50.07 8.715l-1.494-3.357H47.37l2.15 4.482c-.215.423-.332.621-.575.918-.225.288-.495.423-.792.423-.162 0-.342-.045-.55-.126l-.09.882c.217.117.469.171.748.171zm5.726-6.759V12h1.035V9.534h1.17c.757 0 1.333-.198 1.72-.603.386-.405.584-.891.584-1.476s-.189-1.08-.567-1.485c-.369-.414-.918-.621-1.647-.621h-2.294zm1.035 3.231V6.321h1.306c.71 0 1.115.495 1.115 1.116 0 .621-.422 1.143-1.224 1.143h-1.197z" fill="#E9E4DC"/><g clip-path="url(#clip0_3531_2283)" fill="none" stroke="currentColor" stroke-width="1.2" stroke-miterlimit="10"><path d="M.5 15.254v-14c0 1.6 3.4 2.8 7.5 2.8 1.9 0 3.7-.3 5-.7v9.9"/><path d="M.5 15.254c0-1.6 3.4-2.8 7.5-2.8s7.5 1.3 7.5 2.8v-14M3 3.354v9.9"/></g></symbol><symbol id="tour-modal"><path fill="currentColor" d="M43.25 14.902c.988 0 1.794-.26 2.405-.78.624-.533.936-1.209.936-2.028 0-1.183-.689-2.093-1.872-2.366v-.052c.975-.312 1.651-1.157 1.651-2.184 0-.715-.286-1.313-.845-1.794-.559-.48-1.261-.728-2.132-.728-1.105 0-2.223.43-2.938 1.144l.754 1.053c.715-.533 1.404-.806 2.041-.806.897 0 1.599.533 1.599 1.378 0 .845-.689 1.417-1.69 1.417h-1.144v1.352h1.196c1.079 0 1.82.624 1.82 1.521 0 .884-.702 1.495-1.833 1.495-.715 0-1.482-.26-2.301-.78l-.663 1.21c.962.636 1.963.948 3.016.948zm9.186-.156c1.43 0 2.548-.429 3.367-1.287.82-.858 1.235-2.028 1.235-3.497 0-1.482-.403-2.652-1.209-3.523-.793-.87-1.885-1.3-3.276-1.3h-3.627v9.607h3.51zM50.421 6.57h2.093c.923 0 1.651.312 2.171.95.533.636.793 1.43.793 2.404 0 .988-.26 1.807-.793 2.444-.52.637-1.248.95-2.184.95h-2.08V6.568zm14.035 8.177h1.521v-8.15h2.808V5.138h-7.137v1.456h2.808v8.151zm6.658.156c.78 0 1.43-.286 1.937-.845.507-.559.82-1.079 1.196-1.872.624-1.3 1.3-2.795 2.171-4.732l1.027-2.3h-1.69L73.727 10 71.57 5.152h-1.742l3.107 6.474c-.312.611-.48.897-.832 1.326-.325.416-.715.611-1.144.611-.234 0-.494-.065-.793-.182l-.13 1.274c.312.17.676.247 1.08.247zm8.012-9.763v9.607h1.495v-3.562h1.69c1.092 0 1.924-.286 2.483-.87.56-.586.845-1.288.845-2.133s-.273-1.56-.819-2.145c-.533-.598-1.326-.897-2.379-.897h-3.315zm1.495 4.667V6.543h1.885c1.027 0 1.612.715 1.612 1.612 0 .897-.61 1.651-1.768 1.651h-1.729z"/><path fill="none" d="M.625 18.75V1.25c0 2 4.25 3.5 9.375 3.5 2.375 0 4.625-.375 6.25-.875V16.25" stroke="currentColor" stroke-width="1.2" stroke-miterlimit="10"/><path fill="none" d="M.625 18.75c0-2 4.25-3.5 9.375-3.5s9.375 1.625 9.375 3.5V1.25M3.75 3.875V16.25" stroke="currentColor" stroke-width="1.2" stroke-miterlimit="10"/></symbol><symbol id="unmute"><path d="M.664 4.143l16 12.857h-2.947v3l-8-5.571h-4.21V7.57h2.947v4.715h1.684V7.143L13.717 2v9.857" stroke="currentColor" fill="none" stroke-width="1.2"/></symbol><symbol id="video-play"><path d="M1.25 20V1.25l14 9.5-10.875 7.125v-10.5" stroke="currentColor" fill="none" stroke-width="1.2" stroke-miterlimit="10"/></symbol><symbol id="vk"><path display="var(--is-visible--mobile)" d="M15.26 10.923h0l.008.006c.301.274.479.464.636.632.083.088.16.17.245.255.111.11.249.231.424.32.189.094.382.13.584.13h1.54a.913.913 0 00.602-.211.91.91 0 00.301-.707c0-.209-.068-.4-.139-.55a3.03 3.03 0 00-.287-.47 8.931 8.931 0 00-.867-.99 6.584 6.584 0 00-.526-.56l-.124-.119a16.328 16.328 0 01-.134-.13 34.319 34.319 0 00.754-1.07c.21-.314.432-.657.612-.97.168-.293.342-.627.404-.9h0l.002-.01c.045-.22.047-.537-.178-.8-.219-.256-.526-.31-.745-.31h0-.001 0-.001 0-.001 0-.001 0-.001 0-.001 0-.001 0-.001 0-.002 0-.001 0-.002 0-.001 0-.002 0-.001 0-.002 0-.002 0H18.337h0-.007 0-.005 0-.004 0-.007 0H17c-.24 0-.48.05-.689.197a1.175 1.175 0 00-.371.452l-.002.003h0v.002l-.006.011-.023.045-.091.173c-.08.148-.196.356-.339.592-.23.38-.52.817-.832 1.193v-1.7c0-.09-.002-.196-.018-.3a.903.903 0 00-.148-.39c-.232-.33-.6-.347-.769-.347h-2.199a.906.906 0 00-.58.2.798.798 0 00-.292.618c0 .262.113.452.198.566.038.051.079.1.106.131l.004.004c.031.037.053.062.074.09.056.071.131.178.131.462v1.162a6.202 6.202 0 01-.157-.217A9.734 9.734 0 019.9 5.256c-.073-.206-.188-.464-.431-.644-.251-.185-.534-.211-.752-.211H7.345a.962.962 0 00-.65.243.903.903 0 00-.295.674c0 .173.046.403.116.651.076.264.192.591.361.972.339.761.893 1.745 1.765 2.86 1.215 1.557 2.862 2.466 4.431 2.466.403 0 .786-.026 1.075-.166a.933.933 0 00.54-.892v-.758c.137.092.324.24.572.472zm2.151-2.232s0 0 0 0v0zm-2.76-.756v-.002.002zm-2.983.232s-.002 0-.005-.003a.038.038 0 01.005.003zm3.023 1.898v0zm-.31.235h-.01H14.382z" stroke="currentColor" fill="none" stroke-width="1.2"/><path display="var(--is-visible--non-mobile)" clip-rule="evenodd" d="M23.808 14h-3.002c-.98 0-1.103-.678-2.9-2.305-1.514-1.419-2.164-1.53-2.531-1.53-.327 0-.552.232-.552.774v2.17c0 .639-.388.891-1.98.891-2.614 0-5.513-1.53-7.718-4.359C1.837 5.438 1 2.3 1 1.621c0-.369.285-.62.674-.62h2.674c.695 0 .96.194 1.205.892 1.225 3.41 3.41 6.412 4.33 6.412.346 0 .388-.27.388-.969V3.868c0-1.682-1.001-1.821-1.001-2.442 0-.245.204-.426.53-.426h4.289c.572 0 .652.193.652.852v4.707c0 .538.116.736.368.736.312 0 .599-.179 1.164-.774 1.76-1.842 3.206-4.766 3.206-4.766.184-.368.408-.621 1.021-.621h2.675c.53 0 .755.27.654.756-.306 1.356-3.39 5.483-3.39 5.483-.285.426-.409.659 0 1.065.285.348 1.185 1.105 1.735 1.801 1.347 1.356 2.226 2.5 2.226 3.139 0 .487-.285.622-.592.622z" stroke="currentColor" fill="none" stroke-width="1.2"/></symbol><symbol id="zoom-in-map"><path d="M10 0v10M0 10h20M10 13.125V20" stroke="currentColor" display="var(--is-visible-only-desktop)" fill="none" stroke-width="1.2" stroke-miterlimit="10"/><path d="M10 2v8M2 10h16M10 12.5V18" stroke="currentColor" display="var(--is-visible--non-desktop)" fill="non" stroke-width="1.2" stroke-miterlimit="10"/></symbol><symbol id="zoom-in"><path d="M9 3v6M3 9h12m-6 1.5V15" stroke="currentColor" fill="none" stroke-width="1.2" stroke-miterlimit="10"/></symbol><symbol id="zoom-out-map"><path d="M0 1h20" display="var(--is-visible--only-desktop)" fill="none" stroke="currentColor" stroke-width="1.2" stroke-miterlimit="10"/><path d="M2 1h16" display="var(--is-visible--non-desktop)" fill="none" stroke="currentColor" stroke-width="1.2" stroke-miterlimit="10"/></symbol></svg>