<?xml version="1.0" encoding="utf-8"?>
<!-- Generator: Adobe Illustrator 26.0.3, SVG Export Plug-In . SVG Version: 6.00 Build 0)  -->
<svg version="1.1" xmlns="http://www.w3.org/2000/svg" xmlns:xlink="http://www.w3.org/1999/xlink" x="0px" y="0px"
	 viewBox="0 0 720 480" style="enable-background:new 0 0 720 480;" xml:space="preserve">
<style type="text/css">
	.st0{fill:#DBD4CA;}
	.st1{clip-path:url(#SVGID_00000103950491300255891030000018320218912477300096_);}
	.st2{fill:none;stroke:#C49F8A;stroke-miterlimit:10;}
	.st3{opacity:0.3;clip-path:url(#SVGID_00000000903967176230089600000008773425694729096587_);}
	.st4{opacity:0.7;fill:#C49F8A;enable-background:new    ;}
	.st5{fill:none;stroke:#565440;}
	.st6{fill:#565440;}
	.st7{fill:#E9E4DC;}
	.st8{fill:#C49F8A;}
	.st9{fill:#E9E4DC;stroke:#C49F8A;stroke-linejoin:round;}
	.st10{fill:#E9E4DC;stroke:#C49F8A;}
	.st11{fill:#E9E4DC;stroke:#C49F8A;stroke-miterlimit:3.9998;}
	.st12{fill:none;stroke:#C49F8A;}
	.st13{fill:#E9E4DC;stroke:#C49F8A;stroke-width:1;stroke-miterlimit:4;}
	.st14{fill:none;}
</style>
<g id="_x31__x5F_2">
	<polygon id="Floor_1_" class="st0" points="244.1,80 247.8,68.3 302,80.8 403.2,80.8 407.5,67.3 480.8,84.2 472.5,120.8 
		472.5,230.2 485.1,233.4 470.5,294.6 470.5,331.8 484.5,335.7 471.1,392.7 471.1,415.2 228.3,415.2 228.3,80 	"/>
	<g id="Wet_Floor_1_">
		<g>
			<defs>
				<rect id="SVGID_1_" x="229.1" y="198.5" width="76.9" height="140.3"/>
			</defs>
			<clipPath id="SVGID_00000116939075641145672970000009873204035570491788_">
				<use xlink:href="#SVGID_1_"  style="overflow:visible;"/>
			</clipPath>
			<g style="clip-path:url(#SVGID_00000116939075641145672970000009873204035570491788_);">
				<g>
					<line class="st2" x1="47.8" y1="274.2" x2="381.3" y2="-59.3"/>
					<line class="st2" x1="37.4" y1="263.7" x2="370.9" y2="-69.7"/>
					<line class="st2" x1="58.3" y1="284.6" x2="391.8" y2="-48.9"/>
					<line class="st2" x1="68.7" y1="295" x2="402.2" y2="-38.5"/>
					<line class="st2" x1="79.1" y1="305.4" x2="412.6" y2="-28.1"/>
					<line class="st2" x1="89.5" y1="315.8" x2="423" y2="-17.6"/>
					<line class="st2" x1="100" y1="326.3" x2="433.4" y2="-7.2"/>
					<line class="st2" x1="110.4" y1="336.7" x2="443.9" y2="3.2"/>
					<line class="st2" x1="120.8" y1="347.1" x2="454.3" y2="13.6"/>
					<line class="st2" x1="131.2" y1="357.5" x2="464.7" y2="24"/>
					<line class="st2" x1="120.8" y1="347.1" x2="454.3" y2="13.6"/>
					<line class="st2" x1="141.6" y1="367.9" x2="475.1" y2="34.5"/>
					<line class="st2" x1="152.1" y1="378.4" x2="485.5" y2="44.9"/>
					<line class="st2" x1="162.5" y1="388.8" x2="496" y2="55.3"/>
					<line class="st2" x1="172.9" y1="399.2" x2="506.4" y2="65.7"/>
					<line class="st2" x1="183.3" y1="409.6" x2="516.8" y2="76.2"/>
					<line class="st2" x1="193.7" y1="420.1" x2="527.2" y2="86.6"/>
					<line class="st2" x1="204.2" y1="430.5" x2="537.6" y2="97"/>
					<line class="st2" x1="214.6" y1="440.9" x2="548.1" y2="107.4"/>
					<line class="st2" x1="204.2" y1="430.5" x2="537.6" y2="97"/>
					<line class="st2" x1="225" y1="451.3" x2="558.5" y2="117.8"/>
					<line class="st2" x1="235.4" y1="461.7" x2="568.9" y2="128.3"/>
					<line class="st2" x1="245.9" y1="472.2" x2="579.3" y2="138.7"/>
					<line class="st2" x1="256.3" y1="482.6" x2="589.8" y2="149.1"/>
					<line class="st2" x1="266.7" y1="493" x2="600.2" y2="159.5"/>
					<line class="st2" x1="277.1" y1="503.4" x2="610.6" y2="169.9"/>
					<line class="st2" x1="287.5" y1="513.8" x2="621" y2="180.4"/>
					<line class="st2" x1="298" y1="524.3" x2="631.4" y2="190.8"/>
					<line class="st2" x1="287.5" y1="513.8" x2="621" y2="180.4"/>
					<line class="st2" x1="308.4" y1="534.7" x2="641.9" y2="201.2"/>
					<line class="st2" x1="318.8" y1="545.1" x2="652.3" y2="211.6"/>
					<line class="st2" x1="329.2" y1="555.5" x2="662.7" y2="222.1"/>
					<line class="st2" x1="339.6" y1="566" x2="673.1" y2="232.5"/>
					<line class="st2" x1="350.1" y1="576.4" x2="683.5" y2="242.9"/>
					<line class="st2" x1="360.5" y1="586.8" x2="694" y2="253.3"/>
					<line class="st2" x1="370.9" y1="597.2" x2="704.4" y2="263.7"/>
				</g>
				<g>
					<line class="st2" x1="381.3" y1="586.8" x2="47.8" y2="253.3"/>
					<line class="st2" x1="370.9" y1="597.2" x2="37.4" y2="263.7"/>
					<line class="st2" x1="391.8" y1="576.4" x2="58.3" y2="242.9"/>
					<line class="st2" x1="402.2" y1="566" x2="68.7" y2="232.5"/>
					<line class="st2" x1="412.6" y1="555.5" x2="79.1" y2="222.1"/>
					<line class="st2" x1="423" y1="545.1" x2="89.5" y2="211.6"/>
					<line class="st2" x1="433.4" y1="534.7" x2="100" y2="201.2"/>
					<line class="st2" x1="443.9" y1="524.3" x2="110.4" y2="190.8"/>
					<line class="st2" x1="454.3" y1="513.8" x2="120.8" y2="180.4"/>
					<line class="st2" x1="464.7" y1="503.4" x2="131.2" y2="169.9"/>
					<line class="st2" x1="454.3" y1="513.8" x2="120.8" y2="180.4"/>
					<line class="st2" x1="475.1" y1="493" x2="141.6" y2="159.5"/>
					<line class="st2" x1="485.5" y1="482.6" x2="152.1" y2="149.1"/>
					<line class="st2" x1="496" y1="472.2" x2="162.5" y2="138.7"/>
					<line class="st2" x1="506.4" y1="461.7" x2="172.9" y2="128.3"/>
					<line class="st2" x1="516.8" y1="451.3" x2="183.3" y2="117.8"/>
					<line class="st2" x1="527.2" y1="440.9" x2="193.7" y2="107.4"/>
					<line class="st2" x1="537.6" y1="430.5" x2="204.2" y2="97"/>
					<line class="st2" x1="548.1" y1="420.1" x2="214.6" y2="86.6"/>
					<line class="st2" x1="537.6" y1="430.5" x2="204.2" y2="97"/>
					<line class="st2" x1="558.5" y1="409.6" x2="225" y2="76.2"/>
					<line class="st2" x1="568.9" y1="399.2" x2="235.4" y2="65.7"/>
					<line class="st2" x1="579.3" y1="388.8" x2="245.9" y2="55.3"/>
					<line class="st2" x1="589.8" y1="378.4" x2="256.3" y2="44.9"/>
					<line class="st2" x1="600.2" y1="367.9" x2="266.7" y2="34.5"/>
					<line class="st2" x1="610.6" y1="357.5" x2="277.1" y2="24"/>
					<line class="st2" x1="621" y1="347.1" x2="287.5" y2="13.6"/>
					<line class="st2" x1="631.4" y1="336.7" x2="298" y2="3.2"/>
					<line class="st2" x1="621" y1="347.1" x2="287.5" y2="13.6"/>
					<line class="st2" x1="641.9" y1="326.3" x2="308.4" y2="-7.2"/>
					<line class="st2" x1="652.3" y1="315.8" x2="318.8" y2="-17.6"/>
					<line class="st2" x1="662.7" y1="305.4" x2="329.2" y2="-28.1"/>
					<line class="st2" x1="673.1" y1="295" x2="339.6" y2="-38.5"/>
					<line class="st2" x1="683.5" y1="284.6" x2="350.1" y2="-48.9"/>
					<line class="st2" x1="694" y1="274.2" x2="360.5" y2="-59.3"/>
					<line class="st2" x1="704.4" y1="263.7" x2="370.9" y2="-69.7"/>
				</g>
			</g>
		</g>
		<g>
			<defs>
				<rect id="SVGID_00000043415380949017336640000010112253788273758130_" x="229.1" y="198.5" width="76.9" height="140.3"/>
			</defs>
			<clipPath id="SVGID_00000008870557806518746480000014219673732586341289_">
				<use xlink:href="#SVGID_00000043415380949017336640000010112253788273758130_"  style="overflow:visible;"/>
			</clipPath>
			<g style="opacity:0.3;clip-path:url(#SVGID_00000008870557806518746480000014219673732586341289_);">
				<rect x="209.8" y="92.2" class="st4" width="322.2" height="322.2"/>
			</g>
		</g>
	</g>
	<path id="Doors_1_" class="st5" d="M270.3,335.6c0-3.6,0.6-6.5,1.9-9.7c1.3-3.2,3.2-6.2,5.5-8.4c2.3-2.6,5.2-4.5,8.4-5.8
		c3.2-1.3,6.5-1.9,10.1-1.9v26 M302.8,228.5c-3.6,0-6.5-0.6-9.7-1.9c-3.2-1.3-6.2-3.2-8.4-5.5c-2.6-2.3-4.5-5.2-5.8-8.4
		s-1.9-6.5-1.9-10.1h26 M309.3,196c0-3.6,0.6-6.5,1.9-9.7c1.3-3.2,3.2-6.2,5.5-8.4c2.3-2.6,5.2-4.5,8.4-5.8
		c3.2-1.3,6.5-1.9,10.1-1.9v26 M367.6,202.5c3.6,0,6.5,0.6,9.7,1.9c3.2,1.3,6.2,3.2,8.4,5.5c2.6,2.3,4.5,5.2,5.8,8.4
		c1.3,3.2,1.9,6.5,1.9,10.1h-26 M237.9,374.6c4.2,0,8.1,1,12,2.6c3.9,1.6,7.8,3.9,10.7,7.1c2.9,2.9,5.5,6.5,7.1,10.4
		c1.6,3.9,2.6,8.1,2.6,12.3h-32.5"/>
	<g id="Walls">
		<path class="st6" d="M237.8,338.8h32.5v-3.2h-32.5v-32.2h11.1v-13.2H281v0h21.7v45.4h-6.5v3.2h9.7v-3.2V228.5h-3.2v58.4h-64.9
			v-87.6h64.9v3.2h3.2v-3.2h3.2V196h-71.4V85.6l9.8,0l5.1-21.8l-9.4-2.3l-3.4,14.3h-2.2H228v298.6h9.7V338.8z M245.7,300.1h-7.9
			v-9.9h7.9V300.1z"/>
		<polygon class="st6" points="478,297 480.6,285.7 464.8,282.1 461.9,294.5 461.9,336.9 478,336.9 478,336.8 489.7,339.5 492,330 
			478,326.9 		"/>
		<path class="st6" d="M458.6,410.3H305v-12.2h-12.8v12.2h-54.4V407H228v3.2v9.7h250v-9.7v-21h-19.4V410.3z M295.4,401.4l6.4-0.1v9
			h-6.4V401.4z"/>
		<polygon class="st6" points="367.6,228.5 364.4,228.5 364.4,233.3 341.7,233.3 341.7,236.5 478,236.5 489.7,239.1 492,229.7 
			478,226.6 478,178.5 458.6,178.5 458.6,233.3 367.6,233.3 		"/>
		<polygon class="st6" points="364.4,196 335.2,196 335.2,199.3 364.4,199.3 364.4,202.4 367.6,202.4 367.6,92.1 409.8,92.1 
			409.8,92.1 410.2,92.1 416.6,63.6 400.7,60 397.1,75.9 367.6,75.9 296.2,75.9 296.2,85.6 364.4,85.6 		"/>
	</g>
	<path id="Windows_1_" class="st5" d="M486.4,80.5l-77.9-18.2l-1,4.9L480.9,84l-8.4,36.7v61h4.9v-61L486.4,80.5z M485.1,332.4l4.9,1
		l-13.8,60.4l-4.9-1L485.1,332.4z M485.1,231.7l4.9,1l-13,56.8l-4.9-1L485.1,231.7z M245.6,62.9l61,14l-1,4.9l-61-14L245.6,62.9z"/>
	<g id="Furniture_2_">
		<g>
			<g>
				<rect x="245" y="263.1" class="st7" width="57.2" height="23.4"/>
				<path class="st8" d="M301.7,263.6V286h-56.2v-22.4H301.7 M302.7,262.6h-58.2V287h58.2V262.6L302.7,262.6z"/>
			</g>
			<g>
				<g>
					<path class="st9" d="M249.5,274.8c0,4.5,3.9,8,8.3,7.6c4.9-0.4,11-0.8,15.6-0.8c4.5,0,10.7,0.4,15.6,0.8
						c4.4,0.4,8.3-3.1,8.3-7.6s-3.9-8-8.3-7.6c-4.9,0.4-11,0.8-15.6,0.8c-4.5,0-10.7-0.4-15.6-0.8
						C253.3,266.8,249.5,270.3,249.5,274.8z"/>
					<ellipse class="st9" cx="257.2" cy="274.8" rx="1" ry="1"/>
				</g>
			</g>
		</g>
		<g id="Sink_2">
			<g>
				<rect x="249.4" y="290.7" class="st7" width="31.3" height="12.1"/>
				<path class="st8" d="M280.2,291.2v11.1h-30.3v-11.1H280.2 M281.2,290.2h-32.3v13.1h32.3V290.2L281.2,290.2z"/>
			</g>
			<path id="Rectangle_19_x5F_5" class="st10" d="M262.9,296.8L262.9,296.8c0,2.1,1.5,3.7,3.5,3.7h4.9c1.9,0,3.5-1.7,3.5-3.7l0,0
				c0-2.1-1.5-3.7-3.5-3.7h-4.9C264.4,293,262.9,294.7,262.9,296.8z"/>
			<ellipse class="st10" cx="268.8" cy="295.8" rx="1" ry="1"/>
		</g>
		<g id="Sink_2_1_">
			<g id="Rectangle_16_x5F_11_1_">
				<rect x="241" y="199.8" class="st7" width="14.2" height="30.1"/>
				<path class="st8" d="M254.7,200.3v29.1h-13.2v-29.1H254.7 M255.7,199.3h-15.2v31.1h15.2V199.3L255.7,199.3z"/>
			</g>
			<path id="Rectangle_19_x5F_5_1_" class="st10" d="M248.1,221.7L248.1,221.7c2.4,0,4.3-1.8,4.3-4V212c0-2.2-1.9-4-4.3-4l0,0
				c-2.4,0-4.3,1.8-4.3,4v5.7C243.8,220,245.7,221.7,248.1,221.7z"/>
			<ellipse class="st10" cx="246.9" cy="214.8" rx="1" ry="1"/>
		</g>
		<g>
			<g>
				<rect x="368.1" y="92.6" class="st7" width="44.1" height="69.3"/>
				<path class="st8" d="M368.6,93.1h43.1v68.3h-43.1V93.1 M367.6,92.1v70.3h45.1V92.1H367.6L367.6,92.1z"/>
			</g>
			<rect x="391.2" y="97.1" class="st10" width="17.6" height="17.4"/>
			<rect x="371.4" y="97.1" class="st10" width="17.6" height="17.4"/>
			<polygon class="st11" points="406.6,107.4 393.9,102.9 390.5,119.7 403.2,124.2 			"/>
			<polygon class="st11" points="389.6,119.7 386.2,102.9 373.5,107.4 376.9,124.2 			"/>
			<g>
				<polygon class="st7" points="368.1,162.5 368.1,107.3 385.6,105.8 412.1,110.9 412.1,162.5 				"/>
				<path class="st8" d="M385.5,106.3l26.1,5V162h-43.1v-54.1v-0.2L385.5,106.3 M385.6,105.3l-18,1.5v1.1V163h45.1v-52.2v-0.4
					L385.6,105.3L385.6,105.3z"/>
			</g>
			<polyline class="st12" points="368.2,108.6 385.8,108.6 412.1,111.5 			"/>
		</g>
		<g>
			<g>
				<rect x="238.3" y="100.9" class="st7" width="64.2" height="51.6"/>
				<path class="st8" d="M238.8,101.4H302V152h-63.2L238.8,101.4 M237.8,100.4V153H303v-52.6H237.8L237.8,100.4z"/>
			</g>
			<rect x="242.4" y="104.8" class="st10" width="16.1" height="20.5"/>
			<rect x="242.4" y="127.9" class="st10" width="16.1" height="20.5"/>
			<polygon class="st11" points="252,107.4 247.8,122.2 263.4,126.2 267.5,111.3 			"/>
			<polygon class="st11" points="263.4,127.2 247.8,131.2 252,146.1 267.6,142.1 			"/>
			<g>
				<polygon class="st7" points="251.9,152.5 250.5,131.9 255.3,100.9 303.1,100.9 303.1,152.5 				"/>
				<path class="st8" d="M255.7,101.4h46.9V152h-50.2h-0.1l-1.3-20L255.7,101.4 M255.2,100.4h-0.3l-4.8,31.5l1.4,21h1h51.2v-52.6
					L255.2,100.4L255.2,100.4z"/>
			</g>
			<polyline class="st12" points="253.1,152.3 253.1,131.7 255.8,100.9 			"/>
		</g>
		<g>
			<g>
				<rect x="278" y="392.2" class="st7" width="9" height="17.6"/>
				<path class="st8" d="M286.5,392.7v16.6h-8v-16.6H286.5 M287.5,391.7h-10v18.6h10V391.7L287.5,391.7z"/>
			</g>
			<g>
				<rect x="279.6" y="392.2" class="st7" width="12.1" height="17.6"/>
				<path class="st8" d="M291.2,392.7v16.6h-11.1v-16.6H291.2 M292.2,391.7h-13.1v18.6h13.1V391.7L292.2,391.7z"/>
			</g>
			<path class="st10" d="M291.7,409.9l-12-17.9"/>
		</g>
		<g id="Toilet_1_">
			<g id="Rectangle_21_1_">
				<rect x="245" y="239.2" class="st7" width="4" height="12.6"/>
				<path class="st8" d="M248.5,239.7v11.6h-3v-11.6H248.5 M249.5,238.7h-5v13.6h5V238.7L249.5,238.7z"/>
			</g>
			<path id="Rectangle_19_x5F_2_1_" class="st10" d="M258.2,250.4c2.8,0.2,5.1-2,5.1-4.8l0,0c0-2.8-2.3-5-5.1-4.8l-8.9,0.6v8.5
				L258.2,250.4z"/>
			<path id="Rectangle_18_x5F_13_1_" class="st10" d="M257.7,248.9c2.1,0.2,4-1.4,4-3.4l0,0c0-2-1.8-3.5-4-3.4l-5.8,0.5v5.8
				L257.7,248.9z"/>
			<ellipse id="Ellipse_6_x5F_2_1_" class="st10" cx="254.8" cy="245.5" rx="1" ry="1"/>
		</g>
		<g id="Toilet_2_">
			<g id="Rectangle_21_2_">
				<rect x="245.1" y="313.8" class="st7" width="4" height="12.6"/>
				<path class="st8" d="M248.6,314.3v11.6h-3v-11.6H248.6 M249.6,313.3h-5v13.6h5V313.3L249.6,313.3z"/>
			</g>
			<path id="Rectangle_19_x5F_2_2_" class="st10" d="M258.3,324.9c2.8,0.2,5.1-2,5.1-4.8l0,0c0-2.8-2.3-5-5.1-4.8l-8.9,0.6v8.5
				L258.3,324.9z"/>
			<path id="Rectangle_18_x5F_13_2_" class="st10" d="M257.8,323.4c2.1,0.2,4-1.4,4-3.4l0,0c0-2-1.8-3.5-4-3.4l-5.8,0.5v5.8
				L257.8,323.4z"/>
			<ellipse id="Ellipse_6_x5F_2_2_" class="st10" cx="254.9" cy="320.1" rx="1" ry="1"/>
		</g>
		<g>
			<g>
				<rect x="280.7" y="290.7" class="st7" width="21.8" height="11.1"/>
				<path class="st8" d="M302,291.2v10.1h-20.8v-10.1H302 M303,290.2h-22.8v12.1H303V290.2L303,290.2z"/>
			</g>
			<g>
				<circle class="st7" cx="291.6" cy="296.3" r="3.4"/>
				<path class="st8" d="M291.6,293.3c1.6,0,2.9,1.3,2.9,2.9s-1.3,2.9-2.9,2.9s-2.9-1.3-2.9-2.9
					C288.6,294.6,289.9,293.3,291.6,293.3 M291.6,292.3c-2.2,0-3.9,1.8-3.9,3.9c0,2.2,1.8,3.9,3.9,3.9c2.2,0,3.9-1.8,3.9-3.9
					C295.5,294.1,293.7,292.3,291.6,292.3L291.6,292.3z"/>
			</g>
		</g>
		<g>
			<path class="st10" d="M380.5,296.9H423v30.9h-42.5V296.9z"/>
			<path class="st10" d="M425.6,304.6h0.6c4.3,0,7.7,3.5,7.7,7.7c0,4.3-3.5,7.7-7.7,7.7h-0.6V304.6z"/>
			<path class="st10" d="M423,305.9h3.2c3.6,0,6.4,2.9,6.4,6.4s-2.9,6.4-6.4,6.4H423V305.9z"/>
			<path class="st10" d="M377.9,304.6h-0.6c-4.3,0-7.7,3.5-7.7,7.7c0,4.3,3.5,7.7,7.7,7.7h0.6V304.6z"/>
			<path class="st10" d="M380.5,305.9h-3.2c-3.6,0-6.4,2.9-6.4,6.4s2.9,6.4,6.4,6.4h3.2V305.9z"/>
			<path class="st10" d="M409.5,294.3v-0.6c0-4.3-3.5-7.7-7.7-7.7c-4.3,0-7.7,3.5-7.7,7.7v0.6H409.5z"/>
			<path class="st10" d="M408.2,296.9v-3.2c0-3.6-2.9-6.4-6.4-6.4c-3.6,0-6.4,2.9-6.4,6.4v3.2H408.2z"/>
			<path class="st10" d="M409.5,330.4v0.6c0,4.3-3.5,7.7-7.7,7.7c-4.3,0-7.7-3.5-7.7-7.7v-0.6H409.5z"/>
			<path class="st10" d="M408.2,327.8v3.2c0,3.6-2.9,6.4-6.4,6.4c-3.6,0-6.4-2.9-6.4-6.4v-3.2H408.2z"/>
		</g>
		<g>
			<path class="st10" d="M434.1,278.5c0,0.9,0.7,1.6,1.6,1.6H452v-37.2h-17.9V278.5z"/>
			<path class="st10" d="M405.2,259.3c0,0.9,0.8,1.6,1.7,1.6h25.5c0.9,0,1.7-0.7,1.7-1.6v-16.4h-28.9L405.2,259.3L405.2,259.3z"/>
			<path class="st10" d="M377.4,259.3c0,0.9,0.7,1.6,1.6,1.6h24.5c0.9,0,1.6-0.7,1.6-1.6v-16.4h-27.8L377.4,259.3z"/>
			<path class="st10" d="M377.4,262.2h-6v-25.7h87.3v50h-25.8v-6.4H452v-37.3h-74.6V262.2z"/>
		</g>
		<g>
			<g>
				<rect x="343" y="153.5" class="st7" width="13.6" height="42.2"/>
				<path class="st8" d="M356.1,154v41.2h-12.6V154H356.1 M357.1,153h-14.6v43.2h14.6V153L357.1,153z"/>
			</g>
			<g>
				<rect x="345.1" y="153.5" class="st7" width="19" height="42.2"/>
				<path class="st8" d="M363.6,154v41.2h-18V154H363.6 M364.6,153h-20v43.2h20V153L364.6,153z"/>
			</g>
			<path class="st10" d="M364,195.8l-18.7-42.7"/>
		</g>
		<g>
			<g>
				<rect x="405.1" y="211.7" class="st7" width="49.8" height="13.6"/>
				<path class="st8" d="M454.5,212.2v12.6h-48.8v-12.6H454.5 M455.5,211.2h-50.8v14.6h50.8V211.2L455.5,211.2z"/>
			</g>
			<g>
				<rect x="405.1" y="213.8" class="st7" width="49.8" height="19"/>
				<path class="st8" d="M454.5,214.3v18h-48.8v-18H454.5 M455.5,213.3h-50.8v20h50.8V213.3L455.5,213.3z"/>
			</g>
			<path class="st10" d="M405,232.7l50.3-18.7"/>
		</g>
		<g>
			<g>
				<rect x="238.3" y="341.1" class="st7" width="31.5" height="13.6"/>
				<path class="st8" d="M238.8,341.6h30.5v12.6h-30.5V341.6 M237.8,340.6v14.6h32.5v-14.6H237.8L237.8,340.6z"/>
			</g>
			<g>
				<rect x="238.3" y="339.3" class="st7" width="31.5" height="13.2"/>
				<path class="st8" d="M238.8,339.8h30.5V352h-30.5V339.8 M237.8,338.8V353h32.5v-14.2H237.8L237.8,338.8z"/>
			</g>
			<path class="st10" d="M270,339.3l-32.1,13.3"/>
		</g>
		<g>
			<g>
				<rect x="352.7" y="97.2" class="st7" width="2.3" height="48.6"/>
				<path class="st8" d="M354.5,97.7v47.6h-1.3V97.7H354.5 M355.5,96.7h-3.3v49.6h3.3V96.7L355.5,96.7z"/>
			</g>
			<g>
				<rect x="354.8" y="97.2" class="st7" width="9.1" height="48.6"/>
				<path class="st8" d="M363.4,97.7v47.6h-8.1V97.7H363.4 M364.4,96.7h-10.1v49.6h10.1V96.7L364.4,96.7z"/>
			</g>
			<rect x="360.5" y="104.4" class="st10" width="1.7" height="35.1"/>
			<path class="st10" d="M362.2,114.5v14.9l1.6-1.4v-12.2L362.2,114.5z"/>
		</g>
		<g>
			<rect x="238.4" y="303.9" class="st7" width="6.8" height="31.2"/>
			<path class="st8" d="M244.6,304.4v30.2h-5.8v-30.2H244.6 M245.6,303.4h-7.8v32.2h7.8V303.4L245.6,303.4z"/>
		</g>
		<g>
			<polygon class="st7" points="238.3,286.5 238.3,199.8 241,199.8 241,229.9 245,229.9 245,286.5 			"/>
			<path class="st8" d="M240.5,200.3v29.1v1h1h3V286h-5.8v-47.3v-9.3v-29.1H240.5 M241.5,199.3h-3.7v30.1v9.3V287h7.8v-57.6h-4
				v-30.1H241.5z"/>
		</g>
		<g>
			<g>
				<polygon class="st7" points="437.3,159.6 437.3,145.3 449.4,143.3 449.4,161.5 				"/>
				<path class="st8" d="M448.9,143.9v17l-11.1-1.8v-13.4L448.9,143.9 M449.9,142.7l-13.1,2.1V160l13.1,2.1V142.7L449.9,142.7z"/>
			</g>
			<g>
				<rect x="449.8" y="124" class="st7" width="21.7" height="55.4"/>
				<path class="st8" d="M471,124.5v54.4h-20.7v-54.4L471,124.5 M472,123.5h-22.7v56.4H472V123.5L472,123.5z"/>
			</g>
			<path class="st12" d="M455.9,157.4V146 M453.4,158.4V145h4v13.4H453.4z"/>
			<path class="st10" d="M453.2,163.9L453.2,163.9c0-0.6,0.5-1,1-1h1.3c0.6,0,1,0.5,1,1l0,0c0,0.6-0.5,1-1,1h-1.3
				C453.6,164.9,453.2,164.4,453.2,163.9z"/>
			<path class="st10" d="M463.9,155c-1.8,0-3.3-1.5-3.3-3.3s1.5-3.3,3.3-3.3h3.3v6.7L463.9,155z"/>
			
				<rect x="449.7" y="150.8" transform="matrix(1.695900e-03 -1 1 1.695900e-03 314.5332 618.4762)" class="st13" width="34.7" height="1.9"/>
			<g>
				<rect x="437.3" y="145.4" class="st7" width="12.1" height="14.2"/>
				<path class="st8" d="M448.9,145.9V159h-11.1v-13.2L448.9,145.9 M449.9,144.9h-13.1V160h13.1V144.9L449.9,144.9z"/>
			</g>
			<g>
				<rect x="435.4" y="145.3" class="st7" width="1.9" height="14.2"/>
				<path class="st8" d="M436.8,145.8V159h-0.9v-13.2H436.8 M437.8,144.8h-2.9V160h2.9V144.8L437.8,144.8z"/>
			</g>
		</g>
		<g id="Kitchen">
			<g id="Rectangle_24">
				<rect x="305.6" y="389.6" class="st7" width="82.1" height="20.2"/>
				<path class="st8" d="M387.1,390.1v19.2H306v-19.2H387.1 M388.1,389.1H305v21.2h83.1V389.1L388.1,389.1z"/>
			</g>
			<g id="Oven">
				<g id="Rectangle_28">
					<rect x="409.1" y="388.1" class="st7" width="22.6" height="20.4"/>
					<path class="st8" d="M431.2,388.6V408h-21.6v-19.4H431.2 M432.2,387.6h-23.6V409h23.6V387.6L432.2,387.6z"/>
				</g>
			</g>
			<g id="Rectangle_26_1_">
				<rect x="405.1" y="389.6" class="st7" width="28.7" height="20.2"/>
				<path class="st8" d="M433.3,390.1v19.2h-27.7v-19.2H433.3 M434.3,389.1h-29.7v21.2h29.7V389.1L434.3,389.1z"/>
			</g>
			<g id="Rectangle_27_1_">
				<rect x="433.8" y="389.6" class="st7" width="20.2" height="20.2"/>
				<path class="st8" d="M453.5,390.1v19.2h-19.2v-19.2H453.5 M454.5,389.1h-21.2v21.2h21.2V389.1L454.5,389.1z"/>
			</g>
			<g id="Sink_3">
				<rect id="Rectangle_28_x5F_2" x="309" y="391.8" class="st10" width="25.1" height="15.9"/>
				<path id="Rectangle_29_x5F_2" class="st10" d="M318.9,399.7L318.9,399.7c0-3.3,2.7-5.9,5.9-5.9h1.3c3.3,0,5.9,2.7,5.9,5.9l0,0
					c0,3.3-2.7,5.9-5.9,5.9h-1.3C321.6,405.7,318.9,403,318.9,399.7z"/>
				<ellipse id="Ellipse_7_x5F_3" class="st10" cx="325.4" cy="402.4" rx="1" ry="1"/>
				<path id="Vector_2" class="st12" d="M310.3,405.7h6.6 M310.3,403.7h6.6 M310.3,401.7h6.6 M310.3,399.7h6.6 M310.3,397.7h6.6
					 M310.3,395.7h6.6 M310.3,393.8h6.6"/>
			</g>
			<g id="Stove">
				<g id="Rectangle_25">
					<rect x="387.7" y="389.6" class="st7" width="19.6" height="20.2"/>
					<path class="st8" d="M406.8,390.1v19.2h-18.6v-19.2H406.8 M407.8,389.1h-20.6v21.2h20.6V389.1L407.8,389.1z"/>
				</g>
				<g id="Rectangle_28_x5F_3">
					<rect x="387.7" y="408.1" class="st7" width="19.6" height="1.6"/>
					<path class="st8" d="M406.8,408.6v0.6h-18.6v-0.6H406.8 M407.8,407.6h-20.6v2.6h20.6V407.6L407.8,407.6z"/>
				</g>
				<g id="Ellipse_7_x5F_4">
					<path class="st7" d="M392.5,405.2c-1.2,0-2.1-1-2.1-2.1c0-1.2,1-2.1,2.1-2.1c1.2,0,2.1,1,2.1,2.1S393.6,405.2,392.5,405.2z"/>
					<path class="st8" d="M392.5,401.4c0.9,0,1.6,0.7,1.6,1.6s-0.7,1.6-1.6,1.6s-1.6-0.7-1.6-1.6
						C390.8,402.1,391.6,401.4,392.5,401.4 M392.5,400.4c-1.5,0-2.6,1.2-2.6,2.6s1.2,2.6,2.6,2.6c1.5,0,2.6-1.2,2.6-2.6
						S393.9,400.4,392.5,400.4L392.5,400.4z"/>
				</g>
				<g id="Ellipse_9">
					<path class="st7" d="M392.5,397.9c-1.5,0-2.8-1.3-2.8-2.8s1.3-2.8,2.8-2.8s2.8,1.3,2.8,2.8S394,397.9,392.5,397.9z"/>
					<path class="st8" d="M392.5,392.8c1.3,0,2.3,1,2.3,2.3s-1,2.3-2.3,2.3s-2.3-1-2.3-2.3S391.2,392.8,392.5,392.8 M392.5,391.8
						c-1.8,0-3.3,1.5-3.3,3.3s1.5,3.3,3.3,3.3s3.3-1.5,3.3-3.3S394.3,391.8,392.5,391.8L392.5,391.8z"/>
				</g>
				<g id="Ellipse_10">
					<path class="st7" d="M401.7,405.8c-1.5,0-2.8-1.3-2.8-2.8s1.3-2.8,2.8-2.8s2.8,1.3,2.8,2.8S403.3,405.8,401.7,405.8z"/>
					<path class="st8" d="M401.7,400.7c1.3,0,2.3,1,2.3,2.3s-1,2.3-2.3,2.3s-2.3-1-2.3-2.3S400.5,400.7,401.7,400.7 M401.7,399.7
						c-1.8,0-3.3,1.5-3.3,3.3s1.5,3.3,3.3,3.3s3.3-1.5,3.3-3.3S403.5,399.7,401.7,399.7L401.7,399.7z"/>
				</g>
				<g id="Ellipse_8">
					<path class="st7" d="M401.7,396.6c-1.2,0-2.1-1-2.1-2.1c0-1.2,1-2.1,2.1-2.1c1.2,0,2.1,1,2.1,2.1
						C403.9,395.6,402.9,396.6,401.7,396.6z"/>
					<path class="st8" d="M401.7,392.8c0.9,0,1.6,0.7,1.6,1.6s-0.7,1.6-1.6,1.6s-1.6-0.7-1.6-1.6S400.8,392.8,401.7,392.8
						 M401.7,391.8c-1.5,0-2.6,1.2-2.6,2.6s1.2,2.6,2.6,2.6c1.5,0,2.6-1.2,2.6-2.6S403.2,391.8,401.7,391.8L401.7,391.8z"/>
				</g>
			</g>
			<path id="Vector_3" class="st12" d="M441.2,399.4h5.3 M442.6,397.1l2.6,4.6 M442.6,401.7l2.6-4.6"/>
		</g>
	</g>
	<g id="street_anchors">
		<rect id="street_anchor_01" x="355" y="20" class="st14" width="10" height="10"/>
		<rect id="street_anchor_02" x="521.7" y="235" class="st14" width="10" height="10"/>
	</g>
</g>
<g id="комнаты">
	<g>
		<g>
			<path class="st6" d="M321.3,130.4l1.4-0.8h1v6.1h-1.1V131l-1,0.6L321.3,130.4z"/>
			<path class="st6" d="M324.7,130.4l1.4-0.8h1v6.1H326V131l-1,0.6L324.7,130.4z"/>
			<path class="st6" d="M329.1,134.1c0.4,0,0.8,0.4,0.8,0.9c0,0.5-0.3,0.9-0.8,0.9c-0.4,0-0.7-0.4-0.7-0.9
				C328.3,134.5,328.7,134.1,329.1,134.1z"/>
			<path class="st6" d="M331.4,134.4c0.4,0.2,0.8,0.4,1.3,0.4c0.8,0,1.6-0.7,1.6-1.9c-0.4,0.4-1,0.9-1.7,0.9c-1.2,0-1.9-1-1.9-2
				c0-1.3,0.9-2.2,2.1-2.2c1.3,0,2.5,1.1,2.5,3.1c0,2.1-1.3,3.4-2.6,3.4c-0.8,0-1.4-0.4-1.8-0.5L331.4,134.4z M334.2,131.9
				c-0.2-0.8-0.8-1.3-1.4-1.3c-0.6,0-1,0.5-1,1c0,0.4,0.2,0.8,0.9,0.8C333.3,132.5,333.8,132.2,334.2,131.9z"/>
		</g>
	</g>
	<g>
		<g>
			<path class="st6" d="M404.2,185.8l1.4-0.8h1v6.1h-1.1v-4.7l-1,0.6L404.2,185.8z"/>
			<path class="st6" d="M409.6,187.3h0.7c0.3,0,0.6-0.2,0.6-0.6c0-0.5-0.4-0.7-0.8-0.7c-0.6,0-1.1,0.4-1.6,1L408,186
				c0.5-0.6,1.3-1.3,2.2-1.3c0.8,0,1.9,0.5,1.9,1.8c0,0.5-0.3,0.9-0.5,1.1c0.4,0.2,0.9,0.6,0.9,1.5c0,1.4-1.1,2.2-2.4,2.2
				c-0.9,0-1.7-0.4-2.4-1.3l0.6-1c0.5,0.6,1,1,1.8,1c0.7,0,1.3-0.4,1.3-1c0-0.5-0.5-0.6-0.7-0.6h-0.9V187.3z"/>
			<path class="st6" d="M414,189.4c0.4,0,0.8,0.4,0.8,0.9c0,0.5-0.3,0.9-0.8,0.9c-0.4,0-0.7-0.4-0.7-0.9
				C413.3,189.8,413.6,189.4,414,189.4z"/>
			<path class="st6" d="M415.7,190.1c0-1.5,0.9-2.2,2-2.6c0.3-0.1,0.8-0.3,0.8-0.9c0-0.5-0.4-0.6-0.8-0.6c-0.7,0-1.1,0.4-1.6,0.9
				l-0.6-1c0.6-0.6,1.2-1.2,2.1-1.2c0.9,0,1.9,0.5,1.9,1.8c0,1.4-1,1.8-1.8,2.1c-0.7,0.3-1.1,0.6-1.1,1.1v0.1h2.8v1.2h-3.9V190.1z"
				/>
		</g>
	</g>
	<g>
		<g>
			<path class="st6" d="M317.5,211.8l1.4-0.8h1v6.1h-1.1v-4.7l-1,0.6L317.5,211.8z"/>
			<path class="st6" d="M321.9,215.5c0.4,0,0.8,0.4,0.8,0.9c0,0.5-0.3,0.9-0.8,0.9c-0.4,0-0.7-0.4-0.7-0.9
				C321.2,215.9,321.5,215.5,321.9,215.5z"/>
			<path class="st6" d="M323.6,215.3c0-0.8,0.4-1.4,1-1.6c-0.4-0.2-0.7-0.6-0.7-1.2c0-1.1,1.2-1.7,2.1-1.7c0.9,0,2.1,0.5,2.1,1.7
				c0,0.6-0.2,1-0.7,1.2c0.5,0.2,1,0.7,1,1.6c0,1.3-1.1,2-2.3,2C324.7,217.3,323.6,216.6,323.6,215.3z M327.1,215.2
				c0-0.6-0.6-0.9-1.2-0.9s-1.2,0.3-1.2,0.9c0,0.6,0.6,0.9,1.2,0.9C326.5,216.1,327.1,215.8,327.1,215.2z M326.8,212.6
				c0-0.5-0.5-0.7-0.9-0.7c-0.4,0-0.9,0.2-0.9,0.7c0,0.4,0.3,0.6,0.9,0.6C326.5,213.3,326.8,213.1,326.8,212.6z"/>
		</g>
	</g>
	<g>
		<g>
			<path class="st6" d="M282.8,374.8H282v1.3h-1.1v-1.3h-3.2V374l3.3-3.9h1v3.7h0.8V374.8z M279.2,373.7h1.6v-2h-0.1
				C280.3,372.4,279.7,373.1,279.2,373.7L279.2,373.7z"/>
		</g>
	</g>
	<g>
		<g>
			<path class="st6" d="M352.4,357.4c0-1.5,0.9-2.2,2-2.6c0.3-0.1,0.8-0.3,0.8-0.9c0-0.5-0.4-0.6-0.8-0.6c-0.7,0-1.1,0.4-1.6,0.9
				l-0.6-1c0.6-0.6,1.2-1.2,2.1-1.2c0.9,0,1.9,0.5,1.9,1.8c0,1.4-1,1.8-1.8,2.1c-0.7,0.3-1.1,0.6-1.1,1.1v0.1h2.8v1.2h-3.9V357.4z"
				/>
			<path class="st6" d="M357.2,357.7l0.5-1c0.3,0.3,1,0.7,1.9,0.7c0.6,0,1.2-0.3,1.2-1c0-0.6-0.5-0.9-0.9-0.9
				c-0.6,0-1.1,0.3-1.5,0.6l-0.6-0.6v-3.2h3.7v1.2h-2.7v1.4c0.4-0.3,0.7-0.6,1.3-0.6c0.9,0,1.9,0.6,1.9,2c0,1.6-1.2,2.3-2.3,2.3
				C358.4,358.6,357.6,358,357.2,357.7z"/>
			<path class="st6" d="M363.5,356.8c0.4,0,0.8,0.4,0.8,0.9c0,0.5-0.3,0.9-0.8,0.9c-0.4,0-0.7-0.4-0.7-0.9
				C362.7,357.2,363,356.8,363.5,356.8z"/>
			<path class="st6" d="M364.9,353.1l1.4-0.8h1v6.1h-1.1v-4.7l-1,0.6L364.9,353.1z"/>
		</g>
	</g>
	<g>
		<g>
			<path class="st6" d="M278.6,241.7h-0.8v1.3h-1.1v-1.3h-3.2v-0.9l3.3-3.9h1v3.7h0.8V241.7z M275,240.6h1.6v-2h-0.1
				C276.1,239.2,275.5,239.9,275,240.6L275,240.6z"/>
			<path class="st6" d="M280.1,241.3c0.4,0,0.8,0.4,0.8,0.9c0,0.5-0.3,0.9-0.8,0.9c-0.4,0-0.7-0.4-0.7-0.9
				C279.4,241.7,279.7,241.3,280.1,241.3z"/>
			<path class="st6" d="M282.5,241.6c0.4,0.2,0.8,0.4,1.3,0.4c0.8,0,1.6-0.7,1.6-1.9c-0.4,0.4-1,0.9-1.7,0.9c-1.2,0-1.9-1-1.9-2
				c0-1.3,0.9-2.2,2.1-2.2c1.3,0,2.5,1.1,2.5,3.1c0,2.1-1.3,3.4-2.6,3.4c-0.8,0-1.4-0.4-1.8-0.5L282.5,241.6z M285.2,239.1
				c-0.2-0.8-0.8-1.3-1.4-1.3c-0.6,0-1,0.5-1,1c0,0.4,0.2,0.8,0.9,0.8C284.3,239.7,284.9,239.4,285.2,239.1z"/>
		</g>
	</g>
	<g>
		<g>
			<path class="st6" d="M263.6,312.8c0-1.5,0.9-2.2,2-2.6c0.3-0.1,0.8-0.3,0.8-0.9c0-0.5-0.4-0.6-0.8-0.6c-0.7,0-1.1,0.4-1.6,0.9
				l-0.6-1c0.6-0.6,1.2-1.2,2.1-1.2c0.9,0,1.9,0.5,1.9,1.8c0,1.4-1,1.8-1.8,2.1c-0.7,0.3-1.1,0.6-1.1,1.1v0.1h2.8v1.2h-3.9V312.8z"
				/>
			<path class="st6" d="M269.3,312.2c0.4,0,0.8,0.4,0.8,0.9c0,0.5-0.3,0.9-0.8,0.9c-0.4,0-0.7-0.4-0.7-0.9
				C268.5,312.6,268.9,312.2,269.3,312.2z"/>
			<path class="st6" d="M271,312.8c0-1.5,0.9-2.2,2-2.6c0.3-0.1,0.8-0.3,0.8-0.9c0-0.5-0.4-0.6-0.8-0.6c-0.7,0-1.1,0.4-1.6,0.9
				l-0.6-1c0.6-0.6,1.2-1.2,2.1-1.2c0.9,0,1.9,0.5,1.9,1.8c0,1.4-1,1.8-1.8,2.1c-0.7,0.3-1.1,0.6-1.1,1.1v0.1h2.8v1.2H271V312.8z"/>
		</g>
	</g>
</g>
</svg>
