<?xml version="1.0" encoding="utf-8"?>
<!-- Generator: Adobe Illustrator 26.0.3, SVG Export Plug-In . SVG Version: 6.00 Build 0)  -->
<svg version="1.1" xmlns="http://www.w3.org/2000/svg" xmlns:xlink="http://www.w3.org/1999/xlink" x="0px" y="0px"
	 viewBox="0 0 720 480" style="enable-background:new 0 0 720 480;" xml:space="preserve">
<style type="text/css">
	.st0{fill:#DBD4CA;}
	.st1{clip-path:url(#SVGID_00000154404057524785960010000000880946062506259846_);}
	.st2{fill:none;stroke:#C49F8A;stroke-miterlimit:10;}
	.st3{opacity:0.3;clip-path:url(#SVGID_00000018922770148700199350000008783031403173225632_);}
	.st4{opacity:0.7;fill:#C49F8A;enable-background:new    ;}
	.st5{clip-path:url(#SVGID_00000016061366566588656420000003029299436199064734_);}
	.st6{opacity:0.3;clip-path:url(#SVGID_00000183212095237063785840000015458953872731812028_);}
	.st7{fill:none;stroke:#565440;}
	.st8{fill:#565440;}
	.st9{fill:#E9E4DC;}
	.st10{fill:#C49F8A;}
	.st11{fill:#E9E4DC;stroke:#C49F8A;}
	.st12{fill:#E9E4DC;stroke:#C49F8A;stroke-miterlimit:3.9998;}
	.st13{fill:none;stroke:#C49F8A;}
	.st14{fill:#E9E4DC;stroke:#C49F8A;stroke-linejoin:round;}
	.st15{opacity:0.72;}
	.st16{fill:#3F3F3F;fill-opacity:0;}
</style>
<g id="_x31__x5F_2">
	<rect id="Floor" x="257" y="63.1" class="st0" width="211" height="351.5"/>
	<g id="Wet_Floor">
		<g id="Wet_Floor_1_">
			<g>
				<defs>
					<rect id="SVGID_1_" x="384.5" y="206.5" width="83.5" height="101.8"/>
				</defs>
				<clipPath id="SVGID_00000150786069927619728750000018069978632094308748_">
					<use xlink:href="#SVGID_1_"  style="overflow:visible;"/>
				</clipPath>
				<g style="clip-path:url(#SVGID_00000150786069927619728750000018069978632094308748_);">
					<g>
						<line class="st2" x1="149.9" y1="238.4" x2="483.4" y2="-95"/>
						<line class="st2" x1="139.5" y1="228" x2="473" y2="-105.5"/>
						<line class="st2" x1="160.3" y1="248.9" x2="493.8" y2="-84.6"/>
						<line class="st2" x1="170.8" y1="259.3" x2="504.2" y2="-74.2"/>
						<line class="st2" x1="181.2" y1="269.7" x2="514.7" y2="-63.8"/>
						<line class="st2" x1="191.6" y1="280.1" x2="525.1" y2="-53.4"/>
						<line class="st2" x1="202" y1="290.5" x2="535.5" y2="-42.9"/>
						<line class="st2" x1="212.4" y1="301" x2="545.9" y2="-32.5"/>
						<line class="st2" x1="222.9" y1="311.4" x2="556.4" y2="-22.1"/>
						<line class="st2" x1="233.3" y1="321.8" x2="566.8" y2="-11.7"/>
						<line class="st2" x1="222.9" y1="311.4" x2="556.4" y2="-22.1"/>
						<line class="st2" x1="243.7" y1="332.2" x2="577.2" y2="-1.2"/>
						<line class="st2" x1="254.1" y1="342.7" x2="587.6" y2="9.2"/>
						<line class="st2" x1="264.6" y1="353.1" x2="598" y2="19.6"/>
						<line class="st2" x1="275" y1="363.5" x2="608.5" y2="30"/>
						<line class="st2" x1="285.4" y1="373.9" x2="618.9" y2="40.4"/>
						<line class="st2" x1="295.8" y1="384.3" x2="629.3" y2="50.9"/>
						<line class="st2" x1="306.2" y1="394.8" x2="639.7" y2="61.3"/>
						<line class="st2" x1="316.7" y1="405.2" x2="650.1" y2="71.7"/>
						<line class="st2" x1="306.2" y1="394.8" x2="639.7" y2="61.3"/>
						<line class="st2" x1="327.1" y1="415.6" x2="660.6" y2="82.1"/>
						<line class="st2" x1="337.5" y1="426" x2="671" y2="92.5"/>
						<line class="st2" x1="347.9" y1="436.4" x2="681.4" y2="103"/>
						<line class="st2" x1="358.3" y1="446.9" x2="691.8" y2="113.4"/>
						<line class="st2" x1="368.8" y1="457.3" x2="702.2" y2="123.8"/>
						<line class="st2" x1="379.2" y1="467.7" x2="712.7" y2="134.2"/>
						<line class="st2" x1="389.6" y1="478.1" x2="723.1" y2="144.7"/>
						<line class="st2" x1="400" y1="488.6" x2="733.5" y2="155.1"/>
						<line class="st2" x1="389.6" y1="478.1" x2="723.1" y2="144.7"/>
						<line class="st2" x1="410.5" y1="499" x2="743.9" y2="165.5"/>
						<line class="st2" x1="420.9" y1="509.4" x2="754.4" y2="175.9"/>
						<line class="st2" x1="431.3" y1="519.8" x2="764.8" y2="186.3"/>
						<line class="st2" x1="441.7" y1="530.2" x2="775.2" y2="196.8"/>
						<line class="st2" x1="452.1" y1="540.7" x2="785.6" y2="207.2"/>
						<line class="st2" x1="462.6" y1="551.1" x2="796" y2="217.6"/>
						<line class="st2" x1="473" y1="561.5" x2="806.5" y2="228"/>
					</g>
					<g>
						<line class="st2" x1="483.4" y1="551.1" x2="149.9" y2="217.6"/>
						<line class="st2" x1="473" y1="561.5" x2="139.5" y2="228"/>
						<line class="st2" x1="493.8" y1="540.7" x2="160.3" y2="207.2"/>
						<line class="st2" x1="504.2" y1="530.2" x2="170.8" y2="196.8"/>
						<line class="st2" x1="514.7" y1="519.8" x2="181.2" y2="186.3"/>
						<line class="st2" x1="525.1" y1="509.4" x2="191.6" y2="175.9"/>
						<line class="st2" x1="535.5" y1="499" x2="202" y2="165.5"/>
						<line class="st2" x1="545.9" y1="488.6" x2="212.4" y2="155.1"/>
						<line class="st2" x1="556.4" y1="478.1" x2="222.9" y2="144.7"/>
						<line class="st2" x1="566.8" y1="467.7" x2="233.3" y2="134.2"/>
						<line class="st2" x1="556.4" y1="478.1" x2="222.9" y2="144.7"/>
						<line class="st2" x1="577.2" y1="457.3" x2="243.7" y2="123.8"/>
						<line class="st2" x1="587.6" y1="446.9" x2="254.1" y2="113.4"/>
						<line class="st2" x1="598" y1="436.4" x2="264.6" y2="103"/>
						<line class="st2" x1="608.5" y1="426" x2="275" y2="92.5"/>
						<line class="st2" x1="618.9" y1="415.6" x2="285.4" y2="82.1"/>
						<line class="st2" x1="629.3" y1="405.2" x2="295.8" y2="71.7"/>
						<line class="st2" x1="639.7" y1="394.8" x2="306.2" y2="61.3"/>
						<line class="st2" x1="650.1" y1="384.3" x2="316.7" y2="50.9"/>
						<line class="st2" x1="639.7" y1="394.8" x2="306.2" y2="61.3"/>
						<line class="st2" x1="660.6" y1="373.9" x2="327.1" y2="40.4"/>
						<line class="st2" x1="671" y1="363.5" x2="337.5" y2="30"/>
						<line class="st2" x1="681.4" y1="353.1" x2="347.9" y2="19.6"/>
						<line class="st2" x1="691.8" y1="342.7" x2="358.3" y2="9.2"/>
						<line class="st2" x1="702.2" y1="332.2" x2="368.8" y2="-1.2"/>
						<line class="st2" x1="712.7" y1="321.8" x2="379.2" y2="-11.7"/>
						<line class="st2" x1="723.1" y1="311.4" x2="389.6" y2="-22.1"/>
						<line class="st2" x1="733.5" y1="301" x2="400" y2="-32.5"/>
						<line class="st2" x1="723.1" y1="311.4" x2="389.6" y2="-22.1"/>
						<line class="st2" x1="743.9" y1="290.5" x2="410.5" y2="-42.9"/>
						<line class="st2" x1="754.4" y1="280.1" x2="420.9" y2="-53.4"/>
						<line class="st2" x1="764.8" y1="269.7" x2="431.3" y2="-63.8"/>
						<line class="st2" x1="775.2" y1="259.3" x2="441.7" y2="-74.2"/>
						<line class="st2" x1="785.6" y1="248.9" x2="452.1" y2="-84.6"/>
						<line class="st2" x1="796" y1="238.4" x2="462.6" y2="-95"/>
						<line class="st2" x1="806.5" y1="228" x2="473" y2="-105.5"/>
					</g>
				</g>
			</g>
			<g>
				<defs>
					<rect id="SVGID_00000045607487924813102170000011529192846121572747_" x="384.5" y="206.5" width="83.5" height="101.8"/>
				</defs>
				<clipPath id="SVGID_00000183940385827556190030000008234246082316712616_">
					<use xlink:href="#SVGID_00000045607487924813102170000011529192846121572747_"  style="overflow:visible;"/>
				</clipPath>
				<g style="opacity:0.3;clip-path:url(#SVGID_00000183940385827556190030000008234246082316712616_);">
					<rect x="311.9" y="56.5" class="st4" width="322.2" height="322.2"/>
				</g>
			</g>
		</g>
		<g id="Wet_Floor_2_">
			<g>
				<defs>
					<rect id="SVGID_00000093876163477170451710000017666374592574359936_" x="404.9" y="66.8" width="58.8" height="87.6"/>
				</defs>
				<clipPath id="SVGID_00000119088275522111516350000001842352475842840448_">
					<use xlink:href="#SVGID_00000093876163477170451710000017666374592574359936_"  style="overflow:visible;"/>
				</clipPath>
				<g style="clip-path:url(#SVGID_00000119088275522111516350000001842352475842840448_);">
					<g>
						<line class="st2" x1="155.3" y1="92.4" x2="488.7" y2="-241.1"/>
						<line class="st2" x1="144.8" y1="82" x2="478.3" y2="-251.5"/>
						<line class="st2" x1="165.7" y1="102.8" x2="499.2" y2="-230.7"/>
						<line class="st2" x1="176.1" y1="113.2" x2="509.6" y2="-220.3"/>
						<line class="st2" x1="186.5" y1="123.6" x2="520" y2="-209.8"/>
						<line class="st2" x1="196.9" y1="134.1" x2="530.4" y2="-199.4"/>
						<line class="st2" x1="207.4" y1="144.5" x2="540.9" y2="-189"/>
						<line class="st2" x1="217.8" y1="154.9" x2="551.3" y2="-178.6"/>
						<line class="st2" x1="228.2" y1="165.3" x2="561.7" y2="-168.2"/>
						<line class="st2" x1="238.6" y1="175.7" x2="572.1" y2="-157.7"/>
						<line class="st2" x1="228.2" y1="165.3" x2="561.7" y2="-168.2"/>
						<line class="st2" x1="249.1" y1="186.2" x2="582.5" y2="-147.3"/>
						<line class="st2" x1="259.5" y1="196.6" x2="593" y2="-136.9"/>
						<line class="st2" x1="269.9" y1="207" x2="603.4" y2="-126.5"/>
						<line class="st2" x1="280.3" y1="217.4" x2="613.8" y2="-116.1"/>
						<line class="st2" x1="290.7" y1="227.9" x2="624.2" y2="-105.6"/>
						<line class="st2" x1="301.2" y1="238.3" x2="634.6" y2="-95.2"/>
						<line class="st2" x1="311.6" y1="248.7" x2="645.1" y2="-84.8"/>
						<line class="st2" x1="322" y1="259.1" x2="655.5" y2="-74.4"/>
						<line class="st2" x1="311.6" y1="248.7" x2="645.1" y2="-84.8"/>
						<line class="st2" x1="332.4" y1="269.5" x2="665.9" y2="-63.9"/>
						<line class="st2" x1="342.8" y1="280" x2="676.3" y2="-53.5"/>
						<line class="st2" x1="353.3" y1="290.4" x2="686.8" y2="-43.1"/>
						<line class="st2" x1="363.7" y1="300.8" x2="697.2" y2="-32.7"/>
						<line class="st2" x1="374.1" y1="311.2" x2="707.6" y2="-22.3"/>
						<line class="st2" x1="384.5" y1="321.6" x2="718" y2="-11.8"/>
						<line class="st2" x1="395" y1="332.1" x2="728.4" y2="-1.4"/>
						<line class="st2" x1="405.4" y1="342.5" x2="738.9" y2="9"/>
						<line class="st2" x1="395" y1="332.1" x2="728.4" y2="-1.4"/>
						<line class="st2" x1="415.8" y1="352.9" x2="749.3" y2="19.4"/>
						<line class="st2" x1="426.2" y1="363.3" x2="759.7" y2="29.8"/>
						<line class="st2" x1="436.6" y1="373.8" x2="770.1" y2="40.3"/>
						<line class="st2" x1="447.1" y1="384.2" x2="780.5" y2="50.7"/>
						<line class="st2" x1="457.5" y1="394.6" x2="791" y2="61.1"/>
						<line class="st2" x1="467.9" y1="405" x2="801.4" y2="71.5"/>
						<line class="st2" x1="478.3" y1="415.4" x2="811.8" y2="82"/>
					</g>
					<g>
						<line class="st2" x1="488.7" y1="405" x2="155.3" y2="71.5"/>
						<line class="st2" x1="478.3" y1="415.4" x2="144.8" y2="82"/>
						<line class="st2" x1="499.2" y1="394.6" x2="165.7" y2="61.1"/>
						<line class="st2" x1="509.6" y1="384.2" x2="176.1" y2="50.7"/>
						<line class="st2" x1="520" y1="373.8" x2="186.5" y2="40.3"/>
						<line class="st2" x1="530.4" y1="363.3" x2="196.9" y2="29.8"/>
						<line class="st2" x1="540.9" y1="352.9" x2="207.4" y2="19.4"/>
						<line class="st2" x1="551.3" y1="342.5" x2="217.8" y2="9"/>
						<line class="st2" x1="561.7" y1="332.1" x2="228.2" y2="-1.4"/>
						<line class="st2" x1="572.1" y1="321.6" x2="238.6" y2="-11.8"/>
						<line class="st2" x1="561.7" y1="332.1" x2="228.2" y2="-1.4"/>
						<line class="st2" x1="582.5" y1="311.2" x2="249.1" y2="-22.3"/>
						<line class="st2" x1="593" y1="300.8" x2="259.5" y2="-32.7"/>
						<line class="st2" x1="603.4" y1="290.4" x2="269.9" y2="-43.1"/>
						<line class="st2" x1="613.8" y1="280" x2="280.3" y2="-53.5"/>
						<line class="st2" x1="624.2" y1="269.5" x2="290.7" y2="-63.9"/>
						<line class="st2" x1="634.6" y1="259.1" x2="301.2" y2="-74.4"/>
						<line class="st2" x1="645.1" y1="248.7" x2="311.6" y2="-84.8"/>
						<line class="st2" x1="655.5" y1="238.3" x2="322" y2="-95.2"/>
						<line class="st2" x1="645.1" y1="248.7" x2="311.6" y2="-84.8"/>
						<line class="st2" x1="665.9" y1="227.9" x2="332.4" y2="-105.6"/>
						<line class="st2" x1="676.3" y1="217.4" x2="342.8" y2="-116.1"/>
						<line class="st2" x1="686.8" y1="207" x2="353.3" y2="-126.5"/>
						<line class="st2" x1="697.2" y1="196.6" x2="363.7" y2="-136.9"/>
						<line class="st2" x1="707.6" y1="186.2" x2="374.1" y2="-147.3"/>
						<line class="st2" x1="718" y1="175.7" x2="384.5" y2="-157.7"/>
						<line class="st2" x1="728.4" y1="165.3" x2="395" y2="-168.2"/>
						<line class="st2" x1="738.9" y1="154.9" x2="405.4" y2="-178.6"/>
						<line class="st2" x1="728.4" y1="165.3" x2="395" y2="-168.2"/>
						<line class="st2" x1="749.3" y1="144.5" x2="415.8" y2="-189"/>
						<line class="st2" x1="759.7" y1="134.1" x2="426.2" y2="-199.4"/>
						<line class="st2" x1="770.1" y1="123.6" x2="436.6" y2="-209.8"/>
						<line class="st2" x1="780.5" y1="113.2" x2="447.1" y2="-220.3"/>
						<line class="st2" x1="791" y1="102.8" x2="457.5" y2="-230.7"/>
						<line class="st2" x1="801.4" y1="92.4" x2="467.9" y2="-241.1"/>
						<line class="st2" x1="811.8" y1="82" x2="478.3" y2="-251.5"/>
					</g>
				</g>
			</g>
			<g>
				<defs>
					<rect id="SVGID_00000091727199489635537890000011424776286994860162_" x="404.9" y="66.8" width="58.8" height="87.6"/>
				</defs>
				<clipPath id="SVGID_00000001655845320363523970000014193763404343297182_">
					<use xlink:href="#SVGID_00000091727199489635537890000011424776286994860162_"  style="overflow:visible;"/>
				</clipPath>
				<g style="opacity:0.3;clip-path:url(#SVGID_00000001655845320363523970000014193763404343297182_);">
					<rect x="317.2" y="-89.5" class="st4" width="322.2" height="322.2"/>
				</g>
			</g>
		</g>
	</g>
	<path id="Windows" class="st7" d="M257,63.8h-3.7v355h208.5V415H257V150.9V63.8z"/>
	<g id="Walls">
		<polygon class="st8" points="266.9,154.4 269.1,154.4 269.1,146.9 266.9,146.9 266.9,102.2 252,102.2 252,146.9 252,154.4 
			252,171.7 266.9,171.7 		"/>
		<rect x="252" y="209" class="st8" width="12.4" height="17.4"/>
		<polygon class="st8" points="353.8,295.9 356.3,295.9 356.3,283.4 356.3,281 266.9,281 266.9,261.1 252,261.1 252,330.6 
			266.9,330.6 266.9,283.4 353.8,283.4 		"/>
		<polygon class="st8" points="356.3,325.6 361.2,325.6 361.2,323.2 356.3,323.2 356.3,315.7 353.8,315.7 353.8,407.6 326.5,407.6 
			326.5,405.1 309.1,405.1 309.1,420 325.8,420 326.5,420 378.6,420 378.6,407.6 356.3,407.6 		"/>
		<rect x="252" y="365.4" class="st8" width="14.9" height="17.4"/>
		<path class="st8" d="M460.5,206.5h-36.7v2.5h36.7v49.6H386V209h18.6v-2.5H386h-2.5v116.7H381v2.5h5v-2.5v-14.9h29.8v-2.5H386
			v-44.7h74.5v36.4h-9l0,0H451v8.3h-15.3v2.5h24.8v96.8h-47.2V420H468v-12.4v-2.5v-222h-7.4v23.4H460.5z M460.5,305.8h-7.1V300h7.1
			V305.8z"/>
		<path class="st8" d="M252,60v7.4h152.9v3.1h2.5v-3.1h53.2v46.9h-53.2V88.9h-2.5V147H289.8v7.4h106.8v8.3h0.6l0,0h10.3l0,0v-2.5
			v-5.8h3.3v-2.5h-3.3v-3.7V147v-30h53.2v21.5h-7.1h-1.9H451v8.5h-6.2v5h-16.6v2.5h16.6l0,0h15.7v3.7h7.4v-3.7v-7.4V67.5v-6.1V60
			H252z M404.9,160.2H399v-5.8h5.9V160.2z M460.5,146.9h-7.1v-6.1h7.1V146.9z"/>
	</g>
	<path id="Doors" class="st7" d="M353.8,315.7c-2.7,0-5-0.5-7.4-1.5c-2.5-1-4.7-2.5-6.5-4.2c-2-1.7-3.5-4-4.5-6.5s-1.5-5-1.5-7.7
		h19.9 M407.2,89.1c2.5,0,4.6-0.5,6.9-1.4s4.4-2.3,6-3.9c1.9-1.6,3.2-3.7,4.2-6c0.9-2.3,1.4-4.6,1.4-7.2h-18.5 M381.1,325.6
		c0,2.7-0.5,5-1.5,7.4c-1,2.5-2.5,4.7-4.2,6.5c-1.7,2-4,3.5-6.5,4.5s-5,1.5-7.7,1.5v-19.9 M415.9,308.3c0,2.7,0.5,5,1.5,7.4
		c1,2.5,2.5,4.7,4.2,6.5c1.7,2,4,3.5,6.5,4.5s5,1.5,7.7,1.5v-19.9 M424.5,209c0,2.7-0.5,5-1.5,7.4c-1,2.5-2.5,4.7-4.2,6.5
		c-1.7,2-4,3.5-6.5,4.5s-5,1.5-7.7,1.5V209 M428.6,151.9c0-2.5-0.5-4.5-1.4-6.8s-2.3-4.3-3.8-5.9c-1.6-1.8-3.6-3.2-5.9-4.1
		s-4.5-1.4-7-1.4v18.1 M289.9,146.9c0-2.9-0.5-5.2-1.6-7.8c-1-2.6-2.6-4.9-4.4-6.7c-1.8-2.1-4.1-3.6-6.7-4.7c-2.6-1-5.2-1.6-8-1.6
		v20.7 M460.5,182.9c-3.2,0-6.2-0.7-9.2-2s-6-3-8.2-5.5c-2.2-2.2-4.2-5-5.5-7.9c-1.2-3-2-6.2-2-9.4h24.8"/>
	<g id="Furniture_1_">
		<g>
			<g>
				<rect x="300.5" y="332.9" class="st9" width="52.8" height="34.7"/>
				<path class="st10" d="M301,333.4h51.8v33.7H301V333.4 M300,332.4v35.7h53.8v-35.7H300L300,332.4z"/>
			</g>
			<rect x="336.7" y="351.1" class="st11" width="13.3" height="13.9"/>
			<rect x="336.7" y="335.4" class="st11" width="13.3" height="13.9"/>
			<polygon class="st12" points="342.1,363.3 345.5,353.2 332.7,350.5 329.2,360.6 			"/>
			<polygon class="st12" points="332.6,349.8 345.5,347.1 342.1,337.1 329.2,339.8 			"/>
			<g>
				<polygon class="st9" points="299.9,367.5 299.9,332.9 342.1,332.9 343.1,346.6 339.3,367.5 				"/>
				<path class="st10" d="M341.6,333.4l1,13.2l-3.8,20.4h-38.4v-33.6H341.6 M342.5,332.4h-0.8h-42.2V368h40h0.3l4-21.4L342.5,332.4
					L342.5,332.4z"/>
			</g>
			<polyline class="st13" points="341.1,332.9 341.1,346.8 338.9,367.7 			"/>
		</g>
		<g>
			<g>
				<rect x="323.2" y="93.6" class="st9" width="34.7" height="52.8"/>
				<path class="st10" d="M357.3,94.1v51.8h-33.7V94.1H357.3 M358.3,93.1h-35.7v53.8h35.7V93.1L358.3,93.1z"/>
			</g>
			<rect x="325.7" y="129.8" class="st11" width="13.9" height="13.3"/>
			<rect x="341.4" y="129.8" class="st11" width="13.9" height="13.3"/>
			<polygon class="st12" points="327.4,135.2 337.5,138.6 340.2,125.8 330.1,122.3 			"/>
			<polygon class="st12" points="340.9,125.8 343.6,138.6 353.7,135.2 351,122.3 			"/>
			<g>
				<polygon class="st9" points="323.2,132.4 323.2,93.1 357.8,93.1 357.8,135.2 344.1,136.3 				"/>
				<path class="st10" d="M323.7,93.6h33.6v41.2l-13.2,1l-20.4-3.8V93.6 M322.7,92.6v40v0.3l21.4,4l14.3-1.1V135V92.8L322.7,92.6
					L322.7,92.6z"/>
			</g>
			<polyline class="st13" points="357.9,134.3 343.9,134.3 323.1,132.1 			"/>
		</g>
		<g>
			<g>
				<rect x="410.6" y="356.8" class="st9" width="49.5" height="39.2"/>
				<path class="st10" d="M411.1,357.3h48.5v38.2h-48.5V357.3 M410.1,356.3v40.2h50.5v-40.2H410.1L410.1,356.3z"/>
			</g>
			<rect x="444.5" y="377.3" class="st11" width="12.5" height="15.7"/>
			<rect x="444.5" y="359.7" class="st11" width="12.5" height="15.7"/>
			<polygon class="st12" points="449.5,391.1 452.8,379.8 440.7,376.7 437.5,388.1 			"/>
			<polygon class="st12" points="440.7,375.9 452.8,372.9 449.5,361.5 437.5,364.6 			"/>
			<g>
				<polygon class="st9" points="410.1,395.9 410.1,356.8 449.5,356.8 450.5,372.3 446.9,395.9 				"/>
				<path class="st10" d="M449,357.3l1,15l-3.6,23.1h-35.9v-38.2H449 M450,356.3h-0.8h-39.6v40.2H447h0.3l3.7-24.1L450,356.3
					L450,356.3z"/>
			</g>
			<polyline class="st13" points="448.7,356.8 448.7,372.5 446.6,396 			"/>
		</g>
		<g>
			<g>
				<rect x="389.7" y="196.5" class="st9" width="12.7" height="1.8"/>
				<path class="st10" d="M401.9,197v0.8h-11.7V197H401.9 M402.9,196h-13.7v2.8h13.7V196L402.9,196z"/>
			</g>
			<g>
				<rect x="389.7" y="198.4" class="st9" width="12.7" height="7.6"/>
				<path class="st10" d="M401.9,198.9v6.6h-11.7v-6.6H401.9 M402.9,197.9h-13.7v8.6h13.7V197.9L402.9,197.9z"/>
			</g>
			<path class="st11" d="M389.8,205.9l12.5-7.4"/>
		</g>
		<g>
			<g>
				<rect x="424.9" y="196.5" class="st9" width="35.2" height="1.8"/>
				<path class="st10" d="M459.6,197v0.8h-34.2V197H459.6 M460.6,196h-36.2v2.8h36.2V196L460.6,196z"/>
			</g>
			<g>
				<rect x="424.9" y="198.4" class="st9" width="35.2" height="7.6"/>
				<path class="st10" d="M459.6,198.9v6.6h-34.2v-6.6H459.6 M460.6,197.9h-36.2v8.6h36.2V197.9L460.6,197.9z"/>
			</g>
			<path class="st11" d="M425,206.1l35.3-7.8"/>
		</g>
		<g>
			<g>
				<rect x="407.9" y="125" class="st9" width="43.6" height="1.8"/>
				<path class="st10" d="M408.4,125.5H451v0.8h-42.6V125.5 M407.4,124.5v2.8H452v-2.8H407.4L407.4,124.5z"/>
			</g>
			<g>
				<rect x="407.9" y="117.4" class="st9" width="43.6" height="7.6"/>
				<path class="st10" d="M408.4,117.9H451v6.6h-42.6V117.9 M407.4,116.9v8.6H452v-8.6H407.4L407.4,116.9z"/>
			</g>
			<path class="st11" d="M451.2,117.3L408,125"/>
		</g>
		<g>
			<g>
				<rect x="390.2" y="89.4" class="st9" width="1.8" height="57.1"/>
				<path class="st10" d="M391.5,89.9V146h-0.8V89.9H391.5 M392.5,88.9h-2.8V147h2.8V88.9L392.5,88.9z"/>
			</g>
			<g>
				<rect x="392" y="89.4" class="st9" width="12.4" height="57.1"/>
				<path class="st10" d="M392.5,89.9h11.4V146h-11.4V89.9 M391.5,88.9V147h13.4V88.9H391.5L391.5,88.9z"/>
			</g>
			<path class="st11" d="M404.4,146.3l-12.4-57"/>
		</g>
		<g>
			<g>
				<rect x="386.6" y="321.8" class="st9" width="28.1" height="1.8"/>
				<path class="st10" d="M387.1,322.3h27.1v0.8h-27.1V322.3 M386.1,321.3v2.8h29.1v-2.8H386.1L386.1,321.3z"/>
			</g>
			<g>
				<rect x="386.6" y="308.8" class="st9" width="28.1" height="13"/>
				<path class="st10" d="M387.1,309.3h27.1v12h-27.1V309.3 M386.1,308.3v14h29.1v-14H386.1L386.1,308.3z"/>
			</g>
			<path class="st11" d="M414.8,308.8l-28.4,12.9"/>
		</g>
		<g>
			<g>
				<rect x="386.6" y="261.6" class="st9" width="17.6" height="43.7"/>
				<path class="st10" d="M403.7,262.1v42.7h-16.6v-42.7H403.7 M404.7,261.1h-18.6v44.7h18.6V261.1L404.7,261.1z"/>
			</g>
			<g>
				<g>
					<path class="st14" d="M395.4,265.2c-3.4,0-6.1,3-5.8,6.3c0.3,3.7,0.6,8.4,0.6,11.9s-0.3,8.1-0.6,11.9c-0.3,3.4,2.4,6.3,5.8,6.3
						s6.1-3,5.8-6.3c-0.3-3.7-0.6-8.4-0.6-11.9s0.3-8.1,0.6-11.9C401.4,268.2,398.8,265.2,395.4,265.2z"/>
					<ellipse class="st14" cx="395.4" cy="271.2" rx="0.9" ry="0.9"/>
				</g>
			</g>
		</g>
		<g>
			<g>
				<rect x="413.1" y="248.1" class="st9" width="15" height="10"/>
				<path class="st10" d="M427.6,248.6v9h-14v-9H427.6 M428.6,247.6h-16v11h16V247.6L428.6,247.6z"/>
			</g>
			<g>
				<path class="st9" d="M420.6,256.2c-1.7,0-3.1-1.4-3.1-3.1s1.4-3.1,3.1-3.1s3.1,1.4,3.1,3.1S422.3,256.2,420.6,256.2z"/>
				<path class="st10" d="M420.6,250.6c1.4,0,2.6,1.2,2.6,2.6c0,1.4-1.2,2.6-2.6,2.6s-2.6-1.2-2.6-2.6
					C418,251.7,419.2,250.6,420.6,250.6 M420.6,249.6c-2,0-3.6,1.6-3.6,3.6s1.6,3.6,3.6,3.6s3.6-1.6,3.6-3.6
					C424.2,251.2,422.6,249.6,420.6,249.6L420.6,249.6z"/>
			</g>
		</g>
		<g>
			<g>
				<path class="st9" d="M446.3,87.6c-3.3,0-5.9-2.6-5.9-5.9V68H460v19.6H446.3z"/>
				<path class="st10" d="M459.5,68.5v18.6h-13.2c-3,0-5.4-2.4-5.4-5.4V68.5H459.5 M460.5,67.5h-20.6v14.2c0,3.5,2.9,6.4,6.4,6.4
					h14.2V67.5L460.5,67.5z"/>
			</g>
			<g>
				<path class="st9" d="M446.4,85.9c-2.4,0-4.3-1.9-4.3-4.3v-12h16.2v16.2L446.4,85.9L446.4,85.9z"/>
				<path class="st10" d="M457.9,70.2v15.2h-11.5c-2.1,0-3.8-1.7-3.8-3.8V70.2H457.9 M458.9,69.2h-17.2v12.5c0,2.6,2.1,4.8,4.8,4.8
					H459L458.9,69.2L458.9,69.2z"/>
			</g>
			<ellipse class="st11" cx="455.3" cy="72.8" rx="0.9" ry="0.9"/>
		</g>
		<g>
			<g>
				<path class="st9" d="M435.5,258.1v-13.7c0-3.3,2.6-5.9,5.9-5.9h13.7v19.6H435.5z"/>
				<path class="st10" d="M441.4,238v1h13.2v18.6H436v-13.2c0-3,2.4-5.4,5.4-5.4V238 M441.4,238c-3.5,0-6.4,2.9-6.4,6.4v14.2h20.6
					V238H441.4L441.4,238z"/>
			</g>
			<g>
				<path class="st9" d="M437.1,256.4v-12c0-2.4,1.9-4.3,4.3-4.3h12v16.2h-16.3V256.4z"/>
				<path class="st10" d="M452.9,240.7v15.2h-15.2v-11.5c0-2.1,1.7-3.8,3.8-3.8h11.4 M453.9,239.7h-12.5c-2.6,0-4.8,2.1-4.8,4.8V257
					h17.2L453.9,239.7L453.9,239.7z"/>
			</g>
			<ellipse class="st11" cx="450.3" cy="253.3" rx="0.9" ry="0.9"/>
		</g>
		<g>
			<path class="st11" d="M309.5,215.4h31.1V238h-31.1V215.4z"/>
			<path class="st11" d="M342.5,220.2h0.5c3.6,0,6.5,2.9,6.5,6.5s-2.9,6.5-6.5,6.5h-0.5V220.2z"/>
			<path class="st11" d="M340.6,222h2.4c2.6,0,4.7,2.1,4.7,4.7s-2.1,4.7-4.7,4.7h-2.4V222z"/>
			<path class="st11" d="M307.6,220.2H307c-3.6,0-6.5,2.9-6.5,6.5s2.9,6.5,6.5,6.5h0.5v-13H307.6z"/>
			<path class="st11" d="M309.5,222h-2.4c-2.6,0-4.7,2.1-4.7,4.7s2.1,4.7,4.7,4.7h2.4V222z"/>
			<path class="st11" d="M331.5,213.5V213c0-3.6-2.9-6.5-6.5-6.5s-6.5,2.9-6.5,6.5v0.5H331.5z"/>
			<path class="st11" d="M329.7,215.4V213c0-2.6-2.1-4.7-4.7-4.7s-4.7,2.1-4.7,4.7v2.4H329.7z"/>
			<path class="st11" d="M331.5,239.9v0.5c0,3.6-2.9,6.5-6.5,6.5s-6.5-2.9-6.5-6.5v-0.5H331.5z"/>
			<path class="st11" d="M329.7,238v2.4c0,2.6-2.1,4.7-4.7,4.7s-4.7-2.1-4.7-4.7V238H329.7z"/>
		</g>
		<g>
			<g>
				<rect x="374.8" y="211.8" class="st9" width="1.8" height="35.5"/>
				<path class="st10" d="M376.2,212.3v34.5h-0.8v-34.5H376.2 M377.2,211.3h-2.8v36.5h2.8V211.3L377.2,211.3z"/>
			</g>
			<g>
				<rect x="376.7" y="211.8" class="st9" width="6.4" height="35.5"/>
				<path class="st10" d="M382.6,212.3v34.5h-5.4v-34.5H382.6 M383.6,211.3h-7.4v36.5h7.4V211.3L383.6,211.3z"/>
			</g>
			<g>
				<rect x="379.8" y="217.1" class="st9" width="1.8" height="25.6"/>
				<path class="st10" d="M381.1,217.6v24.6h-0.8v-24.6H381.1 M382.1,216.6h-2.8v26.6h2.8V216.6L382.1,216.6z"/>
			</g>
			<path class="st11" d="M381.6,224.4v10.9l1.6-1v-8.9L381.6,224.4z"/>
		</g>
		<g>
			<g>
				<rect x="363.2" y="357.6" class="st9" width="1.8" height="35.5"/>
				<path class="st10" d="M364.5,358.1v34.5h-0.8v-34.5H364.5 M365.5,357.1h-2.8v36.5h2.8V357.1L365.5,357.1z"/>
			</g>
			<g>
				<rect x="356.8" y="357.6" class="st9" width="6.4" height="35.5"/>
				<path class="st10" d="M357.3,358.1h5.4v34.5h-5.4V358.1 M356.3,357.1v36.5h7.4v-36.5H356.3L356.3,357.1z"/>
			</g>
			<g>
				<rect x="358.3" y="362.2" class="st9" width="1.8" height="25.6"/>
				<path class="st10" d="M359.6,362.7v24.6h-0.8v-24.6H359.6 M360.6,361.7h-2.8v26.6h2.8V361.7L360.6,361.7z"/>
			</g>
			<path class="st11" d="M358.3,380.5v-10.9l-1.6,1v8.9L358.3,380.5z"/>
		</g>
		<g>
			<g>
				<rect x="322.8" y="74.4" class="st9" width="35.5" height="1.8"/>
				<path class="st10" d="M357.8,74.9v0.8h-34.5v-0.8H357.8 M358.8,73.9h-36.5v2.8h36.5V73.9L358.8,73.9z"/>
			</g>
			<g>
				<rect x="322.8" y="68" class="st9" width="35.5" height="6.4"/>
				<path class="st10" d="M357.8,68.5v5.4h-34.5v-5.4H357.8 M358.8,67.5h-36.5v7.4h36.5V67.5L358.8,67.5z"/>
			</g>
			<g>
				<rect x="328" y="69.5" class="st9" width="25.6" height="1.8"/>
				<path class="st10" d="M353.2,70v0.8h-24.6V70H353.2 M354.2,69h-26.6v2.8h26.6V69L354.2,69z"/>
			</g>
			<path class="st11" d="M335.4,69.5h10.9l-1-1.6h-8.9L335.4,69.5z"/>
		</g>
		<g>
			<path class="st11" d="M285.8,388.8h11.1l1.5,10.1h-14.1L285.8,388.8z"/>
			<g>
				<rect x="258" y="398" class="st9" width="50.6" height="16.1"/>
				<path class="st10" d="M308.1,398.5v15.1h-49.6v-15.1H308.1 M309.1,397.5h-51.6v17.1h51.6V397.5L309.1,397.5z"/>
			</g>
			<path class="st13" d="M287.7,402.2h8.6 M286.9,400.6H297v3h-10.1V400.6z"/>
			<path class="st11" d="M282.7,400.4L282.7,400.4c0.4,0,0.8,0.3,0.8,0.8v1c0,0.4-0.3,0.8-0.8,0.8l0,0c-0.4,0-0.8-0.3-0.8-0.8v-1
				C282,400.7,282.3,400.4,282.7,400.4z"/>
			<path class="st11" d="M289.4,408.5c0-1.4,1.1-2.5,2.5-2.5s2.5,1.1,2.5,2.5v2.5h-5V408.5z"/>
			<g>
				<rect x="286.1" y="388.7" class="st9" width="10.4" height="8.7"/>
				<path class="st10" d="M296.1,389.2v7.7h-9.4v-7.7H296.1 M297.1,388.2h-11.4v9.7h11.4V388.2L297.1,388.2z"/>
			</g>
			<g>
				<rect x="285.9" y="386.9" class="st9" width="11" height="1.8"/>
				<path class="st10" d="M296.3,387.4v0.8h-10v-0.8H296.3 M297.3,386.4h-12v2.8h12V386.4L297.3,386.4z"/>
			</g>
			<g>
				<rect x="278.9" y="410.3" class="st9" width="26.1" height="1.8"/>
				<path class="st10" d="M304.5,410.8v0.8h-25.1v-0.8H304.5 M305.5,409.8h-27.1v2.8h27.1V409.8L305.5,409.8z"/>
			</g>
		</g>
		<g>
			<path class="st11" d="M283.3,78.9V90l-10.1,1.5V77.4L283.3,78.9z"/>
			<g>
				<rect x="258" y="68" class="st9" width="16.1" height="33.7"/>
				<path class="st10" d="M273.6,68.5v32.7h-15.1V68.5H273.6 M274.6,67.5h-17.1v34.7h17.1V67.5L274.6,67.5z"/>
			</g>
			<path class="st13" d="M269.9,80.8v8.6 M271.5,80v10.1h-3V80H271.5z"/>
			<path class="st11" d="M271.7,75.9L271.7,75.9c0,0.4-0.3,0.8-0.8,0.8h-1c-0.4,0-0.8-0.3-0.8-0.8l0,0c0-0.4,0.3-0.8,0.8-0.8h1
				C271.4,75.1,271.7,75.4,271.7,75.9z"/>
			<path class="st11" d="M263.6,82.3c1.4,0,2.5,1.1,2.5,2.5s-1.1,2.5-2.5,2.5h-2.5v-5H263.6z"/>
			<g>
				<rect x="274.7" y="79.2" class="st9" width="8.7" height="10.4"/>
				<path class="st10" d="M282.9,79.7v9.4h-7.7v-9.4H282.9 M283.9,78.7h-9.7v11.4h9.7V78.7L283.9,78.7z"/>
			</g>
			<g>
				<rect x="283.4" y="79" class="st9" width="1.8" height="10.9"/>
				<path class="st10" d="M284.7,79.5v9.9h-0.8v-9.9H284.7 M285.7,78.5h-2.8v11.9h2.8V78.5L285.7,78.5z"/>
			</g>
			<g>
				<rect x="259.9" y="73" class="st9" width="1.8" height="23.8"/>
				<path class="st10" d="M261.3,73.5v22.8h-0.8V73.5H261.3 M262.3,72.5h-2.8v24.8h2.8V72.5L262.3,72.5z"/>
			</g>
		</g>
		<g id="Sink_2">
			<g id="Rectangle_16_x5F_11">
				<rect x="447.8" y="87.6" class="st9" width="12.2" height="19.9"/>
				<path class="st10" d="M459.5,88.1V107h-11.2V88.1H459.5 M460.5,87.1h-13.2V108h13.2V87.1L460.5,87.1z"/>
			</g>
			<path id="Rectangle_19_x5F_5" class="st11" d="M453.9,90.6L453.9,90.6c-2.2,0-4,1.8-4,4v5.8c0,2.2,1.8,4,4,4l0,0c2.2,0,4-1.8,4-4
				v-5.8C458,92.4,456.2,90.6,453.9,90.6z"/>
			<circle id="Ellipse_7_x5F_2" class="st11" cx="455.2" cy="97.6" r="0.9"/>
		</g>
		<g id="Sink_2_1_">
			<g id="Rectangle_16_x5F_11_1_">
				<rect x="386.6" y="245.9" class="st9" width="26.5" height="12.2"/>
				<path class="st10" d="M412.6,246.4v11.2h-25.5v-11.2L412.6,246.4 M413.6,245.4h-27.5v13.2h27.5V245.4L413.6,245.4z"/>
			</g>
			<path id="Rectangle_19_x5F_5_1_" class="st11" d="M406.8,252L406.8,252c0-2.2-1.8-4-4-4H397c-2.2,0-4,1.8-4,4l0,0
				c0,2.2,1.8,4,4,4h5.8C405,256.1,406.8,254.2,406.8,252z"/>
			<circle id="Ellipse_7_x5F_2_1_" class="st11" cx="399.8" cy="253.3" r="0.9"/>
		</g>
		<g id="Rectangle_16_x5F_11_4_">
			<rect x="404.1" y="261.6" class="st9" width="50.9" height="12.2"/>
			<path class="st10" d="M404.6,262.1h49.9v11.2h-49.9V262.1 M403.6,261.1v13.2h51.9v-13.2H403.6L403.6,261.1z"/>
		</g>
		<g id="Rectangle_16_x5F_11_8_">
			<rect x="455.1" y="261.6" class="st9" width="5" height="35.4"/>
			<path class="st10" d="M455.6,262.1h4v34.4h-4V262.1 M454.6,261.1v36.4h6v-36.4H454.6L454.6,261.1z"/>
		</g>
		<g id="Rectangle_16_x5F_11_7_">
			<rect x="415.2" y="261.6" class="st9" width="19.3" height="12.2"/>
			<path class="st10" d="M415.7,262.1H434v11.2h-18.3V262.1 M414.7,261.1v13.2H435v-13.2H414.7L414.7,261.1z"/>
		</g>
		<path id="Rectangle_19_x5F_5_4_" class="st11" d="M417.8,267.7L417.8,267.7c0,2.2,1.8,4,4,4h5.8c2.2,0,4-1.8,4-4l0,0
			c0-2.2-1.8-4-4-4h-5.8C419.6,263.7,417.8,265.5,417.8,267.7z"/>
		<circle id="Ellipse_7_x5F_2_4_" class="st11" cx="424.7" cy="266.4" r="0.9"/>
		<g id="Toilet_1_">
			<g id="Rectangle_21_1_">
				<rect x="413.7" y="104" class="st9" width="11.4" height="3.6"/>
				<path class="st10" d="M424.6,104.5v2.6h-10.4v-2.6H424.6 M425.6,103.5h-12.4v4.6h12.4V103.5L425.6,103.5z"/>
			</g>
			<path id="Rectangle_19_x5F_2_1_" class="st11" d="M423.7,95.9c0.2-2.5-1.8-4.6-4.3-4.6l0,0c-2.5,0-4.5,2.1-4.3,4.6l0.5,8h7.5
				L423.7,95.9z"/>
			<path id="Rectangle_18_x5F_13_1_" class="st11" d="M422.2,95.9c0.2-1.7-1.2-3.1-2.9-3.1l0,0c-1.7,0-3,1.5-2.9,3.1l0.4,4.6h4.9
				L422.2,95.9z"/>
			<ellipse id="Ellipse_6_x5F_2_1_" class="st11" cx="419.4" cy="97.8" rx="0.9" ry="0.9"/>
		</g>
		<g id="Toilet_4_">
			<g id="Rectangle_21_4_">
				<rect x="451.5" y="214.1" class="st9" width="3.6" height="11.4"/>
				<path class="st10" d="M454.6,214.6V225H452v-10.4H454.6 M455.6,213.6H451V226h4.6V213.6L455.6,213.6z"/>
			</g>
			<path id="Rectangle_19_x5F_2_4_" class="st11" d="M443.4,224.2c-2.5,0.2-4.6-1.8-4.6-4.3l0,0c0-2.5,2.1-4.5,4.6-4.3l8,0.5v7.5
				L443.4,224.2z"/>
			<path id="Rectangle_18_x5F_13_4_" class="st11" d="M443.5,222.7c-1.7,0.2-3.1-1.2-3.1-2.9l0,0c0-1.7,1.5-3,3.1-2.9l4.6,0.4v4.9
				L443.5,222.7z"/>
			<ellipse id="Ellipse_6_x5F_2_4_" class="st11" cx="445.6" cy="219.9" rx="0.9" ry="0.9"/>
		</g>
		<g id="Toilet_5_">
			<g id="Rectangle_21_5_">
				<rect x="451.5" y="280.1" class="st9" width="3.6" height="11.4"/>
				<path class="st10" d="M454.6,280.6V291H452v-10.4H454.6 M455.6,279.6H451V292h4.6V279.6L455.6,279.6z"/>
			</g>
			<path id="Rectangle_19_x5F_2_5_" class="st11" d="M443.4,290.1c-2.5,0.2-4.6-1.8-4.6-4.3l0,0c0-2.5,2.1-4.5,4.6-4.3l8,0.5v7.5
				L443.4,290.1z"/>
			<path id="Rectangle_18_x5F_13_5_" class="st11" d="M443.5,288.6c-1.7,0.2-3.1-1.2-3.1-2.9l0,0c0-1.7,1.5-3,3.1-2.9l4.6,0.4v4.9
				L443.5,288.6z"/>
			<ellipse id="Ellipse_6_x5F_2_5_" class="st11" cx="445.5" cy="285.8" rx="0.9" ry="0.9"/>
		</g>
		<g id="Kitchen">
			<g id="Rectangle_24">
				<rect x="292" y="154.9" class="st9" width="104.1" height="15.4"/>
				<path class="st10" d="M395.5,155.4v14.4h-103v-14.4H395.5 M396.5,154.4h-105v16.4h105.1L396.5,154.4L396.5,154.4z"/>
			</g>
			<g id="Oven">
				<g id="Rectangle_28">
					<rect x="308.9" y="170.2" class="st9" width="17.1" height="1.8"/>
					<path class="st10" d="M325.5,170.7v0.8h-16.1v-0.8H325.5 M326.5,169.7h-18.1v2.8h18.1V169.7L326.5,169.7z"/>
				</g>
				<g id="Rectangle_29">
					<rect x="307.4" y="154.9" class="st9" width="20.2" height="15.4"/>
					<path class="st10" d="M327.1,155.4v14.4h-19.2v-14.4H327.1 M328.1,154.4h-21.2v16.4h21.2V154.4L328.1,154.4z"/>
				</g>
			</g>
			<g id="Rectangle_27">
				<rect x="292" y="154.9" class="st9" width="15.4" height="15.4"/>
				<path class="st10" d="M306.9,155.4v14.4h-14.4v-14.4H306.9 M307.9,154.4h-16.4v16.4h16.4V154.4L307.9,154.4z"/>
			</g>
			<g id="Sink_3">
				<rect id="Rectangle_28_x5F_2" x="369.5" y="156.4" class="st11" width="19.5" height="12.3"/>
				<path id="Rectangle_29_x5F_2" class="st11" d="M381.3,162.6L381.3,162.6c0,2.5-2.1,4.6-4.6,4.6h-1c-2.5,0-4.6-2.1-4.6-4.6l0,0
					c0-2.5,2.1-4.6,4.6-4.6h1C379.2,157.9,381.3,160,381.3,162.6z"/>
				<ellipse id="Ellipse_7_x5F_3" class="st11" cx="376.2" cy="160.5" rx="0.9" ry="0.9"/>
				<path id="Vector_2" class="st13" d="M387.5,158.8h-4.7 M387.5,160.7h-4.7 M387.5,162.6h-4.7 M387.5,164.4h-4.7 M387.5,166.3
					h-4.7"/>
			</g>
			<g id="Stove">
				<g id="Rectangle_25">
					<rect x="348.1" y="154.9" class="st9" width="15" height="15.4"/>
					<path class="st10" d="M362.5,155.4v14.4h-14v-14.4H362.5 M363.5,154.4h-16v16.4h16V154.4L363.5,154.4z"/>
				</g>
				<g id="Rectangle_28_x5F_3">
					<rect x="348.1" y="154.9" class="st9" width="15" height="1.8"/>
					<path class="st10" d="M362.5,155.4v0.8h-14v-0.8H362.5 M363.5,154.4h-16v2.8h16V154.4L363.5,154.4z"/>
				</g>
				<g id="Ellipse_7_x5F_4">
					<path class="st9" d="M358.9,161.9c-0.7,0-1.2-0.6-1.2-1.2s0.6-1.2,1.2-1.2s1.2,0.6,1.2,1.2S359.6,161.9,358.9,161.9z"/>
					<path class="st10" d="M358.9,160c0.4,0,0.7,0.3,0.7,0.7s-0.3,0.7-0.7,0.7c-0.4,0-0.7-0.3-0.7-0.7S358.5,160,358.9,160
						 M358.9,159c-1,0-1.7,0.8-1.7,1.7s0.8,1.7,1.7,1.7s1.7-0.8,1.7-1.7S359.9,159,358.9,159L358.9,159z"/>
				</g>
				<g id="Ellipse_9">
					<path class="st9" d="M358.9,167.6c-0.9,0-1.7-0.7-1.7-1.7s0.7-1.7,1.7-1.7s1.7,0.7,1.7,1.7S359.8,167.6,358.9,167.6z"/>
					<path class="st10" d="M358.9,164.7c0.6,0,1.2,0.5,1.2,1.2s-0.5,1.2-1.2,1.2s-1.2-0.5-1.2-1.2S358.3,164.7,358.9,164.7
						 M358.9,163.7c-1.2,0-2.2,1-2.2,2.2s1,2.2,2.2,2.2s2.2-1,2.2-2.2S360.1,163.7,358.9,163.7L358.9,163.7z"/>
				</g>
				<g id="Ellipse_10">
					<path class="st9" d="M352.8,162.4c-0.9,0-1.7-0.7-1.7-1.7s0.7-1.7,1.7-1.7s1.7,0.7,1.7,1.7S353.8,162.4,352.8,162.4z"/>
					<path class="st10" d="M352.8,159.5c0.6,0,1.2,0.5,1.2,1.2s-0.5,1.2-1.2,1.2s-1.2-0.5-1.2-1.2S352.2,159.5,352.8,159.5
						 M352.8,158.5c-1.2,0-2.2,1-2.2,2.2s1,2.2,2.2,2.2s2.2-1,2.2-2.2S354,158.5,352.8,158.5L352.8,158.5z"/>
				</g>
				<g id="Ellipse_8">
					<circle class="st9" cx="352.8" cy="166.3" r="1.2"/>
					<path class="st10" d="M352.8,165.6c0.4,0,0.7,0.3,0.7,0.7s-0.3,0.7-0.7,0.7s-0.7-0.3-0.7-0.7S352.4,165.6,352.8,165.6
						 M352.8,164.6c-1,0-1.7,0.8-1.7,1.7s0.8,1.7,1.7,1.7c1,0,1.7-0.8,1.7-1.7S353.8,164.6,352.8,164.6L352.8,164.6z"/>
				</g>
			</g>
			<path id="Vector_3" class="st13" d="M302.5,162.6h-5.7 M301.1,165l-2.8-5 M301.1,160.1l-2.8,5"/>
		</g>
		<g>
			<path class="st11" d="M289.7,248.1c0-0.7-0.6-1.2-1.2-1.2h-12.6v28.7h13.8L289.7,248.1L289.7,248.1z"/>
			<path class="st11" d="M311.9,263c0-0.7-0.6-1.2-1.3-1.2H291c-0.7,0-1.3,0.6-1.3,1.2v12.6h22.2L311.9,263L311.9,263z"/>
			<path class="st11" d="M333.4,263c0-0.7-0.6-1.2-1.3-1.2h-18.9c-0.7,0-1.3,0.6-1.3,1.2v12.6h21.4L333.4,263L333.4,263z"/>
			<path class="st11" d="M333.4,260.7h4.7v19.8h-67.2V242h19.9v4.9H276v28.7h57.5v-14.9H333.4z"/>
		</g>
		<g>
			<rect x="451.5" y="117.4" class="st9" width="8.6" height="20.5"/>
			<path class="st10" d="M459.5,117.9v19.5H452v-19.5L459.5,117.9 M460.5,116.9H451v21.5h9.6v-21.5H460.5z"/>
		</g>
		<g>
			<rect x="407.9" y="107.5" class="st9" width="52.2" height="6.3"/>
			<path class="st10" d="M459.5,108v5.3h-51.2V108H459.5 M460.5,107h-53.2v7.3h53.2V107L460.5,107z"/>
		</g>
		<g>
			<rect x="455.1" y="209.5" class="st9" width="5" height="48.6"/>
			<path class="st10" d="M459.5,210v47.6h-4V210H459.5 M460.5,209h-6v49.6h6V209L460.5,209z"/>
		</g>
	</g>
	<g id="street_anchors" class="st15">
		<rect id="street_x5F_anchor_x5F_01" x="212" y="235" class="st16" width="10" height="10"/>
		<rect id="street_x5F_anchor_x5F_02" x="355" y="450" class="st16" width="10" height="10"/>
	</g>
</g>
<g id="комнаты">
	<g>
		<g>
			<path class="st8" d="M343.8,198c0-1.6,1-2.3,2.1-2.7c0.3-0.1,0.9-0.3,0.9-0.9c0-0.5-0.4-0.6-0.8-0.6c-0.7,0-1.1,0.4-1.6,1l-0.6-1
				c0.6-0.6,1.2-1.2,2.2-1.2c1,0,2,0.5,2,1.9c0,1.4-1.1,1.9-1.9,2.2c-0.7,0.3-1.1,0.6-1.1,1.2v0.1h2.9v1.2h-4V198z"/>
			<path class="st8" d="M350.8,195.1h0.8c0.4,0,0.6-0.3,0.6-0.6c0-0.6-0.5-0.8-0.8-0.8c-0.6,0-1.2,0.5-1.6,1l-0.6-0.9
				c0.6-0.6,1.3-1.3,2.3-1.3c0.8,0,2,0.5,2,1.8c0,0.5-0.3,1-0.5,1.2c0.4,0.2,0.9,0.6,0.9,1.5c0,1.4-1.1,2.2-2.5,2.2
				c-1,0-1.8-0.4-2.5-1.3l0.6-1c0.5,0.6,1.1,1.1,1.9,1.1c0.7,0,1.3-0.4,1.3-1.1c0-0.5-0.5-0.6-0.8-0.6h-0.9V195.1z"/>
			<path class="st8" d="M355.3,197.3c0.4,0,0.8,0.4,0.8,0.9c0,0.5-0.3,0.9-0.8,0.9c-0.4,0-0.8-0.4-0.8-0.9
				C354.6,197.7,354.9,197.3,355.3,197.3z"/>
			<path class="st8" d="M357.8,197.6c0.4,0.2,0.8,0.4,1.3,0.4c0.9,0,1.6-0.7,1.7-2c-0.4,0.5-1,0.9-1.8,0.9c-1.3,0-1.9-1-1.9-2
				c0-1.3,0.9-2.3,2.2-2.3c1.3,0,2.6,1.1,2.6,3.3c0,2.2-1.3,3.5-2.7,3.5c-0.8,0-1.5-0.4-1.8-0.6L357.8,197.6z M360.7,195
				c-0.2-0.8-0.8-1.3-1.5-1.3c-0.6,0-1.1,0.5-1.1,1.1c0,0.4,0.3,0.9,1,0.9C359.7,195.7,360.2,195.4,360.7,195z"/>
		</g>
	</g>
	<g>
		<g>
			<path class="st8" d="M363.4,293.1l1.4-0.8h1v6.3h-1.1v-4.9l-1.1,0.6L363.4,293.1z"/>
			<path class="st8" d="M368,296.8c0.4,0,0.8,0.4,0.8,0.9c0,0.5-0.3,0.9-0.8,0.9c-0.4,0-0.8-0.4-0.8-0.9
				C367.2,297.3,367.5,296.8,368,296.8z"/>
			<path class="st8" d="M373.8,293.6c-0.4-0.2-0.8-0.4-1.3-0.4c-0.9,0-1.6,0.7-1.7,2c0.4-0.5,1-0.9,1.8-0.9c1.3,0,1.9,1,1.9,2
				c0,1.3-0.9,2.3-2.2,2.3c-1.3,0-2.6-1.1-2.6-3.3c0-2.2,1.3-3.5,2.7-3.5c0.8,0,1.5,0.4,1.8,0.6L373.8,293.6z M370.9,296.2
				c0.2,0.8,0.8,1.3,1.5,1.3c0.6,0,1.1-0.5,1.1-1.1c0-0.4-0.3-0.9-1-0.9C371.8,295.6,371.3,295.9,370.9,296.2z"/>
		</g>
	</g>
	<g>
		<g>
			<path class="st8" d="M413.2,179.6h-0.9v1.3h-1.1v-1.3h-3.3v-0.9l3.4-4.1h1v3.9h0.9V179.6z M409.5,178.4h1.7v-2h-0.1
				C410.6,177.1,410,177.8,409.5,178.4L409.5,178.4z"/>
			<path class="st8" d="M414.8,179.2c0.4,0,0.8,0.4,0.8,0.9c0,0.5-0.3,0.9-0.8,0.9c-0.4,0-0.8-0.4-0.8-0.9
				C414,179.6,414.4,179.2,414.8,179.2z"/>
			<path class="st8" d="M416.5,179c0-0.9,0.5-1.4,1-1.6c-0.5-0.2-0.8-0.6-0.8-1.3c0-1.2,1.2-1.8,2.2-1.8c0.9,0,2.1,0.6,2.1,1.8
				c0,0.6-0.2,1-0.8,1.2c0.6,0.2,1,0.8,1,1.6c0,1.3-1.2,2.1-2.4,2.1C417.7,181.1,416.5,180.4,416.5,179z M420.2,178.9
				c0-0.6-0.7-0.9-1.2-0.9s-1.2,0.3-1.2,0.9c0,0.6,0.6,0.9,1.2,0.9C419.6,179.9,420.2,179.5,420.2,178.9z M419.9,176.3
				c0-0.5-0.5-0.8-0.9-0.8c-0.4,0-0.9,0.2-0.9,0.8c0,0.4,0.3,0.7,0.9,0.7C419.6,176.9,419.9,176.7,419.9,176.3z"/>
		</g>
	</g>
	<g>
		<g>
			<path class="st8" d="M430.3,138.1c0-1.6,1-2.3,2.1-2.7c0.3-0.1,0.9-0.3,0.9-0.9c0-0.5-0.4-0.6-0.8-0.6c-0.7,0-1.1,0.4-1.6,1
				l-0.6-1c0.6-0.6,1.2-1.2,2.2-1.2c1,0,2,0.5,2,1.9c0,1.4-1.1,1.9-1.9,2.2c-0.7,0.3-1.1,0.6-1.1,1.2v0.1h2.9v1.2h-4V138.1z"/>
			<path class="st8" d="M436.2,137.4c0.4,0,0.8,0.4,0.8,0.9c0,0.5-0.3,0.9-0.8,0.9c-0.4,0-0.8-0.4-0.8-0.9
				C435.5,137.9,435.8,137.4,436.2,137.4z"/>
			<path class="st8" d="M439.9,135.3h0.8c0.4,0,0.6-0.3,0.6-0.6c0-0.6-0.5-0.8-0.8-0.8c-0.6,0-1.2,0.5-1.6,1l-0.6-0.9
				c0.6-0.6,1.3-1.3,2.3-1.3c0.8,0,2,0.5,2,1.8c0,0.5-0.3,1-0.5,1.2c0.4,0.2,0.9,0.6,0.9,1.5c0,1.4-1.1,2.2-2.5,2.2
				c-1,0-1.8-0.4-2.5-1.3l0.6-1c0.5,0.6,1.1,1.1,1.9,1.1c0.7,0,1.3-0.4,1.3-1.1c0-0.5-0.5-0.6-0.8-0.6h-0.9V135.3z"/>
		</g>
	</g>
	<g>
		<g>
			<path class="st8" d="M413.8,236.8l0.5-1.1c0.3,0.3,1,0.8,1.9,0.8c0.6,0,1.3-0.3,1.3-1.1c0-0.6-0.5-0.9-1-0.9
				c-0.6,0-1.1,0.3-1.6,0.6l-0.7-0.6v-3.3h3.8v1.3h-2.8v1.5c0.4-0.4,0.8-0.6,1.4-0.6c1,0,2,0.7,2,2.1c0,1.7-1.3,2.4-2.4,2.4
				C415,237.7,414.3,237.1,413.8,236.8z"/>
			<path class="st8" d="M420.3,235.8c0.4,0,0.8,0.4,0.8,0.9c0,0.5-0.3,0.9-0.8,0.9c-0.4,0-0.8-0.4-0.8-0.9
				C419.6,236.2,419.9,235.8,420.3,235.8z"/>
			<path class="st8" d="M421.8,232l1.4-0.8h1v6.3h-1.1v-4.9l-1.1,0.6L421.8,232z"/>
		</g>
	</g>
	<g>
		<g>
			<path class="st8" d="M430.4,92.4h0.8c0.4,0,0.6-0.3,0.6-0.6c0-0.6-0.5-0.8-0.8-0.8c-0.6,0-1.2,0.5-1.6,1l-0.6-0.9
				c0.6-0.6,1.3-1.3,2.3-1.3c0.8,0,2,0.5,2,1.8c0,0.5-0.3,1-0.5,1.2c0.4,0.2,0.9,0.6,0.9,1.5c0,1.4-1.1,2.2-2.5,2.2
				c-1,0-1.8-0.4-2.5-1.3l0.6-1c0.5,0.6,1.1,1.1,1.9,1.1c0.7,0,1.3-0.4,1.3-1.1c0-0.5-0.5-0.6-0.8-0.6h-0.9V92.4z"/>
			<path class="st8" d="M434.9,94.6c0.4,0,0.8,0.4,0.8,0.9c0,0.5-0.3,0.9-0.8,0.9c-0.4,0-0.8-0.4-0.8-0.9
				C434.2,95,434.5,94.6,434.9,94.6z"/>
			<path class="st8" d="M436.5,95.6l0.5-1.1c0.3,0.3,1,0.8,1.9,0.8c0.6,0,1.3-0.3,1.3-1.1c0-0.6-0.5-0.9-1-0.9
				c-0.6,0-1.1,0.3-1.6,0.6l-0.7-0.6V90h3.8v1.3H438v1.5c0.4-0.4,0.8-0.6,1.4-0.6c1,0,2,0.7,2,2.1c0,1.7-1.3,2.4-2.4,2.4
				C437.8,96.5,437,95.9,436.5,95.6z"/>
		</g>
	</g>
	<g>
		<g>
			<path class="st8" d="M422.7,289.4h-0.9v1.3h-1.1v-1.3h-3.3v-0.9l3.4-4.1h1v3.9h0.9V289.4z M418.9,288.2h1.7v-2h-0.1
				C420,286.8,419.5,287.5,418.9,288.2L418.9,288.2z"/>
			<path class="st8" d="M424.3,289c0.4,0,0.8,0.4,0.8,0.9c0,0.5-0.3,0.9-0.8,0.9c-0.4,0-0.8-0.4-0.8-0.9
				C423.5,289.4,423.8,289,424.3,289z"/>
			<path class="st8" d="M425.9,289.9l0.5-1.1c0.3,0.3,1,0.8,1.9,0.8c0.6,0,1.3-0.3,1.3-1.1c0-0.6-0.5-0.9-1-0.9
				c-0.6,0-1.1,0.3-1.6,0.6l-0.7-0.6v-3.3h3.8v1.3h-2.8v1.5c0.4-0.4,0.8-0.6,1.4-0.6c1,0,2,0.7,2,2.1c0,1.7-1.3,2.4-2.4,2.4
				C427.1,290.9,426.3,290.3,425.9,289.9z"/>
		</g>
	</g>
	<g>
		<g>
			<path class="st8" d="M275.6,340.9l1.4-0.8h1v6.3h-1.1v-4.9l-1.1,0.6L275.6,340.9z"/>
			<path class="st8" d="M279.2,340.1h4.4v1.2l-2.5,5.1h-1.4l2.6-5h-3V340.1z"/>
			<path class="st8" d="M285.3,344.7c0.4,0,0.8,0.4,0.8,0.9c0,0.5-0.3,0.9-0.8,0.9c-0.4,0-0.8-0.4-0.8-0.9
				C284.5,345.1,284.8,344.7,285.3,344.7z"/>
			<path class="st8" d="M286.7,340.9l1.4-0.8h1v6.3h-1.1v-4.9l-1.1,0.6L286.7,340.9z"/>
		</g>
	</g>
	<g>
		<g>
			<path class="st8" d="M294.9,105.1l1.4-0.8h1v6.3h-1.1v-4.9l-1.1,0.6L294.9,105.1z"/>
			<path class="st8" d="M298.6,104.3h4.4v1.2l-2.5,5.1H299l2.6-5h-3V104.3z"/>
			<path class="st8" d="M304.6,108.9c0.4,0,0.8,0.4,0.8,0.9c0,0.5-0.3,0.9-0.8,0.9c-0.4,0-0.8-0.4-0.8-0.9
				C303.9,109.3,304.2,108.9,304.6,108.9z"/>
			<path class="st8" d="M306.1,105.1l1.4-0.8h1v6.3h-1.1v-4.9l-1.1,0.6L306.1,105.1z"/>
		</g>
	</g>
	<g>
		<g>
			<path class="st8" d="M379,364.2l1.4-0.8h1v6.3h-1.1v-4.9l-1.1,0.6L379,364.2z"/>
			<path class="st8" d="M387.9,368.4H387v1.3h-1.1v-1.3h-3.3v-0.9l3.4-4.1h1v3.9h0.9V368.4z M384.2,367.2h1.7v-2h-0.1
				C385.3,365.9,384.7,366.6,384.2,367.2L384.2,367.2z"/>
			<path class="st8" d="M389.5,368c0.4,0,0.8,0.4,0.8,0.9c0,0.5-0.3,0.9-0.8,0.9c-0.4,0-0.8-0.4-0.8-0.9
				C388.8,368.4,389.1,368,389.5,368z"/>
			<path class="st8" d="M396.4,368.4h-0.9v1.3h-1.1v-1.3h-3.3v-0.9l3.4-4.1h1v3.9h0.9V368.4z M392.7,367.2h1.7v-2h-0.1
				C393.8,365.9,393.2,366.6,392.7,367.2L392.7,367.2z"/>
		</g>
	</g>
</g>
</svg>
