<?xml version="1.0" encoding="utf-8"?>
<!-- Generator: Adobe Illustrator 26.0.3, SVG Export Plug-In . SVG Version: 6.00 Build 0)  -->
<svg version="1.1" xmlns="http://www.w3.org/2000/svg" xmlns:xlink="http://www.w3.org/1999/xlink" x="0px" y="0px"
	 viewBox="0 0 720 480" style="enable-background:new 0 0 720 480;" xml:space="preserve">
<style type="text/css">
	.st0{fill:#DBD4CA;}
	.st1{opacity:0.3;}
	.st2{opacity:0.7;fill:#C49F8A;enable-background:new    ;}
	.st3{fill:#C49F8A;}
	.st4{fill:none;stroke:#565440;}
	.st5{fill:none;stroke:#565440;stroke-width:1;stroke-miterlimit:4.0002;}
	.st6{fill:#565440;}
	.st7{fill:#E9E4DC;}
	.st8{fill:#E9E4DC;stroke:#C49F8A;}
	.st9{fill:#E9E4DC;stroke:#C49F8A;stroke-width:1;stroke-miterlimit:3.9996;}
	.st10{fill:none;stroke:#C49F8A;}
	.st11{fill:#E9E4DC;stroke:#C49F8A;stroke-miterlimit:3.9998;}
	.st12{fill:#E9E4DC;stroke:#C49F8A;stroke-linejoin:round;}
	.st13{fill:#E9E4DC;stroke:#C49F8A;stroke-width:1;stroke-miterlimit:3.9998;}
	.st14{fill:#E9E4DC;stroke:#C49F8A;stroke-width:1;stroke-miterlimit:4;}
	.st15{opacity:0.62;}
	.st16{fill:none;}
</style>
<g id="_x31__x5F_2">
	<polygon id="Floor" class="st0" points="467.7,63.9 512.7,63.9 515.9,65.2 503.1,114 502.5,120.3 502.5,164.8 515.9,167.8 
		503,216.7 503,251.4 515.9,259.7 503,308.5 503,351.6 515.3,354.6 502.8,410.8 447,399.7 409.7,399 406.8,413.4 330.2,396.1 
		287.8,399.8 285.2,410.9 229.8,397.5 197.4,397.5 197.4,160.3 281.7,160.3 281.7,61.5 	"/>
	<g id="Wet_floor">
		<g class="st1">
			<polygon class="st2" points="349.4,168.2 349.4,64.5 285.8,64.5 285.8,167.3 264.7,167.3 264.7,241.8 364.4,241.8 364.4,168.2 
							"/>
		</g>
		<path class="st3" d="M351.3,170.1l1.9-1.9h-1.4l-1.2,1.2l-1.2-1.2h-0.1v-0.1l-8.6-8.6l8.6-8.6v-1.4l-9.3,9.3l-9.7-9.7l9.8-9.8
			l9.2,9.2v-1.4l-8.5-8.5l8.5-8.5v-1.4l-9.2,9.2l-9.8-9.8l9.7-9.7l9.3,9.3v-1.4l-8.6-8.6l8.6-8.6v-1.4L340,117l-10-10l9.8-9.8
			l9.5,9.5v-1.4l-8.8-8.8l8.8-8.8v-1.4l-9.5,9.5L330,86l9.8-9.8l9.5,9.5v-1.4l-8.8-8.8l8.8-8.8v-1.4l-9.5,9.5l-9.7-9.7l0,0l-0.7-0.7
			l0,0l0,0l-0.7,0.7l0,0l-9.8,9.8l-9.8-9.8l0,0l-0.7-0.7l0,0l0,0l-0.7,0.7l0,0l-9.8,9.8l-9.8-9.8l0,0l-0.7-0.7l0,0l0,0l-0.7,0.7l0,0
			l-1,1v1.4l1.7-1.7l9.8,9.8l-9.7,9.7l-1.8-1.8V85l1.1,1.1l-1.1,1.1v1.4l1.8-1.8l9.8,9.8l-9.8,9.8l-1.8-1.8v1.4l1.1,1.1l-1.1,1.1
			v1.4l1.8-1.8l9.7,9.7l-10,10l-1.5-1.5v1.4l0.8,0.8l-0.8,0.8v1.4l1.5-1.5l9.8,9.8l-9.8,9.8l-1.5-1.5v1.4l0.8,0.8l-0.8,0.8v1.4
			l1.5-1.5l10,10l-9.7,9.7l-2.3-2.3h-1.4l3,3l-9.8,9.8l-10-10l2.8-2.8h-1.4l-2.1,2.1l-1.7-1.7v1.4l1,1l-1,1v1.4l1.7-1.7l10,10
			l-9.8,9.8l-1.9-1.9v1.4l1.2,1.2l-1.2,1.2v1.4l1.9-1.9l9.8,9.8l-9.8,9.8l-1.9-1.9v1.4l1.2,1.2l-1.2,1.2v1.4l1.9-1.9l9.7,9.7
			l-9.7,9.7l-1.9-1.9v1.4l1.2,1.2l-1.2,1.2v1.4l1.9-1.9l7.9,7.9l0.7-0.7l-7.9-7.9l9.7-9.7l9.8,9.8L279,241l0.7,0.7l7.8-7.8l7.8,7.8
			l0.7-0.7l-7.8-7.8l9.8-9.8l9.8,9.8L300,241l0.7,0.7l7.8-7.8l7.8,7.8l0.7-0.7l-7.8-7.8l9.8-9.8l9.8,9.8L321,241l0.7,0.7l7.8-7.8
			l7.8,7.8l0.7-0.7l-7.8-7.8l9.8-9.8l9.7,9.7l-7.9,7.9l0.7,0.7l7.9-7.9l7.9,7.9l0.7-0.7l-7.9-7.9l9.7-9.7l3.5,3.5v-1.4l-2.8-2.8
			l2.8-2.8v-1.4l-3.5,3.5l-9.7-9.7l9.8-9.8l3.4,3.4v-1.4l-2.7-2.7l2.7-2.7v-1.4l-3.4,3.4l-9.8-9.8l10-10l3.2,3.2v-1.4l-2.5-2.5
			l2.5-2.5v-1.4l-3.2,3.2L351.3,170.1z M349.9,170.1l-10,10l-9.8-9.8l10-10L349.9,170.1z M288.3,191.3l9.8-9.8l9.7,9.7L298,201
			L288.3,191.3z M297.3,201.7l-9.8,9.8l-9.7-9.7l9.8-9.8L297.3,201.7z M318.9,180.1l-9.7-9.7l9.8-9.8l9.7,9.7L318.9,180.1z
			 M329.4,171l9.8,9.8l-9.8,9.8l-9.8-9.8L329.4,171z M309.2,149.4l10-10l9.8,9.8l-10,10L309.2,149.4z M309.2,128l9.8-9.8l10,10
			l-9.8,9.8L309.2,128z M309.2,107l9.7-9.7l9.8,9.8l-9.7,9.7L309.2,107z M308.5,106.3l-9.7-9.7l9.7-9.7l9.7,9.7L308.5,106.3z
			 M318.3,117.5l-9.8,9.8l-9.8-9.8l9.8-9.8L318.3,117.5z M318.5,138.7l-10,10l-10-10l10-10L318.5,138.7z M318.3,159.9l-9.8,9.8
			l-9.8-9.8l9.8-9.8L318.3,159.9z M318.2,180.8l-9.7,9.7l-9.7-9.7l9.7-9.7L318.2,180.8z M308.5,191.9l9.8,9.8l-9.8,9.8l-9.8-9.8
			L308.5,191.9z M309.2,191.2l9.7-9.7l9.8,9.8L319,201L309.2,191.2z M329.4,192l9.8,9.8l-9.7,9.7l-9.8-9.8L329.4,192z M330.1,191.3
			l9.8-9.8l9.8,9.8l-9.8,9.8L330.1,191.3z M339.4,159.6l-10,10l-9.7-9.7l10-10L339.4,159.6z M339.5,138.7l-9.8,9.8l-9.8-9.8l9.8-9.8
			L339.5,138.7z M339.4,117.8l-9.7,9.7l-10-10l9.7-9.7L339.4,117.8z M339.2,96.6l-9.8,9.8l-9.8-9.8l9.8-9.8L339.2,96.6z M329.5,65.9
			l9.7,9.7l-9.8,9.8l-9.7-9.7L329.5,65.9z M328.7,86.1l-9.8,9.8l-9.7-9.7l9.8-9.8L328.7,86.1z M308.5,65.9l9.8,9.8l-9.8,9.8
			l-9.8-9.8L308.5,65.9z M288.3,86.1l9.7-9.7l9.8,9.8l-9.7,9.7L288.3,86.1z M288.3,107.1l9.8-9.8l9.7,9.7l-9.8,9.8L288.3,107.1z
			 M288,128.2l10-10l9.8,9.8l-10,10L288,128.2z M288,149.2l9.8-9.8l10,10l-9.8,9.8L288,149.2z M298,160.6l9.8,9.8l-9.7,9.7l-9.8-9.8
			L298,160.6z M287.6,171l9.8,9.8l-9.8,9.8l-9.8-9.8L287.6,171z M267.3,191.3l9.8-9.8l9.8,9.8l-9.8,9.8L267.3,191.3z M267.3,212.3
			l9.8-9.8l9.7,9.7L277,222L267.3,212.3z M287.5,232.5l-9.8-9.8l9.8-9.8l9.8,9.8L287.5,232.5z M288.2,212.2l9.8-9.8l9.8,9.8L298,222
			L288.2,212.2z M308.5,232.5l-9.8-9.8l9.8-9.8l9.8,9.8L308.5,232.5z M309.2,212.2l9.8-9.8l9.8,9.8L319,222L309.2,212.2z
			 M329.5,232.5l-9.8-9.8l9.8-9.8l9.8,9.8L329.5,232.5z M330.2,212.2l9.7-9.7l9.8,9.8L340,222L330.2,212.2z M360.1,222.7l-9.7,9.7
			l-9.7-9.7l9.7-9.7L360.1,222.7z M360.2,201.8l-9.8,9.8l-9.8-9.8l9.8-9.8L360.2,201.8z M350.4,190.6l-9.8-9.8l10-10l9.8,9.8
			L350.4,190.6z"/>
	</g>
	<g id="Windows">
		<path class="st4" d="M236,399.5l46.3,10.7l-0.9,4.5L235.1,404L236,399.5z"/>
		<path class="st4" d="M329.8,396l75.1,17.2l-0.9,4.5l-75.1-17.2L329.8,396z"/>
		<polygon class="st4" points="519.4,357.4 514.9,356.5 502.8,410.8 431.3,396.6 430.7,401 506.3,416.1 506.6,414.1 		"/>
		
			<rect x="485.1" y="86.9" transform="matrix(0.2515 -0.9679 0.9679 0.2515 296.8282 562.1275)" class="st5" width="53.4" height="4.4"/>
		
			<rect x="485.1" y="281.8" transform="matrix(0.2515 -0.9679 0.9679 0.2515 108.249 707.9816)" class="st5" width="53.4" height="4.4"/>
		
			<rect x="485.1" y="189.8" transform="matrix(0.2515 -0.9679 0.9679 0.2515 197.2704 639.1286)" class="st5" width="53.4" height="4.4"/>
	</g>
	<path id="Doors" class="st4" d="M390.3,281.5c0,3.3-0.6,6.1-1.8,9.1c-1.2,3-3,5.6-5,7.7c-2.1,2.4-4.7,4.2-7.7,5.3
		c-3,1.2-5.9,1.8-9.2,1.8v-23.9 M363,225c-3.3,0-5.9-0.6-8.9-1.8c-3-1.2-5.6-3-7.7-5c-2.4-2.1-4.2-4.7-5.3-7.7
		c-1.2-3-1.8-5.9-1.8-9.2H363 M347,121.7c-3.3,0-5.9-0.6-8.9-1.8c-3-1.2-5.6-3-7.7-5c-2.4-2.1-4.2-4.7-5.3-7.7
		c-1.2-3-1.8-5.9-1.8-9.2H347 M394.8,166.5c0-3.3-0.6-5.9-1.8-8.9c-1.2-3-3-5.6-5-7.7c-2.1-2.4-4.7-4.2-7.7-5.3
		c-3-1.2-5.9-1.8-9.2-1.8v23.7 M264.8,202.5c-3.3,0-5.9,0.6-8.9,1.8c-3,1.2-5.6,3-7.7,5c-2.4,2.1-4.2,4.7-5.3,7.7s-1.8,5.9-1.8,9.2
		h23.7 M399.8,234.8c3.6,0,6.5,0.6,9.8,1.8c3.3,1.2,5.9,3.3,8,5.3c2.4,2.1,4.5,5,5.6,8c1.2,3,1.8,6.2,1.8,9.8h-25.2 M258.8,160.3
		c0-3.9-0.9-7.4-2.4-11c-1.5-3.6-3.6-7.1-6.5-9.8c-2.7-2.7-5.9-5-9.5-6.5c-3.6-1.5-7.4-2.4-11.3-2.4v29.7"/>
	<g id="Walls">
		<path class="st6" d="M212.2,391.5v-150h9.4v-13.4h-9.4v-59.2h17.5V160h-17.5h-0.6h-14.2v246.3h14.8H228l7.4,1.8l3.3-14.5l-8.6-2.1
			H212.2z M218.6,231.1v7.4h-6.4v-7.4H218.6z"/>
		<polygon class="st6" points="283.5,400.4 280.2,415 288.8,417 291.3,406.1 330.9,406.1 330.9,388.2 283.5,388.2 		"/>
		<polygon class="st6" points="405.1,406 402.5,417.9 411.1,420 414.2,406.1 449.7,406.1 449.7,388.2 405.1,388.2 		"/>
		<polygon class="st6" points="360.6,278.7 360.6,395.4 358.8,403.4 361.8,404 363.6,396 363.6,281.7 366.6,281.7 366.6,278.7 
			363.6,278.7 		"/>
		<polygon class="st6" points="509.6,283.5 510.2,280.5 503.1,278.7 399.8,278.7 399.8,259.4 396.8,259.4 396.8,278.7 390.3,278.7 
			390.3,281.7 502.5,281.7 		"/>
		<path class="st6" d="M349.6,121.4h-3V166H298v-13.7h-8.6V68.9h57.3v28.8h3V68.9h171.5V60H289.4h-6.8h-2.1v100h-21.7v8.9h5.9v10.4
			h0.1v22.9h3v-22.9h15.6v-10.4h6.1h12.5v74.2h-34.1v-17.2h-3v17.2v3h3h94.1h1.5h1.5v-21.4h-3v18.4h-57v-74.2h57V201h3v-32.1h6.4v-3
			h-21.5V121.4z M295,155.3v10.6h-5.6V160v-4.7H295z M280.3,176.3h-12.6v-7.4h12.6V176.3z"/>
		<polygon class="st6" points="508.9,306.4 491.1,306.4 491.1,356.4 507.3,356.4 520.5,359.3 522.6,350.7 508.9,347.7 		"/>
		<polygon class="st6" points="508.9,218.4 510.7,211.1 496.2,207.8 494.2,216.4 494.1,216.4 494.1,259.6 507.3,259.6 520.5,262.5 
			522.6,253.9 508.9,250.9 		"/>
		<polygon class="st6" points="510.2,168.9 513.2,168.9 520.5,170.7 520.5,170.7 520.5,170.7 522.6,162.1 514,160 509,160 
			509,112.5 508.9,112.5 508.9,112.5 491.2,112.5 491.2,160 396.8,160 396.8,166 394.7,166 394.7,168.9 396.8,168.9 396.8,168.9 
			396.8,234.5 399.8,234.5 399.8,168.9 491.2,168.9 491.2,168.9 		"/>
	</g>
	<g id="Furniture_2_">
		<g>
			<g>
				<rect x="434.2" y="69.4" class="st7" width="49.2" height="58.3"/>
				<path class="st3" d="M434.7,69.9h48.2v57.3h-48.2V69.9 M433.7,68.9v59.3h50.2V68.9H433.7L433.7,68.9z"/>
			</g>
			<rect x="460" y="73.1" class="st8" width="19.6" height="14.7"/>
			<rect x="437.9" y="73.1" class="st8" width="19.6" height="14.7"/>
			
				<rect x="460.9" y="79.7" transform="matrix(0.2588 -0.9659 0.9659 0.2588 262.9878 516.759)" class="st9" width="14.7" height="14.7"/>
			
				<rect x="441.9" y="79.7" transform="matrix(0.9659 -0.2588 0.2588 0.9659 -7.223 119.2325)" class="st9" width="14.7" height="14.7"/>
			<g>
				<polygon class="st7" points="434.2,128.3 434.2,81.8 453.7,80.6 483.3,84.9 483.3,128.3 				"/>
				<path class="st3" d="M453.7,81.1l29.1,4.2v42.5h-48.2V82.3L453.7,81.1 M453.7,80.1l-20.1,1.2v0.9v46.5h50.2v-44v-0.3L453.7,80.1
					L453.7,80.1z"/>
			</g>
			<polyline class="st10" points="434.3,82.8 453.9,82.8 483.3,85.3 			"/>
		</g>
		<g>
			<g>
				<rect x="428.5" y="282.2" class="st7" width="49.2" height="58.3"/>
				<path class="st3" d="M477.2,282.7V340H429v-57.3H477.2 M478.2,281.7H428V341h50.2V281.7L478.2,281.7z"/>
			</g>
			<rect x="454.4" y="285.9" class="st8" width="19.6" height="14.7"/>
			<rect x="432.3" y="285.9" class="st8" width="19.6" height="14.7"/>
			
				<rect x="455.2" y="292.5" transform="matrix(0.2588 -0.9659 0.9659 0.2588 53.2032 669.1061)" class="st9" width="14.7" height="14.7"/>
			
				<rect x="436.3" y="292.5" transform="matrix(0.9659 -0.2588 0.2588 0.9659 -62.4863 125.0336)" class="st9" width="14.7" height="14.7"/>
			<g>
				<polygon class="st7" points="428.5,341.1 428.5,294.6 448.1,293.4 477.7,297.7 477.7,341.1 				"/>
				<path class="st3" d="M448.1,293.9l29.1,4.2v42.5H429v-45.5L448.1,293.9 M448.1,292.9l-20.1,1.2v0.9v46.5h50.2v-44v-0.3
					L448.1,292.9L448.1,292.9z"/>
			</g>
			<polyline class="st10" points="428.7,295.6 448.3,295.6 477.7,298.1 			"/>
		</g>
		<g>
			<g>
				<rect x="400.3" y="169.4" class="st7" width="63.9" height="41.9"/>
				<path class="st3" d="M400.8,169.9h62.9v40.9h-62.9V169.9 M399.8,168.9v42.9h64.9v-42.9H399.8L399.8,168.9z"/>
			</g>
			<rect x="404.4" y="172.6" class="st8" width="16.1" height="16.8"/>
			<rect x="404.4" y="191.4" class="st8" width="16.1" height="16.8"/>
			<polygon class="st11" points="413.9,174.6 409.8,186.7 425.3,190 429.4,177.9 			"/>
			<polygon class="st11" points="425.3,190.9 409.8,194.1 414,206.2 429.5,203 			"/>
			<g>
				<polygon class="st7" points="413.9,211.3 412.5,194.7 417.2,169.4 464.8,169.4 464.8,211.3 				"/>
				<path class="st3" d="M417.6,169.9h46.7v40.9h-49.9h-0.1l-1.3-16.1L417.6,169.9 M417.2,168.9h-0.3l-4.8,25.7l1.4,17.2h1h50.9
					v-42.9H417.2L417.2,168.9z"/>
			</g>
			<polyline class="st10" points="415.1,211.3 415.1,194.5 417.7,169.4 			"/>
		</g>
		<g>
			<g>
				<rect x="371.6" y="322.5" class="st7" width="13.5" height="62.6"/>
				<path class="st3" d="M384.6,323v61.6H372V323H384.6 M385.6,322H371v63.6h14.6V322L385.6,322z"/>
			</g>
			<g>
				<rect x="364.1" y="322.5" class="st7" width="19" height="62.6"/>
				<path class="st3" d="M382.5,323v61.6h-18V323H382.5 M383.5,322h-20v63.6h20V322L383.5,322z"/>
			</g>
			<path class="st8" d="M364.2,385.1l18.7-62.9"/>
		</g>
		<g>
			<g>
				<rect x="356" y="125.1" class="st7" width="13.6" height="40.3"/>
				<path class="st3" d="M369,125.6v39.3h-12.6v-39.3L369,125.6 M370,124.6h-14.6v41.3H370V124.6L370,124.6z"/>
			</g>
			<g>
				<rect x="350.2" y="125.1" class="st7" width="17.3" height="40.3"/>
				<path class="st3" d="M366.9,125.6v39.3h-16.3v-39.3L366.9,125.6 M367.9,124.6h-18.3v41.3h18.3V124.6L367.9,124.6z"/>
			</g>
			<path class="st8" d="M350.3,165.6l17.1-40.9"/>
		</g>
		<g>
			<g>
				<rect x="215.4" y="169.4" class="st7" width="13.6" height="40.3"/>
				<path class="st3" d="M228.4,169.9v39.3h-12.6v-39.3H228.4 M229.4,168.9h-14.6v41.3h14.6V168.9L229.4,168.9z"/>
			</g>
			<g>
				<rect x="212.6" y="169.4" class="st7" width="14.2" height="40.3"/>
				<path class="st3" d="M226.3,169.9v39.3h-13.2v-39.3H226.3 M227.3,168.9h-15.2v41.3h15.2V168.9L227.3,168.9z"/>
			</g>
			<path class="st8" d="M212.6,210l14.2-40.9"/>
		</g>
		<g>
			<g>
				<rect x="350.1" y="75.2" class="st7" width="40.3" height="13.6"/>
				<path class="st3" d="M389.9,75.7v12.6h-39.3V75.7H389.9 M390.9,74.7h-41.3v14.6h41.3V74.7L390.9,74.7z"/>
			</g>
			<g>
				<rect x="350.1" y="69.4" class="st7" width="40.3" height="17.3"/>
				<path class="st3" d="M389.9,69.9v16.3h-39.3V69.9H389.9 M390.9,68.9h-41.3v18.3h41.3V68.9L390.9,68.9z"/>
			</g>
			<path class="st8" d="M349.9,69.5l40.9,17.1"/>
		</g>
		<g>
			<g>
				<rect x="400.4" y="261.9" class="st7" width="49.6" height="13.5"/>
				<path class="st3" d="M449.5,262.4V275h-48.6v-12.6H449.5 M450.5,261.4h-50.6V276h50.6V261.4L450.5,261.4z"/>
			</g>
			<g>
				<rect x="400.4" y="264" class="st7" width="49.6" height="14.3"/>
				<path class="st3" d="M449.5,264.5v13.3h-48.6v-13.3H449.5 M450.5,263.5h-50.6v15.3h50.6V263.5L450.5,263.5z"/>
			</g>
			<path class="st8" d="M450.2,278.3L400.1,264"/>
		</g>
		<g>
			<g>
				<rect x="289.9" y="69.4" class="st7" width="49.5" height="20"/>
				<path class="st3" d="M290.4,69.9h48.5v19h-48.5V69.9 M289.4,68.9v21h50.5v-21H289.4L289.4,68.9z"/>
			</g>
			<g>
				<g>
					<path class="st12" d="M294,79.4c0,3.9,3.3,6.9,7.1,6.5c4.2-0.4,9.5-0.7,13.5-0.7c3.9,0,9.2,0.4,13.5,0.7
						c3.8,0.3,7.1-2.7,7.1-6.5s-3.3-6.9-7.1-6.5c-4.2,0.4-9.5,0.7-13.5,0.7c-3.9,0-9.2-0.4-13.5-0.7C297.4,72.5,294,75.6,294,79.4z"
						/>
					<ellipse class="st12" cx="300.7" cy="79.4" rx="1" ry="1"/>
				</g>
			</g>
		</g>
		<g>
			<g>
				<rect x="341.7" y="229.6" class="st7" width="19.4" height="13"/>
				<path class="st3" d="M360.7,230.1v12h-18.4v-12H360.7 M361.7,229.1h-20.4v14h20.4V229.1L361.7,229.1z"/>
			</g>
			<g>
				<path class="st7" d="M351.4,240.2c-2.2,0-4.1-1.8-4.1-4.1s1.8-4.1,4.1-4.1s4.1,1.8,4.1,4.1S353.7,240.2,351.4,240.2z"/>
				<path class="st3" d="M351.4,232.6c2,0,3.6,1.6,3.6,3.6s-1.6,3.6-3.6,3.6s-3.6-1.6-3.6-3.6S349.5,232.6,351.4,232.6 M351.4,231.6
					c-2.5,0-4.6,2-4.6,4.6c0,2.5,2,4.6,4.6,4.6s4.6-2,4.6-4.6S354,231.6,351.4,231.6L351.4,231.6z"/>
			</g>
		</g>
		<g>
			<g>
				<path class="st7" d="M344.8,193.1c-3.9,0-7.2-3.2-7.2-7.2v-16.5h23.6V193L344.8,193.1L344.8,193.1z"/>
				<path class="st3" d="M360.8,169.9v22.6h-16c-3.7,0-6.7-3-6.7-6.7v-16L360.8,169.9 M361.8,168.9h-24.7v17c0,4.2,3.4,7.7,7.7,7.7
					h17V168.9L361.8,168.9z"/>
			</g>
			<g>
				<path class="st7" d="M344.8,191c-2.9,0-5.2-2.3-5.2-5.2v-14.4h19.6V191H344.8z"/>
				<path class="st3" d="M358.8,171.9v18.6h-13.9c-2.6,0-4.7-2.1-4.7-4.7v-13.9L358.8,171.9 M359.8,170.9h-20.7v14.9
					c0,3.2,2.6,5.7,5.7,5.7h14.9v-20.6L359.8,170.9L359.8,170.9z"/>
			</g>
			<ellipse class="st8" cx="355.4" cy="175.2" rx="1" ry="1"/>
		</g>
		<g>
			<path class="st8" d="M265.5,316.5h40.3v29.3h-40.3V316.5z"/>
			<path class="st8" d="M263,323.5h-0.6c-4.3,0-7.7,3.4-7.7,7.7c0,4.3,3.4,7.7,7.7,7.7h0.6V323.5z"/>
			<path class="st8" d="M265.5,325.1h-3.1c-3.4,0-6.1,2.7-6.1,6.1s2.7,6.1,6.1,6.1h3.1V325.1z"/>
			<path class="st8" d="M308.2,323.5h0.6c4.3,0,7.7,3.4,7.7,7.7c0,4.3-3.4,7.7-7.7,7.7h-0.6V323.5z"/>
			<path class="st8" d="M305.7,325.1h3.1c3.4,0,6.1,2.7,6.1,6.1s-2.7,6.1-6.1,6.1h-3.1V325.1z"/>
			<path class="st8" d="M293.3,348.3v0.6c0,4.3-3.4,7.7-7.7,7.7c-4.3,0-7.7-3.4-7.7-7.7v-0.6H293.3z"/>
			<path class="st8" d="M291.7,345.8v3.1c0,3.4-2.7,6.1-6.1,6.1s-6.1-2.7-6.1-6.1v-3.1H291.7z"/>
			<path class="st8" d="M293.3,314.1v-0.6c0-4.3-3.4-7.7-7.7-7.7c-4.3,0-7.7,3.4-7.7,7.7v0.6H293.3z"/>
			<path class="st8" d="M291.7,316.5v-3.1c0-3.4-2.7-6.1-6.1-6.1s-6.1,2.7-6.1,6.1v3.1H291.7z"/>
		</g>
		<g>
			<path class="st8" d="M479.4,372.3l13.9,2.7l-0.6,13l-17.7-3.4L479.4,372.3z"/>
			<g>
				
					<rect x="470.1" y="371.2" transform="matrix(0.1892 -0.9819 0.9819 0.1892 1.7925 792.1314)" class="st7" width="20.9" height="47.6"/>
				<path class="st3" d="M459.5,380.8l45.8,8.8l-3.8,19.5l-45.8-8.8L459.5,380.8 M458.7,379.6l-4.1,21.5l47.8,9.2l4.1-21.5
					L458.7,379.6L458.7,379.6z"/>
			</g>
			<path class="st10" d="M478.3,390l10.7,2.1 M477.9,387.3l12.6,2.5l-0.7,3.8l-12.6-2.5L477.9,387.3z"/>
			<path class="st8" d="M472.7,386.1L472.7,386.1c0.5,0.1,0.9,0.6,0.8,1.1l-0.2,1.3c-0.1,0.5-0.6,0.9-1.1,0.8l0,0
				c-0.5-0.1-0.9-0.6-0.8-1.1l0.2-1.3C471.7,386.4,472.2,386,472.7,386.1z"/>
			<path class="st8" d="M479.1,397.9c0.3-1.7,2-2.9,3.8-2.5c1.7,0.3,2.9,2,2.5,3.8l-0.6,3.2l-6.3-1.2L479.1,397.9z"/>
			
				<rect x="481.2" y="384.2" transform="matrix(0.1908 -0.9816 0.9816 0.1908 -3.7129 797.4852)" class="st13" width="1.3" height="33.5"/>
			<g>
				
					<rect x="479.6" y="372.3" transform="matrix(0.1892 -0.9819 0.9819 0.1892 21.2094 783.9096)" class="st7" width="11.4" height="13.6"/>
				<path class="st3" d="M480.1,372.7l12.4,2.4l-2,10.3l-12.4-2.4L480.1,372.7 M479.3,371.5l-2.4,12.2l14.3,2.8l2.4-12.2
					L479.3,371.5L479.3,371.5z"/>
			</g>
			<g>
				
					<rect x="485.8" y="365.5" transform="matrix(0.1894 -0.9819 0.9819 0.1894 28.669 779.8092)" class="st7" width="1.6" height="14"/>
				<path class="st3" d="M480.2,371.1l12.8,2.5l-0.1,0.6l-12.8-2.5L480.2,371.1 M479.4,369.9l-0.5,2.5l14.7,2.8l0.5-2.5L479.4,369.9
					L479.4,369.9z"/>
			</g>
		</g>
		<g id="Sink_2">
			<g id="Rectangle_16_x5F_11_1_">
				<rect x="290" y="89.4" class="st7" width="14.6" height="23.7"/>
				<path class="st3" d="M304,89.9v22.7h-13.6V89.9H304 M305,88.9h-15.6v24.7H305V88.9L305,88.9z"/>
			</g>
			<path id="Rectangle_19_x5F_5" class="st8" d="M297.2,109.4L297.2,109.4c2.6,0,4.8-2.1,4.8-4.8v-6.8c0-2.6-2.1-4.8-4.8-4.8l0,0
				c-2.6,0-4.8,2.1-4.8,4.8v6.8C292.5,107.3,294.6,109.4,297.2,109.4z"/>
			<circle id="Ellipse_7_x5F_2" class="st8" cx="295.1" cy="101.2" r="1"/>
		</g>
		<g id="Sink_2_1_">
			<g id="Rectangle_16_x5F_11_2_">
				<rect x="290" y="113" class="st7" width="14.6" height="23.7"/>
				<path class="st3" d="M304,113.5v22.7h-13.6v-22.7L304,113.5 M305,112.5h-15.6v24.7H305V112.5L305,112.5z"/>
			</g>
			<path id="Rectangle_19_x5F_5_1_" class="st8" d="M297.2,133L297.2,133c2.6,0,4.8-2.1,4.8-4.8v-6.8c0-2.6-2.1-4.8-4.8-4.8l0,0
				c-2.6,0-4.8,2.1-4.8,4.8v6.8C292.5,130.8,294.6,133,297.2,133z"/>
			<circle id="Ellipse_7_x5F_2_1_" class="st8" cx="295.1" cy="124.8" r="1"/>
		</g>
		<g id="Sink_2_4_">
			<g id="Rectangle_16_x5F_11_6_">
				<rect x="268.2" y="228" class="st7" width="33" height="14.6"/>
				<path class="st3" d="M300.7,228.5v13.6h-32v-13.6H300.7 M301.7,227.5h-34v15.6h34V227.5L301.7,227.5z"/>
			</g>
			<path id="Rectangle_19_x5F_5_4_" class="st8" d="M292.9,235.2L292.9,235.2c0-2.6-2.1-4.8-4.8-4.8h-6.8c-2.6,0-4.8,2.1-4.8,4.8
				l0,0c0,2.6,2.1,4.8,4.8,4.8h6.8C290.8,240,292.9,237.9,292.9,235.2z"/>
			<circle id="Ellipse_7_x5F_2_4_" class="st8" cx="284.7" cy="237" r="1"/>
		</g>
		<g id="Sink_2_5_">
			<g id="Rectangle_16_x5F_11_8_">
				<rect x="305.2" y="228.1" class="st7" width="36.6" height="14.6"/>
				<path class="st3" d="M341.2,228.6v13.6h-35.6v-13.6H341.2 M342.2,227.6h-37.6v15.6h37.6V227.6L342.2,227.6z"/>
			</g>
			<path id="Rectangle_19_x5F_5_5_" class="st8" d="M331.6,235.3L331.6,235.3c0-2.6-2.1-4.8-4.8-4.8H320c-2.6,0-4.8,2.1-4.8,4.8l0,0
				c0,2.6,2.1,4.8,4.8,4.8h6.8C329.5,240.1,331.6,238,331.6,235.3z"/>
			<circle id="Ellipse_7_x5F_2_5_" class="st8" cx="323.4" cy="237.1" r="1"/>
		</g>
		<g id="Toilet_3_">
			<g id="Rectangle_21_3_">
				<rect x="320.7" y="155.1" class="st7" width="13.1" height="4.2"/>
				<path class="st3" d="M333.2,155.6v3.2h-12.1v-3.2H333.2 M334.2,154.6h-14.1v5.2h14.1V154.6L334.2,154.6z"/>
			</g>
			<path id="Rectangle_19_x5F_2_3_" class="st8" d="M332.2,145.7c0.2-2.9-2.1-5.4-5-5.4l0,0c-2.9,0-5.2,2.5-5,5.4l0.6,9.3h8.8
				L332.2,145.7z"/>
			<path id="Rectangle_18_x5F_13_3_" class="st8" d="M330.6,145.9c0.2-2-1.4-3.8-3.4-3.8l0,0c-2,0-3.6,1.7-3.4,3.8l0.5,5.5h5.9
				L330.6,145.9z"/>
			<ellipse id="Ellipse_6_x5F_2_3_" class="st8" cx="327.2" cy="148.8" rx="1" ry="1"/>
		</g>
		<g id="TV">
			<g id="Rectangle_16">
				<rect x="405.7" y="378.1" class="st7" width="43.5" height="6.8"/>
				<path class="st3" d="M448.7,378.6v5.8h-42.5v-5.8H448.7 M449.7,377.6h-44.5v7.8h44.5V377.6L449.7,377.6z"/>
			</g>
			<g id="Rectangle_15">
				<rect x="405.7" y="379.9" class="st7" width="43.5" height="7.8"/>
				<path class="st3" d="M448.7,380.4v6.8h-42.5v-6.8H448.7 M449.7,379.4h-44.5v8.8h44.5V379.4L449.7,379.4z"/>
			</g>
			<rect id="Rectangle_17" x="412.7" y="384.9" class="st8" width="29.6" height="1.6"/>
			<path id="Rectangle_18_x5F_2" class="st8" d="M421.2,386.5h12.5l-1.1,1.3h-10.2L421.2,386.5z"/>
		</g>
		<g id="TV_1_">
			<g id="Rectangle_16_1_">
				<rect x="435.2" y="149.9" class="st7" width="43.5" height="6.8"/>
				<path class="st3" d="M478.2,150.4v5.8h-42.5v-5.8H478.2 M479.2,149.4h-44.5v7.8h44.5V149.4L479.2,149.4z"/>
			</g>
			<g id="Rectangle_15_1_">
				<rect x="435.2" y="151.7" class="st7" width="43.5" height="7.8"/>
				<path class="st3" d="M478.2,152.2v6.8h-42.5v-6.8H478.2 M479.2,151.2h-44.5v8.8h44.5V151.2L479.2,151.2z"/>
			</g>
			<rect id="Rectangle_17_1_" x="442.2" y="156.3" class="st8" width="29.6" height="1.6"/>
			<path id="Rectangle_18_x5F_2_1_" class="st8" d="M450.7,157.9h12.5l-1.1,1.7h-10.2L450.7,157.9z"/>
		</g>
		<g id="Rectangle_24_1_">
			<rect x="212.7" y="242" class="st7" width="18.2" height="58.5"/>
			<path class="st3" d="M230.4,242.5V300h-17.2v-57.5H230.4 M231.4,241.5h-19.2V301h19.2V241.5L231.4,241.5z"/>
		</g>
		<g id="Rectangle_26">
			<rect x="212.7" y="318.8" class="st7" width="18.2" height="26"/>
			<path class="st3" d="M230.4,319.3v25h-17.2v-25H230.4 M231.4,318.3h-19.2v27h19.2V318.3L231.4,318.3z"/>
		</g>
		<g id="Oven">
			<g id="Rectangle_28">
				<rect x="213.9" y="326" class="st7" width="18.8" height="16.2"/>
				<path class="st3" d="M232.2,326.5v15.2h-17.8v-15.2H232.2 M233.2,325.5h-19.8v17.2h19.8V325.5L233.2,325.5z"/>
			</g>
			<g id="Rectangle_29">
				<rect x="212.7" y="322.7" class="st7" width="18.2" height="22.8"/>
				<path class="st3" d="M230.4,323.2V345h-17.2v-21.8H230.4 M231.4,322.2h-19.2V346h19.2V322.2L231.4,322.2z"/>
			</g>
		</g>
		<g id="Rectangle_27">
			<rect x="212.7" y="345.8" class="st7" width="18.2" height="18.2"/>
			<path class="st3" d="M230.4,346.3v17.2h-17.2v-17.2H230.4 M231.4,345.3h-19.2v19.2h19.2V345.3L231.4,345.3z"/>
		</g>
		<g id="Sink_3_1_">
			<rect id="Rectangle_28_x5F_2_1_" x="214.6" y="255.1" class="st8" width="14.4" height="22.8"/>
			<path id="Rectangle_29_x5F_2_1_" class="st8" d="M221.8,264L221.8,264c3,0,5.4,2.4,5.4,5.4v1.2c0,3-2.4,5.4-5.4,5.4l0,0
				c-3,0-5.4-2.4-5.4-5.4v-1.2C216.4,266.4,218.8,264,221.8,264z"/>
			<ellipse id="Ellipse_7_x5F_3_1_" class="st8" cx="219.4" cy="270" rx="1" ry="1"/>
			<path id="Vector_2_1_" class="st10" d="M216.4,256.3v6 M218.2,256.3v6 M220,256.3v6 M221.8,256.3v6 M223.6,256.3v6 M225.4,256.3
				v6 M227.2,256.3v6"/>
		</g>
		<g id="Stove_1_">
			<g id="Rectangle_25_1_">
				<rect x="212.7" y="300.9" class="st7" width="18.2" height="17.7"/>
				<path class="st3" d="M230.4,301.4v16.7h-17.2v-16.7H230.4 M231.4,300.4h-19.2v18.7h19.2V300.4L231.4,300.4z"/>
			</g>
			<g id="Rectangle_28_x5F_3_1_">
				<rect x="212.7" y="300.9" class="st7" width="1.8" height="17.7"/>
				<path class="st3" d="M214,301.4v16.7h-0.8v-16.7H214 M215,300.4h-2.8V319h2.8V300.4L215,300.4z"/>
			</g>
			<g id="Ellipse_7_x5F_4_1_">
				<path class="st7" d="M218.8,307.1c-1,0-1.9-0.9-1.9-1.9s0.9-1.9,1.9-1.9s1.9,0.9,1.9,1.9S219.8,307.1,218.8,307.1z"/>
				<path class="st3" d="M218.8,303.8c0.8,0,1.4,0.6,1.4,1.4s-0.6,1.4-1.4,1.4c-0.8,0-1.4-0.6-1.4-1.4
					C217.4,304.4,218,303.8,218.8,303.8 M218.8,302.8c-1.3,0-2.4,1.1-2.4,2.4s1.1,2.4,2.4,2.4s2.4-1.1,2.4-2.4
					S220.1,302.8,218.8,302.8L218.8,302.8z"/>
			</g>
			<g id="Ellipse_9_1_">
				<path class="st7" d="M226,307.7c-1.4,0-2.5-1.1-2.5-2.5s1.1-2.5,2.5-2.5s2.5,1.1,2.5,2.5S227.4,307.7,226,307.7z"/>
				<path class="st3" d="M226,303.2c1.1,0,2,0.9,2,2s-0.9,2-2,2s-2-0.9-2-2S224.9,303.2,226,303.2 M226,302.2c-1.7,0-3,1.3-3,3
					s1.3,3,3,3s3-1.3,3-3S227.6,302.2,226,302.2L226,302.2z"/>
			</g>
			<g id="Ellipse_10_1_">
				<path class="st7" d="M218.8,316c-1.4,0-2.5-1.1-2.5-2.5s1.1-2.5,2.5-2.5s2.5,1.1,2.5,2.5S220.2,316,218.8,316z"/>
				<path class="st3" d="M218.8,311.6c1.1,0,2,0.9,2,2s-0.9,2-2,2s-2-0.9-2-2C216.8,312.4,217.7,311.6,218.8,311.6 M218.8,310.6
					c-1.7,0-3,1.3-3,3s1.3,3,3,3s3-1.3,3-3S220.5,310.6,218.8,310.6L218.8,310.6z"/>
			</g>
			<g id="Ellipse_8_1_">
				<path class="st7" d="M226.6,315.4c-1,0-1.9-0.9-1.9-1.9s0.9-1.9,1.9-1.9s1.9,0.9,1.9,1.9C228.5,314.6,227.6,315.4,226.6,315.4z"
					/>
				<path class="st3" d="M226.6,312.2c0.8,0,1.4,0.6,1.4,1.4s-0.6,1.4-1.4,1.4c-0.8,0-1.4-0.6-1.4-1.4
					C225.2,312.8,225.8,312.2,226.6,312.2 M226.6,311.2c-1.3,0-2.4,1.1-2.4,2.4s1.1,2.4,2.4,2.4c1.3,0,2.4-1.1,2.4-2.4
					C229,312.2,227.9,311.2,226.6,311.2L226.6,311.2z"/>
			</g>
		</g>
		<path id="Vector_3_1_" class="st10" d="M221.8,352.5v4.8 M223.9,353.7l-4.2,2.4 M219.7,353.7l4.2,2.4"/>
		<g>
			<path class="st8" d="M321.4,360.8c-0.8,0-1.5,0.7-1.5,1.5v15h34.3v-16.5H321.4z"/>
			<path class="st8" d="M339.2,334.2c-0.8,0-1.5,0.7-1.5,1.6v23.5c0,0.9,0.7,1.6,1.5,1.6h15.1v-26.6h-15.1V334.2z"/>
			<path class="st8" d="M339.2,308.6c-0.8,0-1.5,0.7-1.5,1.5v22.6c0,0.8,0.7,1.5,1.5,1.5h15.1v-25.6H339.2z"/>
			<path class="st8" d="M336.4,308.6V303h23.7v80.4H314v-23.8h5.9v17.7h34.3v-68.7L336.4,308.6L336.4,308.6z"/>
		</g>
		<g>
			<path class="st8" d="M464.9,249.2h12.7l1.7,11.5h-16.1L464.9,249.2z"/>
			<g>
				<rect x="452.7" y="259.7" class="st7" width="38.2" height="18.6"/>
				<path class="st3" d="M490.5,260.2v17.6h-37.2v-17.6H490.5 M491.5,259.2h-39.2v19.6h39.2V259.2L491.5,259.2z"/>
			</g>
			<path class="st10" d="M467,265h9.8 M466.1,262.7h11.5v3.5h-11.5V262.7z"/>
			<path class="st8" d="M461.3,262.5L461.3,262.5c0.5,0,0.9,0.4,0.9,0.9v1.2c0,0.5-0.4,0.9-0.9,0.9l0,0c-0.5,0-0.9-0.4-0.9-0.9v-1.2
				C460.5,262.9,460.9,262.5,461.3,262.5z"/>
			<path class="st8" d="M469,271.7c0-1.6,1.3-2.9,2.9-2.9s2.9,1.3,2.9,2.9v2.9H469V271.7z"/>
			
				<rect x="471.2" y="259" transform="matrix(1.695900e-03 -1 1 1.695900e-03 197.0629 745.2845)" class="st14" width="1.2" height="29.9"/>
			<g>
				<rect x="465.1" y="249.1" class="st7" width="12.1" height="10.1"/>
				<path class="st3" d="M476.7,249.6v9.1h-11.1v-9.1H476.7 M477.7,248.6h-13.1v11.1h13.1V248.6L477.7,248.6z"/>
			</g>
			<g>
				<rect x="464.9" y="247.2" class="st7" width="12.6" height="1.8"/>
				<path class="st3" d="M477,247.7v0.8h-11.6v-0.8H477 M478,246.7h-13.6v2.8H478V246.7L478,246.7z"/>
			</g>
		</g>
		<g>
			<rect x="298.6" y="159.3" class="st7" width="47.7" height="6.2"/>
			<path class="st3" d="M345.7,159.8v5.2H299v-5.2H345.7 M346.7,158.8H298v7.2h48.7V158.8L346.7,158.8z"/>
		</g>
		<g>
			<rect x="305.3" y="169.4" class="st7" width="32.3" height="6.2"/>
			<path class="st3" d="M337.1,169.9v5.2h-31.3v-5.2H337.1 M338.1,168.9h-33.3v7.2h33.3V168.9L338.1,168.9z"/>
		</g>
		<g id="Toilet_5_">
			<g id="Rectangle_21_7_">
				<rect x="278.8" y="179.7" class="st7" width="13.1" height="4.2"/>
				<path class="st3" d="M291.4,180.2v3.2h-12.1v-3.2H291.4 M292.4,179.2h-14.1v5.2h14.1V179.2L292.4,179.2z"/>
			</g>
			<path id="Rectangle_19_x5F_2_5_" class="st8" d="M290.3,193.3c0.2,2.9-2.1,5.4-5,5.4l0,0c-2.9,0-5.2-2.5-5-5.4l0.6-9.3h8.8
				L290.3,193.3z"/>
			<path id="Rectangle_18_x5F_13_5_" class="st8" d="M288.8,193.2c0.2,2-1.4,3.8-3.5,3.8l0,0c-2,0-3.7-1.8-3.5-3.8l0.5-5.5h5.9
				L288.8,193.2z"/>
			<ellipse id="Ellipse_6_x5F_2_5_" class="st8" cx="285.3" cy="190.2" rx="1" ry="1"/>
		</g>
		<g id="Toilet_4_">
			<g id="Rectangle_21_4_">
				<rect x="314.7" y="175.6" class="st7" width="13.1" height="4.2"/>
				<path class="st3" d="M327.3,176.1v3.2h-12.1v-3.2H327.3 M328.3,175.1h-14.1v5.2h14.1V175.1L328.3,175.1z"/>
			</g>
			<path id="Rectangle_19_x5F_2_4_" class="st8" d="M326.2,189.2c0.2,2.9-2.1,5.4-5,5.4l0,0c-2.9,0-5.2-2.5-5-5.4l0.6-9.3h8.8
				L326.2,189.2z"/>
			<path id="Rectangle_18_x5F_13_4_" class="st8" d="M324.7,189.1c0.2,2-1.4,3.8-3.5,3.8l0,0c-2,0-3.7-1.8-3.5-3.8l0.5-5.5h5.9
				L324.7,189.1z"/>
			<ellipse id="Ellipse_6_x5F_2_4_" class="st8" cx="321.2" cy="186.1" rx="1" ry="1"/>
		</g>
		<g>
			<rect x="283.8" y="169.4" class="st7" width="17.6" height="10.3"/>
			<path class="st3" d="M300.9,169.9v9.3h-16.6v-9.3H300.9 M301.9,168.9h-18.6v11.3h18.6V168.9L301.9,168.9z"/>
		</g>
	</g>
	<g id="street_anchors" class="st15">
		<rect id="street_anchor_02" x="552.6" y="235" class="st16" width="10" height="10"/>
		<rect id="street_anchor_01_1_" x="355" y="450" class="st16" width="10" height="10"/>
	</g>
</g>
<g id="комнаты">
	<g>
		<g>
			<path class="st6" d="M244.9,191.6H244v1.3h-1.1v-1.3h-3.2v-0.9l3.3-3.9h1v3.7h0.8V191.6z M241.3,190.5h1.6v-2h-0.1
				C242.4,189.2,241.8,189.9,241.3,190.5L241.3,190.5z"/>
			<path class="st6" d="M246.4,191.3c0.4,0,0.8,0.4,0.8,0.9c0,0.5-0.3,0.9-0.8,0.9c-0.4,0-0.7-0.4-0.7-0.9
				C245.7,191.7,246,191.3,246.4,191.3z"/>
			<path class="st6" d="M249.9,189.2h0.7c0.3,0,0.6-0.2,0.6-0.6c0-0.5-0.4-0.7-0.8-0.7c-0.6,0-1.1,0.4-1.6,1l-0.6-0.9
				c0.5-0.6,1.3-1.3,2.2-1.3c0.8,0,1.9,0.5,1.9,1.8c0,0.5-0.3,0.9-0.5,1.1c0.4,0.2,0.9,0.6,0.9,1.5c0,1.4-1.1,2.2-2.4,2.2
				c-0.9,0-1.7-0.4-2.4-1.3l0.6-1c0.5,0.6,1,1,1.8,1c0.7,0,1.3-0.4,1.3-1c0-0.5-0.5-0.6-0.7-0.6h-0.9V189.2z"/>
		</g>
	</g>
	<g>
		<g>
			<path class="st6" d="M240.3,367.6c0-1.5,0.9-2.2,2-2.6c0.3-0.1,0.8-0.3,0.8-0.9c0-0.5-0.4-0.6-0.8-0.6c-0.7,0-1.1,0.4-1.6,0.9
				l-0.6-1c0.6-0.6,1.2-1.2,2.1-1.2c0.9,0,1.9,0.5,1.9,1.8c0,1.4-1,1.8-1.8,2.1c-0.7,0.3-1.1,0.6-1.1,1.1v0.1h2.8v1.2h-3.9V367.6z"
				/>
			<path class="st6" d="M247,364.9h0.7c0.3,0,0.6-0.2,0.6-0.6c0-0.5-0.4-0.7-0.8-0.7c-0.6,0-1.1,0.4-1.6,1l-0.6-0.9
				c0.5-0.6,1.3-1.3,2.2-1.3c0.8,0,1.9,0.5,1.9,1.8c0,0.5-0.3,0.9-0.5,1.1c0.4,0.2,0.9,0.6,0.9,1.5c0,1.4-1.1,2.2-2.4,2.2
				c-0.9,0-1.7-0.4-2.4-1.3l0.6-1c0.5,0.6,1,1,1.8,1c0.7,0,1.3-0.4,1.3-1c0-0.5-0.5-0.6-0.7-0.6H247V364.9z"/>
			<path class="st6" d="M251.4,367c0.4,0,0.8,0.4,0.8,0.9c0,0.5-0.3,0.9-0.8,0.9c-0.4,0-0.7-0.4-0.7-0.9
				C250.7,367.4,251,367,251.4,367z"/>
			<path class="st6" d="M257,363.9c-0.4-0.2-0.8-0.4-1.3-0.4c-0.8,0-1.6,0.7-1.6,2c0.4-0.5,1-0.9,1.7-0.9c1.2,0,1.9,1,1.9,1.9
				c0,1.3-0.9,2.2-2.1,2.2c-1.3,0-2.5-1.1-2.5-3.1c0-2.1,1.3-3.4,2.6-3.4c0.8,0,1.4,0.4,1.8,0.5L257,363.9z M254.2,366.4
				c0.2,0.8,0.8,1.3,1.4,1.3c0.6,0,1-0.5,1-1c0-0.4-0.2-0.8-0.9-0.8C255.1,365.7,254.6,366,254.2,366.4z"/>
		</g>
	</g>
	<g>
		<g>
			<path class="st6" d="M431.5,225.2l1.4-0.8h1v6.1h-1.1v-4.7l-1,0.6L431.5,225.2z"/>
			<path class="st6" d="M434.8,225.2l1.4-0.8h1v6.1h-1.1v-4.7l-1,0.6L434.8,225.2z"/>
			<path class="st6" d="M439.2,228.9c0.4,0,0.8,0.4,0.8,0.9c0,0.5-0.3,0.9-0.8,0.9c-0.4,0-0.7-0.4-0.7-0.9
				C438.5,229.3,438.8,228.9,439.2,228.9z"/>
			<path class="st6" d="M444.8,225.8c-0.4-0.2-0.8-0.4-1.3-0.4c-0.8,0-1.6,0.7-1.6,2c0.4-0.4,1-0.9,1.7-0.9c1.2,0,1.9,1,1.9,1.9
				c0,1.3-0.9,2.2-2.1,2.2c-1.3,0-2.5-1.1-2.5-3.1c0-2.1,1.3-3.4,2.6-3.4c0.8,0,1.4,0.4,1.8,0.5L444.8,225.8z M442,228.2
				c0.2,0.8,0.8,1.3,1.4,1.3c0.6,0,1-0.5,1-1c0-0.4-0.2-0.8-0.9-0.8C443,227.6,442.4,227.9,442,228.2z"/>
		</g>
	</g>
	<g>
		<g>
			<path class="st6" d="M397.4,329.3l1.4-0.8h1v6.1h-1.1v-4.7l-1,0.6L397.4,329.3z"/>
			<path class="st6" d="M401,328.5h4.2v1.2l-2.4,4.9h-1.4l2.5-4.8H401V328.5z"/>
			<path class="st6" d="M406.8,333c0.4,0,0.8,0.4,0.8,0.9c0,0.5-0.3,0.9-0.8,0.9c-0.4,0-0.7-0.4-0.7-0.9
				C406,333.4,406.4,333,406.8,333z"/>
			<path class="st6" d="M408.2,329.3l1.4-0.8h1v6.1h-1.1v-4.7l-1,0.6L408.2,329.3z"/>
		</g>
	</g>
	<g>
		<g>
			<path class="st6" d="M371.9,258.3h0.7c0.3,0,0.6-0.2,0.6-0.6c0-0.5-0.4-0.7-0.8-0.7c-0.6,0-1.1,0.4-1.6,1l-0.6-0.9
				c0.5-0.6,1.3-1.3,2.2-1.3c0.8,0,1.9,0.5,1.9,1.8c0,0.5-0.3,0.9-0.5,1.1c0.4,0.2,0.9,0.6,0.9,1.5c0,1.4-1.1,2.2-2.4,2.2
				c-0.9,0-1.7-0.4-2.4-1.3l0.6-1c0.5,0.6,1,1,1.8,1c0.7,0,1.3-0.4,1.3-1c0-0.5-0.5-0.6-0.7-0.6h-0.9V258.3z"/>
			<path class="st6" d="M376.3,260.4c0.4,0,0.8,0.4,0.8,0.9c0,0.5-0.3,0.9-0.8,0.9c-0.4,0-0.7-0.4-0.7-0.9
				C375.5,260.8,375.8,260.4,376.3,260.4z"/>
			<path class="st6" d="M377.9,260.3c0-0.8,0.4-1.4,1-1.6c-0.4-0.2-0.7-0.6-0.7-1.2c0-1.1,1.2-1.7,2.1-1.7c0.9,0,2.1,0.5,2.1,1.7
				c0,0.6-0.2,1-0.7,1.2c0.5,0.2,1,0.8,1,1.6c0,1.3-1.1,2-2.3,2C379.1,262.3,377.9,261.5,377.9,260.3z M381.4,260.2
				c0-0.6-0.6-0.9-1.2-0.9s-1.2,0.3-1.2,0.9c0,0.6,0.6,0.9,1.2,0.9C380.8,261.1,381.4,260.7,381.4,260.2z M381.2,257.6
				c0-0.5-0.5-0.7-0.9-0.7c-0.4,0-0.9,0.2-0.9,0.7c0,0.4,0.3,0.6,0.9,0.6C380.8,258.2,381.2,258,381.2,257.6z"/>
		</g>
	</g>
	<g>
		<g>
			<path class="st6" d="M281.1,210c0-1.5,0.9-2.2,2-2.6c0.3-0.1,0.8-0.3,0.8-0.9c0-0.5-0.4-0.6-0.8-0.6c-0.7,0-1.1,0.4-1.6,0.9
				l-0.6-1c0.6-0.6,1.2-1.2,2.1-1.2c0.9,0,1.9,0.5,1.9,1.8c0,1.4-1,1.8-1.8,2.1c-0.7,0.3-1.1,0.6-1.1,1.1v0.1h2.8v1.2h-3.9V210z"/>
			<path class="st6" d="M286.8,209.3c0.4,0,0.8,0.4,0.8,0.9c0,0.5-0.3,0.9-0.8,0.9c-0.4,0-0.7-0.4-0.7-0.9
				C286,209.7,286.4,209.3,286.8,209.3z"/>
			<path class="st6" d="M288.2,205.7l1.4-0.8h1v6.1h-1.1v-4.7l-1,0.6L288.2,205.7z"/>
		</g>
	</g>
	<g>
		<g>
			<path class="st6" d="M325.3,201.6h0.7c0.3,0,0.6-0.2,0.6-0.6c0-0.5-0.4-0.7-0.8-0.7c-0.6,0-1.1,0.4-1.6,1l-0.6-0.9
				c0.5-0.6,1.3-1.3,2.2-1.3c0.8,0,1.9,0.5,1.9,1.8c0,0.5-0.3,0.9-0.5,1.1c0.4,0.2,0.9,0.6,0.9,1.5c0,1.4-1.1,2.2-2.4,2.2
				c-0.9,0-1.7-0.4-2.4-1.3l0.6-1c0.5,0.6,1,1,1.8,1c0.7,0,1.3-0.4,1.3-1c0-0.5-0.5-0.6-0.7-0.6h-0.9V201.6z"/>
			<path class="st6" d="M329.7,203.7c0.4,0,0.8,0.4,0.8,0.9c0,0.5-0.3,0.9-0.8,0.9c-0.4,0-0.7-0.4-0.7-0.9
				C328.9,204.1,329.2,203.7,329.7,203.7z"/>
			<path class="st6" d="M331.3,203.5c0-0.8,0.4-1.4,1-1.6c-0.4-0.2-0.7-0.6-0.7-1.2c0-1.1,1.2-1.7,2.1-1.7c0.9,0,2.1,0.5,2.1,1.7
				c0,0.6-0.2,1-0.7,1.2c0.5,0.2,1,0.7,1,1.6c0,1.3-1.1,2-2.3,2C332.5,205.5,331.3,204.8,331.3,203.5z M334.8,203.4
				c0-0.6-0.6-0.9-1.2-0.9c-0.5,0-1.2,0.3-1.2,0.9c0,0.6,0.6,0.9,1.2,0.9C334.2,204.3,334.8,204,334.8,203.4z M334.6,200.8
				c0-0.5-0.5-0.7-0.9-0.7c-0.4,0-0.9,0.2-0.9,0.7c0,0.4,0.3,0.6,0.9,0.6C334.2,201.5,334.6,201.3,334.6,200.8z"/>
		</g>
	</g>
	<g>
		<g>
			<path class="st6" d="M390.5,112.2l1.4-0.8h1v6.1h-1.1v-4.7l-1,0.6L390.5,112.2z"/>
			<path class="st6" d="M399,116.2h-0.8v1.3h-1.1v-1.3h-3.2v-0.9l3.3-3.9h1v3.7h0.8V116.2z M395.4,115.1h1.6v-2H397
				C396.5,113.8,395.9,114.5,395.4,115.1L395.4,115.1z"/>
			<path class="st6" d="M400.6,115.9c0.4,0,0.8,0.4,0.8,0.9c0,0.5-0.3,0.9-0.8,0.9c-0.4,0-0.7-0.4-0.7-0.9
				C399.8,116.3,400.1,115.9,400.6,115.9z"/>
			<path class="st6" d="M402.2,115.7c0-0.8,0.4-1.4,1-1.6c-0.4-0.2-0.7-0.6-0.7-1.2c0-1.1,1.2-1.7,2.1-1.7c0.9,0,2.1,0.5,2.1,1.7
				c0,0.6-0.2,1-0.7,1.2c0.5,0.2,1,0.7,1,1.6c0,1.3-1.1,2-2.3,2C403.4,117.7,402.2,117,402.2,115.7z M405.7,115.6
				c0-0.6-0.6-0.9-1.2-0.9s-1.2,0.3-1.2,0.9c0,0.6,0.6,0.9,1.2,0.9C405.1,116.5,405.7,116.2,405.7,115.6z M405.5,113
				c0-0.5-0.5-0.7-0.9-0.7c-0.4,0-0.9,0.2-0.9,0.7c0,0.4,0.3,0.6,0.9,0.6C405.1,113.7,405.5,113.5,405.5,113z"/>
		</g>
	</g>
	<g>
		<g>
			<path class="st6" d="M316.9,131l0.5-1c0.3,0.3,1,0.7,1.9,0.7c0.6,0,1.2-0.3,1.2-1c0-0.6-0.5-0.9-0.9-0.9c-0.6,0-1.1,0.3-1.5,0.6
				l-0.6-0.6v-3.2h3.7v1.2h-2.7v1.4c0.4-0.3,0.7-0.6,1.3-0.6c0.9,0,1.9,0.6,1.9,2c0,1.6-1.2,2.3-2.3,2.3
				C318,132,317.3,131.4,316.9,131z"/>
			<path class="st6" d="M323.1,130.1c0.4,0,0.8,0.4,0.8,0.9c0,0.5-0.3,0.9-0.8,0.9c-0.4,0-0.7-0.4-0.7-0.9
				C322.4,130.5,322.7,130.1,323.1,130.1z"/>
			<path class="st6" d="M328.7,127c-0.4-0.2-0.8-0.4-1.3-0.4c-0.8,0-1.6,0.7-1.6,2c0.4-0.4,1-0.9,1.7-0.9c1.2,0,1.9,1,1.9,1.9
				c0,1.3-0.9,2.2-2.1,2.2c-1.3,0-2.5-1.1-2.5-3.1c0-2.1,1.3-3.4,2.6-3.4c0.8,0,1.4,0.4,1.8,0.5L328.7,127z M325.9,129.5
				c0.2,0.8,0.8,1.3,1.4,1.3c0.6,0,1-0.5,1-1c0-0.4-0.2-0.8-0.9-0.8C326.9,128.9,326.3,129.2,325.9,129.5z"/>
		</g>
	</g>
</g>
</svg>
