<?xml version="1.0" encoding="utf-8"?>
<!-- Generator: Adobe Illustrator 26.0.3, SVG Export Plug-In . SVG Version: 6.00 Build 0)  -->
<svg version="1.1" xmlns="http://www.w3.org/2000/svg" xmlns:xlink="http://www.w3.org/1999/xlink" x="0px" y="0px"
	 viewBox="0 0 720 480" style="enable-background:new 0 0 720 480;" xml:space="preserve">
<style type="text/css">
	.st0{fill:#DBD4CA;}
	.st1{clip-path:url(#SVGID_00000041975934133597976500000003171169427420312999_);}
	.st2{fill:none;stroke:#C49F8A;stroke-miterlimit:10;}
	.st3{opacity:0.3;clip-path:url(#SVGID_00000080174916209843745830000015158918677907432349_);}
	.st4{opacity:0.7;fill:#C49F8A;enable-background:new    ;}
	.st5{clip-path:url(#SVGID_00000181071358376137337590000017589719057776859309_);}
	.st6{opacity:0.3;clip-path:url(#SVGID_00000173881825313839519280000011654760026577224842_);}
	.st7{fill:none;stroke:#565440;}
	.st8{fill:#565440;}
	.st9{fill:#E9E4DC;}
	.st10{fill:#C49F8A;}
	.st11{fill:#E9E4DC;stroke:#C49F8A;}
	.st12{fill:#E9E4DC;stroke:#C49F8A;stroke-miterlimit:3.9998;}
	.st13{fill:none;stroke:#C49F8A;}
	.st14{fill:#E9E4DC;stroke:#C49F8A;stroke-linejoin:round;}
	.st15{fill:none;}
</style>
<g id="_x31__x5F_2">
	<polygon id="Floor" class="st0" points="455.6,349.8 447,343.2 444.2,315.4 445.2,308.6 455.6,265.8 447.8,263.1 445,233 
		445.7,229.3 454.6,191 445.7,189.4 445.2,150.2 445.2,105.2 451.5,78.3 397.5,65.8 395.4,74.9 314.9,75.5 273.7,66.1 271.3,73.7 
		259.2,73.7 259.2,292.9 259.2,373.8 259.2,416.2 445.5,416.2 446,389.8 450,374.4 	"/>
	<g id="Wet_Floor">
		<g id="Wet_Floor_1_">
			<g>
				<defs>
					<rect id="SVGID_1_" x="262.2" y="346.1" width="56.2" height="69.5"/>
				</defs>
				<clipPath id="SVGID_00000099649132948292934190000016496114498180131237_">
					<use xlink:href="#SVGID_1_"  style="overflow:visible;"/>
				</clipPath>
				<g style="clip-path:url(#SVGID_00000099649132948292934190000016496114498180131237_);">
					<g>
						<line class="st2" x1="42" y1="346.1" x2="375.5" y2="12.6"/>
						<line class="st2" x1="31.6" y1="335.7" x2="365.1" y2="2.2"/>
						<line class="st2" x1="52.4" y1="356.5" x2="385.9" y2="23.1"/>
						<line class="st2" x1="62.9" y1="367" x2="396.3" y2="33.5"/>
						<line class="st2" x1="73.3" y1="377.4" x2="406.8" y2="43.9"/>
						<line class="st2" x1="83.7" y1="387.8" x2="417.2" y2="54.3"/>
						<line class="st2" x1="94.1" y1="398.2" x2="427.6" y2="64.7"/>
						<line class="st2" x1="104.5" y1="408.6" x2="438" y2="75.2"/>
						<line class="st2" x1="115" y1="419.1" x2="448.4" y2="85.6"/>
						<line class="st2" x1="125.4" y1="429.5" x2="458.9" y2="96"/>
						<line class="st2" x1="115" y1="419.1" x2="448.4" y2="85.6"/>
						<line class="st2" x1="135.8" y1="439.9" x2="469.3" y2="106.4"/>
						<line class="st2" x1="146.2" y1="450.3" x2="479.7" y2="116.9"/>
						<line class="st2" x1="156.6" y1="460.8" x2="490.1" y2="127.3"/>
						<line class="st2" x1="167.1" y1="471.2" x2="500.6" y2="137.7"/>
						<line class="st2" x1="177.5" y1="481.6" x2="511" y2="148.1"/>
						<line class="st2" x1="187.9" y1="492" x2="521.4" y2="158.5"/>
						<line class="st2" x1="198.3" y1="502.4" x2="531.8" y2="169"/>
						<line class="st2" x1="208.8" y1="512.9" x2="542.2" y2="179.4"/>
						<line class="st2" x1="198.3" y1="502.4" x2="531.8" y2="169"/>
						<line class="st2" x1="219.2" y1="523.3" x2="552.7" y2="189.8"/>
						<line class="st2" x1="229.6" y1="533.7" x2="563.1" y2="200.2"/>
						<line class="st2" x1="240" y1="544.1" x2="573.5" y2="210.6"/>
						<line class="st2" x1="250.4" y1="554.5" x2="583.9" y2="221.1"/>
						<line class="st2" x1="260.9" y1="565" x2="594.3" y2="231.5"/>
						<line class="st2" x1="271.3" y1="575.4" x2="604.8" y2="241.9"/>
						<line class="st2" x1="281.7" y1="585.8" x2="615.2" y2="252.3"/>
						<line class="st2" x1="292.1" y1="596.2" x2="625.6" y2="262.7"/>
						<line class="st2" x1="281.7" y1="585.8" x2="615.2" y2="252.3"/>
						<line class="st2" x1="302.5" y1="606.7" x2="636" y2="273.2"/>
						<line class="st2" x1="313" y1="617.1" x2="646.5" y2="283.6"/>
						<line class="st2" x1="323.4" y1="627.5" x2="656.9" y2="294"/>
						<line class="st2" x1="333.8" y1="637.9" x2="667.3" y2="304.4"/>
						<line class="st2" x1="344.2" y1="648.3" x2="677.7" y2="314.9"/>
						<line class="st2" x1="354.7" y1="658.8" x2="688.1" y2="325.3"/>
						<line class="st2" x1="365.1" y1="669.2" x2="698.6" y2="335.7"/>
					</g>
					<g>
						<line class="st2" x1="375.5" y1="658.8" x2="42" y2="325.3"/>
						<line class="st2" x1="365.1" y1="669.2" x2="31.6" y2="335.7"/>
						<line class="st2" x1="385.9" y1="648.3" x2="52.4" y2="314.9"/>
						<line class="st2" x1="396.3" y1="637.9" x2="62.9" y2="304.4"/>
						<line class="st2" x1="406.8" y1="627.5" x2="73.3" y2="294"/>
						<line class="st2" x1="417.2" y1="617.1" x2="83.7" y2="283.6"/>
						<line class="st2" x1="427.6" y1="606.7" x2="94.1" y2="273.2"/>
						<line class="st2" x1="438" y1="596.2" x2="104.5" y2="262.7"/>
						<line class="st2" x1="448.4" y1="585.8" x2="115" y2="252.3"/>
						<line class="st2" x1="458.9" y1="575.4" x2="125.4" y2="241.9"/>
						<line class="st2" x1="448.4" y1="585.8" x2="115" y2="252.3"/>
						<line class="st2" x1="469.3" y1="565" x2="135.8" y2="231.5"/>
						<line class="st2" x1="479.7" y1="554.5" x2="146.2" y2="221.1"/>
						<line class="st2" x1="490.1" y1="544.1" x2="156.6" y2="210.6"/>
						<line class="st2" x1="500.6" y1="533.7" x2="167.1" y2="200.2"/>
						<line class="st2" x1="511" y1="523.3" x2="177.5" y2="189.8"/>
						<line class="st2" x1="521.4" y1="512.9" x2="187.9" y2="179.4"/>
						<line class="st2" x1="531.8" y1="502.4" x2="198.3" y2="169"/>
						<line class="st2" x1="542.2" y1="492" x2="208.8" y2="158.5"/>
						<line class="st2" x1="531.8" y1="502.4" x2="198.3" y2="169"/>
						<line class="st2" x1="552.7" y1="481.6" x2="219.2" y2="148.1"/>
						<line class="st2" x1="563.1" y1="471.2" x2="229.6" y2="137.7"/>
						<line class="st2" x1="573.5" y1="460.8" x2="240" y2="127.3"/>
						<line class="st2" x1="583.9" y1="450.3" x2="250.4" y2="116.9"/>
						<line class="st2" x1="594.3" y1="439.9" x2="260.9" y2="106.4"/>
						<line class="st2" x1="604.8" y1="429.5" x2="271.3" y2="96"/>
						<line class="st2" x1="615.2" y1="419.1" x2="281.7" y2="85.6"/>
						<line class="st2" x1="625.6" y1="408.6" x2="292.1" y2="75.2"/>
						<line class="st2" x1="615.2" y1="419.1" x2="281.7" y2="85.6"/>
						<line class="st2" x1="636" y1="398.2" x2="302.5" y2="64.7"/>
						<line class="st2" x1="646.4" y1="387.8" x2="313" y2="54.3"/>
						<line class="st2" x1="656.9" y1="377.4" x2="323.4" y2="43.9"/>
						<line class="st2" x1="667.3" y1="367" x2="333.8" y2="33.5"/>
						<line class="st2" x1="677.7" y1="356.5" x2="344.2" y2="23.1"/>
						<line class="st2" x1="688.1" y1="346.1" x2="354.7" y2="12.6"/>
						<line class="st2" x1="698.6" y1="335.7" x2="365.1" y2="2.2"/>
					</g>
				</g>
			</g>
			<g>
				<defs>
					<rect id="SVGID_00000003806218334039207670000003965066183072476560_" x="262.2" y="346.1" width="56.2" height="69.5"/>
				</defs>
				<clipPath id="SVGID_00000103980201201730136510000001261408549041439919_">
					<use xlink:href="#SVGID_00000003806218334039207670000003965066183072476560_"  style="overflow:visible;"/>
				</clipPath>
				<g style="opacity:0.3;clip-path:url(#SVGID_00000103980201201730136510000001261408549041439919_);">
					<rect x="204" y="164.2" class="st4" width="322.2" height="322.2"/>
				</g>
			</g>
		</g>
		<g id="Wet_Floor_2_">
			<g>
				<defs>
					<rect id="SVGID_00000178200691606398214230000005662766791957581955_" x="262.2" y="164.6" width="56.3" height="117.3"/>
				</defs>
				<clipPath id="SVGID_00000049199721869313142670000011593745808707274641_">
					<use xlink:href="#SVGID_00000178200691606398214230000005662766791957581955_"  style="overflow:visible;"/>
				</clipPath>
				<g style="clip-path:url(#SVGID_00000049199721869313142670000011593745808707274641_);">
					<g>
						<line class="st2" x1="42" y1="212.3" x2="375.5" y2="-121.1"/>
						<line class="st2" x1="31.6" y1="201.9" x2="365.1" y2="-131.6"/>
						<line class="st2" x1="52.4" y1="222.8" x2="385.9" y2="-110.7"/>
						<line class="st2" x1="62.9" y1="233.2" x2="396.3" y2="-100.3"/>
						<line class="st2" x1="73.3" y1="243.6" x2="406.8" y2="-89.9"/>
						<line class="st2" x1="83.7" y1="254" x2="417.2" y2="-79.5"/>
						<line class="st2" x1="94.1" y1="264.5" x2="427.6" y2="-69"/>
						<line class="st2" x1="104.5" y1="274.9" x2="438" y2="-58.6"/>
						<line class="st2" x1="115" y1="285.3" x2="448.4" y2="-48.2"/>
						<line class="st2" x1="125.4" y1="295.7" x2="458.9" y2="-37.8"/>
						<line class="st2" x1="115" y1="285.3" x2="448.4" y2="-48.2"/>
						<line class="st2" x1="135.8" y1="306.1" x2="469.3" y2="-27.3"/>
						<line class="st2" x1="146.2" y1="316.6" x2="479.7" y2="-16.9"/>
						<line class="st2" x1="156.6" y1="327" x2="490.1" y2="-6.5"/>
						<line class="st2" x1="167.1" y1="337.4" x2="500.6" y2="3.9"/>
						<line class="st2" x1="177.5" y1="347.8" x2="511" y2="14.3"/>
						<line class="st2" x1="187.9" y1="358.2" x2="521.4" y2="24.8"/>
						<line class="st2" x1="198.3" y1="368.7" x2="531.8" y2="35.2"/>
						<line class="st2" x1="208.8" y1="379.1" x2="542.2" y2="45.6"/>
						<line class="st2" x1="198.3" y1="368.7" x2="531.8" y2="35.2"/>
						<line class="st2" x1="219.2" y1="389.5" x2="552.7" y2="56"/>
						<line class="st2" x1="229.6" y1="399.9" x2="563.1" y2="66.4"/>
						<line class="st2" x1="240" y1="410.3" x2="573.5" y2="76.9"/>
						<line class="st2" x1="250.4" y1="420.8" x2="583.9" y2="87.3"/>
						<line class="st2" x1="260.9" y1="431.2" x2="594.3" y2="97.7"/>
						<line class="st2" x1="271.3" y1="441.6" x2="604.8" y2="108.1"/>
						<line class="st2" x1="281.7" y1="452" x2="615.2" y2="118.6"/>
						<line class="st2" x1="292.1" y1="462.5" x2="625.6" y2="129"/>
						<line class="st2" x1="281.7" y1="452" x2="615.2" y2="118.6"/>
						<line class="st2" x1="302.5" y1="472.9" x2="636" y2="139.4"/>
						<line class="st2" x1="313" y1="483.3" x2="646.5" y2="149.8"/>
						<line class="st2" x1="323.4" y1="493.7" x2="656.9" y2="160.2"/>
						<line class="st2" x1="333.8" y1="504.1" x2="667.3" y2="170.7"/>
						<line class="st2" x1="344.2" y1="514.6" x2="677.7" y2="181.1"/>
						<line class="st2" x1="354.7" y1="525" x2="688.1" y2="191.5"/>
						<line class="st2" x1="365.1" y1="535.4" x2="698.6" y2="201.9"/>
					</g>
					<g>
						<line class="st2" x1="375.5" y1="525" x2="42" y2="191.5"/>
						<line class="st2" x1="365.1" y1="535.4" x2="31.6" y2="201.9"/>
						<line class="st2" x1="385.9" y1="514.6" x2="52.4" y2="181.1"/>
						<line class="st2" x1="396.3" y1="504.1" x2="62.9" y2="170.7"/>
						<line class="st2" x1="406.8" y1="493.7" x2="73.3" y2="160.2"/>
						<line class="st2" x1="417.2" y1="483.3" x2="83.7" y2="149.8"/>
						<line class="st2" x1="427.6" y1="472.9" x2="94.1" y2="139.4"/>
						<line class="st2" x1="438" y1="462.5" x2="104.5" y2="129"/>
						<line class="st2" x1="448.4" y1="452" x2="115" y2="118.6"/>
						<line class="st2" x1="458.9" y1="441.6" x2="125.4" y2="108.1"/>
						<line class="st2" x1="448.4" y1="452" x2="115" y2="118.6"/>
						<line class="st2" x1="469.3" y1="431.2" x2="135.8" y2="97.7"/>
						<line class="st2" x1="479.7" y1="420.8" x2="146.2" y2="87.3"/>
						<line class="st2" x1="490.1" y1="410.3" x2="156.6" y2="76.9"/>
						<line class="st2" x1="500.6" y1="399.9" x2="167.1" y2="66.4"/>
						<line class="st2" x1="511" y1="389.5" x2="177.5" y2="56"/>
						<line class="st2" x1="521.4" y1="379.1" x2="187.9" y2="45.6"/>
						<line class="st2" x1="531.8" y1="368.7" x2="198.3" y2="35.2"/>
						<line class="st2" x1="542.2" y1="358.2" x2="208.8" y2="24.8"/>
						<line class="st2" x1="531.8" y1="368.7" x2="198.3" y2="35.2"/>
						<line class="st2" x1="552.7" y1="347.8" x2="219.2" y2="14.3"/>
						<line class="st2" x1="563.1" y1="337.4" x2="229.6" y2="3.9"/>
						<line class="st2" x1="573.5" y1="327" x2="240" y2="-6.5"/>
						<line class="st2" x1="583.9" y1="316.6" x2="250.4" y2="-16.9"/>
						<line class="st2" x1="594.3" y1="306.1" x2="260.9" y2="-27.3"/>
						<line class="st2" x1="604.8" y1="295.7" x2="271.3" y2="-37.8"/>
						<line class="st2" x1="615.2" y1="285.3" x2="281.7" y2="-48.2"/>
						<line class="st2" x1="625.6" y1="274.9" x2="292.1" y2="-58.6"/>
						<line class="st2" x1="615.2" y1="285.3" x2="281.7" y2="-48.2"/>
						<line class="st2" x1="636" y1="264.5" x2="302.5" y2="-69"/>
						<line class="st2" x1="646.4" y1="254" x2="313" y2="-79.5"/>
						<line class="st2" x1="656.9" y1="243.6" x2="323.4" y2="-89.9"/>
						<line class="st2" x1="667.3" y1="233.2" x2="333.8" y2="-100.3"/>
						<line class="st2" x1="677.7" y1="222.8" x2="344.2" y2="-110.7"/>
						<line class="st2" x1="688.1" y1="212.3" x2="354.7" y2="-121.1"/>
						<line class="st2" x1="698.6" y1="201.9" x2="365.1" y2="-131.6"/>
					</g>
				</g>
			</g>
			<g>
				<defs>
					<rect id="SVGID_00000038397821932711906750000009996143917410843549_" x="262.2" y="164.6" width="56.3" height="117.3"/>
				</defs>
				<clipPath id="SVGID_00000028322546943531921090000008246382261028730291_">
					<use xlink:href="#SVGID_00000038397821932711906750000009996143917410843549_"  style="overflow:visible;"/>
				</clipPath>
				<g style="opacity:0.3;clip-path:url(#SVGID_00000028322546943531921090000008246382261028730291_);">
					<rect x="204" y="30.4" class="st4" width="322.2" height="322.2"/>
				</g>
			</g>
		</g>
	</g>
	<g id="Windows">
		<polygon class="st7" points="455.9,75.6 396.6,61.7 395.9,65.4 451.7,78.3 445.3,106.2 445.3,152.7 449,152.7 449,106.2 		"/>
		<polygon class="st7" points="454.9,267.3 458.6,268 448.8,311.3 445,310.5 		"/>
		<polygon class="st7" points="454.9,190.7 458.6,191.5 448.8,234.7 445,234 		"/>
		<polygon class="st7" points="272.6,62.2 319,72.9 318.3,76.6 271.8,65.9 		"/>
		<polygon class="st7" points="448.6,394.6 445,393.7 455.7,352.6 459.2,353.5 		"/>
	</g>
	<path id="Doors" class="st7" d="M291.4,279.7c0-2.7,0.5-4.9,1.5-7.4c1-2.5,2.5-4.7,4.2-6.4c1.7-2,4-3.5,6.4-4.4
		c2.5-1,4.9-1.5,7.7-1.5v19.8 M316.1,188.2c-2.7,0-4.9-0.5-7.4-1.5c-2.5-1-4.7-2.5-6.4-4.2c-2-1.7-3.5-4-4.4-6.4
		c-1-2.5-1.5-4.9-1.5-7.7h19.8 M321,163.5c0-2.7,0.5-4.9,1.5-7.4c1-2.5,2.5-4.7,4.2-6.4c1.7-2,4-3.5,6.4-4.4c2.5-1,4.9-1.5,7.7-1.5
		v19.8 M365.3,168.5c2.7,0,4.9,0.5,7.4,1.5s4.7,2.5,6.4,4.2c2,1.7,3.5,4,4.4,6.4c1,2.5,1.5,4.9,1.5,7.7h-19.8 M266.6,299.4
		c3.2,0,6.2,0.7,9.1,2c3,1.2,5.9,3,8.2,5.4c2.2,2.2,4.2,4.9,5.4,7.9s2,6.2,2,9.4h-24.7 M317.3,371.3c2.5,0,4.7,0.5,6.9,1.5
		c2.2,1,4.4,2.2,6.2,4.2c1.7,1.7,3.2,3.7,4.2,5.9s1.5,4.7,1.5,7.2h-18.8 M411.2,333.5c0,2.7,0.5,4.9,1.5,7.4c1,2.5,2.5,4.7,4.2,6.4
		c1.7,2,4,3.5,6.4,4.4c2.5,1,4.9,1.5,7.7,1.5v-19.8"/>
	<g id="Walls">
		<path class="st8" d="M266.6,281.9h24.7v-2.5h-24.7v-36.2h9.4v-8h40.1v44.2h-4.9v2.5h4.9h2.5v-2.5v-91.2h-2.5v44.5H276v0v0h-9.4
			V166h49.4v2.5h2.5V166h2.5v-2.5h-54.4v-84h7.4l4-16.8l-7.2-1.7l-2.6,11.1h-1.6h-7.4v227.3h7.4V281.9z M273.5,240.7h-6.9v-5.5h6.9
			V240.7z"/>
		<polygon class="st8" points="363,163.5 340.8,163.5 340.8,166 363,166 363,168.5 365.5,168.5 365.5,84.5 397.6,84.5 397.6,84.4 
			397.8,84.5 402.8,62.7 390.7,60 387.9,72.1 365.5,72.1 311.1,72.1 311.1,79.5 363,79.5 		"/>
		<polygon class="st8" points="451.4,231.8 439.4,229.1 437.1,238.5 437.1,270.7 449.4,270.7 449.4,270.7 458.3,272.7 460,265.5 
			449.4,263.2 449.4,240.4 		"/>
		<polygon class="st8" points="365.4,188.2 362.9,188.2 362.9,191.9 345.6,191.9 345.6,194.4 449.4,194.3 458.3,196.3 460,189.2 
			449.4,186.8 449.4,150.2 434.6,150.2 434.6,191.9 365.4,191.9 		"/>
		<polygon class="st8" points="449.4,345 449.4,342.7 449.4,342.7 449.4,342.1 449.4,334 449.4,334 449.4,310.6 434.6,310.6 
			434.6,326.6 434.6,326.6 434.6,326.6 430.9,326.6 430.9,334 434.6,334 434.6,334 434.6,334 434.6,352.3 448,352.3 459,354.8 
			459,354.7 459,354.7 460.8,347.6 		"/>
		<path class="st8" d="M439.3,390.8l-2.2,9.4v12.4h-18.5h-100v-23.2h-2.5v23.2h-49.4v-65h49.4v24.2h2.5V334h92.7v-7.4H318v-7.1
			h-11.7v10.8v2.1v12.7h-39.7v-21h-7.4V420h190.2l0-8.6h0l0-9.3l2-8.6L439.3,390.8z M315.5,322v4.6h-6.7V322H315.5z M308.8,334h7.3
			v1.1H316v10h-7.2V334z"/>
	</g>
	<g id="Furniture_2_">
		<g>
			<g>
				<rect x="366" y="84.9" class="st9" width="31" height="53.1"/>
				<path class="st10" d="M396.5,85.4v52.1h-30V85.4H396.5 M397.5,84.4h-32v54.1h32V84.4L397.5,84.4z"/>
			</g>
			<rect x="382.3" y="88.2" class="st11" width="12.5" height="13.4"/>
			<rect x="368.2" y="88.2" class="st11" width="12.5" height="13.4"/>
			<polygon class="st12" points="393.2,96.1 384.2,92.7 381.8,105.6 390.8,109 			"/>
			<polygon class="st12" points="381.1,105.6 378.7,92.7 369.7,96.1 372.1,109.1 			"/>
			<g>
				<polygon class="st9" points="366,138.4 366,96.1 378.3,95 397,98.9 397,138.4 				"/>
				<path class="st10" d="M378.2,95.6l18.2,3.8V138h-30V96.6L378.2,95.6 M378.3,94.5l-12.8,1.1v0.9v42.4h32V98.8v-0.3L378.3,94.5
					L378.3,94.5z"/>
			</g>
			<polyline class="st13" points="365.9,97.1 378.4,97.1 397.1,99.3 			"/>
		</g>
		<g>
			<g>
				<rect x="267.1" y="84.5" class="st9" width="48.1" height="40.2"/>
				<path class="st10" d="M314.7,85v39.2h-47.1V85H314.7 M315.7,84h-49.1v41.2h49.1V84L315.7,84z"/>
			</g>
			<rect x="270.1" y="87.5" class="st11" width="12.1" height="16.1"/>
			<rect x="270.1" y="105.6" class="st11" width="12.1" height="16.1"/>
			<polygon class="st12" points="277.3,89.5 274.2,101.1 285.9,104.2 289.1,92.6 			"/>
			<polygon class="st12" points="285.9,105.1 274.2,108.2 277.3,119.8 289.1,116.7 			"/>
			<g>
				<polygon class="st9" points="277.4,124.7 276.4,108.8 279.9,84.6 315.7,84.6 315.7,124.7 				"/>
				<path class="st10" d="M315.2,85.1v39.2h-37.4l-1-15.4l3.5-23.7L315.2,85.1 M316.2,84.1h-36.4h-0.3l-3.6,24.7l1,16.5h0.8h38.5
					V84.1L316.2,84.1z"/>
			</g>
			<polyline class="st13" points="278.2,124.7 278.2,108.6 280.2,84.5 			"/>
		</g>
		<g>
			<g>
				<rect x="363.9" y="364" class="st9" width="40.2" height="48.1"/>
				<path class="st10" d="M364.4,364.5h39.2v47.1h-39.2V364.5 M363.4,363.5v49.1h41.2v-49.1H363.4L363.4,363.5z"/>
			</g>
			<rect x="366.9" y="396.9" class="st11" width="16.1" height="12.1"/>
			<rect x="385" y="396.9" class="st11" width="16.1" height="12.1"/>
			<polygon class="st12" points="368.9,401.9 380.5,405 383.6,393.3 372,390.1 			"/>
			<polygon class="st12" points="384.4,393.3 387.5,405 399.1,401.9 396,390.1 			"/>
			<g>
				<polygon class="st9" points="363.9,399.3 363.9,363.5 404,363.5 404,401.8 388.1,402.8 				"/>
				<path class="st10" d="M364.4,364h39.2v37.4l-15.4,1l-23.7-3.5V364 M363.4,363v36.5v0.3l24.7,3.6l16.5-1v-0.8V363H363.4
					L363.4,363z"/>
			</g>
			<polyline class="st13" points="404,401 387.9,401 363.8,399 			"/>
		</g>
		<g>
			<g>
				<rect x="346.6" y="131.5" class="st9" width="1.8" height="31.5"/>
				<path class="st10" d="M347.9,132v30.5h-0.8V132H347.9 M348.9,131h-2.8v32.5h2.8V131L348.9,131z"/>
			</g>
			<g>
				<rect x="348.4" y="131.5" class="st9" width="14.1" height="31.5"/>
				<path class="st10" d="M362,132v30.5h-13.1V132H362 M363,131h-15.1v32.5H363V131L363,131z"/>
			</g>
			<path class="st11" d="M362.4,163l-13.9-31.6"/>
		</g>
		<g>
			<g>
				<rect x="397.9" y="175.7" class="st9" width="36.2" height="10"/>
				<path class="st10" d="M398.4,176.2h35.2v9h-35.2V176.2 M397.4,175.2v11h37.2v-11H397.4L397.4,175.2z"/>
			</g>
			<g>
				<rect x="398" y="177.3" class="st9" width="36.2" height="14.1"/>
				<path class="st10" d="M433.6,177.8v13.1h-35.2v-13.1H433.6 M434.6,176.8h-37.2v15.1h37.2V176.8L434.6,176.8z"/>
			</g>
			<path class="st11" d="M398,191.3l36.2-13.9"/>
		</g>
		<g>
			<g>
				<rect x="267.1" y="329.9" class="st9" width="38.7" height="1.9"/>
				<path class="st10" d="M305.3,330.4v0.9h-37.7v-0.9H305.3 M306.3,329.4h-39.7v2.9h39.7V329.4L306.3,329.4z"/>
			</g>
			<g>
				<rect x="267.1" y="331.8" class="st9" width="38.7" height="12.8"/>
				<path class="st10" d="M305.3,332.3v11.8h-37.7v-11.8H305.3 M306.3,331.3h-39.7v13.8h39.7V331.3L306.3,331.3z"/>
			</g>
			<path class="st11" d="M267.2,344.5l38.7-12.7"/>
		</g>
		<g>
			<g>
				<rect x="331.8" y="334.5" class="st9" width="1.8" height="33.7"/>
				<path class="st10" d="M333.1,335v32.7h-0.8V335H333.1 M334.1,334h-2.8v34.7h2.8V334L334.1,334z"/>
			</g>
			<g>
				<rect x="319.1" y="334.5" class="st9" width="12.8" height="33.7"/>
				<path class="st10" d="M331.3,335v32.7h-11.8V335H331.3 M332.3,334h-13.8v34.7h13.8V334L332.3,334z"/>
			</g>
			<path class="st11" d="M319.1,368.1l12.7-33.8"/>
		</g>
		<g>
			<g>
				<rect x="331.8" y="391.4" class="st9" width="1.8" height="20.7"/>
				<path class="st10" d="M333.1,391.9v19.7h-0.8v-19.7H333.1 M334.1,390.9h-2.8v21.7h2.8V390.9L334.1,390.9z"/>
			</g>
			<g>
				<rect x="319.1" y="391.4" class="st9" width="12.8" height="20.7"/>
				<path class="st10" d="M331.3,391.9v19.7h-11.8v-19.7H331.3 M332.3,390.9h-13.8v21.7h13.8V390.9L332.3,390.9z"/>
			</g>
			<path class="st11" d="M319.1,412.3l12.7-21.2"/>
		</g>
		<g>
			<g>
				<rect x="274.7" y="282.3" class="st9" width="1.9" height="12.5"/>
				<path class="st10" d="M276.1,282.8v11.5h-0.9v-11.5H276.1 M277.1,281.8h-2.9v13.5h2.9V281.8L277.1,281.8z"/>
			</g>
			<g>
				<rect x="267.1" y="282.3" class="st9" width="7.6" height="12.5"/>
				<path class="st10" d="M274.2,282.8v11.5h-6.6v-11.5H274.2 M275.2,281.8h-8.6v13.5h8.6V281.8L275.2,281.8z"/>
			</g>
			<path class="st11" d="M267.2,294.7l7.5-12.5"/>
		</g>
		<g>
			<g>
				<rect x="267.1" y="214.6" class="st9" width="43.7" height="17.6"/>
				<path class="st10" d="M310.3,215.1v16.6h-42.7v-16.6H310.3 M311.3,214.1h-44.7v18.6h44.7V214.1L311.3,214.1z"/>
			</g>
			<g>
				<g>
					<path class="st14" d="M270.7,223.4c0-3.4,3-6.1,6.3-5.8c3.7,0.3,8.4,0.6,11.9,0.6s8.1-0.3,11.9-0.6c3.4-0.3,6.3,2.4,6.3,5.8
						s-3,6.1-6.3,5.8c-3.7-0.3-8.4-0.6-11.9-0.6s-8.1,0.3-11.9,0.6C273.7,229.5,270.7,226.8,270.7,223.4z"/>
					<ellipse class="st14" cx="276.7" cy="223.4" rx="0.9" ry="0.9"/>
				</g>
			</g>
		</g>
		<g>
			<g>
				<rect x="298.9" y="235.7" class="st9" width="16.6" height="10.3"/>
				<path class="st10" d="M315,236.2v9.3h-15.6v-9.3H315 M316,235.2h-17.6v11.3H316V235.2L316,235.2z"/>
			</g>
			<g>
				<path class="st9" d="M307.2,244.1c-1.8,0-3.2-1.4-3.2-3.2s1.4-3.2,3.2-3.2s3.2,1.4,3.2,3.2C310.4,242.7,308.9,244.1,307.2,244.1
					z"/>
				<path class="st10" d="M307.2,238.2c1.5,0,2.7,1.2,2.7,2.7s-1.2,2.7-2.7,2.7s-2.7-1.2-2.7-2.7S305.7,238.2,307.2,238.2
					 M307.2,237.2c-2,0-3.7,1.7-3.7,3.7s1.7,3.7,3.7,3.7s3.7-1.7,3.7-3.7C310.9,238.9,309.2,237.2,307.2,237.2L307.2,237.2z"/>
			</g>
		</g>
		<g>
			<path class="st11" d="M373.5,240.4H410v26.5h-36.5V240.4z"/>
			<path class="st11" d="M371.3,247h-0.6c-3.7,0-6.6,3-6.6,6.6c0,3.7,3,6.6,6.6,6.6h0.6V247z"/>
			<path class="st11" d="M373.5,248.6H371c-2.8,0-5.1,2.3-5.1,5.1c0,2.8,2.3,5.1,5.1,5.1h2.6v-10.2L373.5,248.6L373.5,248.6z"/>
			<path class="st11" d="M412.2,247h0.6c3.7,0,6.6,3,6.6,6.6c0,3.7-3,6.6-6.6,6.6h-0.6V247z"/>
			<path class="st11" d="M410,248.6h2.6c2.8,0,5.1,2.3,5.1,5.1c0,2.8-2.3,5.1-5.1,5.1H410V248.6z"/>
			<path class="st11" d="M398.4,269.2v0.6c0,3.7-3,6.6-6.6,6.6c-3.7,0-6.6-3-6.6-6.6v-0.6H398.4z"/>
			<path class="st11" d="M396.9,266.9v2.6c0,2.8-2.3,5.1-5.1,5.1s-5.1-2.3-5.1-5.1v-2.6H396.9z"/>
			<path class="st11" d="M398.4,238.2v-0.6c0-3.7-3-6.6-6.6-6.6c-3.7,0-6.6,3-6.6,6.6v0.6H398.4z"/>
			<path class="st11" d="M396.9,240.4v-2.6c0-2.8-2.3-5.1-5.1-5.1s-5.1,2.3-5.1,5.1v2.6H396.9z"/>
		</g>
		<g>
			<g>
				<rect x="365.5" y="342.2" class="st9" width="36.3" height="1.8"/>
				<path class="st10" d="M401.3,342.7v0.8H366v-0.8H401.3 M402.3,341.7H365v2.8h37.3V341.7L402.3,341.7z"/>
			</g>
			<g>
				<rect x="365.5" y="334.5" class="st9" width="36.3" height="7.7"/>
				<path class="st10" d="M401.3,335v6.7H366V335H401.3 M402.3,334H365v8.7h37.3V334L402.3,334z"/>
			</g>
			<rect x="370.8" y="335.8" class="st11" width="26.4" height="1.7"/>
			<path class="st11" d="M378.4,335.8h11.2l-1-1.4h-9.1L378.4,335.8z"/>
		</g>
		<g>
			<g>
				<rect x="353" y="88.8" class="st9" width="1.8" height="36.3"/>
				<path class="st10" d="M354.3,89.3v35.3h-0.8V89.3H354.3 M355.3,88.3h-2.8v37.3h2.8V88.3L355.3,88.3z"/>
			</g>
			<g>
				<rect x="354.8" y="88.8" class="st9" width="7.7" height="36.3"/>
				<path class="st10" d="M362,89.3v35.3h-6.7V89.3H362 M363,88.3h-8.7v37.3h8.7V88.3L363,88.3z"/>
			</g>
			<rect x="359.5" y="93.4" class="st11" width="1.7" height="26.4"/>
			<path class="st11" d="M361.2,112.2V101l1.4,1v9.1L361.2,112.2z"/>
		</g>
		<g>
			<path class="st11" d="M412.3,136.2v-14l12.7-1.9v17.8L412.3,136.2z"/>
			<g>
				<rect x="423.7" y="107.4" class="st9" width="20.6" height="42.3"/>
				<path class="st10" d="M443.8,107.9v41.3h-19.6v-41.3L443.8,107.9 M444.8,106.9h-21.6v43.3h21.6V106.9L444.8,106.9z"/>
			</g>
			<path class="st13" d="M429.3,133.9v-10.8 M427.1,134.9v-12.7h3.8v12.7H427.1z"/>
			<path class="st11" d="M426.9,140.1L426.9,140.1c0-0.5,0.4-1,1-1h1.3c0.5,0,1,0.4,1,1l0,0c0,0.5-0.4,1-1,1h-1.3
				C427.4,141,426.9,140.6,426.9,140.1z"/>
			<path class="st11" d="M437,131.7c-1.7,0-3-1.4-3-3.2c0-1.8,1.4-3.2,3-3.2h3v6.3L437,131.7z"/>
			<g>
				<rect x="412" y="122.6" class="st9" width="11.3" height="13.4"/>
				<path class="st10" d="M422.8,123.1v12.4h-10.3v-12.4H422.8 M423.8,122.1h-12.3v14.4h12.3V122.1L423.8,122.1z"/>
			</g>
			<g>
				<rect x="410.6" y="122.3" class="st9" width="1.9" height="13.9"/>
				<path class="st10" d="M412,122.8v12.9h-0.9v-12.9L412,122.8 M413,121.8h-2.9v14.9h2.9V121.8L413,121.8z"/>
			</g>
			<rect x="440" y="112" class="st11" width="1.7" height="33.2"/>
		</g>
		<g id="Sink_2">
			<g id="Rectangle_15">
				<rect x="276.5" y="235.7" class="st9" width="22.4" height="10.6"/>
				<path class="st10" d="M298.4,236.2v9.6H277v-9.6H298.4 M299.4,235.2H276v11.6h23.4V235.2L299.4,235.2z"/>
			</g>
			<path id="Rectangle_19_x5F_5" class="st11" d="M282.2,240.9L282.2,240.9c0,2,1.6,3.5,3.5,3.5h5c2,0,3.5-1.6,3.5-3.5l0,0
				c0-2-1.6-3.5-3.5-3.5h-5C283.8,237.4,282.2,239,282.2,240.9z"/>
			<circle id="Ellipse_7_x5F_2" class="st11" cx="288.3" cy="239.7" r="0.9"/>
		</g>
		<g id="Sink_2_1_">
			<g id="Rectangle_16_x5F_11_2_">
				<rect x="267.1" y="166.5" class="st9" width="11.7" height="23.3"/>
				<path class="st10" d="M278.3,167v22.3h-10.7V167H278.3 M279.3,166h-12.7v24.3h12.7V166L279.3,166z"/>
			</g>
			<path id="Rectangle_19_x5F_5_1_" class="st11" d="M272.9,184.8L272.9,184.8c2.1,0,3.9-1.7,3.9-3.9v-5.5c0-2.1-1.7-3.9-3.9-3.9
				l0,0c-2.1,0-3.9,1.7-3.9,3.9v5.5C269.1,183.1,270.8,184.8,272.9,184.8z"/>
			<circle id="Ellipse_7_x5F_2_1_" class="st11" cx="271.5" cy="178.1" r="0.9"/>
		</g>
		<g id="Toilet_3_">
			<g id="Rectangle_21_3_">
				<rect x="272.6" y="262" class="st9" width="3" height="12"/>
				<path class="st10" d="M275.1,262.5v11h-2v-11H275.1 M276.1,261.5h-4v13h4V261.5L276.1,261.5z"/>
			</g>
			<path id="Rectangle_19_x5F_2_3_" class="st11" d="M284,272.5c2.6,0.2,4.8-1.9,4.8-4.5l0,0c0-2.6-2.2-4.7-4.8-4.5l-8.4,0.6v7.9
				L284,272.5z"/>
			<path id="Rectangle_18_x5F_13_3_" class="st11" d="M283.7,271.1c1.8,0.2,3.4-1.3,3.4-3.1l0,0c0-1.8-1.6-3.2-3.4-3.1l-4.9,0.4v5.3
				L283.7,271.1z"/>
			<ellipse id="Ellipse_6_x5F_2_3_" class="st11" cx="281.3" cy="268" rx="0.9" ry="0.9"/>
		</g>
		<g id="Kitchen">
			<g id="Oven">
				<g id="Rectangle_28">
					<rect x="375.8" y="311" class="st9" width="17.8" height="14"/>
					<path class="st10" d="M393.1,311.5v13h-16.8v-13H393.1 M394.1,310.5h-18.8v15h18.8V310.5L394.1,310.5z"/>
				</g>
			</g>
			<g id="Rectangle_24_1_">
				<rect x="318.5" y="312.7" class="st9" width="91" height="13.4"/>
				<path class="st10" d="M409,313.2v12.4h-90v-12.4H409 M410,312.2h-92v14.4h92V312.2L410,312.2z"/>
			</g>
			<g id="Rectangle_27">
				<rect x="396.2" y="312.7" class="st9" width="13.4" height="13.4"/>
				<path class="st10" d="M409,313.2v12.4h-12.4v-12.4H409 M410,312.2h-14.4v14.4H410V312.2L410,312.2z"/>
			</g>
			<g id="Rectangle_27_4_">
				<rect x="396.2" y="312.7" class="st9" width="13.4" height="1.7"/>
				<path class="st10" d="M409,313.2v0.7h-12.4v-0.7H409 M410,312.2h-14.4v2.7H410V312.2L410,312.2z"/>
			</g>
			<g id="Sink_3_1_">
				<rect id="Rectangle_28_x5F_2_1_" x="323.1" y="314.4" class="st11" width="15.6" height="9.8"/>
				<path id="Rectangle_29_x5F_2_1_" class="st11" d="M329.2,319.4L329.2,319.4c0-2,1.7-3.7,3.7-3.7h0.8c2,0,3.7,1.7,3.7,3.7l0,0
					c0,2-1.7,3.7-3.7,3.7h-0.8C330.8,323.1,329.2,321.4,329.2,319.4z"/>
				<ellipse id="Ellipse_7_x5F_3_1_" class="st11" cx="333.3" cy="320.6" rx="0.9" ry="0.9"/>
				<line class="st13" x1="324.2" y1="322.2" x2="328.2" y2="322.2"/>
				<line class="st13" x1="324.2" y1="320.7" x2="328.2" y2="320.7"/>
				<line class="st13" x1="324.2" y1="319.2" x2="328.2" y2="319.2"/>
				<line class="st13" x1="324.2" y1="317.7" x2="328.2" y2="317.7"/>
				<line class="st13" x1="324.2" y1="316.3" x2="328.2" y2="316.3"/>
			</g>
			<g id="Stove_1_">
				<g id="Rectangle_25_1_">
					<rect x="360.2" y="312.7" class="st9" width="13" height="13.4"/>
					<path class="st10" d="M372.7,313.2v12.4h-12v-12.4H372.7 M373.7,312.2h-14v14.4h14V312.2L373.7,312.2z"/>
				</g>
				<g id="Rectangle_28_x5F_3_1_">
					<rect x="360.2" y="324.1" class="st9" width="13" height="1.9"/>
					<path class="st10" d="M372.7,324.6v0.9h-12v-0.9H372.7 M373.7,323.6h-14v2.9h14V323.6L373.7,323.6z"/>
				</g>
				<g id="Ellipse_7_x5F_4_1_">
					<path class="st9" d="M363.9,322.1c-0.7,0-1.3-0.6-1.3-1.3c0-0.7,0.6-1.3,1.3-1.3s1.3,0.6,1.3,1.3
						C365.2,321.6,364.6,322.1,363.9,322.1z"/>
					<path class="st10" d="M363.9,320.1c0.4,0,0.8,0.4,0.8,0.8s-0.4,0.8-0.8,0.8s-0.8-0.4-0.8-0.8
						C363.1,320.4,363.5,320.1,363.9,320.1 M363.9,319.1c-1,0-1.8,0.8-1.8,1.8s0.8,1.8,1.8,1.8s1.8-0.8,1.8-1.8
						C365.7,319.9,364.9,319.1,363.9,319.1L363.9,319.1z"/>
				</g>
				<g id="Ellipse_9_1_">
					<circle class="st9" cx="363.9" cy="316.2" r="1.7"/>
					<path class="st10" d="M363.9,315c0.7,0,1.2,0.6,1.2,1.2s-0.6,1.2-1.2,1.2c-0.7,0-1.2-0.6-1.2-1.2S363.2,315,363.9,315
						 M363.9,314c-1.2,0-2.2,1-2.2,2.2s1,2.2,2.2,2.2s2.2-1,2.2-2.2C366.2,315,365.2,314,363.9,314L363.9,314z"/>
				</g>
				<g id="Ellipse_10_1_">
					<circle class="st9" cx="369.1" cy="320.8" r="1.7"/>
					<path class="st10" d="M369.1,319.6c0.7,0,1.2,0.6,1.2,1.2s-0.6,1.2-1.2,1.2s-1.2-0.6-1.2-1.2S368.4,319.6,369.1,319.6
						 M369.1,318.6c-1.2,0-2.2,1-2.2,2.2s1,2.2,2.2,2.2s2.2-1,2.2-2.2S370.3,318.6,369.1,318.6L369.1,318.6z"/>
				</g>
				<g id="Ellipse_8_1_">
					<circle class="st9" cx="369.1" cy="315.8" r="1.3"/>
					<path class="st10" d="M369.1,315c0.4,0,0.8,0.4,0.8,0.8s-0.4,0.8-0.8,0.8s-0.8-0.4-0.8-0.8C368.3,315.3,368.6,315,369.1,315
						 M369.1,314c-1,0-1.8,0.8-1.8,1.8s0.8,1.8,1.8,1.8s1.8-0.8,1.8-1.8S370.1,314,369.1,314L369.1,314z"/>
				</g>
			</g>
			<path id="Vector_3_1_" class="st13" d="M400.3,319.4h5 M401.6,317.2l2.5,4.4 M401.6,321.6l2.5-4.4"/>
		</g>
		<g>
			<path class="st11" d="M416.5,226.7c0,0.7,0.5,1.2,1.2,1.2h12.4v-28.2h-13.6V226.7z"/>
			<path class="st11" d="M394.5,212.1c0,0.7,0.6,1.2,1.3,1.2h19.4c0.7,0,1.3-0.5,1.3-1.2v-12.4h-21.9L394.5,212.1L394.5,212.1z"/>
			<path class="st11" d="M373.4,212.1c0,0.7,0.6,1.2,1.2,1.2h18.6c0.7,0,1.2-0.5,1.2-1.2v-12.4h-21.1L373.4,212.1L373.4,212.1z"/>
			<path class="st11" d="M373.4,214.3h-4.6v-19.5H435v38h-19.6V228H430v-28.3h-56.7v14.6H373.4z"/>
		</g>
		<g>
			<rect x="267.1" y="243.7" class="st9" width="5.5" height="35.2"/>
			<path class="st10" d="M272.1,244.2v34.2h-4.5v-34.2L272.1,244.2 M273.1,243.2h-6.5v36.2h6.5V243.2L273.1,243.2z"/>
		</g>
		<g id="Toilet_4_">
			<g id="Rectangle_21_4_">
				<rect x="272.6" y="197.3" class="st9" width="3" height="12"/>
				<path class="st10" d="M275.1,197.8v11h-2v-11H275.1 M276.1,196.8h-4v13h4V196.8L276.1,196.8z"/>
			</g>
			<path id="Rectangle_19_x5F_2_4_" class="st11" d="M284,207.8c2.6,0.2,4.8-1.9,4.8-4.5l0,0c0-2.6-2.2-4.7-4.8-4.5l-8.4,0.6v7.9
				L284,207.8z"/>
			<path id="Rectangle_18_x5F_13_4_" class="st11" d="M283.7,206.4c1.8,0.2,3.4-1.3,3.4-3.1l0,0c0-1.8-1.6-3.2-3.4-3.1l-4.9,0.4v5.3
				L283.7,206.4z"/>
			<ellipse id="Ellipse_6_x5F_2_4_" class="st11" cx="281.2" cy="203.3" rx="0.9" ry="0.9"/>
		</g>
		<g>
			<rect x="267.1" y="189.9" class="st9" width="5.5" height="24.7"/>
			<path class="st10" d="M272.1,190.4v23.7h-4.5v-23.7H272.1 M273.1,189.4h-6.5v25.7h6.5V189.4L273.1,189.4z"/>
		</g>
		<g>
			<g>
				<rect x="267.1" y="394.5" class="st9" width="43.7" height="17.6"/>
				<path class="st10" d="M310.3,395v16.6h-42.7V395H310.3 M311.3,394h-44.7v18.6h44.7V394L311.3,394z"/>
			</g>
			<g>
				<g>
					<path class="st14" d="M270.7,403.3c0-3.4,3-6.1,6.3-5.8c3.7,0.3,8.4,0.6,11.9,0.6s8.1-0.3,11.9-0.6c3.4-0.3,6.3,2.4,6.3,5.8
						s-3,6.1-6.3,5.8c-3.7-0.3-8.4-0.6-11.9-0.6s-8.1,0.3-11.9,0.6C273.7,409.3,270.7,406.7,270.7,403.3z"/>
					<ellipse class="st14" cx="276.7" cy="403.3" rx="0.9" ry="0.9"/>
				</g>
			</g>
		</g>
		<g id="Sink_2_4_">
			<g id="Rectangle_16_x5F_11_5_">
				<rect x="267.1" y="348.1" class="st9" width="11.7" height="46.3"/>
				<path class="st10" d="M278.3,348.6v45.3h-10.7v-45.3H278.3 M279.3,347.6h-12.7v47.3h12.7V347.6L279.3,347.6z"/>
			</g>
			<path id="Rectangle_19_x5F_5_4_" class="st11" d="M272.9,383.8L272.9,383.8c2.1,0,3.9-1.7,3.9-3.9v-5.5c0-2.1-1.7-3.9-3.9-3.9
				l0,0c-2.1,0-3.9,1.7-3.9,3.9v5.5C269.1,382,270.8,383.8,272.9,383.8z"/>
			<circle id="Ellipse_7_x5F_2_4_" class="st11" cx="271.4" cy="377.1" r="0.9"/>
		</g>
		<g id="Toilet_5_">
			<g id="Rectangle_21_6_">
				<rect x="293.5" y="353.6" class="st9" width="12" height="3"/>
				<path class="st10" d="M305,354.1v2h-11v-2H305 M306,353.1h-13v4h13V353.1L306,353.1z"/>
			</g>
			<path id="Rectangle_19_x5F_2_5_" class="st11" d="M295,365c-0.2,2.6,1.9,4.8,4.5,4.8l0,0c2.6,0,4.7-2.2,4.5-4.8l-0.6-8.4h-7.9
				L295,365z"/>
			<path id="Rectangle_18_x5F_13_5_" class="st11" d="M296.4,364.7c-0.2,1.8,1.3,3.4,3.1,3.4l0,0c1.8,0,3.2-1.6,3.1-3.4l-0.4-4.9
				h-5.3L296.4,364.7z"/>
			<ellipse id="Ellipse_6_x5F_2_5_" class="st11" cx="299.5" cy="362.5" rx="0.9" ry="0.9"/>
		</g>
		<g id="Rectangle_15_1_">
			<rect x="267.1" y="348.1" class="st9" width="48.5" height="5.5"/>
			<path class="st10" d="M315.1,348.6v4.5h-47.5v-4.5H315.1 M316.1,347.6h-49.5v6.5h49.5V347.6L316.1,347.6z"/>
		</g>
	</g>
	<g id="street_anchors">
		<rect id="street_anchor_01_1_" x="362.6" y="20" class="st15" width="10" height="10"/>
		<rect id="street_anchor_02_1_" x="490" y="235" class="st15" width="10" height="10"/>
	</g>
</g>
<g id="комнаты">
	<g>
		<g>
			<path class="st8" d="M329.2,106l1.4-0.8h1v6.1h-1.1v-4.7l-1,0.6L329.2,106z"/>
			<path class="st8" d="M332.5,106l1.4-0.8h1v6.1h-1.1v-4.7l-1,0.6L332.5,106z"/>
			<path class="st8" d="M336.9,109.6c0.4,0,0.8,0.4,0.8,0.9c0,0.5-0.3,0.9-0.8,0.9c-0.4,0-0.7-0.4-0.7-0.9
				C336.2,110,336.5,109.6,336.9,109.6z"/>
			<path class="st8" d="M339.2,109.9c0.4,0.2,0.8,0.4,1.3,0.4c0.8,0,1.6-0.7,1.6-1.9c-0.4,0.4-1,0.9-1.7,0.9c-1.2,0-1.9-1-1.9-2
				c0-1.3,0.9-2.2,2.1-2.2c1.3,0,2.5,1.1,2.5,3.1c0,2.1-1.3,3.4-2.6,3.4c-0.8,0-1.4-0.4-1.8-0.5L339.2,109.9z M342,107.4
				c-0.2-0.8-0.8-1.3-1.4-1.3c-0.6,0-1,0.5-1,1c0,0.4,0.2,0.8,0.9,0.8C341.1,108.1,341.6,107.7,342,107.4z"/>
		</g>
	</g>
	<g>
		<g>
			<path class="st8" d="M394.3,152.7l1.4-0.8h1v6.1h-1.1v-4.7l-1,0.6L394.3,152.7z"/>
			<path class="st8" d="M399.8,154.3h0.7c0.3,0,0.6-0.2,0.6-0.6c0-0.5-0.4-0.7-0.8-0.7c-0.6,0-1.1,0.4-1.6,1l-0.6-0.9
				c0.5-0.6,1.3-1.3,2.2-1.3c0.8,0,1.9,0.5,1.9,1.8c0,0.5-0.3,0.9-0.5,1.1c0.4,0.2,0.9,0.6,0.9,1.5c0,1.4-1.1,2.2-2.4,2.2
				c-0.9,0-1.7-0.4-2.4-1.3l0.6-1c0.5,0.6,1,1,1.8,1c0.7,0,1.3-0.4,1.3-1c0-0.5-0.5-0.6-0.7-0.6h-0.9V154.3z"/>
			<path class="st8" d="M404.2,156.4c0.4,0,0.8,0.4,0.8,0.9c0,0.5-0.3,0.9-0.8,0.9c-0.4,0-0.7-0.4-0.7-0.9
				C403.4,156.8,403.8,156.4,404.2,156.4z"/>
			<path class="st8" d="M405.9,157c0-1.5,0.9-2.2,2-2.6c0.3-0.1,0.8-0.3,0.8-0.9c0-0.5-0.4-0.6-0.8-0.6c-0.7,0-1.1,0.4-1.6,0.9
				l-0.6-1c0.6-0.6,1.2-1.2,2.1-1.2c0.9,0,1.9,0.5,1.9,1.8c0,1.4-1,1.8-1.8,2.1c-0.7,0.3-1.1,0.6-1.1,1.1v0.1h2.8v1.2h-3.9V157z"/>
		</g>
	</g>
	<g>
		<g>
			<path class="st8" d="M415,368.2l1.4-0.8h1v6.1h-1.1v-4.7l-1,0.6L415,368.2z"/>
			<path class="st8" d="M423.6,372.2h-0.8v1.3h-1.1v-1.3h-3.2v-0.9l3.3-3.9h1v3.7h0.8V372.2z M420,371.1h1.6v-2h-0.1
				C421.1,369.7,420.5,370.4,420,371.1L420,371.1z"/>
			<path class="st8" d="M425.1,371.8c0.4,0,0.8,0.4,0.8,0.9c0,0.5-0.3,0.9-0.8,0.9c-0.4,0-0.7-0.4-0.7-0.9
				C424.4,372.2,424.7,371.8,425.1,371.8z"/>
			<path class="st8" d="M426.8,367.4h4.2v1.2l-2.4,4.9h-1.4l2.5-4.8h-2.9V367.4z"/>
		</g>
	</g>
	<g>
		<g>
			<path class="st8" d="M327.5,175.4l1.4-0.8h1v6.1h-1.1V176l-1,0.6L327.5,175.4z"/>
			<path class="st8" d="M331.9,179.1c0.4,0,0.8,0.4,0.8,0.9c0,0.5-0.3,0.9-0.8,0.9c-0.4,0-0.7-0.4-0.7-0.9
				C331.2,179.5,331.5,179.1,331.9,179.1z"/>
			<path class="st8" d="M333.6,178.9c0-0.8,0.4-1.4,1-1.6c-0.4-0.2-0.7-0.6-0.7-1.2c0-1.1,1.2-1.7,2.1-1.7c0.9,0,2.1,0.5,2.1,1.7
				c0,0.6-0.2,1-0.7,1.2c0.5,0.2,1,0.7,1,1.6c0,1.3-1.1,2-2.3,2C334.7,180.9,333.6,180.2,333.6,178.9z M337.1,178.8
				c0-0.6-0.6-0.9-1.2-0.9c-0.5,0-1.2,0.3-1.2,0.9c0,0.6,0.6,0.9,1.2,0.9C336.5,179.7,337.1,179.4,337.1,178.8z M336.8,176.3
				c0-0.5-0.5-0.7-0.9-0.7c-0.4,0-0.9,0.2-0.9,0.7c0,0.4,0.3,0.6,0.9,0.6C336.5,176.9,336.8,176.7,336.8,176.3z"/>
		</g>
	</g>
	<g>
		<g>
			<path class="st8" d="M300.1,300.9h-0.8v1.3h-1.1v-1.3H295v-0.9l3.3-3.9h1v3.7h0.8V300.9z M296.6,299.8h1.6v-2h-0.1
				C297.6,298.5,297.1,299.2,296.6,299.8L296.6,299.8z"/>
			<path class="st8" d="M301.7,300.6c0.4,0,0.8,0.4,0.8,0.9c0,0.5-0.3,0.9-0.8,0.9c-0.4,0-0.7-0.4-0.7-0.9
				C301,301,301.3,300.6,301.7,300.6z"/>
			<path class="st8" d="M303.4,301.2c0-1.5,0.9-2.2,2-2.6c0.3-0.1,0.8-0.3,0.8-0.9c0-0.5-0.4-0.6-0.8-0.6c-0.7,0-1.1,0.4-1.6,0.9
				l-0.6-1c0.6-0.6,1.2-1.2,2.1-1.2c0.9,0,1.9,0.5,1.9,1.8c0,1.4-1,1.8-1.8,2.1c-0.7,0.3-1.1,0.6-1.1,1.1v0.1h2.8v1.2h-3.9V301.2z"
				/>
		</g>
	</g>
	<g>
		<g>
			<path class="st8" d="M336.6,277.9c0-1.5,0.9-2.2,2-2.6c0.3-0.1,0.8-0.3,0.8-0.9c0-0.5-0.4-0.6-0.8-0.6c-0.7,0-1.1,0.4-1.6,0.9
				l-0.6-1c0.6-0.6,1.2-1.2,2.1-1.2c0.9,0,1.9,0.5,1.9,1.8c0,1.4-1,1.8-1.8,2.1c-0.7,0.3-1.1,0.6-1.1,1.1v0.1h2.8v1.2h-3.9V277.9z"
				/>
			<path class="st8" d="M341.3,278.2l0.5-1c0.3,0.3,1,0.7,1.9,0.7c0.6,0,1.2-0.3,1.2-1c0-0.6-0.5-0.9-0.9-0.9
				c-0.6,0-1.1,0.3-1.5,0.6l-0.6-0.6v-3.2h3.7v1.2h-2.7v1.4c0.4-0.3,0.7-0.6,1.3-0.6c0.9,0,1.9,0.6,1.9,2c0,1.6-1.2,2.3-2.3,2.3
				C342.5,279.1,341.7,278.5,341.3,278.2z"/>
			<path class="st8" d="M347.6,277.3c0.4,0,0.8,0.4,0.8,0.9c0,0.5-0.3,0.9-0.8,0.9c-0.4,0-0.7-0.4-0.7-0.9
				C346.8,277.7,347.1,277.3,347.6,277.3z"/>
			<path class="st8" d="M349.3,277.9c0-1.5,0.9-2.2,2-2.6c0.3-0.1,0.8-0.3,0.8-0.9c0-0.5-0.4-0.6-0.8-0.6c-0.7,0-1.1,0.4-1.6,0.9
				l-0.6-1c0.6-0.6,1.2-1.2,2.1-1.2c0.9,0,1.9,0.5,1.9,1.8c0,1.4-1,1.8-1.8,2.1c-0.7,0.3-1.1,0.6-1.1,1.1v0.1h2.8v1.2h-3.9V277.9z"
				/>
		</g>
	</g>
	<g>
		<g>
			<path class="st8" d="M299.4,200.7h-0.8v1.3h-1.1v-1.3h-3.2v-0.9l3.3-3.9h1v3.7h0.8V200.7z M295.8,199.6h1.6v-2h-0.1
				C296.9,198.3,296.3,199,295.8,199.6L295.8,199.6z"/>
			<path class="st8" d="M300.9,200.4c0.4,0,0.8,0.4,0.8,0.9c0,0.5-0.3,0.9-0.8,0.9c-0.4,0-0.7-0.4-0.7-0.9
				C300.2,200.8,300.5,200.4,300.9,200.4z"/>
			<path class="st8" d="M303.3,200.7c0.4,0.2,0.8,0.4,1.3,0.4c0.8,0,1.6-0.7,1.6-1.9c-0.4,0.4-1,0.9-1.7,0.9c-1.2,0-1.9-1-1.9-2
				c0-1.3,0.9-2.2,2.1-2.2c1.3,0,2.5,1.1,2.5,3.1c0,2.1-1.3,3.4-2.6,3.4c-0.8,0-1.4-0.4-1.8-0.5L303.3,200.7z M306,198.2
				c-0.2-0.8-0.8-1.3-1.4-1.3c-0.6,0-1,0.5-1,1c0,0.4,0.2,0.8,0.9,0.8C305.1,198.8,305.6,198.5,306,198.2z"/>
		</g>
	</g>
	<g>
		<g>
			<path class="st8" d="M291.4,256.2c0-1.5,0.9-2.2,2-2.6c0.3-0.1,0.8-0.3,0.8-0.9c0-0.5-0.4-0.6-0.8-0.6c-0.7,0-1.1,0.4-1.6,0.9
				l-0.6-1c0.6-0.6,1.2-1.2,2.1-1.2c0.9,0,1.9,0.5,1.9,1.8c0,1.4-1,1.8-1.8,2.1c-0.7,0.3-1.1,0.6-1.1,1.1v0.1h2.8v1.2h-3.9V256.2z"
				/>
			<path class="st8" d="M297,255.5c0.4,0,0.8,0.4,0.8,0.9c0,0.5-0.3,0.9-0.8,0.9c-0.4,0-0.7-0.4-0.7-0.9
				C296.3,255.9,296.6,255.5,297,255.5z"/>
			<path class="st8" d="M299.4,255.8c0.4,0.2,0.8,0.4,1.3,0.4c0.8,0,1.6-0.7,1.6-1.9c-0.4,0.4-1,0.9-1.7,0.9c-1.2,0-1.9-1-1.9-2
				c0-1.3,0.9-2.2,2.1-2.2c1.3,0,2.5,1.1,2.5,3.1c0,2.1-1.3,3.4-2.6,3.4c-0.8,0-1.4-0.4-1.8-0.5L299.4,255.8z M302.2,253.3
				c-0.2-0.8-0.8-1.3-1.4-1.3c-0.6,0-1,0.5-1,1c0,0.4,0.2,0.8,0.9,0.8C301.2,253.9,301.8,253.6,302.2,253.3z"/>
		</g>
	</g>
	<g>
		<g>
			<path class="st8" d="M299,380.2h-0.8v1.3h-1.1v-1.3h-3.2v-0.9l3.3-3.9h1v3.7h0.8V380.2z M295.4,379.1h1.6v-2H297
				C296.5,377.8,295.9,378.5,295.4,379.1L295.4,379.1z"/>
			<path class="st8" d="M300.6,379.9c0.4,0,0.8,0.4,0.8,0.9c0,0.5-0.3,0.9-0.8,0.9c-0.4,0-0.7-0.4-0.7-0.9
				C299.8,380.3,300.2,379.9,300.6,379.9z"/>
			<path class="st8" d="M302.2,375.4h4.2v1.2l-2.4,4.9h-1.4l2.5-4.8h-2.9V375.4z"/>
		</g>
	</g>
</g>
</svg>
