<?xml version="1.0" encoding="utf-8"?>
<!-- Generator: Adobe Illustrator 26.0.3, SVG Export Plug-In . SVG Version: 6.00 Build 0)  -->
<svg version="1.1" xmlns="http://www.w3.org/2000/svg" xmlns:xlink="http://www.w3.org/1999/xlink" x="0px" y="0px"
	 viewBox="0 0 720 480" style="enable-background:new 0 0 720 480;" xml:space="preserve">
<style type="text/css">
	.st0{fill:#DBD4CA;}
	.st1{clip-path:url(#SVGID_00000021115575059821590880000017225748675926729865_);}
	.st2{fill:none;stroke:#C49F8A;stroke-miterlimit:10;}
	.st3{opacity:0.3;clip-path:url(#SVGID_00000028288698428748143250000016363935137685623742_);}
	.st4{opacity:0.7;fill:#C49F8A;enable-background:new    ;}
	.st5{clip-path:url(#SVGID_00000095326651731259315260000003514793022691799432_);}
	.st6{opacity:0.3;clip-path:url(#SVGID_00000104675385515957410750000001548255310781974401_);}
	.st7{clip-path:url(#SVGID_00000101824558259459984480000000498066409453756849_);}
	.st8{opacity:0.3;clip-path:url(#SVGID_00000162349921332459185490000006513173454900471483_);}
	.st9{fill:none;stroke:#565440;}
	.st10{fill:#565440;}
	.st11{fill:#E9E4DC;}
	.st12{fill:#C49F8A;}
	.st13{fill:#E9E4DC;stroke:#C49F8A;}
	.st14{fill:#E9E4DC;stroke:#C49F8A;stroke-width:1;stroke-miterlimit:3.9997;}
	.st15{fill:none;stroke:#C49F8A;}
	.st16{fill:#E9E4DC;stroke:#C49F8A;stroke-miterlimit:3.9998;}
	.st17{fill:#E9E4DC;stroke:#C49F8A;stroke-linejoin:round;}
	.st18{fill:#E9E4DC;stroke:#C49F8A;stroke-width:1;stroke-miterlimit:4;}
	.st19{opacity:0;}
	.st20{fill:none;}
</style>
<g id="_x31__x5F_2">
	<polygon id="Floor_1_" class="st0" points="233.1,65 233.1,416.5 429.1,416.5 429.1,258.5 491.5,258.5 491.5,94.6 486.5,94.6 
		486.5,64.6 	"/>
	<g id="Wet_Floor">
		<g id="Wet_Floor_1_">
			<g>
				<defs>
					<rect id="SVGID_1_" x="371.6" y="386.6" width="52.6" height="29.2"/>
				</defs>
				<clipPath id="SVGID_00000097464558070426702180000003121217298145964733_">
					<use xlink:href="#SVGID_1_"  style="overflow:visible;"/>
				</clipPath>
				<g style="clip-path:url(#SVGID_00000097464558070426702180000003121217298145964733_);">
					<g>
						<line class="st2" x1="107.8" y1="278.1" x2="441.3" y2="-55.3"/>
						<line class="st2" x1="97.4" y1="267.7" x2="430.9" y2="-65.8"/>
						<line class="st2" x1="118.2" y1="288.6" x2="451.7" y2="-44.9"/>
						<line class="st2" x1="128.7" y1="299" x2="462.1" y2="-34.5"/>
						<line class="st2" x1="139.1" y1="309.4" x2="472.6" y2="-24.1"/>
						<line class="st2" x1="149.5" y1="319.8" x2="483" y2="-13.7"/>
						<line class="st2" x1="159.9" y1="330.2" x2="493.4" y2="-3.2"/>
						<line class="st2" x1="170.3" y1="340.7" x2="503.8" y2="7.2"/>
						<line class="st2" x1="180.8" y1="351.1" x2="514.3" y2="17.6"/>
						<line class="st2" x1="191.2" y1="361.5" x2="524.7" y2="28"/>
						<line class="st2" x1="180.8" y1="351.1" x2="514.3" y2="17.6"/>
						<line class="st2" x1="201.6" y1="371.9" x2="535.1" y2="38.5"/>
						<line class="st2" x1="212" y1="382.4" x2="545.5" y2="48.9"/>
						<line class="st2" x1="222.5" y1="392.8" x2="555.9" y2="59.3"/>
						<line class="st2" x1="232.9" y1="403.2" x2="566.4" y2="69.7"/>
						<line class="st2" x1="243.3" y1="413.6" x2="576.8" y2="80.1"/>
						<line class="st2" x1="253.7" y1="424" x2="587.2" y2="90.6"/>
						<line class="st2" x1="264.1" y1="434.5" x2="597.6" y2="101"/>
						<line class="st2" x1="274.6" y1="444.9" x2="608" y2="111.4"/>
						<line class="st2" x1="264.1" y1="434.5" x2="597.6" y2="101"/>
						<line class="st2" x1="285" y1="455.3" x2="618.5" y2="121.8"/>
						<line class="st2" x1="295.4" y1="465.7" x2="628.9" y2="132.2"/>
						<line class="st2" x1="305.8" y1="476.1" x2="639.3" y2="142.7"/>
						<line class="st2" x1="316.2" y1="486.6" x2="649.7" y2="153.1"/>
						<line class="st2" x1="326.7" y1="497" x2="660.1" y2="163.5"/>
						<line class="st2" x1="337.1" y1="507.4" x2="670.6" y2="173.9"/>
						<line class="st2" x1="347.5" y1="517.8" x2="681" y2="184.4"/>
						<line class="st2" x1="357.9" y1="528.3" x2="691.4" y2="194.8"/>
						<line class="st2" x1="347.5" y1="517.8" x2="681" y2="184.4"/>
						<line class="st2" x1="368.4" y1="538.7" x2="701.8" y2="205.2"/>
						<line class="st2" x1="378.8" y1="549.1" x2="712.3" y2="215.6"/>
						<line class="st2" x1="389.2" y1="559.5" x2="722.7" y2="226"/>
						<line class="st2" x1="399.6" y1="569.9" x2="733.1" y2="236.5"/>
						<line class="st2" x1="410" y1="580.4" x2="743.5" y2="246.9"/>
						<line class="st2" x1="420.5" y1="590.8" x2="753.9" y2="257.3"/>
						<line class="st2" x1="430.9" y1="601.2" x2="764.4" y2="267.7"/>
					</g>
					<g>
						<line class="st2" x1="441.3" y1="590.8" x2="107.8" y2="257.3"/>
						<line class="st2" x1="430.9" y1="601.2" x2="97.4" y2="267.7"/>
						<line class="st2" x1="451.7" y1="580.4" x2="118.2" y2="246.9"/>
						<line class="st2" x1="462.1" y1="569.9" x2="128.7" y2="236.5"/>
						<line class="st2" x1="472.6" y1="559.5" x2="139.1" y2="226"/>
						<line class="st2" x1="483" y1="549.1" x2="149.5" y2="215.6"/>
						<line class="st2" x1="493.4" y1="538.7" x2="159.9" y2="205.2"/>
						<line class="st2" x1="503.8" y1="528.3" x2="170.3" y2="194.8"/>
						<line class="st2" x1="514.3" y1="517.8" x2="180.8" y2="184.4"/>
						<line class="st2" x1="524.7" y1="507.4" x2="191.2" y2="173.9"/>
						<line class="st2" x1="514.3" y1="517.8" x2="180.8" y2="184.4"/>
						<line class="st2" x1="535.1" y1="497" x2="201.6" y2="163.5"/>
						<line class="st2" x1="545.5" y1="486.6" x2="212" y2="153.1"/>
						<line class="st2" x1="555.9" y1="476.1" x2="222.5" y2="142.7"/>
						<line class="st2" x1="566.4" y1="465.7" x2="232.9" y2="132.2"/>
						<line class="st2" x1="576.8" y1="455.3" x2="243.3" y2="121.8"/>
						<line class="st2" x1="587.2" y1="444.9" x2="253.7" y2="111.4"/>
						<line class="st2" x1="597.6" y1="434.5" x2="264.1" y2="101"/>
						<line class="st2" x1="608" y1="424" x2="274.6" y2="90.6"/>
						<line class="st2" x1="597.6" y1="434.5" x2="264.1" y2="101"/>
						<line class="st2" x1="618.5" y1="413.6" x2="285" y2="80.1"/>
						<line class="st2" x1="628.9" y1="403.2" x2="295.4" y2="69.7"/>
						<line class="st2" x1="639.3" y1="392.8" x2="305.8" y2="59.3"/>
						<line class="st2" x1="649.7" y1="382.4" x2="316.2" y2="48.9"/>
						<line class="st2" x1="660.1" y1="371.9" x2="326.7" y2="38.5"/>
						<line class="st2" x1="670.6" y1="361.5" x2="337.1" y2="28"/>
						<line class="st2" x1="681" y1="351.1" x2="347.5" y2="17.6"/>
						<line class="st2" x1="691.4" y1="340.7" x2="357.9" y2="7.2"/>
						<line class="st2" x1="681" y1="351.1" x2="347.5" y2="17.6"/>
						<line class="st2" x1="701.8" y1="330.2" x2="368.4" y2="-3.2"/>
						<line class="st2" x1="712.3" y1="319.8" x2="378.8" y2="-13.7"/>
						<line class="st2" x1="722.7" y1="309.4" x2="389.2" y2="-24.1"/>
						<line class="st2" x1="733.1" y1="299" x2="399.6" y2="-34.5"/>
						<line class="st2" x1="743.5" y1="288.6" x2="410" y2="-44.9"/>
						<line class="st2" x1="753.9" y1="278.1" x2="420.5" y2="-55.3"/>
						<line class="st2" x1="764.4" y1="267.7" x2="430.9" y2="-65.8"/>
					</g>
				</g>
			</g>
			<g>
				<defs>
					<rect id="SVGID_00000142175976394413454300000012781411345647908232_" x="371.6" y="386.6" width="52.6" height="29.2"/>
				</defs>
				<clipPath id="SVGID_00000154419740009619601160000000438140379635525770_">
					<use xlink:href="#SVGID_00000142175976394413454300000012781411345647908232_"  style="overflow:visible;"/>
				</clipPath>
				<g style="opacity:0.3;clip-path:url(#SVGID_00000154419740009619601160000000438140379635525770_);">
					<rect x="269.8" y="96.2" class="st4" width="322.2" height="322.2"/>
				</g>
			</g>
		</g>
		<g id="Wet_Floor_2_">
			<g>
				<defs>
					<rect id="SVGID_00000155114631615195528980000000395743373867019951_" x="373.8" y="262.3" width="51" height="48.7"/>
				</defs>
				<clipPath id="SVGID_00000183941456634686866790000016116125506010434706_">
					<use xlink:href="#SVGID_00000155114631615195528980000000395743373867019951_"  style="overflow:visible;"/>
				</clipPath>
				<g style="clip-path:url(#SVGID_00000183941456634686866790000016116125506010434706_);">
					<g>
						<line class="st2" x1="111" y1="153.8" x2="444.4" y2="-179.6"/>
						<line class="st2" x1="100.5" y1="143.4" x2="434" y2="-190.1"/>
						<line class="st2" x1="121.4" y1="164.3" x2="454.9" y2="-169.2"/>
						<line class="st2" x1="131.8" y1="174.7" x2="465.3" y2="-158.8"/>
						<line class="st2" x1="142.2" y1="185.1" x2="475.7" y2="-148.4"/>
						<line class="st2" x1="152.7" y1="195.5" x2="486.1" y2="-138"/>
						<line class="st2" x1="163.1" y1="206" x2="496.6" y2="-127.5"/>
						<line class="st2" x1="173.5" y1="216.4" x2="507" y2="-117.1"/>
						<line class="st2" x1="183.9" y1="226.8" x2="517.4" y2="-106.7"/>
						<line class="st2" x1="194.3" y1="237.2" x2="527.8" y2="-96.3"/>
						<line class="st2" x1="183.9" y1="226.8" x2="517.4" y2="-106.7"/>
						<line class="st2" x1="204.8" y1="247.6" x2="538.2" y2="-85.8"/>
						<line class="st2" x1="215.2" y1="258.1" x2="548.7" y2="-75.4"/>
						<line class="st2" x1="225.6" y1="268.5" x2="559.1" y2="-65"/>
						<line class="st2" x1="236" y1="278.9" x2="569.5" y2="-54.6"/>
						<line class="st2" x1="246.4" y1="289.3" x2="579.9" y2="-44.2"/>
						<line class="st2" x1="256.9" y1="299.7" x2="590.3" y2="-33.7"/>
						<line class="st2" x1="267.3" y1="310.2" x2="600.8" y2="-23.3"/>
						<line class="st2" x1="277.7" y1="320.6" x2="611.2" y2="-12.9"/>
						<line class="st2" x1="267.3" y1="310.2" x2="600.8" y2="-23.3"/>
						<line class="st2" x1="288.1" y1="331" x2="621.6" y2="-2.5"/>
						<line class="st2" x1="298.5" y1="341.4" x2="632" y2="7.9"/>
						<line class="st2" x1="309" y1="351.8" x2="642.5" y2="18.4"/>
						<line class="st2" x1="319.4" y1="362.3" x2="652.9" y2="28.8"/>
						<line class="st2" x1="329.8" y1="372.7" x2="663.3" y2="39.2"/>
						<line class="st2" x1="340.2" y1="383.1" x2="673.7" y2="49.6"/>
						<line class="st2" x1="350.7" y1="393.5" x2="684.1" y2="60.1"/>
						<line class="st2" x1="361.1" y1="404" x2="694.6" y2="70.5"/>
						<line class="st2" x1="350.7" y1="393.5" x2="684.1" y2="60.1"/>
						<line class="st2" x1="371.5" y1="414.4" x2="705" y2="80.9"/>
						<line class="st2" x1="381.9" y1="424.8" x2="715.4" y2="91.3"/>
						<line class="st2" x1="392.3" y1="435.2" x2="725.8" y2="101.7"/>
						<line class="st2" x1="402.8" y1="445.6" x2="736.2" y2="112.2"/>
						<line class="st2" x1="413.2" y1="456.1" x2="746.7" y2="122.6"/>
						<line class="st2" x1="423.6" y1="466.5" x2="757.1" y2="133"/>
						<line class="st2" x1="434" y1="476.9" x2="767.5" y2="143.4"/>
					</g>
					<g>
						<line class="st2" x1="444.4" y1="466.5" x2="111" y2="133"/>
						<line class="st2" x1="434" y1="476.9" x2="100.5" y2="143.4"/>
						<line class="st2" x1="454.9" y1="456.1" x2="121.4" y2="122.6"/>
						<line class="st2" x1="465.3" y1="445.6" x2="131.8" y2="112.2"/>
						<line class="st2" x1="475.7" y1="435.2" x2="142.2" y2="101.7"/>
						<line class="st2" x1="486.1" y1="424.8" x2="152.7" y2="91.3"/>
						<line class="st2" x1="496.6" y1="414.4" x2="163.1" y2="80.9"/>
						<line class="st2" x1="507" y1="404" x2="173.5" y2="70.5"/>
						<line class="st2" x1="517.4" y1="393.5" x2="183.9" y2="60.1"/>
						<line class="st2" x1="527.8" y1="383.1" x2="194.3" y2="49.6"/>
						<line class="st2" x1="517.4" y1="393.5" x2="183.9" y2="60.1"/>
						<line class="st2" x1="538.2" y1="372.7" x2="204.8" y2="39.2"/>
						<line class="st2" x1="548.7" y1="362.3" x2="215.2" y2="28.8"/>
						<line class="st2" x1="559.1" y1="351.8" x2="225.6" y2="18.4"/>
						<line class="st2" x1="569.5" y1="341.4" x2="236" y2="7.9"/>
						<line class="st2" x1="579.9" y1="331" x2="246.4" y2="-2.5"/>
						<line class="st2" x1="590.3" y1="320.6" x2="256.9" y2="-12.9"/>
						<line class="st2" x1="600.8" y1="310.2" x2="267.3" y2="-23.3"/>
						<line class="st2" x1="611.2" y1="299.7" x2="277.7" y2="-33.7"/>
						<line class="st2" x1="600.8" y1="310.2" x2="267.3" y2="-23.3"/>
						<line class="st2" x1="621.6" y1="289.3" x2="288.1" y2="-44.2"/>
						<line class="st2" x1="632" y1="278.9" x2="298.5" y2="-54.6"/>
						<line class="st2" x1="642.5" y1="268.5" x2="309" y2="-65"/>
						<line class="st2" x1="652.9" y1="258.1" x2="319.4" y2="-75.4"/>
						<line class="st2" x1="663.3" y1="247.6" x2="329.8" y2="-85.8"/>
						<line class="st2" x1="673.7" y1="237.2" x2="340.2" y2="-96.3"/>
						<line class="st2" x1="684.1" y1="226.8" x2="350.7" y2="-106.7"/>
						<line class="st2" x1="694.6" y1="216.4" x2="361.1" y2="-117.1"/>
						<line class="st2" x1="684.1" y1="226.8" x2="350.7" y2="-106.7"/>
						<line class="st2" x1="705" y1="206" x2="371.5" y2="-127.5"/>
						<line class="st2" x1="715.4" y1="195.5" x2="381.9" y2="-138"/>
						<line class="st2" x1="725.8" y1="185.1" x2="392.3" y2="-148.4"/>
						<line class="st2" x1="736.2" y1="174.7" x2="402.8" y2="-158.8"/>
						<line class="st2" x1="746.7" y1="164.3" x2="413.2" y2="-169.2"/>
						<line class="st2" x1="757.1" y1="153.8" x2="423.6" y2="-179.6"/>
						<line class="st2" x1="767.5" y1="143.4" x2="434" y2="-190.1"/>
					</g>
				</g>
			</g>
			<g>
				<defs>
					<rect id="SVGID_00000023964839608521245320000015411321297979016615_" x="373.8" y="262.3" width="51" height="48.7"/>
				</defs>
				<clipPath id="SVGID_00000083055073979054667360000003848843545766443415_">
					<use xlink:href="#SVGID_00000023964839608521245320000015411321297979016615_"  style="overflow:visible;"/>
				</clipPath>
				<g style="opacity:0.3;clip-path:url(#SVGID_00000083055073979054667360000003848843545766443415_);">
					<rect x="289.4" y="18.1" class="st4" width="322.2" height="322.2"/>
				</g>
			</g>
		</g>
		<g id="Wet_Floor_3_">
			<g>
				<defs>
					<rect id="SVGID_00000167374425908111373590000011278903447814542241_" x="423.3" y="200.3" width="58.1" height="52.8"/>
				</defs>
				<clipPath id="SVGID_00000055682581538079525200000009840343045644864915_">
					<use xlink:href="#SVGID_00000167374425908111373590000011278903447814542241_"  style="overflow:visible;"/>
				</clipPath>
				<g style="clip-path:url(#SVGID_00000055682581538079525200000009840343045644864915_);">
					<g>
						<line class="st2" x1="161.1" y1="91.8" x2="494.6" y2="-241.7"/>
						<line class="st2" x1="150.7" y1="81.4" x2="484.1" y2="-252.1"/>
						<line class="st2" x1="171.5" y1="102.2" x2="505" y2="-231.3"/>
						<line class="st2" x1="181.9" y1="112.6" x2="515.4" y2="-220.8"/>
						<line class="st2" x1="192.3" y1="123.1" x2="525.8" y2="-210.4"/>
						<line class="st2" x1="202.8" y1="133.5" x2="536.2" y2="-200"/>
						<line class="st2" x1="213.2" y1="143.9" x2="546.7" y2="-189.6"/>
						<line class="st2" x1="223.6" y1="154.3" x2="557.1" y2="-179.1"/>
						<line class="st2" x1="234" y1="164.8" x2="567.5" y2="-168.7"/>
						<line class="st2" x1="244.4" y1="175.2" x2="577.9" y2="-158.3"/>
						<line class="st2" x1="234" y1="164.8" x2="567.5" y2="-168.7"/>
						<line class="st2" x1="254.9" y1="185.6" x2="588.4" y2="-147.9"/>
						<line class="st2" x1="265.3" y1="196" x2="598.8" y2="-137.5"/>
						<line class="st2" x1="275.7" y1="206.4" x2="609.2" y2="-127"/>
						<line class="st2" x1="286.1" y1="216.9" x2="619.6" y2="-116.6"/>
						<line class="st2" x1="296.6" y1="227.3" x2="630" y2="-106.2"/>
						<line class="st2" x1="307" y1="237.7" x2="640.5" y2="-95.8"/>
						<line class="st2" x1="317.4" y1="248.1" x2="650.9" y2="-85.4"/>
						<line class="st2" x1="327.8" y1="258.5" x2="661.3" y2="-74.9"/>
						<line class="st2" x1="317.4" y1="248.1" x2="650.9" y2="-85.4"/>
						<line class="st2" x1="338.2" y1="269" x2="671.7" y2="-64.5"/>
						<line class="st2" x1="348.7" y1="279.4" x2="682.1" y2="-54.1"/>
						<line class="st2" x1="359.1" y1="289.8" x2="692.6" y2="-43.7"/>
						<line class="st2" x1="369.5" y1="300.2" x2="703" y2="-33.2"/>
						<line class="st2" x1="379.9" y1="310.7" x2="713.4" y2="-22.8"/>
						<line class="st2" x1="390.3" y1="321.1" x2="723.8" y2="-12.4"/>
						<line class="st2" x1="400.8" y1="331.5" x2="734.2" y2="-2"/>
						<line class="st2" x1="411.2" y1="341.9" x2="744.7" y2="8.4"/>
						<line class="st2" x1="400.8" y1="331.5" x2="734.2" y2="-2"/>
						<line class="st2" x1="421.6" y1="352.3" x2="755.1" y2="18.9"/>
						<line class="st2" x1="432" y1="362.8" x2="765.5" y2="29.3"/>
						<line class="st2" x1="442.5" y1="373.2" x2="775.9" y2="39.7"/>
						<line class="st2" x1="452.9" y1="383.6" x2="786.4" y2="50.1"/>
						<line class="st2" x1="463.3" y1="394" x2="796.8" y2="60.5"/>
						<line class="st2" x1="473.7" y1="404.4" x2="807.2" y2="71"/>
						<line class="st2" x1="484.1" y1="414.9" x2="817.6" y2="81.4"/>
					</g>
					<g>
						<line class="st2" x1="494.6" y1="404.4" x2="161.1" y2="71"/>
						<line class="st2" x1="484.1" y1="414.9" x2="150.7" y2="81.4"/>
						<line class="st2" x1="505" y1="394" x2="171.5" y2="60.5"/>
						<line class="st2" x1="515.4" y1="383.6" x2="181.9" y2="50.1"/>
						<line class="st2" x1="525.8" y1="373.2" x2="192.3" y2="39.7"/>
						<line class="st2" x1="536.2" y1="362.8" x2="202.8" y2="29.3"/>
						<line class="st2" x1="546.7" y1="352.3" x2="213.2" y2="18.9"/>
						<line class="st2" x1="557.1" y1="341.9" x2="223.6" y2="8.4"/>
						<line class="st2" x1="567.5" y1="331.5" x2="234" y2="-2"/>
						<line class="st2" x1="577.9" y1="321.1" x2="244.4" y2="-12.4"/>
						<line class="st2" x1="567.5" y1="331.5" x2="234" y2="-2"/>
						<line class="st2" x1="588.4" y1="310.7" x2="254.9" y2="-22.8"/>
						<line class="st2" x1="598.8" y1="300.2" x2="265.3" y2="-33.2"/>
						<line class="st2" x1="609.2" y1="289.8" x2="275.7" y2="-43.7"/>
						<line class="st2" x1="619.6" y1="279.4" x2="286.1" y2="-54.1"/>
						<line class="st2" x1="630" y1="269" x2="296.6" y2="-64.5"/>
						<line class="st2" x1="640.5" y1="258.5" x2="307" y2="-74.9"/>
						<line class="st2" x1="650.9" y1="248.1" x2="317.4" y2="-85.4"/>
						<line class="st2" x1="661.3" y1="237.7" x2="327.8" y2="-95.8"/>
						<line class="st2" x1="650.9" y1="248.1" x2="317.4" y2="-85.4"/>
						<line class="st2" x1="671.7" y1="227.3" x2="338.2" y2="-106.2"/>
						<line class="st2" x1="682.1" y1="216.9" x2="348.7" y2="-116.6"/>
						<line class="st2" x1="692.6" y1="206.4" x2="359.1" y2="-127"/>
						<line class="st2" x1="703" y1="196" x2="369.5" y2="-137.5"/>
						<line class="st2" x1="713.4" y1="185.6" x2="379.9" y2="-147.9"/>
						<line class="st2" x1="723.8" y1="175.2" x2="390.3" y2="-158.3"/>
						<line class="st2" x1="734.2" y1="164.8" x2="400.8" y2="-168.7"/>
						<line class="st2" x1="744.7" y1="154.3" x2="411.2" y2="-179.1"/>
						<line class="st2" x1="734.2" y1="164.8" x2="400.8" y2="-168.7"/>
						<line class="st2" x1="755.1" y1="143.9" x2="421.6" y2="-189.6"/>
						<line class="st2" x1="765.5" y1="133.5" x2="432" y2="-200"/>
						<line class="st2" x1="775.9" y1="123.1" x2="442.5" y2="-210.4"/>
						<line class="st2" x1="786.4" y1="112.6" x2="452.9" y2="-220.8"/>
						<line class="st2" x1="796.8" y1="102.2" x2="463.3" y2="-231.3"/>
						<line class="st2" x1="807.2" y1="91.8" x2="473.7" y2="-241.7"/>
						<line class="st2" x1="817.6" y1="81.4" x2="484.1" y2="-252.1"/>
					</g>
				</g>
			</g>
			<g>
				<defs>
					<rect id="SVGID_00000072980566247615135900000012966636761266368958_" x="423.3" y="200.3" width="58.1" height="52.8"/>
				</defs>
				<clipPath id="SVGID_00000026872795895469358160000001670327480232783274_">
					<use xlink:href="#SVGID_00000072980566247615135900000012966636761266368958_"  style="overflow:visible;"/>
				</clipPath>
				<g style="opacity:0.3;clip-path:url(#SVGID_00000026872795895469358160000001670327480232783274_);">
					<rect x="339.5" y="-44" class="st4" width="322.2" height="322.2"/>
				</g>
			</g>
		</g>
	</g>
	<g id="Windows">
		<polygon id="Windows_1_" class="st9" points="486.9,61.2 229.6,61.2 229.6,241.2 233.1,241.2 233.1,64.6 486.9,64.6 486.9,95.8 
			490.4,95.8 490.4,61.2 		"/>
		<path id="Windows_1" class="st9" d="M229.6,257.3h3.5v129.2h-3.5V257.3z"/>
	</g>
	<g id="Walls">
		<polygon class="st10" points="228.5,258.5 344.7,258.5 344.7,251.5 344,251.5 344,248.7 341.7,248.7 341.7,251.5 242.3,251.5 
			242.3,240 228.5,240 228.5,251.5 228.5,251.5 		"/>
		<polygon class="st10" points="242.3,191.5 240,191.5 240,172.2 341.7,172.2 341.7,230.8 344,230.8 344,172.2 348.7,172.2 
			348.7,169.9 344,169.9 341.7,169.9 240,169.9 240,143.1 228.5,143.1 228.5,191.5 228.5,191.5 228.5,207.7 242.3,207.7 		"/>
		<rect x="228.5" y="94.6" class="st10" width="13.9" height="16.2"/>
		<polygon class="st10" points="297.7,71.5 346,71.5 346,60 297.7,60 297.7,60 281.5,60 281.5,73.9 297.7,73.9 		"/>
		<path class="st10" d="M480,94.6v104.1h-54.4h-2.3h-6.4v2.3h6.4v6.7h2.3V201h45v7.4h2h0.3h7.1v43.1h-50.8h-3.7V228h-2.3v15.5h-8.5
			l0,0h-2.3l0,0l0,0v2.3l0,0v15.8h-36.3V201h2.3h2.3h18.8v-2.3h-18.8v-2.6h-2.3v2.6h-2.3h-2.3v2.3v82.8h2.3v-19.9h46.2v45.9h-46.2
			v-8h-2.3v39.6v2.3h2.3h1.9v-2.3h-1.9v-29.3h46.2v29.3H394v2.3h28.3v2.3h6.9v-87.6h62.3v-6.9V94.6H480z M422.3,261.6h-7.5v-15.8
			h8.5v5.7h-0.9v6.9v3.2H422.3z M472.9,206.1V201h7.1v5.1H472.9z"/>
		<polygon class="st10" points="378.5,178 380.8,178 380.8,73.9 394.6,73.9 394.6,71.5 439.9,71.5 439.9,60 394.6,60 394.6,60 
			378.5,60 378.5,71.5 378.5,73.9 378.5,169.9 365.8,169.9 365.8,172.2 378.5,172.2 		"/>
		<rect x="228.5" y="288.5" class="st10" width="11.5" height="16.2"/>
		<rect x="228.5" y="336.9" class="st10" width="13.9" height="16.2"/>
		<path class="st10" d="M422.3,386.6h-30.9v2.3h30.9v24.2h-39.6v-6.4v-0.4v-1.9h-9.8v-15.5h1.3v-2.3h-1.3h-2.3v2.3v15.5v2.3v6.4
			H242.3v-7.9H240v-20.4h-11.5v20.4l0,0V420h12.3h1.6h186.9v-6.9v-44.2h-6.9v17.7H422.3z M372.9,406.7h7.5v6.4h-7.5V406.7z"/>
	</g>
	<g id="Doors">
		<path class="st9" d="M374,302.2c-2.5,0-4.6-0.5-6.9-1.4s-4.4-2.3-6-3.9c-1.8-1.6-3.2-3.7-4.2-6c-0.9-2.3-1.4-4.6-1.4-7.2H374"/>
		<path class="st9" d="M394.8,343c0,2.5-0.5,4.6-1.4,6.9s-2.3,4.4-3.9,6c-1.6,1.8-3.7,3.2-6,4.2c-2.3,0.9-4.6,1.4-7.2,1.4V343"/>
		<path class="st9" d="M392.7,386.8c0-2.5-0.5-4.6-1.4-6.9s-2.3-4.4-3.9-6c-1.6-1.8-3.7-3.2-6-4.2c-2.3-0.9-4.6-1.4-7.2-1.4v18.5"/>
		<path class="st9" d="M429.1,346c3,0,5.8,0.7,8.5,1.8c2.8,1.2,5.5,2.8,7.6,5.1c2.1,2.1,3.9,4.6,5.1,7.4s1.8,5.8,1.8,8.8H429"/>
		<path class="st9" d="M347.8,170.6c0-2.5,0.5-4.6,1.4-6.9s2.3-4.4,3.9-6c1.6-1.8,3.7-3.2,6-4.2c2.3-0.9,4.6-1.4,7.2-1.4v18.5"/>
		<path class="st9" d="M378.5,196.3c-2.5,0-4.6-0.5-6.9-1.4s-4.4-2.3-6-3.9c-1.8-1.6-3.2-3.7-4.2-6c-0.9-2.3-1.4-4.6-1.4-7.2h18.5"
			/>
		<path class="st9" d="M342.1,248.9c-2.5,0-4.6-0.5-6.9-1.4s-4.4-2.3-6-3.9c-1.8-1.6-3.2-3.7-4.2-6s-1.4-4.6-1.4-7.2h18.5"/>
		<path class="st9" d="M399.3,199.5c0-2.5,0.5-4.6,1.4-6.9c0.9-2.3,2.3-4.4,3.9-6c1.6-1.8,3.7-3.2,6-4.2s4.6-1.4,7.2-1.4v18.5"/>
	</g>
	<g id="Furniture_3_">
		<g>
			<g>
				<rect x="293.8" y="122.4" class="st11" width="39.7" height="47"/>
				<path class="st12" d="M333,122.9v46h-38.7v-46H333 M334,121.9h-40.7v48H334V121.9L334,121.9z"/>
			</g>
			<rect x="314.6" y="154.7" class="st13" width="15.9" height="11.9"/>
			<rect x="296.8" y="154.7" class="st13" width="15.9" height="11.9"/>
			
				<rect x="315.3" y="149.4" transform="matrix(0.9659 -0.2588 0.2588 0.9659 -29.2628 88.4361)" class="st14" width="11.9" height="11.9"/>
			
				<rect x="300" y="149.4" transform="matrix(0.2588 -0.9659 0.9659 0.2588 76.6817 410.6555)" class="st14" width="11.9" height="11.9"/>
			<g>
				<polygon class="st11" points="293.8,159.4 293.8,121.9 333.4,121.9 333.4,156.9 309.5,160.4 				"/>
				<path class="st12" d="M332.9,122.4v34.1l-23.4,3.4l-15.2-0.9v-36.5L332.9,122.4 M333.9,121.4h-40.7v37.7v0.8l16.3,1l24.4-3.5
					v-0.3L333.9,121.4L333.9,121.4z"/>
			</g>
			<polyline class="st15" points="293.8,158.7 309.7,158.7 333.5,156.7 			"/>
		</g>
		<g>
			<g>
				<rect x="289.5" y="172.7" class="st11" width="51.7" height="33.3"/>
				<path class="st12" d="M340.7,173.2v32.3H290v-32.3H340.7 M341.7,172.2H289v34.3h52.7V172.2L341.7,172.2z"/>
			</g>
			<rect x="324.9" y="175.1" class="st13" width="13" height="13.4"/>
			<rect x="324.9" y="190.2" class="st13" width="13" height="13.4"/>
			<polygon class="st16" points="330.2,176.8 333.6,186.4 321,189 317.6,179.3 			"/>
			<polygon class="st16" points="321,189.7 333.6,192.3 330.2,202 317.6,199.4 			"/>
			<g>
				<polygon class="st11" points="289,206 289,172.7 327.5,172.7 331.3,192.8 330.2,206 				"/>
				<path class="st12" d="M327.1,173.2l3.7,19.6l-1,12.7h-40.3v-32.3H327.1 M327.9,172.2h-0.3h-39.1v34.3h41.4h0.8l1.1-13.7
					L327.9,172.2L327.9,172.2z"/>
			</g>
			<polyline class="st15" points="329.3,206 329.3,192.6 327.1,172.6 			"/>
		</g>
		<g>
			<g>
				<rect x="427.8" y="119.4" class="st11" width="51.7" height="33.3"/>
				<path class="st12" d="M479,119.9v32.3h-50.7v-32.3L479,119.9 M480,118.9h-52.7v34.3H480V118.9L480,118.9z"/>
			</g>
			<rect x="463.2" y="121.9" class="st13" width="13" height="13.4"/>
			<rect x="463.2" y="136.9" class="st13" width="13" height="13.4"/>
			<polygon class="st16" points="468.5,123.5 471.9,133.2 459.3,135.8 455.9,126.1 			"/>
			<polygon class="st16" points="459.3,136.5 471.9,139.1 468.5,148.8 455.9,146.2 			"/>
			<g>
				<polygon class="st11" points="427.3,152.8 427.3,119.5 465.8,119.5 469.6,139.6 468.5,152.8 				"/>
				<path class="st12" d="M465.4,120l3.7,19.6l-1,12.7h-40.3V120H465.4 M466.2,119h-0.3h-39.1v34.3h41.4h0.8l1.1-13.7L466.2,119
					L466.2,119z"/>
			</g>
			<polyline class="st15" points="467.6,152.8 467.6,139.4 465.4,119.3 			"/>
		</g>
		<g>
			<g>
				<rect x="440.4" y="78.2" class="st11" width="38.5" height="1.8"/>
				<path class="st12" d="M478.4,78.7v0.8h-37.5v-0.8H478.4 M479.4,77.7h-39.5v2.8h39.5V77.7L479.4,77.7z"/>
			</g>
			<g>
				<rect x="440.4" y="65.6" class="st11" width="38.5" height="12.6"/>
				<path class="st12" d="M478.4,66.1v11.6h-37.5V66.1H478.4 M479.4,65.1h-39.5v13.6h39.5V65.1L479.4,65.1z"/>
			</g>
			<path class="st13" d="M479.2,65.5l-39.1,12.7"/>
		</g>
		<g>
			<g>
				<rect x="437.9" y="234.3" class="st11" width="41.6" height="16.7"/>
				<path class="st12" d="M479,234.8v15.7h-40.6v-15.7H479 M480,233.8h-42.6v17.7H480V233.8L480,233.8z"/>
			</g>
			<g>
				<g>
					<path class="st17" d="M476.1,242.7c0-3.3-2.8-5.8-6-5.5c-3.6,0.3-8,0.6-11.4,0.6c-3.3,0-7.8-0.3-11.4-0.6c-3.2-0.3-6,2.3-6,5.5
						s2.8,5.8,6,5.5c3.6-0.3,8-0.6,11.4-0.6c3.3,0,7.8,0.3,11.4,0.6C473.3,248.5,476.1,245.9,476.1,242.7z"/>
					<ellipse class="st17" cx="470.4" cy="242.7" rx="0.9" ry="0.9"/>
				</g>
			</g>
		</g>
		<g>
			<g>
				<rect x="380.2" y="292.6" class="st11" width="41.6" height="16.7"/>
				<path class="st12" d="M421.3,293.1v15.7h-40.6v-15.7H421.3 M422.3,292.1h-42.6v17.7h42.6V292.1L422.3,292.1z"/>
			</g>
			<g>
				<g>
					<path class="st17" d="M418.4,301c0-3.3-2.8-5.8-6-5.5c-3.6,0.3-8,0.6-11.4,0.6c-3.3,0-7.8-0.3-11.4-0.6c-3.2-0.3-6,2.3-6,5.5
						s2.8,5.8,6,5.5c3.6-0.3,8-0.6,11.4-0.6c3.3,0,7.8,0.3,11.4,0.6C415.6,306.8,418.4,304.2,418.4,301z"/>
					<ellipse class="st17" cx="412.7" cy="301" rx="0.9" ry="0.9"/>
				</g>
			</g>
		</g>
		<g>
			<g>
				<rect x="443.9" y="201.5" class="st11" width="14.1" height="9.4"/>
				<path class="st12" d="M457.5,202v8.4h-13.1V202H457.5 M458.5,201h-15.1v10.4h15.1V201L458.5,201z"/>
			</g>
			<g>
				<path class="st11" d="M451,209.1c-1.6,0-2.9-1.3-2.9-2.9s1.3-2.9,2.9-2.9s2.9,1.3,2.9,2.9S452.5,209.1,451,209.1z"/>
				<path class="st12" d="M451,203.8c1.3,0,2.4,1.1,2.4,2.4s-1.1,2.4-2.4,2.4s-2.4-1.1-2.4-2.4S449.7,203.8,451,203.8 M451,202.8
					c-1.9,0-3.4,1.5-3.4,3.4s1.5,3.4,3.4,3.4s3.4-1.5,3.4-3.4C454.3,204.3,452.8,202.8,451,202.8L451,202.8z"/>
			</g>
		</g>
		<g>
			<path class="st13" d="M273,322.5h31.8v23.2H273V322.5z"/>
			<path class="st13" d="M270.9,327.7h-0.5c-3.5,0-6.4,2.9-6.4,6.4s2.9,6.4,6.4,6.4h0.5V327.7z"/>
			<path class="st13" d="M273,329.3h-2.4c-2.7,0-4.8,2.2-4.8,4.8c0,2.7,2.2,4.8,4.8,4.8h2.4V329.3z"/>
			<path class="st13" d="M306.9,327.7h0.5c3.5,0,6.4,2.9,6.4,6.4s-2.9,6.4-6.4,6.4h-0.5V327.7z"/>
			<path class="st13" d="M304.8,329.3h2.4c2.7,0,4.8,2.2,4.8,4.8c0,2.7-2.2,4.8-4.8,4.8h-2.4V329.3z"/>
			<path class="st13" d="M295.3,347.7v0.5c0,3.5-2.9,6.4-6.4,6.4s-6.4-2.9-6.4-6.4v-0.5H295.3z"/>
			<path class="st13" d="M293.7,345.6v2.4c0,2.7-2.2,4.8-4.8,4.8c-2.7,0-4.8-2.2-4.8-4.8v-2.4H293.7z"/>
			<path class="st13" d="M295.3,320.4v-0.5c0-3.5-2.9-6.4-6.4-6.4s-6.4,2.9-6.4,6.4v0.5H295.3z"/>
			<path class="st13" d="M293.7,322.5v-2.4c0-2.7-2.2-4.8-4.8-4.8c-2.7,0-4.8,2.2-4.8,4.8v2.4H293.7z"/>
		</g>
		<g>
			<path class="st13" d="M269.2,88.8h-10.4l-1.4-9.5h13.2L269.2,88.8z"/>
			<g>
				<rect x="234" y="65.1" class="st11" width="47" height="15.1"/>
				<path class="st12" d="M280.5,65.6v14.1h-46V65.6H280.5 M281.5,64.6h-48v16.1h48V64.6L281.5,64.6z"/>
			</g>
			<path class="st15" d="M267.4,76.2h-8 M268.1,77.8h-9.4V75h9.4V77.8z"/>
			<path class="st13" d="M272,77.9L272,77.9c-0.4,0-0.7-0.3-0.7-0.7v-0.9c0-0.4,0.3-0.7,0.7-0.7l0,0c0.4,0,0.7,0.3,0.7,0.7v0.9
				C272.8,77.6,272.4,77.9,272,77.9z"/>
			<path class="st13" d="M265.8,70.4c0,1.3-1.1,2.4-2.4,2.4s-2.4-1.1-2.4-2.4V68h4.7L265.8,70.4z"/>
			
				<rect x="263" y="56.1" transform="matrix(1.695900e-03 -1 1 1.695900e-03 194.5712 331.7874)" class="st18" width="0.9" height="24.6"/>
			<g>
				<rect x="259.1" y="80.7" class="st11" width="9.7" height="8.1"/>
				<path class="st12" d="M268.3,81.2v7.1h-8.7v-7.1H268.3 M269.3,80.2h-10.7v9.1h10.7V80.2L269.3,80.2z"/>
			</g>
			<g>
				<rect x="258.8" y="88.9" class="st11" width="10.3" height="1.8"/>
				<path class="st12" d="M268.6,89.4v0.8h-9.3v-0.8H268.6 M269.6,88.4h-11.3v2.8h11.3V88.4L269.6,88.4z"/>
			</g>
		</g>
		<g id="Sink_2_1_">
			<g id="Rectangle_16_x5F_11_1_">
				<rect x="380.4" y="264.4" class="st11" width="17.8" height="10.9"/>
				<path class="st12" d="M397.7,264.9v9.9h-16.8v-9.9H397.7 M398.7,263.9h-18.8v11.9h18.8V263.9L398.7,263.9z"/>
			</g>
			<path id="Rectangle_19_x5F_5_1_" class="st13" d="M383.1,269.9L383.1,269.9c0,2,1.6,3.6,3.6,3.6h5.2c2,0,3.6-1.6,3.6-3.6l0,0
				c0-2-1.6-3.6-3.6-3.6h-5.2C384.7,266.2,383.1,267.9,383.1,269.9z"/>
			<circle id="Ellipse_7_x5F_2_1_" class="st13" cx="389.3" cy="268.8" r="0.9"/>
		</g>
		<g id="Sink_2_2_">
			<g id="Rectangle_16_x5F_11_2_">
				<rect x="426.1" y="201.5" class="st11" width="17.8" height="10.9"/>
				<path class="st12" d="M443.4,202v9.9h-16.8V202H443.4 M444.4,201h-18.8v11.9h18.8V201L444.4,201z"/>
			</g>
			<path id="Rectangle_19_x5F_5_2_" class="st13" d="M428.7,207L428.7,207c0,2,1.6,3.6,3.6,3.6h5.2c2,0,3.6-1.6,3.6-3.6l0,0
				c0-2-1.6-3.6-3.6-3.6h-5.2C430.4,203.3,428.7,204.9,428.7,207z"/>
			<circle id="Ellipse_7_x5F_2_2_" class="st13" cx="435" cy="205.9" r="0.9"/>
		</g>
		<g id="Toilet_2_">
			<g id="Rectangle_21_2_">
				<rect x="476.6" y="208.9" class="st11" width="2.9" height="10.6"/>
				<path class="st12" d="M479,209.4v9.6h-1.9v-9.6H479 M480,208.4h-3.9V220h3.9V208.4L480,208.4z"/>
			</g>
			<path id="Rectangle_19_x5F_2_2_" class="st13" d="M469.3,218c-2.2,0.1-4.1-1.6-4.1-3.8l0,0c0-2.2,1.9-3.9,4.1-3.8l7,0.5v6.6
				L469.3,218z"/>
			<path id="Rectangle_18_x5F_13_2_" class="st13" d="M469.8,216.5c-1.4,0.1-2.6-1-2.6-2.3l0,0c0-1.4,1.2-2.5,2.6-2.3l3.7,0.3v4
				L469.8,216.5z"/>
			<ellipse id="Ellipse_6_x5F_2_2_" class="st13" cx="471.4" cy="214.2" rx="0.9" ry="0.9"/>
		</g>
		<g id="Sink_2_3_">
			<g id="Rectangle_16_x5F_11_4_">
				<rect x="411" y="394.8" class="st11" width="10.9" height="17.8"/>
				<path class="st12" d="M421.3,395.3v16.8h-9.9v-16.8H421.3 M422.3,394.3h-11.9v18.8h11.9V394.3L422.3,394.3z"/>
			</g>
			<path id="Rectangle_19_x5F_5_3_" class="st13" d="M416.4,409.9L416.4,409.9c-2,0-3.6-1.6-3.6-3.6v-5.2c0-2,1.6-3.6,3.6-3.6l0,0
				c2,0,3.6,1.6,3.6,3.6v5.2C420,408.3,418.4,409.9,416.4,409.9z"/>
			<circle id="Ellipse_7_x5F_2_3_" class="st13" cx="417.5" cy="403.7" r="0.9"/>
		</g>
		<g id="Toilet_4_">
			<g id="Rectangle_21_5_">
				<rect x="387.6" y="409.6" class="st11" width="10.6" height="2.9"/>
				<path class="st12" d="M397.7,410.1v1.9h-9.6v-1.9H397.7 M398.7,409.1h-11.6v3.9h11.6V409.1L398.7,409.1z"/>
			</g>
			<path id="Rectangle_19_x5F_2_4_" class="st13" d="M389.1,402.4c-0.1-2.2,1.6-4.1,3.8-4.1l0,0c2.2,0,3.9,1.9,3.8,4.1l-0.5,7h-6.6
				L389.1,402.4z"/>
			<path id="Rectangle_18_x5F_13_4_" class="st13" d="M390.6,402.8c-0.1-1.4,1-2.6,2.3-2.6l0,0c1.4,0,2.5,1.2,2.3,2.6l-0.3,3.7h-4
				L390.6,402.8z"/>
			<ellipse id="Ellipse_6_x5F_2_4_" class="st13" cx="392.9" cy="404.4" rx="0.9" ry="0.9"/>
		</g>
		<g id="Toilet_1_">
			<g id="Rectangle_21_1_">
				<rect x="418.9" y="265.8" class="st11" width="2.9" height="10.6"/>
				<path class="st12" d="M421.3,266.3v9.6h-1.9v-9.6H421.3 M422.3,265.3h-3.9v11.6h3.9V265.3L422.3,265.3z"/>
			</g>
			<path id="Rectangle_19_x5F_2_1_" class="st13" d="M411.6,274.9c-2.2,0.1-4.1-1.6-4.1-3.8l0,0c0-2.2,1.9-3.9,4.1-3.8l7,0.5v6.6
				L411.6,274.9z"/>
			<path id="Rectangle_18_x5F_13_1_" class="st13" d="M412.1,273.5c-1.4,0.1-2.6-1-2.6-2.3l0,0c0-1.4,1.2-2.5,2.6-2.3l3.7,0.3v4
				L412.1,273.5z"/>
			<ellipse id="Ellipse_6_x5F_2_1_" class="st13" cx="413.7" cy="271.1" rx="0.9" ry="0.9"/>
		</g>
		<g id="TV">
			<g id="Rectangle_16">
				<rect x="299.4" y="78.2" class="st11" width="34.9" height="1.8"/>
				<path class="st12" d="M333.8,78.7v0.8h-33.9v-0.8H333.8 M334.8,77.7h-35.9v2.8h35.9V77.7L334.8,77.7z"/>
			</g>
			<g id="Rectangle_15">
				<rect x="299.4" y="72" class="st11" width="34.9" height="6.1"/>
				<path class="st12" d="M333.8,72.5v5.1h-33.9v-5.1H333.8 M334.8,71.5h-35.9v7.1h35.9V71.5L334.8,71.5z"/>
			</g>
			<g id="Rectangle_17">
				<rect x="304.5" y="73.6" class="st11" width="24.6" height="1.8"/>
				<path class="st12" d="M328.6,74.1V75H305v-0.8L328.6,74.1 M329.6,73.1H304V76h25.6V73.1L329.6,73.1z"/>
			</g>
			<path id="Rectangle_18_x5F_2" class="st13" d="M311.8,73.7h10.1l-0.9-1.8h-8.3L311.8,73.7z"/>
		</g>
		<g id="Kitchen">
			<g id="Rectangle_24">
				<rect x="242.8" y="398.5" class="st11" width="127.3" height="14.1"/>
				<path class="st12" d="M369.6,399v13.1H243.3V399H369.6 M370.6,398H242.3v15.1h128.3V398L370.6,398z"/>
			</g>
			<g id="Rectangle_27_1_">
				<rect x="345.8" y="398.5" class="st11" width="14.1" height="14.1"/>
				<path class="st12" d="M359.4,399v13.1h-13.1V399H359.4 M360.4,398h-15.1v15.1h15.1V398L360.4,398z"/>
			</g>
			<g id="Sink_3">
				<rect id="Rectangle_28_x5F_2" x="271.8" y="399.9" class="st13" width="17.9" height="11.3"/>
				<path id="Rectangle_29_x5F_2" class="st13" d="M278.8,405.5L278.8,405.5c0-2.3,1.9-4.2,4.2-4.2h0.9c2.3,0,4.2,1.9,4.2,4.2l0,0
					c0,2.3-1.9,4.2-4.2,4.2H283C280.7,409.8,278.8,407.9,278.8,405.5z"/>
				<ellipse id="Ellipse_7_x5F_3" class="st13" cx="283.5" cy="407.4" rx="0.9" ry="0.9"/>
				<line class="st15" x1="272.7" y1="409.3" x2="277.4" y2="409.3"/>
				<line class="st15" x1="272.7" y1="407.4" x2="277.4" y2="407.4"/>
				<line class="st15" x1="272.7" y1="405.5" x2="277.4" y2="405.5"/>
				<line class="st15" x1="272.7" y1="403.6" x2="277.4" y2="403.6"/>
				<line class="st15" x1="272.7" y1="401.7" x2="277.4" y2="401.7"/>
			</g>
			<g id="Stove_1_">
				<g id="Rectangle_25_1_">
					<rect x="302.2" y="398.5" class="st11" width="13.7" height="14.1"/>
					<path class="st12" d="M315.4,399v13.1h-12.7V399H315.4 M316.4,398h-14.7v15.1h14.7V398L316.4,398z"/>
				</g>
				<g id="Rectangle_28_x5F_3_2_">
					<rect x="302.2" y="410.7" class="st11" width="13.7" height="1.8"/>
					<path class="st12" d="M315.4,411.2v0.8h-12.7v-0.8H315.4 M316.4,410.2h-14.7v2.8h14.7V410.2L316.4,410.2z"/>
				</g>
				<g id="Ellipse_7_x5F_4_1_">
					<circle class="st11" cx="306.2" cy="407.2" r="1.1"/>
					<path class="st12" d="M306.2,406.6c0.3,0,0.6,0.3,0.6,0.6s-0.3,0.6-0.6,0.6s-0.6-0.3-0.6-0.6S305.9,406.6,306.2,406.6
						 M306.2,405.6c-0.9,0-1.6,0.7-1.6,1.6s0.7,1.6,1.6,1.6s1.6-0.7,1.6-1.6S307.1,405.6,306.2,405.6L306.2,405.6z"/>
				</g>
				<g id="Ellipse_9_1_">
					<circle class="st11" cx="306.2" cy="402.4" r="1.5"/>
					<path class="st12" d="M306.2,401.4c0.5,0,1,0.4,1,1s-0.4,1-1,1c-0.5,0-1-0.4-1-1S305.7,401.4,306.2,401.4 M306.2,400.4
						c-1.1,0-2,0.9-2,2s0.9,2,2,2s2-0.9,2-2S307.3,400.4,306.2,400.4L306.2,400.4z"/>
				</g>
				<g id="Ellipse_10_1_">
					<circle class="st11" cx="311.7" cy="407.2" r="1.5"/>
					<path class="st12" d="M311.7,406.2c0.5,0,1,0.4,1,1s-0.4,1-1,1s-1-0.4-1-1S311.2,406.2,311.7,406.2 M311.7,405.2
						c-1.1,0-2,0.9-2,2s0.9,2,2,2s2-0.9,2-2S312.8,405.2,311.7,405.2L311.7,405.2z"/>
				</g>
				<g id="Ellipse_8_1_">
					<circle class="st11" cx="311.7" cy="402" r="1.1"/>
					<path class="st12" d="M311.7,401.4c0.3,0,0.6,0.3,0.6,0.6c0,0.3-0.3,0.6-0.6,0.6s-0.6-0.3-0.6-0.6
						C311.1,401.7,311.4,401.4,311.7,401.4 M311.7,400.4c-0.9,0-1.6,0.7-1.6,1.6s0.7,1.6,1.6,1.6s1.6-0.7,1.6-1.6
						S312.6,400.4,311.7,400.4L311.7,400.4z"/>
				</g>
			</g>
			<path id="Vector_3_1_" class="st15" d="M350,405.5h5.7 M351.4,403l2.9,5 M351.4,408l2.9-5"/>
		</g>
		<g>
			<path class="st13" d="M259.6,289.2c0,0.6-0.5,1.2-1.2,1.2h-11.7v-26.8h12.9V289.2z"/>
			<path class="st13" d="M280.4,275.3c0,0.6-0.5,1.2-1.2,1.2h-18.3c-0.7,0-1.2-0.5-1.2-1.2v-11.8h20.8L280.4,275.3L280.4,275.3z"/>
			<path class="st13" d="M300.4,275.3c0,0.6-0.5,1.2-1.2,1.2h-17.6c-0.6,0-1.2-0.5-1.2-1.2v-11.8h20L300.4,275.3L300.4,275.3z"/>
			<path class="st13" d="M300.4,277.4h4.4v-18.5h-62.7v36h18.6v-4.6h-13.9v-26.8h53.7v13.9H300.4z"/>
		</g>
		<circle class="st13" cx="459.6" cy="89.6" r="7.8"/>
		<g>
			<g>
				<rect x="240.5" y="185.3" class="st11" width="38.5" height="1.8"/>
				<path class="st12" d="M241,185.8h37.5v0.8H241V185.8 M240,184.8v2.8h39.5v-2.8H240L240,184.8z"/>
			</g>
			<g>
				<rect x="240.5" y="172.7" class="st11" width="38.5" height="12.6"/>
				<path class="st12" d="M241,173.2h37.5v11.6H241V173.2 M240,172.2v13.6h39.5v-13.6H240L240,172.2z"/>
			</g>
			<path class="st13" d="M279.2,172.6l-39.1,12.7"/>
		</g>
		<g>
			<g>
				<rect x="240.5" y="155" class="st11" width="46" height="1.8"/>
				<path class="st12" d="M286,155.5v0.8h-45v-0.8H286 M287,154.5h-47v2.8h47V154.5L287,154.5z"/>
			</g>
			<g>
				<rect x="240.5" y="156.8" class="st11" width="46" height="12.6"/>
				<path class="st12" d="M286,157.3v11.6h-45v-11.6H286 M287,156.3h-47v13.6h47V156.3L287,156.3z"/>
			</g>
			<path class="st13" d="M286.7,169.5l-46.5-12.7"/>
		</g>
		<g>
			<g>
				<rect x="242.8" y="236.6" class="st11" width="57" height="1.8"/>
				<path class="st12" d="M299.4,237.1v0.8h-56v-0.8H299.4 M300.4,236.1h-58v2.8h58V236.1L300.4,236.1z"/>
			</g>
			<g>
				<rect x="242.8" y="238.4" class="st11" width="57" height="12.6"/>
				<path class="st12" d="M299.4,238.9v11.6h-56v-11.6H299.4 M300.4,237.9h-58v13.6h58V237.9L300.4,237.9z"/>
			</g>
			<path class="st13" d="M300,251.1l-57.4-12.7"/>
		</g>
		<g>
			<g>
				<rect x="376.7" y="246.7" class="st11" width="35.3" height="1.8"/>
				<path class="st12" d="M411.5,247.2v0.8h-34.3v-0.8H411.5 M412.5,246.2h-36.3v2.8h36.3V246.2L412.5,246.2z"/>
			</g>
			<g>
				<rect x="376.7" y="248.5" class="st11" width="35.3" height="12.6"/>
				<path class="st12" d="M411.5,249v11.6h-34.3V249H411.5 M412.5,248h-36.3v13.6h36.3V248L412.5,248z"/>
			</g>
			<path class="st13" d="M412.2,261.2l-35.9-12.7"/>
		</g>
		<g>
			<g>
				<rect x="376.7" y="325.3" class="st11" width="45.2" height="1.8"/>
				<path class="st12" d="M421.3,325.8v0.8h-44.2v-0.8H421.3 M422.3,324.8h-46.2v2.8h46.2V324.8L422.3,324.8z"/>
			</g>
			<g>
				<rect x="376.7" y="312.7" class="st11" width="45.2" height="12.6"/>
				<path class="st12" d="M377.2,313.2h44.2v11.6h-44.2V313.2 M376.2,312.2v13.6h46.2v-13.6H376.2L376.2,312.2z"/>
			</g>
			<path class="st13" d="M422,312.6l-45.7,12.7"/>
		</g>
		<g>
			<g>
				<rect x="411.7" y="374" class="st11" width="1.8" height="12"/>
				<path class="st12" d="M413,374.5v11h-0.8v-11H413 M414,373.5h-2.8v13h2.8V373.5L414,373.5z"/>
			</g>
			<g>
				<rect x="413.5" y="374" class="st11" width="8.3" height="12"/>
				<path class="st12" d="M414,374.5h7.3v11H414V374.5 M413,373.5v13h9.3v-13H413L413,373.5z"/>
			</g>
			<path class="st13" d="M421.8,386.2l-8.3-12.3"/>
		</g>
		
			<ellipse transform="matrix(0.2298 -0.9732 0.9732 0.2298 8.6924 404.1833)" class="st13" cx="259.7" cy="196.6" rx="7.8" ry="7.8"/>
	</g>
	<g id="street_anchors" class="st19">
		<rect id="street_x5F_anchor_x5F_03" x="521.5" y="235" class="st20" width="10" height="10"/>
		<rect id="street_x5F_anchor_x5F_02" x="188.5" y="235" class="st20" width="10" height="10"/>
		<rect id="street_x5F_anchor_x5F_01_1_" x="355" y="20" class="st20" width="10" height="10"/>
	</g>
</g>
<g id="комнаты">
	<g>
		<g>
			<path class="st10" d="M400.1,361.3c-0.4-0.2-0.8-0.4-1.3-0.4c-0.8,0-1.6,0.7-1.6,2c0.4-0.5,1-0.9,1.7-0.9c1.2,0,1.9,1,1.9,1.9
				c0,1.3-0.9,2.2-2.1,2.2c-1.3,0-2.5-1.1-2.5-3.1c0-2.1,1.3-3.4,2.6-3.4c0.8,0,1.4,0.4,1.8,0.5L400.1,361.3z M397.3,363.7
				c0.2,0.8,0.8,1.3,1.4,1.3c0.6,0,1-0.5,1-1c0-0.4-0.2-0.8-0.9-0.8C398.2,363.1,397.7,363.4,397.3,363.7z"/>
			<path class="st10" d="M402.4,364.4c0.4,0,0.8,0.4,0.8,0.9c0,0.5-0.3,0.9-0.8,0.9c-0.4,0-0.7-0.4-0.7-0.9
				C401.7,364.8,402,364.4,402.4,364.4z"/>
			<path class="st10" d="M408,361.3c-0.4-0.2-0.8-0.4-1.3-0.4c-0.8,0-1.6,0.7-1.6,2c0.4-0.5,1-0.9,1.7-0.9c1.2,0,1.9,1,1.9,1.9
				c0,1.3-0.9,2.2-2.1,2.2c-1.3,0-2.5-1.1-2.5-3.1c0-2.1,1.3-3.4,2.6-3.4c0.8,0,1.4,0.4,1.8,0.5L408,361.3z M405.2,363.7
				c0.2,0.8,0.8,1.3,1.4,1.3c0.6,0,1-0.5,1-1c0-0.4-0.2-0.8-0.9-0.8C406.1,363.1,405.6,363.4,405.2,363.7z"/>
		</g>
	</g>
	<g>
		<g>
			<path class="st10" d="M396.8,139.6c0-1.5,0.9-2.2,2-2.6c0.3-0.1,0.8-0.3,0.8-0.9c0-0.5-0.4-0.6-0.8-0.6c-0.7,0-1.1,0.4-1.6,0.9
				l-0.6-1c0.6-0.6,1.2-1.2,2.1-1.2c0.9,0,1.9,0.5,1.9,1.8c0,1.4-1,1.8-1.8,2.1c-0.7,0.3-1.1,0.6-1.1,1.1v0.1h2.8v1.2h-3.9V139.6z"
				/>
			<path class="st10" d="M403.5,136.8h0.7c0.3,0,0.6-0.2,0.6-0.6c0-0.5-0.4-0.7-0.8-0.7c-0.6,0-1.1,0.4-1.6,1l-0.6-0.9
				c0.5-0.6,1.3-1.3,2.2-1.3c0.8,0,1.9,0.5,1.9,1.8c0,0.5-0.3,0.9-0.5,1.1c0.4,0.2,0.9,0.6,0.9,1.5c0,1.4-1.1,2.2-2.4,2.2
				c-0.9,0-1.7-0.4-2.4-1.3l0.6-1c0.5,0.6,1,1,1.8,1c0.7,0,1.3-0.4,1.3-1c0-0.5-0.5-0.6-0.7-0.6h-0.9V136.8z"/>
			<path class="st10" d="M407.9,138.9c0.4,0,0.8,0.4,0.8,0.9c0,0.5-0.3,0.9-0.8,0.9c-0.4,0-0.7-0.4-0.7-0.9
				C407.2,139.3,407.5,138.9,407.9,138.9z"/>
			<path class="st10" d="M409.6,139.6c0-1.5,0.9-2.2,2-2.6c0.3-0.1,0.8-0.3,0.8-0.9c0-0.5-0.4-0.6-0.8-0.6c-0.7,0-1.1,0.4-1.6,0.9
				l-0.6-1c0.6-0.6,1.2-1.2,2.1-1.2c0.9,0,1.9,0.5,1.9,1.8c0,1.4-1,1.8-1.8,2.1c-0.7,0.3-1.1,0.6-1.1,1.1v0.1h2.8v1.2h-3.9V139.6z"
				/>
		</g>
	</g>
	<g>
		<g>
			<path class="st10" d="M258.3,127.6c0-1.5,0.9-2.2,2-2.6c0.3-0.1,0.8-0.3,0.8-0.9c0-0.5-0.4-0.6-0.8-0.6c-0.7,0-1.1,0.4-1.6,0.9
				l-0.6-1c0.6-0.6,1.2-1.2,2.1-1.2c0.9,0,1.9,0.5,1.9,1.8c0,1.4-1,1.8-1.8,2.1c-0.7,0.3-1.1,0.6-1.1,1.1v0.1h2.8v1.2h-3.9V127.6z"
				/>
			<path class="st10" d="M267.1,123.9c-0.4-0.2-0.8-0.4-1.3-0.4c-0.8,0-1.6,0.7-1.6,2c0.4-0.4,1-0.9,1.7-0.9c1.2,0,1.9,1,1.9,1.9
				c0,1.3-0.9,2.2-2.1,2.2c-1.3,0-2.5-1.1-2.5-3.1c0-2.1,1.3-3.4,2.6-3.4c0.8,0,1.4,0.4,1.8,0.5L267.1,123.9z M264.3,126.3
				c0.2,0.8,0.8,1.3,1.4,1.3c0.6,0,1-0.5,1-1c0-0.4-0.2-0.8-0.9-0.8C265.2,125.7,264.7,126,264.3,126.3z"/>
			<path class="st10" d="M269.4,127c0.4,0,0.8,0.4,0.8,0.9c0,0.5-0.3,0.9-0.8,0.9c-0.4,0-0.7-0.4-0.7-0.9
				C268.7,127.4,269,127,269.4,127z"/>
			<path class="st10" d="M276,127.3h-0.8v1.3h-1.1v-1.3h-3.2v-0.9l3.3-3.9h1v3.7h0.8V127.3z M272.5,126.2h1.6v-2H274
				C273.5,124.9,273,125.6,272.5,126.2L272.5,126.2z"/>
		</g>
	</g>
	<g>
		<g>
			<path class="st10" d="M265.3,214.5l1.4-0.8h1v6.1h-1.1V215l-1,0.6L265.3,214.5z"/>
			<path class="st10" d="M269.6,218.4c0.4,0.2,0.8,0.4,1.3,0.4c0.8,0,1.6-0.7,1.6-1.9c-0.4,0.4-1,0.9-1.7,0.9c-1.2,0-1.9-1-1.9-2
				c0-1.3,0.9-2.2,2.1-2.2c1.3,0,2.5,1.1,2.5,3.1c0,2.1-1.3,3.4-2.6,3.4c-0.8,0-1.4-0.4-1.8-0.5L269.6,218.4z M272.4,215.9
				c-0.2-0.8-0.8-1.3-1.4-1.3c-0.6,0-1,0.5-1,1c0,0.4,0.2,0.8,0.9,0.8C271.4,216.6,272,216.2,272.4,215.9z"/>
			<path class="st10" d="M275.1,218.1c0.4,0,0.8,0.4,0.8,0.9c0,0.5-0.3,0.9-0.8,0.9c-0.4,0-0.7-0.4-0.7-0.9
				C274.4,218.5,274.7,218.1,275.1,218.1z"/>
			<path class="st10" d="M276.8,213.7h4.2v1.2l-2.4,4.9h-1.4l2.5-4.8h-2.9V213.7z"/>
		</g>
	</g>
	<g>
		<g>
			<path class="st10" d="M395.4,336.3c0-1.5,0.9-2.2,2-2.6c0.3-0.1,0.8-0.3,0.8-0.9c0-0.5-0.4-0.6-0.8-0.6c-0.7,0-1.1,0.4-1.6,0.9
				l-0.6-1c0.6-0.6,1.2-1.2,2.1-1.2c0.9,0,1.9,0.5,1.9,1.8c0,1.4-1,1.8-1.8,2.1c-0.7,0.3-1.1,0.6-1.1,1.1v0.1h2.8v1.2h-3.9V336.3z"
				/>
		</g>
	</g>
	<g>
		<g>
			<path class="st10" d="M392.5,281.4h0.7c0.3,0,0.6-0.2,0.6-0.6c0-0.5-0.4-0.7-0.8-0.7c-0.6,0-1.1,0.4-1.6,1l-0.6-0.9
				c0.5-0.6,1.3-1.3,2.2-1.3c0.8,0,1.9,0.5,1.9,1.8c0,0.5-0.3,0.9-0.5,1.1c0.4,0.2,0.9,0.6,0.9,1.5c0,1.4-1.1,2.2-2.4,2.2
				c-0.9,0-1.7-0.4-2.4-1.3l0.6-1c0.5,0.6,1,1,1.8,1c0.7,0,1.3-0.4,1.3-1c0-0.5-0.5-0.6-0.7-0.6h-0.9V281.4z"/>
			<path class="st10" d="M396.9,283.5c0.4,0,0.8,0.4,0.8,0.9c0,0.5-0.3,0.9-0.8,0.9c-0.4,0-0.7-0.4-0.7-0.9
				C396.2,283.9,396.5,283.5,396.9,283.5z"/>
			<path class="st10" d="M398.5,279h4.2v1.2l-2.4,4.9H399l2.5-4.8h-2.9V279z"/>
		</g>
	</g>
	<g>
		<g>
			<path class="st10" d="M445.7,225.6l0.5-1c0.3,0.3,1,0.7,1.9,0.7c0.6,0,1.2-0.3,1.2-1c0-0.6-0.5-0.9-0.9-0.9
				c-0.6,0-1.1,0.3-1.5,0.6l-0.6-0.6v-3.2h3.7v1.2h-2.7v1.4c0.4-0.3,0.7-0.6,1.3-0.6c0.9,0,1.9,0.6,1.9,2c0,1.6-1.2,2.3-2.3,2.3
				C446.9,226.5,446.1,225.9,445.7,225.6z"/>
		</g>
	</g>
	<g>
		<g>
			<path class="st10" d="M397.7,225.4h-0.8v1.3h-1.1v-1.3h-3.2v-0.9l3.3-3.9h1v3.7h0.8V225.4z M394.1,224.3h1.6v-2h-0.1
				C395.2,222.9,394.6,223.6,394.1,224.3L394.1,224.3z"/>
			<path class="st10" d="M399.2,225c0.4,0,0.8,0.4,0.8,0.9c0,0.5-0.3,0.9-0.8,0.9c-0.4,0-0.7-0.4-0.7-0.9
				C398.5,225.4,398.8,225,399.2,225z"/>
			<path class="st10" d="M400.8,225.9l0.5-1c0.3,0.3,1,0.7,1.9,0.7c0.6,0,1.2-0.3,1.2-1c0-0.6-0.5-0.9-0.9-0.9
				c-0.6,0-1.1,0.3-1.5,0.6l-0.6-0.6v-3.2h3.7v1.2h-2.7v1.4c0.4-0.3,0.7-0.6,1.3-0.6c0.9,0,1.9,0.6,1.9,2c0,1.6-1.2,2.3-2.3,2.3
				C401.9,226.9,401.2,226.3,400.8,225.9z"/>
		</g>
	</g>
	<g>
		<g>
			<path class="st10" d="M288.4,374.7l1.4-0.8h1v6.1h-1.1v-4.7l-1,0.6L288.4,374.7z"/>
			<path class="st10" d="M294.5,373.7c1.4,0,2.5,1.4,2.5,3.2c0,1.8-1.2,3.2-2.5,3.2c-1.4,0-2.5-1.4-2.5-3.2
				C292,375.1,293.1,373.7,294.5,373.7z M294.5,379c0.8,0,1.4-0.9,1.4-2c0-1.1-0.7-2-1.4-2c-0.8,0-1.4,0.9-1.4,2
				C293.1,378,293.7,379,294.5,379z"/>
			<path class="st10" d="M298.6,378.4c0.4,0,0.8,0.4,0.8,0.9c0,0.5-0.3,0.9-0.8,0.9c-0.4,0-0.7-0.4-0.7-0.9
				C297.9,378.8,298.2,378.4,298.6,378.4z"/>
			<path class="st10" d="M300.3,378.2c0-0.8,0.4-1.4,1-1.6c-0.4-0.2-0.7-0.6-0.7-1.2c0-1.1,1.2-1.7,2.1-1.7c0.9,0,2.1,0.5,2.1,1.7
				c0,0.6-0.2,1-0.7,1.2c0.5,0.2,1,0.8,1,1.6c0,1.3-1.1,2-2.3,2C301.4,380.2,300.3,379.5,300.3,378.2z M303.8,378.1
				c0-0.6-0.6-0.9-1.2-0.9c-0.5,0-1.2,0.3-1.2,0.9c0,0.6,0.6,0.9,1.2,0.9C303.2,379,303.8,378.7,303.8,378.1z M303.5,375.5
				c0-0.5-0.5-0.7-0.9-0.7c-0.4,0-0.9,0.2-0.9,0.7c0,0.4,0.3,0.6,0.9,0.6C303.2,376.2,303.5,376,303.5,375.5z"/>
		</g>
	</g>
	<g>
		<g>
			<path class="st10" d="M305.9,301.3l1.4-0.8h1v6.1h-1.1v-4.7l-1,0.6L305.9,301.3z"/>
			<path class="st10" d="M310.1,305.2c0.4,0.2,0.8,0.4,1.3,0.4c0.8,0,1.6-0.7,1.6-1.9c-0.4,0.4-1,0.9-1.7,0.9c-1.2,0-1.9-1-1.9-2
				c0-1.3,0.9-2.2,2.1-2.2c1.3,0,2.5,1.1,2.5,3.1c0,2.1-1.3,3.4-2.6,3.4c-0.8,0-1.4-0.4-1.8-0.5L310.1,305.2z M312.9,302.7
				c-0.2-0.8-0.8-1.3-1.4-1.3c-0.6,0-1,0.5-1,1c0,0.4,0.2,0.8,0.9,0.8C312,303.3,312.5,303,312.9,302.7z"/>
			<path class="st10" d="M315.7,304.9c0.4,0,0.8,0.4,0.8,0.9c0,0.5-0.3,0.9-0.8,0.9c-0.4,0-0.7-0.4-0.7-0.9
				C315,305.3,315.3,304.9,315.7,304.9z"/>
			<path class="st10" d="M317.3,300.4h4.2v1.2l-2.4,4.9h-1.4l2.5-4.8h-2.9V300.4z"/>
		</g>
	</g>
</g>
</svg>
