<?xml version="1.0" encoding="utf-8"?>
<!-- Generator: Adobe Illustrator 26.0.3, SVG Export Plug-In . SVG Version: 6.00 Build 0)  -->
<svg version="1.1" xmlns="http://www.w3.org/2000/svg" xmlns:xlink="http://www.w3.org/1999/xlink" x="0px" y="0px"
	 viewBox="0 0 720 480" style="enable-background:new 0 0 720 480;" xml:space="preserve">
<style type="text/css">
	.st0{fill:#DBD4CA;}
	.st1{opacity:0.3;}
	.st2{opacity:0.7;fill:#C49F8A;enable-background:new    ;}
	.st3{fill:#C49F8A;}
	.st4{fill:none;stroke:#565440;}
	.st5{fill:#565440;}
	.st6{fill:#E9E4DC;}
	.st7{fill:#E9E4DC;stroke:#C49F8A;}
	.st8{fill:#E9E4DC;stroke:#C49F8A;stroke-miterlimit:3.9998;}
	.st9{fill:none;stroke:#C49F8A;}
	.st10{fill:#E9E4DC;stroke:#C49F8A;stroke-linejoin:round;}
	.st11{fill:#E9E4DC;stroke:#C49F8A;stroke-width:1;stroke-miterlimit:4;}
	.st12{opacity:0;}
	.st13{fill:none;}
</style>
<g id="_x31__x5F_2">
	<rect id="Floor" x="152.5" y="60" class="st0" width="425" height="360"/>
	<g id="Wet_Floor_1_">
		<g class="st1">
			<rect x="450.7" y="67.2" class="st2" width="117.6" height="172.8"/>
		</g>
		<path class="st3" d="M452.1,240h1.4l3.4-3.4l3.4,3.4h1.4l-4.1-4.1l9.8-9.8l9.7,9.7L473,240h1.4l3.4-3.4l3.4,3.4h1.4l-4.2-4.2
			l9.7-9.7l9.8,9.8L494,240h1.4l3.4-3.4l3.4,3.4h1.4l-4.1-4.1l9.8-9.8l9.8,9.8L515,240h1.4l3.4-3.4l3.4,3.4h1.4l-4.1-4.1l9.8-9.8
			l9.8,9.8L536,240h1.4l3.4-3.4l3.4,3.4h1.4l-4.1-4.1l9.8-9.8l9.7,9.7l-4.2,4.2h1.4l3.4-3.4l3.4,3.4h1.4l-4.2-4.2l5.9-5.9v-1.4
			l-6.6,6.6l-9.7-9.7l9.7-9.7l6.6,6.6v-1.4l-5.9-5.9l5.9-5.9v-1.4l-6.6,6.6l-9.8-9.8l9.8-9.8l6.6,6.6v-1.4l-5.9-5.9l5.9-5.9v-1.4
			l-6.6,6.6l-9.8-9.8l10-10l6.4,6.4v-1.4l-5.7-5.7l5.7-5.7v-1.4l-6.4,6.4l-9.8-9.8l9.8-9.8l6.4,6.4v-1.4l-5.7-5.7l5.7-5.7v-1.4
			l-6.4,6.4l-9.7-9.7l9.7-9.7l6.4,6.4v-1.4l-5.7-5.7l5.7-5.7v-1.4l-6.4,6.4l-9.8-9.8l9.8-9.8l6.4,6.4v-1.4l-5.7-5.7l5.7-5.7v-1.4
			l-6.4,6.4l-10-10l9.8-9.8l6.6,6.6v-1.4l-5.9-5.9l5.9-5.9v-1.4l-6.6,6.6l-9.8-9.8l9.7-9.7l6.7,6.7v-1.4l-6-6l0,0l-0.7-0.7l0,0l0,0
			l-0.7,0.7l0,0l-9.7,9.7l-9.7-9.7l0,0l-0.7-0.7l0,0l0,0l-0.7,0.7l0,0l-9.8,9.8l-9.8-9.8l0,0l-0.7-0.7l0,0l0,0l-0.7,0.7l0,0
			l-9.8,9.8l-9.8-9.8l0,0l-0.7-0.7l0,0l0,0l-0.7,0.7l0,0l-9.7,9.7l-9.7-9.7l0,0l-0.7-0.7l0,0l0,0l-0.7,0.7l0,0l-9.8,9.8l-9.8-9.8
			l0,0l-0.7-0.7l0,0l0,0l-0.7,0.7l0,0l-5.6,5.6v1.4l6.3-6.3l9.8,9.8l-10,10l-6.1-6.1v1.4l5.4,5.4l-5.4,5.4v1.4l6.1-6.1l9.7,9.7
			l-9.8,9.8l-6-6v1.4l5.3,5.3l-5.3,5.3v1.4l6-6l9.8,9.8l-9.7,9.7l-6.1-6.1v1.4l5.4,5.4l-5.4,5.4v1.4l6.1-6.1l9.8,9.8l-9.8,9.8
			l-6.1-6.1v1.4l5.4,5.4l-5.4,5.4v1.4l6.1-6.1l9.7,9.7l-9.8,9.8l-6-6v1.4l5.3,5.3l-5.3,5.3v1.4l6-6l9.8,9.8l-9.8,9.8l-6-6v1.4
			l5.3,5.3l-5.3,5.3v1.4l6-6l10,10l-9.7,9.7l-6.3-6.3v1.4l5.6,5.6l-5.6,5.6v1.4l6.3-6.3l9.8,9.8l-9.8,9.8l-6.3-6.3v1.4l5.6,5.6
			L452.1,240z M477.8,235.1l-9.7-9.7l9.7-9.7l9.7,9.7L477.8,235.1z M509.7,141.4l10-10l10,10l-10,10L509.7,141.4z M529.5,162.6
			l-9.8,9.8l-9.8-9.8l9.8-9.8L529.5,162.6z M519,152.1l-9.8,9.8l-10-10l9.8-9.8L519,152.1z M498.5,151.2l-9.8-9.8l9.8-9.8l9.8,9.8
			L498.5,151.2z M508.5,162.6l-9.7,9.7l-10-10l9.7-9.7L508.5,162.6z M508.6,183.5l-9.8,9.8l-9.8-9.8l9.8-9.8L508.6,183.5z
			 M499.5,173l9.7-9.7l9.8,9.8l-9.7,9.7L499.5,173z M519.7,173.8l9.7,9.7l-9.7,9.7l-9.7-9.7L519.7,173.8z M520.4,173.1l9.8-9.8
			l9.7,9.7l-9.8,9.8L520.4,173.1z M520.4,152.1l10-10l9.8,9.8l-10,10L520.4,152.1z M520.4,130.7l9.8-9.8l10,10l-9.8,9.8L520.4,130.7
			z M519.7,130l-9.8-9.8l9.8-9.8l9.8,9.8L519.7,130z M519,130.7l-10,10l-9.8-9.8l10-10L519,130.7z M498.5,130.2l-9.7-9.7l10-10
			l9.7,9.7L498.5,130.2z M497.8,130.9l-9.8,9.8l-9.7-9.7l9.8-9.8L497.8,130.9z M497.8,151.9l-9.7,9.7l-9.8-9.8l9.7-9.7L497.8,151.9z
			 M498.1,173l-9.8,9.8l-10-10l9.8-9.8L498.1,173z M498.1,194l-9.8,9.8l-9.8-9.8l9.8-9.8L498.1,194z M498.8,194.7l9.7,9.7l-9.8,9.8
			l-9.7-9.7L498.8,194.7z M499.5,194l9.8-9.8l9.7,9.7l-9.8,9.8L499.5,194z M519.7,194.6l9.8,9.8l-9.8,9.8l-9.8-9.8L519.7,194.6z
			 M520.4,193.9l9.7-9.7l9.8,9.8l-9.7,9.7L520.4,193.9z M540.7,194.7l9.8,9.8l-9.7,9.7l-9.8-9.8L540.7,194.7z M530.9,183.5l9.8-9.8
			l9.8,9.8l-9.8,9.8L530.9,183.5z M530.9,162.6l10-10l9.7,9.7l-10,10L530.9,162.6z M531.1,141.4l9.8-9.8l9.8,9.8l-9.8,9.8
			L531.1,141.4z M530.9,120.2l9.7-9.7l10,10l-9.7,9.7L530.9,120.2z M530.9,99.3l9.8-9.8l9.8,9.8l-9.8,9.8L530.9,99.3z M540,109.8
			l-9.7,9.7l-9.8-9.8l9.7-9.7L540,109.8z M519.7,109l-9.7-9.7l9.7-9.7l9.7,9.7L519.7,109z M519,109.7l-9.8,9.8l-9.7-9.7l9.8-9.8
			L519,109.7z M498.8,109.1l-9.8-9.8l9.8-9.8l9.8,9.8L498.8,109.1z M498.1,109.8l-10,10l-9.8-9.8l10-10L498.1,109.8z M477.6,109.3
			l-9.8-9.8l10-10l9.8,9.8L477.6,109.3z M487.4,120.5l-9.8,9.8l-9.8-9.8l9.8-9.8L487.4,120.5z M487.3,141.4l-9.7,9.7l-9.7-9.7
			l9.7-9.7L487.3,141.4z M487.4,162.3l-9.8,9.8l-9.8-9.8l9.8-9.8L487.4,162.3z M487.6,183.5l-9.8,9.8l-10-10l9.8-9.8L487.6,183.5z
			 M487.6,204.5l-9.8,9.8l-9.8-9.8l9.8-9.8L487.6,204.5z M478.5,215l9.8-9.8l9.7,9.7l-9.8,9.8L478.5,215z M498.7,235.2l-9.8-9.8
			l9.8-9.8l9.8,9.8L498.7,235.2z M499.4,214.9l9.8-9.8l9.8,9.8l-9.8,9.8L499.4,214.9z M519.7,235.2l-9.8-9.8l9.8-9.8l9.8,9.8
			L519.7,235.2z M520.4,214.9l9.8-9.8l9.8,9.8l-9.8,9.8L520.4,214.9z M540.7,235.2l-9.8-9.8l9.8-9.8l9.8,9.8L540.7,235.2z M561,215
			l-9.7,9.7l-9.8-9.8l9.7-9.7L561,215z M561,194l-9.8,9.8l-9.8-9.8l9.8-9.8L561,194z M561.1,172.8l-10,10l-9.8-9.8l10-10
			L561.1,172.8z M561.1,151.8l-9.8,9.8l-9.7-9.7l9.8-9.8L561.1,151.8z M561.1,131l-9.7,9.7l-9.8-9.8l9.7-9.7L561.1,131z M561.1,110
			l-9.8,9.8l-10-10l9.8-9.8L561.1,110z M560.9,88.8l-9.8,9.8l-9.8-9.8l9.8-9.8L560.9,88.8z M540.7,68.6l9.7,9.7l-9.8,9.8l-9.7-9.7
			L540.7,68.6z M540,88.8l-9.8,9.8l-9.7-9.7l9.8-9.8L540,88.8z M519.7,68.6l9.8,9.8l-9.8,9.8l-9.8-9.8L519.7,68.6z M519,88.9
			l-9.7,9.7l-9.8-9.8l9.7-9.7L519,88.9z M498.8,68.6l9.8,9.8l-9.7,9.7l-9.8-9.8L498.8,68.6z M498.1,88.8l-9.8,9.8l-9.8-9.8l9.8-9.8
			L498.1,88.8z M477.9,68.6l9.7,9.7l-9.8,9.8l-9.7-9.7L477.9,68.6z M457.4,89.1l10-10l9.7,9.7l-10,10L457.4,89.1z M457.3,110
			l9.8-9.8l9.8,9.8l-9.8,9.8L457.3,110z M457.4,130.9l9.7-9.7l9.8,9.8l-9.7,9.7L457.4,130.9z M457.4,151.9l9.8-9.8l9.7,9.7l-9.8,9.8
			L457.4,151.9z M457.3,172.8l9.8-9.8l9.8,9.8l-9.8,9.8L457.3,172.8z M457.3,193.8l9.8-9.8l10,10l-9.8,9.8L457.3,193.8z
			 M457.6,214.9l9.7-9.7l9.8,9.8l-9.7,9.7L457.6,214.9z"/>
	</g>
	<path id="Windows_1_" class="st4" d="M145,65h7.5v252.5H145V65z"/>
	<g id="Walls">
		<polygon class="st5" points="167.5,240 368.1,240 368.1,235 167.5,235 167.5,209.8 142.5,209.8 142.5,246.4 167.5,246.4 		"/>
		<path class="st5" d="M562.5,388h-17.7h-5v5v12h-81.5v-91.4h-5V405H172.6v-38.8h-5.1v-52.6h-25v52.6V377v43h18.8h11.3h404.9v-15
			v-95.9h-15V388z M544.8,405v-12h17.7v12H544.8z"/>
		<path class="st5" d="M142.5,60v15v8v8v46.7h25V91h5.1V75h273.6v160h-38.1v5h38.1h5h5.9v-5h-5.9V75H547v15.3h2.2h2.8h10.5V235
			h-65.7v5h65.7v19.1h15V75V60H142.5z M562.5,85.3H552V75h10.5V85.3z"/>
	</g>
	<path id="Doors_1_" class="st4" d="M368.1,235c0-5.5,1-10,3-15s5-9.5,8.5-13c3.5-4,8-7,13-9s10-3,15.5-3v40 M497.1,235
		c0-5.5-1-10-3-15s-5-9.5-8.5-13c-3.5-4-8-7-13-9s-10-3-15.5-3v40 M577.5,259.1c6.5,0,12.5,1.5,18.5,4s12,6,16.5,11
		c4.5,4.5,8.5,10,11,16s4,12.5,4,19h-50"/>
	<g id="Furniture_2_">
		<g>
			<rect x="541.6" y="115.2" class="st6" width="20.5" height="29.5"/>
			<path class="st3" d="M561.5,115.7v28.5H542v-28.5H561.5 M562.5,114.7H541v30.5h21.5V114.7L562.5,114.7z"/>
		</g>
		<g>
			<g>
				<rect x="192.9" y="388.2" class="st6" width="76.1" height="4.4"/>
				<path class="st3" d="M268.5,388.7v3.4h-75.1v-3.4H268.5 M269.5,387.7h-77.1v5.4h77.1V387.7L269.5,387.7z"/>
			</g>
			<g>
				<rect x="192.9" y="391.8" class="st6" width="76.1" height="12.7"/>
				<path class="st3" d="M268.5,392.3V404h-75.1v-11.7H268.5 M269.5,391.3h-77.1V405h77.1V391.3L269.5,391.3z"/>
			</g>
			<rect x="204.4" y="399.3" class="st7" width="54.5" height="2.4"/>
			<path class="st7" d="M220.1,401.7h23.1l-2.1,2.9h-18.9L220.1,401.7z"/>
		</g>
		<g>
			<g>
				<rect x="254.2" y="218.2" class="st6" width="76.1" height="4.4"/>
				<path class="st3" d="M329.8,218.7v3.4h-75.1v-3.4H329.8 M330.8,217.7h-77.1v5.4h77.1V217.7L330.8,217.7z"/>
			</g>
			<g>
				<rect x="254.2" y="221.8" class="st6" width="76.1" height="12.7"/>
				<path class="st3" d="M329.8,222.3V234h-75.1v-11.7H329.8 M330.8,221.3h-77.1V235h77.1V221.3L330.8,221.3z"/>
			</g>
			<rect x="265.7" y="229.3" class="st7" width="54.5" height="2.4"/>
			<path class="st7" d="M281.4,231.7h23.1l-2.1,2.9h-18.9L281.4,231.7z"/>
		</g>
		<g>
			<g>
				<rect x="252.1" y="75.5" class="st6" width="81.5" height="98.2"/>
				<path class="st3" d="M252.6,76h80.5v97.2h-80.5V76 M251.6,75v99.2h82.5V75H251.6L251.6,75z"/>
			</g>
			<rect x="294.9" y="82.1" class="st7" width="32.2" height="24.5"/>
			<rect x="258.7" y="82.1" class="st7" width="32.2" height="24.5"/>
			<polygon class="st8" points="323.2,96.6 299.9,90.3 293.6,114 316.9,120.3 			"/>
			<polygon class="st8" points="292,114 285.7,90.3 262.4,96.6 268.7,120.3 			"/>
			<g>
				<polygon class="st6" points="252.1,174.7 252.1,96.2 284.6,94.2 333.6,101.4 333.6,174.7 				"/>
				<path class="st3" d="M284.6,94.7l48.5,7.2v72.3h-80.5V97.4v-0.6L284.6,94.7 M284.6,93.7l-33,2.1v1.6v77.8h82.5v-73.6V101
					L284.6,93.7L284.6,93.7z"/>
			</g>
			<polyline class="st9" points="252.7,98.3 284.9,98.3 333.2,102.4 			"/>
		</g>
		<g>
			<rect x="322.8" y="337.1" class="st7" width="44.9" height="67.5"/>
			<rect x="335.6" y="337.1" class="st7" width="5" height="67.5"/>
		</g>
		<circle class="st7" cx="306.2" cy="347.3" r="10.6"/>
		<circle class="st7" cx="306.2" cy="374.3" r="10.6"/>
		<circle class="st7" cx="344.6" cy="322.1" r="10.6"/>
		<g id="Toilet_2_">
			<g id="Rectangle_21_2_">
				<rect x="546.3" y="163.9" class="st6" width="7.5" height="21.9"/>
				<path class="st3" d="M553.3,164.4v20.9h-6.5v-20.9H553.3 M554.3,163.4h-8.5v22.9h8.5V163.4L554.3,163.4z"/>
			</g>
			<path id="Rectangle_19_x5F_2_2_" class="st7" d="M531.3,166.7c-4.7-0.3-8.7,3.4-8.7,8.2l0,0c0,4.7,4,8.5,8.7,8.2l15-1v-14.3
				L531.3,166.7z"/>
			<path id="Rectangle_18_x5F_13_2_" class="st7" d="M531.6,168.4c-3.8-0.3-7.1,2.7-7.1,6.5l0,0c0,3.8,3.3,6.9,7.1,6.5l10.4-0.9
				v-11.1L531.6,168.4z"/>
			<ellipse id="Ellipse_6_x5F_2_2_" class="st7" cx="537.6" cy="174.9" rx="1.6" ry="1.6"/>
		</g>
		<g>
			<path class="st7" d="M232,275.3c0,1.5-1.2,2.7-2.7,2.7H189c-1.5,0-2.7-1.2-2.7-2.7v-26.5H232V275.3z"/>
			<path class="st7" d="M275.6,275.3c0,1.5-1.2,2.7-2.7,2.7h-38.3c-1.5,0-2.7-1.2-2.7-2.7v-26.5h43.7V275.3z"/>
			<polygon class="st7" points="275.6,280.2 275.6,248.9 230.9,248.9 186.2,248.9 186.2,280.2 177.8,280.2 177.8,240.4 284,240.4 
				284,280.2 			"/>
		</g>
		<g>
			<rect x="367.7" y="373.7" class="st6" width="57" height="30.8"/>
			<path class="st3" d="M424.3,374.2V404h-56v-29.8H424.3 M425.3,373.2h-58V405h58V373.2L425.3,373.2z"/>
		</g>
		<g id="Stove">
			<g id="Rectangle_25">
				<rect x="370.9" y="373.7" class="st6" width="30" height="30.8"/>
				<path class="st3" d="M400.4,374.2V404h-29v-29.8H400.4 M401.4,373.2h-31V405h31V373.2L401.4,373.2z"/>
			</g>
			<g id="Rectangle_28_x5F_3">
				<rect x="370.9" y="402.1" class="st6" width="30" height="2.5"/>
				<path class="st3" d="M400.4,402.6v1.5h-29v-1.5H400.4 M401.4,401.6h-31v3.5h31V401.6L401.4,401.6z"/>
			</g>
			<g id="Ellipse_7_x5F_4">
				<circle class="st6" cx="378.4" cy="394.1" r="3.5"/>
				<path class="st3" d="M378.4,391.1c1.6,0,3,1.3,3,3s-1.3,3-3,3c-1.6,0-3-1.3-3-3S376.7,391.1,378.4,391.1 M378.4,390.1
					c-2.2,0-4,1.8-4,4s1.8,4,4,4s4-1.8,4-4S380.6,390.1,378.4,390.1L378.4,390.1z"/>
			</g>
			<g id="Ellipse_9">
				<path class="st6" d="M378.4,386.6c-2.5,0-4.5-2-4.5-4.5s2-4.5,4.5-4.5s4.5,2,4.5,4.5S380.8,386.6,378.4,386.6z"/>
				<path class="st3" d="M378.4,378.2c2.2,0,4,1.8,4,4s-1.8,4-4,4s-4-1.8-4-4S376.2,378.2,378.4,378.2 M378.4,377.2
					c-2.7,0-5,2.2-5,5s2.2,5,5,5c2.7,0,5-2.2,5-5S381.1,377.2,378.4,377.2L378.4,377.2z"/>
			</g>
			<g id="Ellipse_10">
				<path class="st6" d="M392.3,398.6c-2.5,0-4.5-2-4.5-4.5s2-4.5,4.5-4.5s4.5,2,4.5,4.5C396.8,396.5,394.8,398.6,392.3,398.6z"/>
				<path class="st3" d="M392.3,390.1c2.2,0,4,1.8,4,4s-1.8,4-4,4s-4-1.8-4-4S390.1,390.1,392.3,390.1 M392.3,389.1
					c-2.7,0-5,2.2-5,5s2.2,5,5,5c2.7,0,5-2.2,5-5S395,389.1,392.3,389.1L392.3,389.1z"/>
			</g>
			<g id="Ellipse_8">
				<path class="st6" d="M392.3,384.6c-1.9,0-3.5-1.6-3.5-3.5s1.6-3.5,3.5-3.5s3.5,1.6,3.5,3.5S394.2,384.6,392.3,384.6z"/>
				<path class="st3" d="M392.3,378.2c1.6,0,3,1.3,3,3s-1.3,3-3,3s-3-1.3-3-3S390.7,378.2,392.3,378.2 M392.3,377.2
					c-2.2,0-4,1.8-4,4s1.8,4,4,4s4-1.8,4-4S394.5,377.2,392.3,377.2L392.3,377.2z"/>
			</g>
		</g>
		<g id="Rectangle_24_1_">
			<rect x="424.8" y="348.7" class="st6" width="28.1" height="55.8"/>
			<path class="st3" d="M452.3,349.2V404h-27.1v-54.8H452.3 M453.3,348.2h-29.1V405h29.1V348.2L453.3,348.2z"/>
		</g>
		<g id="Rectangle_27">
			<rect x="424.8" y="320.8" class="st6" width="28.1" height="28.1"/>
			<path class="st3" d="M452.3,321.3v27.1h-27.1v-27.1H452.3 M453.3,320.3h-29.1v29.1h29.1V320.3L453.3,320.3z"/>
		</g>
		<g id="Sink_3_1_">
			<rect id="Rectangle_28_x5F_2_1_" x="427.9" y="353" class="st7" width="21.8" height="34.5"/>
			<path id="Rectangle_29_x5F_2_1_" class="st7" d="M438.8,373.8L438.8,373.8c-4.5,0-8.2-3.7-8.2-8.2v-1.8c0-4.5,3.7-8.2,8.2-8.2
				l0,0c4.5,0,8.2,3.7,8.2,8.2v1.8C447,370.2,443.3,373.8,438.8,373.8z"/>
			<ellipse id="Ellipse_7_x5F_3_1_" class="st7" cx="442.4" cy="364.8" rx="1.6" ry="1.6"/>
			<path id="Vector_2_1_" class="st9" d="M447,385.6v-9.1 M444.3,385.6v-9.1 M441.5,385.6v-9.1 M438.8,385.6v-9.1 M436.1,385.6v-9.1
				 M433.4,385.6v-9.1 M430.6,385.6v-9.1"/>
		</g>
		<path id="Vector_3" class="st9" d="M439.5,338.5v-7.3 M436.3,336.7l6.4-3.6 M442.7,336.7l-6.4-3.6"/>
		<g id="Rectangle_28_x5F_3_1_">
			<rect x="424.8" y="320.8" class="st6" width="2.5" height="28.1"/>
			<path class="st3" d="M426.7,321.3v27.1h-1.5v-27.1H426.7 M427.7,320.3h-3.5v29.1h3.5V320.3L427.7,320.3z"/>
		</g>
		<g id="Rectangle_27_1_">
			<rect x="543.2" y="312.7" class="st6" width="18.9" height="28.1"/>
			<path class="st3" d="M561.5,313.2v27.1h-17.9v-27.1H561.5 M562.5,312.2h-19.9v29.1h19.9V312.2L562.5,312.2z"/>
		</g>
		<g id="Rectangle_28_x5F_3_3_">
			<rect x="543.2" y="312.7" class="st6" width="2.5" height="28.1"/>
			<path class="st3" d="M545.1,313.2v27.1h-1.5v-27.1H545.1 M546.1,312.2h-3.5v29.1h3.5V312.2L546.1,312.2z"/>
		</g>
		<g>
			<line class="st9" x1="545.9" y1="312.8" x2="562.1" y2="340.7"/>
		</g>
		<g id="Rectangle_27_3_">
			<rect x="458.8" y="376.4" class="st6" width="80.5" height="28.1"/>
			<path class="st3" d="M538.8,376.9V404h-79.5v-27.1H538.8 M539.8,375.9h-81.5V405h81.5V375.9L539.8,375.9z"/>
		</g>
		<g id="Rectangle_28_x5F_3_5_">
			<rect x="458.8" y="376.4" class="st6" width="80.5" height="2.5"/>
			<path class="st3" d="M538.8,376.9v1.5h-79.5v-1.5H538.8 M539.8,375.9h-81.5v3.5h81.5V375.9L539.8,375.9z"/>
		</g>
		<g>
			<line class="st9" x1="538.1" y1="380.7" x2="459.7" y2="404.4"/>
		</g>
		<g>
			<g>
				<rect x="451.7" y="75.5" class="st6" width="94.8" height="36.3"/>
				<path class="st3" d="M546,76v35.3h-93.8V76H546 M547,75h-95.8v37.3H547V75L547,75z"/>
			</g>
			<g>
				<g>
					<path class="st10" d="M535.6,93.6c0-6.9-5.9-12.2-12.6-11.6c-7.5,0.7-16.9,1.3-23.9,1.3c-6.9,0-16.3-0.7-23.9-1.3
						c-6.8-0.6-12.6,4.8-12.6,11.6c0,6.8,5.9,12.2,12.6,11.6c7.5-0.7,16.9-1.3,23.9-1.3c6.9,0,16.3,0.7,23.9,1.3
						C529.7,105.8,535.6,100.4,535.6,93.6z"/>
					<ellipse class="st10" cx="523.7" cy="93.6" rx="1.6" ry="1.6"/>
				</g>
			</g>
		</g>
		<g>
			<rect x="553.8" y="144.8" class="st6" width="8.2" height="55.6"/>
			<path class="st3" d="M561.5,145.3v54.6h-7.2v-54.6L561.5,145.3 M562.5,144.3h-9.2v56.6h9.2V144.3L562.5,144.3z"/>
		</g>
		<g id="Sink_2">
			<path id="Rectangle_19_x5F_5" class="st7" d="M551.8,118.7L551.8,118.7c-3.6,0-6.6,2.9-6.6,6.6v9.4c0,3.6,2.9,6.6,6.6,6.6l0,0
				c3.6,0,6.6-2.9,6.6-6.6v-9.4C558.4,121.7,555.4,118.7,551.8,118.7z"/>
			<circle id="Ellipse_7_x5F_2" class="st7" cx="554.8" cy="130" r="1.6"/>
		</g>
		<g>
			<g>
				<rect x="540.6" y="202.7" class="st6" width="21.4" height="31.8"/>
				<path class="st3" d="M561.5,203.2V234h-20.4v-30.8H561.5 M562.5,202.2h-22.4V235h22.4V202.2L562.5,202.2z"/>
			</g>
			<g>
				<path class="st6" d="M551.3,225.4c-3.8,0-6.8-3.1-6.8-6.8s3.1-6.8,6.8-6.8c3.8,0,6.8,3.1,6.8,6.8S555.1,225.4,551.3,225.4z"/>
				<path class="st3" d="M551.3,212.3c3.5,0,6.3,2.8,6.3,6.3s-2.8,6.3-6.3,6.3s-6.3-2.8-6.3-6.3S547.8,212.3,551.3,212.3
					 M551.3,211.3c-4,0-7.3,3.3-7.3,7.3s3.3,7.3,7.3,7.3s7.3-3.3,7.3-7.3S555.3,211.3,551.3,211.3L551.3,211.3z"/>
			</g>
		</g>
		<g id="Rectangle_27_2_">
			<rect x="411" y="75.5" class="st6" width="34.7" height="159"/>
			<path class="st3" d="M445.2,76v158h-33.7V76H445.2 M446.2,75h-35.7v160h35.7V75L446.2,75z"/>
		</g>
		<g id="Rectangle_28_x5F_3_7_">
			<rect x="411" y="75.5" class="st6" width="2.5" height="159"/>
			<path class="st3" d="M413,76v158h-1.5V76H413 M414,75h-3.5v160h3.5V75L414,75z"/>
		</g>
		<g>
			<line class="st9" x1="413.7" y1="75.6" x2="445.3" y2="234.2"/>
		</g>
		<g>
			<path class="st7" d="M207.2,161v23.3l-21.2,3.1l0.1-29.6L207.2,161z"/>
			<g>
				<rect x="153.5" y="138.2" class="st6" width="35" height="71.1"/>
				<path class="st3" d="M188,138.7v70.1h-34v-70.1L188,138.7 M189,137.7h-36v72.1h36V137.7L189,137.7z"/>
			</g>
			<path class="st9" d="M178.2,164.8v18 M182.5,163.2v21.2h-6.3v-21.2H182.5z"/>
			<path class="st7" d="M182.8,154.5L182.8,154.5c0,0.9-0.7,1.6-1.6,1.6h-2.1c-0.9,0-1.6-0.7-1.6-1.6l0,0c0-0.9,0.7-1.6,1.6-1.6h2.1
				C182.1,152.9,182.8,153.6,182.8,154.5z"/>
			<path class="st7" d="M165.9,168.5c2.9,0,5.3,2.4,5.3,5.3c0,2.9-2.4,5.3-5.3,5.3h-5.3v-10.6H165.9z"/>
			
				<rect x="134.2" y="172.8" transform="matrix(1.695896e-03 -1 1 1.695896e-03 -12.4377 335.1768)" class="st11" width="55" height="2.1"/>
			<g>
				<rect x="188.5" y="161" class="st6" width="19.4" height="23"/>
				<path class="st3" d="M207.5,161.5v22H189v-22H207.5 M208.5,160.5H188v24h20.4v-24H208.5z"/>
			</g>
			<g>
				<rect x="207.7" y="161" class="st6" width="2.1" height="23.1"/>
				<path class="st3" d="M209.3,161.5v22.1h-1.1v-22.1H209.3 M210.3,160.5h-3.1v24.1h3.1V160.5L210.3,160.5z"/>
			</g>
		</g>
	</g>
	<g id="street_anchors" class="st12">
		<rect id="street_x5F_anchor_x5F_01" x="102.3" y="235" class="st13" width="10" height="10"/>
	</g>
</g>
<g id="комнаты">
	<g>
		<g>
			<path class="st5" d="M521.6,261.8c-0.4-0.2-0.8-0.4-1.3-0.4c-0.8,0-1.6,0.7-1.6,2c0.4-0.5,1-0.9,1.7-0.9c1.2,0,1.9,1,1.9,1.9
				c0,1.3-0.9,2.2-2.1,2.2c-1.3,0-2.5-1.1-2.5-3.1c0-2.1,1.3-3.4,2.6-3.4c0.8,0,1.4,0.4,1.8,0.5L521.6,261.8z M518.8,264.2
				c0.2,0.8,0.8,1.3,1.4,1.3c0.6,0,1-0.5,1-1c0-0.4-0.2-0.8-0.9-0.8C519.7,263.6,519.2,263.9,518.8,264.2z"/>
			<path class="st5" d="M523.9,264.9c0.4,0,0.8,0.4,0.8,0.9c0,0.5-0.3,0.9-0.8,0.9c-0.4,0-0.7-0.4-0.7-0.9
				C523.2,265.3,523.5,264.9,523.9,264.9z"/>
			<path class="st5" d="M525.6,265.5c0-1.5,0.9-2.2,2-2.6c0.3-0.1,0.8-0.3,0.8-0.9c0-0.5-0.4-0.6-0.8-0.6c-0.7,0-1.1,0.4-1.6,0.9
				l-0.6-1c0.6-0.6,1.2-1.2,2.1-1.2c0.9,0,1.9,0.5,1.9,1.8c0,1.4-1,1.8-1.8,2.1c-0.7,0.3-1.1,0.6-1.1,1.1v0.1h2.8v1.2h-3.9V265.5z"
				/>
		</g>
	</g>
	<g>
		<g>
			<path class="st5" d="M364.9,149.7l1.4-0.8h1v6.1h-1.1v-4.7l-1,0.6L364.9,149.7z"/>
			<path class="st5" d="M368.3,154.3l0.5-1c0.3,0.3,1,0.7,1.9,0.7c0.6,0,1.2-0.3,1.2-1c0-0.6-0.5-0.9-0.9-0.9
				c-0.6,0-1.1,0.3-1.5,0.6l-0.6-0.6v-3.2h3.7v1.2h-2.7v1.4c0.4-0.3,0.7-0.6,1.3-0.6c0.9,0,1.9,0.6,1.9,2c0,1.6-1.2,2.3-2.3,2.3
				C369.5,155.2,368.7,154.6,368.3,154.3z"/>
			<path class="st5" d="M374.6,153.4c0.4,0,0.8,0.4,0.8,0.9c0,0.5-0.3,0.9-0.8,0.9c-0.4,0-0.7-0.4-0.7-0.9
				C373.9,153.8,374.2,153.4,374.6,153.4z"/>
			<path class="st5" d="M380.2,150.3c-0.4-0.2-0.8-0.4-1.3-0.4c-0.8,0-1.6,0.7-1.6,2c0.4-0.4,1-0.9,1.7-0.9c1.2,0,1.9,1,1.9,1.9
				c0,1.3-0.9,2.2-2.1,2.2c-1.3,0-2.5-1.1-2.5-3.1c0-2.1,1.3-3.4,2.6-3.4c0.8,0,1.4,0.4,1.8,0.5L380.2,150.3z M377.4,152.7
				c0.2,0.8,0.8,1.3,1.4,1.3c0.6,0,1-0.5,1-1c0-0.4-0.2-0.8-0.9-0.8C378.3,152.1,377.8,152.4,377.4,152.7z"/>
		</g>
	</g>
	<g>
		<g>
			<path class="st5" d="M492.4,148.8c-0.4-0.2-0.8-0.4-1.3-0.4c-0.8,0-1.6,0.7-1.6,2c0.4-0.4,1-0.9,1.7-0.9c1.2,0,1.9,1,1.9,1.9
				c0,1.3-0.9,2.2-2.1,2.2c-1.3,0-2.5-1.1-2.5-3.1c0-2.1,1.3-3.4,2.6-3.4c0.8,0,1.4,0.4,1.8,0.5L492.4,148.8z M489.6,151.2
				c0.2,0.8,0.8,1.3,1.4,1.3c0.6,0,1-0.5,1-1c0-0.4-0.2-0.8-0.9-0.8C490.6,150.6,490,150.9,489.6,151.2z"/>
			<path class="st5" d="M494.8,151.9c0.4,0,0.8,0.4,0.8,0.9c0,0.5-0.3,0.9-0.8,0.9c-0.4,0-0.7-0.4-0.7-0.9
				C494,152.3,494.3,151.9,494.8,151.9z"/>
			<path class="st5" d="M501.4,152.2h-0.8v1.3h-1.1v-1.3h-3.2v-0.9l3.3-3.9h1v3.7h0.8V152.2z M497.8,151.1h1.6v-2h-0.1
				C498.9,149.8,498.3,150.5,497.8,151.1L497.8,151.1z"/>
		</g>
	</g>
	<g>
		<g>
			<path class="st5" d="M282.3,312.3l1.4-0.8h1v6.1h-1.1v-4.7l-1,0.6L282.3,312.3z"/>
			<path class="st5" d="M285.9,311.5h4.2v1.2l-2.4,4.9h-1.4l2.5-4.8h-2.9V311.5z"/>
			<path class="st5" d="M291.7,316c0.4,0,0.8,0.4,0.8,0.9c0,0.5-0.3,0.9-0.8,0.9c-0.4,0-0.7-0.4-0.7-0.9
				C290.9,316.4,291.2,316,291.7,316z"/>
			<path class="st5" d="M293.3,311.5h4.2v1.2l-2.4,4.9h-1.4l2.5-4.8h-2.9V311.5z"/>
		</g>
	</g>
</g>
</svg>
