<?xml version="1.0" encoding="utf-8"?>
<!-- Generator: Adobe Illustrator 26.0.3, SVG Export Plug-In . SVG Version: 6.00 Build 0)  -->
<svg version="1.1" xmlns="http://www.w3.org/2000/svg" xmlns:xlink="http://www.w3.org/1999/xlink" x="0px" y="0px"
	 viewBox="0 0 720 480" style="enable-background:new 0 0 720 480;" xml:space="preserve">
<style type="text/css">
	.st0{fill:#DBD4CA;}
	.st1{clip-path:url(#SVGID_00000120519159908126871610000000942355900482846909_);}
	.st2{fill:none;stroke:#C49F8A;stroke-miterlimit:10;}
	.st3{opacity:0.3;clip-path:url(#SVGID_00000119078028380414987430000017822221760172956858_);}
	.st4{opacity:0.7;fill:#C49F8A;enable-background:new    ;}
	.st5{clip-path:url(#SVGID_00000035513850056083216830000004754837864626517914_);}
	.st6{opacity:0.3;clip-path:url(#SVGID_00000060741018623436499900000017496460697955638157_);}
	.st7{fill:none;stroke:#565440;}
	.st8{fill:#565440;}
	.st9{fill:#E9E4DC;}
	.st10{fill:#C49F8A;}
	.st11{fill:#E9E4DC;stroke:#C49F8A;}
	.st12{fill:none;stroke:#C49F8A;}
	.st13{fill:#E9E4DC;stroke:#C49F8A;stroke-miterlimit:3.9998;}
	.st14{fill:#E9E4DC;stroke:#C49F8A;stroke-linejoin:round;}
	.st15{fill:#E9E4DC;stroke:#C49F8A;stroke-width:1;stroke-miterlimit:3.9998;}
	.st16{fill:#E9E4DC;stroke:#C49F8A;stroke-width:1;stroke-miterlimit:4;}
	.st17{opacity:0;}
	.st18{fill:#3F3F3F;fill-opacity:0;}
</style>
<g id="_x31__x5F_2">
	<polygon id="Floor" class="st0" points="163.7,143.1 163.7,414.9 372.9,414.9 556.3,414.9 556.3,60 435.5,60 435.5,143.1 	"/>
	<g id="Wet_Floor">
		<g id="Wet_Floor_1_">
			<g>
				<g>
					<defs>
						<rect id="SVGID_1_" x="313.9" y="239.4" width="111.8" height="66.9"/>
					</defs>
					<clipPath id="SVGID_00000036212009813991318140000006779174678080105616_">
						<use xlink:href="#SVGID_1_"  style="overflow:visible;"/>
					</clipPath>
					<g style="clip-path:url(#SVGID_00000036212009813991318140000006779174678080105616_);">
						<g>
							<line class="st2" x1="134.2" y1="277.1" x2="467.7" y2="-56.4"/>
							<line class="st2" x1="123.8" y1="266.7" x2="457.3" y2="-66.8"/>
							<line class="st2" x1="144.7" y1="287.5" x2="478.1" y2="-45.9"/>
							<line class="st2" x1="155.1" y1="298" x2="488.6" y2="-35.5"/>
							<line class="st2" x1="165.5" y1="308.4" x2="499" y2="-25.1"/>
							<line class="st2" x1="175.9" y1="318.8" x2="509.4" y2="-14.7"/>
							<line class="st2" x1="186.3" y1="329.2" x2="519.8" y2="-4.2"/>
							<line class="st2" x1="196.8" y1="339.7" x2="530.2" y2="6.2"/>
							<line class="st2" x1="207.2" y1="350.1" x2="540.7" y2="16.6"/>
							<line class="st2" x1="217.6" y1="360.5" x2="551.1" y2="27"/>
							<line class="st2" x1="207.2" y1="350.1" x2="540.7" y2="16.6"/>
							<line class="st2" x1="228" y1="370.9" x2="561.5" y2="37.4"/>
							<line class="st2" x1="238.5" y1="381.3" x2="571.9" y2="47.9"/>
							<line class="st2" x1="248.9" y1="391.8" x2="582.4" y2="58.3"/>
							<line class="st2" x1="259.3" y1="402.2" x2="592.8" y2="68.7"/>
							<line class="st2" x1="269.7" y1="412.6" x2="603.2" y2="79.1"/>
							<line class="st2" x1="280.1" y1="423" x2="613.6" y2="89.5"/>
							<line class="st2" x1="290.6" y1="433.4" x2="624" y2="100"/>
							<line class="st2" x1="301" y1="443.9" x2="634.5" y2="110.4"/>
							<line class="st2" x1="290.6" y1="433.4" x2="624" y2="100"/>
							<line class="st2" x1="311.4" y1="454.3" x2="644.9" y2="120.8"/>
							<line class="st2" x1="321.8" y1="464.7" x2="655.3" y2="131.2"/>
							<line class="st2" x1="332.2" y1="475.1" x2="665.7" y2="141.6"/>
							<line class="st2" x1="342.7" y1="485.6" x2="676.1" y2="152.1"/>
							<line class="st2" x1="353.1" y1="496" x2="686.6" y2="162.5"/>
							<line class="st2" x1="363.5" y1="506.4" x2="697" y2="172.9"/>
							<line class="st2" x1="373.9" y1="516.8" x2="707.4" y2="183.3"/>
							<line class="st2" x1="384.4" y1="527.2" x2="717.8" y2="193.8"/>
							<line class="st2" x1="373.9" y1="516.8" x2="707.4" y2="183.3"/>
							<line class="st2" x1="394.8" y1="537.7" x2="728.3" y2="204.2"/>
							<line class="st2" x1="405.2" y1="548.1" x2="738.7" y2="214.6"/>
							<line class="st2" x1="415.6" y1="558.5" x2="749.1" y2="225"/>
							<line class="st2" x1="426" y1="568.9" x2="759.5" y2="235.4"/>
							<line class="st2" x1="436.5" y1="579.3" x2="769.9" y2="245.9"/>
							<line class="st2" x1="446.9" y1="589.8" x2="780.4" y2="256.3"/>
							<line class="st2" x1="457.3" y1="600.2" x2="790.8" y2="266.7"/>
						</g>
						<g>
							<line class="st2" x1="467.7" y1="589.8" x2="134.2" y2="256.3"/>
							<line class="st2" x1="457.3" y1="600.2" x2="123.8" y2="266.7"/>
							<line class="st2" x1="478.1" y1="579.3" x2="144.7" y2="245.9"/>
							<line class="st2" x1="488.6" y1="568.9" x2="155.1" y2="235.4"/>
							<line class="st2" x1="499" y1="558.5" x2="165.5" y2="225"/>
							<line class="st2" x1="509.4" y1="548.1" x2="175.9" y2="214.6"/>
							<line class="st2" x1="519.8" y1="537.7" x2="186.3" y2="204.2"/>
							<line class="st2" x1="530.2" y1="527.2" x2="196.8" y2="193.8"/>
							<line class="st2" x1="540.7" y1="516.8" x2="207.2" y2="183.3"/>
							<line class="st2" x1="551.1" y1="506.4" x2="217.6" y2="172.9"/>
							<line class="st2" x1="540.7" y1="516.8" x2="207.2" y2="183.3"/>
							<line class="st2" x1="561.5" y1="496" x2="228" y2="162.5"/>
							<line class="st2" x1="571.9" y1="485.6" x2="238.5" y2="152.1"/>
							<line class="st2" x1="582.4" y1="475.1" x2="248.9" y2="141.6"/>
							<line class="st2" x1="592.8" y1="464.7" x2="259.3" y2="131.2"/>
							<line class="st2" x1="603.2" y1="454.3" x2="269.7" y2="120.8"/>
							<line class="st2" x1="613.6" y1="443.9" x2="280.1" y2="110.4"/>
							<line class="st2" x1="624" y1="433.4" x2="290.6" y2="100"/>
							<line class="st2" x1="634.5" y1="423" x2="301" y2="89.5"/>
							<line class="st2" x1="624" y1="433.4" x2="290.6" y2="100"/>
							<line class="st2" x1="644.9" y1="412.6" x2="311.4" y2="79.1"/>
							<line class="st2" x1="655.3" y1="402.2" x2="321.8" y2="68.7"/>
							<line class="st2" x1="665.7" y1="391.8" x2="332.2" y2="58.3"/>
							<line class="st2" x1="676.1" y1="381.3" x2="342.7" y2="47.9"/>
							<line class="st2" x1="686.6" y1="370.9" x2="353.1" y2="37.4"/>
							<line class="st2" x1="697" y1="360.5" x2="363.5" y2="27"/>
							<line class="st2" x1="707.4" y1="350.1" x2="373.9" y2="16.6"/>
							<line class="st2" x1="717.8" y1="339.7" x2="384.4" y2="6.2"/>
							<line class="st2" x1="707.4" y1="350.1" x2="373.9" y2="16.6"/>
							<line class="st2" x1="728.3" y1="329.2" x2="394.8" y2="-4.2"/>
							<line class="st2" x1="738.7" y1="318.8" x2="405.2" y2="-14.7"/>
							<line class="st2" x1="749.1" y1="308.4" x2="415.6" y2="-25.1"/>
							<line class="st2" x1="759.5" y1="298" x2="426" y2="-35.5"/>
							<line class="st2" x1="769.9" y1="287.5" x2="436.5" y2="-45.9"/>
							<line class="st2" x1="780.4" y1="277.1" x2="446.9" y2="-56.4"/>
							<line class="st2" x1="790.8" y1="266.7" x2="457.3" y2="-66.8"/>
						</g>
					</g>
				</g>
			</g>
			<g>
				<g>
					<defs>
						<rect id="SVGID_00000122711620293264557460000000366050679512635045_" x="313.9" y="239.4" width="111.8" height="66.9"/>
					</defs>
					<clipPath id="SVGID_00000118387129966240858690000007477011242497791628_">
						<use xlink:href="#SVGID_00000122711620293264557460000000366050679512635045_"  style="overflow:visible;"/>
					</clipPath>
					<g style="opacity:0.3;clip-path:url(#SVGID_00000118387129966240858690000007477011242497791628_);">
						<rect x="296.6" y="94.5" class="st4" width="320.9" height="323.3"/>
					</g>
				</g>
			</g>
		</g>
		<g id="Wet_Floor_2_">
			<g>
				<g>
					<defs>
						<rect id="SVGID_00000176748501444850081900000003015181641989475228_" x="313.6" y="146.4" width="63.2" height="46.8"/>
					</defs>
					<clipPath id="SVGID_00000047019633819284376770000008333130129493325989_">
						<use xlink:href="#SVGID_00000176748501444850081900000003015181641989475228_"  style="overflow:visible;"/>
					</clipPath>
					<g style="clip-path:url(#SVGID_00000047019633819284376770000008333130129493325989_);">
						<g>
							<line class="st2" x1="125.3" y1="177.5" x2="458.8" y2="-155.9"/>
							<line class="st2" x1="114.9" y1="167.1" x2="448.4" y2="-166.4"/>
							<line class="st2" x1="135.7" y1="188" x2="469.2" y2="-145.5"/>
							<line class="st2" x1="146.2" y1="198.4" x2="479.6" y2="-135.1"/>
							<line class="st2" x1="156.6" y1="208.8" x2="490.1" y2="-124.7"/>
							<line class="st2" x1="167" y1="219.2" x2="500.5" y2="-114.3"/>
							<line class="st2" x1="177.4" y1="229.7" x2="510.9" y2="-103.8"/>
							<line class="st2" x1="187.8" y1="240.1" x2="521.3" y2="-93.4"/>
							<line class="st2" x1="198.3" y1="250.5" x2="531.7" y2="-83"/>
							<line class="st2" x1="208.7" y1="260.9" x2="542.2" y2="-72.6"/>
							<line class="st2" x1="198.3" y1="250.5" x2="531.7" y2="-83"/>
							<line class="st2" x1="219.1" y1="271.3" x2="552.6" y2="-62.1"/>
							<line class="st2" x1="229.5" y1="281.8" x2="563" y2="-51.7"/>
							<line class="st2" x1="239.9" y1="292.2" x2="573.4" y2="-41.3"/>
							<line class="st2" x1="250.4" y1="302.6" x2="583.9" y2="-30.9"/>
							<line class="st2" x1="260.8" y1="313" x2="594.3" y2="-20.5"/>
							<line class="st2" x1="271.2" y1="323.4" x2="604.7" y2="-10"/>
							<line class="st2" x1="281.6" y1="333.9" x2="615.1" y2="0.4"/>
							<line class="st2" x1="292.1" y1="344.3" x2="625.5" y2="10.8"/>
							<line class="st2" x1="281.6" y1="333.9" x2="615.1" y2="0.4"/>
							<line class="st2" x1="302.5" y1="354.7" x2="636" y2="21.2"/>
							<line class="st2" x1="312.9" y1="365.1" x2="646.4" y2="31.6"/>
							<line class="st2" x1="323.3" y1="375.5" x2="656.8" y2="42.1"/>
							<line class="st2" x1="333.7" y1="386" x2="667.2" y2="52.5"/>
							<line class="st2" x1="344.2" y1="396.4" x2="677.6" y2="62.9"/>
							<line class="st2" x1="354.6" y1="406.8" x2="688.1" y2="73.3"/>
							<line class="st2" x1="365" y1="417.2" x2="698.5" y2="83.8"/>
							<line class="st2" x1="375.4" y1="427.7" x2="708.9" y2="94.2"/>
							<line class="st2" x1="365" y1="417.2" x2="698.5" y2="83.8"/>
							<line class="st2" x1="385.8" y1="438.1" x2="719.3" y2="104.6"/>
							<line class="st2" x1="396.3" y1="448.5" x2="729.8" y2="115"/>
							<line class="st2" x1="406.7" y1="458.9" x2="740.2" y2="125.4"/>
							<line class="st2" x1="417.1" y1="469.3" x2="750.6" y2="135.9"/>
							<line class="st2" x1="427.5" y1="479.8" x2="761" y2="146.3"/>
							<line class="st2" x1="438" y1="490.2" x2="771.4" y2="156.7"/>
							<line class="st2" x1="448.4" y1="500.6" x2="781.9" y2="167.1"/>
						</g>
						<g>
							<line class="st2" x1="458.8" y1="490.2" x2="125.3" y2="156.7"/>
							<line class="st2" x1="448.4" y1="500.6" x2="114.9" y2="167.1"/>
							<line class="st2" x1="469.2" y1="479.8" x2="135.7" y2="146.3"/>
							<line class="st2" x1="479.6" y1="469.3" x2="146.2" y2="135.9"/>
							<line class="st2" x1="490.1" y1="458.9" x2="156.6" y2="125.4"/>
							<line class="st2" x1="500.5" y1="448.5" x2="167" y2="115"/>
							<line class="st2" x1="510.9" y1="438.1" x2="177.4" y2="104.6"/>
							<line class="st2" x1="521.3" y1="427.7" x2="187.8" y2="94.2"/>
							<line class="st2" x1="531.7" y1="417.2" x2="198.3" y2="83.8"/>
							<line class="st2" x1="542.2" y1="406.8" x2="208.7" y2="73.3"/>
							<line class="st2" x1="531.7" y1="417.2" x2="198.3" y2="83.8"/>
							<line class="st2" x1="552.6" y1="396.4" x2="219.1" y2="62.9"/>
							<line class="st2" x1="563" y1="386" x2="229.5" y2="52.5"/>
							<line class="st2" x1="573.4" y1="375.5" x2="239.9" y2="42.1"/>
							<line class="st2" x1="583.9" y1="365.1" x2="250.4" y2="31.6"/>
							<line class="st2" x1="594.3" y1="354.7" x2="260.8" y2="21.2"/>
							<line class="st2" x1="604.7" y1="344.3" x2="271.2" y2="10.8"/>
							<line class="st2" x1="615.1" y1="333.9" x2="281.6" y2="0.4"/>
							<line class="st2" x1="625.5" y1="323.4" x2="292.1" y2="-10"/>
							<line class="st2" x1="615.1" y1="333.9" x2="281.6" y2="0.4"/>
							<line class="st2" x1="636" y1="313" x2="302.5" y2="-20.5"/>
							<line class="st2" x1="646.4" y1="302.6" x2="312.9" y2="-30.9"/>
							<line class="st2" x1="656.8" y1="292.2" x2="323.3" y2="-41.3"/>
							<line class="st2" x1="667.2" y1="281.8" x2="333.7" y2="-51.7"/>
							<line class="st2" x1="677.6" y1="271.3" x2="344.2" y2="-62.1"/>
							<line class="st2" x1="688.1" y1="260.9" x2="354.6" y2="-72.6"/>
							<line class="st2" x1="698.5" y1="250.5" x2="365" y2="-83"/>
							<line class="st2" x1="708.9" y1="240.1" x2="375.4" y2="-93.4"/>
							<line class="st2" x1="698.5" y1="250.5" x2="365" y2="-83"/>
							<line class="st2" x1="719.3" y1="229.7" x2="385.8" y2="-103.8"/>
							<line class="st2" x1="729.8" y1="219.2" x2="396.3" y2="-114.3"/>
							<line class="st2" x1="740.2" y1="208.8" x2="406.7" y2="-124.7"/>
							<line class="st2" x1="750.6" y1="198.4" x2="417.1" y2="-135.1"/>
							<line class="st2" x1="761" y1="188" x2="427.5" y2="-145.5"/>
							<line class="st2" x1="771.4" y1="177.5" x2="438" y2="-155.9"/>
							<line class="st2" x1="781.9" y1="167.1" x2="448.4" y2="-166.4"/>
						</g>
					</g>
				</g>
			</g>
			<g>
				<g>
					<defs>
						<rect id="SVGID_00000024697065847988195370000001667982934400546210_" x="313.6" y="146.4" width="63.2" height="46.8"/>
					</defs>
					<clipPath id="SVGID_00000157995284773167994820000009631785023500084109_">
						<use xlink:href="#SVGID_00000024697065847988195370000001667982934400546210_"  style="overflow:visible;"/>
					</clipPath>
					<g style="opacity:0.3;clip-path:url(#SVGID_00000157995284773167994820000009631785023500084109_);">
						<rect x="285.4" y="32" class="st4" width="344.8" height="244.5"/>
					</g>
				</g>
			</g>
		</g>
	</g>
	<g id="Windows">
		<polygon class="st7" points="164.4,146.9 160.6,146.9 160.6,418 371.7,418 371.7,414.3 164.4,414.3 		"/>
		<polygon class="st7" points="556.4,166.8 556.4,414.3 374.5,414.3 374.5,418 560.1,418 560.1,166.8 		"/>
	</g>
	<g id="Walls">
		<path class="st8" d="M174.5,150.5h129.3v7.8h9.9v34.9v0h21.1v-2.5h-18.6v-40.2H375v40.2h-21.1v2.5h23.6v0v-42.7h6v-7.5H159.4V168
			h15.1V150.5z M313.7,155.8h-7.4v-5.3h7.4V155.8z"/>
		<rect x="159.4" y="205.7" class="st8" width="12.6" height="17.6"/>
		<polygon class="st8" points="172,306.2 239.6,306.2 239.6,303.7 172,303.7 172,302.5 174.5,302.5 174.5,280.6 172,280.6 
			172,258.7 159.4,258.7 159.4,280.6 159.4,302.5 159.4,329.8 172,329.8 		"/>
		<polygon class="st8" points="264.9,306.2 269.4,306.2 269.4,303.7 258.7,303.7 258.7,306.2 262.4,306.2 262.4,406.7 234.8,406.7 
			234.8,404.2 217.2,404.2 217.2,419.3 287.5,419.3 287.5,406.7 264.9,406.7 		"/>
		<rect x="159.4" y="364" class="st8" width="15.1" height="17.6"/>
		<polygon class="st8" points="483.5,404.2 483.5,404.2 483.5,406.7 464.8,406.7 464.8,324.8 462.3,324.8 462.3,326.3 459.2,326.3 
			459.2,328.8 462.3,328.8 462.3,406.7 430.7,406.7 430.7,419.3 430.7,419.3 430.7,419.3 501.1,419.3 501.1,404.2 483.5,404.2 		"/>
		<path class="st8" d="M435.8,60L435.8,60L435.8,60l0,82.9h-27.1v7.5h11.1v0h3.5v37.7v2.2v0.3h17.6v18.9h6.1v-2.5h-3.6v-18.9h0v0
			h-17.6v-37.7h17.6v0h0v-32h7.2v-2.5h-7.2V79.8h8.4v-7.2h52.6v43.4h-34.7v2.5H520v-2.5h-13.2V72.6h42v43.4h-9.7v2.5h9.7V168v0h12.5
			v0h0V60H435.8z M449.2,77.3h-5.9v-4.7h5.9V77.3z"/>
		<path class="st8" d="M546.3,245.9h-0.3v17.6h2.8V296h-14.5v7.7h-63.1h-1.9v-43.1h-2.5v43.1h-1.9h-2.5h0v2.5h0v1.9h2.5v-1.9h1.9
			h2.5h1.9h77.6v10.1h12.6v0h0v-70.4L546.3,245.9L546.3,245.9z M536.8,303.7v-5.3h12v5.3H536.8z"/>
		<polygon class="st8" points="561.4,364 546,364 546,381.6 546.6,381.6 546.6,381.6 561.4,381.6 561.4,364 561.4,364 		"/>
		<polygon class="st8" points="561.4,220.8 561.4,220.8 561.4,220.8 561.4,203.2 548.8,203.2 548.8,203.2 548.8,203.2 548.8,207.1 
			464.8,207.1 464.8,209.6 466.8,209.6 466.8,238.4 469.3,238.4 469.3,209.6 548.8,209.6 548.8,220.8 		"/>
		<path class="st8" d="M378,406.7V306.2h58.9v22.6h4.4v-2.5h-1.9v-20.1h0v-2.5h0h-2.5h-11.2v-14.8h-2.5v14.8h-36.4v-7.8H378v-55
			h45.2v28.9h2.5v-31.4H378v0h-64.3v65.3H289v2.5h44.7v-2.5h-17.6v-62.8h54.2v55h-9.6v7.8h-7.9v2.5h17.6v98h-15.6v2.5h-30.7v12.6
			h69.6v-12.6H393H378z M384.3,298.4v5.3H378v-5.3H384.3z M363.3,303.7v-5.3h7.1v5.3H363.3z"/>
	</g>
	<g id="Doors">
		<path class="st7" d="M289,306c0,2.8-0.5,5-1.5,7.5c-1,2.5-2.5,4.8-4.3,6.5c-1.8,2-4,3.5-6.5,4.5c-2.5,1-5,1.5-7.8,1.5V306"/>
		<path class="st7" d="M259.2,306c0,2.8-0.5,5-1.5,7.5c-1,2.5-2.5,4.8-4.3,6.5c-1.8,2-4,3.5-6.5,4.5c-2.5,1-5,1.5-7.8,1.5V306"/>
		<path class="st7" d="M333.3,306c0,2.8,0.5,5,1.5,7.5c1,2.5,2.5,4.8,4.3,6.5c1.8,2,4,3.5,6.5,4.5c2.5,1,5,1.5,7.8,1.5V306"/>
		<path class="st7" d="M354.4,192.4c0,2.8-0.5,5-1.5,7.5c-1,2.5-2.5,4.8-4.3,6.5c-1.8,2-4,3.5-6.5,4.5s-5,1.5-7.8,1.5v-20.1"/>
		<path class="st7" d="M408.6,143.9c0-3.3-0.8-6.3-2-9.3c-1.3-3-3-6-5.5-8.3c-2.3-2.3-5-4.3-8-5.5c-3-1.3-6.3-2-9.5-2v25.1"/>
		<path class="st7" d="M425.7,269.3c2.8,0,5,0.5,7.5,1.5c2.5,1,4.8,2.5,6.5,4.3c2,1.8,3.5,4,4.5,6.5c1,2.5,1.5,5,1.5,7.8h-20.1"/>
		<path class="st7" d="M464.8,307.5c2.5,0,4.5,0.4,6.7,1.3c2.2,0.9,4.3,2.2,5.8,3.8c1.8,1.6,3.1,3.6,4,5.8c0.9,2.2,1.3,4.5,1.3,6.9
			h-17.9"/>
		<path class="st7" d="M440.8,328.8c0,2.6,0.5,4.7,1.4,7.1c0.9,2.4,2.4,4.5,4,6.1c1.7,1.9,3.8,3.3,6.1,4.2c2.4,0.9,4.7,1.4,7.3,1.4
			v-18.9"/>
		<path class="st7" d="M465.3,207.1c0-2.6-0.5-4.7-1.4-7.1c-0.9-2.4-2.4-4.5-4-6.1c-1.7-1.9-3.8-3.3-6.1-4.2
			c-2.4-0.9-4.7-1.4-7.3-1.4v18.9"/>
		<path class="st7" d="M469.3,261.1c2.7,0,4.9-0.6,7.3-1.7c2.4-1.2,4.6-2.9,6.4-4.9c2-2,3.4-4.7,4.4-7.6c1-2.9,1.5-5.8,1.5-9h-19.6"
			/>
		<path class="st7" d="M519.5,118.4c0,2.8,0.5,5,1.5,7.5s2.5,4.8,4.3,6.5c1.8,2,4,3.5,6.5,4.5c2.5,1,5,1.5,7.8,1.5v-20.1"/>
		<path class="st7" d="M470.1,118.4c0,2.8-0.5,5-1.5,7.5s-2.5,4.8-4.3,6.5c-1.8,2-4,3.5-6.5,4.5c-2.5,1-5,1.5-7.8,1.5v-20.1"/>
	</g>
	<g id="Furniture_1_">
		<g id="Shower_2_">
			<g id="Rectangle_22_2_">
				<path class="st9" d="M359.6,172c-3.5,0-6.4-2.9-6.4-6.4v-14.8h21.1v21.1L359.6,172L359.6,172z"/>
				<path class="st10" d="M373.9,151.4v20.1h-14.3c-3.2,0-5.9-2.6-5.9-5.9v-14.3L373.9,151.4 M374.9,150.4h-22.1v15.3
					c0,3.8,3.1,6.9,6.9,6.9H375L374.9,150.4L374.9,150.4z"/>
			</g>
			<g id="Rectangle_23_2_">
				<path class="st9" d="M359.6,170.4c-2.6,0-4.7-2.1-4.7-4.7v-13.1h17.8v17.8H359.6z"/>
				<path class="st10" d="M372.2,153.1v16.8h-12.6c-2.3,0-4.2-1.9-4.2-4.2v-12.6H372.2 M373.2,152.1h-18.8v13.6
					c0,2.9,2.3,5.2,5.2,5.2h13.6L373.2,152.1L373.2,152.1z"/>
			</g>
			<ellipse id="Ellipse_6_x5F_4_2_" class="st11" cx="369.1" cy="156.2" rx="1" ry="1"/>
		</g>
		<g>
			<path class="st11" d="M245.7,240.8h-32.5v-23.6h32.5V240.8z"/>
			<path class="st11" d="M211.2,235.3h-0.5c-3.5,0-6.3-2.8-6.3-6.3s2.8-6.3,6.3-6.3h0.5V235.3z"/>
			<path class="st11" d="M213.2,233.9h-2.5c-2.7,0-4.9-2.2-4.9-4.9s2.2-4.9,4.9-4.9h2.5V233.9z"/>
			<path class="st11" d="M247.6,235.3h0.5c3.5,0,6.3-2.8,6.3-6.3s-2.8-6.3-6.3-6.3h-0.5V235.3z"/>
			<path class="st11" d="M245.7,233.9h2.5c2.7,0,4.9-2.2,4.9-4.9s-2.2-4.9-4.9-4.9h-2.5V233.9z"/>
			<path class="st11" d="M235.7,215.2v-0.5c0-3.5-2.8-6.3-6.3-6.3s-6.3,2.8-6.3,6.3v0.5H235.7z"/>
			<path class="st11" d="M234.3,217.2v-2.5c0-2.7-2.2-4.9-4.9-4.9s-4.9,2.2-4.9,4.9v2.5H234.3z"/>
			<path class="st11" d="M235.7,242.8v0.5c0,3.5-2.8,6.3-6.3,6.3s-6.3-2.8-6.3-6.3v-0.5H235.7z"/>
			<path class="st11" d="M234.3,240.8v2.5c0,2.7-2.2,4.9-4.9,4.9s-4.9-2.2-4.9-4.9v-2.5H234.3z"/>
		</g>
		<g id="Kitchen_1_">
			<g>
				<rect x="174.2" y="150.9" class="st9" width="120.7" height="14.6"/>
				<path class="st10" d="M294.5,151.4V165H174.7v-13.6H294.5 M295.5,150.4H173.7V166h121.7L295.5,150.4L295.5,150.4z"/>
			</g>
			<g id="Sink_3_1_">
				<rect id="Rectangle_28_x5F_2_1_" x="208.9" y="152.3" class="st11" width="18.5" height="11.7"/>
				<path id="Rectangle_29_x5F_2_1_" class="st11" d="M220.1,158.2L220.1,158.2c0,2.4-2,4.4-4.4,4.4h-1c-2.4,0-4.4-2-4.4-4.4l0,0
					c0-2.4,2-4.4,4.4-4.4h1C218.1,153.8,220.1,155.7,220.1,158.2z"/>
				<ellipse id="Ellipse_7_x5F_3_1_" class="st11" cx="215.2" cy="156.7" rx="1" ry="1"/>
				<path id="Vector_2_1_" class="st12" d="M226.4,153.8h-4.9 M226.4,155.2h-4.9 M226.4,156.7h-4.9 M226.4,158.2h-4.9 M226.4,159.6
					h-4.9 M226.4,161.1h-4.9 M226.4,162.5h-4.9"/>
			</g>
			<g id="Stove_1_">
				<g id="Rectangle_25_1_">
					<rect x="242.6" y="150.9" class="st9" width="14.2" height="14.6"/>
					<path class="st10" d="M256.3,151.4V165h-13.2v-13.6H256.3 M257.3,150.4h-15.2V166h15.2V150.4L257.3,150.4z"/>
				</g>
				<g id="Rectangle_28_x5F_3_1_">
					<rect x="242.6" y="150.9" class="st9" width="14.2" height="1.6"/>
					<path class="st10" d="M256.3,151.4v0.6h-13.2v-0.6H256.3 M257.3,150.4h-15.2v2.6h15.2V150.4L257.3,150.4z"/>
				</g>
				<g id="Ellipse_7_x5F_4_1_">
					<circle class="st9" cx="253.4" cy="155.7" r="1.4"/>
					<path class="st10" d="M253.4,154.8c0.5,0,0.9,0.4,0.9,0.9s-0.4,0.9-0.9,0.9s-0.9-0.4-0.9-0.9S252.9,154.8,253.4,154.8
						 M253.4,153.8c-1.1,0-1.9,0.9-1.9,1.9s0.9,1.9,1.9,1.9s1.9-0.9,1.9-1.9S254.5,153.8,253.4,153.8L253.4,153.8z"/>
				</g>
				<g id="Ellipse_9_1_">
					<circle class="st9" cx="253.4" cy="161.6" r="1.9"/>
					<path class="st10" d="M253.4,160.1c0.8,0,1.4,0.6,1.4,1.4s-0.6,1.4-1.4,1.4s-1.4-0.6-1.4-1.4S252.6,160.1,253.4,160.1
						 M253.4,159.1c-1.3,0-2.4,1.1-2.4,2.4s1.1,2.4,2.4,2.4s2.4-1.1,2.4-2.4S254.7,159.1,253.4,159.1L253.4,159.1z"/>
				</g>
				<g id="Ellipse_10_1_">
					<circle class="st9" cx="246.6" cy="155.7" r="1.9"/>
					<path class="st10" d="M246.6,154.3c0.8,0,1.4,0.6,1.4,1.4s-0.6,1.4-1.4,1.4s-1.4-0.6-1.4-1.4S245.8,154.3,246.6,154.3
						 M246.6,153.3c-1.3,0-2.4,1.1-2.4,2.4s1.1,2.4,2.4,2.4s2.4-1.1,2.4-2.4S247.9,153.3,246.6,153.3L246.6,153.3z"/>
				</g>
				<g id="Ellipse_8_1_">
					<path class="st9" d="M246.6,163.5c-0.8,0-1.4-0.6-1.4-1.4s0.6-1.4,1.4-1.4s1.4,0.6,1.4,1.4S247.4,163.5,246.6,163.5z"/>
					<path class="st10" d="M246.6,161.1c0.5,0,0.9,0.4,0.9,0.9s-0.4,0.9-0.9,0.9s-0.9-0.4-0.9-0.9
						C245.6,161.5,246.1,161.1,246.6,161.1 M246.6,160.1c-1.1,0-1.9,0.9-1.9,1.9c0,1.1,0.9,1.9,1.9,1.9c1.1,0,1.9-0.9,1.9-1.9
						S247.6,160.1,246.6,160.1L246.6,160.1z"/>
				</g>
			</g>
		</g>
		<g>
			<path class="st11" d="M192.5,272c0-0.6-0.6-1.2-1.2-1.2h-12.2v27.7h13.4L192.5,272L192.5,272z"/>
			<path class="st11" d="M214,286.3c0-0.6-0.6-1.2-1.3-1.2h-18.9c-0.6,0-1.3,0.6-1.3,1.2v12.2h21.4L214,286.3L214,286.3z"/>
			<path class="st11" d="M234.6,286.3c0-0.6-0.6-1.2-1.2-1.2h-18.2c-0.6,0-1.2,0.6-1.2,1.2v12.2h20.7L234.6,286.3L234.6,286.3z"/>
			<path class="st11" d="M234.6,284.1h4.5v19.1h-64.9V266h19.2v4.7h-14.3v27.7h55.5L234.6,284.1L234.6,284.1z"/>
		</g>
		<g>
			<g>
				<rect x="295.9" y="166.5" class="st9" width="8.1" height="16.6"/>
				<path class="st10" d="M296.4,167v15.6h7.1V167H296.4 M295.4,166h9.1v17.6h-9.1V166L295.4,166z"/>
			</g>
			<g>
				<rect x="297.5" y="166.5" class="st9" width="15.7" height="16.6"/>
				<path class="st10" d="M312.7,167H298v15.6h14.7V167 M313.7,166v17.6H297V166H313.7L313.7,166z"/>
			</g>
			<path id="Vector_3_3_" class="st12" d="M308.1,174.8h-5.5 M306.7,172.4l-2.7,4.8 M306.7,177.2l-2.7-4.8"/>
		</g>
		<g>
			<polygon class="st9" points="295,166.5 295,150.9 303.3,150.9 303.3,158.6 313.2,158.6 313.2,166.5 			"/>
			<path class="st10" d="M302.8,151.4v6.7v1h1h8.9v6.9h-8.9h-8.3v-7.9v-6.7H302.8 M303.8,150.4h-9.3v7.7v8.9h9.3h9.9v-8.9h-9.9
				V150.4L303.8,150.4z"/>
		</g>
		<g>
			<g>
				<rect x="184" y="306.6" class="st9" width="33.7" height="54.2"/>
				<path class="st10" d="M184.5,307.1h32.7v53.2h-32.7V307.1 M183.5,306.1v55.3h34.7v-55.2L183.5,306.1L183.5,306.1z"/>
			</g>
			<rect x="201.7" y="310" class="st11" width="13.5" height="13.7"/>
			<rect x="186.4" y="310" class="st11" width="13.5" height="13.7"/>
			<polygon class="st13" points="213.5,318.1 203.8,314.6 201.1,327.8 210.9,331.3 			"/>
			<polygon class="st13" points="200.4,327.8 197.8,314.6 188,318.2 190.6,331.3 			"/>
			<g>
				<polygon class="st9" points="184,361.4 184,318.1 197.3,317 217.6,321 217.6,361.4 				"/>
				<path class="st10" d="M197.3,317.5l19.8,3.9v39.5h-32.7v-42.3L197.3,317.5 M197.4,316.5l-13.9,1.2v0.9v43.3h34.7v-41v-0.3
					L197.4,316.5L197.4,316.5z"/>
			</g>
			<polyline class="st12" points="183.9,319.1 197.5,319.1 217.8,321.4 			"/>
		</g>
		<g>
			<g>
				<rect x="320.5" y="360.1" class="st9" width="49.4" height="41"/>
				<path class="st10" d="M369.4,360.6v40H321v-40H369.4 M370.4,359.6H320v42h50.4V359.6L370.4,359.6z"/>
			</g>
			<rect x="354.3" y="363.2" class="st11" width="12.5" height="16.4"/>
			<rect x="354.3" y="381.6" class="st11" width="12.5" height="16.4"/>
			<polygon class="st13" points="359.4,365.2 362.6,377 350.6,380.2 347.4,368.4 			"/>
			<polygon class="st13" points="350.6,381.1 362.6,384.2 359.4,396.1 347.4,392.9 			"/>
			<g>
				<polygon class="st9" points="320,401.1 320,360.1 356.7,360.1 360.4,384.8 359.3,401.1 				"/>
				<path class="st10" d="M356.3,360.6l3.6,24.2l-1,15.8h-38.4v-40H356.3 M357.2,359.6h-0.3h-37.4v42H359h0.8l1.1-16.8L357.2,359.6
					L357.2,359.6z"/>
			</g>
			<polyline class="st12" points="358.5,401 358.5,384.6 356.5,360.1 			"/>
		</g>
		<g>
			<g>
				<rect x="378.5" y="344" class="st9" width="51.9" height="33.7"/>
				<path class="st10" d="M379,344.5h50.9v32.7H379V344.5 M378,343.5v34.7h52.9v-34.7H378L378,343.5z"/>
			</g>
			<rect x="381.8" y="346.5" class="st11" width="13.1" height="13.5"/>
			<rect x="381.8" y="361.7" class="st11" width="13.1" height="13.5"/>
			<polygon class="st13" points="389.6,348.1 386.2,357.9 398.8,360.6 402.2,350.8 			"/>
			<polygon class="st13" points="398.8,361.3 386.2,363.9 389.6,373.7 402.2,371 			"/>
			<g>
				<polygon class="st9" points="389.6,377.7 388.5,364.4 392.3,344 430.9,344 430.9,377.7 				"/>
				<path class="st10" d="M430.4,344.5v32.7H390l-1-12.8l3.7-19.8h37.7 M431.4,343.5h-39.3h-0.3l-3.9,20.8l1.1,13.9h0.8h41.5
					L431.4,343.5L431.4,343.5z"/>
			</g>
			<polyline class="st12" points="390.5,377.7 390.5,364.2 392.6,343.9 			"/>
		</g>
		<g>
			<g>
				<rect x="465.3" y="334.8" class="st9" width="47.1" height="41"/>
				<path class="st10" d="M511.9,335.3v40h-46.1v-40H511.9 M512.9,334.3h-48.1v42h48.1V334.3L512.9,334.3z"/>
			</g>
			<rect x="468.2" y="337.9" class="st11" width="11.9" height="16.4"/>
			<rect x="468.2" y="356.3" class="st11" width="11.9" height="16.4"/>
			<polygon class="st13" points="475.3,339.9 472.2,351.8 483.7,354.9 486.8,343.1 			"/>
			<polygon class="st13" points="483.7,355.8 472.2,359 475.3,370.8 486.8,367.6 			"/>
			<g>
				<polygon class="st9" points="475.3,375.8 474.4,359.5 477.8,334.8 512.9,334.8 512.9,375.8 				"/>
				<path class="st10" d="M512.4,335.3v40h-36.5l-0.9-15.8l3.4-24.2H512.4 M513.4,334.3h-35.7h-0.3l-3.5,25.2l1,16.8h0.8h37.7V334.3
					L513.4,334.3z"/>
			</g>
			<polyline class="st12" points="476.1,375.8 476.1,359.4 478.1,334.8 			"/>
		</g>
		<path class="st11" d="M187.9,389h10.9l1.5,9.9h-13.9L187.9,389z"/>
		<g>
			<rect x="165.4" y="397.4" class="st9" width="51.3" height="15.9"/>
			<path class="st10" d="M216.2,397.9v14.9h-50.3v-14.9H216.2 M217.2,396.9h-52.3v16.9h52.3V396.9L217.2,396.9z"/>
		</g>
		<path class="st12" d="M189.7,402.3h8.4 M188.9,400.6h9.9v3h-9.9V400.6z"/>
		<path class="st11" d="M184.8,400.5L184.8,400.5c0.4,0,0.7,0.3,0.7,0.7v1c0,0.4-0.3,0.7-0.7,0.7l0,0c-0.4,0-0.7-0.3-0.7-0.7v-1
			C184.1,400.8,184.4,400.5,184.8,400.5z"/>
		<path class="st11" d="M191.4,407.8c0-1.4,1.1-2.5,2.5-2.5s2.5,1.1,2.5,2.5v2.5h-5V407.8z"/>
		<g>
			<rect x="188.2" y="389" class="st9" width="10.2" height="8.6"/>
			<path class="st10" d="M197.9,389.5v7.6h-9.2v-7.6H197.9 M198.9,388.5h-11.2v9.6h11.2V388.5L198.9,388.5z"/>
		</g>
		<g>
			<rect x="187.9" y="387.1" class="st9" width="10.8" height="1.8"/>
			<path class="st10" d="M198.2,387.6v0.8h-9.8v-0.8H198.2 M199.2,386.6h-11.8v2.8h11.8V386.6L199.2,386.6z"/>
		</g>
		<g>
			<rect x="181" y="410.3" class="st9" width="25.8" height="1.8"/>
			<path class="st10" d="M206.2,410.8v0.8h-24.8v-0.8H206.2 M207.2,409.8h-26.8v2.8h26.8V409.8L207.2,409.8z"/>
		</g>
		<path class="st11" d="M406.1,389H417l1.5,9.9h-13.9L406.1,389z"/>
		<g>
			<rect x="394.2" y="397.4" class="st9" width="35.9" height="15.9"/>
			<path class="st10" d="M429.7,397.9v14.9h-34.9v-14.9H429.7 M430.7,396.9h-36.9v16.9h36.9V396.9L430.7,396.9z"/>
		</g>
		<path class="st12" d="M407.9,402.3h8.4 M407.1,400.6h9.9v3h-9.9V400.6z"/>
		<path class="st11" d="M409.6,407.8c0-1.4,1.1-2.5,2.5-2.5s2.5,1.1,2.5,2.5v2.5h-5V407.8z"/>
		<g>
			<rect x="406.4" y="389" class="st9" width="10.2" height="8.6"/>
			<path class="st10" d="M416.1,389.5v7.6h-9.2v-7.6H416.1 M417.1,388.5h-11.2v9.6h11.2V388.5L417.1,388.5z"/>
		</g>
		<g>
			<rect x="406.1" y="387.1" class="st9" width="10.8" height="1.8"/>
			<path class="st10" d="M416.4,387.6v0.8h-9.8v-0.8H416.4 M417.4,386.6h-11.8v2.8h11.8V386.6L417.4,386.6z"/>
		</g>
		<g>
			<rect x="399.6" y="409.6" class="st9" width="25.8" height="1.8"/>
			<path class="st10" d="M424.9,410.1v0.8h-24.8v-0.8H424.9 M425.9,409.1h-26.8v2.8h26.8V409.1L425.9,409.1z"/>
		</g>
		<g>
			<g>
				<rect x="322.6" y="241.4" class="st9" width="47.3" height="21.3"/>
				<path class="st10" d="M369.4,241.9v20.3h-46.3v-20.3H369.4 M370.4,240.9h-48.3v22.3h48.3V240.9L370.4,240.9z"/>
			</g>
			<g>
				<g>
					<path class="st14" d="M365.5,252c0-3.6-3.1-6.4-6.7-6.1c-4,0.4-8.9,0.7-12.6,0.7s-8.6-0.4-12.6-0.7c-3.6-0.3-6.7,2.5-6.7,6.1
						s3.1,6.4,6.7,6.1c4-0.4,8.9-0.7,12.6-0.7s8.6,0.4,12.6,0.7C362.4,258.4,365.5,255.6,365.5,252z"/>
					<ellipse class="st14" cx="359.2" cy="252" rx="1" ry="1"/>
				</g>
			</g>
		</g>
		<g>
			<g>
				<rect x="316.7" y="287.3" class="st9" width="10.6" height="15.9"/>
				<path class="st10" d="M326.8,287.8v14.9h-9.6v-14.9H326.8 M327.8,286.8h-11.6v16.9h11.6V286.8L327.8,286.8z"/>
			</g>
			<g>
				<path class="st9" d="M322,298.5c-1.8,0-3.3-1.5-3.3-3.3s1.5-3.3,3.3-3.3s3.3,1.5,3.3,3.3C325.3,297,323.8,298.5,322,298.5z"/>
				<path class="st10" d="M322,292.4c1.5,0,2.8,1.2,2.8,2.8s-1.2,2.8-2.8,2.8c-1.5,0-2.8-1.2-2.8-2.8S320.5,292.4,322,292.4
					 M322,291.4c-2.1,0-3.8,1.7-3.8,3.8s1.7,3.8,3.8,3.8s3.8-1.7,3.8-3.8S324.1,291.4,322,291.4L322,291.4z"/>
			</g>
		</g>
		<g id="Sink_2">
			<g id="Rectangle_16_x5F_11">
				<rect x="358.7" y="262.7" class="st9" width="11.2" height="18.3"/>
				<path class="st10" d="M369.4,263.2v17.3h-10.2v-17.3H369.4 M370.4,262.2h-12.2v19.3h12.2V262.2L370.4,262.2z"/>
			</g>
			<path id="Rectangle_19_x5F_5" class="st11" d="M364.3,278.3L364.3,278.3c-2.1,0-3.7-1.7-3.7-3.7v-5.3c0-2.1,1.7-3.7,3.7-3.7l0,0
				c2.1,0,3.7,1.7,3.7,3.7v5.3C368,276.6,366.3,278.3,364.3,278.3z"/>
			<circle id="Ellipse_7_x5F_2" class="st11" cx="365.4" cy="271.9" r="1"/>
		</g>
		<g id="Toilet_1_">
			<g id="Rectangle_21_1_">
				<rect x="366.5" y="283.4" class="st9" width="3.4" height="10.9"/>
				<path class="st10" d="M369.4,283.9v9.9H367v-9.9H369.4 M370.4,282.9H366v11.9h4.4V282.9L370.4,282.9z"/>
			</g>
			<path id="Rectangle_19_x5F_2_1_" class="st11" d="M358.4,293.1c-2.5,0.2-4.5-1.8-4.5-4.3l0,0c0-2.5,2.1-4.4,4.5-4.3l7.9,0.5v7.5
				L358.4,293.1z"/>
			<path id="Rectangle_18_x5F_13_1_" class="st11" d="M358.6,291.6c-1.6,0.1-3-1.1-3-2.8l0,0c0-1.6,1.4-2.9,3-2.8l4.4,0.4v4.7
				L358.6,291.6z"/>
			<ellipse id="Ellipse_6_x5F_2_1_" class="st11" cx="360.4" cy="288.8" rx="1" ry="1"/>
		</g>
		<g id="Sink_2_1_">
			<g id="Rectangle_16_x5F_11_1_">
				<rect x="378.4" y="262.8" class="st9" width="11.2" height="18.3"/>
				<path class="st10" d="M389.1,263.3v17.3h-10.2v-17.3H389.1 M390.1,262.3h-12.2v19.3h12.2V262.3L390.1,262.3z"/>
			</g>
			<path id="Rectangle_19_x5F_5_1_" class="st11" d="M384,278.4L384,278.4c2.1,0,3.7-1.7,3.7-3.7v-5.3c0-2.1-1.7-3.7-3.7-3.7l0,0
				c-2.1,0-3.7,1.7-3.7,3.7v5.3C380.3,276.7,381.9,278.4,384,278.4z"/>
			<circle id="Ellipse_7_x5F_2_1_" class="st11" cx="382.9" cy="272" r="1"/>
		</g>
		<g id="Toilet_4_">
			<g id="Rectangle_21_4_">
				<rect x="406.4" y="299.8" class="st9" width="10.9" height="3.4"/>
				<path class="st10" d="M416.8,300.3v2.4h-9.9v-2.4H416.8 M417.8,299.3h-11.9v4.4h11.9V299.3L417.8,299.3z"/>
			</g>
			<path id="Rectangle_19_x5F_2_4_" class="st11" d="M416.1,291.7c0.2-2.5-1.8-4.5-4.3-4.5l0,0c-2.5,0-4.4,2.1-4.3,4.5l0.5,7.9h7.5
				L416.1,291.7z"/>
			<path id="Rectangle_18_x5F_13_4_" class="st11" d="M414.6,291.9c0.1-1.6-1.1-3-2.8-3l0,0c-1.6,0-2.9,1.4-2.8,3l0.4,4.4h4.7
				L414.6,291.9z"/>
			<ellipse id="Ellipse_6_x5F_2_4_" class="st11" cx="411.8" cy="293.7" rx="1" ry="1"/>
		</g>
		<g id="Sink_2_4_">
			<g id="Rectangle_16_x5F_11_6_">
				<rect x="316.7" y="170.3" class="st9" width="11.2" height="18.3"/>
				<path class="st10" d="M327.4,170.8v17.3h-10.2v-17.3H327.4 M328.4,169.8h-12.2v19.3h12.2V169.8L328.4,169.8z"/>
			</g>
			<path id="Rectangle_19_x5F_5_4_" class="st11" d="M322.3,185.8L322.3,185.8c2.1,0,3.7-1.7,3.7-3.7v-5.3c0-2.1-1.7-3.7-3.7-3.7
				l0,0c-2.1,0-3.7,1.7-3.7,3.7v5.3C318.6,184.1,320.2,185.8,322.3,185.8z"/>
			<circle id="Ellipse_7_x5F_2_4_" class="st11" cx="321.2" cy="179.4" r="1"/>
		</g>
		<g id="Toilet_6_">
			<g id="Rectangle_21_8_">
				<rect x="316.7" y="154.3" class="st9" width="3.4" height="10.9"/>
				<path class="st10" d="M319.6,154.8v9.9h-2.4v-9.9H319.6 M320.6,153.8h-4.4v11.9h4.4V153.8L320.6,153.8z"/>
			</g>
			<path id="Rectangle_19_x5F_2_6_" class="st11" d="M328.2,164c2.5,0.2,4.5-1.8,4.5-4.3l0,0c0-2.5-2.1-4.4-4.5-4.3l-7.9,0.5v7.5
				L328.2,164z"/>
			<path id="Rectangle_18_x5F_13_6_" class="st11" d="M328,162.5c1.6,0.1,3-1.1,3-2.8l0,0c0-1.6-1.4-2.9-3-2.8l-4.4,0.4v4.7
				L328,162.5z"/>
			<ellipse id="Ellipse_6_x5F_2_6_" class="st11" cx="326.1" cy="159.7" rx="1" ry="1"/>
		</g>
		<g id="TV_2_">
			<g id="Rectangle_16_2_">
				<rect x="271.5" y="362.6" class="st9" width="1.8" height="38.7"/>
				<path class="st10" d="M272.8,363.1v37.7H272v-37.7H272.8 M273.8,362.1H271v39.7h2.8V362.1L273.8,362.1z"/>
			</g>
			<g id="Rectangle_15_2_">
				<rect x="265.3" y="362.6" class="st9" width="6.1" height="38.7"/>
				<path class="st10" d="M271,363.1v37.7h-5.1v-37.7H271 M272,362.1h-7.1v39.7h7.1V362.1L272,362.1z"/>
			</g>
			<g id="Rectangle_17_2_">
				<rect x="266.9" y="369.3" class="st9" width="1.8" height="25.4"/>
				<path class="st10" d="M268.2,369.8v24.4h-0.8v-24.4H268.2 M269.2,368.8h-2.8v26.4h2.8V368.8L269.2,368.8z"/>
			</g>
			<path id="Rectangle_18_x5F_2_2_" class="st11" d="M266.9,387.5v-11.2l-1.6,1v9.1L266.9,387.5z"/>
		</g>
		<g id="TV_3_">
			<g id="Rectangle_16_3_">
				<rect x="305.3" y="252.8" class="st9" width="1.8" height="38.7"/>
				<path class="st10" d="M306.6,253.3V291h-0.8v-37.7H306.6 M307.6,252.3h-2.8V292h2.8V252.3L307.6,252.3z"/>
			</g>
			<g id="Rectangle_15_3_">
				<rect x="307.1" y="252.8" class="st9" width="6.1" height="38.7"/>
				<path class="st10" d="M312.8,253.3V291h-5.2v-37.7H312.8 M313.8,252.3h-7.2V292h7.1v-39.7H313.8z"/>
			</g>
			<g id="Rectangle_17_3_">
				<rect x="309.9" y="259.4" class="st9" width="1.8" height="25.4"/>
				<path class="st10" d="M311.2,259.9v24.4h-0.8v-24.4H311.2 M312.2,258.9h-2.8v26.4h2.8V258.9L312.2,258.9z"/>
			</g>
			<path id="Rectangle_18_x5F_2_3_" class="st11" d="M311.7,277.7v-11.2l1.6,1v9.1L311.7,277.7z"/>
		</g>
		<g>
			<g>
				<rect x="250" y="344.6" class="st9" width="1.8" height="61.7"/>
				<path class="st10" d="M251.3,345.1v60.7h-0.8v-60.7H251.3 M252.3,344.1h-2.8v62.7h2.8V344.1L252.3,344.1z"/>
			</g>
			<g>
				<rect x="251.8" y="344.6" class="st9" width="10.1" height="61.7"/>
				<path class="st10" d="M261.4,345.1v60.7h-9.1v-60.7H261.4 M262.4,344.1h-11.1v62.7h11.1V344.1L262.4,344.1z"/>
			</g>
			<path class="st11" d="M262,405.9l-10.3-61.1"/>
		</g>
		<g>
			<g>
				<rect x="290.4" y="321.5" class="st9" width="41.5" height="1.8"/>
				<path class="st10" d="M331.3,322v0.8h-40.5V322H331.3 M332.3,321h-42.5v2.8h42.5V321L332.3,321z"/>
			</g>
			<g>
				<rect x="290.4" y="306.7" class="st9" width="41.5" height="14.8"/>
				<path class="st10" d="M290.9,307.2h40.5V321h-40.5V307.2 M289.9,306.2V322h42.5v-15.8H289.9L289.9,306.2z"/>
			</g>
			<path class="st11" d="M331.7,306.8l-41.4,14.5"/>
		</g>
		<g>
			<g>
				<rect x="406.1" y="150.9" class="st9" width="1.8" height="37.7"/>
				<path class="st10" d="M407.4,151.4v36.7h-0.8v-36.7H407.4 M408.4,150.4h-2.8v38.7h2.8V150.4L408.4,150.4z"/>
			</g>
			<g>
				<rect x="407.9" y="150.9" class="st9" width="14.8" height="37.7"/>
				<path class="st10" d="M422.2,151.4v36.7h-13.8v-36.7H422.2 M423.2,150.4h-15.8v38.7h15.8V150.4L423.2,150.4z"/>
			</g>
			<path class="st11" d="M422.5,188.4L408,151"/>
		</g>
		<g>
			<g>
				<rect x="469.8" y="286.6" class="st9" width="37.7" height="1.8"/>
				<path class="st10" d="M507,287.9h-36.7v-0.8H507V287.9 M508,288.9v-2.8h-38.7v2.8H508L508,288.9z"/>
			</g>
			<g>
				<rect x="469.8" y="288.4" class="st9" width="37.7" height="14.8"/>
				<path class="st10" d="M507,302.7h-36.7l0-13.8H507V302.7 M508,303.7v-15.8h-38.7l0,15.8H508L508,303.7z"/>
			</g>
			<path class="st11" d="M470.1,303l37.3-14.5"/>
		</g>
		<g>
			<g>
				<rect x="378.5" y="321.5" class="st9" width="49.7" height="1.8"/>
				<path class="st10" d="M427.7,322v0.8H379V322H427.7 M428.7,321H378v2.8h50.7V321L428.7,321z"/>
			</g>
			<g>
				<rect x="378.5" y="306.7" class="st9" width="49.7" height="14.8"/>
				<path class="st10" d="M379,307.2h48.7V321H379V307.2 M378,306.2V322h50.7v-15.8H378L378,306.2z"/>
			</g>
			<path class="st11" d="M428,306.8l-49.5,14.5"/>
		</g>
		<g>
			<g>
				<rect x="514" y="396.7" class="st9" width="41.4" height="1.8"/>
				<path class="st10" d="M554.9,397.2v0.8h-40.4v-0.8H554.9 M555.9,396.2h-42.4v2.8h42.4V396.2L555.9,396.2z"/>
			</g>
			<g>
				<rect x="514" y="398.5" class="st9" width="41.4" height="14.8"/>
				<path class="st10" d="M554.9,399v13.8h-40.4V399H554.9 M555.9,398h-42.4v15.8h42.4V398L555.9,398z"/>
			</g>
			<path class="st11" d="M555.3,413.2l-41.4-14.5"/>
		</g>
		<circle class="st11" cx="534.5" cy="386.4" r="8.2"/>
		<g>
			<g>
				<rect x="378.4" y="241.4" class="st9" width="44.3" height="21.4"/>
				<path class="st10" d="M422.3,241.9v20.4H379v-20.4L422.3,241.9 M423.3,240.9H378v22.4h45.3V240.9L423.3,240.9z"/>
			</g>
			<g>
				<g>
					<path class="st14" d="M381.3,252.1c0-3.6,3.1-6.4,6.7-6.1c4,0.4,8.9,0.7,12.6,0.7s8.6-0.4,12.6-0.7c3.6-0.3,6.7,2.5,6.7,6.1
						s-3.1,6.4-6.7,6.1c-4-0.4-8.9-0.7-12.6-0.7s-8.6,0.4-12.6,0.7C384.4,258.5,381.3,255.7,381.3,252.1z"/>
					<ellipse class="st14" cx="387.6" cy="252.1" rx="1" ry="1"/>
				</g>
			</g>
		</g>
		<g id="TV">
			<g id="Rectangle_16">
				<rect x="480.8" y="122.5" class="st9" width="37.2" height="5"/>
				<path class="st10" d="M517.5,123v4h-36.2v-4H517.5 M518.5,122h-38.2v6h38.2V122L518.5,122z"/>
			</g>
			<g id="Rectangle_15">
				<rect x="480.8" y="118.9" class="st9" width="37.2" height="6.7"/>
				<path class="st10" d="M517.5,119.4v5.7h-36.2v-5.7H517.5 M518.5,118.4h-38.2v7.7h38.2V118.4L518.5,118.4z"/>
			</g>
			<rect id="Rectangle_17" x="486.7" y="120.5" class="st11" width="25.4" height="1.7"/>
			<path id="Rectangle_18_x5F_2" class="st11" d="M504.8,120.5h-10.7l1-1.6h8.8L504.8,120.5z"/>
		</g>
		<g>
			<g>
				<rect x="486.8" y="73.1" class="st9" width="17.1" height="42.4"/>
				<path class="st10" d="M503.3,73.6V115h-16.1l0-41.4H503.3 M504.3,72.6h-18.1l0,43.4h18.1V72.6L504.3,72.6z"/>
			</g>
			<g>
				<g>
					<path class="st14" d="M495.3,76.6c-3.3,0-5.9,2.9-5.6,6.1c0.3,3.6,0.6,8.2,0.6,11.6c0,3.4-0.3,7.9-0.6,11.6
						c-0.3,3.3,2.3,6.1,5.6,6.1s5.9-2.9,5.6-6.1c-0.3-3.6-0.6-8.2-0.6-11.6c0-3.4,0.3-7.9,0.6-11.6
						C501.2,79.4,498.6,76.6,495.3,76.6z"/>
					<ellipse class="st14" cx="495.3" cy="82.4" rx="1.1" ry="1.1"/>
				</g>
			</g>
		</g>
		<g id="Sink_2_2_">
			<g id="Rectangle_16_x5F_11_2_">
				<rect x="467.8" y="73.1" class="st9" width="19" height="11.6"/>
				<path class="st10" d="M486.3,73.6v10.6h-18V73.6H486.3 M487.3,72.6h-20v12.6h20V72.6L487.3,72.6z"/>
			</g>
			<path id="Rectangle_19_x5F_5_2_" class="st11" d="M470.7,78.9L470.7,78.9c0,2.1,1.7,3.9,3.9,3.9h5.5c2.1,0,3.9-1.7,3.9-3.9l0,0
				c0-2.1-1.7-3.9-3.9-3.9l-5.5,0C472.4,75,470.7,76.7,470.7,78.9z"/>
			<circle id="Ellipse_7_x5F_2_2_" class="st11" cx="477.3" cy="77.7" r="1.1"/>
		</g>
		<g id="Toilet_3_">
			<g id="Rectangle_21_3_">
				<rect x="443.8" y="87.5" class="st9" width="3.4" height="10.9"/>
				<path class="st10" d="M446.7,88v9.9h-2.4V88H446.7 M447.7,87h-4.4v11.9h4.4V87L447.7,87z"/>
			</g>
			<path id="Rectangle_19_x5F_2_3_" class="st11" d="M456.1,98.1c2.7,0.2,5-2.2,5-5.2l0,0c0-3-2.3-5.4-5-5.2l-8.7,0.6v9.1
				L456.1,98.1z"/>
			<path id="Rectangle_18_x5F_13_3_" class="st11" d="M455.2,96.3c2,0.2,3.7-1.4,3.7-3.4l0,0c0-2-1.7-3.6-3.7-3.4l-5.4,0.5v5.8
				L455.2,96.3z"/>
			<ellipse id="Ellipse_6_x5F_2_3_" class="st11" cx="452.3" cy="92.9" rx="1.1" ry="1.1"/>
		</g>
		<g>
			<g>
				<rect x="507.4" y="87.2" class="st9" width="41" height="1.8"/>
				<path class="st10" d="M547.8,87.7v0.8h-40v-0.8H547.8 M548.8,86.7h-42v2.8h42V86.7L548.8,86.7z"/>
			</g>
			<g>
				<rect x="507.4" y="73.1" class="st9" width="41" height="14.1"/>
				<path class="st10" d="M507.9,73.6l40,0v13.1h-40V73.6 M506.9,72.6v15.1h42V72.6L506.9,72.6L506.9,72.6z"/>
			</g>
			<path class="st11" d="M548.6,73.2L507,87"/>
		</g>
		<g>
			<g>
				<rect x="479.6" y="159.7" class="st9" width="39.7" height="47.1"/>
				<path class="st10" d="M480.1,160.2l38.7,0v46.1h-38.7V160.2 M479.1,159.2v48.1h40.7v-48.1L479.1,159.2L479.1,159.2z"/>
			</g>
			<rect x="482.6" y="191.9" class="st11" width="15.9" height="11.9"/>
			<rect x="500.4" y="191.9" class="st11" width="15.9" height="11.9"/>
			
				<rect x="485.8" y="186.6" transform="matrix(0.2588 -0.9659 0.9659 0.2588 178.5173 617.7426)" class="st15" width="11.9" height="11.9"/>
			
				<rect x="501.2" y="186.6" transform="matrix(0.9659 -0.2588 0.2588 0.9659 -32.5522 137.8172)" class="st15" width="11.9" height="11.9"/>
			<g>
				<polygon class="st9" points="479.6,194.2 479.6,159.2 519.3,159.2 519.3,196.7 503.5,197.7 				"/>
				<path class="st10" d="M480.1,159.7l38.7,0v36.5l-15.2,0.9l-23.4-3.4V159.7 M479.1,158.7v35.7v0.3l24.4,3.5l16.3-1v-0.8v-37.7
					L479.1,158.7L479.1,158.7z"/>
			</g>
			<polyline class="st12" points="519.2,195.9 503.3,195.9 479.5,194 			"/>
		</g>
		<g>
			<path class="st11" d="M454.1,162.6l0,12.2l-11.1,1.6l0-15.5L454.1,162.6z"/>
			<g>
				<rect x="426.2" y="151" class="st9" width="17.8" height="36.8"/>
				<path class="st10" d="M443.5,151.5l0,35.8h-16.8v-35.8H443.5 M444.5,150.5h-18.8v37.8h18.8L444.5,150.5L444.5,150.5z"/>
			</g>
			<path class="st12" d="M439.3,164.7l0,9.4 M441.1,163.8l0,11.1l-3.3,0l0-11.1L441.1,163.8z"/>
			<path class="st16" d="M441.3,159.3L441.3,159.3c0,0.5-0.4,0.8-0.8,0.8l-1.1,0c-0.5,0-0.8-0.4-0.8-0.8l0,0c0-0.5,0.4-0.8,0.8-0.8
				l1.1,0C440.9,158.4,441.3,158.8,441.3,159.3z"/>
			<path class="st11" d="M432.4,166.6c1.5,0,2.8,1.2,2.8,2.8c0,1.5-1.2,2.8-2.8,2.8l-2.8,0l0-5.5L432.4,166.6z"/>
			<g>
				<polygon class="st9" points="429.3,183.3 429.4,155.5 431.1,155.5 431,183.3 				"/>
				<path class="st10" d="M429.9,156l0.7,0l-0.1,26.8l-0.7,0L429.9,156 M428.9,155l-0.1,28.8l2.7,0l0.1-28.8L428.9,155L428.9,155z"
					/>
			</g>
			<g>
				<rect x="444.5" y="162.9" class="st9" width="9.7" height="11.6"/>
				<path class="st10" d="M453.7,163.4V174H445v-10.6H453.7 M454.7,162.4H444V175h10.7V162.4L454.7,162.4z"/>
			</g>
			<g>
				<rect x="454.2" y="162.7" class="st9" width="1.8" height="12"/>
				<path class="st10" d="M455.6,163.2v11h-0.8v-11H455.6 M456.6,162.2h-2.8v13h2.8V162.2L456.6,162.2z"/>
			</g>
		</g>
		<g>
			<g>
				<rect x="428.9" y="191.1" class="st9" width="3.8" height="17.9"/>
				<path class="st10" d="M432.2,191.6l0,16.9h-2.8v-16.9H432.2 M433.2,190.6h-4.8v18.9h4.8L433.2,190.6L433.2,190.6z"/>
			</g>
			<g>
				<rect x="431" y="191.1" class="st9" width="9.3" height="17.9"/>
				<path class="st10" d="M439.8,191.6v16.9h-8.3v-16.9H439.8 M440.8,190.6h-10.3v18.9h10.3V190.6L440.8,190.6z"/>
			</g>
			<path class="st11" d="M440.1,209.4l-9-18.6"/>
		</g>
		<g>
			<g>
				<rect x="383.2" y="166.7" class="st9" width="3.8" height="14"/>
				<path class="st10" d="M383.7,180.2l0-13h2.8v13H383.7 M382.7,181.2h4.8v-15h-4.8L382.7,181.2L382.7,181.2z"/>
			</g>
			<g>
				<rect x="378" y="166.7" class="st9" width="7" height="14"/>
				<path class="st10" d="M378.5,180.2v-13h6v13H378.5 M377.5,181.2h8v-15h-8V181.2L377.5,181.2z"/>
			</g>
			<path class="st11" d="M378.1,166.4l6.7,14.7"/>
		</g>
		<g>
			<g>
				<rect x="493.6" y="210.1" class="st9" width="39.7" height="47.1"/>
				<path class="st10" d="M532.8,210.6v46.1l-38.7,0v-46.1H532.8 M533.8,209.6h-40.7v48.1l40.7,0V209.6L533.8,209.6z"/>
			</g>
			<rect x="514.4" y="213" class="st11" width="15.9" height="11.9"/>
			<rect x="496.6" y="213" class="st11" width="15.9" height="11.9"/>
			
				<rect x="515.1" y="218.3" transform="matrix(0.2588 -0.9659 0.9659 0.2588 169.6205 669.5378)" class="st15" width="11.9" height="11.9"/>
			
				<rect x="499.8" y="218.3" transform="matrix(0.9659 -0.2588 0.2588 0.9659 -40.8071 138.521)" class="st15" width="11.9" height="11.9"/>
			<g>
				<polygon class="st9" points="493.6,257.6 493.6,220.1 509.4,219.1 533.3,222.6 533.3,257.6 				"/>
				<path class="st10" d="M509.3,219.6l23.4,3.4v34.1l-38.7,0l0-36.5L509.3,219.6 M509.4,218.6l-16.3,1v0.8l0,37.7l40.7,0v-35.7
					v-0.3L509.4,218.6L509.4,218.6z"/>
			</g>
			<polyline class="st12" points="493.6,220.9 509.5,220.9 533.3,222.8 			"/>
		</g>
		<g>
			<path class="st11" d="M520.5,291.6l0-12.2l11.1-1.6l0,15.5L520.5,291.6z"/>
			<g>
				<rect x="530.5" y="266.5" class="st9" width="17.8" height="36.8"/>
				<path class="st10" d="M547.9,267v35.8H531V267H547.9 M548.9,266H530v37.8h18.8V266L548.9,266z"/>
			</g>
			<path class="st12" d="M535.2,289.6l0-9.4 M533.4,290.4l0-11.1l3.3,0l0,11.1L533.4,290.4z"/>
			<path class="st16" d="M533.3,295L533.3,295c0-0.5,0.4-0.8,0.8-0.8l1.1,0c0.5,0,0.8,0.4,0.8,0.8l0,0c0,0.5-0.4,0.8-0.8,0.8l-1.1,0
				C533.6,295.8,533.3,295.4,533.3,295z"/>
			<path class="st11" d="M542.1,287.6c-1.5,0-2.8-1.2-2.8-2.8c0-1.5,1.2-2.8,2.8-2.8l2.8,0l0,5.5L542.1,287.6z"/>
			<g>
				<polygon class="st9" points="543.4,298.8 543.6,270.9 545.3,270.9 545.2,298.8 				"/>
				<path class="st10" d="M544,271.4l0.7,0l-0.1,26.8l-0.7,0L544,271.4 M543.1,270.4l-0.1,28.8l2.7,0l0.1-28.8L543.1,270.4
					L543.1,270.4z"/>
			</g>
			<g>
				<rect x="520.3" y="279.7" class="st9" width="9.7" height="11.6"/>
				<path class="st10" d="M529.5,280.2v10.6h-8.7v-10.6H529.5 M530.5,279.2h-10.7v12.6h10.7V279.2L530.5,279.2z"/>
			</g>
			<g>
				<rect x="518.5" y="279.4" class="st9" width="1.8" height="12"/>
				<path class="st10" d="M519.8,279.9v11H519v-11H519.8 M520.8,278.9H518v13h2.8V278.9L520.8,278.9z"/>
			</g>
		</g>
	</g>
	<g id="street_anchors" class="st17">
		<rect id="street_x5F_anchor_x5F_03" x="591.4" y="235" class="st18" width="10" height="10"/>
		<rect id="street_x5F_anchor_x5F_02" x="355" y="450" class="st18" width="10" height="10"/>
		<rect id="street_x5F_anchor_x5F_01_1_" x="118.6" y="234.9" class="st18" width="10" height="10"/>
	</g>
</g>
<g id="комнаты">
	<g>
		<g>
			<path class="st8" d="M387.5,192.3c0-0.8,0.4-1.4,1-1.6c-0.4-0.2-0.7-0.6-0.7-1.2c0-1.1,1.2-1.7,2.1-1.7c0.9,0,2.1,0.5,2.1,1.7
				c0,0.6-0.2,1-0.7,1.2c0.5,0.2,1,0.7,1,1.6c0,1.3-1.1,2-2.3,2C388.6,194.3,387.5,193.6,387.5,192.3z M391,192.2
				c0-0.6-0.6-0.9-1.2-0.9s-1.2,0.3-1.2,0.9c0,0.6,0.6,0.9,1.2,0.9C390.4,193.1,391,192.8,391,192.2z M390.7,189.7
				c0-0.5-0.5-0.7-0.9-0.7c-0.4,0-0.9,0.2-0.9,0.7c0,0.4,0.3,0.6,0.9,0.6C390.4,190.3,390.7,190.1,390.7,189.7z"/>
			<path class="st8" d="M393.8,192.5c0.4,0,0.8,0.4,0.8,0.9c0,0.5-0.3,0.9-0.8,0.9c-0.4,0-0.7-0.4-0.7-0.9
				C393.1,192.9,393.4,192.5,393.8,192.5z"/>
			<path class="st8" d="M399.4,189.4c-0.4-0.2-0.8-0.4-1.3-0.4c-0.8,0-1.6,0.7-1.6,2c0.4-0.4,1-0.9,1.7-0.9c1.2,0,1.9,1,1.9,1.9
				c0,1.3-0.9,2.2-2.1,2.2c-1.3,0-2.5-1.1-2.5-3.1c0-2.1,1.3-3.4,2.6-3.4c0.8,0,1.4,0.4,1.8,0.5L399.4,189.4z M396.6,191.9
				c0.2,0.8,0.8,1.3,1.4,1.3c0.6,0,1-0.5,1-1c0-0.4-0.2-0.8-0.9-0.8C397.5,191.2,397,191.5,396.6,191.9z"/>
		</g>
	</g>
	<g>
		<g>
			<path class="st8" d="M406.2,278.9h-0.8v1.3h-1.1v-1.3H401V278l3.3-3.9h1v3.7h0.8V278.9z M402.6,277.8h1.6v-2h-0.1
				C403.7,276.4,403.1,277.1,402.6,277.8L402.6,277.8z"/>
		</g>
	</g>
	<g>
		<g>
			<path class="st8" d="M338.7,171h0.7c0.3,0,0.6-0.2,0.6-0.6c0-0.5-0.4-0.7-0.8-0.7c-0.6,0-1.1,0.4-1.6,1l-0.6-0.9
				c0.5-0.6,1.3-1.3,2.2-1.3c0.8,0,1.9,0.5,1.9,1.8c0,0.5-0.3,0.9-0.5,1.1c0.4,0.2,0.9,0.6,0.9,1.5c0,1.4-1.1,2.2-2.4,2.2
				c-0.9,0-1.7-0.4-2.4-1.3l0.6-1c0.5,0.6,1,1,1.8,1c0.7,0,1.3-0.4,1.3-1c0-0.5-0.5-0.6-0.7-0.6h-0.9V171z"/>
			<path class="st8" d="M343.1,173.1c0.4,0,0.8,0.4,0.8,0.9c0,0.5-0.3,0.9-0.8,0.9c-0.4,0-0.7-0.4-0.7-0.9
				C342.3,173.5,342.6,173.1,343.1,173.1z"/>
			<path class="st8" d="M349.7,173.5h-0.8v1.3h-1.1v-1.3h-3.2v-0.9l3.3-3.9h1v3.7h0.8V173.5z M346.1,172.4h1.6v-2h-0.1
				C347.2,171.1,346.6,171.7,346.1,172.4L346.1,172.4z"/>
		</g>
	</g>
	<g>
		<g>
			<path class="st8" d="M338.5,279.8h-0.8v1.3h-1.1v-1.3h-3.2V279l3.3-3.9h1v3.7h0.8V279.8z M335,278.7h1.6v-2h-0.1
				C336,277.4,335.5,278.1,335,278.7L335,278.7z"/>
			<path class="st8" d="M340.1,279.5c0.4,0,0.8,0.4,0.8,0.9c0,0.5-0.3,0.9-0.8,0.9c-0.4,0-0.7-0.4-0.7-0.9
				C339.4,279.9,339.7,279.5,340.1,279.5z"/>
			<path class="st8" d="M346.7,279.8h-0.8v1.3h-1.1v-1.3h-3.2V279l3.3-3.9h1v3.7h0.8V279.8z M343.1,278.7h1.6v-2h-0.1
				C344.2,277.4,343.6,278.1,343.1,278.7L343.1,278.7z"/>
		</g>
	</g>
	<g>
		<g>
			<path class="st8" d="M525.8,181.6l1.4-0.8h1v6.1h-1.1v-4.7l-1,0.6L525.8,181.6z"/>
			<path class="st8" d="M529.3,186.2l0.5-1c0.3,0.3,1,0.7,1.9,0.7c0.6,0,1.2-0.3,1.2-1c0-0.6-0.5-0.9-0.9-0.9
				c-0.6,0-1.1,0.3-1.5,0.6l-0.6-0.6v-3.2h3.7v1.2h-2.7v1.4c0.4-0.3,0.7-0.6,1.3-0.6c0.9,0,1.9,0.6,1.9,2c0,1.6-1.2,2.3-2.3,2.3
				C530.5,187.1,529.7,186.5,529.3,186.2z"/>
			<path class="st8" d="M535.6,185.2c0.4,0,0.8,0.4,0.8,0.9c0,0.5-0.3,0.9-0.8,0.9c-0.4,0-0.7-0.4-0.7-0.9
				C534.8,185.7,535.1,185.2,535.6,185.2z"/>
			<path class="st8" d="M537,181.6l1.4-0.8h1v6.1h-1.1v-4.7l-1,0.6L537,181.6z"/>
		</g>
	</g>
	<g>
		<g>
			<path class="st8" d="M528.4,343.5l1.4-0.8h1v6.1h-1.1v-4.7l-1,0.6L528.4,343.5z"/>
			<path class="st8" d="M532.1,347.8c0-1.5,0.9-2.2,2-2.6c0.3-0.1,0.8-0.3,0.8-0.9c0-0.5-0.4-0.6-0.8-0.6c-0.7,0-1.1,0.4-1.6,0.9
				l-0.6-1c0.6-0.6,1.2-1.2,2.1-1.2c0.9,0,1.9,0.5,1.9,1.8c0,1.4-1,1.8-1.8,2.1c-0.7,0.3-1.1,0.6-1.1,1.1v0.1h2.8v1.2h-3.9V347.8z"
				/>
			<path class="st8" d="M537.7,347.1c0.4,0,0.8,0.4,0.8,0.9c0,0.5-0.3,0.9-0.8,0.9c-0.4,0-0.7-0.4-0.7-0.9
				C537,347.6,537.3,347.1,537.7,347.1z"/>
			<path class="st8" d="M539.1,343.5l1.4-0.8h1v6.1h-1.1v-4.7l-1,0.6L539.1,343.5z"/>
		</g>
	</g>
	<g>
		<g>
			<path class="st8" d="M443.4,372l1.4-0.8h1v6.1h-1.1v-4.7l-1,0.6L443.4,372z"/>
			<path class="st8" d="M447,376.3c0-1.5,0.9-2.2,2-2.6c0.3-0.1,0.8-0.3,0.8-0.9c0-0.5-0.4-0.6-0.8-0.6c-0.7,0-1.1,0.4-1.6,0.9
				l-0.6-1c0.6-0.6,1.2-1.2,2.1-1.2c0.9,0,1.9,0.5,1.9,1.8c0,1.4-1,1.8-1.8,2.1c-0.7,0.3-1.1,0.6-1.1,1.1v0.1h2.8v1.2H447V376.3z"/>
		</g>
	</g>
	<g>
		<g>
			<path class="st8" d="M309,339.5l1.4-0.8h1v6.1h-1.1v-4.7l-1,0.6L309,339.5z"/>
			<path class="st8" d="M312.7,343.8c0-1.5,0.9-2.2,2-2.6c0.3-0.1,0.8-0.3,0.8-0.9c0-0.5-0.4-0.6-0.8-0.6c-0.7,0-1.1,0.4-1.6,0.9
				l-0.6-1c0.6-0.6,1.2-1.2,2.1-1.2c0.9,0,1.9,0.5,1.9,1.8c0,1.4-1,1.8-1.8,2.1c-0.7,0.3-1.1,0.6-1.1,1.1v0.1h2.8v1.2h-3.9V343.8z"
				/>
			<path class="st8" d="M318.3,343.1c0.4,0,0.8,0.4,0.8,0.9c0,0.5-0.3,0.9-0.8,0.9c-0.4,0-0.7-0.4-0.7-0.9
				C317.6,343.5,317.9,343.1,318.3,343.1z"/>
			<path class="st8" d="M319.7,339.5l1.4-0.8h1v6.1H321v-4.7l-1,0.6L319.7,339.5z"/>
		</g>
	</g>
	<g>
		<g>
			<path class="st8" d="M219.5,375.3l1.4-0.8h1v6.1h-1.1v-4.7l-1,0.6L219.5,375.3z"/>
			<path class="st8" d="M223.2,379.6c0-1.5,0.9-2.2,2-2.6c0.3-0.1,0.8-0.3,0.8-0.9c0-0.5-0.4-0.6-0.8-0.6c-0.7,0-1.1,0.4-1.6,0.9
				l-0.6-1c0.6-0.6,1.2-1.2,2.1-1.2c0.9,0,1.9,0.5,1.9,1.8c0,1.4-1,1.8-1.8,2.1c-0.7,0.3-1.1,0.6-1.1,1.1v0.1h2.8v1.2h-3.9V379.6z"
				/>
			<path class="st8" d="M228.8,378.9c0.4,0,0.8,0.4,0.8,0.9c0,0.5-0.3,0.9-0.8,0.9c-0.4,0-0.7-0.4-0.7-0.9
				C228.1,379.3,228.4,378.9,228.8,378.9z"/>
			<path class="st8" d="M230.2,375.3l1.4-0.8h1v6.1h-1.1v-4.7l-1,0.6L230.2,375.3z"/>
		</g>
	</g>
	<g>
		<g>
			<path class="st8" d="M467.1,103.8h-0.8v1.3h-1.1v-1.3h-3.2V103l3.3-3.9h1v3.7h0.8V103.8z M463.5,102.7h1.6v-2h-0.1
				C464.6,101.4,464,102.1,463.5,102.7L463.5,102.7z"/>
			<path class="st8" d="M468.6,103.5c0.4,0,0.8,0.4,0.8,0.9c0,0.5-0.3,0.9-0.8,0.9c-0.4,0-0.7-0.4-0.7-0.9
				C467.9,103.9,468.2,103.5,468.6,103.5z"/>
			<path class="st8" d="M470.3,104.1c0-1.5,0.9-2.2,2-2.6c0.3-0.1,0.8-0.3,0.8-0.9c0-0.5-0.4-0.6-0.8-0.6c-0.7,0-1.1,0.4-1.6,0.9
				l-0.6-1c0.6-0.6,1.2-1.2,2.1-1.2c0.9,0,1.9,0.5,1.9,1.8c0,1.4-1,1.8-1.8,2.1c-0.7,0.3-1.1,0.6-1.1,1.1v0.1h2.8v1.2h-3.9V104.1z"
				/>
		</g>
	</g>
	<g>
		<g>
			<path class="st8" d="M521.4,100l1.4-0.8h1v6.1h-1.1v-4.7l-1,0.6L521.4,100z"/>
			<path class="st8" d="M525.8,103.6c0.4,0,0.8,0.4,0.8,0.9c0,0.5-0.3,0.9-0.8,0.9c-0.4,0-0.7-0.4-0.7-0.9
				C525.1,104,525.4,103.6,525.8,103.6z"/>
			<path class="st8" d="M527.6,104.3c0-1.5,0.9-2.2,2-2.6c0.3-0.1,0.8-0.3,0.8-0.9c0-0.5-0.4-0.6-0.8-0.6c-0.7,0-1.1,0.4-1.6,0.9
				l-0.6-1c0.6-0.6,1.2-1.2,2.1-1.2c0.9,0,1.9,0.5,1.9,1.8c0,1.4-1,1.8-1.8,2.1c-0.7,0.3-1.1,0.6-1.1,1.1v0.1h2.8v1.2h-3.9V104.3z"
				/>
		</g>
	</g>
	<g>
		<g>
			<path class="st8" d="M495,267.9l1.4-0.8h1v6.1h-1.1v-4.7l-1,0.6L495,267.9z"/>
			<path class="st8" d="M498.4,267.9l1.4-0.8h1v6.1h-1.1v-4.7l-1,0.6L498.4,267.9z"/>
			<path class="st8" d="M502.8,271.6c0.4,0,0.8,0.4,0.8,0.9c0,0.5-0.3,0.9-0.8,0.9c-0.4,0-0.7-0.4-0.7-0.9
				C502,272,502.3,271.6,502.8,271.6z"/>
			<path class="st8" d="M504.4,267.1h4.2v1.2l-2.4,4.9h-1.4l2.5-4.8h-2.9V267.1z"/>
		</g>
	</g>
	<g>
		<g>
			<path class="st8" d="M222.3,173.9l1.4-0.8h1v6.1h-1.1v-4.7l-1,0.6L222.3,173.9z"/>
			<path class="st8" d="M227.8,175.5h0.7c0.3,0,0.6-0.2,0.6-0.6c0-0.5-0.4-0.7-0.8-0.7c-0.6,0-1.1,0.4-1.6,1l-0.6-0.9
				c0.5-0.6,1.3-1.3,2.2-1.3c0.8,0,1.9,0.5,1.9,1.8c0,0.5-0.3,0.9-0.5,1.1c0.4,0.2,0.9,0.6,0.9,1.5c0,1.4-1.1,2.2-2.4,2.2
				c-0.9,0-1.7-0.4-2.4-1.3l0.6-1c0.5,0.6,1,1,1.8,1c0.7,0,1.3-0.4,1.3-1c0-0.5-0.5-0.6-0.7-0.6h-0.9V175.5z"/>
			<path class="st8" d="M232.2,177.6c0.4,0,0.8,0.4,0.8,0.9c0,0.5-0.3,0.9-0.8,0.9c-0.4,0-0.7-0.4-0.7-0.9
				C231.4,178,231.7,177.6,232.2,177.6z"/>
			<path class="st8" d="M233.6,173.9l1.4-0.8h1v6.1h-1.1v-4.7l-1,0.6L233.6,173.9z"/>
		</g>
	</g>
	<g>
		<g>
			<path class="st8" d="M252.9,250.8h0.7c0.3,0,0.6-0.2,0.6-0.6c0-0.5-0.4-0.7-0.8-0.7c-0.6,0-1.1,0.5-1.6,1l-0.6-0.9
				c0.5-0.6,1.3-1.3,2.2-1.3c0.8,0,1.9,0.5,1.9,1.8c0,0.5-0.3,0.9-0.5,1.1c0.4,0.2,0.9,0.6,0.9,1.5c0,1.4-1.1,2.2-2.4,2.2
				c-0.9,0-1.7-0.4-2.4-1.3l0.6-1c0.5,0.6,1,1,1.8,1c0.7,0,1.3-0.4,1.3-1c0-0.5-0.5-0.6-0.7-0.6h-0.9V250.8z"/>
			<path class="st8" d="M260.4,249.8c-0.4-0.2-0.8-0.4-1.3-0.4c-0.8,0-1.6,0.7-1.6,2c0.4-0.5,1-0.9,1.7-0.9c1.2,0,1.9,1,1.9,1.9
				c0,1.3-0.9,2.2-2.1,2.2c-1.3,0-2.5-1.1-2.5-3.1c0-2.1,1.3-3.4,2.6-3.4c0.8,0,1.4,0.4,1.8,0.5L260.4,249.8z M257.6,252.2
				c0.2,0.8,0.8,1.3,1.4,1.3c0.6,0,1-0.5,1-1c0-0.4-0.2-0.8-0.9-0.8C258.6,251.6,258,251.9,257.6,252.2z"/>
			<path class="st8" d="M262.8,252.9c0.4,0,0.8,0.4,0.8,0.9c0,0.5-0.3,0.9-0.8,0.9c-0.4,0-0.7-0.4-0.7-0.9
				C262,253.3,262.4,252.9,262.8,252.9z"/>
			<path class="st8" d="M264.5,253.5c0-1.5,0.9-2.2,2-2.6c0.3-0.1,0.8-0.3,0.8-0.9c0-0.5-0.4-0.6-0.8-0.6c-0.7,0-1.1,0.4-1.6,0.9
				l-0.6-1c0.6-0.6,1.2-1.2,2.1-1.2c0.9,0,1.9,0.5,1.9,1.8c0,1.4-1,1.8-1.8,2.1c-0.7,0.3-1.1,0.6-1.1,1.1v0.1h2.8v1.2h-3.9V253.5z"
				/>
		</g>
	</g>
</g>
</svg>
