<?xml version="1.0" encoding="utf-8"?>
<!-- Generator: Adobe Illustrator 26.0.3, SVG Export Plug-In . SVG Version: 6.00 Build 0)  -->
<svg version="1.1" xmlns="http://www.w3.org/2000/svg" xmlns:xlink="http://www.w3.org/1999/xlink" x="0px" y="0px"
	 viewBox="0 0 720 480" style="enable-background:new 0 0 720 480;" xml:space="preserve">
<style type="text/css">
	.st0{fill:#DBD4CA;}
	.st1{clip-path:url(#SVGID_00000128486439788664021560000012521257260952381603_);}
	.st2{fill:none;stroke:#C49F8A;stroke-miterlimit:10;}
	.st3{opacity:0.3;clip-path:url(#SVGID_00000101102284750832935540000011563447499904794002_);}
	.st4{opacity:0.7;fill:#C49F8A;enable-background:new    ;}
	.st5{fill:none;stroke:#565440;}
	.st6{fill:#565440;}
	.st7{fill:#E9E4DC;}
	.st8{fill:#C49F8A;}
	.st9{fill:#E9E4DC;stroke:#C49F8A;stroke-linejoin:round;}
	.st10{fill:#E9E4DC;stroke:#C49F8A;}
	.st11{fill:none;stroke:#C49F8A;}
	.st12{fill:#E9E4DC;stroke:#C49F8A;stroke-miterlimit:3.9998;}
	.st13{fill:none;}
</style>
<g id="_x31__x5F_2">
	<rect id="Floor" x="155.4" y="64.9" class="st0" width="419.2" height="350.7"/>
	<g id="Wet_Floor_1_">
		<g>
			<defs>
				<rect id="SVGID_1_" x="432" y="70.7" width="131.1" height="127.4"/>
			</defs>
			<clipPath id="SVGID_00000152965992207586880340000007382585827402624693_">
				<use xlink:href="#SVGID_1_"  style="overflow:visible;"/>
			</clipPath>
			<g style="clip-path:url(#SVGID_00000152965992207586880340000007382585827402624693_);">
				<g>
					<line class="st2" x1="212" y1="143.8" x2="545.5" y2="-189.7"/>
					<line class="st2" x1="201.6" y1="133.4" x2="535.1" y2="-200.1"/>
					<line class="st2" x1="222.4" y1="154.2" x2="555.9" y2="-179.2"/>
					<line class="st2" x1="232.8" y1="164.7" x2="566.3" y2="-168.8"/>
					<line class="st2" x1="243.3" y1="175.1" x2="576.7" y2="-158.4"/>
					<line class="st2" x1="253.7" y1="185.5" x2="587.2" y2="-148"/>
					<line class="st2" x1="264.1" y1="195.9" x2="597.6" y2="-137.6"/>
					<line class="st2" x1="274.5" y1="206.3" x2="608" y2="-127.1"/>
					<line class="st2" x1="284.9" y1="216.8" x2="618.4" y2="-116.7"/>
					<line class="st2" x1="295.4" y1="227.2" x2="628.9" y2="-106.3"/>
					<line class="st2" x1="284.9" y1="216.8" x2="618.4" y2="-116.7"/>
					<line class="st2" x1="305.8" y1="237.6" x2="639.3" y2="-95.9"/>
					<line class="st2" x1="316.2" y1="248" x2="649.7" y2="-85.5"/>
					<line class="st2" x1="326.6" y1="258.4" x2="660.1" y2="-75"/>
					<line class="st2" x1="337.1" y1="268.9" x2="670.5" y2="-64.6"/>
					<line class="st2" x1="347.5" y1="279.3" x2="681" y2="-54.2"/>
					<line class="st2" x1="357.9" y1="289.7" x2="691.4" y2="-43.8"/>
					<line class="st2" x1="368.3" y1="300.1" x2="701.8" y2="-33.3"/>
					<line class="st2" x1="378.7" y1="310.6" x2="712.2" y2="-22.9"/>
					<line class="st2" x1="368.3" y1="300.1" x2="701.8" y2="-33.3"/>
					<line class="st2" x1="389.2" y1="321" x2="722.6" y2="-12.5"/>
					<line class="st2" x1="399.6" y1="331.4" x2="733.1" y2="-2.1"/>
					<line class="st2" x1="410" y1="341.8" x2="743.5" y2="8.3"/>
					<line class="st2" x1="420.4" y1="352.2" x2="753.9" y2="18.8"/>
					<line class="st2" x1="430.8" y1="362.7" x2="764.3" y2="29.2"/>
					<line class="st2" x1="441.3" y1="373.1" x2="774.8" y2="39.6"/>
					<line class="st2" x1="451.7" y1="383.5" x2="785.2" y2="50"/>
					<line class="st2" x1="462.1" y1="393.9" x2="795.6" y2="60.4"/>
					<line class="st2" x1="451.7" y1="383.5" x2="785.2" y2="50"/>
					<line class="st2" x1="472.5" y1="404.3" x2="806" y2="70.9"/>
					<line class="st2" x1="483" y1="414.8" x2="816.4" y2="81.3"/>
					<line class="st2" x1="493.4" y1="425.2" x2="826.9" y2="91.7"/>
					<line class="st2" x1="503.8" y1="435.6" x2="837.3" y2="102.1"/>
					<line class="st2" x1="514.2" y1="446" x2="847.7" y2="112.5"/>
					<line class="st2" x1="524.6" y1="456.5" x2="858.1" y2="123"/>
					<line class="st2" x1="535.1" y1="466.9" x2="868.5" y2="133.4"/>
				</g>
				<g>
					<line class="st2" x1="545.5" y1="456.5" x2="212" y2="123"/>
					<line class="st2" x1="535.1" y1="466.9" x2="201.6" y2="133.4"/>
					<line class="st2" x1="555.9" y1="446" x2="222.4" y2="112.5"/>
					<line class="st2" x1="566.3" y1="435.6" x2="232.8" y2="102.1"/>
					<line class="st2" x1="576.7" y1="425.2" x2="243.3" y2="91.7"/>
					<line class="st2" x1="587.2" y1="414.8" x2="253.7" y2="81.3"/>
					<line class="st2" x1="597.6" y1="404.3" x2="264.1" y2="70.9"/>
					<line class="st2" x1="608" y1="393.9" x2="274.5" y2="60.4"/>
					<line class="st2" x1="618.4" y1="383.5" x2="284.9" y2="50"/>
					<line class="st2" x1="628.9" y1="373.1" x2="295.4" y2="39.6"/>
					<line class="st2" x1="618.4" y1="383.5" x2="284.9" y2="50"/>
					<line class="st2" x1="639.3" y1="362.7" x2="305.8" y2="29.2"/>
					<line class="st2" x1="649.7" y1="352.2" x2="316.2" y2="18.8"/>
					<line class="st2" x1="660.1" y1="341.8" x2="326.6" y2="8.3"/>
					<line class="st2" x1="670.5" y1="331.4" x2="337.1" y2="-2.1"/>
					<line class="st2" x1="681" y1="321" x2="347.5" y2="-12.5"/>
					<line class="st2" x1="691.4" y1="310.6" x2="357.9" y2="-22.9"/>
					<line class="st2" x1="701.8" y1="300.1" x2="368.3" y2="-33.3"/>
					<line class="st2" x1="712.2" y1="289.7" x2="378.7" y2="-43.8"/>
					<line class="st2" x1="701.8" y1="300.1" x2="368.3" y2="-33.3"/>
					<line class="st2" x1="722.6" y1="279.3" x2="389.2" y2="-54.2"/>
					<line class="st2" x1="733.1" y1="268.9" x2="399.6" y2="-64.6"/>
					<line class="st2" x1="743.5" y1="258.4" x2="410" y2="-75"/>
					<line class="st2" x1="753.9" y1="248" x2="420.4" y2="-85.5"/>
					<line class="st2" x1="764.3" y1="237.6" x2="430.8" y2="-95.9"/>
					<line class="st2" x1="774.8" y1="227.2" x2="441.3" y2="-106.3"/>
					<line class="st2" x1="785.2" y1="216.8" x2="451.7" y2="-116.7"/>
					<line class="st2" x1="795.6" y1="206.3" x2="462.1" y2="-127.1"/>
					<line class="st2" x1="785.2" y1="216.8" x2="451.7" y2="-116.7"/>
					<line class="st2" x1="806" y1="195.9" x2="472.5" y2="-137.6"/>
					<line class="st2" x1="816.4" y1="185.5" x2="483" y2="-148"/>
					<line class="st2" x1="826.9" y1="175.1" x2="493.4" y2="-158.4"/>
					<line class="st2" x1="837.3" y1="164.7" x2="503.8" y2="-168.8"/>
					<line class="st2" x1="847.7" y1="154.2" x2="514.2" y2="-179.2"/>
					<line class="st2" x1="858.1" y1="143.8" x2="524.6" y2="-189.7"/>
					<line class="st2" x1="868.5" y1="133.4" x2="535.1" y2="-200.1"/>
				</g>
			</g>
		</g>
		<g>
			<defs>
				<rect id="SVGID_00000145023130005974528510000010646071403440474546_" x="432" y="70.7" width="131.1" height="127.4"/>
			</defs>
			<clipPath id="SVGID_00000122683094930428561770000015789414102918971028_">
				<use xlink:href="#SVGID_00000145023130005974528510000010646071403440474546_"  style="overflow:visible;"/>
			</clipPath>
			<g style="opacity:0.3;clip-path:url(#SVGID_00000122683094930428561770000015789414102918971028_);">
				<rect x="374" y="-38.1" class="st4" width="322.2" height="322.2"/>
			</g>
		</g>
	</g>
	<path id="Windows_1_" class="st5" d="M147.9,72.3h7.4v276.2h-7.4V72.3z"/>
	<path id="Doors_1_" class="st5" d="M357.5,227.7c0-5.4,1-9.9,3-14.8c2-4.9,4.9-9.4,8.4-12.8c3.5-3.9,7.9-6.9,12.8-8.9s9.9-3,15.3-3
		v39.5 M485.7,193.2c0-5.4-1-9.9-3-14.8c-2-4.9-4.9-9.4-8.4-12.8c-3.5-3.9-7.9-6.9-12.8-8.9c-4.9-2-9.9-3-15.3-3v39.5 M574.5,240
		c6.4,0,12.3,1.5,18.2,3.9s11.8,5.9,16.3,10.8c4.4,4.4,8.4,9.9,10.8,15.8c2.5,5.9,3.9,12.3,3.9,18.7h-49.3"/>
	<g id="Walls">
		<rect x="145.5" y="138.9" class="st6" width="24.7" height="34.5"/>
		<polygon class="st6" points="175,242.5 175,232.6 357.5,232.6 357.5,227.7 175,227.7 170.1,227.7 170.1,232.6 170.1,242.5 
			145.5,242.5 145.5,277 175,277 		"/>
		<path class="st6" d="M559.7,313.3h-34.3v4.9h34.3v87h-87v-19h-22.3v19H175V346h-29.6v74h26.1h3.5h399.5v-14.8V288.3h-14.8V313.3z
			 M455.5,391.3h12.2v13.9h-12.2V391.3z"/>
		<path class="st6" d="M145.5,60v14.8h286v118.4h-24.7h-4.9v34.5H397v4.9h39.5v-4.9h-29.6v-29.6h39.5v-4.9h-9.9V74.8h107V91h16.2
			v102.2h-74v4.9h74V241h14.8V74.8V60H145.5z M548.6,85.9V74.8h11.1v11.1H548.6z"/>
	</g>
	<g id="Furniture_3_">
		<g>
			<polygon class="st7" points="473.2,404.8 473.2,385.8 450,385.8 450,404.8 446.4,404.8 446.4,373.5 528.8,373.5 528.8,404.8 			
				"/>
			<path class="st8" d="M528.3,374v30.3h-54.6v-18v-1h-1h-22.2h-1v1v18h-2.6v-18V374h3.6h22.2h2.2H528.3 M529.3,373H475h-2.2h-22.2
				H446v13.3v19h4.6v-19h22.2v19h56.5V373L529.3,373z"/>
		</g>
		<g>
			<g>
				<rect x="437" y="75.3" class="st7" width="94.4" height="38.5"/>
				<path class="st8" d="M437.5,75.8h93.4v37.5h-93.4L437.5,75.8 M436.5,74.8v39.5h95.4V74.8H436.5L436.5,74.8z"/>
			</g>
			<g>
				<g>
					<path class="st9" d="M523.1,94.6c0-7.3-6.3-13-13.5-12.3c-8,0.7-18,1.4-25.4,1.4s-17.4-0.7-25.4-1.4
						c-7.2-0.7-13.5,5.1-13.5,12.3s6.3,13,13.5,12.3c8-0.7,18-1.4,25.4-1.4s17.4,0.7,25.4,1.4C516.8,107.6,523.1,101.9,523.1,94.6z"
						/>
					<ellipse class="st9" cx="510.4" cy="94.6" rx="1.6" ry="1.6"/>
				</g>
			</g>
		</g>
		<g>
			<g>
				<rect x="257.3" y="244.8" class="st7" width="74.9" height="4.3"/>
				<path class="st8" d="M331.7,245.3v3.3h-73.9v-3.3H331.7 M332.7,244.3h-75.9v5.3h75.9V244.3L332.7,244.3z"/>
			</g>
			<g>
				<rect x="257.3" y="233.2" class="st7" width="74.9" height="12.5"/>
				<path class="st8" d="M331.7,233.7v11.5h-73.9v-11.5H331.7 M332.7,232.7h-75.9v13.5h75.9V232.7L332.7,232.7z"/>
			</g>
			<rect x="268.6" y="235.8" class="st10" width="53.7" height="2.4"/>
			<path class="st10" d="M284.1,235.8h22.7l-2.1-2.8h-18.6L284.1,235.8z"/>
		</g>
		<g>
			<g>
				<rect x="257.3" y="211.2" class="st7" width="74.9" height="4.3"/>
				<path class="st8" d="M331.7,211.7v3.3h-73.9v-3.3H331.7 M332.7,210.7h-75.9v5.3h75.9V210.7L332.7,210.7z"/>
			</g>
			<g>
				<rect x="257.3" y="214.7" class="st7" width="74.9" height="12.5"/>
				<path class="st8" d="M331.7,215.2v11.5h-73.9v-11.5H331.7 M332.7,214.2h-75.9v13.5h75.9V214.2L332.7,214.2z"/>
			</g>
			<rect x="268.6" y="222.1" class="st10" width="53.7" height="2.4"/>
			<path class="st10" d="M284.1,224.5h22.7l-2.1,2.8h-18.6L284.1,224.5z"/>
		</g>
		<g id="Sink_2_2_">
			<g id="Rectangle_16_x5F_11_3_">
				<rect x="537.3" y="114.2" class="st7" width="22" height="30.6"/>
				<path class="st8" d="M558.8,114.7v29.6h-21v-29.6L558.8,114.7 M559.8,113.7h-23v31.6h23V113.7L559.8,113.7z"/>
			</g>
			<path id="Rectangle_19_x5F_5_2_" class="st10" d="M548.3,119.1L548.3,119.1c-3.6,0-6.5,2.7-6.5,6.1v8.7c0,3.3,2.9,6.1,6.5,6.1
				l0,0c3.6,0,6.5-2.7,6.5-6.1v-8.7C554.9,121.9,551.9,119.1,548.3,119.1z"/>
			<circle id="Ellipse_7_x5F_2_2_" class="st10" cx="551.2" cy="129.5" r="1.6"/>
		</g>
		<g id="Rectangle_24_2_">
			<rect x="528.8" y="318.7" class="st7" width="30.5" height="73.1"/>
			<path class="st8" d="M558.8,319.2v72.1h-29.5v-72.1H558.8 M559.8,318.2h-31.5v74.1h31.5V318.2L559.8,318.2z"/>
		</g>
		<g id="Rectangle_24_4_">
			<rect x="528.8" y="391.7" class="st7" width="30.5" height="13"/>
			<path class="st8" d="M558.8,392.2v12h-29.5v-12H558.8 M559.8,391.2h-31.5v14h31.5V391.2L559.8,391.2z"/>
		</g>
		<g id="Sink_3_2_">
			<rect id="Rectangle_28_x5F_2_2_" x="532" y="339.8" class="st10" width="24.1" height="38.1"/>
			<path id="Rectangle_29_x5F_2_2_" class="st10" d="M544.1,362.9L544.1,362.9c-5,0-9-4-9-9v-2c0-5,4-9,9-9l0,0c5,0,9,4,9,9v2
				C553.1,358.8,549,362.9,544.1,362.9z"/>
			<ellipse id="Ellipse_7_x5F_3_2_" class="st10" cx="548.1" cy="352.8" rx="1.6" ry="1.6"/>
			<path id="Vector_2_2_" class="st11" d="M553.1,375.9v-10 M550.1,375.9v-10 M547.1,375.9v-10 M544.1,375.9v-10 M541,375.9v-10
				 M538,375.9v-10 M535,375.9v-10"/>
		</g>
		<g id="Stove_2_">
			<g id="Rectangle_25_2_">
				<rect x="476.8" y="373.4" class="st7" width="30.7" height="30.9"/>
				<path class="st8" d="M477.3,373.9H507v29.9h-29.7V373.9 M476.3,372.9v31.9H508v-31.9H476.3L476.3,372.9z"/>
			</g>
			<g id="Rectangle_28_x5F_3_2_">
				<rect x="476.8" y="402.1" class="st7" width="30.7" height="2.6"/>
				<path class="st8" d="M477.3,402.6H507v1.6h-29.7V402.6 M476.3,401.6v3.6H508v-3.6H476.3L476.3,401.6z"/>
			</g>
			<g id="Ellipse_7_x5F_4_2_">
				<path class="st7" d="M486,396.5c-1.7,0-3.1-1.3-3.1-3s1.4-3,3.1-3s3,1.3,3,3S487.6,396.5,486,396.5z"/>
				<path class="st8" d="M486,391c1.4,0,2.6,1.1,2.6,2.5s-1.1,2.5-2.6,2.5c-1.4,0-2.6-1.1-2.6-2.5S484.5,391,486,391 M486,390
					c-2,0-3.6,1.6-3.6,3.5s1.6,3.5,3.6,3.5s3.6-1.6,3.6-3.5S487.9,390,486,390L486,390z"/>
			</g>
			<g id="Ellipse_9_2_">
				<path class="st7" d="M486,386.9c-2.2,0-3.9-1.7-3.9-3.9s1.8-3.9,3.9-3.9c2.2,0,3.9,1.7,3.9,3.9S488.1,386.9,486,386.9z"/>
				<path class="st8" d="M486,379.6c1.9,0,3.4,1.5,3.4,3.4s-1.5,3.4-3.4,3.4s-3.4-1.5-3.4-3.4C482.5,381.1,484.1,379.6,486,379.6
					 M486,378.6c-2.5,0-4.4,2-4.4,4.4s2,4.4,4.4,4.4s4.4-2,4.4-4.4S488.4,378.6,486,378.6L486,378.6z"/>
			</g>
			<g id="Ellipse_10_2_">
				<path class="st7" d="M498.4,397.3c-2.2,0-3.9-1.7-3.9-3.9s1.8-3.9,3.9-3.9c2.2,0,3.9,1.7,3.9,3.9S500.6,397.3,498.4,397.3z"/>
				<path class="st8" d="M498.4,390.1c1.9,0,3.4,1.5,3.4,3.4c0,0.9-0.4,1.7-1,2.4c-0.7,0.6-1.5,1-2.4,1c-1.9,0-3.4-1.5-3.4-3.4
					C494.9,391.6,496.5,390.1,498.4,390.1 M498.4,389.1c-2.5,0-4.4,2-4.4,4.4s2,4.4,4.4,4.4c2.5,0,4.4-2,4.4-4.4
					S500.8,389.1,498.4,389.1L498.4,389.1z"/>
			</g>
			<g id="Ellipse_8_2_">
				<path class="st7" d="M498.4,385.1c-1.7,0-3-1.3-3-3s1.4-3,3-3c1.7,0,3.1,1.3,3.1,3S500.1,385.1,498.4,385.1z"/>
				<path class="st8" d="M498.4,379.6c1.4,0,2.6,1.1,2.6,2.5s-1.1,2.5-2.6,2.5c-0.7,0-1.3-0.3-1.8-0.7c-0.5-0.5-0.7-1.1-0.7-1.8
					C495.8,380.7,497,379.6,498.4,379.6 M498.4,378.6c-2,0-3.6,1.6-3.6,3.5s1.6,3.5,3.6,3.5s3.6-1.6,3.6-3.5
					S500.3,378.6,498.4,378.6L498.4,378.6z"/>
			</g>
		</g>
		<g>
			<g>
				<rect x="254.1" y="75.3" class="st7" width="80.3" height="96.7"/>
				<path class="st8" d="M254.6,75.8h79.3v95.7h-79.3V75.8 M253.6,74.8v97.7h81.3V74.8H253.6L253.6,74.8z"/>
			</g>
			<rect x="296.2" y="81.7" class="st10" width="31.7" height="24.2"/>
			<rect x="260.5" y="81.7" class="st10" width="31.7" height="24.2"/>
			<polygon class="st12" points="324.1,96 301.1,89.8 295,113.1 317.9,119.4 			"/>
			<polygon class="st12" points="293.3,113.1 287.2,89.8 264.3,96 270.4,119.4 			"/>
			<g>
				<polygon class="st7" points="254.1,172.9 254.1,95.7 286.1,93.7 334.4,100.8 334.4,172.9 				"/>
				<path class="st8" d="M286.1,94.2l47.8,7.1v71.2h-79.3V96.9v-0.6L286.1,94.2 M286.1,93.2l-32.5,2.1v1.5v76.6h81.3v-72.5v-0.5
					L286.1,93.2L286.1,93.2z"/>
			</g>
			<polyline class="st11" points="254.7,97.7 286.4,97.7 334,101.7 			"/>
		</g>
		<g>
			<g>
				<rect x="490.3" y="208.5" class="st7" width="68.9" height="18.3"/>
				<path class="st8" d="M490.8,209h67.9v17.3h-67.9L490.8,209 M489.8,208v19.3h69.9V208H489.8L489.8,208z"/>
			</g>
			<g>
				<rect x="490.3" y="198.5" class="st7" width="68.9" height="25.5"/>
				<path class="st8" d="M490.8,199h67.9v24.5h-67.9L490.8,199 M489.8,198v26.5h69.9V198H489.8L489.8,198z"/>
			</g>
			<path class="st10" d="M559.3,198.9l-69.2,24.8"/>
		</g>
		<g>
			<g>
				<rect x="402.7" y="75.3" class="st7" width="18.3" height="117.4"/>
				<path class="st8" d="M420.5,75.8v116.4h-17.3V75.8H420.5 M421.5,74.8h-19.3v118.4h19.3V74.8L421.5,74.8z"/>
			</g>
			<g>
				<rect x="405.5" y="75.3" class="st7" width="25.5" height="117.4"/>
				<path class="st8" d="M430.5,75.8v116.4H406V75.8H430.5 M431.5,74.8H405v118.4h26.5V74.8L431.5,74.8z"/>
			</g>
			<path class="st10" d="M431,192.9L405.7,75.1"/>
		</g>
		<g>
			<g>
				<rect x="531.9" y="294.5" class="st7" width="27.4" height="18.3"/>
				<path class="st8" d="M558.8,295v17.3h-26.4V295H558.8 M559.8,294h-28.4v19.3h28.4V294L559.8,294z"/>
			</g>
			<g>
				<rect x="531.9" y="297.3" class="st7" width="27.4" height="15.5"/>
				<path class="st8" d="M558.8,297.8v14.5h-26.4v-14.5H558.8 M559.8,296.8h-28.4v16.5h28.4V296.8L559.8,296.8z"/>
			</g>
			<path class="st10" d="M531.6,312.5l28.1-15.2"/>
		</g>
		<g>
			<g>
				<rect x="550" y="144.8" class="st7" width="9.3" height="47.8"/>
				<path class="st8" d="M558.8,145.3v46.8h-8.3v-46.8H558.8 M559.8,144.3h-10.3v48.8h10.3V144.3L559.8,144.3z"/>
			</g>
		</g>
		<g>
			<g>
				<path class="st7" d="M250.6,397.2v-26.4c0-1.1,0.9-2.1,2.1-2.1h39.8c1.1,0,2.1,0.9,2.1,2.1v26.4H250.6z"/>
				<path class="st8" d="M252.6,368.2v1h39.8c0.9,0,1.6,0.7,1.6,1.6v25.9h-42.9v-25.9c0-0.9,0.7-1.6,1.6-1.6v-1 M252.6,368.2
					c-1.4,0-2.6,1.1-2.6,2.6v26.9h44.9v-26.9c0-1.4-1.1-2.6-2.6-2.6H252.6L252.6,368.2z"/>
			</g>
			<g>
				<path class="st7" d="M294.7,397.2v-26.4c0-1.1,0.9-2.1,2.1-2.1h39.4c1.1,0,2.1,0.9,2.1,2.1v26.4H294.7z"/>
				<path class="st8" d="M296.8,368.2v1h39.4c0.9,0,1.6,0.7,1.6,1.6v25.9h-42.5v-25.9c0-0.9,0.7-1.6,1.6-1.6v-1 M296.8,368.2
					c-1.4,0-2.6,1.1-2.6,2.6v26.9h44.5v-26.9c0-1.4-1.1-2.6-2.6-2.6H296.8L296.8,368.2z"/>
			</g>
			<g>
				<polygon class="st7" points="243.1,404.7 243.1,366.9 250.3,366.9 250.3,397.4 338.5,397.4 338.5,366.9 345.7,366.9 
					345.7,404.7 				"/>
				<path class="st8" d="M249.8,367.4V397v1h1h43.6H338h1v-1v-29.6h6.2v36.8H243.6v-36.8H249.8 M250.8,366.4h-8.2v38.8h103.6v-38.8
					H338V397h-43.6h-43.6L250.8,366.4L250.8,366.4z"/>
			</g>
		</g>
		<g>
			<rect x="402.2" y="312" class="st10" width="44.2" height="92.7"/>
			<rect x="414.8" y="312" class="st10" width="4.9" height="92.7"/>
		</g>
		<circle class="st10" cx="386.7" cy="324.9" r="10.4"/>
		<circle class="st10" cx="386.7" cy="358.7" r="10.4"/>
		<circle class="st10" cx="386.7" cy="392" r="10.4"/>
		<g id="Toilet_3_">
			<g id="Rectangle_21_3_">
				<rect x="542.7" y="157.8" class="st7" width="7.4" height="21.6"/>
				<path class="st8" d="M549.6,158.3v20.6h-6.4v-20.6H549.6 M550.6,157.3h-8.4v22.6h8.4V157.3L550.6,157.3z"/>
			</g>
			<path id="Rectangle_19_x5F_2_3_" class="st10" d="M527.9,160.5c-4.6-0.3-8.5,3.4-8.5,8.1l0,0c0,4.7,3.9,8.4,8.5,8.1l14.8-1v-14.1
				L527.9,160.5z"/>
			<path id="Rectangle_18_x5F_13_3_" class="st10" d="M528.1,162.2c-3.8-0.3-7,2.6-7,6.4l0,0c0,3.8,3.3,6.8,7,6.4l10.2-0.9v-11
				L528.1,162.2z"/>
			<ellipse id="Ellipse_6_x5F_2_3_" class="st10" cx="534" cy="168.6" rx="1.6" ry="1.6"/>
		</g>
		<g>
			<g>
				<rect x="407.4" y="198.6" class="st7" width="22.7" height="28.6"/>
				<path class="st8" d="M429.6,199.1v27.6h-21.7v-27.6H429.6 M430.6,198.1h-23.7v29.6h23.7V198.1L430.6,198.1z"/>
			</g>
			<line class="st11" x1="407.3" y1="198.5" x2="414.9" y2="208.2"/>
			<line class="st11" x1="429.9" y1="198.5" x2="422.3" y2="208.2"/>
			<line class="st11" x1="407.3" y1="227.4" x2="414.9" y2="217.7"/>
			<line class="st11" x1="429.9" y1="227.4" x2="422.3" y2="217.7"/>
		</g>
		<g>
			<polygon class="st7" points="531.4,114.3 531.4,75.3 543.1,75.3 543.1,91.5 559.3,91.5 559.3,114.3 			"/>
			<path class="st8" d="M542.6,75.8V91v1h1h15.2v21.7h-15.2h-11.7V91V75.8H542.6 M543.6,74.8h-12.7V91v23.7h12.7h16.2V91h-16.2V74.8
				L543.6,74.8z"/>
		</g>
	</g>
	<g id="street_x5F_anchors">
		<rect id="street_x5F_anchor_x5F_01" x="105.5" y="235" class="st13" width="10" height="10"/>
	</g>
</g>
<g id="комнаты">
	<g>
		<g>
			<path class="st6" d="M289.1,320.1c0-1.5,0.9-2.2,2-2.6c0.3-0.1,0.8-0.3,0.8-0.9c0-0.5-0.4-0.6-0.8-0.6c-0.7,0-1.1,0.4-1.6,0.9
				l-0.6-1c0.6-0.6,1.2-1.2,2.1-1.2c0.9,0,1.9,0.5,1.9,1.8c0,1.4-1,1.8-1.8,2.1c-0.7,0.3-1.1,0.6-1.1,1.1v0.1h2.8v1.2h-3.9V320.1z"
				/>
			<path class="st6" d="M294,320.1c0-1.5,0.9-2.2,2-2.6c0.3-0.1,0.8-0.3,0.8-0.9c0-0.5-0.4-0.6-0.8-0.6c-0.7,0-1.1,0.4-1.6,0.9
				l-0.6-1c0.6-0.6,1.2-1.2,2.1-1.2c0.9,0,1.9,0.5,1.9,1.8c0,1.4-1,1.8-1.8,2.1c-0.7,0.3-1.1,0.6-1.1,1.1v0.1h2.8v1.2H294V320.1z"/>
			<path class="st6" d="M299.7,319.5c0.4,0,0.8,0.4,0.8,0.9c0,0.5-0.3,0.9-0.8,0.9c-0.4,0-0.7-0.4-0.7-0.9
				C299,319.9,299.3,319.5,299.7,319.5z"/>
			<path class="st6" d="M301.4,319.3c0-0.8,0.4-1.4,1-1.6c-0.4-0.2-0.7-0.6-0.7-1.2c0-1.1,1.2-1.7,2.1-1.7c0.9,0,2.1,0.5,2.1,1.7
				c0,0.6-0.2,1-0.7,1.2c0.5,0.2,1,0.8,1,1.6c0,1.3-1.1,2-2.3,2C302.5,321.3,301.4,320.6,301.4,319.3z M304.9,319.2
				c0-0.6-0.6-0.9-1.2-0.9c-0.5,0-1.2,0.3-1.2,0.9c0,0.6,0.6,0.9,1.2,0.9C304.3,320.1,304.9,319.8,304.9,319.2z M304.6,316.6
				c0-0.5-0.5-0.7-0.9-0.7c-0.4,0-0.9,0.2-0.9,0.7c0,0.4,0.3,0.6,0.9,0.6C304.3,317.3,304.6,317.1,304.6,316.6z"/>
		</g>
	</g>
	<g>
		<g>
			<path class="st6" d="M509.8,276c0-1.5,0.9-2.2,2-2.6c0.3-0.1,0.8-0.3,0.8-0.9c0-0.5-0.4-0.6-0.8-0.6c-0.7,0-1.1,0.4-1.6,0.9
				l-0.6-1c0.6-0.6,1.2-1.2,2.1-1.2c0.9,0,1.9,0.5,1.9,1.8c0,1.4-1,1.8-1.8,2.1c-0.7,0.3-1.1,0.6-1.1,1.1v0.1h2.8v1.2h-3.9V276z"/>
			<path class="st6" d="M515.4,275.3c0.4,0,0.8,0.4,0.8,0.9c0,0.5-0.3,0.9-0.8,0.9c-0.4,0-0.7-0.4-0.7-0.9
				C514.7,275.8,515,275.3,515.4,275.3z"/>
			<path class="st6" d="M517.1,275.2c0-0.8,0.4-1.4,1-1.6c-0.4-0.2-0.7-0.6-0.7-1.2c0-1.1,1.2-1.7,2.1-1.7c0.9,0,2.1,0.5,2.1,1.7
				c0,0.6-0.2,1-0.7,1.2c0.5,0.2,1,0.8,1,1.6c0,1.3-1.1,2-2.3,2C518.3,277.2,517.1,276.5,517.1,275.2z M520.6,275.1
				c0-0.6-0.6-0.9-1.2-0.9s-1.2,0.3-1.2,0.9c0,0.6,0.6,0.9,1.2,0.9C520,276,520.6,275.7,520.6,275.1z M520.3,272.5
				c0-0.5-0.5-0.7-0.9-0.7c-0.4,0-0.9,0.2-0.9,0.7c0,0.4,0.3,0.6,0.9,0.6C520,273.2,520.3,272.9,520.3,272.5z"/>
		</g>
	</g>
	<g>
		<g>
			<path class="st6" d="M458.5,220.2l1.4-0.8h1v6.1h-1.1v-4.7l-1,0.6L458.5,220.2z"/>
			<path class="st6" d="M462.8,223.9c0.4,0,0.8,0.4,0.8,0.9c0,0.5-0.3,0.9-0.8,0.9c-0.4,0-0.7-0.4-0.7-0.9
				C462.1,224.3,462.4,223.9,462.8,223.9z"/>
			<path class="st6" d="M464.3,220.2l1.4-0.8h1v6.1h-1.1v-4.7l-1,0.6L464.3,220.2z"/>
		</g>
	</g>
	<g>
		<g>
			<path class="st6" d="M492.7,151.5l0.5-1c0.3,0.3,1,0.7,1.9,0.7c0.6,0,1.2-0.3,1.2-1c0-0.6-0.5-0.9-0.9-0.9
				c-0.6,0-1.1,0.3-1.5,0.6l-0.6-0.6v-3.2h3.7v1.2h-2.7v1.4c0.4-0.3,0.7-0.6,1.3-0.6c0.9,0,1.9,0.6,1.9,2c0,1.6-1.2,2.3-2.3,2.3
				C493.9,152.4,493.1,151.8,492.7,151.5z"/>
		</g>
	</g>
	<g>
		<g>
			<path class="st6" d="M361.5,145.8l1.4-0.8h1v6.1h-1.1v-4.7l-1,0.6L361.5,145.8z"/>
			<path class="st6" d="M365,150.4l0.5-1c0.3,0.3,1,0.7,1.9,0.7c0.6,0,1.2-0.3,1.2-1c0-0.6-0.5-0.9-0.9-0.9c-0.6,0-1.1,0.3-1.5,0.6
				l-0.6-0.6V145h3.7v1.2h-2.7v1.4c0.4-0.3,0.7-0.6,1.3-0.6c0.9,0,1.9,0.6,1.9,2c0,1.6-1.2,2.3-2.3,2.3
				C366.1,151.3,365.4,150.7,365,150.4z"/>
			<path class="st6" d="M371.2,149.5c0.4,0,0.8,0.4,0.8,0.9c0,0.5-0.3,0.9-0.8,0.9c-0.4,0-0.7-0.4-0.7-0.9
				C370.5,149.9,370.8,149.5,371.2,149.5z"/>
			<path class="st6" d="M372.9,149.3c0-0.8,0.4-1.4,1-1.6c-0.4-0.2-0.7-0.6-0.7-1.2c0-1.1,1.2-1.7,2.1-1.7c0.9,0,2.1,0.5,2.1,1.7
				c0,0.6-0.2,1-0.7,1.2c0.5,0.2,1,0.7,1,1.6c0,1.3-1.1,2-2.3,2C374,151.3,372.9,150.6,372.9,149.3z M376.4,149.2
				c0-0.6-0.6-0.9-1.2-0.9c-0.5,0-1.2,0.3-1.2,0.9c0,0.6,0.6,0.9,1.2,0.9C375.8,150.1,376.4,149.8,376.4,149.2z M376.1,146.6
				c0-0.5-0.5-0.7-0.9-0.7c-0.4,0-0.9,0.2-0.9,0.7c0,0.4,0.3,0.6,0.9,0.6C375.8,147.3,376.1,147.1,376.1,146.6z"/>
		</g>
	</g>
</g>
</svg>
