<?xml version="1.0" encoding="utf-8"?>
<!-- Generator: Adobe Illustrator 26.0.3, SVG Export Plug-In . SVG Version: 6.00 Build 0)  -->
<svg version="1.1" xmlns="http://www.w3.org/2000/svg" xmlns:xlink="http://www.w3.org/1999/xlink" x="0px" y="0px"
	 viewBox="0 0 720 480" style="enable-background:new 0 0 720 480;" xml:space="preserve">
<style type="text/css">
	.st0{fill:#DBD4CA;}
	.st1{clip-path:url(#SVGID_00000093164437209247154770000008235194039247679130_);}
	.st2{fill:none;stroke:#C49F8A;stroke-miterlimit:10;}
	.st3{opacity:0.3;clip-path:url(#SVGID_00000173849511600967715820000004313735495953802635_);}
	.st4{opacity:0.7;fill:#C49F8A;enable-background:new    ;}
	.st5{fill:none;stroke:#565440;}
	.st6{fill:#565440;}
	.st7{fill:#E9E4DC;}
	.st8{fill:#C49F8A;}
	.st9{fill:#E9E4DC;stroke:#C49F8A;stroke-linejoin:round;}
	.st10{fill:#E9E4DC;stroke:#C49F8A;}
	.st11{fill:none;stroke:#C49F8A;}
	.st12{fill:#E9E4DC;stroke:#C49F8A;stroke-miterlimit:3.9998;}
</style>
<g id="_x31__x5F_2">
	<rect id="Floor" x="152.5" y="60" class="st0" width="425" height="360"/>
	<g id="Wet_Floor_1_">
		<g>
			<defs>
				<rect id="SVGID_1_" x="436.3" y="69.7" width="129.5" height="135.2"/>
			</defs>
			<clipPath id="SVGID_00000090979947802574750400000017846662791814908863_">
				<use xlink:href="#SVGID_1_"  style="overflow:visible;"/>
			</clipPath>
			<g style="clip-path:url(#SVGID_00000090979947802574750400000017846662791814908863_);">
				<g>
					<line class="st2" x1="195.8" y1="159.7" x2="529.3" y2="-173.8"/>
					<line class="st2" x1="185.4" y1="149.3" x2="518.9" y2="-184.2"/>
					<line class="st2" x1="206.3" y1="170.1" x2="539.7" y2="-163.4"/>
					<line class="st2" x1="216.7" y1="180.5" x2="550.2" y2="-152.9"/>
					<line class="st2" x1="227.1" y1="191" x2="560.6" y2="-142.5"/>
					<line class="st2" x1="237.5" y1="201.4" x2="571" y2="-132.1"/>
					<line class="st2" x1="247.9" y1="211.8" x2="581.4" y2="-121.7"/>
					<line class="st2" x1="258.4" y1="222.2" x2="591.9" y2="-111.3"/>
					<line class="st2" x1="268.8" y1="232.6" x2="602.3" y2="-100.8"/>
					<line class="st2" x1="279.2" y1="243.1" x2="612.7" y2="-90.4"/>
					<line class="st2" x1="268.8" y1="232.6" x2="602.3" y2="-100.8"/>
					<line class="st2" x1="289.6" y1="253.5" x2="623.1" y2="-80"/>
					<line class="st2" x1="300.1" y1="263.9" x2="633.5" y2="-69.6"/>
					<line class="st2" x1="310.5" y1="274.3" x2="644" y2="-59.2"/>
					<line class="st2" x1="320.9" y1="284.8" x2="654.4" y2="-48.7"/>
					<line class="st2" x1="331.3" y1="295.2" x2="664.8" y2="-38.3"/>
					<line class="st2" x1="341.7" y1="305.6" x2="675.2" y2="-27.9"/>
					<line class="st2" x1="352.2" y1="316" x2="685.6" y2="-17.5"/>
					<line class="st2" x1="362.6" y1="326.4" x2="696.1" y2="-7"/>
					<line class="st2" x1="352.2" y1="316" x2="685.6" y2="-17.5"/>
					<line class="st2" x1="373" y1="336.9" x2="706.5" y2="3.4"/>
					<line class="st2" x1="383.4" y1="347.3" x2="716.9" y2="13.8"/>
					<line class="st2" x1="393.8" y1="357.7" x2="727.3" y2="24.2"/>
					<line class="st2" x1="404.3" y1="368.1" x2="737.8" y2="34.6"/>
					<line class="st2" x1="414.7" y1="378.5" x2="748.2" y2="45.1"/>
					<line class="st2" x1="425.1" y1="389" x2="758.6" y2="55.5"/>
					<line class="st2" x1="435.5" y1="399.4" x2="769" y2="65.9"/>
					<line class="st2" x1="446" y1="409.8" x2="779.4" y2="76.3"/>
					<line class="st2" x1="435.5" y1="399.4" x2="769" y2="65.9"/>
					<line class="st2" x1="456.4" y1="420.2" x2="789.9" y2="86.7"/>
					<line class="st2" x1="466.8" y1="430.7" x2="800.3" y2="97.2"/>
					<line class="st2" x1="477.2" y1="441.1" x2="810.7" y2="107.6"/>
					<line class="st2" x1="487.6" y1="451.5" x2="821.1" y2="118"/>
					<line class="st2" x1="498.1" y1="461.9" x2="831.5" y2="128.4"/>
					<line class="st2" x1="508.5" y1="472.3" x2="842" y2="138.9"/>
					<line class="st2" x1="518.9" y1="482.8" x2="852.4" y2="149.3"/>
				</g>
				<g>
					<line class="st2" x1="529.3" y1="472.3" x2="195.8" y2="138.9"/>
					<line class="st2" x1="518.9" y1="482.8" x2="185.4" y2="149.3"/>
					<line class="st2" x1="539.7" y1="461.9" x2="206.3" y2="128.4"/>
					<line class="st2" x1="550.2" y1="451.5" x2="216.7" y2="118"/>
					<line class="st2" x1="560.6" y1="441.1" x2="227.1" y2="107.6"/>
					<line class="st2" x1="571" y1="430.7" x2="237.5" y2="97.2"/>
					<line class="st2" x1="581.4" y1="420.2" x2="247.9" y2="86.7"/>
					<line class="st2" x1="591.9" y1="409.8" x2="258.4" y2="76.3"/>
					<line class="st2" x1="602.3" y1="399.4" x2="268.8" y2="65.9"/>
					<line class="st2" x1="612.7" y1="389" x2="279.2" y2="55.5"/>
					<line class="st2" x1="602.3" y1="399.4" x2="268.8" y2="65.9"/>
					<line class="st2" x1="623.1" y1="378.5" x2="289.6" y2="45.1"/>
					<line class="st2" x1="633.5" y1="368.1" x2="300.1" y2="34.6"/>
					<line class="st2" x1="644" y1="357.7" x2="310.5" y2="24.2"/>
					<line class="st2" x1="654.4" y1="347.3" x2="320.9" y2="13.8"/>
					<line class="st2" x1="664.8" y1="336.9" x2="331.3" y2="3.4"/>
					<line class="st2" x1="675.2" y1="326.4" x2="341.7" y2="-7"/>
					<line class="st2" x1="685.6" y1="316" x2="352.2" y2="-17.5"/>
					<line class="st2" x1="696.1" y1="305.6" x2="362.6" y2="-27.9"/>
					<line class="st2" x1="685.6" y1="316" x2="352.2" y2="-17.5"/>
					<line class="st2" x1="706.5" y1="295.2" x2="373" y2="-38.3"/>
					<line class="st2" x1="716.9" y1="284.8" x2="383.4" y2="-48.7"/>
					<line class="st2" x1="727.3" y1="274.3" x2="393.8" y2="-59.2"/>
					<line class="st2" x1="737.8" y1="263.9" x2="404.3" y2="-69.6"/>
					<line class="st2" x1="748.2" y1="253.5" x2="414.7" y2="-80"/>
					<line class="st2" x1="758.6" y1="243.1" x2="425.1" y2="-90.4"/>
					<line class="st2" x1="769" y1="232.6" x2="435.5" y2="-100.8"/>
					<line class="st2" x1="779.4" y1="222.2" x2="446" y2="-111.3"/>
					<line class="st2" x1="769" y1="232.6" x2="435.5" y2="-100.8"/>
					<line class="st2" x1="789.9" y1="211.8" x2="456.4" y2="-121.7"/>
					<line class="st2" x1="800.3" y1="201.4" x2="466.8" y2="-132.1"/>
					<line class="st2" x1="810.7" y1="191" x2="477.2" y2="-142.5"/>
					<line class="st2" x1="821.1" y1="180.5" x2="487.6" y2="-152.9"/>
					<line class="st2" x1="831.5" y1="170.1" x2="498.1" y2="-163.4"/>
					<line class="st2" x1="842" y1="159.7" x2="508.5" y2="-173.8"/>
					<line class="st2" x1="852.4" y1="149.3" x2="518.9" y2="-184.2"/>
				</g>
			</g>
		</g>
		<g>
			<defs>
				<rect id="SVGID_00000078024802173284423080000005105490962918416268_" x="436.3" y="69.7" width="129.5" height="135.2"/>
			</defs>
			<clipPath id="SVGID_00000031894742450226576570000008605891640691646860_">
				<use xlink:href="#SVGID_00000078024802173284423080000005105490962918416268_"  style="overflow:visible;"/>
			</clipPath>
			<g style="opacity:0.3;clip-path:url(#SVGID_00000031894742450226576570000008605891640691646860_);">
				<rect x="357.8" y="-22.2" class="st4" width="322.2" height="322.2"/>
			</g>
		</g>
	</g>
	<path id="Windows" class="st5" d="M145,65h7.5v252.5H145V65z"/>
	<path id="Doors" class="st5" d="M357.5,235c0-5.5,1-10,3-15c2-5,5-9.5,8.5-13c3.5-4,8-7,13-9c5-2,10-3,15.5-3v40 M487.5,200
		c0-5.5-1-10-3-15c-2-5-5-9.5-8.5-13c-3.5-4-8-7-13-9c-5-2-10-3-15.5-3v40 M577.5,240c6.5,0,12.5,1.5,18.5,4c6,2.5,12,6,16.5,11
		c4.5,4.5,8.5,10,11,16c2.5,6,4,12.5,4,19h-50"/>
	<g id="Walls">
		<polygon class="st6" points="167.5,240.1 357.6,240.1 357.6,235 167.5,235 167.5,210 142.5,210 142.5,245.1 167.5,245.1 		"/>
		<path class="st6" d="M562.5,306.5h-31.8v5h31.8V388h-22.7v17H172.6v-90h-30.1v105h435V290h-15V306.5z M544.8,405v-12h17.7v12
			H544.8z"/>
		<path class="st6" d="M142.5,60v80h30.1V75h260v125h-30v35h-5v5h40v-5h-30v-30h40v-5h-10V75H547v15.3h15.5V200h-75v5h75v35h15V60
			H142.5z M552,85.3V75h10.5v10.3H552z"/>
	</g>
	<g id="Furniture_2_">
		<g>
			<rect x="450.8" y="373" class="st7" width="80.2" height="31.5"/>
			<path class="st8" d="M530.5,373.5V404h-79.2v-30.5H530.5 M531.5,372.5h-81.2V405h81.2V372.5L531.5,372.5z"/>
		</g>
		<g>
			<g>
				<rect x="438" y="75.5" class="st7" width="95.7" height="39"/>
				<path class="st8" d="M438.5,76h94.7v38h-94.7V76 M437.5,75v40h96.7V75H437.5L437.5,75z"/>
			</g>
			<g>
				<g>
					<path class="st9" d="M525.2,95.1c0-7.4-6.4-13.1-13.6-12.5c-8.1,0.7-18.2,1.4-25.8,1.4c-7.5,0-17.6-0.7-25.8-1.4
						c-7.3-0.7-13.6,5.1-13.6,12.5c0,7.3,6.4,13.1,13.6,12.5c8.1-0.7,18.2-1.4,25.8-1.4c7.5,0,17.6,0.7,25.8,1.4
						C518.8,108.2,525.2,102.4,525.2,95.1z"/>
					<path class="st9" d="M512.4,93.5c0.9,0,1.6,0.7,1.6,1.6s-0.7,1.6-1.6,1.6s-1.6-0.7-1.6-1.6S511.5,93.5,512.4,93.5z"/>
				</g>
			</g>
		</g>
		<g>
			<g>
				<rect x="255.2" y="252.3" class="st7" width="76.1" height="4.4"/>
				<path class="st8" d="M330.8,252.8v3.4h-75.1v-3.4L330.8,252.8 M331.8,251.8h-77.1v5.4h77.1V251.8L331.8,251.8z"/>
			</g>
			<g>
				<rect x="255.2" y="240.5" class="st7" width="76.1" height="12.7"/>
				<path class="st8" d="M330.8,241v11.7h-75.1V241H330.8 M331.8,240h-77.1v13.7h77.1V240L331.8,240z"/>
			</g>
			<rect x="266.7" y="243.2" class="st10" width="54.5" height="2.4"/>
			<path class="st10" d="M282.4,243.2h23.1l-2.1-2.9h-18.9L282.4,243.2z"/>
		</g>
		<g>
			<g>
				<rect x="255.2" y="218.2" class="st7" width="76.1" height="4.4"/>
				<path class="st8" d="M330.8,218.7v3.4h-75.1v-3.4H330.8 M331.8,217.7h-77.1v5.4h77.1V217.7L331.8,217.7z"/>
			</g>
			<g>
				<rect x="255.2" y="221.8" class="st7" width="76.1" height="12.7"/>
				<path class="st8" d="M330.8,222.3V234h-75.1v-11.7H330.8 M331.8,221.3h-77.1V235h77.1V221.3L331.8,221.3z"/>
			</g>
			<rect x="266.7" y="229.3" class="st10" width="54.5" height="2.4"/>
			<path class="st10" d="M282.4,231.7h23.1l-2.1,2.9h-18.9L282.4,231.7z"/>
		</g>
		<g id="Sink_2">
			<g id="Rectangle_16_x5F_11_2_">
				<rect x="539.7" y="115.6" class="st7" width="22.3" height="31.1"/>
				<path class="st8" d="M561.5,116.1v30.1h-21.3v-30.1H561.5 M562.5,115.1h-23.3v32.1h23.3V115.1L562.5,115.1z"/>
			</g>
			<path id="Rectangle_19_x5F_5" class="st10" d="M550.8,120.6L550.8,120.6c-3.7,0-6.6,2.8-6.6,6.1v8.8c0,3.4,3,6.1,6.6,6.1l0,0
				c3.7,0,6.6-2.8,6.6-6.1v-8.8C557.5,123.4,554.5,120.6,550.8,120.6z"/>
			<circle id="Ellipse_7_x5F_2" class="st10" cx="553.7" cy="131.1" r="1.6"/>
		</g>
		<g id="Rectangle_24">
			<rect x="531" y="312" class="st7" width="30.9" height="60.5"/>
			<path class="st8" d="M561.5,312.5V372h-29.9v-59.4L561.5,312.5 M562.5,311.5h-31.9v61.4h31.9V311.5L562.5,311.5z"/>
		</g>
		<g id="Sink_3">
			<rect id="Rectangle_28_x5F_2" x="534.3" y="328.4" class="st10" width="24.4" height="38.7"/>
			<path id="Rectangle_29_x5F_2" class="st10" d="M546.5,351.8L546.5,351.8c-5.1,0-9.2-4.1-9.2-9.2v-2c0-5.1,4.1-9.2,9.2-9.2l0,0
				c5.1,0,9.2,4.1,9.2,9.2v2C555.7,347.7,551.6,351.8,546.5,351.8z"/>
			<ellipse id="Ellipse_7_x5F_3" class="st10" cx="550.6" cy="341.6" rx="1.6" ry="1.6"/>
			<path id="Vector_2" class="st11" d="M555.7,365.1v-10.2 M552.6,365.1v-10.2 M549.6,365.1v-10.2 M546.5,365.1v-10.2 M543.5,365.1
				v-10.2 M540.4,365.1v-10.2 M537.4,365.1v-10.2"/>
		</g>
		<g id="Stove">
			<g id="Rectangle_25">
				<rect x="460.7" y="373" class="st7" width="31.2" height="31"/>
				<path class="st8" d="M461.2,373.5h30.2v30h-30.2V373.5 M460.2,372.5v32h32.2v-32H460.2L460.2,372.5z"/>
			</g>
			<g id="Rectangle_28_x5F_3">
				<rect x="460.7" y="401.8" class="st7" width="31.2" height="2.7"/>
				<path class="st8" d="M461.2,402.3h30.2v1.7h-30.2V402.3 M460.2,401.3v3.7h32.2v-3.7H460.2L460.2,401.3z"/>
			</g>
			<g id="Ellipse_7_x5F_4">
				<path class="st7" d="M470,396.1c-1.7,0-3.1-1.4-3.1-3c0-1.7,1.4-3,3.1-3s3.1,1.4,3.1,3S471.8,396.1,470,396.1z"/>
				<path class="st8" d="M470,390.5c1.4,0,2.6,1.1,2.6,2.5s-1.2,2.5-2.6,2.5s-2.6-1.1-2.6-2.5C467.4,391.7,468.6,390.5,470,390.5
					 M470,389.5c-2,0-3.6,1.6-3.6,3.5c0,2,1.6,3.5,3.6,3.5s3.6-1.6,3.6-3.5S472,389.5,470,389.5L470,389.5z"/>
			</g>
			<g id="Ellipse_9">
				<path class="st7" d="M470,386.4c-2.2,0-4-1.8-4-3.9s1.8-3.9,4-3.9s4,1.8,4,3.9S472.3,386.4,470,386.4z"/>
				<path class="st8" d="M470,379c1.9,0,3.5,1.5,3.5,3.4s-1.6,3.4-3.5,3.4s-3.5-1.5-3.5-3.4S468.1,379,470,379 M470,378
					c-2.5,0-4.5,2-4.5,4.4s2,4.4,4.5,4.4s4.5-2,4.5-4.4S472.5,378,470,378L470,378z"/>
			</g>
			<g id="Ellipse_10">
				<path class="st7" d="M482.7,397c-2.2,0-4-1.8-4-3.9s1.8-3.9,4-3.9s4,1.8,4,3.9S484.9,397,482.7,397z"/>
				<path class="st8" d="M482.7,389.6c1.9,0,3.5,1.5,3.5,3.4s-1.6,3.4-3.5,3.4s-3.5-1.5-3.5-3.4S480.7,389.6,482.7,389.6
					 M482.7,388.6c-2.5,0-4.5,2-4.5,4.4s2,4.4,4.5,4.4s4.5-2,4.5-4.4S485.1,388.6,482.7,388.6L482.7,388.6z"/>
			</g>
			<g id="Ellipse_8">
				<path class="st7" d="M482.7,384.6c-1.7,0-3.1-1.4-3.1-3c0-1.7,1.4-3,3.1-3s3.1,1.4,3.1,3C485.8,383.2,484.4,384.6,482.7,384.6z"
					/>
				<path class="st8" d="M482.7,379c1.4,0,2.6,1.1,2.6,2.5s-1.2,2.5-2.6,2.5s-2.6-1.1-2.6-2.5S481.2,379,482.7,379 M482.7,378
					c-2,0-3.6,1.6-3.6,3.5s1.6,3.5,3.6,3.5s3.6-1.6,3.6-3.5S484.6,378,482.7,378L482.7,378z"/>
			</g>
		</g>
		<g>
			<g>
				<rect x="252.1" y="75.5" class="st7" width="81.5" height="98.2"/>
				<path class="st8" d="M252.6,76h80.5v97.2h-80.5V76 M251.6,75v99.2h82.5V75H251.6L251.6,75z"/>
			</g>
			<rect x="294.9" y="82.1" class="st10" width="32.2" height="24.5"/>
			<rect x="258.7" y="82.1" class="st10" width="32.2" height="24.5"/>
			<polygon class="st12" points="323.2,96.6 299.9,90.3 293.6,114 316.9,120.3 			"/>
			<polygon class="st12" points="292,114 285.7,90.3 262.4,96.6 268.7,120.3 			"/>
			<g>
				<polygon class="st7" points="252.1,174.7 252.1,96.2 284.6,94.2 333.6,101.4 333.6,174.7 				"/>
				<path class="st8" d="M284.6,94.7l48.5,7.2v72.3h-80.5V97.4v-0.6L284.6,94.7 M284.6,93.7l-33,2.1v1.6v77.8h82.5v-73.6V101
					L284.6,93.7L284.6,93.7z"/>
			</g>
			<polyline class="st11" points="252.7,98.3 284.9,98.3 333.2,102.4 			"/>
		</g>
		<g>
			<g>
				<rect x="492" y="215.6" class="st7" width="70" height="18.6"/>
				<path class="st8" d="M492.5,216.1h69v17.6h-69V216.1 M491.5,215.1v19.6h71v-19.6H491.5L491.5,215.1z"/>
			</g>
			<g>
				<rect x="492" y="205.4" class="st7" width="70" height="25.9"/>
				<path class="st8" d="M492.5,206h69v24.9h-69V206 M491.5,205v26.9h71V205H491.5L491.5,205z"/>
			</g>
			<path class="st10" d="M562,205.8L491.8,231"/>
		</g>
		<g>
			<g>
				<rect x="403.3" y="75.5" class="st7" width="18.6" height="124"/>
				<path class="st8" d="M421.5,76v123h-17.6V76H421.5 M422.5,75h-19.6v125h19.6V75L422.5,75z"/>
			</g>
			<g>
				<rect x="406.2" y="75.5" class="st7" width="25.9" height="124"/>
				<path class="st8" d="M431.6,76v123h-24.9V76H431.6 M432.6,75h-26.9v125h26.9V75L432.6,75z"/>
			</g>
			<path class="st10" d="M432,199.8L406.4,75.3"/>
		</g>
		<g>
			<g>
				<rect x="534.2" y="287.4" class="st7" width="27.8" height="18.6"/>
				<path class="st8" d="M561.5,287.9v17.6h-26.8v-17.6H561.5 M562.5,286.9h-28.8v19.6h28.8V286.9L562.5,286.9z"/>
			</g>
			<g>
				<rect x="534.2" y="290.2" class="st7" width="27.8" height="15.8"/>
				<path class="st8" d="M561.5,290.7v14.8h-26.8v-14.8H561.5 M562.5,289.7h-28.8v16.8h28.8V289.7L562.5,289.7z"/>
			</g>
			<path class="st10" d="M533.9,305.7l28.5-15.4"/>
		</g>
		<g>
			<g>
				<rect x="552.6" y="146.7" class="st7" width="9.4" height="52.8"/>
				<path class="st8" d="M553.1,147.2h8.4V199h-8.4V147.2 M552.1,146.2V200h10.4v-53.8H552.1L552.1,146.2z"/>
			</g>
		</g>
		<g>
			<g>
				<path class="st7" d="M248.5,396.9v-26.8c0-1.2,0.9-2.1,2.1-2.1H291c1.2,0,2.1,0.9,2.1,2.1v26.8H248.5z"/>
				<path class="st8" d="M250.6,367.5v1H291c0.9,0,1.6,0.7,1.6,1.6v26.3H249v-26.3c0-0.9,0.7-1.6,1.6-1.6V367.5 M250.6,367.5
					c-1.4,0-2.6,1.2-2.6,2.6v27.3h45.6v-27.3c0-1.4-1.2-2.6-2.6-2.6H250.6L250.6,367.5z"/>
			</g>
			<g>
				<path class="st7" d="M293.4,396.9v-26.8c0-1.2,0.9-2.1,2.1-2.1h40c1.2,0,2.1,0.9,2.1,2.1v26.8H293.4z"/>
				<path class="st8" d="M295.5,367.5v1h40c0.9,0,1.6,0.7,1.6,1.6v26.3h-43.2v-26.3c0-0.9,0.7-1.6,1.6-1.6V367.5 M295.5,367.5
					c-1.4,0-2.6,1.2-2.6,2.6v27.3h45.2v-27.3c0-1.4-1.2-2.6-2.6-2.6H295.5L295.5,367.5z"/>
			</g>
			<g>
				<polygon class="st7" points="241,404.5 241,366.1 248.3,366.1 248.3,397.1 337.8,397.1 337.8,366.1 345.2,366.1 345.2,404.5 
									"/>
				<path class="st8" d="M247.8,366.6v30v1h1h44.3h44.3h1v-1v-30h6.3V404H241.5v-37.4H247.8 M248.8,365.6h-8.3V405h105.2v-39.4h-8.3
					v31h-44.3h-44.3L248.8,365.6L248.8,365.6z"/>
			</g>
		</g>
		<g>
			<rect x="405.9" y="310.4" class="st10" width="44.9" height="94.1"/>
			<rect x="418.7" y="310.4" class="st10" width="5" height="94.1"/>
		</g>
		<circle class="st10" cx="390.1" cy="323.5" r="10.6"/>
		<circle class="st10" cx="390.1" cy="357.8" r="10.6"/>
		<circle class="st10" cx="390.1" cy="391.6" r="10.6"/>
		<g id="Toilet_2_">
			<g id="Rectangle_21_2_">
				<rect x="545" y="162.1" class="st7" width="7.5" height="21.9"/>
				<path class="st8" d="M552,162.6v20.9h-6.5v-20.9H552 M553,161.6h-8.5v22.9h8.5V161.6L553,161.6z"/>
			</g>
			<path id="Rectangle_19_x5F_2_2_" class="st10" d="M530,164.9c-4.7-0.3-8.7,3.4-8.7,8.2l0,0c0,4.7,4,8.5,8.7,8.2l15-1V166
				L530,164.9z"/>
			<path id="Rectangle_18_x5F_13_2_" class="st10" d="M530.3,166.6c-3.8-0.3-7.1,2.7-7.1,6.5l0,0c0,3.8,3.3,6.9,7.1,6.5l10.4-0.9
				v-11.1L530.3,166.6z"/>
			<ellipse id="Ellipse_6_x5F_2_2_" class="st10" cx="536.3" cy="173.1" rx="1.6" ry="1.6"/>
		</g>
		<g>
			<g>
				<rect x="408.2" y="205.4" class="st7" width="23.1" height="28.9"/>
				<path class="st8" d="M430.7,206v27.9h-22.1V206H430.7 M431.7,205h-24.1v29.9h24.1V205L431.7,205z"/>
			</g>
			<line class="st11" x1="407.9" y1="205.4" x2="415.7" y2="215.2"/>
			<line class="st11" x1="431.1" y1="205.4" x2="423.3" y2="215.2"/>
			<line class="st11" x1="407.9" y1="234.6" x2="415.7" y2="224.8"/>
			<line class="st11" x1="431.1" y1="234.6" x2="423.3" y2="224.8"/>
		</g>
		<g>
			<polygon class="st7" points="533.7,115.6 533.7,75.5 546.5,75.5 546.5,90.8 562,90.8 562,115.6 			"/>
			<path class="st8" d="M546,76v14.3v1h1h14.5v23.8H547h-12.8V90.3V76H546 M547,75h-13.8v15.3v25.8H547h15.5V90.3H547V75L547,75z"/>
		</g>
		<g>
			<polygon class="st7" points="531,404.5 531,372.5 562,372.5 562,387.5 539.3,387.5 539.3,404.5 			"/>
			<path class="st8" d="M561.5,373v14h-21.7h-1v1v16h-7.3v-16v-15h8.3H561.5 M562.5,372h-22.7h-9.3v16v17h9.3v-17h22.7V372
				L562.5,372z"/>
		</g>
	</g>
</g>
<g id="комнаты">
	<g>
		<g>
			<path class="st6" d="M283.8,316.5c0-1.5,0.9-2.2,2-2.6c0.3-0.1,0.8-0.3,0.8-0.9c0-0.5-0.4-0.6-0.8-0.6c-0.7,0-1.1,0.4-1.6,0.9
				l-0.6-1c0.6-0.6,1.2-1.2,2.1-1.2c0.9,0,1.9,0.5,1.9,1.8c0,1.4-1,1.8-1.8,2.1c-0.7,0.3-1.1,0.6-1.1,1.1v0.1h2.8v1.2h-3.9V316.5z"
				/>
			<path class="st6" d="M288.4,312.2l1.4-0.8h1v6.1h-1.1v-4.7l-1,0.6L288.4,312.2z"/>
			<path class="st6" d="M292.8,315.9c0.4,0,0.8,0.4,0.8,0.9c0,0.5-0.3,0.9-0.8,0.9c-0.4,0-0.7-0.4-0.7-0.9
				C292.1,316.3,292.4,315.9,292.8,315.9z"/>
			<path class="st6" d="M295.1,316.2c0.4,0.2,0.8,0.4,1.3,0.4c0.8,0,1.6-0.7,1.6-1.9c-0.4,0.4-1,0.9-1.7,0.9c-1.2,0-1.9-1-1.9-2
				c0-1.3,0.9-2.2,2.1-2.2c1.3,0,2.5,1.1,2.5,3.1c0,2.1-1.3,3.4-2.6,3.4c-0.8,0-1.4-0.4-1.8-0.5L295.1,316.2z M297.9,313.7
				c-0.2-0.8-0.8-1.3-1.4-1.3c-0.6,0-1,0.5-1,1c0,0.4,0.2,0.8,0.9,0.8C297,314.3,297.5,314,297.9,313.7z"/>
		</g>
	</g>
	<g>
		<g>
			<path class="st6" d="M521,264c0-1.5,0.9-2.2,2-2.6c0.3-0.1,0.8-0.3,0.8-0.9c0-0.5-0.4-0.6-0.8-0.6c-0.7,0-1.1,0.4-1.6,0.9l-0.6-1
				c0.6-0.6,1.2-1.2,2.1-1.2c0.9,0,1.9,0.5,1.9,1.8c0,1.4-1,1.8-1.8,2.1c-0.7,0.3-1.1,0.6-1.1,1.1v0.1h2.8v1.2H521V264z"/>
			<path class="st6" d="M526.6,263.4c0.4,0,0.8,0.4,0.8,0.9c0,0.5-0.3,0.9-0.8,0.9c-0.4,0-0.7-0.4-0.7-0.9
				C525.9,263.8,526.2,263.4,526.6,263.4z"/>
			<path class="st6" d="M533.2,263.7h-0.8v1.3h-1.1v-1.3h-3.2v-0.9l3.3-3.9h1v3.7h0.8V263.7z M529.7,262.6h1.6v-2h-0.1
				C530.7,261.3,530.2,262,529.7,262.6L529.7,262.6z"/>
		</g>
	</g>
	<g>
		<g>
			<path class="st6" d="M457.2,219.2l1.4-0.8h1v6.1h-1.1v-4.7l-1,0.6L457.2,219.2z"/>
			<path class="st6" d="M461.6,222.8c0.4,0,0.8,0.4,0.8,0.9c0,0.5-0.3,0.9-0.8,0.9c-0.4,0-0.7-0.4-0.7-0.9
				C460.9,223.2,461.2,222.8,461.6,222.8z"/>
			<path class="st6" d="M463.3,223.5c0-1.5,0.9-2.2,2-2.6c0.3-0.1,0.8-0.3,0.8-0.9c0-0.5-0.4-0.6-0.8-0.6c-0.7,0-1.1,0.4-1.6,0.9
				l-0.6-1c0.6-0.6,1.2-1.2,2.1-1.2c0.9,0,1.9,0.5,1.9,1.8c0,1.4-1,1.8-1.8,2.1c-0.7,0.3-1.1,0.6-1.1,1.1v0.1h2.8v1.2h-3.9V223.5z"
				/>
		</g>
	</g>
	<g>
		<g>
			<path class="st6" d="M487.6,154.1l0.5-1c0.3,0.3,1,0.7,1.9,0.7c0.6,0,1.2-0.3,1.2-1c0-0.6-0.5-0.9-0.9-0.9
				c-0.6,0-1.1,0.3-1.5,0.6l-0.6-0.6v-3.2h3.7v1.2h-2.7v1.4c0.4-0.3,0.7-0.6,1.3-0.6c0.9,0,1.9,0.6,1.9,2c0,1.6-1.2,2.3-2.3,2.3
				C488.8,155,488,154.4,487.6,154.1z"/>
		</g>
	</g>
	<g>
		<g>
			<path class="st6" d="M362.5,149.7l1.4-0.8h1v6.1h-1.1v-4.7l-1,0.6L362.5,149.7z"/>
			<path class="st6" d="M365.9,154.3l0.5-1c0.3,0.3,1,0.7,1.9,0.7c0.6,0,1.2-0.3,1.2-1c0-0.6-0.5-0.9-0.9-0.9
				c-0.6,0-1.1,0.3-1.5,0.6l-0.6-0.6v-3.2h3.7v1.2h-2.7v1.4c0.4-0.3,0.7-0.6,1.3-0.6c0.9,0,1.9,0.6,1.9,2c0,1.6-1.2,2.3-2.3,2.3
				C367.1,155.2,366.4,154.6,365.9,154.3z"/>
			<path class="st6" d="M372.2,153.4c0.4,0,0.8,0.4,0.8,0.9c0,0.5-0.3,0.9-0.8,0.9c-0.4,0-0.7-0.4-0.7-0.9
				C371.5,153.8,371.8,153.4,372.2,153.4z"/>
			<path class="st6" d="M375.7,151.3h0.7c0.3,0,0.6-0.2,0.6-0.6c0-0.5-0.4-0.7-0.8-0.7c-0.6,0-1.1,0.4-1.6,1l-0.6-0.9
				c0.5-0.6,1.3-1.3,2.2-1.3c0.8,0,1.9,0.5,1.9,1.8c0,0.5-0.3,0.9-0.5,1.1c0.4,0.2,0.9,0.6,0.9,1.5c0,1.4-1.1,2.2-2.4,2.2
				c-0.9,0-1.7-0.4-2.4-1.3l0.6-1c0.5,0.6,1,1,1.8,1c0.7,0,1.3-0.4,1.3-1c0-0.5-0.5-0.6-0.7-0.6h-0.9V151.3z"/>
		</g>
	</g>
</g>
</svg>
