<svg width="2402" height="557" viewBox="0 0 2402 557" fill="none" xmlns="http://www.w3.org/2000/svg">
<path d="M401.222 556L157.478 263.104L380.158 1H324.488L46.8902 325.438V1H1V556H46.8902V389.275L126.634 296.149L342.543 556H401.222Z" stroke="#565440"/>
<path d="M843.573 556L623.15 1H598.324L376.397 556H426.8L493.003 387.773H726.967L793.169 556H843.573ZM711.921 344.965H508.049L610.361 82.8606L711.921 344.965Z" stroke="#565440"/>
<path d="M947.649 556V115.154L1160.55 428.327H1171.83L1383.98 114.403V556H1429.87V1H1408.81L1166.57 359.985L922.071 1H901.759V556H947.649Z" stroke="#565440"/>
<path d="M1888.24 556V512.441H1597.86V296.149H1867.18V253.341H1597.86V44.5588H1886.74V1H1551.97V556H1888.24Z" stroke="#565440"/>
<path d="M2355.11 456.866L1994.01 1H1973.69V556H2019.59V104.64L2376.93 556H2401V1H2355.11V456.866Z" stroke="#565440"/>
</svg>
