<svg width="1522" height="255" viewBox="0 0 1522 255" fill="none" xmlns="http://www.w3.org/2000/svg">
<mask id="path-1-outside-1" maskUnits="userSpaceOnUse" x="0.242188" y="0.866211" width="1521" height="254" fill="black">
<rect fill="white" x="0.242188" y="0.866211" width="1521" height="254"/>
<path d="M1.24219 6.14588V249.428H21.3237V154.946H73.338C99.3452 154.946 119.098 147.704 132.924 133.219C147.08 118.405 153.993 100.957 153.993 80.5462C153.993 60.4647 147.409 43.0168 133.912 28.2026C120.744 13.3884 101.65 6.14588 76.3009 6.14588H1.24219ZM21.3237 136.182V25.2397H77.2885C111.855 25.2397 133.583 48.2841 133.583 80.217C133.583 112.15 110.867 136.182 73.6672 136.182H21.3237Z"/>
<path d="M340.21 249.428L275.027 144.741C294.451 141.12 309.265 133.219 319.47 120.38C330.005 107.541 335.272 92.7267 335.272 76.5957C335.272 57.5018 328.688 41.0416 315.19 27.215C302.022 13.0592 282.928 6.14588 258.238 6.14588H184.825V249.428H204.907V146.716H253.629L315.849 249.428H340.21ZM258.567 25.2397C293.134 25.2397 314.532 45.9797 314.532 75.9373C314.532 106.553 293.134 127.622 253.629 127.622H204.907V25.2397H258.567Z"/>
<path d="M481.202 253.379C516.098 253.379 545.726 241.198 570.088 216.508C594.778 191.817 606.959 162.189 606.959 127.622C606.959 93.056 594.778 63.4275 570.088 38.7371C545.726 14.0468 516.427 1.86621 481.861 1.86621C447.294 1.86621 417.666 14.376 393.305 39.0663C368.943 63.7567 356.763 93.3851 356.763 128.281C356.763 162.847 368.943 192.476 392.975 216.837C417.007 241.198 446.636 253.379 481.202 253.379ZM481.861 233.956C452.561 233.956 427.542 223.75 407.46 203.34C387.379 182.6 377.174 157.58 377.174 127.952C377.174 98.3232 387.379 73.3037 407.46 52.5637C427.871 31.8239 452.561 21.2893 481.861 21.2893C511.16 21.2893 535.85 31.4946 555.932 52.2345C576.013 72.9745 586.219 97.994 586.219 127.952C586.219 157.58 576.013 182.6 555.932 203.34C535.85 223.75 511.16 233.956 481.861 233.956Z"/>
<path d="M674.181 253.379C696.237 253.379 714.014 246.465 728.17 232.968C742.326 219.141 749.239 199.389 749.239 173.382V6.14588H728.829V174.699C728.829 211.57 706.113 234.285 674.181 234.285C652.782 234.285 632.372 224.079 619.203 206.961L605.706 221.117C623.483 242.515 646.198 253.379 674.181 253.379Z"/>
<path d="M947.027 249.428V230.334H819.954V135.523H937.809V116.759H819.954V25.2397H946.369V6.14588H799.873V249.428H947.027Z"/>
<path d="M1087.91 253.05C1132.35 253.05 1170.87 232.31 1194.24 200.706L1179.75 188.855C1158.69 216.837 1125.11 233.956 1088.24 233.956C1058.28 233.956 1033.26 224.079 1013.18 204.327C993.424 184.246 983.548 158.897 983.548 128.281C983.548 97.3356 993.424 71.6576 1013.51 51.5761C1033.59 31.4946 1058.61 21.2893 1088.56 21.2893C1126.42 21.2893 1160.66 39.7248 1178.77 67.378L1194.24 55.8558C1184.03 39.7248 1169.55 26.8858 1150.46 17.0096C1131.36 6.80428 1110.62 1.86621 1088.56 1.86621C1054 1.86621 1024.37 13.7176 999.679 37.7495C975.318 61.4523 963.138 91.7391 963.138 128.61C963.138 165.152 975.318 194.78 999.35 218.154C1023.38 241.527 1053.01 253.05 1087.91 253.05Z"/>
<path d="M1269.37 249.428H1289.45V25.569H1363.2V6.14588H1195.63V25.569H1269.37V249.428Z"/>
<path d="M1443.59 253.379C1465.32 253.379 1483.42 247.124 1497.91 234.943C1512.72 222.433 1519.96 206.302 1519.96 186.55C1519.96 162.847 1506.8 144.083 1480.79 129.927C1475.85 127.293 1466.63 123.014 1453.14 117.088C1439.64 111.162 1430.75 106.883 1426.47 104.578C1407.05 94.3728 1397.17 80.8754 1397.17 64.0859C1397.17 38.0787 1417.58 20.6309 1446.22 20.6309C1467.95 20.6309 1485.73 30.507 1499.55 50.2593L1514.7 38.0787C1497.91 14.0468 1474.86 1.86621 1445.89 1.86621C1425.15 1.86621 1408.03 7.7919 1395.2 19.9725C1382.36 31.8239 1376.1 46.9673 1376.1 65.0735C1376.1 89.7639 1389.93 109.187 1417.58 123.014C1421.86 125.318 1429.76 128.939 1441.61 134.207C1453.79 139.474 1462.02 143.424 1466.63 145.729C1487.7 156.263 1498.57 168.444 1498.57 187.209C1498.57 200.706 1493.3 211.899 1483.09 220.787C1472.89 229.676 1459.39 234.285 1442.93 234.285C1414.29 234.285 1391.9 218.483 1379.72 191.817L1363.59 202.681C1378.41 235.931 1409.35 253.379 1443.59 253.379Z"/>
</mask>
<path d="M1.24219 6.14588V249.428H21.3237V154.946H73.338C99.3452 154.946 119.098 147.704 132.924 133.219C147.08 118.405 153.993 100.957 153.993 80.5462C153.993 60.4647 147.409 43.0168 133.912 28.2026C120.744 13.3884 101.65 6.14588 76.3009 6.14588H1.24219ZM21.3237 136.182V25.2397H77.2885C111.855 25.2397 133.583 48.2841 133.583 80.217C133.583 112.15 110.867 136.182 73.6672 136.182H21.3237Z" stroke="#C49F8A" stroke-width="2" mask="url(#path-1-outside-1)"/>
<path d="M340.21 249.428L275.027 144.741C294.451 141.12 309.265 133.219 319.47 120.38C330.005 107.541 335.272 92.7267 335.272 76.5957C335.272 57.5018 328.688 41.0416 315.19 27.215C302.022 13.0592 282.928 6.14588 258.238 6.14588H184.825V249.428H204.907V146.716H253.629L315.849 249.428H340.21ZM258.567 25.2397C293.134 25.2397 314.532 45.9797 314.532 75.9373C314.532 106.553 293.134 127.622 253.629 127.622H204.907V25.2397H258.567Z" stroke="#C49F8A" stroke-width="2" mask="url(#path-1-outside-1)"/>
<path d="M481.202 253.379C516.098 253.379 545.726 241.198 570.088 216.508C594.778 191.817 606.959 162.189 606.959 127.622C606.959 93.056 594.778 63.4275 570.088 38.7371C545.726 14.0468 516.427 1.86621 481.861 1.86621C447.294 1.86621 417.666 14.376 393.305 39.0663C368.943 63.7567 356.763 93.3851 356.763 128.281C356.763 162.847 368.943 192.476 392.975 216.837C417.007 241.198 446.636 253.379 481.202 253.379ZM481.861 233.956C452.561 233.956 427.542 223.75 407.46 203.34C387.379 182.6 377.174 157.58 377.174 127.952C377.174 98.3232 387.379 73.3037 407.46 52.5637C427.871 31.8239 452.561 21.2893 481.861 21.2893C511.16 21.2893 535.85 31.4946 555.932 52.2345C576.013 72.9745 586.219 97.994 586.219 127.952C586.219 157.58 576.013 182.6 555.932 203.34C535.85 223.75 511.16 233.956 481.861 233.956Z" stroke="#C49F8A" stroke-width="2" mask="url(#path-1-outside-1)"/>
<path d="M674.181 253.379C696.237 253.379 714.014 246.465 728.17 232.968C742.326 219.141 749.239 199.389 749.239 173.382V6.14588H728.829V174.699C728.829 211.57 706.113 234.285 674.181 234.285C652.782 234.285 632.372 224.079 619.203 206.961L605.706 221.117C623.483 242.515 646.198 253.379 674.181 253.379Z" stroke="#C49F8A" stroke-width="2" mask="url(#path-1-outside-1)"/>
<path d="M947.027 249.428V230.334H819.954V135.523H937.809V116.759H819.954V25.2397H946.369V6.14588H799.873V249.428H947.027Z" stroke="#C49F8A" stroke-width="2" mask="url(#path-1-outside-1)"/>
<path d="M1087.91 253.05C1132.35 253.05 1170.87 232.31 1194.24 200.706L1179.75 188.855C1158.69 216.837 1125.11 233.956 1088.24 233.956C1058.28 233.956 1033.26 224.079 1013.18 204.327C993.424 184.246 983.548 158.897 983.548 128.281C983.548 97.3356 993.424 71.6576 1013.51 51.5761C1033.59 31.4946 1058.61 21.2893 1088.56 21.2893C1126.42 21.2893 1160.66 39.7248 1178.77 67.378L1194.24 55.8558C1184.03 39.7248 1169.55 26.8858 1150.46 17.0096C1131.36 6.80428 1110.62 1.86621 1088.56 1.86621C1054 1.86621 1024.37 13.7176 999.679 37.7495C975.318 61.4523 963.138 91.7391 963.138 128.61C963.138 165.152 975.318 194.78 999.35 218.154C1023.38 241.527 1053.01 253.05 1087.91 253.05Z" stroke="#C49F8A" stroke-width="2" mask="url(#path-1-outside-1)"/>
<path d="M1269.37 249.428H1289.45V25.569H1363.2V6.14588H1195.63V25.569H1269.37V249.428Z" stroke="#C49F8A" stroke-width="2" mask="url(#path-1-outside-1)"/>
<path d="M1443.59 253.379C1465.32 253.379 1483.42 247.124 1497.91 234.943C1512.72 222.433 1519.96 206.302 1519.96 186.55C1519.96 162.847 1506.8 144.083 1480.79 129.927C1475.85 127.293 1466.63 123.014 1453.14 117.088C1439.64 111.162 1430.75 106.883 1426.47 104.578C1407.05 94.3728 1397.17 80.8754 1397.17 64.0859C1397.17 38.0787 1417.58 20.6309 1446.22 20.6309C1467.95 20.6309 1485.73 30.507 1499.55 50.2593L1514.7 38.0787C1497.91 14.0468 1474.86 1.86621 1445.89 1.86621C1425.15 1.86621 1408.03 7.7919 1395.2 19.9725C1382.36 31.8239 1376.1 46.9673 1376.1 65.0735C1376.1 89.7639 1389.93 109.187 1417.58 123.014C1421.86 125.318 1429.76 128.939 1441.61 134.207C1453.79 139.474 1462.02 143.424 1466.63 145.729C1487.7 156.263 1498.57 168.444 1498.57 187.209C1498.57 200.706 1493.3 211.899 1483.09 220.787C1472.89 229.676 1459.39 234.285 1442.93 234.285C1414.29 234.285 1391.9 218.483 1379.72 191.817L1363.59 202.681C1378.41 235.931 1409.35 253.379 1443.59 253.379Z" stroke="#C49F8A" stroke-width="2" mask="url(#path-1-outside-1)"/>
</svg>
