<svg width="765" height="129" viewBox="0 0 765 129" fill="none" xmlns="http://www.w3.org/2000/svg">
<mask id="path-1-outside-1" maskUnits="userSpaceOnUse" x="0.625" y="0.43457" width="765" height="129" fill="black">
<rect fill="white" x="0.625" y="0.43457" width="765" height="129"/>
<path d="M1.625 3.58286V125.705H11.7054V78.2772H37.8154C50.8704 78.2772 60.7856 74.6417 67.7262 67.3705C74.8321 59.9341 78.3024 51.1757 78.3024 40.93C78.3024 30.8496 74.9973 22.0912 68.222 14.6548C61.6118 7.21843 52.0272 3.58286 39.3027 3.58286H1.625ZM11.7054 68.8578V13.1675H39.7985C57.15 13.1675 68.0567 24.7353 68.0567 40.7648C68.0567 56.7943 56.6543 68.8578 37.9807 68.8578H11.7054Z"/>
<path d="M171.779 125.705L139.059 73.1544C148.809 71.3366 156.245 67.3705 161.368 60.9257C166.656 54.4808 169.3 47.0444 169.3 38.947C169.3 29.3623 165.995 21.0997 159.22 14.1591C152.609 7.05317 143.025 3.58286 130.631 3.58286H93.7794V125.705H103.86V74.1459H128.317L159.55 125.705H171.779ZM130.796 13.1675C148.148 13.1675 158.889 23.5785 158.889 38.6165C158.889 53.985 148.148 64.5612 128.317 64.5612H103.86V13.1675H130.796Z"/>
<path d="M242.554 127.688C260.07 127.688 274.943 121.574 287.172 109.18C299.566 96.7856 305.68 81.9128 305.68 64.5612C305.68 47.2097 299.566 32.3369 287.172 19.9429C274.943 7.54893 260.236 1.43457 242.884 1.43457C225.533 1.43457 210.66 7.71418 198.431 20.1082C186.202 32.5021 180.088 47.3749 180.088 64.8917C180.088 82.2433 186.202 97.1161 198.266 109.345C210.329 121.574 225.202 127.688 242.554 127.688ZM242.884 117.938C228.177 117.938 215.617 112.815 205.537 102.569C195.456 92.1585 190.334 79.5992 190.334 64.7265C190.334 49.8537 195.456 37.2945 205.537 26.8835C215.783 16.4726 228.177 11.1845 242.884 11.1845C257.592 11.1845 269.986 16.3073 280.066 26.7183C290.146 37.1292 295.269 49.6885 295.269 64.7265C295.269 79.5992 290.146 92.1585 280.066 102.569C269.986 112.815 257.592 117.938 242.884 117.938Z"/>
<path d="M339.424 127.688C350.496 127.688 359.42 124.218 366.526 117.442C373.631 110.502 377.102 100.586 377.102 87.5314V3.58286H366.856V88.1924C366.856 106.701 355.454 118.103 339.424 118.103C328.683 118.103 318.437 112.98 311.827 104.387L305.051 111.493C313.975 122.235 325.378 127.688 339.424 127.688Z"/>
<path d="M476.387 125.705V116.12H412.599V68.5273H471.76V59.1079H412.599V13.1675H476.056V3.58286H402.519V125.705H476.387Z"/>
<path d="M547.105 127.523C569.414 127.523 588.748 117.112 600.481 101.247L593.21 95.2983C582.634 109.345 565.778 117.938 547.27 117.938C532.232 117.938 519.673 112.98 509.592 103.065C499.677 92.9847 494.719 80.2603 494.719 64.8917C494.719 49.3579 499.677 36.4682 509.757 26.3878C519.838 16.3073 532.397 11.1845 547.435 11.1845C566.439 11.1845 583.626 20.4387 592.714 34.3199L600.481 28.5361C595.358 20.4387 588.087 13.9938 578.503 9.03621C568.918 3.91336 558.507 1.43457 547.435 1.43457C530.084 1.43457 515.211 7.38368 502.817 19.4472C490.588 31.3454 484.474 46.5486 484.474 65.057C484.474 83.4001 490.588 98.2728 502.652 110.006C514.715 121.739 529.588 127.523 547.105 127.523Z"/>
<path d="M638.196 125.705H648.277V13.3328H685.294V3.58286H601.18V13.3328H638.196V125.705Z"/>
<path d="M725.649 127.688C736.556 127.688 745.644 124.548 752.916 118.434C760.352 112.154 763.988 104.057 763.988 94.1415C763.988 82.2433 757.377 72.8239 744.322 65.718C741.844 64.396 737.217 62.2477 730.441 59.2731C723.666 56.2986 719.204 54.1503 717.056 52.9935C707.306 47.8707 702.348 41.0953 702.348 32.6674C702.348 19.6124 712.594 10.854 726.971 10.854C737.878 10.854 746.801 15.8116 753.742 25.7268L761.344 19.6124C752.916 7.54893 741.348 1.43457 726.806 1.43457C716.395 1.43457 707.802 4.40913 701.357 10.5235C694.912 16.4726 691.772 24.0742 691.772 33.1632C691.772 45.5571 698.713 55.3071 712.594 62.2477C714.742 63.4045 718.708 65.2222 724.657 67.8663C730.772 70.5103 734.903 72.4934 737.217 73.6501C747.793 78.9382 753.246 85.0526 753.246 94.472C753.246 101.247 750.602 106.866 745.479 111.328C740.356 115.79 733.581 118.103 725.318 118.103C710.941 118.103 699.704 110.171 693.59 96.7856L685.492 102.239C692.929 118.929 708.463 127.688 725.649 127.688Z"/>
</mask>
<path d="M1.625 3.58286V125.705H11.7054V78.2772H37.8154C50.8704 78.2772 60.7856 74.6417 67.7262 67.3705C74.8321 59.9341 78.3024 51.1757 78.3024 40.93C78.3024 30.8496 74.9973 22.0912 68.222 14.6548C61.6118 7.21843 52.0272 3.58286 39.3027 3.58286H1.625ZM11.7054 68.8578V13.1675H39.7985C57.15 13.1675 68.0567 24.7353 68.0567 40.7648C68.0567 56.7943 56.6543 68.8578 37.9807 68.8578H11.7054Z" stroke="#C49F8A" stroke-width="2" mask="url(#path-1-outside-1)"/>
<path d="M171.779 125.705L139.059 73.1544C148.809 71.3366 156.245 67.3705 161.368 60.9257C166.656 54.4808 169.3 47.0444 169.3 38.947C169.3 29.3623 165.995 21.0997 159.22 14.1591C152.609 7.05317 143.025 3.58286 130.631 3.58286H93.7794V125.705H103.86V74.1459H128.317L159.55 125.705H171.779ZM130.796 13.1675C148.148 13.1675 158.889 23.5785 158.889 38.6165C158.889 53.985 148.148 64.5612 128.317 64.5612H103.86V13.1675H130.796Z" stroke="#C49F8A" stroke-width="2" mask="url(#path-1-outside-1)"/>
<path d="M242.554 127.688C260.07 127.688 274.943 121.574 287.172 109.18C299.566 96.7856 305.68 81.9128 305.68 64.5612C305.68 47.2097 299.566 32.3369 287.172 19.9429C274.943 7.54893 260.236 1.43457 242.884 1.43457C225.533 1.43457 210.66 7.71418 198.431 20.1082C186.202 32.5021 180.088 47.3749 180.088 64.8917C180.088 82.2433 186.202 97.1161 198.266 109.345C210.329 121.574 225.202 127.688 242.554 127.688ZM242.884 117.938C228.177 117.938 215.617 112.815 205.537 102.569C195.456 92.1585 190.334 79.5992 190.334 64.7265C190.334 49.8537 195.456 37.2945 205.537 26.8835C215.783 16.4726 228.177 11.1845 242.884 11.1845C257.592 11.1845 269.986 16.3073 280.066 26.7183C290.146 37.1292 295.269 49.6885 295.269 64.7265C295.269 79.5992 290.146 92.1585 280.066 102.569C269.986 112.815 257.592 117.938 242.884 117.938Z" stroke="#C49F8A" stroke-width="2" mask="url(#path-1-outside-1)"/>
<path d="M339.424 127.688C350.496 127.688 359.42 124.218 366.526 117.442C373.631 110.502 377.102 100.586 377.102 87.5314V3.58286H366.856V88.1924C366.856 106.701 355.454 118.103 339.424 118.103C328.683 118.103 318.437 112.98 311.827 104.387L305.051 111.493C313.975 122.235 325.378 127.688 339.424 127.688Z" stroke="#C49F8A" stroke-width="2" mask="url(#path-1-outside-1)"/>
<path d="M476.387 125.705V116.12H412.599V68.5273H471.76V59.1079H412.599V13.1675H476.056V3.58286H402.519V125.705H476.387Z" stroke="#C49F8A" stroke-width="2" mask="url(#path-1-outside-1)"/>
<path d="M547.105 127.523C569.414 127.523 588.748 117.112 600.481 101.247L593.21 95.2983C582.634 109.345 565.778 117.938 547.27 117.938C532.232 117.938 519.673 112.98 509.592 103.065C499.677 92.9847 494.719 80.2603 494.719 64.8917C494.719 49.3579 499.677 36.4682 509.757 26.3878C519.838 16.3073 532.397 11.1845 547.435 11.1845C566.439 11.1845 583.626 20.4387 592.714 34.3199L600.481 28.5361C595.358 20.4387 588.087 13.9938 578.503 9.03621C568.918 3.91336 558.507 1.43457 547.435 1.43457C530.084 1.43457 515.211 7.38368 502.817 19.4472C490.588 31.3454 484.474 46.5486 484.474 65.057C484.474 83.4001 490.588 98.2728 502.652 110.006C514.715 121.739 529.588 127.523 547.105 127.523Z" stroke="#C49F8A" stroke-width="2" mask="url(#path-1-outside-1)"/>
<path d="M638.196 125.705H648.277V13.3328H685.294V3.58286H601.18V13.3328H638.196V125.705Z" stroke="#C49F8A" stroke-width="2" mask="url(#path-1-outside-1)"/>
<path d="M725.649 127.688C736.556 127.688 745.644 124.548 752.916 118.434C760.352 112.154 763.988 104.057 763.988 94.1415C763.988 82.2433 757.377 72.8239 744.322 65.718C741.844 64.396 737.217 62.2477 730.441 59.2731C723.666 56.2986 719.204 54.1503 717.056 52.9935C707.306 47.8707 702.348 41.0953 702.348 32.6674C702.348 19.6124 712.594 10.854 726.971 10.854C737.878 10.854 746.801 15.8116 753.742 25.7268L761.344 19.6124C752.916 7.54893 741.348 1.43457 726.806 1.43457C716.395 1.43457 707.802 4.40913 701.357 10.5235C694.912 16.4726 691.772 24.0742 691.772 33.1632C691.772 45.5571 698.713 55.3071 712.594 62.2477C714.742 63.4045 718.708 65.2222 724.657 67.8663C730.772 70.5103 734.903 72.4934 737.217 73.6501C747.793 78.9382 753.246 85.0526 753.246 94.472C753.246 101.247 750.602 106.866 745.479 111.328C740.356 115.79 733.581 118.103 725.318 118.103C710.941 118.103 699.704 110.171 693.59 96.7856L685.492 102.239C692.929 118.929 708.463 127.688 725.649 127.688Z" stroke="#C49F8A" stroke-width="2" mask="url(#path-1-outside-1)"/>
</svg>
