<!-- DO NOT EDIT THIS, THIS FILE IS GENERATED FROM "Plan-parking_2.original_.svg" using transform-svgs.js script -->


<svg version="1.1" xmlns="http://www.w3.org/2000/svg" xmlns:xlink="http://www.w3.org/1999/xlink" x="0px" y="0px"
	 viewBox="0 0 900 541" style="enable-background:new 0 0 900 541;" xml:space="preserve">

<g opacity="0.15">
	<g>
		<rect x="179.1871338" y="215.9573364" fill="#565440" width="2" height="10.3067627"/>
		<polygon fill="#565440" points="44.2929688,181.9442139 44.2929688,223.8165283 15.2040405,223.8165283 15.2040405,217.4227905 
			13.2040405,217.4227905 13.2040405,223.8165283 2.0307007,223.8165283 2.0307007,225.8165283 38.2054443,225.8165283 
			38.2054443,228.4359131 46.2929688,228.4359131 46.2929688,181.9442139 		"/>
		<rect x="44.2929688" y="267.4772339" fill="#565440" width="2" height="7.4829102"/>
		<polygon fill="#565440" points="13.2040405,210.699585 15.2040405,210.699585 15.2040405,172.3659668 0.9672852,172.3659668 
			0.9672852,174.3659668 13.2040405,174.3659668 		"/>
		<polygon fill="#565440" points="2.3067627,252.328064 2.3067627,254.328064 21.0883789,254.328064 21.0883789,273.2370605 
			23.0883789,273.2370605 23.0883789,254.328064 44.2929688,254.328064 44.2929688,261.3590698 46.2929688,261.3590698 
			46.2929688,252.328064 		"/>
		<path fill="#565440" d="M237.6587524,235.4996338v-60.8880005h-24.208313v2h3.1785278v58.8880005h-21.7207642v-58.8880005h11.2664795
			v-2h-10.1732178v-3.5631104h-2v3.5631104h-5.9784546v2h4.8851929v29.0352783h-12.598877l0.0504761-29.0352783h1.9671021v-2
			h-5.930603v2h1.963501l-0.0504761,29.0352783h-12.498291v-29.0352783h4.8939209v-2H153.815979v4.5427856h2v-2.5427856h7.9950562
			v10.2161255c-1.4594116,0.0128174-4.0352173,0.0367432-4.3217773,0.0487671v4.0284424
			c-1.3078613,0.0023804-2.6288452,0.0048828-3.6732788,0.0072021v-6.0751953h-2v10.2453003h2v-2.1917725
			c2.3780518-0.0048828,6.1958618-0.0103149,7.9950562-0.0127563v14.6711426h-7.9950562v-6.7728271h-2v11.0187378h2v-2.2459106
			h23.3711548v2.8383179h2v-2.8383179h11.7210693v25.9507446h-11.7210693v-3.652832h-2v3.652832h-27.5307007v-13.9453735h4.1595459
			v-4.0847168h-2v2.0847168h-10.3803711v2h6.2208252v17.7944946h-14.7576904v-17.7944946h2.8513794v-2H92.9394531v4.6194458
			h39.9592896v17.1750488h18.7576904v-3.8491211h7.7763672v2.6382446h20.3340454v-2.6382446h62.0223999v-2H237.6587524z
			 M235.6587524,235.4996338h-16.2453003l2.3359985-7.4836426c0,0,8.116333-3.0256958,8.6119995-3.1915894h5.2973022V235.4996338z
			 M235.6587524,222.8244019h-17.0297852v-14.4171753h17.0297852V222.8244019z M235.6587524,206.4072266h-17.0297852v-20.8956909
			h17.0297852V206.4072266z M235.6587524,183.5115356h-16.496582l1.6532593-5.8438721
			c0,0,11.5375977-1.6504517,14.8433228-2.1184082V183.5115356z"/>
		<polygon fill="#565440" points="357.0009155,245.9818115 357.0009155,247.9818115 362.0061646,247.9818115 362.0061646,268.2437744 
			337.9008789,268.2437744 337.9008789,247.9818115 349.727478,247.9818115 349.727478,245.9818115 335.9008789,245.9818115 
			335.9008789,253.6925049 318.0103149,253.6925049 318.0103149,247.9819946 317.9985352,247.9819946 317.9985352,247.9307861 
			313.5346069,247.9307861 313.5346069,249.9307861 316.0103149,249.9307861 316.0103149,268.2437744 302.1472778,268.2437744 
			302.1472778,249.9307861 307.6502075,249.9307861 307.6502075,247.9307861 295.7697754,247.9307861 295.7697754,249.9307861 
			300.1472778,249.9307861 300.1472778,268.2437744 286.6392212,268.2437744 286.6392212,249.9307861 289.8806152,249.9307861 
			289.8806152,247.9307861 284.6392212,247.9307861 284.6392212,253.293335 266.7668457,253.293335 266.7668457,247.9307861 
			261.9367676,247.9307861 261.9367676,249.9307861 264.7668457,249.9307861 264.7668457,268.2498169 250.9202271,268.2498169 
			250.9202271,249.9307861 256.0593262,249.9307861 256.0593262,247.9307861 243.7484131,247.9307861 243.7484131,249.9307861 
			248.9202271,249.9307861 248.9202271,268.2498169 235.4049072,268.2498169 235.4049072,249.9307861 237.8726807,249.9307861 
			237.8726807,247.9307861 233.4049072,247.9307861 233.4049072,253.2940063 215.3314819,253.2932129 215.3314819,247.9307861 
			207.3190308,247.9307861 207.3190308,249.9307861 213.3314819,249.9307861 213.3314819,268.2498169 196.0214844,268.2498169 
			196.0214844,249.9307861 201.4448242,249.9307861 201.4448242,247.9307861 188.8312988,247.9307861 188.8312988,249.9307861 
			194.0214844,249.9307861 194.0214844,268.2498169 176.7114868,268.2498169 176.7114868,249.9307861 182.7852783,249.9307861 
			182.7852783,247.9307861 174.7114868,247.9307861 174.7114868,270.2498169 225.6795654,270.2498169 225.6795654,268.2498169 
			215.3314819,268.2498169 215.3314819,258.3118896 233.4049072,258.3118896 233.4049072,268.2498169 231.5307007,268.2498169 
			231.5307007,270.2498169 276.6745605,270.2498169 276.6745605,268.2498169 266.7668457,268.2498169 266.7668457,258.3101807 
			284.6392212,258.3101807 284.6392212,268.2437744 282.5535889,268.2437744 282.5535889,270.2437744 326.8588867,270.2437744 
			326.8588867,268.2437744 318.0103149,268.2437744 318.0103149,258.3118896 335.9008789,258.3118896 335.9008789,268.2437744 
			332.7415161,268.2437744 332.7415161,270.2437744 364.0061646,270.2437744 364.0061646,245.9818115 		"/>
		<path fill="#565440" d="M343.5947876,185.2869873v2h5.1168823v22.4417114H333.052124v-22.4417114h4.8536377v-2h-11.055542v2
			h4.2019043v15.3330688h-14.9324951v-15.3330688h5.0419922v-2h-11.8865356v2h4.8445435v15.3330688h-16.8834229v-15.3330688
			h6.3502197v-2h-6.3502197v-10.6650391h-39.7147217v-14.560791h18.0981445v-23.2940674h-4.7965088v2h2.7965088v16.6746216
			h-9.0378418v-16.6746216h2.6737671v-2h-20.536377v2h15.8626099v16.6746216l-31.2597046-0.0195923v-16.6550293h3.1970215v-2
			h-13.1605835v2h7.963562v16.6550293h-21.1469727v-16.6550293h7.4956055v-2H198.493103v2h7.6820068v16.6550293h-12.173645
			v2.9880371h-8.9744263v-19.6430664h7.7756958v-2h-14.722168v2h4.9464722v19.6430664h-11.5975952v-2.9967041l-1.0073853,0.0001221
			v-16.6464844h1.9655151v-2h-5.9276733v2h1.9621582v16.6466675l-4.7778931,0.0004272v2.9959717h-7.828186v-19.6430664h4.9553223v-2
			h-6.9553223v23.6430664h40.1854858v3.3649292h2v-3.3740845h17.9868164v-2.6351929l-0.0200806-0.343689h41.5532837v17.1998291
			H252.49823v19.0806885h2v-3.9671631h17.3040771v14.6875H254.49823v-4.3877563h-2v11.7502441h2v-5.3624878h17.3040771v20.5333862
			H254.49823v-5.7492065h-2v14.2855835h-3.4347534v2h32.5496826v-2h-7.8108521v-58.8707886h21.4338989v58.8707886h-6.3468628v2
			h14.4285889v-2h-6.0817261v-28.2532959h16.8834229v28.2533569h-5.1113281v2h7.1113281v-2.3388062h5.1008911v-2h-5.1008911
			v-25.9145508h14.9324951v25.9145508h-4.1386719v2h10.9935913v-2h-4.8549194v-21.425293h15.6595459v21.425293h-5.1142578v2
			h7.1142578v-49.8670044H343.5947876z M271.8023071,235.4927368h-17.2387085l1.8275146-5.3023682
			c0,0,10.8652954-1.0524902,12.0648804-1.2340088h3.3463135V235.4927368z M271.8023071,187.7354736h-16.7507935
			l2.5142822-8.2401733c0,0,6.9093018-2.3898315,8.3473511-2.8733521h5.8891602V187.7354736z"/>
		<rect x="178.6779785" y="90.3769455" fill="#565440" width="4.8297119" height="15.9110107"/>
		<rect x="227.3688354" y="90.3769455" fill="#565440" width="4.8296509" height="15.9110107"/>
		<rect x="276.0595703" y="90.3769455" fill="#565440" width="4.8296509" height="15.9110107"/>
		<polygon fill="#565440" points="143.2699585,159.2390137 143.2699585,146.4777222 141.2699585,146.4777222 141.2699585,151.817688 
			129.5705566,151.817688 129.5705566,135.3069458 141.2699585,135.3069458 141.2699585,140.789917 143.2699585,140.789917 
			143.2699585,133.3069458 132.0804443,133.3069458 132.0804443,98.7335129 134.8190308,98.7335129 134.8190308,94.1141281 
			125.1679688,94.1141281 125.1679688,98.7335129 127.5705566,98.7335129 127.5705566,171.975647 128.8405151,171.975647 
			128.8405151,172.0001831 143.2699585,172.0001831 143.2699585,164.9259033 141.2699585,164.9259033 141.2699585,170.0001831 
			129.5705566,170.0001831 129.5705566,153.817688 141.2699585,153.817688 141.2699585,159.2390137 		"/>
		<path fill="#565440" d="M113.3711548,177.6532593v1.9819336c0.5331421-0.0015869,2.5274048-0.0036011,5.2352905-0.0056763v12.9694214
			c-9.0234375,0.0036621-18.0670776,0.0077515-22.142395,0.0108643v-12.9924316
			c3.3821411,0.0039673,10.4654541,0.0128174,11.2061768,0.0178223v-1.9819336
			c-0.7439575-0.0049438-7.8248291-0.0150757-11.2061768-0.0197144v-78.900032h5.7700806v-4.6193848H91.8446655v115.4224319
			h15.8338623v-2H96.4640503v-12.9447632c4.0740356-0.0029297,13.1182861-0.0067139,22.142395-0.0099487v12.9547119h-5.2427368v2
			h12.7240601v-2h-5.4813232v-12.9554443c8.4313965-0.0029907,16.5163574-0.0054321,20.1463013-0.0065918v12.9620361h-8.9772339v2
			h10.9772339v-22.1609497h-2v5.2147827c-3.6299438,0.0012817-11.7148438,0.0042725-20.1463013,0.0076904v-12.9700317
			c6.6885376-0.0047607,16.0876465-0.0096436,20.1463013-0.0117188v2.0740967h2v-4.0593262
			C142.7527466,177.6311035,115.590332,177.6467285,113.3711548,177.6532593z"/>
		<polygon fill="#565440" points="40.7300415,160.0594482 40.7300415,157.7388306 0.9672852,157.7388306 0.9672852,159.7388306 
			38.7300415,159.7388306 38.7300415,163.7418823 44.2929688,163.7418823 44.2929688,166.8538818 46.2929688,166.8538818 
			46.2929688,160.0594482 		"/>
		<polygon fill="#565440" points="543.7328491,107.0050583 543.7328491,103.7766037 543.7133179,103.7766037 526.8449707,99.2797165 
			526.2328491,101.1862717 541.7328491,105.3184128 541.7329102,114.2924118 511.8995361,114.2925949 511.8994751,97.3651657 
			520.9682617,99.7828293 521.499939,97.8547287 511.0916138,95.0798264 507.4140625,95.0798874 507.4140625,103.1757736 
			509.8994751,103.1757736 509.8995361,116.1298141 510.0123291,116.1298141 510.0123291,116.2925949 543.7313843,116.2924118 
			543.7313843,116.1298752 543.7329102,116.1298752 543.7329102,110.68853 550.8964233,110.68853 550.8964233,107.0050583 		"/>
		<polygon fill="#565440" points="551.130249,296.260376 499.9481812,296.2605591 499.9481812,312.6450195 513.8015137,312.6447144 
			513.8015137,310.6447144 501.9471741,310.6449585 501.9471741,309.1842651 503.59021,309.1842651 503.59021,301.34375 
			501.9471741,301.34375 501.9471741,298.2605591 524.5357666,298.260498 524.5361328,310.6439209 519.8671265,310.644043 
			519.8671265,312.644043 532.5427246,312.6436768 532.5427246,310.6436768 526.5361328,310.6438599 526.5357666,298.260437 
			549.1382446,298.260376 549.1382446,305.7044678 542.6834106,305.7044678 542.6834106,309.3879395 549.1382446,309.3879395 
			549.1382446,310.6431885 538.5706787,310.6434937 538.5706177,312.6434937 551.130249,312.6381226 		"/>
		<rect x="768.9023438" y="207.9019165" fill="#565440" width="10.3665161" height="2"/>
		<polygon fill="#565440" points="657.9508057,267.6253662 657.9510498,278.0786133 659.9510498,278.0786743 659.9509277,265.6253662 
			640.1531982,265.6252441 640.1526489,315.5950317 642.1526489,315.5950317 642.15271,310.0386963 651.4456787,310.0386963 
			651.4457397,329.0431519 654.0650024,329.0431519 654.0650024,337.0874634 642.1522217,337.0874634 642.1521606,321.4777832 
			640.1521606,321.4777222 640.1522217,347.6860962 642.1522217,347.6861572 642.1522217,339.0874634 654.0650024,339.0874634 
			654.0650024,359.2838135 642.1518555,359.2838135 642.1516724,353.5730591 640.1516724,353.5730591 640.1520996,368.1474609 
			642.1520996,368.1474609 642.1519165,361.2838135 651.4456787,361.2838135 651.4457397,379.2177734 642.1516724,379.2177734 
			642.1516724,374.0249023 640.1516724,374.0248413 640.1517944,400.7976074 645.0620117,400.7973633 645.0620117,398.7973633 
			642.1517944,398.7973633 642.1517334,381.2177734 654.0650024,381.2177734 654.0650024,398.7973633 650.9498291,398.7973633 
			650.9498291,400.7973633 656.0650024,400.7973633 656.0650024,391.8054199 659.2575684,391.8052979 659.2575684,389.8052979 
			656.0650024,389.8054199 656.0650024,332.0602417 659.0675049,332.0602417 659.0675049,330.0602417 656.0650024,330.0602417 
			656.0650024,310.0386963 659.9506226,310.0391846 659.9506836,283.9650269 657.9506836,283.9649658 657.9506226,308.0386963 
			642.15271,308.0386963 642.1531982,267.6253662 		"/>
		<polygon fill="#565440" points="752.0307007,188.5638428 752.0307007,188.5648193 752.0307007,209.9081421 762.8746948,209.9019165 
			762.8746948,207.9019165 757.7362061,207.9019165 757.7362061,192.248291 788.9498901,192.248291 788.9498901,207.9019165 
			785.3099976,207.9019165 785.3099976,209.9019165 790.9498901,209.9019165 790.9498901,204.895813 795.822876,204.895813 
			795.822876,202.895813 790.9498901,202.895813 790.9498901,190.5648193 806.1620483,190.5648193 806.1620483,202.895813 
			801.8579712,202.895813 801.8579712,204.895813 808.1620483,204.895813 808.1620483,188.5648193 		"/>
		<rect x="850.6716919" y="509.8035889" fill="#565440" width="2" height="29.0828857"/>
		<path fill="#565440" d="M757.7608643,425.5459595l-0.0001221-21.6494141h-0.1532593v-0.0012207l-7.0996704,0.000061v2
			l5.2529297-0.000061v17.6506348l-18.8739014,0.0001221v-17.6507568h7.1303101v-2h-8.5909424v-2.0839233h-2v2.0839233h-1.1586304
			l-0.000061,2.9196777l-24.2579346,0.0004883v-15.0090332l25.416626-0.000061v3.5403442h2v-52.630249h-2v3.9768066
			l-60.1869507,0.0001831v2h8.2639771v17.5213013h-8.6660156v5.0869141h2v-3.0869141l58.5889893-0.0001221v21.5917358
			l-58.5889893,0.0001831v-11.0827637h-2v11.0827637h-6.5883789v2h6.1842651v5.7741089h2v-5.7741089l28.9571533-0.0001221
			v19.0009155l-28.9571533,0.0005493v-6.7792969h-2v6.7793579l-0.000061,2l30.9572144-0.0006104v10.9351196h-3.4602051v23.1356201h2
			l0,0l16.5383301-0.0002441v0.0002441h2v-8.6795654h-2v6.6793213l-16.5383301,0.0002441v-19.1356201l6.0795288,0.000061v-2.019043
			l10.4588013-0.0002441v8.0001831h2v-8.0002441h1.3970337v-2l-13.855835,0.0003052v-12.90802l24.2579346-0.0004883
			l0.000061,12.9071045l-3.9597778,0.0001221l0.000061,2l3.9596558-0.0001221v1.8239746L757.7608643,425.5459595z
			 M721.0001831,348.6933594v17.5213013l-14.6932373,0.000061v-17.5213623H721.0001831z M683.5032349,348.6934814
			l20.8037109-0.000061v17.5213013l-20.8037109,0.000061V348.6934814z M723.2397461,366.2146606l2.6395264-14.0126953
			c0,0,6.0996094-2.1165161,7.546936-2.6054688v16.6181641H723.2397461z"/>
		<rect x="886.6348877" y="471.8323364" fill="#565440" width="10.881958" height="2"/>
		<polygon fill="#565440" points="756.6775513,317.9199829 756.6775513,299.7074585 761.2514648,299.7074585 761.2515259,292.7677002 
			759.2515259,292.7677002 759.2515259,297.7074585 746.0859985,297.7074585 746.0859985,281.46875 759.2515259,281.46875 
			759.2515259,286.2961426 761.2515259,286.2961426 761.2515259,279.46875 744.0859985,279.4684448 744.0858765,299.7074585 
			752.105957,299.7074585 752.105957,317.9199829 744.434082,317.9199829 744.43396,351.2272949 752.1060181,351.2272339 
			752.1060181,369.2929077 744.43396,369.2929688 744.434082,393.8622437 761.432373,393.8622437 761.432373,382.6390991 
			759.432373,382.6390991 759.432373,391.8604736 746.434082,391.8605347 746.434082,371.2929688 759.432373,371.2928467 
			759.432373,376.1505127 761.432373,376.1505127 761.432312,369.2928467 756.7252808,369.2929077 756.7252808,351.2271729 
			761.432312,351.2271118 761.432373,344.4781494 759.432373,344.4781494 759.432373,349.2271118 746.434082,349.2272949 
			746.434082,335.6123962 759.432373,335.6123962 759.432373,338.0117188 761.432373,338.0117188 761.432373,331.0325928 
			759.432373,331.0325928 759.432373,333.6123962 746.434082,333.6123962 746.434082,319.9199829 759.432373,319.9199829 
			759.432373,324.5748291 761.432373,324.5748291 761.432373,317.9199829 		"/>
		<polygon fill="#565440" points="38.6503296,37.1666183 40.6503296,37.1666183 40.6503296,27.0684128 38.6503296,27.0684128 
			38.6503296,32.1071091 2.8262939,32.1071091 2.8262939,34.1071091 38.6503296,34.1071091 		"/>
		<polygon fill="#565440" points="38.6503296,21.3416672 40.6503296,21.3416672 40.6503296,14.3611994 38.6503296,14.3611994 
			38.6503296,16.541069 2.8262939,16.541069 2.8262939,18.541069 38.6503296,18.541069 		"/>
		<rect x="38.6503296" y="1.6553278" fill="#565440" width="2" height="6.9804688"/>
		<polygon fill="#565440" points="335.545166,102.4786911 335.545166,90.3751144 324.5766602,90.3751144 324.5766602,102.4786911 
			331.052124,102.4786911 331.052124,133.3069458 309.631897,133.3069458 309.631897,143.4584351 311.631897,143.4584351 
			311.631897,135.3069458 331.052124,135.3069458 331.052124,154.5981445 311.631897,154.5981445 311.631897,149.1591797 
			309.631897,149.1591797 309.631897,161.6918335 311.631897,161.6918335 311.631897,156.5981445 328.4365234,156.5981445 
			328.4365234,174.6195679 311.631897,174.6195679 311.631897,167.3787842 309.631897,167.3787842 309.631897,177.8133545 
			333.0559082,177.8133545 333.052124,102.4786911 		"/>
		<polygon fill="#565440" points="454.6647339,89.108696 452.6421509,89.108696 452.6422119,97.8774948 450.0453491,97.8774948 
			450.0453491,217.1342163 397.664856,217.1342163 397.664856,97.8774948 395.0454712,97.8774948 395.0454712,94.7265625 
			393.0454712,94.7265625 393.0454712,202.0606079 374.7870483,202.0606079 374.7870483,206.6799927 393.0454712,206.6799927 
			393.0454712,253.6925049 374.7870483,253.6925049 374.7870483,258.3118896 393.0454712,258.3118896 393.0454712,315.9384155 
			397.664856,315.9384155 397.664856,234.8560181 450.0453491,234.8560181 450.0453491,315.9384155 452.6422729,315.9384155 
			452.6422729,358.8867188 454.6422729,358.8867188 454.6422729,315.9384155 454.6647339,315.9384155 454.6647339,309.0358276 
			460.0792236,309.0358276 460.0792236,304.4164429 454.6647339,304.4164429 454.6647339,252.7011719 460.1141968,252.7020874 
			460.1141968,249.0186157 454.6647339,249.0186157 454.6647339,206.6799927 460.1785889,206.6799927 460.1785889,202.0606079 
			454.6647339,202.0606079 		"/>
		<rect x="90.4866943" y="39.3199997" fill="#565440" width="3.6834106" height="8.2476807"/>
		<rect x="39.670105" y="112.0100632" fill="#565440" width="8.2476807" height="3.6834717"/>
		<rect x="153.991394" y="39.3199997" fill="#565440" width="3.6834717" height="8.2476807"/>
		<rect x="217.4902344" y="39.3199997" fill="#565440" width="3.6834717" height="8.2476807"/>
		<rect x="280.982666" y="39.3199997" fill="#565440" width="3.6834717" height="8.2476807"/>
		<rect x="92.2212067" y="359.2064819" fill="#565440" width="3.7284164" height="8.2476807"/>
		<rect x="155.7625427" y="359.2064819" fill="#565440" width="3.6887665" height="8.2476807"/>
		<rect x="219.256897" y="359.2064819" fill="#565440" width="3.6891937" height="8.2476807"/>
		<rect x="282.7528992" y="359.2064819" fill="#565440" width="3.6914062" height="8.2476807"/>
		<rect x="392.5360718" y="359.2064819" fill="#565440" width="3.6834717" height="8.2476807"/>
		<rect x="346.2463989" y="359.2064819" fill="#565440" width="3.6195068" height="8.2476807"/>
		<rect x="159.5838623" y="287.9035645" fill="#565440" width="4.5487671" height="21.4647217"/>
		<rect x="214.8148193" y="287.9035645" fill="#565440" width="4.6193848" height="21.4647217"/>
		<rect x="267.1828613" y="293.2180176" fill="#565440" width="4.6193848" height="16.1502686"/>
		<rect x="318.0172119" y="293.2180176" fill="#565440" width="4.6194153" height="16.1502686"/>
		<rect x="366.6061401" y="301.1413574" fill="#565440" width="4.6194153" height="8.2269897"/>
		<rect x="92.9394531" y="266.7689819" fill="#565440" width="41.5513306" height="4.6194458"/>
		<rect x="118.3268433" y="311.3626099" fill="#565440" width="15.9754639" height="4.6193848"/>
		<rect x="92.9400024" y="311.3626099" fill="#565440" width="8.328186" height="4.6193848"/>
		<rect x="497.4934082" y="201.8087769" fill="#565440" width="8.2476807" height="3.6677246"/>
		<rect x="542.883606" y="201.8087769" fill="#565440" width="8.2476807" height="3.6677246"/>
		<rect x="540.5956421" y="402.2268066" fill="#565440" width="8.1347046" height="3.6834717"/>
		<rect x="540.5956421" y="466.8811035" fill="#565440" width="8.1359253" height="2.7609863"/>
		<rect x="593.8799438" y="141.8823853" fill="#565440" width="8.2476807" height="3.6834717"/>
		<rect x="698.5429688" y="137.3181763" fill="#565440" width="3.6834106" height="8.2476807"/>
		<rect x="629.0701294" y="141.8823853" fill="#565440" width="8.2476807" height="3.6834717"/>
		<rect x="497.4934082" y="249.0255127" fill="#565440" width="8.2476807" height="3.6765747"/>
		<rect x="542.883606" y="249.0255127" fill="#565440" width="8.2476807" height="3.6765747"/>
		<rect x="497.4934082" y="137.178833" fill="#565440" width="8.2476807" height="4.6193237"/>
		<rect x="542.883606" y="137.178833" fill="#565440" width="8.2476807" height="4.6193237"/>
		<rect x="501.9472656" y="350.7817993" fill="#565440" width="3.6497192" height="8.0012207"/>
		<rect x="547.0037842" y="350.7817993" fill="#565440" width="3.6834717" height="8.0012207"/>
		<rect x="593.871521" y="309.1125488" fill="#565440" width="21.2120361" height="5.5661011"/>
		<rect x="593.871521" y="360.989624" fill="#565440" width="21.2120361" height="4.6193237"/>
		<rect x="593.871521" y="411.9191284" fill="#565440" width="21.2120361" height="4.6193237"/>
		<path fill="#565440" d="M705.5563965,251.631958h-5.4487915v35.8529053h-27.3502808v42.5753784h-5.536438v2h66.2053223v4.1885376h2
			v-29.819458h-2v4.317627h-58.6688843v-21.262085h58.6688843v10.8699951h2v-12.8699951h-29.869751L705.5563965,251.631958z
			 M725.1962891,330.0602417h-20.9324951v-17.3132935h20.9324951V330.0602417z M702.2637939,330.0602417h-14.5275879v-17.3132935
			h14.5275879V330.0602417z M727.3390503,330.0602417l1.4619751-14.7645264c0,0,3.6466064-1.1656494,4.6251831-1.4667969v16.2313232
			H727.3390503z M685.7362061,312.7469482v17.3132935h-10.9788818v-17.3132935H685.7362061z"/>
		<rect x="594.0192261" y="201.9020386" fill="#565440" width="6.6348267" height="15.7913818"/>
		<rect x="646.1971436" y="201.9020386" fill="#565440" width="6.6348267" height="15.7913818"/>
		<rect x="700.107605" y="188.3652344" fill="#565440" width="5.4489746" height="21.644165"/>
		<polygon fill="#565440" points="594.0195312,231.0152588 594.0195923,256.6746826 616.7660522,256.6834717 616.7660522,254.6834717 
			615.0429688,254.6834717 615.0429688,252.2197266 596.0195923,252.2197266 596.0195923,233.0152588 624.6104736,233.0152588 
			624.6104736,254.6834717 622.6417847,254.6834717 622.6417847,256.6834717 635.0756836,256.6834717 635.0756836,254.6834717 
			626.6104736,254.6834717 626.6104736,233.0152588 648.8805542,233.0152588 648.8805542,240.883606 646.1971436,240.883606 
			646.1971436,254.6834717 640.951416,254.6834717 640.951416,256.6834717 658.6201172,256.6834717 658.6201172,254.6834717 
			652.8319702,254.6834717 652.8319702,240.883606 650.8805542,240.883606 650.8805542,233.0152588 675.6387329,233.0152588 
			675.6386719,251.632019 673.0196533,251.6320801 673.0196533,254.6834717 664.4958496,254.6834717 664.4958496,256.6834717 
			673.0196533,256.6834717 673.0196533,272.9268188 677.6386719,272.9268188 677.6387329,231.0152588 		"/>
		<rect x="752.0529785" y="246.9204102" fill="#565440" width="4.6193237" height="20.6865845"/>
		<rect x="593.871521" y="487.7245483" fill="#565440" width="21.2120361" height="4.5148926"/>
		<rect x="651.3411865" y="471.3554077" fill="#565440" width="4.6193237" height="20.8834229"/>
		<rect x="850.6721191" y="424.121582" fill="#565440" width="8.2477417" height="3.6834717"/>
		<rect x="850.6721191" y="360.6246338" fill="#565440" width="8.2477417" height="3.6834717"/>
		<rect x="850.6721191" y="297.1276855" fill="#565440" width="8.2477417" height="3.6834717"/>
		<rect x="850.6721191" y="188.711731" fill="#565440" width="8.2477417" height="3.6834106"/>
		<rect x="850.6721191" y="233.6307983" fill="#565440" width="8.2477417" height="3.6834106"/>
		<rect x="703.3902588" y="470.3560181" fill="#565440" width="4.6193237" height="21.8834229"/>
		<rect x="799.3063965" y="213.4046021" fill="#565440" width="8.5987549" height="4.6193848"/>
		<polygon fill="#565440" points="754.21521,457.2335205 756.4689331,457.2335205 756.4689331,484.0909424 754.21521,484.0909424 
			754.21521,492.2629395 760.7459717,492.2629395 760.7459717,484.0909424 758.4689331,484.0909424 758.4689331,457.2335205 
			760.7459717,457.2335205 760.7459717,449.0615234 754.21521,449.0615234 		"/>
		<rect x="791.5866089" y="262.1040039" fill="#565440" width="16.3185425" height="4.6193237"/>
		<rect x="791.7300415" y="365.2473145" fill="#565440" width="16.1751099" height="4.6193848"/>
		<rect x="791.7300415" y="313.1045532" fill="#565440" width="16.1751099" height="4.6193848"/>
		<rect x="786.6871338" y="420.9207153" fill="#565440" width="21.2180176" height="4.6194763"/>
		<polygon fill="#565440" points="859.0298462,489.3947754 897.6503296,489.3943481 897.6502686,487.3943481 875.0888672,487.3945923 
			875.0888672,473.8325195 880.1572266,473.8324585 880.1572266,471.8324585 850.6716919,471.8327637 850.6716919,476.5552368 
			852.6716919,476.5552368 852.6716919,473.8327637 873.0888672,473.8325195 873.0888672,487.3945923 852.6716919,487.3948975 
			852.6716919,483.0302734 850.6716919,483.0302734 850.6716919,494.1078796 852.6716919,494.1078796 852.6716919,491.0802002 
			859.0298462,491.0802002 		"/>
		<rect x="651.4456787" y="410.8051147" fill="#565440" width="4.6240234" height="21.6367798"/>
		<polygon fill="#565440" points="801.3756104,457.2335205 804.1456299,457.2335205 804.1456299,484.1463623 802.1292114,484.1463623 
			802.1292114,492.2629395 807.9051514,492.2629395 807.9051514,484.1463623 806.1456299,484.1463623 806.1456299,457.2335205 
			807.9051514,457.2335205 807.9051514,451.0769043 801.3756104,451.0769043 		"/>
		<polygon fill="#565440" points="40.5797119,52.2792282 40.5797119,52.2775803 40.6503296,52.2775803 40.6503296,42.8905563 
			38.6503296,42.8905563 38.6503296,48.5775681 32.5151978,48.5775681 32.5151978,50.2792282 2.8262939,50.2792282 
			2.8262939,52.2792282 		"/>
	</g>
</g>
<g>
	<rect data-nr="М-163" class="plan__svg__hoverable" x="223.9448242" y="360.2059937" stroke="#565440" stroke-width="1" stroke-miterlimit="10" width="19.2703247" height="44.7268677"/>
	<rect data-nr="М-162" class="plan__svg__hoverable" x="243.2151489" y="360.2059937" stroke="#565440" stroke-width="1" stroke-miterlimit="10" width="19.2703247" height="44.7268677"/>
	<rect data-nr="М-161" class="plan__svg__hoverable" x="262.4854736" y="360.2059937" stroke="#565440" stroke-width="1" stroke-miterlimit="10" width="19.2703247" height="44.7268677"/>
	<rect data-nr="М-160" class="plan__svg__hoverable" x="287.4418945" y="360.2059937" stroke="#565440" stroke-width="1" stroke-miterlimit="10" width="19.2703247" height="44.7268677"/>
	<rect data-nr="М-159" class="plan__svg__hoverable" x="306.7122192" y="360.2059937" stroke="#565440" stroke-width="1" stroke-miterlimit="10" width="19.2703247" height="44.7268677"/>
	<rect data-nr="М-158" class="plan__svg__hoverable" x="325.9825439" y="360.2059937" stroke="#565440" stroke-width="1" stroke-miterlimit="10" width="19.2703247" height="44.7268677"/>
	<rect data-nr="М-166" class="plan__svg__hoverable" x="160.4502716" y="360.2059937" stroke="#565440" stroke-width="1" stroke-miterlimit="10" width="19.2703247" height="44.7268677"/>
	<rect data-nr="М-165" class="plan__svg__hoverable" x="179.7205963" y="360.2059937" stroke="#565440" stroke-width="1" stroke-miterlimit="10" width="19.2703247" height="44.7268677"/>
	<rect data-nr="М-164" class="plan__svg__hoverable" x="198.9909058" y="360.2059937" stroke="#565440" stroke-width="1" stroke-miterlimit="10" width="19.2703247" height="44.7268677"/>
	<rect data-nr="М-169" class="plan__svg__hoverable" x="96.9536896" y="360.2059937" stroke="#565440" stroke-width="1" stroke-miterlimit="10" width="19.2703171" height="44.7268677"/>
	<rect data-nr="М-168" class="plan__svg__hoverable" x="116.2240143" y="360.2059937" stroke="#565440" stroke-width="1" stroke-miterlimit="10" width="19.2703247" height="44.7268677"/>
	<rect data-nr="М-167" class="plan__svg__hoverable" x="135.4943237" y="360.2059937" stroke="#565440" stroke-width="1" stroke-miterlimit="10" width="19.2703247" height="44.7268677"/>
	<rect data-nr="М-171" class="plan__svg__hoverable" x="45.3137131" y="360.2059937" stroke="#565440" stroke-width="1" stroke-miterlimit="10" width="22.9553223" height="44.7268677"/>
	<rect data-nr="М-170" class="plan__svg__hoverable" x="68.2690353" y="360.2059937" stroke="#565440" stroke-width="1" stroke-miterlimit="10" width="22.9553223" height="44.7268677"/>
	<rect data-nr="М-157" class="plan__svg__hoverable" x="350.8659058" y="360.2059937" stroke="#565440" stroke-width="1" stroke-miterlimit="10" width="20.335968" height="44.7268677"/>
	<rect data-nr="М-156" class="plan__svg__hoverable" x="371.2019043" y="360.2059937" stroke="#565440" stroke-width="1" stroke-miterlimit="10" width="20.335968" height="44.7268677"/>
	<rect data-nr="М-189" class="plan__svg__hoverable" x="506.5989685" y="318.0608521" stroke="#565440" stroke-width="1" stroke-miterlimit="10" width="19.6637268" height="39.722168"/>
	<rect data-nr="М-188" class="plan__svg__hoverable" x="526.2626953" y="318.0608521" stroke="#565440" stroke-width="1" stroke-miterlimit="10" width="19.6636963" height="39.722168"/>
	<g data-nr="М-192-М-193" class="plan__svg__hoverable">
		<rect data-nr="М-192" class="plan__svg__hoverable" x="461.0815735" y="318.0185547" stroke="#565440" stroke-width="1" stroke-miterlimit="10" width="19.9267883" height="39.7644653"/>
		<rect data-nr="М-193" class="plan__svg__hoverable" x="461.0815735" y="274.9003906" stroke="#565440" stroke-width="1" stroke-miterlimit="10" width="19.9267883" height="43.1181641"/>
	</g>
	<rect data-nr="М-172" class="plan__svg__hoverable" x="468.6125488" y="96.0766068" stroke="#565440" stroke-width="1" stroke-miterlimit="10" width="18.2858276" height="40.1064758"/>
	<rect data-nr="М-155" class="plan__svg__hoverable" x="344.5177002" y="275.9266663" stroke="#565440" stroke-width="1" stroke-miterlimit="10" width="20.9914856" height="39.322937"/>
	<g data-nr="М-111-М-112" class="plan__svg__hoverable">
		<rect data-nr="М-112" class="plan__svg__hoverable" x="332.0521545" y="134.3069458" stroke="#565440" stroke-width="1" stroke-miterlimit="10" width="25.0644226" height="42.4976959"/>
		<rect data-nr="М-111" class="plan__svg__hoverable" x="336.5490723" y="91.3773041" stroke="#565440" stroke-width="1" stroke-miterlimit="10" width="20.5674744" height="42.9296341"/>
	</g>
	<g data-nr="М-109-М-110" class="plan__svg__hoverable">
		<rect data-nr="М-110" class="plan__svg__hoverable" x="357.1165771" y="134.3069458" stroke="#565440" stroke-width="1" stroke-miterlimit="10" width="23.5037537" height="42.4976959"/>
		<rect data-nr="М-109" class="plan__svg__hoverable" x="357.1165771" y="91.3773041" stroke="#565440" stroke-width="1" stroke-miterlimit="10" width="23.5037537" height="42.9296341"/>
	</g>
	<rect data-nr="М-154" class="plan__svg__hoverable" x="323.5262146" y="275.9266663" stroke="#565440" stroke-width="1" stroke-miterlimit="10" width="20.9914856" height="39.322937"/>
	<rect data-nr="М-153" class="plan__svg__hoverable" x="294.7935181" y="275.9266663" stroke="#565440" stroke-width="1" stroke-miterlimit="10" width="22.1282043" height="39.322937"/>
	<rect data-nr="М-152" class="plan__svg__hoverable" x="272.6929932" y="275.9266663" stroke="#565440" stroke-width="1" stroke-miterlimit="10" width="22.1005249" height="39.322937"/>
	<rect data-nr="М-149" class="plan__svg__hoverable" x="185.6838531" y="275.9266663" stroke="#565440" stroke-width="1" stroke-miterlimit="10" width="20.5764465" height="39.322937"/>
	<rect data-nr="М-148" class="plan__svg__hoverable" x="165.1331635" y="275.9266663" stroke="#565440" stroke-width="1" stroke-miterlimit="10" width="20.550705" height="39.322937"/>
	<rect data-nr="М-147" class="plan__svg__hoverable" x="135.3013306" y="269.2498169" stroke="#565440" stroke-width="1" stroke-miterlimit="10" width="23.2822723" height="46.309845"/>
	<rect data-nr="М-151" class="plan__svg__hoverable" x="243.2237701" y="275.9266663" stroke="#565440" stroke-width="1" stroke-miterlimit="10" width="22.8181305" height="39.322937"/>
	<rect data-nr="М-150" class="plan__svg__hoverable" x="220.4341888" y="275.9266663" stroke="#565440" stroke-width="1" stroke-miterlimit="10" width="22.7895813" height="39.322937"/>
	<rect data-nr="М-145" class="plan__svg__hoverable" x="93.9394226" y="272.3805237" stroke="#565440" stroke-width="1" stroke-miterlimit="10" width="41.361908" height="18.9930801"/>
	<g data-nr="М-143-М-144" class="plan__svg__hoverable">
		<rect data-nr="М-143" class="plan__svg__hoverable" x="93.9394226" y="245.9642334" stroke="#565440" stroke-width="1" stroke-miterlimit="10" width="38.9691162" height="19.7849579"/>
		<polygon data-nr="М-144" class="plan__svg__hoverable" stroke="#565440" stroke-width="1" stroke-miterlimit="10" points="175.7114868,245.9642487 175.7114868,269.2498169 135.3013306,269.2498169 
			135.3013306,265.7492065 132.9085388,265.7492065 132.9085388,245.9642487 		"/>
	</g>
	<rect data-nr="М-142" class="plan__svg__hoverable" x="93.9394302" y="225.1735535" stroke="#565440" stroke-width="1" stroke-miterlimit="10" width="38.969101" height="20.7849579"/>
	<rect data-nr="М-146" class="plan__svg__hoverable" x="93.9394226" y="291.3707886" stroke="#565440" stroke-width="1" stroke-miterlimit="10" width="41.361908" height="18.9930801"/>
	<rect data-nr="М-173" class="plan__svg__hoverable" x="486.8983765" y="96.0766068" stroke="#565440" stroke-width="1" stroke-miterlimit="10" width="19.5186157" height="40.1064758"/>
	<rect data-nr="М-211" class="plan__svg__hoverable" x="601.6841431" y="189.5799866" stroke="#565440" stroke-width="1" stroke-miterlimit="10" width="21.7578735" height="38.1993561"/>
	<rect data-nr="М-212" class="plan__svg__hoverable" x="623.4420166" y="189.5799866" stroke="#565440" stroke-width="1" stroke-miterlimit="10" width="21.7578735" height="38.1993561"/>
	<rect data-nr="М-213" class="plan__svg__hoverable" x="653.836853" y="189.5799866" stroke="#565440" stroke-width="1" stroke-miterlimit="10" width="22.8018188" height="42.4352722"/>
	<g data-nr="М-214-М-215" class="plan__svg__hoverable">
		<rect data-nr="М-214" class="plan__svg__hoverable" x="676.6386719" y="189.5799866" stroke="#565440" stroke-width="1" stroke-miterlimit="10" width="22.4682617" height="42.4352722"/>
		<rect data-nr="М-215" class="plan__svg__hoverable" x="676.6386719" y="232.0152588" stroke="#565440" stroke-width="1" stroke-miterlimit="10" width="22.4731445" height="56.4696045"/>
	</g>
	<g data-nr="М-216-М-217" class="plan__svg__hoverable">
		<rect data-nr="М-216" class="plan__svg__hoverable" x="706.5521851" y="189.5799866" stroke="#565440" stroke-width="1" stroke-miterlimit="10" width="22.2514038" height="42.4352722"/>
		<rect data-nr="М-217" class="plan__svg__hoverable" x="706.5521851" y="232.0152588" stroke="#565440" stroke-width="1" stroke-miterlimit="10" width="22.2514038" height="56.4696045"/>
	</g>
	<g data-nr="М-218-М-219" class="plan__svg__hoverable">
		<rect data-nr="М-219" class="plan__svg__hoverable" x="728.8035889" y="189.5799866" stroke="#565440" stroke-width="1" stroke-miterlimit="10" width="22.2514038" height="42.4352722"/>
		<rect data-nr="М-218" class="plan__svg__hoverable" x="728.8035889" y="232.0152588" stroke="#565440" stroke-width="1" stroke-miterlimit="10" width="22.2514038" height="48.4534912"/>
	</g>
	<rect data-nr="М-257" class="plan__svg__hoverable" x="636.4072876" y="103.1283035" stroke="#565440" stroke-width="1" stroke-miterlimit="10" width="21.3534546" height="41.4375458"/>
	<rect data-nr="М-256" class="plan__svg__hoverable" x="657.8115234" y="97.9527054" stroke="#565440" stroke-width="1" stroke-miterlimit="10" width="19.90625" height="46.6131439"/>
	<rect data-nr="М-255" class="plan__svg__hoverable" x="677.7177734" y="97.9527054" stroke="#565440" stroke-width="1" stroke-miterlimit="10" width="19.90625" height="46.6131439"/>
	<rect data-nr="М-254" class="plan__svg__hoverable" x="703.2284546" y="97.9527054" stroke="#565440" stroke-width="1" stroke-miterlimit="10" width="22.5653687" height="46.6131439"/>
	<rect data-nr="М-253" class="plan__svg__hoverable" x="725.8474121" y="97.9527054" stroke="#565440" stroke-width="1" stroke-miterlimit="10" width="22.5653687" height="46.6131439"/>
	<g data-nr="М-190-М-191" class="plan__svg__hoverable">
		<rect data-nr="М-190" class="plan__svg__hoverable" x="481.0083923" y="318.0185547" stroke="#565440" stroke-width="1" stroke-miterlimit="10" width="19.93927" height="39.7644653"/>
		<rect data-nr="М-191" class="plan__svg__hoverable" x="481.0083923" y="274.9003906" stroke="#565440" stroke-width="1" stroke-miterlimit="10" width="19.93927" height="43.1181641"/>
	</g>
	<rect data-nr="М-196" class="plan__svg__hoverable" x="503.5421143" y="446.2241821" stroke="#565440" stroke-width="1" stroke-miterlimit="10" width="44.1894836" height="19.6569214"/>
	<rect data-nr="М-195" class="plan__svg__hoverable" x="503.5421143" y="426.5672607" stroke="#565440" stroke-width="1" stroke-miterlimit="10" width="44.1894836" height="19.6569214"/>
	<rect data-nr="М-194" class="plan__svg__hoverable" x="503.5421143" y="406.9102783" stroke="#565440" stroke-width="1" stroke-miterlimit="10" width="44.1894836" height="19.6569214"/>
	<rect data-nr="М-199" class="plan__svg__hoverable" x="503.5421143" y="512.9892578" stroke="#565440" stroke-width="1" stroke-miterlimit="10" width="44.1894836" height="21.1737671"/>
	<rect data-nr="М-198" class="plan__svg__hoverable" x="503.5421143" y="491.8155518" stroke="#565440" stroke-width="1" stroke-miterlimit="10" width="44.1894836" height="21.1737671"/>
	<rect data-nr="М-200" class="plan__svg__hoverable" x="594.8742065" y="515.1259766" stroke="#565440" stroke-width="1" stroke-miterlimit="10" width="47.4006348" height="21.887146"/>
	<rect data-nr="М-201" class="plan__svg__hoverable" x="594.8742065" y="493.2388916" stroke="#565440" stroke-width="1" stroke-miterlimit="10" width="47.4006042" height="21.887146"/>
	<rect data-nr="М-202" class="plan__svg__hoverable" x="594.8742065" y="466.6193237" stroke="#565440" stroke-width="1" stroke-miterlimit="10" width="47.4006348" height="20.1052856"/>
	<rect data-nr="М-203" class="plan__svg__hoverable" x="594.8742065" y="446.0649414" stroke="#565440" stroke-width="1" stroke-miterlimit="10" width="47.4006348" height="20.5543213"/>
	<rect data-nr="М-204" class="plan__svg__hoverable" x="594.8742065" y="425.9596558" stroke="#565440" stroke-width="1" stroke-miterlimit="10" width="47.4006348" height="20.1052856"/>
	<rect data-nr="М-205" class="plan__svg__hoverable" x="594.8742065" y="389.0099487" stroke="#565440" stroke-width="1" stroke-miterlimit="10" width="39.8644104" height="21.9091797"/>
	<rect data-nr="М-206" class="plan__svg__hoverable" x="594.8741455" y="366.6114502" stroke="#565440" stroke-width="1" stroke-miterlimit="10" width="39.8644104" height="22.3984985"/>
	<rect data-nr="М-207" class="plan__svg__hoverable" x="594.8741455" y="338.0772095" stroke="#565440" stroke-width="1" stroke-miterlimit="10" width="39.8644104" height="21.9091797"/>
	<rect data-nr="М-208" class="plan__svg__hoverable" x="594.8741455" y="315.6787109" stroke="#565440" stroke-width="1" stroke-miterlimit="10" width="39.8644104" height="22.3984985"/>
	<rect data-nr="М-209" class="plan__svg__hoverable" x="594.8657837" y="287.5980835" stroke="#565440" stroke-width="1" stroke-miterlimit="10" width="44.2955627" height="20.5201416"/>
	<rect data-nr="М-210" class="plan__svg__hoverable" x="594.8657837" y="266.6196899" stroke="#565440" stroke-width="1" stroke-miterlimit="10" width="44.2955627" height="20.9784546"/>
	<rect data-nr="М-197" class="plan__svg__hoverable" x="503.5421143" y="470.6417236" stroke="#565440" stroke-width="1" stroke-miterlimit="10" width="44.1894836" height="21.1737671"/>
	<g data-nr="М-185-М-186" class="plan__svg__hoverable">
		<rect data-nr="М-186" class="plan__svg__hoverable" x="468.5622559" y="253.7008362" stroke="#565440" stroke-width="1" stroke-miterlimit="10" width="40.7884521" height="21.1995544"/>
		<rect data-nr="М-185" class="plan__svg__hoverable" x="509.350708" y="253.7008514" stroke="#565440" stroke-width="1" stroke-miterlimit="10" width="40.786438" height="21.1995392"/>
	</g>
	<rect data-nr="М-187" class="plan__svg__hoverable" x="500.9476624" y="274.899231" stroke="#565440" stroke-width="1" stroke-miterlimit="10" width="49.1894226" height="22.3572998"/>
	<g data-nr="М-183-М-184" class="plan__svg__hoverable">
		<rect data-nr="М-184" class="plan__svg__hoverable" x="468.5622559" y="227.2591858" stroke="#565440" stroke-width="1" stroke-miterlimit="10" width="40.7884369" height="20.7754517"/>
		<rect data-nr="М-183" class="plan__svg__hoverable" x="509.3506775" y="227.255249" stroke="#565440" stroke-width="1" stroke-miterlimit="10" width="40.786438" height="20.7754517"/>
	</g>
	<g data-nr="М-181-М-182" class="plan__svg__hoverable">
		<rect data-nr="М-182" class="plan__svg__hoverable" x="468.5661621" y="206.4837341" stroke="#565440" stroke-width="1" stroke-miterlimit="10" width="40.7884521" height="20.7754517"/>
		<rect data-nr="М-181" class="plan__svg__hoverable" x="509.3546143" y="206.4797974" stroke="#565440" stroke-width="1" stroke-miterlimit="10" width="40.782486" height="20.7754517"/>
	</g>
	<g data-nr="М-179-М-180" class="plan__svg__hoverable">
		<rect data-nr="М-76" class="plan__svg__hoverable" x="468.5622559" y="181.4744873" stroke="#565440" stroke-width="1" stroke-miterlimit="10" width="40.7884521" height="19.3352356"/>
		<rect data-nr="М-75" class="plan__svg__hoverable" x="509.350708" y="181.47052" stroke="#565440" stroke-width="1" stroke-miterlimit="10" width="40.7864227" height="19.3352661"/>
	</g>
	<g data-nr="М-177-М-178" class="plan__svg__hoverable">
		<rect data-nr="М-177" class="plan__svg__hoverable" x="468.5622559" y="162.1391907" stroke="#565440" stroke-width="1" stroke-miterlimit="10" width="40.7884521" height="19.3352966"/>
		<rect data-nr="М-178" class="plan__svg__hoverable" x="509.350708" y="162.1353149" stroke="#565440" stroke-width="1" stroke-miterlimit="10" width="40.7864075" height="19.3352661"/>
	</g>
	<g data-nr="М-175-М-176" class="plan__svg__hoverable">
		<rect data-nr="М-176" class="plan__svg__hoverable" x="468.5622559" y="142.8038635" stroke="#565440" stroke-width="1" stroke-miterlimit="10" width="40.7884521" height="19.3352966"/>
		<rect data-nr="М-175" class="plan__svg__hoverable" x="509.350708" y="142.7999878" stroke="#565440" stroke-width="1" stroke-miterlimit="10" width="40.7864075" height="19.3352661"/>
	</g>
	<rect data-nr="М-174" class="plan__svg__hoverable" x="506.4169922" y="115.2984543" stroke="#565440" stroke-width="1" stroke-miterlimit="10" width="43.7201233" height="20.8807373"/>
	<rect data-nr="М-258" class="plan__svg__hoverable" x="594.4020386" y="122.0761795" stroke="#565440" stroke-width="1" stroke-miterlimit="10" width="42.0050278" height="18.9354858"/>
	<polygon data-nr="М-259" class="plan__svg__hoverable" stroke="#565440" stroke-width="1" stroke-miterlimit="10" points="636.4072876,103.1283188 636.4069214,122.0639801 594.4020996,122.071846 
		594.4020996,103.1283188 	"/>
	<polygon data-nr="М-260" class="plan__svg__hoverable" stroke="#565440" stroke-width="1" stroke-miterlimit="10" points="640.6243286,81.1947708 640.6239624,103.1283035 594.4020996,103.1283035 
		594.4020996,81.2026367 	"/>
	<rect data-nr="М-133" class="plan__svg__hoverable" x="95.1706161" y="1.9788225" stroke="#565440" stroke-width="1" stroke-miterlimit="10" width="19.2722549" height="44.5883789"/>
	<rect data-nr="М-132" class="plan__svg__hoverable" x="114.4428787" y="1.9788225" stroke="#565440" stroke-width="1" stroke-miterlimit="10" width="19.2722549" height="44.5883789"/>
	<rect data-nr="М-135" class="plan__svg__hoverable" x="50.9470901" y="1.9788225" stroke="#565440" stroke-width="1" stroke-miterlimit="10" width="19.2722549" height="44.5883789"/>
	<rect data-nr="М-134" class="plan__svg__hoverable" x="70.2193451" y="1.9788225" stroke="#565440" stroke-width="1" stroke-miterlimit="10" width="19.2722626" height="44.5883789"/>
	<rect data-nr="М-122-М-123" class="plan__svg__hoverable" x="103.2341156" y="91.3773041" stroke="#565440" stroke-width="1" stroke-miterlimit="10" width="20.9315338" height="38.4511032"/>
	<rect data-nr="М-121" class="plan__svg__hoverable" x="135.815979" y="91.3773041" stroke="#565440" stroke-width="1" stroke-miterlimit="10" width="20.9315338" height="38.4511032"/>
	<rect data-nr="М-120" class="plan__svg__hoverable" x="156.7475128" y="91.3773041" stroke="#565440" stroke-width="1" stroke-miterlimit="10" width="20.9315338" height="38.4511032"/>
	<rect data-nr="М-119" class="plan__svg__hoverable" x="184.5075684" y="91.3773041" stroke="#565440" stroke-width="1" stroke-miterlimit="10" width="20.9315338" height="38.4511032"/>
	<rect data-nr="М-118" class="plan__svg__hoverable" x="205.4391022" y="91.3773041" stroke="#565440" stroke-width="1" stroke-miterlimit="10" width="20.9315338" height="38.4511032"/>
	<rect data-nr="М-117" class="plan__svg__hoverable" x="233.1991577" y="91.3773041" stroke="#565440" stroke-width="1" stroke-miterlimit="10" width="20.9315338" height="38.4511032"/>
	<rect data-nr="М-116" class="plan__svg__hoverable" x="254.1306915" y="91.3773041" stroke="#565440" stroke-width="1" stroke-miterlimit="10" width="20.9315338" height="38.4511032"/>
	<g data-nr="М-114-М-115" class="plan__svg__hoverable">
		<rect data-nr="М-114" class="plan__svg__hoverable" x="281.8858948" y="91.3773041" stroke="#565440" stroke-width="1" stroke-miterlimit="10" width="20.0484314" height="42.9296341"/>
		<rect data-nr="М-115" class="plan__svg__hoverable" x="281.8858948" y="134.3069458" stroke="#565440" stroke-width="1" stroke-miterlimit="10" width="20.0484314" height="39.3147583"/>
	</g>
	<rect data-nr="М-113" class="plan__svg__hoverable" x="302.0116577" y="91.3773041" stroke="#565440" stroke-width="1" stroke-miterlimit="10" width="21.598175" height="42.9296341"/>
	<rect data-nr="М-122-М-123" class="plan__svg__hoverable" x="97.4630432" y="129.8284149" stroke="#565440" stroke-width="1" stroke-miterlimit="10" width="31.1075134" height="41.1717834"/>
	<rect data-nr="М-137" class="plan__svg__hoverable" x="2.0420723" y="72.5235748" stroke="#565440" stroke-width="1" stroke-miterlimit="10" width="46.2999535" height="19.2439232"/>
	<rect data-nr="М-138" class="plan__svg__hoverable" x="2.0420761" y="91.7675018" stroke="#565440" stroke-width="1" stroke-miterlimit="10" width="46.2999496" height="19.2439232"/>
	<rect data-nr="М-136" class="plan__svg__hoverable" x="2.0420723" y="51.2959404" stroke="#565440" stroke-width="1" stroke-miterlimit="10" width="46.2999535" height="21.2276382"/>
	<rect data-nr="М-140" class="plan__svg__hoverable" x="2.0420685" y="136.7177124" stroke="#565440" stroke-width="1" stroke-miterlimit="10" width="46.2999649" height="20.0211086"/>
	<rect data-nr="М-141" class="plan__svg__hoverable" x="2.0420685" y="229.4309235" stroke="#565440" stroke-width="1" stroke-miterlimit="10" width="46.2999573" height="23.89711"/>
	<rect data-nr="М-139" class="plan__svg__hoverable" x="2.0420609" y="116.6944733" stroke="#565440" stroke-width="1" stroke-miterlimit="10" width="46.2999573" height="20.023243"/>
	<rect data-nr="М-131" class="plan__svg__hoverable" x="133.7151337" y="1.9788225" stroke="#565440" stroke-width="1" stroke-miterlimit="10" width="19.2722626" height="44.5883789"/>
	<rect data-nr="М-130" class="plan__svg__hoverable" x="158.6748505" y="1.9788225" stroke="#565440" stroke-width="1" stroke-miterlimit="10" width="19.2722626" height="44.5883789"/>
	<rect data-nr="М-129" class="plan__svg__hoverable" x="177.9470978" y="1.9788225" stroke="#565440" stroke-width="1" stroke-miterlimit="10" width="19.2722626" height="44.5883789"/>
	<rect data-nr="М-128" class="plan__svg__hoverable" x="197.2193604" y="1.9788225" stroke="#565440" stroke-width="1" stroke-miterlimit="10" width="19.2722626" height="44.5883789"/>
	<rect data-nr="М-127" class="plan__svg__hoverable" x="222.1637726" y="1.9788225" stroke="#565440" stroke-width="1" stroke-miterlimit="10" width="19.2722626" height="44.5883789"/>
	<rect data-nr="М-126" class="plan__svg__hoverable" x="241.4360199" y="1.9788225" stroke="#565440" stroke-width="1" stroke-miterlimit="10" width="19.2722626" height="44.5883789"/>
	<rect data-nr="М-125" class="plan__svg__hoverable" x="260.7082825" y="1.9788225" stroke="#565440" stroke-width="1" stroke-miterlimit="10" width="19.2722473" height="44.5883789"/>
	<polygon data-nr="М-124" class="plan__svg__hoverable" stroke="#565440" stroke-width="1" stroke-miterlimit="10" points="306.8159485,46.5671997 285.6653442,46.5671997 285.6653442,2.0707388 
		306.8159485,3.4373031 	"/>
	<rect data-nr="М-250" class="plan__svg__hoverable" x="851.6716919" y="193.3949585" stroke="#565440" stroke-width="1" stroke-miterlimit="10" width="46.3446045" height="19.6194611"/>
	<rect data-nr="М-249" class="plan__svg__hoverable" x="851.6716919" y="213.0144196" stroke="#565440" stroke-width="1" stroke-miterlimit="10" width="46.3446045" height="19.6194611"/>
	<rect data-nr="М-248" class="plan__svg__hoverable" x="851.6716919" y="238.3139038" stroke="#565440" stroke-width="1" stroke-miterlimit="10" width="46.3446045" height="19.2714539"/>
	<rect data-nr="М-247" class="plan__svg__hoverable" x="851.6716919" y="257.5853882" stroke="#565440" stroke-width="1" stroke-miterlimit="10" width="46.3446045" height="19.2714539"/>
	<rect data-nr="М-246" class="plan__svg__hoverable" x="851.6716919" y="276.856842" stroke="#565440" stroke-width="1" stroke-miterlimit="10" width="46.3446045" height="19.2714539"/>
	<rect data-nr="М-245" class="plan__svg__hoverable" x="851.6716919" y="301.8117065" stroke="#565440" stroke-width="1" stroke-miterlimit="10" width="46.3446045" height="19.2714539"/>
	<rect data-nr="М-244" class="plan__svg__hoverable" x="851.6716919" y="321.0831604" stroke="#565440" stroke-width="1" stroke-miterlimit="10" width="46.3446045" height="19.2714539"/>
	<rect data-nr="М-243" class="plan__svg__hoverable" x="851.6716919" y="340.3546448" stroke="#565440" stroke-width="1" stroke-miterlimit="10" width="46.3446045" height="19.2714539"/>
	<rect data-nr="М-242" class="plan__svg__hoverable" x="851.6716919" y="365.306488" stroke="#565440" stroke-width="1" stroke-miterlimit="10" width="46.3446045" height="19.2714539"/>
	<rect data-nr="М-241" class="plan__svg__hoverable" x="851.6716919" y="384.5779419" stroke="#565440" stroke-width="1" stroke-miterlimit="10" width="46.3446045" height="19.2714539"/>
	<rect data-nr="М-240" class="plan__svg__hoverable" x="851.6716919" y="403.8493958" stroke="#565440" stroke-width="1" stroke-miterlimit="10" width="46.3446045" height="19.2714539"/>
	<rect data-nr="М-251" class="plan__svg__hoverable" x="851.6716919" y="165.26474" stroke="#565440" stroke-width="1" stroke-miterlimit="10" width="46.3446045" height="22.4440308"/>
	<rect data-nr="М-252" class="plan__svg__hoverable" x="851.6716919" y="142.8207092" stroke="#565440" stroke-width="1" stroke-miterlimit="10" width="46.3446045" height="22.4440308"/>
	<rect data-nr="М-238" class="plan__svg__hoverable" x="851.6716919" y="447.4395752" stroke="#565440" stroke-width="1" stroke-miterlimit="10" width="46.3446045" height="18.6369934"/>
	<rect data-nr="М-239" class="plan__svg__hoverable" x="851.6716919" y="428.8025818" stroke="#565440" stroke-width="1" stroke-miterlimit="10" width="46.3446045" height="18.6369934"/>
	<rect data-nr="М-220" class="plan__svg__hoverable" x="767.4345093" y="219.0321045" stroke="#565440" stroke-width="1" stroke-miterlimit="10" width="39.4611816" height="21.0337982"/>
	<rect data-nr="М-221" class="plan__svg__hoverable" x="767.4345093" y="240.0659027" stroke="#565440" stroke-width="1" stroke-miterlimit="10" width="39.4611816" height="21.0337982"/>
	<rect data-nr="М-222" class="plan__svg__hoverable" x="767.4345093" y="267.7683105" stroke="#565440" stroke-width="1" stroke-miterlimit="10" width="39.4611816" height="21.997467"/>
	<rect data-nr="М-223" class="plan__svg__hoverable" x="767.4345093" y="289.7657471" stroke="#565440" stroke-width="1" stroke-miterlimit="10" width="39.4611816" height="21.997467"/>
	<rect data-nr="М-224" class="plan__svg__hoverable" x="767.4345093" y="318.7661743" stroke="#565440" stroke-width="1" stroke-miterlimit="10" width="39.4611816" height="22.7536011"/>
	<rect data-nr="М-225" class="plan__svg__hoverable" x="767.4345093" y="341.5197449" stroke="#565440" stroke-width="1" stroke-miterlimit="10" width="39.4611816" height="22.7536011"/>
	<rect data-nr="М-226" class="plan__svg__hoverable" x="767.4345093" y="370.7330322" stroke="#565440" stroke-width="1" stroke-miterlimit="10" width="39.4611816" height="19.2234192"/>
	<rect data-nr="М-227" class="plan__svg__hoverable" x="767.4345093" y="389.9564514" stroke="#565440" stroke-width="1" stroke-miterlimit="10" width="39.4611816" height="19.2234192"/>
	<rect data-nr="М-228" class="plan__svg__hoverable" x="767.4345093" y="426.5500183" stroke="#565440" stroke-width="1" stroke-miterlimit="10" width="39.4611816" height="23.5238037"/>
	<rect data-nr="М-229" class="plan__svg__hoverable" x="726.2454224" y="426.5500183" stroke="#565440" stroke-width="1" stroke-miterlimit="10" width="41.1890869" height="17.3397522"/>
	<rect data-nr="М-231" class="plan__svg__hoverable" x="761.7459717" y="450.0738525" stroke="#565440" stroke-width="1" stroke-miterlimit="10" width="19.3148193" height="41.1890869"/>
	<rect data-nr="М-232" class="plan__svg__hoverable" x="734.6748657" y="450.0737915" stroke="#565440" stroke-width="1" stroke-miterlimit="10" width="18.5577393" height="41.1890869"/>
	<rect data-nr="М-233" class="plan__svg__hoverable" x="708.9962769" y="450.0737915" stroke="#565440" stroke-width="1" stroke-miterlimit="10" width="18.5577393" height="41.1890869"/>
	<rect data-nr="М-230" class="plan__svg__hoverable" x="781.060791" y="450.0738525" stroke="#565440" stroke-width="1" stroke-miterlimit="10" width="19.3148193" height="41.1890869"/>
	<g data-nr="М-234" class="plan__svg__hoverable">
		<rect data-nr="М-234" class="plan__svg__hoverable" x="680.7348633" y="452.4112244" stroke="#565440" stroke-width="1" stroke-miterlimit="10" width="21.6494751" height="38.7975464"/>
		<rect data-nr="М-235" class="plan__svg__hoverable" x="680.6012573" y="411.8075867" stroke="#565440" stroke-width="1" stroke-miterlimit="10" width="20.3287964" height="40.5569458"/>
	</g>
	<g data-nr="М-236-М-237" class="plan__svg__hoverable">
		<rect data-nr="М-237" class="plan__svg__hoverable" x="659.0853882" y="452.4112244" stroke="#565440" stroke-width="1" stroke-miterlimit="10" width="21.6494751" height="38.7975464"/>
		<rect data-nr="М-236" class="plan__svg__hoverable" x="657.0698242" y="411.8075867" stroke="#565440" stroke-width="1" stroke-miterlimit="10" width="23.5314331" height="40.5569458"/>
	</g>
</g>
<g>
	<rect data-nr="К067" class="plan__svg__hoverable" x="1.9832549" y="17.5410461" stroke="#565440" stroke-width="1" stroke-miterlimit="10" width="37.6670494" height="15.5660706"/>
	<rect data-nr="К068" class="plan__svg__hoverable" x="1.9832554" y="33.1071167" stroke="#565440" stroke-width="1" stroke-miterlimit="10" width="37.6670456" height="18.1881981"/>
	<rect data-nr="К066" class="plan__svg__hoverable" x="1.9832554" y="1.9749765" stroke="#565440" stroke-width="1" stroke-miterlimit="10" width="37.6670494" height="15.5660706"/>
	<polygon data-nr="К105" class="plan__svg__hoverable" stroke="#565440" stroke-width="1" stroke-miterlimit="10" points="510.8994141,96.0796967 510.9501953,96.0796967 542.7314453,104.5474701 542.7314453,115.2916107 510.8994141,115.2935638"/>
	<rect data-nr="К103" class="plan__svg__hoverable" x="500.9476624" y="297.2565613" stroke="#565440" stroke-width="1" stroke-miterlimit="10" width="24.5889587" height="14.3875427"/>
	<rect data-nr="К104" class="plan__svg__hoverable" x="525.5366211" y="297.2565613" stroke="#565440" stroke-width="1" stroke-miterlimit="10" width="24.6005249" height="14.3875427"/>
	<polygon data-nr="К109" class="plan__svg__hoverable" stroke="#565440" stroke-width="1" stroke-miterlimit="10" points="650.4578857,330.0452271 650.4578857,309.0386963 641.1489258,309.0386963 
		641.1489258,338.0874634 655.0650024,338.0874634 655.0650024,330.0452271 	"/>
	<rect data-nr="К110" class="plan__svg__hoverable" x="641.1489258" y="338.0874634" stroke="#565440" stroke-width="1" stroke-miterlimit="10" width="13.9160767" height="22.1963196"/>
	<rect data-nr="К111" class="plan__svg__hoverable" x="641.1489258" y="360.283783" stroke="#565440" stroke-width="1" stroke-miterlimit="10" width="9.2994385" height="19.9291992"/>
	<rect data-nr="К112" class="plan__svg__hoverable" x="641.1489258" y="380.2130127" stroke="#565440" stroke-width="1" stroke-miterlimit="10" width="13.9160767" height="19.5843506"/>
	<rect data-nr="К113" class="plan__svg__hoverable" x="673.4331055" y="392.805542" stroke="#565440" stroke-width="1" stroke-miterlimit="10" width="28.9573975" height="19.0020752"/>
	<polygon data-nr="К117" class="plan__svg__hoverable" stroke="#565440" stroke-width="1" stroke-miterlimit="10" points="731.2697144,402.895752 734.4262085,402.895752 734.4262085,392.810791 
		709.0084229,392.810791 709.0084229,407.6541748 731.2697144,407.6541748 	"/>
	<rect data-nr="К115" class="plan__svg__hoverable" x="709.0084229" y="407.6541748" stroke="#565440" stroke-width="1" stroke-miterlimit="10" width="22.2612915" height="15.067627"/>
	<polygon data-nr="К114" class="plan__svg__hoverable" stroke="#565440" stroke-width="1" stroke-miterlimit="10" points="709.0084229,422.7218018 709.0084229,426.7415771 700.9300537,426.7415771 
		700.9300537,445.8779907 719.4683838,445.8779907 719.4683838,422.7218018 	"/>
	<rect data-nr="К116" class="plan__svg__hoverable" x="737.8846436" y="404.8953247" stroke="#565440" stroke-width="1" stroke-miterlimit="10" width="18.8760986" height="17.649353"/>
	<rect data-nr="К118" class="plan__svg__hoverable" x="745.434082" y="370.2928772" stroke="#565440" stroke-width="1" stroke-miterlimit="10" width="14.998291" height="22.567627"/>
	<rect data-nr="К119" class="plan__svg__hoverable" x="745.434082" y="334.6123962" stroke="#565440" stroke-width="1" stroke-miterlimit="10" width="14.998291" height="15.6112061"/>
	<rect data-nr="К120" class="plan__svg__hoverable" x="745.434082" y="319.0011902" stroke="#565440" stroke-width="1" stroke-miterlimit="10" width="14.998291" height="15.6112061"/>
	<rect data-nr="К121" class="plan__svg__hoverable" x="745.0859985" y="280.46875" stroke="#565440" stroke-width="1" stroke-miterlimit="10" width="15.1655273" height="18.238739"/>
	<rect data-nr="К122" class="plan__svg__hoverable" x="756.7706299" y="193.251297" stroke="#565440" stroke-width="1" stroke-miterlimit="10" width="15.730835" height="15.6593323"/>
	<rect data-nr="К123" class="plan__svg__hoverable" x="772.5014648" y="193.251297" stroke="#565440" stroke-width="1" stroke-miterlimit="10" width="17.4417725" height="15.6593323"/>
	<rect data-nr="К124" class="plan__svg__hoverable" x="789.9498901" y="191.5523529" stroke="#565440" stroke-width="1" stroke-miterlimit="10" width="17.2121582" height="12.3434296"/>
	<rect data-nr="К126" class="plan__svg__hoverable" x="874.0888672" y="472.8326111" stroke="#565440" stroke-width="1" stroke-miterlimit="10" width="23.9266968" height="15.5619507"/>
	<rect data-nr="К125" class="plan__svg__hoverable" x="851.6716919" y="472.8326111" stroke="#565440" stroke-width="1" stroke-miterlimit="10" width="22.4171753" height="15.5619507"/>
	<rect data-nr="К095" class="plan__svg__hoverable" x="195.0214996" y="248.9307861" stroke="#565440" stroke-width="1" stroke-miterlimit="10" width="19.3100128" height="20.3130341"/>
	<rect data-nr="К094" class="plan__svg__hoverable" x="175.7114868" y="248.9307861" stroke="#565440" stroke-width="1" stroke-miterlimit="10" width="19.3100128" height="20.3130341"/>
	<rect data-nr="К069" class="plan__svg__hoverable" x="22.0883636" y="253.328064" stroke="#565440" stroke-width="1" stroke-miterlimit="10" width="23.2046051" height="20.6553879"/>
	<rect data-nr="К100" class="plan__svg__hoverable" x="214.3314819" y="258.1359253" stroke="#565440" stroke-width="1" stroke-miterlimit="10" width="20.0734253" height="11.1078491"/>
	<rect data-nr="К101" class="plan__svg__hoverable" x="265.7577515" y="258.1359253" stroke="#565440" stroke-width="1" stroke-miterlimit="10" width="19.890564" height="11.1078491"/>
	<rect data-nr="К102" class="plan__svg__hoverable" x="317.0102844" y="258.1359253" stroke="#565440" stroke-width="1" stroke-miterlimit="10" width="19.890564" height="11.1078491"/>
	<rect data-nr="К096" class="plan__svg__hoverable" x="234.4049072" y="248.9307861" stroke="#565440" stroke-width="1" stroke-miterlimit="10" width="15.4989471" height="20.3130188"/>
	<rect data-nr="К097" class="plan__svg__hoverable" x="249.9038544" y="248.9307709" stroke="#565440" stroke-width="1" stroke-miterlimit="10" width="15.8630219" height="20.3130341"/>
	<rect data-nr="К098" class="plan__svg__hoverable" x="285.6483459" y="248.9307861" stroke="#565440" stroke-width="1" stroke-miterlimit="10" width="15.4989471" height="20.3130188"/>
	<rect data-nr="К099" class="plan__svg__hoverable" x="301.1472778" y="248.9307709" stroke="#565440" stroke-width="1" stroke-miterlimit="10" width="15.8630066" height="20.3130341"/>
	<rect data-nr="К093" class="plan__svg__hoverable" x="296.2362061" y="208.2350616" stroke="#565440" stroke-width="1" stroke-miterlimit="10" width="18.8834229" height="28.2576752"/>
	<rect data-nr="К092" class="plan__svg__hoverable" x="315.1196289" y="208.2350616" stroke="#565440" stroke-width="1" stroke-miterlimit="10" width="16.9325256" height="25.9189148"/>
	<rect data-nr="К091" class="plan__svg__hoverable" x="332.0521545" y="210.728714" stroke="#565440" stroke-width="1" stroke-miterlimit="10" width="17.6595154" height="23.4252472"/>
	<rect data-nr="К090" class="plan__svg__hoverable" x="332.0521545" y="186.2870026" stroke="#565440" stroke-width="1" stroke-miterlimit="10" width="17.6595154" height="24.4417114"/>
	<rect data-nr="К080" class="plan__svg__hoverable" x="128.5737762" y="134.3069458" stroke="#565440" stroke-width="1" stroke-miterlimit="10" width="13.6961517" height="18.5107117"/>
	<rect data-nr="К081" class="plan__svg__hoverable" x="154.8159485" y="137.7670593" stroke="#565440" stroke-width="1" stroke-miterlimit="10" width="14.6061096" height="21.6430664"/>
	<rect data-nr="К082" class="plan__svg__hoverable" x="169.4220581" y="137.7670593" stroke="#565440" stroke-width="1" stroke-miterlimit="10" width="14.6061096" height="21.6430664"/>
	<polygon data-nr="К083" class="plan__svg__hoverable" stroke="#565440" stroke-width="1" stroke-miterlimit="10" points="193.0045471,154.4208374 207.1751099,154.4208374 207.1751099,137.7670898 
		184.0281372,137.7670898 184.0281372,159.4101562 193.0045471,159.4101562 	"/>
	<rect data-nr="К085" class="plan__svg__hoverable" x="207.1751251" y="137.7670593" stroke="#565440" stroke-width="1" stroke-miterlimit="10" width="23.1469574" height="16.6537781"/>
	<rect data-nr="К079" class="plan__svg__hoverable" x="128.5737762" y="152.8176575" stroke="#565440" stroke-width="1" stroke-miterlimit="10" width="13.6961517" height="18.1787109"/>
	<rect data-nr="К070" class="plan__svg__hoverable" x="97.4698715" y="178.6485596" stroke="#565440" stroke-width="1" stroke-miterlimit="10" width="22.1381226" height="14.950119"/>
	<rect data-nr="К071" class="plan__svg__hoverable" x="119.6079941" y="178.6485596" stroke="#565440" stroke-width="1" stroke-miterlimit="10" width="22.1381302" height="14.950119"/>
	<rect data-nr="К073" class="plan__svg__hoverable" x="97.4698715" y="193.602005" stroke="#565440" stroke-width="1" stroke-miterlimit="10" width="22.1381226" height="14.950119"/>
	<rect data-nr="К072" class="plan__svg__hoverable" x="119.6079941" y="193.602005" stroke="#565440" stroke-width="1" stroke-miterlimit="10" width="22.1381302" height="14.950119"/>
	<rect data-nr="К075" class="plan__svg__hoverable" x="154.8181" y="191.9122772" stroke="#565440" stroke-width="1" stroke-miterlimit="10" width="9.9929504" height="16.6365814"/>
	<rect data-nr="К074" class="plan__svg__hoverable" x="132.9085388" y="220.5542603" stroke="#565440" stroke-width="1" stroke-miterlimit="10" width="17.7478943" height="19.7944794"/>
	<rect data-nr="К076" class="plan__svg__hoverable" x="154.8181" y="175.6116333" stroke="#565440" stroke-width="1" stroke-miterlimit="10" width="9.9929504" height="16.3006439"/>
	<rect data-nr="К077" class="plan__svg__hoverable" x="164.8146973" y="175.6116333" stroke="#565440" stroke-width="1" stroke-miterlimit="10" width="14.546814" height="29.0362701"/>
	<rect data-nr="К078" class="plan__svg__hoverable" x="179.3615112" y="175.6116333" stroke="#565440" stroke-width="1" stroke-miterlimit="10" width="14.546814" height="29.0362701"/>
	<rect data-nr="К088" class="plan__svg__hoverable" x="296.2362061" y="186.2870026" stroke="#565440" stroke-width="1" stroke-miterlimit="10" width="18.8834229" height="15.3361359"/>
	<rect data-nr="К089" class="plan__svg__hoverable" x="315.1196289" y="186.2870026" stroke="#565440" stroke-width="1" stroke-miterlimit="10" width="16.9272766" height="15.3361359"/>
	<rect data-nr="К086" class="plan__svg__hoverable" x="310.631897" y="134.3069458" stroke="#565440" stroke-width="1" stroke-miterlimit="10" width="21.4202576" height="21.291214"/>
	<rect data-nr="К087" class="plan__svg__hoverable" x="310.631897" y="155.5981598" stroke="#565440" stroke-width="1" stroke-miterlimit="10" width="16.8107605" height="18.0304718"/>
	<polygon data-nr="К106" class="plan__svg__hoverable" stroke="#565440" stroke-width="1" stroke-miterlimit="10" points="595.0195923,232.0152588 595.0195923,251.2167969 616.0385132,251.2167969 
		616.0385132,255.6834717 625.6104736,255.6834717 625.6104736,232.0152588 	"/>
	<polygon data-nr="К107" class="plan__svg__hoverable" stroke="#565440" stroke-width="1" stroke-miterlimit="10" points="645.1970825,239.8828278 649.8805542,239.8828278 649.8805542,232.0152588 
		625.6104736,232.0152588 625.6104736,255.6834717 645.1970825,255.6834717 	"/>
	<polygon data-nr="К108" class="plan__svg__hoverable" stroke="#565440" stroke-width="1" stroke-miterlimit="10" points="672.0216675,255.6834717 672.0216675,250.6313019 676.6386719,250.6313019 
		676.6386719,232.0152588 649.8805542,232.0152588 649.8805542,239.8828125 653.8331299,239.8828125 653.8331299,255.6834717 	"/>
</g>
<g>
	<path fill="none" stroke="#2C2926" stroke-width="0.3" stroke-dasharray="3,3" d="M671.1043091,515.6505127h159.2976685v-37.9575195v-310.5H573.8439941
		 M573.8439941,167.1929932V69.9479828H367.0960083 M573.8439941,167.1929932v343.7642517 M573.8439941,381.4719849H423.730011
		v-43.3329773H70.9628983v-268.19104h296.1331177"/>
	<g>
		<path fill="#565440" d="M162.2969971,75.6251144c-0.1959839-0.1953125-0.5119629-0.1953125-0.7080078,0
			c-0.1950073,0.1952515-0.1950073,0.5119019,0,0.7070923l2.3289185,2.3283691h-9.7098999v1h9.7098999l-2.3289185,2.3284912
			c-0.1950073,0.1952515-0.1950073,0.5118408,0,0.7070923c0.1960449,0.1952515,0.5120239,0.1952515,0.7080078,0l3.1820068-3.1819458
			c0.1950073-0.1953125,0.1950073-0.5118408,0-0.7071533L162.2969971,75.6251144z"/>
		<path fill="#565440" d="M342.40802,81.9890671c-0.1950073,0.1952515-0.1950073,0.5118408,0,0.7070923
			c0.1959839,0.1952515,0.5120239,0.1952515,0.7069702,0l3.1820068-3.1819458c0.1960449-0.1953125,0.1960449-0.5118408,0-0.7071533
			l-3.1820068-3.1819458c-0.1949463-0.1953125-0.5109863-0.1953125-0.7069702,0
			c-0.1950073,0.1952515-0.1950073,0.5119019,0,0.7070923l2.3288574,2.3283691h-9.7108765v1h9.7109375L342.40802,81.9890671z"/>
		<path fill="#565440" d="M530.0750122,75.6251144c-0.1950073-0.1953125-0.5109863-0.1953125-0.7070312,0
			c-0.1950073,0.1952515-0.1950073,0.5119019,0,0.7070923l2.3289185,2.3283691h-9.7098999v1h9.7098999l-2.3289185,2.3284912
			c-0.1950073,0.1952515-0.1950073,0.5118408,0,0.7070923c0.1960449,0.1952515,0.5120239,0.1952515,0.7070312,0l3.1820068-3.1819458
			c0.1959839-0.1953125,0.1959839-0.5118408,0-0.7071533L530.0750122,75.6251144z"/>
		<path fill="#565440" d="M598.309021,172.5280151c-0.1950073-0.1950073-0.5120239-0.1950073-0.7070312,0
			c-0.1959839,0.1959839-0.1959839,0.5119629,0,0.7079468l2.3280029,2.3280029h-9.710022v1h9.710022l-2.3280029,2.3280029
			c-0.1959839,0.1960449-0.1959839,0.5120239,0,0.7070312c0.1950073,0.1959839,0.5120239,0.1959839,0.7070312,0l3.1820068-3.1810303
			c0.1949463-0.1959839,0.1949463-0.5119629,0-0.7079468L598.309021,172.5280151z"/>
		<path fill="#565440" d="M723.1760254,172.5280151c-0.1950073-0.1950073-0.5120239-0.1950073-0.7070312,0
			c-0.1950073,0.1959839-0.1950073,0.5119629,0,0.7079468l2.3280029,2.3280029h-9.710022v1h9.710022l-2.3280029,2.3280029
			c-0.1950073,0.1960449-0.1950073,0.5120239,0,0.7070312c0.1950073,0.1959839,0.5120239,0.1959839,0.7070312,0l3.1819458-3.1810303
			c0.1950073-0.1959839,0.1950073-0.5119629,0-0.7079468L723.1760254,172.5280151z"/>
		<path fill="#565440" d="M567.802002,120.6649704l-2.3280029,2.3280029v-9.7119751h-1v9.7121582l-2.3289795-2.328186
			c-0.1950073-0.1959839-0.5120239-0.1959839-0.7070312,0c-0.1950073,0.1950073-0.1950073,0.5120239,0,0.7070312
			l3.1820068,3.1820068c0.1950073,0.1950073,0.5120239,0.1950073,0.7070312,0l3.1819458-3.1820068
			c0.1950073-0.1950073,0.1950073-0.5120239,0-0.7070312C568.3140259,120.4689865,567.9970093,120.4689865,567.802002,120.6649704z"
			/>
		<path fill="#565440" d="M567.802002,266.0199585l-2.3280029,2.3280029v-9.7109985h-1v9.7111816l-2.3289795-2.328186
			c-0.1950073-0.1949463-0.5120239-0.1949463-0.7070312,0c-0.1950073,0.1950073-0.1950073,0.5120239,0,0.7070312
			l3.1820068,3.1820068c0.1950073,0.1950073,0.5120239,0.1950073,0.7070312,0l3.1819458-3.1820068
			c0.1950073-0.1950073,0.1950073-0.5120239,0-0.7070312C568.3140259,265.8250122,567.9970093,265.8250122,567.802002,266.0199585z"
			/>
		<path fill="#565440" d="M824.3599854,285.8099976l-2.3289795,2.3289795v-9.7119751h-1v9.711792l-2.3280029-2.3287964
			c-0.1950073-0.1950073-0.5120239-0.1950073-0.7070312,0c-0.1949463,0.1950073-0.1949463,0.5119629,0,0.7069702
			l3.1820068,3.1820068c0.1950073,0.1959839,0.5120239,0.1959839,0.7070312,0l3.1820068-3.1820068
			c0.1950073-0.1950073,0.1950073-0.5119629,0-0.7069702S824.5549927,285.6149902,824.3599854,285.8099976z"/>
		<path fill="#565440" d="M567.802002,414.1049805l-2.3280029,2.3280029v-9.7109985h-1v9.7111816l-2.3289795-2.328186
			c-0.1950073-0.1950073-0.5120239-0.1950073-0.7070312,0s-0.1950073,0.5120239,0,0.7070312l3.1820068,3.1819458
			c0.1950073,0.1950073,0.5120239,0.1950073,0.7070312,0l3.1819458-3.1819458c0.1950073-0.1950073,0.1950073-0.5120239,0-0.7070312
			C568.3140259,413.9099731,567.9970093,413.9099731,567.802002,414.1049805z"/>
		<path fill="#565440" d="M824.3599854,425.0239868l-2.3289795,2.328186v-9.7121582h-1v9.7119751l-2.3280029-2.3280029
			c-0.1950073-0.1959839-0.5120239-0.1959839-0.7070312,0c-0.1949463,0.1950073-0.1949463,0.5109863,0,0.7069702
			l3.1820068,3.1820068c0.1950073,0.1950073,0.5120239,0.1950073,0.7070312,0l3.1820068-3.1820068
			c0.1950073-0.1959839,0.1950073-0.5119629,0-0.7069702C824.8720093,424.8280029,824.5549927,424.8280029,824.3599854,425.0239868z
			"/>
		<path fill="#565440" d="M157.742981,64.9533005c0.1960449-0.1953125,0.1960449-0.5119019,0-0.7070923l-2.328064-2.3284912H165.125v-1
			h-9.710083l2.328064-2.3284302c0.1960449-0.1953125,0.1960449-0.5117798,0-0.7070923
			c-0.1949463-0.1953125-0.5119629-0.1953125-0.7069702,0l-3.1820068,3.1820068
			c-0.1950073,0.1951904-0.1950073,0.5117798,0,0.7070923l3.1820068,3.1820068
			C157.2310181,65.1484909,157.5480347,65.1484909,157.742981,64.9533005z"/>
		<path fill="#565440" d="M338.5620117,64.9533005c0.1950073-0.1953125,0.1950073-0.5119019,0-0.7070923l-2.328064-2.3284912h9.710083
			v-1h-9.710083l2.328064-2.3284302c0.1950073-0.1953125,0.1950073-0.5117798,0-0.7070923s-0.5120239-0.1953125-0.7069702,0
			l-3.1820068,3.1820068c-0.1950073,0.1951904-0.1950073,0.5117798,0,0.7070923l3.1820068,3.1820068
			C338.0499878,65.1484909,338.3670044,65.1484909,338.5620117,64.9533005z"/>
		<path fill="#565440" d="M525.5219727,64.9533005c0.1950073-0.1953125,0.1950073-0.5119019,0-0.7070923l-2.3289185-2.3284912
			h9.7109375v-1h-9.7108765l2.3288574-2.3284302c0.1950073-0.1953125,0.1950073-0.5117798,0-0.7070923
			c-0.1949463-0.1953125-0.5119629-0.1953125-0.7069702,0l-3.1820068,3.1820068
			c-0.1950073,0.1951904-0.1950073,0.5117798,0,0.7070923l3.1820068,3.1820068
			C525.0100098,65.1484909,525.3270264,65.1484909,525.5219727,64.9533005z"/>
		<path fill="#565440" d="M593.7550049,161.8569946c0.1959839-0.1950073,0.1959839-0.5120239,0-0.7070312l-2.328186-2.3289795
			h9.7102051v-1h-9.710022l2.3280029-2.3280029c0.1959839-0.1950073,0.1959839-0.5119629,0-0.7069702
			c-0.1950073-0.1960449-0.5120239-0.1960449-0.7070312,0l-3.1819458,3.1820068
			c-0.1950073,0.1949463-0.1950073,0.5119629,0,0.7069702l3.1819458,3.1820068
			C593.242981,162.052002,593.5599976,162.052002,593.7550049,161.8569946z"/>
		<path fill="#565440" d="M718.6229858,161.8569946c0.1950073-0.1950073,0.1950073-0.5120239,0-0.7070312l-2.3289795-2.3289795
			h9.7109985v-1h-9.7108154l2.3287964-2.3280029c0.1950073-0.1950073,0.1950073-0.5119629,0-0.7069702
			c-0.1959839-0.1960449-0.5119629-0.1960449-0.7069702,0l-3.1820068,3.1820068
			c-0.1959839,0.1949463-0.1959839,0.5119629,0,0.7069702l3.1820068,3.1820068
			C718.1110229,162.052002,718.427002,162.052002,718.6229858,161.8569946z"/>
		<path fill="#565440" d="M583.0679932,112.9279709c-0.1959839-0.1950073-0.5119629-0.1950073-0.7069702,0l-3.1820068,3.1820068
			c-0.1960449,0.1950073-0.1960449,0.5120239,0,0.7070312c0.1950073,0.1950073,0.5109863,0.1950073,0.7069702,0l2.3280029-2.3280029
			v9.7109985h1v-9.7111816l2.3290405,2.328186c0.1949463,0.1950073,0.5109863,0.1950073,0.7069702,0
			c0.1950073-0.1950073,0.1950073-0.5120239,0-0.7070312L583.0679932,112.9279709z"/>
		<path fill="#565440" d="M583.0679932,258.282959c-0.1959839-0.1949463-0.5119629-0.1949463-0.7069702,0l-3.1820068,3.1820068
			c-0.1960449,0.1950073-0.1960449,0.5120239,0,0.7070312c0.1950073,0.1959839,0.5109863,0.1959839,0.7069702,0l2.3280029-2.3280029
			v9.7109985h1v-9.7111816l2.3290405,2.328186c0.1949463,0.1959839,0.5109863,0.1959839,0.7069702,0
			c0.1950073-0.1950073,0.1950073-0.5120239,0-0.7070312L583.0679932,258.282959z"/>
		<path fill="#565440" d="M836.4439697,281.9630127l2.3280029-2.3288574v9.711853h1v-9.7120361l2.3290405,2.3290405
			c0.1950073,0.1949463,0.5109863,0.1949463,0.7069702,0c0.1950073-0.1960449,0.1950073-0.5120239,0-0.7080078l-3.1820068-3.1820068
			c-0.1949463-0.1950073-0.5119629-0.1950073-0.7069702,0l-3.1820068,3.1820068
			c-0.1959839,0.1959839-0.1959839,0.5119629,0,0.7080078C835.9320068,282.157959,836.2490234,282.157959,836.4439697,281.9630127z"
			/>
		<path fill="#565440" d="M583.0679932,406.367981c-0.1959839-0.1950073-0.5119629-0.1950073-0.7069702,0l-3.1820068,3.1820068
			c-0.1960449,0.1950073-0.1960449,0.5120239,0,0.7069702c0.1950073,0.1950073,0.5109863,0.1950073,0.7069702,0l2.3280029-2.3280029
			v9.7110596h1v-9.7112427l2.3290405,2.328186c0.1949463,0.1950073,0.5109863,0.1950073,0.7069702,0
			c0.1950073-0.1949463,0.1950073-0.5119629,0-0.7069702L583.0679932,406.367981z"/>
		<path fill="#565440" d="M839.6259766,417.2869873c-0.1949463-0.1950073-0.5119629-0.1950073-0.7069702,0l-3.1820068,3.1820068
			c-0.1959839,0.1950073-0.1959839,0.5119629,0,0.7069702c0.1950073,0.1950073,0.5120239,0.1950073,0.7069702,0l2.3280029-2.3287964
			v9.711792h1v-9.7119751l2.3290405,2.3289795c0.1950073,0.1950073,0.5109863,0.1950073,0.7069702,0
			c0.1950073-0.1950073,0.1950073-0.5119629,0-0.7069702L839.6259766,417.2869873z"/>
		<path fill="#565440" d="M776.0958862,521.4609375c-0.1959839-0.1950073-0.5119629-0.1950073-0.7069702,0
			c-0.1959839,0.1950073-0.1959839,0.5120239,0,0.7070312l2.328186,2.3289795h-9.7121582v1h9.7119751l-2.3280029,2.3280029
			c-0.1959839,0.1950073-0.1959839,0.5120239,0,0.7070312c0.1950073,0.1949463,0.5109863,0.1949463,0.7069702,0l3.1820068-3.1820068
			c0.1950073-0.1950073,0.1950073-0.5120239,0-0.7070312L776.0958862,521.4609375z"/>
		<path fill="#565440" d="M771.5408936,510.7909546c0.1950073-0.1950073,0.1950073-0.5120239,0-0.7069702l-2.3287964-2.3280029
			h9.711792v-1h-9.7119751l2.3289795-2.3290405c0.1950073-0.1950073,0.1950073-0.5109863,0-0.7069702
			c-0.1950073-0.1950073-0.5119629-0.1950073-0.7069702,0l-3.1820068,3.1820068
			c-0.1950073,0.1949463-0.1950073,0.5119629,0,0.7069702l3.1820068,3.1820068
			C771.0289307,510.9869385,771.3458862,510.9869385,771.5408936,510.7909546z"/>
		<path fill="#565440" d="M79.84552,154.8969727c-0.1953125-0.1959839-0.5118408-0.1959839-0.7070923,0l-3.1820068,3.1820068
			c-0.1953125,0.1950073-0.1953125,0.5120239,0,0.7070312s0.5119019,0.1950073,0.7070923,0l2.3283691-2.4050903v9.7880859h1
			v-9.7880859l2.3284912,2.4050903c0.1952515,0.1950073,0.5118408,0.1950073,0.7071533,0
			c0.1951904-0.1950073,0.1951904-0.5120239,0-0.7070312L79.84552,154.8969727z"/>
		<path fill="#565440" d="M64.2385864,162.6329956l-2.3283691,2.3288574V155.25h-1v9.7119141l-2.3284912-2.3289185
			c-0.1952515-0.1950073-0.5118408-0.1950073-0.7071533,0c-0.1951904,0.1959839-0.1951904,0.5120239,0,0.7080078
			l3.1820068,3.1809692c0.1953125,0.1960449,0.5118408,0.1960449,0.7070923,0l3.1820068-3.1809692
			c0.1953125-0.1959839,0.1953125-0.5120239,0-0.7080078C64.7504272,162.4379883,64.4337769,162.4379883,64.2385864,162.6329956z"/>
		<path fill="#565440" d="M79.84552,266.4719849c-0.1953125-0.1950073-0.5118408-0.1950073-0.7070923,0l-3.1820068,3.1820068
			c-0.1953125,0.1950073-0.1953125,0.5119629,0,0.7069702s0.5119019,0.1950073,0.7070923,0l2.3283691-2.328064v9.7110596h1
			v-9.7110596l2.3284912,2.328064c0.1952515,0.1950073,0.5118408,0.1950073,0.7071533,0
			c0.1951904-0.1950073,0.1951904-0.5119629,0-0.7069702L79.84552,266.4719849z"/>
		<path fill="#565440" d="M202.7769775,332.9729614c0.1960449-0.1949463,0.1960449-0.5119629,0-0.7069702l-2.3279419-2.3280029
			h9.7099609v-1h-9.710144l2.328125-2.3289795c0.1960449-0.1950073,0.1960449-0.5120239,0-0.7070312
			c-0.1949463-0.1950073-0.5109863-0.1950073-0.7069702,0l-3.1820068,3.1820068
			c-0.1950073,0.1950073-0.1950073,0.5120239,0,0.7069702l3.1820068,3.1820068
			C202.2659912,333.1690063,202.5820312,333.1690063,202.7769775,332.9729614z"/>
		<path fill="#565440" d="M344.7030029,332.9729614c0.1950073-0.1949463,0.1950073-0.5119629,0-0.7069702L342.375,329.9379883h9.710022
			v-1h-9.7102051l2.328186-2.3289795c0.1950073-0.1950073,0.1950073-0.5120239,0-0.7070312s-0.5119629-0.1950073-0.7069702,0
			l-3.1820068,3.1820068c-0.1950073,0.1950073-0.1950073,0.5120239,0,0.7069702l3.1820068,3.1820068
			C344.19104,333.1690063,344.5079956,333.1690063,344.7030029,332.9729614z"/>
		<path fill="#565440" d="M506.4160156,376.8189697c0.1959839-0.1959839,0.1959839-0.5119629,0-0.7069702l-2.328186-2.3290405h9.710144
			v-1h-9.7099609l2.3280029-2.3280029c0.1959839-0.1949463,0.1959839-0.5119629,0-0.7069702
			c-0.1950073-0.1959839-0.5109863-0.1959839-0.7069702,0l-3.1820068,3.1820068
			c-0.1950073,0.1950073-0.1950073,0.5109863,0,0.7069702l3.1820068,3.1820068
			C505.9050293,377.0139771,506.2210083,377.0139771,506.4160156,376.8189697z"/>
		<path fill="#565440" d="M64.2385864,274.2089844l-2.3283691,2.328064v-9.7110596h-1v9.7110596l-2.3284912-2.328064
			c-0.1952515-0.1950073-0.5118408-0.1950073-0.7071533,0c-0.1951904,0.1950073-0.1951904,0.5120239,0,0.7069702
			l3.1820068,3.1820068c0.1953125,0.1950073,0.5118408,0.1950073,0.7070923,0l3.1820068-3.1820068
			c0.1953125-0.1949463,0.1953125-0.5119629,0-0.7069702C64.7504272,274.0139771,64.4337769,274.0139771,64.2385864,274.2089844z"/>
		<path fill="#565440" d="M207.3309937,343.3039551c-0.1959839-0.1949463-0.5119629-0.1949463-0.7069702,0
			c-0.1960449,0.1950073-0.1960449,0.5120239,0,0.7070312l2.3280029,2.3280029h-9.710022v1h9.7102051l-2.328186,2.3289795
			c-0.1960449,0.1950073-0.1960449,0.5120239,0,0.7070312c0.1950073,0.1950073,0.5109863,0.1950073,0.7069702,0l3.1820068-3.1820068
			c0.1950073-0.1950073,0.1950073-0.5120239,0-0.7070312L207.3309937,343.3039551z"/>
		<path fill="#565440" d="M349.257019,343.3039551c-0.1959839-0.1949463-0.5120239-0.1949463-0.7080078,0
			c-0.1950073,0.1950073-0.1950073,0.5120239,0,0.7070312l2.3287964,2.3280029h-9.7097778v1h9.7099609l-2.3289795,2.3289795
			c-0.1950073,0.1950073-0.1950073,0.5120239,0,0.7070312c0.1959839,0.1950073,0.5120239,0.1950073,0.7080078,0l3.1820068-3.1820068
			c0.1950073-0.1950073,0.1950073-0.5120239,0-0.7070312L349.257019,343.3039551z"/>
		<path fill="#565440" d="M510.9700317,387.1489868c-0.1950073-0.1950073-0.5120239-0.1950073-0.7070312,0
			c-0.1950073,0.1959839-0.1950073,0.5120239,0,0.7069702l2.328186,2.3290405h-9.710144v1h9.7099609l-2.3280029,2.3280029
			c-0.1950073,0.1959839-0.1950073,0.5119629,0,0.7069702c0.1950073,0.1959839,0.5120239,0.1959839,0.7070312,0l3.1819458-3.1820068
			c0.1950073-0.1950073,0.1950073-0.5109863,0-0.7069702L510.9700317,387.1489868z"/>
		<path fill="#565440" d="M433.2950439,366.1049805c-0.1950073-0.1950073-0.5120239-0.1950073-0.7070312,0l-3.1820068,3.1820068
			c-0.1950073,0.1959839-0.1950073,0.5120239,0,0.7080078c0.1950073,0.1950073,0.5120239,0.1950073,0.7070312,0l2.3289795-2.3290405
			v9.7120361h1v-9.711853l2.3280029,2.3288574c0.1950073,0.1950073,0.5120239,0.1950073,0.7069702,0
			c0.1950073-0.1959839,0.1950073-0.5120239,0-0.7080078L433.2950439,366.1049805z"/>
		<path fill="#565440" d="M417.6879883,373.84198l-2.3280029,2.3287964v-9.711792h-1v9.7119751l-2.3289795-2.3289795
			c-0.1950073-0.1950073-0.5109863-0.1950073-0.7069702,0c-0.1950073,0.1950073-0.1950073,0.5120239,0,0.7070312
			l3.1820068,3.1819458c0.1959839,0.1960449,0.5119629,0.1960449,0.7069702,0l3.1820068-3.1819458
			c0.1959839-0.1950073,0.1959839-0.5120239,0-0.7070312C418.2000122,373.6469727,417.8840332,373.6469727,417.6879883,373.84198z"
			/>
	</g>
</g>
<path fill="#565440" d="M900.0037842,528.2674561V140.8286743H750.4039917V95.9666672H642.6170654V78.4121628
	l0.0004272-0.00177l-0.0004272-0.0001221v-0.0025635h-0.0107422L492.5046997,42.3715744l-0.0070801,0.02948v-0.02948H318.2489624
	V2.2559748h-0.0006104l0.0006104-0.0090332l-34.5144043-2.2466431v-0.0003052h-0.0045166l-0.0018921-0.0001221v0.0001221H0.0037892
	v275.9633789h43.2975464V406.921875h458.2548218v129.3977051h44.1901855V541h350.840271v-0.0013428L896.5916138,541
	l3.4126587-12.7324219L900.0037842,528.2674561z M897.0162964,527.8760376l-2.7169189,10.1365967l-345.5655518-0.0001221v-4.7702026
	h-44.1901855V403.9344482l-458.2548218-0.000061V272.9758911H2.991277V1.0058138l280.6412964,1.9816673l31.6289062,2.0588379
	v40.3127441h176.8894653l147.4786377,35.4063721V98.954155h107.7869263v44.8620071h149.5997925V527.8760376z"/>
</svg>
