<!-- DO NOT EDIT THIS, THIS FILE IS GENERATED FROM "1_13-22.original.svg" using transform-svgs.js script -->



<svg version="1.1" 
	 xmlns="http://www.w3.org/2000/svg" xmlns:xlink="http://www.w3.org/1999/xlink" x="0px" y="0px" viewBox="0 0 720 480"
	 style="enable-background:new 0 0 720 480;" xml:space="preserve">


<g>
	<polygon fill="#DBD4CA" points="508.3568115,244.8166199 503.885498,242.8293152 503.885498,231.8995209
		508.3568115,212.0270081 503.885498,210.0397186 503.885498,197.9737091 507.8104858,181.4738159 503.885498,179.6084137
		503.885498,166.2631226 507.991394,148.8972168 503.885498,145.4542084 503.885498,132.0402222 507.8599854,114.1549149
		503.885498,113.1613159 503.885498,102.231514 507.8599854,83.8494186 503.885498,82.8558121 503.885498,49.3706169
		506.866394,37.1491165 481.032196,31.1873169 480.0385132,36.1554146 452.2171021,36.1554146 432.8414001,31.6841164
		431.8478088,36.1554146 426.3828125,36.1554146 408.4975891,32.1809158 405.5166931,37.1491165 380.6760864,37.1491165
		355.6368103,30.9886169 355.7361145,156.185318 324.0394897,156.185318 323.9401855,120.4148178 211.8592987,120.4148178
		211.8592987,449.5031433 369.7461853,449.5031433 369.7461853,327.8835449 368.9513855,325.3001404 400.5486145,325.3001404
		400.5486145,359.0833435 412.9689026,358.5865173 430.3572998,362.5610352 431.3510132,359.0833435 444.6655884,357.8910217
		470.7979126,363.4553223 472.5863953,359.0833435 482.4233093,359.0833435 503.5874939,362.9585266 508.3568115,341.1981201
		503.885498,340.2045288 503.885498,327.7841187 508.3568115,308.902832 503.885498,307.9091187 503.5905151,296.5071411
		508.1257935,278.9876404 504.8792114,277.6061401 503.885498,277.6061401 503.885498,263.1986389 	"/>
	<g>
		<rect x="369.7461853" y="323.8097229" fill="#565440" width="30.504303" height="2.980896"/>
		<path fill="#565440" d="M323.0458984,155.8872223h32.5909119v0.9936066h-32.5909119V155.8872223z"/>
		<path fill="#565440" d="M321.4560852,168.8043213v2.980896h36.7640991v-2.980896H321.4560852z"/>
	</g>
</g>
<g>
	<polygon fill="none" stroke="#565440" points="322.449707,120.6135178 211.6605988,120.6135178 211.6605988,198.1163177
		213.151001,198.1163177 213.151001,122.1039124 322.449707,122.1039124 322.449707,135.5179138 323.9401855,135.5179138
		323.9401855,120.6135178 	"/>
	<g>
		<rect x="211.1638031" y="176.7533112" fill="#565440" width="5.9617004" height="6.9553986"/>
		<polygon fill="#565440" points="216.131897,158.8681183 253.8896027,158.8681183 253.8896027,160.8553162 254.8833008,160.8553162
			254.8833008,158.8681183 256.8705139,158.8681183 256.8705139,157.8745117 216.131897,157.8745117 216.131897,155.8872223
			211.1638031,155.8872223 211.1638031,162.8426208 216.131897,162.8426208 		"/>
		<rect x="211.1638031" y="135.0211182" fill="#565440" width="5.9617004" height="6.9553986"/>
		<rect x="234.0171967" y="120.1167145" fill="#565440" width="6.9553986" height="5.9617004"/>
		<rect x="297.6091003" y="120.1167145" fill="#565440" width="6.9554138" height="4.9681015"/>
		<polygon fill="#565440" points="319.4689026,135.0211182 319.4689026,175.7597198 307.5454102,175.7597198 307.5454102,169.7980194
			306.5517883,169.7980194 306.5517883,176.7533112 307.5454102,176.7533112 319.4689026,176.7533112 319.4689026,202.587616
			310.9237061,202.587616 310.9237061,205.5684204 324.4370117,205.5684204 324.4370117,202.587616 324.4370117,135.0211182 		"/>
		<polygon fill="#565440" points="265.8131104,157.8745117 264.8194885,157.8745117 264.8194885,158.8681183 265.8131104,158.8681183
			266.8067932,158.8681183 266.8067932,125.084816 275.7493896,125.084816 275.7493896,126.0785141 282.7048035,126.0785141
			282.7048035,125.084816 282.7048035,120.1167145 275.7493896,120.1167145 254.8833008,120.1167145 254.8833008,125.084816
			265.8131104,125.084816 		"/>
		<polygon fill="#565440" points="294.6282959,186.689621 293.634613,186.689621 293.634613,202.587616 274.7557983,202.587616
			274.7557983,176.7533112 293.634613,176.7533112 293.634613,178.7406158 294.6282959,178.7406158 294.6282959,176.7533112
			294.6282959,175.7597198 294.6282959,169.7980194 293.634613,169.7980194 293.634613,175.7597198 254.8833008,175.7597198
			254.8833008,168.8043213 253.8896027,168.8043213 253.8896027,185.6959229 254.8833008,185.6959229 254.8833008,176.7533112
			273.762085,176.7533112 273.762085,202.587616 254.8833008,202.587616 254.8833008,193.6449127 253.8896027,193.6449127
			253.8896027,202.587616 217.1255035,202.587616 217.1255035,197.6194153 211.1638031,197.6194153 211.1638031,202.587616
			211.1638031,205.5684204 301.086792,205.5684204 301.086792,202.587616 294.6282959,202.587616 		"/>
	</g>
	<path fill="none" stroke="#565440" d="M310.9237061,205.5684204c0,1.2917023-0.2980957,2.4841003-0.7948914,3.6764069
		c-0.4967957,1.1923981-1.1924133,2.3847046-2.1860046,3.279007c-0.8942871,0.8943024-1.9872131,1.6891937-3.1795959,2.1860046
		s-2.4841003,0.7949066-3.7757874,0.7949066v-9.936203 M256.8705139,157.8745117
		c0-1.0930023,0.1987915-1.9873047,0.5961914-2.980896c0.3974915-0.9936066,0.9935913-1.8878937,1.689209-2.5834045
		c0.6955872-0.7949066,1.5898132-1.391098,2.5834045-1.7884979s1.9872131-0.5962067,3.0802002-0.5962067v7.9490051
		 M253.8896027,168.8043213c-1.0930023,0-1.9871979-0.1987-2.980896-0.5962067
		c-0.9936066-0.3973999-1.8878937-0.9936066-2.5834045-1.6891022c-0.7949066-0.6954956-1.391098-1.589798-1.7884979-2.5834045
		s-0.5962067-1.9871979-0.5962067-3.0802002h7.9490051 M253.8896027,185.6959229c-1.0930023,0-1.9871979,0.1987-2.980896,0.5962067
		c-0.9936066,0.3973999-1.8878937,0.9936066-2.5834045,1.6891022c-0.7949066,0.6954956-1.391098,1.589798-1.7884979,2.5834045
		s-0.5962067,1.9871979-0.5962067,3.0802002h7.9490051 M293.634613,186.689621c-1.0929871,0-1.9873047-0.1987-2.980896-0.5962067
		c-0.9935913-0.3973999-1.8879089-0.9936066-2.5834045-1.6891022c-0.7948914-0.6954956-1.3911133-1.589798-1.7885132-2.5834045
		c-0.3974915-0.9936066-0.5961914-1.9871979-0.5961914-3.0802002h7.9490051"/>
</g>
<g>
	<path fill="none" stroke="#565440" d="M211.6605988,205.0716095h1.4904022v55.6428986h-1.4904022V205.0716095z"/>
	<g>
		<rect x="211.1638031" y="218.4855194" fill="#565440" width="4.9680939" height="6.9553986"/>
		<polygon fill="#565440" points="217.1255035,239.3517151 217.1255035,238.8549194 255.9761963,238.8549194 255.9761963,237.8612213
			217.1255035,237.8612213 216.131897,237.8612213 216.131897,238.8549194 216.131897,239.3517151 211.1638031,239.3517151
			211.1638031,246.3070221 217.1255035,246.3070221 		"/>
		<polygon fill="#565440" points="294.6282959,272.1412354 273.960907,272.1412354 273.960907,254.057312 272.9672852,254.057312
			272.9672852,272.1412354 217.1255035,272.1412354 217.1255035,260.2177429 211.1638031,260.2177429 211.1638031,275.1221313
			216.4299927,275.1221313 217.1255035,275.1221313 297.6091003,275.1221313 297.6091003,272.1412354 297.6091003,253.1631165
			294.6282959,253.1631165 		"/>
		<polygon fill="#565440" points="211.1638031,202.587616 211.1638031,205.5684204 271.5762024,205.5684204 271.5762024,237.8612213
			263.9252014,237.8612213 263.9252014,238.8549194 271.5762024,238.8549194 272.5697937,238.8549194 273.563385,238.8549194
			273.563385,237.8612213 272.5697937,237.8612213 272.5697937,205.5684204 294.6282959,205.5684204 294.6282959,237.8612213
			281.6117859,237.8612213 281.6117859,238.8549194 294.6282959,238.8549194 294.6282959,243.2268219 297.6091003,243.2268219
			297.6091003,205.5684204 297.6091003,202.587616 		"/>
	</g>
	<g>
		<path fill="none" stroke="#565440" d="M255.9763031,237.8612213c0-1.0930023,0.1987152-1.9871979,0.5962067-2.980896
			s0.9935913-1.8878937,1.6890869-2.5834045c0.6955872-0.7949066,1.5898132-1.391098,2.5834045-1.7884979
			s1.9872131-0.5962067,3.0802002-0.5962067v7.9490051"/>
		<path fill="none" stroke="#565440" d="M281.6117859,237.8612213c0-1.0930023-0.1987915-1.9871979-0.5961914-2.980896
			c-0.3974915-0.9936066-0.9935913-1.8878937-1.689209-2.5834045c-0.6955872-0.7949066-1.5898132-1.391098-2.5834045-1.7884979
			s-1.9872131-0.5962067-3.0802002-0.5962067v7.9490051"/>
		<path fill="none" stroke="#565440" d="M297.5097961,243.2268219c1.291687,0,2.4841003,0.2980957,3.6763916,0.7949066
			s2.3847046,1.1923981,3.2789001,2.1860046c0.8942871,0.8943024,1.689209,1.9871979,2.1860046,3.1795959
			c0.4967957,1.1923065,0.7948914,2.4841003,0.7948914,3.7758026h-9.9361877"/>
	</g>
</g>
<g>
	<path fill="none" stroke="#565440" d="M211.6605988,273.1348267h1.4904022v50.178009h-1.4904022V273.1348267z"/>
	<g>
		<polygon fill="#565440" points="216.131897,307.9179382 255.9761963,307.9179382 255.9761963,306.9118347 216.131897,306.9118347
			216.131897,301.9500427 211.1638031,301.9500427 211.1638031,308.9053345 216.131897,308.9053345 		"/>
		<polygon fill="#565440" points="294.6282959,340.7013245 273.960907,340.7013245 273.960907,322.6173401 272.9672852,322.6173401
			272.9672852,340.7013245 217.1255035,340.7013245 217.1255035,322.8161316 211.1638031,322.8161316 211.1638031,343.6822205
			214.9396057,343.6822205 217.1255035,343.6822205 297.6091003,343.6822205 297.6091003,340.7013245 297.6091003,321.6237183
			294.6282959,321.6237183 		"/>
		<polygon fill="#565440" points="211.1638031,272.1412354 211.1638031,275.1221313 211.1638031,288.0392456 217.1255035,288.0392456
			217.1255035,275.1221313 271.4768066,275.1221313 271.4768066,306.9181213 263.9252014,306.9181213 263.9252014,307.9117432
			271.4768066,307.9117432 272.4704895,307.9117432 273.6628113,307.9117432 273.6628113,306.9181213 272.4704895,306.9181213
			272.4704895,275.1221313 294.6282959,275.1221313 294.6282959,306.9181213 281.5123901,306.9181213 281.5123901,307.9117432
			294.6282959,307.9117432 294.6282959,311.6875305 297.6091003,311.6875305 297.6091003,275.1221313 297.6091003,272.1412354 		"/>
	</g>
	<g>
		<path fill="none" stroke="#565440" d="M255.9763031,306.9181213c0-1.0929871,0.1987152-1.9872131,0.5962067-2.980896
			c0.3974915-0.9935913,0.9935913-1.8879089,1.6890869-2.5834045c0.6955872-0.7948914,1.5898132-1.3911133,2.5834045-1.7885132
			c0.9935913-0.3974915,1.9872131-0.5961914,3.0802002-0.5961914v7.9490051"/>
		<path fill="none" stroke="#565440" d="M281.6117859,306.9181213c0-1.0929871-0.1987915-1.9872131-0.5961914-2.980896
			c-0.3974915-0.9935913-0.9935913-1.8879089-1.689209-2.5834045c-0.6955872-0.7948914-1.5898132-1.3911133-2.5834045-1.7885132
			c-0.9935913-0.3974915-1.9872131-0.5961914-3.0802002-0.5961914v7.9490051"/>
		<path fill="none" stroke="#565440" d="M297.6091003,311.687439c1.291687,0,2.4841003,0.2980957,3.6763916,0.7948914
			c1.1924133,0.4967957,2.3847046,1.1924133,3.2789917,2.1860046c0.8942871,0.8942871,1.6890869,1.9872131,2.1860046,3.1795959
			c0.4967957,1.1924133,0.7948914,2.4840088,0.7948914,3.7757874h-9.9361877"/>
	</g>
</g>
<g>
	<path fill="none" stroke="#565440" d="M213.151001,342.2910156h-1.4904022v107.2120972h83.4644928v-1.490387h-81.973999
		L213.151001,342.2910156L213.151001,342.2910156z"/>
	<g>
		<polygon fill="#565440" points="211.1638031,340.7013245 211.1638031,343.6822205 211.1638031,350.6375427 217.1255035,350.6375427
			217.1255035,343.6822205 294.6282959,343.6822205 294.6282959,345.1726379 297.6091003,345.1726379 297.6091003,343.6822205
			297.6091003,340.7013245 		"/>
		<rect x="211.1638031" y="365.5419312" fill="#565440" width="4.9680939" height="6.9554138"/>
		<polygon fill="#565440" points="251.9024048,395.3506165 251.9024048,400.3188171 252.8959961,400.3188171 252.8959961,395.3506165
			252.8959961,394.3570251 217.1255035,394.3570251 217.1255035,386.4081421 211.1638031,386.4081421 211.1638031,414.2295227
			217.1255035,414.2295227 217.1255035,395.3506165 		"/>
		<polygon fill="#565440" points="252.8959961,412.2423401 254.8833008,412.2423401 254.8833008,411.2487183 252.8959961,411.2487183
			252.8959961,408.2678223 251.9024048,408.2678223 251.9024048,445.0319214 240.9725037,445.0319214 240.9725037,444.0382385
			234.0171967,444.0382385 234.0171967,450.0000305 240.9725037,450.0000305 261.8387146,450.0000305 261.8387146,445.0319214
			252.8959961,445.0319214 		"/>
		<rect x="211.1638031" y="428.1403198" fill="#565440" width="5.9617004" height="6.9554138"/>
		<polygon fill="#565440" points="294.6282959,364.5483398 277.7366028,364.5483398 277.7366028,365.5419312 294.6282959,365.5419312
			294.6282959,385.4144287 264.8194885,385.4144287 264.8194885,365.5419312 269.7876892,365.5419312 269.7876892,364.5483398
			264.8194885,364.5483398 263.8258972,364.5483398 263.8258972,411.2487183 262.8323059,411.2487183 262.8323059,412.2423401
			264.8194885,412.2423401 264.8194885,411.2487183 264.8194885,405.2869263 276.7430115,405.2869263 276.7430115,404.293335
			264.8194885,404.293335 264.8194885,386.4081421 294.6282959,386.4081421 294.6282959,404.293335 284.6919861,404.293335
			284.6919861,405.2869263 294.6282959,405.2869263 294.6282959,444.0382385 275.7493896,444.0382385 275.7493896,450.0000305
			297.6091003,450.0000305 297.6091003,445.0318298 297.6091003,444.0382385 297.6091003,355.2082214 294.6282959,355.2082214 		"/>
	</g>
	<path fill="none" stroke="#565440" d="M251.9024048,408.2677307c-1.0930023,0-1.9871979-0.1987-2.980896-0.5961914
		c-0.9936066-0.3974915-1.8878937-0.9935913-2.5834045-1.689209c-0.7949066-0.6955872-1.391098-1.5898132-1.7884979-2.5834045
		s-0.5962067-1.9872131-0.5962067-3.0802002h7.9490051 M262.8323059,412.242218c0,1.0929871-0.1987,1.9872131-0.5961914,2.980896
		c-0.3973999,0.9935913-0.9935913,1.8879089-1.6890869,2.5834045c-0.6955872,0.7948914-1.5898132,1.3911133-2.5834045,1.7885132
		s-1.9873047,0.5961914-3.0802002,0.5961914v-7.9490051 M276.7430115,405.2869263c0,1.0929871,0.1987,1.9872131,0.5961914,2.980896
		c0.3973999,0.9937134,0.9935913,1.8879089,1.689209,2.5834045c0.6954956,0.7948914,1.5898132,1.3911133,2.5834045,1.7885132
		c0.9935913,0.3974915,1.9872131,0.5961914,3.0802002,0.5961914v-7.9490051 M277.7366028,365.5419312
		c0,1.0929871-0.1987,1.9872131-0.5961914,2.980896c-0.3974915,0.9935913-0.9935913,1.8879089-1.689209,2.5834045
		c-0.6955872,0.7948914-1.5898132,1.3911133-2.5834045,1.7885132s-1.9872131,0.5961914-3.0802002,0.5961914v-7.9490051
		 M294.6282959,355.1088257c-1.291687,0-2.4841003-0.2980957-3.6763916-0.7948914
		c-1.1924133-0.4967957-2.3847046-1.1924133-3.2789917-2.1860046c-0.8942871-0.8942871-1.689209-1.9872131-2.1860046-3.1795959
		c-0.4967957-1.1924133-0.7948914-2.4841003-0.7948914-3.7757874h9.9361877"/>
</g>
<g>
	<g>
		<path fill="none" stroke="#565440" d="M412.8695984,357.2948303l15.5004883,3.5770874l-0.2980957,1.490387l-15.5004883-3.5770874
			L412.8695984,357.2948303z"/>
		<path fill="none" stroke="#565440" d="M444.2680969,356.102417l25.1387024,5.7630005l-0.2980957,1.490387l-25.1387024-5.7630005
			L444.2680969,356.102417z"/>
		<polygon fill="none" stroke="#565440" points="507.7607117,343.1853333 506.2702942,342.8872375 502.1964111,361.0706177 478.25,356.301239
			478.0513,357.791626 503.3887024,362.8591309 503.4880981,362.1635437 		"/>

			<rect x="496.2868042" y="317.8750916" transform="matrix(0.2514896 -0.96786 0.96786 0.2514896 69.7934494 727.4848022)" fill="none" stroke="#565440" stroke-width="1.0000414" stroke-miterlimit="4.0001655" width="17.8927689" height="1.4883733"/>

			<rect x="497.2896423" y="286.1164551" transform="matrix(0.2514896 -0.96786 0.96786 0.2514896 100.6869736 703.9143677)" fill="none" stroke="#565440" stroke-width="1.0000414" stroke-miterlimit="4.0001655" width="16.3028889" height="1.4883733"/>
	</g>
	<g>
		<polygon fill="#565440" points="404.9169922,354.6095276 404.9169922,280.087616 413.565094,280.087616 413.565094,277.106842
			404.9169922,277.106842 399.9489136,277.106842 399.9489136,359.5776367 404.9169922,359.5776367 410.1972961,359.5776367
			412.6672058,360.1738281 413.7603149,355.3050232 410.8786926,354.6095276 		"/>
		<polygon fill="#565440" points="428.7640076,357.5904236 427.67099,362.459137 430.5524902,363.1547241 431.3778076,359.4783325
			444.6619873,359.4783325 444.6619873,353.5165405 428.7640076,353.5165405 		"/>
		<polygon fill="#565440" points="469.502594,359.4692383 468.6083069,363.4528198 471.4898071,364.1483154 472.5380859,359.4783325
			484.4070129,359.4783325 484.4070129,353.5165405 469.502594,353.5165405 		"/>
		<polygon fill="#565440" points="454.5982056,316.8517456 454.5982056,355.9012451 454.0021057,358.5840454 454.995697,358.7827454
			455.5917969,356.0999451 455.5917969,317.8454285 456.5853882,317.8454285 456.5853882,316.8517456 455.5917969,316.8517456 		"/>
		<polygon fill="#565440" points="463.3421021,304.9283447 463.3421021,305.921936 470.4961853,305.921936 470.4961853,307.9091187
			471.4898071,307.9091187 471.4898071,305.921936 471.4898071,304.9283447 465.5281067,304.9283447 465.5281067,280.087616
			505.6706848,280.087616 508.140686,280.6839294 508.8362122,277.8023376 505.9547119,277.106842 423.5014038,277.106842
			423.5014038,280.087616 424.7894897,280.087616 424.7894897,286.8443298 425.7831116,286.8443298 425.7831116,280.087616
			445.6556091,280.087616 445.6556091,304.9283447 425.7831116,304.9283447 425.7831116,294.8927307 424.7894897,294.8927307
			424.7894897,305.921936 425.7831116,305.921936 455.4924927,305.921936 455.4924927,304.9283447 446.6492004,304.9283447
			446.6492004,280.087616 464.5344849,280.087616 464.5344849,304.9283447 		"/>
		<polygon fill="#565440" points="504.4782104,318.4416199 504.6769104,317.4480286 502.2922058,316.8517456 471.4898071,316.8517456
			471.4898071,315.8581238 470.4961853,315.8581238 470.4961853,316.8517456 464.5344849,316.8517456 464.5344849,317.8454285
			502.0934143,317.8454285 		"/>
		<polygon fill="#565440" points="504.2590942,326.118927 498.2973022,326.118927 498.2973022,342.8469238 503.7081909,342.8469238
			508.1341858,343.8405457 508.8298035,340.9590454 504.2590942,339.9329224 		"/>
		<polygon fill="#565440" points="504.8552856,294.1983337 499.9865112,293.1053162 499.3140869,295.9868164 499.2908936,295.9868164
			499.2908936,310.4352417 503.7081909,310.4352417 508.1341858,311.428833 508.8298035,308.5473328 504.2590942,307.5212402
			504.2590942,296.6682434 		"/>
	</g>
	<path fill="none" stroke="#565440" d="M464.5379944,317.8479309c0,1.0929871-0.1987,1.9872131-0.5961914,2.980896
		c-0.3974915,0.9935913-0.9935913,1.8879089-1.689209,2.5834045c-0.6955872,0.7948914-1.5898132,1.3911133-2.5834045,1.7885132
		s-1.9872131,0.5961914-3.0802002,0.5961914v-7.9490051 M455.396698,304.9308167
		c0-1.0929871,0.1987915-1.9873047,0.5961914-2.980896s0.9935913-1.8879089,1.689209-2.5834045
		c0.6955872-0.7948914,1.5898132-1.3911133,2.5834045-1.7885132s1.9872131-0.5961914,3.0802002-0.5961914v7.9490051
		 M425.7867126,294.7958374c1.0929871,0,1.9872131-0.1987,2.980896-0.5961914
		c0.9935913-0.3974915,1.8879089-0.9935913,2.5834045-1.689209c0.7948914-0.6955872,1.3911133-1.5898132,1.7885132-2.5834045
		s0.5961914-1.9872131,0.5961914-3.0802002h-7.9490051 M471.4934082,307.9117432c1.0929871,0,1.9872131,0.1987,2.980896,0.5961914
		c0.9935913,0.3974915,1.8879089,0.9937134,2.5834045,1.689209c0.7948914,0.6955872,1.3911133,1.5898132,1.7885132,2.5834045
		s0.5961914,1.9872131,0.5961914,3.0802002h-7.9490051 M413.565094,277.1093445c0-1.291687,0.2980957-2.4841003,0.7948914-3.6763916
		c0.4967957-1.1924133,1.1924133-2.3847046,2.1860046-3.2789001c0.8942871-0.8942871,1.9872131-1.689209,3.1795959-2.1860046
		c1.1924133-0.4967957,2.4841003-0.7948914,3.7757874-0.7948914v9.9361877"/>
</g>
<g>
	<path fill="none" stroke="#565440" d="M441.3865967,244.6179199c0,1.0930023,0.1987,1.9873047,0.5961914,2.980896
		c0.3973999,0.9936066,0.9935913,1.8878937,1.689209,2.5834045c0.6954956,0.7949066,1.5898132,1.391098,2.5834045,1.7884979
		s1.9873047,0.5962067,3.0802917,0.5962067v-7.9490051 M467.2207947,244.6179199c0,1.0930023-0.1987,1.9873047-0.5961914,2.980896
		c-0.3974915,0.9936066-0.9935913,1.8878937-1.689209,2.5834045c-0.6955872,0.7949066-1.5898132,1.391098-2.5834045,1.7884979
		s-1.9872131,0.5962067-3.0802002,0.5962067v-7.9490051 M427.7738953,239.4510193
		c-1.291687,0-2.4841003-0.2980957-3.6763916-0.7949066s-2.3847046-1.1923065-3.2789001-2.1860046
		c-0.8942871-0.8943024-1.689209-1.9871979-2.1860046-3.1795959c-0.4967957-1.1923065-0.7948914-2.4841003-0.7948914-3.7758026
		h9.9361877"/>
	<g>

			<rect x="496.2840576" y="252.6406097" transform="matrix(0.2514896 -0.96786 0.96786 0.2514896 132.9292297 678.6534424)" fill="none" stroke="#565440" stroke-width="1.0000414" stroke-miterlimit="4.0001655" width="17.8927383" height="1.488358"/>

			<rect x="497.2868958" y="220.7020569" transform="matrix(0.2514896 -0.96786 0.96786 0.2514896 163.9968719 654.9483643)" fill="none" stroke="#565440" stroke-width="1.0000414" stroke-miterlimit="4.0001655" width="16.3028584" height="1.488358"/>
	</g>
	<g>
		<polygon fill="#565440" points="430.7547913,210.5365143 450.6272888,210.5365143 450.6272888,229.1173096 451.6209106,229.1173096
			451.6209106,210.5365143 498.3145142,210.5367126 498.3145142,213.0003204 503.2654114,213.0003204 508.1341858,214.0932159
			508.8298035,211.2118225 504.2590942,210.1856079 504.2590942,207.5557098 504.2590942,207.5542145 427.7738953,207.5557098
			427.7738953,229.6141205 430.7547913,229.6141205 		"/>
		<polygon fill="#565440" points="508.832489,277.8035278 505.9509888,277.1079407 504.2829895,277.1079407 504.2829895,261.2114258
			504.2590942,261.2114258 504.2590942,261.2099304 498.306488,261.2099304 498.305603,277.109436 451.6209106,277.109436
			451.6209106,245.3134155 459.2717896,245.3134155 459.2717896,244.319809 451.6209106,244.319809 450.6272888,244.319809
			449.3356018,244.319809 449.3356018,245.3134155 450.6272888,245.3134155 450.6272888,277.109436 430.7547913,277.109436
			430.7547913,245.3134155 441.3865967,245.3134155 441.3865967,244.319809 430.7547913,244.319809 430.7547913,239.3517151
			427.7738953,239.3517151 427.7738953,277.109436 427.7738953,280.0902405 505.6706848,280.087616 508.1369019,280.6849365 		"/>
		<polygon fill="#565440" points="504.2590942,242.4973145 504.2598877,232.5771179 505.0548096,229.1324158 500.1860046,228.0394135
			499.291687,231.8152161 499.2908936,244.3183136 467.2207947,244.319809 467.2207947,245.3134155 503.2654114,245.3120117
			508.1341858,246.4049225 508.8298035,243.5235138 		"/>
	</g>
</g>
<g>
	<path fill="none" stroke="#565440" d="M441.3843079,175.3630219c0,1.0930023,0.1987,1.9871979,0.5960999,2.9808044
		c0.3974915,0.9936066,0.9935913,1.8878937,1.689209,2.5834045c0.6954956,0.7949066,1.5898132,1.391098,2.5834045,1.7884979
		s1.9872131,0.5962067,3.0802002,0.5962067v-7.9488983 M467.2182007,175.3630219c0,1.0930023-0.1987,1.9871979-0.5961914,2.9808044
		c-0.3973999,0.9936066-0.9935913,1.8878937-1.689209,2.5834045c-0.6954956,0.7949066-1.5898132,1.391098-2.583313,1.7884979
		c-0.9937134,0.3973999-1.9873047,0.5962067-3.0802002,0.5962067v-7.9488983 M427.7719116,171.7859192
		c-1.291687,0-2.4840088-0.2980957-3.6763916-0.7949066c-1.1924133-0.4967957-2.3847046-1.1923065-3.2789001-2.1858978
		c-0.8941956-0.8943024-1.6890869-1.9871979-2.1859131-3.1795959c-0.4967957-1.1923065-0.7948914-2.4839935-0.7948914-3.7756958
		h9.9360962"/>
	<g>
		<polygon fill="#565440" points="430.7526855,140.9840088 450.6249084,140.9840088 450.6249084,160.5582123 451.6185913,160.5582123
			451.6185913,140.9840088 498.306488,140.9840088 498.306488,148.3263092 503.699585,148.3263092 508.1271057,149.3201141
			508.1272888,149.3192139 508.1304016,149.3199158 508.8259888,146.4384155 504.2553101,145.4124146 504.2557068,144.4643097
			504.2557983,144.4643097 504.2557983,144.244812 504.2573853,140.4502106 504.2557983,140.4502106 504.2557983,138.0032196
			427.7719116,138.0032196 427.7719116,161.8499146 430.7526855,161.8499146 		"/>
		<polygon fill="#565440" points="504.2553101,199.0286102 504.2521057,199.0286102 504.2521057,196.6203156 498.3125916,196.6203156
			498.306488,207.5292206 451.6185913,207.556015 451.6185913,175.3630219 459.2692871,175.3630219 459.2692871,174.3694153
			449.3331909,174.3694153 449.3331909,175.3630219 450.6249084,175.3630219 450.6249084,207.556015 430.7749023,207.556015
			430.7526855,175.3630219 441.3843994,175.3630219 441.3843994,174.3694153 430.7526855,174.3694153 430.7526855,171.7859192
			427.7719116,171.7859192 427.7719116,210.5368195 504.2590942,210.5368195 504.2590942,210.5351105 504.2590942,210.5351105 		"/>
		<polygon fill="#565440" points="504.2268982,177.7007141 504.2268982,168.3726196 505.0217896,164.9279175 500.178894,163.8349152
			499.2846069,167.6107178 499.2846069,174.3693085 467.2182007,174.3730164 467.2182007,175.3667145 499.2846069,175.3630219
			499.2846069,180.7464142 504.2268982,180.7464142 504.2268982,180.7383118 507.803894,181.5413208 508.4995117,178.6598206 		"/>
	</g>
	<g>

			<rect x="496.2809448" y="187.6954346" transform="matrix(0.2514896 -0.96786 0.96786 0.2514896 195.7847137 630.038269)" fill="none" stroke="#565440" stroke-width="1.0000414" stroke-miterlimit="4.0001655" width="17.8927383" height="1.488358"/>
		<polygon fill="none" stroke="#565440" points="503.9372864,165.3496094 502.4967957,164.9752197 506.7669983,148.4517212 508.2073975,148.8260193
					"/>
	</g>
</g>
<g>
	<path fill="none" stroke="#565440" d="M440.6911011,115.1462173c0-1.0930023,0.1987915-1.9872971,0.5961914-2.9809036
		c0.3973999-0.9935989,0.9935913-1.8879013,1.689209-2.5833969c0.6955872-0.794899,1.5898132-1.391098,2.5834045-1.7884979
		c0.9935913-0.3974991,1.9872131-0.596199,3.0802002-0.596199v7.9489975 M450.6274109,82.356514
		c-1.0929871,0-1.9872131-0.1987-2.980896-0.596199s-1.8879089-0.9935989-2.5834045-1.6892014
		c-0.7948914-0.6955032-1.3911133-1.589798-1.7885132-2.5833969s-0.5961914-1.9872971-0.5961914-3.0802002h7.9490051
		 M452.6145935,72.4203186c0-1.0930023,0.1987915-1.9872971,0.5961914-2.9809036
		c0.3973999-0.9935989,0.9935913-1.8879013,1.689209-2.5833969c0.6955872-0.794899,1.5898132-1.391098,2.5834045-1.7884979
		c0.9935913-0.3974991,1.9872131-0.596199,3.0802002-0.596199v7.9489975 M470.4620056,74.4076157
		c1.0929871,0,1.9872131,0.1987,2.980896,0.596199c0.9935913,0.3974991,1.8879089,0.9935989,2.5834045,1.6892014
		c0.7948914,0.6955032,1.3911133,1.589798,1.7885132,2.5833969s0.5961914,1.9872971,0.5961914,3.0802002h-7.9490051
		 M430.7549133,127.0696182c1.291687,0,2.4841003,0.2981033,3.6763916,0.794899
		c1.1924133,0.4967957,2.3847046,1.1923981,3.2789917,2.1860046c0.8942871,0.8943024,1.689209,1.9871979,2.1860046,3.1795959
		c0.4967957,1.1923065,0.7948914,2.4841003,0.7948914,3.7758026h-9.9361877"/>
	<g>
		<polygon fill="#565440" points="430.730896,116.1407166 440.6671143,116.1407166 440.6671143,115.1471176 430.730896,115.1471176
			430.730896,101.236412 450.6033936,101.236412 450.6033936,115.1471176 448.6160889,115.1471176 448.6160889,116.1407166
			451.5969849,116.1407166 451.5969849,115.1471176 451.5969849,82.3575134 450.6033936,82.3575134 450.6033936,100.2428131
			430.730896,100.2428131 430.730896,73.414917 450.6033936,73.414917 450.6033936,74.4085159 451.5969849,74.4085159
			451.5969849,73.414917 452.5906067,73.414917 452.5906067,72.4213181 430.730896,72.4213181 430.730896,38.6380157
			433.7349854,38.6387138 435.3016052,31.9807167 432.4200134,31.2852173 431.3913879,35.6572151 430.730896,35.6572151
			427.75,35.6572151 427.75,127.0706177 430.730896,127.0706177 		"/>
		<polygon fill="#565440" points="504.2590942,103.3192139 505.0539856,99.8746185 500.2110901,98.7816162 499.316803,102.5574188
			499.316803,115.5331116 504.2590942,115.5331116 504.2590942,115.5249176 507.8362122,116.327919 508.5317078,113.4464188
			504.2590942,112.4873123 		"/>
		<polygon fill="#565440" points="498.3063965,138.0005188 430.730896,138.0005188 430.730896,137.0069122 427.75,137.0069122
			427.75,138.0005188 427.75,140.9814148 504.2590942,140.9814148 504.2590942,138.0005188 504.2590942,131.5706177
			498.3063965,131.5706177 		"/>
		<polygon fill="#565440" points="470.4758911,82.356514 469.4822083,82.356514 469.4822083,83.8255157 462.526886,83.8255157
			462.526886,84.8191147 504.2590942,84.8110123 507.8362122,85.6140137 508.5317078,82.7324142 504.2590942,81.7733154
			504.2590942,67.0612183 498.3156128,67.0612183 498.3156128,83.8255157 470.4758911,83.8255157 		"/>
		<polygon fill="#565440" points="469.4822083,72.4213181 460.5396118,72.4213181 460.5396118,73.414917 469.4822083,73.414917
			469.4822083,74.3681183 470.4758911,74.3681183 470.4758911,40.6253166 483.3930054,40.6253166 483.3930054,40.6030159
			483.4924011,40.6253166 485.4796143,31.8813171 480.6108093,30.7884178 479.504303,35.6572151 470.4758911,35.6572151
			448.6160889,35.6572151 448.6160889,38.6380157 469.4822083,38.6380157 		"/>
	</g>
	<path fill="none" stroke="#565440" d="M506.8424988,37.048214l-23.8470154-5.5642986l-0.2980957,1.4903965l22.4559021,5.1668015
		l-2.5834045,11.2280006v18.6800957h1.490387V49.3692169L506.8424988,37.048214z M506.4450989,114.1535187l1.490387,0.2981033
		l-4.2250977,18.4814987l-1.490387-0.2980957L506.4450989,114.1535187z M506.4450989,83.3511124l1.490387,0.2981033
		l-3.9744873,17.3883972l-1.490387-0.2981033L506.4450989,83.3511124z M433.1156006,31.6826172l18.6801147,4.2725983
		l-0.2980957,1.4903984l-18.6801147-4.2726021L433.1156006,31.6826172z"/>
</g>
<g>
	<g>
		<path fill="none" stroke="#565440" d="M407.0072021,31.5848179l19.3757019,4.4712963l-0.2980957,1.4903984l-19.3757019-4.5707016
			L407.0072021,31.5848179z"/>
		<path fill="none" stroke="#565440" d="M355.2392883,99.250618h1.490387v28.8151016h-1.490387V99.250618z"/>
		<polygon fill="none" stroke="#565440" points="355.2392883,30.6905174 355.2392883,59.9031143 356.7297974,59.9031143 356.7297974,32.6778145
			374.2175903,37.2484169 374.6149902,35.7580147 		"/>
	</g>
	<g>
		<polygon fill="#565440" points="428.3700867,35.6586151 427.7738953,35.6586151 423.799408,35.6586151 423.799408,41.6204147
			427.7738953,41.6204147 427.7738953,76.3972168 404.9205933,76.3972168 404.9205933,77.3909149 407.9013977,77.3909149
			407.9013977,86.333519 408.8951111,86.333519 408.8951111,77.3909149 427.7738953,77.3909149 427.7738953,103.2251129
			408.8951111,103.2251129 408.8951111,94.1831131 407.9013977,94.1831131 407.9013977,104.2187119 408.8951111,104.2187119
			427.7738953,104.2187119 427.7738953,123.0976181 425.7867126,123.0976181 425.7867126,126.0785141 427.7738953,126.0785141
			430.7547913,126.0785141 430.7547913,35.6586151 		"/>
		<polygon fill="#565440" points="359.0151062,100.2442169 360.207489,100.2442169 394.984314,100.2442169 394.984314,99.250618
			394.984314,88.3207169 393.9906921,88.3207169 393.9906921,99.250618 381.6697083,99.250618 381.6697083,77.3909149
			381.6697998,77.3909149 381.6697998,76.3972168 379.6825867,76.3972168 379.6825867,77.3909149 380.6760864,77.3909149
			380.6760864,99.250618 360.207489,99.250618 360.207489,77.3909149 372.131012,77.3909149 372.131012,76.3972168
			360.207489,76.3972168 360.207489,50.563015 354.245697,50.563015 354.245697,51.5566139 351.2648926,51.5566139
			351.2648926,54.5375137 354.245697,54.5375137 354.245697,66.4610138 351.2648926,66.4610138 351.2648926,69.4419174
			354.245697,69.4419174 354.245697,81.3654175 351.2648926,81.3654175 351.2648926,84.3462143 354.245697,84.3462143
			354.245697,97.2634125 351.2648926,97.2634125 351.2648926,100.2442169 354.245697,100.2442169 		"/>
		<rect x="351.2648926" y="112.167717" fill="#565440" width="6.9554138" height="2.9809036"/>
		<polygon fill="#565440" points="374.1181946,39.6331139 376.1054993,39.6331139 376.1054993,41.6204147 383.060791,41.6204147
			383.060791,39.6331139 393.9906921,39.6331139 393.9906921,80.3717117 394.984314,80.3717117 394.984314,77.3909149
			396.9715881,77.3909149 396.9715881,76.3972168 394.984314,76.3972168 394.984314,39.6331139 407.4898987,39.6331139
			407.9013977,39.7325134 409.6899109,31.9822178 406.8085022,31.2867165 405.5703125,36.652317 383.060791,36.652317
			378.2915039,36.652317 374.3169861,35.0624161 373.2239075,37.8446159 374.1181946,38.2023163 		"/>
		<polygon fill="#565440" points="400.946106,123.0976181 400.946106,124.091217 407.9013977,124.091217 407.9013977,126.0785141
			407.9013977,138.9956207 404.9205933,138.9956207 401.9396973,138.9956207 401.9396973,152.906311 372.131012,152.906311
			372.131012,146.9446106 371.1372986,146.9446106 371.1372986,152.906311 371.1372986,153.9000092 384.0544128,153.9000092
			384.0544128,154.8936157 385.0480957,154.8936157 385.0480957,153.9000092 401.9396973,153.9000092 401.9396973,168.8043213
			385.0480957,168.8043213 385.0480957,162.8426208 384.0544128,162.8426208 384.0544128,168.8043213 360.207489,168.8043213
			360.207489,147.9382172 363.188385,147.9382172 363.188385,146.9446106 360.207489,146.9446106 360.207489,127.072113
			354.245697,127.072113 351.2648926,127.072113 351.2648926,130.0529175 354.245697,130.0529175 354.245697,142.970108
			351.2648926,142.970108 351.2648926,145.9510193 354.245697,145.9510193 354.245697,171.7852173 356.2330017,171.7852173
			360.207489,171.7852173 401.9396973,171.7852173 402.7345886,171.7852173 404.9205933,171.7852173 404.9205933,141.9765167
			407.9013977,141.9765167 410.8822937,141.9765167 410.8822937,126.0785141 415.8504028,126.0785141 415.8504028,123.0976181
			407.9013977,123.0976181 		"/>
	</g>
	<path fill="none" stroke="#565440" d="M404.9205933,76.3972168c0-1.0930023-0.1987-1.9871979-0.5961914-2.9809036
		c-0.3974915-0.9935989-0.9937134-1.8879013-1.689209-2.5833969c-0.6955872-0.794899-1.5898132-1.391098-2.5834045-1.7884979
		s-1.9872131-0.596199-3.0802002-0.596199v7.9489975 M393.9906921,80.3717117c-1.0929871,0-1.9872131,0.1987-2.980896,0.596199
		c-0.9935913,0.3974991-1.8879089,0.9935989-2.5834045,1.6892014c-0.7948914,0.6955032-1.3911133,1.589798-1.7885132,2.5833969
		s-0.5961914,1.9872971-0.5961914,3.0802002h7.9490051 M407.9013977,94.1831131c-1.0929871,0-1.9872131-0.1987-2.980896-0.596199
		c-0.9935913-0.3973999-1.8879089-0.9935989-2.5834045-1.6892014c-0.7948914-0.6955032-1.3911133-1.589798-1.7885132-2.5833969
		s-0.5961914-1.9872971-0.5961914-3.0802002h7.9490051 M372.0315857,77.3908157
		c0,0.9935989,0.1987915,1.8879013,0.5961914,2.7822037s0.8942871,1.7884979,1.689209,2.4841003
		c0.6955872,0.6955032,1.5898132,1.2917023,2.4841003,1.6892014c0.8941956,0.3974991,1.8879089,0.596199,2.8815002,0.596199
		v-7.5514984 M371.1372986,146.9446106c0-1.0930023-0.1987-1.9873047-0.5961914-2.980896
		c-0.3974915-0.9936066-0.9935913-1.8878937-1.689209-2.5834045c-0.6955872-0.7949066-1.5898132-1.391098-2.5834045-1.7884979
		s-1.9872131-0.5962067-3.0802002-0.5962067v7.9490051 M384.0544128,162.8426208c-1.0929871,0-1.9872131-0.1987-2.980896-0.5962067
		c-0.9935913-0.3973999-1.8879089-0.9936066-2.5834045-1.6891022c-0.7948914-0.6954956-1.3911133-1.589798-1.7885132-2.5834045
		s-0.5961914-1.9871979-0.5961914-3.0802002h7.9490051 M415.8504028,123.0976181
		c0-1.2917023,0.2980957-2.4841003,0.7948914-3.6763992s1.1924133-2.384697,2.1860046-3.2789993
		c0.8942871-0.8943024,1.9873047-1.6892014,3.1795959-2.185997c1.1924133-0.4968033,2.4841003-0.794899,3.7757874-0.794899v9.936203
		"/>
</g>
<g >
	<rect x="355" y="-0.0001832" fill="none" width="10" height="10"/>
	<rect x="181.1717987" y="235.0000153" fill="none" width="10" height="10"/>
	<rect x="355" y="469.9998169" fill="none" width="10" height="10"/>
	<rect x="528.8361816" y="235.0000153" fill="none" width="10" height="10"/>
</g>
<g >
	<path data-nr="5" class="plan__svg__hoverable" fill="none" d="M304.5645142,120.1168137L304.5645142,120.1168137l-6.9554138-0.0000992v0.0000992
		h-14.9043884v-0.0000992h-6.9554138H254.883194v0.0000992h-13.9107971v-0.0000992h-6.9553986v0.0000992h-22.8529968v14.9043045
		h-0.0001984v6.9553986h0.0001984v13.9107056h-0.0001984v6.9553986h0.0001984v13.9107056h-0.0001984v6.9553986h0.0001984v13.9107971
		h-0.0001984v4.9680939v2.980896h0.4967957h88.8300934v10.4331055h0.4967957c1.2867126,0,2.6582031-0.2881927,3.9667053-0.8334961
		c1.1741028-0.4889984,2.3287964-1.2817993,3.3210144-2.2749023c0.9252014-0.8325958,1.7029114-1.9960022,2.3117981-3.4573059
		c0.5632019-1.3513947,0.8266907-2.6053925,0.831604-3.8672943h13.0183105v-2.980896v-66.5727997h0.0002136v-15.8980026h-19.8726196
		V120.1168137z M307.5916138,212.1726227c-0.9198914,0.9199066-1.9639893,1.6389008-3.0197144,2.0785065
		c-1.0198059,0.4250031-2.0769958,0.6777954-3.0875854,0.7413025v-9.423996h8.9407043
		c-0.0050049,1.1268005-0.2441101,2.2588959-0.7549133,3.4850006
		C309.1180115,210.3779144,308.4252014,211.4216156,307.5916138,212.1726227z"/>
	<path data-nr="4" class="plan__svg__hoverable" fill="none" d="M307.9429016,253.1630096c0-1.2866974-0.288208-2.6576996-0.8334961-3.9667053
		c-0.4885864-1.1730957-1.281311-2.3278046-2.2749939-3.3204956c-0.8326111-0.925705-1.9960022-1.7033997-3.4573059-2.3123016
		c-1.3286133-0.5538025-2.5293884-0.8146973-3.7680054-0.8282013v-37.1668091v-2.980896h-86.4452972v2.980896h0.0001984v12.917099
		h-0.0001984v6.9553986h0.0001984v13.9107971h-0.0001984v6.9553986h0.0001984v13.9107056h-0.0001984v14.9043884h5.2662048h0.6954956
		h80.4835968v-2.980896v-18.4814148h10.3338013V253.1630096z M297.5098877,252.666214v0.4969025h-0.0000916v-9.936203h0.0000916
		v0.4967041c1.1387024,0,2.2457886,0.2406006,3.4849854,0.756897c1.3244934,0.5520935,2.368103,1.2449036,3.1191101,2.0785065
		c0.9204102,0.9208984,1.6388855,1.9649048,2.0784912,3.0196991c0.4249878,1.0198059,0.6777954,2.0774994,0.7413025,3.0876007
		h-9.4238892V252.666214z"/>
	<path data-nr="3" class="plan__svg__hoverable" fill="none" d="M307.2088928,317.6564331
		c-0.489502-1.1751099-1.2828064-2.3287964-2.2749939-3.3204956c-0.8334961-0.9256897-1.9968872-1.7038879-3.4573059-2.3122864
		c-1.3633118-0.5675964-2.5922852-0.8326111-3.8673096-0.8326111v-5.7633972l-0.0002136-0.0065002v-30.2990112v-2.980896
		h-86.4452972v2.980896v12.9171143h0.0001984v13.9107971h-0.0001984v6.9554138h0.0001984v13.9107056h-0.0001984v20.8660889
		h3.7758026h2.1860046h80.4836121v-1.0905151h0.0002136v-20.4707947h10.4330139v-0.4967957
		C308.0423889,320.3190308,307.7619019,318.9838257,307.2088928,317.6564331z M297.609314,321.1273193v-8.9425964
		c1.1391907,0,2.2467957,0.2406921,3.4849854,0.756897c1.3234863,0.5510864,2.3666992,1.243988,3.1191101,2.0784912
		c0.9194031,0.9189148,1.6379089,1.9630127,2.0784912,3.0187073c0.4249878,1.0198059,0.6777954,2.0775146,0.741394,3.0885925
		h-9.4239807V321.1273193z"/>
	<path data-nr="2" class="plan__svg__hoverable" fill="none" d="M297.6091003,341.7945251v-1.1069946h-86.4452972v9.9361877h0.0001984v14.9043884
		h-0.0001984v6.9554138h0.0001984v13.9107056h-0.0001984v27.8215027h0.0001984v13.9107056h-0.0001984v6.9554138h0.0001984
		v14.9039001h22.8531952v0.0004883h27.8214874v-0.0004883h13.9107056v0.0004883h21.8597107v-1.1069946h0.0002136V341.7945251
		H297.6091003z"/>
	<polygon data-nr="1" class="plan__svg__hoverable" fill="none" points="370.1437073,349.6435242 370.1437073,307.9117432 370.0444031,307.9117432
		365.1755981,307.9117432 320.4624939,307.9117432 320.4624939,312.8798218 320.4624939,340.7013245 313.5071106,340.7013245
		313.5071106,343.6822205 313.5071106,356.5993347 308.5390015,356.5993347 298.6028137,356.5993347 297.6091003,356.5993347
		296.2181091,356.5993347 294.6282959,356.5993347 294.6282959,450.0000305 297.6091003,450.0000305 303.5708923,450.0000305
		303.5708923,449.9996338 318.4753113,449.9996338 318.4753113,450.0000305 339.3414001,450.0000305 346.2966919,450.0000305
		346.2966919,449.9996338 357.1070862,449.9996338 370.1438904,449.9996338 370.1438904,349.6435242 	"/>
	<path data-nr="10" class="plan__svg__hoverable" fill="none" d="M504.2590027,307.5212402v-10.8529968l0.5963135-2.4699097l-0.0307922-0.006897
		l3.9919128-15.3619995l-0.2146912-0.0556946l0.2344971-0.971405l-2.8815002-0.6955872h-81.9537354v-10.4335938h-0.5
		c-1.2880859,0-2.6601868,0.2880859-3.967804,0.8330078c-1.1729126,0.4892883-2.3280945,1.282196-3.3222961,2.2763977
		c-0.9267883,0.8349915-1.7051086,1.9979858-2.3125,3.4580078c-0.5679016,1.3631897-0.832489,2.5917969-0.8327942,3.8662109
		h-8.1485901h-4.9681091v82.4707947h4.9681091h5.280304l2.4699097,0.5963135l0.1820984-0.8113098l15.6124878,3.6026001
		l0.0599976-0.3006897l2.0306091,0.4902039l0.8252869-3.6763916h13.2842102v-1.2132874l24.8360901,5.6932983l0.0555115-0.2773132
		l1.9361877,0.4672852l1.0483093-4.6700134h11.3988037l19.8716125,3.9742126l0.1669922-1.1796875l4.151001-18.4339905
		l0.0075989,0.001709l0.6955872-2.8815002l-4.5707092-1.0260925v-12.6117859l4.5476074-17.5014954l-0.2672119-0.0696106
		l0.2903137-1.2027893L504.2590027,307.5212402z M414.8222961,273.6253357
		c0.5498047-1.3222961,1.2421875-2.3652039,2.0770874-3.1181946c0.9208984-0.9198914,1.9648132-1.6387024,3.0185852-2.0770874
		c1.0176086-0.4248047,2.0732117-0.6777039,3.0830078-0.7412109v9.4208984h-8.9354858
		C414.0653992,275.9700317,414.3056946,274.8636169,414.8222961,273.6253357z"/>
	<path data-nr="9" class="plan__svg__hoverable" fill="none" d="M505.9509888,277.1079407h-1.6679993v-15.1142883l4.5245972-17.4103088
		l-0.2199097-0.0570984l0.2420959-1.0027924l-4.5707092-1.0260925l0.0007935-9.9201965l0.7950134-3.4445953l-0.3041992-0.0682983
		l4.0657959-15.6502991l-0.4877014-0.1266022l0.5010071-2.0755005l-4.5707092-1.0260925v-2.6300049v-0.0014954
		l-76.4851074,0.0014954v21.4593048h-10.4360046v0.5c0,1.2886047,0.2880859,2.6605988,0.8330078,3.9673004
		c0.4892883,1.1748047,1.282196,2.3300934,2.2753906,3.3222961c0.8340149,0.9263,1.9979858,1.7046051,3.4590149,2.3130035
		c1.3641052,0.5688019,2.5934143,0.8334045,3.8687134,0.8334961v37.1584167v2.980896l77.8967896-0.002594l2.4661865,0.59729
		l0.6955872-2.8815002L505.9509888,277.1079407z M421.1719055,236.1165161
		c-0.9198914-0.9199066-1.6387024-1.9633942-2.0770874-3.0186005c-0.4248047-1.0171051-0.6777039-2.0731964-0.7412109-3.0829926
		h9.4208984v8.9360046c-1.1395874,0-2.2460938-0.2402039-3.4844055-0.7563019
		C422.9667969,237.6434174,421.9237976,236.9510193,421.1719055,236.1165161z"/>
	<path data-nr="8" class="plan__svg__hoverable" fill="none" d="M508.3644104,148.3501129l0.4614868-1.9116974l-4.5705872-1.0260925l0.0003967-0.947998
		h0.0000916v-0.2194977l0.0015869-3.7946014h-0.0015869v-2.4470062h-76.4838867v16.2127075L427.75,154.4675293v6.8824005h-10.414093
		v0.5c0,1.2881012,0.2880859,2.660202,0.8330078,3.967804c0.4892883,1.1743011,1.282196,2.3296051,2.2753906,3.3217926
		c0.8340149,0.9263,1.9979858,1.7046051,3.4590149,2.3130035c1.3565979,0.5655975,2.57901,0.8292999,3.8467102,0.8323059v22.047699
		l0.0219116,0.1656036v16.0386047h76.4872131v-0.0016937l-0.0036926-11.5065002h-0.0032043v-1.8616028l4.5555115-17.5289001
		l-0.512085-0.133194l0.20401-0.8450012l-4.2726135-0.959198v-9.3280945l0.7948914-3.4445953l-0.4339905-0.0980072
		l4.2286072-16.3623962L508.3644104,148.3501129z M424.2880859,170.5296173
		c-1.3232117-0.5513-2.3662109-1.2436981-3.1181946-2.0780945c-0.9198914-0.9199066-1.6387024-1.9633942-2.0770874-3.0180969
		c-0.4248047-1.0175934-0.6777039-2.0737-0.7412109-3.0834961H427.75v8.934906
		C426.618988,171.2817078,425.5185852,171.042511,424.2880859,170.5296173z"/>
	<polygon data-nr="7" class="plan__svg__hoverable" fill="none" points="508.3902893,114.0325165 508.5317078,113.4464188 504.2590942,112.4873123
		504.2590942,103.3192139 505.0539856,99.8746185 504.7549133,99.8071136 508.5371094,83.259613 508.410614,83.234314
		508.5317078,82.7324142 504.2590942,81.7733154 504.2590942,68.549118 504.5604858,68.549118 504.5604858,49.424614
		507.4395142,36.6741142 482.6064148,30.8797169 482.5380859,31.2210178 480.6108093,30.7884178 479.504303,35.6572151
		470.4757996,35.6572151 452.3656921,35.6572151 452.3818054,35.5765152 432.7255859,31.0804176 432.6724854,31.346117
		432.4200134,31.2852173 431.3913879,35.6572151 430.730896,35.6572151 427.75,35.6572151 427.75,102.4553146 427.75,127.0706177
		427.75,137.0068207 427.75,138.0005188 427.75,139.4491119 427.75,140.9814148 504.2590942,140.9814148 504.2590942,138.0005188
		504.2590942,132.7779083 508.5371094,114.0618134 	"/>
	<polygon data-nr="6" class="plan__svg__hoverable" fill="none" points="428.3700867,35.6586151 427.7738953,35.6586151 426.868988,35.6586151
		406.6265869,30.9870167 406.1210938,33.3474159 406.321991,33.3948135 405.5703125,36.652317 383.060791,36.652317
		378.2915039,36.652317 375.2185059,35.4230156 375.2236023,35.4040146 375.071106,35.3641167 374.3169861,35.0624161
		374.2797852,35.1571159 354.7427063,30.0472164 354.7427063,50.563015 354.245697,50.563015 354.245697,51.5566139
		351.2648926,51.5566139 351.2648926,54.5375137 354.245697,54.5375137 354.245697,66.4610138 351.2648926,66.4610138
		351.2648926,69.4419174 354.245697,69.4419174 354.245697,81.3654175 351.2648926,81.3654175 351.2648926,84.3462143
		354.245697,84.3462143 354.245697,97.2634125 351.2648926,97.2634125 351.2648926,100.2442169 354.245697,100.2442169
		354.7427063,100.2442169 354.7427063,112.167717 351.2648926,112.167717 351.2648926,115.148613 354.7427063,115.148613
		354.7427063,127.072113 354.245697,127.072113 351.2648926,127.072113 351.2648926,130.0529175 354.245697,130.0529175
		354.245697,142.970108 351.2648926,142.970108 351.2648926,145.9510193 354.245697,145.9510193 354.245697,171.7852173
		356.2330017,171.7852173 360.207489,171.7852173 401.9396973,171.7852173 402.7345886,171.7852173 404.9205933,171.7852173
		404.9205933,141.9765167 407.9013977,141.9765167 410.8822937,141.9765167 410.8822937,126.0785141 415.8504028,126.0785141
		425.7867126,126.0785141 427.2582092,126.0785141 427.7738953,126.0785141 430.7547913,126.0785141 430.7547913,35.6586151 	"/>
</g>
<g>
	<path fill="none" stroke="#565440" d="M368.1380615,448.0125427h-71.9376831v1.490387h73.4281006v-99.3615112h-1.490387v97.8711243
		H368.1380615z"/>
	<g>
		<polygon fill="#565440" points="339.3231812,445.0316162 330.3806763,445.0316162 329.387085,445.0316162 318.4572754,445.0316162
			318.4572754,449.9996948 339.3231812,449.9996948 346.2784424,449.9996948 346.2784424,443.0444336 339.3231812,443.0444336 		"/>
		<rect x="362.1763916" y="428.1401978" fill="#565440" width="7.9489136" height="6.9553223"/>
		<polygon fill="#565440" points="365.1571655,364.5488281 365.1571655,366.0668945 332.1825562,366.0668945 332.1825562,367.0604858
			332.7178345,367.0604858 332.7178345,382.6765747 333.7114258,382.6765747 333.7114258,367.0604858 365.1571655,367.0604858
			365.1571655,371.5040894 370.1253052,371.5040894 370.1253052,364.5488281 		"/>
		<polygon fill="#565440" points="316.4700928,359.5806885 322.432373,359.5806885 322.432373,367.0606079 324.469696,367.0606079
			324.469696,366.0670166 323.4259644,366.0670166 323.4259644,358.5917358 323.425354,358.5917358 323.425354,358.5870972
			316.4700928,358.5870972 316.4700928,343.6829224 323.425354,343.6829224 323.425354,340.7020264 323.425354,331.0256958
			326.3497314,331.0256958 326.3497314,330.0321045 323.425354,330.0321045 323.425354,312.8807983 347.5734863,312.8807983
			347.5734863,330.0316162 333.7671509,330.0316162 333.7671509,331.0252075 353.7824097,331.0252075 353.7824097,330.0316162
			348.5670776,330.0316162 348.5670776,312.8807983 363.1699829,312.8807983 363.1699829,330.0317383 361.3650513,330.0317383
			361.3650513,331.0253296 363.1699829,331.0253296 363.1699829,350.6382446 370.1252441,350.6382446 370.1252441,307.9128418
			320.4445801,307.9128418 320.4445801,312.8807983 320.4445801,340.7020264 313.4891968,340.7020264 313.4891968,343.6829224
			313.4891968,356.5999146 308.5211792,356.5999146 308.5211792,359.5806885 313.4891968,359.5806885 		"/>
		<polygon fill="#565440" points="297.5913696,405.2869873 319.4508667,405.2869873 319.4508667,404.293396 316.4700928,404.293396
			316.4700928,395.3508911 315.4764404,395.3508911 315.4764404,404.293396 297.5913696,404.293396 297.5913696,379.4530029
			315.4764404,379.4530029 315.4764404,387.4019165 316.4700928,387.4019165 316.4700928,378.4594116 315.4764404,378.4594116
			297.5913696,378.4594116 297.5913696,359.5806885 298.5849609,359.5806885 298.5849609,356.5999146 297.5913696,356.5999146
			294.6104736,356.5999146 294.6104736,449.9996948 297.5913696,449.9996948 303.5531006,449.9996948 303.5531006,443.0444336
			297.5913696,443.0444336 		"/>
		<polygon fill="#565440" points="332.7178345,391.4841919 332.7178345,404.293396 332.7178345,405.2869873 333.7114258,405.2869873
			365.1571655,405.2869873 365.1571655,409.2615356 370.1252441,409.2615356 370.1252441,381.4401855 363.1699829,381.4401855
			363.1699829,388.3956299 365.1571655,388.3956299 365.1571655,404.293396 333.7114258,404.293396 333.7114258,391.4841919 		"/>
	</g>
	<path fill="none" stroke="#565440" d="M316.4700623,387.4019165c1.0929871,0,1.9872131,0.1987,2.980896,0.5961914
		c0.9935913,0.3974915,1.8877869,0.9935913,2.5834045,1.689209c0.7948914,0.6954956,1.3911133,1.5898132,1.7885132,2.5834045
		s0.5961914,1.9872131,0.5961914,3.0802002h-7.9489136 M333.7113953,391.640625c1.0641785,0,1.934845-0.2299194,2.9023438-0.6898804
		c0.9674072-0.4598389,1.8380432-1.1496887,2.5153198-1.9544678c0.7739563-0.8047791,1.3544617-1.8395996,1.741394-2.9892883
		c0.3869019-1.1497192,0.5804749-2.2994385,0.5804749-3.5641785h-7.7394409 M353.5770569,331.025238
		c0,1.0929871,0.1987,1.9872131,0.5961914,2.9808044s0.9935913,1.8877869,1.689209,2.5834045
		c0.6954956,0.7948914,1.5898132,1.3911133,2.5834045,1.7885132c0.9935913,0.3974915,1.9872131,0.5961914,3.0802002,0.5961914
		v-7.9489136 M334.0410156,331.025238c0,1.0929871-0.1987,1.9872131-0.5961914,2.9808044s-0.9935913,1.8877869-1.689209,2.5834045
		c-0.6954956,0.7948914-1.5898132,1.3911133-2.5834045,1.7885132c-0.9935913,0.3974915-1.9872131,0.5961914-3.0802002,0.5961914
		v-7.9489136 M332.3678284,366.0948486c0-1.0929871-0.1987-1.9872131-0.5961914-2.9808044s-0.9935913-1.8877869-1.689209-2.5834045
		c-0.6954956-0.7948914-1.5898132-1.3911133-2.5834045-1.7885132c-0.9935913-0.3974915-1.9872131-0.5961914-3.0802002-0.5961914
		v7.9489136 M308.5211487,359.580719c0,1.291687-0.2980957,2.4840088-0.7948914,3.6763916
		c-0.4967957,1.1924133-1.1924133,2.3847046-2.1860046,3.2789001c-0.8942871,0.8941956-1.9872131,1.6890869-3.1795959,2.1859131
		c-1.1924133,0.4967957-2.4840088,0.7948914-3.7756958,0.7948914v-9.9361877"/>
</g>
</svg>
