<!-- DO NOT EDIT THIS, THIS FILE IS GENERATED FROM "1_25-36.original.svg" using transform-svgs.js script -->



<svg version="1.1" 
	 xmlns="http://www.w3.org/2000/svg" xmlns:xlink="http://www.w3.org/1999/xlink" x="0px" y="0px" viewBox="0 0 720 480"
	 style="enable-background:new 0 0 720 480;" xml:space="preserve">


<g>
	<polygon fill="#DBD4CA" points="508.2493896,244.8163147 503.5332947,242.8291168 503.5332947,231.8992157
		507.7622986,213.1978149 503.7781067,211.3312225 503.7781067,197.8775177 507.7030029,181.6455078 503.281311,177.8461151
		503.7781067,166.2898102 508.0183105,148.556015 503.7781067,145.45401 503.7781067,132.0401154 507.752594,114.1549149
		503.7781067,113.1613159 503.7781067,102.2314148 507.752594,83.8494186 503.7781067,82.8558121 503.7781067,49.3707161
		506.7589111,37.1491165 480.9247131,31.187418 479.9310913,36.1555138 452.1097107,36.1555138 432.7340088,31.6842175
		431.740387,36.1555138 426.2755127,36.1555138 408.3902893,32.181015 405.4093933,37.1491165 380.5687866,37.1491165
		355.5295105,30.9886169 355.6289063,156.1852112 323.932312,156.1852112 323.8328857,120.4147186 211.7521973,120.4147186
		211.7521973,449.5027161 369.6388855,449.5027161 369.6388855,327.8832397 368.8440857,325.2998352 400.4413147,325.2998352
		400.4413147,359.0830383 412.8616028,358.5862427 430.25,362.5606384 431.2435913,359.0830383 444.558197,357.890625
		470.6903992,363.4549255 472.4789124,359.0830383 482.3157959,359.0830383 503.480011,362.9581299 508.2493896,341.1978455
		503.7781067,340.2041321 503.7781067,327.783844 508.2493896,308.4082336 503.7781067,307.4146423 503.7166138,296.0905457
		507.9849854,279.6655273 504.771698,277.6059265 503.7781067,277.6059265 503.7781067,263.1983337 	"/>
	<g>
		<rect x="369.6388855" y="323.8094177" fill="#565440" width="30.5042114" height="2.980896"/>
		<path fill="#565440" d="M322.9386902,155.8871155H355.52948v0.9936066h-32.5907898V155.8871155z"/>
		<path fill="#565440" d="M321.3489075,168.8042145v2.980896h36.7640076v-2.980896H321.3489075z"/>
	</g>
</g>
<g>
	<polygon fill="none" stroke="#565440" points="322.3424988,120.6134186 211.5534973,120.6134186 211.5534973,237.562912
		213.0440063,237.562912 213.0440063,122.1039124 322.3424988,122.1039124 322.3424988,135.5178223 323.8328857,135.5178223
		323.8328857,120.6134186 	"/>
	<g>
		<polygon fill="#565440" points="254.2792969,202.5874176 252.292099,202.5874176 252.292099,175.3621216 251.2984009,175.3621216
			251.2984009,202.5874176 217.0184021,202.5874176 217.0184021,197.6192169 211.0567017,197.6192169 211.0567017,202.5874176
			211.0567017,205.568222 254.2792969,205.568222 		"/>
		<polygon fill="#565440" points="296.5083008,202.5874176 296.5083008,190.8626099 295.5147095,190.8626099 295.5147095,202.5874176
			294.5210876,202.5874176 282.3988953,202.5874176 282.3988953,176.8525085 295.5147095,176.8525085 295.5147095,183.2117157
			296.5083008,183.2117157 296.5083008,176.8525085 296.5083008,175.958313 296.5083008,175.8589172 264.0168152,175.8589172
			264.0168152,176.2563171 264.0168152,176.8525085 264.0168152,184.6028137 265.0104065,184.6028137 265.0104065,176.8525085
			281.4052124,176.8525085 281.4052124,202.5874176 265.0104065,202.5874176 265.0104065,191.7569122 264.0168152,191.7569122
			264.0168152,202.5874176 263.2219849,202.5874176 263.2219849,205.568222 272.1646118,205.568222 272.1646118,220.4726105
			273.1582031,220.4726105 273.1582031,205.568222 294.5210876,205.568222 294.5210876,235.8737183 273.1582031,235.8737183
			273.1582031,227.4279175 272.1646118,227.4279175 272.1646118,235.8737183 211.0567017,235.8737183 211.0567017,238.8546143
			294.5210876,238.8546143 296.5083008,238.8546143 297.5020142,238.8546143 297.5020142,205.568222 300.880188,205.568222
			300.880188,202.5874176 297.5020142,202.5874176 		"/>
		<rect x="211.0567017" y="176.7532196" fill="#565440" width="5.9617004" height="6.9553986"/>
		<rect x="211.0567017" y="218.7834167" fill="#565440" width="5.9617004" height="6.9553986"/>
		<polygon fill="#565440" points="216.0247955,158.8679199 251.2984009,158.8679199 251.2984009,167.2144165 252.292099,167.2144165
			252.292099,158.8679199 253.4844055,158.8679199 253.4844055,157.8743134 216.0247955,157.8743134 216.0247955,155.8871155
			211.0567017,155.8871155 211.0567017,162.8424225 216.0247955,162.8424225 		"/>
		<rect x="211.0567017" y="135.0210114" fill="#565440" width="5.9617004" height="6.9553986"/>
		<rect x="233.9100037" y="120.1166153" fill="#565440" width="6.9553986" height="5.9617004"/>
		<rect x="297.5020142" y="120.1166153" fill="#565440" width="6.9554138" height="4.9681015"/>
		<polygon fill="#565440" points="319.3616028,135.0210114 319.3616028,175.7595215 310.0216064,175.7595215 310.0216064,176.7532196
			319.3616028,176.7532196 319.3616028,202.5874176 310.8164978,202.5874176 310.8164978,205.568222 324.3298035,205.568222
			324.3298035,202.5874176 324.3298035,135.0210114 		"/>
		<polygon fill="#565440" points="262.9237976,157.8743134 261.9302063,157.8743134 261.9302063,158.8679199 262.9237976,158.8679199
			263.9173889,158.8679199 263.9173889,125.0847168 275.6422119,125.0847168 275.6422119,126.0784149 282.5975952,126.0784149
			282.5975952,125.0847168 282.5975952,120.1166153 275.6422119,120.1166153 254.7760925,120.1166153 254.7760925,125.0847168
			262.9237976,125.0847168 		"/>
	</g>
	<path fill="none" stroke="#565440" d="M310.8164978,205.568222c0,1.2917023-0.2980957,2.4841003-0.7948914,3.6764069
		c-0.4967957,1.1923981-1.1924133,2.3847046-2.1860046,3.279007c-0.8942871,0.8943024-1.9872131,1.6891022-3.1795959,2.1860046
		c-1.1924133,0.4967957-2.4841003,0.7949066-3.7757874,0.7949066v-9.936203 M254.2792969,205.0714111
		c0,1.1923981,0.2980957,2.2852936,0.6954956,3.279007c0.4967957,1.0930023,1.0929871,2.1860046,1.9872131,2.980896
		c0.7948914,0.7949066,1.7885132,1.4904022,2.8815002,1.9873047s2.2853088,0.6954956,3.3782959,0.6954956v-8.9425964
		 M253.5838013,157.8743134c0-1.0930023,0.1987-2.0865936,0.5962067-3.0802002
		c0.3973999-0.9936066,0.9936066-1.9871979,1.7884979-2.6828003c0.6954956-0.7949066,1.689209-1.391098,2.6828003-1.8878937
		c0.9935913-0.3973999,2.0866089-0.5962067,3.1795959-0.5962067v8.2471008 M251.2984009,175.4614105
		c-1.0930023,0-2.0865936-0.1987-3.0802002-0.5962067c-0.9936066-0.3973999-1.9873047-0.9936066-2.6828003-1.7884979
		c-0.7949066-0.6954956-1.4904022-1.6891022-1.8878937-2.6828003c-0.3973999-0.9936066-0.5962067-2.0865936-0.5962067-3.1795959
		h8.2471008 M272.1646118,220.4726105c-0.9935913,0-1.7885132,0.1987-2.6828003,0.4967957
		c-0.8942871,0.3973999-1.689209,0.8943024-2.2853088,1.4904022c-0.6955872,0.5962067-1.291687,1.391098-1.5898132,2.2852936
		c-0.2980957,0.8943024-0.4967957,1.7884979-0.4967957,2.7821045h7.1541138 M265.0104065,184.6028137
		c0.9935913,0,1.7885132,0.1987,2.7821045,0.5962067c0.8942871,0.3973999,1.7885132,0.8941956,2.3847046,1.589798
		c0.6955872,0.5962067,1.291687,1.4904022,1.689209,2.3847046c0.3974915,0.8943024,0.5961914,1.7884979,0.5961914,2.8815002
		h-7.3528137 M296.2102051,183.2117157c1.0929871,0,1.8879089,0.1987,2.8815002,0.5962067
		c0.9935913,0.3973999,1.7885132,0.9936066,2.4841003,1.589798c0.7948914,0.6954956,1.3911133,1.4904022,1.689209,2.4841003
		c0.2980957,0.9936066,0.5961914,1.8878937,0.5961914,2.980896h-7.6509094"/>
</g>
<g>
	<path fill="none" stroke="#565440" d="M211.5534973,242.6304169h1.4904022v64.7842255h-1.4904022V242.6304169z"/>
	<g>
		<polygon fill="#565440" points="217.0184021,275.1218262 217.9127045,275.1218262 217.9127045,272.1410217 217.0184021,272.1410217
			217.0184021,260.2175293 211.0567017,260.2175293 211.0567017,275.1218262 211.0567017,288.0389404 217.0184021,288.0389404 		"/>
		<polygon fill="#565440" points="294.5210876,258.4290161 292.4343872,258.4290161 292.4343872,259.4226379 294.5210876,259.4226379
			294.5210876,272.1410217 273.8536987,272.1410217 273.8536987,259.4226379 285.081604,259.4226379 285.081604,258.4290161
			273.8536987,258.4290161 273.8536987,254.0570221 272.8601074,254.0570221 272.8601074,272.1410217 226.656601,272.1410217
			226.656601,275.1218262 272.2638855,275.1218262 272.2638855,289.2312317 273.2575073,289.2312317 273.2575073,275.1218262
			294.5210876,275.1218262 294.5210876,305.9241333 273.2575073,305.9241333 273.2575073,297.0809326 272.2638855,297.0809326
			272.2638855,305.9241333 216.0247955,305.9241333 216.0247955,301.9496155 211.0567017,301.9496155 211.0567017,308.9050293
			211.2554016,308.9050293 216.0247955,308.9050293 294.5210876,308.9050293 297.5020142,308.9050293 297.5020142,305.9241333
			297.5020142,275.1218262 297.5020142,272.1410217 297.5020142,256.3424377 294.5210876,256.3424377 		"/>
		<polygon fill="#565440" points="294.5210876,235.8737183 217.0184021,235.8737183 216.3229065,235.8737183 211.0567017,235.8737183
			211.0567017,246.4061127 217.0184021,246.4061127 217.0184021,238.8546143 294.5210876,238.8546143 294.5210876,246.4061127
			297.5020142,246.4061127 297.5020142,238.8546143 297.5020142,235.8737183 		"/>
	</g>
	<g>
		<path fill="none" stroke="#565440" d="M273.1582031,289.2312317c1.0929871,0,1.9872131,0.1987915,2.980896,0.5961914
			s1.8879089,0.9935913,2.5834045,1.689209c0.7948914,0.6955872,1.3911133,1.5898132,1.7885132,2.5834045
			s0.5961914,1.9872131,0.5961914,3.0802002h-7.9490051"/>
		<path fill="none" stroke="#565440" d="M285.081604,259.4226379c0,0.9935913,0.1987915,1.8877869,0.5961914,2.7821045
			c0.3974915,0.8942871,0.8942871,1.7885132,1.5898132,2.3847046c0.6954956,0.6954956,1.490387,1.291687,2.3847046,1.6890869
			s1.8879089,0.5961914,2.8815002,0.5961914v-7.4520874"/>
		<path fill="none" stroke="#565440" d="M226.656601,272.1410217c0-1.1924133-0.1987-2.1860046-0.6954956-3.2789917
			c-0.3973999-1.0929871-1.0930023-2.0866089-1.8878937-2.8815002c-0.7949066-0.8942871-1.7884979-1.490387-2.8815002-1.9872131
			c-1.0930023-0.3973999-2.1860046-0.6955872-3.3782959-0.6955872v8.8432922"/>
		<path fill="none" stroke="#565440" d="M297.5020142,246.4061127c1.291687,0,2.4840088,0.2980957,3.6763916,0.7949066
			c1.1924133,0.4967957,2.3847046,1.1923065,3.2789917,2.1860046c0.8942871,0.8943024,1.689209,1.9871979,2.1860046,3.1795959
			c0.4967957,1.1923065,0.7948914,2.4841003,0.7948914,3.7758179h-9.9361877"/>
	</g>
</g>
<g>
	<path fill="none" stroke="#565440" d="M213.0440063,307.4146423h-1.4904022v142.0881042h83.4644012v-1.490387h-81.973999V342.290741
		V307.4146423L213.0440063,307.4146423z"/>
	<g>
		<polygon fill="#565440" points="217.0184021,343.6818237 217.9127045,343.6818237 217.9127045,340.7009277 217.0184021,340.7009277
			217.0184021,322.8157349 211.0567017,322.8157349 211.0567017,340.7009277 211.0567017,343.6818237 211.0567017,350.6372375
			217.0184021,350.6372375 		"/>
		<rect x="211.0567017" y="365.5415344" fill="#565440" width="4.9680939" height="6.9554138"/>
		<polygon fill="#565440" points="251.7953033,395.3502197 251.7953033,400.3183289 252.7888947,400.3183289 252.7888947,395.3502197
			252.7888947,394.3566284 217.0184021,394.3566284 217.0184021,386.4076233 211.0567017,386.4076233 211.0567017,414.229126
			217.0184021,414.229126 217.0184021,395.3502197 		"/>
		<polygon fill="#565440" points="252.7888947,412.2418213 254.7760925,412.2418213 254.7760925,411.24823 252.7888947,411.24823
			252.7888947,408.267334 251.7953033,408.267334 251.7953033,445.0314331 240.8654022,445.0314331 240.8654022,444.0378418
			233.9100037,444.0378418 233.9100037,449.9995422 240.8654022,449.9995422 261.7315063,449.9995422 261.7315063,445.0314331
			252.7888947,445.0314331 		"/>
		<rect x="211.0567017" y="428.1398315" fill="#565440" width="5.9617004" height="6.9554138"/>
		<polygon fill="#565440" points="294.5210876,364.5479431 279.8153992,364.5479431 279.8153992,365.5415344 294.5210876,365.5415344
			294.5210876,385.414032 264.7124023,385.414032 264.7124023,365.5415344 272.1646118,365.5415344 272.1646118,364.5479431
			264.7124023,364.5479431 263.718811,364.5479431 263.718811,411.24823 262.7250977,411.24823 262.7250977,412.2418213
			264.7124023,412.2418213 264.7124023,411.24823 264.7124023,405.286438 276.6358948,405.286438 276.6358948,404.2928162
			264.7124023,404.2928162 264.7124023,386.4076233 294.5210876,386.4076233 294.5210876,404.2928162 284.5848083,404.2928162
			284.5848083,405.286438 294.5210876,405.286438 294.5210876,444.0378418 275.6422119,444.0378418 275.6422119,449.9995422
			297.5020142,449.9995422 297.5020142,445.0314331 297.5020142,444.0378418 297.5020142,355.2078247 294.5210876,355.2078247 		"/>
		<polygon fill="#565440" points="211.0567017,305.9241333 211.0567017,308.9050293 272.2638855,308.9050293 272.2638855,310.1967163
			273.2575073,310.1967163 273.2575073,308.9050293 294.5210876,308.9050293 294.5210876,327.6845398 273.2575073,327.6845398
			273.2575073,317.4501343 272.2638855,317.4501343 272.2638855,340.7009277 226.1598053,340.7009277 226.1598053,343.6818237
			272.6612854,343.6818237 273.2575073,343.6818237 274.5491943,343.6818237 274.5491943,342.6882324 273.2575073,342.6882324
			273.2575073,341.1978455 273.2575073,340.7009277 273.2575073,328.6781311 294.5210876,328.6781311 294.5210876,340.7009277
			288.2612,340.7009277 288.2612,342.6882324 281.5046082,342.6882324 281.5046082,343.6818237 288.2612,343.6818237
			288.9567871,343.6818237 294.5210876,343.6818237 294.5210876,345.1722412 297.5020142,345.1722412 297.5020142,343.6818237
			297.5020142,340.7009277 297.5020142,308.9050293 297.5020142,306.420929 297.5020142,305.9241333 		"/>
	</g>
	<path fill="none" stroke="#565440" d="M251.7953033,408.267334c-1.0930023,0-1.9871979-0.1987-2.980896-0.5961914
		c-0.9936066-0.3974915-1.8878937-0.9935913-2.5834045-1.689209c-0.7949066-0.6955872-1.391098-1.5898132-1.7884979-2.5834045
		s-0.5962067-1.9872131-0.5962067-3.0802002h7.9490051 M273.1582031,317.54953c0.9935913,0,1.8879089-0.1987,2.7821045-0.5961914
		c0.8942871-0.3974915,1.7885132-0.8942871,2.3847046-1.5898132c0.6955872-0.6955872,1.291687-1.490387,1.689209-2.3847046
		s0.5961914-1.8879089,0.5961914-2.8815002h-7.4522095 M262.7250977,412.2418213c0,1.0929871-0.1987,1.9873047-0.5961914,2.980896
		c-0.3973999,0.9935913-0.9935913,1.8879089-1.6890869,2.5834045c-0.6955872,0.7948914-1.5898132,1.3911133-2.5834045,1.7885132
		c-0.9935913,0.3974915-1.9871979,0.5961914-3.0802002,0.5961914v-7.9490051 M276.6358948,405.286438
		c0,1.0929871,0.1987,1.9872131,0.5961914,2.980896c0.3974915,0.9935913,0.9935913,1.8879089,1.689209,2.5834045
		c0.6955872,0.7948914,1.5898132,1.3911133,2.5834045,1.7885132s1.9872131,0.5961914,3.0802002,0.5961914v-7.9490051
		 M280.1134949,365.5415344c0,1.0929871-0.1987,1.9873047-0.5961914,2.980896s-0.9935913,1.8879089-1.689209,2.5834045
		c-0.6955872,0.7948914-1.5898132,1.3911133-2.5834045,1.7885132c-0.9935913,0.3974915-1.9872131,0.5961914-3.0802002,0.5961914
		v-7.9490051 M281.7033081,342.6882324c0-0.9937134-0.1987-1.7885132-0.4967957-2.6828003s-0.8942871-1.689209-1.490387-2.3847046
		c-0.5961914-0.6955872-1.490387-1.291687-2.3847046-1.5898132c-0.8942871-0.2980957-1.7885132-0.4967957-2.7821045-0.4967957
		v7.2533875 M226.1598053,340.7009277c0-1.0929871-0.1987-2.0866089-0.5962067-3.0802002
		c-0.3973999-0.9935913-0.9936066-1.9872131-1.7884979-2.6828003c-0.6954956-0.7948914-1.6891022-1.490387-2.6828003-1.8879089
		c-0.9936066-0.3973999-2.0865936-0.5961914-3.1795959-0.5961914v8.346405 M294.5210876,355.1085205
		c-1.291687,0-2.4840088-0.2980957-3.6763916-0.7948914c-1.1924133-0.4967957-2.3847046-1.1924133-3.2789917-2.1860046
		c-0.8942871-0.8942871-1.689209-1.9872131-2.1860046-3.1795959c-0.4967957-1.1924133-0.7948914-2.4841003-0.7948914-3.7757874
		h9.9361877"/>
</g>
<g>
	<path fill="none" stroke="#565440" d="M368.1474609,448.0125427h-71.9376831v1.490387h73.4281006v-99.3615112h-1.4904175V448.0125427
		L368.1474609,448.0125427z"/>
	<g>
		<polygon fill="#565440" points="339.3325195,445.0316162 318.4666138,445.0316162 318.4666138,449.9996948 346.2878418,449.9996948
			346.2878418,444.0382996 339.3325195,444.0382996 		"/>
		<rect x="364.0659485" y="428.1401978" fill="#565440" width="6.0686927" height="6.9553223"/>
		<polygon fill="#565440" points="365.1665649,366.0668945 332.1919556,366.0668945 332.1919556,367.0604858 332.7271729,367.0604858
			332.7271729,382.6765747 333.7207642,382.6765747 333.7207642,367.0604858 365.1665649,367.0604858 365.1665649,371.5040894
			370.1346436,371.5040894 370.1346436,364.5488281 365.1665649,364.5488281 		"/>
		<polygon fill="#565440" points="364.074707,388.3956299 365.1665649,388.3956299 365.1665649,404.293396 333.7207642,404.293396
			333.7207642,391.4841919 332.7271729,391.4841919 332.7271729,404.293396 332.7271729,405.2869873 333.7207642,405.2869873
			365.1665649,405.2869873 365.1665649,409.2615356 370.1346436,409.2615356 370.1346436,381.4401855 364.074707,381.4401855 		"/>
		<polygon fill="#565440" points="320.4539185,307.9128418 320.4539185,312.8807983 320.4539185,340.7020264 313.4985352,340.7020264
			313.4985352,343.6829224 313.4985352,356.5999146 308.5305176,356.5999146 308.5305176,359.5806885 313.4985352,359.5806885
			316.4794312,359.5806885 322.4417725,359.5806885 322.4417725,367.0606079 324.5276184,367.0606079 324.5276184,366.0670166
			323.4353638,366.0670166 323.4353638,358.5917358 323.4347534,358.5917358 323.4347534,358.5870972 316.4794312,358.5870972
			316.4794312,343.6829224 323.4347534,343.6829224 323.4347534,340.7020264 323.4347534,331.0256958 326.3590698,331.0256958
			326.3590698,330.0321045 323.4347534,330.0321045 323.4347534,312.8807983 347.5828857,312.8807983 347.5828857,330.0316162
			333.7765503,330.0316162 333.7765503,331.0252075 353.7918091,331.0252075 353.7918091,330.0316162 348.5764771,330.0316162
			348.5764771,312.8807983 364.074707,312.8807983 364.074707,330.0317383 361.3744507,330.0317383 361.3744507,331.0253296
			364.074707,331.0253296 364.074707,350.6382446 370.1346436,350.6382446 370.1346436,307.9128418 		"/>
		<polygon fill="#565440" points="297.600769,405.2869873 319.4602661,405.2869873 319.4602661,404.293396 316.4794312,404.293396
			316.4794312,395.3508911 315.4858398,395.3508911 315.4858398,404.293396 297.600769,404.293396 297.600769,379.4530029
			315.4858398,379.4530029 315.4858398,387.4019165 316.4794312,387.4019165 316.4794312,378.4594116 315.4858398,378.4594116
			297.600769,378.4594116 297.600769,359.5806885 298.5943604,359.5806885 298.5943604,356.5999146 294.619812,356.5999146
			294.619812,449.9996948 303.562439,449.9996948 303.562439,444.0382996 297.600769,444.0382996 		"/>
	</g>
	<path fill="none" stroke="#565440" d="M316.4794312,387.4019165c1.0930176,0,1.9872437,0.1987,2.980896,0.5961914
		c0.9935913,0.3974915,1.8878174,0.9935913,2.5834351,1.689209c0.7948608,0.6954956,1.3911133,1.5898132,1.7885132,2.5834045
		s0.5961914,1.9872131,0.5961914,3.0802002h-7.9489136 M333.7207947,391.640625c1.0641785,0,1.934845-0.2299194,2.9023438-0.6898804
		c0.9674072-0.4598389,1.8380432-1.1496887,2.5153198-1.9544678c0.7739563-0.8047791,1.3544617-1.8395996,1.741394-2.9892883
		c0.3869019-1.1497192,0.5804749-2.2994385,0.5804749-3.5641785h-7.7394409 M353.5864563,331.025238
		c0,1.0929871,0.1987,1.9872131,0.5961914,2.9808044s0.9935913,1.8877869,1.689209,2.5834045
		c0.6954956,0.7948914,1.5898132,1.3911133,2.5834045,1.7885132c0.9935913,0.3974915,1.9872131,0.5961914,3.0802002,0.5961914
		v-7.9489136 M334.050415,331.025238c0,1.0929871-0.1987,1.9872131-0.5961914,2.9808044s-0.9935913,1.8877869-1.689209,2.5834045
		c-0.6954956,0.7948914-1.5898132,1.3911133-2.5834045,1.7885132c-0.9935913,0.3974915-1.9872131,0.5961914-3.0802002,0.5961914
		v-7.9489136 M308.5305176,359.580719c0,1.291687-0.2980957,2.4840088-0.7948608,3.6763916
		c-0.4968262,1.1924133-1.1924438,2.3847046-2.1860352,3.2789001c-0.8942871,0.8941956-1.9871826,1.6890869-3.1795654,2.1859131
		c-1.1924438,0.4967957-2.4840088,0.7948914-3.7756958,0.7948914v-9.9361877 M332.3678284,366.0948486
		c0-1.0929871-0.1987-1.9872131-0.5961914-2.9808044s-0.9935913-1.8877869-1.689209-2.5834045
		c-0.6954956-0.7948914-1.5898132-1.3911133-2.5834045-1.7885132c-0.9935913-0.3974915-1.9872131-0.5961914-3.0802002-0.5961914
		v7.9489136"/>
</g>
<g>
	<g>
		<path fill="none" stroke="#565440" d="M412.7557068,357.1939392l15.5004883,3.5770874l-0.2980957,1.490387l-15.5004883-3.5769958
			L412.7557068,357.1939392z"/>
		<path fill="none" stroke="#565440" d="M444.1541138,356.0016174l25.1386108,5.7630005l-0.2980957,1.490387l-25.1387024-5.7630005
			L444.1541138,356.0016174z"/>
		<polygon fill="none" stroke="#565440" points="507.646698,343.0844421 506.156311,342.786438 502.0823975,360.9697266 478.1359863,356.2003174
			477.9372864,357.6907349 503.2746887,362.7582397 503.374115,362.0627441 		"/>

			<rect x="496.1708984" y="252.5410309" transform="matrix(0.2514896 -0.96786 0.96786 0.2514896 132.9409027 678.4694214)" fill="none" stroke="#565440" stroke-width="1.0000414" stroke-miterlimit="4.0001655" width="17.8927383" height="1.488358"/>

			<rect x="496.1737671" y="317.7753296" transform="matrix(0.2514896 -0.96786 0.96786 0.2514896 69.8053818 727.3007813)" fill="none" stroke="#565440" stroke-width="1.0000414" stroke-miterlimit="4.0001655" width="17.8927689" height="1.4883733"/>

			<rect x="496.1723022" y="286.9804688" transform="matrix(0.2514896 -0.96786 0.96786 0.2514896 99.609375 704.2490845)" fill="none" stroke="#565440" stroke-width="1.0000414" stroke-miterlimit="4.0001655" width="17.8927689" height="1.4883733"/>
	</g>
	<g>
		<polygon fill="#565440" points="404.8067017,354.5111389 404.8067017,279.9894409 410.6690979,279.9894409 410.6690979,277.0085449
			404.8067017,277.0085449 404.6079102,277.0085449 399.8385925,277.0085449 399.8385925,359.4792175 404.8067017,359.4792175
			410.0870056,359.4792175 412.5568848,360.075531 413.6499939,355.2067261 410.7684021,354.5111389 		"/>
		<polygon fill="#565440" points="428.653595,357.4920349 427.5606995,362.3607178 430.4421082,363.056427 431.2674866,359.3799438
			444.5516052,359.3799438 444.5516052,353.4182434 428.653595,353.4182434 		"/>
		<polygon fill="#565440" points="469.3922119,359.3710327 468.4978943,363.3544312 471.3793945,364.0500183 472.4277954,359.3799438
			484.2965088,359.3799438 484.2965088,353.4182434 469.3922119,353.4182434 		"/>
		<polygon fill="#565440" points="454.487915,316.753418 454.487915,355.8029175 453.8916931,358.4856262 454.8853149,358.6844177
			455.4815063,356.0016174 455.4815063,317.7471313 456.4750977,317.7471313 456.4750977,316.753418 455.4815063,316.753418 		"/>
		<polygon fill="#565440" points="504.3677063,318.3433228 504.5664978,317.3497314 502.1817932,316.753418 467.6036987,316.753418
			467.6036987,310.2949219 466.6099854,310.2949219 466.6099854,316.753418 464.4241028,316.753418 464.4241028,317.7471313
			501.9830017,317.7471313 		"/>
		<polygon fill="#565440" points="450.8114014,264.0914307 449.8178101,264.0914307 449.8178101,278.9958191 430.6408997,278.9958191
			430.6408997,277.0085449 430.6408997,246.5043182 449.8178101,246.5043182 449.8178101,256.1424255 450.8114014,256.1424255
			450.8114014,246.5043182 508.2427979,246.5043182 508.2427979,243.5235138 430.6408997,243.5235138 428.3555908,243.5235138
			427.6600037,243.5235138 427.6600037,277.0085449 420.4065857,277.0085449 420.4065857,279.9894409 422.3937988,279.9894409
			422.3937988,291.118042 423.3875122,291.118042 423.3875122,279.9894409 430.6408997,279.9894409 434.8140869,279.9894409
			434.8140869,304.8300171 423.3875122,304.8300171 423.3875122,299.0670166 422.3937988,299.0670166 422.3937988,304.8300171
			422.3937988,305.8236389 423.3875122,305.8236389 454.8853149,305.8236389 455.3821106,305.8236389 455.8789063,305.8236389
			455.8789063,298.6695251 454.8853149,298.6695251 454.8853149,304.8300171 435.8077087,304.8300171 435.8077087,279.9894409
			454.8853149,279.9894409 454.8853149,290.72052 455.8789063,290.72052 455.8789063,279.9894409 458.0064087,279.9894409
			458.0064087,278.9958191 450.8114014,278.9958191 		"/>
		<polygon fill="#565440" points="504.1459961,326.0192261 498.1842957,326.0192261 498.1842957,342.7471313 503.5952148,342.7471313
			508.0212097,343.7408447 508.7167053,340.8592224 504.1459961,339.8332214 		"/>
		<polygon fill="#565440" points="504.1459961,296.5685425 504.7421875,294.0986328 499.8734131,293.0056458 499.2009888,295.8871155
			499.177887,295.8871155 499.177887,310.3355408 503.5952148,310.3355408 508.0212097,311.3291321 508.7167053,308.4476318
			504.1459961,307.4215393 		"/>
		<polygon fill="#565440" points="505.8417053,277.0071411 504.1700134,277.0071411 504.1700134,261.1118164 504.1459961,261.1118164
			504.1459961,261.110321 498.1933899,261.110321 498.1925049,277.0085449 466.5971069,277.0085449 466.5971069,278.9958191
			465.9144897,278.9958191 465.9144897,279.9894409 466.5971069,279.9894409 466.6099854,279.9894409 466.6099854,301.9492188
			467.6036987,301.9492188 467.6036987,279.9894409 498.1925049,279.9894409 498.1925049,279.9906311 504.5817871,279.9906311
			505.5577087,279.9880371 508.0238953,280.5853271 508.024292,280.5834351 508.0275879,280.5842285 508.723114,277.7027283 		"/>
	</g>
	<path fill="none" stroke="#565440" d="M464.4305115,317.6906433c0,1.0929871-0.1987,2.0409851-0.5961914,3.0346069
		c-0.3974915,0.9935913-0.9935913,1.8879089-1.689209,2.5834045c-0.6955872,0.7948914-1.5898132,1.3911133-2.5834045,1.7885132
		s-1.9872131,0.5961914-3.0802002,0.5961914v-8.0026855 M455.289093,298.7697449
		c-1.0929871,0-1.9872131-0.1987915-2.980896-0.5961914c-0.9935913-0.3973999-1.8877869-0.9935913-2.5834045-1.689209
		c-0.7948914-0.6955872-1.3911133-1.5898132-1.7885132-2.5834045c-0.3974915-0.9937134-0.5961914-1.9873047-0.5961914-3.0802917
		h7.9490051 M449.9236145,264.1916199c-1.0929871,0-1.9872131-0.1987-2.980896-0.5961914
		c-0.9935913-0.3974915-1.8879089-0.9935913-2.5834045-1.689209c-0.7948914-0.6955872-1.3911133-1.5898132-1.7885132-2.5834045
		s-0.5961914-1.9872131-0.5961914-3.0802917h7.9490051 M465.9208984,279.195343c0-1.0929871-0.1987-1.9872131-0.5961914-2.980896
		c-0.3973999-0.9935913-0.9935913-1.8879089-1.689209-2.5834045c-0.6954956-0.7948914-1.5898132-1.3911133-2.5834045-1.7885132
		s-1.9872131-0.5961914-3.0802917-0.5961914v7.9490051 M422.4002075,291.2181396c-1.0929871,0-1.9872131,0.1987-2.980896,0.5961914
		c-0.9935913,0.3974915-1.8879089,0.9935913-2.5834045,1.689209c-0.7948914,0.6955872-1.3911133,1.5898132-1.7885132,2.5834045
		s-0.5961914,1.9872131-0.5961914,3.0802002h7.9490051 M467.6101074,302.048645c1.1924133,0,2.1859131,0.1987,3.2789001,0.5961914
		c1.0929871,0.3973999,1.9872131,1.0929871,2.6828003,1.7885132c0.7948914,0.6954956,1.490387,1.6890869,1.8879089,2.6828003
		c0.3973999,0.9935913,0.5961914,2.0866089,0.5961914,3.2789917h-8.4458008 M420.4129028,277.1087341
		c0-1.291687-0.2980957-2.4841003-0.7948914-3.6763916c-0.4967957-1.1924133-1.1924133-2.3847046-2.1860046-3.2789001
		c-0.8942871-0.8942871-1.9872131-1.689209-3.1795959-2.1860046c-1.1924133-0.4967957-2.4841003-0.7948914-3.7757874-0.7948914
		v9.9361877"/>
</g>
<g>
	<path fill="none" stroke="#565440" d="M427.6812134,235.7225189c-1.3374939,0-2.4638977-0.2111969-3.660614-0.7039948
		c-1.1966858-0.4927979-2.3230896-1.196701-3.1677856-2.1118927c-0.9855042-0.844696-1.6895142-1.9710999-2.182312-3.1678009
		s-0.7038879-2.4638977-0.7038879-3.8014069h9.7850037 M488.5757141,207.6548157c0-1.0930023,0.1987-2.0865936,0.5961914-3.0802002
		c0.3973999-0.9936066,0.9935913-1.9871979,1.6890869-2.6828003c0.6955872-0.7949066,1.5898132-1.391098,2.6828003-1.8878937
		c0.9935913-0.3973999,2.0866089-0.5962067,3.1795959-0.5962067v8.1477051 M439.1925964,223.9503174
		c0-1.0930023-0.1987-1.9871979-0.5961914-2.980896c-0.3974915-0.9936066-0.9937134-1.8878937-1.689209-2.5834045
		c-0.6955872-0.7949066-1.5898132-1.391098-2.5834045-1.7884979s-1.9872131-0.5962067-3.0802002-0.5962067v7.8495941
		 M450.6192017,192.9492188c-0.9935913,0-1.9872131-0.1987-2.8815002-0.5962067s-1.8879089-0.8943024-2.5834045-1.6891937
		c-0.6954956-0.6954956-1.291687-1.589798-1.6890869-2.4841003s-0.5961914-1.9871979-0.5961914-2.980896h7.8496094"/>
	<g>
		<polygon fill="#565440" points="503.1524048,212.9007111 508.0212097,213.9937134 508.7167053,211.1122131 504.1459961,210.0861206
			504.1390076,196.5207214 498.199585,196.5207214 498.1954956,207.4508209 496.7167969,207.4549103 496.7167969,210.4358215
			498.1943054,210.4371185 498.1933899,212.9007111 		"/>
		<polygon fill="#565440" points="504.1516113,242.6089172 504.1516113,232.4178162 504.9465027,228.9732208 500.1036072,227.8801117
			499.2092896,231.6559143 499.2092896,243.5235138 472.2481079,243.5235138 472.2481079,243.5214081 430.6456909,243.5214081
			430.6456909,235.7007141 430.6419067,235.7007141 430.6419067,235.6986084 427.6610107,235.6986084 427.6610107,246.5023193
			427.6647949,246.5023193 427.6647949,246.5043182 508.247406,246.5043182 508.2477112,246.5044098 508.9432983,243.622818 		"/>
		<polygon fill="#565440" points="504.1401062,177.5862122 504.1459961,172.5714111 427.6600037,172.5789185 427.6600037,225.9364166
			430.6408997,225.9364166 430.6408997,224.6446228 431.5351868,224.6446228 431.5351868,223.6510162 430.6408997,223.6510162
			430.6408997,210.4358215 450.5133057,210.4358215 450.5133057,223.6510162 438.689209,223.6510162 438.689209,224.6446228
			450.5133057,224.6446228 450.5133057,229.2154083 451.5069885,229.2154083 451.5069885,210.4358215 488.5690918,210.4358215
			488.5690918,207.4549103 451.5069885,207.4549103 451.5069885,192.5506134 450.5133057,192.5506134 450.5133057,207.4549103
			430.6408997,207.4549103 430.6408997,175.5597076 450.5133057,175.5597076 450.5133057,185.3965149 451.5069885,185.3965149
			451.5069885,175.5597076 499.1978149,175.5574188 499.1978149,180.632019 504.1401062,180.632019 504.1401062,180.6238098
			507.7171936,181.4269104 508.4126892,178.5453186 		"/>
	</g>
	<g>

			<rect x="496.1678772" y="187.5959778" transform="matrix(0.2514896 -0.96786 0.96786 0.2514896 195.7963562 629.8544312)" fill="none" stroke="#565440" stroke-width="1.0000414" stroke-miterlimit="4.0001655" width="17.8927383" height="1.488358"/>

			<rect x="497.1737671" y="220.6024628" transform="matrix(0.2514896 -0.96786 0.96786 0.2514896 164.008606 654.7642822)" fill="none" stroke="#565440" stroke-width="1.0000414" stroke-miterlimit="4.0001655" width="16.3028584" height="1.488358"/>
	</g>
</g>
<g>
	<g>
		<polygon fill="none" stroke="#565440" points="506.7609863,37.0519142 482.9140015,31.4876175 482.6159058,32.9780159 505.0718079,38.1449165
			502.4884033,49.3728142 502.4884033,68.0529175 503.9787903,68.0529175 503.9787903,49.3728142 		"/>
		<polygon fill="none" stroke="#565440" points="506.3634949,114.1570129 507.8539124,114.4551163 503.8794861,131.8435211 502.3890076,131.545517
			"/>
		<polygon fill="none" stroke="#565440" points="506.3634949,83.3547134 507.8539124,83.6528168 503.8794861,101.041214 502.3890076,100.7431183
			"/>
		<polygon fill="none" stroke="#565440" points="433.0340881,31.6863174 451.7142029,35.9589157 451.4161987,37.4493141 432.7359924,33.176815 		"/>
		<polygon fill="none" stroke="#565440" points="503.8270874,165.3506165 502.3866882,164.9762115 506.6567993,148.452713 508.0971985,148.8270111
			"/>
	</g>
	<path fill="none" stroke="#565440" d="M440.5856934,119.1252136c0-1.0930023,0.1987-1.9871979,0.5961914-2.9809036
		c0.3973999-0.9935989,0.9935913-1.8879013,1.689209-2.5833969c0.6954956-0.794899,1.5898132-1.391098,2.5834045-1.7884979
		s1.9872131-0.596199,3.0802917-0.596199v7.9489975 M450.5219116,82.3611145c-1.0929871,0-1.9872131-0.1987-2.980896-0.596199
		c-0.9935913-0.3973999-1.8877869-0.9935989-2.5834045-1.6892014c-0.7948914-0.6955032-1.3911133-1.589798-1.7885132-2.5833969
		c-0.3974915-0.9935989-0.5961914-1.9871979-0.5961914-3.0802002h7.9490051 M452.5091858,72.4249115
		c0-1.0930023,0.1987-1.9871979,0.5961914-2.9809036c0.3974915-0.9935989,0.9935913-1.8879013,1.689209-2.5833969
		c0.6955872-0.794899,1.5898132-1.391098,2.5834045-1.7884979s1.9872131-0.596199,3.0802002-0.596199v7.9489975
		 M470.3272095,74.412117c1.0929871,0,1.9872131,0.1987,2.980896,0.596199s1.8879089,0.9935989,2.5834045,1.6892014
		c0.7948914,0.6955032,1.3911133,1.589798,1.7885132,2.5833969c0.3974915,0.9935989,0.5961914,1.9871979,0.5961914,3.0802002
		h-7.9490051 M430.6494141,127.0741119c1.291687,0,2.4840088,0.2981033,3.6763916,0.794899
		c1.1924133,0.4968033,2.3847046,1.1922989,3.2789001,2.185997c0.8942871,0.8943024,1.689209,1.9873047,2.1860046,3.1795959
		c0.4967957,1.1923065,0.7948914,2.4841003,0.7948914,3.7758026h-9.9361877 M451.0187073,155.9886169
		c0.9935913,0,1.8879089,0.1987,2.7821045,0.5962067c0.8942871,0.3973999,1.7885132,0.8941956,2.4841003,1.6891022
		c0.6954956,0.6954956,1.291687,1.4904022,1.6890869,2.3847046s0.5961914,1.8878937,0.5961914,2.8815002h-7.5515137
		 M488.7763977,140.7861176c0,1.0930023,0.1987,1.9873047,0.5961914,2.980896
		c0.3974915,0.9936066,0.9935913,1.8878937,1.689209,2.5834045c0.6955872,0.7949066,1.5898132,1.391098,2.5834045,1.7884979
		s1.9872131,0.5962067,3.0802002,0.5962067v-7.9490051"/>
	<g>
		<polygon fill="#565440" points="430.6437073,120.0173187 440.5799866,120.0173187 440.5799866,119.0237122 430.6437073,119.0237122
			430.6437073,101.2378159 450.5162048,101.2378159 450.5162048,119.0237122 448.5289917,119.0237122 448.5289917,120.0173187
			450.5162048,120.0173187 451.5097961,120.0173187 451.5097961,119.0237122 451.5097961,82.3589172 450.5162048,82.3589172
			450.5162048,100.2441177 430.6437073,100.2441177 430.6437073,73.4163132 450.5162048,73.4163132 450.5162048,74.4099121
			451.5097961,74.4099121 451.5097961,73.4163132 452.5033875,73.4163132 452.5033875,72.4227142 430.6437073,72.4227142
			430.6437073,38.6395149 433.6246033,38.6395149 435.214386,31.8829174 432.3328857,31.1873169 431.2807922,35.6586151
			430.6437073,35.6586151 427.6629028,35.6586151 427.6629028,127.0720139 430.6437073,127.0720139 		"/>
		<polygon fill="#565440" points="469.3951111,72.4227142 460.4523926,72.4227142 460.4523926,73.4163132 469.3951111,73.4163132
			469.3951111,74.4388123 470.3887024,74.4388123 470.3887024,40.6267166 483.3057861,40.6267166 483.3057861,40.6045151
			483.4050903,40.6267166 485.3923035,31.8829174 480.5235901,30.7898178 479.4171143,35.6586151 470.3887024,35.6586151
			448.5289917,35.6586151 448.5289917,38.6395149 469.3951111,38.6395149 		"/>
		<polygon fill="#565440" points="504.9437866,99.8757172 500.1008911,98.7827148 499.206604,102.5585175 499.206604,115.5341187
			504.1488953,115.5341187 504.1488953,115.5260162 507.7260132,116.3290176 508.4215088,113.4475174 504.1488953,112.4884186
			504.1488953,103.3203125 		"/>
		<polygon fill="#565440" points="470.3656921,82.3611145 469.3720093,82.3611145 469.3720093,83.8265152 462.416687,83.8265152
			462.416687,84.8202133 504.1488953,84.8120117 507.7260132,85.6151123 508.4215088,82.7335129 504.1488953,81.7744141
			504.1488953,67.0624161 498.2054138,67.0624161 498.2054138,83.8265152 470.3656921,83.8265152 		"/>
		<polygon fill="#565440" points="503.589386,148.3273163 508.0169067,149.3211212 508.0172119,149.3202209 508.0202026,149.3209229
			508.7157898,146.4394226 504.1451111,145.4133148 504.1455078,144.4653168 504.1455994,144.4653168 504.1455994,144.2458191
			504.1469116,140.9824219 504.1488953,140.9824219 504.1488953,131.5716095 498.1961975,131.5716095 498.1961975,138.0015106
			498.1962891,138.0015106 498.1962891,138.0018158 496.719696,138.0018158 496.719696,140.9824219 498.1961975,140.9824219
			498.1961975,140.9850159 498.1962891,140.9850159 498.1962891,148.3273163 		"/>
		<polygon fill="#565440" points="504.9361877,164.9171143 500.0932007,163.8241119 499.1989136,167.5999146 499.1989136,172.5799103
			491.7416077,172.5799103 451.5097961,172.5799103 451.5097961,163.2399139 450.5162048,163.2399139 450.5162048,172.5799103
			430.6437073,172.5799103 430.6437073,146.4476166 450.5162048,146.4476166 450.5162048,156.1851196 451.5097961,156.1851196
			451.5097961,140.9827118 488.7706909,140.9827118 488.7706909,138.0018158 446.6411133,138.0018158 446.6411133,140.9827118
			450.5162048,140.9827118 450.5162048,145.45401 430.6437073,145.45401 430.6437073,137.0082092 427.6629028,137.0082092
			427.6629028,175.5607147 504.1485901,175.5607147 504.1463928,172.0898132 504.1434937,172.0898132 504.1412048,168.3617096 		"/>
	</g>
</g>
<g>
	<g>
		<path fill="none" stroke="#565440" d="M406.8998108,31.5848179l19.3757019,4.4712963l-0.2980957,1.4903984l-19.3756104-4.5707016
			L406.8998108,31.5848179z"/>
		<path fill="none" stroke="#565440" d="M355.1321106,99.2505188h1.490387v28.815094h-1.490387V99.2505188z"/>
		<polygon fill="none" stroke="#565440" points="355.1321106,30.6905174 355.1321106,59.9031143 356.6224976,59.9031143 356.6224976,32.6778145
			374.1102905,37.2485161 374.5076904,35.7580147 		"/>
	</g>
	<g>
		<polygon fill="#565440" points="428.2626953,35.6587143 427.6665955,35.6587143 423.6921082,35.6587143 423.6921082,41.6204147
			427.6665955,41.6204147 427.6665955,76.3972168 404.8132019,76.3972168 404.8132019,77.3908157 407.7940979,77.3908157
			407.7940979,86.3334122 408.7876892,86.3334122 408.7876892,77.3908157 427.6665955,77.3908157 427.6665955,103.2250137
			408.7876892,103.2250137 408.7876892,94.1831131 407.7940979,94.1831131 407.7940979,104.2186127 408.7876892,104.2186127
			427.6665955,104.2186127 427.6665955,123.0975189 425.6792908,123.0975189 425.6792908,126.0784149 427.6665955,126.0784149
			430.6473999,126.0784149 430.6473999,35.6587143 		"/>
		<polygon fill="#565440" points="358.9078064,100.2442169 360.1001892,100.2442169 394.8770142,100.2442169 394.8770142,99.2505188
			394.8770142,88.3207169 393.8833923,88.3207169 393.8833923,99.2505188 381.5624084,99.2505188 381.5624084,77.3908157
			381.5624084,77.3908157 381.5624084,76.3972168 379.5751953,76.3972168 379.5751953,77.3908157 380.5687866,77.3908157
			380.5687866,99.2505188 360.1001892,99.2505188 360.1001892,77.3908157 372.0237122,77.3908157 372.0237122,76.3972168
			360.1001892,76.3972168 360.1001892,50.563015 354.1384888,50.563015 354.1384888,51.5566139 351.1575928,51.5566139
			351.1575928,54.5375137 354.1384888,54.5375137 354.1384888,66.4610138 351.1575928,66.4610138 351.1575928,69.4418182
			354.1384888,69.4418182 354.1384888,81.3653183 351.1575928,81.3653183 351.1575928,84.3462143 354.1384888,84.3462143
			354.1384888,97.2633133 351.1575928,97.2633133 351.1575928,100.2442169 354.1384888,100.2442169 		"/>
		<rect x="351.1575928" y="112.1676178" fill="#565440" width="6.9554138" height="2.9809036"/>
		<polygon fill="#565440" points="374.0108948,39.6331139 375.9981995,39.6331139 375.9981995,41.6204147 382.9534912,41.6204147
			382.9534912,39.6331139 393.8833923,39.6331139 393.8833923,80.3717117 394.8770142,80.3717117 394.8770142,77.3908157
			396.8642883,77.3908157 396.8642883,76.3972168 394.8770142,76.3972168 394.8770142,39.6331139 407.3966064,39.6331139
			407.7940979,39.7325134 409.5826111,31.982317 406.7011108,31.2867165 405.5087891,36.652317 382.9534912,36.652317
			378.1841125,36.652317 374.2095947,35.0625153 373.1166077,37.8446159 374.0108948,38.242115 		"/>
		<polygon fill="#565440" points="400.8387146,123.0975189 400.8387146,124.0911179 407.7940979,124.0911179 407.7940979,126.0784149
			407.7940979,138.9955139 404.8132019,138.9955139 401.8323975,138.9955139 401.8323975,152.9062195 372.0237122,152.9062195
			372.0237122,146.944519 371.0300903,146.944519 371.0300903,152.9062195 371.0300903,153.8998108 383.947113,153.8998108
			383.947113,154.8934174 384.9407959,154.8934174 384.9407959,153.8998108 401.8323975,153.8998108 401.8323975,168.8042145
			384.9407959,168.8042145 384.9407959,162.8424225 383.947113,162.8424225 383.947113,168.8042145 360.1001892,168.8042145
			360.1001892,147.9381104 363.0810852,147.9381104 363.0810852,146.944519 360.1001892,146.944519 360.1001892,127.0720139
			354.1384888,127.0720139 351.1575928,127.0720139 351.1575928,130.0528107 354.1384888,130.0528107 354.1384888,142.9700165
			351.1575928,142.9700165 351.1575928,145.9508209 354.1384888,145.9508209 354.1384888,171.7850189 356.1257019,171.7850189
			360.1001892,171.7850189 401.8323975,171.7850189 402.6272888,171.7850189 404.8132019,171.7850189 404.8132019,141.9763184
			407.7940979,141.9763184 410.7749939,141.9763184 410.7749939,126.0784149 415.743103,126.0784149 415.743103,123.0975189
			407.7940979,123.0975189 		"/>
	</g>
	<path fill="none" stroke="#565440" d="M404.8132019,76.3972168c0-1.0930023-0.1987-1.9872971-0.5961914-2.9809036
		c-0.3973999-0.9935989-0.9935913-1.8879013-1.6890869-2.5833969c-0.6955872-0.794899-1.5898132-1.391098-2.5834045-1.7884979
		c-0.9935913-0.3974991-1.9872131-0.596199-3.0802002-0.596199v7.9489975 M393.8833923,80.3717117
		c-1.0929871,0-1.9872131,0.1987-2.980896,0.596199c-0.9935913,0.3973999-1.8877869,0.9935989-2.5834045,1.6892014
		c-0.7948914,0.6955032-1.3911133,1.589798-1.7885132,2.5833969c-0.3974915,0.9935989-0.5961914,1.9871979-0.5961914,3.0802002
		h7.9490051 M407.7940979,94.1831131c-1.0929871,0-1.9872131-0.1987-2.980896-0.596199
		c-0.9935913-0.3974991-1.8879089-0.9935989-2.5834045-1.6892014c-0.7948914-0.6955032-1.3911133-1.589798-1.7885132-2.5833969
		c-0.3974915-0.9935989-0.5961914-1.9872971-0.5961914-3.0802002h7.9490051 M371.9242859,77.3908157
		c0,0.9935989,0.1987,1.8879013,0.5961914,2.7820969c0.3974915,0.8943024,0.8942871,1.7884979,1.689209,2.4841003
		c0.6955872,0.6955032,1.5898132,1.2917023,2.4841003,1.6892014s1.8879089,0.596199,2.8815002,0.596199v-7.5514984
		 M371.0300903,146.944519c0-1.0930023-0.1987915-1.9871979-0.5961914-2.980896s-0.9935913-1.8878937-1.689209-2.5834045
		c-0.6954956-0.7949066-1.5898132-1.391098-2.5834045-1.7884979s-1.9873047-0.5962067-3.0802917-0.5962067v7.9490051
		 M383.947113,162.8424225c-1.0929871,0-1.9872131-0.1987-2.980896-0.5962067
		c-0.9935913-0.3973999-1.8879089-0.9936066-2.5834045-1.6891022c-0.7948914-0.6954956-1.3911133-1.589798-1.7885132-2.5834045
		s-0.5961914-1.9871979-0.5961914-3.0802002h7.9490051 M415.743103,123.0975189
		c0-1.2917023,0.2980957-2.4841003,0.7948914-3.6763992s1.1924133-2.384697,2.1860046-3.2789993
		c0.8942871-0.8943024,1.9872131-1.6892014,3.1795959-2.185997s2.4841003-0.794899,3.7757874-0.794899v9.936203"/>
</g>
<g >
	<rect x="355" y="-0.0000832" fill="none" width="10" height="10"/>
	<rect x="181.0522003" y="235.0000153" fill="none" width="10" height="10"/>
	<rect x="355" y="469.999939" fill="none" width="10" height="10"/>
	<rect x="528.9432983" y="235.0000153" fill="none" width="10" height="10"/>
</g>
<g >
	<path data-nr="4" class="plan__svg__hoverable" fill="none" d="M304.4573059,120.1167145L304.4573059,120.1167145l-6.9554138-0.0000992v0.0000992
		h-14.9043884v-0.0000992h-6.9554138h-20.8661041v0.0000992h-13.9107056v-0.0000992h-6.9553986v0.0000992H211.056778v0.4966965
		v14.4074936h-0.0001984v6.9553986h0.0001984v13.9107056h-0.0001984v6.9553986h0.0001984v13.9107056h-0.0001984v6.9553986h0.0001984
		v12.3630981v1.547699h-0.0001984v4.9680939v2.980896h0.0001984v0.0001068v13.2151947h-0.0001984v6.9553986h0.0001984v10.134903
		h-0.0001984v2.980896h83.4642944h1.9872131h0.9937134v-33.2863007h2.8815918v10.4329987h0.4967957
		c1.2875977,0,2.6592102-0.2881927,3.9667053-0.8329926c1.1736145-0.4886017,2.3283081-1.2817993,3.3210144-2.2754059
		c0.9252014-0.8325958,1.7029114-1.9954987,2.3117981-3.4568024c0.5686035-1.3648071,0.8334961-2.5937042,0.8334961-3.8677979
		h12.5195923v-0.0001068h0.4967957v-2.980896v-66.5727081h0.0002136v-15.8980026h-19.8724976V120.1167145z M309.5628967,209.0537109
		c-0.5520935,1.3244934-1.2449036,2.3675995-2.0784912,3.1186981c-0.9202881,0.9203949-1.9649048,1.6394043-3.0197144,2.0789032
		c-1.0188904,0.4244995-2.0765076,0.6773071-3.0875854,0.7409058v-9.4239044h8.9425964
		C310.3197937,206.7065125,310.0791016,207.8141174,309.5628967,209.0537109z"/>
	<path data-nr="3" class="plan__svg__hoverable" fill="none" d="M307.9352112,256.3425293c0-1.2876129-0.288208-2.6587219-0.8334961-3.9667206
		c-0.489502-1.1750946-1.2822876-2.3298035-2.2749939-3.3215027c-0.8334961-0.925705-1.9968872-1.7039032-3.4573059-2.3123016
		c-1.3435974-0.559494-2.6105957-0.8220978-3.8674011-0.8296051v-7.0578003v-1.9835052v-0.997406h-2.980896h-77.502594h-0.6954956
		h-5.2662048v10.5323944h0.0001984v13.8114166h-0.0001984v14.9043884v12.9171143h0.0001984v13.9107056h-0.0001984v6.9554138h0.1987
		h4.7693939h78.4962006h2.980896v-0.993103v-1.9877014v-30.8023071v-2.980896v-15.3016968h10.433197V256.3425293z
		 M297.5020142,255.8457184v-8.9396057c1.1216125,0.0075989,2.2669067,0.2460022,3.4851074,0.7539063
		c1.3234863,0.5511017,2.3666077,1.2440033,3.1191101,2.0783997c0.9198914,0.9188995,1.6383972,1.9629974,2.0784912,3.0196991
		c0.4249878,1.0189056,0.6777954,2.0764923,0.7413025,3.0876007H297.5020142z"/>
	<polygon data-nr="2" class="plan__svg__hoverable" fill="none" points="211.0567017,305.9242249 211.0567017,308.9050293 211.0569,308.9050293
		211.0569,322.8158264 211.0567017,322.8158264 211.0567017,340.7010193 211.0567017,343.6819153 211.0567017,350.6372375
		211.0569,350.6372375 211.0569,365.5415344 211.0567017,365.5415344 211.0567017,372.4969177 211.0569,372.4969177
		211.0569,386.4076233 211.0567017,386.4076233 211.0567017,414.229126 211.0569,414.229126 211.0569,428.1398315
		211.0567017,428.1398315 211.0567017,435.0952454 211.0569,435.0952454 211.0569,450.0000305 295.5148926,450.0000305
		295.5148926,449.9995422 297.5020142,449.9995422 297.5020142,449.0064392 297.5020142,445.0314331 297.5020142,444.0378418
		297.5020142,355.2079163 297.5020142,345.1723328 297.5020142,343.6819153 297.5020142,340.7010193 297.5020142,308.9050293
		297.5020142,307.6276245 297.5020142,306.4210205 297.5020142,305.9242249 	"/>
	<polygon data-nr="1" class="plan__svg__hoverable" fill="none" points="370.0364075,349.6441345 370.0364075,307.911438 369.9371033,307.911438
		365.0682983,307.911438 320.3552856,307.911438 320.3552856,312.8795166 320.3552856,340.7010193 313.3999023,340.7010193
		313.3999023,343.6819153 313.3999023,356.598938 308.4317932,356.598938 298.4956055,356.598938 297.9989014,356.598938
		297.5020142,356.598938 294.5210876,356.598938 294.5210876,449.9995422 295.6138916,449.9995422 295.6138916,450.0000305
		370.0365906,450.0000305 370.0365906,349.6441345 	"/>
	<path data-nr="8" class="plan__svg__hoverable" fill="none" d="M504.1459961,307.4216309V296.568634l0.4836121-2.0032959l4.0638123-15.6411133
		l-0.2495117-0.0647888l0.2792053-1.1567078l-2.8815002-0.6955872h-1.6716003v-15.1104126l3.9992981-15.3923187h0.0734863
		v-0.2828064l0.4515076-1.7378998l-0.4515076-0.1172028v-0.8430939h-77.6018982h-2.2853088h-0.6955872v33.4850159h-3.9472046
		h-2.8051147c-0.0032043-0.2893982-0.0161133-0.577301-0.0472107-0.8645935
		c-0.0945129-0.9764099-0.3482056-1.949707-0.7874146-3.0039063c-0.6073914-1.4599915-1.3857117-2.6229858-2.2939148-3.4403992
		c-1.0116882-1.0126953-2.1679993-1.8056946-3.3407898-2.2939148c-1.3075867-0.5448914-2.6796875-0.8330078-3.967804-0.8330078h-0.5
		v10.4354858h0.0058899v0.0003967h-4.8232117h-0.3467102h-0.1987h-4.7694092v82.4707947h4.9681091h5.280304l2.4699097,0.5963135
		l0.1827087-0.8136902l15.6080017,3.6018066l0.0596008-0.2984924l2.0349121,0.4913025l0.8252869-3.6765137h13.2842102v-1.2148132
		l24.8330994,5.6925964l0.0552063-0.2759094l1.9395142,0.4682007l1.0483093-4.670105h11.4059143l19.8606873,3.9719849
		l0.1669922-1.1796875l4.1506042-18.4335022l0.0091858,0.0021057l0.6955872-2.8815002l-4.5707092-1.0260925v-12.6123962
		l4.5483093-17.5007019l-0.2679138-0.0696106l0.2903137-1.2027893L504.1459961,307.4216309z M410.976593,267.6878357
		c1.0087891,0.0635071,2.0645142,0.3164063,3.0840149,0.7412109c1.0556946,0.4403992,2.0996094,1.1592102,3.0371094,2.0967102
		c0.8145142,0.7314148,1.5068054,1.7744141,2.0585938,3.0986023c0.3854065,0.9237976,0.6163025,1.7742004,0.7090149,2.619812
		c0.0246887,0.254303,0.0409851,0.5083008,0.0409851,0.7640076h0.0014954c0,0.0000916,0,0.0002136,0,0.0003967h-8.9312134
		V267.6878357z"/>
	<path data-nr="7" class="plan__svg__hoverable" fill="none" d="M504.1516113,242.6088104v-10.1909943l0.7948914-3.4445953l-0.2940979-0.0664063
		l4.0516968-15.5924988l-0.4883118-0.1266937l0.5010071-2.0753937l-4.5707092-1.0260925l-0.0067139-13.0171967l4.5549927-17.5305023
		l-0.490509-0.127594l0.2088928-0.8654022l-4.2726135-0.959198l0.0058899-5.014801l-76.4859924,0.0074005v52.8585052h-10.1932068
		v0.5c0,1.4750977,0.2421875,2.7808075,0.7412109,3.9916992c0.5770874,1.4033051,1.3573914,2.5326996,2.2773132,3.3164063
		c0.8349915,0.9048004,1.9912109,1.6777039,3.344696,2.2353973c1.2391052,0.5102997,2.4219971,0.7386017,3.8309937,0.740799
		v10.2805939h0.0036926v0.0021057h80.5826111l0.0003052,0.0001068l0.6955872-2.8815002L504.1516113,242.6088104z
		 M421.1777039,232.5272217c-0.8398132-0.7207031-1.5282898-1.722702-2.0448914-2.9785004
		c-0.3916016-0.9512024-0.6073914-1.9730988-0.655304-3.1112976h9.2744141v9.2613068h-0.0712891v-0.4761047
		c-1.280304,0-2.3505859-0.2055969-3.469696-0.6665039C422.9912109,234.0535126,421.9570007,233.3660126,421.1777039,232.5272217z"
		/>
	<polygon data-nr="6" class="plan__svg__hoverable" fill="none" points="508.254303,148.3510132 508.7157898,146.4394226 504.1451111,145.4133148
		504.1453857,144.4653168 504.1455994,144.4653168 504.1455994,144.2458191 504.1469116,140.9824219 504.1488953,140.9824219
		504.1488953,132.4070129 504.2587891,132.4290161 508.4551086,114.065712 508.2807007,114.0308151 508.4215088,113.4475174
		504.1488953,112.4883118 504.1488953,103.3203125 504.9437866,99.8757172 504.6730042,99.8146133 508.4551086,83.2630157
		508.3010864,83.2322159 508.4215088,82.7335129 504.1488953,81.7744141 504.1488953,68.5530167 504.4784851,68.5530167
		504.4784851,49.4285164 507.3573914,36.6780167 482.5253906,30.8836174 482.4572144,31.223917 480.5235901,30.789917
		479.4171143,35.6586151 470.3887024,35.6586151 452.2840881,35.6586151 452.2998047,35.5799141 432.6445007,31.0843163
		432.6105042,31.2543163 432.3328857,31.1873169 431.2807922,35.6586151 430.6437073,35.6586151 427.6628113,35.6586151
		427.6628113,88.8540115 427.6628113,127.0720139 427.6628113,137.0082092 427.6628113,155.9886169 427.6628113,173.0013123
		427.6628113,175.5607147 504.1485901,175.5607147 504.1463928,172.0898132 504.1434937,172.0898132 504.1412048,168.3617096
		504.9361877,164.9171143 504.4816895,164.8145142 508.7070007,148.4686127 	"/>
	<path data-nr="5" class="plan__svg__hoverable" fill="none" d="M428.2626953,35.6586151h-0.5961914h-0.9049072l-20.2424011-4.6715984
		l-0.5054932,2.3602962l0.2181091,0.0513992l-0.7229919,3.2535019h-22.5552979h-4.7694092l-3.0729065-1.2291985l0.0050964-0.0191002
		l-0.1528015-0.0400009l-0.7538147-0.3014984l-0.0372009,0.0946999l-19.5369873-5.1098976v11.6261978
		c-0.1131897,2.6869011-0.2319946,5.7145004-0.3411865,8.8894997h-0.1557922v0.9935989h-2.980896v2.9808998h2.980896v0.9192009
		c-0.1080017,3.7075996-0.1931152,7.4710007-0.2326965,11.0042992h-2.7481995v2.9809036h2.7261047
		c-0.0144043,4.2798004,0.0546875,8.055397,0.2546997,10.7346039v1.188797h-2.980896v2.9809036h2.980896v12.917099h-2.980896
		v2.9809036h2.980896h0.4970093v11.9235001h-3.4778137v2.9809036h3.4778137v11.9235001h-0.4970093h-2.980896v2.9809036h2.980896
		v12.917099h-2.980896v2.980896h2.980896v25.834198h1.9872131h3.9744873h41.7322083h0.7948914h2.1860046v-29.8087006h2.980896
		h2.980896v-15.8980026h0.9411926h4.0270081h9.9361877h0.5961914h1.3911133h2.980896V35.6586151
		C430.6473999,35.6586151,428.2626953,35.6586151,428.2626953,35.6586151z M355.6290894,100.2441177h0.4967957v7.2301025
		c-0.0578918,1.589798-0.1221008,3.1652985-0.1895142,4.6933975h-0.307312v-11.9235001H355.6290894z M355.7986145,115.1485138
		c-0.0567017,1.1746979-0.1138,2.3003998-0.1694946,3.3607025v-3.3607025H355.7986145z"/>
</g>
</svg>
