<!-- DO NOT EDIT THIS, THIS FILE IS GENERATED FROM "1_4-6.original.svg" using transform-svgs.js script -->



<svg version="1.1" 
	 xmlns="http://www.w3.org/2000/svg" xmlns:xlink="http://www.w3.org/1999/xlink" x="0px" y="0px" viewBox="0 0 720 480"
	 style="enable-background:new 0 0 720 480;" xml:space="preserve">


<g>
	<polygon fill="#DBD4CA" points="508.3723145,244.8691101 503.901001,242.8819122 503.901001,231.9520111
		508.3723145,212.0795135 503.901001,210.0923157 503.901001,197.9890137 508.0454102,180.0718079 503.901001,177.898819
		503.901001,166.6990204 508.1402893,147.9862213 503.901001,145.5067139 503.901001,132.0927124 507.8754883,114.2074127
		503.901001,113.2138138 503.901001,102.2839127 507.8754883,83.9019165 503.901001,82.9083176 503.901001,49.4231148
		506.881897,37.2015152 481.0476074,31.2398167 480.0539856,36.2079163 452.2325134,36.2079163 432.8568115,31.736618
		431.8631897,36.2079163 426.3982849,36.2079163 408.5130005,32.2334137 405.5321045,37.2015152 380.6914978,37.2015152
		355.6520996,31.0411167 355.7514954,156.2378082 324.0549011,156.2378082 323.9555054,120.4673157 211.8746948,120.4673157
		211.8746948,449.5558167 369.7615967,449.5558167 369.7615967,327.9361267 368.9667053,325.3527222 400.5639954,325.3527222
		400.5639954,359.1359253 412.984314,358.6391296 430.3727112,362.6136169 431.366394,359.1359253 444.8161926,357.5664368
		470.9617004,363.5095215 472.0965881,358.9654236 484.5050049,359.1359253 503.4042053,362.9117432 508.3723145,341.2507324
		503.901001,340.257019 503.901001,327.836731 508.3723145,308.7376404 503.901001,307.7440186 503.4042053,296.040741
		508.1864929,279.3520203 504.8945923,277.6587219 503.901001,277.6587219 503.901001,263.2511292 	"/>
	<g>
		<rect x="369.7615967" y="323.8622437" fill="#565440" width="30.504303" height="2.980896"/>
		<path fill="#565440" d="M323.0611877,155.9397125h32.5909119v0.9936066h-32.5909119V155.9397125z"/>
		<path fill="#565440" d="M321.4714966,168.8568115v2.980896h36.7640991v-2.980896H321.4714966z"/>
	</g>
</g>
<g>
	<polygon fill="none" stroke="#565440" points="322.4444885,120.6660156 211.655304,120.6660156 211.655304,198.168808
		213.1457977,198.168808 213.1457977,122.1564178 322.4444885,122.1564178 322.4444885,135.5704193 323.9349976,135.5704193
		323.9349976,120.6660156 	"/>
	<g>
		<rect x="211.1585999" y="176.8058167" fill="#565440" width="6.9553986" height="6.9553986"/>
		<polygon fill="#565440" points="216.1266937,158.9206085 253.8843994,158.9206085 253.8843994,160.9078217 254.8780975,160.9078217
			254.8780975,158.9206085 256.8652954,158.9206085 256.8652954,157.9270172 216.1266937,157.9270172 216.1266937,155.9397125
			211.1585999,155.9397125 211.1585999,162.8951111 216.1266937,162.8951111 		"/>
		<rect x="211.1585999" y="135.0736084" fill="#565440" width="6.9553986" height="6.9553986"/>
		<rect x="234.0119019" y="120.1692123" fill="#565440" width="6.9553986" height="6.9553986"/>
		<rect x="297.6039124" y="120.1692123" fill="#565440" width="6.9554138" height="4.9681015"/>
		<polygon fill="#565440" points="319.4637146,135.0736084 319.4637146,175.8122101 307.5401917,175.8122101 307.5401917,169.8505096
			306.5465088,169.8505096 306.5465088,176.8058167 307.5401917,176.8058167 319.4637146,176.8058167 319.4637146,202.6401215
			310.7197876,202.6401215 310.7197876,205.6210175 324.4317932,205.6210175 324.4317932,202.6401215 324.4317932,135.0736084 		"/>
		<polygon fill="#565440" points="265.8078918,157.9270172 264.8143005,157.9270172 264.8143005,158.9206085 265.8078918,158.9206085
			266.8016052,158.9206085 266.8016052,125.1373138 275.7442017,125.1373138 275.7442017,127.1246185 282.699585,127.1246185
			282.699585,125.1373138 282.699585,120.1692123 275.7442017,120.1692123 254.8780975,120.1692123 254.8780975,125.1373138
			265.8078918,125.1373138 		"/>
		<polygon fill="#565440" points="294.6229858,186.7421112 293.6293945,186.7421112 293.6293945,202.6401215 274.7504883,202.6401215
			274.7504883,176.8058167 293.6293945,176.8058167 293.6293945,178.7931213 294.6229858,178.7931213 294.6229858,176.8058167
			294.6229858,175.8122101 294.6229858,169.8505096 293.6293945,169.8505096 293.6293945,175.8122101 254.8780975,175.8122101
			254.8780975,168.8568115 253.8843994,168.8568115 253.8843994,185.7485199 254.8780975,185.7485199 254.8780975,176.8058167
			273.756897,176.8058167 273.756897,202.6401215 254.8780975,202.6401215 254.8780975,193.6975098 253.8843994,193.6975098
			253.8843994,202.6401215 218.1139069,202.6401215 218.1139069,197.6720123 211.1585999,197.6720123 211.1585999,202.6401215
			211.158493,205.6210175 300.7835083,205.6210175 300.7835083,202.6401215 294.6229858,202.6401215 		"/>
	</g>
	<path fill="none" stroke="#565440" d="M310.7197876,205.6210175c0,1.2917023-0.2980957,2.4841003-0.7948914,3.6764069
		s-1.1924133,2.3847046-2.1860046,3.279007c-0.8942871,0.8943024-1.9872131,1.6891937-3.1795959,2.1860046
		c-1.1924133,0.4967957-2.4840088,0.7949066-3.7757874,0.7949066v-9.936203 M256.8652954,157.9270172
		c0-1.0930023,0.1987-1.9873047,0.5961914-2.980896c0.3974915-0.9936066,0.9935913-1.8878937,1.689209-2.5834045
		c0.6955872-0.7949066,1.5898132-1.391098,2.5834045-1.7884979s1.9872131-0.5962067,3.0802002-0.5962067v7.9490051
		 M253.8843994,168.8568115c-1.0930023,0-1.9871979-0.1987-2.980896-0.5962067
		c-0.9936066-0.3973999-1.8878937-0.9936066-2.5834045-1.6891937c-0.7949066-0.6954956-1.391098-1.589798-1.7884979-2.5834045
		s-0.5962067-1.9871979-0.5962067-3.0802002h7.9490051 M253.8843994,185.7485199c-1.0930023,0-1.9871979,0.1987-2.980896,0.5962067
		c-0.9936066,0.3973999-1.8878937,0.9936066-2.5834045,1.6891022c-0.7949066,0.6954956-1.391098,1.589798-1.7884979,2.5834045
		s-0.5962067,1.9873047-0.5962067,3.0802002h7.9490051 M293.6293945,186.7421112c-1.0929871,0-1.9872131-0.1987-2.980896-0.5962067
		c-0.9935913-0.3973999-1.8879089-0.9936066-2.5834045-1.6891022c-0.7948914-0.6954956-1.3911133-1.589798-1.7885132-2.5834045
		s-0.5961914-1.9873047-0.5961914-3.0802002h7.9490051"/>
</g>
<g>
	<path fill="none" stroke="#565440" d="M211.655304,205.124115h1.4904022v55.6429138h-1.4904022V205.124115z"/>
	<path fill="none" stroke="#565440" d="M253.8843994,236.4233093c0-1.0930023,0.1987-1.9873047,0.5962067-2.980896
		c0.3973999-0.9936066,0.9936066-1.8878937,1.6891022-2.5834045c0.6955872-0.7949066,1.5898132-1.391098,2.5834045-1.7884979
		s1.9872131-0.5962067,3.0802002-0.5962067v7.9490051 M279.718689,229.4680176c0-1.0930023-0.1987-1.9871979-0.5961914-2.980896
		c-0.3973999-0.9936066-0.9935913-1.8878937-1.689209-2.5834045c-0.6954956-0.7949066-1.5898132-1.391098-2.5834045-1.7884979
		s-1.9872131-0.5962067-3.0802002-0.5962067v7.9490051 M297.6039124,238.9074097
		c1.291687,0,2.4840088,0.2980957,3.6763916,0.7949066c1.1924133,0.4967957,2.3847046,1.1923065,3.2789001,2.1860046
		c0.8942871,0.8943024,1.689209,1.9871979,2.1860046,3.1795959c0.4967957,1.1923065,0.7948914,2.4841003,0.7948914,3.7758026
		h-9.9361877"/>
	<g>
		<rect x="211.1585999" y="218.5381165" fill="#565440" width="4.9680939" height="6.9553986"/>
		<polygon fill="#565440" points="218.1139069,239.4042206 218.1139069,237.4170227 253.8843994,237.4170227 253.8843994,236.4233093
			217.1203003,236.4233093 217.1203003,237.4170227 217.1203003,239.4042206 211.1585999,239.4042206 211.1585999,246.3596191
			218.1139069,246.3596191 		"/>
		<polygon fill="#565440" points="294.6229858,253.6502228 287.8638,253.6502228 287.8638,254.657608 294.6229858,254.657608
			294.6229858,272.1938171 218.1139069,272.1938171 218.1139069,260.2703247 211.1585999,260.2703247 211.1585999,275.1747437
			218.1139069,275.1747437 297.6039124,275.1747437 297.6039124,272.1938171 297.6039124,248.6449127 294.6229858,248.6449127 		"/>
		<polygon fill="#565440" points="211.1585999,202.6401215 211.1585999,205.6210175 268.7887878,205.6210175 268.7887878,229.4680176
			263.8207092,229.4680176 262.8270874,229.4680176 262.8270874,236.4233093 261.8334045,236.4233093 261.8334045,237.4170227
			269.7824097,237.4170227 269.7824097,236.4233093 263.8207092,236.4233093 263.8207092,230.4616089 271.7697144,230.4616089
			271.7697144,229.4680176 269.7824097,229.4680176 269.7824097,205.6210175 294.6229858,205.6210175 294.6229858,229.4680176
			279.718689,229.4680176 279.718689,230.4616089 294.6229858,230.4616089 294.6229858,239.1061096 297.6039124,239.1061096
			297.6039124,205.6210175 297.6039124,202.6401215 		"/>
	</g>
</g>
<g>
	<path fill="none" stroke="#565440" d="M211.655304,273.187439h1.4904022v50.1781006h-1.4904022V273.187439z"/>
	<g>
		<polygon fill="#565440" points="216.1266022,307.964325 253.8842926,307.964325 253.8842926,306.9706421 216.1266022,306.9706421
			216.1266022,302.002533 211.1584015,302.002533 211.1584015,308.9579163 216.1266022,308.9579163 		"/>
		<polygon fill="#565440" points="294.6228943,317.9005432 294.6228943,321.1725159 288.2637024,321.1725159 288.2637024,322.1662292
			294.6228943,322.1662292 294.6228943,340.7539368 218.1138,340.7539368 218.1138,322.8687439 211.1584015,322.8687439
			211.1584015,343.7348328 297.6037903,343.7348328 297.6037903,317.9005432 		"/>
		<polygon fill="#565440" points="211.1584015,272.1938171 211.1584015,288.0918274 218.1138,288.0918274 218.1138,275.1747437
			268.7886963,275.1747437 268.7886963,300.0153198 262.8269043,300.0153198 262.8269043,306.9707336 261.833313,306.9707336
			261.833313,307.964325 269.7822876,307.964325 269.7822876,306.9707336 263.8205872,306.9707336 263.8205872,301.0089417
			271.7695923,301.0089417 271.7695923,300.0153198 269.7822876,300.0153198 269.7822876,275.1747437 294.6228943,275.1747437
			294.6228943,300.0153198 279.7185974,300.0153198 279.7185974,301.0089417 294.6228943,301.0089417 294.6228943,307.964325
			297.6037903,307.964325 297.6037903,272.1938171 		"/>
	</g>
	<path fill="none" stroke="#565440" d="M253.8843994,306.9706421c0-1.0929871,0.1987-1.9872131,0.5962067-2.980896
		c0.3973999-0.9935913,0.9936066-1.8879089,1.6891022-2.5834045c0.6955872-0.7948914,1.5898132-1.3911133,2.5834045-1.7885132
		s1.9872131-0.5961914,3.0802002-0.5961914v7.9490051 M279.718689,300.0153198c0-1.0929871-0.1987-1.9873047-0.5961914-2.980896
		c-0.3973999-0.9935913-0.9935913-1.8879089-1.689209-2.5834045c-0.6954956-0.7948914-1.5898132-1.3911133-2.5834045-1.7885132
		c-0.9935913-0.3974915-1.9872131-0.5961914-3.0802002-0.5961914v7.9490051 M297.6039124,307.9642334
		c1.291687,0,2.4840088,0.2980957,3.6763916,0.7948914c1.1924133,0.4967957,2.3847046,1.1924133,3.2789001,2.1860046
		c0.8942871,0.8942871,1.689209,1.9872131,2.1860046,3.1795959c0.4967957,1.1924133,0.7948914,2.4841003,0.7948914,3.7757874
		h-9.9361877"/>
</g>
<g>
	<path fill="none" stroke="#565440" d="M213.1457977,342.3437195h-1.4904022v107.2120972h83.4645081v-1.490387H213.145813V342.3437195
		H213.1457977z"/>
	<g>
		<polygon fill="#565440" points="211.1585999,340.7539368 211.1585999,343.7348328 211.1585999,350.6902161 218.1139069,350.6902161
			218.1139069,343.7348328 294.6229858,343.7348328 294.6229858,345.2252197 297.6039124,345.2252197 297.6039124,343.7348328
			297.6039124,340.7539368 		"/>
		<rect x="211.1585999" y="365.5945435" fill="#565440" width="4.9680939" height="6.9554138"/>
		<polygon fill="#565440" points="251.8972015,400.3714294 252.8907928,400.3714294 252.8907928,395.4033203 252.8907928,394.4096375
			218.1139069,394.4096375 218.1139069,386.4606323 211.1585999,386.4606323 211.1585999,414.282135 218.1139069,414.282135
			218.1139069,395.4033203 251.8972015,395.4033203 		"/>
		<polygon fill="#565440" points="252.8907928,412.2949219 254.8780975,412.2949219 254.8780975,411.3013306 252.8907928,411.3013306
			252.8907928,408.3204346 251.8972015,408.3204346 251.8972015,445.0845337 240.9673004,445.0845337 240.9673004,443.0973206
			234.0119019,443.0973206 234.0119019,450.0526428 240.9673004,450.0526428 261.8334045,450.0526428 261.8334045,445.0845337
			252.8907928,445.0845337 		"/>
		<rect x="211.1585999" y="428.1929321" fill="#565440" width="6.9553986" height="6.9554138"/>
		<polygon fill="#565440" points="294.6229858,364.6009216 277.7314148,364.6009216 277.7314148,365.5945435 294.6229858,365.5945435
			294.6229858,385.467041 264.8143005,385.467041 264.8143005,365.5945435 269.7824097,365.5945435 269.7824097,364.6009216
			264.8143005,364.6009216 263.8207092,364.6009216 263.8207092,411.3013306 262.8270874,411.3013306 262.8270874,412.2949219
			264.8143005,412.2949219 264.8143005,411.3013306 264.8143005,405.3395386 276.737793,405.3395386 276.737793,404.3459167
			264.8143005,404.3459167 264.8143005,386.4606323 294.6229858,386.4606323 294.6229858,404.3459167 284.6867981,404.3459167
			284.6867981,405.3395386 294.6229858,405.3395386 294.6229858,443.0973206 275.7442017,443.0973206 275.7442017,450.0526428
			297.6039124,450.0526428 297.6039124,443.0973206 297.6039124,355.2608337 294.6229858,355.2608337 		"/>
	</g>
	<path fill="none" stroke="#565440" d="M251.8972015,408.3204346c-1.0930023,0-1.9871979-0.1987915-2.980896-0.5961914
		c-0.9936066-0.3974915-1.8878937-0.9935913-2.5834045-1.689209c-0.7949066-0.6955872-1.391098-1.5898132-1.7884979-2.5834045
		s-0.5962067-1.9872131-0.5962067-3.0802002h7.9490051 M262.8269958,412.2949219c0,1.0929871-0.1987,1.9872131-0.5961914,2.980896
		c-0.3973999,0.9935913-0.9935913,1.8879089-1.6890869,2.5834045c-0.6955872,0.7948914-1.5898132,1.3911133-2.5834045,1.7885132
		c-0.9935913,0.3974915-1.9873047,0.5961914-3.0802002,0.5961914v-7.9490051 M276.737793,405.3395386
		c0,1.0929871,0.1987,1.9872131,0.5961914,2.980896c0.3974915,0.9935913,0.9935913,1.8879089,1.689209,2.5834045
		c0.6955872,0.7948914,1.5898132,1.3911133,2.5834045,1.7885132c0.9935913,0.3974915,1.9872131,0.5961914,3.0802002,0.5961914
		v-7.9490051 M277.7314148,365.5945435c0,1.0929871-0.1987915,1.9872131-0.5961914,2.980896
		c-0.3973999,0.9935913-0.9935913,1.8879089-1.689209,2.5834045c-0.6955872,0.7948914-1.5898132,1.3911133-2.5834045,1.7885132
		c-0.9935913,0.3974915-1.9872131,0.5961914-3.0802002,0.5961914v-7.9490051 M294.6229858,355.161438
		c-1.291687,0-2.4840088-0.2980957-3.6763916-0.7948914c-1.1924133-0.4967957-2.3847046-1.1924133-3.2789001-2.1860046
		c-0.8942871-0.8942871-1.689209-1.9872131-2.1860046-3.1795959c-0.4967957-1.1924133-0.7948914-2.4841003-0.7948914-3.7757874
		h9.9361877"/>
</g>
<g>
	<path fill="none" stroke="#565440" d="M464.5328979,317.9005432c0,1.0929871-0.1987,1.9873047-0.5961914,2.980896
		s-0.9935913,1.8879089-1.689209,2.5834045c-0.6955872,0.7948914-1.5898132,1.3911133-2.5834045,1.7885132
		s-1.9872131,0.5961914-3.0802002,0.5961914v-7.9490051 M455.39151,304.983429c0-1.0929871,0.1987-1.9872131,0.5961914-2.980896
		c0.3973999-0.9935913,0.9935913-1.8879089,1.689209-2.5834045c0.6955872-0.7948914,1.5898132-1.3911133,2.5834045-1.7885132
		s1.9872131-0.5961914,3.0802002-0.5961914v7.9490051 M425.7814941,294.8484192c1.0929871,0,1.9873047-0.1987,2.980896-0.5961914
		c0.9935913-0.3973999,1.8879089-0.9935913,2.5834045-1.689209c0.7948914-0.6954956,1.3911133-1.5898132,1.7885132-2.5834045
		c0.3973999-0.9937134,0.5961914-1.9873047,0.5961914-3.0802917h-7.9490051 M471.4544983,307.9642334
		c1.0929871,0,1.9872131,0.1987915,2.980896,0.5961914c0.9937134,0.3974915,1.8879089,0.9935913,2.5834045,1.689209
		c0.7948914,0.6955872,1.3911133,1.5898132,1.7885132,2.5834045c0.3974915,0.9935913,0.5961914,1.9872131,0.5961914,3.0802002
		h-7.9490051 M412.1689148,277.2017212c0-1.291687,0.2980957-2.5238953,0.7948914-3.7161865
		c0.4967957-1.1924133,1.1924133-2.3847046,2.1860046-3.2789001c0.8942871-0.8942871,1.9872131-1.689209,3.1795959-2.1860046
		c1.1924133-0.4967957,2.4841003-0.7948914,3.7757874-0.7948914v9.9761047"/>
	<g>
		<polygon fill="#565440" points="399.9368896,277.1602173 399.9368896,359.6310425 404.9050903,359.6310425 410.1856079,359.6310425
			412.655304,360.2272339 413.748291,355.3585205 410.8667908,354.6629333 404.9050903,354.6629333 404.9050903,280.1411438
			412.1825867,280.1411438 412.1825867,277.1602173 404.9050903,277.1602173 		"/>
		<polygon fill="#565440" points="428.7520142,357.6438293 427.6590881,362.5125427 430.5405884,363.2081299 431.3435974,359.6310425
			444.6500854,359.6310425 444.6500854,352.6757202 428.7520142,352.6757202 		"/>
		<polygon fill="#565440" points="469.4906921,359.0802307 468.4970093,363.506134 471.3786011,364.2017212 472.4046021,359.6310425
			484.394989,359.6310425 484.394989,352.6757202 469.4906921,352.6757202 		"/>
		<polygon fill="#565440" points="504.2674866,326.1712341 497.3121948,326.1712341 497.3121948,342.899231 503.7167053,342.899231
			508.1427002,343.8928223 508.8382874,341.011322 504.2674866,339.9852295 		"/>
		<polygon fill="#565440" points="504.8637085,294.2505188 499.9949951,293.1575317 499.3226013,296.0391235 499.299408,296.0391235
			499.299408,310.4875183 503.7167053,310.4875183 508.1427002,311.4811401 508.8382874,308.5996399 504.2674866,307.5735168
			504.2674866,296.72052 		"/>
		<polygon fill="#565440" points="454.5863037,316.9052429 454.5863037,355.9546204 453.9901123,358.6374207 454.9837952,358.8362427
			455.579895,356.1534424 455.579895,317.8988342 456.5734863,317.8988342 456.5734863,316.9052429 455.579895,316.9052429 		"/>
		<polygon fill="#565440" points="463.354187,304.98172 463.354187,305.9753418 470.484314,305.9753418 470.484314,307.962616
			471.4779053,307.962616 471.4779053,305.9753418 471.4779053,304.98172 465.5162048,304.98172 465.5162048,280.1411438
			505.6756897,280.1411438 508.1453857,280.7372437 508.8410034,277.8557434 505.9594116,277.1602173 422.1188049,277.1602173
			422.1188049,280.1411438 424.7775879,280.1411438 424.7775879,286.8994446 425.7712097,286.8994446 425.7712097,280.1411438
			445.6437073,280.1411438 445.6437073,304.98172 425.7712097,304.98172 425.7712097,294.8484192 424.7775879,294.8484192
			424.7775879,305.9753418 425.7712097,305.9753418 455.4052124,305.9753418 455.4052124,304.98172 446.6372986,304.98172
			446.6372986,280.1411438 464.5226135,280.1411438 464.5226135,304.98172 		"/>
		<polygon fill="#565440" points="504.4663086,318.4949341 504.6650085,317.5013428 502.280304,316.9052429 471.4779053,316.9052429
			471.4779053,315.9116211 470.484314,315.9116211 470.484314,316.9052429 464.5226135,316.9052429 464.5226135,317.8988342
			502.0815125,317.8988342 		"/>
	</g>
	<g>
		<path fill="none" stroke="#565440" d="M412.8540039,357.3457336l15.5004883,3.5770874l-0.2980957,1.490387l-15.5004883-3.5770874
			L412.8540039,357.3457336z"/>
		<path fill="none" stroke="#565440" d="M444.252594,356.1533203l25.1387024,5.7630005l-0.2980957,1.490387l-25.1387024-5.7630005
			L444.252594,356.1533203z"/>
		<polygon fill="none" stroke="#565440" points="507.7452087,343.3356323 506.2547913,342.9381409 502.1809082,361.121521 478.2345886,356.451416
			477.9364929,357.8425293 503.373291,362.9100342 503.4726868,362.2144165 		"/>

			<rect x="496.2952576" y="317.9274292" transform="matrix(0.2514896 -0.96786 0.96786 0.2514896 69.7490921 727.5321655)" fill="none" stroke="#565440" stroke-width="1.0000414" stroke-miterlimit="4.0001655" width="17.8927383" height="1.4883733"/>

			<rect x="497.2981262" y="286.1686707" transform="matrix(0.2514896 -0.96786 0.96786 0.2514896 100.6427536 703.9616699)" fill="none" stroke="#565440" stroke-width="1.0000414" stroke-miterlimit="4.0001655" width="16.3028584" height="1.4883733"/>
	</g>
</g>
<g>
	<g>
		<polygon fill="#565440" points="505.9594116,277.1602173 504.2674866,277.1602173 504.2674866,261.2622375 497.3121948,261.2622375
			497.3121948,277.1602173 455.579895,277.1602173 455.579895,253.3132172 461.541687,253.3132172 461.541687,252.319519
			461.541687,245.364212 462.5353088,245.364212 462.5353088,244.3706207 455.579895,244.3706207 455.579895,245.364212
			460.5480042,245.364212 460.5480042,252.319519 452.598999,252.319519 452.598999,253.3132172 454.5863037,253.3132172
			454.5863037,277.1602173 430.7392883,277.1602173 430.7392883,253.3132172 444.6500854,253.3132172 444.6500854,252.319519
			430.7392883,252.319519 430.7392883,244.3706207 427.7583923,244.3706207 427.7583923,277.1602173 427.7583923,280.1411438
			505.6756897,280.1411438 508.1453857,280.7372437 508.8410034,277.8557434 		"/>
		<polygon fill="#565440" points="430.7392883,229.7384186 436.4501038,229.7384186 436.4501038,228.7399139 430.7392883,228.7399139
			430.7392883,210.5873108 497.3121948,210.5873108 497.3121948,213.0525208 503.2738953,213.0525208 508.1427002,214.1455078
			508.8382874,211.2640228 504.2674866,210.237915 504.2674866,207.6064148 427.7583923,207.6064148 427.7583923,210.5873108
			427.7583923,234.4343109 430.7392883,234.4343109 		"/>
		<polygon fill="#565440" points="504.270813,242.5495148 504.270813,240.7402191 504.2716064,240.7402191 504.2716064,232.6293182
			505.0665894,229.1846161 500.1978149,228.0916138 499.3034973,231.8674164 499.3034973,235.843811 499.3027039,235.843811
			499.3027039,244.3705139 470.4876099,244.3705139 470.4876099,245.364212 503.2771912,245.364212 508.1459961,246.4571228
			508.8416138,243.5756226 		"/>
	</g>
	<path fill="none" stroke="#565440" d="M444.6500854,253.3132172c0,1.0930023,0.1987,1.9871979,0.5961914,2.9809113
		c0.3974915,0.9935913,0.9935913,1.8879089,1.689209,2.5834045c0.6955872,0.7948914,1.5898132,1.3911133,2.5834045,1.7885132
		c0.9935913,0.3974915,1.9872131,0.5961914,3.0802002,0.5961914v-7.9490204 M470.484314,245.364212
		c0,1.0930023-0.1987,1.9873047-0.5961914,2.980896c-0.3973999,0.9936066-0.9935913,1.8878937-1.6890869,2.5834045
		c-0.6955872,0.7949066-1.5898132,1.391098-2.5834045,1.7884979s-1.9872131,0.5962067-3.0802917,0.5962067v-7.9490051
		 M427.8156128,234.4343109c-1.291687,0-2.5411987,0.2980957-3.7336121,0.7949066
		c-1.1924133,0.4967957-2.3847046,1.1923065-3.2789917,2.1860046c-0.8942871,0.8941956-1.689209,1.9871979-2.1860046,3.1795959
		c-0.4967957,1.1923065-0.7948914,2.4841003-0.7948914,3.7758026h9.9934082"/>
	<g>

			<rect x="496.2924805" y="252.6929016" transform="matrix(0.2514896 -0.96786 0.96786 0.2514896 132.8849182 678.7007446)" fill="none" stroke="#565440" stroke-width="1.0000414" stroke-miterlimit="4.0001655" width="17.8927383" height="1.488358"/>

			<rect x="497.2953491" y="220.7542267" transform="matrix(0.2514896 -0.96786 0.96786 0.2514896 163.9527283 654.9956055)" fill="none" stroke="#565440" stroke-width="1.0000414" stroke-miterlimit="4.0001655" width="16.3028889" height="1.488358"/>
	</g>
</g>
<g>
	<path fill="none" stroke="#565440" d="M444.6500854,183.7594147c0,1.0930023,0.1987,1.9871979,0.5961914,2.980896
		c0.3974915,0.9936066,0.9935913,1.8878937,1.689209,2.5834045c0.6955872,0.7949066,1.5898132,1.391098,2.5834045,1.7884979
		s1.9872131,0.5962067,3.0802002,0.5962067v-7.9490051 M470.484314,175.8104095c0,1.0930023-0.1987,1.9873047-0.5961914,2.980896
		c-0.3973999,0.9936066-0.9935913,1.8878937-1.6890869,2.5834045c-0.6955872,0.7949066-1.5898132,1.391098-2.5834045,1.7884979
		s-1.9872131,0.5962067-3.0802917,0.5962067v-7.9490051 M427.8041077,174.8168182
		c-1.291687,0-2.5297852-0.2980957-3.7221069-0.7949066c-1.1924133-0.4967957-2.3847046-1.1923065-3.2789917-2.1860046
		c-0.8942871-0.8943024-1.689209-1.9871979-2.1860046-3.1795959c-0.4967957-1.1923065-0.7948914-2.4841003-0.7948914-3.7758026
		h9.9819031"/>
	<g>
		<polygon fill="#565440" points="504.2637939,199.0808105 504.2605896,199.0808105 504.2605896,196.6725159 497.3182983,196.6725159
			497.3121948,207.6065216 455.579895,207.6065216 455.579895,183.7595215 461.541687,183.7595215 461.541687,175.8105164
			462.5353088,175.8105164 462.5353088,174.8168182 455.579895,174.8168182 455.579895,175.8105164 460.5480042,175.8105164
			460.5480042,182.7658081 452.598999,182.7658081 452.598999,183.7595215 454.5863037,183.7595215 454.5863037,207.6065216
			430.7392883,207.6065216 430.7392883,183.7595215 444.6500854,183.7595215 444.6500854,182.7658081 430.7392883,182.7658081
			430.7392883,174.8168182 427.7583923,174.8168182 427.7583923,210.5873108 504.2674866,210.5873108 		"/>
		<polygon fill="#565440" points="430.7392883,158.759613 436.6011963,158.759613 436.6011963,157.7726135 430.7392883,157.7726135
			430.7392883,141.0336151 497.3121948,141.0336151 497.3121948,148.3785095 503.7080994,148.3785095 508.1355896,149.3723145
			508.1358032,149.3714142 508.1388855,149.3721161 508.8344116,146.4906158 504.2637939,145.4646149 504.2674866,138.0527191
			504.2637939,138.0527191 504.2637939,138.0492096 497.3121948,138.0492096 497.3121948,138.0527191 427.7583923,138.0527191
			427.7583923,164.8806152 430.7392883,164.8806152 		"/>
		<polygon fill="#565440" points="504.2670898,168.2509155 505.0620117,164.8062134 500.1932983,163.7132111 499.2990112,167.4890137
			499.2990112,174.8168182 470.4874878,174.8168182 470.4874878,175.8104095 499.2990112,175.8104095 499.2990112,180.7908173
			504.2670898,180.7908173 504.2670898,180.7827148 507.8442078,181.5857086 508.5397034,178.7042084 504.2670898,177.7451172 		"/>
	</g>
	<g>

			<rect x="496.2893677" y="187.7477112" transform="matrix(0.2514896 -0.96786 0.96786 0.2514896 195.7404327 630.0855713)" fill="none" stroke="#565440" stroke-width="1.0000414" stroke-miterlimit="4.0001655" width="17.8927383" height="1.488358"/>
		<polygon fill="none" stroke="#565440" points="503.9457092,165.4018097 502.5053101,165.0275116 506.7753906,148.5039215 508.2159119,148.8782196
					"/>
	</g>
</g>
<g>
	<path fill="none" stroke="#565440" d="M440.699585,115.1983185c0-1.0930023,0.1987-1.9872971,0.5961914-2.9809036
		c0.3973999-0.9935989,0.9935913-1.8879013,1.689209-2.5833969c0.6954956-0.794899,1.5898132-1.391098,2.5834045-1.7884979
		c0.9937134-0.3974991,1.9873047-0.596199,3.0802917-0.596199v7.9489975 M450.6358032,82.4087143
		c-1.0929871,0-1.9872131-0.1987-2.980896-0.596199s-1.8879089-0.9935989-2.5834045-1.6892014
		c-0.7948914-0.6955032-1.3911133-1.589798-1.7885132-2.5833969c-0.3974915-0.9935989-0.5961914-1.9872971-0.5961914-3.0802002
		h7.9490051 M452.6231079,72.4725189c0-1.0930023,0.1987-1.9872971,0.5961914-2.9809036
		c0.3973999-0.9935989,0.9935913-1.8879013,1.689209-2.5833969c0.6955872-0.794899,1.5898132-1.391098,2.5834045-1.7884979
		s1.9872131-0.596199,3.0802002-0.596199v7.9489975 M470.4718018,74.4597168c1.0929871,0,1.9872131,0.1987,2.980896,0.596199
		s1.8879089,0.9935989,2.5834045,1.6892014c0.7948914,0.6955032,1.3911133,1.589798,1.7885132,2.5833969
		s0.5961914,1.9872971,0.5961914,3.0802002h-7.9490051 M430.7633057,127.1218185c1.291687,0,2.4841003,0.2981033,3.6763916,0.794899
		s2.3847046,1.1923065,3.2789917,2.1860046c0.8942871,0.8943024,1.689209,1.9873047,2.1860046,3.1795959
		c0.4967957,1.1923981,0.7948914,2.4841003,0.7948914,3.7758026h-9.9361877"/>
	<g>
		<polygon fill="#565440" points="430.7392883,116.1929169 440.6755066,116.1929169 440.6755066,115.1993179 430.7392883,115.1993179
			430.7392883,101.2886124 450.6117859,101.2886124 450.6117859,115.1993179 448.6245117,115.1993179 448.6245117,116.1929169
			451.6054077,116.1929169 451.6054077,115.1993179 451.6054077,82.4097137 450.6117859,82.4097137 450.6117859,100.2949142
			430.7392883,100.2949142 430.7392883,73.4671173 450.6117859,73.4671173 450.6117859,74.4607162 451.6054077,74.4607162
			451.6054077,73.4671173 452.598999,73.4671173 452.598999,72.4734116 430.7392883,72.4734116 430.7392883,38.6902161
			433.7432861,38.6913147 435.3099976,32.032917 432.4284973,31.3373165 431.3998108,35.7093163 430.7392883,35.7093163
			427.7583923,35.7093163 427.7583923,127.122818 430.7392883,127.122818 		"/>
		<polygon fill="#565440" points="504.2674866,103.3714142 505.0625,99.9268188 500.1936951,98.8338165 499.299408,102.6096115
			499.299408,115.5852127 504.2674866,115.5852127 504.2674866,115.5771179 507.8446045,116.3801117 508.5401917,113.4986115
			504.2674866,112.5395126 		"/>
		<polygon fill="#565440" points="497.3121948,138.0527191 430.7392883,138.0527191 430.7392883,137.0591125 427.7583923,137.0591125
			427.7583923,138.0527191 427.7583923,141.0336151 504.2674866,141.0336151 504.2674866,138.0527191 504.2674866,131.622818
			497.3121948,131.622818 		"/>
		<polygon fill="#565440" points="470.484314,82.4087143 469.4906921,82.4087143 469.4906921,83.8776169 462.5353088,83.8776169
			462.5353088,84.871315 497.3121948,84.871315 504.2674866,84.8631134 507.8446045,85.666214 508.5401917,82.7846146
			504.2674866,81.8255157 504.2674866,67.1134186 497.3121948,67.1134186 497.3121948,83.8776169 470.484314,83.8776169 		"/>
		<polygon fill="#565440" points="469.4906921,72.4734116 460.5480042,72.4734116 460.5480042,73.4671173 469.4906921,73.4671173
			469.4906921,74.4597168 470.484314,74.4597168 470.484314,73.4671173 470.484314,72.4734116 470.484314,40.6774139
			483.4013977,40.6774139 483.4013977,40.655117 483.5007935,40.6774139 485.4880981,31.9335175 480.6192932,30.840517
			479.5126953,35.7093163 470.484314,35.7093163 448.6245117,35.7093163 448.6245117,38.6902161 469.4906921,38.6902161 		"/>
	</g>
	<path fill="none" stroke="#565440" d="M506.8508911,37.1004143l-23.8469849-5.5642986l-0.2980957,1.4903965l22.4559021,5.1668015
		l-2.5834045,11.2280006v18.6800957h1.490387V49.4213142L506.8508911,37.1004143z M506.4534912,114.205719l1.490387,0.2981033
		l-4.2250977,18.4814987l-1.490387-0.2980957L506.4534912,114.205719z M506.4534912,83.4033127l1.490387,0.2981033
		l-3.9744873,17.3883972l-1.490387-0.2981033L506.4534912,83.4033127z M433.1239929,31.7348175l18.6800842,4.2725983
		l-0.2980957,1.4903984l-18.6801147-4.2726021L433.1239929,31.7348175z"/>
</g>
<g>
	<g>
		<path fill="none" stroke="#565440" d="M407.0020142,31.6372166l19.3757019,4.4712963l-0.2980957,1.4903984l-19.3757019-4.5707016
			L407.0020142,31.6372166z"/>
		<path fill="none" stroke="#565440" d="M355.2341003,99.3031158h1.490387v28.815094h-1.490387V99.3031158z"/>
		<polygon fill="none" stroke="#565440" points="355.2341003,30.7430172 355.2341003,59.9555168 356.7246094,59.9555168 356.7246094,32.730217
			374.2124023,37.3009148 374.6098022,35.8104134 		"/>
	</g>
	<g>
		<polygon fill="#565440" points="427.7687988,35.7111168 423.7943115,35.7111168 423.7943115,42.6665154 427.7687988,42.6665154
			427.7687988,76.4497147 404.9154053,76.4497147 404.9154053,77.4433136 407.8963013,77.4433136 407.8963013,86.3860168
			408.8898926,86.3860168 408.8898926,77.4433136 427.7687988,77.4433136 427.7687988,103.2776184 408.8898926,103.2776184
			408.8898926,94.2356186 407.8963013,94.2356186 407.8963013,104.2712173 408.8898926,104.2712173 427.7687988,104.2712173
			427.7687988,123.150116 425.7814941,123.150116 425.7814941,126.131012 427.7687988,126.131012 430.7496948,126.131012
			430.7496948,35.7111168 		"/>
		<polygon fill="#565440" points="359.2087097,100.2967148 361.1958923,100.2967148 363.183197,100.2967148 394.979187,100.2967148
			394.979187,99.3031158 394.979187,88.3732147 393.9855042,88.3732147 393.9855042,99.3031158 381.6646118,99.3031158
			381.6646118,77.4433136 381.6646118,76.4497147 379.6773071,76.4497147 379.6773071,77.4433136 380.67099,77.4433136
			380.67099,99.3031158 363.183197,99.3031158 363.183197,77.4433136 372.1257935,77.4433136 372.1257935,76.4497147
			363.183197,76.4497147 363.183197,50.6155167 359.2087097,50.6155167 354.240509,50.6155167 354.240509,51.6091156
			351.2597046,51.6091156 351.2597046,54.5900154 354.240509,54.5900154 354.240509,66.5135117 351.2597046,66.5135117
			351.2597046,69.4943161 354.240509,69.4943161 354.240509,81.4178162 351.2597046,81.4178162 351.2597046,84.3987122
			354.240509,84.3987122 354.240509,97.3158188 351.2597046,97.3158188 351.2597046,100.2967148 354.240509,100.2967148 		"/>
		<rect x="351.2597046" y="112.2202148" fill="#565440" width="6.9554138" height="2.9809036"/>
		<polygon fill="#565440" points="374.1130066,39.6856155 376.1003113,39.6856155 376.1003113,42.6665154 383.0556946,42.6665154
			383.0556946,39.6856155 393.9855042,39.6856155 393.9855042,80.4242172 394.979187,80.4242172 394.979187,77.4433136
			396.9664001,77.4433136 396.9664001,76.4497147 394.979187,76.4497147 394.979187,39.6856155 407.4847107,39.6856155
			407.8963013,39.7849159 409.6848145,32.0347137 406.8033142,31.3391171 405.565094,36.7047157 378.2862854,36.7047157
			374.3117981,35.1149139 373.218811,37.8971138 374.1130066,38.2548141 		"/>
		<polygon fill="#565440" points="400.9408875,123.150116 400.9408875,124.1437149 407.8963013,124.1437149 407.8963013,126.131012
			407.8963013,139.048111 404.9154053,139.048111 401.9345093,139.048111 401.9345093,152.9588165 372.1257935,152.9588165
			372.1257935,146.9971161 371.1322021,146.9971161 371.1322021,152.9588165 371.1322021,153.9525146 384.0492859,153.9525146
			384.0492859,154.9461212 385.0429077,154.9461212 385.0429077,153.9525146 401.9345093,153.9525146 401.9345093,168.8568115
			385.0429077,168.8568115 385.0429077,162.8951111 384.0492859,162.8951111 384.0492859,168.8568115 361.1958923,168.8568115
			361.1958923,147.9907227 363.183197,147.9907227 363.183197,146.9971161 361.1958923,146.9971161 361.1958923,127.1246185
			354.240509,127.1246185 351.2597046,127.1246185 351.2597046,130.1055145 354.240509,130.1055145 354.240509,143.0226135
			351.2597046,143.0226135 351.2597046,146.0035095 354.240509,146.0035095 354.240509,171.8377228 360.9971924,171.8377228
			361.1958923,171.8377228 401.9345093,171.8377228 404.9154053,171.8377228 404.9154053,142.0290222 407.8963013,142.0290222
			410.8771973,142.0290222 410.8771973,126.131012 415.8453064,126.131012 415.8453064,123.150116 407.8963013,123.150116 		"/>
	</g>
	<path fill="none" stroke="#565440" d="M404.9154053,76.4497147c0-1.0930023-0.1987-1.9872971-0.5961914-2.9809036
		c-0.3974915-0.9935989-0.9935913-1.8879013-1.689209-2.5833969c-0.6955872-0.794899-1.5898132-1.391098-2.5834045-1.7884979
		s-1.9872131-0.596199-3.0802002-0.596199v7.9489975 M393.9855042,80.4242172c-1.0929871,0-1.9872131,0.1987-2.980896,0.596199
		s-1.8879089,0.9935989-2.5834045,1.6892014c-0.7948914,0.6955032-1.3911133,1.589798-1.7885132,2.5833969
		s-0.5961914,1.9872971-0.5961914,3.0802002h7.9490051 M407.8963013,94.2356186c-1.0929871,0-1.9873047-0.1987-2.980896-0.596199
		s-1.8879089-0.9935989-2.5834045-1.6892014c-0.7948914-0.6955032-1.3911133-1.589798-1.7885132-2.5833969
		c-0.3974915-0.9935989-0.5961914-1.9872971-0.5961914-3.0802002h7.9490051 M372.0263977,77.4433136
		c0,0.9935989,0.1987,1.8879013,0.5961914,2.7822037c0.3973999,0.8943024,0.8942871,1.7884979,1.6890869,2.4841003
		c0.6955872,0.6955032,1.5898132,1.2917023,2.4841003,1.6892014s1.8879089,0.596199,2.8815002,0.596199v-7.5515976
		 M371.1321106,146.9971161c0-1.0930023-0.1987-1.9873047-0.5961914-2.980896
		c-0.3973999-0.9936066-0.9935913-1.8878937-1.689209-2.5834045c-0.6954956-0.7949066-1.5898132-1.391098-2.5834045-1.7884979
		c-0.9937134-0.3973999-1.9873047-0.5962067-3.0802917-0.5962067v7.9490051 M384.0492859,162.8951111
		c-1.0929871,0-1.9872131-0.1987-2.980896-0.5962067c-0.9935913-0.3973999-1.8879089-0.9936066-2.5834045-1.6891022
		c-0.7948914-0.6954956-1.3911133-1.589798-1.7885132-2.5834045s-0.5961914-1.9871979-0.5961914-3.0802002h7.9490051
		 M415.8452148,123.150116c0-1.2917023,0.2980957-2.4841003,0.7948914-3.6763992s1.1924133-2.384697,2.1860046-3.2789993
		c0.8942871-0.8943024,1.9872131-1.6892014,3.1795959-2.185997c1.1924133-0.4968033,2.4841003-0.794899,3.7757874-0.794899v9.936203
		"/>
</g>
<g >
	<rect x="355" y="-0.0000832" fill="none" width="10" height="10"/>
	<rect x="181.1385956" y="235.0000153" fill="none" width="10" height="10"/>
	<rect x="355" y="469.9998169" fill="none" width="10" height="10"/>
	<rect x="528.8735962" y="235.0000153" fill="none" width="10" height="10"/>
</g>
<g >
	<path data-nr="5" class="plan__svg__hoverable" fill="none" d="M324.4317017,135.0736084v-14.9041977h-19.872406v-0.0001984h-6.9554138v0.0001984
		h-14.9043884v-0.0001984h-6.9554138h-20.8661041v0.0001984h-13.9107971v-0.0001984h-6.9553986v0.0001984h-22.8535004v78.4964066
		h0.0001068v3.9743042l-0.0001068,2.980896h0.4969025v0.0001984h88.6314087v10.4331055h0.4967957
		c1.2867126,0,2.6582031-0.2881927,3.9667053-0.8334961c1.1741028-0.4891052,2.3287964-1.2817993,3.3210144-2.2749939
		c0.9256897-0.8329926,1.7033997-1.9965057,2.3117981-3.4573059c0.5686035-1.3643036,0.8334961-2.5932007,0.8334961-3.8672943
		h12.9151917v-0.0001984h0.2999878v-2.980896v-67.5664978h0.0001221V135.0736084z M309.4661865,209.1062164
		c-0.5516052,1.3240051-1.2445068,2.3670959-2.0784912,3.1190948c-0.9198914,0.9199066-1.9639893,1.6389008-3.0197144,2.0785065
		c-1.0198059,0.4250031-2.0769958,0.6777954-3.0875854,0.7413025v-9.4239044h8.9425964
		C310.223114,206.7599182,309.9823914,207.8671112,309.4661865,209.1062164z"/>
	<path data-nr="4" class="plan__svg__hoverable" fill="none" d="M308.0368958,248.8434143c0-1.2866974-0.288208-2.6587067-0.8330078-3.9667053
		c-0.4885864-1.1721954-1.281311-2.3278046-2.2753906-3.3215027c-0.8330078-0.9246979-1.9960022-1.7024994-3.4567871-2.3112946
		c-1.3641968-0.5681-2.5931091-0.8329926-3.8676147-0.8329926v-32.7899017v-1.9994049v-0.9815063h-86.4454041v1.9875031h-0.0001068
		v56.6361237h0.0001068v13.9110107h6.9553986h79.4900055v-1.4906921v-1.4902039v-22.8536224h10.4328918v-0.4968109H308.0368958z
		 M297.6039124,248.3466187v-8.9420929c1.1390991,0,2.2467041,0.2402039,3.4852905,0.7563934
		c1.3240051,0.5516052,2.3670959,1.2449036,3.1187134,2.0785065c0.9208984,0.9217987,1.6398926,1.9658966,2.0788879,3.0196991
		c0.4244995,1.0198059,0.6773071,2.0764923,0.7408142,3.0876007h-9.4237061V248.3466187z"/>
	<path data-nr="3" class="plan__svg__hoverable" fill="none" d="M308.0368958,317.9003296c0-1.2867126-0.288208-2.6588135-0.8330078-3.9667969
		c-0.4885864-1.1720886-1.281311-2.3277893-2.2753906-3.3204956c-0.8326111-0.9256897-1.9960022-1.7038879-3.4567871-2.3132935
		c-1.3641968-0.567688-2.5931091-0.8326111-3.8676147-0.8326111V275.17453v-2.980896h-86.4454041v0.4966125h-0.0001068v51.1716919
		h0.0001068v18.4816895v1.3911133h6.9553986h79.4900055v-2.980896v-22.3568115h10.4328918v-0.4967041H308.0368958z
		 M297.6037903,317.4035339v-8.9425964c1.1391907,0,2.2467957,0.2406006,3.4854126,0.756897
		c1.3240051,0.5510864,2.3670959,1.243988,3.1187134,2.0784912c0.9208984,0.921814,1.6398926,1.9659119,2.0788879,3.0197144
		c0.4244995,1.0198059,0.6773071,2.0765076,0.7408142,3.0875854h-9.4238281V317.4035339z"/>
	<polygon data-nr="2" class="plan__svg__hoverable" fill="none" points="211.1585999,340.7539368 211.1585999,341.847229 211.1584015,341.847229
		211.1584015,450.0524292 234.0119019,450.0524292 234.0119019,450.0526428 240.9673004,450.0526428 261.8334045,450.0526428
		261.8334045,450.0524292 275.7442017,450.0524292 275.7442017,450.0526428 297.6039124,450.0526428 297.6039124,449.0588379
		297.6039124,443.0973206 297.6039124,355.2608337 297.6039124,345.2252197 297.6039124,343.7348328 297.6039124,342.3437195
		297.6039124,340.7539368 	"/>
	<polygon data-nr="1" class="plan__svg__hoverable" fill="none" points="370.1388855,349.6963196 370.1384888,349.6963196 370.1384888,307.964325
		363.183197,307.964325 320.4573059,307.964325 320.4573059,312.9324341 320.4573059,340.7539368 313.5018921,340.7539368
		313.5018921,343.7348328 313.5018921,356.6519165 308.5338135,356.6519165 298.5975952,356.6519165 297.6039124,356.6519165
		296.4078979,356.6519165 294.6229858,356.6519165 294.6229858,450.0526428 297.6039124,450.0526428 303.5657043,450.0526428
		303.5657043,450.0524292 318.4700928,450.0524292 318.4700928,450.0526428 339.3362122,450.0526428 346.2915039,450.0526428
		346.2915039,450.0524292 370.1388855,450.0524292 	"/>
	<path data-nr="10" class="plan__svg__hoverable" fill="none" d="M504.2674866,307.5735168V296.72052l0.5963135-2.4699097l-0.0306091-0.0068054
		l3.9920044-15.3616028l-0.2182922-0.0567932l0.2340088-0.9696045l-2.8815002-0.6955872h-80.1779175h-3.1759949v-10.4342957h-0.5
		c-1.2880859,0-2.6611023,0.2880859-3.968811,0.8330078c-1.1729126,0.4883118-2.3291016,1.281311-3.3222961,2.2763977
		c-0.9248047,0.8330078-1.7030945,1.9960938-2.3125,3.4580078c-0.5545959,1.3312988-0.8251038,2.5965881-0.8308105,3.8669128
		h-5.303009h-1.4631042h-4.9681091v82.4708862h4.9681091h5.2806091l2.469696,0.5960999l0.1824036-0.8127136l15.60849,3.6014099
		l0.0596924-0.2990112l2.0344849,0.4910889l0.803009-3.5769958h13.3066406v-1.3145142l24.8323975,5.6925049l0.0506897-0.2528992
		l1.8454895,0.4454956l1.0260925-4.5707092h11.9500122l19.4384155,3.8731995l0.1669922-1.1796875l4.1719055-18.4342041
		l0.0108032,0.0024109l0.6955872-2.8815002l-4.5707092-1.0260925v-12.6089783l4.5479126-17.5046082l-0.267395-0.069397
		l0.2901917-1.2025146L504.2674866,307.5735168z M415.5028992,270.5599365
		c0.9208984-0.9208984,1.9638977-1.6387024,3.0185852-2.0770874c1.0176086-0.4248047,2.0741882-0.6777039,3.0840149-0.7412109
		v9.4186096h-8.9342957c0.0057983-1.1368103,0.2510071-2.276001,0.7546082-3.4820862
		C413.9775085,272.3538208,414.6698914,271.3109436,415.5028992,270.5599365z"/>
	<path data-nr="9" class="plan__svg__hoverable" fill="none" d="M504.2674866,277.1602173v-15.0213928l4.5479126-17.5027161l-0.2163086-0.0561981
		l0.2424011-1.004303l-4.5707092-1.0260925v-1.8092957h0.0007019v-8.1109924l0.7950134-3.4445953l-0.3078918-0.0691071
		l4.0664978-15.6493988l-0.487915-0.1266022l0.5010071-2.0755005l-4.5707092-1.0260925v-2.6313934h-76.5090942v2.980896v10.1378021
		v13.2122955c-1.2607117,0.008194-2.5621033,0.2852936-3.8688049,0.8303986
		c-1.460907,0.6083984-2.625,1.3867035-3.4403992,2.2938995c-1.0107117,1.0112-1.8037109,2.1665039-2.2939148,3.3403015
		c-0.5527039,1.3267059-0.8330078,2.6625977-0.8330078,3.9683075v0.5h10.4361877v3.5173035v28.7724152v2.980896h77.9172058
		l2.4697876,0.5960999l0.6954956-2.8815002l-2.8815002-0.6955872h-1.6919556V277.1602173z M419.0791016,240.786911
		c0.4395142-1.0547028,1.1582031-2.0980988,2.0957031-3.0370941c0.7333984-0.8153992,1.7763977-1.5077972,3.0996094-2.0590973
		c1.1842957-0.4936981,2.3558044-0.7449951,3.4840088-0.7532043v8.9329071h-9.4205017
		C418.4013977,242.8607178,418.6542969,241.8050079,419.0791016,240.786911z"/>
	<path data-nr="8" class="plan__svg__hoverable" fill="none" d="M508.3728943,148.4023132l0.4614868-1.9116974l-4.5705872-1.0260925
		l0.0036926-7.4118042h-0.0036926v-0.0034943h-6.9516907v0.0034943h-69.5537109v16.8934021v9.4346008h-10.4361877v0.5
		c0,1.2881012,0.2880859,2.660202,0.8330078,3.9683075c0.4902039,1.1737976,1.2832031,2.3291016,2.2753906,3.3213043
		c0.8340149,0.9263,1.9979858,1.7046051,3.4590149,2.3130035c1.3299866,0.5543976,2.5958862,0.8247986,3.8688049,0.8311005
		v18.7973938v16.4756012h76.5090942l-0.0036926-11.5065002h-0.0032043v-1.8616028l4.5549011-17.529007l-0.4833984-0.1257019
		l0.2077026-0.8603973l-4.2726135-0.9591064v-9.4942017l0.7950134-3.4445953l-0.4223022-0.0948029l4.1853943-16.1916046
		L508.3728943,148.4023132z M421.156311,171.4822083c-0.9189148-0.9199066-1.6376953-1.9633942-2.0770874-3.0180969
		c-0.4248047-1.0175934-0.6777039-2.0737-0.7412109-3.0834961h9.4205017v8.9335938
		c-1.1391907-0.0063934-2.2792053-0.2518005-3.4840088-0.7539063
		C422.9512024,173.0091095,421.9082031,172.3167114,421.156311,171.4822083z"/>
	<polygon data-nr="7" class="plan__svg__hoverable" fill="none" points="508.3987122,114.0847168 508.5401917,113.4986115 504.2674866,112.5395126
		504.2674866,103.3714142 505.0625,99.9268188 504.7634888,99.8597183 508.5458984,83.3118134 508.4190063,83.2864151
		508.5401917,82.7846146 504.2674866,81.8255157 504.2674866,68.6014175 504.5683899,68.6014175 504.5683899,49.4769135
		507.4472961,36.7264137 482.6152039,30.9319172 482.5469055,31.2733173 480.6192932,30.840517 479.5126953,35.7094154
		470.484314,35.7094154 452.3735046,35.7094154 452.3895874,35.6287155 432.7344055,31.132618 432.6813049,31.3984165
		432.4284973,31.3373165 431.3998108,35.7094154 430.7392883,35.7094154 427.7583923,35.7094154 427.7583923,112.0074158
		427.7583923,127.122818 427.7583923,137.0591125 427.7583923,138.0527191 427.7583923,139.5596161 427.7583923,141.0336151
		504.2674866,141.0336151 504.2674866,138.0527191 504.2674866,132.8276215 508.5458984,114.1141129 	"/>
	<polygon data-nr="6" class="plan__svg__hoverable" fill="none" points="427.7687988,35.7111168 426.8642883,35.7111168 406.6216125,31.0396175
		406.1160889,33.4000168 406.316803,33.4474144 405.565094,36.7047157 378.2862854,36.7047157 375.213501,35.4755135
		375.2185974,35.4561157 375.0635071,35.4156151 374.3117981,35.1149139 374.2746887,35.2093163 354.7372131,30.0999165
		354.7372131,50.6155167 354.240509,50.6155167 354.240509,51.6091156 351.2597046,51.6091156 351.2597046,54.5900154
		354.240509,54.5900154 354.240509,66.5135117 351.2597046,66.5135117 351.2597046,69.4943161 354.240509,69.4943161
		354.240509,81.4178162 351.2597046,81.4178162 351.2597046,84.3987122 354.240509,84.3987122 354.240509,97.3158188
		351.2597046,97.3158188 351.2597046,100.2967148 354.240509,100.2967148 354.7372131,100.2967148 354.7372131,112.2202148
		351.2597046,112.2202148 351.2597046,115.2011185 354.7372131,115.2011185 354.7372131,127.1246185 354.240509,127.1246185
		351.2597046,127.1246185 351.2597046,130.1055145 354.240509,130.1055145 354.240509,143.0226135 351.2597046,143.0226135
		351.2597046,146.0035095 354.240509,146.0035095 354.240509,171.8377228 360.9971924,171.8377228 361.1958923,171.8377228
		401.9345093,171.8377228 404.9154053,171.8377228 404.9154053,142.0290222 407.8963013,142.0290222 410.8771973,142.0290222
		410.8771973,126.131012 415.8453064,126.131012 415.8453064,123.1503143 416.3424988,123.1503143 416.3424988,123.150116
		425.2850952,123.150116 425.2850952,123.1503143 425.7814941,123.1503143 425.7814941,126.131012 427.7687988,126.131012
		430.7496948,126.131012 430.7496948,35.7111168 	"/>
</g>
<g>
	<path fill="none" stroke="#565440" d="M368.1380615,448.0125427h-71.9376831v1.490387h73.4281006v-99.3615112h-1.490387v97.8711243
		H368.1380615z"/>
	<g>
		<polygon fill="#565440" points="339.3231812,445.0316162 330.3806763,445.0316162 329.387085,445.0316162 318.4572754,445.0316162
			318.4572754,449.9996948 339.3231812,449.9996948 346.2784424,449.9996948 346.2784424,443.0444336 339.3231812,443.0444336 		"/>
		<rect x="362.1763916" y="428.1401978" fill="#565440" width="7.9489136" height="6.9553223"/>
		<polygon fill="#565440" points="365.1571655,364.5488281 365.1571655,366.0668945 332.1825562,366.0668945 332.1825562,367.0604858
			332.7178345,367.0604858 332.7178345,382.6765747 333.7114258,382.6765747 333.7114258,367.0604858 365.1571655,367.0604858
			365.1571655,371.5040894 370.1253052,371.5040894 370.1253052,364.5488281 		"/>
		<polygon fill="#565440" points="316.4700928,359.5806885 322.432373,359.5806885 322.432373,367.0606079 324.469696,367.0606079
			324.469696,366.0670166 323.4259644,366.0670166 323.4259644,358.5917358 323.425354,358.5917358 323.425354,358.5870972
			316.4700928,358.5870972 316.4700928,343.6829224 323.425354,343.6829224 323.425354,340.7020264 323.425354,331.0256958
			326.3497314,331.0256958 326.3497314,330.0321045 323.425354,330.0321045 323.425354,312.8807983 347.5734863,312.8807983
			347.5734863,330.0316162 333.7671509,330.0316162 333.7671509,331.0252075 353.7824097,331.0252075 353.7824097,330.0316162
			348.5670776,330.0316162 348.5670776,312.8807983 363.1699829,312.8807983 363.1699829,330.0317383 361.3650513,330.0317383
			361.3650513,331.0253296 363.1699829,331.0253296 363.1699829,350.6382446 370.1252441,350.6382446 370.1252441,307.9128418
			320.4445801,307.9128418 320.4445801,312.8807983 320.4445801,340.7020264 313.4891968,340.7020264 313.4891968,343.6829224
			313.4891968,356.5999146 308.5211792,356.5999146 308.5211792,359.5806885 313.4891968,359.5806885 		"/>
		<polygon fill="#565440" points="297.5913696,405.2869873 319.4508667,405.2869873 319.4508667,404.293396 316.4700928,404.293396
			316.4700928,395.3508911 315.4764404,395.3508911 315.4764404,404.293396 297.5913696,404.293396 297.5913696,379.4530029
			315.4764404,379.4530029 315.4764404,387.4019165 316.4700928,387.4019165 316.4700928,378.4594116 315.4764404,378.4594116
			297.5913696,378.4594116 297.5913696,359.5806885 298.5849609,359.5806885 298.5849609,356.5999146 297.5913696,356.5999146
			294.6104736,356.5999146 294.6104736,449.9996948 297.5913696,449.9996948 303.5531006,449.9996948 303.5531006,443.0444336
			297.5913696,443.0444336 		"/>
		<polygon fill="#565440" points="332.7178345,391.4841919 332.7178345,404.293396 332.7178345,405.2869873 333.7114258,405.2869873
			365.1571655,405.2869873 365.1571655,409.2615356 370.1252441,409.2615356 370.1252441,381.4401855 363.1699829,381.4401855
			363.1699829,388.3956299 365.1571655,388.3956299 365.1571655,404.293396 333.7114258,404.293396 333.7114258,391.4841919 		"/>
	</g>
	<path fill="none" stroke="#565440" d="M316.4700623,387.4019165c1.0929871,0,1.9872131,0.1987,2.980896,0.5961914
		c0.9935913,0.3974915,1.8877869,0.9935913,2.5834045,1.689209c0.7948914,0.6954956,1.3911133,1.5898132,1.7885132,2.5834045
		s0.5961914,1.9872131,0.5961914,3.0802002h-7.9489136 M333.7113953,391.640625c1.0641785,0,1.934845-0.2299194,2.9023438-0.6898804
		c0.9674072-0.4598389,1.8380432-1.1496887,2.5153198-1.9544678c0.7739563-0.8047791,1.3544617-1.8395996,1.741394-2.9892883
		c0.3869019-1.1497192,0.5804749-2.2994385,0.5804749-3.5641785h-7.7394409 M353.5770569,331.025238
		c0,1.0929871,0.1987,1.9872131,0.5961914,2.9808044s0.9935913,1.8877869,1.689209,2.5834045
		c0.6954956,0.7948914,1.5898132,1.3911133,2.5834045,1.7885132c0.9935913,0.3974915,1.9872131,0.5961914,3.0802002,0.5961914
		v-7.9489136 M334.0410156,331.025238c0,1.0929871-0.1987,1.9872131-0.5961914,2.9808044s-0.9935913,1.8877869-1.689209,2.5834045
		c-0.6954956,0.7948914-1.5898132,1.3911133-2.5834045,1.7885132c-0.9935913,0.3974915-1.9872131,0.5961914-3.0802002,0.5961914
		v-7.9489136 M332.3678284,366.0948486c0-1.0929871-0.1987-1.9872131-0.5961914-2.9808044s-0.9935913-1.8877869-1.689209-2.5834045
		c-0.6954956-0.7948914-1.5898132-1.3911133-2.5834045-1.7885132c-0.9935913-0.3974915-1.9872131-0.5961914-3.0802002-0.5961914
		v7.9489136 M308.5211487,359.580719c0,1.291687-0.2980957,2.4840088-0.7948914,3.6763916
		c-0.4967957,1.1924133-1.1924133,2.3847046-2.1860046,3.2789001c-0.8942871,0.8941956-1.9872131,1.6890869-3.1795959,2.1859131
		c-1.1924133,0.4967957-2.4840088,0.7948914-3.7756958,0.7948914v-9.9361877"/>
</g>
</svg>
