<!-- DO NOT EDIT THIS, THIS FILE IS GENERATED FROM "1_7-12.original.svg" using transform-svgs.js script -->



<svg version="1.1" 
	 xmlns="http://www.w3.org/2000/svg" xmlns:xlink="http://www.w3.org/1999/xlink" x="0px" y="0px" viewBox="0 0 720 480"
	 style="enable-background:new 0 0 720 480;" xml:space="preserve">


<g>
	<polygon fill="#DBD4CA" points="508.3546143,244.8166199 503.8832092,242.829422 503.8832092,231.8995209
		508.3546143,212.0270081 503.8832092,210.0398102 503.8832092,198.0652161 507.808197,181.5515137 503.8832092,177.8463135
		503.8832092,166.9763184 507.9570923,148.8900146 503.8832092,145.4542084 503.8832092,132.0402222 507.8577881,114.155014
		503.8832092,113.1613159 503.8832092,102.231514 507.8577881,83.8494186 503.8832092,82.8558121 503.8832092,49.3707161
		506.8641052,37.1491165 481.0299072,31.1873169 480.0362854,36.1555138 452.2148132,36.1555138 432.8391113,31.6841164
		431.8454895,36.1555138 426.3806152,36.1555138 408.4953003,32.181015 405.5144043,37.1491165 380.6737976,37.1491165
		355.634491,30.9886169 355.7338867,156.185318 324.0372009,156.185318 323.9378967,120.4148178 211.8569946,120.4148178
		211.8569946,449.5032349 369.743988,449.5032349 369.743988,327.8835449 368.9490967,325.3001404 400.5462952,325.3001404
		400.5462952,359.0834351 412.9666138,358.5865173 430.355011,362.5610352 431.3486938,359.0834351 444.6632996,357.8910217
		470.7955933,363.4553223 472.5841064,359.0834351 482.42099,359.0834351 503.5852051,362.9585266 508.3546143,341.1981201
		503.8832092,340.2045288 503.8832092,327.7842407 508.3546143,308.4085388 503.8832092,307.414917 503.9237976,296.5256348
		508,279.5059204 504.8768921,277.6062317 503.8832092,277.6062317 503.8832092,263.1986389 	"/>
	<g>
		<rect x="369.743988" y="323.8097229" fill="#565440" width="30.504303" height="2.980896"/>
		<path fill="#565440" d="M323.0436096,155.8872223h32.5909119v0.9936066h-32.5909119V155.8872223z"/>
		<path fill="#565440" d="M321.4537964,168.8044128v2.980896h36.7640991v-2.980896H321.4537964z"/>
	</g>
</g>
<g>
	<polygon fill="none" stroke="#565440" points="322.4473877,120.6135178 211.6582947,120.6135178 211.6582947,198.1163177
		213.1486969,198.1163177 213.1486969,122.1040115 322.4473877,122.1040115 322.4473877,135.5179138 323.9378967,135.5179138
		323.9378967,120.6135178 	"/>
	<g>
		<rect x="211.161499" y="176.7533112" fill="#565440" width="5.9617004" height="6.9553986"/>
		<polygon fill="#565440" points="216.1295929,158.8681183 253.8874054,158.8681183 253.8874054,160.8553162 254.8809967,160.8553162
			254.8809967,158.8681183 256.8681946,158.8681183 256.8681946,157.8745117 216.1295929,157.8745117 216.1295929,155.8872223
			211.161499,155.8872223 211.161499,162.8426208 216.1295929,162.8426208 		"/>
		<rect x="211.161499" y="135.0211182" fill="#565440" width="5.9617004" height="6.9553986"/>
		<rect x="234.0148926" y="120.1167145" fill="#565440" width="6.9553986" height="5.9617004"/>
		<rect x="297.6068115" y="120.1167145" fill="#565440" width="6.9554138" height="4.9681015"/>
		<polygon fill="#565440" points="319.4666138,135.0211182 319.4666138,175.7597198 307.5430908,175.7597198 307.5430908,169.7980194
			306.5494995,169.7980194 306.5494995,176.7533112 307.5430908,176.7533112 319.4666138,176.7533112 319.4666138,202.587616
			310.9213867,202.587616 310.9213867,205.5684204 324.4346924,205.5684204 324.4346924,202.587616 324.4346924,135.0211182 		"/>
		<polygon fill="#565440" points="265.8109131,157.8745117 264.8171997,157.8745117 264.8171997,158.8681183 265.8109131,158.8681183
			266.8045044,158.8681183 266.8045044,125.084816 275.7471008,125.084816 275.7471008,126.0785141 282.7025146,126.0785141
			282.7025146,125.084816 282.7025146,120.1167145 275.7471008,120.1167145 254.8809967,120.1167145 254.8809967,125.084816
			265.8109131,125.084816 		"/>
		<polygon fill="#565440" points="294.6260071,186.689621 293.6323853,186.689621 293.6323853,202.587616 274.7535095,202.587616
			274.7535095,176.7533112 293.6323853,176.7533112 293.6323853,178.7406158 294.6260071,178.7406158 294.6260071,176.7533112
			294.6260071,175.7597198 294.6260071,169.7980194 293.6323853,169.7980194 293.6323853,175.7597198 254.8809967,175.7597198
			254.8809967,168.8043213 253.8874054,168.8043213 253.8874054,185.6959229 254.8809967,185.6959229 254.8809967,176.7533112
			273.7598877,176.7533112 273.7598877,202.587616 254.8809967,202.587616 254.8809967,193.6449127 253.8874054,193.6449127
			253.8874054,202.587616 217.1233063,202.587616 217.1233063,197.6194153 211.161499,197.6194153 211.161499,202.587616
			211.161499,205.5684204 301.0845032,205.5684204 301.0845032,202.587616 294.6260071,202.587616 		"/>
	</g>
	<path fill="none" stroke="#565440" d="M310.9213867,205.568512c0,1.2917023-0.2980957,2.4841003-0.7948914,3.6764069
		c-0.4967957,1.1923981-1.1924133,2.3847046-2.1860046,3.279007c-0.8942871,0.8943024-1.9872131,1.6891937-3.1795959,2.1860046
		c-1.1924133,0.4967957-2.4841003,0.7949066-3.7757874,0.7949066v-9.936203 M256.8681946,157.8745117
		c0-1.0930023,0.1987915-1.9873047,0.5961914-2.980896c0.3974915-0.9936066,0.9935913-1.8878937,1.689209-2.5834045
		c0.6955872-0.7949066,1.5898132-1.391098,2.5834045-1.7884979s1.9872131-0.5962067,3.0802002-0.5962067v7.9490051
		 M253.8872986,168.8044128c-1.0930023,0-1.9871979-0.1987-2.980896-0.5962067
		c-0.9936066-0.3973999-1.8878937-0.9936066-2.5834045-1.6891022c-0.7949066-0.6954956-1.391098-1.589798-1.7884979-2.5834045
		s-0.5962067-1.9871979-0.5962067-3.0802002h7.9490051 M253.8872986,185.6960144c-1.0930023,0-1.9871979,0.1987-2.980896,0.5962067
		c-0.9936066,0.3973999-1.8878937,0.9936066-2.5834045,1.6891022c-0.7949066,0.6954956-1.391098,1.589798-1.7884979,2.5834045
		s-0.5962067,1.9871979-0.5962067,3.0802002h7.9490051 M293.6323853,186.689621c-1.0929871,0-1.9873047-0.1987-2.980896-0.5962067
		c-0.9935913-0.3973999-1.8879089-0.9936066-2.5834045-1.6891022c-0.7948914-0.6954956-1.3911133-1.589798-1.7885132-2.5834045
		c-0.3974915-0.9936066-0.5961914-1.9871979-0.5961914-3.0802002h7.9490051"/>
</g>
<g>
	<path fill="none" stroke="#565440" d="M211.6582947,205.0716095h1.4904022v55.6428986h-1.4904022V205.0716095z"/>
	<g>
		<rect x="211.161499" y="218.4855194" fill="#565440" width="4.9680939" height="6.9553986"/>
		<polygon fill="#565440" points="217.1233063,239.3517151 217.1233063,237.3644104 253.8874054,237.3644104 253.8874054,236.3708191
			217.1233063,236.3708191 216.1295929,236.3708191 216.1295929,237.3644104 216.1295929,239.3517151 211.161499,239.3517151
			211.161499,246.3070221 217.1233063,246.3070221 		"/>
		<polygon fill="#565440" points="294.6260071,248.5924225 294.6260071,253.624115 287.7102966,253.624115 287.7102966,254.6115112
			294.6260071,254.6115112 294.6260071,272.1412354 217.1233063,272.1412354 217.1233063,260.2177429 211.161499,260.2177429
			211.161499,275.1221313 216.4277039,275.1221313 217.1233063,275.1221313 297.6068115,275.1221313 297.6068115,272.1412354
			297.6068115,248.5924225 		"/>
		<polygon fill="#565440" points="211.161499,202.587616 211.161499,205.5684204 268.791687,205.5684204 268.791687,229.4154205
			263.8236084,229.4154205 262.8299866,229.4154205 262.8299866,236.3708191 261.8363953,236.3708191 261.8363953,237.3644104
			269.7854004,237.3644104 269.7854004,236.3708191 263.8236084,236.3708191 263.8236084,230.4090118 271.7726135,230.4090118
			271.7726135,229.4154205 269.7854004,229.4154205 269.7854004,205.5684204 294.6260071,205.5684204 294.6260071,229.4154205
			279.7215881,229.4154205 279.7215881,230.4090118 294.6260071,230.4090118 294.6260071,239.0536194 297.6068115,239.0536194
			297.6068115,205.5684204 297.6068115,202.587616 		"/>
	</g>
	<path fill="none" stroke="#565440" d="M253.8872986,236.3708191c0-1.0930023,0.1987-1.9871979,0.5962067-2.980896
		c0.3973999-0.9936066,0.9936066-1.8878937,1.6891937-2.5834045c0.6954956-0.7949066,1.5898132-1.391098,2.5834045-1.7884979
		s1.9872131-0.5962067,3.0802002-0.5962067v7.9490051 M279.7215881,229.4154205c0-1.0930023-0.1987-1.9871979-0.5961914-2.980896
		c-0.3974915-0.9936066-0.9935913-1.8878937-1.689209-2.5834045c-0.6955872-0.7949066-1.5898132-1.391098-2.5834045-1.7884979
		s-1.9872131-0.5962067-3.0802002-0.5962067v7.9490051 M297.6068115,238.8549194
		c1.291687,0,2.4841003,0.2980957,3.6763916,0.7949066s2.3847046,1.1923981,3.2789917,2.1860046
		c0.8942871,0.8943024,1.6890869,1.9871979,2.1860046,3.1795959c0.4967957,1.1923981,0.7948914,2.4841003,0.7948914,3.7758026
		h-9.9361877"/>
</g>
<g>
	<path fill="none" stroke="#565440" d="M211.6582947,273.1349182h1.4904022v50.178009h-1.4904022V273.1349182z"/>
	<path fill="none" stroke="#565440" d="M253.8872986,306.9181213c0-1.0929871,0.1987-1.9872131,0.5962067-2.980896
		c0.3973999-0.9935913,0.9936066-1.8879089,1.6891937-2.5834045c0.6954956-0.7948914,1.5898132-1.3911133,2.5834045-1.7885132
		c0.9935913-0.3974915,1.9872131-0.5961914,3.0802002-0.5961914v7.9490051 M279.7215881,299.962738
		c0-1.0929871-0.1987-1.9872131-0.5961914-2.980896c-0.3974915-0.9935913-0.9935913-1.8879089-1.689209-2.5834045
		c-0.6955872-0.7948914-1.5898132-1.3911133-2.5834045-1.7885132s-1.9872131-0.5961914-3.0802002-0.5961914v7.9490051
		 M297.6068115,307.9117432c1.291687,0,2.4841003,0.2980957,3.6763916,0.7948914
		c1.1924133,0.4967957,2.3847046,1.1924133,3.2789917,2.1860046c0.8942871,0.8942871,1.6890869,1.9872131,2.1860046,3.1795959
		c0.4967957,1.1924133,0.7948914,2.4841003,0.7948914,3.7757874h-9.9361877"/>
	<g>
		<polygon fill="#565440" points="211.161499,301.9583435 211.161499,308.9156189 216.1309967,308.9156189 216.1309967,307.9217224
			253.8992004,307.9217224 253.8992004,306.9278259 216.1309967,306.9278259 216.1309967,301.9583435 		"/>
		<polygon fill="#565440" points="294.629303,317.8408203 294.629303,321.1261292 288.3081055,321.1261292 288.3081055,322.1200256
			294.629303,322.1200256 294.629303,340.700531 217.1448059,340.700531 217.1448059,322.8103333 211.161499,322.8103333
			211.161499,343.6822205 297.6109924,343.6822205 297.6109924,317.8408203 		"/>
		<polygon fill="#565440" points="211.161499,272.1413269 211.161499,288.0436401 217.1448059,288.0436401 217.1448059,275.1229248
			268.8077087,275.1229248 268.8077087,299.9704285 262.8443909,299.9704285 262.8443909,306.9278259 261.8504028,306.9278259
			261.8504028,307.9217224 269.8016968,307.9217224 269.8016968,306.9278259 263.8381958,306.9278259 263.8381958,300.9644165
			271.7894897,300.9644165 271.7894897,299.9704285 269.8016968,299.9704285 269.8016968,275.1229248 294.629303,275.1229248
			294.629303,299.9704285 279.7207947,299.9704285 279.7207947,300.9644165 294.629303,300.9644165 294.629303,307.9217224
			297.6109924,307.9217224 297.6109924,272.1413269 		"/>
	</g>
</g>
<g>
	<path fill="none" stroke="#565440" d="M213.1486969,342.2911377h-1.4904022v107.2120972h83.4645081v-1.490387h-81.973999
		L213.1486969,342.2911377L213.1486969,342.2911377z"/>
	<g>
		<polygon fill="#565440" points="211.161499,340.7013245 211.161499,343.6822205 211.161499,350.6375427 217.1233063,350.6375427
			217.1233063,343.6822205 294.6260071,343.6822205 294.6260071,345.1726379 297.6068115,345.1726379 297.6068115,343.6822205
			297.6068115,340.7013245 		"/>
		<rect x="211.161499" y="365.5419312" fill="#565440" width="4.9680939" height="6.9554138"/>
		<polygon fill="#565440" points="251.9001007,395.3506165 251.9001007,400.3188171 252.8937073,400.3188171 252.8937073,395.3506165
			252.8937073,394.3570251 217.1233063,394.3570251 217.1233063,386.4081421 211.161499,386.4081421 211.161499,414.2295227
			217.1233063,414.2295227 217.1233063,395.3506165 		"/>
		<polygon fill="#565440" points="252.8937073,412.2423401 254.8809967,412.2423401 254.8809967,411.2487183 252.8937073,411.2487183
			252.8937073,408.2678223 251.9001007,408.2678223 251.9001007,445.0319214 240.9701996,445.0319214 240.9701996,444.0382385
			234.0148926,444.0382385 234.0148926,450.0000305 240.9701996,450.0000305 261.8363953,450.0000305 261.8363953,445.0319214
			252.8937073,445.0319214 		"/>
		<rect x="211.161499" y="428.1403198" fill="#565440" width="5.9617004" height="6.9554138"/>
		<polygon fill="#565440" points="294.6260071,364.5483398 277.734314,364.5483398 277.734314,365.5419312 294.6260071,365.5419312
			294.6260071,385.4144287 264.8171997,385.4144287 264.8171997,365.5419312 269.7854004,365.5419312 269.7854004,364.5483398
			264.8171997,364.5483398 263.8236084,364.5483398 263.8236084,411.2487183 262.8299866,411.2487183 262.8299866,412.2423401
			264.8171997,412.2423401 264.8171997,411.2487183 264.8171997,405.2869263 276.7406921,405.2869263 276.7406921,404.293335
			264.8171997,404.293335 264.8171997,386.4081421 294.6260071,386.4081421 294.6260071,404.293335 284.6896973,404.293335
			284.6896973,405.2869263 294.6260071,405.2869263 294.6260071,444.0382385 275.7471008,444.0382385 275.7471008,450.0000305
			297.6068115,450.0000305 297.6068115,445.0319214 297.6068115,444.0382385 297.6068115,355.2082214 294.6260071,355.2082214 		"/>
	</g>
	<path fill="none" stroke="#565440" d="M251.9001007,408.2678223c-1.0930023,0-1.9871979-0.1987-2.980896-0.5961914
		c-0.9936066-0.3974915-1.8878937-0.9935913-2.5834045-1.689209c-0.7949066-0.6955872-1.391098-1.5898132-1.7884979-2.5834045
		s-0.5962067-1.9872131-0.5962067-3.0802002h7.9490051 M262.8299866,412.2423401c0,1.0929871-0.1987,1.9872131-0.5961914,2.980896
		c-0.3973999,0.9935913-0.9935913,1.8879089-1.689209,2.5834045c-0.6954956,0.7948914-1.5898132,1.3911133-2.5834045,1.7885132
		s-1.9873047,0.5961914-3.0802002,0.5961914v-7.9490051 M276.7406921,405.2869263c0,1.0929871,0.1987,1.9872131,0.5961914,2.980896
		c0.3973999,0.9935913,0.9935913,1.8879089,1.689209,2.5834045c0.6954956,0.7948914,1.5898132,1.3911133,2.5834045,1.7885132
		c0.9937134,0.3974915,1.9873047,0.5961914,3.0802917,0.5961914v-7.9490051 M277.734314,365.5419312
		c0,1.0929871-0.1987,1.9872131-0.5961914,2.980896c-0.3974915,0.9935913-0.9935913,1.8879089-1.689209,2.5834045
		c-0.6955872,0.7948914-1.5898132,1.3911133-2.5834045,1.7885132s-1.9872131,0.5961914-3.0802002,0.5961914v-7.9490051
		 M294.6260071,355.1089172c-1.291687,0-2.4841003-0.2980957-3.6763916-0.7948914
		c-1.1924133-0.4967957-2.3847046-1.1924133-3.2789917-2.1860046c-0.8942871-0.8942871-1.689209-1.9872131-2.1860046-3.1795959
		c-0.4967957-1.1924133-0.7948914-2.4841003-0.7948914-3.7757874h9.9361877"/>
</g>
<g>
	<g>
		<path fill="none" stroke="#565440" d="M412.8673096,357.2948303l15.5004883,3.5770874l-0.2980957,1.490387l-15.5004883-3.5770874
			L412.8673096,357.2948303z"/>
		<path fill="none" stroke="#565440" d="M444.2658081,356.1025391l25.1387024,5.7630005l-0.2980957,1.490387l-25.1387024-5.7630005
			L444.2658081,356.1025391z"/>
		<polygon fill="none" stroke="#565440" points="507.7583923,343.1854248 506.2680054,342.8873291 502.1940918,361.0706177 478.2477112,356.301239
			478.0490112,357.791626 503.3864136,362.8591309 503.4858093,362.1636353 		"/>

			<rect x="496.2880249" y="317.877655" transform="matrix(0.2514896 -0.96786 0.96786 0.2514896 69.7918701 727.487915)" fill="none" stroke="#565440" stroke-width="1.0000414" stroke-miterlimit="4.0001655" width="17.8927383" height="1.4883733"/>

			<rect x="497.2909851" y="286.1190491" transform="matrix(0.2514896 -0.96786 0.96786 0.2514896 100.6854553 703.9176025)" fill="none" stroke="#565440" stroke-width="1.0000414" stroke-miterlimit="4.0001655" width="16.3028584" height="1.4883733"/>
	</g>
	<g>
		<polygon fill="#565440" points="404.9183044,354.6121216 404.9183044,280.0902405 412.0723877,280.0902405 412.0723877,277.1093445
			404.9183044,277.1093445 399.9501953,277.1093445 399.9501953,359.5802307 404.9183044,359.5802307 410.1986084,359.5802307
			412.6684875,360.1764221 413.7615967,355.3076172 410.8800049,354.6121216 		"/>
		<polygon fill="#565440" points="428.7652893,357.592926 427.6723022,362.461731 430.5538025,363.1573181 431.3790894,359.480835
			444.6632996,359.480835 444.6632996,353.5191345 428.7652893,353.5191345 		"/>
		<polygon fill="#565440" points="469.5039063,359.4718323 468.6095886,363.4553223 471.4910889,364.1509399 472.5394897,359.480835
			484.4082031,359.480835 484.4082031,353.5191345 469.5039063,353.5191345 		"/>
		<polygon fill="#565440" points="454.5994873,316.8543396 454.5994873,355.903717 454.0033875,358.5865173 454.9970093,358.7853394
			455.5931091,356.1025391 455.5931091,317.8480225 456.586792,317.8480225 456.586792,316.8543396 455.5931091,316.8543396 		"/>
		<polygon fill="#565440" points="463.3434143,304.9308167 463.3434143,305.92453 470.4974976,305.92453 470.4974976,307.9117432
			471.4910889,307.9117432 471.4910889,305.92453 471.4910889,304.9308167 465.5293884,304.9308167 465.5293884,280.0902405
			505.6730042,280.0902405 508.1429138,280.6864319 508.838501,277.8049316 505.9570007,277.1093445 422.1080017,277.1093445
			422.1080017,280.0902405 424.790802,280.0902405 424.790802,286.8469238 425.7843933,286.8469238 425.7843933,280.0902405
			445.6568909,280.0902405 445.6568909,304.9308167 425.7843933,304.9308167 425.7843933,294.8953247 424.790802,294.8953247
			424.790802,305.92453 425.7843933,305.92453 455.4938049,305.92453 455.4938049,304.9308167 446.6505127,304.9308167
			446.6505127,280.0902405 464.5357056,280.0902405 464.5357056,304.9308167 		"/>
		<polygon fill="#565440" points="504.4794922,318.4442444 504.6781921,317.450531 502.2934875,316.8543396 471.4910889,316.8543396
			471.4910889,315.8607178 470.4974976,315.8607178 470.4974976,316.8543396 464.5357056,316.8543396 464.5357056,317.8480225
			502.094696,317.8480225 		"/>
		<polygon fill="#565440" points="504.2603149,326.121521 498.2986145,326.121521 498.2986145,342.8495178 503.7095032,342.8495178
			508.135498,343.8431396 508.8310852,340.9615173 504.2603149,339.9355164 		"/>
		<polygon fill="#565440" points="504.8565979,294.2008362 499.987793,293.1078186 499.3153992,295.9893188 499.2922058,295.9893188
			499.2922058,310.4378357 503.7095032,310.4378357 508.135498,311.431427 508.8310852,308.5499268 504.2603149,307.5238342
			504.2603149,296.6707153 		"/>
	</g>
	<path fill="none" stroke="#565440" d="M464.5357056,317.8480225c0,1.0929871-0.1987,1.9872131-0.5961914,2.980896
		c-0.3974915,0.9935913-0.9935913,1.8879089-1.689209,2.5834045c-0.6955872,0.7948914-1.5898132,1.3911133-2.5834045,1.7885132
		s-1.9872131,0.5961914-3.0802002,0.5961914v-7.9490051 M455.3944092,304.9308167
		c0-1.0929871,0.1987915-1.9873047,0.5961914-2.980896s0.9935913-1.8879089,1.689209-2.5834045
		c0.6955872-0.7948914,1.5898132-1.3911133,2.5834045-1.7885132s1.9872131-0.5961914,3.0802002-0.5961914v7.9490051
		 M425.7843933,294.7958374c1.0929871,0,1.9872131-0.1987,2.980896-0.5961914
		c0.9935913-0.3974915,1.8879089-0.9935913,2.5834045-1.689209c0.7948914-0.6955872,1.3911133-1.5898132,1.7885132-2.5834045
		s0.5961914-1.9872131,0.5961914-3.0802002h-7.9490051 M471.4910889,307.9117432c1.0929871,0,1.9872131,0.1987,2.980896,0.5961914
		c0.9935913,0.3974915,1.8879089,0.9937134,2.5834045,1.689209c0.7948914,0.6955872,1.3911133,1.5898132,1.7885132,2.5834045
		s0.5961914,1.9872131,0.5961914,3.0802002h-7.9490051 M412.1716919,277.1093445
		c0-1.291687,0.2980957-2.4841003,0.7948914-3.6763916s1.1924133-2.3847046,2.1860046-3.2789001
		c0.8942871-0.8942871,1.9873047-1.689209,3.1795959-2.1860046c1.1924133-0.4967957,2.4841003-0.7948914,3.7757874-0.7948914
		v9.9361877"/>
</g>
<g>
	<path fill="none" stroke="#565440" d="M444.6632996,253.2624207c0,1.0930023,0.1987,1.9871979,0.5961914,2.9809265
		c0.3974915,0.9935913,0.9935913,1.8879089,1.689209,2.5834045c0.6955872,0.7947998,1.5898132,1.3909912,2.5834045,1.7885132
		c0.9935913,0.3974915,1.9872131,0.5961914,3.0802002,0.5961914v-7.9489136 M470.4974976,245.3134155
		c0,1.0930023-0.1987,1.9871979-0.5961914,2.980896c-0.3973999,0.9936066-0.9935913,1.8878937-1.689209,2.5834045
		c-0.6954956,0.7949066-1.5898132,1.391098-2.5834045,1.7884979c-0.9937134,0.3973999-1.9873047,0.5962067-3.0802917,0.5962067
		v-7.9490051 M427.7716064,234.3836212c-1.291687,0-2.4841003,0.2980957-3.6763916,0.7949066
		s-2.3847046,1.1923065-3.2789001,2.1860046c-0.8942871,0.8943024-1.689209,1.9873047-2.1860046,3.1795959
		c-0.4967957,1.1923981-0.7948914,2.4841003-0.7948914,3.7758026h9.9361877"/>
	<g>
		<polygon fill="#565440" points="505.9522095,277.1105347 504.2603149,277.1105347 504.2603149,261.2125244 498.3077087,261.2125244
			498.3077087,277.1105347 455.5728149,277.1105347 455.5728149,253.2635193 461.5344849,253.2635193 461.5344849,252.2699127
			461.5344849,245.3145142 462.5281067,245.3145142 462.5281067,244.3209229 455.5728149,244.3209229 455.5728149,245.3145142
			460.5408936,245.3145142 460.5408936,252.2699127 452.5918884,252.2699127 452.5918884,253.2635193 454.5791016,253.2635193
			454.5791016,277.1105347 430.7320862,277.1105347 430.7320862,253.2635193 444.6429138,253.2635193 444.6429138,252.2699127
			430.7320862,252.2699127 430.7320862,244.3209229 427.7513123,244.3209229 427.7513123,277.1105347 427.7513123,280.0913391
			505.6684875,280.0913391 508.1382141,280.6875305 508.8338013,277.8060303 		"/>
		<polygon fill="#565440" points="430.7320862,229.6888123 436.4429016,229.6888123 436.4429016,228.6903229 430.7320862,228.6903229
			430.7320862,210.5376129 498.3067932,210.5376129 498.3067932,213.0029144 503.2666931,213.0029144 508.135498,214.0958099
			508.8310852,211.2143097 504.2603149,210.1882172 504.2603149,207.5568085 427.7513123,207.5568085 427.7513123,210.5376129
			427.7513123,234.384613 430.7320862,234.384613 		"/>
		<polygon fill="#565440" points="504.2593994,242.5016174 504.2593994,240.6923218 504.2601929,240.6923218 504.2601929,232.5813141
			505.0551147,229.1367188 500.1864014,228.0437164 499.2921143,231.819519 499.2921143,235.7958221 499.2912903,235.7958221
			499.2912903,244.3226166 470.4761963,244.3226166 470.4761963,245.3162079 503.2658081,245.3162079 508.134613,246.4092102
			508.8301086,243.52771 		"/>
	</g>
	<g>

			<rect x="496.2853699" y="252.6431885" transform="matrix(0.2514896 -0.96786 0.96786 0.2514896 132.9277191 678.6566772)" fill="none" stroke="#565440" stroke-width="1.0000414" stroke-miterlimit="4.0001655" width="17.8927383" height="1.488358"/>

			<rect x="497.2881165" y="220.7047577" transform="matrix(0.2514896 -0.96786 0.96786 0.2514896 163.9951782 654.9515381)" fill="none" stroke="#565440" stroke-width="1.0000414" stroke-miterlimit="4.0001655" width="16.3028584" height="1.488358"/>
	</g>
</g>
<g>
	<path fill="none" stroke="#565440" d="M444.6429138,183.7098083c0,1.0930023,0.1987,1.9871979,0.5961914,2.980896
		c0.3973999,0.9936066,0.9935913,1.8878937,1.6890869,2.5834045c0.6955872,0.7949066,1.5898132,1.391098,2.5834045,1.7884979
		s1.9872131,0.5962067,3.0802917,0.5962067v-7.9490051 M470.4771118,175.7608185c0,1.0930023-0.1987,1.9873047-0.5961914,2.980896
		c-0.3973999,0.9936066-0.9935913,1.8878937-1.6890869,2.5834045c-0.6955872,0.7949066-1.5898132,1.391098-2.5834045,1.7884979
		s-1.9872131,0.5962067-3.0802917,0.5962067v-7.9490051 M427.7969971,174.7671204
		c-1.291687,0-2.5297852-0.2980957-3.7221069-0.7949066c-1.1924133-0.4967957-2.3847046-1.1923065-3.2789001-2.1860046
		c-0.8942871-0.8943024-1.689209-1.9873047-2.1860046-3.1795959c-0.4967957-1.1923981-0.7948914-2.4841003-0.7948914-3.7758026
		h9.9819031"/>
	<g>
		<polygon fill="#565440" points="504.2565918,199.0329132 504.2533875,199.0329132 504.2533875,196.6246185 498.3138123,196.6246185
			498.3077087,207.5585175 455.5728149,207.5585175 455.5728149,183.7115173 461.5344849,183.7115173 461.5344849,175.7625122
			462.5281067,175.7625122 462.5281067,174.7689209 455.5728149,174.7689209 455.5728149,175.7625122 460.5408936,175.7625122
			460.5408936,182.7179108 452.5918884,182.7179108 452.5918884,183.7115173 454.5791016,183.7115173 454.5791016,207.5585175
			430.7320862,207.5585175 430.7320862,183.7115173 444.6429138,183.7115173 444.6429138,182.7179108 430.7320862,182.7179108
			430.7320862,174.7689209 427.7513123,174.7689209 427.7513123,210.5394135 504.2603149,210.5394135 		"/>
		<polygon fill="#565440" points="430.7320862,158.7117157 436.5939941,158.7117157 436.5939941,157.7247162 430.7320862,157.7247162
			430.7320862,140.9857178 498.3077087,140.9857178 498.3077087,148.3306122 503.7008972,148.3306122 508.1283875,149.3244171
			508.1286926,149.3235168 508.1317139,149.3242188 508.8272095,146.4427185 504.2565918,145.4167175 504.2603149,138.0048218
			504.2565918,138.0048218 504.2565918,138.0013123 497.3049927,138.0013123 497.3049927,138.0048218 427.7513123,138.0048218
			427.7513123,164.8327179 430.7320862,164.8327179 		"/>
		<polygon fill="#565440" points="504.2280884,177.6972198 504.2280884,168.3691101 505.0231018,164.9245148 500.1801147,163.8314209
			499.2858887,167.6072083 499.2858887,174.765213 470.4772034,174.7689209 470.4772034,175.762619 499.2858887,175.7589111
			499.2858887,180.7429199 504.2280884,180.7429199 504.2280884,180.7348175 507.8052063,181.5378113 508.5007935,178.656311 		"/>
	</g>
	<g>

			<rect x="496.2822571" y="187.6979675" transform="matrix(0.2514896 -0.96786 0.96786 0.2514896 195.7832642 630.0414429)" fill="none" stroke="#565440" stroke-width="1.0000414" stroke-miterlimit="4.0001655" width="17.8927383" height="1.488358"/>
		<polygon fill="none" stroke="#565440" points="503.9385071,165.3521118 502.4981079,164.9778137 506.7681885,148.4542084 508.2087097,148.8286133
					"/>
	</g>
</g>
<g>
	<path fill="none" stroke="#565440" d="M440.6924133,115.1487122c0-1.0930023,0.1987-1.9872971,0.5961914-2.9809036
		c0.3974915-0.9935989,0.9935913-1.8879013,1.689209-2.5833969c0.6955872-0.794899,1.5898132-1.391098,2.5834045-1.7884979
		s1.9872131-0.596199,3.0802002-0.596199v7.9489975 M450.6286926,82.3591156c-1.0929871,0-1.9872131-0.1987-2.980896-0.596199
		c-0.9935913-0.3974991-1.8879089-0.9935989-2.5834045-1.6892014c-0.7948914-0.6955032-1.3911133-1.589798-1.7885132-2.5833969
		s-0.5961914-1.9872971-0.5961914-3.0802002h7.9490051 M452.6159058,72.4229126c0-1.0930023,0.1987-1.9872971,0.5961914-2.9809036
		c0.3974915-0.9935989,0.9935913-1.8879013,1.689209-2.5833969c0.6955872-0.794899,1.5898132-1.391098,2.5834045-1.7884979
		c0.9935913-0.3974991,1.9872131-0.596199,3.0802002-0.596199v7.9489975 M470.4667969,74.4101181
		c1.0929871,0,1.9872131,0.1987,2.980896,0.596199c0.9935913,0.3974991,1.8879089,0.9935989,2.5834045,1.6892014
		c0.7948914,0.6955032,1.3911133,1.589798,1.7885132,2.5833969c0.3974915,0.9935989,0.5961914,1.9872971,0.5961914,3.0802002
		h-7.9490051 M430.7561951,127.0722122c1.291687,0,2.4840088,0.2981033,3.6763916,0.794899
		c1.1924133,0.4967957,2.3847046,1.1923981,3.2789001,2.1860046c0.8942871,0.8943024,1.689209,1.9871979,2.1860046,3.1795959
		c0.4967957,1.1923065,0.7948914,2.4841003,0.7948914,3.7758026h-9.9361877"/>
	<g>
		<polygon fill="#565440" points="430.7320862,116.1433182 440.668396,116.1433182 440.668396,115.1497116 430.7320862,115.1497116
			430.7320862,101.2389145 450.6046143,101.2389145 450.6046143,115.1497116 448.6174011,115.1497116 448.6174011,116.1433182
			451.5982971,116.1433182 451.5982971,115.1497116 451.5982971,82.3601151 450.6046143,82.3601151 450.6046143,100.2453156
			430.7320862,100.2453156 430.7320862,73.4175186 450.6046143,73.4175186 450.6046143,74.4111176 451.5982971,74.4111176
			451.5982971,73.4175186 452.5918884,73.4175186 452.5918884,72.4238129 430.7320862,72.4238129 430.7320862,38.6406136
			433.7358093,38.6429138 435.302887,31.9833164 432.4212952,31.287817 431.3926086,35.6597137 430.7320862,35.6597137
			427.7513123,35.6597137 427.7513123,127.0732117 430.7320862,127.0732117 		"/>
		<polygon fill="#565440" points="504.2603149,103.3218155 505.0552979,99.8772125 500.2124023,98.7842178 499.3181152,102.5600128
			499.3181152,115.535614 504.2603149,115.535614 504.2603149,115.5275116 507.8374023,116.330513 508.5329895,113.4490128
			504.2603149,112.4899139 		"/>
		<polygon fill="#565440" points="498.3077087,138.0031128 430.7320862,138.0031128 430.7320862,137.0094147 427.7513123,137.0094147
			427.7513123,138.0031128 427.7513123,140.9839172 504.2603149,140.9839172 504.2603149,138.0031128 504.2603149,131.5732117
			498.3077087,131.5732117 		"/>
		<polygon fill="#565440" points="470.4771118,82.3591156 469.48349,82.3591156 469.48349,83.8280182 462.5281067,83.8280182
			462.5281067,84.8216171 504.2603149,84.8135147 507.8374023,85.6165161 508.5329895,82.7350159 504.2603149,81.7759171
			504.2603149,67.0638123 498.316803,67.0638123 498.316803,83.8280182 470.4771118,83.8280182 		"/>
		<polygon fill="#565440" points="469.48349,72.4238129 460.5408936,72.4238129 460.5408936,73.4175186 469.48349,73.4175186
			469.48349,74.4101181 470.4771118,74.4101181 470.4771118,73.4175186 470.4771118,72.4238129 470.4771118,40.6279144
			483.3941956,40.6279144 483.3941956,40.6055145 483.4935913,40.6279144 485.480896,31.8839169 480.6120911,30.7909164
			479.5056152,35.6597137 470.4771118,35.6597137 448.6174011,35.6597137 448.6174011,38.6406136 469.48349,38.6406136 		"/>
	</g>
	<path fill="none" stroke="#565440" d="M506.843811,37.0508156l-23.8469849-5.5642986l-0.2980957,1.4903965l22.4559021,5.1668015
		l-2.5834045,11.2280006v18.6801033h1.490387V49.3717155L506.843811,37.0508156z M506.4462891,114.1560135l1.490387,0.2981033
		l-4.2250977,18.4815063l-1.490387-0.2980957L506.4462891,114.1560135z M506.4462891,83.353714l1.490387,0.2981033
		l-3.9744873,17.3883972l-1.490387-0.2981033L506.4462891,83.353714z M433.1167908,31.6852169l18.6800842,4.2726002
		l-0.2980957,1.4903984l-18.6801147-4.2726021L433.1167908,31.6852169z"/>
</g>
<g>
	<g>
		<path fill="none" stroke="#565440" d="M407.0049133,31.5848179l19.3757019,4.4712963l-0.2980957,1.4903984l-19.3757019-4.5707016
			L407.0049133,31.5848179z"/>
		<path fill="none" stroke="#565440" d="M355.2370911,99.250618h1.490387v28.8151016h-1.490387V99.250618z"/>
		<polygon fill="none" stroke="#565440" points="355.2370911,30.6905174 355.2370911,59.9031143 356.7275085,59.9031143 356.7275085,32.6778145
			374.2153015,37.2484169 374.6127014,35.7580147 		"/>
	</g>
	<g>
		<polygon fill="#565440" points="428.3678894,35.6586151 427.7716064,35.6586151 423.7970886,35.6586151 423.7970886,41.6204147
			427.7716064,41.6204147 427.7716064,76.3972168 404.9183044,76.3972168 404.9183044,77.3909149 407.8991089,77.3909149
			407.8991089,86.333519 408.8927917,86.333519 408.8927917,77.3909149 427.7716064,77.3909149 427.7716064,103.2251129
			408.8927917,103.2251129 408.8927917,94.1831131 407.8991089,94.1831131 407.8991089,104.2187119 408.8927917,104.2187119
			427.7716064,104.2187119 427.7716064,123.0976181 425.7843933,123.0976181 425.7843933,126.0785141 427.7716064,126.0785141
			430.7525024,126.0785141 430.7525024,35.6586151 		"/>
		<polygon fill="#565440" points="359.0127869,100.2442169 360.2052002,100.2442169 394.9819946,100.2442169 394.9819946,99.250618
			394.9819946,88.3207169 393.9884033,88.3207169 393.9884033,99.250618 381.6673889,99.250618 381.6673889,77.3909149
			381.667511,77.3909149 381.667511,76.3972168 379.6802979,76.3972168 379.6802979,77.3909149 380.6737976,77.3909149
			380.6737976,99.250618 360.2052002,99.250618 360.2052002,77.3909149 372.1286926,77.3909149 372.1286926,76.3972168
			360.2052002,76.3972168 360.2052002,50.563015 354.2434082,50.563015 354.2434082,51.5566139 351.2626038,51.5566139
			351.2626038,54.5375137 354.2434082,54.5375137 354.2434082,66.4610138 351.2626038,66.4610138 351.2626038,69.4419174
			354.2434082,69.4419174 354.2434082,81.3654175 351.2626038,81.3654175 351.2626038,84.3462143 354.2434082,84.3462143
			354.2434082,97.2634125 351.2626038,97.2634125 351.2626038,100.2442169 354.2434082,100.2442169 		"/>
		<rect x="351.2626038" y="112.167717" fill="#565440" width="6.9554138" height="2.9809036"/>
		<polygon fill="#565440" points="374.1159058,39.6331139 376.1032104,39.6331139 376.1032104,41.6204147 383.0585022,41.6204147
			383.0585022,39.6331139 393.9884033,39.6331139 393.9884033,80.3717117 394.9819946,80.3717117 394.9819946,77.3909149
			396.9692993,77.3909149 396.9692993,76.3972168 394.9819946,76.3972168 394.9819946,39.6331139 407.4876099,39.6331139
			407.8991089,39.7325134 409.6877136,31.9822178 406.8062134,31.2867165 405.5679932,36.652317 383.0585022,36.652317
			378.2892151,36.652317 374.3146973,35.0625153 373.2215881,37.8446159 374.1159058,38.2023163 		"/>
		<polygon fill="#565440" points="400.9437866,123.0976181 400.9437866,124.091217 407.8991089,124.091217 407.8991089,126.0785141
			407.8991089,138.9956207 404.9183044,138.9956207 401.9374084,138.9956207 401.9374084,152.906311 372.1286926,152.906311
			372.1286926,146.9446106 371.1350098,146.9446106 371.1350098,152.906311 371.1350098,153.9000092 384.0521851,153.9000092
			384.0521851,154.8936157 385.0458069,154.8936157 385.0458069,153.9000092 401.9374084,153.9000092 401.9374084,168.8043213
			385.0458069,168.8043213 385.0458069,162.8426208 384.0521851,162.8426208 384.0521851,168.8043213 360.2052002,168.8043213
			360.2052002,147.9382172 363.1860962,147.9382172 363.1860962,146.9446106 360.2052002,146.9446106 360.2052002,127.072113
			354.2434082,127.072113 351.2626038,127.072113 351.2626038,130.0529175 354.2434082,130.0529175 354.2434082,142.970108
			351.2626038,142.970108 351.2626038,145.9510193 354.2434082,145.9510193 354.2434082,171.7852173 356.2307129,171.7852173
			360.2052002,171.7852173 401.9374084,171.7852173 402.7322998,171.7852173 404.9183044,171.7852173 404.9183044,141.9765167
			407.8991089,141.9765167 410.8800049,141.9765167 410.8800049,126.0785141 415.848114,126.0785141 415.848114,123.0976181
			407.8991089,123.0976181 		"/>
	</g>
	<path fill="none" stroke="#565440" d="M404.9183044,76.3972168c0-1.0930023-0.1987-1.9871979-0.5961914-2.9809036
		c-0.3974915-0.9935989-0.9937134-1.8879013-1.689209-2.5833969c-0.6955872-0.794899-1.5898132-1.391098-2.5834045-1.7884979
		s-1.9872131-0.596199-3.0802002-0.596199v7.9489975 M393.9884033,80.3717117c-1.0929871,0-1.9872131,0.1987-2.980896,0.596199
		c-0.9935913,0.3974991-1.8879089,0.9935989-2.5834045,1.6892014c-0.7948914,0.6955032-1.3911133,1.589798-1.7885132,2.5833969
		s-0.5961914,1.9872971-0.5961914,3.0802002h7.9490051 M407.8991089,94.1831131c-1.0929871,0-1.9872131-0.1987-2.980896-0.596199
		c-0.9935913-0.3973999-1.8879089-0.9935989-2.5834045-1.6892014c-0.7948914-0.6955032-1.3911133-1.589798-1.7885132-2.5833969
		s-0.5961914-1.9872971-0.5961914-3.0802002h7.9490051 M372.0292969,77.3909149c0,0.9935989,0.1987,1.8879013,0.5961914,2.7822037
		c0.3973999,0.8943024,0.8942871,1.7884979,1.689209,2.4841003c0.6955872,0.6955032,1.5898132,1.2917023,2.4840088,1.6892014
		c0.8942871,0.3974991,1.8879089,0.596199,2.8815002,0.596199v-7.5514984 M371.1350098,146.9446106
		c0-1.0930023-0.1987-1.9873047-0.5961914-2.980896c-0.3974915-0.9936066-0.9935913-1.8878937-1.689209-2.5834045
		c-0.6955872-0.7949066-1.5898132-1.391098-2.5834045-1.7884979s-1.9872131-0.5962067-3.0802002-0.5962067v7.9490051
		 M384.0521851,162.8426208c-1.0929871,0-1.9872131-0.1987-2.980896-0.5962067
		c-0.9935913-0.3973999-1.8879089-0.9936066-2.5834045-1.6891022c-0.7948914-0.6954956-1.3911133-1.589798-1.7885132-2.5834045
		s-0.5961914-1.9871979-0.5961914-3.0802002h7.9490051 M415.848114,123.0976181
		c0-1.2917023,0.2980957-2.4841003,0.7948914-3.6763992s1.1924133-2.384697,2.1860046-3.2789993
		c0.8942871-0.8943024,1.9873047-1.6892014,3.1795959-2.185997c1.1924133-0.4968033,2.4841003-0.794899,3.7757874-0.794899v9.936203
		"/>
</g>
<g >
	<rect x="355" y="-0.0000832" fill="none" width="10" height="10"/>
	<rect x="181.1484985" y="235.0000153" fill="none" width="10" height="10"/>
	<rect x="355" y="469.9998169" fill="none" width="10" height="10"/>
	<rect x="528.838501" y="235.0000153" fill="none" width="10" height="10"/>
</g>
<g >
	<path data-nr="5" class="plan__svg__hoverable" fill="none" d="M324.434906,120.1168137h-19.8727112v-0.0000992h-6.9554138v0.0000992h-14.9043884
		v-0.0000992h-6.9554138h-20.8659821v0.0000992h-13.9107971v-0.0000992h-6.9553986v0.0000992h-22.8531952v0.4968033v14.407608
		h-0.0001984v6.9553986h0.0001984v13.9107056h-0.0001984v6.9553986h0.0001984v13.9107056h-0.0001984v6.9553986h0.0001984v13.9107971
		h-0.0001984v4.9680939v2.980896h0.0001984v0.0001068h89.3267059v10.4331055h0.4967957
		c1.2875977,0,2.6592102-0.2881927,3.9667053-0.8329926c1.1736145-0.4886017,2.3283081-1.2817993,3.3210144-2.2754059
		c0.9252014-0.8325958,1.7029114-1.9954987,2.3117981-3.4568024c0.5686035-1.3648071,0.8334961-2.5937042,0.8334961-3.8677979
		h4.0737915l0.0003052-0.0001068h8.9422913v-1.6696014v-1.3112946v-66.5727997h0.0002136v-15.8982162H324.434906z
		 M309.6677856,209.0539093c-0.5520935,1.3244934-1.2449036,2.3675995-2.0784912,3.1186981
		c-0.9202881,0.9203949-1.9649048,1.6394043-3.0197144,2.0789032c-1.0188904,0.4244995-2.0765076,0.6773071-3.0875854,0.740799
		v-9.4239044h8.9425964C310.4247131,206.7067108,310.1841125,207.8143158,309.6677856,209.0539093z"/>
	<path data-nr="4" class="plan__svg__hoverable" fill="none" d="M307.206604,244.8239136c-0.4891052-1.1735992-1.2817993-2.3287964-2.2749939-3.3204956
		c-0.8334961-0.9261932-1.9968872-1.7039032-3.4573059-2.3123016c-1.3633118-0.5681-2.5922852-0.8329926-3.8673096-0.8329926
		v-34.3861084h-0.0002136v-1.3843994h-86.4452972v2.980896h0.0001984v12.917099h-0.0001984v6.9553986h0.0001984v13.9107971
		h-0.0001984v6.9553986h0.0001984v13.9107208h-0.0001984v14.9043884h5.2662048h0.6954956h80.4835968v-1.4909058h0.0002136
		v-24.3437195h10.4330139v-0.4967957C308.0401001,247.5040131,307.7518921,246.1329193,307.206604,244.8239136z
		 M297.6069946,248.2939148v-8.9420929c1.1391907,0,2.2467957,0.2402039,3.4849854,0.7563934
		c1.3234863,0.5516052,2.3666992,1.2444,3.1191101,2.0789032c0.9198914,0.9199066,1.6383972,1.9640045,2.0784912,3.0191956
		c0.4249878,1.0198059,0.6777954,2.0774994,0.741394,3.0876007H297.6069946z"/>
	<path data-nr="3" class="plan__svg__hoverable" fill="none" d="M308.0401001,317.8476257c0-1.2867126-0.288208-2.6577148-0.8334961-3.9667053
		c-0.4885864-1.1731873-1.281311-2.3279114-2.2749939-3.3215027c-0.8326111-0.9247131-1.9960022-1.7019958-3.4573059-2.3113098
		c-1.3612976-0.5669861-2.5982971-0.8312988-3.8674927-0.8328857v-12.9562073v-19.3367004v-2.980896h-86.4452972v2.980896
		v12.9171143h0.0001984v13.910614h-0.0001984v6.9554138h0.0001984v13.9107056h-0.0001984v20.8660889h3.7758026h2.1860046h80.4836121
		v-1.3911133v-1.5898132v-22.3569946h10.433197v-0.4967041H308.0401001z M297.6068115,317.3507385v-8.9419861
		c1.1339111,0.0015869,2.249115,0.2416992,3.4851074,0.7572021c1.3244934,0.5510864,2.3676147,1.243988,3.1191101,2.0775146
		c0.9204102,0.9208984,1.6388855,1.9649048,2.0784912,3.0197144c0.4249878,1.0198059,0.6777954,2.0775146,0.741394,3.0875854
		h-9.4241028V317.3507385z"/>
	<polygon data-nr="2" class="plan__svg__hoverable" fill="none" points="211.161499,340.7009277 211.161499,343.6818237 211.161499,350.6371155
		211.1616974,350.6371155 211.1616974,365.5415344 211.161499,365.5415344 211.161499,372.4969177 211.1616974,372.4969177
		211.1616974,386.4076233 211.161499,386.4076233 211.161499,414.229126 211.1616974,414.229126 211.1616974,428.1398315
		211.161499,428.1398315 211.161499,435.0952454 211.1616974,435.0952454 211.1616974,449.9991455 234.0148926,449.9991455
		234.0148926,449.9996338 240.9701996,449.9996338 261.8363953,449.9996338 261.8363953,449.9991455 275.7471008,449.9991455
		275.7471008,449.9996338 297.6068115,449.9996338 297.6068115,445.0315247 297.6068115,444.0378418 297.6068115,363.6586304
		297.6068115,355.2078247 297.6068115,345.1722412 297.6068115,343.6818237 297.6068115,341.7940369 297.6068115,340.7009277 	"/>
	<polygon data-nr="1" class="plan__svg__hoverable" fill="none" points="370.1416016,349.6435242 370.1413879,349.6435242 370.1413879,307.9117432
		370.0421143,307.9117432 365.1733093,307.9117432 320.4602051,307.9117432 320.4602051,312.8798218 320.4602051,340.7013245
		313.5047913,340.7013245 313.5047913,343.6822205 313.5047913,356.5993347 308.5367126,356.5993347 298.6004944,356.5993347
		297.6068115,356.5993347 295.1228027,356.5993347 294.6260071,356.5993347 294.6260071,450.0000305 297.6068115,450.0000305
		303.5686035,450.0000305 303.5686035,449.9996338 318.4729919,449.9996338 318.4729919,450.0000305 339.3391113,450.0000305
		346.2944031,450.0000305 346.2944031,449.9996338 370.1416016,449.9996338 	"/>
	<path data-nr="10" class="plan__svg__hoverable" fill="none" d="M504.2604065,307.5238342v-10.8529968l0.5961914-2.4700012l-0.0299072-0.0067139
		l3.9906921-15.3617859l-0.213501-0.055603l0.2345886-0.9718933l-2.8815002-0.6954956h-83.3486023v-10.4361877h-0.5
		c-1.2880859,0-2.6611023,0.2880859-3.968811,0.8330078c-1.1729126,0.4892883-2.3280945,1.282196-3.3222961,2.2763977
		c-0.9248047,0.8330078-1.7030945,1.9960938-2.3125,3.4580078c-0.5682983,1.3641052-0.8330078,2.5935974-0.8330078,3.8688049
		h-6.7536011h-4.9681091v82.4707947h4.9681091h5.280304l2.4699097,0.5961914l0.1824951-0.8129883l15.6069946,3.6017151
		l0.0600891-0.2992859l2.0357056,0.491394l0.8252869-3.6765137h13.2842102v-1.2150879l24.8327942,5.6925964l0.0551147-0.2756958
		l1.9399109,0.4682922l1.0483093-4.6700134h11.4078979l19.8602905,3.9715881l0.1650085-1.1796875l4.1514893-18.432312
		l0.0114136,0.002594l0.6955872-2.8815002l-4.5707092-1.0260925v-12.6127014l4.5481873-17.5011902l-0.2677917-0.0694885
		l0.2901917-1.202301L504.2604065,307.5238342z M413.4287109,273.6253357
		c0.5517883-1.3241882,1.2441101-2.3671875,2.0770874-3.1181946c0.9208984-0.9198914,1.9648132-1.6387024,3.0185852-2.0770874
		c1.0176086-0.4248047,2.0741882-0.6777039,3.0840149-0.7412109v9.4208984h-8.9364929
		C412.6719055,275.9700317,412.9121094,274.8636169,413.4287109,273.6253357z"/>
	<path data-nr="9" class="plan__svg__hoverable" fill="none" d="M505.952301,277.1105347h-1.6918945V262.092041l4.5481873-17.505722
		l-0.2202148-0.0570984l0.2416992-1.0014038l-4.5707092-1.0260925v-1.8092957h0.0007935v-8.1109924l0.7948914-3.4445953
		l-0.3039856-0.0682068l4.0671997-15.6522064l-0.4881897-0.1266937l0.500885-2.0753021l-4.5707092-1.0260925v-2.6315002h-76.5090942
		v2.980896v23.3470001c-1.269104,0.0028076-2.4928894,0.2666016-3.8479919,0.8325043
		c-1.460907,0.6083984-2.625,1.3867035-3.4403992,2.2938995c-1.0116882,1.0106964-1.8046875,2.1660004-2.2948914,3.3412933
		c-0.5527039,1.328598-0.8330078,2.6636047-0.8330078,3.9673004v0.5h10.4162903v32.290802v2.980896h77.9172058l2.4697876,0.5960999
		l0.6955872-2.8815002L505.952301,277.1105347z M419.0917969,240.736618
		c0.4395142-1.0552063,1.1582031-2.0991058,2.0967102-3.0375977c0.7333984-0.8153992,1.7763977-1.5077972,3.0996094-2.0590973
		c1.2373047-0.516098,2.343811-0.7563019,3.4833984-0.7563019v-0.4989929h0.0256042v9.936203h-0.0256042v-0.5012054h-9.4208984
		C418.414093,242.8118134,418.6669922,241.7562103,419.0917969,240.736618z"/>
	<path data-nr="8" class="plan__svg__hoverable" fill="none" d="M508.3662109,148.3526154l0.4609985-1.9098969l-4.5705872-1.0260925
		l0.0038147-7.4118958h-0.0038147v-0.0034943h-6.9515991v0.0034943h-69.5537109v24.8377991v1.4882965h-10.4359131v0.5
		c0,1.2881012,0.2880859,2.660202,0.8330078,3.967804c0.4883118,1.1737976,1.281311,2.3291016,2.2753906,3.3222961
		c0.8340149,0.925293,1.9971008,1.703598,3.4590149,2.3130035c1.3306885,0.5543976,2.5967102,0.824707,3.8684998,0.8311005
		v27.9571991v7.3173065h76.5090942l-0.0038147-11.5065002h-0.0032043v-1.8610992l4.5552063-17.5312958l-0.513092-0.1334991
		l0.2052917-0.8506012l-4.2726135-0.959198v-9.3280945l0.7948914-3.4445953l-0.4327087-0.097702l4.2279968-16.3567963
		L508.3662109,148.3526154z M421.1494141,171.4329224c-0.9208984-0.9203949-1.6387024-1.9644012-2.0770874-3.0186005
		c-0.4248047-1.0175934-0.6777039-2.0737-0.7412109-3.0834961h9.4201965v8.9340973
		c-1.137085-0.0063934-2.2781067-0.2518005-3.4837036-0.7539063
		C422.9433899,172.9593201,421.9003906,172.2664185,421.1494141,171.4329224z"/>
	<polygon data-nr="7" class="plan__svg__hoverable" fill="none" points="508.39151,114.0350189 508.5329895,113.4490128 504.2604065,112.4899139
		504.2604065,103.3218155 505.0552979,99.8772125 504.756012,99.8096161 508.5380859,83.2620163 508.4118042,83.2368164
		508.5329895,82.7350159 504.2604065,81.7759171 504.2604065,68.5521164 504.5614929,68.5521164 504.5614929,49.4276161
		507.4403992,36.6766167 482.6083984,30.882618 482.5400085,31.2237167 480.6120911,30.7910175 479.5056152,35.6597137
		470.4771118,35.6597137 452.3666077,35.6597137 452.3828125,35.5789146 432.7275085,31.0833168 432.6742859,31.348917
		432.4212952,31.287817 431.3926086,35.6597137 430.7320862,35.6597137 427.7513123,35.6597137 427.7513123,101.0402145
		427.7513123,127.0732117 427.7513123,137.0094147 427.7513123,138.0031128 427.7513123,139.8908081 427.7513123,140.9839172
		504.2604065,140.9839172 504.2604065,138.0031128 504.2604065,132.780014 508.5380859,114.0643158 	"/>
	<polygon data-nr="6" class="plan__svg__hoverable" fill="none" points="428.3678894,35.6586151 427.7716064,35.6586151 426.8666992,35.6586151
		406.6242981,30.9870167 406.1188049,33.3474159 406.3197021,33.3948135 405.5679932,36.652317 383.0585022,36.652317
		378.2892151,36.652317 375.2161865,35.4231148 375.2213135,35.4040146 375.068512,35.3640137 374.3146973,35.0625153
		374.2774963,35.1572151 354.740387,30.0472164 354.740387,50.563015 354.2434082,50.563015 354.2434082,51.5566139
		351.2626038,51.5566139 351.2626038,54.5375137 354.2434082,54.5375137 354.2434082,66.4610138 351.2626038,66.4610138
		351.2626038,69.4419174 354.2434082,69.4419174 354.2434082,81.3654175 351.2626038,81.3654175 351.2626038,84.3462143
		354.2434082,84.3462143 354.2434082,97.2634125 351.2626038,97.2634125 351.2626038,100.2442169 354.2434082,100.2442169
		354.740387,100.2442169 354.740387,112.167717 351.2626038,112.167717 351.2626038,115.148613 354.740387,115.148613
		354.740387,127.072113 354.2434082,127.072113 351.2626038,127.072113 351.2626038,130.0529175 354.2434082,130.0529175
		354.2434082,142.970108 351.2626038,142.970108 351.2626038,145.9510193 354.2434082,145.9510193 354.2434082,171.7852173
		356.2307129,171.7852173 360.2052002,171.7852173 401.9374084,171.7852173 402.7322998,171.7852173 404.9183044,171.7852173
		404.9183044,141.9765167 407.8991089,141.9765167 410.8800049,141.9765167 410.8800049,126.0785141 413.2659912,126.0785141
		415.848114,126.0785141 425.7843933,126.0785141 427.7716064,126.0785141 429.5602112,126.0785141 430.7525024,126.0785141
		430.7525024,35.6586151 	"/>
</g>
<g>
	<path fill="none" stroke="#565440" d="M368.1380615,448.0125427h-71.9376831v1.490387h73.4281006v-99.3615112h-1.490387v97.8711243
		H368.1380615z"/>
	<g>
		<polygon fill="#565440" points="339.3231812,445.0316162 330.3806763,445.0316162 329.387085,445.0316162 318.4572754,445.0316162
			318.4572754,449.9996948 339.3231812,449.9996948 346.2784424,449.9996948 346.2784424,443.0444336 339.3231812,443.0444336 		"/>
		<rect x="362.1763916" y="428.1401978" fill="#565440" width="7.9489136" height="6.9553223"/>
		<polygon fill="#565440" points="365.1571655,364.5488281 365.1571655,366.0668945 332.1825562,366.0668945 332.1825562,367.0604858
			332.7178345,367.0604858 332.7178345,382.6765747 333.7114258,382.6765747 333.7114258,367.0604858 365.1571655,367.0604858
			365.1571655,371.5040894 370.1253052,371.5040894 370.1253052,364.5488281 		"/>
		<polygon fill="#565440" points="316.4700928,359.5806885 322.432373,359.5806885 322.432373,367.0606079 324.469696,367.0606079
			324.469696,366.0670166 323.4259644,366.0670166 323.4259644,358.5917358 323.425354,358.5917358 323.425354,358.5870972
			316.4700928,358.5870972 316.4700928,343.6829224 323.425354,343.6829224 323.425354,340.7020264 323.425354,331.0256958
			326.3497314,331.0256958 326.3497314,330.0321045 323.425354,330.0321045 323.425354,312.8807983 347.5734863,312.8807983
			347.5734863,330.0316162 333.7671509,330.0316162 333.7671509,331.0252075 353.7824097,331.0252075 353.7824097,330.0316162
			348.5670776,330.0316162 348.5670776,312.8807983 363.1699829,312.8807983 363.1699829,330.0317383 361.3650513,330.0317383
			361.3650513,331.0253296 363.1699829,331.0253296 363.1699829,350.6382446 370.1252441,350.6382446 370.1252441,307.9128418
			320.4445801,307.9128418 320.4445801,312.8807983 320.4445801,340.7020264 313.4891968,340.7020264 313.4891968,343.6829224
			313.4891968,356.5999146 308.5211792,356.5999146 308.5211792,359.5806885 313.4891968,359.5806885 		"/>
		<polygon fill="#565440" points="297.5913696,405.2869873 319.4508667,405.2869873 319.4508667,404.293396 316.4700928,404.293396
			316.4700928,395.3508911 315.4764404,395.3508911 315.4764404,404.293396 297.5913696,404.293396 297.5913696,379.4530029
			315.4764404,379.4530029 315.4764404,387.4019165 316.4700928,387.4019165 316.4700928,378.4594116 315.4764404,378.4594116
			297.5913696,378.4594116 297.5913696,359.5806885 298.5849609,359.5806885 298.5849609,356.5999146 297.5913696,356.5999146
			294.6104736,356.5999146 294.6104736,449.9996948 297.5913696,449.9996948 303.5531006,449.9996948 303.5531006,443.0444336
			297.5913696,443.0444336 		"/>
		<polygon fill="#565440" points="332.7178345,391.4841919 332.7178345,404.293396 332.7178345,405.2869873 333.7114258,405.2869873
			365.1571655,405.2869873 365.1571655,409.2615356 370.1252441,409.2615356 370.1252441,381.4401855 363.1699829,381.4401855
			363.1699829,388.3956299 365.1571655,388.3956299 365.1571655,404.293396 333.7114258,404.293396 333.7114258,391.4841919 		"/>
	</g>
	<path fill="none" stroke="#565440" d="M316.4700623,387.4019165c1.0929871,0,1.9872131,0.1987,2.980896,0.5961914
		c0.9935913,0.3974915,1.8877869,0.9935913,2.5834045,1.689209c0.7948914,0.6954956,1.3911133,1.5898132,1.7885132,2.5834045
		s0.5961914,1.9872131,0.5961914,3.0802002h-7.9489136 M333.7113953,391.640625c1.0641785,0,1.934845-0.2299194,2.9023438-0.6898804
		c0.9674072-0.4598389,1.8380432-1.1496887,2.5153198-1.9544678c0.7739563-0.8047791,1.3544617-1.8395996,1.741394-2.9892883
		c0.3869019-1.1497192,0.5804749-2.2994385,0.5804749-3.5641785h-7.7394409 M353.5770569,331.025238
		c0,1.0929871,0.1987,1.9872131,0.5961914,2.9808044s0.9935913,1.8877869,1.689209,2.5834045
		c0.6954956,0.7948914,1.5898132,1.3911133,2.5834045,1.7885132c0.9935913,0.3974915,1.9872131,0.5961914,3.0802002,0.5961914
		v-7.9489136 M334.0410156,331.025238c0,1.0929871-0.1987,1.9872131-0.5961914,2.9808044s-0.9935913,1.8877869-1.689209,2.5834045
		c-0.6954956,0.7948914-1.5898132,1.3911133-2.5834045,1.7885132c-0.9935913,0.3974915-1.9872131,0.5961914-3.0802002,0.5961914
		v-7.9489136 M332.3678284,366.0948486c0-1.0929871-0.1987-1.9872131-0.5961914-2.9808044s-0.9935913-1.8877869-1.689209-2.5834045
		c-0.6954956-0.7948914-1.5898132-1.3911133-2.5834045-1.7885132c-0.9935913-0.3974915-1.9872131-0.5961914-3.0802002-0.5961914
		v7.9489136 M308.5211487,359.580719c0,1.291687-0.2980957,2.4840088-0.7948914,3.6763916
		c-0.4967957,1.1924133-1.1924133,2.3847046-2.1860046,3.2789001c-0.8942871,0.8941956-1.9872131,1.6890869-3.1795959,2.1859131
		c-1.1924133,0.4967957-2.4840088,0.7948914-3.7756958,0.7948914v-9.9361877"/>
</g>
</svg>
