<!-- DO NOT EDIT THIS, THIS FILE IS GENERATED FROM "2_23.original.svg" using transform-svgs.js script -->



<svg version="1.1" 
	 xmlns="http://www.w3.org/2000/svg" xmlns:xlink="http://www.w3.org/1999/xlink" x="0px" y="0px" viewBox="0 0 720 480"
	 style="enable-background:new 0 0 720 480;" xml:space="preserve">


<g>
	<path fill="#DBD4CA" d="M265.5,449.2l1.4-6.3l15.9-0.3l23.6,6.8l2.4-5.1v-1.4H329l25.8,6.3l2.8-6.3H373l27.9,6.3l2.8-6.3
		h16.7l23.4,5.5l5.1-5.5H466l23.6,5.8l4.8-5.8h7l0,0h11.9l25.1,5.6l1.4-5.6h15.4l25.8,5.6l1.4-5.6h47l17.2,4.2l8.4-36.3l-7-1.4
		v-39.1l6.3-27.2l-6.3-1.4c0-1.8,0-5.9,0-7.7l5.6-25.1l-7-4.2V267l8.9-32.9l-176.5,0.1v-44.1h45.7l-0.2-154.6c0,0-404.5,0-453.4,0
		v213.8l90.3,0.2v4.1h79.3v44h-46.3l0.7,17.4l-5.6,24.4l4.9,1.4l1.7,18.7l-7.7,35.6l6,3.6v13.8l-5.7,29.7l30.8,6.7l1.4-6.3h17.4
		L265.5,449.2z"/>
	<g>
		<rect x="239.7" y="254.6" fill="#565440" width="4.2" height="42.6"/>
		<rect x="457.4" y="189.9" fill="#565440" width="4.2" height="44.7"/>
		<rect x="478.3" y="189.9" fill="#565440" width="1.4" height="44.7"/>
	</g>
</g>
<g>
	<g>
		<rect x="160.8" y="251.7" fill="none" stroke="#565440" width="45.3" height="2.1"/>
		<polygon fill="none" stroke="#565440" points="92.7,57.6 92.7,59.7 92.7,229.7 94.8,229.7 94.8,59.7 264.8,59.7 264.8,57.6 94.8,57.6 		"/>
		<polygon fill="none" stroke="#565440" points="71,35.6 71,249.4 71.7,249.4 73.1,249.4 122.1,249.4 122.1,247.3 73.1,247.3 73.1,37.7 266.2,37.7
			266.2,37.7 266.2,35.6 		"/>
	</g>
	<g>
		<polygon fill="#565440" points="219.8,147.2 219.8,139.4 217,139.4 217,131.7 215.6,131.7 215.6,157.4 219.8,157.4 219.8,151.3
			268.3,151.3 268.3,32.6 264.1,32.6 264.1,116.2 256,116.2 256,117.6 264.1,117.6 264.1,147.2 236.9,147.2 236.9,117.6
			245.9,117.6 245.9,116.2 235.5,116.2 235.5,147.2 		"/>
		<polygon fill="#565440" points="166.2,147 92.4,147 92.4,151.2 127.9,151.2 127.9,178.6 137.9,178.6 137.9,177.2 129.3,177.2
			129.3,151.2 164.8,151.2 164.8,177.2 148,177.2 148,178.6 160.5,178.6 160.5,182.8 161.9,182.8 161.9,178.6 166.2,178.6 		"/>
		<polygon fill="#565440" points="83.4,40.3 99.9,40.3 99.9,39.3 101.8,39.3 101.8,36.6 99.9,36.6 99.9,35.6 101.8,35.6 101.8,32.9
			99.9,32.9 99.9,31.9 98.5,31.9 98.5,30 95.8,30 95.8,31.9 94.8,31.9 94.8,30 92.1,30 92.1,31.9 91.1,31.9 91.1,30 88.5,30
			88.5,31.9 87.5,31.9 87.5,30 84.8,30 84.8,31.9 83.4,31.9 83.4,32.9 81.5,32.9 81.5,35.6 83.4,35.6 83.4,36.6 81.5,36.6
			81.5,39.3 83.4,39.3 		"/>
		<polygon fill="#565440" points="73.1,57.9 70.4,57.9 70.4,59.8 69.4,59.8 69.4,57.9 66.7,57.9 66.7,59.8 65.7,59.8 65.7,61.2
			63.8,61.2 63.8,63.9 65.7,63.9 65.7,64.9 63.8,64.9 63.8,67.6 65.7,67.6 65.7,68.6 63.8,68.6 63.8,71.3 65.7,71.3 65.7,72.3
			63.8,72.3 63.8,75 65.7,75 65.7,76.4 66.7,76.4 66.7,78.3 69.4,78.3 69.4,76.4 70.4,76.4 70.4,78.3 73.1,78.3 73.1,76.4 74,76.4
			74,59.8 73.1,59.8 		"/>
		<polygon fill="#565440" points="73.1,205.5 70.4,205.5 70.4,207.4 69.4,207.4 69.4,205.5 66.7,205.5 66.7,207.4 65.7,207.4
			65.7,208.8 63.8,208.8 63.8,211.5 65.7,211.5 65.7,212.5 63.8,212.5 63.8,215.2 65.7,215.2 65.7,216.2 63.8,216.2 63.8,218.9
			65.7,218.9 65.7,219.9 63.8,219.9 63.8,222.6 65.7,222.6 65.7,224 66.7,224 66.7,225.9 69.4,225.9 69.4,224 70.4,224 70.4,225.9
			73.1,225.9 73.1,224 74,224 74,207.4 73.1,207.4 		"/>
		<polygon fill="#565440" points="100.1,246.8 83.5,246.8 83.5,247.8 81.6,247.8 81.6,250.5 83.5,250.5 83.5,251.5 81.6,251.5
			81.6,254.2 83.5,254.2 83.5,255.2 84.9,255.2 84.9,257.1 87.6,257.1 87.6,255.2 88.6,255.2 88.6,257.1 91.3,257.1 91.3,255.2
			92.3,255.2 92.3,257.1 95,257.1 95,255.2 96,255.2 96,257.1 98.6,257.1 98.6,255.2 100.1,255.2 100.1,254.2 101.9,254.2
			101.9,251.5 100.1,251.5 100.1,250.5 101.9,250.5 101.9,247.8 100.1,247.8 		"/>
		<polygon fill="#565440" points="184.9,246.8 175.2,246.8 175.2,255.2 176.9,255.2 176.9,257.1 179.6,257.1 179.6,255.2 180.6,255.2
			180.6,257.1 183.3,257.1 183.3,255.2 184.9,255.2 		"/>
		<polygon fill="#565440" points="128.2,40.3 147.2,40.3 147.2,39.3 149,39.3 149,36.6 147.2,36.6 147.2,35.6 149,35.6 149,32.9
			147.2,32.9 147.2,31.9 146.4,31.9 146.4,30 143.7,30 143.7,31.9 142.7,31.9 142.7,30 140,30 140,31.9 139,31.9 139,30 136.3,30
			136.3,31.9 135.3,31.9 135.3,30 132.6,30 132.6,31.9 131.7,31.9 131.7,30 129,30 129,31.9 128.2,31.9 128.2,32.9 126.3,32.9
			126.3,35.6 128.2,35.6 128.2,36.6 126.3,36.6 126.3,39.3 128.2,39.3 		"/>
		<polygon fill="#565440" points="73.1,133.6 70.4,133.6 70.4,135.4 69.4,135.4 69.4,133.6 66.7,133.6 66.7,135.4 65.7,135.4
			65.7,136.2 63.8,136.2 63.8,138.9 65.7,138.9 65.7,139.9 63.8,139.9 63.8,142.6 65.7,142.6 65.7,143.6 63.8,143.6 63.8,146.3
			65.7,146.3 65.7,147.3 63.8,147.3 63.8,150 65.7,150 65.7,150.9 63.8,150.9 63.8,153.6 65.7,153.6 65.7,154.4 66.7,154.4
			66.7,156.3 69.4,156.3 69.4,154.4 70.4,154.4 70.4,156.3 73.1,156.3 73.1,154.4 74,154.4 74,135.4 73.1,135.4 		"/>
		<polygon fill="#565440" points="211.9,40.3 230.9,40.3 230.9,39.3 232.8,39.3 232.8,36.6 230.9,36.6 230.9,35.6 232.8,35.6
			232.8,32.9 230.9,32.9 230.9,31.9 230.1,31.9 230.1,30 227.4,30 227.4,31.9 226.4,31.9 226.4,30 223.7,30 223.7,31.9 222.7,31.9
			222.7,30 220,30 220,31.9 219,31.9 219,30 216.3,30 216.3,31.9 215.4,31.9 215.4,30 212.7,30 212.7,31.9 211.9,31.9 211.9,32.9
			210,32.9 210,35.6 211.9,35.6 211.9,36.6 210,36.6 210,39.3 211.9,39.3 		"/>
		<polygon fill="#565440" points="217,117.9 219.8,117.9 219.8,57.1 215.6,57.1 215.6,121.6 217,121.6 		"/>
		<polygon fill="#565440" points="161.9,192.9 160.5,192.9 160.5,196.5 147.9,196.5 147.9,197.9 160.5,197.9 160.5,221.8 129.3,221.8
			129.3,221.8 129.3,197.9 139.4,197.9 139.4,196.5 127.9,196.5 127.9,221.8 100.8,221.8 100.8,212.9 92.4,212.9 92.4,230.2
			92.4,230.2 121,230.2 121,255.2 123.1,255.2 124.6,255.2 124.6,257.1 127.2,257.1 127.2,255.2 128.2,255.2 128.2,257.1
			130.9,257.1 130.9,255.2 131.9,255.2 131.9,257.1 134.6,257.1 134.6,255.2 135.6,255.2 135.6,257.1 138.3,257.1 138.3,255.2
			139.3,255.2 139.3,257.1 142,257.1 142,255.2 142.9,255.2 142.9,257.1 145.6,257.1 145.6,255.2 146.6,255.2 146.6,257.1
			149.3,257.1 149.3,255.2 150.3,255.2 150.3,257.1 153,257.1 153,255.2 154,255.2 154,257.1 156.7,257.1 156.7,255.2 157.6,255.2
			157.6,257.1 160.3,257.1 160.3,255.2 161.9,255.2 161.9,255.2 161.9,255.2 161.9,242.4 160.5,242.4 160.5,246.8 129.3,246.8
			129.3,223.2 129.3,223.2 160.5,223.2 160.5,232.2 161.9,232.2 161.9,197.9 167.6,197.9 167.6,196.5 161.9,196.5 		"/>
		<polygon fill="#565440" points="266.2,184.1 259.2,184.1 259.2,184.1 219.8,184.1 219.8,171.3 215.6,171.3 215.6,186.9 179.9,186.9
			179.9,187.2 179.9,187.2 179.9,196.5 177.9,196.5 177.9,197.9 181.3,197.9 181.3,188.3 215.6,188.3 215.6,188.3 229,188.3
			229,223 230.4,223 230.4,188.3 259.2,188.3 259.2,246.8 230.4,246.8 230.4,233.1 229,233.1 229,246.8 205.1,246.8 205.1,255.2
			206.5,255.2 206.5,257.1 209.2,257.1 209.2,255.2 210.2,255.2 210.2,257.1 212.9,257.1 212.9,255.2 213.9,255.2 213.9,257.1
			216.6,257.1 216.6,255.2 217.5,255.2 217.5,257.1 220.2,257.1 220.2,255.2 221.2,255.2 221.2,257.1 223.9,257.1 223.9,255.2
			224.9,255.2 224.9,257.1 227.6,257.1 227.6,255.2 228.6,255.2 228.6,257.1 231.3,257.1 231.3,255.2 232.2,255.2 232.2,257.1
			234.9,257.1 234.9,255.2 235.9,255.2 235.9,257.1 238.6,257.1 238.6,255.2 239.6,255.2 239.6,257.1 242.3,257.1 242.3,255.2
			266.2,255.2 266.2,252.5 266.2,252.5 		"/>
	</g>
	<g>
		<g>
			<path fill="none" stroke="#565440" d="M92.4,121.3c-1.5,0-2.8,0.3-4.2,0.8c-1.4,0.6-2.7,1.4-3.6,2.4c-1.1,1-2,2.2-2.5,3.6
				c-0.6,1.4-0.8,2.8-0.8,4.3h11.2"/>
		</g>
		<g>
			<path fill="none" stroke="#565440" d="M219.8,157.4c1.9,0,3.5,0.3,5.2,1s3.3,1.7,4.5,2.9c1.4,1.2,2.4,2.8,3.1,4.5c0.7,1.7,1,3.5,1,5.4h-13.9"/>
		</g>
		<g>
			<path fill="none" stroke="#565440" d="M217,121.6c1.4,0,2.5,0.3,3.8,0.8s2.4,1.3,3.3,2.1c1,0.9,1.8,2,2.3,3.3s0.8,2.5,0.8,3.9h-10.1"/>
		</g>
		<g>
			<path fill="none" stroke="#565440" d="M245.9,116.2c0-1.4,0.3-2.5,0.8-3.8s1.3-2.4,2.1-3.3c0.9-1,2-1.8,3.3-2.3s2.5-0.8,3.9-0.8v10.1"/>
		</g>
		<g>
			<path fill="none" stroke="#565440" d="M92.4,179.9c-1.5,0-2.8-0.3-4.2-0.8c-1.4-0.6-2.7-1.4-3.6-2.4c-1.1-1-2-2.2-2.5-3.6
				c-0.6-1.4-0.8-2.8-0.8-4.3h11.2"/>
		</g>
		<g>
			<path fill="none" stroke="#565440" d="M148,178.6c0,1.4-0.3,2.5-0.8,3.8s-1.3,2.4-2.2,3.3c-0.9,1-2,1.8-3.3,2.3s-2.5,0.8-3.9,0.8v-10.1"/>
		</g>
		<g>
			<path fill="none" stroke="#565440" d="M167.6,196.6c0-1.4,0.3-2.5,0.8-3.8s1.3-2.4,2.2-3.3c0.9-1,2-1.8,3.3-2.3s2.5-0.8,3.9-0.8v10.1"/>
		</g>
		<g>
			<path fill="none" stroke="#565440" d="M160.5,192.9c-1.4,0-2.5-0.3-3.8-0.8s-2.4-1.3-3.3-2.2c-1-0.9-1.8-2-2.3-3.3s-0.8-2.5-0.8-3.9h10.1"/>
		</g>
		<g>
			<path fill="none" stroke="#565440" d="M161.9,232.2c1.4,0,2.5,0.3,3.8,0.8s2.4,1.3,3.3,2.2c1,0.9,1.8,2,2.3,3.3s0.8,2.5,0.8,3.9H162"/>
		</g>
		<g>
			<path fill="none" stroke="#565440" d="M230.4,233.1c1.4,0,2.5-0.3,3.8-0.8s2.4-1.3,3.3-2.2c1-0.9,1.8-2,2.3-3.3s0.8-2.5,0.8-3.9h-10.1"/>
		</g>
	</g>
</g>
<g>
	<g>
		<path fill="none" stroke="#565440" d="M196.9,315.2l-5,21.8l-2.1-0.4l5-21.8L196.9,315.2z"/>
		<path fill="none" stroke="#565440" d="M198.9,315.6l-5,21.8l-2.1-0.4l5-21.8L198.9,315.6z"/>
		<path fill="none" stroke="#565440" d="M200.6,359.7l-8.1,35.3l-2.1-0.4l8.1-35.3L200.6,359.7z"/>
		<path fill="none" stroke="#565440" d="M198.5,359.3l-8.1,35.3l-2.1-0.4l8.1-35.3L198.5,359.3z"/>
		<polygon fill="none" stroke="#565440" points="216.5,448.5 217.1,446.4 191.6,440.6 198.1,407 196.2,406.6 189,442.3 		"/>
		<polygon fill="none" stroke="#565440" points="217.1,446.4 217.7,444.3 194.1,439 200.2,407.5 198.3,407.1 191.6,440.6 		"/>

			<rect x="250.1478" y="432.4147" transform="matrix(0.2515 -0.9679 0.9679 0.2515 -242.6399 576.1854)" fill="none" stroke="#565440" stroke-width="1" stroke-miterlimit="4.0004" width="2.1001" height="25.101"/>

			<rect x="250.7115" y="430.3501" transform="matrix(0.2515 -0.9679 0.9679 0.2515 -240.2197 575.1856)" fill="none" stroke="#565440" stroke-width="1" stroke-miterlimit="4.0004" width="2.1001" height="25.101"/>

			<rect x="294.7597" y="433.8116" transform="matrix(0.2515 -0.9679 0.9679 0.2515 -209.5346 619.5857)" fill="none" stroke="#565440" stroke-width="1" stroke-miterlimit="4.0004" width="2.1001" height="22.9009"/>

			<rect x="295.3077" y="431.7242" transform="matrix(0.2515 -0.9679 0.9679 0.2515 -207.1042 618.5536)" fill="none" stroke="#565440" stroke-width="1" stroke-miterlimit="4.0004" width="2.1001" height="22.9009"/>

			<rect x="341.7936" y="432.3317" transform="matrix(0.2515 -0.9679 0.9679 0.2515 -173.9617 664.8236)" fill="none" stroke="#565440" stroke-width="1" stroke-miterlimit="4.0004" width="2.1001" height="25.101"/>

			<rect x="342.3347" y="430.3423" transform="matrix(0.2515 -0.9679 0.9679 0.2515 -171.6311 663.8582)" fill="none" stroke="#565440" stroke-width="1" stroke-miterlimit="4.0004" width="2.1001" height="25.101"/>
	</g>
	<g>
		<polygon fill="#565440" points="200.6,312.4 200.6,304 305.3,304 305.3,313.1 309.5,313.1 309.5,297 193.6,297 193.6,311.4
			192.8,314.9 199.6,316.4 		"/>
		<polygon fill="#565440" points="193.6,359.8 202,359.8 202,337.5 196.4,337.5 189.6,336 188.6,340 193.6,341.2 		"/>
		<polygon fill="#565440" points="194.4,394.7 188.2,393.3 187.2,397.4 193.6,398.8 193.6,415.7 202,415.7 202,394.7 		"/>
		<polygon fill="#565440" points="217.1,442.8 215.8,449 219.8,450 221.2,443.6 240.6,443.6 240.6,435.2 217.1,435.2 		"/>
		<polygon fill="#565440" points="283,436.6 262.7,436.6 262.7,442.8 261.3,449 265.3,450 266.8,443.6 282,443.6 285.5,444.4
			287,437.6 		"/>
		<polygon fill="#565440" points="253.7,376.6 253.7,373.8 198.8,373.8 195,373 194.8,374.4 198.5,375.2 252.3,375.2 252.3,376.6 		"/>
		<polygon fill="#565440" points="263.1,392 263.1,390.6 253.7,390.6 253.7,387.8 252.3,387.8 252.3,440.5 251.4,443.9 252.8,444.1
			253.7,440.8 253.7,392 		"/>
		<polygon fill="#565440" points="309.5,389.6 305.3,389.6 305.3,390.6 274.5,390.6 274.5,392 305.3,392 305.3,445.6 304.5,449
			308.5,450 309.5,446 309.5,443.6 331.8,443.6 331.8,435.2 309.5,435.2 		"/>
		<polygon fill="#565440" points="358.5,336.1 358.3,336.1 354.3,336.1 309.5,336.1 309.5,327 305.3,327 305.3,328.8 290.4,328.8
			290.4,330.2 305.3,330.2 305.3,346.3 271.1,346.3 271.1,330.2 280,330.2 280,328.8 269.7,328.8 269.7,375.8 269.8,375.8
			280,375.8 280,374.4 271.1,374.4 271.1,347.7 305.3,347.7 305.3,374.4 290.4,374.4 290.4,375.8 305.3,375.8 305.3,379.1
			306.7,379.1 306.7,368.9 328.9,368.9 328.9,367.5 306.7,367.5 306.7,340.3 354.3,340.3 354.3,367.5 338.9,367.5 338.9,368.9
			354.3,368.9 354.3,442.2 352.8,449 356.8,450 358.5,442.3 		"/>
	</g>
	<g>
		<path fill="none" stroke="#565440" d="M309.5,327c1.9,0,3.5-0.3,5.2-1s3.3-1.7,4.5-3c1.4-1.2,2.4-2.8,3.1-4.5s1-3.5,1-5.4h-14"/>
		<path fill="none" stroke="#565440" d="M306.3,390.2c1.5,0,2.8-0.3,4.2-0.8c1.4-0.6,2.7-1.4,3.6-2.4c1.1-1,2-2.2,2.5-3.6c0.6-1.4,0.8-2.8,0.8-4.3
			h-11.2"/>
		<path fill="none" stroke="#565440" d="M328.9,367.5c0-1.4,0.3-2.5,0.8-3.8s1.3-2.4,2.1-3.3c0.9-1,2-1.8,3.3-2.3s2.5-0.8,3.9-0.8v10.1"/>
		<path fill="none" stroke="#565440" d="M280,374.4c0-1.4,0.3-2.6,0.8-3.9s1.3-2.5,2.2-3.4c0.9-1,2.1-1.8,3.4-2.3s2.6-0.8,4-0.8v10.4"/>
		<path fill="none" stroke="#565440" d="M290.4,328.8c0-1.4-0.3-2.6-0.8-3.9s-1.3-2.5-2.2-3.4c-0.9-1-2.1-1.8-3.4-2.3s-2.6-0.8-4-0.8v10.4"/>
		<path fill="none" stroke="#565440" d="M274.5,392c0,1.6-0.3,2.9-0.9,4.3s-1.4,2.7-2.4,3.7c-1,1.1-2.3,2-3.7,2.6c-1.4,0.6-2.9,0.9-4.4,0.9V392"/>
		<path fill="none" stroke="#565440" d="M252.3,387.8c-1.5,0-2.8-0.3-4.2-0.8c-1.4-0.6-2.7-1.4-3.6-2.4c-1.1-1-2-2.2-2.5-3.6s-0.8-2.8-0.8-4.3h11.2"
			/>
	</g>
</g>
<g>
	<g>
		<path fill="none" stroke="#565440" d="M381.8,336.2c0-1.9-0.4-3.5-1.1-5.3s-1.8-3.4-3-4.6c-1.2-1.4-2.8-2.5-4.6-3.2c-1.8-0.7-3.5-1.1-5.5-1.1v14.1"
			/>
		<path fill="none" stroke="#565440" d="M428.1,367.6c0-1.4,0.3-2.6,0.8-3.9s1.3-2.5,2.2-3.4c0.9-1.1,2.1-1.8,3.4-2.4s2.6-0.8,4.1-0.8v10.5"/>
		<path fill="none" stroke="#565440" d="M385.2,352.2c1.4,0,2.6-0.3,3.9-0.8s2.5-1.3,3.4-2.2c1.1-0.9,1.8-2.1,2.4-3.4c0.5-1.3,0.8-2.6,0.8-4.1h-10.5"
			/>
		<path fill="none" stroke="#565440" d="M407.4,422.3c1.4,0,2.6,0.3,3.9,0.8s2.5,1.3,3.4,2.2c1.1,0.9,1.8,2.1,2.4,3.4s0.8,2.6,0.8,4.1h-10.5"/>
	</g>
	<g>

			<rect x="433.2117" y="432.3414" transform="matrix(0.2515 -0.9679 0.9679 0.2515 -105.5437 753.3109)" fill="none" stroke="#565440" stroke-width="1" stroke-miterlimit="4.0004" width="2.1001" height="25.101"/>

			<rect x="433.5235" y="430.0881" transform="matrix(0.2515 -0.9679 0.9679 0.2515 -103.323 752.0757)" fill="none" stroke="#565440" stroke-width="1" stroke-miterlimit="4.0004" width="2.1001" height="25.501"/>

			<rect x="387.1928" y="431.786" transform="matrix(0.2515 -0.9679 0.9679 0.2515 -138.387 707.5319)" fill="none" stroke="#565440" stroke-width="1" stroke-miterlimit="4.0004" width="2.1001" height="22.9009"/>

			<rect x="386.8465" y="433.7816" transform="matrix(0.2515 -0.9679 0.9679 0.2515 -140.5777 708.6904)" fill="none" stroke="#565440" stroke-width="1" stroke-miterlimit="4.0004" width="2.1001" height="22.9009"/>
	</g>
	<g>
		<polygon fill="#565440" points="407.4,432.8 403.2,432.8 403.2,435.2 399.7,435.2 399.7,442.2 398.2,449 402.2,450 403.7,443.6
			422.7,443.6 422.7,435.2 407.4,435.2 		"/>
		<polygon fill="#565440" points="456.5,336.1 381.8,336.1 381.8,340.3 383.8,340.3 383.8,341.6 385.2,341.6 385.2,340.3 403.2,340.3
			403.2,367.5 385.2,367.5 385.2,352.2 383.8,352.2 383.8,367.5 377,367.5 377,368.9 403.2,368.9 403.2,422.3 407.4,422.3
			407.4,368.9 428.1,368.9 428.1,367.5 407.4,367.5 407.4,340.3 452.3,340.3 452.3,367.5 438.6,367.5 438.6,368.9 452.3,368.9
			452.3,436.6 445,436.6 445,443.6 445,443.6 443.9,448.6 448,449.6 449.3,443.6 456.5,443.6 		"/>
		<polygon fill="#565440" points="358.5,436.6 358.5,340.3 367.7,340.3 367.7,336.1 354.3,336.1 354.3,391 354.3,391 354.3,442.2
			352.8,449 356.8,450 358.3,443.6 372.2,443.6 377.1,444.7 378.6,437.9 373.3,436.6 		"/>
	</g>
</g>
<g>
	<g>
		<polygon fill="none" stroke="#565440" points="646.6,447.2 654.5,413.7 652.2,413.1 645,444.6 629.3,441.2 603.1,441.2 603.1,443.3 629.3,443.3
			"/>
		<polygon fill="none" stroke="#565440" points="645,444.6 652.2,413.1 650,412.4 643.3,442 629.3,439.1 603.1,439.1 603.1,441.2 629.3,441.2 		"/>
		<polygon fill="none" stroke="#565440" points="538.3,446.6 537.9,448.7 512,442.8 512.4,440.7 		"/>
		<polygon fill="none" stroke="#565440" points="538.8,444.6 538.3,446.6 512.4,440.7 512.8,438.6 		"/>
		<polygon fill="none" stroke="#565440" points="581.6,446.6 581.2,448.7 556.8,443.2 557.2,441.1 		"/>
		<polygon fill="none" stroke="#565440" points="582,444.6 581.6,446.6 557.2,441.1 557.6,439 		"/>
		<polygon fill="none" stroke="#565440" points="654.2,343.7 648.2,369.9 646.1,369.5 652.1,343.2 		"/>
		<polygon fill="none" stroke="#565440" points="652.1,343.2 646.8,366.4 644.7,366 650,342.8 		"/>
		<polygon fill="none" stroke="#565440" points="466.4,443.1 467,441.1 490.2,447.1 489.6,449.1 		"/>
		<polygon fill="none" stroke="#565440" points="467,441.1 467.5,439.1 490.7,445.1 490.2,447.1 		"/>
	</g>
	<g>
		<polygon fill="#565440" points="530.3,365.4 530.3,369.6 583,369.6 583,368.2 557.9,368.2 557.9,340.3 595.6,340.3 595.6,368.2
			594.2,368.2 594.2,369.6 595.6,369.6 595.6,372.1 597,372.1 597,340.3 644.4,340.3 644.4,344.5 653.8,346.7 654.7,342.7
			648.6,341.2 648.6,336.1 520.2,336.1 520.2,340.3 530.3,340.3 530.3,354.3 531.7,354.3 531.7,340.3 556.5,340.3 556.5,368.2
			531.7,368.2 531.7,365.4 		"/>
		<polygon fill="#565440" points="536.4,436.6 536.4,443.6 536.4,443.6 535.3,448.6 539.3,449.6 540.7,443.6 553.6,443.6 558.4,444.7
			559.9,437.9 554.6,436.6 		"/>
		<polygon fill="#565440" points="580.9,396.1 582.5,396.1 582.5,394.7 580.9,394.7 580.9,383.2 579.5,383.2 579.6,443.6 578.4,448.6
			582.5,449.6 583.8,443.6 604.5,443.6 604.5,435.2 580.9,435.2 		"/>
		<polygon fill="#565440" points="648.6,408.8 648.6,365.4 644.4,365.4 644.4,394.7 597,394.7 597,383.2 595.6,383.2 595.6,394.7
			593.7,394.7 593.7,396.1 641.6,396.1 641.6,414.3 641.6,414.3 641.6,414.4 653.9,417.2 655.4,410.4 		"/>
		<path fill="#565440" d="M480.7,368v1.4h20v52.1h4.2v-81.2h1.4v-4.2h-53.9v107.5h10.1l4.8,1.1l1.5-6.8l-5.3-1.3h-7v-67.2h13.3V368
			h-13.3v-27.7h36.8V368H480.7z M494.7,340.3h6V368h-6V340.3z"/>
		<polygon fill="#565440" points="504.9,433.8 504.9,433.8 504.9,433.5 500.7,433.5 500.7,435.2 490.4,435.2 490.4,442.8 489,449
			489,449 489,449 493,450 494.4,443.6 513.9,443.6 513.9,435.2 504.9,435.2 		"/>
	</g>
	<path fill="none" stroke="#565440" d="M531.6,354.3c1.5,0,2.8,0.3,4.2,0.8c1.4,0.6,2.7,1.4,3.6,2.4c1.1,1,2,2.2,2.5,3.6
		c0.6,1.4,0.8,2.8,0.8,4.3h-11.2 M583,368.2c0-1.5,0.3-2.8,0.8-4.2c0.6-1.4,1.4-2.7,2.4-3.6c1-1.1,2.2-2,3.6-2.5
		c1.4-0.6,2.8-0.8,4.3-0.8v11.2 M480.7,369.3c0,1.5-0.3,2.7-0.8,4.1s-1.4,2.6-2.3,3.5c-1,1.1-2.2,1.9-3.5,2.5
		c-1.4,0.5-2.7,0.8-4.2,0.8v-10.9 M500.7,421.5c-1.7,0-3,0.3-4.5,0.9s-2.9,1.5-3.9,2.6c-1.2,1.1-2.1,2.4-2.7,3.9s-0.9,3-0.9,4.7
		h12.1 M597,372.1c1.5,0,2.8,0.3,4.2,0.8c1.4,0.6,2.7,1.4,3.6,2.4c1.1,1,2,2.2,2.5,3.6c0.6,1.4,0.8,2.8,0.8,4.3H597 M593.7,396.1
		c0,1.5-0.3,2.8-0.8,4.2c-0.6,1.4-1.4,2.7-2.4,3.6c-1,1.1-2.2,2-3.6,2.5c-1.4,0.6-2.8,0.8-4.3,0.8V396 M520.2,340.3
		c0,1.8-0.4,3.5-1.1,5.2c-0.7,1.7-1.7,3.3-3.1,4.6c-1.3,1.3-2.8,2.4-4.5,3.1s-3.5,1.1-5.3,1.1v-14"/>
</g>
<g>
	<g>
		<path fill="none" stroke="#565440" d="M654.2,307l-6.3,27.1l-2.1-0.4l6.3-27.1L654.2,307z"/>
		<path fill="none" stroke="#565440" d="M652.1,306.6l-6.3,27.1l-2.1-0.4l6.3-27.1L652.1,306.6z"/>
		<path fill="none" stroke="#565440" d="M559.1,234.2v2.1h-40.5v-2.1H559.1z"/>
		<path fill="none" stroke="#565440" d="M559.1,236.3v2.1h-40.5v-2.1H559.1z"/>
		<polygon fill="none" stroke="#565440" points="655.4,234.2 625.7,234.2 625.7,236.3 652.6,236.3 646.2,260.9 648.2,261.5 		"/>
		<polygon fill="none" stroke="#565440" points="652.6,236.3 625.7,236.3 625.7,238.4 649.8,238.4 643.8,261.4 645.8,262 		"/>
	</g>
	<g>
		<polygon fill="#565440" points="640.2,336.1 591.4,336.1 591.4,304 590,304 590,308.2 576,308.2 576,309.6 590,309.6 590,336.1
			553.7,336.1 553.7,309.6 564.9,309.6 564.9,308.2 552.3,308.2 552.3,309.6 552.3,336.1 525.8,336.1 525.8,333.3 521.6,333.3
			521.6,340.3 648.6,340.3 648.6,330.5 640.2,330.5 		"/>
		<polygon fill="#565440" points="574.6,290.1 574.6,288.7 559.3,288.7 559.3,273.3 591.4,273.3 591.4,269.1 590,269.1 590,271.9
			559.3,271.9 559.3,241.2 590,241.2 590,258 591.4,258 591.4,241.2 627.7,241.2 627.7,232.8 626.3,232.8 626.3,228.7 622.1,228.7
			622.1,232.8 605.3,232.8 605.3,228.7 601.1,228.7 601.1,232.8 584.4,232.8 584.4,228.7 580.2,228.7 580.2,232.8 562.1,232.8
			562.1,228.7 557.9,228.7 557.9,290.1 559.3,290.1 		"/>
		<rect x="537" y="228.7" fill="#565440" width="4.2" height="9.8"/>
		<polygon fill="#565440" points="647.2,304.9 647.2,266.6 649.4,261 645.5,259.5 645,260.8 643,260.8 643,263.6 640.2,263.6
			640.2,273.3 643,273.3 643,288.7 585.8,288.7 585.8,290.1 590,290.1 590,292.9 591.4,292.9 591.4,290.1 643,290.1 643,307.6
			642.9,308.2 653.8,310.7 654.7,306.7 		"/>
		<polygon fill="#565440" points="521.6,319.4 525.8,319.4 525.8,298.4 524.4,298.4 524.4,308.2 503.5,308.2 503.5,299.8 483.9,299.8
			483.9,258 492.3,258 492.3,256.6 482.5,256.6 482.5,274.7 481.1,274.7 481.1,276.1 482.5,276.1 482.5,299.8 461.6,299.8
			461.6,276.1 470,276.1 470,274.7 461.6,274.7 461.6,240.9 490.9,240.9 490.9,245.4 492.3,245.4 492.3,240.9 520.2,240.9
			520.2,228.7 516,228.7 516,232.8 497.9,232.8 497.9,228.7 493.7,228.7 493.7,232.8 457.4,232.8 457.4,304 499.3,304 499.3,312.4
			521.6,312.4 		"/>
	</g>
	<path fill="none" stroke="#565440" d="M591.4,304c1.5,0,2.8-0.3,4.2-0.8c1.4-0.6,2.7-1.4,3.6-2.4c1.1-1,2-2.2,2.5-3.6s0.8-2.8,0.8-4.3
		h-11.2 M585.8,288.7c0-1.5-0.3-2.8-0.8-4.2c-0.6-1.4-1.4-2.7-2.4-3.6c-1-1.1-2.2-2-3.6-2.5c-1.4-0.6-2.8-0.8-4.3-0.8v11.2
		 M564.9,308.2c0-1.5,0.3-2.8,0.8-4.2c0.6-1.4,1.4-2.7,2.4-3.6c1-1.1,2.2-2,3.6-2.5c1.4-0.6,2.8-0.8,4.3-0.8v11.2 M590,258
		c-1.5,0-2.8,0.3-4.2,0.8c-1.4,0.6-2.7,1.4-3.6,2.4c-1.1,1-2,2.2-2.5,3.6c-0.6,1.4-0.8,2.8-0.8,4.3H590 M492.3,256.6
		c1.5,0,2.8-0.3,4.2-0.8c1.4-0.6,2.7-1.4,3.6-2.4c1.1-1,2-2.2,2.5-3.6c0.6-1.4,0.8-2.8,0.8-4.3h-11.2 M470,274.7
		c0-1.5,0.3-2.8,0.8-4.2c0.6-1.4,1.4-2.7,2.4-3.6c1-1.1,2.2-2,3.6-2.5c1.4-0.6,2.8-0.8,4.3-0.8v11.2 M525.8,319.4
		c1.8,0,3.5,0.4,5.2,1.1s3.3,1.7,4.6,3.1c1.3,1.3,2.4,2.8,3.1,4.5c0.7,1.7,1.1,3.5,1.1,5.3h-14"/>
</g>
<g>
	<g>
		<path fill="none" stroke="#565440" d="M357.7,151.2c0,1.8-0.4,3.5-1.1,5.2s-1.7,3.3-3.1,4.6c-1.3,1.3-2.8,2.4-4.5,3.1
			c-1.7,0.7-3.5,1.1-5.3,1.1v-14"/>
		<path fill="none" stroke="#565440" d="M422.5,114.8c0-1.3,0.3-2.5,0.8-3.8c0.5-1.2,1.2-2.4,2.2-3.3c0.9-0.9,2-1.7,3.2-2.2
			s2.5-0.8,3.9-0.8v10.1"/>
		<path fill="none" stroke="#565440" d="M434.7,128.6c1.3,0,2.5-0.3,3.8-0.8c1.2-0.5,2.4-1.2,3.3-2.2c0.9-0.9,1.7-2,2.2-3.2
			s0.8-2.5,0.8-3.9h-10.1"/>
		<path fill="none" stroke="#565440" d="M441.8,152c1.3,0,2.5,0.3,3.8,0.8c1.2,0.5,2.4,1.2,3.3,2.2c0.9,0.9,1.7,2,2.2,3.2
			s0.8,2.5,0.8,3.9h-10.1"/>
		<path fill="none" stroke="#565440" d="M502.8,151.2c1.3,0,2.5-0.3,3.8-0.8c1.2-0.5,2.4-1.2,3.3-2.2c0.9-0.9,1.7-2,2.2-3.2
			s0.8-2.5,0.8-3.9h-10.1"/>
		<path fill="none" stroke="#565440" d="M298.6,118.4c0-1.3,0.3-2.6,0.8-3.8c0.5-1.2,1.2-2.5,2.3-3.4c0.9-0.9,2.1-1.8,3.3-2.3
			c1.2-0.5,2.6-0.8,3.9-0.8v10.4"/>
		<path fill="none" stroke="#565440" d="M360.6,57.4c0-1.3-0.3-2.6-0.8-3.8s-1.2-2.5-2.3-3.4c-0.9-0.9-2.1-1.8-3.3-2.3
			c-1.2-0.5-2.6-0.8-3.9-0.8v10.4"/>
		<path fill="none" stroke="#565440" d="M297.7,128.7c1.3,0,2.6,0.3,3.8,0.8c1.2,0.5,2.5,1.2,3.4,2.3c0.9,0.9,1.8,2.1,2.3,3.3
			s0.8,2.6,0.8,3.9h-10.4"/>
	</g>
	<g>
		<polygon fill="none" stroke="#565440" points="502.8,57.4 266.1,57.4 266.1,59.4 500.7,59.4 500.7,184.6 502.8,184.6 		"/>
		<polygon fill="none" stroke="#565440" points="266.1,35.6 266.1,37.7 522.8,37.7 522.8,184.6 524.9,184.6 524.9,35.6 		"/>
	</g>
	<g>
		<rect x="496.4" y="57.1" fill="#565440" width="7" height="15"/>
		<polygon fill="#565440" points="433.3,118.4 434.7,118.4 434.7,116.2 496.4,116.2 496.4,117.3 503.3,117.3 503.3,105.4 496.4,105.4
			496.4,114.8 432.6,114.8 432.6,116.2 433.3,116.2 		"/>
		<polygon fill="#565440" points="309,119.8 311.7,119.8 311.7,124.3 315.9,124.3 315.9,57.1 311.7,57.1 311.7,118.4 309,118.4 		"/>
		<polygon fill="#565440" points="315.9,139.1 311.7,139.1 311.7,147.2 297.7,147.2 297.7,139.1 296.3,139.1 296.3,147.2 268.3,147.2
			268.3,119.8 296.3,119.8 296.3,128.7 297.7,128.7 297.7,119.8 298.6,119.8 298.6,118.4 268.3,118.4 268.3,32.6 264.1,32.6
			264.1,151.3 343.8,151.3 343.8,147.2 315.9,147.2 		"/>
		<polygon fill="#565440" points="422.5,116.2 422.5,114.8 414.1,114.8 414.1,64 423.4,64 423.4,57.1 410,57.1 410,116.2 		"/>
		<polygon fill="#565440" points="529.3,182.3 528.5,182.3 528.5,180.4 525.8,180.4 525.8,182.3 524.9,182.3 524.9,180.4 522.2,180.4
			522.2,182.3 521.2,182.3 521.2,180.4 518.5,180.4 518.5,182.3 517.5,182.3 517.5,180.4 514.8,180.4 514.8,182.3 513.8,182.3
			513.8,180.4 511.1,180.4 511.1,182.3 510.2,182.3 510.2,180.4 507.5,180.4 507.5,182.3 506.5,182.3 506.5,180.4 503.8,180.4
			503.8,182.3 500.3,182.3 500.3,183.7 441.8,183.7 441.8,162 440.4,162 440.4,183.7 414.1,183.7 414.1,143.1 440.4,143.1
			440.4,152 441.8,152 441.8,141.7 434.7,141.7 434.7,128.5 433.3,128.5 433.3,141.7 414.1,141.7 414.1,130.9 410,130.9 410,147.2
			357.7,147.2 357.7,151.3 410,151.3 410,190.7 511.1,190.7 511.1,192.6 513.8,192.6 513.8,190.7 514.8,190.7 514.8,192.6
			517.5,192.6 517.5,190.7 518.5,190.7 518.5,192.6 521.2,192.6 521.2,190.7 522.2,190.7 522.2,192.6 524.9,192.6 524.9,190.7
			525.8,190.7 525.8,192.6 528.5,192.6 528.5,190.7 529.3,190.7 529.3,189.6 531.2,189.6 531.2,186.9 529.3,186.9 529.3,186
			531.2,186 531.2,183.3 529.3,183.3 		"/>
		<polygon fill="#565440" points="365.3,40.3 365.3,39.3 367.2,39.3 367.2,36.6 365.3,36.6 365.3,35.6 367.2,35.6 367.2,32.9
			365.3,32.9 365.3,31.9 363.9,31.9 363.9,30 361.2,30 361.2,31.9 360.3,31.9 360.3,30 357.6,30 357.6,31.9 356.6,31.9 356.6,30
			353.9,30 353.9,31.9 352.9,31.9 352.9,30 350.2,30 350.2,31.9 348.8,31.9 348.8,32.9 346.9,32.9 346.9,35.6 348.8,35.6
			348.8,36.6 346.9,36.6 346.9,39.3 348.8,39.3 348.8,40.3 		"/>
		<polygon fill="#565440" points="437.1,40.3 453.6,40.3 453.6,39.3 455.5,39.3 455.5,36.6 453.6,36.6 453.6,35.6 455.5,35.6
			455.5,32.9 453.6,32.9 453.6,31.9 452.2,31.9 452.2,30 449.5,30 449.5,31.9 448.5,31.9 448.5,30 445.8,30 445.8,31.9 444.9,31.9
			444.9,30 442.2,30 442.2,31.9 441.2,31.9 441.2,30 438.5,30 438.5,31.9 437.1,31.9 437.1,32.9 435.2,32.9 435.2,35.6 437.1,35.6
			437.1,36.6 435.2,36.6 435.2,39.3 437.1,39.3 		"/>
		<polygon fill="#565440" points="496.1,40.3 512.6,40.3 512.6,39.3 514.5,39.3 514.5,36.6 512.6,36.6 512.6,35.6 514.5,35.6
			514.5,32.9 512.6,32.9 512.6,31.9 511.2,31.9 511.2,30 508.5,30 508.5,31.9 507.6,31.9 507.6,30 504.9,30 504.9,31.9 503.9,31.9
			503.9,30 501.2,30 501.2,31.9 500.2,31.9 500.2,30 497.5,30 497.5,31.9 496.1,31.9 496.1,32.9 494.2,32.9 494.2,35.6 496.1,35.6
			496.1,36.6 494.2,36.6 494.2,39.3 496.1,39.3 		"/>
		<polygon fill="#565440" points="529.3,118.9 528.3,118.9 528.3,117 525.6,117 525.6,118.9 524.6,118.9 524.6,117 521.9,117
			521.9,118.9 521,118.9 521,135.5 521.9,135.5 521.9,137.4 524.6,137.4 524.6,135.5 525.6,135.5 525.6,137.4 528.3,137.4
			528.3,135.5 529.3,135.5 529.3,134.1 531.2,134.1 531.2,131.4 529.3,131.4 529.3,130.4 531.2,130.4 531.2,127.7 529.3,127.7
			529.3,126.7 531.2,126.7 531.2,124 529.3,124 529.3,123 531.2,123 531.2,120.3 529.3,120.3 		"/>
		<polygon fill="#565440" points="531.2,64.1 531.2,61.4 529.3,61.4 529.3,60 528.3,60 528.3,58.1 525.6,58.1 525.6,60 524.6,60
			524.6,58.1 521.9,58.1 521.9,60 521,60 521,76.5 521.9,76.5 521.9,78.4 524.6,78.4 524.6,76.5 525.6,76.5 525.6,78.4 528.3,78.4
			528.3,76.5 529.3,76.5 529.3,75.1 531.2,75.1 531.2,72.4 529.3,72.4 529.3,71.4 531.2,71.4 531.2,68.7 529.3,68.7 529.3,67.8
			531.2,67.8 531.2,65.1 529.3,65.1 529.3,64.1 		"/>
		<polygon fill="#565440" points="304.1,40.3 323.1,40.3 323.1,39.3 325,39.3 325,36.6 323.1,36.6 323.1,35.6 325,35.6 325,32.9
			323.1,32.9 323.1,31.9 322.3,31.9 322.3,30 319.6,30 319.6,31.9 318.6,31.9 318.6,30 315.9,30 315.9,31.9 314.9,31.9 314.9,30
			312.2,30 312.2,31.9 311.3,31.9 311.3,30 308.6,30 308.6,31.9 307.6,31.9 307.6,30 304.9,30 304.9,31.9 304.1,31.9 304.1,32.9
			302.2,32.9 302.2,35.6 304.1,35.6 304.1,36.6 302.2,36.6 302.2,39.3 304.1,39.3 		"/>
	</g>
</g>
<g>
	<rect x="355" fill="none" width="10" height="10"/>
	<rect x="33.8" y="235" fill="none" width="10" height="10"/>
	<rect x="355" y="470" fill="none" width="10" height="10"/>
	<rect x="676.3" y="235" fill="none" width="10" height="10"/>
</g>
<g>
	<g data-nr="1" class="plan__svg__hoverable">
		<rect x="180.6" y="255.2" fill="none" width="2.7" height="1.9"/>
		<rect x="176.9" y="255.2" fill="none" width="2.7" height="1.9"/>
		<path fill="none" d="M259.2,184.1h-39.4v-12.8l0,0v-13.4c1.8,0,3.3,0.3,5,1c1.6,0.7,3.1,1.6,4.4,2.9c1.3,1.1,2.3,2.6,3,4.3
			c0.6,1.6,0.9,3.1,1,4.7h-13.4v1h14.4v-0.5c0-1.9-0.4-3.8-1.1-5.6c-0.8-1.9-1.9-3.5-3.2-4.7c-1.3-1.3-2.9-2.4-4.7-3.1
			c-1.9-0.8-3.5-1.1-5.4-1.1v-5.6h48.5V32.4h-4.2v2.5h-31.4v-2.2h-1.9v-1H230V30h-2.7v1.9h-1V30h-2.7v1.9h-1V30H220v1.9h-1V30h-2.7
			v1.9h-1V30h-2.7v1.9h-0.8v1H210v2.2h-61v-2.2h-1.9v-1h-0.8V30h-2.7v1.9h-1V30H140v1.9h-1V30h-2.7v1.9h-1V30h-2.7v1.9h-1V30H129
			v1.9h-0.8v1h-1.9v2.2h-24.5v-2.2h-1.9v-1h-1.4V30h-2.7v1.9h-1V30h-2.7v1.9h-1V30h-2.7v1.9h-1V30h-2.7v1.9h-1.4v1h-1.9v2.2h-11
			v22.8h-0.1v1.9h-1v-1.9h-2.7v1.9h-1v1.4h-1.9v2.7h1.9v1h-1.9v2.7h1.9v1h-1.9v2.7h1.9v1h-1.9V75h1.9v1.4h1v1.9h2.7v-1.9h1v1.9h0.1
			v55.3h-0.1v1.9h-1v-1.9h-2.7v1.9h-1v0.8h-1.9v2.7h1.9v1h-1.9v2.7h1.9v1h-1.9v2.7h1.9v1h-1.9v2.7h1.9v1h-1.9v2.7h1.9v0.8h1v1.9h2.7
			v-1.9h1v1.9h0.1v49.2h-0.1v1.9h-1v-1.9h-2.7v1.9h-1v1.4h-1.9v2.7h1.9v1h-1.9v2.7h1.9v1h-1.9v2.7h1.9v1h-1.9v2.7h1.9v1.4h1v1.9h2.7
			V224h1v1.9h0.1V250h11.1v0.6h1.9v1h-1.9v2.7h1.9v1h1.4v1.9h2.7v-1.9h1v1.9h2.7v-1.9h1v1.9H95v-1.9h1v1.9h2.7v-1.9h1.4v-1h1.9v-2.7
			h-1.9v-1h1.9V250h19v5.3h2.2h1.4v1.9h2.7v-1.9h1v1.9h2.7v-1.9h1v1.9h2.7v-1.9h1v1.9h2.7v-1.9h1v1.9h2.7v-1.9h1v1.9h2.7v-1.9h1v1.9
			h2.7v-1.9h1v1.9h2.7v-1.9h1v1.9h2.7v-1.9h1v1.9h2.7v-1.9h1.6l0,0l0,0v-0.9h13.3v0.9h9.7v-0.9h20.2v0.9h1.4v1.9h2.7v-1.9h1v1.9h2.7
			v-1.9h1v1.9h2.7v-1.9h1v1.9h2.7v-1.9h1v1.9h2.7v-1.9h1v1.9h2.7v-1.9h1v1.9h2.7v-1.9h1v1.9h2.7v-1.9h1v1.9h2.7v-1.9h1v1.9h2.7v-1.9
			h23.9v-2.6l0,0v-64.3l0,0v-4.2l0,0H259.2V184.1z"/>
	</g>
	<path data-nr="6" class="plan__svg__hoverable" fill="none" d="M358.5,336.1h-0.2h-4h-44.8v-8.6c1.9,0,3.5-0.3,5.4-1.1c1.8-0.7,3.4-1.8,4.7-3.1
		c1.4-1.2,2.5-2.8,3.3-4.7c0.7-1.8,1.1-3.7,1.1-5.6v-0.5h-14.5v-11.9V297H193.6v14.4l-0.8,3.5l1.3,0.3l-5,21.7h0.2l-0.7,3.1l5,1.1
		v18.7h2.1l-8,34.7h0.2l-0.7,2.8l6.4,1.4v16.8h0.2l-5.4,27l27.3,6.1v0.2l4,1l1.4-6.4h18.5l23.7,6.1v-0.2l1.8,0.4l1.4-6.4H282
		l3.5,0.8l0.1-0.2l21.4,5.6v-0.1l1.5,0.4l1-4v-2.4h21.9l23.6,6.1v-0.1l1.8,0.4l1.7-7.7V336.1z M309.5,313.6H323
		c-0.1,1.6-0.4,3.2-1,4.7c-0.7,1.8-1.7,3.2-3,4.4c-1.2,1.2-2.7,2.2-4.4,2.9c-1.8,0.7-3.3,1-5.1,1V313.6z"/>
	<path data-nr="5" class="plan__svg__hoverable" fill="none" d="M455.8,336.1h-73.5c0-1.9-0.3-3.5-1.1-5.4c-0.7-1.8-1.8-3.4-3.1-4.7
		c-1.3-1.4-2.9-2.5-4.8-3.3c-1.8-0.7-3.7-1.1-5.7-1.1h-0.5v14.5h-12.8V391l0,0v51.2l-1.5,6.8l4,1l1.4-6.4h13.9l4.8,1.1l0.1-0.6
		l21.8,5.7l0.1-0.5l3.1,0.7l1.4-6.4h19.1l0,0l23.7,6.2l0.1-0.5l1.4,0.3l1.3-6h6.5V336.1H455.8z M368.2,336.1v-13.5
		c1.7,0.1,3.2,0.4,4.8,1c1.8,0.7,3.3,1.7,4.4,3.1c1.2,1.2,2.2,2.8,2.9,4.4c0.7,1.8,1,3.3,1,5H368.2z"/>
	<polygon data-nr="3" class="plan__svg__hoverable" fill="none" points="653.6,306.4 647.2,304.9 647.2,266.6 649.4,261 648.9,260.8 656.1,233.7
		627.7,233.7 627.7,232.8 626.3,232.8 626.3,228.7 622.1,228.7 622.1,232.8 605.3,232.8 605.3,228.7 601.1,228.7 601.1,232.8
		584.4,232.8 584.4,228.7 580.2,228.7 580.2,232.8 562.1,232.8 562.1,228.7 557.9,228.7 557.9,232.8 557.9,233.7 541.1,233.7
		541.1,228.7 537,228.7 537,233.7 520.2,233.7 520.2,228.7 516,228.7 516,232.8 497.9,232.8 497.9,228.7 493.7,228.7 493.7,232.8
		457.4,232.8 457.4,304 499.3,304 499.3,312.4 521.6,312.4 521.6,319.4 521.6,333.3 521.6,334.1 521.6,340.3 648.6,340.3
		648.6,333.4 654.8,306.6 	"/>
	<path data-nr="2" class="plan__svg__hoverable" fill="none" d="M531.2,64.1v-2.7h-1.9V60h-1v-1.9h-2.7V60h-0.2V35.1h-10.9v-2.2h-1.9v-1h-1.4V30h-2.7
		v1.9h-1V30h-2.7v1.9h-1V30h-2.7v1.9h-1V30h-2.7v1.9h-1.4v1h-1.9v2.2h-38.7v-2.2h-1.9v-1h-1.4V30h-2.7v1.9h-1V30h-2.7v1.9h-1V30
		h-2.7v1.9h-1V30h-2.7v1.9h-1.4v1h-1.9v2.2h-67.9v-2.2h-1.9v-1h-1.4V30h-2.7v1.9h-1V30h-2.7v1.9h-1V30h-2.7v1.9h-1V30h-2.7v1.9h-1.4
		v1h-1.9v2.2H325v-2.2h-1.9v-1h-0.8V30h-2.7v1.9h-1V30h-2.7v1.9h-1V30h-2.7v1.9h-1V30h-2.7v1.9h-1V30h-2.7v1.9H304v1h-1.9v2.2h-33.9
		v-2.2H264v118.4h73.6h5.5v14.3h0.5c1.8,0,3.7-0.4,5.5-1.2c1.6-0.7,3.2-1.8,4.6-3.2c1.3-1.1,2.4-2.8,3.2-4.8
		c0.8-1.8,1.1-3.5,1.1-5.2h52v39.3h101.2v1.9h2.7v-1.9h1v1.9h2.7v-1.9h1v1.9h2.7v-1.9h1v1.9h2.7v-1.9h1v1.9h2.7v-1.9h0.8v-1h1.9
		v-2.7h-1.9v-1h1.9v-2.7h-1.9v-1h-0.8v-1.9h-2.7v1.9h-0.4v-46.8h0.2v1.9h2.7v-1.9h1v-1.4h1.9v-2.7h-1.9v-1h1.9v-2.7h-1.9v-1h1.9V124
		h-1.9v-1h1.9v-2.7h-1.9v-1.4h-1V117h-2.7v1.9h-0.2V76.5h0.2v1.9h2.7v-1.9h1v-1.4h1.9v-2.7h-1.9v-1h1.9v-2.7h-1.9v-1h1.9V65h-1.9v-1
		h1.7V64.1z M356.2,156.2c-0.8,1.9-1.8,3.4-3,4.4c-1.3,1.3-2.8,2.3-4.3,3c-1.5,0.6-3.1,1-4.6,1.1v-13.3h12.9
		C357.2,152.9,356.9,154.5,356.2,156.2z"/>
	<polygon data-nr="4" class="plan__svg__hoverable" fill="none" points="655.4,410.4 648.6,408.8 648.6,370.3 654.8,343.3 654.6,343.2 654.7,342.7
		648.6,341.2 648.6,336.1 452.3,336.1 452.3,443.6 462.4,443.6 467.3,444.7 467.5,443.9 490,449.7 490.1,449.3 493,450 494.4,443.6
		513.1,443.6 538.3,449.3 538.3,449.3 539.3,449.6 540.7,443.6 553.6,443.6 558.4,444.7 558.5,444.1 580.1,449 582.5,449.6
		583.8,443.6 602.6,443.6 602.6,443.8 629.3,443.8 647,447.8 655,413.4 654.8,413.3 	"/>
</g>
</svg>
