<!-- DO NOT EDIT THIS, THIS FILE IS GENERATED FROM "2_25-36.original.svg" using transform-svgs.js script -->



<svg version="1.1" 
	 xmlns="http://www.w3.org/2000/svg" xmlns:xlink="http://www.w3.org/1999/xlink" x="0px" y="0px" viewBox="0 0 720 480"
	 style="enable-background:new 0 0 720 480;" xml:space="preserve">


<g>
	<polygon fill="#DBD4CA" points="263.8267,449.2934 265.2285,442.985 281.2193,442.6883 304.92,449.52 307.2841,444.387
		307.2841,442.9852 327.6111,442.9852 353.5454,449.2934 356.3491,442.985 371.7695,442.985 399.8066,449.2934 402.6103,442.985
		419.3598,442.985 442.8798,448.5215 448.0305,442.985 465.2234,442.985 488.8801,448.7769 493.731,442.9849 500.7403,442.9849
		500.7403,442.9851 512.656,442.9851 537.8895,448.5925 539.2913,442.9851 554.7118,442.9851 580.6462,448.5924 582.048,442.9851
		629.2905,442.985 646.5334,447.1905 654.9445,410.7423 647.9352,409.3405 647.9352,370.0885 654.2436,342.7523 647.9352,341.3505
		647.9352,336.444 647.9352,333.6403 653.5426,308.4068 646.5333,304.2014 646.5333,266.2926 655.5031,233.2674 478.2152,233.4151
		478.2152,189.109 528.7794,189.109 528.5782,30.6993 380.8815,30.6993 380.8815,30.8395 312.8915,30.8395 64.763,30.8396
		64.7628,30.8395 64.763,30.8398 64.763,253.7347 64.763,253.7348 236.3504,253.7348 236.3502,253.7345 236.3502,253.7344
		236.3504,253.7347 237.0511,252.7592 237.0511,254.1923 238.7935,254.1923 238.7935,296.5317 237.0511,296.5317 237.0511,297.1921
		192.332,297.1921 193.0329,314.7152 187.4255,339.2478 192.3321,340.6496 194.0142,359.4345 186.3042,395.1689 192.332,398.8267
		192.332,412.7051 186.5845,442.5646 217.5655,449.2934 218.9673,442.985 236.4905,442.985 	"/>
	<g>
		<rect x="237.8924" y="253.7347" fill="#565440" width="4.2055" height="42.7567"/>
		<rect x="456.582" y="188.681" fill="#565440" width="4.2052" height="44.9356"/>
		<rect x="477.6095" y="188.681" fill="#565440" width="1.4021" height="44.9356"/>
	</g>
</g>
<g>
	<path fill="none" stroke="#565440" d="M263.773,32.8021v-2.1028l-199.0101,0l0,117.756h2.1027l0-115.6532L263.773,32.8021
		L263.773,32.8021z"/>
	<g>
		<polygon fill="#565440" points="266.6343,29.9984 262.4287,29.9984 262.4287,115.9417 260.9755,115.9417 260.9755,117.3435
			262.4287,117.3435 262.4287,147.7542 236.5169,147.7542 236.5169,117.3435 250.8344,117.3435 250.8344,115.9417
			217.8522,115.9417 217.8522,51.5276 213.6465,51.5276 213.6467,119.0367 215.0485,119.0367 215.0485,117.3436 235.1151,117.3435
			235.1151,147.7542 217.8522,147.7542 217.8522,138.546 215.0484,138.546 215.0484,129.4172 213.6465,129.4172 213.6465,138.546
			213.6465,138.546 213.6465,147.7542 211.257,147.7542 211.257,151.9599 266.6344,151.9599 		"/>
		<rect x="173.4069" y="29.9984" fill="#565440" width="9.8129" height="7.0093"/>
		<polygon fill="#565440" points="71.0714,88.8764 117.3326,88.8763 117.3326,91.6802 118.7344,91.6802 118.7344,88.8763
			122.9399,88.8763 122.9399,87.4745 71.0714,87.4745 71.0714,72.0541 72.4661,72.0541 72.4661,62.2411 64.062,62.2411
			64.062,101.4932 71.0714,101.4932 		"/>
		<rect x="85.0898" y="29.9984" fill="#565440" width="9.8129" height="8.4041"/>
		<polygon fill="#565440" points="184.6216,126.4724 183.2198,126.4724 183.2198,147.7542 155.1827,147.7542 155.1827,105.6987
			183.2198,105.6987 183.2198,115.2576 184.6216,115.2576 184.6216,104.2968 118.7344,104.2968 118.7344,102.895 117.3326,102.895
			117.3326,105.6987 127.1456,105.6987 127.1456,122.521 128.5474,122.521 128.5474,105.6987 153.7809,105.6987 153.7809,147.7542
			128.5474,147.7543 128.5474,133.7358 127.1456,133.7358 127.1456,147.7543 72.4661,147.7543 72.4661,138.73 71.0714,138.73
			71.0714,121.9724 64.062,121.9724 64.0621,151.96 197.2383,151.9599 197.2383,147.7542 184.6216,147.7542 		"/>
		<polygon fill="#565440" points="213.6465,39.6564 217.8522,39.6564 217.8522,38.4025 225.9877,38.4025 225.9877,37.0078
			242.8282,37.0078 242.8282,29.9984 203.3885,29.9984 203.3885,37.0078 213.6465,37.0078 		"/>
		<polygon fill="#565440" points="114.8793,29.9984 114.8793,37.0078 130.3007,37.0078 130.3007,38.4025 141.1641,38.4025
			141.1641,87.4745 134.1548,87.4745 134.1548,88.8763 142.566,88.8763 142.566,37.0078 154.4295,37.0078 154.4295,29.9984 		"/>
	</g>
	<path fill="none" stroke="#565440" d="M122.9401,87.4745c0-1.5421,0.2803-2.8037,0.8411-4.2056
		c0.5607-1.4018,1.4018-2.6634,2.3831-3.6448c0.9814-1.1215,2.243-1.9627,3.6448-2.5233s2.8037-0.8411,4.3457-0.8411v11.2148
		 M117.3326,102.895c-1.5421,0-2.8037-0.2803-4.2056-0.8411c-1.402-0.5608-2.6634-1.4018-3.6448-2.3831
		c-1.1215-0.9814-1.9627-2.243-2.5233-3.6448c-0.5608-1.4018-0.8411-2.8037-0.8411-4.3457l11.2148,0 M127.1456,122.521
		c-1.5421,0-2.8037,0.2803-4.2055,0.8411c-1.4018,0.5607-2.6636,1.4018-3.6448,2.3831c-1.1215,0.9814-1.9627,2.243-2.5233,3.6448
		c-0.5607,1.4018-0.8411,2.8037-0.8411,4.3457l11.2148,0 M183.2198,126.488c-1.5421,0-2.8037-0.2803-4.2055-0.8411
		s-2.6636-1.4018-3.6448-2.3832c-1.1215-0.9812-1.9627-2.243-2.5233-3.6448s-0.8411-2.8037-0.8411-4.3457l11.2148,0
		 M215.0486,129.4172c1.4358,0,2.6105-0.261,3.9158-0.7832c1.3053-0.5222,2.4801-1.3052,3.3938-2.2191
		c1.0442-0.9136,1.8275-2.0885,2.3495-3.3937c0.5221-1.3053,0.7832-2.6105,0.7832-4.0464l-10.4422,0 M217.8522,51.5467
		c1.6349,0,2.9725-0.2972,4.4588-0.8918c1.4862-0.5946,2.824-1.4862,3.8643-2.5268c1.189-1.0403,2.0808-2.3781,2.6753-3.8643
		c0.5945-1.4862,0.8918-2.9725,0.8918-4.6074l-11.8901,0 M250.8344,117.3436c0,1.3944,0.2535,2.5352,0.7606,3.8028
		c0.5071,1.2676,1.2676,2.4085,2.155,3.2958c0.8873,1.0141,2.0282,1.7747,3.2958,2.2817c1.2676,0.507,2.5352,0.7606,3.9296,0.7606
		v-10.141 M197.2384,147.7542c0-1.8224,0.4206-3.5046,1.1215-5.1869c0.7009-1.6823,1.6822-3.3644,3.084-4.6261
		c1.2617-1.2617,2.8037-2.3831,4.486-3.0842c1.6823-0.7009,3.5046-1.1215,5.327-1.1215v14.0186"/>
</g>
<g>
	<path fill="none" stroke="#565440" d="M66.8657,251.4918l0-101.4943h-2.1027l0,103.5971l140.1856,0v-2.1027H66.8657
		L66.8657,251.4918z"/>
	<g>
		<polygon fill="#565440" points="71.0714,198.2212 132.7529,198.2211 132.7529,196.8193 128.5474,196.8193 128.5474,194.0156
			127.1456,194.0156 127.1456,196.8193 71.0714,196.8193 71.0714,181.3989 64.0621,181.3989 64.0621,220.6508 72.4661,220.6508
			72.4661,210.8378 71.0714,210.8378 		"/>
		<rect x="85.0899" y="245.8914" fill="#565440" width="9.8129" height="8.4041"/>
		<rect x="174.8087" y="247.2861" fill="#565440" width="9.813" height="7.0093"/>
		<polygon fill="#565440" points="143.9679,198.2211 159.3882,198.2211 159.3882,215.0435 127.1456,215.0435 127.1456,217.8471
			128.5474,217.8471 128.5474,216.4453 159.3882,216.4453 159.3882,245.8914 150.9771,245.8914 150.9771,247.2861
			128.5475,247.2861 128.5475,229.062 127.1456,229.062 127.1456,247.2861 121.5381,247.2861 121.5381,254.2954 160.7902,254.2953
			160.7902,196.8193 143.9679,196.8193 		"/>
		<polygon fill="#565440" points="264.5273,184.2026 218.2663,184.2026 218.2663,174.3895 195.8365,174.3895 195.8365,167.3803
			191.631,167.3804 191.631,188.4081 193.0328,188.4081 193.0328,178.5952 214.0606,178.5952 214.0606,188.4081 235.0884,188.4081
			235.0884,229.0619 225.2755,229.0619 225.2755,231.8657 226.6773,231.8657 226.6773,230.4637 236.4904,230.4637
			236.4904,212.2396 237.8922,212.2396 237.8922,210.8378 236.4904,210.8378 236.4904,188.4081 257.5182,188.4081
			257.5182,210.8378 249.1071,210.8378 249.1071,212.2396 257.5182,212.2396 257.5182,245.8914 226.6773,245.8914
			226.6773,243.0806 225.2755,243.0806 225.2755,245.8914 204.2476,245.8914 204.2476,254.2953 264.5274,254.2953 		"/>
		<polygon fill="#565440" points="191.631,153.3618 195.8365,153.3618 195.8365,147.7542 64.062,147.7543 64.062,160.3926
			71.0714,160.3926 71.0714,151.96 127.1456,151.9599 127.1456,182.8007 128.5474,182.8007 128.5474,178.5952 141.1641,178.5952
			141.1641,177.1934 128.5474,177.1934 128.5474,151.9599 163.5939,151.9599 163.5939,177.1933 152.3791,177.1933
			152.3791,178.5952 164.9957,178.5952 164.9957,177.1933 164.9957,151.9599 191.631,151.9599 		"/>
	</g>
	<path fill="none" stroke="#565440" d="M152.3791,178.5952c0,1.5421-0.2803,2.8037-0.8411,4.2056
		c-0.5608,1.4018-1.4018,2.6634-2.3832,3.6448c-0.9813,1.1215-2.243,1.9627-3.6448,2.5233s-2.8037,0.8411-4.3457,0.8411v-11.2148
		 M132.7531,198.2211c0,1.5421,0.2803,2.8037,0.8411,4.2056c0.5607,1.4018,1.4018,2.6634,2.3831,3.6448
		c0.9812,1.1215,2.243,1.9627,3.6448,2.5233c1.4018,0.5607,2.8037,0.8411,4.3457,0.8411v-11.2148 M127.1456,182.8007
		c-1.5421,0-2.8037,0.2803-4.2055,0.8411s-2.6636,1.4018-3.6448,2.3833c-1.1215,0.9812-1.9627,2.243-2.5233,3.6448
		c-0.5607,1.4018-0.8411,2.8037-0.8411,4.3457h11.2148 M128.5475,229.0619c1.5421,0,2.8037-0.2803,4.2055-0.8411
		s2.6636-1.4018,3.6448-2.3831c1.1215-0.9814,1.9627-2.243,2.5233-3.6448c0.5608-1.4018,0.8411-2.8037,0.8411-4.3457h-11.2148
		 M225.2756,231.8657c-1.5421,0-2.8037,0.2803-4.2055,0.8411s-2.6634,1.4018-3.6448,2.3833
		c-1.1215,0.9812-1.9627,2.243-2.5233,3.6448c-0.5608,1.4018-0.8411,2.8037-0.8411,4.3457h11.2148 M249.1071,212.2396
		c0,1.5421-0.2803,2.8037-0.8411,4.2055c-0.5607,1.4018-1.4018,2.6636-2.3831,3.6448c-0.9814,1.1215-2.243,1.9627-3.6448,2.5234
		c-1.4018,0.5607-2.8037,0.8411-4.3457,0.8411v-11.2148 M191.631,167.3804c-1.8224,0-3.5046-0.4206-5.1869-1.1215
		c-1.6823-0.7009-3.3645-1.6823-4.6261-3.0842c-1.2616-1.2617-2.3831-2.8037-3.084-4.486c-0.7009-1.6823-1.1215-3.5046-1.1215-5.327
		h14.0186"/>
</g>
<g>
	<g>
		<path fill="none" stroke="#565440" d="M194.8552,314.5752l-5.0466,21.8689l-2.1027-0.4205l5.0466-21.8689L194.8552,314.5752z"/>
		<path fill="none" stroke="#565440" d="M196.5374,358.8736l-8.1307,35.4667l-2.1027-0.4205l8.1306-35.4668L196.5374,358.8736z"/>
		<polygon fill="none" stroke="#565440" points="214.6214,448.4518 215.1821,446.349 189.5283,440.6013 196.117,406.8168 194.1543,406.3962
			187.005,442.2836 		"/>

			<rect x="248.3703" y="432.297" transform="matrix(0.2515 -0.9679 0.9679 0.2515 -243.9256 574.4304)" fill="none" stroke="#565440" stroke-width="1" stroke-miterlimit="4.0002" width="2.0999" height="25.2438"/>

			<rect x="293.1768" y="433.7117" transform="matrix(0.2515 -0.9679 0.9679 0.2515 -210.6712 618.0164)" fill="none" stroke="#565440" stroke-width="1" stroke-miterlimit="4.0002" width="2.0999" height="23.0009"/>

			<rect x="340.4059" y="432.2929" transform="matrix(0.2515 -0.9679 0.9679 0.2515 -175.032 663.5049)" fill="none" stroke="#565440" stroke-width="1" stroke-miterlimit="4.0002" width="2.0997" height="25.2438"/>
	</g>
	<g>
		<polygon fill="#565440" points="198.6402,311.7713 198.6402,303.3602 303.779,303.3602 303.779,312.4355 307.9845,312.4355
			307.9845,296.3511 191.631,296.3511 191.631,310.8104 190.7898,314.2946 197.6588,315.8368 		"/>
		<polygon fill="#565440" points="191.631,359.4342 200.0222,359.4342 200.0221,337.0046 194.4346,337.0046 187.5657,335.4627
			186.5843,339.528 191.631,340.6609 		"/>
		<polygon fill="#565440" points="192.4081,394.4805 186.1638,393.0787 185.1826,397.144 191.631,398.5917 191.631,415.5082
			200.0222,415.5082 200.0221,394.4805 		"/>
		<polygon fill="#565440" points="215.2371,442.7681 213.8351,449.0125 217.9005,449.9938 219.3482,443.5453 238.8376,443.5453
			238.8376,435.1311 215.2371,435.1311 		"/>
		<polygon fill="#565440" points="281.3495,436.5359 260.9648,436.5359 260.9648,442.7681 259.563,449.0125 263.6284,449.9938
			265.076,443.5453 280.388,443.5453 283.8727,444.3863 285.4149,437.5173 281.3495,436.5686 		"/>
		<polygon fill="#565440" points="251.9105,376.2565 251.9105,373.4528 196.8178,373.4528 193.0329,372.6116 192.7524,374.0136
			196.5374,374.8546 250.5086,374.8546 250.5086,376.2565 		"/>
		<polygon fill="#565440" points="261.3524,391.7751 261.3524,390.3732 251.9105,390.3733 251.9105,387.4712 250.5086,387.4712
			250.5086,440.4611 249.6677,443.8256 251.0695,444.106 251.9105,440.7415 251.9105,391.7751 		"/>
		<polygon fill="#565440" points="307.9845,389.3124 303.779,389.3124 303.779,390.3731 272.8372,390.3732 272.8372,391.7751
			303.779,391.7751 303.779,445.5319 302.9378,449.0164 307.0032,449.9976 307.9845,445.9322 307.9845,443.5453 330.4142,443.5453
			330.4142,435.1413 307.9845,435.1413 		"/>
		<polygon fill="#565440" points="357.2354,335.6028 357.036,335.6028 307.9845,335.6028 307.9845,326.4876 303.779,326.4876
			303.779,328.247 288.8216,328.2471 288.8216,329.6489 303.779,329.6489 303.7861,345.8051 269.4336,345.8051 269.4336,329.649
			278.386,329.649 278.386,328.247 268.0317,328.247 268.0317,375.4316 268.1438,375.4316 278.386,375.4316 278.386,374.0298
			269.4336,374.0298 269.4336,347.207 303.7861,347.207 303.7861,374.0297 288.8216,374.0298 288.8216,375.4316 303.7861,375.4316
			303.7861,378.7296 305.188,378.7296 305.188,368.5482 327.4718,368.5482 327.4718,367.1463 305.188,367.1464 305.1879,339.8082
			353.03,339.8082 353.03,367.1463 337.5862,367.1464 337.5862,368.5482 353.03,368.5482 353.03,442.1433 351.5045,449.0125
			355.5697,449.9938 357.2387,442.2355 		"/>
	</g>
	<g>
		<path fill="none" stroke="#565440" d="M307.9845,326.4876c1.9322,0,3.513-0.3513,5.2696-1.054c1.7565-0.7027,3.3373-1.7564,4.5669-2.9861
			c1.4052-1.2295,2.4592-2.8105,3.1617-4.5669c0.7025-1.7564,1.054-3.513,1.054-5.4451h-14.0519"/>
		<path fill="none" stroke="#565440" d="M304.7878,389.9446c1.5421,0,2.8036-0.2803,4.2056-0.8411c1.4018-0.5608,2.6635-1.4018,3.6448-2.3833
			c1.1215-0.9813,1.9626-2.243,2.5233-3.6448s0.8412-2.8036,0.8412-4.3457H304.788"/>
		<path fill="none" stroke="#565440" d="M327.4718,367.1463c0-1.3907,0.2528-2.5285,0.7586-3.7929c0.5057-1.2643,1.2643-2.4022,2.1494-3.2872
			c0.8849-1.0114,2.0229-1.77,3.2872-2.2757c1.2643-0.5056,2.5285-0.7586,3.9193-0.7586l0,10.1143"/>
		<path fill="none" stroke="#565440" d="M278.386,374.0297c0-1.4349,0.2609-2.6088,0.7827-3.9134c0.5218-1.3044,1.3044-2.4785,2.2176-3.3915
			c0.9131-1.0435,2.0871-1.8263,3.3915-2.348c1.3044-0.5217,2.6088-0.7827,4.0437-0.7827v10.4354"/>
		<path fill="none" stroke="#565440" d="M288.8216,328.247c0-1.4349-0.2609-2.6088-0.7827-3.9133c-0.5218-1.3044-1.3044-2.4785-2.2176-3.3915
			c-0.9131-1.0435-2.0871-1.8262-3.3915-2.3479c-1.3044-0.5217-2.6088-0.7827-4.0437-0.7827v10.4354"/>
		<path fill="none" stroke="#565440" d="M272.8372,391.7751c0,1.5792-0.2871,2.8711-0.8614,4.3069c-0.5743,1.4355-1.4355,2.7276-2.4406,3.7325
			c-1.0049,1.1485-2.297,2.0099-3.7325,2.584c-1.4356,0.5742-2.8712,0.8614-4.4503,0.8614v-11.4847"/>
		<path fill="none" stroke="#565440" d="M250.5151,387.4942c-1.5452,0-2.8094-0.2809-4.2142-0.8429c-1.4047-0.5619-2.669-1.4047-3.6522-2.3881
			c-1.1238-0.9833-1.9666-2.2476-2.5284-3.6522c-0.5618-1.4047-0.8429-2.8094-0.8429-4.3546h11.2376"/>
	</g>
</g>
<g>
	<g>
		<path fill="none" stroke="#565440" d="M366.4354,335.7222c0-1.9501,0.3545-3.5455,1.0637-5.3185c0.7092-1.7727,1.7727-3.3683,3.0139-4.6093
			c1.2409-1.4182,2.8365-2.482,4.6093-3.1909c1.7727-0.709,3.5455-1.0638,5.4956-1.0638v14.1823"/>
		<path fill="none" stroke="#565440" d="M427.116,367.2313c0-1.454,0.2643-2.6436,0.7931-3.9655c0.5288-1.3218,1.3218-2.5114,2.2472-3.4367
			c0.9253-1.0575,2.1149-1.8506,3.4367-2.3792s2.6436-0.7932,4.0976-0.7932v10.5745"/>
		<path fill="none" stroke="#565440" d="M384.0027,351.7216c1.454,0,2.6436-0.2643,3.9655-0.7932c1.3218-0.5287,2.5114-1.3218,3.4367-2.2472
			c1.0574-0.9252,1.8506-2.1149,2.3792-3.4367c0.5287-1.3217,0.7932-2.6436,0.7932-4.0975h-10.5744"/>
		<path fill="none" stroke="#565440" d="M406.3171,422.1466c1.454,0,2.6436,0.2643,3.9655,0.7931c1.3218,0.5288,2.5114,1.3218,3.4367,2.2472
			c1.0574,0.9252,1.8506,2.1149,2.3792,3.4367s0.7932,2.6436,0.7932,4.0976h-10.5744"/>
	</g>
	<g>

			<rect x="432.2367" y="432.2885" transform="matrix(0.2515 -0.9679 0.9679 0.2515 -106.2915 752.381)" fill="none" stroke="#565440" stroke-width="1" stroke-miterlimit="4.0002" width="2.0997" height="25.2438"/>

			<rect x="385.6693" y="433.7077" transform="matrix(0.2515 -0.9679 0.9679 0.2515 -141.4358 707.5331)" fill="none" stroke="#565440" stroke-width="1" stroke-miterlimit="4.0002" width="2.0997" height="23.0009"/>
	</g>
	<g>
		<polygon fill="#565440" points="406.3171,432.7212 402.1115,432.7212 402.1115,435.1413 398.6334,435.1413 398.6334,442.1433
			397.0915,449.0125 401.1567,449.9938 402.6044,443.5453 421.7431,443.5352 421.7431,435.1497 406.3171,435.1431 		"/>
		<polygon fill="#565440" points="455.6982,335.6028 380.6178,335.6028 380.6178,339.8082 382.6697,339.8082 382.6697,341.147
			384.0717,341.147 384.0716,339.8082 402.1114,339.8082 402.1114,367.1462 384.0717,367.1463 384.0716,351.7212 382.6697,351.7212
			382.6697,367.1463 375.7768,367.1463 375.7768,368.5481 402.1114,368.5481 402.1115,422.1466 406.3171,422.1466 406.317,368.5481
			427.1161,368.5481 427.1161,367.1462 406.317,367.1463 406.317,339.8082 451.4926,339.8082 451.4926,367.1463 437.6906,367.1464
			437.6906,368.5482 451.4926,368.5482 451.4926,436.5306 444.1497,436.5306 444.1497,443.5399 444.1611,443.5399
			443.0282,448.5867 447.0936,449.568 448.4467,443.5399 455.6982,443.5399 		"/>
		<polygon fill="#565440" points="357.239,436.5359 357.239,339.8082 366.4354,339.8082 366.4354,335.6028 353.0336,335.6028
			353.0336,390.736 353.03,390.736 353.03,442.1433 351.5049,449.0125 355.57,449.9938 357.0177,443.5453 371.0137,443.5462
			375.8736,444.668 377.4156,437.7989 372.0885,436.5372 		"/>
	</g>
</g>
<g>
	<g>
		<polygon fill="none" stroke="#565440" points="646.6714,447.1899 654.5217,413.5454 652.2709,412.8982 644.9813,444.58 629.2885,441.162
			602.9337,441.162 602.9337,443.2647 629.2885,443.2647 		"/>
		<polygon fill="none" stroke="#565440" points="537.8879,446.6293 537.4673,448.7321 511.3928,442.7712 511.8134,440.6684 		"/>
		<polygon fill="none" stroke="#565440" points="581.3453,446.6292 580.9247,448.732 556.3923,443.1246 556.8128,441.0218 		"/>
		<polygon fill="none" stroke="#565440" points="654.2415,343.1727 648.2136,369.5273 646.1108,369.1068 652.1387,342.7521 		"/>
		<polygon fill="none" stroke="#565440" points="465.6581,443.0912 466.1862,441.0589 489.4984,447.0834 488.9703,449.1156 		"/>
	</g>
	<g>
		<polygon fill="#565440" points="529.7929,365.0415 529.7929,369.247 582.747,369.247 582.747,367.8452 557.5138,367.8452
			557.5137,339.8082 595.3636,339.8082 595.3637,367.8452 593.9619,367.8452 593.9619,369.247 595.3637,369.247 595.3637,371.7158
			596.7655,371.7158 596.7655,339.8082 644.4283,339.8082 644.4268,344.0464 653.8209,346.2568 654.8021,342.1914 648.634,340.74
			648.634,335.6027 519.6638,335.6027 519.6638,339.8082 529.7929,339.8082 529.7929,353.8268 531.1948,353.8268 531.1948,339.8082
			556.1119,339.8082 556.1119,367.8452 531.1948,367.8452 531.1948,365.0415 		"/>
		<polygon fill="#565440" points="535.9415,436.5359 535.9415,443.5452 535.953,443.5452 534.8202,448.5918 538.8855,449.5731
			540.2386,443.5452 553.1733,443.5452 558.0331,444.6667 559.5753,437.7977 554.2482,436.5359 		"/>
		<polygon fill="#565440" points="580.676,395.8821 582.2615,395.8821 582.2615,394.4804 580.676,394.4804 580.676,382.9306
			579.2741,382.9306 579.2856,443.5452 578.1526,448.5918 582.218,449.5731 583.5713,443.5452 604.3278,443.5452 604.3278,435.1412
			580.676,435.1412 		"/>
		<polygon fill="#565440" points="648.634,408.62 648.634,365.0415 644.4283,365.0415 644.4283,394.4804 596.7655,394.4804
			596.7655,382.9306 595.3637,382.9306 595.3637,394.4804 593.4763,394.4804 593.4763,395.8821 641.6247,395.8821
			641.6247,414.1063 641.6562,414.1063 641.6247,414.2465 653.9611,417.0503 655.5031,410.1811 		"/>
		<polygon fill="#565440" points="505.6452,339.8082 505.6452,335.6027 451.4925,335.6028 451.4926,443.5453 461.6385,443.5399
			466.4984,444.6613 468.0404,437.7923 462.7134,436.5306 455.6982,436.5306 455.6982,369.0023 469.0279,369.0023
			469.0279,367.6005 455.6982,367.6005 455.6982,339.8082 492.6443,339.8082 492.6443,367.6004 479.9557,367.6005
			479.9557,369.0023 500.0378,369.0023 500.0378,421.3736 504.2435,421.3736 504.2435,364.8367 500.0378,364.8367
			500.0378,367.6004 494.0461,367.6004 494.0461,339.8082 		"/>
		<polygon fill="#565440" points="504.2484,433.7322 504.2435,433.7322 504.2435,433.4656 500.0378,433.4656 500.0378,435.1412
			489.6755,435.1412 489.6755,442.7559 488.2732,449.0024 488.2745,449.0027 488.2735,449.007 492.3389,449.9883 493.7866,443.5399
			513.315,443.5453 513.315,435.1413 504.2484,435.1413 		"/>
	</g>
	<path fill="none" stroke="#565440" d="M531.1578,353.8268c1.5421,0,2.8036,0.2803,4.2056,0.8411
		c1.4018,0.5606,2.6635,1.4018,3.6448,2.3831c1.1214,0.9814,1.9626,2.243,2.5233,3.6448c0.5607,1.4018,0.8411,2.8036,0.8411,4.3457
		h-11.2148 M582.747,367.8452c0-1.5421,0.2804-2.8037,0.8412-4.2055c0.5607-1.4018,1.4019-2.6634,2.3831-3.6448
		c0.9813-1.1215,2.2431-1.9627,3.6448-2.5234c1.4019-0.5608,2.8036-0.8411,4.3458-0.8411v11.2148 M479.9608,368.9805
		c0,1.5071-0.274,2.7401-0.8221,4.1102c-0.5479,1.37-1.37,2.603-2.329,3.5622c-0.959,1.096-2.1922,1.9182-3.5622,2.4662
		c-1.3701,0.5481-2.7401,0.8221-4.2473,0.8221v-10.9606 M500.0814,421.3457c-1.6665,0-3.03,0.303-4.5449,0.9091
		c-1.515,0.6059-2.8784,1.5149-3.939,2.5753c-1.212,1.0605-2.1211,2.4241-2.7271,3.939c-0.606,1.515-0.909,3.0299-0.909,4.6965
		h12.1199 M596.7655,371.7158c1.5421,0,2.8036,0.2803,4.2054,0.8412c1.4019,0.5607,2.6636,1.4018,3.6448,2.3831
		c1.1215,0.9813,1.9626,2.243,2.5233,3.6448c0.5609,1.4018,0.8412,2.8036,0.8412,4.3457h-11.2148 M593.4763,395.8822
		c0,1.542-0.2803,2.8037-0.8412,4.2055c-0.5607,1.4018-1.4018,2.6636-2.3831,3.6448c-0.9813,1.1215-2.2429,1.9627-3.6448,2.5233
		c-1.4018,0.5607-2.8036,0.8412-4.3457,0.8412v-11.2148 M519.6638,339.8082c0,1.8224-0.4205,3.5046-1.1214,5.1868
		c-0.701,1.6824-1.6822,3.3645-3.0842,4.6261c-1.2617,1.2617-2.8036,2.3832-4.4859,3.0842
		c-1.6823,0.7009-3.5045,1.1215-5.327,1.1215v-14.0186"/>
</g>
<g>
	<g>
		<path fill="none" stroke="#565440" d="M654.3647,306.386l-6.2895,27.2543l-2.1028-0.4206l6.2895-27.2543L654.3647,306.386z"/>
		<path fill="none" stroke="#565440" d="M558.9172,233.2675v2.1027l-40.6537,0v-2.1027L558.9172,233.2675z"/>
		<polygon fill="none" stroke="#565440" points="655.6454,233.2674 614.4308,233.2675 614.4308,235.3702 652.8416,235.3702 646.393,260.0429
			648.3557,260.6036 		"/>
	</g>
	<g>
		<polygon fill="#565440" points="640.2319,335.6029 591.16,335.6029 591.16,303.3602 589.758,303.3602 589.758,307.5658
			575.7395,307.5658 575.7395,308.9677 589.758,308.9677 589.7581,335.6029 553.3098,335.6029 553.3098,308.9677 564.5247,308.9677
			564.5247,307.5658 551.9079,307.5658 551.9079,308.9677 551.9079,335.6029 525.2728,335.6029 525.2728,332.7991
			521.0671,332.7991 521.0671,339.8084 648.636,339.8084 648.636,329.9954 640.2319,329.9954 		"/>
		<polygon fill="#565440" points="574.3377,289.3417 574.3377,287.9398 558.9172,287.9398 558.9172,272.5194 591.16,272.5194
			591.16,268.3137 589.758,268.3137 589.758,271.1175 558.9172,271.1176 558.9172,240.2661 589.758,240.2661 589.758,257.0989
			591.16,257.0989 591.16,240.2661 627.6082,240.266 627.6082,231.8656 626.2062,231.8656 626.2062,227.66 622.0007,227.66
			622.0007,231.8656 605.1785,231.8656 605.1785,227.66 600.973,227.66 600.973,231.8656 584.1506,231.8656 584.1506,227.66
			579.945,227.66 579.945,231.8656 561.7209,231.8656 561.7209,227.66 557.5154,227.66 557.5154,289.3417 558.9172,289.3417 		"/>
		<rect x="536.4875" y="227.66" fill="#565440" width="4.2055" height="9.813"/>
		<polygon fill="#565440" points="647.2343,304.2768 647.2342,265.7905 649.4772,260.183 645.5521,258.6409 645.0474,259.9027
			643.0286,259.9027 643.0286,262.7064 640.2319,262.7064 640.2319,272.5193 643.0286,272.5193 643.0286,287.9398
			585.5525,287.9398 585.5525,289.3417 589.758,289.3417 589.758,292.1453 591.16,292.1453 591.16,289.3417 643.0286,289.3417
			643.0286,306.9851 642.8885,307.5658 653.8229,310.0891 654.8042,306.0237 		"/>
		<polygon fill="#565440" points="521.0671,318.7808 525.2726,318.7808 525.2726,297.7529 523.8709,297.7529 523.8709,307.5659
			502.8431,307.5659 502.8431,299.1547 483.2172,299.1547 483.2172,257.0991 491.6283,257.0991 491.6283,255.6973
			481.8153,255.6973 481.8153,273.9214 480.4135,273.9214 480.4135,275.3232 481.8153,275.3232 481.8153,299.1547
			460.7875,299.1547 460.7875,275.3232 469.1986,275.3232 469.1986,273.9214 460.7875,273.9214 460.7875,240 490.2264,240
			490.2264,244.4825 491.6283,244.4825 491.6283,240 519.6654,240 519.6654,227.6603 515.4599,227.6603 515.4599,231.8658
			497.2358,231.8658 497.2358,227.6603 493.0302,227.6603 493.0302,231.8658 456.582,231.8655 456.582,303.3605 498.6375,303.3605
			498.6375,311.7715 521.0671,311.7715 		"/>
	</g>
	<path fill="none" stroke="#565440" d="M591.16,303.3602c1.5421,0,2.8037-0.2804,4.2057-0.8412
		c1.4018-0.5607,2.6636-1.4018,3.6448-2.3831c1.1215-0.9814,1.9627-2.243,2.5234-3.6448s0.8411-2.8037,0.8411-4.3457h-11.2148
		 M585.5525,287.9398c0-1.5421-0.2803-2.8037-0.8411-4.2055c-0.5609-1.4018-1.4019-2.6636-2.3831-3.6448
		c-0.9813-1.1215-2.243-1.9627-3.6448-2.5233c-1.4018-0.5607-2.8036-0.8412-4.3457-0.8412v11.2148 M564.5247,307.5658
		c0-1.5421,0.2803-2.8037,0.8411-4.2055c0.5607-1.4018,1.4019-2.6636,2.3831-3.6448c0.9813-1.1215,2.243-1.9627,3.6448-2.5233
		c1.4018-0.5607,2.8036-0.8412,4.3457-0.8412v11.2148 M589.7581,257.0989c-1.5421,0-2.8036,0.2803-4.2054,0.8411
		c-1.4019,0.5608-2.6636,1.4018-3.6448,2.3832c-1.1215,0.9813-1.9626,2.243-2.5233,3.6448
		c-0.5607,1.4018-0.8412,2.8037-0.8412,4.3458h11.2148 M491.6281,255.6971c1.5421,0,2.8037-0.2803,4.2055-0.8411
		c1.4018-0.5608,2.6635-1.4018,3.6448-2.3832c1.1215-0.9813,1.9626-2.243,2.5233-3.6448s0.8412-2.8037,0.8412-4.3457h-11.2148
		 M469.1985,273.9213c0-1.5421,0.2804-2.8037,0.8412-4.2055c0.5607-1.4018,1.4018-2.6634,2.3831-3.6448
		c0.9813-1.1215,2.243-1.9627,3.6448-2.5233c1.4018-0.5608,2.8036-0.8412,4.3457-0.8412v11.2148 M525.2728,318.7806
		c1.8224,0,3.5046,0.4206,5.1869,1.1215c1.6822,0.7009,3.3645,1.6823,4.6261,3.0841c1.2617,1.2616,2.3831,2.8037,3.0842,4.486
		c0.7009,1.6823,1.1215,3.5046,1.1215,5.327h-14.0185"/>
</g>
<g>
	<polygon fill="none" stroke="#565440" points="528.7773,30.6993 365.2945,30.6993 365.2945,32.8021 526.6746,32.8021
		526.6746,187.0062 507.7495,187.0062 507.7495,189.109 528.7794,189.109 	"/>
	<g>
		<rect x="439.7593" y="29.9984" fill="#565440" width="9.813" height="8.4041"/>
		<polygon fill="#565440" points="474.8058,90.0551 476.2076,90.0551 476.2076,37.0077 479.0114,37.0077 479.0114,29.9984
			469.1983,29.9984 469.1983,37.0077 474.8058,37.0077 474.8058,86.524 463.3928,86.524 463.3928,87.9258 474.8058,87.9258 		"/>
		<rect x="380.413" y="29.9984" fill="#565440" width="9.7281" height="7.0093"/>
		<rect x="498.6374" y="29.9984" fill="#565440" width="9.813" height="8.4041"/>
		<rect x="521.0741" y="62.241" fill="#565440" width="8.4041" height="9.813"/>
		<rect x="522.4689" y="151.9598" fill="#565440" width="7.0093" height="9.813"/>
		<polygon fill="#565440" points="450.9744,169.5399 449.5724,169.5399 449.5724,182.8006 413.1241,182.8006 413.1241,172.0394
			408.9186,172.0394 408.9186,189.8099 508.4504,189.8099 508.4504,182.8006 450.9744,182.8006 		"/>
		<polygon fill="#565440" points="521.0741,121.119 521.0741,130.932 529.4782,130.932 529.4782,91.6801 522.4689,91.6801
			522.4689,102.6718 476.2076,102.6718 476.2076,101.27 474.8058,101.27 474.8058,104.0736 522.4689,104.0736 522.4689,121.119
			"/>
		<polygon fill="#565440" points="408.9187,151.9598 408.9187,158.0208 413.1242,158.0208 413.1242,150.141 430.5216,150.141
			430.5216,148.7391 413.1242,148.7391 413.1242,130.4108 449.4387,130.4108 449.4387,148.7393 441.7364,148.7393
			441.7364,150.1411 450.8405,150.1411 450.8405,104.4072 439.3068,104.4072 439.3068,105.809 449.4387,105.809 449.4387,129.009
			413.1242,129.009 413.1241,105.809 428.092,105.809 428.092,104.4071 413.1241,104.4071 413.1241,102.6932 408.9186,102.6932
			408.9186,115.8899 389.2087,115.8899 389.2087,117.2917 408.9186,117.2917 408.9187,147.7543 366.3475,147.7544
			366.3475,117.2919 377.9939,117.2919 377.9939,115.89 366.3475,115.89 366.3475,29.9984 362.142,29.9984 362.142,151.9598 		"/>
		<polygon fill="#565440" points="413.1242,90.9791 413.1242,87.9257 452.178,87.9257 452.178,86.5239 413.1242,86.5239
			413.1241,37.0077 419.819,37.0077 419.819,29.9984 408.9186,29.9984 408.9187,90.9791 		"/>
	</g>
	<path fill="none" stroke="#565440" d="M408.9186,172.0394c-1.8224,0-3.5046-0.4206-5.1869-1.1215
		c-1.6822-0.7009-3.3645-1.6823-4.6261-3.0842c-1.2616-1.2617-2.3831-2.8037-3.084-4.486c-0.7009-1.6823-1.1215-3.5046-1.1215-5.327
		h14.0186 M408.9186,90.9791c-1.5259,0-2.9344,0.3521-4.343,0.939c-1.4085,0.5869-2.8171,1.4086-3.8734,2.5823
		c-1.0563,1.0564-1.9954,2.3475-2.5822,3.7561c-0.5869,1.4086-0.9391,2.9344-0.9391,4.4603h11.7378 M476.2076,90.0551
		c1.5421,0,2.8036,0.2803,4.2055,0.8411c1.4018,0.5607,2.6635,1.4018,3.6448,2.3831c1.1215,0.9814,1.9626,2.243,2.5233,3.6448
		s0.8412,2.8037,0.8412,4.3457l-11.2148,0 M452.178,86.5333c0-1.5421,0.2803-2.8037,0.8412-4.2055
		c0.5608-1.4018,1.4019-2.6634,2.3831-3.6448c0.9813-1.1215,2.243-1.9627,3.6448-2.5234c1.4019-0.5608,2.8037-0.8411,4.3458-0.8411
		v11.2148 M389.2087,115.89c0-1.5421-0.2803-2.8037-0.8412-4.2055c-0.5608-1.4018-1.4019-2.6634-2.3831-3.6448
		c-0.9813-1.1215-2.243-1.9627-3.6448-2.5234c-1.4019-0.5608-2.8037-0.8411-4.3458-0.8411V115.89 M441.7364,150.141
		c0,1.5421-0.2803,2.8037-0.8412,4.2056s-1.4019,2.6634-2.3831,3.6448c-0.9813,1.1215-2.243,1.9627-3.6448,2.5233
		c-1.4019,0.5608-2.8037,0.8412-4.3458,0.8412v-11.2148 M439.3068,105.6985c0,1.5421-0.2803,2.8037-0.8412,4.2056
		s-1.4019,2.6634-2.3831,3.6448c-0.9813,1.1215-2.243,1.9627-3.6448,2.5233c-1.4019,0.5608-2.8037,0.8412-4.3458,0.8412v-11.2148"/>
</g>
<g>
	<path fill="none" stroke="#565440" d="M363.3068,30.6993v2.1028l-92.3049,0v-2.1028L363.3068,30.6993z"/>
	<g>
		<polygon fill="#565440" points="314.5949,50.9387 310.3893,50.9387 310.3893,116.0396 291.1803,116.0396 291.1803,117.4416
			310.3893,117.4416 310.3893,147.7542 266.6379,147.7542 266.6379,117.4416 279.9653,117.4416 279.9653,116.0396
			266.6379,116.0396 266.6379,37.0078 272.2577,37.0078 272.2577,29.9984 262.4323,29.9984 262.4323,151.9599 336.7485,151.9598
			336.7485,147.7542 334.4233,147.7542 334.4233,144.9141 333.0213,144.9141 333.0213,147.7542 314.5949,147.7542
			314.5949,118.8436 333.0213,118.8436 333.0213,133.6993 334.4233,133.6993 334.4233,118.8436 341.1841,118.8436
			341.1841,117.4416 314.5949,117.4416 		"/>
		<polygon fill="#565440" points="351.1181,151.9598 366.3475,151.9598 366.3475,29.9984 350.5706,29.9984 350.5706,38.4025
			362.142,38.4025 362.142,147.7542 351.1181,147.7542 		"/>
		<polygon fill="#565440" points="306.3988,38.4025 310.3893,38.4025 310.3893,39.6564 314.5949,39.6564 314.5949,38.4025
			318.6381,38.4025 318.6381,37.0078 332,37.0078 332,29.9984 292.172,29.9984 292.172,37.0078 306.3988,37.0078 		"/>
	</g>
	<g>
		<path fill="none" stroke="#565440" d="M314.0858,50.9387c1.5421,0,2.8037-0.2805,4.2055-0.8411
			c1.4018-0.5607,2.6636-1.4018,3.6448-2.3831c1.1215-0.9814,1.9627-2.243,2.5233-3.6448c0.5607-1.4018,0.8412-2.8037,0.8412-4.3457
			h-11.2148"/>
		<path fill="none" stroke="#565440" d="M291.1801,117.0752c0,1.5421-0.2805,2.8037-0.8411,4.2055s-1.4018,2.6636-2.3831,3.6448
			c-0.9814,1.1215-2.243,1.9627-3.6448,2.5233c-1.4018,0.5607-2.8037,0.8412-4.3458,0.8412v-11.2148"/>
		<path fill="none" stroke="#565440" d="M351.1181,151.9598c0,1.9758-0.3594,3.5924-1.0778,5.3886
			c-0.7184,1.7962-1.7962,3.4129-3.0535,4.6702c-1.2574,1.437-2.874,2.5148-4.6702,3.2332
			c-1.7962,0.7184-3.5924,1.0778-5.5682,1.0778v-14.3697"/>
		<path fill="none" stroke="#565440" d="M333.0213,133.6993c-1.5421,0-2.8037,0.2805-4.2055,0.8411
			c-1.4018,0.5607-2.6636,1.4018-3.6448,2.3831c-1.1215,0.9814-1.9627,2.243-2.5233,3.6448
			c-0.5607,1.4018-0.8412,2.8037-0.8412,4.3457h11.2148"/>
	</g>
</g>
<g>
	<rect x="355" y="-0.0001" fill="none" width="10" height="10"/>
	<rect x="34.0491" y="235" fill="none" width="10" height="10"/>
	<rect x="355" y="469.9999" fill="none" width="10" height="10"/>
	<rect x="676.3089" y="235" fill="none" width="10" height="10"/>
</g>
<g >
	<path data-nr="2" class="plan__svg__hoverable" fill="none" d="M266.6344,151.9599l-0.0001-121.9615h-4.2056v0.2008h-19.6005v-0.2008h-39.4398v0.2008
		h-20.1686v-0.2008h-9.8129v0.2008h-19.626v-0.2008l-39.2521,0.0001v0.2007h-19.626v-0.2008h-9.8129v0.2008H64.2627l0.0001,32.0419
		H64.062v9.813v29.4391h0.201l0.0001,20.4792h-0.201v23.5545h0.0001v6.433l133.1763-0.0001v-0.0001h14.0186v0.0001H266.6344z
		 M65.2627,31.1992h0.0005v31.0419h-0.0004L65.2627,31.1992z M65.263,101.4932h0.0002v20.4792h-0.0001L65.263,101.4932z"/>
	<polygon data-nr="1" class="plan__svg__hoverable" fill="none" points="264.5273,184.2026 257.5182,184.2026 218.2663,184.2026 218.2663,174.3895
		214.0606,174.3895 195.8365,174.3895 195.8365,167.3803 195.8365,153.3618 195.8365,151.9599 195.8365,149.8571 195.8365,147.7542
		64.062,147.7543 64.0621,150.9877 64.062,150.9877 64.062,160.3926 64.2632,160.3926 64.2632,181.3989 64.0621,181.3989
		64.0621,210.8378 64.0621,220.6508 64.2632,220.6508 64.2632,253.5945 64.2632,254.0947 85.0899,254.0947 85.0899,254.2955
		94.9028,254.2955 94.9028,254.0947 121.5381,254.0947 121.5381,254.2954 160.7902,254.2953 160.7902,254.0947 174.8087,254.0947
		174.8087,254.2954 184.6217,254.2954 184.6217,254.0947 204.2476,254.0947 204.2476,254.2953 264.5274,254.2953 264.5274,244.4824
			"/>
	<path data-nr="8" class="plan__svg__hoverable" fill="none" d="M357.2386,442.2355l-0.0032-106.6328h-0.1993h-49.0516v-8.6155
		c1.916,0,3.5478-0.3262,5.455-1.0898c1.7866-0.7148,3.4238-1.7852,4.7104-3.0742c1.4233-1.2451,2.5322-2.8457,3.2969-4.7568
		c0.7334-1.834,1.0898-3.6758,1.0898-5.6309v-0.5h-14.5518v1h13.5439c-0.0542,1.6553-0.3789,3.1797-1.0107,4.7598
		c-0.7051,1.7637-1.7231,3.2354-3.0508,4.3984c-1.2163,1.2158-2.7373,2.2109-4.3994,2.876
		c-1.7822,0.7129-3.3022,1.0176-5.0834,1.0176v-13.5518v-12.4417v-3.6428H191.631v14.4594l-0.8411,3.4842l1.3473,0.3025
		l-5.0341,21.816l0.2225,0.0446l-0.7412,3.0703l5.0467,1.1329v18.7733h2.0655l-7.9943,34.8754l0.157,0.0314l-0.6766,2.8031
		l6.4485,1.4477v16.9165h0.1983l-5.4104,27.1568l27.464,6.1346l-0.0478,0.2129l4.0654,0.9813l1.4478-6.4485h18.622l23.7607,6.1735
		l0.0447-0.1722l1.8527,0.4472l1.4477-6.4485h15.312l3.4847,0.8409l0.0558-0.2486l21.5237,5.5919l0.026-0.1l1.525,0.3681
		l0.9813-4.0654v-2.3868h22.0364l23.7457,6.1696l0.0382-0.1471l1.7648,0.426L357.2386,442.2355z"/>
	<path data-nr="7" class="plan__svg__hoverable" fill="none" d="M454.5215,335.6028h-62.2454h-11.1579V321.04h-0.5
		c-1.9736,0-3.833,0.3594-5.6816,1.0996c-1.9297,0.7715-3.5449,1.8906-4.7773,3.3018c-1.3232,1.3213-2.4033,2.9736-3.124,4.7764
		c-0.7541,1.8856-1.0804,3.5062-1.0942,5.385h-3.6649h-9.2425v55.1332H353.03v51.4073l-1.5251,6.8692l4.0652,0.9813l1.4477-6.4485
		l13.996,0.001l4.8598,1.1218l0.1435-0.6392l21.9273,5.6968l0.124-0.4773l3.0884,0.7455l1.4476-6.4485l19.1387-0.01v-0.0232
		l23.8536,6.1979l0.123-0.4736l1.3739,0.3317l1.3531-6.0281h7.2514V335.6028H454.5215z M367.9629,330.5889
		c0.6719-1.6777,1.6758-3.2139,2.9258-4.4648c1.1514-1.3154,2.6377-2.3438,4.4189-3.0566c1.5957-0.6377,3.1367-0.9658,4.8105-1.0195
		v13.5549H366.941C366.9548,333.8586,367.2596,332.3493,367.9629,330.5889z"/>
	<polygon data-nr="6" class="plan__svg__hoverable" fill="none" points="655.5031,410.1811 648.636,408.6204 648.636,369.9241 654.8428,342.7832
		654.6677,342.7482 654.8021,342.1914 648.634,340.74 648.634,335.6027 628.7749,335.6027 519.6638,335.6027 484.1166,335.6027
		484.1164,335.6027 451.4925,335.6028 451.4926,443.5452 461.6385,443.5399 466.4984,444.6614 466.676,443.87 489.3291,449.7246
		489.4421,449.2891 492.3389,449.9883 493.7866,443.5399 512.5329,443.545 537.8564,449.334 537.8582,449.3251 538.8855,449.5731
		540.2386,443.5452 553.1733,443.5452 558.0331,444.6667 558.1727,444.0447 579.6733,448.9589 582.218,449.5731 583.5713,443.5452
		602.4336,443.5452 602.4336,443.7646 629.2324,443.7646 647.0459,447.7861 655.1162,413.1963 654.8438,413.118 	"/>
	<polygon data-nr="5" class="plan__svg__hoverable" fill="none" points="652.8766,305.5789 647.2343,304.2768 647.2342,265.7905 649.4772,260.183
		649.0313,260.0079 656.2959,232.7676 627.6082,232.7676 627.6082,231.8656 626.2062,231.8656 626.2062,227.66 622.0007,227.66
		622.0007,231.8656 605.1785,231.8656 605.1785,227.66 600.973,227.66 600.973,231.8656 584.1506,231.8656 584.1506,227.66
		579.945,227.66 579.945,231.8656 561.7209,231.8656 561.7209,227.66 557.5154,227.66 557.5154,231.8656 557.5154,232.7676
		540.6931,232.7676 540.6931,227.66 536.4875,227.66 536.4875,232.7676 519.6654,232.7676 519.6654,227.6603 515.4599,227.6603
		515.4599,231.8658 497.2358,231.8658 497.2358,227.6603 493.0302,227.6603 493.0302,231.8658 456.582,231.8655 456.582,303.3605
		498.6375,303.3605 498.6375,307.566 498.6375,311.7715 521.0671,311.7715 521.0671,318.7808 521.0671,332.7991 521.0671,333.2988
		521.0671,335.6029 521.0671,339.8084 648.636,339.8084 648.636,333.434 654.9688,305.9961 	"/>
	<path data-nr="4" class="plan__svg__hoverable" fill="none" d="M529.4783,151.9598h-0.1995l-0.0002-21.0278h0.1996v-9.813V91.6801h-0.2001
		l-0.0002-19.6261h0.2004v-9.813h-0.2005l-0.0004-32.0417h-20.827v-0.2009h-9.813v0.2009h-19.626v-0.2009h-9.8131v0.2009h-19.626
		v-0.2009h-9.813v0.2009H419.819v-0.2009h-6.6949h-1.57h-2.6355v0.2009h-18.7775v-0.2009h-9.7281v0.2009h-14.0656v-0.2009h-4.2055
		l0.0001,121.9615h1.8242v0.0001l44.9525-0.0001v5.5569h-14.5183v0.5c0,1.7905,0.4014,3.6992,1.1592,5.519
		c0.6807,1.6323,1.7842,3.2397,3.1738,4.6284c1.1553,1.2832,2.7725,2.3638,4.8057,3.2109c1.9003,0.7914,3.6102,1.1602,5.3796,1.1602
		v17.2746h4.2055h95.3263v-0.201h20.8289l-0.0004-27.8361h0.1993V151.9598z M408.9189,171.5353
		c-1.6338,0-3.2207-0.3442-4.9951-1.083c-1.8955-0.79-3.3916-1.7847-4.4648-2.9761c-1.3164-1.3164-2.3457-2.812-2.9756-4.3252
		c-0.6377-1.5298-1.0049-3.1211-1.0723-4.6343h13.5078V171.5353z"/>
	<path data-nr="3" class="plan__svg__hoverable" fill="none" d="M366.3475,151.9598l-0.0001-121.9614h-15.7769v0.2008H332v-0.2008h-13.3619h-12.2393
		H292.172v0.2008h-19.9143v-0.2008h-5.6198h-1.0242h-3.1815v121.9615h1.3408v0.0001h72.4755v14.8696h0.5
		c1.998,0,3.8804-0.3643,5.7539-1.1133c1.9541-0.7822,3.5894-1.9155,4.8379-3.3442c1.3398-1.3398,2.4341-3.0127,3.1646-4.8379
		c0.7803-1.9517,1.1133-3.6187,1.1133-5.5742h4.4739l0.0004-0.0001H366.3475z M349.5762,157.1631
		c-0.6807,1.7002-1.6982,3.2573-2.9658,4.5264c-1.1665,1.333-2.6733,2.3755-4.479,3.0981
		c-1.6201,0.6479-3.1841,0.9805-4.8828,1.0342V151.96h13.3696C350.6182,153.7803,350.3066,155.3364,349.5762,157.1631z"/>
</g>
</svg>
