<!-- DO NOT EDIT THIS, THIS FILE IS GENERATED FROM "2_5-6.original.svg" using transform-svgs.js script -->



<svg version="1.1" 
	 xmlns="http://www.w3.org/2000/svg" xmlns:xlink="http://www.w3.org/1999/xlink" x="0px" y="0px" viewBox="0 0 720 480"
	 style="enable-background:new 0 0 720 480;" xml:space="preserve">


<g>
	<polygon fill="#DBD4CA" points="263.8267,449.2934 265.2285,442.985 281.2193,442.6883 304.92,449.52 307.2841,444.387
		307.2841,442.9852 327.6111,442.9852 353.5454,449.2934 356.3491,442.985 371.7695,442.985 399.8066,449.2934 402.6103,442.985
		419.3598,442.985 442.8798,448.5215 448.0305,442.985 465.2234,442.985 488.8801,448.7769 493.731,442.9849 500.7403,442.9849
		500.7403,442.9851 512.656,442.9851 537.8895,448.5925 539.2913,442.9851 554.7118,442.9851 580.6462,448.5924 582.048,442.9851
		629.2905,442.985 646.5334,447.1905 654.9445,410.7423 647.9352,409.3405 647.9352,370.0885 654.2436,342.7523 647.9352,341.3505
		647.9352,336.444 647.9352,333.6403 653.5426,308.4068 646.5333,304.2014 646.5333,266.2926 655.5031,233.2674 478.2152,233.4151
		478.2152,189.109 528.7794,189.109 528.5782,30.6993 380.8815,30.6993 380.8815,30.8395 312.8915,30.8395 64.763,30.8396
		64.7628,30.8395 64.763,30.8398 64.763,253.7347 64.763,253.7348 236.3504,253.7348 236.3502,253.7345 236.3502,253.7344
		236.3504,253.7347 237.0511,252.7592 237.0511,254.1923 238.7935,254.1923 238.7935,296.5317 237.0511,296.5317 237.0511,297.1921
		192.332,297.1921 193.0329,314.7152 187.4255,339.2478 192.3321,340.6496 194.0142,359.4345 186.3042,395.1689 192.332,398.8267
		192.332,412.7051 186.5845,442.5646 217.5655,449.2934 218.9673,442.985 236.4905,442.985 	"/>
	<g>
		<rect x="237.8924" y="253.7347" fill="#565440" width="4.2055" height="42.7567"/>
		<rect x="456.582" y="188.681" fill="#565440" width="4.2052" height="44.9356"/>
		<rect x="477.6095" y="188.681" fill="#565440" width="1.4021" height="44.9356"/>
	</g>
</g>
<g>
	<path fill="none" stroke="#565440" d="M216.0232,32.8021v-2.1028l-151.2603,0l0,117.756h2.1027l0-115.6532L216.0232,32.8021
		L216.0232,32.8021z"/>
	<g>
		<polygon fill="#565440" points="218.2662,29.9984 204.2476,29.9984 204.2476,39.8114 214.0606,39.8114 214.0606,147.7542
			211.2569,147.7542 211.2569,151.9599 218.2663,151.9599 		"/>
		<rect x="173.4068" y="29.9984" fill="#565440" width="9.813" height="7.0093"/>
		<polygon fill="#565440" points="134.1549,87.4745 134.1549,88.8764 142.566,88.8764 142.566,39.8114 153.7808,39.8114
			153.7808,29.9984 114.5287,29.9985 114.5287,39.8114 141.164,39.8114 141.1641,87.4745 		"/>
		<polygon fill="#565440" points="117.3326,88.8764 117.3326,91.6802 118.7344,91.6802 118.7344,88.8764 122.9399,88.8764
			122.9399,87.4745 71.0713,87.4745 71.0713,72.0541 73.875,72.0541 73.875,62.2411 64.062,62.2411 64.062,101.4932
			71.0714,101.4932 71.0713,88.8764 		"/>
		<rect x="85.0898" y="29.9985" fill="#565440" width="9.813" height="9.813"/>
		<polygon fill="#565440" points="184.6217,147.7542 184.6216,123.9228 183.2198,123.9228 183.2198,147.7542 155.1827,147.7542
			155.1827,105.6987 183.2198,105.6987 183.2198,112.7079 184.6216,112.7079 184.6216,104.2968 118.7344,104.2968 118.7344,102.895
			117.3326,102.895 117.3326,105.6987 127.1456,105.6987 127.1456,122.521 128.5474,122.521 128.5474,105.6987 153.7809,105.6987
			153.7809,147.7542 128.5474,147.7543 128.5474,133.7358 127.1456,133.7358 127.1456,147.7543 73.875,147.7543 73.875,121.1191
			64.062,121.1191 64.062,151.96 197.2383,151.9599 197.2383,147.7542 		"/>
	</g>
	<path fill="none" stroke="#565440" d="M122.9401,87.4745c0-1.5421,0.2803-2.8037,0.8411-4.2056
		c0.5607-1.4018,1.4018-2.6634,2.3831-3.6448c0.9814-1.1215,2.243-1.9627,3.6448-2.5233s2.8037-0.8411,4.3457-0.8411v11.2148
		 M117.3326,102.895c-1.5421,0-2.8037-0.2803-4.2056-0.8411c-1.402-0.5608-2.6634-1.4018-3.6448-2.3831
		c-1.1215-0.9814-1.9627-2.243-2.5233-3.6448c-0.5608-1.4018-0.8411-2.8037-0.8411-4.3457l11.2148,0 M127.1456,122.521
		c-1.5421,0-2.8037,0.2803-4.2055,0.8411c-1.4018,0.5607-2.6636,1.4018-3.6448,2.3831c-1.1215,0.9814-1.9627,2.243-2.5233,3.6448
		c-0.5607,1.4018-0.8411,2.8037-0.8411,4.3457l11.2148,0 M183.2198,123.9228c-1.5421,0-2.8037-0.2803-4.2055-0.8411
		s-2.6636-1.4018-3.6448-2.3832c-1.1215-0.9812-1.9627-2.243-2.5233-3.6448s-0.8411-2.8037-0.8411-4.3457l11.2148,0
		 M197.2384,147.7542c0-1.8224,0.4206-3.5046,1.1215-5.1869c0.7009-1.6823,1.6822-3.3644,3.084-4.6261
		c1.2617-1.2617,2.8037-2.3831,4.486-3.0842c1.6823-0.7009,3.5046-1.1215,5.327-1.1215v14.0186"/>
</g>
<g>
	<path fill="none" stroke="#565440" d="M66.8657,251.4918l0-101.4943h-2.1027l0,103.5971l140.1856,0v-2.1027H66.8657
		L66.8657,251.4918z"/>
	<g>
		<polygon fill="#565440" points="71.0714,210.8378 71.0714,198.2212 132.7529,198.2211 132.7529,196.8193 128.5474,196.8193
			128.5474,194.0156 127.1456,194.0156 127.1456,196.8193 71.0714,196.8194 71.0714,181.3989 64.062,181.3989 64.0621,220.6508
			73.875,220.6508 73.875,210.8378 		"/>
		<rect x="85.0899" y="243.0806" fill="#565440" width="9.813" height="11.2148"/>
		<rect x="174.8087" y="247.2861" fill="#565440" width="9.813" height="7.0093"/>
		<polygon fill="#565440" points="160.7902,196.8193 143.9679,196.8193 143.9679,198.2211 159.3882,198.2211 159.3882,215.0434
			127.1456,215.0435 127.1456,217.8471 128.5474,217.8471 128.5474,216.4453 159.3882,216.4453 159.3882,244.4824
			150.9771,244.4824 150.9771,247.2861 128.5475,247.2861 128.5475,229.0619 127.1456,229.0619 127.1456,247.2861
			121.5381,247.2861 121.5381,254.2954 160.7902,254.2954 		"/>
		<polygon fill="#565440" points="264.5273,184.2026 218.2663,184.2026 218.2663,174.3895 195.8365,174.3895 195.8365,167.3803
			191.631,167.3804 191.631,188.4082 193.0328,188.4082 193.0328,178.5952 214.0606,178.5952 214.0606,188.4082 235.0884,188.4081
			235.0885,229.0619 225.2754,229.0619 225.2754,231.8657 226.6773,231.8657 226.6773,230.4638 236.4904,230.4638
			236.4904,212.2396 237.8922,212.2396 237.8922,210.8378 236.4904,210.8378 236.4904,188.4081 257.5182,188.4081
			257.5182,210.8378 249.1071,210.8378 249.1071,212.2396 257.5182,212.2396 257.5182,244.4824 226.6773,244.4824
			226.6773,243.0806 225.2754,243.0806 225.2755,244.4824 204.2476,244.4824 204.2476,254.2954 264.5274,254.2953 		"/>
		<polygon fill="#565440" points="127.1456,151.9599 127.1456,182.8007 128.5474,182.8007 128.5474,178.5952 141.1641,178.5952
			141.1641,177.1933 128.5474,177.1933 128.5474,151.9599 163.5938,151.9599 163.5939,177.1933 152.3791,177.1933
			152.3791,178.5952 164.9957,178.5952 164.9957,151.9599 191.631,151.9599 191.631,153.3617 195.8365,153.3617 195.8365,147.7542
			64.062,147.7543 64.062,160.3711 73.875,160.3711 73.875,151.9599 		"/>
	</g>
	<path fill="none" stroke="#565440" d="M152.3791,178.5952c0,1.5421-0.2803,2.8037-0.8411,4.2056
		c-0.5608,1.4018-1.4018,2.6634-2.3832,3.6448c-0.9813,1.1215-2.243,1.9627-3.6448,2.5233s-2.8037,0.8411-4.3457,0.8411v-11.2148
		 M132.7531,198.2211c0,1.5421,0.2803,2.8037,0.8411,4.2056c0.5607,1.4018,1.4018,2.6634,2.3831,3.6448
		c0.9812,1.1215,2.243,1.9627,3.6448,2.5233c1.4018,0.5607,2.8037,0.8411,4.3457,0.8411v-11.2148 M127.1456,182.8007
		c-1.5421,0-2.8037,0.2803-4.2055,0.8411s-2.6636,1.4018-3.6448,2.3833c-1.1215,0.9812-1.9627,2.243-2.5233,3.6448
		c-0.5607,1.4018-0.8411,2.8037-0.8411,4.3457h11.2148 M128.5475,229.0619c1.5421,0,2.8037-0.2803,4.2055-0.8411
		s2.6636-1.4018,3.6448-2.3831c1.1215-0.9814,1.9627-2.243,2.5233-3.6448c0.5608-1.4018,0.8411-2.8037,0.8411-4.3457h-11.2148
		 M225.2756,231.8657c-1.5421,0-2.8037,0.2803-4.2055,0.8411s-2.6634,1.4018-3.6448,2.3833
		c-1.1215,0.9812-1.9627,2.243-2.5233,3.6448c-0.5608,1.4018-0.8411,2.8037-0.8411,4.3457h11.2148 M249.1071,212.2396
		c0,1.5421-0.2803,2.8037-0.8411,4.2055c-0.5607,1.4018-1.4018,2.6636-2.3831,3.6448c-0.9814,1.1215-2.243,1.9627-3.6448,2.5234
		c-1.4018,0.5607-2.8037,0.8411-4.3457,0.8411v-11.2148 M191.631,167.3804c-1.8224,0-3.5046-0.4206-5.1869-1.1215
		c-1.6823-0.7009-3.3645-1.6823-4.6261-3.0842c-1.2616-1.2617-2.3831-2.8037-3.084-4.486c-0.7009-1.6823-1.1215-3.5046-1.1215-5.327
		h14.0186"/>
</g>
<g>
	<g>
		<path fill="none" stroke="#565440" d="M194.8553,314.5753l-5.0466,21.869l-2.1027-0.4206l5.0466-21.869L194.8553,314.5753z"/>
		<path fill="none" stroke="#565440" d="M196.5375,358.8739l-8.1307,35.4669l-2.1027-0.4206l8.1307-35.467L196.5375,358.8739z"/>
		<polygon fill="none" stroke="#565440" points="214.6215,448.4525 215.1822,446.3497 189.5283,440.602 196.1171,406.8173 194.1544,406.3967
			187.005,442.2843 187.9863,442.4244 		"/>

			<rect x="248.3705" y="432.2976" transform="matrix(0.2515 -0.9679 0.9679 0.2515 -243.926 574.4312)" fill="none" stroke="#565440" stroke-width="1" stroke-miterlimit="4.0002" width="2.0999" height="25.2439"/>

			<rect x="293.1773" y="433.7123" transform="matrix(0.2515 -0.9679 0.9679 0.2515 -210.6715 618.0174)" fill="none" stroke="#565440" stroke-width="1" stroke-miterlimit="4.0002" width="2.0999" height="23.001"/>
	</g>
	<g>
		<polygon fill="#565440" points="307.985,296.3511 191.631,296.3511 191.631,310.8105 190.7899,314.2948 197.659,315.8369
			198.6403,311.7715 198.6403,303.3603 303.7795,303.3603 303.7795,314.076 307.985,314.076 		"/>
		<polygon fill="#565440" points="194.4347,337.0049 187.5656,335.463 186.5844,339.5282 191.631,340.6612 191.6311,359.4345
			201.444,359.4345 201.444,337.0049 		"/>
		<polygon fill="#565440" points="192.4081,394.481 186.1638,393.0792 185.1825,397.1446 191.6311,398.5922 191.6311,415.5088
			201.444,415.5088 201.444,394.481 		"/>
		<polygon fill="#565440" points="238.8379,443.5461 238.8379,433.7329 215.2372,433.7329 215.2372,442.7688 213.8352,449.0132
			217.9006,449.9946 219.3484,443.5461 		"/>
		<polygon fill="#565440" points="283.8731,444.387 285.4153,437.518 281.3499,436.5693 281.3499,436.5367 260.9651,436.5367
			260.9651,442.7688 259.5633,449.0132 263.6287,449.9945 265.0764,443.546 280.3884,443.546 		"/>
		<polygon fill="#565440" points="251.9108,373.4532 196.8179,373.4532 193.0329,372.612 192.7524,374.014 196.5375,374.855
			250.5089,374.855 250.5089,376.2568 251.9108,376.2568 		"/>
		<polygon fill="#565440" points="268.7331,384.668 267.3312,384.668 267.3312,395.8828 264.5274,395.8828 264.5274,397.2846
			268.7331,397.2846 268.7331,388.8735 303.7795,388.8735 303.7795,445.5326 302.9384,449.0171 307.0038,449.9983 307.985,445.9329
			307.985,328.0933 303.7795,328.0933 303.7795,331.3974 292.3473,331.3974 292.3473,332.7993 303.7795,332.7993 303.7795,360.8365
			268.7331,360.8365 268.7331,332.7993 281.1935,332.7993 281.1935,331.3974 267.3312,331.3974 267.3312,373.4531
			268.7331,373.4531 268.7331,362.2383 303.7795,362.2383 303.7795,387.4716 268.7331,387.4716 		"/>
		<polygon fill="#565440" points="249.6679,443.8263 251.0698,444.1067 251.9108,440.7422 251.9108,397.2846 253.3126,397.2846
			253.3126,395.8828 251.9108,395.8828 251.9108,387.4716 250.5089,387.4716 250.509,440.4618 		"/>
	</g>
	<path fill="none" stroke="#565440" d="M250.5089,387.4716c-1.5421,0-2.8037-0.2803-4.2055-0.8411
		c-1.4018-0.5608-2.6634-1.4018-3.6448-2.3831c-1.1215-0.9814-1.9627-2.243-2.5233-3.6448
		c-0.5608-1.4018-0.8412-2.8037-0.8412-4.3457h11.2148 M268.7331,373.4531c1.5421,0,2.8037,0.2804,4.2055,0.8412
		c1.4018,0.5608,2.6634,1.4018,3.6448,2.3831c1.1215,0.9814,1.9627,2.243,2.5234,3.6448c0.5608,1.4018,0.8411,2.8037,0.8411,4.3458
		h-11.2148 M281.1935,332.7993c0,1.5421,0.2803,2.8037,0.8411,4.2055c0.5608,1.4018,1.4018,2.6636,2.3832,3.6448
		c0.9813,1.1215,2.243,1.9627,3.6448,2.5233s2.8037,0.8412,4.3458,0.8412v-11.2148 M264.5276,397.2846
		c0,1.5421-0.2803,2.8037-0.8411,4.2055c-0.5608,1.4018-1.4018,2.6636-2.3832,3.6448c-0.9813,1.1215-2.243,1.9627-3.6448,2.5233
		c-1.4018,0.5607-2.8037,0.8412-4.3457,0.8412v-11.2148 M307.85,314.0747c1.8224,0,3.6397,0.4205,5.322,1.1215
		c1.6823,0.7009,3.3645,1.6823,4.6261,3.0842c1.2617,1.2617,2.3831,2.8036,3.0842,4.486c0.7009,1.6821,1.1215,3.5046,1.1215,5.327
		h-14.1536"/>
</g>
<g>
	<g>
		<polygon fill="#565440" points="307.985,443.546 330.4148,443.546 330.4148,433.7329 307.985,433.7329 307.985,374.8549
			341.6296,374.8549 341.6296,383.2661 352.8444,383.2661 352.8445,384.6679 354.2463,384.6679 354.2463,374.8549
			352.8444,374.8549 352.8444,381.8643 343.0315,381.8643 343.0315,370.6495 341.6296,370.6495 341.6296,373.4531 307.985,373.4531
			307.985,339.8085 341.6296,339.8085 341.6296,359.4345 343.0315,359.4345 343.0315,339.8085 354.2463,339.8085 354.2463,335.603
			303.7795,335.603 303.7795,445.5326 302.9384,449.0171 307.0038,449.9983 307.985,445.9329 		"/>
		<polygon fill="#565440" points="402.4023,443.546 406.115,443.546 406.115,335.603 368.2647,335.603 368.2647,339.8085
			374.89,339.8085 374.89,347.8655 376.2988,347.8655 376.2988,339.8085 401.9094,339.8085 401.9094,433.7329 398.4313,433.7329
			398.4313,442.144 396.8894,449.0132 400.9547,449.9945 		"/>
		<polygon fill="#565440" points="356.8155,443.546 370.8115,443.5469 375.6714,444.6686 377.2135,437.7995 371.8863,436.5378
			354.2463,436.5366 354.2463,395.8828 352.8445,395.8828 352.8445,442.144 351.3025,449.0132 355.3678,449.9945 		"/>
	</g>
	<path fill="none" stroke="#565440" d="M341.6296,359.4345c-1.5421,0-2.8036,0.2803-4.2055,0.8411
		c-1.4018,0.5608-2.6634,1.4018-3.6448,2.3833c-1.1215,0.9812-1.9627,2.243-2.5233,3.6448
		c-0.5607,1.4018-0.8412,2.8037-0.8412,4.3457h11.2148 M352.8445,395.8828c-1.5421,0-2.8037-0.2803-4.2057-0.8412
		c-1.4018-0.5608-2.6635-1.4018-3.6448-2.3832c-1.1215-0.9813-1.9626-2.243-2.5233-3.6448s-0.8412-2.8037-0.8412-4.3457h11.2148
		 M368.2649,335.6652c0-1.8224-0.4206-3.567-1.1215-5.2493c-0.7009-1.6823-1.6822-3.3645-3.084-4.6261
		c-1.2616-1.2617-2.8037-2.3831-4.486-3.0842c-1.6822-0.7009-3.5046-1.1215-5.327-1.1215l0,14.0808"/>
	<g>

			<rect x="340.4066" y="432.2937" transform="matrix(0.2515 -0.9679 0.9679 0.2515 -175.0323 663.5062)" fill="none" stroke="#565440" stroke-width="1" stroke-miterlimit="4.0002" width="2.0997" height="25.2439"/>

			<rect x="385.4672" y="433.7084" transform="matrix(0.2515 -0.9679 0.9679 0.2515 -141.5878 707.338)" fill="none" stroke="#565440" stroke-width="1" stroke-miterlimit="4.0002" width="2.0997" height="23.001"/>
	</g>
</g>
<g>
	<path fill="none" stroke="#565440" d="M439.7595,359.4345c-1.5421,0-2.8037,0.2803-4.2057,0.8411
		c-1.4018,0.5608-2.6635,1.4018-3.6448,2.3833c-1.1215,0.9812-1.9626,2.243-2.5233,3.6448
		c-0.5607,1.4018-0.8412,2.8037-0.8412,4.3457h11.2148 M450.9744,395.8827c-1.5421,0-2.8037-0.2803-4.2056-0.8412
		c-1.4019-0.5608-2.6636-1.4018-3.6448-2.3832c-1.1215-0.9813-1.9626-2.243-2.5233-3.6448
		c-0.5607-1.4018-0.8412-2.8037-0.8412-4.3457h11.2148 M452.3763,335.7233c0-1.8224,0.4206-3.6251,1.1215-5.3072
		c0.7009-1.6823,1.6822-3.3645,3.0842-4.6261c1.2616-1.2617,2.8036-2.3831,4.486-3.0841c1.6822-0.7009,3.5046-1.1215,5.327-1.1215
		l0,14.139"/>
	<g>
		<polygon fill="#565440" points="421.5411,443.5359 421.5411,433.7414 406.1149,433.7329 406.1149,374.8549 439.7595,374.8549
			439.7595,383.2661 450.9743,383.2661 450.9743,384.6679 452.3761,384.6679 452.3761,374.8549 450.9743,374.8549
			450.9743,381.8642 441.1613,381.8642 441.1613,370.6494 439.7595,370.6494 439.7595,373.4531 406.1149,373.4531
			406.1149,339.8085 439.7594,339.8085 439.7595,359.4345 441.1613,359.4345 441.1613,339.8085 452.3761,339.8085 452.3761,335.603
			401.9094,335.603 401.9094,443.546 		"/>
		<polygon fill="#565440" points="475.0305,339.8085 475.0305,348.0787 476.423,348.0787 476.423,339.8085 500.0392,339.8085
			500.0392,433.7328 489.6768,433.7328 489.6768,442.7566 488.2746,449.0031 488.2759,449.0034 488.2749,449.0077 492.3403,449.989
			493.788,443.5406 504.2449,443.546 504.2449,443.5406 504.2498,443.5406 504.2498,433.7328 504.2449,433.7328 504.2448,335.6029
			466.3947,335.603 466.3947,339.8085 		"/>
		<polygon fill="#565440" points="461.6397,443.5406 466.4996,444.6621 468.0417,437.793 462.7147,436.5313 452.3761,436.5313
			452.3761,395.8827 450.9743,395.8827 450.9743,436.5313 443.9478,436.5313 443.9478,443.5406 443.9592,443.5406
			442.8263,448.5874 446.8917,449.5687 448.2448,443.5406 		"/>
	</g>
	<g>

			<rect x="432.0347" y="432.2892" transform="matrix(0.2515 -0.9679 0.9679 0.2515 -106.4434 752.186)" fill="none" stroke="#565440" stroke-width="1" stroke-miterlimit="4.0002" width="2.0997" height="25.2439"/>
		<polygon fill="none" stroke="#565440" points="465.6594,443.0919 466.1875,441.0596 489.4998,447.0841 488.9717,449.1163 		"/>
	</g>
</g>
<g>
	<path fill="none" stroke="#565440" d="M646.6735,447.1906l7.8503-33.6446l-2.2508-0.6472l-7.2897,31.6819l-15.6929-3.4181l-26.3549,0
		v2.1028h26.3549L646.6735,447.1906z M537.8895,446.63l-0.4206,2.1028l-26.0746-5.9609l0.4206-2.1028L537.8895,446.63z
		 M581.347,446.6299l-0.4206,2.1028l-24.5325-5.6075l0.4206-2.1028L581.347,446.6299z M654.2435,343.1729l-6.0279,26.3548
		l-2.1027-0.4206l6.0279-26.3548L654.2435,343.1729z"/>
	<g>
		<polygon fill="#565440" points="535.0858,339.8084 535.0858,353.8271 536.4876,353.8271 536.4876,339.8084 556.1136,339.8084
			556.1136,367.8456 536.4876,367.8456 536.4876,365.0419 535.0858,365.0419 535.0858,369.2474 582.7488,369.2474
			582.7488,367.8456 557.5154,367.8456 557.5154,339.8084 595.3655,339.8084 595.3655,367.8456 593.9637,367.8456
			593.9637,369.2474 595.3655,369.2474 595.3655,370.6494 596.7673,370.6494 596.7673,339.8084 644.4304,339.8084
			644.4289,344.0467 653.823,346.257 654.8043,342.1917 648.636,340.7403 648.636,335.6029 519.6653,335.6029 519.6653,339.8084
			"/>
		<polygon fill="#565440" points="553.1749,443.5459 558.0348,444.6674 559.577,437.7984 554.2499,436.5366 535.9431,436.5366
			535.9431,443.5459 535.9546,443.5459 534.8217,448.5926 538.8871,449.5738 540.2402,443.5459 		"/>
		<polygon fill="#565440" points="504.2449,433.7328 504.2448,339.8085 505.6467,339.8085 505.6467,335.6029 500.0393,335.603
			500.0394,443.546 513.3165,443.546 513.3165,433.7328 		"/>
		<polygon fill="#565440" points="582.2632,395.8827 582.2632,394.4808 580.6777,394.4808 580.6777,384.6679 579.2759,384.6679
			579.2759,433.7328 579.2874,443.5459 578.1544,448.5925 582.2198,449.5738 583.5731,443.5459 604.3296,443.5459
			604.3296,433.7328 580.6777,433.7328 580.6777,395.8827 		"/>
		<polygon fill="#565440" points="596.7673,394.4808 596.7673,381.8642 595.3655,381.8642 595.3655,394.4808 593.4781,394.4808
			593.4781,395.8827 641.6268,395.8827 641.6268,414.1068 641.6583,414.1068 641.6268,414.247 653.9633,417.0509 655.5052,410.1816
			648.6361,408.6205 648.6361,395.8827 648.6361,365.0419 644.4304,365.0419 644.4304,394.4808 		"/>
	</g>
	<path fill="none" stroke="#565440" d="M536.4876,353.8271c1.5421,0,2.8036,0.2803,4.2055,0.8411
		c1.4019,0.5607,2.6636,1.4018,3.6448,2.3831c1.1215,0.9814,1.9626,2.243,2.5233,3.6448c0.5607,1.4018,0.8411,2.8037,0.8411,4.3457
		h-11.2148 M582.7488,367.8456c0-1.5421,0.2803-2.8037,0.8412-4.2055c0.5607-1.4018,1.4018-2.6634,2.3831-3.6448
		c0.9813-1.1215,2.243-1.9627,3.6448-2.5234c1.4019-0.5608,2.8036-0.8411,4.3458-0.8411v11.2148 M596.7673,370.6494
		c1.5421,0,2.8036,0.2803,4.2055,0.8412c1.4019,0.5607,2.6636,1.4018,3.6448,2.3831c1.1215,0.9813,1.9626,2.243,2.5233,3.6448
		c0.5609,1.4018,0.8412,2.8037,0.8412,4.3457h-11.2148 M593.4781,395.8827c0,1.5421-0.2803,2.8037-0.8412,4.2055
		c-0.5607,1.4018-1.4018,2.6636-2.3831,3.6448c-0.9813,1.1215-2.243,1.9627-3.6448,2.5233
		c-1.4019,0.5607-2.8036,0.8412-4.3458,0.8412v-11.2148 M519.6653,339.8084c0,1.8224-0.4205,3.5046-1.1215,5.1869
		c-0.7009,1.6823-1.6822,3.3645-3.0842,4.6261c-1.2617,1.2617-2.8036,2.3832-4.486,3.0842
		c-1.6823,0.7009-3.5046,1.1215-5.327,1.1215v-14.0186"/>
</g>
<g>
	<g>
		<path fill="none" stroke="#565440" d="M654.3647,306.386l-6.2895,27.2543l-2.1028-0.4206l6.2895-27.2543L654.3647,306.386z"/>
		<path fill="none" stroke="#565440" d="M558.9172,233.2675v2.1027l-40.6537,0v-2.1027L558.9172,233.2675z"/>
		<polygon fill="none" stroke="#565440" points="655.6454,233.2674 614.4308,233.2675 614.4308,235.3702 652.8416,235.3702 646.393,260.0429
			648.3557,260.6036 		"/>
	</g>
	<g>
		<polygon fill="#565440" points="648.636,329.9955 638.8231,329.9955 638.8231,335.6029 591.16,335.6029 591.16,303.3602
			589.758,303.3602 589.758,307.5658 575.7395,307.5658 575.7395,308.9677 589.758,308.9677 589.7581,335.6029 553.3098,335.6029
			553.3098,308.9677 564.5247,308.9677 564.5247,307.5658 551.9079,307.5658 551.9079,308.9677 551.9079,335.6029
			525.2728,335.6029 525.2728,332.7992 521.0671,332.7992 521.0671,339.8084 648.636,339.8084 		"/>
		<polygon fill="#565440" points="557.5154,241.6788 557.5154,289.3417 574.3377,289.3417 574.3377,287.9398 558.9172,287.9398
			558.9172,272.5194 591.16,272.5194 591.16,268.3137 589.758,268.3137 589.758,271.1175 558.9172,271.1176 558.9172,241.6788
			589.758,241.6788 589.758,257.0989 591.16,257.0989 591.16,241.6788 627.6082,241.6788 627.6082,231.8656 626.2062,231.8656
			626.2062,227.66 622.0007,227.66 622.0007,231.8656 605.1785,231.8656 605.1785,227.66 600.973,227.66 600.973,231.8656
			584.1506,231.8656 584.1506,227.66 579.945,227.66 579.945,231.8656 561.7209,231.8656 561.7209,227.66 557.5154,227.66
			557.5154,231.8656 		"/>
		<rect x="536.4875" y="227.66" fill="#565440" width="4.2055" height="9.813"/>
		<polygon fill="#565440" points="643.0286,259.9027 643.0286,262.7064 638.8231,262.7064 638.8231,272.5194 643.0286,272.5194
			643.0286,287.9398 585.5525,287.9398 585.5525,289.3417 589.758,289.3417 589.758,292.1454 591.16,292.1454 591.16,289.3417
			643.0286,289.3417 643.0286,306.9851 642.8885,307.5658 653.8229,310.0891 654.8042,306.0237 647.2343,304.2768
			647.2342,265.7905 649.4772,260.1831 645.5521,258.641 645.0474,259.9027 		"/>
		<polygon fill="#565440" points="525.2726,297.7529 523.8709,297.7529 523.8709,307.5659 502.8431,307.5659 502.8431,299.1547
			483.2172,299.1547 483.2172,257.0991 491.6283,257.0991 491.6283,255.6973 481.8153,255.6973 481.8153,273.9214
			480.4135,273.9214 480.4135,275.3232 481.8153,275.3232 481.8153,299.1547 460.7875,299.1547 460.7875,275.3232
			469.1986,275.3232 469.1986,273.9214 460.7875,273.9214 460.7875,241.6788 490.2264,241.6788 490.2264,244.4825
			491.6283,244.4825 491.6283,241.6788 519.6654,241.6788 519.6654,227.6603 515.4599,227.6603 515.4599,231.8658
			497.2358,231.8658 497.2358,227.6603 493.0302,227.6603 493.0302,231.8658 456.582,231.8655 456.582,303.3605 498.6375,303.3605
			498.6375,311.7715 521.0671,311.7715 521.0671,318.7808 525.2726,318.7808 525.2726,307.566 		"/>
	</g>
	<path fill="none" stroke="#565440" d="M591.16,303.3602c1.5421,0,2.8037-0.2804,4.2057-0.8412
		c1.4018-0.5607,2.6636-1.4018,3.6448-2.3831c1.1215-0.9814,1.9627-2.243,2.5234-3.6448s0.8411-2.8037,0.8411-4.3457h-11.2148
		 M585.5525,287.9398c0-1.5421-0.2803-2.8037-0.8411-4.2055c-0.5609-1.4018-1.4019-2.6636-2.3831-3.6448
		c-0.9813-1.1215-2.243-1.9627-3.6448-2.5233c-1.4018-0.5607-2.8036-0.8412-4.3457-0.8412v11.2148 M564.5247,307.5658
		c0-1.5421,0.2803-2.8037,0.8411-4.2055c0.5607-1.4018,1.4019-2.6636,2.3831-3.6448c0.9813-1.1215,2.243-1.9627,3.6448-2.5233
		c1.4018-0.5607,2.8036-0.8412,4.3457-0.8412v11.2148 M589.7581,257.0989c-1.5421,0-2.8036,0.2803-4.2054,0.8411
		c-1.4019,0.5608-2.6636,1.4018-3.6448,2.3832c-1.1215,0.9813-1.9626,2.243-2.5233,3.6448
		c-0.5607,1.4018-0.8412,2.8037-0.8412,4.3458h11.2148 M491.6281,255.6971c1.5421,0,2.8037-0.2803,4.2055-0.8411
		c1.4018-0.5608,2.6635-1.4018,3.6448-2.3832c1.1215-0.9813,1.9626-2.243,2.5233-3.6448s0.8412-2.8037,0.8412-4.3457h-11.2148
		 M469.1985,273.9213c0-1.5421,0.2804-2.8037,0.8412-4.2055c0.5607-1.4018,1.4018-2.6634,2.3831-3.6448
		c0.9813-1.1215,2.243-1.9627,3.6448-2.5233c1.4018-0.5608,2.8036-0.8412,4.3457-0.8412v11.2148 M525.2728,318.7806
		c1.8224,0,3.5046,0.4206,5.1869,1.1215c1.6822,0.7009,3.3645,1.6823,4.6261,3.0841c1.2617,1.2616,2.3831,2.8037,3.0842,4.486
		c0.7009,1.6823,1.1215,3.5046,1.1215,5.327h-14.0185"/>
</g>
<g>
	<polygon fill="none" stroke="#565440" points="528.7773,30.6993 419.4325,30.6993 419.4325,32.8021 526.6746,32.8021
		526.6746,187.0062 507.7495,187.0062 507.7495,189.109 528.7794,189.109 	"/>
	<g>
		<rect x="439.7593" y="29.9983" fill="#565440" width="9.813" height="9.813"/>
		<polygon fill="#565440" points="474.8058,37.0077 474.8058,90.2781 472.0021,90.2781 472.0021,91.6801 474.8058,91.6801
			474.8058,94.4837 476.2076,94.4837 476.2076,37.0077 479.0114,37.0077 479.0114,29.9983 469.1983,29.9983 469.1983,37.0077 		"/>
		<rect x="498.6374" y="29.9983" fill="#565440" width="9.813" height="9.813"/>
		<rect x="519.6652" y="62.241" fill="#565440" width="9.813" height="9.813"/>
		<rect x="522.4689" y="151.9598" fill="#565440" width="7.0093" height="9.813"/>
		<polygon fill="#565440" points="508.4504,182.8006 450.9744,182.8006 450.9744,165.9783 459.3854,165.9783 459.3854,164.5764
			449.5724,164.5764 449.5724,182.8006 413.1241,182.8006 413.1241,172.043 408.9186,172.043 408.9186,189.8099 508.4504,189.8099
					"/>
		<polygon fill="#565440" points="476.2076,107.1004 476.2076,105.6986 474.8058,105.6986 474.8058,108.5022 522.4689,108.5022
			522.4689,121.119 519.6652,121.119 519.6652,130.932 529.4782,130.932 529.4782,91.6801 522.4689,91.6801 522.4689,107.1004 		"/>
		<polygon fill="#565440" points="435.5539,147.7542 435.5539,146.3525 413.1241,146.3525 413.1241,119.7172 449.5724,119.7172
			449.5724,146.3524 446.7687,146.3524 446.7687,147.7542 459.3854,147.7542 459.3854,146.3524 450.9743,146.3524 450.9743,91.6801
			460.7872,91.6801 460.7872,90.2781 436.9557,90.2781 436.9557,91.6801 449.5724,91.6801 449.5724,118.3152 413.1241,118.3152
			413.1241,91.6801 425.7409,91.6801 425.7409,90.2781 413.1241,90.2781 413.1241,39.8114 420.1334,39.8113 420.1334,29.9984
			413.1241,29.9984 408.9185,29.9984 408.9186,158.0243 413.1241,158.0243 413.1241,147.7542 		"/>
	</g>
	<path fill="none" stroke="#565440" d="M408.9186,172.043c-1.8224,0-3.5046-0.4206-5.1869-1.1215
		c-1.6822-0.7009-3.3645-1.6823-4.6261-3.0842c-1.2616-1.2617-2.3831-2.8037-3.084-4.486c-0.7009-1.6823-1.1215-3.5046-1.1215-5.327
		h14.0186 M476.2076,94.4837c1.5421,0,2.8036,0.2803,4.2055,0.8411c1.4018,0.5607,2.6635,1.4018,3.6448,2.3831
		c1.1215,0.9814,1.9626,2.243,2.5233,3.6448s0.8412,2.8037,0.8412,4.3457l-11.2148,0 M460.7873,90.2781
		c0-1.5421,0.2803-2.8037,0.8412-4.2055c0.5608-1.4018,1.4019-2.6634,2.3831-3.6448c0.9813-1.1215,2.243-1.9627,3.6448-2.5234
		c1.4019-0.5608,2.8037-0.8411,4.3458-0.8411v11.2148 M436.9557,90.2781c0-1.5421-0.2803-2.8037-0.8412-4.2055
		c-0.5607-1.4018-1.4019-2.6634-2.3831-3.6448c-0.9812-1.1215-2.243-1.9627-3.6448-2.5233
		c-1.4019-0.5608-2.8037-0.8411-4.3458-0.8411v11.2148 M435.5539,146.3525c0-1.5421,0.2803-2.8037,0.8412-4.2056
		s1.4019-2.6634,2.3831-3.6448c0.9813-1.1215,2.243-1.9627,3.6448-2.5233c1.4019-0.5608,2.8037-0.8412,4.3458-0.8412v11.2148"/>
</g>
<g>
	<path fill="none" stroke="#565440" d="M409.6195,30.6993v2.1028l-78.5039,0v-2.1028L409.6195,30.6993z"/>
	<g>
		<rect x="380.8814" y="29.9984" fill="#565440" width="9.813" height="7.0093"/>
		<polygon fill="#565440" points="364.0591,39.8114 364.0591,90.2781 365.461,90.2781 365.461,38.4095 361.2555,38.4095
			361.2555,29.9984 351.4425,29.9984 351.4425,39.8114 		"/>
		<polygon fill="#565440" points="342.2758,147.7542 342.2758,138.2181 340.8546,138.2182 340.8546,147.7542 314.9943,147.7542
			314.9942,39.8114 331.8165,39.8114 331.8165,29.9984 310.7887,29.9984 310.7887,39.8114 310.7887,151.9599 348.4124,151.9599
			348.4124,147.7542 		"/>
		<polygon fill="#565440" points="413.1241,29.9984 408.9185,29.9984 408.9186,111.306 375.274,111.3061 375.274,104.2967
			375.274,102.8949 365.461,102.8949 365.461,101.4931 364.0592,101.4931 364.0592,112.7079 365.461,112.7079 365.461,104.2967
			373.8722,104.2967 373.8722,115.5116 375.274,115.5116 375.274,112.7079 408.9186,112.7079 408.9186,147.7542 375.274,147.7542
			375.274,126.7264 373.8722,126.7264 373.8722,147.7542 362.4311,147.7542 362.4311,151.9599 413.1241,151.9598 		"/>
	</g>
	<path fill="none" stroke="#565440" d="M365.461,90.2781c1.5421,0,2.8037,0.2805,4.2055,0.8411
		c1.4019,0.5607,2.6636,1.4018,3.6448,2.3831c1.1215,0.9814,1.9626,2.243,2.5233,3.6448c0.5607,1.4018,0.8412,2.8037,0.8412,4.3457
		H365.461 M375.274,126.7264c1.5421,0,2.8037-0.2805,4.2056-0.8411c1.4019-0.5607,2.6636-1.4018,3.6448-2.3831
		c1.1215-0.9814,1.9626-2.243,2.5233-3.6448c0.5607-1.4018,0.8412-2.8037,0.8412-4.3457h-11.2148 M362.4311,151.9599
		c0,1.8224-0.4206,3.5046-1.1215,5.1869c-0.7009,1.6823-1.6822,3.3645-3.084,4.6261c-1.2617,1.2617-2.8037,2.3831-4.486,3.0842
		c-1.6822,0.7009-3.5046,1.1215-5.327,1.1215V151.96"/>
</g>
<g>
	<path fill="none" stroke="#565440" d="M313.5924,30.6993v2.1028l-70.7938,0v-2.1028L313.5924,30.6993z"/>
	<g>
		<polygon fill="#565440" points="264.5273,37.0077 264.5273,90.2782 265.9293,90.2782 265.9293,37.0077 272.9386,37.0077
			272.9386,29.9984 263.1255,29.9984 263.1255,37.0077 		"/>
		<polygon fill="#565440" points="314.9942,29.9984 292.5646,29.9984 292.5646,39.8114 310.7887,39.8114 310.7887,111.3061
			275.7423,111.3061 275.7423,102.8949 265.9293,102.8949 265.9293,101.4931 264.5273,101.4931 264.5273,112.7079
			265.9293,112.7079 265.9293,104.2968 274.3405,104.2968 274.3405,115.5116 275.7423,115.5116 275.7423,112.7079
			310.7887,112.7079 310.7887,147.7542 275.7423,147.7542 275.7423,126.7264 274.3405,126.7264 274.3405,147.7542
			264.5273,147.7542 264.5273,151.9599 314.9943,151.9599 		"/>
		<polygon fill="#565440" points="242.7482,147.7542 242.7482,138.2233 241.3463,138.2233 241.3463,147.7542 218.2662,147.7542
			218.2662,39.8114 243.4996,39.8114 243.4996,29.9984 214.0606,29.9984 214.0606,151.9599 250.5089,151.9599 250.5089,147.7542
			"/>
	</g>
	<path fill="none" stroke="#565440" d="M265.9293,90.2782c1.5421,0,2.8037,0.2805,4.2055,0.8411s2.6636,1.4018,3.6448,2.3831
		c1.1215,0.9814,1.9627,2.243,2.5233,3.6448c0.5607,1.4018,0.8412,2.8037,0.8412,4.3457h-11.2148 M275.7423,126.7264
		c1.5421,0,2.8037-0.2805,4.2056-0.8411c1.4019-0.5607,2.6634-1.4018,3.6448-2.3831c1.1215-0.9814,1.9627-2.243,2.5233-3.6448
		c0.5608-1.4018,0.8412-2.8037,0.8412-4.3457l-11.2148,0 M264.5275,151.9599c0,1.8224-0.4206,3.5046-1.1215,5.1869
		c-0.7009,1.6823-1.6823,3.3645-3.0842,4.6261c-1.2617,1.2617-2.8037,2.3831-4.486,3.0842
		c-1.6823,0.7009-3.5046,1.1215-5.327,1.1215V151.96"/>
</g>
<g >
	<rect x="355" y="-0.0001" fill="none" width="10" height="10"/>
	<rect x="34.0491" y="235" fill="none" width="10" height="10"/>
	<rect x="355" y="469.9999" fill="none" width="10" height="10"/>
	<rect x="676.3089" y="235" fill="none" width="10" height="10"/>
</g>
<g >
	<path data-nr="2" class="plan__svg__hoverable" fill="none" d="M218.2663,151.9599l-0.0001-121.9615h-4.2056h-9.813v0.2008h-21.0278v-0.2008h-9.8129
		v0.2008h-19.626v-0.2008l-39.2521,0.0001v0.2007h-19.626v-0.2007h-9.8129v0.2007H64.2627l0.0001,32.0419H64.062v9.813v29.4391
		h0.201l0.0001,19.626h-0.201l0.0001,30.8408h1.2011h8.6118h142.6484v-0.0001H218.2663z M65.2627,31.1992h0.0005v31.0419h-0.0004
		L65.2627,31.1992z"/>
	<polygon data-nr="1" class="plan__svg__hoverable" fill="none" points="264.5273,184.2026 257.5182,184.2026 218.2663,184.2026 218.2663,174.3895
		214.0606,174.3895 195.8365,174.3895 195.8365,167.3803 195.8365,153.3618 195.8365,151.9599 195.8365,149.7239 195.8365,147.7542
		64.062,147.7543 64.0621,151.96 64.0621,160.3711 64.2632,160.3711 64.2632,181.3989 64.0621,181.3989 64.0621,210.8378
		64.0621,220.6508 64.2632,220.6508 64.2632,254.0947 85.0899,254.0947 85.0899,254.2955 94.9028,254.2955 94.9028,254.0947
		121.5381,254.0947 121.5381,254.2954 160.7902,254.2953 160.7902,254.0947 174.8087,254.0947 174.8087,254.2954 184.6217,254.2954
		184.6217,254.0947 204.2476,254.0947 204.2476,254.2953 264.5274,254.2953 264.5274,244.4824 	"/>
	<path data-nr="10" class="plan__svg__hoverable" fill="none" d="M322.5039,328.0938c0-1.7891-0.4014-3.6982-1.1602-5.5195
		c-0.6802-1.6328-1.7842-3.2393-3.1738-4.6289c-1.1553-1.2832-2.7725-2.3633-4.8057-3.2109
		c-1.802-0.7505-3.6103-1.1342-5.3792-1.153v-2.2225v-7.9986v-7.0092H191.631v7.0092v7.4502l-0.8412,3.4843l1.3472,0.3024
		l-5.0341,21.8159l0.2225,0.0446l-0.7412,3.0706l5.0467,1.1329v18.7734h2.0654l-7.9943,34.8751l0.1571,0.0314l-0.6767,2.8035
		l6.4485,1.4477v16.9166h0.198l-5.418,27.1953l1.4648,0.208l26.0077,5.8856l-0.0484,0.2156l4.0654,0.9813l1.4478-6.4485h18.6209
		l23.7612,6.1737l0.0449-0.1726l1.8534,0.4474l1.4477-6.4485h15.312l3.4847,0.8409l0.0558-0.2484l21.5237,5.5919l0.0261-0.1003
		l1.5251,0.3681l0.9813-4.0654v-2.6673V333.2791v-4.6854h14.5189V328.0938z M307.985,327.5938v-13.0123
		c1.6365,0.0189,3.3153,0.3762,4.9944,1.0767c1.8955,0.7891,3.3921,1.7842,4.4653,2.9756c1.3164,1.3164,2.3452,2.8115,2.9761,4.3252
		c0.6377,1.5313,1.0049,3.1221,1.0718,4.6348H307.985z"/>
	<path data-nr="9" class="plan__svg__hoverable" fill="none" d="M406.115,335.603h-4.2056h-28.6639h-4.4841c-0.0087-1.7682-0.3846-3.5289-1.1559-5.3793
		c-0.8477-2.0332-1.9277-3.6494-3.1924-4.7871c-1.4082-1.4082-3.0146-2.5117-4.6475-3.1924c-1.8213-0.7588-3.73-1.1602-5.519-1.1602
		h-0.5v14.519h-1.3171h-0.0001l-44.4443,0.0001h-4.2055v109.9296l-0.8412,3.4845l4.0654,0.9812l0.9813-4.0654v-2.3868h22.0355
		l23.7466,6.1698l0.0263-0.1014l1.5744,0.3801l1.4477-6.4485h2.5527v0.001h11.4434l4.8599,1.1217l0.1434-0.6389l21.9274,5.6968
		l0.1241-0.4776l3.0884,0.7455l1.4477-6.4485h3.7127L406.115,335.603z M359.3809,323.168c1.5132,0.6299,3.0088,1.6592,4.3438,2.9932
		c1.1729,1.0557,2.168,2.5518,2.957,4.4473c0.7194,1.7262,1.0709,3.361,1.0797,4.9946h-13.0147v-13.5082
		C356.2588,322.1621,357.8501,322.5293,359.3809,323.168z"/>
	<path data-nr="8" class="plan__svg__hoverable" fill="none" d="M504.2449,433.7328v-98.1299l-37.3503,0.0001v-14.519h-0.5
		c-1.7891,0-3.6973,0.4014-5.5186,1.1602c-1.6328,0.6807-3.2393,1.7842-4.6279,3.1738c-1.2852,1.1563-2.3662,2.7734-3.2119,4.8057
		c-0.7524,1.8066-1.1367,3.6154-1.1537,5.3793h-1.0787h-48.8943l0.0001,107.943l16.2339-0.0053v-0.0048h3.3978v-0.0229
		l23.8544,6.1979l0.1229-0.4738l1.3733,0.3315l1.3531-6.0281h13.3949l4.8599,1.1215l0.1776-0.791l22.6529,5.8546l0.1133-0.4359
		l2.8969,0.6993l1.4477-6.4484l10.4569,0.0054v-0.0054h0.0049v-9.8077H504.2449z M453.96,330.6084
		c0.7881-1.8945,1.7832-3.3906,2.9756-4.4648c1.3164-1.3164,2.8115-2.3457,4.3252-2.9756c1.5303-0.6387,3.1221-1.0059,4.6338-1.0732
		v13.5082h-13.012C452.8995,333.9715,453.2574,332.2927,453.96,330.6084z"/>
	<polygon data-nr="7" class="plan__svg__hoverable" fill="none" points="655.5052,410.1816 648.6361,408.6205 648.6361,395.8826 648.6361,374.627
		648.9685,368.4789 654.8447,342.7832 654.6699,342.7482 654.8043,342.1917 648.636,340.7402 648.636,339.8084 648.636,335.6029
		598.8528,335.6029 519.6653,335.6029 505.6467,335.6029 504.2449,335.6029 504.0307,335.6029 504.0307,335.6029 500.0394,335.603
		500.0394,443.546 504.2449,443.546 512.539,443.546 537.8584,449.334 537.86,449.3259 538.8871,449.5738 540.2402,443.5459
		553.1749,443.5459 558.0348,444.6674 558.1746,444.0449 579.6192,448.9461 582.2198,449.5738 583.5731,443.5459 602.4355,443.5459
		602.4355,443.7656 629.2344,443.7656 647.0479,447.7871 655.1182,413.1973 654.8459,413.1189 	"/>
	<polygon data-nr="6" class="plan__svg__hoverable" fill="none" points="652.8766,305.5789 647.2343,304.2768 647.2342,265.7905 649.4772,260.183
		649.0313,260.0079 656.2959,232.7676 627.6082,232.7676 627.6082,231.8656 626.2062,231.8656 626.2062,227.66 622.0007,227.66
		622.0007,231.8656 605.1785,231.8656 605.1785,227.66 600.973,227.66 600.973,231.8656 584.1506,231.8656 584.1506,227.66
		579.945,227.66 579.945,231.8656 561.7209,231.8656 561.7209,227.66 557.5154,227.66 557.5154,231.8656 557.5154,232.7676
		540.6931,232.7676 540.6931,227.66 536.4875,227.66 536.4875,232.7676 519.6654,232.7676 519.6654,227.6603 515.4599,227.6603
		515.4599,231.8658 497.2358,231.8658 497.2358,227.6603 493.0302,227.6603 493.0302,231.8658 456.582,231.8655 456.582,303.3605
		498.6375,303.3605 498.6375,307.566 498.6375,311.7715 521.0671,311.7715 521.0671,318.7808 521.0671,332.7991 521.0671,334.0613
		521.0671,335.6029 521.0671,339.8084 648.636,339.8084 648.636,335.6029 648.636,333.434 654.9688,305.9961 	"/>
	<path data-nr="5" class="plan__svg__hoverable" fill="none" d="M529.4783,151.9598h-0.1995l-0.0002-21.0278h0.1996v-9.813V91.6801h-0.2001
		l-0.0002-19.6261h0.2004v-9.813h-0.2005l-0.0004-32.0417h-20.827v-0.2009h-9.813v0.2009h-19.626v-0.2009h-9.8131v0.2009h-19.626
		v-0.2009h-9.813v0.2009h-19.626v-0.2009h-7.0093h-4.2055l0.0001,127.532h-14.5182v0.5c0,1.7905,0.4014,3.6992,1.1592,5.519
		c0.6807,1.6323,1.7842,3.2397,3.1738,4.6284c1.1553,1.2832,2.7725,2.3638,4.8057,3.2109c1.9003,0.7914,3.6102,1.1602,5.3796,1.1602
		v17.261h4.2055h95.3263v-0.201h20.8289l-0.0004-27.8361h0.1993V151.9598z M399.459,167.4898
		c-1.3164-1.3164-2.3457-2.812-2.9756-4.3252c-0.6377-1.5298-1.0049-3.1211-1.0723-4.6343h13.5078v13.0186
		c-1.6338,0-3.2207-0.3442-4.9951-1.083C402.0283,169.6759,400.5322,168.6812,399.459,167.4898z"/>
	<path data-nr="4" class="plan__svg__hoverable" fill="none" d="M413.1241,151.9598l-0.0001-121.9615h-4.2055v0.2009h-18.2241v-0.2009h-9.813v0.2009
		h-19.626v-0.2009h-9.813v0.2009h-19.626v-0.2009l-21.0278,0.0001v9.813l0.0001,112.1484h1.3892v0.0001h35.7347v14.5186h0.5
		c1.79,0,3.6987-0.4014,5.5195-1.1602c1.6323-0.6802,3.2393-1.7842,4.6279-3.1738c1.2837-1.1553,2.3643-2.772,3.2114-4.8052
		c0.791-1.8984,1.1592-3.6079,1.1592-5.3794h24.8469l0.0009-0.0001h21.1402H413.1241z M360.8481,156.9546
		c-0.7896,1.895-1.7842,3.3911-2.9761,4.4648c-1.3164,1.3164-2.812,2.3452-4.3247,2.9761
		c-1.5303,0.6377-3.1221,1.0049-4.6348,1.0718V151.96h13.0181C361.9307,153.5952,361.5869,155.1821,360.8481,156.9546z"/>
	<path data-nr="3" class="plan__svg__hoverable" fill="none" d="M314.9943,151.9598l-0.0001-121.9614h-4.2055h-18.2241v0.2008h-19.6259v-0.2008
		h-9.8132v0.2008h-19.6259v-0.2008h-29.439v9.813v112.1485h2.6694v0.0001h33.2787v14.5186h0.5c1.79,0,3.6987-0.4014,5.5195-1.1602
		c1.6323-0.6802,3.2393-1.7842,4.6279-3.1738c1.2832-1.1553,2.3638-2.772,3.2114-4.8052c0.791-1.8999,1.1597-3.6089,1.1597-5.3794
		h40.7825l0.0002-0.0001h4.9788H314.9943z M262.9448,156.9546c-0.79,1.8955-1.7852,3.3916-2.9766,4.4648
		c-1.3164,1.3164-2.812,2.3452-4.3247,2.9761c-1.5303,0.6377-3.1221,1.0049-4.6348,1.0718V151.96h13.0186
		C264.0273,153.5938,263.6831,155.1812,262.9448,156.9546z"/>
</g>
</svg>
