<!-- DO NOT EDIT THIS, THIS FILE IS GENERATED FROM "2_7-12.original.svg" using transform-svgs.js script -->



<svg version="1.1" 
	 xmlns="http://www.w3.org/2000/svg" xmlns:xlink="http://www.w3.org/1999/xlink" x="0px" y="0px" viewBox="0 0 720 480"
	 style="enable-background:new 0 0 720 480;" xml:space="preserve">


<g>
	<polygon fill="#DBD4CA" points="263.8267212,449.2934265 265.2285156,442.9850159 281.2193298,442.6882629
		304.9200134,449.5199585 307.2841492,444.3869934 307.2841492,442.9851685 327.611145,442.9851685 353.5454102,449.293396
		356.3490601,442.9849854 371.7695313,442.9849854 399.8065796,449.2933655 402.610321,442.9849548 419.3597717,442.9849548
		442.8797913,448.5214539 448.0305176,442.9849548 465.2233582,442.9849548 488.8800659,448.7768555 493.7310181,442.9849243
		500.7402954,442.9849243 500.7402954,442.9851074 512.6560059,442.9851074 537.8895264,448.5924683 539.2913208,442.9850769
		554.711792,442.9850769 580.6461792,448.5924377 582.0479736,442.9850769 629.2905273,442.9850464 646.5333862,447.1905212
		654.944458,410.7422791 647.9351807,409.3404541 647.9351807,370.0884705 654.2435913,342.7522888 647.9351807,341.3504639
		647.9351807,336.4439697 647.9351807,333.6403198 653.5426025,308.4068298 646.5333252,304.201355 646.5333252,266.2926331
		655.5030518,233.2674408 478.21521,233.4151001 478.21521,189.109024 528.7793579,189.1090088 528.5782471,30.6992741
		380.8814697,30.6993217 380.8814697,30.8395119 312.8914795,30.8395348 64.7629547,30.8396168 64.7627792,30.839529
		64.7629547,30.8397884 64.7630234,253.734726 64.7630234,253.7348175 236.3503571,253.7347565 236.350174,253.7344971
		236.350174,253.7344208 236.3503571,253.7346802 237.0511322,252.759201 237.0511322,254.192276 238.7935333,254.192276
		238.7935486,296.5317383 237.0511475,296.5317383 237.0511475,297.1921082 192.3319855,297.1921387 193.0329437,314.71521
		187.4254913,339.2477722 192.3320923,340.6495667 194.0142059,359.4345398 186.3041534,395.1689148 192.332016,398.8267212
		192.3320313,412.7051086 186.5844727,442.5646362 217.5655365,449.2934265 218.9673462,442.9850159 236.4905243,442.9850159 	"/>
	<g>
		<rect x="237.8924103" y="253.7346802" fill="#565440" width="4.2055054" height="42.7566528"/>
		<rect x="456.5820007" y="188.6809845" fill="#565440" width="4.2052307" height="44.9355927"/>
		<rect x="477.6094971" y="188.6809845" fill="#565440" width="1.4021301" height="44.9355927"/>
	</g>
</g>
<g>
	<path fill="none" stroke="#565440" d="M216.0232086,32.8020897v-2.1027565L64.7629089,30.6993828l0.0000381,117.7559662h2.1027374
		L66.8656464,32.8021584l149.1575623-0.0000496V32.8020897z"/>
	<g>
		<polygon fill="#565440" points="218.2662201,29.9984131 204.2475586,29.9984245 204.2475739,38.4025154 214.0605774,38.4025116
			214.0606232,147.7542267 211.2569275,147.7542267 211.2569275,151.9598999 218.2662659,151.9598846 		"/>
		<rect x="173.4068298" y="29.9984341" fill="#565440" width="9.812973" height="7.009306"/>
		<polygon fill="#565440" points="134.1548615,87.4745026 134.1548615,88.8763733 142.5660095,88.8763657 142.5659943,38.4025345
			153.780838,38.4025307 153.780838,29.9984417 114.5287247,29.998455 114.5287323,38.4025421 141.1640472,38.4025345
			141.1640625,87.4745026 		"/>
		<polygon fill="#565440" points="117.3325653,88.8763733 117.3325653,91.680191 118.7344284,91.680191 118.7344284,88.8763733
			122.9398956,88.8763733 122.9398956,87.4745102 71.0713425,87.4745255 71.0713425,72.0540924 72.4661102,72.0540924
			72.4661102,62.2411156 64.0620117,62.2411194 64.0620193,101.493187 71.0713501,101.4931793 71.0713425,88.8763885 		"/>
		<rect x="85.0898132" y="29.9984417" fill="#565440" width="9.812973" height="8.4041004"/>
		<polygon fill="#565440" points="184.6216583,147.7542267 184.6216431,123.9227753 183.2198334,123.9227753 183.2198334,147.7542267
			155.1826935,147.7542419 155.1826782,105.6986618 183.2198181,105.6986542 183.2198181,112.7079391 184.6216431,112.7079391
			184.6216431,104.2967911 118.734436,104.296814 118.734436,102.894989 117.3325653,102.894989 117.3325729,105.6986771
			127.1455841,105.6986694 127.1455917,122.5209732 128.5474091,122.5209732 128.5474091,105.6986694 153.7808533,105.6986618
			153.7808685,147.7542419 128.5474243,147.7542572 128.5474243,133.7357635 127.1455917,133.7357635 127.1455994,147.7542572
			72.4661102,147.7542725 72.4661026,121.1191254 64.062027,121.1191254 64.0620422,151.9599609 197.2383118,151.9599152
			197.2383118,147.7542267 		"/>
	</g>
	<path fill="none" stroke="#565440" d="M122.9400711,87.4745102c0-1.5420609,0.2803345-2.803688,0.8411407-4.2056427
		c0.5606766-1.401825,1.401825-2.663414,2.3830719-3.6448364c0.9813766-1.1214828,2.2430038-1.9626694,3.6448288-2.5233459
		s2.8036957-0.8411484,4.3457489-0.8411484v11.2148361 M117.3325653,102.894989
		c-1.5420532,0-2.803688-0.2803421-4.2056351-0.8411407c-1.4019547-0.5608063-2.663414-1.401825-3.6448364-2.3830719
		c-1.1214828-0.9813843-1.9626694-2.2430115-2.5233459-3.6448364c-0.5608139-1.401825-0.8411484-2.803688-0.8411484-4.3457413
		l11.2148361-0.0000076 M127.1455917,122.5209732c-1.5420609,0-2.803688,0.2803421-4.205513,0.8411484
		c-1.4018173,0.5606766-2.6635818,1.401825-3.6448288,2.3830719c-1.1214828,0.9813766-1.9626694,2.2430115-2.5233459,3.6448364
		c-0.5606842,1.401825-0.8411484,2.8036804-0.8411484,4.3457489l11.2148361-0.0000153 M183.2198334,123.9227753
		c-1.5420685,0-2.8036957-0.2803345-4.2055206-0.8411407s-2.6635742-1.401825-3.6448364-2.3832474
		c-1.1214752-0.9812469-1.9626617-2.2430038-2.5233459-3.6448288s-0.8411407-2.803688-0.8411407-4.3457413l11.2148285-0.0000076
		 M197.2384491,147.7542267c0-1.8223877,0.4205627-3.5045929,1.1214752-5.1868896
		c0.7009125-1.6823273,1.6821594-3.3643646,3.0840302-4.6260834c1.2617188-1.2617188,2.8036804-2.3830719,4.4859772-3.0841522
		c1.6823273-0.7009125,3.5045929-1.1214905,5.3269958-1.1214905v14.0186157"/>
</g>
<g>
	<path fill="none" stroke="#565440" d="M66.865715,251.4917603l-0.0000305-101.4943085h-2.1027374l0.0000381,103.5970917
		l140.1856079-0.0000458v-2.1027374L66.865715,251.491806V251.4917603z"/>
	<g>
		<polygon fill="#565440" points="71.0713882,210.8378296 71.0713806,198.2211761 132.7529449,198.2211456 132.7529449,196.8193359
			128.5474396,196.8193359 128.5474396,194.0156403 127.1456146,194.0156403 127.1456146,196.8193359 71.0713806,196.8193512
			71.071373,181.3988647 64.0620499,181.39888 64.0620575,220.6508026 72.4661102,220.6508026 72.4661102,210.8378296 		"/>
		<rect x="85.0898819" y="245.8913574" fill="#565440" width="9.812973" height="8.4040985"/>
		<rect x="174.8087158" y="247.286087" fill="#565440" width="9.812973" height="7.0093231"/>
		<polygon fill="#565440" points="160.7902222,196.8193207 143.9679108,196.8193207 143.9679108,198.2211456 159.3882294,198.2211456
			159.3882294,215.0434418 127.1456223,215.043457 127.1456223,217.8471375 128.5474396,217.8471375 128.5474396,216.4453125
			159.3882294,216.4453125 159.3882446,245.8913574 150.9770813,245.8913574 150.9770813,247.2861023 128.5474548,247.2861023
			128.5474548,229.0619354 127.1456223,229.0619354 127.1456299,247.2861023 121.5381241,247.2861023 121.5381317,254.2953949
			160.7902374,254.2953796 		"/>
		<polygon fill="#565440" points="264.5273438,184.2026215 218.2662659,184.2026367 218.2662659,174.3895416 195.8364563,174.3895416
			195.8364563,167.3803406 191.6309967,167.3803558 191.6309967,188.4081573 193.0328217,188.4081573 193.0328217,178.5951843
			214.0606232,178.5951843 214.0606232,188.4081573 235.0884399,188.4081421 235.0884552,229.0619049 225.2754364,229.0619049
			225.2754364,231.8657227 226.6773071,231.8657227 226.6773071,230.4637756 235.0884552,230.4637604 236.4904022,230.4637604
			236.4904022,212.2395935 237.8922272,212.2395935 237.8922272,210.8377838 236.4904022,210.8377838 236.490387,188.4081421
			257.518219,188.4081421 257.518219,210.8377686 249.1070557,210.8377686 249.1070557,212.2395935 257.518219,212.2395935
			257.518219,245.8913574 226.6773071,245.8913574 226.6773071,243.0805664 225.2754364,243.0805664 225.2754517,245.8913574
			204.2476349,245.8913727 204.2476349,254.2953644 264.5273743,254.2953491 		"/>
		<polygon fill="#565440" points="127.1455994,151.9599304 127.145607,182.8007202 128.5474396,182.8007202 128.5474243,178.5952148
			141.164093,178.5951996 141.164093,177.1933441 128.5474243,177.1933441 128.5474243,151.9599304 163.5938416,151.9599304
			163.5938568,177.1933289 152.3790588,177.1933289 152.3790588,178.5951996 164.9956818,178.5951996 164.9956818,177.1933289
			164.9956665,151.9599152 191.6309814,151.9599152 191.6309814,153.3617401 195.8364563,153.3617401 195.8364563,147.7542267
			64.0620346,147.7542725 64.0620422,160.371109 72.4661179,160.371109 72.4661102,151.9599457 		"/>
	</g>
	<path fill="none" stroke="#565440" d="M152.3790588,178.5951996c0,1.5420532-0.2803345,2.8036957-0.8411407,4.2056427
		c-0.5608063,1.401825-1.401825,2.6634064-2.3832397,3.6448364c-0.9812622,1.1214752-2.2430115,1.9626617-3.6448364,2.5233459
		s-2.8036957,0.8411407-4.3457489,0.8411407v-11.2148285 M132.7530823,198.2211456
		c0,1.5420685,0.2803345,2.8036957,0.8411407,4.2056427c0.5606842,1.401825,1.401825,2.6634064,2.3830719,3.6448364
		c0.9812469,1.1214752,2.2430115,1.962677,3.6448364,2.5233459c1.401825,0.5606842,2.8036957,0.8411407,4.3457489,0.8411407
		V198.221283 M127.145607,182.8007202c-1.5420532,0-2.8036804,0.2803345-4.2055054,0.8411407
		s-2.6635818,1.401825-3.6448364,2.383255c-1.1214828,0.9812469-1.9626694,2.2430115-2.5233459,3.6448364
		c-0.5606766,1.4018097-0.8411407,2.8036804-0.8411407,4.3457336h11.2148361 M128.5474548,229.0619354
		c1.5420532,0,2.8036804-0.2803345,4.2055054-0.8411407s2.6635742-1.401825,3.6448364-2.3830719
		c1.1214752-0.9813843,1.9626617-2.2430115,2.5233459-3.6448364c0.5608063-1.401825,0.8411407-2.8036957,0.8411407-4.3457489
		h-11.2148438 M225.2756195,231.8657227c-1.5420685,0-2.8036957,0.2803345-4.2055206,0.8411407
		s-2.6634064,1.401825-3.6448364,2.383255c-1.1214752,0.9812469-1.9626617,2.2430115-2.5233459,3.6448364
		c-0.5608063,1.4018097-0.8411407,2.8036804-0.8411407,4.3457336h11.2148438 M249.1070557,212.2395935
		c0,1.5420532-0.2803345,2.8036957-0.8411407,4.2055206c-0.5606689,1.4018097-1.401825,2.6635742-2.3830719,3.6448212
		c-0.981369,1.1214905-2.2430115,1.962677-3.6448212,2.5233612c-1.401825,0.5606689-2.8036957,0.8411407-4.3457489,0.8411407
		v-11.2148438 M191.6309967,167.3803558c-1.822403,0-3.5046082-0.420578-5.1868896-1.1214905
		c-1.6823425-0.7009125-3.364502-1.6823273-4.6260834-3.0841522c-1.2615967-1.2617188-2.3830872-2.8036957-3.0840302-4.4859772
		c-0.7009125-1.6823273-1.1214905-3.5045929-1.1214905-5.3269958h14.0186157"/>
</g>
<g>
	<g>
		<path fill="none" stroke="#565440" d="M194.8552551,314.5752869l-5.0466461,21.8689575l-2.1027374-0.4205627l5.0466461-21.8689575
			L194.8552551,314.5752869z"/>
		<path fill="none" stroke="#565440" d="M196.5374756,358.8738708l-8.1306763,35.4668579l-2.1027222-0.4205627l8.130661-35.46698
			L196.5374756,358.8738708z"/>
		<polygon fill="none" stroke="#565440" points="214.621521,448.4524536 215.1822052,446.3497009 189.5283051,440.6019592 196.1170502,406.8172913
			194.1543732,406.3967285 187.0049896,442.2843323 187.9862518,442.4244385 		"/>

			<rect x="248.3705139" y="432.297699" transform="matrix(0.2514893 -0.9678601 0.9678601 0.2514893 -243.9260864 574.4312134)" fill="none" stroke="#565440" stroke-width="1.0000414" stroke-miterlimit="4.0001655" width="2.0998993" height="25.243927"/>

			<rect x="293.1773071" y="433.7123413" transform="matrix(0.2514893 -0.9678601 0.9678601 0.2514893 -210.6715088 618.017395)" fill="none" stroke="#565440" stroke-width="1.0000414" stroke-miterlimit="4.0001655" width="2.099884" height="23.0010376"/>
	</g>
	<g>
		<polygon fill="#565440" points="307.9850159,296.3510742 191.6310272,296.3511047 191.6310425,310.8104858 190.789856,314.2947693
			197.6589508,315.8368835 198.6403198,311.7714539 198.6403198,303.360321 303.7795105,303.3602905 303.7795105,314.0759583
			307.9850159,314.0759583 		"/>
		<polygon fill="#565440" points="194.4346924,337.0049133 187.5656433,335.4629822 186.5843506,339.5282288 191.6310425,340.6611633
			191.6310577,359.4345398 200.0222473,359.4345398 200.0222321,337.0049133 		"/>
		<polygon fill="#565440" points="192.4081421,394.4809875 186.1637878,393.0791626 185.1825409,397.1445618 191.631073,398.5922241
			191.631073,415.5087891 200.0222473,415.5087891 200.0222321,394.480957 		"/>
		<polygon fill="#565440" points="238.8379059,443.546051 238.8378906,435.1317139 215.2372131,435.1317139 215.2372284,442.7687988
			213.8352356,449.0132446 217.9006348,449.9945679 219.3483582,443.546051 		"/>
		<polygon fill="#565440" points="283.8731079,444.3869934 285.4153137,437.5179749 281.3499146,436.5692749 281.3499146,436.5366516
			260.9651489,436.5366516 260.9651489,442.7687683 259.563324,449.0132141 263.6287231,449.9945374 265.076416,443.5460205
			280.3883972,443.5460205 		"/>
		<polygon fill="#565440" points="251.9107971,373.4531555 196.8179474,373.4531555 193.0328827,372.61203 192.7524109,374.0139771
			196.5374756,374.8549805 250.5089417,374.8549805 250.5089417,376.2568359 251.9107971,376.2568359 		"/>
		<polygon fill="#565440" points="268.7330933,384.6679688 267.3312378,384.6679688 267.3312378,395.882782 264.5274353,395.882782
			264.5274353,397.2846375 268.7331238,397.2846375 268.7330933,388.8734741 303.779541,388.8734741 303.779541,445.5326233
			302.9383545,449.0170898 307.0037842,449.9983215 307.9850464,445.9328613 307.9850159,328.0932617 303.7795105,328.0932617
			303.7795105,331.3973694 292.3472595,331.3973694 292.3472595,332.7992554 303.7795105,332.7992554 303.7795105,360.8364563
			268.7330933,360.8364868 268.7330933,332.7992554 281.1934814,332.7992554 281.1934814,331.3973694 267.3312378,331.3973999
			267.3312378,373.453125 268.7330933,373.453125 268.7330933,362.2383423 303.7795105,362.2383423 303.779541,387.4716187
			268.7330933,387.4716187 		"/>
		<polygon fill="#565440" points="249.6679382,443.8263245 251.069809,444.10672 251.9108276,440.742218 251.9108124,397.2846375
			253.3126373,397.2846375 253.3126373,395.882782 251.9108124,395.882782 251.9108124,387.4716187 250.5089417,387.4716187
			250.5089569,440.4618225 		"/>
	</g>
	<path fill="none" stroke="#565440" d="M250.5089417,387.4716187c-1.5420532,0-2.8036957-0.2803345-4.2055054-0.8411255
		c-1.401825-0.5608215-2.6634216-1.401825-3.6448364-2.3830872c-1.1214905-0.9813843-1.962677-2.2430115-2.5233459-3.6448364
		c-0.5608215-1.401825-0.841156-2.8036804-0.841156-4.3457336h11.2148438 M268.7330933,373.453125
		c1.5420532,0,2.8037109,0.280365,4.2055054,0.841156c1.401825,0.5608215,2.6634216,1.401825,3.6448364,2.3830872
		c1.1214905,0.9813538,1.962677,2.242981,2.5233765,3.6448059c0.560791,1.401825,0.8411255,2.8037109,0.8411255,4.3457642
		h-11.2148438 M281.1934814,332.7992554c0,1.5420532,0.2803345,2.8036804,0.8411255,4.2055054
		c0.5608215,1.401825,1.401825,2.6635742,2.3832397,3.6448364c0.9812622,1.1214905,2.2430115,1.962677,3.6448364,2.5233459
		s2.8036804,0.841156,4.3457642,0.841156v-11.2148438 M264.5275879,397.2846375
		c0,1.5420532-0.2803345,2.8036804-0.8411255,4.2055054c-0.5608215,1.401825-1.401825,2.6636047-2.3832397,3.6448364
		c-0.9812622,1.1214905-2.2430115,1.962677-3.6448364,2.5233459c-1.401825,0.5606995-2.8036957,0.841156-4.3457489,0.841156
		v-11.2148438 M307.8500061,314.074707c1.8223877,0,3.63974,0.4205322,5.3220215,1.12146
		c1.6823425,0.7009277,3.364502,1.682312,4.6260986,3.0841675c1.2617188,1.2617188,2.3830566,2.8036499,3.0841675,4.4859619
		c0.7008972,1.6821289,1.12146,3.5045776,1.12146,5.3269653h-14.1536255"/>
</g>
<g>
	<g>
		<polygon fill="#565440" points="307.9850464,443.5460205 330.4148254,443.5460205 330.4148254,435.1418762 307.9850464,435.1418762
			307.9850464,374.85495 341.6296082,374.85495 341.6296082,383.2660828 352.8444214,383.2660828 352.8444519,384.6679382
			354.2462769,384.6679382 354.2462769,374.8549194 352.8444214,374.8549194 352.8444214,381.8642578 343.0314636,381.8642578
			343.0314636,370.6494751 341.6296082,370.6494751 341.6296082,373.453125 307.9850464,373.453125 307.9850159,339.8085327
			341.6296082,339.8085022 341.6296082,359.4345093 343.0314636,359.4345093 343.0314636,339.8085022 354.2462769,339.8085022
			354.2462769,335.6029968 303.7795105,335.6030273 303.779541,445.5326233 302.9383545,449.0170898 307.0037842,449.9983215
			307.9850464,445.9328613 		"/>
		<polygon fill="#565440" points="402.4023438,443.54599 406.1150208,443.54599 406.1149902,335.6029968 368.26474,335.6029968
			368.26474,339.8085022 374.8900146,339.8085022 374.8900146,347.865509 376.2987671,347.865509 376.2987671,339.8085022
			401.9093628,339.8085022 401.9093933,435.1418762 398.4313354,435.1418762 398.4313354,442.1439819 396.8893738,449.0131836
			400.9546509,449.9945068 		"/>
		<polygon fill="#565440" points="356.8154907,443.54599 370.8115234,443.546936 375.6713867,444.6686401 377.2134705,437.79953
			371.886322,436.5378418 354.2463074,436.5366211 354.2462769,395.8827515 352.8444519,395.8827515 352.8444519,442.1440125
			351.3025208,449.0131836 355.3677979,449.9945068 		"/>
	</g>
	<path fill="none" stroke="#565440" d="M341.6296082,359.4345093c-1.5420837,0-2.8036499,0.2803345-4.2054749,0.8411255
		c-1.401825,0.5608215-2.6634216,1.401825-3.6448364,2.3832703c-1.1214905,0.9812317-1.962677,2.2430115-2.5233459,3.6448364
		c-0.5606995,1.4017944-0.841156,2.8036804-0.841156,4.3457336h11.2148132 M352.8444519,395.8827515
		c-1.5420837,0-2.8036804-0.2803345-4.205658-0.841156c-1.401825-0.560791-2.6635437-1.401825-3.6448364-2.3832397
		c-1.1214905-0.9812622-1.9626465-2.2430115-2.5233154-3.6448364s-0.8411865-2.8036804-0.8411865-4.3457336h11.2148438
		 M368.2648926,335.6652222c0-1.8224182-0.4205627-3.5669556-1.1214905-5.2492981
		c-0.7009277-1.682312-1.6821899-3.3644714-3.0840149-4.6260681c-1.2615967-1.2617188-2.8036804-2.3830872-4.4859924-3.0841675
		c-1.6821594-0.7008972-3.5045776-1.12146-5.3269958-1.12146l0.0000305,14.0808105"/>
	<g>

			<rect x="340.4065552" y="432.2937317" transform="matrix(0.2514893 -0.9678601 0.9678601 0.2514893 -175.0323486 663.5061646)" fill="none" stroke="#565440" stroke-width="1.0000414" stroke-miterlimit="4.0001655" width="2.0997314" height="25.243927"/>

			<rect x="385.4671631" y="433.7084045" transform="matrix(0.2514893 -0.9678601 0.9678601 0.2514893 -141.5878143 707.3380127)" fill="none" stroke="#565440" stroke-width="1.0000414" stroke-miterlimit="4.0001655" width="2.0997314" height="23.0010376"/>
	</g>
</g>
<g>
	<path fill="none" stroke="#565440" d="M439.7594604,359.4344788c-1.5420837,0-2.8036804,0.2803345-4.205658,0.8411255
		c-1.401825,0.5608215-2.6635437,1.401825-3.6448364,2.3832703c-1.1214905,0.9812317-1.9626465,2.2430115-2.5233154,3.6448364
		c-0.5606689,1.4017944-0.841156,2.8036804-0.841156,4.3457336h11.2148132 M450.9744263,395.8827209
		c-1.5420837,0-2.8036804-0.2803345-4.2056274-0.841156c-1.4018555-0.560791-2.6635742-1.401825-3.6448364-2.3832397
		c-1.121521-0.9812622-1.9626465-2.2430115-2.5233459-3.6448364c-0.5606689-1.401825-0.841156-2.8036804-0.841156-4.3457336
		h11.2148132 M452.3762512,335.7232971c0-1.8223877,0.4205627-3.625061,1.1214905-5.3072205
		c0.7009277-1.6823425,1.6821899-3.364502,3.0841675-4.6260986c1.2615967-1.2617188,2.8036499-2.3830566,4.4859619-3.084137
		c1.6821899-0.7009277,3.5045776-1.1214905,5.3269958-1.1214905l0.0000305,14.1390076"/>
	<g>
		<polygon fill="#565440" points="421.5411377,443.5358887 421.5411377,435.1503906 406.1148987,435.1418762 406.1148682,374.8549194
			439.7594604,374.8549194 439.7594604,383.2660522 450.9743042,383.2660522 450.9743042,384.6679077 452.3761292,384.6679077
			452.3760986,374.8548889 450.9743042,374.8548889 450.9743042,381.8642273 441.1612854,381.8642273 441.1612854,370.6494446
			439.7594604,370.6494446 439.7594604,373.4530945 406.1148682,373.4530945 406.1148682,339.8085022 439.7594299,339.8084717
			439.7594604,359.4344788 441.1612854,359.4344788 441.1612854,339.8084717 452.3760986,339.8084717 452.3760986,335.6029663
			401.9093628,335.6029968 401.9093933,443.54599 		"/>
		<polygon fill="#565440" points="500.0391846,339.8084717 500.0392151,435.1418457 489.6768494,435.1418457 489.6768494,442.7565613
			488.2745972,449.0031433 488.2758789,449.003418 488.2748718,449.0077209 492.340271,449.9890442 493.7879639,443.5406189
			504.244873,443.5459595 504.244873,443.5406189 504.2498169,443.5406189 504.2448425,335.6029358 466.3947449,335.6029663
			466.3947449,339.8084717 		"/>
		<polygon fill="#565440" points="461.63974,443.5406189 466.4996033,444.6620789 468.0416565,437.7929688 462.7146606,436.53125
			452.3761292,436.53125 452.3761292,395.8827209 450.9743042,395.8827209 450.9743042,436.53125 443.9477844,436.53125
			443.9477844,443.5406189 443.959198,443.5406189 442.8262939,448.5874023 446.8916931,449.5686646 448.2448425,443.5406189 		"/>
	</g>
	<g>

			<rect x="432.034668" y="432.2892456" transform="matrix(0.2514893 -0.9678601 0.9678601 0.2514893 -106.4433975 752.1860352)" fill="none" stroke="#565440" stroke-width="1.0000414" stroke-miterlimit="4.0001655" width="2.0997314" height="25.243927"/>
		<polygon fill="none" stroke="#565440" points="465.6594238,443.0918884 466.1875305,441.0595703 489.4997864,447.084137 488.9717102,449.1163025
			"/>
	</g>
</g>
<g>
	<path fill="none" stroke="#565440" d="M646.6734619,447.1906128l7.8503418-33.6446228l-2.2507935-0.6472168l-7.2896729,31.6819458
		l-15.6928711-3.4180603l-26.3549194,0.0000305v2.1027527h26.3549194L646.6734619,447.1906128z M537.8894653,446.6299744
		l-0.4205933,2.1027832l-26.074585-5.9608765l0.4205627-2.1028442L537.8894653,446.6299744z M581.3470459,446.6299438
		l-0.4205933,2.1027832l-24.5325317-5.6074524l0.4205933-2.1027832L581.3470459,446.6299438z M654.2435303,343.1729126
		l-6.0278931,26.3547974l-2.1027222-0.4205627l6.0278931-26.3548279L654.2435303,343.1729126z"/>
	<g>
		<polygon fill="#565440" points="535.0857544,339.8084412 535.0857544,353.8271179 536.4876099,353.8271179 536.4876099,339.8084412
			556.1135864,339.8084412 556.1135864,367.8455811 536.4876099,367.8455811 536.4876099,365.0419006 535.0857544,365.0419006
			535.0857544,369.247406 536.4876099,369.247406 582.7488403,369.247406 582.7488403,367.8455811 557.5154419,367.8455811
			557.5153809,339.8084412 595.3654785,339.8084412 595.3655396,367.8455811 593.9636841,367.8455811 593.9636841,369.247406
			595.3655396,369.247406 595.3655396,370.6493835 596.767334,370.6493835 596.767334,339.8084412 644.4304199,339.8084106
			644.428894,344.0466614 653.822998,346.2570496 654.8042603,342.1916504 648.6360474,340.7402649 648.6360474,335.6029053
			519.6652832,335.6029358 519.6652832,339.8084412 		"/>
		<polygon fill="#565440" points="553.1749268,443.545929 558.03479,444.6673889 559.5769653,437.7983704 554.2498779,436.5365601
			535.9430542,436.5365601 535.9430542,443.545929 535.9545898,443.545929 534.8217163,448.5925598 538.887085,449.5737915
			540.2402344,443.545929 		"/>
		<polygon fill="#565440" points="504.244873,435.1418762 504.2448425,339.8084717 505.6466675,339.8084717 505.6466675,335.6029358
			500.0393372,335.6029663 500.0393677,443.5459595 513.3164673,443.5459595 513.3164673,435.1418762 		"/>
		<polygon fill="#565440" points="582.2632446,395.8826599 582.2632446,394.480835 580.6777344,394.480835 580.6777344,384.6678772
			579.2758789,384.6678772 579.2873535,443.545929 578.1544189,448.5925293 582.2197876,449.5737915 583.5731201,443.545929
			604.3295898,443.545929 604.3295898,435.1418457 580.6777344,435.1418457 580.6777344,395.8826599 		"/>
		<polygon fill="#565440" points="596.767334,394.480835 596.767334,381.8641663 595.3655396,381.8641968 595.3655396,394.480835
			593.4780884,394.480835 593.4780884,395.8826599 641.62677,395.8826599 641.62677,414.1068115 641.6582642,414.1068115
			641.62677,414.2470398 653.9632568,417.0508728 655.505188,410.1816406 648.6361084,408.6205139 648.6361084,365.0418701
			644.4304199,365.0418701 644.4304199,394.480835 		"/>
	</g>
	<path fill="none" stroke="#565440" d="M536.4876099,353.8271179c1.5420532,0,2.8036499,0.2803345,4.2055054,0.8411255
		c1.4018555,0.5606689,2.6635742,1.401825,3.6448364,2.3830872c1.12146,0.9813538,1.9626465,2.2430115,2.5233154,3.6448364
		c0.5606689,1.4017944,0.8411255,2.8036804,0.8411255,4.3457336h-11.2147827 M582.7488403,367.8455811
		c0-1.5420532,0.2803345-2.8037109,0.8411865-4.2055054c0.5606689-1.401825,1.4017944-2.6634216,2.3830566-3.6448364
		c0.9812622-1.1214905,2.243042-1.962677,3.6448364-2.5233765c1.4018555-0.560791,2.8036499-0.8411255,4.3457642-0.8411255
		v11.2148438 M596.767334,370.6493835c1.5421143,0,2.8036499,0.2803345,4.2055054,0.841156
		c1.4018555,0.5606689,2.6635742,1.401825,3.6448364,2.3830566c1.12146,0.9812622,1.9626465,2.2430115,2.5233154,3.6448364
		c0.5608521,1.401825,0.8411865,2.8036804,0.8411865,4.3457336H596.767334 M593.4780884,395.8826599
		c0,1.5420532-0.2803345,2.8036804-0.8411865,4.2055054c-0.5606689,1.401825-1.4017944,2.6636047-2.3830566,3.6448364
		c-0.9812622,1.1214905-2.242981,1.962677-3.6448364,2.5233459c-1.4018555,0.5606995-2.8036499,0.841156-4.3457642,0.841156
		v-11.2148438 M519.6652832,339.8084412c0,1.8224182-0.4205322,3.5046082-1.12146,5.1868896
		c-0.7009277,1.6823425-1.6821899,3.364502-3.0841675,4.6260986c-1.2617188,1.2617188-2.8036499,2.3832397-4.4859619,3.0841675
		c-1.682312,0.7008972-3.5045776,1.12146-5.3269958,1.1214905v-14.0186157"/>
</g>
<g>
	<g>
		<path fill="none" stroke="#565440" d="M654.3647461,306.3859558l-6.2894897,27.2542725l-2.1027832-0.4205627l6.2894897-27.2542725
			L654.3647461,306.3859558z"/>
		<path fill="none" stroke="#565440" d="M558.9171753,233.2674713v2.1027374l-40.6537476,0.0000153v-2.1027374L558.9171753,233.2674713z"/>
		<polygon fill="none" stroke="#565440" points="655.6453857,233.2674408 614.4307861,233.2674561 614.4307861,235.3702393 652.8415527,235.370224
			646.3930054,260.0428772 648.3557129,260.6036377 		"/>
	</g>
	<g>
		<polygon fill="#565440" points="648.6360474,329.9954529 640.2319336,329.9954529 640.2319336,335.6029053 591.1599731,335.6029358
			591.1599731,303.360199 589.7579956,303.360199 589.7579956,307.5658264 575.739502,307.5658264 575.739502,308.9676514
			589.7579956,308.9676514 589.7580566,335.6029358 553.3097534,335.6029358 553.3097534,308.9676514 564.5247192,308.9676514
			564.5247192,307.5658264 551.9078979,307.5658264 551.9078979,335.6029358 525.2727661,335.6029358 525.2727661,332.7991638
			521.0671387,332.7991638 521.0671387,339.8084412 648.6360474,339.8084106 		"/>
		<polygon fill="#565440" points="557.5153809,240.2660217 557.5153809,289.3417053 574.3377075,289.3417053 574.3377075,287.9398499
			558.9172363,287.9398499 558.9172363,272.5194092 589.7579956,272.5194092 591.1599731,272.5194092 591.1599731,268.3137207
			589.7579956,268.3137207 589.7579956,271.1175232 558.9172363,271.1175537 558.9171753,240.2660217 589.7579956,240.2660217
			589.7579956,257.098938 591.1599731,257.098938 591.1599731,240.2660217 627.6082153,240.2660065 627.6082153,231.8655853
			626.2062378,231.8655853 626.2062378,227.6599579 622.0007324,227.6599579 622.0007324,231.8655853 605.1784668,231.8656006
			605.1784668,227.6599579 600.9729614,227.6599579 600.9729614,231.8656006 584.1506348,231.8656006 584.1506348,227.6599579
			579.9450073,227.6599731 579.9450073,231.8656006 561.7208862,231.8656158 561.7208862,227.6599731 557.5153809,227.6599731 		"/>
		<rect x="536.4875488" y="227.6599731" fill="#565440" width="4.2055054" height="9.812973"/>
		<polygon fill="#565440" points="643.0285645,259.90271 643.0285645,262.7063599 640.2319336,262.7063599 640.2319336,272.5193787
			643.0285645,272.5193787 643.0285645,287.9398193 585.5524902,287.9398499 585.5524902,289.3417053 589.7579956,289.3417053
			589.7579956,292.1453552 591.1599731,292.1453552 591.1599731,289.3417053 643.0285645,289.3416748 643.0285645,306.9851074
			642.8884888,307.5657959 653.822937,310.0891113 654.8041992,306.0237122 647.2342529,304.2767944 647.2341919,265.7905273
			649.4771729,260.183075 645.552063,258.6409607 645.0473633,259.90271 		"/>
		<polygon fill="#565440" points="525.272583,297.7528687 523.8709106,297.7528687 523.8709106,307.5658569 502.8431396,307.5658569
			502.8431396,299.1547241 483.2171631,299.1547241 483.2171631,257.0990601 491.6282959,257.0990601 491.6282959,255.6972656
			481.8153076,255.6972656 481.8153076,273.9213867 480.4134521,273.9213867 480.4134521,275.3232422 481.8153076,275.3232422
			481.8153076,299.1546631 460.7874756,299.1546631 460.7874756,275.3232422 469.1986084,275.3232422 469.1986084,273.9213867
			460.7874756,273.9213867 460.7874756,240 490.2264404,240 490.2264404,244.4824829 491.6282959,244.4824829 491.6282959,240
			519.6654053,240 519.6654053,227.6602783 515.4598999,227.6602783 515.4598999,231.8657837 497.2357788,231.8657837
			497.2357788,227.6602783 493.0301514,227.6602783 493.0301514,231.8657837 456.5820313,231.8655396 456.5820313,303.3604736
			498.6374512,303.3604736 498.6375122,311.7714844 521.0671387,311.7714844 521.0671387,318.7808228 525.272644,318.7808228
			525.272644,307.565979 		"/>
	</g>
	<path fill="none" stroke="#565440" d="M591.1599731,303.360199c1.5421143,0,2.8037109-0.280365,4.2056885-0.841156
		c1.4017944-0.5606689,2.6635742-1.401825,3.6447754-2.3830872c1.121521-0.9813843,1.9627075-2.2430115,2.5233765-3.6448364
		s0.8411255-2.8036804,0.8411255-4.3457336h-11.2147827 M585.5524902,287.9398499
		c0-1.5420532-0.2803345-2.8037109-0.8411255-4.2055359c-0.5608521-1.4017944-1.4018555-2.6635742-2.3831177-3.6448059
		c-0.9812622-1.1214905-2.242981-1.962677-3.6448364-2.5233459c-1.4017944-0.5606995-2.8036499-0.841156-4.3457031-0.841156
		v11.2148438 M564.5247192,307.5658264c0-1.5420532,0.2803345-2.8036804,0.8411255-4.2055054
		c0.5606689-1.401825,1.4018555-2.6635742,2.3831177-3.6448364c0.9812622-1.1214905,2.242981-1.962677,3.6448364-2.5233459
		c1.4017944-0.5606689,2.8036499-0.841156,4.3457031-0.841156v11.2148438 M589.7581177,257.098938
		c-1.5420532,0-2.8036499,0.2803345-4.2054443,0.8411255c-1.4018555,0.5608215-2.6635742,1.401825-3.6448364,2.3832397
		c-1.121521,0.9812622-1.9626465,2.2430115-2.5233154,3.6448364c-0.56073,1.401825-0.8411865,2.8037109-0.8411865,4.3457642
		h11.2147827 M491.6281433,255.6971283c1.5420837,0,2.8036804-0.2803345,4.2055359-0.8411407
		c1.401825-0.5608063,2.6635437-1.401825,3.6448364-2.3832397c1.1214905-0.9812622,1.9626465-2.2430115,2.5233154-3.6448364
		s0.841156-2.8036957,0.841156-4.3457489h-11.2148132 M469.1985168,273.9212646c0-1.5420532,0.280365-2.8036804,0.8411865-4.2055054
		c0.5606689-1.401825,1.401825-2.6634216,2.3830872-3.6448364c0.9812622-1.1214905,2.242981-1.962677,3.6448364-2.5233459
		c1.401825-0.5608215,2.8036499-0.841156,4.3457336-0.841156v11.2148438 M525.2727661,318.7806396
		c1.8224487,0,3.5045776,0.4205627,5.1868896,1.1214905c1.6821899,0.7008972,3.364502,1.682312,4.6260986,3.084137
		c1.2617188,1.2615967,2.3831177,2.8037109,3.0841675,4.4859924c0.7009277,1.6823425,1.12146,3.5046082,1.12146,5.3269958
		h-14.0184937"/>
</g>
<g>
	<polygon fill="none" stroke="#565440" points="528.7772827,30.6992741 419.4324951,30.6993084 419.4324951,32.8020859
		526.6745605,32.8020515 526.6745605,187.0062256 507.7495117,187.0062408 507.7495117,189.1090088 528.7793579,189.1090088 	"/>
	<g>
		<rect x="439.7593384" y="29.9983463" fill="#565440" width="9.8129883" height="8.404089"/>
		<polygon fill="#565440" points="474.8057861,37.0076637 474.8058167,90.2780838 472.0021362,90.2780838 472.0021362,91.6800766
			474.8058167,91.6800766 474.8058167,94.4837189 476.2076416,94.4837189 476.2076111,37.0076637 479.0114136,37.0076637
			479.0114136,29.9983349 469.1983032,29.9983387 469.1983032,37.0076675 		"/>
		<rect x="498.6373901" y="29.9983273" fill="#565440" width="9.8129883" height="8.404108"/>
		<rect x="521.0740967" y="62.2409706" fill="#565440" width="8.4041138" height="9.8129692"/>
		<rect x="522.4689331" y="151.9598083" fill="#565440" width="7.0093384" height="9.812973"/>
		<polygon fill="#565440" points="508.4504395,182.8005981 450.9743652,182.8006134 450.9743652,165.9783173 459.385376,165.978302
			459.385376,164.5764465 449.5723877,164.5764465 449.5723877,182.8006134 413.124115,182.8006287 413.124115,172.0429535
			408.9186096,172.0429535 408.9186096,189.809906 413.124115,189.809906 508.4504395,189.8098755 		"/>
		<polygon fill="#565440" points="476.2076416,107.1003799 476.2076416,105.6985626 474.8058167,105.6985626 474.8058167,108.5022049
			522.4688721,108.5021896 522.4688721,121.1189804 521.0740967,121.1189804 521.0740967,130.9319916 529.4782104,130.9319916
			529.4782104,91.6800613 522.4688721,91.6800613 522.4688721,107.1003647 		"/>
		<polygon fill="#565440" points="435.553894,147.7541504 435.553894,146.3524628 413.124115,146.3524628 413.1240845,119.7171936
			449.5723572,119.7171783 449.5723572,146.3524475 446.7687073,146.3524475 446.7687073,147.7541504 459.385376,147.7541504
			459.385376,146.3524475 450.9743347,146.3524475 450.9743347,91.6800842 460.7871704,91.6800842 460.7871704,90.2780838
			436.9556885,90.2780914 436.9556885,91.6800919 449.5723572,91.6800842 449.5723572,118.3152313 413.1240845,118.315239
			413.1240845,91.6800995 425.7408752,91.6800919 425.7408752,90.2780991 413.1240845,90.2780991 413.124054,38.4024391
			420.1333618,38.4024353 420.1333618,29.998354 408.9185486,29.9983578 408.9186096,158.0243378 413.124115,158.0243378
			413.124115,147.7541656 		"/>
	</g>
	<path fill="none" stroke="#565440" d="M408.9186096,172.0429535c-1.8224182,0-3.5045776-0.420578-5.1869202-1.1214905
		c-1.6821899-0.7008972-3.364502-1.6823273-4.6260986-3.0841522c-1.2615662-1.2617188-2.3830872-2.8036804-3.0839844-4.4859772
		c-0.7009277-1.6823273-1.121521-3.5045929-1.121521-5.3269958h14.0186462 M476.2076416,94.4837189
		c1.5420532,0,2.8036499,0.2803421,4.2055054,0.8411484c1.401825,0.5606766,2.6635437,1.4018173,3.6448364,2.3830719
		c1.1214905,0.9813766,1.9626465,2.2430038,2.5233154,3.6448288s0.841156,2.803688,0.841156,4.3457413l-11.2148132,0.0000076
		 M460.787323,90.2780838c0-1.5420532,0.2803345-2.803688,0.841156-4.2055054
		c0.5608215-1.401825,1.4018555-2.663414,2.3830872-3.6448364c0.9812622-1.1214828,2.2430115-1.962677,3.6448364-2.5233536
		c1.4018555-0.5608063,2.8036804-0.8411407,4.3457642-0.8411407v11.2148361 M436.9556885,90.2780914
		c0-1.5420532-0.2803345-2.803688-0.841156-4.2055054c-0.5606995-1.401825-1.4018555-2.663414-2.3831177-3.6448364
		c-0.9812317-1.1214828-2.242981-1.9626694-3.6448059-2.5233459c-1.4018555-0.5608063-2.8036804-0.8411484-4.3457642-0.8411407
		v11.2148361 M435.553894,146.3524628c0-1.5420685,0.2803345-2.8036957,0.841156-4.2056427s1.4018555-2.6634064,2.3830872-3.6448364
		c0.9812622-1.1214905,2.2430115-1.962677,3.6448364-2.5233459c1.4018555-0.5608063,2.8036804-0.841156,4.3457642-0.841156
		v11.2148438"/>
</g>
<g>
	<path fill="none" stroke="#565440" d="M409.6194763,30.6992912v2.1027565l-78.5038757,0.0000229V30.699316L409.6194763,30.6992912z"
		/>
	<g>
		<rect x="380.8814392" y="29.9983654" fill="#565440" width="9.8129883" height="7.009306"/>
		<polygon fill="#565440" points="364.0591431,38.2607384 364.0591431,90.2781143 365.4609985,90.2781143 365.4609985,36.8588943
			361.2554626,36.8588943 361.2554626,29.998373 351.4425049,29.9983768 351.4425049,38.2607422 		"/>
		<polygon fill="#565440" points="342.2758484,147.7541809 342.2758484,138.2181396 340.8545532,138.2181549 340.8545532,147.7541809
			314.9942627,147.7541962 314.9942017,38.4024429 331.8165283,38.4024391 331.8164978,29.9983826 310.7886963,29.9983902
			310.7887268,151.9598694 348.4124146,151.9598694 348.4124146,147.7541809 		"/>
		<polygon fill="#565440" points="413.124054,29.9983578 408.9185486,29.9983578 408.9185791,111.3060455 375.2739868,111.3060532
			375.2739868,102.8949051 365.4609985,102.8949051 365.4609985,101.4930878 364.0591736,101.4930878 364.0591736,112.7078781
			365.4609985,112.7078781 365.4609985,104.29673 373.8721619,104.29673 373.8721619,115.5115662 375.2739868,115.5115662
			375.2739868,112.7078781 408.9185791,112.7078629 408.9185791,147.7541656 375.2739868,147.7541656 375.2739868,126.7264023
			373.8721619,126.7264023 373.8721619,147.7541656 362.4310608,147.7541809 362.4310608,151.9598541 413.124115,151.9598389 		"/>
	</g>
	<path fill="none" stroke="#565440" d="M365.4609985,90.2781143c1.5420837,0,2.8036804,0.2804718,4.2055054,0.8411484
		c1.4018555,0.5606766,2.6635742,1.4018173,3.6448364,2.3830719c1.121521,0.9813766,1.9626465,2.2430115,2.5233459,3.6448288
		c0.5606689,1.401825,0.841156,2.803688,0.841156,4.3457489h-11.2148132 M375.2739868,126.7264023
		c1.5420837,0,2.8036804-0.2804642,4.2056274-0.8411484c1.4018555-0.5606766,2.6635742-1.4018173,3.6448364-2.3830719
		c1.121521-0.9813766,1.9626465-2.2430115,2.5233459-3.6448364c0.5606689-1.4018173,0.841156-2.803688,0.841156-4.3457413
		h-11.2148132 M362.4310608,151.9598541c0,1.822403-0.4205933,3.5046082-1.121521,5.1868896
		c-0.7008972,1.6823425-1.6821594,3.364502-3.0839844,4.6260834c-1.2617493,1.2617188-2.8036804,2.3830719-4.4859924,3.0841675
		c-1.6821899,0.7009125-3.5045776,1.1214752-5.3269958,1.1214752v-14.0184784"/>
</g>
<g>
	<path fill="none" stroke="#565440" d="M313.5923767,30.6993217v2.1027565l-70.7937927,0.0000229v-2.1027565L313.5923767,30.6993217z
		"/>
	<g>
		<polygon fill="#565440" points="264.5273132,37.0077324 264.5273132,90.2781525 265.9293213,90.2781525 265.9292908,37.0077324
			272.9386292,37.0077286 272.9386292,29.9984035 263.1254883,29.9984055 263.1254883,37.0077324 		"/>
		<polygon fill="#565440" points="314.9942017,29.9983883 292.5645752,29.9983959 292.5645752,38.4025192 310.7886963,38.4025154
			310.7887268,111.306076 275.7423096,111.3060837 275.7423096,102.8949356 265.9293213,102.8949432 265.9293213,101.4931183
			264.5273438,101.4931183 264.5273438,112.7079163 265.9293213,112.7079163 265.9293213,104.2967606 274.3404846,104.2967606
			274.3404846,115.5115967 275.7423096,115.5115967 275.7423096,112.7079086 310.7887268,112.707901 310.7887268,147.7541962
			275.7423096,147.7541962 275.7423096,126.7264328 274.3404846,126.7264328 274.3404846,147.7542114 264.5273438,147.7542114
			264.5273438,151.9598846 314.9942627,151.9598694 		"/>
		<polygon fill="#565440" points="242.7481689,147.7542114 242.7481689,138.2232666 241.3463135,138.2232666 241.3463135,147.7542114
			218.2662354,147.7542114 218.2662354,38.4025269 243.4995728,38.4025269 243.4995728,29.9984131 214.0606079,29.9984131
			214.0606079,151.9598999 250.5088501,151.9598999 250.5088501,147.7542114 		"/>
	</g>
	<path fill="none" stroke="#565440" d="M265.9293213,90.2781525c1.5420532,0,2.8036804,0.2804642,4.2055054,0.8411407
		s2.6636047,1.401825,3.6448364,2.3830719c1.1214905,0.9813766,1.962677,2.2430115,2.5233459,3.6448288
		c0.5606995,1.401825,0.841156,2.803688,0.841156,4.3457489h-11.2148438 M275.7423096,126.7264328
		c1.5420532,0,2.8036804-0.2804642,4.2056274-0.8411407c1.401947-0.5606842,2.6634216-1.401825,3.6448364-2.3830795
		c1.1214905-0.9813766,1.962677-2.2430115,2.5233459-3.6448288c0.5608215-1.401825,0.841156-2.803688,0.841156-4.3457489
		l-11.2148438,0.0000076 M264.5275269,151.9598846c0,1.822403-0.4205933,3.5046082-1.1214905,5.1868896
		c-0.7008972,1.6823425-1.6823425,3.364502-3.0841675,4.6260834c-1.2616882,1.2617188-2.8036804,2.3830872-4.4859619,3.0841675
		c-1.6823273,0.7009125-3.5045929,1.1214752-5.3269958,1.1214752V151.960022"/>
</g>
<g >
	<rect x="355" y="-0.0001" fill="none" width="10" height="10"/>
	<rect x="34.0490799" y="235" fill="none" width="10" height="10"/>
	<rect x="355" y="469.9999084" fill="none" width="10" height="10"/>
	<rect x="676.3088989" y="235" fill="none" width="10" height="10"/>
</g>
<g >
	<path data-nr="2" class="plan__svg__hoverable" fill="none" d="M218.2662964,151.9598999l-0.000061-121.9614868h-4.2056274h-9.8130493v0.2008057
		h-21.027771v-0.2008057h-9.8129272v0.2008057h-19.6260376v-0.2008057l-39.2520752,0.000061v0.2007446H94.902771v-0.2007446
		h-9.8129272v0.2007446H64.2626953l0.0001221,32.0418701h-0.2008057v9.8129883v29.4390869h0.2009888l0.000061,19.6259766h-0.2010498
		l0.000061,30.8408203h1.2011108H73.875h142.6484375v-0.000061H218.2662964z M65.2626953,31.1992188h0.0004883v31.0418701
		h-0.0003662L65.2626953,31.1992188z"/>
	<polygon data-nr="1" class="plan__svg__hoverable" fill="none" points="264.5273438,184.2026367 257.5181885,184.2026367 218.2662964,184.2026367
		218.2662964,174.3895264 214.0606079,174.3895264 195.8364868,174.3895264 195.8364868,167.3803101 195.8364868,153.3617554
		195.8364868,151.9598999 195.8364868,149.723877 195.8364868,147.7542114 64.0620117,147.7542725 64.0620728,151.9599609
		64.0620728,160.3710938 64.2631836,160.3710938 64.2631836,181.3988647 64.0620728,181.3988647 64.0620728,210.8378296
		64.0620728,220.6508179 64.2631836,220.6508179 64.2631836,254.0947266 85.0899048,254.0947266 85.0899048,254.2954712
		94.902832,254.2954712 94.902832,254.0947266 121.538147,254.0947266 121.538147,254.2954102 160.7902222,254.2953491
		160.7902222,254.0947266 174.8087158,254.0947266 174.8087158,254.2954102 184.6217041,254.2954102 184.6217041,254.0947266
		204.2476196,254.0947266 204.2476196,254.2953491 264.5274048,254.2953491 264.5274048,244.4823608 	"/>
	<path data-nr="10" class="plan__svg__hoverable" fill="none" d="M322.5039063,328.09375c0-1.7890625-0.4013672-3.6982422-1.1601563-5.5195313
		c-0.6801758-1.6328125-1.7841797-3.2392578-3.1738281-4.6289063c-1.1552734-1.2832031-2.7724609-2.3632813-4.8056641-3.2109375
		c-1.802002-0.7505493-3.6102905-1.1341553-5.3792114-1.1529541v-2.2225342v-7.9985962v-7.0092163H191.6310425v7.0092163v7.4501953
		l-0.8411865,3.4842529l1.347229,0.3024292l-5.0340576,21.815918l0.2225342,0.0445557l-0.7412109,3.0705566l5.0466919,1.1329346
		v18.7733765h2.0653687l-7.9942627,34.875061l0.1571045,0.0314331l-0.6766968,2.8035278l6.4485474,1.4476929v16.9165649h0.197998
		l-5.4179688,27.1953125l1.4648438,0.2080078l26.0076904,5.8855591l-0.0484009,0.2155762l4.0653687,0.9813232l1.4477539-6.4485474
		h18.6209106l23.7611694,6.1737061l0.0448608-0.1726074l1.8533936,0.4473877l1.4476929-6.4484863h15.3120117l3.4846802,0.8409424
		l0.0557861-0.2483521l21.5237427,5.5918579l0.026062-0.1002808l1.5250854,0.368103l0.9812622-4.0654297v-2.6672974V333.2791138
		V328.59375h14.5188599V328.09375z M307.9850464,327.59375v-13.0122681
		c1.6364746,0.0189209,3.3153076,0.3761597,4.9944458,1.0767212c1.8955078,0.7890625,3.3920898,1.7841797,4.465332,2.9755859
		c1.3164063,1.3164063,2.3452148,2.8115234,2.9760742,4.3251953c0.6376953,1.53125,1.0048828,3.1220703,1.0717773,4.6347656
		H307.9850464z"/>
	<path data-nr="9" class="plan__svg__hoverable" fill="none" d="M406.1149902,335.6029663h-4.2056274h-28.6639404h-4.4840698
		c-0.008667-1.7681885-0.3846436-3.5289307-1.1558838-5.3793335c-0.8476563-2.0332031-1.9277344-3.6494141-3.1923828-4.7871094
		c-1.4082031-1.4082031-3.0146484-2.5117188-4.6474609-3.1923828c-1.8212891-0.7587891-3.7299805-1.1601563-5.519043-1.1601563h-0.5
		v14.5189819h-1.3171387h-0.000061l-44.4443359,0.000061h-4.2055054v109.9295654l-0.8411865,3.4844971l4.0654297,0.9812012
		l0.9812622-4.0654297v-2.3868408h22.0354614l23.746582,6.1697998l0.0263062-0.1013794l1.5744019,0.3800659l1.4476929-6.4485474
		h2.5526733v0.0009766h11.4433594l4.8598633,1.1217041l0.1434326-0.638916l21.9273682,5.6968384l0.1240845-0.4776001
		l3.0883789,0.7455444l1.4476929-6.4485474h3.7127075L406.1149902,335.6029663z M359.3808594,323.1679688
		c1.5131836,0.6298828,3.0087891,1.6591797,4.34375,2.9931641c1.1728516,1.0556641,2.1679688,2.5517578,2.9570313,4.4472656
		c0.7194214,1.7261963,1.0708618,3.3609619,1.0796509,4.9945679H354.746582v-13.5082397
		C356.2587891,322.1621094,357.8500977,322.5292969,359.3808594,323.1679688z"/>
	<path data-nr="8" class="plan__svg__hoverable" fill="none" d="M504.244873,433.7328491v-98.1299438l-37.3503418,0.000061v-14.5189819h-0.5
		c-1.7890625,0-3.6972656,0.4013672-5.5185547,1.1601563c-1.6328125,0.6806641-3.2392578,1.7841797-4.6279297,3.1738281
		c-1.2851563,1.15625-2.3662109,2.7734375-3.2119141,4.8056641c-0.7524414,1.8066406-1.1367188,3.6154175-1.1536865,5.3793335
		h-1.0787354h-48.8943481l0.000061,107.9429932l16.2339478-0.0053101v-0.0047607h3.3977661v-0.0228882l23.8543701,6.197937
		l0.1229248-0.4737549l1.373291,0.3314819l1.3531494-6.0280762h13.3948975l4.8598633,1.12146l0.1775513-0.7910156
		l22.6528931,5.8545532l0.1133423-0.4358521l2.8968506,0.6992798l1.4476929-6.4484253l10.4569092,0.0053711v-0.0053711h0.0049438
		v-9.8077393H504.244873z M453.9599609,330.6083984c0.7880859-1.8945313,1.7832031-3.390625,2.9755859-4.4648438
		c1.3164063-1.3164063,2.8115234-2.3457031,4.3251953-2.9755859c1.5302734-0.6386719,3.1220703-1.0058594,4.6337891-1.0732422
		v13.5082397h-13.0120239C452.8995361,333.9714966,453.2574463,332.2926636,453.9599609,330.6083984z"/>
	<polygon data-nr="7" class="plan__svg__hoverable" fill="none" points="655.505188,410.1816406 648.6361084,408.6204834 648.6361084,395.8826294
		648.6361084,374.6270142 648.9685059,368.4788818 654.8447266,342.7832031 654.6699219,342.74823 654.8042603,342.1916504
		648.6360474,340.7402344 648.6360474,339.8084106 648.6360474,335.6029053 598.8527832,335.6029053 519.6652832,335.6029053
		505.6466675,335.6029053 504.244873,335.6029053 504.0307007,335.6029053 504.0307007,335.6029053 500.0393677,335.6029663
		500.0393677,443.5459595 504.244873,443.5459595 512.5390015,443.5459595 537.8583984,449.3339844 537.8600464,449.3258667
		538.887085,449.5737915 540.2402344,443.5458984 553.1749268,443.5458984 558.03479,444.6673584 558.1745605,444.0448608
		579.6192017,448.946106 582.2197876,449.5737915 583.5731201,443.5458984 602.4355469,443.5458984 602.4355469,443.765625
		629.234375,443.765625 647.0478516,447.7871094 655.1181641,413.1972656 654.8458862,413.1188965 	"/>
	<polygon data-nr="6" class="plan__svg__hoverable" fill="none" points="652.8765869,305.5788574 647.2342529,304.2767944 647.2341919,265.7905273
		649.4771729,260.1830444 649.03125,260.0078735 656.2958984,232.7675781 627.6082153,232.7675781 627.6082153,231.8656006
		626.2062378,231.8656006 626.2062378,227.6599731 622.0007324,227.6599731 622.0007324,231.8656006 605.1784668,231.8656006
		605.1784668,227.6599731 600.9729614,227.6599731 600.9729614,231.8656006 584.1506348,231.8656006 584.1506348,227.6599731
		579.9450073,227.6599731 579.9450073,231.8656006 561.7208862,231.8656006 561.7208862,227.6599731 557.5153809,227.6599731
		557.5153809,231.8656006 557.5153809,232.7675781 540.6930542,232.7675781 540.6930542,227.6599731 536.4875488,227.6599731
		536.4875488,232.7675781 519.6654053,232.7675781 519.6654053,227.6602783 515.4598999,227.6602783 515.4598999,231.8657837
		497.2357788,231.8657837 497.2357788,227.6602783 493.0301514,227.6602783 493.0301514,231.8657837 456.5820313,231.8655396
		456.5820313,303.3604736 498.6374512,303.3604736 498.6374512,307.565979 498.6375122,311.7714844 521.0671387,311.7714844
		521.0671387,318.7808228 521.0671387,332.7991333 521.0671387,334.0613403 521.0671387,335.6029053 521.0671387,339.8084106
		648.6360474,339.8084106 648.6360474,335.6029053 648.6360474,333.434021 654.96875,305.9960938 	"/>
	<path data-nr="5" class="plan__svg__hoverable" fill="none" d="M529.4782715,151.9597778h-0.1994629l-0.0002441-21.027771h0.199646v-9.8130493
		V91.6800537h-0.2001343l-0.0002441-19.6260986h0.2003784v-9.8129883H529.27771l-0.0003662-32.041748h-20.8269653v-0.2008667
		h-9.8129883v0.2008667h-19.6259766v-0.2008667h-9.8131104v0.2008667h-19.6259766v-0.2008667h-9.8129883v0.2008667h-19.6259766
		v-0.2008667h-7.0092773h-4.2055054l0.000061,127.5045624h-14.5182495v0.5c0,1.7905273,0.4013672,3.6992188,1.1591797,5.519043
		c0.6806641,1.6323242,1.7841797,3.2397461,3.1738281,4.628418c1.1552734,1.2832031,2.7724609,2.3637695,4.8056641,3.2109375
		c1.9002686,0.7914429,3.6101685,1.1601563,5.3795776,1.1601563v17.2884064h4.2055054h95.3262939v-0.2009888h20.8288574
		l-0.0003662-27.8361206h0.1993408V151.9597778z M399.4589844,167.4623871
		c-1.3164063-1.3164063-2.3457031-2.8120117-2.9755859-4.3251953c-0.6376953-1.5297852-1.0048828-3.1210938-1.0722656-4.6342773
		h13.5078125v13.0185547c-1.6337891,0-3.2207031-0.3442383-4.9951172-1.0830078
		C402.0283203,169.6484222,400.5322266,168.6537933,399.4589844,167.4623871z"/>
	<path data-nr="4" class="plan__svg__hoverable" fill="none" d="M413.1241455,151.9598389l-0.000061-121.9614868h-4.2055054v0.2008667H390.694458
		v-0.2008667h-9.8129883v0.2008667h-19.6259766v-0.2008667h-9.8129883v0.2008667h-19.6259766v-0.2008667l-21.027832,0.000061
		v9.8129883l0.000061,112.1484375h1.3891602v0.0001221h35.7346802v14.5185547h0.5
		c1.7900391,0,3.6987305-0.4013672,5.5195313-1.1601563c1.6323242-0.6801758,3.2392578-1.7841797,4.6279297-3.1738281
		c1.2836914-1.1552734,2.3642578-2.7719727,3.2114258-4.8051758c0.7910156-1.8984375,1.1591797-3.6079102,1.1591797-5.3793945
		h24.8469238l0.0008545-0.0001221h21.1401978H413.1241455z M360.8481445,156.9545898
		c-0.7895508,1.8950195-1.7841797,3.3911133-2.9760742,4.4648438c-1.3164063,1.3164063-2.8120117,2.3452148-4.324707,2.9760742
		c-1.5302734,0.6376953-3.1220703,1.0048828-4.6347656,1.0717773v-13.5073242h13.0180664
		C361.9306641,153.5952148,361.5869141,155.1821289,360.8481445,156.9545898z"/>
	<path data-nr="3" class="plan__svg__hoverable" fill="none" d="M314.9942627,151.9598389l-0.000061-121.9614258h-4.2055054h-18.2241211v0.2008057
		h-19.6259155v-0.2008057h-9.8131714v0.2008057h-19.6259155v-0.2008057h-29.4389648v9.8129883v112.1484985h2.6694336v0.000061
		h33.2787476v14.5185547h0.5c1.7900391,0,3.6987305-0.4013672,5.5195313-1.1601563
		c1.6323242-0.6801758,3.2392578-1.7841797,4.6279297-3.1738281c1.2832031-1.1552734,2.3637695-2.7719727,3.2114258-4.8051758
		c0.7910156-1.8999023,1.159668-3.6088867,1.159668-5.3793945h40.7824707l0.0001831-0.0001221h4.9787598H314.9942627z
		 M262.9448242,156.9545898c-0.7900391,1.8955078-1.7851563,3.3916016-2.9765625,4.4648438
		c-1.3164063,1.3164063-2.8120117,2.3452148-4.324707,2.9760742c-1.5302734,0.6376953-3.1220703,1.0048828-4.6347656,1.0717773
		v-13.5073242h13.0185547C264.0273438,153.59375,263.6831055,155.1811523,262.9448242,156.9545898z"/>
</g>
</svg>
