<svg width="114" height="31" viewBox="0 0 114 31" fill="none" xmlns="http://www.w3.org/2000/svg">
<path fill-rule="evenodd" clip-rule="evenodd" d="M26.8844 4.82222C26.9302 5.74396 26.9443 7.93048 26.9411 10.0771C26.9379 12.2236 26.9302 14.4095 26.8844 15.3312C26.7473 18.0868 25.9055 19.3075 23.191 19.4218C22.073 19.4694 18.5483 19.4908 15.4493 19.4908V19.8545C15.4499 19.887 15.4444 19.9193 15.433 19.9494C15.4217 19.9796 15.4048 20.0071 15.3834 20.0301C15.3619 20.0531 15.3363 20.0712 15.3081 20.0834C15.2799 20.0956 15.2498 20.1017 15.2194 20.1011H11.7275C11.6971 20.1018 11.6668 20.0958 11.6386 20.0837C11.6103 20.0715 11.5847 20.0534 11.5631 20.0303C11.5416 20.0073 11.5246 19.9798 11.5133 19.9496C11.5019 19.9194 11.4964 19.887 11.497 19.8545V19.4908C8.39796 19.4908 4.87326 19.4714 3.7546 19.4218C1.04072 19.3075 0.198981 18.0882 0.0618059 15.3312C0.0160807 14.4095 0.00191929 12.2223 0.00449535 10.0771C0.00449535 8.34864 -0.0238483 6.54582 0.0618059 4.82222C0.198981 2.06667 1.04072 0.845965 3.7546 0.731609C4.87326 0.683387 8.39796 0.662695 11.497 0.662695V0.249378C11.4965 0.216735 11.5022 0.184341 11.5136 0.154059C11.525 0.123777 11.5419 0.096206 11.5634 0.0729937C11.5848 0.0497813 11.6104 0.0313711 11.6386 0.0188378C11.6668 0.00630457 11.697 -9.36154e-05 11.7275 1.03498e-06H15.2168C15.2475 -1.18686e-05 15.278 0.00655454 15.3063 0.0193424C15.3346 0.0321303 15.3603 0.0508936 15.3817 0.0744653C15.4031 0.098037 15.4199 0.125944 15.4311 0.156582C15.4423 0.18722 15.4476 0.219955 15.4467 0.252826V0.666143C18.5457 0.666143 22.0704 0.684768 23.1884 0.735057C25.8933 0.849413 26.744 2.05427 26.8819 4.82567L26.8844 4.82222ZM22.878 15.035C22.898 12.8561 22.9076 11.481 22.907 10.075C22.9063 8.66898 22.898 7.29601 22.878 5.11499C21.9255 5.11499 18.8626 5.11499 15.4493 5.11499V15.035C18.8626 15.035 21.9255 15.035 22.878 15.035ZM4.05792 15.035C5.00977 15.035 8.07273 15.035 11.486 15.035V5.11499C8.07273 5.11499 5.00977 5.11499 4.05792 5.11499C4.03731 7.29464 4.02766 8.66829 4.0283 10.075C4.02894 11.4817 4.03731 12.854 4.05792 15.035ZM113.927 15.2038C113.905 15.1811 113.879 15.1633 113.85 15.1515C113.822 15.1397 113.792 15.134 113.761 15.1349H112.66C112.698 14.1057 112.709 12.1038 112.706 10.1384C112.71 7.99248 112.694 5.8046 112.649 4.88424C112.58 3.50164 112.365 2.51169 111.774 1.85311C110.999 1.12226 109.988 0.742746 108.957 0.794973C107.604 0.738484 104.649 0.726101 101.267 0.726101C97.8846 0.72059 94.5049 0.73504 93.1524 0.794973C92.1208 0.742635 91.1106 1.12218 90.3362 1.85311C89.7443 2.51445 89.5285 3.50646 89.4596 4.88424C89.4139 5.8046 89.3998 7.99248 89.4036 10.1384C89.3998 12.1058 89.4126 14.1057 89.45 15.1349H88.3552C88.2917 15.1331 88.23 15.1578 88.1832 15.2038C88.1611 15.2268 88.1435 15.2542 88.1314 15.2844C88.1192 15.3147 88.1128 15.3472 88.1124 15.3801V19.2758C88.1129 19.3078 88.1195 19.3393 88.1317 19.3686C88.1438 19.3978 88.1613 19.4241 88.1832 19.446V19.4522C88.2302 19.4978 88.2917 19.5224 88.3552 19.521H113.762C113.824 19.5224 113.884 19.4976 113.928 19.4522V19.446C113.951 19.4251 113.97 19.399 113.982 19.3696C113.995 19.3401 114.001 19.3081 114 19.2758V15.3801C114.001 15.3469 113.995 15.3139 113.983 15.2834C113.97 15.2529 113.952 15.2257 113.928 15.2038H113.927ZM93.4371 10.1384C93.4371 8.73372 93.4461 7.35873 93.4667 5.1784C95.7504 5.17358 106.359 5.17358 108.643 5.1784C108.664 7.35667 108.673 8.73165 108.673 10.1384C108.673 11.5024 108.664 13.051 108.644 15.1349H93.4641C93.4442 13.051 93.4352 11.5024 93.4358 10.1384H93.4371ZM84.9039 15.2038C84.8819 15.1812 84.856 15.1634 84.8276 15.1516C84.7992 15.1398 84.7688 15.1341 84.7383 15.1349H83.6371C83.6744 14.1057 83.686 12.1038 83.6828 10.1384C83.6828 7.99248 83.6719 5.8046 83.6261 4.88424C83.5572 3.50164 83.3421 2.51169 82.7503 1.85311C81.9758 1.12224 80.9656 0.742708 79.934 0.794973C78.5816 0.738484 75.6249 0.726101 72.2425 0.726101C68.8614 0.72059 65.4803 0.73504 64.1279 0.794973C63.0959 0.742638 62.0853 1.12216 61.3103 1.85311C60.7191 2.51445 60.5034 3.50646 60.4345 4.88424C60.3894 5.8046 60.3746 7.99248 60.3778 10.1384C60.3778 12.1058 60.3868 14.1057 60.4242 15.1349H59.3293C59.2658 15.1331 59.2042 15.1578 59.1574 15.2038C59.1352 15.2267 59.1175 15.2541 59.1054 15.2843C59.0932 15.3146 59.0868 15.3472 59.0865 15.3801V19.2758C59.087 19.3078 59.0935 19.3394 59.1056 19.3687C59.1178 19.3979 59.1354 19.4242 59.1574 19.446V19.4522C59.2044 19.4978 59.2659 19.5224 59.3293 19.521H84.7371C84.7986 19.5222 84.858 19.4975 84.9026 19.4522V19.446C84.9256 19.4251 84.9439 19.399 84.9561 19.3695C84.9684 19.3401 84.9743 19.308 84.9734 19.2758V15.3801C84.9745 15.347 84.9687 15.3139 84.9564 15.2835C84.9442 15.253 84.9258 15.2258 84.9026 15.2038H84.9039ZM64.4138 10.1384C64.4138 8.73372 64.4229 7.35873 64.4441 5.1784C66.7272 5.17358 77.3367 5.17358 79.6197 5.1784C79.6403 7.35667 79.65 8.73165 79.6494 10.1384C79.6494 11.5024 79.6403 13.051 79.6216 15.1349H64.4402C64.4216 13.051 64.4119 11.5024 64.4126 10.1384H64.4138ZM55.2978 4.88424C55.2295 3.50164 55.0138 2.51169 54.4219 1.85311C53.6472 1.12214 52.6369 0.7426 51.605 0.794973C50.2526 0.738484 46.8734 0.726101 43.4904 0.726101C40.1087 0.72059 36.7282 0.73504 35.3758 0.794973C34.3441 0.742489 33.3339 1.12205 32.5595 1.85311C31.9677 2.51445 31.7519 3.50646 31.683 4.88424C31.6373 5.8046 31.6225 7.99248 31.6263 10.1384C31.6302 12.2843 31.6373 14.4715 31.683 15.3925C31.7519 16.7765 31.9677 17.7658 32.5595 18.4237C33.334 19.1545 34.3442 19.534 35.3758 19.4818C36.7282 19.539 40.108 19.5507 43.4904 19.5466C46.8721 19.5528 50.2526 19.539 51.605 19.4818C52.6368 19.5338 53.6471 19.1543 54.4219 18.4237C55.0138 17.763 55.2295 16.7738 55.2978 15.3925C55.3435 14.4715 55.3583 12.2843 55.3551 10.1384C55.3519 7.99248 55.3435 5.8046 55.2978 4.88424ZM35.692 15.097C35.6714 12.918 35.6617 11.5424 35.6624 10.137C35.663 8.73169 35.6714 7.35734 35.692 5.17701C37.9751 5.17219 49.0083 5.17219 51.2914 5.17701C51.3113 7.35528 51.321 8.73031 51.321 10.137C51.321 11.5437 51.3113 12.9167 51.2914 15.097C49.0083 15.1011 37.9751 15.1011 35.692 15.097ZM1.14632 30.0355V25.608H3.47896V26.0772H1.7401V30.0355H1.14632ZM5.83993 30.0355V25.608H8.16932V26.0772H6.43049V27.4991H7.88725V27.9689H6.43049V29.5719H8.29041V30.0355H5.83928H5.83993ZM10.7216 30.0355V25.608H11.3134V27.4743H13.297V25.608H13.8882V30.0355H13.297V27.9448H11.3134V30.0355H10.7216ZM16.7161 30.0355V25.608H19.0461V26.0772H17.3073V27.4991H18.7634V27.9689H17.3073V29.5719H19.1666V30.0355H16.7154H16.7161ZM21.5977 30.0355V25.608H22.7338C22.988 25.5993 23.2422 25.6278 23.4892 25.6928C23.6591 25.7449 23.8109 25.8496 23.9252 25.9938C24.0831 26.2156 24.1619 26.4904 24.1474 26.7688C24.157 26.9779 24.1213 27.1866 24.0431 27.3785C23.9649 27.5704 23.8463 27.7404 23.6966 27.8752C23.3371 28.1627 22.894 28.3048 22.4459 28.2761H22.1844V30.0355H21.5984H21.5977ZM22.1838 27.8001H22.4234C22.7145 27.8197 23.0028 27.7287 23.2374 27.5432C23.3342 27.453 23.4104 27.3403 23.4602 27.2137C23.51 27.0871 23.532 26.95 23.5246 26.8129C23.5339 26.706 23.518 26.5983 23.4784 26.4996C23.4388 26.401 23.3768 26.3145 23.2979 26.248C23.0683 26.1147 22.8075 26.0554 22.547 26.0772H22.1838V27.7994V27.8001ZM25.8199 30.0355L27.4737 25.608H28.0598L29.6872 30.0355H29.0516L28.5975 28.8093H26.8342L26.3725 30.0355H25.8231H25.8199ZM26.9991 28.3423H28.423L27.7114 26.4333L26.9991 28.3423ZM31.5954 30.0355V29.4844C31.7772 29.4685 31.9503 29.3941 32.092 29.2712C32.2336 29.1483 32.3373 28.9825 32.3895 28.7955C32.5671 27.8387 32.6333 26.862 32.5866 25.8877V25.6067H35.0184V30.0355H34.4272V26.0682H33.1733V26.1674C33.2125 27.0867 33.1404 28.0076 32.9588 28.9071C32.8813 29.2229 32.7152 29.5056 32.4829 29.7173C32.22 29.9101 31.9119 30.0203 31.5935 30.0355H31.5954ZM37.8495 30.0355V25.608H38.4407V27.5073H38.7588C39 27.5012 39.2411 27.5157 39.4801 27.5507C39.6328 27.5806 39.7785 27.6421 39.909 27.7319C40.0619 27.8299 40.1872 27.9703 40.2716 28.1383C40.3559 28.3063 40.3962 28.4955 40.3882 28.686C40.3996 28.9052 40.355 29.1236 40.2593 29.3178C40.1635 29.5119 40.0202 29.6746 39.8446 29.7883C39.4594 29.9847 39.033 30.0702 38.6075 30.0363H37.8495V30.0355ZM38.4407 29.5747H38.6474C38.9409 29.6023 39.2356 29.5379 39.4956 29.3894C39.5929 29.3143 39.6712 29.2145 39.7234 29.0989C39.7756 28.9833 39.8 28.8556 39.7944 28.7273C39.8031 28.6156 39.7844 28.5034 39.7403 28.4017C39.6961 28.3 39.628 28.2123 39.5426 28.1473C39.2923 28.0078 39.0106 27.9457 38.7292 27.9682H38.4387V29.5747H38.4407ZM42.8889 30.0355V25.608H43.4775V27.4743H45.4611V25.608H46.0536V30.0355H45.4617V27.9448H43.4775V30.0355H42.8863H42.8889ZM48.8834 30.0355V25.608H49.4746V27.5073H49.7927C50.0339 27.5012 50.2751 27.5157 50.514 27.5507C50.6667 27.5807 50.8124 27.6423 50.943 27.7319C51.0958 27.8299 51.221 27.9704 51.3052 28.1384C51.3895 28.3063 51.4296 28.4956 51.4215 28.686C51.433 28.9051 51.3886 29.1235 51.293 29.3177C51.1973 29.5119 51.0541 29.6746 50.8786 29.7883C50.4932 29.9847 50.0665 30.0702 49.6408 30.0363H48.8834V30.0355ZM49.4746 29.5747H49.6833C49.9768 29.6023 50.2715 29.5379 50.5314 29.3894C50.6288 29.3143 50.7071 29.2145 50.7593 29.0989C50.8115 28.9833 50.8359 28.8556 50.8303 28.7273C50.8389 28.6156 50.8203 28.5034 50.7761 28.4017C50.732 28.3 50.6639 28.2123 50.5784 28.1473C50.3282 28.0078 50.0465 27.9457 49.7651 27.9682H49.4746V29.5747ZM51.8575 30.0355V25.608H52.4487V30.0355H51.8575ZM55.2798 30.0355V25.608H55.871V29.1331L57.8855 25.608H58.4767V30.0355H57.8855V26.5105L55.871 30.0355H55.2798ZM55.9083 24.3522H56.2548C56.2993 24.4818 56.3799 24.5937 56.4858 24.6728C56.5916 24.7518 56.7176 24.7942 56.8467 24.7942C56.9757 24.7942 57.1017 24.7518 57.2076 24.6728C57.3134 24.5937 57.394 24.4818 57.4385 24.3522H57.785C57.7662 24.6 57.6587 24.8306 57.4849 24.9956C57.3042 25.1519 57.079 25.2372 56.8467 25.2372C56.6144 25.2372 56.3891 25.1519 56.2084 24.9956C56.0353 24.8297 55.928 24.5993 55.9083 24.3515V24.3522ZM64.9606 30.0355V25.608H68.1266V30.0355H67.5354V26.0772H65.5518V30.0355H64.9606ZM72.4312 30.1458C72.1662 30.1574 71.9019 30.1067 71.6572 29.9974C71.4124 29.888 71.1929 29.7225 71.0144 29.5127C70.6705 29.0257 70.4844 28.4321 70.4844 27.8218C70.4844 27.2115 70.6705 26.6179 71.0144 26.1309C71.2 25.9303 71.421 25.7709 71.6646 25.6622C71.9082 25.5535 72.1695 25.4975 72.4335 25.4975C72.6974 25.4975 72.9587 25.5535 73.2023 25.6622C73.4459 25.7709 73.6669 25.9303 73.8526 26.1309C74.1969 26.6177 74.3832 27.2114 74.3832 27.8218C74.3832 28.4322 74.1969 29.0259 73.8526 29.5127C73.6741 29.7227 73.4547 29.8882 73.2099 29.9976C72.9651 30.107 72.7008 30.1576 72.4357 30.1458H72.4312ZM72.4312 29.676C72.6185 29.6846 72.8049 29.6443 72.9743 29.5586C73.1437 29.4729 73.2911 29.3444 73.4037 29.1841C73.6568 28.7812 73.7794 28.3006 73.7527 27.816C73.7793 27.3342 73.6566 26.8565 73.4037 26.4568C73.2852 26.3038 73.1366 26.1806 72.9685 26.0961C72.8004 26.0116 72.617 25.9678 72.4312 25.9678C72.2455 25.9678 72.062 26.0116 71.8939 26.0961C71.7258 26.1806 71.5772 26.3038 71.4587 26.4568C71.2055 26.8563 71.0828 27.3341 71.1097 27.816C71.0827 28.3006 71.2054 28.7813 71.4587 29.1841C71.5712 29.3445 71.7186 29.4731 71.888 29.5589C72.0575 29.6446 72.2439 29.6848 72.4312 29.676ZM76.2824 31V29.4844H76.6122C76.9029 29.0035 77.1219 28.4771 77.2613 27.9241C77.3958 27.2999 77.4579 26.6604 77.4462 26.02V25.6067H79.7221V29.4844H80.2972V31H79.7221V30.0355H76.8575V31H76.2824ZM79.1341 29.4844V26.0703H78.0393V26.1392C78.0719 27.3043 77.8145 28.4579 77.2935 29.4817H79.1361L79.1341 29.4844ZM82.7644 30.0355V25.608H83.9005C84.155 25.5993 84.4093 25.6279 84.6566 25.6928C84.8263 25.7449 84.9778 25.8496 85.0919 25.9938C85.2496 26.2157 85.3282 26.4905 85.3135 26.7688C85.3231 26.9779 85.2875 27.1866 85.2093 27.3785C85.1311 27.5705 85.0124 27.7404 84.8626 27.8752C84.5032 28.1629 84.0601 28.305 83.612 28.2761H83.3505V30.0355H82.7625H82.7644ZM83.3505 27.8001H83.5894C83.8808 27.8198 84.1693 27.7288 84.4041 27.5432C84.5009 27.453 84.5771 27.3403 84.6269 27.2137C84.6767 27.0871 84.6987 26.95 84.6913 26.8129C84.7007 26.7061 84.6849 26.5984 84.6454 26.4998C84.6059 26.4011 84.544 26.3146 84.4653 26.248C84.2357 26.1147 83.9749 26.0554 83.7144 26.0772H83.3505V27.7994V27.8001ZM89.6181 28.1542H89.2407C88.8744 28.5801 88.5539 29.0484 88.285 29.5506C88.2339 29.6424 88.1654 29.7623 88.0795 29.9102L88.0061 30.0355H87.2397C87.4097 29.8237 87.5651 29.599 87.7047 29.3632L87.8258 29.1614L87.9024 29.0394L88.0679 28.7701C88.2322 28.4802 88.4516 28.2304 88.7119 28.0371C88.4374 27.9842 88.1877 27.8335 88.0035 27.6093C87.8239 27.3972 87.7255 27.1205 87.7279 26.8343C87.7241 26.6539 87.7583 26.475 87.8281 26.3107C87.8979 26.1465 88.0015 26.0012 88.131 25.8857C88.2513 25.7767 88.3949 25.7012 88.549 25.6659C88.7859 25.6206 89.0265 25.6012 89.2671 25.608H90.2131V30.0355H89.6219V28.1542H89.6181ZM89.6181 26.0682H89.2671C89.0327 26.0459 88.7982 26.1093 88.6018 26.248C88.5188 26.3207 88.4523 26.4127 88.4077 26.5171C88.363 26.6215 88.3413 26.7354 88.3442 26.8501C88.3372 26.9709 88.3581 27.0916 88.405 27.2017C88.452 27.3117 88.5235 27.4077 88.6134 27.4812C88.8525 27.6396 89.1321 27.7136 89.4126 27.6926H89.6129V26.0682H89.6181ZM92.4801 31V29.4844H92.8092C93.0999 29.0035 93.3189 28.4771 93.4583 27.9241C93.5925 27.2999 93.6544 26.6604 93.6425 26.02V25.6067H95.9185V29.4844H96.4936V31H95.9198V30.0355H93.0552V31H92.4801ZM95.3318 29.4844V26.0703H94.237V26.1392C94.2696 27.3043 94.0122 28.4579 93.4912 29.4817H95.3337L95.3318 29.4844ZM100.694 30.0355V28.2527C100.373 28.4374 100.013 28.5302 99.6486 28.5221C99.4789 28.533 99.309 28.5067 99.1491 28.445C98.9892 28.3833 98.8428 28.2874 98.7187 28.1632C98.6082 28.0469 98.5267 27.9029 98.4817 27.7443C98.4321 27.525 98.4104 27.2996 98.4173 27.074V25.608H99.0078V27.0547C98.9831 27.3161 99.0444 27.5784 99.1811 27.7966C99.2648 27.8755 99.3631 27.9347 99.4696 27.9703C99.5761 28.0059 99.6885 28.0172 99.7993 28.0034C100.115 28.0068 100.424 27.9146 100.693 27.7374V25.6019H101.284V30.0355H100.693H100.694ZM104.117 30.0355V25.608H104.709V29.1331L106.723 25.608H107.314V30.0355H106.723V26.5105L104.709 30.0355H104.117ZM110.736 27.9868V30.0355H110.145V25.608H110.736V27.5197H110.764C110.892 27.5296 111.018 27.4859 111.117 27.3978C111.274 27.1967 111.412 26.9788 111.528 26.7475L111.706 26.4251L111.852 26.1495C111.933 25.9842 112.047 25.8401 112.186 25.7273C112.313 25.6424 112.46 25.5999 112.609 25.6053H112.682V26.0655H112.637C112.532 26.0943 112.436 26.1507 112.356 26.2295C112.277 26.3082 112.217 26.407 112.182 26.5167L112.072 26.7289L111.985 26.8915C111.887 27.0863 111.777 27.2732 111.654 27.4509C111.572 27.5578 111.473 27.6489 111.361 27.7202C111.542 27.7773 111.706 27.8842 111.837 28.0302C112.006 28.2611 112.149 28.5136 112.26 28.7818L112.404 29.0897C112.421 29.1276 112.474 29.2454 112.561 29.4404C112.662 29.6663 112.758 29.864 112.852 30.0355H112.227L112.182 29.9426L112.001 29.5534L111.765 29.0387C111.604 28.6287 111.35 28.268 111.026 27.9896H110.738L110.736 27.9868Z" fill="#E9E4DC"/>
</svg>
