<svg width="1200" height="184" viewBox="0 0 1200 184" fill="none" xmlns="http://www.w3.org/2000/svg">
<path d="M132.399 183.915L51.7651 86.8559L125.431 0H107.014L15.1811 107.512V0H0V183.915H15.1811V128.666L41.5614 97.8062L112.987 183.915H132.399Z" fill="#565440"/>
<path d="M236.676 84.3672C252.604 79.1409 262.807 63.462 262.807 45.7922C262.807 33.3487 258.328 22.6472 249.368 13.6879C240.658 4.47967 227.966 0 211.789 0H145.589V183.915H214.278C232.943 183.915 247.129 178.689 257.332 168.485C267.536 158.033 272.513 145.838 272.513 131.653C272.513 110.001 259.572 90.5889 236.676 84.3672ZM210.296 14.4345C233.938 14.4345 247.377 27.6246 247.377 45.7922C247.377 63.9598 233.192 78.3943 213.033 78.3943H160.77V14.4345H210.296ZM160.77 169.481V92.8288H212.784C225.975 92.8288 236.427 96.5618 244.64 103.779C252.853 110.996 256.835 119.956 256.835 130.906C256.835 141.856 252.853 151.065 244.64 158.531C236.676 165.748 226.223 169.481 213.033 169.481H160.77Z" fill="#565440"/>
<path d="M429.914 183.915L356.995 0H348.783L275.366 183.915H292.04L313.941 128.168H391.339L413.24 183.915H429.914ZM386.362 113.983H318.918L352.764 27.1269L386.362 113.983Z" fill="#565440"/>
<path d="M449.163 0V183.915H464.344V112.49H503.666C523.326 112.49 538.259 107.014 548.711 96.0641C559.413 84.8649 564.639 71.6748 564.639 56.2448C564.639 41.0637 559.661 27.8735 549.458 16.6743C539.503 5.47516 525.068 0 505.905 0H449.163ZM464.344 98.3039V14.4345H506.652C532.784 14.4345 549.209 31.8554 549.209 55.9959C549.209 80.1364 532.037 98.3039 503.914 98.3039H464.344Z" fill="#565440"/>
<path d="M621.562 183.915H636.743V14.6834H692.49V0H565.815V14.6834H621.562V183.915Z" fill="#565440"/>
<path d="M719.882 183.915L837.598 30.1134V183.915H852.779V0H844.068L726.601 153.055V0H711.42V183.915H719.882Z" fill="#565440"/>
<path d="M892.979 0V183.915H908.16V112.49H947.482C967.142 112.49 982.075 107.014 992.527 96.0641C1003.23 84.8649 1008.46 71.6748 1008.46 56.2448C1008.46 41.0637 1003.48 27.8735 993.274 16.6743C983.319 5.47516 968.885 0 949.722 0H892.979ZM908.16 98.3039V14.4345H950.468C976.6 14.4345 993.025 31.8554 993.025 55.9959C993.025 80.1364 975.853 98.3039 947.731 98.3039H908.16Z" fill="#565440"/>
<path d="M1048.94 70.9281V0H1033.75V183.915H1096.22C1116.38 183.915 1131.81 178.44 1142.01 167.49C1152.22 156.291 1157.44 143.35 1157.44 128.168C1157.44 115.476 1153.71 103.032 1145 91.0867C1136.29 79.1409 1119.12 70.9281 1096.22 70.9281H1048.94ZM1184.82 183.915H1200V0H1184.82V183.915ZM1048.94 169.481V85.1138H1095.47C1124.34 85.1138 1141.76 102.037 1141.76 126.924C1141.76 152.06 1123.85 169.481 1093.73 169.481H1048.94Z" fill="#565440"/>
</svg>
