<svg width="720" height="111" viewBox="0 0 720 111" fill="none" xmlns="http://www.w3.org/2000/svg">
<path d="M79.4395 111L31.0591 52.4208L75.2585 0H64.2086L9.10867 64.8877V0H0V111H9.10867V77.6549L24.9368 59.0298L67.7924 111H79.4395Z" fill="#565440"/>
<path d="M142.006 50.9188C151.562 47.7645 157.684 38.3018 157.684 27.6374C157.684 20.1272 154.997 13.6685 149.621 8.26117C144.395 2.70366 136.779 0 127.073 0H87.3536V111H128.567C139.766 111 148.277 107.846 154.399 101.687C160.522 95.3789 163.508 88.0189 163.508 79.4574C163.508 66.3897 155.743 54.6739 142.006 50.9188ZM126.177 8.71177C140.363 8.71177 148.426 16.6725 148.426 27.6374C148.426 38.6022 139.915 47.3139 127.82 47.3139H96.4623V8.71177H126.177ZM96.4623 102.288V56.0257H127.671C135.585 56.0257 141.856 58.2788 146.784 62.6346C151.712 66.9905 154.101 72.3978 154.101 79.0068C154.101 85.6157 151.712 91.1732 146.784 95.6793C142.006 100.035 135.734 102.288 127.82 102.288H96.4623Z" fill="#565440"/>
<path d="M257.949 111L214.197 0H209.27L165.219 111H175.224L188.364 77.3545H234.804L247.944 111H257.949ZM231.817 68.793H191.351L211.659 16.3721L231.817 68.793Z" fill="#565440"/>
<path d="M269.498 0V111H278.606V67.8917H302.199C313.996 67.8917 322.955 64.5873 329.227 57.9784C335.648 51.2192 338.783 43.2585 338.783 33.9459C338.783 24.7835 335.797 16.8227 329.675 10.0636C323.702 3.30447 315.041 0 303.543 0H269.498ZM278.606 59.3302V8.71177H303.991C319.67 8.71177 329.525 19.226 329.525 33.7957C329.525 48.3654 319.222 59.3302 302.349 59.3302H278.606Z" fill="#565440"/>
<path d="M372.937 111H382.046V8.86198H415.494V0H339.489V8.86198H372.937V111Z" fill="#565440"/>
<path d="M431.929 111L502.559 18.1746V111H511.667V0H506.441L435.961 92.3748V0H426.852V111H431.929Z" fill="#565440"/>
<path d="M535.787 0V111H544.896V67.8917H568.489C580.285 67.8917 589.245 64.5873 595.516 57.9784C601.937 51.2192 605.073 43.2585 605.073 33.9459C605.073 24.7835 602.087 16.8227 595.964 10.0636C589.991 3.30447 581.331 0 569.833 0H535.787ZM544.896 59.3302V8.71177H570.281C585.96 8.71177 595.815 19.226 595.815 33.7957C595.815 48.3654 585.512 59.3302 568.638 59.3302H544.896Z" fill="#565440"/>
<path d="M629.361 42.8078V0H620.253V111H657.733C669.828 111 679.086 107.696 685.208 101.087C691.33 94.3275 694.466 86.5169 694.466 77.3545C694.466 69.6942 692.226 62.184 687 54.9743C681.773 47.7645 671.47 42.8078 657.733 42.8078H629.361ZM710.891 111H720V0H710.891V111ZM629.361 102.288V51.3694H657.285C674.606 51.3694 685.059 61.5832 685.059 76.6035C685.059 91.774 674.307 102.288 656.239 102.288H629.361Z" fill="#565440"/>
</svg>
