<svg width="361" height="54" viewBox="0 0 361 54" fill="none" xmlns="http://www.w3.org/2000/svg">
<path d="M38.7063 54L15.1333 25.502L36.6691 0H31.2851L4.43812 31.567V0H0V54H4.43812V37.7781L12.1503 28.7172L33.0313 54H38.7063Z" fill="#565440"/>
<path d="M70.6462 24.7713C75.3026 23.2368 78.2856 18.6333 78.2856 13.4452C78.2856 9.79161 76.976 6.64953 74.3568 4.01894C71.8103 1.31529 68.0997 0 63.3706 0H44.0175V54H64.0982C69.5549 54 73.702 52.4655 76.685 49.4696C79.668 46.4005 81.1231 42.82 81.1231 38.6549C81.1231 32.2977 77.3398 26.5981 70.6462 24.7713ZM62.9341 4.23816C69.8459 4.23816 73.7747 8.11096 73.7747 13.4452C73.7747 18.7794 69.6276 23.0176 63.7344 23.0176H48.4556V4.23816H62.9341ZM48.4556 49.7618V27.2557H63.6616C67.5177 27.2557 70.5735 28.3518 72.9744 30.4709C75.3754 32.59 76.5395 35.2206 76.5395 38.4357C76.5395 41.6509 75.3754 44.3545 72.9744 46.5467C70.6462 48.6658 67.5904 49.7618 63.7344 49.7618H48.4556Z" fill="#565440"/>
<path d="M128.594 54L107.276 0H104.875L83.4121 54H88.2867L94.6893 37.6319H117.316L123.719 54H128.594ZM115.861 33.4668H96.1444L106.039 7.96481L115.861 33.4668Z" fill="#565440"/>
<path d="M135.676 0V54H140.114V33.0284H151.61C157.357 33.0284 161.723 31.4208 164.778 28.2057C167.907 24.9175 169.435 21.0447 169.435 16.5142C169.435 12.0568 167.98 8.18403 164.997 4.8958C162.086 1.60758 157.867 0 152.264 0H135.676ZM140.114 28.8633V4.23816H152.483C160.122 4.23816 164.924 9.35318 164.924 16.4411C164.924 23.5291 159.904 28.8633 151.682 28.8633H140.114Z" fill="#565440"/>
<path d="M187.531 54H191.969V4.31123H208.267V0H171.234V4.31123H187.531V54Z" fill="#565440"/>
<path d="M217.73 54L252.143 8.84168V54H256.581V0H254.035L219.694 44.9391V0H215.256V54H217.73Z" fill="#565440"/>
<path d="M269.789 0V54H274.227V33.0284H285.722C291.47 33.0284 295.836 31.4208 298.891 28.2057C302.02 24.9175 303.548 21.0447 303.548 16.5142C303.548 12.0568 302.093 8.18403 299.11 4.8958C296.199 1.60758 291.979 0 286.377 0H269.789ZM274.227 28.8633V4.23816H286.595C294.235 4.23816 299.037 9.35318 299.037 16.4411C299.037 23.5291 294.017 28.8633 285.795 28.8633H274.227Z" fill="#565440"/>
<path d="M316.837 20.8254V0H312.399V54H330.661C336.554 54 341.065 52.3924 344.048 49.1773C347.031 45.889 348.559 42.0893 348.559 37.6319C348.559 33.9053 347.467 30.2517 344.921 26.7442C342.374 23.2368 337.354 20.8254 330.661 20.8254H316.837ZM356.562 54H361V0H356.562V54ZM316.837 49.7618V24.9905H330.442C338.882 24.9905 343.975 29.9594 343.975 37.2666C343.975 44.6468 338.737 49.7618 329.933 49.7618H316.837Z" fill="#565440"/>
</svg>
