<svg width="360" height="63" viewBox="0 0 360 63" fill="none" xmlns="http://www.w3.org/2000/svg">
<path d="M5.07739 62.0105V5.85471H38.8175V62.0105H43.8129V1.07199H0V62.0105H5.07739Z" fill="#C49F8A"/>
<path d="M57.1046 1.07199V62.0105H62.1001V38.3442H75.0393C81.5088 38.3442 86.4224 36.5301 89.862 32.9018C93.3834 29.1911 95.1031 24.8207 95.1031 19.7081C95.1031 14.678 93.4653 10.3076 90.1076 6.59686C86.8319 2.88613 82.0821 1.07199 75.7763 1.07199H57.1046ZM62.1001 33.644V5.85471H76.022C84.6208 5.85471 90.0257 11.627 90.0257 19.6257C90.0257 27.6243 84.3751 33.644 75.1212 33.644H62.1001Z" fill="#C49F8A"/>
<path d="M129.552 63C138.233 63 145.603 59.9489 151.663 53.7644C157.805 47.5798 160.835 40.1584 160.835 31.5C160.835 22.8416 157.805 15.4202 151.663 9.2356C145.603 3.05105 138.315 0 129.716 0C121.117 0 113.747 3.13351 107.687 9.31806C101.626 15.5026 98.5964 22.9241 98.5964 31.6649C98.5964 40.3233 101.626 47.7448 107.605 53.8469C113.583 59.9489 120.953 63 129.552 63ZM129.716 58.1348C122.427 58.1348 116.203 55.5785 111.208 50.466C106.212 45.2709 103.674 39.0039 103.674 31.5825C103.674 24.161 106.212 17.894 111.208 12.699C116.285 7.50393 122.427 4.86518 129.716 4.86518C137.004 4.86518 143.146 7.42146 148.142 12.6165C153.137 17.8115 155.676 24.0785 155.676 31.5825C155.676 39.0039 153.137 45.2709 148.142 50.466C143.146 55.5785 137.004 58.1348 129.716 58.1348Z" fill="#C49F8A"/>
<path d="M206.561 62.0105V57.2277H174.95V33.4791H204.268V28.7788H174.95V5.85471H206.397V1.07199H169.954V62.0105H206.561Z" fill="#C49F8A"/>
<path d="M259.43 62.0105L232.896 29.8508L257.137 1.07199H251.077L220.858 36.695V1.07199H215.863V62.0105H220.858V43.7042L229.539 33.4791L253.042 62.0105H259.43Z" fill="#C49F8A"/>
<path d="M275.071 62.0105H280.067V5.93717H298.411V1.07199H256.727V5.93717H275.071V62.0105Z" fill="#C49F8A"/>
<path d="M310.291 24.5733V1.07199H305.295V62.0105H325.85C332.484 62.0105 337.561 60.1963 340.919 56.5681C344.276 52.8573 345.996 48.5694 345.996 43.5393C345.996 39.3338 344.768 35.2107 341.902 31.2526C339.035 27.2945 333.385 24.5733 325.85 24.5733H310.291ZM355.005 62.0105H360V1.07199H355.005V62.0105ZM310.291 57.2277V29.2736H325.605C335.104 29.2736 340.837 34.8809 340.837 43.127C340.837 51.4555 334.941 57.2277 325.032 57.2277H310.291Z" fill="#C49F8A"/>
</svg>
