<svg width="720" height="127" viewBox="0 0 720 127" fill="none" xmlns="http://www.w3.org/2000/svg">
<path d="M11.1266 124.537H11.6266V124.037V13.1165H77.9192V124.037V124.537H78.4192H88.3825H88.8825V124.037V3.12697V2.62697H88.3825H1H0.5V3.12697V124.037V124.537H1H11.1266ZM114.892 2.62697H114.392V3.12697V124.037V124.537H114.892H124.855H125.355V124.037V77.5798H150.662C163.66 77.5798 173.607 73.9509 180.587 66.6263C187.699 59.1699 191.178 50.3745 191.178 40.1034C191.178 30.003 187.868 21.2115 181.087 13.755C174.433 6.25775 164.806 2.62697 152.132 2.62697H114.892ZM412.974 124.537H413.474V124.037V114.547V114.047H412.974H350.428V67.9267H408.4H408.9V67.4267V58.1008V57.6008H408.4H350.428V13.1165H412.647H413.147V12.6165V3.12697V2.62697H412.647H339.964H339.464V3.12697V124.037V124.537H339.964H412.974ZM518.418 124.537H519.483L518.803 123.717L466.151 60.2311L512.528 5.45582V12.7801V13.2801H513.028H549.115V124.037V124.537H549.615H559.578H560.078V124.037V13.2801H596.164H596.664V12.7801V3.12697V2.62697H596.164H514.924H513.845H513.028H512.528H501.759H501.528L501.378 2.80254L441.989 72.4506V3.12697V2.62697H441.489H431.526H431.026V3.12697V124.037V124.537H431.526H441.489H441.989V124.037V87.899L458.797 68.2037L505.293 124.356L505.443 124.537H505.678H518.418ZM650.891 49.2565H620.358V3.12697V2.62697H619.858H609.894H609.394V3.12697V124.037V124.537H609.894H650.891C664.207 124.537 674.488 120.912 681.31 113.579L681.313 113.575C688.091 106.124 691.57 97.497 691.57 87.3874C691.57 78.937 689.086 70.6535 683.308 62.7149C677.471 54.696 666.026 49.2565 650.891 49.2565ZM708.537 124.037V124.537H709.037H719H719.5V124.037V3.12697V2.62697H719H709.037H708.537V3.12697V124.037ZM125.355 67.2539V13.1165H152.622C161.082 13.1165 167.931 15.9391 172.664 20.68C177.397 25.4218 180.051 32.1198 180.051 39.9398C180.051 47.7536 177.279 54.573 172.261 59.4393C167.243 64.3057 159.943 67.2539 150.825 67.2539H125.355ZM259.384 126.5C276.829 126.5 291.658 120.394 303.84 108.026C316.182 95.6618 322.277 80.8103 322.277 63.5C322.277 46.1897 316.182 31.3382 303.84 18.9737C291.659 6.60714 276.995 0.5 259.711 0.5C242.426 0.5 227.598 6.77217 215.419 19.1373C203.24 31.5021 197.145 46.3533 197.145 63.8272C197.145 81.1372 203.24 95.9885 215.255 108.19C227.274 120.395 242.103 126.5 259.384 126.5ZM259.711 115.847C245.304 115.847 233.022 110.826 223.156 100.782C213.285 90.5685 208.272 78.2594 208.272 63.6636C208.272 49.0677 213.285 36.7585 223.156 26.5452C233.19 16.3329 245.311 11.1531 259.711 11.1531C274.116 11.1531 286.235 16.1731 296.101 26.3802C305.973 36.5932 310.987 48.9027 310.987 63.6636C310.987 78.2589 305.974 90.5677 296.104 100.781C286.237 110.826 274.117 115.847 259.711 115.847ZM620.358 114.047V59.5825H650.401C659.777 59.5825 667.241 62.3342 672.356 67.0578C677.468 71.778 680.28 78.5101 680.28 86.5694C680.28 94.7077 677.388 101.562 672.093 106.385C666.794 111.213 659.044 114.047 649.257 114.047H620.358Z" stroke="#C49F8A"/>
</svg>
