<svg width="485" height="138" viewBox="0 0 485 138" fill="none" xmlns="http://www.w3.org/2000/svg">
<path d="M0 2.34817V135.832H11.0183V83.9922H39.5576C53.8272 83.9922 64.6649 80.0183 72.2513 72.0707C80.0183 63.9424 83.8115 54.3691 83.8115 43.1702C83.8115 32.1518 80.199 22.5785 72.7932 14.4503C65.5681 6.32199 55.0916 2.34817 41.1833 2.34817H0ZM11.0183 73.6963V12.8246H41.7251C60.6911 12.8246 72.6126 25.4686 72.6126 42.9895C72.6126 60.5105 60.1492 73.6963 39.7382 73.6963H11.0183Z" fill="#C49F8A"/>
<path d="M188.016 135.832L135.092 2.34817H129.131L75.8455 135.832H87.9476L103.843 95.3717H160.018L175.914 135.832H188.016ZM156.406 85.0759H107.455L132.021 22.0366L156.406 85.0759Z" fill="#C49F8A"/>
<path d="M287.243 135.832L251.478 78.3927C262.135 76.4058 270.264 72.0707 275.863 65.0262C281.643 57.9817 284.533 49.8534 284.533 41.0026C284.533 30.5262 280.921 21.4948 273.515 13.9084C266.29 6.14136 255.813 2.34817 242.266 2.34817H201.986V135.832H213.004V79.4764H239.737L273.876 135.832H287.243ZM242.447 12.8246C261.413 12.8246 273.154 24.2042 273.154 40.6414C273.154 57.4398 261.413 69 239.737 69H213.004V12.8246H242.447Z" fill="#C49F8A"/>
<path d="M402.69 135.832L344.166 65.3874L397.632 2.34817H384.265L317.614 80.3796V2.34817H306.595V135.832H317.614V95.733L336.76 73.3351L388.601 135.832H402.69Z" fill="#C49F8A"/>
<path d="M442.105 138C454.026 138 463.961 134.568 471.908 127.885C480.037 121.021 484.01 112.17 484.01 101.332C484.01 88.3272 476.785 78.0314 462.516 70.2644C459.806 68.8194 454.749 66.4712 447.343 63.2199C439.937 59.9686 435.06 57.6204 432.712 56.356C422.055 50.7565 416.636 43.3508 416.636 34.1387C416.636 19.8691 427.835 10.2958 443.55 10.2958C455.471 10.2958 465.225 15.7147 472.811 26.5524L481.12 19.8691C471.908 6.68325 459.264 0 443.369 0C431.989 0 422.597 3.25131 415.552 9.93456C408.508 16.4372 405.076 24.7461 405.076 34.6806C405.076 48.2278 412.662 58.8848 427.835 66.4712C430.183 67.7356 434.518 69.7225 441.021 72.6126C447.704 75.5026 452.22 77.6702 454.749 78.9346C466.309 84.7147 472.27 91.3979 472.27 101.694C472.27 109.099 469.38 115.241 463.78 120.118C458.181 124.995 450.775 127.524 441.743 127.524C426.029 127.524 413.746 118.853 407.063 104.223L398.212 110.183C406.34 128.427 423.319 138 442.105 138Z" fill="#C49F8A"/>
</svg>
