<svg width="306" height="87" viewBox="0 0 306 87" fill="none" xmlns="http://www.w3.org/2000/svg">
<path d="M0 1.48037V85.6335H6.94634V52.9516H24.9385C33.9346 52.9516 40.767 50.4463 45.5497 45.4359C50.4463 40.3115 52.8377 34.2762 52.8377 27.216C52.8377 20.2696 50.5602 14.2343 45.8914 9.10995C41.3364 3.9856 34.7317 1.48037 25.9634 1.48037H0ZM6.94634 46.4607V8.08508H26.305C38.2618 8.08508 45.7775 16.0563 45.7775 27.1021C45.7775 38.1479 37.9202 46.4607 25.0524 46.4607H6.94634Z" fill="#C49F8A"/>
<path d="M118.532 85.6335L85.1664 1.48037H81.4086L47.8157 85.6335H55.4452L65.4662 60.1257H100.881L110.902 85.6335H118.532ZM98.6036 53.6348H67.7437L83.2306 13.8927L98.6036 53.6348Z" fill="#C49F8A"/>
<path d="M181.088 85.6335L158.541 49.4215C165.259 48.1688 170.384 45.4359 173.914 40.9948C177.558 36.5537 179.38 31.4293 179.38 25.8495C179.38 19.2448 177.102 13.551 172.433 8.76833C167.878 3.87172 161.274 1.48037 152.733 1.48037H127.339V85.6335H134.285V50.1047H151.139L172.661 85.6335H181.088ZM152.847 8.08508C164.804 8.08508 172.206 15.2592 172.206 25.6217C172.206 36.212 164.804 43.5 151.139 43.5H134.285V8.08508H152.847Z" fill="#C49F8A"/>
<path d="M253.87 85.6335L216.974 41.2225L250.681 1.48037H242.254L200.235 50.6741V1.48037H193.288V85.6335H200.235V60.3534L212.305 46.233L244.987 85.6335H253.87Z" fill="#C49F8A"/>
<path d="M278.718 87C286.234 87 292.497 84.8364 297.507 80.623C302.632 76.2958 305.137 70.716 305.137 63.8835C305.137 55.6846 300.582 49.1937 291.586 44.2971C289.878 43.3861 286.689 41.9058 282.02 39.856C277.352 37.8063 274.277 36.3259 272.797 35.5288C266.078 31.9987 262.662 27.3298 262.662 21.5223C262.662 12.5262 269.722 6.49084 279.629 6.49084C287.145 6.49084 293.294 9.90707 298.077 16.7395L303.315 12.5262C297.507 4.21335 289.536 0 279.515 0C272.341 0 266.42 2.04974 261.979 6.26309C257.538 10.3626 255.374 15.6008 255.374 21.8639C255.374 30.4045 260.157 37.123 269.722 41.9058C271.202 42.7029 273.935 43.9555 278.035 45.7775C282.248 47.5995 285.095 48.966 286.689 49.7631C293.977 53.4071 297.735 57.6204 297.735 64.1113C297.735 68.7801 295.913 72.6518 292.383 75.7264C288.853 78.801 284.184 80.3953 278.49 80.3953C268.583 80.3953 260.84 74.9293 256.627 65.7055L251.047 69.4633C256.171 80.9647 266.875 87 278.718 87Z" fill="#C49F8A"/>
</svg>
