<svg width="381" height="63" viewBox="0 0 381 63" fill="none" xmlns="http://www.w3.org/2000/svg">
<path d="M0 1.07199V62.0105H5.0301V38.3442H18.0589C24.5733 38.3442 29.5209 36.5301 32.9843 32.9018C36.5301 29.1911 38.2618 24.8207 38.2618 19.7081C38.2618 14.678 36.6126 10.3076 33.2317 6.59686C29.9332 2.88613 25.1505 1.07199 18.801 1.07199H0ZM5.0301 33.644V5.85471H19.0484C27.7068 5.85471 33.1492 11.627 33.1492 19.6257C33.1492 27.6243 27.4594 33.644 18.1414 33.644H5.0301Z" fill="#C49F8A"/>
<path d="M84.9062 62.0105L68.579 35.788C73.4442 34.8809 77.1549 32.9018 79.7112 29.6859C82.3499 26.4699 83.6693 22.7592 83.6693 18.7186C83.6693 13.9359 82.0201 9.81283 78.6392 6.34948C75.3408 2.80366 70.558 1.07199 64.3735 1.07199H45.9847V62.0105H51.0149V36.2827H63.219L78.8041 62.0105H84.9062ZM64.4559 5.85471C73.1143 5.85471 78.4743 11.0497 78.4743 18.5537C78.4743 26.2225 73.1143 31.5 63.219 31.5H51.0149V5.85471H64.4559Z" fill="#C49F8A"/>
<path d="M120.223 63C128.963 63 136.385 59.949 142.487 53.7644C148.672 47.5798 151.723 40.1584 151.723 31.5C151.723 22.8416 148.672 15.4202 142.487 9.2356C136.385 3.05105 129.046 0 120.388 0C111.729 0 104.308 3.13351 98.2056 9.31806C92.1035 15.5026 89.0524 22.9241 89.0524 31.6649C89.0524 40.3233 92.1035 47.7448 98.1231 53.8469C104.143 59.949 111.564 63 120.223 63ZM120.388 58.1348C113.049 58.1348 106.781 55.5785 101.751 50.466C96.7213 45.2709 94.165 39.0039 94.165 31.5825C94.165 24.161 96.7213 17.894 101.751 12.699C106.864 7.50393 113.049 4.86518 120.388 4.86518C127.727 4.86518 133.911 7.42146 138.941 12.6165C143.971 17.8115 146.528 24.0785 146.528 31.5825C146.528 39.0039 143.971 45.2709 138.941 50.466C133.911 55.5785 127.727 58.1348 120.388 58.1348Z" fill="#C49F8A"/>
<path d="M168.561 63C174.086 63 178.538 61.2683 182.084 57.8874C185.63 54.4241 187.362 49.4764 187.362 42.962V1.07199H182.249V43.2919C182.249 52.5275 176.559 58.2173 168.561 58.2173C163.201 58.2173 158.088 55.661 154.79 51.373L151.409 54.9188C155.862 60.2788 161.552 63 168.561 63Z" fill="#C49F8A"/>
<path d="M236.905 62.0105V57.2278H205.075V33.4791H234.596V28.7788H205.075V5.85471H236.74V1.07199H200.045V62.0105H236.905Z" fill="#C49F8A"/>
<path d="M272.193 62.9175C283.325 62.9175 292.973 57.7225 298.827 49.8063L295.199 46.8377C289.922 53.8469 281.511 58.1348 272.275 58.1348C264.771 58.1348 258.504 55.661 253.474 50.7133C248.526 45.6832 246.053 39.3338 246.053 31.6649C246.053 23.9136 248.526 17.4817 253.556 12.4516C258.587 7.42146 264.854 4.86518 272.358 4.86518C281.84 4.86518 290.416 9.48299 294.952 16.4097L298.827 13.5236C296.271 9.48299 292.643 6.26701 287.86 3.79319C283.077 1.23691 277.882 0 272.358 0C263.699 0 256.278 2.96859 250.093 8.98822C243.991 14.9254 240.94 22.5118 240.94 31.7474C240.94 40.9005 243.991 48.322 250.011 54.1767C256.03 60.0314 263.452 62.9175 272.193 62.9175Z" fill="#C49F8A"/>
<path d="M317.647 62.0105H322.677V5.93717H341.148V1.07199H299.176V5.93717H317.647V62.0105Z" fill="#C49F8A"/>
<path d="M361.286 63C366.728 63 371.263 61.4332 374.892 58.3822C378.602 55.2487 380.417 51.2081 380.417 46.2605C380.417 40.3233 377.118 35.623 370.604 32.0772C369.367 31.4175 367.058 30.3456 363.677 28.8613C360.296 27.377 358.07 26.305 356.998 25.7277C352.132 23.1715 349.659 19.7906 349.659 15.5851C349.659 9.07068 354.771 4.70026 361.945 4.70026C367.388 4.70026 371.841 7.17408 375.304 12.1217L379.097 9.07068C374.892 3.05105 369.119 0 361.863 0C356.668 0 352.38 1.48429 349.164 4.53534C345.948 7.50393 344.381 11.2971 344.381 15.8325C344.381 22.017 347.845 26.8822 354.771 30.3456C355.843 30.9228 357.822 31.8298 360.791 33.1492C363.842 34.4686 365.903 35.4581 367.058 36.0353C372.335 38.6741 375.057 41.7251 375.057 46.4254C375.057 49.8063 373.737 52.6099 371.181 54.8364C368.625 57.0628 365.244 58.2173 361.121 58.2173C353.947 58.2173 348.339 54.2592 345.288 47.5798L341.248 50.3011C344.958 58.6296 352.71 63 361.286 63Z" fill="#C49F8A"/>
</svg>
