<svg width="416" height="99" viewBox="0 0 416 99" fill="none" xmlns="http://www.w3.org/2000/svg">
<path d="M80.3647 97.3176L42.4471 1.68235H38.1765L0 97.3176H8.67059L20.0588 68.3294H60.3059L71.6941 97.3176H80.3647ZM57.7176 60.9529H22.6471L40.2471 15.7882L57.7176 60.9529Z" fill="#E9E4DC"/>
<path d="M137.739 45.5529C146.021 42.8353 151.327 34.6824 151.327 25.4941C151.327 19.0235 148.997 13.4588 144.339 8.8C139.809 4.01177 133.209 1.68235 124.797 1.68235H90.3739V97.3176H126.092C135.797 97.3176 143.174 94.6 148.48 89.2941C153.786 83.8588 156.374 77.5176 156.374 70.1412C156.374 58.8824 149.644 48.7882 137.739 45.5529ZM124.021 9.18823C136.315 9.18823 143.303 16.0471 143.303 25.4941C143.303 34.9412 135.927 42.4471 125.444 42.4471H98.268V9.18823H124.021ZM98.268 89.8118V49.9529H125.315C132.174 49.9529 137.609 51.8941 141.88 55.6471C146.15 59.4 148.221 64.0588 148.221 69.7529C148.221 75.4471 146.15 80.2353 141.88 84.1176C137.739 87.8706 132.303 89.8118 125.444 89.8118H98.268Z" fill="#E9E4DC"/>
<path d="M213.073 98.8706C226.791 98.8706 238.438 94.0824 248.015 84.3765C257.72 74.6706 262.509 63.0235 262.509 49.4353C262.509 35.8471 257.72 24.2 248.015 14.4941C238.438 4.78824 226.921 0 213.332 0C199.744 0 188.097 4.91765 178.52 14.6235C168.944 24.3294 164.156 35.9765 164.156 49.6941C164.156 63.2824 168.944 74.9294 178.391 84.5059C187.838 94.0824 199.485 98.8706 213.073 98.8706ZM213.332 91.2353C201.815 91.2353 191.979 87.2235 184.085 79.2C176.191 71.0471 172.179 61.2118 172.179 49.5647C172.179 37.9176 176.191 28.0824 184.085 19.9294C192.109 11.7765 201.815 7.6353 213.332 7.6353C224.85 7.6353 234.556 11.6471 242.45 19.8C250.344 27.9529 254.356 37.7882 254.356 49.5647C254.356 61.2118 250.344 71.0471 242.45 79.2C234.556 87.2235 224.85 91.2353 213.332 91.2353Z" fill="#E9E4DC"/>
<path d="M275.884 66.2588C275.884 76.4824 278.86 84.5059 284.684 90.3294C290.637 96.1529 298.531 99 308.237 99C317.942 99 325.837 96.1529 331.66 90.3294C337.484 84.5059 340.46 76.4824 340.46 66.2588V1.68235H332.566V64.9647C332.566 81.4 323.637 91.1059 308.237 91.1059C292.707 91.1059 283.778 81.5294 283.778 64.9647V1.68235H275.884V66.2588Z" fill="#E9E4DC"/>
<path d="M378.193 97.3176H386.087V9.31765H415.075V1.68235H349.204V9.31765H378.193V97.3176Z" fill="#E9E4DC"/>
</svg>
