<svg width="210" height="50" viewBox="0 0 210 50" fill="none" xmlns="http://www.w3.org/2000/svg">
<path d="M40.5882 49.1503L21.4379 0.849674H19.281L0 49.1503H4.37908L10.1307 34.5098H30.4575L36.2092 49.1503H40.5882ZM29.1503 30.7843H11.4379L20.3268 7.97385L29.1503 30.7843Z" fill="#E9E4DC"/>
<path d="M69.5649 23.0065C73.748 21.634 76.4277 17.5163 76.4277 12.8758C76.4277 9.60784 75.2512 6.79739 72.8983 4.44445C70.6107 2.02614 67.2774 0.849674 63.029 0.849674H45.6434V49.1503H63.6826C68.5846 49.1503 72.31 47.7778 74.9898 45.098C77.6695 42.3529 78.9767 39.1503 78.9767 35.4248C78.9767 29.7386 75.578 24.6405 69.5649 23.0065ZM62.6368 4.64052C68.846 4.64052 72.3754 8.10458 72.3754 12.8758C72.3754 17.6471 68.6499 21.4379 63.3558 21.4379H49.6303V4.64052H62.6368ZM49.6303 45.3595V25.2288H63.2904C66.7545 25.2288 69.4996 26.2092 71.6564 28.1046C73.8133 30 74.8591 32.3529 74.8591 35.2288C74.8591 38.1046 73.8133 40.5229 71.6564 42.4837C69.5649 44.3791 66.8198 45.3595 63.3558 45.3595H49.6303Z" fill="#E9E4DC"/>
<path d="M107.613 49.9346C114.541 49.9346 120.423 47.5163 125.26 42.6144C130.162 37.7124 132.58 31.8301 132.58 24.9673C132.58 18.1046 130.162 12.2222 125.26 7.32026C120.423 2.4183 114.606 0 107.744 0C100.881 0 94.9985 2.48366 90.1619 7.38562C85.3253 12.2876 82.907 18.1699 82.907 25.098C82.907 31.9608 85.3253 37.8431 90.0965 42.6797C94.8677 47.5163 100.75 49.9346 107.613 49.9346ZM107.744 46.0784C101.927 46.0784 96.9593 44.0523 92.9723 40C88.9854 35.8824 86.9592 30.915 86.9592 25.0327C86.9592 19.1503 88.9854 14.183 92.9723 10.0654C97.0246 5.94771 101.927 3.85621 107.744 3.85621C113.561 3.85621 118.463 5.88235 122.449 10C126.436 14.1176 128.463 19.085 128.463 25.0327C128.463 30.915 126.436 35.8824 122.449 40C118.463 44.0523 113.561 46.0784 107.744 46.0784Z" fill="#E9E4DC"/>
<path d="M139.335 33.4641C139.335 38.6274 140.838 42.6797 143.78 45.6209C146.786 48.5621 150.773 50 155.675 50C160.577 50 164.564 48.5621 167.505 45.6209C170.446 42.6797 171.95 38.6274 171.95 33.4641V0.849674H167.963V32.8105C167.963 41.1111 163.453 46.0131 155.675 46.0131C147.832 46.0131 143.322 41.1765 143.322 32.8105V0.849674H139.335V33.4641Z" fill="#E9E4DC"/>
<path d="M191.006 49.1503H194.993V4.70588H209.634V0.849674H176.366V4.70588H191.006V49.1503Z" fill="#E9E4DC"/>
</svg>
