<svg width="843" height="201" viewBox="0 0 843 201" fill="none" xmlns="http://www.w3.org/2000/svg">
<path d="M163.165 197.584L86.1804 3.41569H77.5098L0 197.584H17.6039L40.7255 138.729H122.439L145.561 197.584H163.165ZM117.184 123.753H45.9804L81.7137 32.0549L117.184 123.753Z" fill="#E9E4DC"/>
<path d="M279.651 92.4863C296.467 86.9686 307.239 70.4157 307.239 51.7608C307.239 38.6235 302.51 27.3255 293.051 17.8667C283.855 8.1451 270.455 3.41569 253.377 3.41569H183.486V197.584H256.004C275.71 197.584 290.686 192.067 301.459 181.294C312.232 170.259 317.486 157.384 317.486 142.408C317.486 119.549 303.824 99.0549 279.651 92.4863ZM251.8 18.6549C276.761 18.6549 290.949 32.5804 290.949 51.7608C290.949 70.9412 275.973 86.1804 254.69 86.1804H199.514V18.6549H251.8ZM199.514 182.345V101.42H254.428C268.353 101.42 279.388 105.361 288.059 112.98C296.73 120.6 300.933 130.059 300.933 141.62C300.933 153.18 296.73 162.902 288.059 170.784C279.651 178.404 268.616 182.345 254.69 182.345H199.514Z" fill="#E9E4DC"/>
<path d="M432.604 200.737C460.455 200.737 484.102 191.016 503.545 171.31C523.251 151.604 532.972 127.957 532.972 100.369C532.972 72.7804 523.251 49.1333 503.545 29.4274C484.102 9.72157 460.717 0 433.129 0C405.541 0 381.894 9.98431 362.451 29.6902C343.008 49.3961 333.286 73.0431 333.286 100.894C333.286 128.482 343.008 152.129 362.188 171.573C381.368 191.016 405.015 200.737 432.604 200.737ZM433.129 185.235C409.745 185.235 389.776 177.09 373.749 160.8C357.721 144.247 349.576 124.278 349.576 100.631C349.576 76.9843 357.721 57.0157 373.749 40.4627C390.039 23.9098 409.745 15.502 433.129 15.502C456.513 15.502 476.219 23.6471 492.247 40.2C508.274 56.7529 516.419 76.7216 516.419 100.631C516.419 124.278 508.274 144.247 492.247 160.8C476.219 177.09 456.513 185.235 433.129 185.235Z" fill="#E9E4DC"/>
<path d="M560.127 134.525C560.127 155.282 566.171 171.573 577.994 183.396C590.08 195.22 606.108 201 625.814 201C645.52 201 661.547 195.22 673.371 183.396C685.194 171.573 691.237 155.282 691.237 134.525V3.41569H675.21V131.898C675.21 165.267 657.08 184.973 625.814 184.973C594.284 184.973 576.155 165.529 576.155 131.898V3.41569H560.127V134.525Z" fill="#E9E4DC"/>
<path d="M767.846 197.584H783.873V18.9177H842.728V3.41569H708.991V18.9177H767.846V197.584Z" fill="#E9E4DC"/>
</svg>
