<svg width="900" height="600" viewBox="0 0 900 600" fill="none" xmlns="http://www.w3.org/2000/svg">
<path d="M569.5 437.203L558.75 429L555.25 394.25L556.5 385.75L569.5 332.25L559.75 328.875L556.25 291.25L557.125 286.625L568.25 238.75L557.125 236.75L556.5 187.75V131.5L564.375 97.875L496.875 82.25L494.25 93.625L393.625 94.375L342.125 82.625L339.125 92.125H324V366.125V467.25V520.25H556.825L557.474 487.31L562.486 467.948L569.5 437.203Z" fill="#DBD4CA"/>
<mask id="mask0" mask-type="alpha" maskUnits="userSpaceOnUse" x="332" y="206" width="66" height="311">
<path fill-rule="evenodd" clip-rule="evenodd" d="M397.5 206.25H332.5V352.5H397.5V206.25ZM397.5 433.75H332.5V516.25H397.5V433.75Z" fill="#C4C4C4"/>
</mask>
<g mask="url(#mask0)">
<path d="M52.5148 432.651L469.369 15.797" stroke="#C49F8A" stroke-miterlimit="10"/>
<path d="M39.488 419.624L456.342 2.77026" stroke="#C49F8A" stroke-miterlimit="10"/>
<path d="M65.5414 445.678L482.395 28.8236" stroke="#C49F8A" stroke-miterlimit="10"/>
<path d="M78.5681 458.704L495.422 41.8503" stroke="#C49F8A" stroke-miterlimit="10"/>
<path d="M91.5947 471.731L508.449 54.877" stroke="#C49F8A" stroke-miterlimit="10"/>
<path d="M104.621 484.758L521.475 67.9037" stroke="#C49F8A" stroke-miterlimit="10"/>
<path d="M117.648 497.784L534.502 80.9304" stroke="#C49F8A" stroke-miterlimit="10"/>
<path d="M130.675 510.811L547.529 93.957" stroke="#C49F8A" stroke-miterlimit="10"/>
<path d="M143.702 523.838L560.556 106.984" stroke="#C49F8A" stroke-miterlimit="10"/>
<path d="M156.728 536.864L573.582 120.01" stroke="#C49F8A" stroke-miterlimit="10"/>
<path d="M143.702 523.838L560.556 106.984" stroke="#C49F8A" stroke-miterlimit="10"/>
<path d="M169.755 549.891L586.609 133.037" stroke="#C49F8A" stroke-miterlimit="10"/>
<path d="M182.782 562.918L599.636 146.064" stroke="#C49F8A" stroke-miterlimit="10"/>
<path d="M195.808 575.944L612.662 159.09" stroke="#C49F8A" stroke-miterlimit="10"/>
<path d="M208.835 588.971L625.689 172.117" stroke="#C49F8A" stroke-miterlimit="10"/>
<path d="M221.862 601.998L638.716 185.144" stroke="#C49F8A" stroke-miterlimit="10"/>
<path d="M234.888 615.025L651.742 198.171" stroke="#C49F8A" stroke-miterlimit="10"/>
<path d="M247.915 628.051L664.769 211.197" stroke="#C49F8A" stroke-miterlimit="10"/>
<path d="M260.942 641.078L677.796 224.224" stroke="#C49F8A" stroke-miterlimit="10"/>
<path d="M247.915 628.051L664.769 211.197" stroke="#C49F8A" stroke-miterlimit="10"/>
<path d="M273.968 654.105L690.822 237.251" stroke="#C49F8A" stroke-miterlimit="10"/>
<path d="M286.995 667.131L703.849 250.277" stroke="#C49F8A" stroke-miterlimit="10"/>
<path d="M300.022 680.158L716.876 263.304" stroke="#C49F8A" stroke-miterlimit="10"/>
<path d="M313.048 693.185L729.902 276.331" stroke="#C49F8A" stroke-miterlimit="10"/>
<path d="M326.075 706.211L742.929 289.357" stroke="#C49F8A" stroke-miterlimit="10"/>
<path d="M339.102 719.238L755.956 302.384" stroke="#C49F8A" stroke-miterlimit="10"/>
<path d="M352.129 732.265L768.983 315.411" stroke="#C49F8A" stroke-miterlimit="10"/>
<path d="M365.155 745.291L782.009 328.437" stroke="#C49F8A" stroke-miterlimit="10"/>
<path d="M352.129 732.265L768.983 315.411" stroke="#C49F8A" stroke-miterlimit="10"/>
<path d="M378.182 758.318L795.036 341.464" stroke="#C49F8A" stroke-miterlimit="10"/>
<path d="M391.209 771.345L808.063 354.491" stroke="#C49F8A" stroke-miterlimit="10"/>
<path d="M469.369 823.451L52.5148 406.598" stroke="#C49F8A" stroke-miterlimit="10"/>
<path d="M456.342 836.478L39.488 419.624" stroke="#C49F8A" stroke-miterlimit="10"/>
<path d="M482.395 810.425L65.5414 393.571" stroke="#C49F8A" stroke-miterlimit="10"/>
<path d="M495.422 797.398L78.5681 380.544" stroke="#C49F8A" stroke-miterlimit="10"/>
<path d="M508.449 784.371L91.5948 367.517" stroke="#C49F8A" stroke-miterlimit="10"/>
<path d="M521.475 771.345L104.621 354.491" stroke="#C49F8A" stroke-miterlimit="10"/>
<path d="M534.502 758.318L117.648 341.464" stroke="#C49F8A" stroke-miterlimit="10"/>
<path d="M547.529 745.291L130.675 328.437" stroke="#C49F8A" stroke-miterlimit="10"/>
<path d="M560.555 732.265L143.702 315.411" stroke="#C49F8A" stroke-miterlimit="10"/>
<path d="M573.582 719.238L156.728 302.384" stroke="#C49F8A" stroke-miterlimit="10"/>
<path d="M560.555 732.265L143.702 315.411" stroke="#C49F8A" stroke-miterlimit="10"/>
<path d="M586.609 706.211L169.755 289.357" stroke="#C49F8A" stroke-miterlimit="10"/>
<path d="M599.635 693.185L182.782 276.331" stroke="#C49F8A" stroke-miterlimit="10"/>
<path d="M612.662 680.158L195.808 263.304" stroke="#C49F8A" stroke-miterlimit="10"/>
<path d="M625.689 667.131L208.835 250.277" stroke="#C49F8A" stroke-miterlimit="10"/>
<path d="M638.715 654.104L221.862 237.251" stroke="#C49F8A" stroke-miterlimit="10"/>
<path d="M651.742 641.078L234.888 224.224" stroke="#C49F8A" stroke-miterlimit="10"/>
<path d="M664.769 628.051L247.915 211.197" stroke="#C49F8A" stroke-miterlimit="10"/>
<path d="M677.795 615.024L260.942 198.171" stroke="#C49F8A" stroke-miterlimit="10"/>
<path d="M664.769 628.051L247.915 211.197" stroke="#C49F8A" stroke-miterlimit="10"/>
<path d="M690.822 601.998L273.968 185.144" stroke="#C49F8A" stroke-miterlimit="10"/>
<path d="M703.849 588.971L286.995 172.117" stroke="#C49F8A" stroke-miterlimit="10"/>
<path d="M716.876 575.944L300.022 159.09" stroke="#C49F8A" stroke-miterlimit="10"/>
<path d="M729.902 562.918L313.048 146.064" stroke="#C49F8A" stroke-miterlimit="10"/>
<path d="M742.929 549.891L326.075 133.037" stroke="#C49F8A" stroke-miterlimit="10"/>
<path d="M755.956 536.864L339.102 120.01" stroke="#C49F8A" stroke-miterlimit="10"/>
<path d="M768.982 523.838L352.129 106.984" stroke="#C49F8A" stroke-miterlimit="10"/>
<path d="M782.009 510.811L365.155 93.957" stroke="#C49F8A" stroke-miterlimit="10"/>
<path d="M768.982 523.838L352.129 106.984" stroke="#C49F8A" stroke-miterlimit="10"/>
<path d="M795.036 497.784L378.182 80.9304" stroke="#C49F8A" stroke-miterlimit="10"/>
<path d="M808.062 484.757L391.209 67.9037" stroke="#C49F8A" stroke-miterlimit="10"/>
<g opacity="0.3">
<path opacity="0.7" d="M658 38H255V520H658V38Z" fill="#C49F8A"/>
</g>
</g>
<path d="M569.894 94.4649L495.769 77.1691L494.843 81.8018L564.644 97.8624L556.614 132.763V190.827H561.246V132.763L569.894 94.4649Z" stroke="#565440"/>
<path d="M568.659 334.135L573.292 335.062L560.938 389.111L556.305 388.185L568.659 334.135Z" stroke="#565440"/>
<path d="M568.659 238.391L573.292 239.317L560.938 293.367L556.305 292.44L568.659 238.391Z" stroke="#565440"/>
<path d="M340.725 77.7867L398.789 91.0675L397.863 95.7002L339.798 82.4198L340.725 77.7867Z" stroke="#565440"/>
<path d="M560.775 493.263L556.298 492.1L569.571 440.739L574.048 441.902L560.775 493.263Z" stroke="#565440"/>
<path d="M513.992 416.908C513.992 420.305 514.61 423.085 515.845 426.174C517.081 429.262 518.934 432.042 521.096 434.204C523.258 436.675 526.038 438.528 529.126 439.763C532.214 440.998 535.303 441.616 538.7 441.616V416.908M364.198 349.578C364.198 346.181 364.816 343.401 366.051 340.312C367.286 337.224 369.14 334.444 371.302 332.282C373.464 329.811 376.243 327.958 379.332 326.723C382.42 325.488 385.509 324.87 388.907 324.87V349.578H364.198ZM395.083 235.302C391.686 235.302 388.906 234.685 385.818 233.449C382.729 232.214 379.95 230.36 377.787 228.198C375.317 226.036 373.463 223.257 372.228 220.168C370.993 217.08 370.375 213.991 370.375 210.594H395.083V235.302ZM401.26 204.417C401.26 201.019 401.878 198.24 403.114 195.151C404.349 192.063 406.202 189.283 408.364 187.121C410.526 184.65 413.306 182.797 416.394 181.562C419.483 180.326 422.571 179.708 425.969 179.708V204.417H401.26ZM456.645 210.594C460.043 210.594 462.822 211.211 465.911 212.447C469 213.683 471.779 215.535 473.941 217.698C476.412 219.86 478.265 222.639 479.5 225.728C480.736 228.816 481.354 231.905 481.354 235.302H456.645V210.594ZM333.312 374.286C337.327 374.286 341.034 375.213 344.74 376.757C348.446 378.301 352.152 380.463 354.932 383.552C357.712 386.332 360.183 389.729 361.727 393.435C363.271 397.141 364.198 401.157 364.198 405.172H333.312V374.286ZM396.627 464.163C399.716 464.163 402.496 464.78 405.275 466.016C408.055 467.251 410.835 468.796 412.997 471.266C415.159 473.428 417.012 475.899 418.247 478.679C419.482 481.459 420.1 484.547 420.1 487.636H396.627L396.627 464.163Z" stroke="#565440"/>
<path d="M333.295 352.351H364.18V349.263H333.295V304H345V293.978H395.066V349.263H388.889V352.351H395.066H398.154V349.263V235.295H395.066V290.889H345V290.889V290.875H333.295V207.498H395.066V210.587H398.154V207.498H401.242V204.41H333.295V99.3997H342.56L347.502 78.3978L338.545 76.2356L335.275 90.134H333.295H324.029V374.28H333.295V352.351ZM341.875 300.875H333.295V294H341.875V300.875Z" fill="#565440"/>
<path d="M453.748 204.41H425.951V207.498H453.748V210.677H456.836V105.577H496.987V105.508L497.296 105.577L503.473 78.3978L488.339 75L484.9 90.134H456.836H388.889V99.3997H453.748V204.41Z" fill="#565440"/>
<path d="M564.246 289.744L549.193 286.346L546.413 298.083V338.416H561.775V338.391L572.894 340.887L575.056 331.93L561.775 328.949V300.451L564.246 289.744Z" fill="#565440"/>
<path d="M456.765 235.302H453.676V239.857H432.057V242.946L561.775 242.92L572.894 245.417L575.056 236.46L561.775 233.479V187.748H543.301V239.857H456.765V235.302Z" fill="#565440"/>
<path d="M561.763 431.291L561.765 428.344H561.765V427.662L561.769 417.518H561.775V388.266H543.272V408.253H543.272V408.253H538.683V417.518H543.272V417.526H543.272V440.349H560.036L573.798 443.438L573.799 443.435L573.809 443.437L575.971 434.481L561.763 431.291Z" fill="#565440"/>
<path d="M549.169 488.518L546.389 500.255V515.735H523.209H398.154V486.702H395.066V515.735H333.295V434.506H395.066V464.774H398.154V417.519H513.974V408.253H397.5V399.375H382.875V412.929V415.5V431.418H333.295V405.165H324.029V525H561.774L561.767 514.211H561.758L561.751 502.623L564.222 491.916L549.169 488.518ZM394.375 402.5V408.253H386V402.5H394.375ZM386 417.519H395.066V418.911H395V431.418H386V417.519Z" fill="#565440"/>
<path d="M496.194 106.181H457.444V172.556H496.194V106.181Z" fill="#E9E4DC"/>
<path d="M495.569 106.806V171.931H458.069V106.806H495.569ZM496.819 105.556H456.819V173.181H496.819V105.556Z" fill="#C49F8A"/>
<path d="M493.444 110.306H477.819V127.056H493.444V110.306Z" fill="#E9E4DC" stroke="#C49F8A"/>
<path d="M475.819 110.306H460.194V127.056H475.819V110.306Z" fill="#E9E4DC" stroke="#C49F8A"/>
<path d="M491.444 120.181L480.194 115.931L477.194 132.056L488.444 136.306L491.444 120.181Z" fill="#E9E4DC" stroke="#C49F8A" stroke-miterlimit="3.9998"/>
<path d="M476.319 132.056L473.319 115.931L462.069 120.181L465.069 136.431L476.319 132.056Z" fill="#E9E4DC" stroke="#C49F8A" stroke-miterlimit="3.9998"/>
<path d="M457.444 173.056V120.181L472.819 118.806L496.194 123.681V173.056H457.444Z" fill="#E9E4DC"/>
<path d="M472.694 119.556L495.444 124.306V172.556H457.944V120.806L472.694 119.556ZM472.819 118.181L456.819 119.556V120.681V173.681H496.819V123.556V123.181L472.819 118.181Z" fill="#C49F8A"/>
<path d="M457.319 121.431H472.944L496.319 124.181" stroke="#C49F8A"/>
<path d="M333.905 114.625L333.905 153.375L400.28 153.375L400.28 114.625L333.905 114.625Z" fill="#E9E4DC"/>
<path d="M334.53 115.25L399.655 115.25L399.655 152.75L334.53 152.75L334.53 115.25ZM333.28 114L333.28 154L400.905 154L400.905 114L333.28 114Z" fill="#C49F8A"/>
<path d="M338.03 117.375L338.03 133L354.78 133L354.78 117.375L338.03 117.375Z" fill="#E9E4DC" stroke="#C49F8A"/>
<path d="M338.03 135L338.03 150.625L354.78 150.625L354.78 135L338.03 135Z" fill="#E9E4DC" stroke="#C49F8A"/>
<path d="M347.905 119.375L343.655 130.625L359.78 133.625L364.03 122.375L347.905 119.375Z" fill="#E9E4DC" stroke="#C49F8A" stroke-miterlimit="3.9998"/>
<path d="M359.78 134.5L343.655 137.5L347.905 148.75L364.155 145.75L359.78 134.5Z" fill="#E9E4DC" stroke="#C49F8A" stroke-miterlimit="3.9998"/>
<path d="M400.78 153.375L347.905 153.375L346.53 138L351.405 114.625L400.78 114.625L400.78 153.375Z" fill="#E9E4DC"/>
<path d="M347.28 138.125L352.03 115.375L400.28 115.375L400.28 152.875L348.53 152.875L347.28 138.125ZM345.905 138L347.28 154L348.405 154L401.405 154L401.405 114L351.28 114L350.905 114L345.905 138Z" fill="#C49F8A"/>
<path d="M349.155 153.5L349.155 137.875L351.905 114.5" stroke="#C49F8A"/>
<path d="M505.125 455H454.875V515.125H505.125V455Z" fill="#E9E4DC"/>
<path d="M455.5 455.625H504.5V514.5H455.5V455.625ZM454.25 454.375V515.75H505.75V454.375H454.25Z" fill="#C49F8A"/>
<path d="M478.75 496.125H458.625V511.25H478.75V496.125Z" fill="#E9E4DC" stroke="#C49F8A"/>
<path d="M501.375 496.125H481.25V511.25H501.375V496.125Z" fill="#E9E4DC" stroke="#C49F8A"/>
<path d="M461.125 502.375L475.625 506.25L479.5 491.625L465 487.625L461.125 502.375Z" fill="#E9E4DC" stroke="#C49F8A" stroke-miterlimit="3.9998"/>
<path d="M480.5 491.625L484.375 506.25L498.875 502.375L495 487.625L480.5 491.625Z" fill="#E9E4DC" stroke="#C49F8A" stroke-miterlimit="3.9998"/>
<path d="M454.875 499.125V454.375H505V502.25L485.125 503.5L454.875 499.125Z" fill="#E9E4DC"/>
<path d="M455.5 455H504.5V501.75L485.25 503L455.625 498.625V455H455.5ZM454.25 453.75V499.375V499.75L485.125 504.25L505.75 503V502V453.75H454.25Z" fill="#C49F8A"/>
<path d="M505 501.25H484.875L454.75 498.75" stroke="#C49F8A"/>
<path d="M435.514 164.418H433.264V203.793H435.514V164.418Z" fill="#E9E4DC"/>
<path d="M434.889 165.043V203.168H433.889V165.043H434.889ZM436.139 163.793H432.639V204.418H436.139V163.793Z" fill="#C49F8A"/>
<path d="M453.139 164.418H435.514V203.793H453.139V164.418Z" fill="#E9E4DC"/>
<path d="M452.514 165.043V203.168H436.139V165.043H452.514ZM453.764 163.793H434.889V204.418H453.764V163.793Z" fill="#C49F8A"/>
<path d="M453.014 203.793L435.639 164.293L453.014 203.793Z" fill="#E9E4DC"/>
<path d="M453.014 203.793L435.639 164.293" stroke="#C49F8A"/>
<path d="M542.684 219.643H497.434V232.143H542.684V219.643Z" fill="#E9E4DC"/>
<path d="M498.059 220.268H542.059V231.518H498.059V220.268ZM496.809 219.018V232.768H543.309V219.018H496.809Z" fill="#C49F8A"/>
<path d="M542.809 221.643H497.559V239.268H542.809V221.643Z" fill="#E9E4DC"/>
<path d="M542.059 222.268V238.643H498.059V222.268H542.059ZM543.309 221.018H496.809V239.893H543.309V221.018Z" fill="#C49F8A"/>
<path d="M497.559 239.143L542.809 221.768L497.559 239.143Z" fill="#E9E4DC"/>
<path d="M497.559 239.143L542.809 221.768" stroke="#C49F8A"/>
<path d="M382.289 412.42H333.914V414.795H382.289V412.42Z" fill="#E9E4DC"/>
<path d="M381.664 413.045V414.17H334.539V413.045H381.664ZM382.914 411.795H333.289V415.42H382.914V411.795Z" fill="#C49F8A"/>
<path d="M382.289 414.795H333.914V430.795H382.289V414.795Z" fill="#E9E4DC"/>
<path d="M381.664 415.42V430.17H334.539V415.42H381.664ZM382.914 414.17H333.289V431.42H382.914V414.17Z" fill="#C49F8A"/>
<path d="M334.039 430.67L382.414 414.795L334.039 430.67Z" fill="#E9E4DC"/>
<path d="M334.039 430.67L382.414 414.795" stroke="#C49F8A"/>
<path d="M417 418.125H414.75V460.25H417V418.125Z" fill="#E9E4DC"/>
<path d="M416.375 418.75V459.625H415.375V418.75H416.375ZM417.625 417.5H414.125V460.875H417.625V417.5Z" fill="#C49F8A"/>
<path d="M414.875 418.125H398.875V460.25H414.875V418.125Z" fill="#E9E4DC"/>
<path d="M414.125 418.75V459.625H399.375V418.75H414.125ZM415.375 417.5H398.125V460.875H415.375V417.5Z" fill="#C49F8A"/>
<path d="M398.875 460.125L414.75 417.875L398.875 460.125Z" fill="#E9E4DC"/>
<path d="M398.875 460.125L414.75 417.875" stroke="#C49F8A"/>
<path d="M417 489.25H414.75V515.125H417V489.25Z" fill="#E9E4DC"/>
<path d="M416.375 489.875V514.5H415.375V489.875H416.375ZM417.625 488.625H414.125V515.75H417.625V488.625Z" fill="#C49F8A"/>
<path d="M414.875 489.25H398.875V515.125H414.875V489.25Z" fill="#E9E4DC"/>
<path d="M414.125 489.875V514.5H399.375V489.875H414.125ZM415.375 488.625H398.125V515.75H415.375V488.625Z" fill="#C49F8A"/>
<path d="M398.875 515.375L414.75 488.875L398.875 515.375Z" fill="#E9E4DC"/>
<path d="M398.875 515.375L414.75 488.875" stroke="#C49F8A"/>
<path d="M345.75 352.875H343.375V368.5H345.75V352.875Z" fill="#E9E4DC"/>
<path d="M345.125 353.5V367.875H344V353.5H345.125ZM346.375 352.25H342.75V369.125H346.375V352.25Z" fill="#C49F8A"/>
<path d="M343.375 352.875H333.875V368.5H343.375V352.875Z" fill="#E9E4DC"/>
<path d="M342.75 353.5V367.875H334.5V353.5H342.75ZM344 352.25H333.25V369.125H344V352.25Z" fill="#C49F8A"/>
<path d="M334 368.375L343.375 352.75L334 368.375Z" fill="#E9E4DC"/>
<path d="M334 368.375L343.375 352.75" stroke="#C49F8A"/>
<path d="M388.5 268.25H333.875V290.25H388.5V268.25Z" fill="#E9E4DC"/>
<path d="M387.875 268.875V289.625H334.5V268.875H387.875ZM389.125 267.625H333.25V290.875H389.125V267.625Z" fill="#C49F8A"/>
<path d="M338.375 279.25C338.375 275 342.125 271.625 346.25 272C350.875 272.375 356.75 272.75 361.125 272.75C365.5 272.75 371.25 272.375 376 272C380.25 271.625 383.875 275 383.875 279.25C383.875 283.5 380.125 286.875 376 286.5C371.375 286.125 365.5 285.75 361.125 285.75C356.75 285.75 351 286.125 346.25 286.5C342.125 286.875 338.375 283.5 338.375 279.25Z" fill="#E9E4DC" stroke="#C49F8A" stroke-linejoin="round"/>
<path d="M345.875 280.375C346.496 280.375 347 279.871 347 279.25C347 278.629 346.496 278.125 345.875 278.125C345.254 278.125 344.75 278.629 344.75 279.25C344.75 279.871 345.254 280.375 345.875 280.375Z" fill="#E9E4DC" stroke="#C49F8A" stroke-linejoin="round"/>
<path d="M394.375 294.586H373.625V307.461H394.375V294.586Z" fill="#E9E4DC"/>
<path d="M393.75 295.211V306.836H374.25V295.211H393.75ZM395 293.961H373V308.086H395V293.961Z" fill="#C49F8A"/>
<path d="M384 305.086C381.75 305.086 380 303.336 380 301.086C380 298.836 381.75 297.086 384 297.086C386.25 297.086 388 298.836 388 301.086C388 303.336 386.125 305.086 384 305.086Z" fill="#E9E4DC"/>
<path d="M384 297.711C385.875 297.711 387.375 299.211 387.375 301.086C387.375 302.961 385.875 304.461 384 304.461C382.125 304.461 380.625 302.961 380.625 301.086C380.625 299.211 382.125 297.711 384 297.711ZM384 296.461C381.5 296.461 379.375 298.586 379.375 301.086C379.375 303.586 381.5 305.711 384 305.711C386.5 305.711 388.625 303.586 388.625 301.086C388.625 298.586 386.5 296.461 384 296.461Z" fill="#C49F8A"/>
<path d="M466.875 300.5H512.5V333.625H466.875V300.5Z" fill="#E9E4DC" stroke="#C49F8A"/>
<path d="M464.125 308.75H463.375C458.75 308.75 455.125 312.5 455.125 317C455.125 321.625 458.875 325.25 463.375 325.25H464.125V308.75Z" fill="#E9E4DC" stroke="#C49F8A"/>
<path d="M466.875 310.75H463.75C460.25 310.75 457.375 313.625 457.375 317.125C457.375 320.625 460.25 323.5 463.75 323.5H467V310.75H466.875V310.75Z" fill="#E9E4DC" stroke="#C49F8A"/>
<path d="M515.25 308.75H516C520.625 308.75 524.25 312.5 524.25 317C524.25 321.625 520.5 325.25 516 325.25H515.25V308.75Z" fill="#E9E4DC" stroke="#C49F8A"/>
<path d="M512.5 310.75H515.75C519.25 310.75 522.125 313.625 522.125 317.125C522.125 320.625 519.25 323.5 515.75 323.5H512.5V310.75Z" fill="#E9E4DC" stroke="#C49F8A"/>
<path d="M498 336.5V337.25C498 341.875 494.25 345.5 489.75 345.5C485.125 345.5 481.5 341.75 481.5 337.25V336.5H498Z" fill="#E9E4DC" stroke="#C49F8A"/>
<path d="M496.125 333.625V336.875C496.125 340.375 493.25 343.25 489.75 343.25C486.25 343.25 483.375 340.375 483.375 336.875V333.625H496.125Z" fill="#E9E4DC" stroke="#C49F8A"/>
<path d="M498 297.75V297C498 292.375 494.25 288.75 489.75 288.75C485.125 288.75 481.5 292.5 481.5 297V297.75H498Z" fill="#E9E4DC" stroke="#C49F8A"/>
<path d="M496.125 300.5V297.25C496.125 293.75 493.25 290.875 489.75 290.875C486.25 290.875 483.375 293.75 483.375 297.25V300.5H496.125Z" fill="#E9E4DC" stroke="#C49F8A"/>
<path d="M502.25 427.75H456.875V430H502.25V427.75Z" fill="#E9E4DC"/>
<path d="M501.625 428.375V429.375H457.5V428.375H501.625ZM502.875 427.125H456.25V430.625H502.875V427.125Z" fill="#C49F8A"/>
<path d="M502.25 418.125H456.875V427.75H502.25V418.125Z" fill="#E9E4DC"/>
<path d="M501.625 418.75V427.125H457.5V418.75H501.625ZM502.875 417.5H456.25V428.375H502.875V417.5Z" fill="#C49F8A"/>
<path d="M496.5 419.75H463.5V421.875H496.5V419.75Z" fill="#E9E4DC" stroke="#C49F8A"/>
<path d="M473 419.75H487L485.75 418H474.375L473 419.75Z" fill="#E9E4DC" stroke="#C49F8A"/>
<path d="M443.496 110.625H441.246V156H443.496V110.625Z" fill="#E9E4DC"/>
<path d="M442.871 111.25V155.375H441.871V111.25H442.871ZM444.121 110H440.621V156.625H444.121V110Z" fill="#C49F8A"/>
<path d="M453.121 110.625H443.496V156H453.121V110.625Z" fill="#E9E4DC"/>
<path d="M452.496 111.25V155.375H444.121V111.25H452.496ZM453.746 110H442.871V156.625H453.746V110Z" fill="#C49F8A"/>
<path d="M451.496 116.375H449.371V149.375H451.496V116.375Z" fill="#E9E4DC" stroke="#C49F8A"/>
<path d="M451.496 139.875V125.875L453.246 127.125V138.5L451.496 139.875Z" fill="#E9E4DC" stroke="#C49F8A"/>
<path d="M515.408 170.248V152.748L531.283 150.373V172.623L515.408 170.248Z" fill="#E9E4DC" stroke="#C49F8A"/>
<path d="M555.408 134.248H529.658V187.123H555.408V134.248Z" fill="#E9E4DC"/>
<path d="M554.783 134.873V186.498H530.283V134.873L554.783 134.873ZM556.033 133.623H529.033V187.748H556.033V133.623Z" fill="#C49F8A"/>
<path d="M536.658 167.373V153.873V167.373ZM533.908 168.623V152.748H538.658V168.623H533.908V168.623Z" stroke="#C49F8A"/>
<path d="M533.658 175.123C533.658 174.498 534.158 173.873 534.908 173.873H536.533C537.158 173.873 537.783 174.373 537.783 175.123C537.783 175.748 537.283 176.373 536.533 176.373H534.908C534.283 176.248 533.658 175.748 533.658 175.123Z" fill="#E9E4DC" stroke="#C49F8A"/>
<path d="M546.283 164.623C544.158 164.623 542.533 162.873 542.533 160.623C542.533 158.373 544.283 156.623 546.283 156.623H550.033V164.498L546.283 164.623Z" fill="#E9E4DC" stroke="#C49F8A"/>
<path d="M529.158 153.248H515.033V169.998H529.158V153.248Z" fill="#E9E4DC"/>
<path d="M528.533 153.873V169.373H515.658V153.873H528.533ZM529.783 152.623H514.408V170.623H529.783V152.623Z" fill="#C49F8A"/>
<path d="M515.658 152.873H513.283V170.248H515.658V152.873Z" fill="#E9E4DC"/>
<path d="M515.033 153.498V169.623H513.908V153.498L515.033 153.498ZM516.283 152.248H512.658V170.873H516.283V152.248Z" fill="#C49F8A"/>
<path d="M552.158 139.998H550.033V181.498H552.158V139.998Z" fill="#E9E4DC" stroke="#C49F8A"/>
<path d="M373.625 294.586H345.625V307.836H373.625V294.586Z" fill="#E9E4DC"/>
<path d="M373 295.211V307.211H346.25V295.211H373ZM374.25 293.961H345V308.461H374.25V293.961Z" fill="#C49F8A"/>
<path d="M352.75 301.086C352.75 303.586 354.75 305.461 357.125 305.461H363.375C365.875 305.461 367.75 303.461 367.75 301.086C367.75 298.586 365.75 296.711 363.375 296.711H357.125C354.75 296.711 352.75 298.711 352.75 301.086Z" fill="#E9E4DC" stroke="#C49F8A"/>
<path d="M360.375 300.711C360.996 300.711 361.5 300.207 361.5 299.586C361.5 298.965 360.996 298.461 360.375 298.461C359.754 298.461 359.25 298.965 359.25 299.586C359.25 300.207 359.754 300.711 360.375 300.711Z" fill="#E9E4DC" stroke="#C49F8A"/>
<path d="M348.5 208.125H333.875V237.25H348.5V208.125Z" fill="#E9E4DC"/>
<path d="M347.875 208.75V236.625H334.5V208.75H347.875ZM349.125 207.5H333.25V237.875H349.125V207.5Z" fill="#C49F8A"/>
<path d="M341.125 231C343.75 231 346 228.875 346 226.125V219.25C346 216.625 343.875 214.375 341.125 214.375C338.5 214.375 336.25 216.5 336.25 219.25V226.125C336.375 228.875 338.5 231 341.125 231Z" fill="#E9E4DC" stroke="#C49F8A"/>
<path d="M339.375 223.75C339.996 223.75 340.5 223.246 340.5 222.625C340.5 222.004 339.996 221.5 339.375 221.5C338.754 221.5 338.25 222.004 338.25 222.625C338.25 223.246 338.754 223.75 339.375 223.75Z" fill="#E9E4DC" stroke="#C49F8A"/>
<path d="M344.544 327.5H340.794V342.5H344.544V327.5Z" fill="#E9E4DC"/>
<path d="M343.919 328.125V341.875H341.419V328.125H343.919ZM345.169 326.875H340.169V343.125H345.169V326.875Z" fill="#C49F8A"/>
<path d="M355.044 340.625C358.294 340.875 361.044 338.25 361.044 335C361.044 331.75 358.294 329.125 355.044 329.375L344.544 330.125V340L355.044 340.625Z" fill="#E9E4DC" stroke="#C49F8A"/>
<path d="M354.669 338.875C356.919 339.125 358.919 337.25 358.919 335C358.919 332.75 356.919 331 354.669 331.125L348.544 331.625V338.25L354.669 338.875Z" fill="#E9E4DC" stroke="#C49F8A"/>
<path d="M351.669 336.125C352.291 336.125 352.794 335.621 352.794 335C352.794 334.379 352.291 333.875 351.669 333.875C351.048 333.875 350.544 334.379 350.544 335C350.544 335.621 351.048 336.125 351.669 336.125Z" fill="#E9E4DC" stroke="#C49F8A"/>
<path d="M492 388.75H469.75V406.25H492V388.75Z" fill="#E9E4DC"/>
<path d="M491.375 389.375V405.625H470.375V389.375H491.375ZM492.625 388.125H469.125V406.875H492.625V388.125Z" fill="#C49F8A"/>
<path d="M511.875 390.875H398.125V407.625H511.875V390.875Z" fill="#E9E4DC"/>
<path d="M511.25 391.5V407H398.75V391.5H511.25ZM512.5 390.25H397.5V408.25H512.5V390.25Z" fill="#C49F8A"/>
<path d="M512 390.875H495.25V407.625H512V390.875Z" fill="#E9E4DC"/>
<path d="M511.25 391.5V407H495.75V391.5H511.25ZM512.5 390.25H494.5V408.25H512.5V390.25Z" fill="#C49F8A"/>
<path d="M512 390.875H495.25V393H512V390.875Z" fill="#E9E4DC"/>
<path d="M511.25 391.5V392.375H495.75V391.5H511.25ZM512.5 390.25H494.5V393.625H512.5V390.25Z" fill="#C49F8A"/>
<path d="M423.375 393H403.875V405.25H423.375V393Z" fill="#E9E4DC" stroke="#C49F8A"/>
<path d="M411.5 399.25C411.5 396.75 413.625 394.625 416.125 394.625H417.125C419.625 394.625 421.75 396.75 421.75 399.25C421.75 401.75 419.625 403.875 417.125 403.875H416.125C413.5 403.875 411.5 401.75 411.5 399.25Z" fill="#E9E4DC" stroke="#C49F8A"/>
<path d="M416.625 401.875C417.246 401.875 417.75 401.371 417.75 400.75C417.75 400.129 417.246 399.625 416.625 399.625C416.004 399.625 415.5 400.129 415.5 400.75C415.5 401.371 416.004 401.875 416.625 401.875Z" fill="#E9E4DC" stroke="#C49F8A"/>
<path d="M405.25 402.75H410.25" stroke="#C49F8A"/>
<path d="M405.25 400.875H410.25" stroke="#C49F8A"/>
<path d="M405.25 399H410.25" stroke="#C49F8A"/>
<path d="M405.25 397.125H410.25" stroke="#C49F8A"/>
<path d="M405.25 395.375H410.25" stroke="#C49F8A"/>
<path d="M466.5 390.875H450.25V407.625H466.5V390.875Z" fill="#E9E4DC"/>
<path d="M465.875 391.5V407H450.875V391.5H465.875ZM467.125 390.25H449.625V408.25H467.125V390.25Z" fill="#C49F8A"/>
<path d="M466.5 405.125H450.25V407.5H466.5V405.125Z" fill="#E9E4DC"/>
<path d="M465.875 405.75V406.875H450.875V405.75H465.875ZM467.125 404.5H449.625V408.125H467.125V404.5Z" fill="#C49F8A"/>
<path d="M454.875 402.625C454 402.625 453.25 401.875 453.25 401C453.25 400.125 454 399.375 454.875 399.375C455.75 399.375 456.5 400.125 456.5 401C456.5 402 455.75 402.625 454.875 402.625Z" fill="#E9E4DC"/>
<path d="M454.875 400.125C455.375 400.125 455.875 400.625 455.875 401.125C455.875 401.625 455.375 402.125 454.875 402.125C454.375 402.125 453.875 401.625 453.875 401.125C453.875 400.5 454.375 400.125 454.875 400.125ZM454.875 398.875C453.625 398.875 452.625 399.875 452.625 401.125C452.625 402.375 453.625 403.375 454.875 403.375C456.125 403.375 457.125 402.375 457.125 401.125C457.125 399.875 456.125 398.875 454.875 398.875Z" fill="#C49F8A"/>
<path d="M454.875 397.375C456.049 397.375 457 396.424 457 395.25C457 394.076 456.049 393.125 454.875 393.125C453.701 393.125 452.75 394.076 452.75 395.25C452.75 396.424 453.701 397.375 454.875 397.375Z" fill="#E9E4DC"/>
<path d="M454.875 393.75C455.75 393.75 456.375 394.5 456.375 395.25C456.375 396 455.625 396.75 454.875 396.75C454 396.75 453.375 396 453.375 395.25C453.375 394.5 454 393.75 454.875 393.75ZM454.875 392.5C453.375 392.5 452.125 393.75 452.125 395.25C452.125 396.75 453.375 398 454.875 398C456.375 398 457.625 396.75 457.625 395.25C457.75 393.75 456.5 392.5 454.875 392.5Z" fill="#C49F8A"/>
<path d="M461.375 403.125C462.549 403.125 463.5 402.174 463.5 401C463.5 399.826 462.549 398.875 461.375 398.875C460.201 398.875 459.25 399.826 459.25 401C459.25 402.174 460.201 403.125 461.375 403.125Z" fill="#E9E4DC"/>
<path d="M461.375 399.5C462.25 399.5 462.875 400.25 462.875 401C462.875 401.75 462.125 402.5 461.375 402.5C460.625 402.5 459.875 401.75 459.875 401C459.875 400.25 460.5 399.5 461.375 399.5ZM461.375 398.25C459.875 398.25 458.625 399.5 458.625 401C458.625 402.5 459.875 403.75 461.375 403.75C462.875 403.75 464.125 402.5 464.125 401C464.125 399.5 462.875 398.25 461.375 398.25Z" fill="#C49F8A"/>
<path d="M461.375 396.375C462.272 396.375 463 395.647 463 394.75C463 393.853 462.272 393.125 461.375 393.125C460.478 393.125 459.75 393.853 459.75 394.75C459.75 395.647 460.478 396.375 461.375 396.375Z" fill="#E9E4DC"/>
<path d="M461.375 393.75C461.875 393.75 462.375 394.25 462.375 394.75C462.375 395.25 461.875 395.75 461.375 395.75C460.875 395.75 460.375 395.25 460.375 394.75C460.375 394.125 460.75 393.75 461.375 393.75ZM461.375 392.5C460.125 392.5 459.125 393.5 459.125 394.75C459.125 396 460.125 397 461.375 397C462.625 397 463.625 396 463.625 394.75C463.625 393.5 462.625 392.5 461.375 392.5Z" fill="#C49F8A"/>
<path d="M502 402L505.125 396.5M500.375 399.25H506.625H500.375ZM502 396.5L505.125 402L502 396.5Z" stroke="#C49F8A"/>
<path d="M520.625 283.43C520.625 284.305 521.25 284.93 522.125 284.93H537.625V249.68H520.625V283.43Z" fill="#E9E4DC" stroke="#C49F8A"/>
<path d="M493.125 265.18C493.125 266.055 493.875 266.68 494.75 266.68H519C519.875 266.68 520.625 266.055 520.625 265.18V249.68H493.25L493.125 265.18Z" fill="#E9E4DC" stroke="#C49F8A"/>
<path d="M466.75 265.18C466.75 266.055 467.5 266.68 468.25 266.68H491.5C492.375 266.68 493 266.055 493 265.18V249.68H466.625L466.75 265.18Z" fill="#E9E4DC" stroke="#C49F8A"/>
<path d="M466.75 267.93H461V243.555H543.75V291.055H519.25V285.055H537.5V249.68H466.625V267.93H466.75Z" fill="#E9E4DC" stroke="#C49F8A"/>
<path d="M340.794 304.625H333.919V348.638H340.794V304.625Z" fill="#E9E4DC"/>
<path d="M340.169 305.25V348.013H334.544V305.25L340.169 305.25ZM341.419 304H333.294V349.263H341.419V304Z" fill="#C49F8A"/>
<path d="M344.5 246.625H340.75V261.625H344.5V246.625Z" fill="#E9E4DC"/>
<path d="M343.875 247.25V261H341.375V247.25H343.875ZM345.125 246H340.125V262.25H345.125V246Z" fill="#C49F8A"/>
<path d="M355 259.75C358.25 260 361 257.375 361 254.125C361 250.875 358.25 248.25 355 248.5L344.5 249.25V259.125L355 259.75Z" fill="#E9E4DC" stroke="#C49F8A"/>
<path d="M354.625 258C356.875 258.25 358.875 256.375 358.875 254.125C358.875 251.875 356.875 250.125 354.625 250.25L348.5 250.75V257.375L354.625 258Z" fill="#E9E4DC" stroke="#C49F8A"/>
<path d="M351.5 255.25C352.121 255.25 352.625 254.746 352.625 254.125C352.625 253.504 352.121 253 351.5 253C350.879 253 350.375 253.504 350.375 254.125C350.375 254.746 350.879 255.25 351.5 255.25Z" fill="#E9E4DC" stroke="#C49F8A"/>
<path d="M340.75 237.375H333.875V268.25H340.75V237.375Z" fill="#E9E4DC"/>
<path d="M340.125 238V267.625H334.5V238H340.125ZM341.375 236.75H333.25V268.875H341.375V236.75Z" fill="#C49F8A"/>
<path d="M388.5 493.125H333.875V515.125H388.5V493.125Z" fill="#E9E4DC"/>
<path d="M387.875 493.75V514.5H334.5V493.75H387.875ZM389.125 492.5H333.25V515.75H389.125V492.5Z" fill="#C49F8A"/>
<path d="M338.375 504.125C338.375 499.875 342.125 496.5 346.25 496.875C350.875 497.25 356.75 497.625 361.125 497.625C365.5 497.625 371.25 497.25 376 496.875C380.25 496.5 383.875 499.875 383.875 504.125C383.875 508.375 380.125 511.75 376 511.375C371.375 511 365.5 510.625 361.125 510.625C356.75 510.625 351 511 346.25 511.375C342.125 511.625 338.375 508.375 338.375 504.125Z" fill="#E9E4DC" stroke="#C49F8A" stroke-linejoin="round"/>
<path d="M345.875 505.25C346.496 505.25 347 504.746 347 504.125C347 503.504 346.496 503 345.875 503C345.254 503 344.75 503.504 344.75 504.125C344.75 504.746 345.254 505.25 345.875 505.25Z" fill="#E9E4DC" stroke="#C49F8A" stroke-linejoin="round"/>
<path d="M348.5 435.125H333.875V493H348.5V435.125Z" fill="#E9E4DC"/>
<path d="M347.875 435.75V492.375H334.5V435.75H347.875ZM349.125 434.5H333.25V493.625H349.125V434.5Z" fill="#C49F8A"/>
<path d="M341.125 479.75C343.75 479.75 346 477.625 346 474.875V468C346 465.375 343.875 463.125 341.125 463.125C338.5 463.125 336.25 465.25 336.25 468V474.875C336.375 477.5 338.5 479.75 341.125 479.75Z" fill="#E9E4DC" stroke="#C49F8A"/>
<path d="M339.25 472.5C339.871 472.5 340.375 471.996 340.375 471.375C340.375 470.754 339.871 470.25 339.25 470.25C338.629 470.25 338.125 470.754 338.125 471.375C338.125 471.996 338.629 472.5 339.25 472.5Z" fill="#E9E4DC" stroke="#C49F8A"/>
<path d="M381.875 442H366.875V445.75H381.875V442Z" fill="#E9E4DC"/>
<path d="M381.25 442.625V445.125H367.5V442.625H381.25ZM382.5 441.375H366.25V446.375H382.5V441.375Z" fill="#C49F8A"/>
<path d="M368.75 456.25C368.5 459.5 371.125 462.25 374.375 462.25C377.625 462.25 380.25 459.5 380 456.25L379.25 445.75H369.375L368.75 456.25Z" fill="#E9E4DC" stroke="#C49F8A"/>
<path d="M370.5 455.875C370.25 458.125 372.125 460.125 374.375 460.125C376.625 460.125 378.375 458.125 378.25 455.875L377.75 449.75H371.125L370.5 455.875Z" fill="#E9E4DC" stroke="#C49F8A"/>
<path d="M374.375 454.25C374.996 454.25 375.5 453.746 375.5 453.125C375.5 452.504 374.996 452 374.375 452C373.754 452 373.25 452.504 373.25 453.125C373.25 453.746 373.754 454.25 374.375 454.25Z" fill="#E9E4DC" stroke="#C49F8A"/>
<path d="M394.441 435.125H333.875V442H394.441V435.125Z" fill="#E9E4DC"/>
<path d="M393.816 435.75V441.375H334.5V435.75H393.816ZM395.066 434.5H333.25V442.625H395.066V434.5Z" fill="#C49F8A"/>
<path d="M495 463L497.375 461H498.375V469.375H497.125V462.75L495.625 463.875L495 463Z" fill="#565440"/>
<path d="M504.875 466.125H505.75V467.25H504.875V469.25H503.625V467.25H499.875L499.625 466.5L504.125 461H505V466.125H504.875ZM503.625 463.125L501.125 466.125H503.625V463.125Z" fill="#565440"/>
<path d="M514.125 466.125H515V467.25H514.125V469.25H512.875V467.25H509.125L508.875 466.5L513.375 461H514.25V466.125H514.125ZM512.875 463.125L510.375 466.125H512.875V463.125Z" fill="#565440"/>
<path d="M507.625 469.375C507.375 469.375 507.25 469.25 507 469.125C506.875 469 506.75 468.75 506.75 468.5C506.75 468.25 506.875 468.125 507 468C507.125 467.875 507.375 467.75 507.625 467.75C507.875 467.75 508 467.875 508.125 468C508.25 468.125 508.375 468.375 508.375 468.5C508.375 468.75 508.25 468.875 508.125 469.125C508 469.375 507.75 469.375 507.625 469.375Z" fill="#565440"/>
<path d="M410.25 133.5L412.625 131.5H413.625V139.875H412.375V133.25L410.875 134.375L410.25 133.5Z" fill="#565440"/>
<path d="M414.75 133.5L417.125 131.5H418.125V139.875H416.875V133.25L415.375 134.375L414.75 133.5Z" fill="#565440"/>
<path d="M420.5 139.875C420.25 139.875 420.125 139.75 419.875 139.625C419.75 139.5 419.625 139.25 419.625 139C419.625 138.75 419.75 138.625 419.875 138.5C420 138.375 420.25 138.25 420.5 138.25C420.75 138.25 420.875 138.375 421 138.5C421.125 138.625 421.25 138.875 421.25 139C421.25 139.25 421.125 139.375 421 139.625C420.875 139.875 420.75 139.875 420.5 139.875Z" fill="#565440"/>
<path d="M425.375 139.875C424.5 139.875 423.75 139.625 423.25 139.25C422.75 138.75 422.375 138.25 422.375 137.5C422.375 137 422.5 136.625 422.875 136.25C423.125 135.875 423.5 135.625 424 135.375C423.625 135.25 423.25 134.875 423.125 134.625C422.875 134.25 422.75 134 422.75 133.5C422.75 132.875 423 132.375 423.5 131.875C424 131.5 424.625 131.25 425.375 131.25C426.125 131.25 426.75 131.5 427.25 131.875C427.75 132.25 428 132.875 428 133.5C428 133.875 427.875 134.25 427.625 134.625C427.375 135 427.125 135.25 426.75 135.375C427.25 135.5 427.625 135.875 427.875 136.25C428.125 136.625 428.375 137.125 428.375 137.5C428.375 138.25 428.125 138.75 427.5 139.25C427 139.625 426.25 139.875 425.375 139.875ZM425.375 138.75C425.875 138.75 426.25 138.625 426.625 138.375C427 138.125 427.125 137.75 427.125 137.375C427.125 137 427 136.625 426.625 136.375C426.25 136.125 425.875 136 425.375 136C424.875 136 424.5 136.125 424.125 136.375C423.75 136.625 423.625 137 423.625 137.375C423.625 137.75 423.75 138.125 424.125 138.375C424.375 138.625 424.875 138.75 425.375 138.75ZM426.375 134.5C426.625 134.25 426.75 134 426.75 133.625C426.75 133.25 426.625 133 426.375 132.75C426.125 132.5 425.75 132.375 425.375 132.375C425 132.375 424.625 132.5 424.375 132.75C424.125 133 424 133.25 424 133.625C424 134 424.125 134.25 424.375 134.5C424.625 134.75 425 134.875 425.375 134.875C425.75 134.875 426.125 134.75 426.375 134.5Z" fill="#565440"/>
<path d="M494.75 196.75L497.125 194.75H498.125V203.125H496.875V196.5L495.375 197.625L494.75 196.75Z" fill="#565440"/>
<path d="M503.625 199.625L501.625 201.875H505V203.125H499.75V202L502.375 199.125L503 198.375C503.125 198.25 503.25 198 503.375 197.75C503.5 197.5 503.5 197.25 503.5 197C503.5 196.625 503.375 196.375 503.125 196.125C502.875 195.875 502.5 195.75 502.125 195.75C501.5 195.75 500.875 196 500.125 196.625L499.375 195.75C500.25 195 501.125 194.5 502.125 194.5C502.875 194.5 503.5 194.75 504 195.25C504.5 195.75 504.75 196.375 504.75 197C504.875 197.75 504.5 198.625 503.625 199.625Z" fill="#565440"/>
<path d="M506.875 203.125C506.625 203.125 506.5 203 506.25 202.875C506 202.75 506 202.5 506 202.25C506 202 506.125 201.875 506.25 201.75C506.375 201.625 506.625 201.5 506.875 201.5C507.125 201.5 507.25 201.625 507.375 201.75C507.5 201.875 507.625 202.125 507.625 202.25C507.625 202.5 507.5 202.625 507.375 202.875C507.25 203.125 507.125 203.125 506.875 203.125Z" fill="#565440"/>
<path d="M511.625 194.5C512.625 194.5 513.375 194.875 513.875 195.625C514.375 196.375 514.625 197.375 514.625 198.5C514.625 199.125 514.5 199.75 514.375 200.25C514.25 200.75 514 201.25 513.75 201.75C513.5 202.125 513.125 202.5 512.625 202.75C512.125 203 511.625 203.125 511.125 203.125C510.25 203.125 509.5 202.875 508.875 202.375L509.375 201.375C509.875 201.75 510.5 202 511 202C511.75 202 512.25 201.75 512.625 201.125C513 200.5 513.25 199.875 513.25 199C513 199.375 512.75 199.625 512.375 199.75C512 199.875 511.625 200 511.125 200C510.375 200 509.75 199.75 509.25 199.25C508.75 198.75 508.5 198.125 508.5 197.375C508.5 196.625 508.75 195.875 509.25 195.375C510 194.75 510.75 194.5 511.625 194.5ZM513.125 197.375C513.125 196.875 513 196.5 512.625 196.25C512.375 195.875 512 195.75 511.5 195.75C511 195.75 510.625 195.875 510.375 196.25C510.125 196.625 509.875 197 509.875 197.375C509.875 197.875 510 198.25 510.375 198.5C510.625 198.75 511 199 511.5 199C512 199 512.375 198.875 512.625 198.5C513 198.125 513.125 197.75 513.125 197.375Z" fill="#565440"/>
<path d="M465.25 351.125L463.25 353.375H466.625V354.625H461.375V353.5L464 350.625L464.625 349.875C464.75 349.75 464.875 349.5 465 349.25C465.125 349 465.125 348.75 465.125 348.5C465.125 348.125 465 347.875 464.75 347.625C464.5 347.375 464.125 347.25 463.75 347.25C463.125 347.25 462.5 347.5 461.75 348.125L461 347.25C461.875 346.5 462.75 346 463.75 346C464.5 346 465.125 346.25 465.625 346.75C466.125 347.25 466.375 347.875 466.375 348.5C466.5 349.25 466.125 350.125 465.25 351.125Z" fill="#565440"/>
<path d="M472.375 351.375H473.25V352.5H472.375V354.5H471.125V352.5H467.375L467.125 351.75L471.625 346.25H472.5V351.375H472.375ZM471.125 348.375L468.625 351.375H471.125V348.375Z" fill="#565440"/>
<path d="M475.125 354.625C474.875 354.625 474.75 354.5 474.5 354.375C474.375 354.25 474.25 354 474.25 353.75C474.25 353.5 474.375 353.375 474.5 353.25C474.625 353.125 474.875 353 475.125 353C475.375 353 475.5 353.125 475.625 353.25C475.75 353.375 475.875 353.625 475.875 353.75C475.875 354 475.75 354.125 475.625 354.375C475.5 354.625 475.375 354.625 475.125 354.625Z" fill="#565440"/>
<path d="M479.75 346C480.75 346 481.5 346.375 482 347.125C482.5 347.875 482.75 348.875 482.75 350C482.75 350.625 482.625 351.25 482.5 351.75C482.375 352.25 482.125 352.75 481.875 353.25C481.625 353.625 481.25 354 480.75 354.25C480.25 354.5 479.75 354.625 479.25 354.625C478.375 354.625 477.625 354.375 477 353.875L477.5 352.875C478 353.25 478.625 353.5 479.125 353.5C479.875 353.5 480.375 353.25 480.75 352.625C481.125 352 481.375 351.375 481.375 350.5C481.125 350.875 480.875 351.125 480.5 351.25C480.125 351.375 479.75 351.5 479.25 351.5C478.5 351.5 477.875 351.25 477.375 350.75C476.875 350.25 476.625 349.625 476.625 348.875C476.625 348.125 476.875 347.375 477.375 346.875C478.25 346.25 479 346 479.75 346ZM481.375 348.875C481.375 348.375 481.25 348 480.875 347.75C480.625 347.375 480.25 347.25 479.75 347.25C479.25 347.25 478.875 347.375 478.625 347.75C478.375 348.125 478.125 348.5 478.125 348.875C478.125 349.375 478.25 349.75 478.625 350C478.875 350.25 479.25 350.5 479.75 350.5C480.25 350.5 480.625 350.375 480.875 350C481.125 349.625 481.375 349.25 481.375 348.875Z" fill="#565440"/>
<path d="M409.75 218.125L412.125 216.125H413.125V224.5H411.875V217.875L410.375 219L409.75 218.125Z" fill="#565440"/>
<path d="M415.5 224.625C415.25 224.625 415.125 224.5 414.875 224.375C414.75 224.25 414.625 224 414.625 223.75C414.625 223.5 414.75 223.375 414.875 223.25C415 223.125 415.25 223 415.5 223C415.75 223 415.875 223.125 416 223.25C416.125 223.375 416.25 223.625 416.25 223.75C416.25 224 416.125 224.125 416 224.375C416 224.5 415.75 224.625 415.5 224.625Z" fill="#565440"/>
<path d="M420.375 224.5C419.5 224.5 418.75 224.25 418.25 223.875C417.75 223.375 417.375 222.875 417.375 222.125C417.375 221.625 417.5 221.25 417.875 220.875C418.125 220.5 418.5 220.25 419 220C418.625 219.875 418.25 219.5 418.125 219.25C417.875 218.875 417.75 218.625 417.75 218.125C417.75 217.5 418 217 418.5 216.5C419 216.125 419.625 215.875 420.375 215.875C421.125 215.875 421.75 216.125 422.25 216.5C422.75 216.875 423 217.5 423 218.125C423 218.5 422.875 218.875 422.625 219.25C422.375 219.625 422.125 219.875 421.75 220C422.25 220.125 422.625 220.5 422.875 220.875C423.125 221.25 423.375 221.75 423.375 222.125C423.375 222.875 423.125 223.375 422.5 223.875C422 224.25 421.25 224.5 420.375 224.5ZM420.375 223.375C420.875 223.375 421.25 223.25 421.625 223C422 222.75 422.125 222.375 422.125 222C422.125 221.625 422 221.25 421.625 221C421.25 220.75 420.875 220.625 420.375 220.625C419.875 220.625 419.5 220.75 419.125 221C418.75 221.25 418.625 221.625 418.625 222C418.625 222.375 418.75 222.75 419.125 223C419.5 223.25 419.875 223.375 420.375 223.375ZM421.5 219.125C421.75 218.875 421.875 218.625 421.875 218.25C421.875 217.875 421.75 217.625 421.5 217.375C421.25 217.125 420.875 217 420.5 217C420.125 217 419.75 217.125 419.5 217.375C419.25 217.625 419.125 217.875 419.125 218.25C419.125 218.625 419.25 218.875 419.5 219.125C419.75 219.375 420.125 219.5 420.5 219.5C420.875 219.5 421.25 219.375 421.5 219.125Z" fill="#565440"/>
<path d="M374.375 376.125H375.25V377.25H374.375V379.25H373.125V377.25H369.375L369.125 376.5L373.625 371H374.5V376.125H374.375ZM373.125 373.125L370.625 376.125H373.125V373.125Z" fill="#565440"/>
<path d="M377.125 379.375C376.875 379.375 376.75 379.25 376.5 379.125C376.375 379 376.25 378.75 376.25 378.5C376.25 378.25 376.375 378.125 376.5 378C376.625 377.875 376.875 377.75 377.125 377.75C377.375 377.75 377.5 377.875 377.625 378C377.75 378.125 377.875 378.375 377.875 378.5C377.875 378.75 377.75 378.875 377.625 379.125C377.5 379.375 377.375 379.375 377.125 379.375Z" fill="#565440"/>
<path d="M381.5 379.375C380.625 379.375 379.75 379.125 378.875 378.5L379.5 377.5C380.25 378 380.875 378.125 381.5 378.125C382 378.125 382.375 378 382.625 377.75C382.875 377.5 383 377.25 383 376.75C383 376.375 382.875 376 382.5 375.75C382.25 375.5 381.875 375.375 381.375 375.375H380.375V374.25H381.375C381.75 374.25 382.125 374.125 382.375 373.875C382.625 373.625 382.75 373.375 382.75 373C382.75 372.625 382.625 372.375 382.375 372.125C382.125 371.875 381.75 371.75 381.375 371.75C380.875 371.75 380.25 372 379.625 372.5L379 371.625C379.25 371.375 379.75 371.125 380.125 370.875C380.625 370.75 381 370.625 381.5 370.625C382.25 370.625 382.875 370.875 383.375 371.25C383.875 371.625 384.125 372.25 384.125 372.75C384.125 373.25 384 373.625 383.75 373.875C383.5 374.25 383.125 374.5 382.75 374.625C383.25 374.75 383.625 375 384 375.375C384.25 375.75 384.375 376.125 384.375 376.75C384.375 377.5 384.125 378 383.625 378.5C383 379.125 382.375 379.375 381.5 379.375Z" fill="#565440"/>
<path d="M372.625 473.5H373.5V474.625H372.625V476.625H371.375V474.625H367.625L367.375 473.875L371.875 468.375H372.75V473.5H372.625ZM371.375 470.5L368.875 473.5H371.375V470.5Z" fill="#565440"/>
<path d="M375.375 476.875C375.125 476.875 375 476.75 374.75 476.625C374.625 476.5 374.5 476.25 374.5 476C374.5 475.75 374.625 475.625 374.75 475.5C374.875 475.375 375.125 475.25 375.375 475.25C375.625 475.25 375.75 475.375 375.875 475.5C376 475.625 376.125 475.875 376.125 476C376.125 476.25 376 476.375 375.875 476.625C375.75 476.75 375.5 476.875 375.375 476.875Z" fill="#565440"/>
<path d="M376.625 469.5V468.375H381.875V469.25L378.75 476.75H377.375L380.5 469.625H376.625V469.5Z" fill="#565440"/>
<path d="M374.125 250.875H375V252H374.125V254H372.875V252H369.125L368.875 251.25L373.375 245.75H374.25V250.875H374.125ZM372.875 247.875L370.375 250.875H372.875V247.875Z" fill="#565440"/>
<path d="M376.875 254.125C376.625 254.125 376.5 254 376.25 253.875C376.125 253.75 376 253.5 376 253.25C376 253 376.125 252.875 376.25 252.75C376.375 252.625 376.625 252.5 376.875 252.5C377.125 252.5 377.25 252.625 377.375 252.75C377.5 252.875 377.625 253.125 377.625 253.25C377.625 253.5 377.5 253.625 377.375 253.875C377.25 254.125 377 254.125 376.875 254.125Z" fill="#565440"/>
<path d="M381.5 245.5C382.5 245.5 383.25 245.875 383.75 246.625C384.25 247.375 384.5 248.375 384.5 249.5C384.5 250.125 384.375 250.75 384.25 251.25C384.125 251.75 383.875 252.25 383.625 252.75C383.375 253.125 383 253.5 382.5 253.75C382 254 381.5 254.125 381 254.125C380.125 254.125 379.375 253.875 378.75 253.375L379.25 252.375C379.75 252.75 380.375 253 380.875 253C381.625 253 382.125 252.75 382.5 252.125C382.875 251.5 383.125 250.875 383.125 250C382.875 250.375 382.625 250.625 382.25 250.75C381.875 250.875 381.5 251 381 251C380.25 251 379.625 250.75 379.125 250.25C378.625 249.75 378.375 249.125 378.375 248.375C378.375 247.625 378.625 246.875 379.125 246.375C380 245.75 380.625 245.5 381.5 245.5ZM383.125 248.375C383.125 247.875 383 247.5 382.625 247.25C382.375 246.875 382 246.75 381.5 246.75C381 246.75 380.625 246.875 380.375 247.25C380.125 247.625 379.875 248 379.875 248.375C379.875 248.875 380 249.25 380.375 249.5C380.625 249.75 381 250 381.5 250C382 250 382.375 249.875 382.625 249.5C382.875 249.125 383.125 248.75 383.125 248.375Z" fill="#565440"/>
<path d="M385.625 321.75C384.75 321.75 383.875 321.5 383 320.875L383.625 319.875C384.375 320.375 385 320.5 385.625 320.5C386.125 320.5 386.5 320.375 386.75 320.125C387 319.875 387.125 319.625 387.125 319.125C387.125 318.75 387 318.375 386.625 318.125C386.375 317.875 386 317.75 385.5 317.75H384.5V316.625H385.5C385.875 316.625 386.25 316.5 386.5 316.25C386.75 316 386.875 315.75 386.875 315.375C386.875 315 386.75 314.75 386.5 314.5C386.25 314.25 385.875 314.125 385.5 314.125C385 314.125 384.375 314.375 383.75 314.875L383.125 314C383.375 313.75 383.75 313.5 384.25 313.25C384.75 313.125 385.125 313 385.625 313C386.375 313 387 313.25 387.5 313.625C388 314 388.25 314.625 388.25 315.125C388.25 315.625 388.125 316 387.875 316.25C387.625 316.625 387.25 316.875 386.875 317C387.375 317.125 387.75 317.375 388.125 317.75C388.375 318.125 388.5 318.5 388.5 319.125C388.5 319.875 388.25 320.375 387.75 320.875C387.25 321.5 386.5 321.75 385.625 321.75Z" fill="#565440"/>
</svg>
