<!-- DO NOT EDIT THIS, THIS FILE IS GENERATED FROM "plan-10-2.original.svg" using transform-svgs.js script -->
<svg width="900" height="600" viewBox="0 0 900 600" fill="none" xmlns="http://www.w3.org/2000/svg">
<rect data-nr="10-1" class="plan__svg__hoverable" x="339.625" y="207" width="30" height="30" rx="15" transform="rotate(-90 339.625 207)" fill="#F6F2EB"/>
<rect data-nr="10-2" class="plan__svg__hoverable" x="248.625" y="462" width="30" height="30" rx="15" transform="rotate(-90 248.625 462)" fill="#F6F2EB"/>
<rect data-nr="10-3" class="plan__svg__hoverable" x="111.625" y="402" width="30" height="30" rx="15" transform="rotate(-90 111.625 402)" fill="#F6F2EB"/>
<rect data-nr="10-4" class="plan__svg__hoverable" x="238.625" y="356" width="30" height="30" rx="15" transform="rotate(-90 238.625 356)" fill="#F6F2EB"/>
<rect data-nr="10-5" class="plan__svg__hoverable" x="172.625" y="234" width="30" height="30" rx="15" transform="rotate(-90 172.625 234)" fill="#F6F2EB"/>
<rect data-nr="10-6" class="plan__svg__hoverable" x="749.625" y="334" width="30" height="30" rx="15" transform="rotate(180 749.625 334)" fill="#F6F2EB"/>
<rect data-nr="10-7" class="plan__svg__hoverable" x="623.625" y="402" width="30" height="30" rx="15" transform="rotate(180 623.625 402)" fill="#F6F2EB"/>
<rect data-nr="10-8" class="plan__svg__hoverable" x="849.625" y="206" width="30" height="30" rx="15" transform="rotate(180 849.625 206)" fill="#F6F2EB"/>
<rect data-nr="10-9" class="plan__svg__hoverable" x="787.625" y="462" width="30" height="30" rx="15" transform="rotate(180 787.625 462)" fill="#F6F2EB"/>
</svg>
