<svg width="900" height="600" viewBox="0 0 900 600" fill="none" xmlns="http://www.w3.org/2000/svg">
<path d="M628 83H280.125V516.875H628V83Z" fill="#DBD4CA"/>
<g opacity="0.3">
<path opacity="0.7" d="M619.75 173.25H491.875V341H619.75V173.25Z" fill="#C49F8A"/>
</g>
<path d="M498.75 341H500.5L501.75 339.75L503 341H504.75L502.625 338.875L514.75 326.75L527 339L525 341H526.75L527.875 339.875L529 341H530.75L528.75 339L541 326.75L553.25 339L551.25 341H553L554.125 339.875L555.25 341H557L555 339L567.25 326.75L579.5 339L577.5 341H579.25L580.375 339.875L581.5 341H583.25L581.25 339L593.5 326.75L605.625 338.875L603.5 341H605.25L606.5 339.75L607.75 341H609.5L607.375 338.875L619.5 326.75L619.875 327.125V324.625L619.5 325L607.375 312.875L619.625 300.625L619.875 300.875V298.625L619.625 298.875L607.375 286.625L619.875 274.125V272.375L607.625 260.125L619.875 247.875V246.125L607.625 233.875L619.75 221.75L619.875 221.875V219.875L619.75 220L607.625 207.875L619.875 195.625V193.75L607.625 181.5L616 173.125H614.25L606.75 180.625L599.25 173.125H597.5L605.875 181.5L593.625 193.75L581.125 181.25L589.25 173.125H587.5L580.25 180.375L573 173.125H571.25L579.375 181.25L567.25 193.375L555 181.25L563 173.25H561.25L554.125 180.375L547 173.25H545.25L553.25 181.25L541 193.5L528.75 181.25L536.875 173.125H535.125L527.875 180.375L520.625 173.125H518.875L527 181.25L514.5 193.75L502.25 181.5L510.625 173.125H508.875L501.375 180.625L493.875 173.125H492.125L500.5 181.5L491.875 190.125V191.875L501.375 182.375L513.625 194.625L501.375 206.875L491.875 197.375V199.125L500.5 207.75L491.875 216.375V218.125L501.375 208.625L513.5 220.75L501.375 232.875L491.875 223.375V225.125L500.5 233.75L491.875 242.375V244.125L501.375 234.625L513.625 246.875L501.375 259.125L491.875 249.625V251.375L500.5 260L491.875 268.625V270.375L501.375 260.875L513.875 273.375L501.625 285.625L491.875 275.875V277.625L500.75 286.5L491.875 295.375V297.125L501.625 287.375L513.875 299.625L501.625 311.875L491.875 302.125V303.875L500.75 312.75L491.875 321.625V323.375L501.625 313.625L513.75 325.75L501.625 337.875L491.875 328.125V329.875L500.75 338.75L498.75 341ZM527.75 338.125L515.5 325.875L527.75 313.625L540 325.875L527.75 338.125ZM568.125 247.25L580.625 234.75L592.75 246.875L580.25 259.375L568.125 247.25ZM592.5 273.5L580.25 285.75L568 273.5L580.25 261.25L592.5 273.5ZM579.375 260.375L567.125 272.625L555 260.5L567.25 248.25L579.375 260.375ZM566.25 273.5L554.125 285.625L542 273.5L554.125 261.375L566.25 273.5ZM554 259.5L541.75 247.25L554 235L566.25 247.25L554 259.5ZM553.125 260.375L541 272.5L528.75 260.25L540.875 248.125L553.125 260.375ZM553.125 286.5L540.875 298.75L528.75 286.625L541 274.375L553.125 286.5ZM554 287.375L566.25 299.625L554 311.875L541.75 299.625L554 287.375ZM555 286.5L567.125 274.375L579.375 286.625L567.25 298.75L555 286.5ZM580.25 287.5L592.5 299.75L580.375 311.875L568.125 299.625L580.25 287.5ZM581.125 286.625L593.375 274.375L605.625 286.625L593.375 298.875L581.125 286.625ZM581.125 260.375L593.625 247.875L605.875 260.125L593.375 272.625L581.125 260.375ZM581.375 233.875L593.625 221.625L605.75 233.75L593.5 246L581.375 233.875ZM580.5 233L568.25 220.75L580.5 208.5L592.75 220.75L580.5 233ZM579.625 233.875L567.125 246.375L554.875 234.125L567.375 221.625L579.625 233.875ZM554 233.25L541.5 220.75L554 208.25L566.5 220.75L554 233.25ZM553.125 234.125L540.875 246.375L528.375 233.875L540.625 221.625L553.125 234.125ZM527.625 233L515.375 220.75L527.625 208.5L539.875 220.75L527.625 233ZM540 247.25L527.875 259.375L515.375 246.875L527.5 234.75L540 247.25ZM540.125 273.5L527.875 285.75L515.625 273.5L527.875 261.25L540.125 273.5ZM540 299.625L527.75 311.875L515.625 299.75L527.875 287.5L540 299.625ZM528.75 312.75L541 300.5L553.25 312.75L541 325L528.75 312.75ZM554 338.125L541.75 325.875L554 313.625L566.25 325.875L554 338.125ZM555 312.75L567.25 300.5L579.5 312.75L567.25 325L555 312.75ZM580.25 338.125L568 325.875L580.25 313.625L592.5 325.875L580.25 338.125ZM581.25 312.75L593.375 300.625L605.625 312.875L593.5 325L581.25 312.75ZM618.625 325.875L606.5 338L594.375 325.875L606.5 313.75L618.625 325.875ZM618.75 299.75L606.5 312L594.25 299.75L606.5 287.5L618.75 299.75ZM619 273.25L606.5 285.75L594.25 273.5L606.75 261L619 273.25ZM618.875 247L606.625 259.25L594.375 247L606.625 234.75L618.875 247ZM618.875 220.75L606.75 232.875L594.625 220.75L606.75 208.625L618.875 220.75ZM606.75 182.375L619 194.625L606.75 206.875L594.5 194.625L606.75 182.375ZM605.875 207.75L593.75 219.875L581.5 207.625L593.625 195.5L605.875 207.75ZM580.25 182.125L592.75 194.625L580.625 206.75L568.125 194.25L580.25 182.125ZM579.625 207.75L567.375 220L554.875 207.5L567.125 195.25L579.625 207.75ZM554 182.125L566.25 194.375L554 206.625L541.75 194.375L554 182.125ZM553.125 207.375L540.625 219.875L528.375 207.625L540.875 195.125L553.125 207.375ZM527.875 182.125L540 194.25L527.5 206.75L515.375 194.625L527.875 182.125ZM502.25 207.75L514.5 195.5L526.625 207.625L514.375 219.875L502.25 207.75ZM502.25 233.875L514.375 221.75L526.625 234L514.5 246.125L502.25 233.875ZM502.25 260.125L514.5 247.875L527 260.375L514.75 272.625L502.25 260.125ZM502.5 286.625L514.75 274.375L527 286.625L514.75 298.875L502.5 286.625ZM502.5 312.875L514.75 300.625L526.875 312.75L514.625 325L502.5 312.875Z" fill="#C49F8A"/>
<path d="M280.25 81.5H274.125V523H617.875V516.875H280.25V81.5Z" stroke="#565440"/>
<path d="M272 75V87.25V115.875H296.625V87.25H511.875V96.625V100.75H516H525.5H528H529.625V87.25H615.75V93.375H628V87.25V75H272ZM525.5 96.625H516V87.25H525.5V96.625Z" fill="#565440"/>
<path d="M292.5 177.25H272V205.875H292.5V177.25Z" fill="#565440"/>
<path d="M439.75 300V320.5H443.875V300V296H296.625V263.25H272V377.75H296.625V300H439.75Z" fill="#565440"/>
<path d="M443.875 369.625H452.125V365.5H443.875V353.25H439.75V504.625H394.75V525.125H480.75V504.625H443.875V369.625Z" fill="#565440"/>
<path d="M296.625 435.125H272V463.75H296.625V435.125Z" fill="#565440"/>
<path d="M366.125 500.375V525H394.75V504.625V500.375H366.125Z" fill="#565440"/>
<path d="M615.75 173.25H546.125V177.375H615.75V259.25H493V177.375H513.5V173.25H493H488.875V365.625H484.75V369.75H492.875V365.625V341.125H542V337H492.875V263.375H615.625V323H601.25V325.125V327.125V337H574.875V341.125H615.75V500.625H538V525H628V504.625V500.375V134.75H615.75V173.25ZM605.375 336.875V327H615.75V336.875H605.375Z" fill="#565440"/>
<path d="M615.75 134.375C610.375 134.375 605.5 133.125 600.625 131.125C595.75 129.125 590.75 126.25 587.125 122.125C583.5 118.5 580.125 114 578.125 109C576.125 104.125 574.875 98.75 574.875 93.5H615.75M439.75 353.25C435.25 353.25 431.625 352.375 427.5 350.75C423.375 349.125 419.75 346.625 416.875 343.75C413.625 340.875 411.125 337.25 409.5 333.125C407.875 329 407 325 407 320.5H439.75V353.25ZM484.75 369.625C484.75 374.125 483.875 377.75 482.25 381.875C480.625 386 478.125 389.625 475.25 392.5C472.375 395.75 468.75 398.25 464.625 399.875C460.5 401.5 456.5 402.375 452 402.375V369.625H484.75ZM542.125 341C542.125 345.5 543 349.125 544.625 353.25C546.25 357.375 548.75 361 551.625 363.875C554.5 367.125 558.125 369.625 562.25 371.25C566.375 372.875 570.375 373.75 574.875 373.75V341H542.125ZM546.125 177.25C546.125 181.75 545.25 185.375 543.625 189.5C542 193.625 539.5 197.25 536.625 200.125C533.75 203.375 530.125 205.875 526 207.5C521.875 209.125 517.875 210 513.375 210V177.25H546.125Z" stroke="#565440"/>
<path d="M523 263.875H493.625V336.25H523V263.875Z" fill="#E9E4DC"/>
<path d="M494.25 264.5H522.375V335.625H494.25V264.5ZM493 263.25V336.875H523.625V263.25H493Z" fill="#C49F8A"/>
<path d="M508.25 270C502.625 270 498.25 274.875 498.75 280.375C499.25 286.5 499.75 294.25 499.75 300C499.75 305.75 499.25 313.375 498.75 319.625C498.25 325.25 502.625 330 508.25 330C513.875 330 518.25 325.125 517.75 319.625C517.25 313.5 516.75 305.75 516.75 300C516.75 294.25 517.25 286.625 517.75 280.375C518.25 274.875 513.875 270 508.25 270Z" fill="#E9E4DC" stroke="#C49F8A" stroke-linejoin="round"/>
<path d="M508.25 281.25C509.009 281.25 509.625 280.634 509.625 279.875C509.625 279.116 509.009 278.5 508.25 278.5C507.491 278.5 506.875 279.116 506.875 279.875C506.875 280.634 507.491 281.25 508.25 281.25Z" fill="#E9E4DC" stroke="#C49F8A" stroke-linejoin="round"/>
<path d="M559.875 242.625H534.375V258.5H559.875V242.625Z" fill="#E9E4DC"/>
<path d="M559.25 243.25V257.875H535V243.25H559.25ZM560.5 242H533.75V259.125H560.5V242Z" fill="#C49F8A"/>
<path d="M547.125 255.625C549.886 255.625 552.125 253.386 552.125 250.625C552.125 247.864 549.886 245.625 547.125 245.625C544.364 245.625 542.125 247.864 542.125 250.625C542.125 253.386 544.364 255.625 547.125 255.625Z" fill="#E9E4DC"/>
<path d="M547.125 246.25C549.5 246.25 551.5 248.125 551.5 250.625C551.5 253.125 549.625 255 547.125 255C544.625 255 542.75 253.125 542.75 250.625C542.875 248.25 544.75 246.25 547.125 246.25ZM547.125 245C544 245 541.5 247.5 541.5 250.625C541.5 253.75 544 256.25 547.125 256.25C550.25 256.25 552.75 253.75 552.75 250.625C552.75 247.5 550.25 245 547.125 245Z" fill="#C49F8A"/>
<path d="M364.125 184H420.375V224.875H364.125V184Z" fill="#E9E4DC" stroke="#C49F8A"/>
<path d="M423.75 194.25H424.625C430.25 194.25 434.875 198.875 434.875 204.5C434.875 210.125 430.25 214.75 424.625 214.75H423.75V194.25Z" fill="#E9E4DC" stroke="#C49F8A"/>
<path d="M420.25 196H424.5C429.25 196 433 199.875 433 204.5C433 209.125 429.125 213 424.5 213H420.25V196Z" fill="#E9E4DC" stroke="#C49F8A"/>
<path d="M360.625 194.25H359.75C354.125 194.25 349.5 198.875 349.5 204.5C349.5 210.125 354.125 214.75 359.75 214.75H360.625V194.25Z" fill="#E9E4DC" stroke="#C49F8A"/>
<path d="M364.125 196H359.875C355.125 196 351.375 199.875 351.375 204.5C351.375 209.125 355.25 213 359.875 213H364.125V196Z" fill="#E9E4DC" stroke="#C49F8A"/>
<path d="M402.375 180.625V179.75C402.375 174.125 397.75 169.5 392.125 169.5C386.5 169.5 381.875 174.125 381.875 179.75V180.625H402.375Z" fill="#E9E4DC" stroke="#C49F8A"/>
<path d="M400.75 184V179.75C400.75 175 396.875 171.25 392.25 171.25C387.5 171.25 383.75 175.125 383.75 179.75V184H400.75Z" fill="#E9E4DC" stroke="#C49F8A"/>
<path d="M402.375 228.375V229.25C402.375 234.875 397.75 239.5 392.125 239.5C386.5 239.5 381.875 234.875 381.875 229.25V228.375H402.375Z" fill="#E9E4DC" stroke="#C49F8A"/>
<path d="M400.75 224.875V229.125C400.75 233.875 396.875 237.625 392.25 237.625C387.5 237.625 383.75 233.75 383.75 229.125V224.875H400.75Z" fill="#E9E4DC" stroke="#C49F8A"/>
<path d="M458.25 411.5H454.75V473.625H458.25V411.5Z" fill="#E9E4DC"/>
<path d="M457.5 412.125V473H455.25V412.125H457.5ZM458.75 410.875H454V474.25H458.75V410.875Z" fill="#C49F8A"/>
<path d="M455.125 411.5H444.5V473.625H455.125V411.5Z" fill="#E9E4DC"/>
<path d="M454.5 412.125V473H445.125V412.125H454.5ZM455.75 410.875H443.875V474.25H455.75V410.875Z" fill="#C49F8A"/>
<path d="M449 419.625H446.875V464.5H449V419.625Z" fill="#E9E4DC" stroke="#C49F8A"/>
<path d="M446.875 451.5V432.5L444.625 434.25V449.75L446.875 451.5Z" fill="#E9E4DC" stroke="#C49F8A"/>
<path d="M478 176.5H475.5V238.625H478V176.5Z" fill="#E9E4DC"/>
<path d="M477.375 177.125V238H476.125V177.125H477.375ZM478.625 175.875H474.875V239.25H478.625V175.875Z" fill="#C49F8A"/>
<path d="M488.25 176.5H477.625V238.625H488.25V176.5Z" fill="#E9E4DC"/>
<path d="M487.625 177.125V238H478.25V177.125H487.625ZM488.875 175.875H477V239.25H488.875V175.875Z" fill="#C49F8A"/>
<path d="M485.875 185.75H483.75V230.625H485.875V185.75Z" fill="#E9E4DC" stroke="#C49F8A"/>
<path d="M485.875 198.625V217.625L488.125 215.875V200.375L485.875 198.625Z" fill="#E9E4DC" stroke="#C49F8A"/>
<path d="M534.375 240.5H493.625V258.5H534.375V240.5Z" fill="#E9E4DC"/>
<path d="M533.75 241.125V257.875H494.25V241.125H533.75ZM535 239.875H493V259.125H535V239.875Z" fill="#C49F8A"/>
<path d="M523.25 249.375C523.25 246.125 520.875 243.5 517.875 243.5H510.125C507.125 243.5 504.75 246.125 504.75 249.375C504.75 252.625 507.125 255.25 510.125 255.25H517.875C520.875 255.25 523.25 252.625 523.25 249.375Z" fill="#E9E4DC" stroke="#C49F8A"/>
<path d="M514 253.5C514.759 253.5 515.375 252.884 515.375 252.125C515.375 251.366 514.759 250.75 514 250.75C513.241 250.75 512.625 251.366 512.625 252.125C512.625 252.884 513.241 253.5 514 253.5Z" fill="#E9E4DC" stroke="#C49F8A"/>
<path d="M607.875 263.875H523V281.875H607.875V263.875Z" fill="#E9E4DC"/>
<path d="M607.25 264.5V281.25H523.625V264.5H607.25ZM608.5 263.25H522.375V282.5H608.5V263.25Z" fill="#C49F8A"/>
<path d="M565.375 263.875H541.125V281.875H565.375V263.875Z" fill="#E9E4DC"/>
<path d="M564.75 264.5V281.25H541.75V264.5H564.75ZM566 263.25H540.5V282.5H566V263.25Z" fill="#C49F8A"/>
<path d="M544 272.875C544 276.125 546.375 278.75 549.375 278.75H557.125C560.125 278.75 562.5 276.125 562.5 272.875C562.5 269.625 560.125 267 557.125 267H549.375C546.375 267 544 269.625 544 272.875Z" fill="#E9E4DC" stroke="#C49F8A"/>
<path d="M553.25 271.625C554.009 271.625 554.625 271.009 554.625 270.25C554.625 269.491 554.009 268.875 553.25 268.875C552.491 268.875 551.875 269.491 551.875 270.25C551.875 271.009 552.491 271.625 553.25 271.625Z" fill="#E9E4DC" stroke="#C49F8A"/>
<path d="M607.875 291.625H601.875V310H607.875V291.625Z" fill="#E9E4DC"/>
<path d="M607.25 292.25V309.375H602.5V292.25H607.25ZM608.5 291H601.25V310.625H608.5V291Z" fill="#C49F8A"/>
<path d="M588.875 293.75C584.875 293.5 581.375 296.625 581.375 300.75C581.375 304.75 584.75 308 588.875 307.75L601.75 306.875V294.625L588.875 293.75Z" fill="#E9E4DC" stroke="#C49F8A"/>
<path d="M589 295.75C586 295.5 583.5 297.75 583.5 300.75C583.5 303.75 586 306 589 305.75L597.75 305V296.5L589 295.75Z" fill="#E9E4DC" stroke="#C49F8A"/>
<path d="M593.25 302.125C594.009 302.125 594.625 301.509 594.625 300.75C594.625 299.991 594.009 299.375 593.25 299.375C592.491 299.375 591.875 299.991 591.875 300.75C591.875 301.509 592.491 302.125 593.25 302.125Z" fill="#E9E4DC" stroke="#C49F8A"/>
<path d="M615.125 263.875H607.875V322.25H615.125V263.875Z" fill="#E9E4DC"/>
<path d="M614.5 264.5V321.625H608.5V264.5H614.5ZM615.75 263.25H607.25V322.875H615.75V263.25Z" fill="#C49F8A"/>
<path d="M615.125 177.875H607.875V258.5H615.125V177.875Z" fill="#E9E4DC"/>
<path d="M614.5 178.5V257.875H608.5V178.5H614.5ZM615.75 177.25H607.25V259.125H615.75V177.25Z" fill="#C49F8A"/>
<path d="M607.875 187.5H601.875V205.875H607.875V187.5Z" fill="#E9E4DC"/>
<path d="M607.25 188.125V205.25H602.5V188.125H607.25ZM608.5 186.875H601.25V206.5H608.5V186.875Z" fill="#C49F8A"/>
<path d="M588.875 189.75C584.875 189.5 581.375 192.625 581.375 196.75C581.375 200.75 584.75 204 588.875 203.75L601.75 202.875V190.625L588.875 189.75Z" fill="#E9E4DC" stroke="#C49F8A"/>
<path d="M589 191.75C586 191.5 583.5 193.75 583.5 196.75C583.5 199.75 586 202 589 201.75L597.75 201V192.5L589 191.75Z" fill="#E9E4DC" stroke="#C49F8A"/>
<path d="M593.25 198.125C594.009 198.125 594.625 197.509 594.625 196.75C594.625 195.991 594.009 195.375 593.25 195.375C592.491 195.375 591.875 195.991 591.875 196.75C591.875 197.509 592.491 198.125 593.25 198.125Z" fill="#E9E4DC" stroke="#C49F8A"/>
<path d="M311.25 288.125V239.875H332.5C333.25 239.875 334 240.5 334 241.375V288.125H311.25Z" fill="#E9E4DC"/>
<path d="M332.375 240.5C332.875 240.5 333.25 240.875 333.25 241.375V287.5H311.875V240.5H332.375ZM332.375 239.25H310.5V288.75H334.375V241.25C334.5 240.125 333.5 239.25 332.375 239.25Z" fill="#C49F8A"/>
<path d="M334.125 288.125V266.875C334.125 266.125 334.75 265.375 335.625 265.375H369.5C370.375 265.375 371 266 371 266.875V288.125H334.125Z" fill="#E9E4DC"/>
<path d="M369.625 266.125C370.125 266.125 370.5 266.5 370.5 267V287.5H334.75V266.875C334.75 266.375 335.125 266 335.625 266L369.625 266.125ZM369.625 264.875H335.75C334.5 264.875 333.625 265.75 333.625 267V288.75H371.875V266.875C371.75 265.75 370.875 264.875 369.625 264.875Z" fill="#C49F8A"/>
<path d="M371.5 288.125V266.875C371.5 266.125 372.125 265.375 373 265.375H405.875C406.625 265.375 407.375 266 407.375 266.875V288.125H371.5Z" fill="#E9E4DC"/>
<path d="M405.75 266.125C406.25 266.125 406.625 266.5 406.625 267V287.5H372.125V266.875C372.125 266.375 372.5 266 373 266L405.75 266.125ZM405.75 264.875H372.875C371.75 264.875 370.75 265.75 370.75 267V288.75H407.75V266.875C407.875 265.75 407 264.875 405.75 264.875Z" fill="#C49F8A"/>
<path d="M303.75 295.375V232.625H335.625V239.5H310.875V288.375H407.625V263.75H414.125V295.375H303.75Z" fill="#E9E4DC"/>
<path d="M335 233.25V238.875H311.625H310.375V240.125V287.75V289H311.625H407H408.25V287.75V264.375H413.5V294.75H304.375V233.25H335ZM336.25 232H303.25V296H414.875V263.125H407.125V287.75H311.75V240.125H336.25V232Z" fill="#C49F8A"/>
<path d="M511.25 87.875H297.25V115.375H511.25V87.875Z" fill="#E9E4DC"/>
<path d="M297.875 88.5H510.625V114.75H297.875V88.5ZM296.625 87.25V116H511.875V87.25H296.625Z" fill="#C49F8A"/>
<path d="M356.375 89.75H323.5V117.5H356.375V89.75Z" fill="#E9E4DC"/>
<path d="M355.75 90.375V116.875H324.25V90.375H355.75ZM357 89.125H323V118.125H357V89.125Z" fill="#C49F8A"/>
<path d="M356.375 87.875H323.5V115.375H356.375V87.875Z" fill="#E9E4DC"/>
<path d="M355.75 88.5V114.75H324.25V88.5H355.75ZM357 87.25H323V116H357V87.25Z" fill="#C49F8A"/>
<path d="M323.5 87.875H297.25V115.375H323.5V87.875Z" fill="#E9E4DC"/>
<path d="M322.875 88.5V114.75H297.875V88.5H322.875ZM324.125 87.25H296.625V116H324.125V87.25Z" fill="#C49F8A"/>
<path d="M323.5 113.125H297.25V115.375H323.5V113.125Z" fill="#E9E4DC"/>
<path d="M322.875 113.75V114.75H297.875V113.75H322.875ZM324.125 112.5H296.625V116H324.125V112.5Z" fill="#C49F8A"/>
<path d="M507.5 91.25H474.5V112.125H507.5V91.25Z" fill="#E9E4DC" stroke="#C49F8A"/>
<path d="M494.5 101.625C494.5 106 491 109.375 486.75 109.375H485C480.625 109.375 477.25 105.875 477.25 101.625C477.25 97.25 480.75 93.875 485 93.875H486.75C491 93.875 494.5 97.375 494.5 101.625Z" fill="#E9E4DC" stroke="#C49F8A"/>
<path d="M485.75 99.5C486.509 99.5 487.125 98.8844 487.125 98.125C487.125 97.3656 486.509 96.75 485.75 96.75C484.991 96.75 484.375 97.3656 484.375 98.125C484.375 98.8844 484.991 99.5 485.75 99.5Z" fill="#E9E4DC" stroke="#C49F8A"/>
<path d="M505.75 109.5H497.125M505.75 93.875H497.125H505.75ZM505.75 96.375H497.125H505.75ZM505.75 99H497.125H505.75ZM505.75 101.625H497.125H505.75ZM505.75 104.25H497.125H505.75ZM505.75 106.875H497.125H505.75Z" stroke="#C49F8A"/>
<path d="M415.125 87.875H389.5V115.375H415.125V87.875Z" fill="#E9E4DC"/>
<path d="M414.5 88.5V114.75H390.125V88.5H414.5ZM415.75 87.25H388.875V116H415.75V87.25Z" fill="#C49F8A"/>
<path d="M415.125 87.875H389.5V90H415.125V87.875Z" fill="#E9E4DC"/>
<path d="M414.5 88.5V89.375H390.125V88.5H414.5ZM415.75 87.25H388.875V90.625H415.75V87.25Z" fill="#C49F8A"/>
<path d="M408 100.375C406.5 100.375 405.375 99.25 405.375 97.75C405.375 96.375 406.625 95.125 408 95.125C409.375 95.125 410.625 96.25 410.625 97.75C410.625 99.125 409.5 100.375 408 100.375Z" fill="#E9E4DC"/>
<path d="M408 95.75C409.125 95.75 410 96.625 410 97.75C410 98.875 409.125 99.75 408 99.75C406.875 99.75 406 98.875 406 97.75C406 96.625 406.875 95.75 408 95.75ZM408 94.5C406.125 94.5 404.75 96 404.75 97.75C404.75 99.5 406.25 101 408 101C409.875 101 411.25 99.5 411.25 97.75C411.25 96 409.875 94.5 408 94.5Z" fill="#C49F8A"/>
<path d="M408 110.875C406.125 110.875 404.5 109.375 404.5 107.5C404.5 105.625 406 104.125 408 104.125C409.875 104.125 411.5 105.625 411.5 107.5C411.5 109.375 409.875 110.875 408 110.875Z" fill="#E9E4DC"/>
<path d="M408 104.625C409.625 104.625 410.875 105.875 410.875 107.375C410.875 108.875 409.625 110.125 408 110.125C406.375 110.125 405.125 108.875 405.125 107.375C405.125 105.875 406.375 104.625 408 104.625ZM408 103.375C405.75 103.375 403.875 105.125 403.875 107.375C403.875 109.625 405.75 111.375 408 111.375C410.25 111.375 412.125 109.625 412.125 107.375C412.125 105.125 410.25 103.375 408 103.375Z" fill="#C49F8A"/>
<path d="M396.5 101.125C394.625 101.125 393 99.625 393 97.75C393 95.875 394.5 94.375 396.5 94.375C398.375 94.375 400 95.875 400 97.75C400 99.625 398.375 101.125 396.5 101.125Z" fill="#E9E4DC"/>
<path d="M396.5 94.875C398.125 94.875 399.375 96.125 399.375 97.625C399.375 99.125 398.125 100.375 396.5 100.375C394.875 100.375 393.625 99.125 393.625 97.625C393.625 96.125 395 94.875 396.5 94.875ZM396.5 93.625C394.25 93.625 392.375 95.375 392.375 97.625C392.375 99.875 394.25 101.625 396.5 101.625C398.75 101.625 400.625 99.875 400.625 97.625C400.625 95.375 398.75 93.625 396.5 93.625Z" fill="#C49F8A"/>
<path d="M396.5 110.875C397.95 110.875 399.125 109.7 399.125 108.25C399.125 106.8 397.95 105.625 396.5 105.625C395.05 105.625 393.875 106.8 393.875 108.25C393.875 109.7 395.05 110.875 396.5 110.875Z" fill="#E9E4DC"/>
<path d="M396.5 106.25C397.625 106.25 398.5 107.125 398.5 108.25C398.5 109.375 397.625 110.25 396.5 110.25C395.375 110.25 394.5 109.375 394.5 108.25C394.5 107.125 395.375 106.25 396.5 106.25ZM396.5 105C394.625 105 393.25 106.5 393.25 108.25C393.25 110 394.75 111.5 396.5 111.5C398.375 111.5 399.75 110 399.75 108.25C399.75 106.375 398.375 105 396.5 105Z" fill="#C49F8A"/>
<path d="M312.375 97.25L308.25 104.5M314.5 101H306.25H314.5ZM312.375 104.625L308.25 97.375L312.375 104.625Z" stroke="#C49F8A"/>
<path d="M439.125 380H352.5V434.25H439.125V380Z" fill="#E9E4DC"/>
<path d="M353.125 380.625H438.5V433.625H353.125V380.625ZM351.875 379.375V434.875H439.75V379.375H351.875Z" fill="#C49F8A"/>
<path d="M433.5 408.375H411.75V430H433.5V408.375Z" fill="#E9E4DC" stroke="#C49F8A"/>
<path d="M433.5 384H411.75V405.625H433.5V384Z" fill="#E9E4DC" stroke="#C49F8A"/>
<path d="M420.625 427.375L426.25 411.75L405.25 407.625L399.625 423.25L420.625 427.375Z" fill="#E9E4DC" stroke="#C49F8A" stroke-miterlimit="3.9998"/>
<path d="M405.25 406.5L426.25 402.25L420.625 386.625L399.625 390.75L405.25 406.5Z" fill="#E9E4DC" stroke="#C49F8A" stroke-miterlimit="3.9998"/>
<path d="M351.625 434.125V380H420.75L422.625 401.5L416.25 434.125H351.625Z" fill="#E9E4DC"/>
<path d="M352.25 380.625H420H420.25L422 401.5L415.75 433.625H352.25V380.625ZM351 379.375V434.875H416.25H416.75L423.25 401.625L421.375 379.375H420H351Z" fill="#C49F8A"/>
<path d="M419.125 380.125V401.75L415.5 434.25" stroke="#C49F8A"/>
<path d="M615.125 407.5H534.75V474.125H615.125V407.5Z" fill="#E9E4DC"/>
<path d="M535.375 408.125H614.5V473.5H535.375V408.125ZM534.125 406.875V474.75H615.75V406.875H534.125Z" fill="#C49F8A"/>
<path d="M609.875 442.5H589.75V469H609.875V442.5Z" fill="#E9E4DC" stroke="#C49F8A"/>
<path d="M609.875 412.75H589.75V439.25H609.875V412.75Z" fill="#E9E4DC" stroke="#C49F8A"/>
<path d="M598 465.75L603.125 446.625L583.625 441.5L578.5 460.625L598 465.75Z" fill="#E9E4DC" stroke="#C49F8A" stroke-miterlimit="3.9998"/>
<path d="M583.625 440.125L603.125 435L597.875 415.75L578.5 421L583.625 440.125Z" fill="#E9E4DC" stroke="#C49F8A" stroke-miterlimit="3.9998"/>
<path d="M533.875 474.125V407.5H598L599.75 434L593.75 474.125H533.875Z" fill="#E9E4DC"/>
<path d="M534.5 408.125H597.25H597.375L599 434L593.125 473.5H534.375L534.5 408.125ZM533.25 406.875V474.75H593.875H594.25L600.25 434L598.5 406.875H597.25H533.25Z" fill="#C49F8A"/>
<path d="M596.5 407.75V434.375L593.25 474.125" stroke="#C49F8A"/>
<path d="M322.625 471.25H342.25L344.875 489.125H319.875L322.625 471.25Z" fill="#E9E4DC" stroke="#C49F8A"/>
<path d="M365.5 487H281.5V516.125H365.5V487Z" fill="#E9E4DC"/>
<path d="M364.875 487.625V515.5H282.125V487.625H364.875ZM366.125 486.375H280.875V516.75H366.125V486.375Z" fill="#C49F8A"/>
<path d="M324.5 495.625H339.75H324.5ZM323.125 492.125H341V497.5H323.125V492.125Z" stroke="#C49F8A"/>
<path d="M315.75 491.875C316.5 491.875 317.125 492.5 317.125 493.25V495C317.125 495.75 316.5 496.375 315.75 496.375C315 496.375 314.375 495.75 314.375 495V493.25C314.375 492.375 315 491.875 315.75 491.875Z" fill="#E9E4DC" stroke="#C49F8A"/>
<path d="M327.625 506.125C327.625 503.625 329.625 501.625 332.125 501.625C334.625 501.625 336.625 503.625 336.625 506.125V510.625H327.625V506.125Z" fill="#E9E4DC" stroke="#C49F8A"/>
<path d="M308.822 508.83L308.819 510.58L355.319 510.659L355.322 508.909L308.822 508.83Z" fill="#E9E4DC" stroke="#C49F8A"/>
<path d="M341.875 470.75H322.875V486.75H341.875V470.75Z" fill="#E9E4DC"/>
<path d="M341.25 471.375V486.125H323.5V471.375H341.25ZM342.5 470.125H322.25V487.375H342.5V470.125Z" fill="#C49F8A"/>
<path d="M342.125 469H322.625V470.75H342.125V469Z" fill="#E9E4DC"/>
<path d="M341.5 469.625V470.125H323.25V469.625H341.5ZM342.75 468.375H322V471.375H342.75V468.375Z" fill="#C49F8A"/>
<path d="M398.375 310.125H303.75V327.125H398.375V310.125Z" fill="#E9E4DC"/>
<path d="M304.375 310.75H397.75V326.5H304.375V310.75ZM303.125 309.5V327.75H399V309.5H303.125Z" fill="#C49F8A"/>
<path d="M398.375 300.625H303.75V324.375H398.375V300.625Z" fill="#E9E4DC"/>
<path d="M304.375 301.25H397.75V323.75H304.375V301.25ZM303.125 300V325H399V300H303.125Z" fill="#C49F8A"/>
<path d="M398.25 300.875L303.5 324.25L398.25 300.875Z" fill="#E9E4DC"/>
<path d="M398.25 300.875L303.5 324.25" stroke="#C49F8A"/>
<path d="M615.125 151.25H558.375V167.625H615.125V151.25Z" fill="#E9E4DC"/>
<path d="M614.5 151.875V167H559V151.875H614.5ZM615.75 150.625H557.75V168.25H615.75V150.625Z" fill="#C49F8A"/>
<path d="M615.125 153.375H558.375V172.625H615.125V153.375Z" fill="#E9E4DC"/>
<path d="M614.5 154V172H559V154H614.5ZM615.75 152.75H557.75V173.25H615.75V152.75Z" fill="#C49F8A"/>
<path d="M558.125 172.625L615.5 153.375L558.125 172.625Z" fill="#E9E4DC"/>
<path d="M558.125 172.625L615.5 153.375" stroke="#C49F8A"/>
<path d="M615.125 346.625H577V363.625H615.125V346.625Z" fill="#E9E4DC"/>
<path d="M614.5 347.25V363H577.625V347.25H614.5ZM615.75 346H576.375V364.25H615.75V346Z" fill="#C49F8A"/>
<path d="M615.125 341.625H577V360.875H615.125V341.625Z" fill="#E9E4DC"/>
<path d="M577.625 342.25H614.5V360.25H577.625V342.25ZM576.375 341V361.5H615.75V341H576.375Z" fill="#C49F8A"/>
<path d="M615.25 341.625L576.75 360.875L615.25 341.625Z" fill="#E9E4DC"/>
<path d="M615.25 341.625L576.75 360.875" stroke="#C49F8A"/>
<path d="M539.375 346.625H493.625V363.625H539.375V346.625Z" fill="#E9E4DC"/>
<path d="M494.25 347.25H538.75V363H494.25V347.25ZM493 346V364.25H540V346H493Z" fill="#C49F8A"/>
<path d="M539.375 341.625H493.625V360.875H539.375V341.625Z" fill="#E9E4DC"/>
<path d="M494.25 342.25H538.75V360.25H494.25V342.25ZM493 341V361.5H540V341H493Z" fill="#C49F8A"/>
<path d="M539.375 341.625L493.375 360.875L539.375 341.625Z" fill="#E9E4DC"/>
<path d="M539.375 341.625L493.375 360.875" stroke="#C49F8A"/>
<path d="M551.125 87.875H530.125V100H551.125V87.875Z" fill="#E9E4DC"/>
<path d="M530.75 88.5H550.5V99.375H530.75V88.5ZM529.5 87.25V100.625H551.75V87.25H529.5Z" fill="#C49F8A"/>
<path d="M551.125 87.875H530.125V98H551.125V87.875Z" fill="#E9E4DC"/>
<path d="M550.5 88.5V97.375H530.75V88.5H550.5ZM551.75 87.25H529.5V98.625H551.75V87.25Z" fill="#C49F8A"/>
<path d="M551.375 87.875L530 98L551.375 87.875Z" fill="#E9E4DC"/>
<path d="M551.375 87.875L530 98" stroke="#C49F8A"/>
<path d="M607.75 225.375V258.5H574.625V235.75C574.625 230.125 579.25 225.5 584.875 225.5H607.75V225.375Z" fill="#E9E4DC" stroke="#C49F8A"/>
<path d="M605.75 227.375V256.375H576.75V235.5C576.75 231.125 580.375 227.5 584.75 227.5H605.75V227.375Z" fill="#E9E4DC" stroke="#C49F8A"/>
<path d="M599.25 251.25C600.009 251.25 600.625 250.634 600.625 249.875C600.625 249.116 600.009 248.5 599.25 248.5C598.491 248.5 597.875 249.116 597.875 249.875C597.875 250.634 598.491 251.25 599.25 251.25Z" fill="#E9E4DC" stroke="#C49F8A"/>
<path d="M483.25 435.875L485.625 433.875H486.625V442.25H485.375V435.625L483.875 436.75L483.25 435.875Z" fill="#565440"/>
<path d="M490.5 442.25C489.625 442.25 488.75 442 487.875 441.375L488.5 440.375C489.25 440.875 489.875 441 490.5 441C491 441 491.375 440.875 491.625 440.625C491.875 440.375 492 440.125 492 439.625C492 439.25 491.875 438.875 491.5 438.625C491.25 438.375 490.875 438.25 490.375 438.25H489.375V437.125H490.375C490.75 437.125 491.125 437 491.375 436.75C491.625 436.5 491.75 436.25 491.75 435.875C491.75 435.5 491.625 435.25 491.375 435C491.125 434.75 490.75 434.625 490.375 434.625C489.875 434.625 489.25 434.875 488.625 435.375L488 434.5C488.25 434.25 488.75 434 489.125 433.75C489.625 433.625 490 433.5 490.5 433.5C491.25 433.5 491.875 433.75 492.375 434.125C492.875 434.5 493.125 435.125 493.125 435.625C493.125 436.125 493 436.5 492.75 436.75C492.5 437.125 492.125 437.375 491.75 437.5C492.25 437.625 492.625 437.875 493 438.25C493.25 438.625 493.375 439 493.375 439.625C493.375 440.375 493.125 440.875 492.625 441.375C492.125 442 491.375 442.25 490.5 442.25Z" fill="#565440"/>
<path d="M495.25 442.25C495 442.25 494.875 442.125 494.625 442C494.375 441.875 494.375 441.625 494.375 441.375C494.375 441.125 494.5 441 494.625 440.875C494.75 440.75 495 440.625 495.25 440.625C495.5 440.625 495.625 440.75 495.75 440.875C495.875 441 496 441.25 496 441.375C496 441.625 495.875 441.75 495.75 442C495.625 442.25 495.5 442.25 495.25 442.25Z" fill="#565440"/>
<path d="M500 433.625C501 433.625 501.75 434 502.25 434.75C502.75 435.5 503 436.5 503 437.625C503 438.25 502.875 438.875 502.75 439.375C502.625 439.875 502.375 440.375 502.125 440.875C501.875 441.25 501.5 441.625 501 441.875C500.5 442.125 500 442.25 499.5 442.25C498.625 442.25 497.875 442 497.25 441.5L497.75 440.5C498.25 440.875 498.875 441.125 499.375 441.125C500.125 441.125 500.625 440.875 501 440.25C501.375 439.625 501.625 439 501.625 438.125C501.375 438.5 501.125 438.75 500.75 438.875C500.375 439 500 439.125 499.5 439.125C498.75 439.125 498.125 438.875 497.625 438.375C497.125 437.875 496.875 437.25 496.875 436.5C496.875 435.75 497.125 435 497.625 434.5C498.5 433.875 499.125 433.625 500 433.625ZM501.5 436.5C501.5 436 501.375 435.625 501 435.375C500.75 435 500.375 434.875 499.875 434.875C499.375 434.875 499 435 498.75 435.375C498.5 435.75 498.25 436.125 498.25 436.5C498.25 437 498.375 437.375 498.75 437.625C499 437.875 499.375 438.125 499.875 438.125C500.375 438.125 500.75 438 501 437.625C501.375 437.25 501.5 436.875 501.5 436.5Z" fill="#565440"/>
<path d="M311.875 406.625L314.25 404.625H315.25V413H314V406.25L312.5 407.375L311.875 406.625Z" fill="#565440"/>
<path d="M316.625 405.75V404.625H321.875V405.5L318.75 413H317.375L320.5 405.875H316.625V405.75Z" fill="#565440"/>
<path d="M322.625 413C322.375 413 322.25 412.875 322 412.75C321.875 412.625 321.75 412.375 321.75 412.125C321.75 411.875 321.875 411.75 322 411.625C322.125 411.5 322.375 411.375 322.625 411.375C322.875 411.375 323 411.5 323.125 411.625C323.25 411.75 323.375 412 323.375 412.125C323.375 412.375 323.25 412.5 323.125 412.75C323 413 322.75 413 322.625 413Z" fill="#565440"/>
<path d="M328.375 409.5L326.375 411.75H329.75V413H324.5V411.875L327.125 409L327.75 408.25C327.875 408.125 328 407.875 328.125 407.625C328.25 407.375 328.25 407.125 328.25 406.875C328.25 406.5 328.125 406.25 327.875 406C327.625 405.75 327.25 405.625 326.875 405.625C326.25 405.625 325.625 405.875 324.875 406.5L324.125 405.625C325 404.875 325.875 404.375 326.875 404.375C327.625 404.375 328.25 404.625 328.75 405.125C329.25 405.625 329.5 406.25 329.5 406.875C329.625 407.625 329.25 408.5 328.375 409.5Z" fill="#565440"/>
<path d="M336.875 159.75L334.875 162H338.25V163.25H333V162.125L335.625 159.25L336.25 158.5C336.375 158.375 336.5 158.125 336.625 157.875C336.75 157.625 336.75 157.375 336.75 157.125C336.75 156.75 336.625 156.5 336.375 156.25C336.125 156 335.75 155.875 335.375 155.875C334.75 155.875 334.125 156.125 333.375 156.75L332.625 155.875C333.5 155.125 334.375 154.625 335.375 154.625C336.125 154.625 336.75 154.875 337.25 155.375C337.75 155.875 338 156.5 338 157.125C338.125 157.875 337.75 158.75 336.875 159.75Z" fill="#565440"/>
<path d="M341.625 163.25C340.75 163.25 339.875 163 339 162.375L339.625 161.375C340.375 161.875 341 162 341.625 162C342.125 162 342.5 161.875 342.75 161.625C343 161.375 343.125 161.125 343.125 160.625C343.125 160.25 343 159.875 342.625 159.625C342.375 159.375 342 159.25 341.5 159.25H340.5V158.125H341.5C341.875 158.125 342.25 158 342.5 157.75C342.75 157.5 342.875 157.25 342.875 156.875C342.875 156.5 342.75 156.25 342.5 156C342.25 155.75 341.875 155.625 341.5 155.625C341 155.625 340.375 155.875 339.75 156.375L339.125 155.5C339.375 155.25 339.875 155 340.25 154.75C340.75 154.625 341.125 154.5 341.625 154.5C342.375 154.5 343 154.75 343.5 155.125C344 155.5 344.25 156.125 344.25 156.625C344.25 157.125 344.125 157.5 343.875 157.75C343.625 158.125 343.25 158.375 342.875 158.5C343.375 158.625 343.75 158.875 344.125 159.25C344.375 159.625 344.5 160 344.5 160.625C344.5 161.375 344.25 161.875 343.75 162.375C343.125 163 342.5 163.25 341.625 163.25Z" fill="#565440"/>
<path d="M346.375 163.25C346.125 163.25 346 163.125 345.75 163C345.625 162.875 345.5 162.625 345.5 162.375C345.5 162.125 345.625 162 345.75 161.875C345.875 161.75 346.125 161.625 346.375 161.625C346.625 161.625 346.75 161.75 346.875 161.875C347 162 347.125 162.25 347.125 162.375C347.125 162.625 347 162.75 346.875 163C346.875 163.25 346.625 163.25 346.375 163.25Z" fill="#565440"/>
<path d="M351 157.75C351.75 157.75 352.5 158 353 158.5C353.5 159 353.75 159.625 353.75 160.5C353.75 161.375 353.5 162 352.875 162.5C352.375 163 351.625 163.25 350.75 163.25C349.75 163.25 348.875 162.875 348 162.25L348.625 161.25C349.375 161.75 350 162 350.75 162C351.25 162 351.625 161.875 352 161.5C352.375 161.25 352.5 160.875 352.5 160.375C352.5 159.875 352.375 159.5 352 159.25C351.75 159 351.25 158.75 350.75 158.75C350.125 158.75 349.625 159 349.25 159.375L348.5 158.875L349 154.75H353.25V155.875H350L349.75 157.875C350.125 157.875 350.5 157.75 351 157.75Z" fill="#565440"/>
<path d="M456.875 316.625L459.25 314.625H460.25V323H459V316.25L457.5 317.5L456.875 316.625Z" fill="#565440"/>
<path d="M462.625 323C462.375 323 462.25 322.875 462 322.75C461.75 322.625 461.75 322.375 461.75 322.125C461.75 321.875 461.875 321.75 462 321.625C462.125 321.5 462.375 321.375 462.625 321.375C462.875 321.375 463 321.5 463.125 321.625C463.25 321.75 463.375 322 463.375 322.125C463.375 322.375 463.25 322.5 463.125 322.75C463 323 462.875 323 462.625 323Z" fill="#565440"/>
<path d="M467.625 317.5C468.375 317.5 469 317.75 469.5 318.25C470 318.75 470.25 319.375 470.25 320.125C470.25 320.875 470 321.625 469.375 322.125C468.875 322.625 468.125 322.875 467.25 322.875C466.25 322.875 465.5 322.5 465 321.75C464.5 321 464.25 320 464.25 318.875C464.25 318.125 464.375 317.375 464.625 316.625C464.875 315.875 465.25 315.375 465.75 315C466.25 314.5 467 314.375 467.75 314.375C468.625 314.375 469.375 314.625 469.875 315.125L469.375 316.125C468.875 315.75 468.375 315.625 467.875 315.625C467.375 315.625 467 315.75 466.625 316.125C466 316.75 465.625 317.625 465.625 318.75C465.875 318.375 466.125 318.125 466.5 317.875C466.875 317.625 467.125 317.5 467.625 317.5ZM467.375 321.875C467.875 321.875 468.25 321.75 468.5 321.375C468.75 321 469 320.625 469 320.25C469 319.75 468.875 319.375 468.5 319.125C468.25 318.875 467.875 318.625 467.375 318.625C466.875 318.625 466.5 318.75 466.25 319.125C466 319.375 465.75 319.875 465.75 320.25C465.75 320.75 465.875 321.125 466.25 321.375C466.5 321.625 466.875 321.875 467.375 321.875Z" fill="#565440"/>
<path d="M554.75 311.625H555.625V312.75H554.75V314.75H553.5V312.75H549.75L549.5 312L554 306.5H554.875V311.625H554.75ZM553.5 308.625L551 311.625H553.5V308.625Z" fill="#565440"/>
<path d="M557.5 315C557.25 315 557.125 314.875 556.875 314.75C556.75 314.625 556.625 314.375 556.625 314.125C556.625 313.875 556.75 313.75 556.875 313.625C557 313.5 557.25 313.375 557.5 313.375C557.75 313.375 557.875 313.5 558 313.625C558.125 313.75 558.25 314 558.25 314.125C558.25 314.375 558.125 314.5 558 314.75C557.875 314.875 557.75 315 557.5 315Z" fill="#565440"/>
<path d="M562.125 309.375C562.875 309.375 563.625 309.625 564.125 310.125C564.625 310.625 564.875 311.25 564.875 312.125C564.875 313 564.625 313.625 564 314.125C563.5 314.625 562.75 314.875 561.875 314.875C560.875 314.875 560 314.5 559.125 313.875L559.75 312.875C560.5 313.375 561.125 313.625 561.875 313.625C562.375 313.625 562.75 313.5 563.125 313.125C563.5 312.875 563.625 312.5 563.625 312C563.625 311.5 563.5 311.125 563.125 310.875C562.875 310.625 562.375 310.375 561.875 310.375C561.25 310.375 560.75 310.625 560.375 311L559.625 310.5L560.125 306.375H564.375V307.5H561.125L560.875 309.5C561.25 309.5 561.625 309.375 562.125 309.375Z" fill="#565440"/>
<path d="M521 217.375C521.75 217.375 522.5 217.625 523 218.125C523.5 218.625 523.75 219.25 523.75 220.125C523.75 221 523.5 221.625 522.875 222.125C522.375 222.625 521.625 222.875 520.75 222.875C519.75 222.875 518.875 222.5 518 221.875L518.625 220.875C519.375 221.375 520 221.625 520.75 221.625C521.25 221.625 521.625 221.5 522 221.125C522.375 220.875 522.5 220.5 522.5 220C522.5 219.5 522.375 219.125 522 218.875C521.75 218.625 521.25 218.375 520.75 218.375C520.125 218.375 519.625 218.625 519.25 219L518.5 218.5L519 214.375H523.25V215.5H520L519.75 217.5C520.125 217.5 520.5 217.375 521 217.375Z" fill="#565440"/>
<path d="M525.625 223C525.375 223 525.25 222.875 525 222.75C524.75 222.625 524.75 222.375 524.75 222.125C524.75 221.875 524.875 221.75 525 221.625C525.125 221.5 525.375 221.375 525.625 221.375C525.875 221.375 526 221.5 526.125 221.625C526.25 221.75 526.375 222 526.375 222.125C526.375 222.375 526.25 222.5 526.125 222.75C526 223 525.75 223 525.625 223Z" fill="#565440"/>
<path d="M526.375 216.5L528.75 214.5H529.75V222.875H528.5V216.25L527 217.375L526.375 216.5Z" fill="#565440"/>
<path d="M523.125 143.625H524V144.75H523.125V146.75H521.875V144.75H518.125L517.875 144L522.375 138.5H523.25V143.625H523.125ZM522 140.625L519.5 143.625H522V140.625Z" fill="#565440"/>
<path d="M525.875 147C525.625 147 525.5 146.875 525.25 146.75C525.125 146.625 525 146.375 525 146.125C525 145.875 525.125 145.75 525.25 145.625C525.375 145.5 525.625 145.375 525.875 145.375C526.125 145.375 526.25 145.5 526.375 145.625C526.5 145.75 526.625 146 526.625 146.125C526.625 146.375 526.5 146.5 526.375 146.75C526.25 146.875 526.125 147 525.875 147Z" fill="#565440"/>
<path d="M530.875 141.375C531.625 141.375 532.25 141.625 532.75 142.125C533.25 142.625 533.5 143.25 533.5 144C533.5 144.75 533.25 145.5 532.625 146C532.125 146.5 531.375 146.75 530.5 146.75C529.5 146.75 528.75 146.375 528.25 145.625C527.75 144.875 527.5 143.875 527.5 142.75C527.5 142 527.625 141.25 527.875 140.5C528.125 139.875 528.5 139.25 529 138.875C529.5 138.375 530.25 138.25 531 138.25C531.875 138.25 532.625 138.5 533.125 139L532.625 140C532.125 139.625 531.625 139.5 531.125 139.5C530.625 139.5 530.25 139.625 529.875 140C529.25 140.625 528.875 141.5 528.875 142.625C529 142.25 529.375 142 529.75 141.75C530.125 141.5 530.375 141.375 530.875 141.375ZM530.625 145.75C531.125 145.75 531.5 145.625 531.75 145.25C532 144.875 532.25 144.5 532.25 144.125C532.25 143.625 532.125 143.25 531.75 143C531.5 142.75 531.125 142.5 530.625 142.5C530.125 142.5 529.75 142.625 529.5 143C529.25 143.25 529 143.75 529 144.125C529 144.625 529.125 145 529.5 145.25C529.75 145.625 530.125 145.75 530.625 145.75Z" fill="#565440"/>
</svg>
