<svg width="900" height="600" viewBox="0 0 900 600" fill="none" xmlns="http://www.w3.org/2000/svg">
<path d="M395.25 275.75V82.5L135.75 82.625L135.75 523.375H334.75L334.75 277.75L395.25 275.75Z" fill="#DBD4CA"/>
<mask id="mask0" mask-type="alpha" maskUnits="userSpaceOnUse" x="275" y="226" width="112" height="293">
<path d="M315.375 226.25H386.625V272.5H315.375V226.25Z" fill="#C4C4C4"/>
<path d="M275.375 468.312H327.875L327.875 518.312H275.375V468.312Z" fill="#C4C4C4"/>
</mask>
<g mask="url(#mask0)">
<path d="M-50.9531 363.303L365.901 -53.5508" stroke="#C49F8A" stroke-miterlimit="10"/>
<path d="M-63.9805 350.277L352.874 -66.5771" stroke="#C49F8A" stroke-miterlimit="10"/>
<path d="M-37.9258 376.331L378.928 -40.5234" stroke="#C49F8A" stroke-miterlimit="10"/>
<path d="M-24.9023 389.357L391.952 -27.4971" stroke="#C49F8A" stroke-miterlimit="10"/>
<path d="M-11.875 402.383L404.979 -14.4707" stroke="#C49F8A" stroke-miterlimit="10"/>
<path d="M1.15234 415.411L418.006 -1.44336" stroke="#C49F8A" stroke-miterlimit="10"/>
<path d="M14.1797 428.437L431.034 11.583" stroke="#C49F8A" stroke-miterlimit="10"/>
<path d="M27.207 441.463L444.061 24.6094" stroke="#C49F8A" stroke-miterlimit="10"/>
<path d="M40.2344 454.491L457.088 37.6367" stroke="#C49F8A" stroke-miterlimit="10"/>
<path d="M53.2578 467.517L470.112 50.6631" stroke="#C49F8A" stroke-miterlimit="10"/>
<path d="M40.2344 454.491L457.088 37.6367" stroke="#C49F8A" stroke-miterlimit="10"/>
<path d="M66.2852 480.543L483.139 63.6895" stroke="#C49F8A" stroke-miterlimit="10"/>
<path d="M79.3125 493.571L496.167 76.7168" stroke="#C49F8A" stroke-miterlimit="10"/>
<path d="M92.3398 506.597L509.194 89.7432" stroke="#C49F8A" stroke-miterlimit="10"/>
<path d="M105.367 519.624L522.221 102.77" stroke="#C49F8A" stroke-miterlimit="10"/>
<path d="M118.395 532.651L535.248 115.797" stroke="#C49F8A" stroke-miterlimit="10"/>
<path d="M131.418 545.677L548.272 128.823" stroke="#C49F8A" stroke-miterlimit="10"/>
<path d="M144.445 558.704L561.299 141.85" stroke="#C49F8A" stroke-miterlimit="10"/>
<path d="M157.473 571.731L574.327 154.877" stroke="#C49F8A" stroke-miterlimit="10"/>
<path d="M144.445 558.704L561.299 141.85" stroke="#C49F8A" stroke-miterlimit="10"/>
<path d="M170.5 584.757L587.354 167.903" stroke="#C49F8A" stroke-miterlimit="10"/>
<path d="M183.527 597.784L600.381 180.93" stroke="#C49F8A" stroke-miterlimit="10"/>
<path d="M196.555 610.81L613.409 193.956" stroke="#C49F8A" stroke-miterlimit="10"/>
<path d="M209.578 623.837L626.432 206.983" stroke="#C49F8A" stroke-miterlimit="10"/>
<path d="M222.605 636.864L639.459 220.01" stroke="#C49F8A" stroke-miterlimit="10"/>
<path d="M235.633 649.89L652.487 233.036" stroke="#C49F8A" stroke-miterlimit="10"/>
<path d="M248.66 662.917L665.514 246.063" stroke="#C49F8A" stroke-miterlimit="10"/>
<path d="M261.688 675.944L678.541 259.09" stroke="#C49F8A" stroke-miterlimit="10"/>
<path d="M248.66 662.917L665.514 246.063" stroke="#C49F8A" stroke-miterlimit="10"/>
<path d="M274.715 688.97L691.569 272.116" stroke="#C49F8A" stroke-miterlimit="10"/>
<path d="M287.738 701.998L704.592 285.144" stroke="#C49F8A" stroke-miterlimit="10"/>
<path d="M300.766 715.024L717.62 298.17" stroke="#C49F8A" stroke-miterlimit="10"/>
<path d="M313.793 728.051L730.647 311.197" stroke="#C49F8A" stroke-miterlimit="10"/>
<path d="M326.82 741.078L743.674 324.224" stroke="#C49F8A" stroke-miterlimit="10"/>
<path d="M339.848 754.104L756.702 337.25" stroke="#C49F8A" stroke-miterlimit="10"/>
<path d="M352.875 767.131L769.729 350.277" stroke="#C49F8A" stroke-miterlimit="10"/>
<path d="M365.901 754.104L-50.9531 337.25" stroke="#C49F8A" stroke-miterlimit="10"/>
<path d="M352.873 767.131L-63.9805 350.277" stroke="#C49F8A" stroke-miterlimit="10"/>
<path d="M378.928 741.077L-37.9258 324.224" stroke="#C49F8A" stroke-miterlimit="10"/>
<path d="M391.952 728.051L-24.9023 311.197" stroke="#C49F8A" stroke-miterlimit="10"/>
<path d="M404.979 715.024L-11.875 298.17" stroke="#C49F8A" stroke-miterlimit="10"/>
<path d="M418.006 701.997L1.15234 285.144" stroke="#C49F8A" stroke-miterlimit="10"/>
<path d="M431.033 688.971L14.1797 272.117" stroke="#C49F8A" stroke-miterlimit="10"/>
<path d="M444.061 675.944L27.207 259.09" stroke="#C49F8A" stroke-miterlimit="10"/>
<path d="M457.088 662.917L40.2344 246.063" stroke="#C49F8A" stroke-miterlimit="10"/>
<path d="M470.112 649.89L53.2578 233.036" stroke="#C49F8A" stroke-miterlimit="10"/>
<path d="M457.088 662.917L40.2344 246.063" stroke="#C49F8A" stroke-miterlimit="10"/>
<path d="M483.139 636.864L66.2852 220.01" stroke="#C49F8A" stroke-miterlimit="10"/>
<path d="M496.166 623.837L79.3125 206.983" stroke="#C49F8A" stroke-miterlimit="10"/>
<path d="M509.194 610.81L92.3398 193.956" stroke="#C49F8A" stroke-miterlimit="10"/>
<path d="M522.221 597.783L105.367 180.93" stroke="#C49F8A" stroke-miterlimit="10"/>
<path d="M535.248 584.757L118.395 167.903" stroke="#C49F8A" stroke-miterlimit="10"/>
<path d="M548.272 571.731L131.418 154.877" stroke="#C49F8A" stroke-miterlimit="10"/>
<path d="M561.299 558.703L144.445 141.85" stroke="#C49F8A" stroke-miterlimit="10"/>
<path d="M574.327 545.677L157.473 128.823" stroke="#C49F8A" stroke-miterlimit="10"/>
<path d="M561.299 558.703L144.445 141.85" stroke="#C49F8A" stroke-miterlimit="10"/>
<path d="M587.354 532.651L170.5 115.797" stroke="#C49F8A" stroke-miterlimit="10"/>
<path d="M600.381 519.623L183.527 102.77" stroke="#C49F8A" stroke-miterlimit="10"/>
<path d="M613.409 506.597L196.555 89.7432" stroke="#C49F8A" stroke-miterlimit="10"/>
<path d="M626.432 493.571L209.578 76.7168" stroke="#C49F8A" stroke-miterlimit="10"/>
<path d="M639.459 480.543L222.605 63.6895" stroke="#C49F8A" stroke-miterlimit="10"/>
<path d="M652.487 467.517L235.633 50.6631" stroke="#C49F8A" stroke-miterlimit="10"/>
<path d="M665.514 454.491L248.66 37.6367" stroke="#C49F8A" stroke-miterlimit="10"/>
<path d="M678.541 441.463L261.688 24.6094" stroke="#C49F8A" stroke-miterlimit="10"/>
<path d="M665.514 454.491L248.66 37.6367" stroke="#C49F8A" stroke-miterlimit="10"/>
<path d="M691.569 428.437L274.715 11.583" stroke="#C49F8A" stroke-miterlimit="10"/>
<path d="M704.592 415.41L287.738 -1.44336" stroke="#C49F8A" stroke-miterlimit="10"/>
<path d="M717.619 402.383L300.766 -14.4707" stroke="#C49F8A" stroke-miterlimit="10"/>
<path d="M730.647 389.357L313.793 -27.4971" stroke="#C49F8A" stroke-miterlimit="10"/>
<path d="M743.674 376.33L326.82 -40.5234" stroke="#C49F8A" stroke-miterlimit="10"/>
<path d="M756.701 363.303L339.848 -53.5508" stroke="#C49F8A" stroke-miterlimit="10"/>
<path d="M769.729 350.277L352.875 -66.5771" stroke="#C49F8A" stroke-miterlimit="10"/>
<g opacity="0.3">
<path opacity="0.7" d="M554.222 135.9L151.523 135.9L151.523 538.599H554.222V135.9Z" fill="#C49F8A"/>
</g>
<path d="M-64.9531 370.678L351.901 -46.1758" stroke="#C49F8A" stroke-miterlimit="10"/>
<path d="M-77.9805 357.652L338.874 -59.2021" stroke="#C49F8A" stroke-miterlimit="10"/>
<path d="M-51.9258 383.706L364.928 -33.1484" stroke="#C49F8A" stroke-miterlimit="10"/>
<path d="M-38.9023 396.732L377.952 -20.1221" stroke="#C49F8A" stroke-miterlimit="10"/>
<path d="M-25.875 409.758L390.979 -7.0957" stroke="#C49F8A" stroke-miterlimit="10"/>
<path d="M-12.8477 422.786L404.006 5.93164" stroke="#C49F8A" stroke-miterlimit="10"/>
<path d="M0.179688 435.812L417.034 18.958" stroke="#C49F8A" stroke-miterlimit="10"/>
<path d="M13.207 448.838L430.061 31.9844" stroke="#C49F8A" stroke-miterlimit="10"/>
<path d="M26.2344 461.866L443.088 45.0117" stroke="#C49F8A" stroke-miterlimit="10"/>
<path d="M39.2578 474.892L456.112 58.0381" stroke="#C49F8A" stroke-miterlimit="10"/>
<path d="M26.2344 461.866L443.088 45.0117" stroke="#C49F8A" stroke-miterlimit="10"/>
<path d="M52.2852 487.918L469.139 71.0645" stroke="#C49F8A" stroke-miterlimit="10"/>
<path d="M65.3125 500.946L482.167 84.0918" stroke="#C49F8A" stroke-miterlimit="10"/>
<path d="M78.3398 513.972L495.194 97.1182" stroke="#C49F8A" stroke-miterlimit="10"/>
<path d="M91.3672 526.999L508.221 110.145" stroke="#C49F8A" stroke-miterlimit="10"/>
<path d="M104.395 540.026L521.249 123.172" stroke="#C49F8A" stroke-miterlimit="10"/>
<path d="M117.418 553.052L534.272 136.198" stroke="#C49F8A" stroke-miterlimit="10"/>
<path d="M130.445 566.079L547.299 149.225" stroke="#C49F8A" stroke-miterlimit="10"/>
<path d="M143.473 579.106L560.327 162.252" stroke="#C49F8A" stroke-miterlimit="10"/>
<path d="M130.445 566.079L547.299 149.225" stroke="#C49F8A" stroke-miterlimit="10"/>
<path d="M156.5 592.132L573.354 175.278" stroke="#C49F8A" stroke-miterlimit="10"/>
<path d="M169.527 605.159L586.381 188.305" stroke="#C49F8A" stroke-miterlimit="10"/>
<path d="M182.555 618.185L599.409 201.331" stroke="#C49F8A" stroke-miterlimit="10"/>
<path d="M195.578 631.212L612.432 214.358" stroke="#C49F8A" stroke-miterlimit="10"/>
<path d="M208.605 644.239L625.459 227.385" stroke="#C49F8A" stroke-miterlimit="10"/>
<path d="M221.633 657.265L638.487 240.411" stroke="#C49F8A" stroke-miterlimit="10"/>
<path d="M234.66 670.292L651.514 253.438" stroke="#C49F8A" stroke-miterlimit="10"/>
<path d="M247.688 683.319L664.542 266.465" stroke="#C49F8A" stroke-miterlimit="10"/>
<path d="M234.66 670.292L651.514 253.438" stroke="#C49F8A" stroke-miterlimit="10"/>
<path d="M260.715 696.345L677.569 279.491" stroke="#C49F8A" stroke-miterlimit="10"/>
<path d="M273.738 709.373L690.592 292.519" stroke="#C49F8A" stroke-miterlimit="10"/>
<path d="M286.766 722.399L703.62 305.545" stroke="#C49F8A" stroke-miterlimit="10"/>
<path d="M299.793 735.426L716.647 318.572" stroke="#C49F8A" stroke-miterlimit="10"/>
<path d="M312.82 748.453L729.674 331.599" stroke="#C49F8A" stroke-miterlimit="10"/>
<path d="M325.848 761.479L742.702 344.625" stroke="#C49F8A" stroke-miterlimit="10"/>
<path d="M338.875 774.505L755.729 357.651" stroke="#C49F8A" stroke-miterlimit="10"/>
<path d="M351.901 761.479L-64.9531 344.625" stroke="#C49F8A" stroke-miterlimit="10"/>
<path d="M338.873 774.505L-77.9805 357.651" stroke="#C49F8A" stroke-miterlimit="10"/>
<path d="M364.928 748.453L-51.9258 331.599" stroke="#C49F8A" stroke-miterlimit="10"/>
<path d="M377.951 735.426L-38.9023 318.572" stroke="#C49F8A" stroke-miterlimit="10"/>
<path d="M390.979 722.399L-25.875 305.545" stroke="#C49F8A" stroke-miterlimit="10"/>
<path d="M404.006 709.372L-12.8477 292.519" stroke="#C49F8A" stroke-miterlimit="10"/>
<path d="M417.034 696.346L0.179688 279.492" stroke="#C49F8A" stroke-miterlimit="10"/>
<path d="M430.061 683.319L13.207 266.465" stroke="#C49F8A" stroke-miterlimit="10"/>
<path d="M443.088 670.292L26.2344 253.438" stroke="#C49F8A" stroke-miterlimit="10"/>
<path d="M456.112 657.265L39.2578 240.411" stroke="#C49F8A" stroke-miterlimit="10"/>
<path d="M443.088 670.292L26.2344 253.438" stroke="#C49F8A" stroke-miterlimit="10"/>
<path d="M469.139 644.239L52.2852 227.385" stroke="#C49F8A" stroke-miterlimit="10"/>
<path d="M482.166 631.212L65.3125 214.358" stroke="#C49F8A" stroke-miterlimit="10"/>
<path d="M495.194 618.185L78.3398 201.331" stroke="#C49F8A" stroke-miterlimit="10"/>
<path d="M508.221 605.158L91.3672 188.305" stroke="#C49F8A" stroke-miterlimit="10"/>
<path d="M521.248 592.132L104.395 175.278" stroke="#C49F8A" stroke-miterlimit="10"/>
<path d="M534.272 579.106L117.418 162.252" stroke="#C49F8A" stroke-miterlimit="10"/>
<path d="M547.299 566.078L130.445 149.225" stroke="#C49F8A" stroke-miterlimit="10"/>
<path d="M560.326 553.052L143.473 136.198" stroke="#C49F8A" stroke-miterlimit="10"/>
<path d="M547.299 566.078L130.445 149.225" stroke="#C49F8A" stroke-miterlimit="10"/>
<path d="M573.354 540.026L156.5 123.172" stroke="#C49F8A" stroke-miterlimit="10"/>
<path d="M586.381 526.998L169.527 110.145" stroke="#C49F8A" stroke-miterlimit="10"/>
<path d="M599.409 513.972L182.555 97.1182" stroke="#C49F8A" stroke-miterlimit="10"/>
<path d="M612.432 500.946L195.578 84.0918" stroke="#C49F8A" stroke-miterlimit="10"/>
<path d="M625.459 487.918L208.605 71.0645" stroke="#C49F8A" stroke-miterlimit="10"/>
<path d="M638.487 474.892L221.633 58.0381" stroke="#C49F8A" stroke-miterlimit="10"/>
<path d="M651.514 461.866L234.66 45.0117" stroke="#C49F8A" stroke-miterlimit="10"/>
<path d="M664.541 448.838L247.688 31.9844" stroke="#C49F8A" stroke-miterlimit="10"/>
<path d="M651.514 461.866L234.66 45.0117" stroke="#C49F8A" stroke-miterlimit="10"/>
<path d="M677.569 435.812L260.715 18.958" stroke="#C49F8A" stroke-miterlimit="10"/>
<path d="M690.592 422.786L273.738 5.93164" stroke="#C49F8A" stroke-miterlimit="10"/>
<path d="M703.619 409.758L286.766 -7.0957" stroke="#C49F8A" stroke-miterlimit="10"/>
<path d="M716.647 396.732L299.793 -20.1221" stroke="#C49F8A" stroke-miterlimit="10"/>
<path d="M729.674 383.705L312.82 -33.1484" stroke="#C49F8A" stroke-miterlimit="10"/>
<path d="M742.701 370.678L325.848 -46.1758" stroke="#C49F8A" stroke-miterlimit="10"/>
<path d="M755.729 357.652L338.875 -59.2021" stroke="#C49F8A" stroke-miterlimit="10"/>
<g opacity="0.3">
<path opacity="0.7" d="M540.222 143.275L137.523 143.275L137.523 545.974H540.222V143.275Z" fill="#C49F8A"/>
</g>
</g>
<path d="M397.625 79L134.5 79H132.25L132.25 521.5H135.75L135.75 82.625L397.625 82.625V79Z" stroke="#565440"/>
<path d="M389.625 123.75L195.5 123.75V127.25L389.625 127.25V123.75Z" stroke="#565440"/>
<path d="M177.125 128.5H173.625L173.625 521.5H177.125L177.125 128.5Z" stroke="#565440"/>
<path d="M271.75 273V272.25V258.625H269.5V272.25H184.125V257.5H172.375V272.25V277.75V279.25H271.75V273Z" fill="#565440"/>
<path d="M269.5 241.375H271.75V240.625H275.75V238.25H271.75V134.375H273.625V122.625H253.5V134.375H269.5V241.375Z" fill="#565440"/>
<path d="M130.375 135.25H131.5V138.625H135.5V135.25H137.625V138.625H141.625V135.25H144.5V107.75H141.625V104.375H137.625V107.75H135.5V104.375H131.5V107.75H130.375V110.125H127V114.125H130.375V116.25H127V120.25H130.375V122.375H127V126.375H130.375V128.5H127V132.5H130.375V135.25Z" fill="#565440"/>
<path d="M130.375 234H131.5V237.375H135.5V234H137.625V237.375H141.625V234H144.5V206.5H141.625V203.125H137.625V206.5H135.5V203.125H131.5V206.5H130.375V208.875H127V212.875H130.375V215H127V219H130.375V221.125H127V225.125H130.375V227.25H127V231.375H130.375V234Z" fill="#565440"/>
<path d="M130.375 381.75H131.5V385.25H135.5V381.75H137.625V385.25H141.625V381.75H144.5V354.375H141.625V351H137.625V354.375H135.5V351H131.5V354.375H130.375V356.625H127V360.75H130.375V362.75H127V366.875H130.375V369H127V373H130.375V375.125H127V379.125H130.375V381.75Z" fill="#565440"/>
<path d="M131.5 455.25V458.625H135.5V455.25H137.625V458.625H141.625V455.25H144.5V427.75H141.625V424.375H137.625V427.75H135.5V424.375H131.5V427.75H130.375V430.125H127V434.125H130.375V436.25H127V440.25H130.375V442.375H127V446.375H130.375V448.5H127V452.5H130.375V455.25H131.5Z" fill="#565440"/>
<path d="M179.75 92.5H207.25V89.625H210.625V85.625H207.25V83.5H210.625V79.5H207.25V78.375H204.875V75H200.875V78.375H198.75V75H194.75V78.375H192.625V75H188.5V78.375H186.5V75H182.375V78.375H179.75V79.5H176.375V83.5H179.75V85.625H176.375V89.625H179.75V92.5Z" fill="#565440"/>
<path d="M278.125 92.5H305.625V89.625H309V85.625H305.625V83.5H309V79.5H305.625V78.375H303.25V75H299.25V78.375H297.125V75H293.125V78.375H291V75H287V78.375H284.875V75H280.875V78.375H278.125V79.5H274.75V83.5H278.125V85.625H274.75V89.625H278.125V92.5Z" fill="#565440"/>
<path d="M403.75 85.125V81.125H400.375V78.5H399.375V75.125H395.375V78.5H393.25V75.125H389.125V78.5H386.25V81.125H382.875V85.125H386.25V87.25H382.875V91.25H386.25V93.375H382.875V97.5H386.25V99.625H382.875V103.625H386.25V105.75H382.875V109.75H386.25V111.875H382.875V115.875H386.25V118H382.875V122H386.25V162.125V209.5H380H377.625V211.875V226H349.375V228.375H386.25V272.125H325.375V265.25V262.875H323H316.625V228.25H331.125V225.875H316.625H314.25V228.25V238H293V240.375H314.25V272H296.25V279H320V284.5V286.875H322.375H327.625L327.625 367.875H334.625L334.625 279H397.875V272V162H400.25V158.75H403.625V154.75H400.375V152.625H403.75V148.625H400.375V146.5H403.75V142.5H400.375V140.375H403.75V136.375H400.375V134.25H403.75V130.25H400.375V128.125H403.75V124.125H400.375V122H403.75V118H400.375V115.875H403.75V111.875H400.375V109.75H403.75V105.75H400.375V103.625H403.75V99.625H400.375V97.5H403.75V93.5H400.375V91.375H403.75V87.375H400.375V85.25H403.75V85.125ZM316.75 272.25V265.375H323.125V272.25H316.75ZM327.75 284.75H322.5V279.25H327.75V284.75ZM386.25 226H380V212H386.25V226Z" fill="#565440"/>
<path d="M196.5 122.625H172.375V134.375H196.5V122.625Z" fill="#565440"/>
<path d="M275.25 449.875H277.625V445H285.5V441.25V438V432.5V431V430.125H275.25V431V432.5V438H172.5V445H275.25V449.875H275.25ZM277.5 432.375H283V437.875H277.5V432.375Z" fill="#565440"/>
<path d="M327.75 438H309.75V445H320.125V450V452.375H322.5H327.75V468.25H309.75V470.625H327.75V518H277.5V470.625H292.625V468.25H277.5V467.5H275.125V518H131V525H327.625H334.625V518V391.25H327.625V438H327.75ZM327.75 450H322.5V445H327.75V450Z" fill="#565440"/>
<path d="M331.125 123.125C331.125 120.5 330.625 118.5 329.75 116.125C328.875 113.75 327.375 111.625 325.75 110C324.125 108.125 322 106.75 319.625 105.75C317.25 104.875 315 104.375 312.375 104.375V123.125" stroke="#565440"/>
<path d="M330.625 226.5C330.625 223.875 331.125 221.875 332 219.5C332.875 217.125 334.375 215 336 213.375C337.625 211.5 339.75 210.125 342.125 209.125C344.5 208.25 346.75 207.75 349.375 207.75V226.5" stroke="#565440"/>
<path d="M293.875 238.625C293.875 236 293.375 234 292.5 231.625C291.625 229.25 290.125 227.125 288.5 225.5C286.875 223.625 284.75 222.25 282.375 221.25C280 220.375 277.75 219.875 275.125 219.875V238.625" stroke="#565440"/>
<path d="M270.875 260.5C268.25 260.5 266.25 260 263.875 259.125C261.5 258.25 259.375 256.75 257.75 255.125C255.875 253.5 254.5 251.375 253.5 249C252.5 246.625 252.125 244.375 252.125 241.75H270.875" stroke="#565440"/>
<path d="M276.125 468C273.5 468 271.5 467.5 269.125 466.625C266.75 465.75 264.625 464.25 263 462.625C261.125 461 259.75 458.875 258.75 456.5C257.875 454.125 257.375 451.875 257.375 449.25H276.125" stroke="#565440"/>
<path d="M173 361.875C170.375 361.875 168.375 362.375 166 363.25C163.625 364.125 161.5 365.625 159.875 367.25C158 368.875 156.625 371 155.625 373.375C154.75 375.75 154.25 378 154.25 380.625H173" stroke="#565440"/>
<path d="M292.125 469.125C292.125 466.5 292.625 464.5 293.5 462.125C294.375 459.75 295.875 457.625 297.5 456C299.125 454.125 301.25 452.75 303.625 451.75C306 450.875 308.25 450.375 310.875 450.375V469.125" stroke="#565440"/>
<path d="M334.625 368C337.625 368 340.5 368.75 343.25 369.875C346 371 348.875 372.625 351 375C353.125 377.125 355 379.625 356.125 382.5C357.25 385.25 358 388.375 358 391.375H334.625" stroke="#565440"/>
<path d="M261.125 423.875H178.375V437.375H261.125V423.875Z" fill="#E9E4DC"/>
<path d="M260.5 424.5V436.75H179V424.5H260.5ZM261.75 423.25H177.75V438H261.75V423.25H261.75Z" fill="#C49F8A"/>
<path d="M231.25 472.25H193.25V517.375H231.25V472.25Z" fill="#E9E4DC"/>
<path d="M193.875 472.875H230.625V516.75H193.875V472.875ZM192.625 471.625V518H231.875V471.625H192.625Z" fill="#C49F8A"/>
<path d="M211.375 503.25H196V514.75H211.375V503.25Z" fill="#E9E4DC" stroke="#C49F8A"/>
<path d="M228.625 503.25H213.25V514.75H228.625V503.25Z" fill="#E9E4DC" stroke="#C49F8A"/>
<path d="M200.847 496.798L197.871 507.906L208.979 510.882L211.955 499.775L200.847 496.798Z" fill="#E9E4DC" stroke="#C49F8A" stroke-width="0.99997" stroke-miterlimit="3.99968"/>
<path d="M223.815 496.809L212.707 499.785L215.683 510.893L226.791 507.917L223.815 496.809Z" fill="#E9E4DC" stroke="#C49F8A" stroke-width="0.99997" stroke-miterlimit="3.99968"/>
<path d="M193.25 505.25V471.75H231.25V507.625L216.25 508.625L193.25 505.25Z" fill="#E9E4DC"/>
<path d="M230.625 472.375V507L216.25 507.875L193.875 504.625V472.25H230.625V472.375ZM231.875 471.125H192.625V505.5V505.75L216.125 509.125L231.875 508.125V507.5V471.125Z" fill="#C49F8A"/>
<path d="M231.375 507.125H216L193.125 505.125" stroke="#C49F8A"/>
<path d="M227.25 320.375H260V344.25H227.25V320.375Z" fill="#E9E4DC" stroke="#C49F8A"/>
<path d="M250.5 346.125V346.75C250.5 350.5 247.375 353.625 243.625 353.625C239.875 353.625 236.75 350.5 236.75 346.75V346.125H250.5Z" fill="#E9E4DC" stroke="#C49F8A"/>
<path d="M248.625 344.25V346.75C248.625 349.5 246.375 351.75 243.625 351.75C240.875 351.75 238.625 349.5 238.625 346.75V344.25H248.625Z" fill="#E9E4DC" stroke="#C49F8A"/>
<path d="M250.5 318.375V317.75C250.5 314 247.375 310.875 243.625 310.875C239.875 310.875 236.75 314 236.75 317.75V318.375H250.5Z" fill="#E9E4DC" stroke="#C49F8A"/>
<path d="M248.625 320.375V317.875C248.625 315.125 246.375 312.875 243.625 312.875C240.875 312.875 238.625 315.125 238.625 317.875V320.375H248.625Z" fill="#E9E4DC" stroke="#C49F8A"/>
<path d="M225.25 325.375H224.625C220.875 325.375 217.75 328.5 217.75 332.25C217.75 336 220.875 339.125 224.625 339.125H225.25V325.375Z" fill="#E9E4DC" stroke="#C49F8A"/>
<path d="M227.25 327.375H224.75C222 327.375 219.75 329.625 219.75 332.375C219.75 335.125 222 337.375 224.75 337.375H227.25V327.375Z" fill="#E9E4DC" stroke="#C49F8A"/>
<path d="M261.875 339.25H262.5C266.25 339.25 269.375 336.125 269.375 332.375C269.375 328.625 266.25 325.5 262.5 325.5H261.875V339.25Z" fill="#E9E4DC" stroke="#C49F8A"/>
<path d="M260 337.25H262.5C265.25 337.25 267.5 335 267.5 332.25C267.5 329.5 265.25 327.25 262.5 327.25H260V337.25Z" fill="#E9E4DC" stroke="#C49F8A"/>
<path d="M228.75 445.625H193.5V452H228.75V445.625Z" fill="#E9E4DC"/>
<path d="M228.125 446.25V451.375H194.125V446.25H228.125ZM229.375 445H192.875V452.625H229.375V445Z" fill="#C49F8A"/>
<path d="M221.625 447.5H200.625V449.5H221.625V447.5Z" fill="#E9E4DC" stroke="#C49F8A"/>
<path d="M206.75 447.5H215.625L214.875 445.625H207.625L206.75 447.5Z" fill="#E9E4DC" stroke="#C49F8A"/>
<path d="M327 309.375H320.625V344.625H327V309.375Z" fill="#E9E4DC"/>
<path d="M326.5 310V344H321.375V310H326.5ZM327.75 308.75H320.125V345.25H327.75V308.75Z" fill="#C49F8A"/>
<path d="M325.25 316.5H323.25V337.5H325.25V316.5Z" fill="#E9E4DC" stroke="#C49F8A"/>
<path d="M320.625 309.375H318.375V344.625H320.625V309.375Z" fill="#E9E4DC"/>
<path d="M320 310V344H319V310H320ZM321.25 308.75H317.75V345.25H321.25V308.75Z" fill="#C49F8A"/>
<path d="M325.25 331.375V322.5L327.125 323.25V330.5L325.25 331.375Z" fill="#E9E4DC" stroke="#C49F8A"/>
<path d="M200 425.75H182.5V435.5H200V425.75Z" fill="#E9E4DC" stroke="#C49F8A"/>
<path d="M190.125 430.75C190.125 429 191.5 427.625 193.25 427.625H194C195.75 427.625 197.125 429 197.125 430.75C197.125 432.5 195.75 433.875 194 433.875H193.25C191.625 433.875 190.125 432.5 190.125 430.75Z" fill="#E9E4DC" stroke="#C49F8A"/>
<path d="M193.625 432.375C194.246 432.375 194.75 431.871 194.75 431.25C194.75 430.629 194.246 430.125 193.625 430.125C193.004 430.125 192.5 430.629 192.5 431.25C192.5 431.871 193.004 432.375 193.625 432.375Z" fill="#E9E4DC" stroke="#C49F8A"/>
<path d="M184.125 430.875H188.25" stroke="#C49F8A"/>
<path d="M184.125 428.625H188.25" stroke="#C49F8A"/>
<path d="M184.125 433.25H188.25" stroke="#C49F8A"/>
<path d="M243.375 296C243.375 296.75 242.875 297.25 242.125 297.25H223.375C222.625 297.25 222.125 296.75 222.125 296V283.75H243.375V296Z" fill="#E9E4DC" stroke="#C49F8A"/>
<path d="M263.5 296C263.5 296.75 263 297.25 262.25 297.25H244.5C243.75 297.25 243.25 296.75 243.25 296V283.75H263.5V296Z" fill="#E9E4DC" stroke="#C49F8A"/>
<path d="M263.5 298.375V283.75H242.875H222.125V298.375H218.25V279.875H267.5V298.375H263.5Z" fill="#E9E4DC" stroke="#C49F8A"/>
<path d="M379.5 128.625H370.375V209H379.5V128.625Z" fill="#E9E4DC"/>
<path d="M371 129.25H378.875V208.375H371V129.25ZM369.75 128V209.625H380.125V128L369.75 128Z" fill="#C49F8A"/>
<path d="M385.625 128.625H372.625V209H385.625V128.625Z" fill="#E9E4DC"/>
<path d="M373.25 129.25H385V208.375H373.25V129.25ZM372 128V209.625H386.25V128L372 128Z" fill="#C49F8A"/>
<path d="M385.625 209L372.75 128.5L385.625 209Z" fill="#E9E4DC"/>
<path d="M385.625 209L372.75 128.5" stroke="#C49F8A"/>
<path d="M265 141H255.875V178H265V141Z" fill="#E9E4DC"/>
<path d="M264.375 141.625V177.375H256.5V141.625H264.375V141.625ZM265.625 140.375H255.25V178.625H265.625V140.375Z" fill="#C49F8A"/>
<path d="M268.75 141H258V178H268.75V141Z" fill="#E9E4DC"/>
<path d="M268.25 141.625V177.375H258.75V141.625H268.25V141.625ZM269.5 140.375H257.5V178.625H269.5V140.375Z" fill="#C49F8A"/>
<path d="M268.875 178.375L258 140.75L268.875 178.375Z" fill="#E9E4DC"/>
<path d="M268.875 178.375L258 140.75" stroke="#C49F8A"/>
<path d="M233.746 256.503H184.746V265.628H233.746V256.503Z" fill="#E9E4DC"/>
<path d="M233.121 257.128V265.003H185.371V257.128H233.121ZM234.371 255.878H184.121V266.253H234.371V255.878Z" fill="#C49F8A"/>
<path d="M233.746 258.628H184.746V271.628H233.746V258.628Z" fill="#E9E4DC"/>
<path d="M233.121 259.253V271.003H185.371V259.253H233.121ZM234.371 258.003H184.121V272.253H234.371V258.003Z" fill="#C49F8A"/>
<path d="M184.496 271.628L233.996 258.753L184.496 271.628Z" fill="#E9E4DC"/>
<path d="M184.496 271.628L233.996 258.753" stroke="#C49F8A"/>
<path d="M321 399.5H311.875V437.375H321V399.5Z" fill="#E9E4DC"/>
<path d="M320.375 400.125V436.75H312.5V400.125H320.375ZM321.625 398.875H311.25V438H321.625V398.875Z" fill="#C49F8A"/>
<path d="M327 399.5H314V437.375H327V399.5Z" fill="#E9E4DC"/>
<path d="M314.625 400.125H326.375V436.75H314.625V400.125ZM313.375 398.875V438H327.625V398.875H313.375Z" fill="#C49F8A"/>
<path d="M327 437.625L314.125 399.125L327 437.625Z" fill="#E9E4DC"/>
<path d="M327 437.625L314.125 399.125" stroke="#C49F8A"/>
<path d="M194.625 279.875H178.375V313.25H194.625V279.875Z" fill="#E9E4DC"/>
<path d="M194 280.5V312.625H179V280.5H194ZM195.25 279.25H177.75V313.875H195.25V279.25Z" fill="#C49F8A"/>
<path d="M211.875 279.875H187.125V296.125H211.875V279.875Z" fill="#E9E4DC"/>
<path d="M211.25 280.5V295.5H187.75V280.5H211.25ZM212.5 279.25H186.5V296.75H212.5V279.25Z" fill="#C49F8A"/>
<path d="M197.125 279.875H178.375V296.125H197.125V279.875Z" fill="#E9E4DC"/>
<path d="M196.5 280.5V295.5H179V280.5H196.5ZM197.75 279.25H177.75V296.75H197.75V279.25Z" fill="#C49F8A"/>
<path d="M178.375 303.375V279.875H197.125V296.125H194.625V303.375H178.375Z" fill="#E9E4DC"/>
<path d="M196.5 280.5V295.5H195.25H194V296.75V302.75H179V296.75V280.5H195.25H196.5ZM197.75 279.25H195.25H177.75V296.75V304H195.25V296.75H197.75V279.25Z" fill="#C49F8A"/>
<path d="M202.125 296.75V279.25" stroke="#C49F8A"/>
<path d="M207 296.75V279.25" stroke="#C49F8A"/>
<path d="M177.75 308.25H195.25" stroke="#C49F8A"/>
<path d="M177.75 313.125H195.25" stroke="#C49F8A"/>
<path d="M274.5 379.25H244.25V399.875H274.5V379.25Z" fill="#E9E4DC"/>
<path d="M274 379.875V399.25H245V379.875H274ZM275.25 378.625H243.75V400.5H275.25V378.625Z" fill="#C49F8A"/>
<path d="M274.5 384H244.25V387.375H274.5V384Z" fill="#E9E4DC"/>
<path d="M274 384.625V386.75H245V384.625H274ZM275.25 383.375H243.75V388H275.25V383.375Z" fill="#C49F8A"/>
<path d="M247.875 375.875C245.25 375.875 243.125 373.75 243.125 371.125C243.125 368.5 245.25 366.375 247.875 366.375C250.5 366.375 252.625 368.5 252.625 371.125C252.5 373.75 250.375 375.875 247.875 375.875Z" fill="#E9E4DC"/>
<path d="M247.875 367C250.125 367 252 368.875 252 371.125C252 373.375 250.125 375.25 247.875 375.25C245.625 375.25 243.75 373.375 243.75 371.125C243.75 368.875 245.625 367 247.875 367ZM247.875 365.75C244.875 365.75 242.5 368.125 242.5 371.125C242.5 374.125 244.875 376.5 247.875 376.5C250.875 376.5 253.25 374.125 253.25 371.125C253.25 368.125 250.75 365.75 247.875 365.75Z" fill="#C49F8A"/>
<path d="M260.375 375.875C257.75 375.875 255.625 373.75 255.625 371.125C255.625 368.5 257.75 366.375 260.375 366.375C263 366.375 265.125 368.5 265.125 371.125C265 373.75 262.875 375.875 260.375 375.875Z" fill="#E9E4DC"/>
<path d="M260.375 367C262.625 367 264.5 368.875 264.5 371.125C264.5 373.375 262.625 375.25 260.375 375.25C258.125 375.25 256.25 373.375 256.25 371.125C256.25 368.875 258.125 367 260.375 367ZM260.375 365.75C257.375 365.75 255 368.125 255 371.125C255 374.125 257.375 376.5 260.375 376.5C263.375 376.5 265.75 374.125 265.75 371.125C265.75 368.125 263.25 365.75 260.375 365.75Z" fill="#C49F8A"/>
<path d="M236 393.5C233.375 393.5 231.25 391.375 231.25 388.75C231.25 386.125 233.375 384 236 384C238.625 384 240.75 386.125 240.75 388.75C240.625 391.375 238.5 393.5 236 393.5Z" fill="#E9E4DC"/>
<path d="M236 384.625C238.25 384.625 240.125 386.5 240.125 388.75C240.125 391 238.25 392.875 236 392.875C233.75 392.875 231.875 391 231.875 388.75C231.875 386.5 233.75 384.625 236 384.625ZM236 383.375C233 383.375 230.625 385.75 230.625 388.75C230.625 391.75 233 394.125 236 394.125C239 394.125 241.375 391.75 241.375 388.75C241.25 385.75 238.875 383.375 236 383.375Z" fill="#C49F8A"/>
<path d="M245.25 166.875C249.185 166.875 252.375 163.685 252.375 159.75C252.375 155.815 249.185 152.625 245.25 152.625C241.315 152.625 238.125 155.815 238.125 159.75C238.125 163.685 241.315 166.875 245.25 166.875Z" fill="#E9E4DC"/>
<path d="M245.25 153.25C248.875 153.25 251.75 156.125 251.75 159.75C251.75 163.375 248.875 166.25 245.25 166.25C241.625 166.25 238.75 163.375 238.75 159.75C238.875 156.125 241.75 153.25 245.25 153.25ZM245.25 152C241 152 237.5 155.5 237.5 159.75C237.5 164 241 167.5 245.25 167.5C249.5 167.5 253 164 253 159.75C253 155.5 249.625 152 245.25 152Z" fill="#C49F8A"/>
<path d="M385.625 255.25H344.75V271.5H385.625V255.25Z" fill="#E9E4DC"/>
<path d="M385 255.875V270.875H345.375V255.875H385ZM386.25 254.625H344.125V272.125H386.25V254.625Z" fill="#C49F8A"/>
<path d="M382.375 263.5C382.375 260.25 379.625 257.75 376.375 258C372.875 258.375 368.5 258.625 365.125 258.625C361.875 258.625 357.5 258.25 353.875 258C350.625 257.75 347.875 260.25 347.875 263.5C347.875 266.75 350.625 269.25 353.875 269C357.375 268.625 361.75 268.375 365.125 268.375C368.375 268.375 372.75 268.75 376.375 269C379.625 269.125 382.375 266.625 382.375 263.5Z" fill="#E9E4DC" stroke="#C49F8A" stroke-linejoin="round"/>
<path d="M376.75 264.5C377.302 264.5 377.75 264.052 377.75 263.5C377.75 262.948 377.302 262.5 376.75 262.5C376.198 262.5 375.75 262.948 375.75 263.5C375.75 264.052 376.198 264.5 376.75 264.5Z" fill="#E9E4DC" stroke="#C49F8A" stroke-linejoin="round"/>
<path d="M327.121 471.125H317.871V485.25H327.121V471.125Z" fill="#E9E4DC"/>
<path d="M326.496 471.875V484.75H318.496V471.875H326.496ZM327.746 470.625H317.246V486H327.746V470.625Z" fill="#C49F8A"/>
<path d="M322.496 481C320.996 481 319.746 479.75 319.746 478.25C319.746 476.75 320.996 475.5 322.496 475.5C323.996 475.5 325.246 476.75 325.246 478.25C325.246 479.75 323.996 481 322.496 481Z" fill="#E9E4DC"/>
<path d="M322.496 476.125C323.746 476.125 324.621 477.125 324.621 478.25C324.621 479.375 323.621 480.375 322.496 480.375C321.246 480.375 320.371 479.375 320.371 478.25C320.371 477.125 321.246 476.125 322.496 476.125ZM322.496 474.875C320.621 474.875 319.121 476.375 319.121 478.25C319.121 480.125 320.621 481.625 322.496 481.625C324.371 481.625 325.871 480.125 325.871 478.25C325.871 476.375 324.371 474.875 322.496 474.875Z" fill="#C49F8A"/>
<path d="M287.375 480.5H278.125V495.875H287.375V480.5Z" fill="#E9E4DC"/>
<path d="M286.75 481.125V495.25H278.75V481.125H286.75ZM288 479.875H277.5V496.5H288V479.875Z" fill="#C49F8A"/>
<path d="M282.75 492.375C284.25 492.375 285.5 491.25 285.5 489.875V486.375C285.5 485 284.25 483.875 282.75 483.875C281.25 483.875 280 485 280 486.375V489.875C280 491.375 281.25 492.375 282.75 492.375Z" fill="#E9E4DC" stroke="#C49F8A"/>
<path d="M282.5 489.25C283.052 489.25 283.5 488.802 283.5 488.25C283.5 487.698 283.052 487.25 282.5 487.25C281.948 487.25 281.5 487.698 281.5 488.25C281.5 488.802 281.948 489.25 282.5 489.25Z" fill="#E9E4DC" stroke="#C49F8A"/>
<path d="M321.875 514.375H308.125V517.375H321.875V514.375Z" fill="#E9E4DC"/>
<path d="M321.25 515V516.75H308.75V515H321.25ZM322.5 513.75H307.5V518H322.5V513.75Z" fill="#C49F8A"/>
<path d="M319.751 505.625C319.876 502.875 317.751 500.625 315.001 500.625C312.251 500.625 310.126 502.875 310.251 505.625L310.876 514.375H319.126L319.751 505.625Z" fill="#E9E4DC" stroke="#C49F8A"/>
<path d="M317.626 506C317.751 504.5 316.501 503.125 315.001 503.125C313.501 503.125 312.251 504.5 312.376 506L312.751 510.125H317.251L317.626 506Z" fill="#E9E4DC" stroke="#C49F8A"/>
<path d="M315 508.625C315.552 508.625 316 508.177 316 507.625C316 507.073 315.552 506.625 315 506.625C314.448 506.625 314 507.073 314 507.625C314 508.177 314.448 508.625 315 508.625Z" fill="#E9E4DC" stroke="#C49F8A"/>
<path d="M326.504 228.878H317.254V243.003H326.504V228.878Z" fill="#E9E4DC"/>
<path d="M325.879 229.503V242.378H317.879V229.503H325.879ZM327.129 228.253H316.629V243.628H327.129V228.253Z" fill="#C49F8A"/>
<path d="M321.879 238.753C320.379 238.753 319.129 237.503 319.129 236.003C319.129 234.503 320.379 233.253 321.879 233.253C323.379 233.253 324.629 234.503 324.629 236.003C324.629 237.503 323.379 238.753 321.879 238.753Z" fill="#E9E4DC"/>
<path d="M321.879 233.753C323.129 233.753 324.004 234.753 324.004 235.878C324.004 237.003 323.004 238.003 321.879 238.003C320.754 238.003 319.754 237.003 319.754 235.878C319.754 234.753 320.629 233.753 321.879 233.753ZM321.879 232.503C320.004 232.503 318.504 234.003 318.504 235.878C318.504 237.753 320.004 239.253 321.879 239.253C323.754 239.253 325.254 237.753 325.254 235.878C325.254 234.003 323.754 232.503 321.879 232.503Z" fill="#C49F8A"/>
<path d="M326.625 245.413H317.375V260.788H326.625V245.413Z" fill="#E9E4DC"/>
<path d="M325.875 246.038V260.163H317.875V246.038H325.875ZM327.125 244.788H316.625V261.413H327.125V244.788Z" fill="#C49F8A"/>
<path d="M321.875 257.288C323.375 257.288 324.625 256.163 324.625 254.788V251.288C324.625 249.913 323.375 248.788 321.875 248.788C320.375 248.788 319.125 249.913 319.125 251.288V254.788C319.125 256.163 320.375 257.288 321.875 257.288Z" fill="#E9E4DC" stroke="#C49F8A"/>
<path d="M321.625 254.038C322.177 254.038 322.625 253.59 322.625 253.038C322.625 252.486 322.177 252.038 321.625 252.038C321.073 252.038 320.625 252.486 320.625 253.038C320.625 253.59 321.073 254.038 321.625 254.038Z" fill="#E9E4DC" stroke="#C49F8A"/>
<path d="M385.625 232.5H382.625V246.25H385.625V232.5Z" fill="#E9E4DC"/>
<path d="M385 233.125V245.625H383.25V233.125H385ZM386.25 231.875H382V246.875H386.25V231.875Z" fill="#C49F8A"/>
<path d="M373.875 244.125C371.125 244.25 368.875 242.125 368.875 239.375C368.875 236.625 371.125 234.5 373.875 234.625L382.625 235.25V243.5L373.875 244.125Z" fill="#E9E4DC" stroke="#C49F8A"/>
<path d="M374.25 242C372.75 242.125 371.375 240.875 371.375 239.375C371.375 237.875 372.75 236.625 374.25 236.75L378.375 237.125V241.625L374.25 242Z" fill="#E9E4DC" stroke="#C49F8A"/>
<path d="M375.875 240.375C376.427 240.375 376.875 239.927 376.875 239.375C376.875 238.823 376.427 238.375 375.875 238.375C375.323 238.375 374.875 238.823 374.875 239.375C374.875 239.927 375.323 240.375 375.875 240.375Z" fill="#E9E4DC" stroke="#C49F8A"/>
<path d="M274.625 399.875H261.125V437.375H274.625V399.875Z" fill="#E9E4DC"/>
<path d="M274 400.5V436.75H261.75V400.5H274ZM275.25 399.25H260.5V438H275.25V399.25Z" fill="#C49F8A"/>
<path d="M224.375 423.875H211.375V437.375H224.375V423.875Z" fill="#E9E4DC"/>
<path d="M223.875 424.5V436.75H212.125V424.5H223.875ZM225.125 423.25H210.875V438H225.125V423.25Z" fill="#C49F8A"/>
<path d="M215.25 433.5C215.94 433.5 216.5 432.94 216.5 432.25C216.5 431.56 215.94 431 215.25 431C214.56 431 214 431.56 214 432.25C214 432.94 214.56 433.5 215.25 433.5Z" fill="#E9E4DC"/>
<path d="M215.25 431.625C215.625 431.625 215.875 431.875 215.875 432.25C215.875 432.625 215.625 432.875 215.25 432.875C214.875 432.875 214.625 432.625 214.625 432.25C214.625 431.875 214.875 431.625 215.25 431.625ZM215.25 430.375C214.25 430.375 213.375 431.25 213.375 432.25C213.375 433.25 214.25 434.125 215.25 434.125C216.25 434.125 217.125 433.25 217.125 432.25C217.125 431.25 216.25 430.375 215.25 430.375Z" fill="#C49F8A"/>
<path d="M215.25 428.875C214.375 428.875 213.625 428.125 213.625 427.25C213.625 426.375 214.375 425.625 215.25 425.625C216.125 425.625 216.875 426.375 216.875 427.25C216.875 428.125 216.125 428.875 215.25 428.875Z" fill="#E9E4DC"/>
<path d="M215.25 426.125C215.875 426.125 216.25 426.625 216.25 427.125C216.25 427.625 215.75 428.125 215.25 428.125C214.625 428.125 214.25 427.625 214.25 427.125C214.25 426.625 214.625 426.125 215.25 426.125ZM215.25 424.875C214 424.875 213 425.875 213 427.125C213 428.375 214 429.375 215.25 429.375C216.5 429.375 217.5 428.375 217.5 427.125C217.5 426 216.5 424.875 215.25 424.875Z" fill="#C49F8A"/>
<path d="M220.625 433.875C219.75 433.875 219 433.125 219 432.25C219 431.375 219.75 430.625 220.625 430.625C221.5 430.625 222.25 431.375 222.25 432.25C222.25 433.125 221.5 433.875 220.625 433.875Z" fill="#E9E4DC"/>
<path d="M220.625 431.125C221.25 431.125 221.625 431.625 221.625 432.125C221.625 432.625 221.125 433.125 220.625 433.125C220.125 433.125 219.625 432.625 219.625 432.125C219.625 431.625 220 431.125 220.625 431.125ZM220.625 429.875C219.375 429.875 218.375 430.875 218.375 432.125C218.375 433.375 219.375 434.375 220.625 434.375C221.875 434.375 222.875 433.375 222.875 432.125C222.875 431 221.875 429.875 220.625 429.875Z" fill="#C49F8A"/>
<path d="M220.625 428C220 428 219.375 427.5 219.375 426.75C219.375 426 219.875 425.5 220.625 425.5C221.25 425.5 221.875 426 221.875 426.75C221.875 427.5 221.25 428 220.625 428Z" fill="#E9E4DC"/>
<path d="M220.625 426.125C221 426.125 221.25 426.375 221.25 426.75C221.25 427.125 221 427.375 220.625 427.375C220.25 427.375 220 427.125 220 426.75C220 426.5 220.25 426.125 220.625 426.125ZM220.625 424.875C219.625 424.875 218.75 425.75 218.75 426.75C218.75 427.75 219.625 428.625 220.625 428.625C221.625 428.625 222.5 427.75 222.5 426.75C222.5 425.75 221.625 424.875 220.625 424.875Z" fill="#C49F8A"/>
<path d="M224.375 435.5H211.375V437.375H224.375V435.5Z" fill="#E9E4DC"/>
<path d="M223.875 436.125V436.75H212.125V436.125H223.875ZM225.125 434.875H210.875V438H225.125V434.875Z" fill="#C49F8A"/>
<path d="M274.625 410.5H261.125V424H274.625V410.5Z" fill="#E9E4DC"/>
<path d="M274 411.125V423.375H261.75V411.125H274ZM275.25 409.875H260.5V424.625H275.25V409.875Z" fill="#C49F8A"/>
<path d="M262.875 410.5H261.125V424H262.875V410.5Z" fill="#E9E4DC"/>
<path d="M262.25 411.125V423.375H261.75V411.125H262.25ZM263.5 409.875H260.5V424.625H263.5V409.875Z" fill="#C49F8A"/>
<path d="M267.25 419.75L270.125 414.75M265.875 417.125H271.625H265.875ZM267.25 414.625L270.125 419.625L267.25 414.625Z" stroke="#C49F8A"/>
<path d="M268.875 185.375H223.75V223.375H268.875V185.375Z" fill="#E9E4DC"/>
<path d="M268.25 186V222.75H224.375V186H268.25ZM269.5 184.75H223.125V224H269.5V184.75Z" fill="#C49F8A"/>
<path d="M266.25 205.375H254.75V220.75H266.25V205.375Z" fill="#E9E4DC" stroke="#C49F8A"/>
<path d="M266.25 188.125H254.75V203.5H266.25V188.125Z" fill="#E9E4DC" stroke="#C49F8A"/>
<path d="M251.254 204.65L248.277 215.758L259.385 218.734L262.361 207.626L251.254 204.65Z" fill="#E9E4DC" stroke="#C49F8A" stroke-width="0.99997" stroke-miterlimit="3.99968"/>
<path d="M259.416 189.813L248.309 192.789L251.285 203.897L262.393 200.921L259.416 189.813Z" fill="#E9E4DC" stroke="#C49F8A" stroke-width="0.99997" stroke-miterlimit="3.99968"/>
<path d="M223.25 223.375V185.375H259.125L260.125 200.375L256.75 223.375H223.25Z" fill="#E9E4DC"/>
<path d="M258.625 186L259.5 200.375L256.25 222.75H223.875V186H258.625ZM259.75 184.75H259H222.625V224H257H257.25L260.625 200.5L259.75 184.75Z" fill="#C49F8A"/>
<path d="M258.625 185.25V200.625L256.625 223.5" stroke="#C49F8A"/>
<path d="M317.5 140H272.375V178H317.5V140Z" fill="#E9E4DC"/>
<path d="M316.875 140.625V177.375H273V140.625H316.875V140.625ZM318.125 139.375H271.75V178.625H318.125V139.375Z" fill="#C49F8A"/>
<path d="M286.625 160H275.125V175.375H286.625V160Z" fill="#E9E4DC" stroke="#C49F8A"/>
<path d="M286.625 142.75H275.125V158.125H286.625V142.75Z" fill="#E9E4DC" stroke="#C49F8A"/>
<path d="M290.041 159.324L278.934 162.3L281.91 173.408L293.018 170.431L290.041 159.324Z" fill="#E9E4DC" stroke="#C49F8A" stroke-width="0.99997" stroke-miterlimit="3.99968"/>
<path d="M281.957 144.522L278.98 155.63L290.088 158.606L293.065 147.498L281.957 144.522Z" fill="#E9E4DC" stroke="#C49F8A" stroke-width="0.99997" stroke-miterlimit="3.99968"/>
<path d="M284.5 178L281.125 155.125L282.125 140H318V178H284.5Z" fill="#E9E4DC"/>
<path d="M317.375 140.625V177.375H285L281.75 155L282.625 140.625H317.375V140.625ZM318.625 139.375H282.25H281.5L280.5 155.125L283.875 178.625H284.125H318.5V139.375H318.625Z" fill="#C49F8A"/>
<path d="M282.75 139.875V155.25L284.625 178.25" stroke="#C49F8A"/>
<path d="M299.875 240.997H297.625V271.372H299.875V240.997Z" fill="#E9E4DC"/>
<path d="M299.25 241.622V270.747H298.25V241.622H299.25ZM300.5 240.372H297V271.997H300.5V240.372Z" fill="#C49F8A"/>
<path d="M313.625 240.997H299.875V271.372H313.625V240.997Z" fill="#E9E4DC"/>
<path d="M313 241.622V270.747H300.5V241.622H313ZM314.25 240.372H299.25V271.997H314.25V240.372Z" fill="#C49F8A"/>
<path d="M313.625 271.372L299.75 240.747L313.625 271.372Z" fill="#E9E4DC"/>
<path d="M313.625 271.372L299.75 240.747" stroke="#C49F8A"/>
<path d="M318 354.5H315.75V366.75H318V354.5Z" fill="#E9E4DC"/>
<path d="M317.375 355.125V366.125H316.375V355.125H317.375ZM318.625 353.875H315.125V367.5H318.625V353.875Z" fill="#C49F8A"/>
<path d="M327.125 354.5H318.125V366.75H327.125V354.5Z" fill="#E9E4DC"/>
<path d="M326.5 355.125V366.125H318.75V355.125H326.5ZM327.75 353.875H317.5V367.5H327.75V353.875Z" fill="#C49F8A"/>
<path d="M326.75 366.5L318.375 355L326.75 366.5Z" fill="#E9E4DC"/>
<path d="M326.75 366.5L318.375 355" stroke="#C49F8A"/>
<path d="M190.13 314.671L186.499 301.12L182.867 314.671H190.13Z" fill="#C49F8A"/>
<path d="M186.813 291.132L200.364 287.501L186.812 283.869L186.813 291.132Z" fill="#C49F8A"/>
<path d="M278.125 517.374V498.75H291.198C294.259 498.75 296.749 501.24 296.749 504.302V517.374H278.125Z" fill="#E9E4DC"/>
<path d="M291.198 499.375C293.915 499.375 296.125 501.585 296.125 504.302V516.75H278.75V499.375H291.198ZM291.198 498.125H277.5V518H297.375V504.302C297.375 500.891 294.609 498.125 291.198 498.125Z" fill="#C49F8A"/>
<path d="M280.164 515.336V500.789H290.96C293.029 500.789 294.712 502.472 294.712 504.54V515.336H280.164Z" fill="#E9E4DC"/>
<path d="M290.96 501.413C292.685 501.413 294.087 502.816 294.087 504.54V514.711H280.789V501.413H290.96ZM290.96 500.163H279.539V515.961H295.337V504.54C295.337 502.122 293.378 500.163 290.96 500.163Z" fill="#C49F8A"/>
<path d="M283.3 513.2C283.852 513.2 284.299 512.752 284.299 512.2C284.299 511.649 283.852 511.201 283.3 511.201C282.748 511.201 282.301 511.649 282.301 512.2C282.301 512.752 282.748 513.2 283.3 513.2Z" fill="#E9E4DC" stroke="#C49F8A"/>
<path d="M218.625 174.125L216.625 176.375H220V177.625H214.75V176.5L217.375 173.625L218 172.875C218.125 172.75 218.25 172.5 218.375 172.25C218.5 172 218.5 171.75 218.5 171.5C218.5 171.125 218.375 170.875 218.125 170.625C217.875 170.375 217.5 170.25 217.125 170.25C216.5 170.25 215.875 170.5 215.125 171.125L214.375 170.25C215.25 169.5 216.125 169 217.125 169C217.875 169 218.5 169.25 219 169.75C219.5 170.25 219.75 170.875 219.75 171.5C219.875 172.375 219.5 173.25 218.625 174.125Z" fill="#565440"/>
<path d="M220.625 171.25L223 169.25H224V177.625H222.75V171L221.25 172.125L220.625 171.25Z" fill="#565440"/>
<path d="M226.375 177.75C226.125 177.75 226 177.625 225.75 177.5C225.625 177.375 225.5 177.125 225.5 176.875C225.5 176.625 225.625 176.5 225.75 176.375C225.875 176.25 226.125 176.125 226.375 176.125C226.625 176.125 226.75 176.25 226.875 176.375C227 176.5 227.125 176.75 227.125 176.875C227.125 177.125 227 177.25 226.875 177.5C226.75 177.625 226.625 177.75 226.375 177.75Z" fill="#565440"/>
<path d="M232.125 174.125L230.125 176.375H233.5V177.625H228.25V176.5L230.875 173.625L231.5 172.875C231.625 172.75 231.75 172.5 231.875 172.25C232 172 232 171.75 232 171.5C232 171.125 231.875 170.875 231.625 170.625C231.375 170.375 231 170.25 230.625 170.25C230 170.25 229.375 170.5 228.625 171.125L227.875 170.25C228.75 169.5 229.625 169 230.625 169C231.375 169 232 169.25 232.5 169.75C233 170.25 233.25 170.875 233.25 171.5C233.375 172.375 233 173.25 232.125 174.125Z" fill="#565440"/>
<path d="M145.75 171.75L148.125 169.75H149.125V178.125H147.875V171.5L146.375 172.625L145.75 171.75Z" fill="#565440"/>
<path d="M154 172.75C154.75 172.75 155.375 173 155.875 173.5C156.375 174 156.625 174.625 156.625 175.375C156.625 176.125 156.375 176.875 155.75 177.375C155.25 177.875 154.5 178.125 153.625 178.125C152.625 178.125 151.875 177.75 151.375 177C150.875 176.25 150.625 175.25 150.625 174.125C150.625 173.375 150.75 172.625 151 171.875C151.25 171.25 151.625 170.625 152.125 170.25C152.625 169.75 153.375 169.625 154.125 169.625C155 169.625 155.75 169.875 156.25 170.375L155.75 171.375C155.25 171 154.75 170.875 154.25 170.875C153.75 170.875 153.375 171 153 171.375C152.375 172 152 172.875 152 174C152.125 173.625 152.5 173.375 152.875 173.125C153.25 172.875 153.5 172.75 154 172.75ZM153.75 177C154.25 177 154.625 176.875 154.875 176.5C155.125 176.125 155.375 175.75 155.375 175.375C155.375 174.875 155.25 174.5 154.875 174.25C154.625 174 154.25 173.75 153.75 173.75C153.25 173.75 152.875 173.875 152.625 174.25C152.375 174.5 152.125 175 152.125 175.375C152.125 175.875 152.25 176.25 152.625 176.5C153 176.875 153.375 177 153.75 177Z" fill="#565440"/>
<path d="M158.5 178.25C158.25 178.25 158.125 178.125 157.875 178C157.75 177.875 157.625 177.625 157.625 177.375C157.625 177.125 157.75 177 157.875 176.875C158 176.75 158.25 176.625 158.5 176.625C158.75 176.625 158.875 176.75 159 176.875C159.125 177 159.25 177.25 159.25 177.375C159.25 177.625 159.125 177.75 159 178C158.875 178.125 158.625 178.25 158.5 178.25Z" fill="#565440"/>
<path d="M159.25 171.75L161.625 169.75H162.625V178.125H161.375V171.5L159.875 172.625L159.25 171.75Z" fill="#565440"/>
<path d="M319.375 152.125L321.75 150.125H322.75V158.5H321.5V151.875L320 153L319.375 152.125Z" fill="#565440"/>
<path d="M327.125 150C328.125 150 328.875 150.375 329.375 151.125C329.875 151.875 330.125 152.875 330.125 154C330.125 154.625 330 155.25 329.875 155.75C329.75 156.25 329.5 156.75 329.25 157.25C329 157.625 328.625 158 328.125 158.25C327.625 158.5 327.125 158.625 326.625 158.625C325.75 158.625 325 158.375 324.375 157.875L324.875 156.875C325.375 157.25 326 157.5 326.5 157.5C327.25 157.5 327.75 157.25 328.125 156.625C328.5 156 328.75 155.375 328.75 154.5C328.5 154.875 328.25 155.125 327.875 155.25C327.5 155.375 327.125 155.5 326.625 155.5C325.875 155.5 325.25 155.25 324.75 154.75C324.25 154.25 324 153.625 324 152.875C324 152.125 324.25 151.375 324.75 150.875C325.625 150.25 326.25 150 327.125 150ZM328.625 152.75C328.625 152.25 328.5 151.875 328.125 151.625C327.875 151.25 327.5 151.125 327 151.125C326.5 151.125 326.125 151.25 325.875 151.625C325.625 152 325.375 152.375 325.375 152.75C325.375 153.25 325.5 153.625 325.875 153.875C326.125 154.125 326.5 154.375 327 154.375C327.5 154.375 327.875 154.25 328.125 153.875C328.5 153.625 328.625 153.125 328.625 152.75Z" fill="#565440"/>
<path d="M331.75 158.625C331.5 158.625 331.375 158.5 331.125 158.375C331 158.25 330.875 158 330.875 157.75C330.875 157.5 331 157.375 331.125 157.25C331.25 157.125 331.5 157 331.75 157C332 157 332.125 157.125 332.25 157.25C332.375 157.375 332.5 157.625 332.5 157.75C332.5 158 332.375 158.125 332.25 158.375C332.125 158.5 332 158.625 331.75 158.625Z" fill="#565440"/>
<path d="M338.5 155.25H339.375V156.375H338.5V158.375H337.25V156.375H333.5L333.25 155.625L337.75 150.125H338.625V155.25H338.5ZM337.25 152.25L334.75 155.25H337.25V152.25Z" fill="#565440"/>
<path d="M351.375 239.75C352.125 239.75 352.875 240 353.375 240.5C353.875 241 354.125 241.625 354.125 242.5C354.125 243.375 353.875 244 353.25 244.5C352.75 245 352 245.25 351.125 245.25C350.125 245.25 349.25 244.875 348.375 244.25L349 243.25C349.75 243.75 350.375 244 351.125 244C351.625 244 352 243.875 352.375 243.5C352.75 243.25 352.875 242.875 352.875 242.375C352.875 241.875 352.75 241.5 352.375 241.25C352.125 241 351.625 240.75 351.125 240.75C350.5 240.75 350 241 349.625 241.375L348.875 240.875L349.375 236.75H353.625V237.875H350.375L350.125 239.875C350.5 239.875 351 239.75 351.375 239.75Z" fill="#565440"/>
<path d="M286.5 379.125C287.5 379.125 288.25 379.5 288.75 380.25C289.25 381 289.5 382 289.5 383.125C289.5 383.75 289.375 384.375 289.25 384.875C289.125 385.375 288.875 385.875 288.625 386.375C288.375 386.75 288 387.125 287.5 387.375C287 387.625 286.5 387.75 286 387.75C285.125 387.75 284.375 387.5 283.75 387L284.25 386C284.75 386.375 285.375 386.625 285.875 386.625C286.625 386.625 287.125 386.375 287.5 385.75C287.875 385.125 288.125 384.5 288.125 383.625C287.875 384 287.625 384.25 287.25 384.375C286.875 384.5 286.5 384.625 286 384.625C285.25 384.625 284.625 384.375 284.125 383.875C283.625 383.375 283.375 382.75 283.375 382C283.375 381.25 283.625 380.5 284.125 380C285 379.375 285.625 379.125 286.5 379.125ZM288 381.875C288 381.375 287.875 381 287.5 380.75C287.25 380.375 286.875 380.25 286.375 380.25C285.875 380.25 285.5 380.375 285.25 380.75C285 381.125 284.75 381.5 284.75 381.875C284.75 382.375 284.875 382.75 285.25 383C285.5 383.25 285.875 383.5 286.375 383.5C286.875 383.5 287.25 383.375 287.5 383C287.875 382.75 288 382.375 288 381.875Z" fill="#565440"/>
<path d="M291.125 387.75C290.875 387.75 290.75 387.625 290.5 387.5C290.375 387.375 290.25 387.125 290.25 386.875C290.25 386.625 290.375 386.5 290.5 386.375C290.625 386.25 290.875 386.125 291.125 386.125C291.375 386.125 291.5 386.25 291.625 386.375C291.75 386.5 291.875 386.75 291.875 386.875C291.875 387.125 291.75 387.25 291.625 387.5C291.5 387.625 291.375 387.75 291.125 387.75Z" fill="#565440"/>
<path d="M296.875 384.125L294.875 386.375H298.25V387.625H293V386.5L295.625 383.625L296.25 382.875C296.375 382.75 296.5 382.5 296.625 382.25C296.75 382 296.75 381.75 296.75 381.5C296.75 381.125 296.625 380.875 296.375 380.625C296.125 380.375 295.75 380.25 295.375 380.25C294.75 380.25 294.125 380.5 293.375 381.125L292.625 380.25C293.5 379.5 294.375 379 295.375 379C296.125 379 296.75 379.25 297.25 379.75C297.75 380.25 298 380.875 298 381.5C298.125 382.375 297.75 383.25 296.875 384.125Z" fill="#565440"/>
<path d="M186.625 360.125L184.625 362.375H188V363.625H182.75V362.5L185.375 359.625L186 358.875C186.125 358.75 186.25 358.5 186.375 358.25C186.5 358 186.5 357.75 186.5 357.5C186.5 357.125 186.375 356.875 186.125 356.625C185.875 356.375 185.5 356.25 185.125 356.25C184.5 356.25 183.875 356.5 183.125 357.125L182.375 356.25C183.25 355.5 184.125 355 185.125 355C185.875 355 186.5 355.25 187 355.75C187.5 356.25 187.75 356.875 187.75 357.5C187.875 358.375 187.5 359.25 186.625 360.125Z" fill="#565440"/>
<path d="M192.125 363.75C191.25 363.75 190.5 363.5 190 363.125C189.5 362.625 189.125 362.125 189.125 361.375C189.125 360.875 189.25 360.5 189.625 360.125C189.875 359.75 190.25 359.5 190.75 359.25C190.375 359.125 190 358.75 189.875 358.5C189.625 358.125 189.5 357.875 189.5 357.375C189.5 356.75 189.75 356.25 190.25 355.75C190.75 355.375 191.375 355.125 192.125 355.125C192.875 355.125 193.5 355.375 194 355.75C194.5 356.125 194.75 356.75 194.75 357.375C194.75 357.75 194.625 358.125 194.375 358.5C194.125 358.875 193.875 359.125 193.5 359.25C194 359.375 194.375 359.75 194.625 360.125C194.875 360.5 195.125 361 195.125 361.375C195.125 362.125 194.875 362.625 194.25 363.125C193.75 363.5 193 363.75 192.125 363.75ZM192.125 362.625C192.625 362.625 193 362.5 193.375 362.25C193.75 362 193.875 361.625 193.875 361.25C193.875 360.875 193.75 360.5 193.375 360.25C193 360 192.625 359.875 192.125 359.875C191.625 359.875 191.25 360 190.875 360.25C190.5 360.5 190.375 360.875 190.375 361.25C190.375 361.625 190.5 362 190.875 362.25C191.125 362.5 191.5 362.625 192.125 362.625ZM193.125 358.375C193.375 358.125 193.5 357.875 193.5 357.5C193.5 357.125 193.375 356.875 193.125 356.625C192.875 356.375 192.5 356.25 192.125 356.25C191.75 356.25 191.375 356.375 191.125 356.625C190.875 356.875 190.75 357.125 190.75 357.5C190.75 357.875 190.875 358.125 191.125 358.375C191.375 358.625 191.75 358.75 192.125 358.75C192.5 358.75 192.875 358.625 193.125 358.375Z" fill="#565440"/>
<path d="M196.875 363.75C196.625 363.75 196.5 363.625 196.25 363.5C196.125 363.375 196 363.125 196 362.875C196 362.625 196.125 362.5 196.25 362.375C196.375 362.25 196.625 362.125 196.875 362.125C197.125 362.125 197.25 362.25 197.375 362.375C197.5 362.5 197.625 362.75 197.625 362.875C197.625 363.125 197.5 363.25 197.375 363.5C197.375 363.75 197.125 363.75 196.875 363.75Z" fill="#565440"/>
<path d="M202.75 360.125L200.75 362.375H204.125V363.625H198.875V362.5L201.5 359.625L202.125 358.875C202.25 358.75 202.375 358.5 202.5 358.25C202.625 358 202.625 357.75 202.625 357.5C202.625 357.125 202.5 356.875 202.25 356.625C202 356.375 201.625 356.25 201.25 356.25C200.625 356.25 200 356.5 199.25 357.125L198.5 356.25C199.375 355.5 200.25 355 201.25 355C202 355 202.625 355.25 203.125 355.75C203.625 356.25 203.875 356.875 203.875 357.5C204 358.375 203.5 359.25 202.75 360.125Z" fill="#565440"/>
<path d="M247.375 479.25L249.75 477.25H250.75V485.625H249.5V479L248 480.125L247.375 479.25Z" fill="#565440"/>
<path d="M255.375 485.625C254.5 485.625 253.75 485.375 253.25 485C252.75 484.5 252.375 484 252.375 483.25C252.375 482.75 252.5 482.375 252.875 482C253.125 481.625 253.5 481.375 254 481.125C253.625 481 253.25 480.625 253.125 480.375C252.875 480 252.75 479.75 252.75 479.25C252.75 478.625 253 478.125 253.5 477.625C254 477.25 254.625 477 255.375 477C256.125 477 256.75 477.25 257.25 477.625C257.75 478 258 478.625 258 479.25C258 479.625 257.875 480 257.625 480.375C257.375 480.75 257.125 481 256.75 481.125C257.25 481.25 257.625 481.625 257.875 482C258.125 482.375 258.375 482.875 258.375 483.25C258.375 484 258.125 484.5 257.5 485C257 485.5 256.25 485.625 255.375 485.625ZM255.375 484.5C255.875 484.5 256.25 484.375 256.625 484.125C257 483.875 257.125 483.5 257.125 483.125C257.125 482.75 257 482.375 256.625 482.125C256.25 481.875 255.875 481.75 255.375 481.75C254.875 481.75 254.5 481.875 254.125 482.125C253.75 482.375 253.625 482.75 253.625 483.125C253.625 483.5 253.75 483.875 254.125 484.125C254.375 484.375 254.875 484.5 255.375 484.5ZM256.375 480.25C256.625 480 256.75 479.75 256.75 479.375C256.75 479 256.625 478.75 256.375 478.5C256.125 478.25 255.75 478.125 255.375 478.125C255 478.125 254.625 478.25 254.375 478.5C254.125 478.75 254 479 254 479.375C254 479.75 254.125 480 254.375 480.25C254.625 480.5 255 480.625 255.375 480.625C255.75 480.625 256.125 480.5 256.375 480.25Z" fill="#565440"/>
<path d="M260.25 485.75C260 485.75 259.875 485.625 259.625 485.5C259.5 485.375 259.375 485.125 259.375 484.875C259.375 484.625 259.5 484.5 259.625 484.375C259.75 484.25 260 484.125 260.25 484.125C260.5 484.125 260.625 484.25 260.75 484.375C260.875 484.5 261 484.75 261 484.875C261 485.125 260.875 485.25 260.75 485.5C260.625 485.625 260.375 485.75 260.25 485.75Z" fill="#565440"/>
<path d="M264.875 480.125C265.625 480.125 266.375 480.375 266.875 480.875C267.375 481.375 267.625 482 267.625 482.875C267.625 483.75 267.375 484.375 266.75 484.875C266.25 485.375 265.5 485.625 264.625 485.625C263.625 485.625 262.75 485.25 261.875 484.625L262.5 483.625C263.25 484.125 263.875 484.375 264.625 484.375C265.125 484.375 265.5 484.25 265.875 483.875C266.25 483.625 266.375 483.25 266.375 482.75C266.375 482.25 266.25 481.875 265.875 481.625C265.625 481.375 265.125 481.125 264.625 481.125C264 481.125 263.5 481.375 263.125 481.75L262.375 481.25L262.875 477.125H267.125V478.25H263.875L263.625 480.25C263.875 480.25 264.375 480.125 264.875 480.125Z" fill="#565440"/>
<path d="M304 488.75H304.875V489.875H304V491.875H302.75V489.875H299L298.75 489.125L303.25 483.625H304.125V488.75H304ZM302.75 485.75L300.25 488.75H302.75V485.75Z" fill="#565440"/>
<rect x="552.375" y="79" width="198" height="444" fill="#DBD4CA"/>
<rect x="552.375" y="79" width="263" height="200" fill="#DBD4CA"/>
<path d="M815.25 277.5V125.976L597.25 127.375L596.75 523.375H754.75V277.75L815.25 277.5Z" fill="#DBD4CA"/>
<g opacity="0.3">
<path opacity="0.7" d="M807.797 226.248H735.672V272.58H807.797V226.248Z" fill="#C49F8A"/>
</g>
<path d="M787.797 255.08L799.922 242.955L807.672 250.705V249.08L800.797 242.205L807.672 235.33V233.58L799.922 241.33L787.797 229.08L790.629 226.248H788.879L786.922 228.205L784.965 226.248H783.215L786.047 229.08L773.922 241.205L761.672 228.955L764.379 226.248H762.629L760.797 228.08L758.965 226.248H757.215L759.922 228.955L747.672 241.205L735.672 229.205V230.955L746.797 242.08L735.672 253.205V254.955L747.672 242.955L759.922 255.205L747.672 267.455L735.672 255.455V257.205L746.797 268.33L742.672 272.455H744.422L747.672 269.205L750.922 272.455H752.672L748.547 268.33L760.797 256.08L772.922 268.205L768.672 272.455H770.422L773.797 269.08L777.172 272.455H778.922L774.672 268.205L786.922 255.955L799.172 268.205L794.922 272.455H796.672L800.047 269.08L803.422 272.455H805.172L800.922 268.205L807.797 261.33V259.58L800.047 267.33L787.797 255.08ZM748.547 242.205L760.797 229.955L773.047 242.205L760.797 254.455L748.547 242.205ZM773.797 267.455L761.672 255.33L773.922 243.08L786.047 255.205L773.797 267.455ZM774.797 242.205L786.922 230.08L799.047 242.205L786.922 254.33L774.797 242.205Z" fill="#C49F8A"/>
<g opacity="0.3">
<path opacity="0.7" d="M750.375 468.125H696V520.625H750.375V468.125Z" fill="#C49F8A"/>
</g>
<path d="M710.125 508.75L698.25 520.625H700L711 509.625L722 520.625H723.75L711.875 508.75L724.125 496.5L736.375 508.75L724.5 520.625H726.25L737.25 509.625L748.25 520.625H750L738.125 508.75L750.25 496.625L750.375 496.75V494.75L750.25 494.875L738 482.625L750.25 470.375L750.375 470.5V468.5L750.25 468.625L749.875 468.25H748.125L749.375 469.5L737.125 481.75L724.625 469.25L725.625 468.25H723.875L723.75 468.375L723.625 468.25H721.875L722.875 469.25L710.75 481.375L698.5 469.125L699.5 468.125H697.75L697.625 468.25L697.5 468.125H695.875V468.25L696.625 469L695.875 469.75V471.5L697.5 469.875L709.75 482.125L697.5 494.375L695.875 492.75V494.5L696.625 495.25L695.875 496V497.75L697.5 496.125L710.125 508.75ZM749.375 495.625L737.25 507.75L725 495.5L737.125 483.375L749.375 495.625ZM723.75 470.125L736.25 482.625L724.125 494.75L711.625 482.25L723.75 470.125ZM710.75 483.125L723.25 495.625L711 507.875L698.5 495.375L710.75 483.125Z" fill="#C49F8A"/>
<path d="M817.5 79.25L554.75 79.25H552.375V521.5H555.875V82.75L817.5 82.75V79.25Z" stroke="#565440"/>
<path d="M550.438 135.375H551.563V138.625H555.563V135.375H557.688V138.625H561.688V135.375H564.438V108H561.688V104.5H557.688V108H555.563V104.5H551.563V108H550.438V110.375H546.938V114.375H550.438V116.375H546.938V120.375H550.438V122.5H546.938V126.5H550.438V128.625H546.938V132.625H550.438V135.375Z" fill="#565440"/>
<path d="M550.438 234.125H551.563V237.375H555.563V234.125H557.688V237.375H561.688V234.125H564.438V206.75H561.688V203.25H557.688V206.75H555.563V203.25H551.563V206.75H550.438V209.125H546.938V213.125H550.438V215.125H546.938V219.125H550.438V221.25H546.938V225.25H550.438V227.375H546.938V231.375H550.438V234.125Z" fill="#565440"/>
<path d="M550.438 381.75H551.563V385.25H555.563V381.75H557.688V385.25H561.688V381.75H564.438V354.375H561.688V350.875H557.688V354.375H555.563V350.875H551.563V354.375H550.438V356.75H546.938V360.75H550.438V362.875H546.938V366.875H550.438V368.875H546.938V372.875H550.438V375.25H546.938V379.25H550.438V381.75Z" fill="#565440"/>
<path d="M551.563 455V458.5H555.563V455H557.688V458.5H561.688V455H564.438V427.625H561.688V424.125H557.688V427.625H555.563V424.125H551.563V427.625H550.438V430H546.938V434H550.438V436.375H546.938V440.25H550.438V442.375H546.938V446.375H550.438V448.5H546.938V452.5H550.438V455H551.563Z" fill="#565440"/>
<path d="M599.813 92.625H627.188V89.75H630.688V85.75H627.188V83.625H630.688V79.75H627.188V78.5H624.813V75H620.938V78.5H618.812V75H614.813V78.5H612.688V75H608.688V78.5H606.438V75H602.438V78.5H599.813V79.75H596.312V83.625H599.813V85.75H596.312V89.75H599.813V92.625Z" fill="#565440"/>
<path d="M698.063 92.625H725.438V89.75H728.938V85.75H725.438V83.625H728.938V79.75H725.438V78.5H723.187V75H719.188V78.5H717.062V75H713.063V78.5H710.938V75H706.937V78.5H704.938V75H700.937V78.5H698.063V79.75H694.812V83.625H698.063V85.75H694.812V89.75H698.063V92.625Z" fill="#565440"/>
<path d="M823.813 85.25V81.25H820.313V78.5H819.438V75.25H815.188V78.5H813.063V75.25H809.063V78.5H806.313V81.25H802.813V85.25H806.313V87.375H802.813V91.375H806.313V93.5H802.813V97.5H806.313V99.875H802.813V103.75H806.313V105.875H802.813V109.875H806.313V112H802.813V116H806.313V118.125H802.813V122.125H806.313V124L693.813 124V122.875H673.688V124L597.438 124H594.063H593.938V257.5H592.813V272.25V277.875V279.25H593.938V437.875H592.813V444.875H593.938V517.875H551.312V524.875H747.812H754.812V517.875V394H747.812V437.875H729.812V444.875H740.187V450.25V452.625H742.562H747.812V468.125H729.812V470.5H747.812V518H697.687V470.5H712.687V468.125H697.687V467.375H695.313V517.875H597.188V445H695.063V450.125H697.438V449.875H697.563V445H705.563V438H705.313V432.75V431.25V430.375H695.063V431.25V432.75V438H691.688V300.5V298.125H683.062V300.5H689.312V438H597.063V279.25H691.563V272.875V272.125V258.75H689.188V272.375H604.063V257.5H597.063V127.375L673.313 127.375V134.375H689.188V241.375H691.563V240.625H695.563V238.25H691.563V134.375H693.438V127.375L805.938 127.375V162.25V209.875H799.688H797.313V212.25V226.25H768.938V228.625H805.938V272.375H745.063V265.75V263.375H742.688H736.313V228.625H750.813V226.25H736.313H733.938V228.625V238.5H712.688V240.875H733.938V272.5H715.938V279.5H739.688V285.125V287.5H742.063H747.313V371.25H754.313V279.5H817.438V272.5V162.5H819.813V159.25H823.313V155H820.313V152.625H823.813V148.75H820.313V146.625H823.813V142.625H820.313V140.5H823.813V136.5H820.313V134.375H823.813V130.375H820.313V128H823.813V124H820.313V121.875H823.813V117.875H820.313V115.75H823.813V111.75H820.313V109.625H823.813V105.625H820.313V103.75H823.813V99.75H820.313V97.5H823.813V93.5H820.313V91.375H823.813V87.375H820.313V85.25H823.813V85.25ZM742.438 450.375V445H747.688V450.375H742.438ZM697.438 432.75H702.938V438H697.438V432.75ZM736.688 265.625H743.063V272.25H736.688V265.625ZM747.688 285H742.438V279.375H747.688V285ZM799.938 226.125V212.125H806.188V226.125H799.938Z" fill="#565440"/>
<path d="M750.625 226.625C750.625 224 751.125 222 752 219.625C752.875 217.25 754.375 215.125 756 213.5C757.625 211.625 759.75 210.25 762.125 209.25C764.5 208.375 766.75 207.875 769.375 207.875V226.625" stroke="#565440"/>
<path d="M713.875 238.875C713.875 236.25 713.375 234.25 712.5 231.875C711.625 229.5 710.125 227.375 708.5 225.75C706.875 223.875 704.75 222.5 702.375 221.5C700 220.625 697.75 220.125 695.125 220.125V238.875" stroke="#565440"/>
<path d="M690.875 260.625C688.25 260.625 686.25 260.125 683.875 259.25C681.5 258.375 679.375 256.875 677.75 255.25C675.875 253.625 674.5 251.5 673.5 249.125C672.625 246.75 672.125 244.5 672.125 241.875H690.875" stroke="#565440"/>
<path d="M696.125 467.875C693.5 467.875 691.5 467.375 689.125 466.5C686.75 465.625 684.625 464.125 683 462.5C681.125 460.875 679.75 458.75 678.75 456.375C677.875 454 677.375 451.75 677.375 449.125H696.125" stroke="#565440"/>
<path d="M712.25 469.125C712.25 466.5 712.75 464.5 713.625 462.125C714.5 459.75 716 457.625 717.625 456C719.25 454.125 721.375 452.75 723.75 451.75C726.125 450.875 728.375 450.375 731 450.375V469.125" stroke="#565440"/>
<path d="M754.625 371.125C757.625 371.125 760.5 371.875 763.25 373C766 374.125 768.875 375.75 771 378.125C773.125 380.25 775 382.75 776.125 385.625C777.25 388.375 778 391.5 778 394.5H754.625" stroke="#565440"/>
<path d="M650.875 472.518H612.875V517.643H650.875V472.518Z" fill="#E9E4DC"/>
<path d="M613.5 473.143H650.25V517.018H613.5V473.143ZM612.25 471.893V518.268H651.5V471.893H612.25Z" fill="#C49F8A"/>
<path d="M631 503.518H615.625V515.018H631V503.518Z" fill="#E9E4DC" stroke="#C49F8A"/>
<path d="M648.25 503.518H632.875V515.018H648.25V503.518Z" fill="#E9E4DC" stroke="#C49F8A"/>
<path d="M620.472 497.066L617.496 508.174L628.604 511.15L631.58 500.042L620.472 497.066Z" fill="#E9E4DC" stroke="#C49F8A" stroke-width="0.99997" stroke-miterlimit="3.99968"/>
<path d="M643.44 497.077L632.332 500.053L635.308 511.161L646.416 508.184L643.44 497.077Z" fill="#E9E4DC" stroke="#C49F8A" stroke-width="0.99997" stroke-miterlimit="3.99968"/>
<path d="M612.875 505.518V472.018H650.875V507.893L635.875 508.893L612.875 505.518Z" fill="#E9E4DC"/>
<path d="M650.25 472.643V507.268L635.875 508.143L613.5 504.893V472.518H650.25V472.643ZM651.5 471.393H612.25V505.768V506.018L635.75 509.393L651.5 508.393V507.768V471.393Z" fill="#C49F8A"/>
<path d="M651 507.393H635.625L612.75 505.393" stroke="#C49F8A"/>
<path d="M648.375 445.58H613.125V451.955H648.375V445.58Z" fill="#E9E4DC"/>
<path d="M647.75 446.205V451.33H613.75V446.205H647.75ZM649 444.955H612.5V452.58H649V444.955Z" fill="#C49F8A"/>
<path d="M641.25 447.455H620.25V449.455H641.25V447.455Z" fill="#E9E4DC" stroke="#C49F8A"/>
<path d="M626.375 447.455H635.25L634.5 445.58H627.25L626.375 447.455Z" fill="#E9E4DC" stroke="#C49F8A"/>
<path d="M799.254 128.893H790.129V209.268H799.254V128.893Z" fill="#E9E4DC"/>
<path d="M790.754 129.518H798.629V208.643H790.754V129.518ZM789.504 128.268V209.893H799.879V128.268L789.504 128.268Z" fill="#C49F8A"/>
<path d="M805.379 128.893H792.379V209.268H805.379V128.893Z" fill="#E9E4DC"/>
<path d="M793.004 129.518H804.754V208.643H793.004V129.518ZM791.754 128.268V209.893H806.004V128.268L791.754 128.268Z" fill="#C49F8A"/>
<path d="M805.379 209.268L792.504 128.768L805.379 209.268Z" fill="#E9E4DC"/>
<path d="M805.379 209.268L792.504 128.768" stroke="#C49F8A"/>
<path d="M684.746 141.268H675.621V178.268H684.746V141.268Z" fill="#E9E4DC"/>
<path d="M684.121 141.893V177.643H676.246V141.893H684.121V141.893ZM685.371 140.643H674.996V178.893H685.371V140.643Z" fill="#C49F8A"/>
<path d="M688.496 141.268H677.746V178.268H688.496V141.268Z" fill="#E9E4DC"/>
<path d="M687.996 141.893V177.643H678.496V141.893H687.996V141.893ZM689.246 140.643H677.246V178.893H689.246V140.643Z" fill="#C49F8A"/>
<path d="M688.621 178.643L677.746 141.018L688.621 178.643Z" fill="#E9E4DC"/>
<path d="M688.621 178.643L677.746 141.018" stroke="#C49F8A"/>
<path d="M727.246 241.498H718.121V271.875H727.246V241.498Z" fill="#E9E4DC"/>
<path d="M726.621 242.123V271.25H718.746V242.123H726.621ZM727.871 240.873H717.496V272.5H727.871V240.873Z" fill="#C49F8A"/>
<path d="M733.246 241.498H720.246V271.875H733.246V241.498Z" fill="#E9E4DC"/>
<path d="M732.746 242.123V271.25H720.996V242.123H732.746ZM733.996 240.873H719.746V272.5H733.996V240.873Z" fill="#C49F8A"/>
<path d="M733.246 272.25L720.371 240.998L733.246 272.25Z" fill="#E9E4DC"/>
<path d="M733.246 272.25L720.371 240.998" stroke="#C49F8A"/>
<path d="M653.75 256.643H604.75V265.768H653.75V256.643Z" fill="#E9E4DC"/>
<path d="M653.125 257.268V265.143H605.375V257.268H653.125ZM654.375 256.018H604.125V266.393H654.375V256.018Z" fill="#C49F8A"/>
<path d="M653.75 258.768H604.75V271.768H653.75V258.768Z" fill="#E9E4DC"/>
<path d="M653.125 259.393V271.143H605.375V259.393H653.125ZM654.375 258.143H604.125V272.393H654.375V258.143Z" fill="#C49F8A"/>
<path d="M604.5 271.768L654 258.893L604.5 271.768Z" fill="#E9E4DC"/>
<path d="M604.5 271.768L654 258.893" stroke="#C49F8A"/>
<path d="M741.25 399.338H732.125V437.213H741.25V399.338Z" fill="#E9E4DC"/>
<path d="M740.625 399.963V436.588H732.75V399.963H740.625ZM741.875 398.713H731.5V437.838H741.875V398.713Z" fill="#C49F8A"/>
<path d="M747.25 399.338H734.25V437.213H747.25V399.338Z" fill="#E9E4DC"/>
<path d="M734.875 399.963H746.625V436.588H734.875V399.963ZM733.625 398.713V437.838H747.875V398.713H733.625Z" fill="#C49F8A"/>
<path d="M747.25 437.463L734.375 398.963L747.25 437.463Z" fill="#E9E4DC"/>
<path d="M747.25 437.463L734.375 398.963" stroke="#C49F8A"/>
<path d="M741.625 352.643H739.125V364.893H741.625V352.643Z" fill="#E9E4DC"/>
<path d="M741 353.268V364.268H739.75V353.268H741ZM742.25 352.018H738.5V365.518H742.25V352.018Z" fill="#C49F8A"/>
<path d="M746.75 352.643H741.375V364.893H746.75V352.643Z" fill="#E9E4DC"/>
<path d="M746.125 353.268V364.268H742V353.268H746.125ZM747.375 352.018H740.75V365.518H747.375V352.018Z" fill="#C49F8A"/>
<path d="M746.75 365.143L741.25 352.393L746.75 365.143Z" fill="#E9E4DC"/>
<path d="M746.75 365.143L741.25 352.393" stroke="#C49F8A"/>
<path d="M613.988 279.87H597.738V313.245H613.988V279.87Z" fill="#E9E4DC"/>
<path d="M613.363 280.495V312.62H598.363V280.495H613.363ZM614.613 279.245H597.113V313.87H614.613V279.245Z" fill="#C49F8A"/>
<path d="M631.238 279.87H606.488V296.12H631.238V279.87Z" fill="#E9E4DC"/>
<path d="M630.613 280.495V295.495H607.113V280.495H630.613ZM631.863 279.245H605.863V296.745H631.863V279.245Z" fill="#C49F8A"/>
<path d="M616.488 279.87H597.738V296.12H616.488V279.87Z" fill="#E9E4DC"/>
<path d="M615.863 280.495V295.495H598.363V280.495H615.863ZM617.113 279.245H597.113V296.745H617.113V279.245Z" fill="#C49F8A"/>
<path d="M597.738 303.37V279.87H616.488V296.12H613.988V303.37H597.738Z" fill="#E9E4DC"/>
<path d="M615.863 280.495V295.495H614.613H613.363V296.745V302.745H598.363V296.745V280.495H614.613H615.863ZM617.113 279.245H614.613H597.113V296.745V303.995H614.613V296.745H617.113V279.245Z" fill="#C49F8A"/>
<path d="M621.488 296.745V279.245" stroke="#C49F8A"/>
<path d="M626.363 296.745V279.245" stroke="#C49F8A"/>
<path d="M597.113 308.245H614.613" stroke="#C49F8A"/>
<path d="M597.113 313.12H614.613" stroke="#C49F8A"/>
<path d="M636.113 279.87H631.238V296.12H636.113V279.87Z" fill="#E9E4DC"/>
<path d="M635.488 280.495V295.495H631.863V280.495H635.488ZM636.738 279.245H630.613V296.745H636.738V279.245Z" fill="#C49F8A"/>
<path d="M640.988 279.87H636.113V296.12H640.988V279.87Z" fill="#E9E4DC"/>
<path d="M640.363 280.495V295.495H636.738V280.495H640.363ZM641.613 279.245H635.488V296.745H641.613V279.245Z" fill="#C49F8A"/>
<path d="M645.863 279.87H640.988V296.12H645.863V279.87Z" fill="#E9E4DC"/>
<path d="M645.238 280.495V295.495H641.613V280.495H645.238ZM646.488 279.245H640.363V296.745H646.488V279.245Z" fill="#C49F8A"/>
<path d="M650.738 279.87H645.863V296.12H650.738V279.87Z" fill="#E9E4DC"/>
<path d="M650.113 280.495V295.495H646.488V280.495H650.113ZM651.363 279.245H645.238V296.745H651.363V279.245Z" fill="#C49F8A"/>
<path d="M655.613 279.87H650.738V296.12H655.613V279.87Z" fill="#E9E4DC"/>
<path d="M654.988 280.495V295.495H651.363V280.495H654.988ZM656.238 279.245H650.113V296.745H656.238V279.245Z" fill="#C49F8A"/>
<path d="M660.488 279.87H655.613V296.12H660.488V279.87Z" fill="#E9E4DC"/>
<path d="M659.863 280.495V295.495H656.238V280.495H659.863ZM661.113 279.245H654.988V296.745H661.113V279.245Z" fill="#C49F8A"/>
<path d="M665.363 279.87H660.488V296.12H665.363V279.87Z" fill="#E9E4DC"/>
<path d="M664.738 280.495V295.495H661.113V280.495H664.738ZM665.988 279.245H659.863V296.745H665.988V279.245Z" fill="#C49F8A"/>
<path d="M670.238 279.87H665.363V296.12H670.238V279.87Z" fill="#E9E4DC"/>
<path d="M669.613 280.495V295.495H665.988V280.495H669.613ZM670.863 279.245H664.738V296.745H670.863V279.245Z" fill="#C49F8A"/>
<path d="M675.113 279.87H670.238V296.12H675.113V279.87Z" fill="#E9E4DC"/>
<path d="M674.488 280.495V295.495H670.863V280.495H674.488ZM675.738 279.245H669.613V296.745H675.738V279.245Z" fill="#C49F8A"/>
<path d="M679.988 279.87H675.113V296.12H679.988V279.87Z" fill="#E9E4DC"/>
<path d="M679.363 280.495V295.495H675.738V280.495H679.363ZM680.613 279.245H674.488V296.745H680.613V279.245Z" fill="#C49F8A"/>
<path d="M684.863 279.87H679.988V296.12H684.863V279.87Z" fill="#E9E4DC"/>
<path d="M684.238 280.495V295.495H680.613V280.495H684.238ZM685.488 279.245H679.363V296.745H685.488V279.245Z" fill="#C49F8A"/>
<path d="M689.738 279.87H684.863V296.12H689.738V279.87Z" fill="#E9E4DC"/>
<path d="M689.113 280.495V295.495H685.488V280.495H689.113ZM690.363 279.245H684.238V296.745H690.363V279.245Z" fill="#C49F8A"/>
<path d="M664.875 167.143C668.81 167.143 672 163.953 672 160.018C672 156.083 668.81 152.893 664.875 152.893C660.94 152.893 657.75 156.083 657.75 160.018C657.75 163.953 660.94 167.143 664.875 167.143Z" fill="#E9E4DC"/>
<path d="M664.875 153.518C668.5 153.518 671.375 156.393 671.375 160.018C671.375 163.643 668.5 166.518 664.875 166.518C661.25 166.518 658.375 163.643 658.375 160.018C658.5 156.393 661.375 153.518 664.875 153.518ZM664.875 152.268C660.625 152.268 657.125 155.768 657.125 160.018C657.125 164.268 660.625 167.768 664.875 167.768C669.125 167.768 672.625 164.268 672.625 160.018C672.625 155.768 669.25 152.268 664.875 152.268Z" fill="#C49F8A"/>
<path d="M805.379 255.498H764.504V271.748H805.379V255.498Z" fill="#E9E4DC"/>
<path d="M804.754 256.123V271.123H765.129V256.123H804.754ZM806.004 254.873H763.879V272.373H806.004V254.873Z" fill="#C49F8A"/>
<path d="M802.129 263.748C802.129 260.498 799.379 257.998 796.129 258.248C792.629 258.623 788.254 258.873 784.879 258.873C781.629 258.873 777.254 258.498 773.629 258.248C770.379 257.998 767.629 260.498 767.629 263.748C767.629 266.998 770.379 269.498 773.629 269.248C777.129 268.873 781.504 268.623 784.879 268.623C788.129 268.623 792.504 268.998 796.129 269.248C799.379 269.373 802.129 266.873 802.129 263.748Z" fill="#E9E4DC" stroke="#C49F8A" stroke-linejoin="round"/>
<path d="M796.504 264.748C797.056 264.748 797.504 264.3 797.504 263.748C797.504 263.196 797.056 262.748 796.504 262.748C795.952 262.748 795.504 263.196 795.504 263.748C795.504 264.3 795.952 264.748 796.504 264.748Z" fill="#E9E4DC" stroke="#C49F8A" stroke-linejoin="round"/>
<path d="M747.262 478.062H738.012V493.437H747.262V478.062Z" fill="#E9E4DC"/>
<path d="M738.637 478.687V492.812H746.637V478.687H738.637ZM737.387 477.438H747.887V494.062H737.387V477.438Z" fill="#C49F8A"/>
<path d="M742.637 489.938C741.137 489.938 739.887 488.813 739.887 487.437V483.938C739.887 482.562 741.137 481.438 742.637 481.438C744.137 481.438 745.387 482.562 745.387 483.938V487.437C745.387 488.938 744.137 489.938 742.637 489.938Z" fill="#E9E4DC" stroke="#C49F8A"/>
<path d="M742.887 486.812C743.439 486.812 743.887 486.365 743.887 485.812C743.887 485.26 743.439 484.812 742.887 484.812C742.334 484.812 741.887 485.26 741.887 485.812C741.887 486.365 742.334 486.812 742.887 486.812Z" fill="#E9E4DC" stroke="#C49F8A"/>
<path d="M747.266 514.379H733.516V517.379H747.266V514.379Z" fill="#E9E4DC"/>
<path d="M746.641 515.004V516.754H734.141V515.004H746.641ZM747.891 513.754H732.891V518.004H747.891V513.754Z" fill="#C49F8A"/>
<path d="M745.142 505.629C745.267 502.879 743.142 500.629 740.392 500.629C737.642 500.629 735.517 502.879 735.642 505.629L736.267 514.379H744.517L745.142 505.629Z" fill="#E9E4DC" stroke="#C49F8A"/>
<path d="M743.017 506.004C743.142 504.504 741.892 503.129 740.391 503.129C738.891 503.129 737.641 504.504 737.766 506.004L738.141 510.129H742.641L743.017 506.004Z" fill="#E9E4DC" stroke="#C49F8A"/>
<path d="M740.391 508.629C740.943 508.629 741.391 508.181 741.391 507.629C741.391 507.077 740.943 506.629 740.391 506.629C739.838 506.629 739.391 507.077 739.391 507.629C739.391 508.181 739.838 508.629 740.391 508.629Z" fill="#E9E4DC" stroke="#C49F8A"/>
<path d="M746.246 229.25H736.996V243.375H746.246V229.25Z" fill="#E9E4DC"/>
<path d="M745.621 229.875V242.75H737.621V229.875H745.621ZM746.871 228.625H736.371V244H746.871V228.625Z" fill="#C49F8A"/>
<path d="M741.621 239.125C740.121 239.125 738.871 237.875 738.871 236.375C738.871 234.875 740.121 233.625 741.621 233.625C743.121 233.625 744.371 234.875 744.371 236.375C744.371 237.875 743.121 239.125 741.621 239.125Z" fill="#E9E4DC"/>
<path d="M741.621 234.125C742.871 234.125 743.746 235.125 743.746 236.25C743.746 237.375 742.746 238.375 741.621 238.375C740.496 238.375 739.496 237.375 739.496 236.25C739.496 235.125 740.371 234.125 741.621 234.125ZM741.621 232.875C739.746 232.875 738.246 234.375 738.246 236.25C738.246 238.125 739.746 239.625 741.621 239.625C743.496 239.625 744.996 238.125 744.996 236.25C744.996 234.375 743.496 232.875 741.621 232.875Z" fill="#C49F8A"/>
<path d="M746.371 246.018H737.121V261.393H746.371V246.018Z" fill="#E9E4DC"/>
<path d="M745.621 246.643V260.768H737.621V246.643H745.621ZM746.871 245.393H736.371V262.018H746.871V245.393Z" fill="#C49F8A"/>
<path d="M741.621 257.893C743.121 257.893 744.371 256.768 744.371 255.393V251.893C744.371 250.518 743.121 249.393 741.621 249.393C740.121 249.393 738.871 250.518 738.871 251.893V255.393C738.871 256.768 740.121 257.893 741.621 257.893Z" fill="#E9E4DC" stroke="#C49F8A"/>
<path d="M741.371 254.643C741.923 254.643 742.371 254.195 742.371 253.643C742.371 253.09 741.923 252.643 741.371 252.643C740.819 252.643 740.371 253.09 740.371 253.643C740.371 254.195 740.819 254.643 741.371 254.643Z" fill="#E9E4DC" stroke="#C49F8A"/>
<path d="M805.379 232.768H802.379V246.518H805.379V232.768Z" fill="#E9E4DC"/>
<path d="M804.754 233.393V245.893H803.004V233.393H804.754ZM806.004 232.143H801.754V247.143H806.004V232.143Z" fill="#C49F8A"/>
<path d="M793.629 244.393C790.879 244.518 788.629 242.393 788.629 239.643C788.629 236.893 790.879 234.768 793.629 234.893L802.379 235.518V243.768L793.629 244.393Z" fill="#E9E4DC" stroke="#C49F8A"/>
<path d="M794.004 242.267C792.504 242.392 791.129 241.142 791.129 239.642C791.129 238.142 792.504 236.892 794.004 237.017L798.129 237.392V241.892L794.004 242.267Z" fill="#E9E4DC" stroke="#C49F8A"/>
<path d="M795.629 240.643C796.181 240.643 796.629 240.195 796.629 239.643C796.629 239.09 796.181 238.643 795.629 238.643C795.077 238.643 794.629 239.09 794.629 239.643C794.629 240.195 795.077 240.643 795.629 240.643Z" fill="#E9E4DC" stroke="#C49F8A"/>
<path d="M688.637 185.643H643.512V223.643H688.637V185.643Z" fill="#E9E4DC"/>
<path d="M688.012 186.268V223.018H644.137V186.268H688.012ZM689.262 185.018H642.887V224.268H689.262V185.018Z" fill="#C49F8A"/>
<path d="M686.012 205.643H674.512V221.018H686.012V205.643Z" fill="#E9E4DC" stroke="#C49F8A"/>
<path d="M686.012 188.393H674.512V203.768H686.012V188.393Z" fill="#E9E4DC" stroke="#C49F8A"/>
<path d="M671.015 204.918L668.039 216.025L679.147 219.002L682.123 207.894L671.015 204.918Z" fill="#E9E4DC" stroke="#C49F8A" stroke-width="0.99997" stroke-miterlimit="3.99968"/>
<path d="M679.178 190.08L668.07 193.057L671.047 204.164L682.154 201.188L679.178 190.08Z" fill="#E9E4DC" stroke="#C49F8A" stroke-width="0.99997" stroke-miterlimit="3.99968"/>
<path d="M643.012 223.643V185.643H678.887L679.887 200.643L676.512 223.643H643.012Z" fill="#E9E4DC"/>
<path d="M678.387 186.268L679.262 200.643L676.012 223.018H643.637V186.268H678.387ZM679.512 185.018H678.762H642.387V224.268H676.762H677.012L680.387 200.768L679.512 185.018Z" fill="#C49F8A"/>
<path d="M678.387 185.518V200.893L676.387 223.768" stroke="#C49F8A"/>
<path d="M737.352 140.83H692.227V178.83H737.352V140.83Z" fill="#E9E4DC"/>
<path d="M736.727 141.455V178.205H692.852V141.455H736.727V141.455ZM737.977 140.205H691.602V179.455H737.977V140.205Z" fill="#C49F8A"/>
<path d="M706.477 160.83H694.977V176.205H706.477V160.83Z" fill="#E9E4DC" stroke="#C49F8A"/>
<path d="M706.477 143.58H694.977V158.955H706.477V143.58Z" fill="#E9E4DC" stroke="#C49F8A"/>
<path d="M709.893 160.154L698.785 163.13L701.761 174.238L712.869 171.262L709.893 160.154Z" fill="#E9E4DC" stroke="#C49F8A" stroke-width="0.99997" stroke-miterlimit="3.99968"/>
<path d="M701.808 145.352L698.832 156.46L709.94 159.436L712.916 148.328L701.808 145.352Z" fill="#E9E4DC" stroke="#C49F8A" stroke-width="0.99997" stroke-miterlimit="3.99968"/>
<path d="M704.352 178.83L700.977 155.955L701.977 140.83H737.852V178.83H704.352Z" fill="#E9E4DC"/>
<path d="M737.227 141.455V178.205H704.852L701.602 155.83L702.477 141.455H737.227V141.455ZM738.477 140.205H702.102H701.352L700.352 155.955L703.727 179.455H703.977H738.352V140.205H738.477Z" fill="#C49F8A"/>
<path d="M702.602 140.705V156.08L704.477 179.08" stroke="#C49F8A"/>
<path d="M714.621 476.494H698.371V517.369H714.621V476.494Z" fill="#E9E4DC"/>
<path d="M713.996 516.744H698.996V477.119H713.996V516.744ZM715.246 517.994V475.869H697.746V517.994H715.246Z" fill="#C49F8A"/>
<path d="M706.373 514.119C709.623 514.119 712.123 511.369 711.873 508.119C711.498 504.619 711.248 500.244 711.248 496.869C711.248 493.619 711.623 489.244 711.873 485.619C712.123 482.369 709.623 479.619 706.373 479.619C703.123 479.619 700.623 482.369 700.873 485.619C701.248 489.119 701.498 493.494 701.498 496.869C701.498 500.119 701.123 504.494 700.873 508.119C700.748 511.369 703.248 514.119 706.373 514.119Z" fill="#E9E4DC" stroke="#C49F8A" stroke-linejoin="round"/>
<path d="M706.371 509.494C706.923 509.494 707.371 509.046 707.371 508.494C707.371 507.942 706.923 507.494 706.371 507.494C705.819 507.494 705.371 507.942 705.371 508.494C705.371 509.046 705.819 509.494 706.371 509.494Z" fill="#E9E4DC" stroke="#C49F8A" stroke-linejoin="round"/>
<path d="M609.447 317.286L605.815 303.735L602.184 317.286H609.447Z" fill="#C49F8A"/>
<path d="M667.672 287.995H686.277" stroke="#C49F8A"/>
<path d="M683.801 291.626L697.352 287.995L683.801 284.363V291.626Z" fill="#C49F8A"/>
<path d="M668.162 289.766C669.141 289.766 669.934 288.973 669.934 287.994C669.934 287.016 669.141 286.223 668.162 286.223C667.184 286.223 666.391 287.016 666.391 287.994C666.391 288.973 667.184 289.766 668.162 289.766Z" fill="#C49F8A"/>
<path d="M714.5 328.125C715.5 328.125 716.25 328.5 716.75 329.25C717.25 330 717.5 331 717.5 332.125C717.5 332.75 717.375 333.375 717.25 333.875C717.125 334.375 716.875 334.875 716.625 335.375C716.375 335.75 716 336.125 715.5 336.375C715 336.625 714.5 336.75 714 336.75C713.125 336.75 712.375 336.5 711.75 336L712.25 335C712.75 335.375 713.375 335.625 713.875 335.625C714.625 335.625 715.125 335.375 715.5 334.75C715.875 334.125 716.125 333.5 716.125 332.625C715.875 333 715.625 333.25 715.25 333.375C714.875 333.5 714.5 333.625 714 333.625C713.25 333.625 712.625 333.375 712.125 332.875C711.625 332.375 711.375 331.75 711.375 331C711.375 330.25 711.625 329.5 712.125 329C713 328.375 713.625 328.125 714.5 328.125ZM716.125 330.875C716.125 330.375 716 330 715.625 329.75C715.375 329.375 715 329.25 714.5 329.25C714 329.25 713.625 329.375 713.375 329.75C713.125 330.125 712.875 330.5 712.875 330.875C712.875 331.375 713 331.75 713.375 332C713.625 332.25 714 332.5 714.5 332.5C715 332.5 715.375 332.375 715.625 332C715.875 331.75 716.125 331.375 716.125 330.875Z" fill="#565440"/>
<path d="M719.125 336.75C718.875 336.75 718.75 336.625 718.5 336.5C718.375 336.375 718.25 336.125 718.25 335.875C718.25 335.625 718.375 335.5 718.5 335.375C718.625 335.25 718.875 335.125 719.125 335.125C719.375 335.125 719.5 335.25 719.625 335.375C719.75 335.5 719.875 335.75 719.875 335.875C719.875 336.125 719.75 336.25 719.625 336.5C719.5 336.625 719.375 336.75 719.125 336.75Z" fill="#565440"/>
<path d="M724.125 331.125C724.875 331.125 725.5 331.375 726 331.875C726.5 332.375 726.75 333 726.75 333.75C726.75 334.5 726.5 335.25 725.875 335.75C725.375 336.25 724.625 336.5 723.75 336.5C722.75 336.5 722 336.125 721.5 335.375C721 334.625 720.75 333.625 720.75 332.5C720.75 331.75 720.875 331 721.125 330.25C721.375 329.5 721.75 329 722.25 328.625C722.75 328.125 723.5 328 724.25 328C725.125 328 725.875 328.25 726.375 328.75L725.875 329.75C725.375 329.375 724.875 329.25 724.375 329.25C723.875 329.25 723.5 329.375 723.125 329.75C722.5 330.375 722.125 331.25 722.125 332.375C722.375 332 722.625 331.75 723 331.5C723.375 331.25 723.625 331.125 724.125 331.125ZM723.875 335.5C724.375 335.5 724.75 335.375 725 335C725.25 334.625 725.5 334.25 725.5 333.875C725.5 333.375 725.375 333 725 332.75C724.75 332.5 724.375 332.25 723.875 332.25C723.375 332.25 723 332.375 722.75 332.75C722.5 333 722.25 333.5 722.25 333.875C722.25 334.375 722.375 334.75 722.75 335C723.125 335.375 723.5 335.5 723.875 335.5Z" fill="#565440"/>
<path d="M637.625 173.125L635.625 175.375H639V176.625H633.75V175.5L636.375 172.625L637 171.875C637.125 171.75 637.25 171.5 637.375 171.25C637.5 171 637.5 170.75 637.5 170.5C637.5 170.125 637.375 169.875 637.125 169.625C636.875 169.375 636.5 169.25 636.125 169.25C635.5 169.25 634.875 169.5 634.125 170.125L633.375 169.25C634.25 168.5 635.125 168 636.125 168C636.875 168 637.5 168.25 638 168.75C638.5 169.25 638.75 169.875 638.75 170.5C638.875 171.375 638.5 172.25 637.625 173.125Z" fill="#565440"/>
<path d="M639.625 170.25L642 168.25H643V176.625H641.75V170L640.25 171.125L639.625 170.25Z" fill="#565440"/>
<path d="M645.375 176.75C645.125 176.75 645 176.625 644.75 176.5C644.625 176.375 644.5 176.125 644.5 175.875C644.5 175.625 644.625 175.5 644.75 175.375C644.875 175.25 645.125 175.125 645.375 175.125C645.625 175.125 645.75 175.25 645.875 175.375C646 175.5 646.125 175.75 646.125 175.875C646.125 176.125 646 176.25 645.875 176.5C645.75 176.625 645.625 176.75 645.375 176.75Z" fill="#565440"/>
<path d="M651.125 173.125L649.125 175.375H652.5V176.625H647.25V175.5L649.875 172.625L650.5 171.875C650.625 171.75 650.75 171.5 650.875 171.25C651 171 651 170.75 651 170.5C651 170.125 650.875 169.875 650.625 169.625C650.375 169.375 650 169.25 649.625 169.25C649 169.25 648.375 169.5 647.625 170.125L646.875 169.25C647.75 168.5 648.625 168 649.625 168C650.375 168 651 168.25 651.5 168.75C652 169.25 652.25 169.875 652.25 170.5C652.375 171.375 652 172.25 651.125 173.125Z" fill="#565440"/>
<path d="M739.375 169.125L741.75 167.125H742.75V175.5H741.5V168.875L740 170L739.375 169.125Z" fill="#565440"/>
<path d="M747.125 167C748.125 167 748.875 167.375 749.375 168.125C749.875 168.875 750.125 169.875 750.125 171C750.125 171.625 750 172.25 749.875 172.75C749.75 173.25 749.5 173.75 749.25 174.25C749 174.625 748.625 175 748.125 175.25C747.625 175.5 747.125 175.625 746.625 175.625C745.75 175.625 745 175.375 744.375 174.875L744.875 173.875C745.375 174.25 746 174.5 746.5 174.5C747.25 174.5 747.75 174.25 748.125 173.625C748.5 173 748.75 172.375 748.75 171.5C748.5 171.875 748.25 172.125 747.875 172.25C747.5 172.375 747.125 172.5 746.625 172.5C745.875 172.5 745.25 172.25 744.75 171.75C744.25 171.25 744 170.625 744 169.875C744 169.125 744.25 168.375 744.75 167.875C745.625 167.25 746.25 167 747.125 167ZM748.625 169.75C748.625 169.25 748.5 168.875 748.125 168.625C747.875 168.25 747.5 168.125 747 168.125C746.5 168.125 746.125 168.25 745.875 168.625C745.625 169 745.375 169.375 745.375 169.75C745.375 170.25 745.5 170.625 745.875 170.875C746.125 171.125 746.5 171.375 747 171.375C747.5 171.375 747.875 171.25 748.125 170.875C748.5 170.625 748.625 170.125 748.625 169.75Z" fill="#565440"/>
<path d="M751.75 175.625C751.5 175.625 751.375 175.5 751.125 175.375C751 175.25 750.875 175 750.875 174.75C750.875 174.5 751 174.375 751.125 174.25C751.25 174.125 751.5 174 751.75 174C752 174 752.125 174.125 752.25 174.25C752.375 174.375 752.5 174.625 752.5 174.75C752.5 175 752.375 175.125 752.25 175.375C752.125 175.5 752 175.625 751.75 175.625Z" fill="#565440"/>
<path d="M758.5 172.25H759.375V173.375H758.5V175.375H757.25V173.375H753.5L753.25 172.625L757.75 167.125H758.625V172.25H758.5ZM757.25 169.25L754.75 172.25H757.25V169.25Z" fill="#565440"/>
<path d="M771.375 239.75C772.125 239.75 772.875 240 773.375 240.5C773.875 241 774.125 241.625 774.125 242.5C774.125 243.375 773.875 244 773.25 244.5C772.75 245 772 245.25 771.125 245.25C770.125 245.25 769.25 244.875 768.375 244.25L769 243.25C769.75 243.75 770.375 244 771.125 244C771.625 244 772 243.875 772.375 243.5C772.75 243.25 772.875 242.875 772.875 242.375C772.875 241.875 772.75 241.5 772.375 241.25C772.125 241 771.625 240.75 771.125 240.75C770.5 240.75 770 241 769.625 241.375L768.875 240.875L769.375 236.75H773.625V237.875H770.375L770.125 239.875C770.5 239.875 771 239.75 771.375 239.75Z" fill="#565440"/>
<path d="M668.375 480.25L670.75 478.25H671.75V486.625H670.5V480L669 481.125L668.375 480.25Z" fill="#565440"/>
<path d="M676.375 486.625C675.5 486.625 674.75 486.375 674.25 486C673.75 485.5 673.375 485 673.375 484.25C673.375 483.75 673.5 483.375 673.875 483C674.125 482.625 674.5 482.375 675 482.125C674.625 482 674.25 481.625 674.125 481.375C673.875 481 673.75 480.75 673.75 480.25C673.75 479.625 674 479.125 674.5 478.625C675 478.25 675.625 478 676.375 478C677.125 478 677.75 478.25 678.25 478.625C678.75 479 679 479.625 679 480.25C679 480.625 678.875 481 678.625 481.375C678.375 481.75 678.125 482 677.75 482.125C678.25 482.25 678.625 482.625 678.875 483C679.125 483.375 679.375 483.875 679.375 484.25C679.375 485 679.125 485.5 678.5 486C678 486.5 677.25 486.625 676.375 486.625ZM676.375 485.5C676.875 485.5 677.25 485.375 677.625 485.125C678 484.875 678.125 484.5 678.125 484.125C678.125 483.75 678 483.375 677.625 483.125C677.25 482.875 676.875 482.75 676.375 482.75C675.875 482.75 675.5 482.875 675.125 483.125C674.75 483.375 674.625 483.75 674.625 484.125C674.625 484.5 674.75 484.875 675.125 485.125C675.375 485.375 675.875 485.5 676.375 485.5ZM677.375 481.25C677.625 481 677.75 480.75 677.75 480.375C677.75 480 677.625 479.75 677.375 479.5C677.125 479.25 676.75 479.125 676.375 479.125C676 479.125 675.625 479.25 675.375 479.5C675.125 479.75 675 480 675 480.375C675 480.75 675.125 481 675.375 481.25C675.625 481.5 676 481.625 676.375 481.625C676.75 481.625 677.125 481.5 677.375 481.25Z" fill="#565440"/>
<path d="M681.25 486.75C681 486.75 680.875 486.625 680.625 486.5C680.5 486.375 680.375 486.125 680.375 485.875C680.375 485.625 680.5 485.5 680.625 485.375C680.75 485.25 681 485.125 681.25 485.125C681.5 485.125 681.625 485.25 681.75 485.375C681.875 485.5 682 485.75 682 485.875C682 486.125 681.875 486.25 681.75 486.5C681.625 486.625 681.375 486.75 681.25 486.75Z" fill="#565440"/>
<path d="M685.875 481.125C686.625 481.125 687.375 481.375 687.875 481.875C688.375 482.375 688.625 483 688.625 483.875C688.625 484.75 688.375 485.375 687.75 485.875C687.25 486.375 686.5 486.625 685.625 486.625C684.625 486.625 683.75 486.25 682.875 485.625L683.5 484.625C684.25 485.125 684.875 485.375 685.625 485.375C686.125 485.375 686.5 485.25 686.875 484.875C687.25 484.625 687.375 484.25 687.375 483.75C687.375 483.25 687.25 482.875 686.875 482.625C686.625 482.375 686.125 482.125 685.625 482.125C685 482.125 684.5 482.375 684.125 482.75L683.375 482.25L683.875 478.125H688.125V479.25H684.875L684.625 481.25C684.875 481.25 685.375 481.125 685.875 481.125Z" fill="#565440"/>
<path d="M726.625 495.125H727.5V496.25H726.625V498.25H725.375V496.25H721.625L721.375 495.5L725.875 490H726.75V495.125H726.625ZM725.375 492.125L722.875 495.125H725.375V492.125Z" fill="#565440"/>
</svg>
