<svg width="900" height="600" viewBox="0 0 900 600" fill="none" xmlns="http://www.w3.org/2000/svg">
<path d="M257 75.5H649V491H617.25L611.25 512.625L488.5 479.125H440.75L428.375 513.5L334.375 488.5H258.875L257 75.5Z" fill="#DBD4CA"/>
<mask id="mask0" mask-type="alpha" maskUnits="userSpaceOnUse" x="367" y="91" width="272" height="108">
<rect x="367.5" y="91.25" width="271.25" height="107.5" fill="#C4C4C4"/>
</mask>
<g mask="url(#mask0)">
<path d="M91.125 164.5L508 -252.375" stroke="#C49F8A" stroke-miterlimit="10"/>
<path d="M78.125 151.375L495 -265.375" stroke="#C49F8A" stroke-miterlimit="10"/>
<path d="M104.125 177.5L521 -239.375" stroke="#C49F8A" stroke-miterlimit="10"/>
<path d="M117.125 190.5L534 -226.375" stroke="#C49F8A" stroke-miterlimit="10"/>
<path d="M130.25 203.5L547 -213.25" stroke="#C49F8A" stroke-miterlimit="10"/>
<path d="M143.25 216.625L560.125 -200.25" stroke="#C49F8A" stroke-miterlimit="10"/>
<path d="M156.25 229.625L573.125 -187.25" stroke="#C49F8A" stroke-miterlimit="10"/>
<path d="M169.25 242.625L586.125 -174.25" stroke="#C49F8A" stroke-miterlimit="10"/>
<path d="M182.25 255.625L599.125 -161.25" stroke="#C49F8A" stroke-miterlimit="10"/>
<path d="M195.375 268.625L612.25 -148.125" stroke="#C49F8A" stroke-miterlimit="10"/>
<path d="M182.25 255.625L599.125 -161.25" stroke="#C49F8A" stroke-miterlimit="10"/>
<path d="M208.375 281.75L625.25 -135.125" stroke="#C49F8A" stroke-miterlimit="10"/>
<path d="M221.375 294.75L638.25 -122.125" stroke="#C49F8A" stroke-miterlimit="10"/>
<path d="M234.375 307.75L651.25 -109.125" stroke="#C49F8A" stroke-miterlimit="10"/>
<path d="M247.5 320.75L664.25 -96.125" stroke="#C49F8A" stroke-miterlimit="10"/>
<path d="M260.5 333.75L677.375 -83" stroke="#C49F8A" stroke-miterlimit="10"/>
<path d="M273.5 346.875L690.375 -70" stroke="#C49F8A" stroke-miterlimit="10"/>
<path d="M286.5 359.875L703.375 -57" stroke="#C49F8A" stroke-miterlimit="10"/>
<path d="M299.5 372.875L716.375 -44" stroke="#C49F8A" stroke-miterlimit="10"/>
<path d="M286.5 359.875L703.375 -57" stroke="#C49F8A" stroke-miterlimit="10"/>
<path d="M312.625 385.875L729.375 -30.875" stroke="#C49F8A" stroke-miterlimit="10"/>
<path d="M325.625 399L742.5 -17.875" stroke="#C49F8A" stroke-miterlimit="10"/>
<path d="M338.625 412L755.5 -4.87497" stroke="#C49F8A" stroke-miterlimit="10"/>
<path d="M351.625 425L768.5 8.125" stroke="#C49F8A" stroke-miterlimit="10"/>
<path d="M364.625 438L781.5 21.125" stroke="#C49F8A" stroke-miterlimit="10"/>
<path d="M377.75 451L794.625 34.25" stroke="#C49F8A" stroke-miterlimit="10"/>
<path d="M390.75 464.125L807.625 47.2501" stroke="#C49F8A" stroke-miterlimit="10"/>
<path d="M403.75 477.125L820.625 60.25" stroke="#C49F8A" stroke-miterlimit="10"/>
<path d="M390.75 464.125L807.625 47.2501" stroke="#C49F8A" stroke-miterlimit="10"/>
<path d="M416.75 490.125L833.625 73.25" stroke="#C49F8A" stroke-miterlimit="10"/>
<path d="M429.875 503.125L846.625 86.25" stroke="#C49F8A" stroke-miterlimit="10"/>
<path d="M442.875 516.125L859.75 99.375" stroke="#C49F8A" stroke-miterlimit="10"/>
<path d="M455.875 529.25L872.75 112.375" stroke="#C49F8A" stroke-miterlimit="10"/>
<path d="M468.875 542.25L885.75 125.375" stroke="#C49F8A" stroke-miterlimit="10"/>
<path d="M481.875 555.25L898.75 138.375" stroke="#C49F8A" stroke-miterlimit="10"/>
<path d="M495 568.25L911.75 151.375" stroke="#C49F8A" stroke-miterlimit="10"/>
<path d="M508 555.25L91.125 138.375" stroke="#C49F8A" stroke-miterlimit="10"/>
<path d="M495 568.25L78.125 151.375" stroke="#C49F8A" stroke-miterlimit="10"/>
<path d="M521 542.25L104.125 125.375" stroke="#C49F8A" stroke-miterlimit="10"/>
<path d="M534 529.25L117.125 112.375" stroke="#C49F8A" stroke-miterlimit="10"/>
<path d="M547 516.125L130.25 99.375" stroke="#C49F8A" stroke-miterlimit="10"/>
<path d="M560.125 503.125L143.25 86.25" stroke="#C49F8A" stroke-miterlimit="10"/>
<path d="M573.125 490.125L156.25 73.25" stroke="#C49F8A" stroke-miterlimit="10"/>
<path d="M586.125 477.125L169.25 60.25" stroke="#C49F8A" stroke-miterlimit="10"/>
<path d="M599.125 464.125L182.25 47.2501" stroke="#C49F8A" stroke-miterlimit="10"/>
<path d="M612.25 451L195.375 34.25" stroke="#C49F8A" stroke-miterlimit="10"/>
<path d="M599.125 464.125L182.25 47.2501" stroke="#C49F8A" stroke-miterlimit="10"/>
<path d="M625.25 438L208.375 21.125" stroke="#C49F8A" stroke-miterlimit="10"/>
<path d="M638.25 425L221.375 8.125" stroke="#C49F8A" stroke-miterlimit="10"/>
<path d="M651.25 412L234.375 -4.87497" stroke="#C49F8A" stroke-miterlimit="10"/>
<path d="M664.25 399L247.5 -17.875" stroke="#C49F8A" stroke-miterlimit="10"/>
<path d="M677.375 385.875L260.5 -30.875" stroke="#C49F8A" stroke-miterlimit="10"/>
<path d="M690.375 372.875L273.5 -44" stroke="#C49F8A" stroke-miterlimit="10"/>
<path d="M703.375 359.875L286.5 -57" stroke="#C49F8A" stroke-miterlimit="10"/>
<path d="M716.375 346.875L299.5 -70" stroke="#C49F8A" stroke-miterlimit="10"/>
<path d="M703.375 359.875L286.5 -57" stroke="#C49F8A" stroke-miterlimit="10"/>
<path d="M729.375 333.75L312.625 -83" stroke="#C49F8A" stroke-miterlimit="10"/>
<path d="M742.5 320.75L325.625 -96.125" stroke="#C49F8A" stroke-miterlimit="10"/>
<path d="M755.5 307.75L338.625 -109.125" stroke="#C49F8A" stroke-miterlimit="10"/>
<path d="M768.5 294.75L351.625 -122.125" stroke="#C49F8A" stroke-miterlimit="10"/>
<path d="M781.5 281.75L364.625 -135.125" stroke="#C49F8A" stroke-miterlimit="10"/>
<path d="M794.625 268.625L377.75 -148.125" stroke="#C49F8A" stroke-miterlimit="10"/>
<path d="M807.625 255.625L390.75 -161.25" stroke="#C49F8A" stroke-miterlimit="10"/>
<path d="M820.625 242.625L403.75 -174.25" stroke="#C49F8A" stroke-miterlimit="10"/>
<path d="M807.625 255.625L390.75 -161.25" stroke="#C49F8A" stroke-miterlimit="10"/>
<path d="M833.625 229.625L416.75 -187.25" stroke="#C49F8A" stroke-miterlimit="10"/>
<path d="M846.625 216.625L429.875 -200.25" stroke="#C49F8A" stroke-miterlimit="10"/>
<path d="M859.75 203.5L442.875 -213.25" stroke="#C49F8A" stroke-miterlimit="10"/>
<path d="M872.75 190.5L455.875 -226.375" stroke="#C49F8A" stroke-miterlimit="10"/>
<path d="M885.75 177.5L468.875 -239.375" stroke="#C49F8A" stroke-miterlimit="10"/>
<path d="M898.75 164.5L481.875 -252.375" stroke="#C49F8A" stroke-miterlimit="10"/>
<path d="M911.75 151.375L495 -265.375" stroke="#C49F8A" stroke-miterlimit="10"/>
<g opacity="0.3">
<path opacity="0.7" d="M696.375 -63H293.625V339.75H696.375V-63Z" fill="#C49F8A"/>
</g>
</g>
<path d="M359.625 75.625C359.625 68 358.25 61.625 355.5 54.75C352.75 47.75 348.5 41.5 343.625 36.625C338.75 31 332.5 26.875 325.5 24.125C318.5 21.375 311.5 20 303.875 20V75.75" stroke="#565440"/>
<path d="M542.5 199.5C542.5 193.75 543.5 189.125 545.625 183.875C547.75 178.625 550.875 174 554.5 170.375C558.125 166.25 562.875 163.125 568 161C573.25 158.875 578.375 157.875 584.125 157.875V199.5" stroke="#565440"/>
<path d="M372.875 138.5C378.625 138.5 383.25 137.5 388.5 135.375C393.75 133.25 398.375 130.125 402 126.5C406.125 122.875 409.25 118.125 411.375 113C413.5 107.75 414.5 102.625 414.5 96.875H372.875" stroke="#565440"/>
<path d="M460.625 415.5C466.375 415.5 471 416.5 476.25 418.625C481.5 420.75 486.125 423.875 489.75 427.5C493.875 431.125 497 435.875 499.125 441C501.25 446.25 502.25 451.375 502.25 457.125H460.625" stroke="#565440"/>
<path d="M519.823 488.644L517.748 496.629L613.812 521.591L615.887 513.606L519.823 488.644Z" stroke="#565440" stroke-miterlimit="4.0002"/>
<path d="M340.838 490.848L338.763 498.834L426.358 521.594L428.433 513.609L340.838 490.848Z" stroke="#565440" stroke-miterlimit="4.0002"/>
<path d="M460.625 457H444.125V466.625H430.5V494.125L424.375 521.125L440.375 525L446.125 499.625H521.375V466.625H460.625V457Z" fill="#565440"/>
<path d="M359.625 75V91.5H367.75V96.75H373.25V91.5H444.25V177.5H421.875V199H373.25V138.375H367.75V199H340.625V204.5H444.25V415.375H460.75V204.5H542.5V199H460.625V114.375H483.125V91.5H638.375V199H584.125V204.5H638.375V471.875H609.5V499.5L605 519.375L621 523.25L626.375 499.5H655V75H359.625ZM444.125 199.125H427.375V183.125H444.125V199.125ZM477.625 108.875H460.625V91.5H477.625V108.875Z" fill="#565440"/>
<path d="M267.625 472V91.5H303.75V75H251.125V291.875H251V494.125L245 521.125L261 525L266.75 499.625H321.75L340.875 504L347 477L326 472.125L267.625 472Z" fill="#565440"/>
<path d="M547.125 92.2501H483.75V119.375H547.125V92.2501Z" fill="#E9E4DC"/>
<path d="M546.5 92.8751V118.75H484.375V92.8751H546.5ZM547.75 91.6251H483.125V120H547.75V91.6251Z" fill="#C49F8A"/>
<path d="M410.25 299.875V238.5H342.25V205.25H443.75V238.5L443.625 239.125V299.875H410.25Z" fill="#E9E4DC"/>
<path d="M443.125 205.875V237.875V239.125V299.25H411V239.125V237.875H409.75H343V205.875H443.125ZM444.375 204.625H341.75V239.125H409.75V300.5H444.375V239.125V204.625Z" fill="#C49F8A"/>
<path d="M567.625 291.5H461.25V383.375H567.625V291.5Z" fill="#E9E4DC"/>
<path d="M461.875 292.125H567V382.75H461.875V292.125ZM460.625 290.875V384H568.25V290.875H460.625Z" fill="#C49F8A"/>
<path d="M495 298.875H468.375V335.25H495V298.875Z" fill="#E9E4DC" stroke="#C49F8A"/>
<path d="M495 339.75H468.375V376.125H495V339.75Z" fill="#E9E4DC" stroke="#C49F8A"/>
<path d="M484.125 303.25L477.25 329.625L503 336.625L509.875 310.375L484.125 303.25Z" fill="#E9E4DC" stroke="#C49F8A" stroke-miterlimit="3.9998"/>
<path d="M503 338.5L477.25 345.5L484.125 371.875L509.875 364.75L503 338.5Z" fill="#E9E4DC" stroke="#C49F8A" stroke-miterlimit="3.9998"/>
<path d="M483.75 383.375L481.625 346.75L489.375 291.5H568.75V383.375H483.75Z" fill="#E9E4DC"/>
<path d="M490 292.125H568.125V382.75H485H484.5L482.375 346.75L490 292.125ZM489.5 290.875H488.875L481 346.75L483.25 384H485H569.375V290.875H489.5Z" fill="#C49F8A"/>
<path d="M486 382.75V346.375L490.375 291.875" stroke="#C49F8A"/>
<path d="M541.875 234.5H461.25V236.75H541.875V234.5Z" fill="#E9E4DC"/>
<path d="M461.875 235.125H541.25V236.125H461.875V235.125ZM460.625 233.875V237.375H542.5V233.875H460.625Z" fill="#C49F8A"/>
<path d="M541.875 205H461.25V234.5H541.875V205Z" fill="#E9E4DC"/>
<path d="M461.875 205.625H541.25V233.875H461.875V205.625ZM460.625 204.375V235.125H542.5V204.375H460.625Z" fill="#C49F8A"/>
<path d="M542.125 205.375L460.875 234.125L542.125 205.375Z" fill="#E9E4DC"/>
<path d="M542.125 205.375L460.875 234.125" stroke="#C49F8A"/>
<path d="M348.125 174.875H345.875V198.5H348.125V174.875Z" fill="#E9E4DC"/>
<path d="M347.625 175.5V197.875H346.625V175.5H347.625ZM348.875 174.25H345.375V199.125H348.875V174.25Z" fill="#C49F8A"/>
<path d="M367.125 174.875H348.25V198.5H367.125V174.875Z" fill="#E9E4DC"/>
<path d="M366.375 175.5V197.875H348.75V175.5H366.375ZM367.625 174.25H347.5V199.125H367.625V174.25Z" fill="#C49F8A"/>
<path d="M367 198.625L348.25 174.875L367 198.625Z" fill="#E9E4DC"/>
<path d="M367 198.625L348.25 174.875" stroke="#C49F8A"/>
<path d="M637.625 234.5H584.75V236.75H637.625V234.5Z" fill="#E9E4DC"/>
<path d="M585.375 235.125H637V236.125H585.375V235.125ZM584.125 233.875V237.375H638.25V233.875H584.125Z" fill="#C49F8A"/>
<path d="M637.625 205H584.75V234.5H637.625V205Z" fill="#E9E4DC"/>
<path d="M585.375 205.625H637V233.875H585.375V205.625ZM584.125 204.375V235.125H638.25V204.375H584.125Z" fill="#C49F8A"/>
<path d="M638 205.375L584.25 234.125L638 205.375Z" fill="#E9E4DC"/>
<path d="M638 205.375L584.25 234.125" stroke="#C49F8A"/>
<path d="M300 92.125H297.75V182.25H300V92.125Z" fill="#E9E4DC"/>
<path d="M299.5 92.75V181.625H298.5V92.75H299.5ZM300.75 91.5H297.25V182.875H300.75V91.5Z" fill="#C49F8A"/>
<path d="M297.75 92.125H268.25V182.25H297.75V92.125Z" fill="#E9E4DC"/>
<path d="M268.875 92.75H297.125V181.625H268.875V92.75ZM267.625 91.5V182.875H298.375V91.5H267.625Z" fill="#C49F8A"/>
<path d="M268.625 92L297.375 182.875L268.625 92Z" fill="#E9E4DC"/>
<path d="M268.625 92L297.375 182.875" stroke="#C49F8A"/>
<path d="M527.875 92.2501H490.25V119.375H527.875V92.2501Z" fill="#E9E4DC"/>
<path d="M527.25 92.8751V118.75H490.875V92.8751H527.25ZM528.5 91.6251H489.625V120H528.5V91.6251Z" fill="#C49F8A"/>
<path d="M494.125 105.875C494.125 110.625 498 114.625 502.875 114.625H515.25C520 114.625 524 110.75 524 105.875C524 101.125 520.125 97.1251 515.25 97.1251H502.875C498 97.1251 494.125 101 494.125 105.875Z" fill="#E9E4DC" stroke="#C49F8A"/>
<path d="M509 103.75C509.967 103.75 510.75 102.967 510.75 102C510.75 101.034 509.967 100.25 509 100.25C508.034 100.25 507.25 101.034 507.25 102C507.25 102.967 508.034 103.75 509 103.75Z" fill="#E9E4DC" stroke="#C49F8A"/>
<path d="M443.5 128.75H416.375V171.25H443.5V128.75Z" fill="#E9E4DC"/>
<path d="M442.875 129.375V170.625H417V129.375H442.875ZM444.125 128.125H415.75V171.875H444.125V128.125Z" fill="#C49F8A"/>
<path d="M430 135.125C425.25 135.125 421.25 139 421.25 143.875V156.25C421.25 161 425.125 165 430 165C434.75 165 438.75 161.125 438.75 156.25V143.75C438.625 139 434.75 135.125 430 135.125Z" fill="#E9E4DC" stroke="#C49F8A"/>
<path d="M433.75 151.75C434.716 151.75 435.5 150.966 435.5 150C435.5 149.034 434.716 148.25 433.75 148.25C432.783 148.25 432 149.034 432 150C432 150.966 432.783 151.75 433.75 151.75Z" fill="#E9E4DC" stroke="#C49F8A"/>
<path d="M408 183.875H385.75V191.375H408V183.875Z" fill="#E9E4DC"/>
<path d="M407.5 184.5V190.75H386.5V184.5H407.5ZM408.75 183.25H385.25V192H408.75V183.25Z" fill="#C49F8A"/>
<path d="M405.375 168.375C405.75 163.5 401.875 159.375 397 159.375C392.125 159.375 388.25 163.5 388.625 168.375L389.625 183.875H404.25L405.375 168.375Z" fill="#E9E4DC" stroke="#C49F8A"/>
<path d="M402.625 168.875C402.875 165.5 400.25 162.625 396.875 162.625C393.5 162.625 390.875 165.5 391.125 168.875L392 178H401.75L402.625 168.875Z" fill="#E9E4DC" stroke="#C49F8A"/>
<path d="M396.875 175.75C397.772 175.75 398.5 175.022 398.5 174.125C398.5 173.228 397.772 172.5 396.875 172.5C395.978 172.5 395.25 173.228 395.25 174.125C395.25 175.022 395.978 175.75 396.875 175.75Z" fill="#E9E4DC" stroke="#C49F8A"/>
<path d="M633.75 297.75H622.75V377.25H633.75V297.75Z" fill="#E9E4DC"/>
<path d="M633.125 298.375V376.625H623.375V298.375H633.125ZM634.375 297.125H622.125V377.875H634.375V297.125Z" fill="#C49F8A"/>
<path d="M638.25 297.75H625V377.25H638.25V297.75Z" fill="#E9E4DC"/>
<path d="M637.625 298.375V376.625H625.625V298.375H637.625ZM638.875 297.125H624.375V377.875H638.875V297.125Z" fill="#C49F8A"/>
<path d="M636.25 310.625H634.125V364.25H636.25V310.625Z" fill="#E9E4DC" stroke="#C49F8A"/>
<path d="M636.25 348.75V326.125L638.25 328.125V346.75L636.25 348.75Z" fill="#E9E4DC" stroke="#C49F8A"/>
<path d="M438.375 209.25H401.5V232.5H438.375V209.25Z" fill="#E9E4DC" stroke="#C49F8A"/>
<path d="M424 220.875C424 225.75 420.125 229.625 415.25 229.625H413.25C408.375 229.625 404.5 225.75 404.5 220.875C404.5 216 408.375 212.125 413.25 212.125H415.25C420.125 212.25 424 216.125 424 220.875Z" fill="#E9E4DC" stroke="#C49F8A"/>
<path d="M414.25 218.625C415.147 218.625 415.875 217.897 415.875 217C415.875 216.103 415.147 215.375 414.25 215.375C413.353 215.375 412.625 216.103 412.625 217C412.625 217.897 413.353 218.625 414.25 218.625Z" fill="#E9E4DC" stroke="#C49F8A"/>
<path d="M436.5 229.625H426.75M436.5 212.25H426.75H436.5ZM436.5 215.125H426.75H436.5ZM436.5 218H426.75H436.5ZM436.5 220.875H426.75H436.5ZM436.5 223.875H426.75H436.5ZM436.5 226.75H426.75H436.5Z" stroke="#C49F8A"/>
<path d="M443.625 264.75H410.25V297.375H443.625V264.75Z" fill="#E9E4DC"/>
<path d="M443 265.375V296.75H410.875V265.375H443ZM444.25 264.125H409.625V298H444.25V264.125Z" fill="#C49F8A"/>
<path d="M443.625 264.75H441.375V297.375H443.625V264.75Z" fill="#E9E4DC"/>
<path d="M443 265.375V296.75H442V265.375H443ZM444.25 264.125H440.75V298H444.25V264.125Z" fill="#C49F8A"/>
<path d="M432.5 293C430.5 293 428.75 291.375 428.75 289.25C428.75 287.25 430.375 285.5 432.5 285.5C434.5 285.5 436.25 287.125 436.25 289.25C436.125 291.25 434.5 293 432.5 293Z" fill="#E9E4DC"/>
<path d="M432.5 286.125C434.25 286.125 435.625 287.5 435.625 289.25C435.625 291 434.25 292.375 432.5 292.375C430.75 292.375 429.375 291 429.375 289.25C429.375 287.5 430.75 286.125 432.5 286.125ZM432.5 284.875C430.125 284.875 428.125 286.875 428.125 289.25C428.125 291.625 430.125 293.625 432.5 293.625C434.875 293.625 436.875 291.625 436.875 289.25C436.875 286.875 434.875 284.875 432.5 284.875Z" fill="#C49F8A"/>
<path d="M419.375 294C416.75 294 414.625 291.875 414.625 289.25C414.625 286.625 416.75 284.5 419.375 284.5C422 284.5 424.125 286.625 424.125 289.25C424.125 291.875 422.125 294 419.375 294Z" fill="#E9E4DC"/>
<path d="M419.375 285C421.625 285 423.5 286.875 423.5 289.125C423.5 291.375 421.625 293.25 419.375 293.25C417.125 293.25 415.25 291.375 415.25 289.125C415.25 286.875 417.125 285 419.375 285ZM419.375 283.75C416.375 283.75 414 286.125 414 289.125C414 292.125 416.375 294.5 419.375 294.5C422.375 294.5 424.75 292.125 424.75 289.125C424.875 286.25 422.375 283.75 419.375 283.75Z" fill="#C49F8A"/>
<path d="M432.5 278.875C429.875 278.875 427.75 276.75 427.75 274.125C427.75 271.5 429.875 269.375 432.5 269.375C435.125 269.375 437.25 271.5 437.25 274.125C437.25 276.75 435.125 278.875 432.5 278.875Z" fill="#E9E4DC"/>
<path d="M432.5 269.875C434.75 269.875 436.625 271.75 436.625 274C436.625 276.25 434.75 278.125 432.5 278.125C430.25 278.125 428.375 276.25 428.375 274C428.375 271.75 430.125 269.875 432.5 269.875ZM432.5 268.625C429.5 268.625 427.125 271 427.125 274C427.125 277 429.5 279.375 432.5 279.375C435.5 279.375 437.875 277 437.875 274C437.875 271 435.5 268.625 432.5 268.625Z" fill="#C49F8A"/>
<path d="M418.375 277.75C416.375 277.75 414.625 276.125 414.625 274C414.625 272 416.25 270.25 418.375 270.25C420.375 270.25 422.125 271.875 422.125 274C422 276.125 420.375 277.75 418.375 277.75Z" fill="#E9E4DC"/>
<path d="M418.375 271C420.125 271 421.5 272.375 421.5 274.125C421.5 275.875 420.125 277.25 418.375 277.25C416.625 277.25 415.25 275.875 415.25 274.125C415.25 272.375 416.625 271 418.375 271ZM418.375 269.75C416 269.75 414 271.75 414 274.125C414 276.5 416 278.5 418.375 278.5C420.75 278.5 422.75 276.5 422.75 274.125C422.625 271.625 420.75 269.75 418.375 269.75Z" fill="#C49F8A"/>
<path d="M391.625 205.25H353.125V238.5H391.625V205.25Z" fill="#E9E4DC"/>
<path d="M390.875 205.875V237.875H353.75V205.875H390.875ZM392.125 204.625H352.5V239.125H392.25L392.125 204.625Z" fill="#C49F8A"/>
<path d="M391.625 236.125H353.125V238.375H391.625V236.125Z" fill="#E9E4DC"/>
<path d="M390.875 236.75V237.75H353.75V236.75H390.875ZM392.125 235.5H352.5V239H392.25V235.5H392.125Z" fill="#C49F8A"/>
<path d="M374.5 217.625L370.125 225.25M376.625 221.375H368H376.625ZM374.5 225.125L370.125 217.5L374.5 225.125Z" stroke="#C49F8A"/>
<path d="M306 415.25C307.625 415.25 308.875 414 308.875 412.375V368.75C308.875 367.125 307.625 365.875 306 365.875H277.375V415.375H306V415.25Z" fill="#E9E4DC" stroke="#C49F8A"/>
<path d="M306 462.375C307.625 462.375 308.875 461.125 308.875 459.5V418C308.875 416.375 307.625 415.125 306 415.125H277.375V462.375H306Z" fill="#E9E4DC" stroke="#C49F8A"/>
<path d="M311.25 462.375H277.375V414V365.75H311.25V356.625H268.25V471.5H311.25V462.375Z" fill="#E9E4DC" stroke="#C49F8A"/>
<path d="M421.125 191.375H373.75V198.5H421.125V191.375Z" fill="#E9E4DC"/>
<path d="M420.625 192V197.875H374.5V192H420.625ZM421.875 190.75H373.25V199.125H421.875V190.75Z" fill="#C49F8A"/>
<path d="M477.875 169.625H470.375V191.875H477.875V169.625Z" fill="#E9E4DC"/>
<path d="M477.125 170.25V191.25H470.875V170.25H477.125ZM478.375 169H469.625V192.5H478.375V169Z" fill="#C49F8A"/>
<path d="M493.25 189.125C498.125 189.5 502.25 185.625 502.25 180.75C502.25 175.875 498.125 172 493.25 172.375L477.75 173.375V188L493.25 189.125Z" fill="#E9E4DC" stroke="#C49F8A"/>
<path d="M492.875 186.5C496.25 186.75 499.125 184.125 499.125 180.75C499.125 177.375 496.25 174.75 492.875 175L483.75 175.875V185.625L492.875 186.5Z" fill="#E9E4DC" stroke="#C49F8A"/>
<path d="M487.5 182.375C488.397 182.375 489.125 181.647 489.125 180.75C489.125 179.853 488.397 179.125 487.5 179.125C486.603 179.125 485.875 179.853 485.875 180.75C485.875 181.647 486.603 182.375 487.5 182.375Z" fill="#E9E4DC" stroke="#C49F8A"/>
<path d="M470.25 115.25H461.125V198.5H470.25V115.25Z" fill="#E9E4DC"/>
<path d="M469.75 115.875V197.875H461.875V115.875H469.75ZM471 114.625H460.625V199.125H471V114.625Z" fill="#C49F8A"/>
<path d="M443.5 299.875H371.375V349.25H443.5V299.875Z" fill="#E9E4DC"/>
<path d="M443 300.5V348.625H372.125V300.5H443ZM444.25 299.25H370.875V349.875H444.25V299.25Z" fill="#C49F8A"/>
<path d="M443.5 330.375H371.375V334.25H443.5V330.375Z" fill="#E9E4DC"/>
<path d="M443 331V333.625H372.125V331H443ZM444.25 329.75H370.875V334.875H444.25V329.75Z" fill="#C49F8A"/>
<path d="M354.125 336.5C348 336.5 343 331.5 343 325.375C343 319.25 348 314.25 354.125 314.25C360.25 314.25 365.25 319.25 365.25 325.375C365.25 331.5 360.25 336.5 354.125 336.5Z" fill="#E9E4DC"/>
<path d="M354.125 314.75C359.875 314.75 364.625 319.5 364.625 325.25C364.625 331 359.875 335.75 354.125 335.75C348.375 335.75 343.625 331 343.625 325.25C343.625 319.5 348.25 314.75 354.125 314.75ZM354.125 313.5C347.625 313.5 342.375 318.75 342.375 325.25C342.375 331.75 347.625 337 354.125 337C360.625 337 365.875 331.75 365.875 325.25C365.875 318.875 360.625 313.5 354.125 313.5Z" fill="#C49F8A"/>
<path d="M383.25 378.125C377.125 378.125 372.125 373.125 372.125 367C372.125 360.875 377.125 355.875 383.25 355.875C389.375 355.875 394.375 360.875 394.375 367C394.375 373.125 389.375 378.125 383.25 378.125Z" fill="#E9E4DC"/>
<path d="M383.25 356.5C389 356.5 393.75 361.25 393.75 367C393.75 372.75 389 377.5 383.25 377.5C377.5 377.5 372.75 372.75 372.75 367C372.75 361.25 377.375 356.5 383.25 356.5ZM383.25 355.25C376.75 355.25 371.5 360.5 371.5 367C371.5 373.5 376.75 378.75 383.25 378.75C389.75 378.75 395 373.5 395 367C395 360.5 389.75 355.25 383.25 355.25Z" fill="#C49F8A"/>
<path d="M412.875 378.125C406.75 378.125 401.75 373.125 401.75 367C401.75 360.875 406.75 355.875 412.875 355.875C419 355.875 424 360.875 424 367C424.125 373.125 419 378.125 412.875 378.125Z" fill="#E9E4DC"/>
<path d="M412.875 356.5C418.625 356.5 423.375 361.25 423.375 367C423.375 372.75 418.625 377.5 412.875 377.5C407.125 377.5 402.375 372.75 402.375 367C402.375 361.25 407.125 356.5 412.875 356.5ZM412.875 355.25C406.375 355.25 401.125 360.5 401.125 367C401.125 373.5 406.375 378.75 412.875 378.75C419.375 378.75 424.625 373.5 424.625 367C424.625 360.5 419.375 355.25 412.875 355.25Z" fill="#C49F8A"/>
<path d="M443.5 92.125H421.25V128.75H443.5V92.125Z" fill="#E9E4DC"/>
<path d="M442.875 92.75V128.125H421.875V92.75H442.875ZM444.125 91.5H420.625V129.375H444.125V91.5Z" fill="#C49F8A"/>
<path d="M432.375 117.5C436.241 117.5 439.375 114.366 439.375 110.5C439.375 106.634 436.241 103.5 432.375 103.5C428.509 103.5 425.375 106.634 425.375 110.5C425.375 114.366 428.509 117.5 432.375 117.5Z" fill="#E9E4DC"/>
<path d="M432.375 104C435.875 104 438.75 106.875 438.75 110.375C438.75 113.875 435.875 116.75 432.375 116.75C428.875 116.75 426 113.875 426 110.375C426 106.875 428.875 104 432.375 104ZM432.375 102.75C428.125 102.75 424.75 106.125 424.75 110.375C424.75 114.625 428.125 118 432.375 118C436.625 118 440 114.625 440 110.375C440 106.125 436.625 102.75 432.375 102.75Z" fill="#C49F8A"/>
<path d="M637.75 92.125H597.5V190.625H637.75V92.125Z" fill="#E9E4DC"/>
<path d="M637.125 92.75V190H598.125V92.75H637.125ZM638.375 91.5H596.875V191.25H638.375V91.5Z" fill="#C49F8A"/>
<path d="M617.625 100.75C610 100.75 604.125 107.375 604.75 114.875C605.5 123.25 606.25 133.625 606.25 141.5C606.25 149.25 605.5 159.625 604.75 168.125C604.125 175.75 610 182.25 617.625 182.25C625.25 182.25 631.125 175.625 630.5 168.125C629.75 159.75 629 149.375 629 141.5C629 133.75 629.75 123.375 630.5 114.875C631.125 107.375 625.125 100.75 617.625 100.75Z" fill="#E9E4DC" stroke="#C49F8A" stroke-linejoin="round"/>
<path d="M617.625 115.875C618.661 115.875 619.5 115.036 619.5 114C619.5 112.964 618.661 112.125 617.625 112.125C616.589 112.125 615.75 112.964 615.75 114C615.75 115.036 616.589 115.875 617.625 115.875Z" fill="#E9E4DC" stroke="#C49F8A" stroke-linejoin="round"/>
<path d="M323.61 148.595C324.465 148.595 325.163 148.37 325.691 147.92C326.231 147.459 326.501 146.874 326.501 146.165C326.501 145.141 325.905 144.354 324.881 144.117V144.072C325.725 143.802 326.31 143.071 326.31 142.182C326.31 141.564 326.063 141.046 325.579 140.63C325.095 140.214 324.488 140 323.734 140C322.778 140 321.81 140.371 321.191 140.99L321.844 141.901C322.463 141.44 323.059 141.204 323.61 141.204C324.386 141.204 324.994 141.665 324.994 142.396C324.994 143.127 324.398 143.622 323.531 143.622H322.541V144.792H323.576C324.51 144.792 325.151 145.332 325.151 146.109C325.151 146.874 324.544 147.402 323.565 147.402C322.946 147.402 322.283 147.177 321.574 146.727L321 147.774C321.833 148.325 322.699 148.595 323.61 148.595Z" fill="#565440"/>
<path d="M328.398 148.64C328.837 148.64 329.175 148.302 329.175 147.852C329.175 147.414 328.837 147.076 328.398 147.076C327.948 147.076 327.6 147.414 327.6 147.852C327.6 148.302 327.948 148.64 328.398 148.64Z" fill="#565440"/>
<path d="M333.369 143.094C332.435 143.094 331.67 143.521 331.299 144.241C331.31 143.262 331.591 142.318 332.323 141.643C332.694 141.305 333.121 141.136 333.628 141.136C334.179 141.136 334.685 141.316 335.169 141.676L335.72 140.709C335.124 140.236 334.393 140 333.549 140C332.784 140 332.131 140.225 331.58 140.675C331.04 141.114 330.646 141.676 330.41 142.351C330.174 143.015 330.05 143.757 330.05 144.556C330.005 146.75 331.085 148.561 333.121 148.561C333.965 148.561 334.651 148.302 335.191 147.774C335.743 147.245 336.013 146.57 336.013 145.771C336.013 144.995 335.765 144.365 335.259 143.859C334.753 143.352 334.123 143.094 333.369 143.094ZM333.133 147.425C332.683 147.425 332.3 147.267 331.996 146.952C331.693 146.637 331.535 146.255 331.535 145.794C331.535 145.332 331.693 144.95 331.996 144.646C332.3 144.342 332.683 144.196 333.144 144.196C333.594 144.196 333.965 144.342 334.269 144.646C334.573 144.95 334.73 145.321 334.73 145.782C334.73 146.244 334.573 146.637 334.269 146.952C333.965 147.267 333.594 147.425 333.133 147.425Z" fill="#565440"/>
<path d="M405.072 171.029C405.927 170.106 406.355 169.262 406.355 168.509C406.355 167.766 406.107 167.159 405.612 166.697C405.129 166.236 404.499 166 403.734 166C402.732 166 401.821 166.405 401 167.215L401.709 168.137C402.372 167.519 403.025 167.204 403.677 167.204C404.454 167.204 405.072 167.732 405.072 168.497C405.072 168.959 404.735 169.555 404.465 169.87L403.835 170.567L401.191 173.38V174.46H406.456V173.267H403.025L405.072 171.029Z" fill="#565440"/>
<path d="M408.351 174.64C408.79 174.64 409.127 174.302 409.127 173.852C409.127 173.414 408.79 173.076 408.351 173.076C407.901 173.076 407.552 173.414 407.552 173.852C407.552 174.302 407.901 174.64 408.351 174.64Z" fill="#565440"/>
<path d="M414.114 171.029C414.969 170.106 415.397 169.262 415.397 168.509C415.397 167.766 415.149 167.159 414.654 166.697C414.17 166.236 413.54 166 412.775 166C411.774 166 410.863 166.405 410.042 167.215L410.75 168.137C411.414 167.519 412.067 167.204 412.719 167.204C413.495 167.204 414.114 167.732 414.114 168.497C414.114 168.959 413.777 169.555 413.507 169.87L412.877 170.567L410.233 173.38V174.46H415.498V173.267H412.067L414.114 171.029Z" fill="#565440"/>
<path d="M523.914 143.914C523.453 143.914 523.036 144.004 522.643 144.195L522.89 142.17H526.141V141H521.9L521.439 145.151L522.249 145.691C522.654 145.275 523.149 145.072 523.734 145.072C524.218 145.072 524.611 145.219 524.926 145.522C525.241 145.826 525.399 146.197 525.399 146.647C525.399 147.109 525.241 147.491 524.915 147.795C524.589 148.099 524.173 148.256 523.655 148.256C522.969 148.256 522.271 147.986 521.574 147.457L521 148.47C521.81 149.122 522.71 149.449 523.7 149.449C524.589 149.449 525.309 149.19 525.86 148.661C526.423 148.132 526.704 147.457 526.704 146.636C526.704 145.837 526.434 145.185 525.905 144.679C525.376 144.172 524.713 143.914 523.914 143.914Z" fill="#565440"/>
<path d="M528.483 149.494C528.921 149.494 529.259 149.156 529.259 148.706C529.259 148.267 528.921 147.93 528.483 147.93C528.033 147.93 527.684 148.267 527.684 148.706C527.684 149.156 528.033 149.494 528.483 149.494Z" fill="#565440"/>
<path d="M529.841 142.17H533.677L530.606 149.314H531.979L535.129 141.821V141H529.841V142.17Z" fill="#565440"/>
<path d="M575 337.149L575.697 338.06L577.137 336.89V343.46H578.42V335.146H577.419L575 337.149Z" fill="#565440"/>
<path d="M584.827 340.31V335.146H584.005L579.528 340.614L579.787 341.424H583.589V343.46H584.827V341.424H585.749V340.31H584.827ZM583.589 337.306V340.31H581.137L583.589 337.306Z" fill="#565440"/>
<path d="M587.533 343.64C587.972 343.64 588.31 343.302 588.31 342.852C588.31 342.414 587.972 342.076 587.533 342.076C587.083 342.076 586.735 342.414 586.735 342.852C586.735 343.302 587.083 343.64 587.533 343.64Z" fill="#565440"/>
<path d="M592.408 343.595C593.297 343.595 594.017 343.37 594.568 342.92C595.13 342.47 595.412 341.896 595.412 341.21C595.412 340.276 594.782 339.421 593.792 339.072V339.039C594.59 338.679 595.063 337.992 595.063 337.194C595.063 336.552 594.815 336.035 594.32 335.619C593.837 335.202 593.195 335 592.408 335C591.609 335 590.968 335.202 590.473 335.619C589.978 336.035 589.73 336.552 589.73 337.194C589.73 337.992 590.214 338.667 590.99 339.039V339.061C590.012 339.421 589.382 340.276 589.382 341.21C589.382 341.896 589.663 342.47 590.225 342.92C590.788 343.37 591.519 343.595 592.408 343.595ZM593.837 337.317C593.837 338.026 593.285 338.555 592.397 338.555C591.508 338.555 590.934 338.026 590.934 337.317C590.934 336.597 591.53 336.08 592.397 336.08C593.263 336.08 593.837 336.597 593.837 337.317ZM592.408 342.459C591.373 342.459 590.664 341.862 590.664 341.041C590.664 340.242 591.35 339.669 592.397 339.669C593.443 339.669 594.129 340.242 594.129 341.041C594.129 341.862 593.409 342.459 592.408 342.459Z" fill="#565440"/>
<path d="M346 364.002L346.698 364.914L348.138 363.744V370.314H349.42V362H348.419L346 364.002Z" fill="#565440"/>
<path d="M353.712 364.914C353.25 364.914 352.834 365.004 352.44 365.195L352.688 363.17H355.939V362H351.698L351.237 366.151L352.047 366.691C352.452 366.275 352.947 366.072 353.532 366.072C354.015 366.072 354.409 366.219 354.724 366.522C355.039 366.826 355.197 367.197 355.197 367.647C355.197 368.109 355.039 368.491 354.713 368.795C354.387 369.099 353.97 369.256 353.453 369.256C352.767 369.256 352.069 368.986 351.372 368.457L350.798 369.47C351.608 370.122 352.508 370.449 353.498 370.449C354.387 370.449 355.107 370.19 355.658 369.661C356.22 369.132 356.502 368.457 356.502 367.636C356.502 366.837 356.232 366.185 355.703 365.679C355.174 365.172 354.51 364.914 353.712 364.914Z" fill="#565440"/>
<path d="M358.281 370.494C358.719 370.494 359.057 370.156 359.057 369.706C359.057 369.267 358.719 368.93 358.281 368.93C357.831 368.93 357.482 369.267 357.482 369.706C357.482 370.156 357.831 370.494 358.281 370.494Z" fill="#565440"/>
<path d="M365.044 367.164V362H364.223L359.745 367.467L360.004 368.277H363.807V370.314H365.044V368.277H365.967V367.164H365.044ZM363.807 364.16V367.164H361.354L363.807 364.16Z" fill="#565440"/>
</svg>
