<svg width="900" height="600" viewBox="0 0 900 600" fill="none" xmlns="http://www.w3.org/2000/svg">
<path d="M645.594 77.339L629.2 141.517L628.125 148.166V206L644.386 211.125L628.474 271.465L627 314.25L645.913 319.686L628.856 386L628.932 439.5L644.125 443.25L628.471 513.502L560.75 500.014L512.125 498.75L508.5 516.75L412.75 495.125L359.75 499.75L356.5 513.625L287.25 496.875H246.75V201H352.125V76.875L645.594 77.339Z" fill="#DBD4CA"/>
<mask id="mask0" mask-type="alpha" maskUnits="userSpaceOnUse" x="330" y="86" width="126" height="222">
<path d="M330.875 211.25H455.875V307.5H330.875V211.25Z" fill="#C4C4C4"/>
<path d="M361.25 86.25H437.5V208.75H361.25V86.25Z" fill="#C4C4C4"/>
</mask>
<g mask="url(#mask0)">
<path d="M46.4412 208.663L463.295 -208.191" stroke="#C49F8A" stroke-miterlimit="10"/>
<path d="M33.4144 195.637L450.268 -221.217" stroke="#C49F8A" stroke-miterlimit="10"/>
<path d="M59.4678 221.69L476.322 -195.164" stroke="#C49F8A" stroke-miterlimit="10"/>
<path d="M72.4945 234.717L489.348 -182.137" stroke="#C49F8A" stroke-miterlimit="10"/>
<path d="M85.5211 247.743L502.375 -169.111" stroke="#C49F8A" stroke-miterlimit="10"/>
<path d="M98.5479 260.77L515.402 -156.084" stroke="#C49F8A" stroke-miterlimit="10"/>
<path d="M111.575 273.797L528.429 -143.057" stroke="#C49F8A" stroke-miterlimit="10"/>
<path d="M124.601 286.823L541.455 -130.031" stroke="#C49F8A" stroke-miterlimit="10"/>
<path d="M137.628 299.85L554.482 -117.004" stroke="#C49F8A" stroke-miterlimit="10"/>
<path d="M150.655 312.877L567.509 -103.977" stroke="#C49F8A" stroke-miterlimit="10"/>
<path d="M137.628 299.85L554.482 -117.004" stroke="#C49F8A" stroke-miterlimit="10"/>
<path d="M163.681 325.903L580.535 -90.9506" stroke="#C49F8A" stroke-miterlimit="10"/>
<path d="M176.708 338.93L593.562 -77.924" stroke="#C49F8A" stroke-miterlimit="10"/>
<path d="M189.735 351.957L606.589 -64.8972" stroke="#C49F8A" stroke-miterlimit="10"/>
<path d="M202.761 364.983L619.615 -51.8705" stroke="#C49F8A" stroke-miterlimit="10"/>
<path d="M215.788 378.01L632.642 -38.8439" stroke="#C49F8A" stroke-miterlimit="10"/>
<path d="M228.815 391.037L645.669 -25.8172" stroke="#C49F8A" stroke-miterlimit="10"/>
<path d="M241.841 404.064L658.695 -12.7905" stroke="#C49F8A" stroke-miterlimit="10"/>
<path d="M254.868 417.09L671.722 0.236206" stroke="#C49F8A" stroke-miterlimit="10"/>
<path d="M241.841 404.064L658.695 -12.7905" stroke="#C49F8A" stroke-miterlimit="10"/>
<path d="M267.895 430.117L684.749 13.2629" stroke="#C49F8A" stroke-miterlimit="10"/>
<path d="M280.921 443.144L697.776 26.2896" stroke="#C49F8A" stroke-miterlimit="10"/>
<path d="M293.948 456.17L710.802 39.3163" stroke="#C49F8A" stroke-miterlimit="10"/>
<path d="M306.975 469.197L723.829 52.3429" stroke="#C49F8A" stroke-miterlimit="10"/>
<path d="M320.002 482.224L736.856 65.3696" stroke="#C49F8A" stroke-miterlimit="10"/>
<path d="M333.028 495.25L749.882 78.3963" stroke="#C49F8A" stroke-miterlimit="10"/>
<path d="M346.055 508.277L762.909 91.423" stroke="#C49F8A" stroke-miterlimit="10"/>
<path d="M359.082 521.304L775.936 104.45" stroke="#C49F8A" stroke-miterlimit="10"/>
<path d="M346.055 508.277L762.909 91.423" stroke="#C49F8A" stroke-miterlimit="10"/>
<path d="M372.108 534.33L788.962 117.476" stroke="#C49F8A" stroke-miterlimit="10"/>
<path d="M385.135 547.357L801.989 130.503" stroke="#C49F8A" stroke-miterlimit="10"/>
<path d="M398.162 560.384L815.016 143.53" stroke="#C49F8A" stroke-miterlimit="10"/>
<path d="M411.188 573.41L828.042 156.556" stroke="#C49F8A" stroke-miterlimit="10"/>
<path d="M424.215 586.437L841.069 169.583" stroke="#C49F8A" stroke-miterlimit="10"/>
<path d="M437.242 599.464L854.096 182.61" stroke="#C49F8A" stroke-miterlimit="10"/>
<path d="M450.268 612.49L867.122 195.636" stroke="#C49F8A" stroke-miterlimit="10"/>
<path d="M463.295 599.464L46.4412 182.61" stroke="#C49F8A" stroke-miterlimit="10"/>
<path d="M450.268 612.49L33.4144 195.636" stroke="#C49F8A" stroke-miterlimit="10"/>
<path d="M476.322 586.437L59.4678 169.583" stroke="#C49F8A" stroke-miterlimit="10"/>
<path d="M489.348 573.41L72.4945 156.556" stroke="#C49F8A" stroke-miterlimit="10"/>
<path d="M502.375 560.384L85.5211 143.53" stroke="#C49F8A" stroke-miterlimit="10"/>
<path d="M515.402 547.357L98.5479 130.503" stroke="#C49F8A" stroke-miterlimit="10"/>
<path d="M528.428 534.33L111.575 117.476" stroke="#C49F8A" stroke-miterlimit="10"/>
<path d="M541.455 521.303L124.601 104.45" stroke="#C49F8A" stroke-miterlimit="10"/>
<path d="M554.482 508.277L137.628 91.423" stroke="#C49F8A" stroke-miterlimit="10"/>
<path d="M567.508 495.25L150.655 78.3963" stroke="#C49F8A" stroke-miterlimit="10"/>
<path d="M554.482 508.277L137.628 91.423" stroke="#C49F8A" stroke-miterlimit="10"/>
<path d="M580.535 482.223L163.681 65.3696" stroke="#C49F8A" stroke-miterlimit="10"/>
<path d="M593.562 469.197L176.708 52.3429" stroke="#C49F8A" stroke-miterlimit="10"/>
<path d="M606.588 456.17L189.735 39.3162" stroke="#C49F8A" stroke-miterlimit="10"/>
<path d="M619.615 443.143L202.761 26.2896" stroke="#C49F8A" stroke-miterlimit="10"/>
<path d="M632.642 430.117L215.788 13.2629" stroke="#C49F8A" stroke-miterlimit="10"/>
<path d="M645.668 417.09L228.815 0.236206" stroke="#C49F8A" stroke-miterlimit="10"/>
<path d="M658.695 404.063L241.841 -12.7905" stroke="#C49F8A" stroke-miterlimit="10"/>
<path d="M671.722 391.037L254.868 -25.8172" stroke="#C49F8A" stroke-miterlimit="10"/>
<path d="M658.695 404.063L241.841 -12.7905" stroke="#C49F8A" stroke-miterlimit="10"/>
<path d="M684.749 378.01L267.895 -38.8439" stroke="#C49F8A" stroke-miterlimit="10"/>
<path d="M697.775 364.983L280.921 -51.8705" stroke="#C49F8A" stroke-miterlimit="10"/>
<path d="M710.802 351.957L293.948 -64.8972" stroke="#C49F8A" stroke-miterlimit="10"/>
<path d="M723.829 338.93L306.975 -77.924" stroke="#C49F8A" stroke-miterlimit="10"/>
<path d="M736.855 325.903L320.001 -90.9506" stroke="#C49F8A" stroke-miterlimit="10"/>
<path d="M749.882 312.876L333.028 -103.977" stroke="#C49F8A" stroke-miterlimit="10"/>
<path d="M762.909 299.85L346.055 -117.004" stroke="#C49F8A" stroke-miterlimit="10"/>
<path d="M775.935 286.823L359.082 -130.031" stroke="#C49F8A" stroke-miterlimit="10"/>
<path d="M762.909 299.85L346.055 -117.004" stroke="#C49F8A" stroke-miterlimit="10"/>
<path d="M788.962 273.796L372.108 -143.057" stroke="#C49F8A" stroke-miterlimit="10"/>
<path d="M801.989 260.77L385.135 -156.084" stroke="#C49F8A" stroke-miterlimit="10"/>
<path d="M815.015 247.743L398.162 -169.111" stroke="#C49F8A" stroke-miterlimit="10"/>
<path d="M828.042 234.716L411.188 -182.137" stroke="#C49F8A" stroke-miterlimit="10"/>
<path d="M841.069 221.69L424.215 -195.164" stroke="#C49F8A" stroke-miterlimit="10"/>
<path d="M854.095 208.663L437.242 -208.191" stroke="#C49F8A" stroke-miterlimit="10"/>
<path d="M867.122 195.636L450.268 -221.217" stroke="#C49F8A" stroke-miterlimit="10"/>
<g opacity="0.3">
<path opacity="0.7" d="M651.618 -18.7396H248.919V383.959H651.618V-18.7396Z" fill="#C49F8A"/>
</g>
</g>
<path d="M604.25 86.75H542.75V159.625H604.25V86.75Z" fill="#E9E4DC"/>
<path d="M543.375 87.375H603.625V159H543.375V87.375ZM542.125 86.125V160.25H604.875V86.125H542.125Z" fill="#C49F8A"/>
<path d="M599.5 91.375H575V109.75H599.5V91.375Z" fill="#E9E4DC" stroke="#C49F8A"/>
<path d="M571.875 91.375H547.375V109.75H571.875V91.375Z" fill="#E9E4DC" stroke="#C49F8A"/>
<path d="M578.774 97.5173L574.019 115.266L591.767 120.021L596.523 102.273L578.774 97.5173Z" fill="#E9E4DC" stroke="#C49F8A" stroke-width="0.99997" stroke-miterlimit="3.99958"/>
<path d="M568.046 97.5599L550.297 102.315L555.053 120.064L572.801 115.308L568.046 97.5599Z" fill="#E9E4DC" stroke="#C49F8A" stroke-width="0.99997" stroke-miterlimit="3.99958"/>
<path d="M542.75 160.375V102.25L567.125 100.75L604.125 106.125V160.375H542.75Z" fill="#E9E4DC"/>
<path d="M567.125 101.375L603.5 106.625V159.75H543.25V102.875L567.125 101.375ZM567.125 100.125L542 101.625V102.75V160.875H604.75V105.875V105.5L567.125 100.125Z" fill="#C49F8A"/>
<path d="M542.875 103.5H567.375L604.125 106.625" stroke="#C49F8A"/>
<path d="M597.125 352.75H535.625V425.625H597.125V352.75Z" fill="#E9E4DC"/>
<path d="M596.5 353.375V425H536.25V353.375H596.5ZM597.75 352.125H535V426.25H597.75V352.125Z" fill="#C49F8A"/>
<path d="M592.5 357.375H568V375.75H592.5V357.375Z" fill="#E9E4DC" stroke="#C49F8A"/>
<path d="M564.875 357.375H540.375V375.75H564.875V357.375Z" fill="#E9E4DC" stroke="#C49F8A"/>
<path d="M571.746 363.605L566.991 381.353L584.739 386.109L589.495 368.36L571.746 363.605Z" fill="#E9E4DC" stroke="#C49F8A" stroke-width="0.99997" stroke-miterlimit="3.99958"/>
<path d="M561.047 363.552L543.299 368.307L548.054 386.055L565.803 381.3L561.047 363.552Z" fill="#E9E4DC" stroke="#C49F8A" stroke-width="0.99997" stroke-miterlimit="3.99958"/>
<path d="M535.625 426.375V368.25L560.125 366.75L597.125 372.125V426.375H535.625Z" fill="#E9E4DC"/>
<path d="M560.125 367.375L596.5 372.625V425.75H536.25V368.875L560.125 367.375ZM560.125 366.125L535 367.625V368.75V426.875H597.75V371.875V371.5L560.125 366.125Z" fill="#C49F8A"/>
<path d="M535.875 369.5H560.375L597.125 372.625" stroke="#C49F8A"/>
<path d="M580.258 211.75H500.383V264.125H580.258V211.75Z" fill="#E9E4DC"/>
<path d="M501.008 212.375H579.633V263.5H501.008V212.375ZM499.758 211.125V264.75H580.883V211.125H499.758Z" fill="#C49F8A"/>
<path d="M525.633 215.75H505.508V236.75H525.633V215.75Z" fill="#E9E4DC" stroke="#C49F8A"/>
<path d="M525.633 239.25H505.508V260.25H525.633V239.25Z" fill="#E9E4DC" stroke="#C49F8A"/>
<path d="M517.383 218.25L512.258 233.375L531.633 237.5L536.758 222.375L517.383 218.25Z" fill="#E9E4DC" stroke="#C49F8A" stroke-miterlimit="3.9998"/>
<path d="M531.633 238.625L512.258 242.625L517.508 257.75L536.883 253.75L531.633 238.625Z" fill="#E9E4DC" stroke="#C49F8A" stroke-miterlimit="3.9998"/>
<path d="M517.383 264.125L515.633 243.375L521.508 211.75H581.008V264.125H517.383Z" fill="#E9E4DC"/>
<path d="M522.008 212.375H580.383V263.5H518.008H517.883L516.258 243.375L522.008 212.375ZM521.508 211.125H521.133L515.133 243.25L516.883 264.75H518.133H581.758V211.125H521.508Z" fill="#C49F8A"/>
<path d="M518.883 264.125V243.125L522.133 211.75" stroke="#C49F8A"/>
<path d="M481.375 403.125H464.5V481.375H481.375V403.125Z" fill="#E9E4DC"/>
<path d="M480.75 403.75V480.75H465V403.75H480.75ZM482 402.5H463.75V482H482V402.5Z" fill="#C49F8A"/>
<path d="M478.875 403.125H455.125V481.375H478.875V403.125Z" fill="#E9E4DC"/>
<path d="M478.125 403.75V480.75H455.625V403.75H478.125ZM479.375 402.5H454.375V482H479.375V402.5Z" fill="#C49F8A"/>
<path d="M455.25 481.375L478.625 402.75L455.25 481.375Z" fill="#E9E4DC"/>
<path d="M455.25 481.375L478.625 402.75" stroke="#C49F8A"/>
<path d="M462.05 156.453H445.05V206.828H462.05V156.453Z" fill="#E9E4DC"/>
<path d="M461.3 157.078V206.203H445.55V157.078H461.3V157.078ZM462.55 155.828H444.3V207.453H462.55V155.828Z" fill="#C49F8A"/>
<path d="M459.425 156.453H437.8V206.828H459.425V156.453Z" fill="#E9E4DC"/>
<path d="M458.675 157.078V206.203H438.3V157.078H458.675V157.078ZM459.925 155.828H437.05V207.453H459.925V155.828Z" fill="#C49F8A"/>
<path d="M437.925 207.078L459.3 155.953L437.925 207.078Z" fill="#E9E4DC"/>
<path d="M437.925 207.078L459.3 155.953" stroke="#C49F8A"/>
<path d="M286.25 211.75H269.25V262.125H286.25V211.75Z" fill="#E9E4DC"/>
<path d="M285.5 212.375V261.5H269.75V212.375H285.5ZM286.75 211.125H268.5V262.75H286.75V211.125Z" fill="#C49F8A"/>
<path d="M283.5 211.75H265.75V262.125H283.5V211.75Z" fill="#E9E4DC"/>
<path d="M282.875 212.375V261.5H266.375V212.375H282.875ZM284.125 211.125H265.125V262.75H284.125V211.125Z" fill="#C49F8A"/>
<path d="M265.75 262.5L283.5 211.375L265.75 262.5Z" fill="#E9E4DC"/>
<path d="M265.75 262.5L283.5 211.375" stroke="#C49F8A"/>
<path d="M487.875 94H437.5V111H487.875V94Z" fill="#E9E4DC"/>
<path d="M487.25 94.625V110.375H438.125V94.625H487.25ZM488.5 93.375H436.875V111.625H488.5V93.375Z" fill="#C49F8A"/>
<path d="M487.875 86.75H437.5V108.375H487.875V86.75Z" fill="#E9E4DC"/>
<path d="M487.25 87.375V107.75H438.125V87.375H487.25ZM488.5 86.125H436.875V109H488.5V86.125Z" fill="#C49F8A"/>
<path d="M437.25 86.875L488.375 108.25L437.25 86.875Z" fill="#E9E4DC"/>
<path d="M437.25 86.875L488.375 108.25" stroke="#C49F8A"/>
<path d="M562.345 327.293H500.345V344.168H562.345V327.293Z" fill="#E9E4DC"/>
<path d="M561.72 327.918V343.668H500.97V327.918H561.72ZM562.97 326.668H499.72V344.918H562.97V326.668Z" fill="#C49F8A"/>
<path d="M562.345 329.918H500.345V347.793H562.345V329.918Z" fill="#E9E4DC"/>
<path d="M561.72 330.543V347.168H500.97V330.543H561.72ZM562.97 329.293H499.72V348.418H562.97V329.293Z" fill="#C49F8A"/>
<path d="M562.595 347.793L499.97 329.918L562.595 347.793Z" fill="#E9E4DC"/>
<path d="M562.595 347.793L499.97 329.918" stroke="#C49F8A"/>
<path d="M424.25 86.75H362.375V111.75H424.25V86.75Z" fill="#E9E4DC"/>
<path d="M363 87.375H423.625V111.125H363V87.375ZM361.75 86.125V112.375H424.875V86.125H361.75Z" fill="#C49F8A"/>
<path d="M367.5 99.25C367.5 104.125 371.625 107.875 376.375 107.375C381.625 106.875 388.25 106.5 393.25 106.5C398.125 106.5 404.75 107 410.125 107.375C414.875 107.75 419 104 419 99.25C419 94.5 414.875 90.625 410.125 91.125C404.875 91.625 398.25 92 393.25 92C388.375 92 381.75 91.5 376.375 91.125C371.75 90.625 367.5 94.5 367.5 99.25Z" fill="#E9E4DC" stroke="#C49F8A" stroke-linejoin="round"/>
<path d="M375.875 100.5C376.565 100.5 377.125 99.9404 377.125 99.25C377.125 98.5596 376.565 98 375.875 98C375.185 98 374.625 98.5596 374.625 99.25C374.625 99.9404 375.185 100.5 375.875 100.5Z" fill="#E9E4DC" stroke="#C49F8A" stroke-linejoin="round"/>
<path d="M451.375 287H427.125V303.25H451.375V287Z" fill="#E9E4DC"/>
<path d="M450.875 287.625V302.625H427.875V287.625H450.875ZM452.125 286.375H426.625V303.875H452.125V286.375Z" fill="#C49F8A"/>
<path d="M439.25 300.25C436.5 300.25 434.125 298 434.125 295.125C434.125 292.25 436.375 290 439.25 290C442.125 290 444.375 292.25 444.375 295.125C444.375 298 442.125 300.25 439.25 300.25Z" fill="#E9E4DC"/>
<path d="M439.25 290.75C441.75 290.75 443.75 292.75 443.75 295.25C443.75 297.75 441.75 299.75 439.25 299.75C436.75 299.75 434.75 297.75 434.75 295.25C434.75 292.75 436.875 290.75 439.25 290.75ZM439.25 289.5C436.125 289.5 433.5 292 433.5 295.25C433.5 298.375 436 301 439.25 301C442.5 301 445 298.5 445 295.25C445 292 442.5 289.5 439.25 289.5Z" fill="#C49F8A"/>
<path d="M431.011 241.375C426.136 241.375 422.011 237.375 422.011 232.375V211.75H451.511V241.25L431.011 241.375Z" fill="#E9E4DC"/>
<path d="M451.011 212.375V240.625H431.011C426.386 240.625 422.636 236.875 422.636 232.25V212.25L451.011 212.375ZM452.261 211.125H421.386V232.375C421.386 237.625 425.636 242 431.011 242H452.261V211.125Z" fill="#C49F8A"/>
<path d="M431.011 238.75C427.386 238.75 424.511 235.875 424.511 232.25V214.25H449.011V238.75H431.011Z" fill="#E9E4DC"/>
<path d="M448.511 214.875V238.125H431.136C427.886 238.125 425.261 235.5 425.261 232.25V214.875L448.511 214.875ZM449.761 213.625H423.886V232.25C423.886 236.25 427.136 239.375 431.011 239.375H449.636V213.625H449.761V213.625Z" fill="#C49F8A"/>
<path d="M444.261 220.25C444.951 220.25 445.511 219.69 445.511 219C445.511 218.31 444.951 217.75 444.261 217.75C443.57 217.75 443.011 218.31 443.011 219C443.011 219.69 443.57 220.25 444.261 220.25Z" fill="#E9E4DC" stroke="#C49F8A"/>
<path d="M331.875 395.625H382.25V432.25H331.875V395.625Z" fill="#E9E4DC" stroke="#C49F8A"/>
<path d="M328.75 404.375H328C322.625 404.375 318.375 408.625 318.375 414C318.375 419.375 322.625 423.625 328 423.625H328.75V404.375Z" fill="#E9E4DC" stroke="#C49F8A"/>
<path d="M331.875 406.375H328C323.75 406.375 320.375 409.75 320.375 414C320.375 418.25 323.75 421.625 328 421.625H331.875V406.375Z" fill="#E9E4DC" stroke="#C49F8A"/>
<path d="M385.25 404.375H386C391.375 404.375 395.625 408.625 395.625 414C395.625 419.375 391.375 423.625 386 423.625H385.25V404.375Z" fill="#E9E4DC" stroke="#C49F8A"/>
<path d="M382.125 406.375H386C390.25 406.375 393.625 409.75 393.625 414C393.625 418.25 390.25 421.625 386 421.625H382.125V406.375Z" fill="#E9E4DC" stroke="#C49F8A"/>
<path d="M366.625 435.375V436.125C366.625 441.5 362.375 445.75 357 445.75C351.625 445.75 347.375 441.5 347.375 436.125V435.375H366.625Z" fill="#E9E4DC" stroke="#C49F8A"/>
<path d="M364.625 432.25V436.125C364.625 440.375 361.25 443.75 357 443.75C352.75 443.75 349.375 440.375 349.375 436.125V432.25H364.625Z" fill="#E9E4DC" stroke="#C49F8A"/>
<path d="M366.625 392.625V391.875C366.625 386.5 362.375 382.25 357 382.25C351.625 382.25 347.375 386.5 347.375 391.875V392.625H366.625Z" fill="#E9E4DC" stroke="#C49F8A"/>
<path d="M364.625 395.625V391.75C364.625 387.5 361.25 384.125 357 384.125C352.75 384.125 349.375 387.5 349.375 391.75V395.625H364.625Z" fill="#E9E4DC" stroke="#C49F8A"/>
<path d="M594.522 457.957L611.896 461.332L611.146 477.582L589.021 473.332L594.522 457.957Z" fill="#E9E4DC" stroke="#C49F8A"/>
<path d="M569.191 467.808L564.248 493.46L622.671 504.718L627.614 479.066L569.191 467.808Z" fill="#E9E4DC"/>
<path d="M569.646 468.582L626.896 479.582L622.146 503.957L564.896 492.957L569.646 468.582ZM568.646 467.082L563.521 493.957L623.271 505.457L628.396 478.582L568.646 467.082Z" fill="#C49F8A"/>
<path d="M593.146 480.082L606.521 482.707L593.146 480.082ZM592.646 476.707L608.396 479.832L607.521 484.582L591.771 481.457L592.646 476.707Z" stroke="#C49F8A"/>
<path d="M586.146 475.207C586.771 475.332 587.271 475.957 587.146 476.582L586.896 478.207C586.771 478.832 586.146 479.332 585.521 479.207C584.896 479.082 584.396 478.457 584.521 477.832L584.771 476.207C584.896 475.582 585.521 475.082 586.146 475.207Z" fill="#E9E4DC" stroke="#C49F8A"/>
<path d="M594.146 489.957C594.521 487.832 596.646 486.332 598.896 486.832C601.021 487.207 602.521 489.332 602.021 491.582L601.271 495.582L593.396 494.082L594.146 489.957Z" fill="#E9E4DC" stroke="#C49F8A"/>
<path d="M576.763 491.149L577.147 488.989L618.251 496.978L617.868 499.139L576.763 491.149Z" fill="#E9E4DC" stroke="#C49F8A" stroke-width="0.999972" stroke-miterlimit="3.99979"/>
<path d="M594.845 457.823L592.149 471.815L608.841 475.032L611.537 461.039L594.845 457.823Z" fill="#E9E4DC"/>
<path d="M595.396 458.457L610.896 461.457L608.396 474.332L592.896 471.332L595.396 458.457ZM594.396 456.957L591.396 472.207L609.271 475.707L612.271 460.457L594.396 456.957Z" fill="#C49F8A"/>
<path d="M595.093 455.697L594.715 457.661L611.898 460.976L612.277 459.012L595.093 455.697Z" fill="#E9E4DC"/>
<path d="M595.521 456.457L611.521 459.582L611.396 460.332L595.396 457.207L595.521 456.457ZM594.521 454.957L593.896 458.082L612.271 461.582L612.896 458.457L594.521 454.957Z" fill="#C49F8A"/>
<path d="M380.625 111.875H362.375V141.5H380.625V111.875Z" fill="#E9E4DC"/>
<path d="M379.875 112.5V140.875H362.875V112.5H379.875ZM381.125 111.25H361.625V142.125H381.125V111.25Z" fill="#C49F8A"/>
<path d="M371.375 136.875C374.625 136.875 377.375 134.25 377.375 130.875V122.375C377.375 119.125 374.75 116.375 371.375 116.375C368.125 116.375 365.375 119 365.375 122.375V130.875C365.5 134.25 368.125 136.875 371.375 136.875Z" fill="#E9E4DC" stroke="#C49F8A"/>
<path d="M368.75 127.875C369.44 127.875 370 127.315 370 126.625C370 125.935 369.44 125.375 368.75 125.375C368.06 125.375 367.5 125.935 367.5 126.625C367.5 127.315 368.06 127.875 368.75 127.875Z" fill="#E9E4DC" stroke="#C49F8A"/>
<path d="M380.625 141.375H362.375V171H380.625V141.375Z" fill="#E9E4DC"/>
<path d="M379.875 142V170.375H362.875V142L379.875 142ZM381.125 140.75H361.625V171.625H381.125V140.75Z" fill="#C49F8A"/>
<path d="M371.375 166.375C374.625 166.375 377.375 163.75 377.375 160.375V151.875C377.375 148.625 374.75 145.875 371.375 145.875C368.125 145.875 365.375 148.5 365.375 151.875V160.375C365.5 163.625 368.125 166.375 371.375 166.375Z" fill="#E9E4DC" stroke="#C49F8A"/>
<path d="M368.75 157.375C369.44 157.375 370 156.815 370 156.125C370 155.435 369.44 154.875 368.75 154.875C368.06 154.875 367.5 155.435 367.5 156.125C367.5 156.815 368.06 157.375 368.75 157.375Z" fill="#E9E4DC" stroke="#C49F8A"/>
<path d="M376.694 285H335.25V303.25H376.694V285Z" fill="#E9E4DC"/>
<path d="M376.069 285.625V302.625H335.875V285.625H376.069ZM377.319 284.375H334.625V303.875H377.319V284.375Z" fill="#C49F8A"/>
<path d="M366 294C366 290.75 363.375 288 360 288H351.5C348.25 288 345.5 290.625 345.5 294C345.5 297.25 348.125 300 351.5 300H360C363.375 300 366 297.375 366 294Z" fill="#E9E4DC" stroke="#C49F8A"/>
<path d="M355.75 297.5C356.44 297.5 357 296.94 357 296.25C357 295.56 356.44 295 355.75 295C355.06 295 354.5 295.56 354.5 296.25C354.5 296.94 355.06 297.5 355.75 297.5Z" fill="#E9E4DC" stroke="#C49F8A"/>
<path d="M427.25 285.125H381.5V303.375H427.25V285.125Z" fill="#E9E4DC"/>
<path d="M426.5 285.75V302.75H382V285.75H426.5ZM427.75 284.5H380.75V304H427.75V284.5Z" fill="#C49F8A"/>
<path d="M414.5 294.125C414.5 290.875 411.875 288.125 408.5 288.125H400C396.75 288.125 394 290.75 394 294.125C394 297.375 396.625 300.125 400 300.125H408.5C411.875 300.125 414.5 297.5 414.5 294.125Z" fill="#E9E4DC" stroke="#C49F8A"/>
<path d="M404.25 297.625C404.94 297.625 405.5 297.065 405.5 296.375C405.5 295.685 404.94 295.125 404.25 295.125C403.56 295.125 403 295.685 403 296.375C403 297.065 403.56 297.625 404.25 297.625Z" fill="#E9E4DC" stroke="#C49F8A"/>
<path d="M417.338 193.828H400.963V199.078H417.338V193.828Z" fill="#E9E4DC"/>
<path d="M416.588 194.453V198.453H401.463V194.453H416.588ZM417.838 193.203H400.213V199.703H417.838V193.203Z" fill="#C49F8A"/>
<path d="M415.338 182.078C415.588 178.453 412.713 175.328 409.088 175.328C405.463 175.328 402.588 178.453 402.838 182.078L403.588 193.703H414.588L415.338 182.078Z" fill="#E9E4DC" stroke="#C49F8A"/>
<path d="M413.338 182.328C413.588 179.828 411.588 177.578 409.088 177.578C406.588 177.578 404.588 179.703 404.838 182.328L405.463 189.203H412.838L413.338 182.328Z" fill="#E9E4DC" stroke="#C49F8A"/>
<path d="M409.088 187.203C409.778 187.203 410.338 186.643 410.338 185.953C410.338 185.263 409.778 184.703 409.088 184.703C408.397 184.703 407.838 185.263 407.838 185.953C407.838 186.643 408.397 187.203 409.088 187.203Z" fill="#E9E4DC" stroke="#C49F8A"/>
<path d="M561.375 472.683H507V481.183H561.375V472.683Z" fill="#E9E4DC"/>
<path d="M560.75 473.308V480.558H507.625V473.308H560.75ZM562 472.058H506.375V481.808H562V472.058Z" fill="#C49F8A"/>
<path d="M561.375 474.933H507V484.683H561.375V474.933Z" fill="#E9E4DC"/>
<path d="M560.75 475.558V484.058H507.625V475.558H560.75ZM562 474.308H506.375V485.308H562V474.308Z" fill="#C49F8A"/>
<path d="M552.75 481.183H515.75V483.183H552.75V481.183Z" fill="#E9E4DC" stroke="#C49F8A"/>
<path d="M526.375 483.183H542L540.625 484.808H527.875L526.375 483.183Z" fill="#E9E4DC" stroke="#C49F8A"/>
<path d="M598.375 187.495H544V195.995H598.375V187.495Z" fill="#E9E4DC"/>
<path d="M597.75 188.12V195.37H544.625V188.12H597.75ZM599 186.87H543.375V196.62H599V186.87Z" fill="#C49F8A"/>
<path d="M598.375 189.745H544V199.495H598.375V189.745Z" fill="#E9E4DC"/>
<path d="M597.75 190.37V198.87H544.625V190.37H597.75ZM599 189.12H543.375V200.12H599V189.12Z" fill="#C49F8A"/>
<path d="M589.75 195.495H552.75V197.495H589.75V195.495Z" fill="#E9E4DC" stroke="#C49F8A"/>
<path d="M563.375 197.495H579L577.625 199.62H564.875L563.375 197.495Z" fill="#E9E4DC" stroke="#C49F8A"/>
<path d="M288.625 302.5H265.875V375.625H288.625V302.5Z" fill="#E9E4DC"/>
<path d="M288 303.125V375H266.5V303.125H288ZM289.25 301.875H265.25V376.25H289.25V301.875Z" fill="#C49F8A"/>
<path d="M288.625 398.5H265.875V431H288.625V398.5Z" fill="#E9E4DC"/>
<path d="M288 399.125V430.375H266.5V399.125H288ZM289.25 397.875H265.25V431.625H289.25V397.875Z" fill="#C49F8A"/>
<path d="M290.875 407.5H267.375V427.75H290.875V407.5Z" fill="#E9E4DC"/>
<path d="M290.25 408.125V427.125H268V408.125H290.25ZM291.5 406.875H266.75V428.375H291.5V406.875Z" fill="#C49F8A"/>
<path d="M288.625 403.375H265.875V431.875H288.625V403.375Z" fill="#E9E4DC"/>
<path d="M288 404V431.25H266.5V404H288ZM289.25 402.75H265.25V432.5H289.25V402.75Z" fill="#C49F8A"/>
<path d="M288.625 432.25H265.875V455H288.625V432.25Z" fill="#E9E4DC"/>
<path d="M288 432.875V454.375H266.5V432.875H288ZM289.25 431.625H265.25V455.625H289.25V431.625Z" fill="#C49F8A"/>
<path d="M286.25 318.875H268.25V347.375H286.25V318.875Z" fill="#E9E4DC" stroke="#C49F8A"/>
<path d="M277.25 330C281 330 284 333 284 336.75V338.25C284 342 281 345 277.25 345C273.5 345 270.5 342 270.5 338.25V336.75C270.5 333 273.5 330 277.25 330Z" fill="#E9E4DC" stroke="#C49F8A"/>
<path d="M274.25 338.75C274.94 338.75 275.5 338.19 275.5 337.5C275.5 336.81 274.94 336.25 274.25 336.25C273.56 336.25 273 336.81 273 337.5C273 338.19 273.56 338.75 274.25 338.75Z" fill="#E9E4DC" stroke="#C49F8A"/>
<path d="M284 320.375V327.875M270.5 320.375V327.875V320.375ZM272.75 320.375V327.875V320.375ZM275 320.375V327.875V320.375ZM277.25 320.375V327.875V320.375ZM279.5 320.375V327.875V320.375ZM281.75 320.375V327.875V320.375Z" stroke="#C49F8A"/>
<path d="M288.625 376.125H265.875V398.25H288.625V376.125Z" fill="#E9E4DC"/>
<path d="M288 376.75V397.625H266.5V376.75H288ZM289.25 375.5H265.25V398.875H289.25V375.5Z" fill="#C49F8A"/>
<path d="M268.125 376.125H265.875V398.25H268.125V376.125Z" fill="#E9E4DC"/>
<path d="M267.5 376.75V397.625H266.5V376.75H267.5ZM268.75 375.5H265.25V398.75H268.75V375.5Z" fill="#C49F8A"/>
<path d="M273.5 383.875C272.25 383.875 271.125 382.75 271.125 381.5C271.125 380.25 272.25 379.125 273.5 379.125C274.75 379.125 275.875 380.25 275.875 381.5C275.875 382.75 274.75 383.875 273.5 383.875Z" fill="#E9E4DC"/>
<path d="M273.5 379.75C274.5 379.75 275.25 380.5 275.25 381.5C275.25 382.5 274.5 383.25 273.5 383.25C272.5 383.25 271.75 382.5 271.75 381.5C271.75 380.5 272.5 379.75 273.5 379.75ZM273.5 378.5C271.875 378.5 270.5 379.875 270.5 381.5C270.5 383.125 271.875 384.5 273.5 384.5C275.125 384.5 276.5 383.125 276.5 381.5C276.5 379.875 275.125 378.5 273.5 378.5Z" fill="#C49F8A"/>
<path d="M282.5 384.625C280.75 384.625 279.375 383.25 279.375 381.5C279.375 379.75 280.75 378.375 282.5 378.375C284.25 378.375 285.625 379.75 285.625 381.5C285.625 383.25 284.25 384.625 282.5 384.625Z" fill="#E9E4DC"/>
<path d="M282.5 379C283.875 379 285 380.125 285 381.5C285 382.875 283.875 384 282.5 384C281.125 384 280 382.875 280 381.5C280 380.125 281.125 379 282.5 379ZM282.5 377.75C280.375 377.75 278.75 379.375 278.75 381.5C278.75 383.625 280.375 385.25 282.5 385.25C284.625 385.25 286.25 383.625 286.25 381.5C286.25 379.375 284.5 377.75 282.5 377.75Z" fill="#C49F8A"/>
<path d="M273.5 395C271.75 395 270.375 393.625 270.375 391.875C270.375 390.125 271.75 388.75 273.5 388.75C275.25 388.75 276.625 390.125 276.625 391.875C276.625 393.625 275.25 395 273.5 395Z" fill="#E9E4DC"/>
<path d="M273.5 389.5C274.875 389.5 276 390.625 276 392C276 393.375 274.875 394.5 273.5 394.5C272.125 394.5 271 393.375 271 392C271 390.5 272.125 389.5 273.5 389.5ZM273.5 388.25C271.375 388.25 269.75 389.875 269.75 392C269.75 394.125 271.375 395.75 273.5 395.75C275.625 395.75 277.25 394.125 277.25 392C277.25 389.875 275.625 388.25 273.5 388.25Z" fill="#C49F8A"/>
<path d="M283.25 394.25C282 394.25 280.875 393.125 280.875 391.875C280.875 390.625 282 389.5 283.25 389.5C284.5 389.5 285.625 390.625 285.625 391.875C285.625 393.25 284.5 394.25 283.25 394.25Z" fill="#E9E4DC"/>
<path d="M283.25 390.25C284.25 390.25 285 391 285 392C285 393 284.25 393.75 283.25 393.75C282.25 393.75 281.5 393 281.5 392C281.5 391 282.25 390.25 283.25 390.25ZM283.25 389C281.625 389 280.25 390.375 280.25 392C280.25 393.625 281.625 395 283.25 395C284.875 395 286.25 393.625 286.25 392C286.25 390.25 284.875 389 283.25 389Z" fill="#C49F8A"/>
<path d="M274.625 442.125L279.875 445.125M277.25 440.625V446.625V440.625ZM279.875 442.125L274.625 445.125L279.875 442.125Z" stroke="#C49F8A"/>
<path d="M401.75 451C400.75 451 399.875 451.875 399.875 452.875V471.625H442.75V451H401.75Z" fill="#E9E4DC" stroke="#C49F8A"/>
<path d="M424 417.75C423 417.75 422.125 418.625 422.125 419.75V449.125C422.125 450.25 423 451.125 424 451.125H442.875V417.875H424V417.75Z" fill="#E9E4DC" stroke="#C49F8A"/>
<path d="M424 385.75C423 385.75 422.125 386.625 422.125 387.625V415.875C422.125 416.875 423 417.75 424 417.75H442.875V385.75H424Z" fill="#E9E4DC" stroke="#C49F8A"/>
<path d="M420.5 385.75V378.75H450.125V479.25H392.5V449.5H399.875V471.625H442.75V385.75L420.5 385.75Z" fill="#E9E4DC" stroke="#C49F8A"/>
<path d="M581.125 311.5H597L599.125 325.875H579L581.125 311.5Z" fill="#E9E4DC" stroke="#C49F8A"/>
<path d="M613.625 324.625H565.875V347.875H613.625V324.625Z" fill="#E9E4DC"/>
<path d="M613.125 325.25V347.25H566.625V325.25H613.125ZM614.375 324H565.375V348.5H614.375V324Z" fill="#C49F8A"/>
<path d="M583.75 331.25H596H583.75ZM582.625 328.375H597V332.75H582.625V328.375Z" stroke="#C49F8A"/>
<path d="M576.625 328.125C577.25 328.125 577.75 328.625 577.75 329.25V330.75C577.75 331.375 577.25 331.875 576.625 331.875C576 331.875 575.5 331.375 575.5 330.75V329.25C575.625 328.625 576.125 328.125 576.625 328.125Z" fill="#E9E4DC" stroke="#C49F8A"/>
<path d="M586.25 339.625C586.25 337.625 587.875 336 589.875 336C591.875 336 593.5 337.625 593.5 339.625V343.25H586.25V339.625Z" fill="#E9E4DC" stroke="#C49F8A"/>
<path d="M571.072 341.648L571.069 343.148L608.444 343.211L608.447 341.711L571.072 341.648Z" fill="#E9E4DC" stroke="#C49F8A" stroke-miterlimit="4.00001"/>
<path d="M596.5 311.375H581.375V324H596.5V311.375Z" fill="#E9E4DC"/>
<path d="M595.875 312V323.375H582V312H595.875ZM597.125 310.75H580.75V324.625H597.125V310.75Z" fill="#C49F8A"/>
<path d="M596.875 309H581.125V311.25H596.875V309Z" fill="#E9E4DC"/>
<path d="M596.25 309.625V310.625H581.75V309.625H596.25ZM597.5 308.375H580.5V311.875H597.5V308.375Z" fill="#C49F8A"/>
<path d="M432.838 199.078H372.963V206.828H432.838V199.078Z" fill="#E9E4DC"/>
<path d="M432.088 199.703V206.203H373.463V199.703H432.088ZM433.338 198.453H372.213V207.453H433.338V198.453Z" fill="#C49F8A"/>
<path d="M422.011 211.75H381.5V219.5H422.011V211.75Z" fill="#E9E4DC"/>
<path d="M421.386 212.375V218.875H382.125V212.375H421.386ZM422.636 211.125H380.875V220.125H422.636V211.125Z" fill="#C49F8A"/>
<path d="M364.625 224.75H348.25V230H364.625V224.75Z" fill="#E9E4DC"/>
<path d="M364 225.375V229.375H348.875V225.375H364ZM365.25 224.125H347.625V230.625H365.25V224.125Z" fill="#C49F8A"/>
<path d="M362.625 241.75C362.875 245.375 360 248.5 356.375 248.5C352.75 248.5 349.875 245.375 350.125 241.75L350.875 230.125H361.875L362.625 241.75Z" fill="#E9E4DC" stroke="#C49F8A"/>
<path d="M360.75 241.625C361 244.125 359 246.375 356.375 246.375C353.875 246.375 351.75 244.125 352 241.625L352.625 234.75H360L360.75 241.625Z" fill="#E9E4DC" stroke="#C49F8A"/>
<path d="M356.375 239.125C357.065 239.125 357.625 238.565 357.625 237.875C357.625 237.185 357.065 236.625 356.375 236.625C355.685 236.625 355.125 237.185 355.125 237.875C355.125 238.565 355.685 239.125 356.375 239.125Z" fill="#E9E4DC" stroke="#C49F8A"/>
<path d="M409.625 219.5H393.25V224.75H409.625V219.5Z" fill="#E9E4DC"/>
<path d="M409 220.125V224.125H393.875V220.125H409ZM410.25 218.875H392.625V225.375H410.25V218.875Z" fill="#C49F8A"/>
<path d="M407.625 236.5C407.875 240.125 405 243.25 401.375 243.25C397.75 243.25 394.875 240.125 395.125 236.5L395.875 224.875H406.875L407.625 236.5Z" fill="#E9E4DC" stroke="#C49F8A"/>
<path d="M405.75 236.375C406 238.875 404 241.125 401.375 241.125C398.875 241.125 396.75 238.875 397 236.375L397.625 229.5H405L405.75 236.375Z" fill="#E9E4DC" stroke="#C49F8A"/>
<path d="M401.375 233.875C402.065 233.875 402.625 233.315 402.625 232.625C402.625 231.935 402.065 231.375 401.375 231.375C400.685 231.375 400.125 231.935 400.125 232.625C400.125 233.315 400.685 233.875 401.375 233.875Z" fill="#E9E4DC" stroke="#C49F8A"/>
<path d="M376.75 211.75H354.75V224.625H376.75V211.75Z" fill="#E9E4DC"/>
<path d="M376.125 212.375V224H355.375V212.375H376.125ZM377.375 211.125H354.125V225.25H377.375V211.125Z" fill="#C49F8A"/>
<path d="M477.875 142.625L480.25 140.625H481.25V149H480V142.375L478.5 143.5L477.875 142.625Z" fill="#565440"/>
<path d="M487.625 145.875H488.5V147H487.625V149H486.375V147H482.625L482.375 146.25L486.875 140.75H487.75V145.875H487.625ZM486.5 142.875L484 145.875H486.5V142.875Z" fill="#565440"/>
<path d="M490.375 149.125C490.125 149.125 490 149 489.75 148.875C489.5 148.75 489.5 148.5 489.5 148.25C489.5 148 489.625 147.875 489.75 147.75C489.875 147.625 490.125 147.5 490.375 147.5C490.625 147.5 490.75 147.625 490.875 147.75C491 147.875 491.125 148.125 491.125 148.25C491.125 148.5 491 148.625 490.875 148.875C490.75 149.125 490.625 149.125 490.375 149.125Z" fill="#565440"/>
<path d="M496.125 145.5L494.125 147.75H497.5V149H492.25V147.875L494.875 145L495.5 144.25C495.625 144.125 495.75 143.875 495.875 143.625C496 143.375 496 143.125 496 142.875C496 142.5 495.875 142.25 495.625 142C495.375 141.75 495 141.625 494.625 141.625C494 141.625 493.375 141.875 492.625 142.5L491.875 141.625C492.75 140.875 493.625 140.375 494.625 140.375C495.375 140.375 496 140.625 496.5 141.125C497 141.625 497.25 142.25 497.25 142.875C497.375 143.75 497 144.625 496.125 145.5Z" fill="#565440"/>
<path d="M398.75 160C399.5 160 400.25 160.25 400.75 160.75C401.25 161.25 401.5 161.875 401.5 162.75C401.5 163.625 401.25 164.25 400.625 164.75C400.125 165.25 399.375 165.5 398.5 165.5C397.5 165.5 396.625 165.125 395.75 164.5L396.375 163.5C397.125 164 397.75 164.25 398.5 164.25C399 164.25 399.375 164.125 399.75 163.75C400.125 163.5 400.25 163.125 400.25 162.625C400.25 162.125 400.125 161.75 399.75 161.5C399.5 161.25 399 161 398.5 161C397.875 161 397.375 161.25 397 161.625L396.25 161.25L396.75 157.125H401V158.25H397.75L397.5 160.25C397.875 160.125 398.25 160 398.75 160Z" fill="#565440"/>
<path d="M403.25 165.5C403 165.5 402.875 165.375 402.625 165.25C402.5 165.125 402.375 164.875 402.375 164.625C402.375 164.375 402.5 164.25 402.625 164.125C402.75 164 403 163.875 403.25 163.875C403.5 163.875 403.625 164 403.75 164.125C403.875 164.25 404 164.5 404 164.625C404 164.875 403.875 165 403.75 165.25C403.75 165.5 403.5 165.5 403.25 165.5Z" fill="#565440"/>
<path d="M404.625 158.25V157.125H409.875V158L406.75 165.5H405.375L408.5 158.375L404.625 158.25Z" fill="#565440"/>
<path d="M393.5 260.5H394.375V261.625H393.5V263.625H392.25V261.625H388.5L388.25 260.875L392.75 255.375H393.625V260.5H393.5ZM392.25 257.5L389.75 260.5H392.25V257.5Z" fill="#565440"/>
<path d="M352.625 261L350.625 263.25H354V264.5H348.75V263.375L351.375 260.5L352 259.75C352.125 259.625 352.25 259.375 352.375 259.125C352.5 258.875 352.5 258.625 352.5 258.375C352.5 258 352.375 257.75 352.125 257.5C351.875 257.25 351.5 257.125 351.125 257.125C350.5 257.125 349.875 257.375 349.125 258L348.375 257.125C349.25 256.375 350.125 255.875 351.125 255.875C351.875 255.875 352.5 256.125 353 256.625C353.5 257.125 353.75 257.75 353.75 258.375C354 259.125 353.5 260 352.625 261Z" fill="#565440"/>
<path d="M356 264.5C355.75 264.5 355.625 264.375 355.375 264.25C355.25 264.125 355.125 263.875 355.125 263.625C355.125 263.375 355.25 263.25 355.375 263.125C355.5 263 355.75 262.875 356 262.875C356.25 262.875 356.375 263 356.5 263.125C356.625 263.25 356.75 263.5 356.75 263.625C356.75 263.875 356.625 264 356.5 264.25C356.375 264.5 356.125 264.5 356 264.5Z" fill="#565440"/>
<path d="M361.75 261L359.75 263.25H363.125V264.5H357.875V263.375L360.5 260.5L361.125 259.75C361.25 259.625 361.375 259.375 361.5 259.125C361.625 258.875 361.625 258.625 361.625 258.375C361.625 258 361.5 257.75 361.25 257.5C361 257.25 360.625 257.125 360.25 257.125C359.625 257.125 359 257.375 358.25 258L357.5 257.125C358.375 256.375 359.25 255.875 360.25 255.875C361 255.875 361.625 256.125 362.125 256.625C362.625 257.125 362.875 257.75 362.875 258.375C363 259.125 362.5 260 361.75 261Z" fill="#565440"/>
<path d="M302.375 242.625C301.5 242.625 300.625 242.375 299.75 241.75L300.375 240.75C301.125 241.25 301.75 241.375 302.375 241.375C302.875 241.375 303.25 241.25 303.5 241C303.75 240.75 303.875 240.5 303.875 240C303.875 239.625 303.75 239.25 303.375 239C303.125 238.75 302.75 238.625 302.25 238.625H301.25V237.5H302.25C302.625 237.5 303 237.375 303.25 237.125C303.5 236.875 303.625 236.625 303.625 236.25C303.625 235.875 303.5 235.625 303.25 235.375C303 235.125 302.625 235 302.25 235C301.75 235 301.125 235.25 300.5 235.75L300 235C300.25 234.75 300.75 234.5 301.125 234.25C301.625 234.125 302 234 302.5 234C303.25 234 303.875 234.25 304.375 234.625C304.875 235 305.125 235.625 305.125 236.125C305.125 236.625 305 237 304.75 237.25C304.5 237.625 304.125 237.875 303.75 238C304.25 238.125 304.625 238.375 305 238.75C305.25 239.125 305.375 239.5 305.375 240.125C305.375 240.875 305.125 241.375 304.625 241.875C303.875 242.375 303.25 242.625 302.375 242.625Z" fill="#565440"/>
<path d="M307.125 242.625C306.875 242.625 306.75 242.5 306.5 242.375C306.375 242.25 306.25 242 306.25 241.75C306.25 241.5 306.375 241.375 306.5 241.25C306.625 241.125 306.875 241 307.125 241C307.375 241 307.5 241.125 307.625 241.25C307.75 241.375 307.875 241.625 307.875 241.75C307.875 242 307.75 242.125 307.625 242.375C307.625 242.5 307.375 242.625 307.125 242.625Z" fill="#565440"/>
<path d="M311.875 234C312.875 234 313.625 234.375 314.125 235.125C314.625 235.875 314.875 236.875 314.875 238C314.875 238.625 314.75 239.25 314.625 239.75C314.5 240.25 314.25 240.75 314 241.25C313.75 241.625 313.375 242 312.875 242.25C312.375 242.5 311.875 242.625 311.375 242.625C310.5 242.625 309.75 242.375 309.125 241.875L309.625 240.875C310.125 241.25 310.75 241.5 311.25 241.5C312 241.5 312.5 241.25 312.875 240.625C313.25 240 313.5 239.375 313.5 238.5C313.25 238.875 313 239.125 312.625 239.25C312.25 239.375 311.875 239.5 311.375 239.5C310.625 239.5 310 239.25 309.5 238.75C309 238.25 308.75 237.625 308.75 236.875C308.75 236.125 309 235.375 309.5 234.875C310.25 234.25 311 234 311.875 234ZM313.375 236.75C313.375 236.25 313.25 235.875 312.875 235.625C312.625 235.25 312.25 235.125 311.75 235.125C311.25 235.125 310.875 235.25 310.625 235.625C310.375 236 310.125 236.375 310.125 236.75C310.125 237.25 310.25 237.625 310.625 237.875C310.875 238.125 311.25 238.375 311.75 238.375C312.25 238.375 312.625 238.25 312.875 237.875C313.25 237.625 313.375 237.25 313.375 236.75Z" fill="#565440"/>
<path d="M350.25 365.125L348.25 367.375H351.625V368.625H346.375V367.5L349 364.625L349.625 363.875C349.75 363.75 349.875 363.5 350 363.25C350.125 363 350.125 362.75 350.125 362.5C350.125 362.125 350 361.875 349.75 361.625C349.5 361.375 349.125 361.25 348.75 361.25C348.125 361.25 347.5 361.5 346.75 362.125L346 361.25C346.875 360.5 347.75 360 348.75 360C349.5 360 350.125 360.25 350.625 360.75C351.125 361.25 351.375 361.875 351.375 362.5C351.5 363.375 351 364.125 350.25 365.125Z" fill="#565440"/>
<path d="M356.625 365.125L354.625 367.375H358V368.625H352.75V367.5L355.375 364.625L356 363.875C356.125 363.75 356.25 363.5 356.375 363.25C356.5 363 356.5 362.75 356.5 362.5C356.5 362.125 356.375 361.875 356.125 361.625C355.875 361.375 355.5 361.25 355.125 361.25C354.5 361.25 353.875 361.5 353.125 362.125L352.375 361.25C353.25 360.5 354.125 360 355.125 360C355.875 360 356.5 360.25 357 360.75C357.5 361.25 357.75 361.875 357.75 362.5C357.875 363.375 357.375 364.125 356.625 365.125Z" fill="#565440"/>
<path d="M359.875 368.75C359.625 368.75 359.5 368.625 359.25 368.5C359.125 368.375 359 368.125 359 367.875C359 367.625 359.125 367.5 359.25 367.375C359.375 367.25 359.625 367.125 359.875 367.125C360.125 367.125 360.25 367.25 360.375 367.375C360.5 367.5 360.625 367.75 360.625 367.875C360.625 368.125 360.5 368.25 360.375 368.5C360.25 368.625 360 368.75 359.875 368.75Z" fill="#565440"/>
<path d="M364.75 368.625C363.875 368.625 363.125 368.375 362.625 368C362.125 367.5 361.75 367 361.75 366.25C361.75 365.75 361.875 365.375 362.25 365C362.5 364.625 362.875 364.375 363.375 364.125C363 364 362.625 363.625 362.5 363.375C362.25 363 362.125 362.75 362.125 362.25C362.125 361.625 362.375 361.125 362.875 360.625C363.375 360.25 364 360 364.75 360C365.5 360 366.125 360.25 366.625 360.625C367.125 361 367.375 361.625 367.375 362.25C367.375 362.625 367.25 363 367 363.375C366.75 363.75 366.5 364 366.125 364.125C366.625 364.25 367 364.625 367.25 365C367.5 365.375 367.75 365.875 367.75 366.25C367.75 367 367.5 367.5 366.875 368C366.375 368.5 365.625 368.625 364.75 368.625ZM364.75 367.5C365.25 367.5 365.625 367.375 366 367.125C366.375 366.875 366.5 366.5 366.5 366.125C366.5 365.75 366.375 365.375 366 365.125C365.625 364.875 365.25 364.75 364.75 364.75C364.25 364.75 363.875 364.875 363.5 365.125C363.125 365.375 363 365.75 363 366.125C363 366.5 363.125 366.875 363.5 367.125C363.75 367.375 364.25 367.5 364.75 367.5ZM365.75 363.25C366 363 366.125 362.75 366.125 362.375C366.125 362 366 361.75 365.75 361.5C365.5 361.25 365.125 361.125 364.75 361.125C364.375 361.125 364 361.25 363.75 361.5C363.5 361.75 363.375 362 363.375 362.375C363.375 362.75 363.5 363 363.75 363.25C364 363.5 364.375 363.625 364.75 363.625C365.125 363.625 365.5 363.5 365.75 363.25Z" fill="#565440"/>
<path d="M463.75 328.25C462.875 328.25 462 328 461.125 327.375L461.75 326.375C462.5 326.875 463.125 327 463.75 327C464.25 327 464.625 326.875 464.875 326.625C465.125 326.375 465.25 326.125 465.25 325.625C465.25 325.25 465.125 324.875 464.75 324.625C464.5 324.375 464.125 324.25 463.625 324.25H462.625V323.125H463.625C464 323.125 464.375 323 464.625 322.75C464.875 322.5 465 322.25 465 321.875C465 321.5 464.875 321.25 464.625 321C464.375 320.75 464 320.625 463.625 320.625C463.125 320.625 462.5 320.875 461.875 321.375L461.25 320.5C461.5 320.25 462 320 462.375 319.75C462.875 319.625 463.25 319.5 463.75 319.5C464.5 319.5 465.125 319.75 465.625 320.125C466.125 320.5 466.375 321.125 466.375 321.625C466.375 322.125 466.25 322.5 466 322.75C465.75 323.125 465.375 323.375 465 323.5C465.5 323.625 465.875 323.875 466.25 324.25C466.5 324.625 466.625 325 466.625 325.625C466.625 326.375 466.375 326.875 465.875 327.375C465.25 328 464.5 328.25 463.75 328.25Z" fill="#565440"/>
<path d="M468.5 328.375C468.25 328.375 468.125 328.25 467.875 328.125C467.625 328 467.625 327.75 467.625 327.5C467.625 327.25 467.75 327.125 467.875 327C468 326.875 468.25 326.75 468.5 326.75C468.75 326.75 468.875 326.875 469 327C469.125 327.125 469.25 327.375 469.25 327.5C469.25 327.75 469.125 327.875 469 328.125C468.875 328.375 468.75 328.375 468.5 328.375Z" fill="#565440"/>
<path d="M473.375 328.25C472.5 328.25 471.75 328 471.25 327.625C470.75 327.125 470.375 326.625 470.375 325.875C470.375 325.375 470.5 325 470.875 324.625C471.125 324.25 471.5 324 472 323.75C471.625 323.625 471.25 323.25 471.125 323C470.875 322.625 470.75 322.375 470.75 321.875C470.75 321.25 471 320.75 471.5 320.25C472 319.875 472.625 319.625 473.375 319.625C474.125 319.625 474.75 319.875 475.25 320.25C475.75 320.625 476 321.25 476 321.875C476 322.25 475.875 322.625 475.625 323C475.375 323.375 475.125 323.625 474.75 323.75C475.25 323.875 475.625 324.25 475.875 324.625C476.125 325 476.375 325.5 476.375 325.875C476.375 326.625 476.125 327.125 475.5 327.625C475 328 474.25 328.25 473.375 328.25ZM473.375 327.125C473.875 327.125 474.25 327 474.625 326.75C475 326.5 475.125 326.125 475.125 325.75C475.125 325.375 475 325 474.625 324.75C474.25 324.5 473.875 324.375 473.375 324.375C472.875 324.375 472.5 324.5 472.125 324.75C471.75 325 471.625 325.375 471.625 325.75C471.625 326.125 471.75 326.5 472.125 326.75C472.5 327 472.875 327.125 473.375 327.125ZM474.375 322.875C474.625 322.625 474.75 322.375 474.75 322C474.75 321.625 474.625 321.375 474.375 321.125C474.125 320.875 473.75 320.75 473.375 320.75C473 320.75 472.625 320.875 472.375 321.125C472.125 321.375 472 321.625 472 322C472 322.375 472.125 322.625 472.375 322.875C472.625 323.125 473 323.25 473.375 323.25C473.75 323.25 474.125 323.125 474.375 322.875Z" fill="#565440"/>
<path d="M583 275.125L585.375 273.125H586.375V281.5H585.125V274.875L583.625 276L583 275.125Z" fill="#565440"/>
<path d="M592.75 281.25C592.25 281.5 591.75 281.625 591.25 281.625C590.75 281.625 590.125 281.5 589.75 281.25C589 280.75 588.5 280 588.125 278.875C588 278.375 588 277.875 588 277.25C588 276.75 588 276.25 588.125 275.75C588.25 275.25 588.375 274.75 588.75 274.375C589.125 274 589.375 273.625 589.75 273.375C590.125 273.125 590.75 273 591.25 273C591.875 273 592.375 273.125 592.75 273.375C593.5 273.75 594.125 274.625 594.375 275.75C594.625 276.75 594.625 277.875 594.375 278.875C594 280 593.5 280.75 592.75 281.25ZM591.25 280.375C591.875 280.375 592.375 280.125 592.75 279.5C593.125 278.875 593.25 278.125 593.25 277.25C593.25 276.375 593.125 275.625 592.75 275C592.375 274.375 591.875 274.125 591.25 274.125C590.625 274.125 590.125 274.375 589.75 275C589.375 275.625 589.25 276.25 589.25 277.25C589.25 278.125 589.375 278.875 589.75 279.5C590.125 280.125 590.625 280.375 591.25 280.375Z" fill="#565440"/>
<path d="M596.125 281.625C595.875 281.625 595.75 281.5 595.5 281.375C595.25 281.25 595.25 281 595.25 280.75C595.25 280.5 595.375 280.375 595.5 280.25C595.625 280.125 595.875 280 596.125 280C596.375 280 596.5 280.125 596.625 280.25C596.75 280.375 596.875 280.625 596.875 280.75C596.875 281 596.75 281.125 596.625 281.375C596.5 281.625 596.375 281.625 596.125 281.625Z" fill="#565440"/>
<path d="M600.875 273C601.875 273 602.625 273.375 603.125 274.125C603.625 274.875 603.875 275.875 603.875 277C603.875 277.625 603.75 278.25 603.625 278.75C603.5 279.25 603.25 279.75 603 280.25C602.75 280.625 602.375 281 601.875 281.25C601.375 281.5 600.875 281.625 600.375 281.625C599.5 281.625 598.75 281.375 598.125 280.875L598.625 279.875C599.125 280.25 599.75 280.5 600.25 280.5C601 280.5 601.5 280.25 601.875 279.625C602.25 279 602.5 278.375 602.5 277.5C602.25 277.875 602 278.125 601.625 278.25C601.25 278.375 600.875 278.5 600.375 278.5C599.625 278.5 599 278.25 598.5 277.75C598 277.25 597.75 276.625 597.75 275.875C597.75 275.125 598 274.375 598.5 273.875C599.375 273.25 600 273 600.875 273ZM602.375 275.75C602.375 275.25 602.25 274.875 601.875 274.625C601.625 274.25 601.25 274.125 600.75 274.125C600.25 274.125 599.875 274.25 599.625 274.625C599.375 275 599.125 275.375 599.125 275.75C599.125 276.25 599.25 276.625 599.625 276.875C599.875 277.125 600.25 277.375 600.75 277.375C601.25 277.375 601.625 277.25 601.875 276.875C602.25 276.625 602.375 276.25 602.375 275.75Z" fill="#565440"/>
<path d="M493.5 412.875L495.875 410.875H496.875V419.25H495.625V412.625L494.125 413.75L493.5 412.875Z" fill="#565440"/>
<path d="M501.25 413.75C502 413.75 502.75 414 503.25 414.5C503.75 415 504 415.625 504 416.5C504 417.375 503.75 418 503.125 418.5C502.625 419 501.875 419.25 501 419.25C500 419.25 499.125 418.875 498.25 418.25L498.875 417.25C499.625 417.75 500.25 418 501 418C501.5 418 501.875 417.875 502.25 417.5C502.625 417.25 502.75 416.875 502.75 416.375C502.75 415.875 502.625 415.5 502.25 415.25C502 415 501.5 414.75 501 414.75C500.375 414.75 499.875 415 499.5 415.375L498.75 415L499.25 410.875H503.5V412H500.25L500 414C500.375 413.875 500.75 413.75 501.25 413.75Z" fill="#565440"/>
<path d="M505.75 419.375C505.5 419.375 505.375 419.25 505.125 419.125C504.875 419 504.875 418.75 504.875 418.5C504.875 418.25 505 418.125 505.125 418C505.25 417.875 505.5 417.75 505.75 417.75C506 417.75 506.125 417.875 506.25 418C506.375 418.125 506.5 418.375 506.5 418.5C506.5 418.75 506.375 418.875 506.25 419.125C506.25 419.25 506 419.375 505.75 419.375Z" fill="#565440"/>
<path d="M510.125 419.25C509.25 419.25 508.375 419 507.5 418.375L508.125 417.375C508.875 417.875 509.5 418 510.125 418C510.625 418 511 417.875 511.25 417.625C511.5 417.375 511.625 417.125 511.625 416.625C511.625 416.25 511.5 415.875 511.125 415.625C510.875 415.375 510.5 415.25 510 415.25H509V414.125H510C510.375 414.125 510.75 414 511 413.75C511.25 413.5 511.375 413.25 511.375 412.875C511.375 412.5 511.25 412.25 511 412C510.75 411.75 510.375 411.625 510 411.625C509.5 411.625 508.875 411.875 508.25 412.375L507.625 411.5C507.875 411.25 508.375 411 508.75 410.75C509.25 410.625 509.625 410.5 510.125 410.5C510.875 410.5 511.5 410.75 512 411.125C512.5 411.5 512.75 412.125 512.75 412.625C512.75 413.125 512.625 413.5 512.375 413.75C512.125 414.125 511.75 414.375 511.375 414.5C511.875 414.625 512.25 414.875 512.625 415.25C513 415.625 513 416 513 416.625C513 417.375 512.75 417.875 512.25 418.375C511.75 419 511 419.25 510.125 419.25Z" fill="#565440"/>
<path d="M294.96 499.405L352.834 512.76L351.72 518.323L293.845 504.968L294.96 499.405Z" stroke="#565440"/>
<path d="M412.191 494.952L506.048 516.47L504.934 522.033L411.077 500.515L412.191 494.952Z" stroke="#565440"/>
<path d="M649.246 446.726L643.682 445.612L628.471 513.502L539.063 495.695L538.324 501.258L632.924 520.18L633.295 517.58L649.246 446.726Z" stroke="#565440"/>
<path d="M508.644 510.531L411.077 488.646" stroke="#565440"/>
<path d="M355.43 506.821L297.184 493.838" stroke="#565440"/>
<path d="M560.952 493.838L623.647 506.082L637.744 445.24" stroke="#565440"/>
<path d="M645.127 80.2185L628.828 142.947L634.205 144.345L650.505 81.6158L645.127 80.2185Z" stroke="#565440" stroke-width="1.00004" stroke-miterlimit="4.00057"/>
<path d="M645.658 321.853L628.856 386.515L634.233 387.912L651.035 323.25L645.658 321.853Z" stroke="#565440" stroke-width="1.00004" stroke-miterlimit="4.00057"/>
<path d="M639.632 320.291L622.832 384.946L628.867 386.514L645.667 321.859L639.632 320.291Z" stroke="#565440" stroke-width="1.00004" stroke-miterlimit="4.00057"/>
<path d="M639.538 204.557L624.234 263.457L630.268 265.025L645.573 206.125L639.538 204.557Z" stroke="#565440" stroke-width="1.00004" stroke-miterlimit="4.00057"/>
<path d="M639.057 78.6774L622.764 141.381L628.799 142.949L645.092 80.2454L639.057 78.6774Z" stroke="#565440" stroke-width="1.00004" stroke-miterlimit="4.00057"/>
<path d="M645.679 206.147L630.37 265.065L635.747 266.462L651.057 207.544L645.679 206.147Z" stroke="#565440" stroke-width="1.00004" stroke-miterlimit="4.00057"/>
<path d="M265.279 489.385V301.875H277V285.125H265.279V211.153H287.168V200.023H246.733V507.936H284.996L294.217 510.164L298.298 491.985L287.539 489.385H265.279ZM273.25 288.875V298.125H265.279V288.875H273.25Z" fill="#565440"/>
<path d="M354.316 500.515L350.235 518.694L360.993 521.29L364.077 507.564H413.673V485.308H354.316V500.515Z" fill="#565440"/>
<path d="M506.419 507.53L503.081 522.404L513.839 525L517.752 507.564H562.066V485.308H506.419V507.53Z" fill="#565440"/>
<path d="M450.773 348.416V494.209L448.544 504.225L452.255 504.968L454.483 494.952V352.122H458.193V348.416H454.483H450.773Z" fill="#565440"/>
<path d="M637.005 354.35L637.744 350.64L628.842 348.416H499.742V324.299H496.032V348.416H487.869V352.122H628.1L637.005 354.35Z" fill="#565440"/>
<path d="M437.047 151.792H433.337V207.443H372.495L372.5 190.375H361.736V86.1301H433.337V122.116H437.047V86.1301H651.47V75H350.606V200.023H323.526V211.153H330.875V224.125H330.946V252.702H334.656V224.125H354.125V211.153H361.736H377.319V303.896H334.656V282.378H330.946V303.896V307.606H334.656H452.255H454.111H455.965V280.897H452.255V303.896H381.025V211.153H452.255V251.216H455.965V211.153H463.91V207.443H437.047V151.792ZM368.75 194.125V207.375H361.736V200.023V194.125H368.75ZM350.375 220.375H334.656V211.153H350.375V220.375Z" fill="#565440"/>
<path d="M636.176 383.01H613.916V445.465H634.12L650.645 449.175L653.241 438.417L636.176 434.583V383.01Z" fill="#565440"/>
<path d="M636.176 273.053L638.401 263.828L620.226 259.747L617.712 270.506H617.626V324.453H634.12L650.645 328.163L653.241 317.404L636.176 313.574V273.053Z" fill="#565440"/>
<path d="M499.742 293.141V211.153L641.447 211.145L650.656 213.377V213.37L650.667 213.374L653.267 202.615L642.508 200.015H636.266V140.67H636.176V140.662H613.95V200.023H496.096V207.443H493.432V211.153H496.032V293.141H499.742Z" fill="#565440"/>
<path d="M323.526 200.023C323.526 195.199 322.411 190.75 320.558 186.297C318.701 181.844 316.106 177.391 312.396 174.056C309.057 170.718 304.976 167.751 300.523 165.894C296.07 164.037 291.25 162.926 286.425 162.926V200.023M487.869 352.122C487.869 356.204 487.126 359.542 485.645 363.252C484.163 366.962 481.935 370.301 479.339 372.897C476.743 375.864 473.404 378.089 469.694 379.574C465.984 381.06 462.274 381.799 458.193 381.799V352.122H487.869ZM453.74 280.897C449.659 280.897 446.32 280.154 442.61 278.672C438.9 277.19 435.561 274.962 432.965 272.366C429.998 269.77 427.774 266.432 426.288 262.722C424.803 259.012 424.064 255.302 424.064 251.22H453.74V280.897ZM433.704 151.792C429.623 151.792 426.284 151.05 422.574 149.568C418.864 148.083 415.526 145.858 412.93 143.262C409.963 140.666 407.738 137.328 406.252 133.617C404.767 129.907 404.028 126.197 404.028 122.116H433.708L433.704 151.792ZM493.432 207.81C493.432 203.729 492.69 200.39 491.208 196.68C489.722 192.97 487.498 189.632 484.902 187.036C482.306 184.069 478.967 181.844 475.257 180.358C471.547 178.873 467.837 178.134 463.756 178.134V207.814L493.432 207.81ZM330.946 252.702C326.864 252.702 323.526 253.445 319.815 254.926C316.105 256.408 312.767 258.637 310.171 261.232C307.204 263.828 304.979 267.167 303.494 270.877C302.008 274.587 301.269 278.297 301.269 282.378H330.949L330.946 252.702ZM499.742 293.137C504.195 293.137 507.905 293.88 511.983 295.362C516.06 296.843 519.403 299.443 521.998 302.039C524.966 304.635 527.562 308.345 529.047 312.055C530.533 315.765 531.272 319.846 531.272 324.295H499.738L499.742 293.137Z" stroke="#565440"/>
</svg>
