<svg width="900" height="600" viewBox="0 0 900 600" fill="none" xmlns="http://www.w3.org/2000/svg">
<g clip-path="url(#clip0)">
<path d="M291.375 81.25L291.375 520.625H536.375V323.125H614.375V118.25L608.125 118.25V80.75L291.375 81.25Z" fill="#DBD4CA"/>
<mask id="mask0" mask-type="alpha" maskUnits="userSpaceOnUse" x="464" y="249" width="136" height="268">
<path fill-rule="evenodd" clip-rule="evenodd" d="M528 249L600 249V319H528V249ZM467 330H528V388H467V330ZM528 484H464V517H528V484Z" fill="#C4C4C4"/>
</mask>
<g mask="url(#mask0)">
<path d="M144.999 365.335L561.853 -51.519" stroke="#C49F8A" stroke-miterlimit="10"/>
<path d="M131.973 352.308L548.827 -64.5459" stroke="#C49F8A" stroke-miterlimit="10"/>
<path d="M158.026 378.361L574.88 -38.4927" stroke="#C49F8A" stroke-miterlimit="10"/>
<path d="M171.053 391.388L587.907 -25.4658" stroke="#C49F8A" stroke-miterlimit="10"/>
<path d="M184.079 404.415L600.933 -12.439" stroke="#C49F8A" stroke-miterlimit="10"/>
<path d="M197.106 417.441L613.96 0.587402" stroke="#C49F8A" stroke-miterlimit="10"/>
<path d="M210.133 430.468L626.987 13.6143" stroke="#C49F8A" stroke-miterlimit="10"/>
<path d="M223.159 443.495L640.013 26.6406" stroke="#C49F8A" stroke-miterlimit="10"/>
<path d="M236.186 456.521L653.04 39.6675" stroke="#C49F8A" stroke-miterlimit="10"/>
<path d="M249.213 469.548L666.067 52.6943" stroke="#C49F8A" stroke-miterlimit="10"/>
<path d="M236.186 456.521L653.04 39.6675" stroke="#C49F8A" stroke-miterlimit="10"/>
<path d="M262.24 482.575L679.094 65.7207" stroke="#C49F8A" stroke-miterlimit="10"/>
<path d="M275.266 495.601L692.12 78.7476" stroke="#C49F8A" stroke-miterlimit="10"/>
<path d="M288.293 508.628L705.147 91.7744" stroke="#C49F8A" stroke-miterlimit="10"/>
<path d="M301.32 521.655L718.174 104.801" stroke="#C49F8A" stroke-miterlimit="10"/>
<path d="M314.346 534.682L731.2 117.828" stroke="#C49F8A" stroke-miterlimit="10"/>
<path d="M327.373 547.709L744.227 130.854" stroke="#C49F8A" stroke-miterlimit="10"/>
<path d="M340.4 560.735L757.254 143.881" stroke="#C49F8A" stroke-miterlimit="10"/>
<path d="M353.426 573.762L770.28 156.908" stroke="#C49F8A" stroke-miterlimit="10"/>
<path d="M340.4 560.735L757.254 143.881" stroke="#C49F8A" stroke-miterlimit="10"/>
<path d="M366.453 586.789L783.307 169.935" stroke="#C49F8A" stroke-miterlimit="10"/>
<path d="M379.48 599.815L796.334 182.961" stroke="#C49F8A" stroke-miterlimit="10"/>
<path d="M392.506 612.842L809.36 195.988" stroke="#C49F8A" stroke-miterlimit="10"/>
<path d="M405.533 625.869L822.387 209.015" stroke="#C49F8A" stroke-miterlimit="10"/>
<path d="M418.56 638.895L835.414 222.041" stroke="#C49F8A" stroke-miterlimit="10"/>
<path d="M431.586 651.922L848.44 235.068" stroke="#C49F8A" stroke-miterlimit="10"/>
<path d="M444.613 664.949L861.467 248.095" stroke="#C49F8A" stroke-miterlimit="10"/>
<path d="M457.64 677.975L874.494 261.121" stroke="#C49F8A" stroke-miterlimit="10"/>
<path d="M444.613 664.949L861.467 248.095" stroke="#C49F8A" stroke-miterlimit="10"/>
<path d="M470.667 691.002L887.52 274.148" stroke="#C49F8A" stroke-miterlimit="10"/>
<path d="M483.693 704.029L900.547 287.175" stroke="#C49F8A" stroke-miterlimit="10"/>
<path d="M496.72 717.055L913.574 300.201" stroke="#C49F8A" stroke-miterlimit="10"/>
<path d="M509.747 730.082L926.6 313.228" stroke="#C49F8A" stroke-miterlimit="10"/>
<path d="M522.773 743.109L939.627 326.255" stroke="#C49F8A" stroke-miterlimit="10"/>
<path d="M535.8 756.135L952.654 339.281" stroke="#C49F8A" stroke-miterlimit="10"/>
<path d="M548.827 769.162L965.681 352.308" stroke="#C49F8A" stroke-miterlimit="10"/>
<path d="M561.853 756.135L144.999 339.281" stroke="#C49F8A" stroke-miterlimit="10"/>
<path d="M548.827 769.162L131.973 352.308" stroke="#C49F8A" stroke-miterlimit="10"/>
<path d="M574.88 743.109L158.026 326.255" stroke="#C49F8A" stroke-miterlimit="10"/>
<path d="M587.906 730.082L171.053 313.228" stroke="#C49F8A" stroke-miterlimit="10"/>
<path d="M600.933 717.055L184.079 300.201" stroke="#C49F8A" stroke-miterlimit="10"/>
<path d="M613.96 704.029L197.106 287.175" stroke="#C49F8A" stroke-miterlimit="10"/>
<path d="M626.987 691.002L210.133 274.148" stroke="#C49F8A" stroke-miterlimit="10"/>
<path d="M640.013 677.975L223.16 261.121" stroke="#C49F8A" stroke-miterlimit="10"/>
<path d="M653.04 664.949L236.186 248.095" stroke="#C49F8A" stroke-miterlimit="10"/>
<path d="M666.067 651.922L249.213 235.068" stroke="#C49F8A" stroke-miterlimit="10"/>
<path d="M653.04 664.949L236.186 248.095" stroke="#C49F8A" stroke-miterlimit="10"/>
<path d="M679.093 638.895L262.24 222.041" stroke="#C49F8A" stroke-miterlimit="10"/>
<path d="M692.12 625.869L275.266 209.015" stroke="#C49F8A" stroke-miterlimit="10"/>
<path d="M705.147 612.842L288.293 195.988" stroke="#C49F8A" stroke-miterlimit="10"/>
<path d="M718.173 599.815L301.32 182.961" stroke="#C49F8A" stroke-miterlimit="10"/>
<path d="M731.2 586.788L314.346 169.935" stroke="#C49F8A" stroke-miterlimit="10"/>
<path d="M744.227 573.762L327.373 156.908" stroke="#C49F8A" stroke-miterlimit="10"/>
<path d="M757.254 560.735L340.4 143.881" stroke="#C49F8A" stroke-miterlimit="10"/>
<path d="M770.28 547.708L353.426 130.854" stroke="#C49F8A" stroke-miterlimit="10"/>
<path d="M757.254 560.735L340.4 143.881" stroke="#C49F8A" stroke-miterlimit="10"/>
<path d="M783.307 534.681L366.453 117.828" stroke="#C49F8A" stroke-miterlimit="10"/>
<path d="M796.334 521.655L379.48 104.801" stroke="#C49F8A" stroke-miterlimit="10"/>
<path d="M809.36 508.628L392.506 91.7744" stroke="#C49F8A" stroke-miterlimit="10"/>
<path d="M822.387 495.601L405.533 78.7476" stroke="#C49F8A" stroke-miterlimit="10"/>
<path d="M835.414 482.575L418.56 65.7207" stroke="#C49F8A" stroke-miterlimit="10"/>
<path d="M848.44 469.548L431.586 52.6943" stroke="#C49F8A" stroke-miterlimit="10"/>
<path d="M861.467 456.521L444.613 39.6675" stroke="#C49F8A" stroke-miterlimit="10"/>
<path d="M874.494 443.494L457.64 26.6406" stroke="#C49F8A" stroke-miterlimit="10"/>
<path d="M861.467 456.521L444.613 39.6675" stroke="#C49F8A" stroke-miterlimit="10"/>
<path d="M887.52 430.468L470.667 13.6143" stroke="#C49F8A" stroke-miterlimit="10"/>
<path d="M900.547 417.441L483.693 0.587402" stroke="#C49F8A" stroke-miterlimit="10"/>
<path d="M913.574 404.415L496.72 -12.439" stroke="#C49F8A" stroke-miterlimit="10"/>
<path d="M926.6 391.388L509.747 -25.4658" stroke="#C49F8A" stroke-miterlimit="10"/>
<path d="M939.627 378.361L522.773 -38.4927" stroke="#C49F8A" stroke-miterlimit="10"/>
<path d="M952.654 365.335L535.8 -51.519" stroke="#C49F8A" stroke-miterlimit="10"/>
<path d="M965.68 352.308L548.827 -64.5459" stroke="#C49F8A" stroke-miterlimit="10"/>
<g opacity="0.3">
<path opacity="0.7" d="M750.176 137.932L347.477 137.932L347.477 540.631H750.176V137.932Z" fill="#C49F8A"/>
</g>
</g>
<path d="M285.625 323.125H430.875V314.375H430V310.875H427.125V314.375H302.875V300H285.625V314.375V323.125Z" fill="#565440"/>
<path d="M302.875 239.375H300V215.25H427.125V288.5H430V215.25L435.875 215.25V212.375L430 212.375H427.125H300V178.875H285.625V239.375V259.625H302.875V239.375Z" fill="#565440"/>
<path d="M303 118.25H285.625V138.5H303V118.25Z" fill="#565440"/>
<path d="M372.125 89.375L432.5 89.375V75L372.125 75H351.875V92.375H372.125V89.375Z" fill="#565440"/>
<path d="M600 118.25V248.375L532 248.375H529.125H521.125V251.25H529.125V259.625H532V251.25L588.25 251.25V260.5H590.75H591.125H600V314.375H536.5H531.875V285H529V304.375H518.375H515.5V307.25V327H470.125V251.25H473H475.875H499.375V248.375H475.875V245.125H473V248.375H470.125H467.25V251.25L467.25 354.75H470.125L470.125 329.875H527.875V387.25H470.125V377.25H467.25V426.75V429.625H470.125H472.5V426.75H470.125V390.125H527.875V426.75H492.5V429.625H527.875V432.5H536.5V323H614.375V314.375V118.25H600ZM527.875 327H518.5V307.25H529.125V314.375H528V323V327H527.875ZM591.125 257.625V251.25H600V257.625H591.125Z" fill="#565440"/>
<path d="M473.125 222.5H476V92.375H493.25V89.375L549.875 89.375V75L493.25 75H473.125V89.375V92.375V212.375H457.25V215.25H473.125V222.5Z" fill="#565440"/>
<path d="M300 360.625H285.625V380.875H300V360.625Z" fill="#565440"/>
<path d="M303 421.125H285.625V441.375H303V421.125Z" fill="#565440"/>
<path d="M527.875 483.25H489.25V486.125H527.875V516.375H478.375V508.375V507.875V505.5H466.125V486.125H467.75V483.25H466.125H463.25V486.125V505.5V508.375V516.375H302.875V506.5H300V481H285.625V506.5V525H301H303H536.625V516.375V461.125H528V483.25H527.875ZM466.125 508.375H475.5V516.375H466.125V508.375Z" fill="#565440"/>
<path d="M608.625 76.5L287 76.5V301.5H291.375V80.75L608.625 80.75V119.75H613V76.5H608.625Z" stroke="#565440"/>
<path d="M287 321.625H291.375V483.125H287V321.625Z" stroke="#565440"/>
<path d="M467.5 377.75C464.375 377.75 461.75 377.125 458.875 376C456 374.875 453.375 373.125 451.375 371.125C449.125 369.125 447.375 366.5 446.125 363.625C445 360.75 444.375 357.875 444.375 354.625H467.5" stroke="#565440"/>
<path d="M493.5 428.75C493.5 431.875 492.875 434.5 491.75 437.375C490.625 440.25 488.875 442.875 486.875 444.875C484.875 447.125 482.25 448.875 479.375 450.125C476.5 451.25 473.625 451.875 470.375 451.875V428.75" stroke="#565440"/>
<path d="M490.875 483.5C490.875 480.375 490.25 477.75 489.125 474.875C488 472 486.25 469.375 484.25 467.375C482.25 465.125 479.625 463.375 476.75 462.125C473.875 461 471 460.375 467.75 460.375V483.5" stroke="#565440"/>
<path d="M536.375 461.375C540.125 461.375 543.625 460.5 547 459.125C550.5 457.625 553.875 455.625 556.5 452.75C559.125 450.125 561.375 447 562.875 443.5C564.375 440 565.125 436.25 565.125 432.5H536.25" stroke="#565440"/>
<path d="M434.75 213.25C434.75 210.125 435.375 207.5 436.5 204.625C437.625 201.75 439.375 199.125 441.375 197.125C443.375 194.875 446 193.125 448.875 191.875C451.75 190.75 454.625 190.125 457.875 190.125V213.25" stroke="#565440"/>
<path d="M473.125 245.375C470 245.375 467.375 244.75 464.5 243.625C461.625 242.5 459 240.75 457 238.75C454.75 236.75 453 234.125 451.75 231.25C450.625 228.375 450 225.5 450 222.25H473.125" stroke="#565440"/>
<path d="M427.625 311.125C424.5 311.125 421.875 310.5 419 309.375C416.125 308.25 413.5 306.5 411.5 304.5C409.25 302.5 407.5 299.875 406.25 297C405 294.125 404.5 291.25 404.5 288H427.625" stroke="#565440"/>
<path d="M499.125 249.375C499.125 246.25 499.75 243.625 500.875 240.75C502 237.875 503.75 235.25 505.75 233.25C507.75 231 510.375 229.25 513.25 228C516.125 226.75 519 226.25 522.25 226.25V249.375" stroke="#565440"/>
<path d="M416.875 152.875H367.25V211.625H416.875V152.875Z" fill="#E9E4DC"/>
<path d="M416.25 153.5V211H367.875V153.5H416.25ZM417.5 152.25H366.625V212.25H417.5V152.25Z" fill="#C49F8A"/>
<path d="M413.125 193.25H393.25V208.125H413.125V193.25Z" fill="#E9E4DC" stroke="#C49F8A"/>
<path d="M390.875 193.25H371V208.125H390.875V193.25Z" fill="#E9E4DC" stroke="#C49F8A"/>
<path d="M406.826 184.953L392.458 188.802L396.308 203.17L410.676 199.32L406.826 184.953Z" fill="#E9E4DC" stroke="#C49F8A" stroke-width="0.99997" stroke-miterlimit="3.99968"/>
<path d="M377.148 184.955L373.299 199.323L387.667 203.172L391.516 188.805L377.148 184.955Z" fill="#E9E4DC" stroke="#C49F8A" stroke-width="0.99997" stroke-miterlimit="3.99968"/>
<path d="M367.25 199.125V152.25H416.75V196L386.875 200.375L367.25 199.125Z" fill="#E9E4DC"/>
<path d="M416.125 152.875V195.5L386.875 199.75L367.875 198.625V153L416.125 152.875ZM417.375 151.625H366.5V198.75V199.75L386.875 201L417.375 196.625V196.25V151.625H417.375Z" fill="#C49F8A"/>
<path d="M367.25 198.25H387.125L416.875 195.75" stroke="#C49F8A"/>
<path d="M426.5 215.875H361.875V257.5H426.5V215.875Z" fill="#E9E4DC"/>
<path d="M425.875 216.5V256.875H362.5V216.5H425.875ZM427.125 215.25H361.25V258.125H427.125V215.25Z" fill="#C49F8A"/>
<path d="M422.375 218.875H406.125V235.625H422.375V218.875Z" fill="#E9E4DC" stroke="#C49F8A"/>
<path d="M422.375 237.75H406.125V254.5H422.375V237.75Z" fill="#E9E4DC" stroke="#C49F8A"/>
<path d="M412.75 221L417 233L401.25 236.25L397 224.125L412.75 221Z" fill="#E9E4DC" stroke="#C49F8A" stroke-miterlimit="3.9998"/>
<path d="M401.25 237.125L417 240.375L412.75 252.5L397 249.25L401.25 237.125Z" fill="#E9E4DC" stroke="#C49F8A" stroke-miterlimit="3.9998"/>
<path d="M361.25 257.5V215.875H409.375L414.125 241L412.75 257.5H361.25Z" fill="#E9E4DC"/>
<path d="M408.875 216.5L413.5 241L412.25 256.875H361.875V216.5H408.875ZM409.875 215.25H409.5H360.625V258.125H412.375H413.375L414.75 241L409.875 215.25Z" fill="#C49F8A"/>
<path d="M411.625 257.5V240.75L408.875 215.75" stroke="#C49F8A"/>
<path d="M599.375 149.25H534.75V190.875H599.375V149.25Z" fill="#E9E4DC"/>
<path d="M598.75 149.875V190.25H535.375V149.875H598.75V149.875ZM600 148.625H534.125V191.5H600V148.625Z" fill="#C49F8A"/>
<path d="M595.25 152.375H579V169.125H595.25V152.375Z" fill="#E9E4DC" stroke="#C49F8A"/>
<path d="M595.25 171.125H579V187.875H595.25V171.125Z" fill="#E9E4DC" stroke="#C49F8A"/>
<path d="M585.625 154.375L589.875 166.5L574.125 169.75L569.875 157.625L585.625 154.375Z" fill="#E9E4DC" stroke="#C49F8A" stroke-miterlimit="3.9998"/>
<path d="M574.125 170.625L589.875 173.875L585.625 186L569.875 182.75L574.125 170.625Z" fill="#E9E4DC" stroke="#C49F8A" stroke-miterlimit="3.9998"/>
<path d="M534.125 191V149.375H582.25L587 174.5L585.625 191H534.125Z" fill="#E9E4DC"/>
<path d="M581.75 150L586.375 174.5L585.125 190.375H534.75V150H581.75ZM582.75 148.75H582.375H533.5V191.625H585.25H586.25L587.625 174.5L582.75 148.75Z" fill="#C49F8A"/>
<path d="M584.5 191V174.25L581.75 149.125" stroke="#C49F8A"/>
<path d="M598.625 97.75H550.5V100H598.625V97.75Z" fill="#E9E4DC"/>
<path d="M598 98.375V99.375H551.125V98.375H598ZM599.25 97.125H549.875V100.625H599.25V97.125Z" fill="#C49F8A"/>
<path d="M598.625 82H550.5V97.75H598.625V82Z" fill="#E9E4DC"/>
<path d="M598 82.625V97.125H551.125V82.625H598ZM599.25 81.375H549.875V98.375H599.25V81.375Z" fill="#C49F8A"/>
<path d="M599 81.875L550.125 97.75L599 81.875Z" fill="#E9E4DC"/>
<path d="M599 81.875L550.125 97.75" stroke="#C49F8A"/>
<path d="M599.375 292.875H547.375V313.75H599.375V292.875Z" fill="#E9E4DC"/>
<path d="M598.75 293.5V313.125H548V293.5H598.75ZM600 292.25H546.75V314.375H600V292.25Z" fill="#C49F8A"/>
<path d="M595.125 303.375C595.125 299.25 591.625 296.125 587.625 296.5C583.125 296.875 577.625 297.25 573.375 297.25C569.25 297.25 563.625 296.875 559.125 296.5C555.125 296.125 551.625 299.375 551.625 303.375C551.625 307.375 555.125 310.625 559.125 310.25C563.625 309.875 569.125 309.5 573.375 309.5C577.5 309.5 583.125 309.875 587.625 310.25C591.625 310.625 595.125 307.375 595.125 303.375Z" fill="#E9E4DC" stroke="#C49F8A" stroke-linejoin="round"/>
<path d="M588 304.5C588.621 304.5 589.125 303.996 589.125 303.375C589.125 302.754 588.621 302.25 588 302.25C587.379 302.25 586.875 302.754 586.875 303.375C586.875 303.996 587.379 304.5 588 304.5Z" fill="#E9E4DC" stroke="#C49F8A" stroke-linejoin="round"/>
<path d="M527.25 365.75H475.25V386.625H527.25V365.75Z" fill="#E9E4DC"/>
<path d="M526.625 366.375V386H475.875V366.375H526.625ZM527.875 365.125H474.625V387.25H527.875V365.125Z" fill="#C49F8A"/>
<path d="M523 376.25C523 372.125 519.5 369 515.5 369.375C511 369.75 505.5 370.125 501.25 370.125C497.125 370.125 491.5 369.75 487 369.375C483 369 479.5 372.25 479.5 376.25C479.5 380.25 483 383.5 487 383.125C491.5 382.75 497 382.375 501.25 382.375C505.375 382.375 511 382.75 515.5 383.125C519.5 383.5 523 380.25 523 376.25Z" fill="#E9E4DC" stroke="#C49F8A" stroke-linejoin="round"/>
<path d="M515.875 377.375C516.496 377.375 517 376.871 517 376.25C517 375.629 516.496 375.125 515.875 375.125C515.254 375.125 514.75 375.629 514.75 376.25C514.75 376.871 515.254 377.375 515.875 377.375Z" fill="#E9E4DC" stroke="#C49F8A" stroke-linejoin="round"/>
<path d="M572.5 251.875H554.875V263.625H572.5V251.875Z" fill="#E9E4DC"/>
<path d="M571.875 252.5V263H555.5V252.5H571.875ZM573.125 251.25H554.25V264.25H573.125V251.25Z" fill="#C49F8A"/>
<path d="M563.75 261.375C561.75 261.375 560.125 259.75 560.125 257.75C560.125 255.75 561.75 254.125 563.75 254.125C565.75 254.125 567.375 255.75 567.375 257.75C567.375 259.75 565.625 261.375 563.75 261.375Z" fill="#E9E4DC"/>
<path d="M563.75 254.75C565.375 254.75 566.75 256.125 566.75 257.75C566.75 259.375 565.375 260.75 563.75 260.75C562.125 260.75 560.75 259.375 560.75 257.75C560.75 256.125 562.125 254.75 563.75 254.75ZM563.75 253.5C561.375 253.5 559.5 255.375 559.5 257.75C559.5 260.125 561.375 262 563.75 262C566.125 262 568 260.125 568 257.75C567.875 255.375 566 253.5 563.75 253.5Z" fill="#C49F8A"/>
<path d="M341.25 403.125H381V432.125H341.25V403.125Z" fill="#E9E4DC" stroke="#C49F8A"/>
<path d="M338.625 409.625H338C333.625 409.625 330 413.25 330 417.625C330 422 333.625 425.625 338 425.625H338.625V409.625Z" fill="#E9E4DC" stroke="#C49F8A"/>
<path d="M341.25 411.625H338.25C334.875 411.625 332.25 414.375 332.25 417.625C332.25 421 335 423.625 338.25 423.625H341.25V411.625Z" fill="#E9E4DC" stroke="#C49F8A"/>
<path d="M383.625 409.625H384.25C388.625 409.625 392.25 413.25 392.25 417.625C392.25 422 388.625 425.625 384.25 425.625H383.625V409.625Z" fill="#E9E4DC" stroke="#C49F8A"/>
<path d="M381 411.625H384C387.375 411.625 390 414.375 390 417.625C390 421 387.25 423.625 384 423.625H381V411.625Z" fill="#E9E4DC" stroke="#C49F8A"/>
<path d="M369.125 434.625V435.25C369.125 439.625 365.5 443.25 361.125 443.25C356.75 443.25 353.125 439.625 353.125 435.25V434.625H369.125Z" fill="#E9E4DC" stroke="#C49F8A"/>
<path d="M367.125 432V435C367.125 438.375 364.375 441 361.125 441C357.75 441 355.125 438.25 355.125 435V432H367.125Z" fill="#E9E4DC" stroke="#C49F8A"/>
<path d="M369.125 400.5V399.875C369.125 395.5 365.5 391.875 361.125 391.875C356.75 391.875 353.125 395.5 353.125 399.875V400.5H369.125Z" fill="#E9E4DC" stroke="#C49F8A"/>
<path d="M367.125 403.125V400.125C367.125 396.75 364.375 394.125 361.125 394.125C357.75 394.125 355.125 396.875 355.125 400.125V403.125H367.125Z" fill="#E9E4DC" stroke="#C49F8A"/>
<path d="M336.5 111H323.5L321.75 99.125H338.25L336.5 111Z" fill="#E9E4DC" stroke="#C49F8A"/>
<path d="M351.25 81.375L292.5 81.375V100.25H351.25V81.375Z" fill="#E9E4DC"/>
<path d="M350.625 82V99.625H293.125V82H350.625ZM351.875 80.75L291.875 80.75V100.875H351.875V80.75Z" fill="#C49F8A"/>
<path d="M334.25 95.25H324.25H334.25ZM335.125 97.25H323.375V93.75H335.125V97.25Z" stroke="#C49F8A"/>
<path d="M340 97.375C339.5 97.375 339.125 97 339.125 96.5V95.375C339.125 94.875 339.5 94.5 340 94.5C340.5 94.5 340.875 94.875 340.875 95.375V96.5C341 97 340.5 97.375 340 97.375Z" fill="#E9E4DC" stroke="#C49F8A"/>
<path d="M332.25 88C332.25 89.625 330.875 91 329.25 91C327.625 91 326.25 89.625 326.25 88V85H332.125L332.25 88Z" fill="#E9E4DC" stroke="#C49F8A"/>
<path d="M313.952 84.9653L313.95 86.0903L344.7 86.1425L344.702 85.0175L313.952 84.9653Z" fill="#E9E4DC" stroke="#C49F8A" stroke-miterlimit="4.00001"/>
<path d="M336 100.875H323.875V111H336V100.875Z" fill="#E9E4DC"/>
<path d="M335.375 101.5V110.375H324.5V101.5H335.375ZM336.625 100.25H323.25V111.625H336.625V100.25Z" fill="#C49F8A"/>
<path d="M336.375 111.125H323.5V113.375H336.375V111.125Z" fill="#E9E4DC"/>
<path d="M335.75 111.75V112.75H324.125V111.75H335.75ZM337 110.5H322.875V114H337V110.5Z" fill="#C49F8A"/>
<path d="M497.75 330.5H475.5V344.125H497.75V330.5Z" fill="#E9E4DC"/>
<path d="M497.125 331.125V343.5H476.125V331.125H497.125ZM498.375 329.875H474.875V344.75H498.375V329.875Z" fill="#C49F8A"/>
<path d="M478.875 337.375C478.875 339.875 480.875 341.875 483.375 341.875H489.875C492.375 341.875 494.375 339.875 494.375 337.375C494.375 334.875 492.375 332.875 489.875 332.875H483.375C480.875 332.75 478.875 334.875 478.875 337.375Z" fill="#E9E4DC" stroke="#C49F8A"/>
<path d="M486.625 337.125C487.246 337.125 487.75 336.621 487.75 336C487.75 335.379 487.246 334.875 486.625 334.875C486.004 334.875 485.5 335.379 485.5 336C485.5 336.621 486.004 337.125 486.625 337.125Z" fill="#E9E4DC" stroke="#C49F8A"/>
<path d="M554.875 251.875H532.625V265.5H554.875V251.875Z" fill="#E9E4DC"/>
<path d="M554.25 252.5V264.875H533.25V252.5H554.25ZM555.5 251.25H532V266.125H555.5V251.25Z" fill="#C49F8A"/>
<path d="M535.875 258.75C535.875 261.25 537.875 263.25 540.375 263.25H546.875C549.375 263.25 551.375 261.25 551.375 258.75C551.375 256.25 549.375 254.25 546.875 254.25H540.375C538 254.125 535.875 256.125 535.875 258.75Z" fill="#E9E4DC" stroke="#C49F8A"/>
<path d="M543.75 258.5C544.371 258.5 544.875 257.996 544.875 257.375C544.875 256.754 544.371 256.25 543.75 256.25C543.129 256.25 542.625 256.754 542.625 257.375C542.625 257.996 543.129 258.5 543.75 258.5Z" fill="#E9E4DC" stroke="#C49F8A"/>
<path d="M599.375 261.125H595.75V274.375H599.375V261.125Z" fill="#E9E4DC"/>
<path d="M598.75 261.75V273.75H596.375V261.75H598.75ZM600 260.5H595.125V275H600V260.5Z" fill="#C49F8A"/>
<path d="M586.625 272.5C583.875 272.625 581.5 270.5 581.5 267.75C581.5 265 583.875 262.875 586.625 263L595.375 263.625V271.875L586.625 272.5Z" fill="#E9E4DC" stroke="#C49F8A"/>
<path d="M587.25 270.625C585.5 270.75 584 269.375 584 267.75C584 266 585.5 264.625 587.25 264.875L591.875 265.25V270.25L587.25 270.625Z" fill="#E9E4DC" stroke="#C49F8A"/>
<path d="M589.25 268.875C589.871 268.875 590.375 268.371 590.375 267.75C590.375 267.129 589.871 266.625 589.25 266.625C588.629 266.625 588.125 267.129 588.125 267.75C588.125 268.371 588.629 268.875 589.25 268.875Z" fill="#E9E4DC" stroke="#C49F8A"/>
<path d="M527.375 493.5H513.75V515.75H527.375V493.5Z" fill="#E9E4DC"/>
<path d="M526.625 494.125V515.125H514.25V494.125H526.625ZM527.875 492.875H513V516.375H527.875V492.875Z" fill="#C49F8A"/>
<path d="M520.5 512.375C518 512.375 516 510.375 516 507.875V501.375C516 498.875 518 496.875 520.5 496.875C523 496.875 525 498.875 525 501.375V507.875C525 510.375 523 512.375 520.5 512.375Z" fill="#E9E4DC" stroke="#C49F8A"/>
<path d="M521.875 505.75C522.496 505.75 523 505.246 523 504.625C523 504.004 522.496 503.5 521.875 503.5C521.254 503.5 520.75 504.004 520.75 504.625C520.75 505.246 521.254 505.75 521.875 505.75Z" fill="#E9E4DC" stroke="#C49F8A"/>
<path d="M497.75 512H484.5V515.625H497.75V512Z" fill="#E9E4DC"/>
<path d="M497.125 512.625V515H485.125V512.625H497.125ZM498.375 511.375H483.875V516.25H498.375V511.375Z" fill="#C49F8A"/>
<path d="M486.375 503C486.25 500.25 488.375 497.875 491.125 497.875C493.875 497.875 496 500.25 495.875 503L495.25 511.75H487L486.375 503Z" fill="#E9E4DC" stroke="#C49F8A"/>
<path d="M488.25 503.5C488.125 501.75 489.5 500.25 491.125 500.25C492.875 500.25 494.25 501.75 494 503.5L493.625 508.125H488.625L488.25 503.5Z" fill="#E9E4DC" stroke="#C49F8A"/>
<path d="M491.125 506.625C491.746 506.625 492.25 506.121 492.25 505.5C492.25 504.879 491.746 504.375 491.125 504.375C490.504 504.375 490 504.879 490 505.5C490 506.121 490.504 506.625 491.125 506.625Z" fill="#E9E4DC" stroke="#C49F8A"/>
<path d="M527.25 332.25H523.625V345.5H527.25V332.25Z" fill="#E9E4DC"/>
<path d="M526.625 332.875V344.875H524.25V332.875H526.625ZM527.875 331.625H523V346.125H527.875V331.625Z" fill="#C49F8A"/>
<path d="M514.5 343.625C511.75 343.75 509.375 341.625 509.375 338.875C509.375 336.125 511.75 334 514.5 334.125L523.25 334.75V343L514.5 343.625Z" fill="#E9E4DC" stroke="#C49F8A"/>
<path d="M515.125 341.875C513.375 342 511.875 340.625 511.875 339C511.875 337.25 513.375 335.875 515.125 336.125L519.75 336.5V341.5L515.125 341.875Z" fill="#E9E4DC" stroke="#C49F8A"/>
<path d="M517.125 340C517.746 340 518.25 339.496 518.25 338.875C518.25 338.254 517.746 337.75 517.125 337.75C516.504 337.75 516 338.254 516 338.875C516 339.496 516.504 340 517.125 340Z" fill="#E9E4DC" stroke="#C49F8A"/>
<path d="M417.875 97.75H374.25V100H417.875V97.75Z" fill="#E9E4DC"/>
<path d="M417.25 98.375V99.375H374.875V98.375H417.25ZM418.5 97.125H373.625V100.625H418.5V97.125Z" fill="#C49F8A"/>
<path d="M417.875 90H374.25V97.625H417.875V90Z" fill="#E9E4DC"/>
<path d="M417.25 90.625V97H374.875V90.625H417.25ZM418.5 89.375H373.625V98.25H418.5V89.375Z" fill="#C49F8A"/>
<path d="M411.375 92H380.625V94.25H411.375V92Z" fill="#E9E4DC"/>
<path d="M410.75 92.625V93.75H381.25V92.75H410.75V92.625ZM412 91.375H380V95H412V91.375Z" fill="#C49F8A"/>
<path d="M389.75 92.125H402.375L401.25 89.875H390.875L389.75 92.125Z" fill="#E9E4DC" stroke="#C49F8A"/>
<path d="M462.625 498.125H303.5V515.75H462.625V498.125Z" fill="#E9E4DC"/>
<path d="M462 498.75V515.125H304.125V498.75H462ZM463.25 497.5H302.875V516.375H463.25V497.5Z" fill="#C49F8A"/>
<path d="M449.875 498.125H432.25V515.75H449.875V498.125Z" fill="#E9E4DC"/>
<path d="M449.25 498.75V515.125H432.875V498.75H449.25ZM450.5 497.5H431.625V516.375H450.5V497.5Z" fill="#C49F8A"/>
<path d="M362.125 499.875H339.75V514H362.125V499.875Z" fill="#E9E4DC" stroke="#C49F8A"/>
<path d="M348.5 506.875C348.5 504 350.875 501.625 353.75 501.625H354.875C357.75 501.625 360.125 504 360.125 506.875C360.125 509.75 357.75 512.125 354.875 512.125H353.75C350.875 512.25 348.5 509.875 348.5 506.875Z" fill="#E9E4DC" stroke="#C49F8A"/>
<path d="M354.375 510.375C354.996 510.375 355.5 509.871 355.5 509.25C355.5 508.629 354.996 508.125 354.375 508.125C353.754 508.125 353.25 508.629 353.25 509.25C353.25 509.871 353.754 510.375 354.375 510.375Z" fill="#E9E4DC" stroke="#C49F8A"/>
<path d="M340.875 511.625H346.75" stroke="#C49F8A"/>
<path d="M340.875 509.25H346.75" stroke="#C49F8A"/>
<path d="M340.875 506.875H346.75" stroke="#C49F8A"/>
<path d="M340.875 504.5H346.75" stroke="#C49F8A"/>
<path d="M340.875 502.125H346.75" stroke="#C49F8A"/>
<path d="M394.875 498.125H377.75V515.75H394.875V498.125Z" fill="#E9E4DC"/>
<path d="M394.25 498.75V515.125H378.375V498.75H394.25ZM395.5 497.5H377.125V516.375H395.5V497.5Z" fill="#C49F8A"/>
<path d="M394.875 513.375H377.75V515.625H394.875V513.375Z" fill="#E9E4DC"/>
<path d="M394.25 514V515H378.375V514H394.25ZM395.5 512.75H377.125V516.25H395.5V512.75Z" fill="#C49F8A"/>
<path d="M382.75 510.375C383.509 510.375 384.125 509.759 384.125 509C384.125 508.241 383.509 507.625 382.75 507.625C381.991 507.625 381.375 508.241 381.375 509C381.375 509.759 381.991 510.375 382.75 510.375Z" fill="#E9E4DC"/>
<path d="M382.75 508.25C383.125 508.25 383.5 508.625 383.5 509C383.5 509.375 383.125 509.75 382.75 509.75C382.375 509.75 382 509.375 382 509C382 508.625 382.375 508.25 382.75 508.25ZM382.75 507C381.625 507 380.75 507.875 380.75 509C380.75 510.125 381.625 511 382.75 511C383.875 511 384.75 510.125 384.75 509C384.75 507.875 383.875 507 382.75 507Z" fill="#C49F8A"/>
<path d="M382.75 504.875C383.786 504.875 384.625 504.036 384.625 503C384.625 501.964 383.786 501.125 382.75 501.125C381.714 501.125 380.875 501.964 380.875 503C380.875 504.036 381.714 504.875 382.75 504.875Z" fill="#E9E4DC"/>
<path d="M382.75 501.75C383.375 501.75 384 502.25 384 503C384 503.75 383.5 504.25 382.75 504.25C382.125 504.25 381.5 503.75 381.5 503C381.5 502.25 382.125 501.75 382.75 501.75ZM382.75 500.5C381.375 500.5 380.25 501.625 380.25 503C380.25 504.375 381.375 505.5 382.75 505.5C384.125 505.5 385.25 504.375 385.25 503C385.25 501.625 384.125 500.5 382.75 500.5Z" fill="#C49F8A"/>
<path d="M389.625 510.875C390.661 510.875 391.5 510.036 391.5 509C391.5 507.964 390.661 507.125 389.625 507.125C388.589 507.125 387.75 507.964 387.75 509C387.75 510.036 388.589 510.875 389.625 510.875Z" fill="#E9E4DC"/>
<path d="M389.625 507.75C390.25 507.75 390.875 508.25 390.875 509C390.875 509.75 390.375 510.25 389.625 510.25C388.875 510.25 388.375 509.75 388.375 509C388.375 508.25 389 507.75 389.625 507.75ZM389.625 506.5C388.25 506.5 387.125 507.625 387.125 509C387.125 510.375 388.25 511.5 389.625 511.5C391 511.5 392.125 510.375 392.125 509C392.125 507.625 391 506.5 389.625 506.5Z" fill="#C49F8A"/>
<path d="M389.625 503.875C390.384 503.875 391 503.259 391 502.5C391 501.741 390.384 501.125 389.625 501.125C388.866 501.125 388.25 501.741 388.25 502.5C388.25 503.259 388.866 503.875 389.625 503.875Z" fill="#E9E4DC"/>
<path d="M389.625 501.75C390 501.75 390.375 502.125 390.375 502.5C390.375 502.875 390 503.25 389.625 503.25C389.25 503.25 388.875 502.875 388.875 502.5C388.875 502.125 389.25 501.75 389.625 501.75ZM389.625 500.5C388.5 500.5 387.625 501.375 387.625 502.5C387.625 503.625 388.5 504.5 389.625 504.5C390.75 504.5 391.625 503.625 391.625 502.5C391.625 501.375 390.75 500.5 389.625 500.5Z" fill="#C49F8A"/>
<path d="M439.25 510L442.875 503.75M437.5 506.875H444.625H437.5ZM439.25 503.75L442.875 510L439.25 503.75Z" stroke="#C49F8A"/>
<path d="M324.5 361.5C324.5 362.25 323.875 363 323 363H308.375V329.5H324.5V361.5Z" fill="#E9E4DC" stroke="#C49F8A"/>
<path d="M350.5 344.125C350.5 344.875 349.875 345.625 349 345.625H326.125C325.25 345.625 324.625 345 324.625 344.125V329.375H350.625V344.125H350.5Z" fill="#E9E4DC" stroke="#C49F8A"/>
<path d="M375.5 344.125C375.5 344.875 374.875 345.625 374 345.625H352C351.25 345.625 350.5 345 350.5 344.125V329.375H375.5V344.125H375.5Z" fill="#E9E4DC" stroke="#C49F8A"/>
<path d="M375.5 346.75H381V323.625H302.625V368.625H325.875V362.875H308.5V329.375H375.625V346.75H375.5Z" fill="#E9E4DC" stroke="#C49F8A"/>
<path d="M574.5 121.75C579.885 121.75 584.25 117.385 584.25 112C584.25 106.615 579.885 102.25 574.5 102.25C569.115 102.25 564.75 106.615 564.75 112C564.75 117.385 569.115 121.75 574.5 121.75Z" fill="#E9E4DC" stroke="#C49F8A"/>
<path d="M348.75 231.625H300.625V233.875H348.75V231.625Z" fill="#E9E4DC"/>
<path d="M301.25 232.25H348.125V233.25H301.25V232.25ZM300 231V234.5H349.375V231H300Z" fill="#C49F8A"/>
<path d="M348.75 215.875H300.625V231.625H348.75V215.875Z" fill="#E9E4DC"/>
<path d="M301.25 216.5H348.125V231H301.25V216.5ZM300 215.25V232.25H349.375V215.25H300Z" fill="#C49F8A"/>
<path d="M349 215.75L300.125 231.625L349 215.75Z" fill="#E9E4DC"/>
<path d="M349 215.75L300.125 231.625" stroke="#C49F8A"/>
<path d="M358.125 193.625H300.625V195.875H358.125V193.625Z" fill="#E9E4DC"/>
<path d="M357.5 194.25V195.25H301.25V194.25H357.5ZM358.75 193H300V196.5H358.75V193Z" fill="#C49F8A"/>
<path d="M358.125 195.875H300.625V211.625H358.125V195.875Z" fill="#E9E4DC"/>
<path d="M357.5 196.5V211H301.25V196.5H357.5ZM358.75 195.25H300V212.25H358.75V195.25Z" fill="#C49F8A"/>
<path d="M358.375 211.75L300.25 195.875L358.375 211.75Z" fill="#E9E4DC"/>
<path d="M358.375 211.75L300.25 195.875" stroke="#C49F8A"/>
<path d="M374.75 295.75H303.5V298H374.75V295.75Z" fill="#E9E4DC"/>
<path d="M374.25 296.375V297.375H304.25V296.375H374.25ZM375.5 295.125H303V298.625H375.5V295.125Z" fill="#C49F8A"/>
<path d="M374.75 298H303.5V313.75H374.75V298Z" fill="#E9E4DC"/>
<path d="M374.25 298.625V313.125H304.25V298.625H374.25ZM375.5 297.375H303V314.375H375.5V297.375Z" fill="#C49F8A"/>
<path d="M375 313.875L303.25 298L375 313.875Z" fill="#E9E4DC"/>
<path d="M375 313.875L303.25 298" stroke="#C49F8A"/>
<path d="M515 308.375H470.875V310.625H515V308.375Z" fill="#E9E4DC"/>
<path d="M514.375 309V310H471.5V309H514.375ZM515.625 307.75H470.25V311.25H515.625V307.75Z" fill="#C49F8A"/>
<path d="M515 310.625H470.875V326.375H515V310.625Z" fill="#E9E4DC"/>
<path d="M514.375 311.25V325.75H471.5V311.25H514.375ZM515.625 310H470.25V327H515.625V310Z" fill="#C49F8A"/>
<path d="M515.25 326.5L470.375 310.625L515.25 326.5Z" fill="#E9E4DC"/>
<path d="M515.25 326.5L470.375 310.625" stroke="#C49F8A"/>
<path d="M527.375 406.625H470.875V408.875H527.375V406.625Z" fill="#E9E4DC"/>
<path d="M526.625 407.25V408.25H471.375V407.25H526.625ZM527.875 406H470.125V409.5H527.875V406Z" fill="#C49F8A"/>
<path d="M527.375 390.875H470.875V406.625H527.375V390.875Z" fill="#E9E4DC"/>
<path d="M471.5 391.5H526.75V406H471.5V391.5ZM470.25 390.25V407.25H528V390.25H470.25Z" fill="#C49F8A"/>
<path d="M527.5 390.75L470.375 406.625L527.5 390.75Z" fill="#E9E4DC"/>
<path d="M527.5 390.75L470.375 406.625" stroke="#C49F8A"/>
<path d="M516.875 467.875H514.625V482.875H516.875V467.875Z" fill="#E9E4DC"/>
<path d="M516.25 468.5V482.25H515.25V468.5H516.25ZM517.5 467.25H514V483.5H517.5V467.25Z" fill="#C49F8A"/>
<path d="M527.25 467.875H516.875V482.875H527.25V467.875Z" fill="#E9E4DC"/>
<path d="M517.5 468.5H526.625V482.25H517.5V468.5ZM516.25 467.25V483.5H527.875V467.25H516.25Z" fill="#C49F8A"/>
<path d="M527.25 483L516.875 467.625L527.25 483Z" fill="#E9E4DC"/>
<path d="M527.25 483L516.875 467.625" stroke="#C49F8A"/>
<path d="M334.249 247.312C335.112 241.997 331.502 236.989 326.187 236.126C320.872 235.263 315.863 238.873 315.001 244.188C314.138 249.504 317.748 254.512 323.063 255.374C328.378 256.237 333.387 252.627 334.249 247.312Z" fill="#E9E4DC" stroke="#C49F8A"/>
<path d="M382.25 123.125L380.25 125.375H383.625V126.625H378.375V125.5L381 122.625L381.625 121.875C381.75 121.75 381.875 121.5 382 121.25C382.125 121 382.125 120.75 382.125 120.5C382.125 120.125 382 119.875 381.75 119.625C381.5 119.375 381.125 119.25 380.75 119.25C380.125 119.25 379.5 119.5 378.75 120.125L378 119.25C378.875 118.5 379.75 118 380.75 118C381.5 118 382.125 118.25 382.625 118.75C383.125 119.25 383.375 119.875 383.375 120.5C383.5 121.375 383.125 122.125 382.25 123.125Z" fill="#565440"/>
<path d="M384.25 120.25L386.625 118.25H387.625V126.625H386.375V120L384.875 121.125L384.25 120.25Z" fill="#565440"/>
<path d="M332 263L334.375 261H335.375V269.375H334.125V262.75L332.625 263.875L332 263Z" fill="#565440"/>
<path d="M336.75 262.125V261H342V261.875L338.875 269.375H337.5L340.625 262.25H336.75V262.125Z" fill="#565440"/>
<path d="M493.125 277.375C493.875 277.375 494.625 277.625 495.125 278.125C495.625 278.625 495.875 279.25 495.875 280.125C495.875 281 495.625 281.625 495 282.125C494.5 282.625 493.75 282.875 492.875 282.875C491.875 282.875 491 282.5 490.125 281.875L490.75 280.875C491.5 281.375 492.125 281.625 492.875 281.625C493.375 281.625 493.75 281.5 494.125 281.125C494.5 280.875 494.625 280.5 494.625 280C494.625 279.5 494.5 279.125 494.125 278.875C493.875 278.625 493.375 278.375 492.875 278.375C492.25 278.375 491.75 278.625 491.375 279L490.625 278.5L491.125 274.375H495.375V275.5H492.125L491.875 277.5C492.25 277.375 492.625 277.375 493.125 277.375Z" fill="#565440"/>
<path d="M497.625 282.875C497.375 282.875 497.25 282.75 497 282.625C496.875 282.5 496.75 282.25 496.75 282C496.75 281.75 496.875 281.625 497 281.5C497.125 281.375 497.375 281.25 497.625 281.25C497.875 281.25 498 281.375 498.125 281.5C498.25 281.625 498.375 281.875 498.375 282C498.375 282.25 498.25 282.375 498.125 282.625C498 282.875 497.875 282.875 497.625 282.875Z" fill="#565440"/>
<path d="M502.375 274.25C503.375 274.25 504.125 274.625 504.625 275.375C505.125 276.125 505.375 277.125 505.375 278.25C505.375 278.875 505.25 279.5 505.125 280C505 280.5 504.75 281 504.5 281.5C504.25 281.875 503.875 282.25 503.375 282.5C502.875 282.75 502.375 282.875 501.875 282.875C501 282.875 500.25 282.625 499.625 282.125L500.125 281.125C500.625 281.5 501.25 281.75 501.75 281.75C502.5 281.75 503 281.5 503.375 280.875C503.75 280.25 504 279.625 504 278.75C503.75 279.125 503.5 279.375 503.125 279.5C502.75 279.625 502.375 279.75 501.875 279.75C501.125 279.75 500.5 279.5 500 279C499.5 278.5 499.25 277.875 499.25 277.125C499.25 276.375 499.5 275.625 500 275.125C500.75 274.5 501.5 274.25 502.375 274.25ZM503.875 277C503.875 276.5 503.75 276.125 503.375 275.875C503.125 275.5 502.75 275.375 502.25 275.375C501.75 275.375 501.375 275.5 501.125 275.875C500.875 276.25 500.625 276.625 500.625 277C500.625 277.5 500.75 277.875 501.125 278.125C501.375 278.375 501.75 278.625 502.25 278.625C502.75 278.625 503.125 278.5 503.375 278.125C503.75 277.875 503.875 277.5 503.875 277Z" fill="#565440"/>
<path d="M559 277.375C559.75 277.375 560.5 277.625 561 278.125C561.5 278.625 561.75 279.25 561.75 280.125C561.75 281 561.5 281.625 560.875 282.125C560.375 282.625 559.625 282.875 558.75 282.875C557.75 282.875 556.875 282.5 556 281.875L556.625 280.875C557.375 281.375 558 281.625 558.75 281.625C559.25 281.625 559.625 281.5 560 281.125C560.375 280.875 560.5 280.5 560.5 280C560.5 279.5 560.375 279.125 560 278.875C559.75 278.625 559.25 278.375 558.75 278.375C558.125 278.375 557.625 278.625 557.25 279L556.5 278.5L557 274.375H561.25V275.5H558L557.75 277.5C558.125 277.5 558.5 277.375 559 277.375Z" fill="#565440"/>
<path d="M563.625 283C563.375 283 563.25 282.875 563 282.75C562.875 282.625 562.75 282.375 562.75 282.125C562.75 281.875 562.875 281.75 563 281.625C563.125 281.5 563.375 281.375 563.625 281.375C563.875 281.375 564 281.5 564.125 281.625C564.25 281.75 564.375 282 564.375 282.125C564.375 282.375 564.25 282.5 564.125 282.75C564 282.875 563.75 283 563.625 283Z" fill="#565440"/>
<path d="M568.25 274.375C569.25 274.375 570 274.75 570.5 275.5C571 276.25 571.25 277.25 571.25 278.375C571.25 279 571.125 279.625 571 280.125C570.875 280.625 570.625 281.125 570.375 281.625C570.125 282 569.75 282.375 569.25 282.625C568.75 282.875 568.25 283 567.75 283C566.875 283 566.125 282.75 565.5 282.25L566 281.25C566.5 281.625 567.125 281.875 567.625 281.875C568.375 281.875 568.875 281.625 569.25 281C569.625 280.375 569.875 279.75 569.875 278.875C569.625 279.25 569.375 279.5 569 279.625C568.625 279.75 568.25 279.875 567.75 279.875C567 279.875 566.375 279.625 565.875 279.125C565.375 278.625 565.125 278 565.125 277.25C565.125 276.5 565.375 275.75 565.875 275.25C566.75 274.625 567.375 274.375 568.25 274.375ZM569.875 277.125C569.875 276.625 569.75 276.25 569.375 276C569.125 275.625 568.75 275.5 568.25 275.5C567.75 275.5 567.375 275.625 567.125 276C566.875 276.375 566.625 276.75 566.625 277.125C566.625 277.625 566.75 278 567.125 278.25C567.375 278.5 567.75 278.75 568.25 278.75C568.75 278.75 569.125 278.625 569.375 278.25C569.625 278 569.875 277.5 569.875 277.125Z" fill="#565440"/>
<path d="M531.25 138.125L529.25 140.375H532.625V141.625H527.375V140.5L530 137.625L530.625 136.875C530.75 136.75 530.875 136.5 531 136.25C531.125 136 531.125 135.75 531.125 135.5C531.125 135.125 531 134.875 530.75 134.625C530.5 134.375 530.125 134.25 529.75 134.25C529.125 134.25 528.5 134.5 527.75 135.125L527 134.25C527.875 133.5 528.75 133 529.75 133C530.5 133 531.125 133.25 531.625 133.75C532.125 134.25 532.375 134.875 532.375 135.5C532.5 136.375 532.125 137.25 531.25 138.125Z" fill="#565440"/>
<path d="M538.5 141.375C538 141.625 537.5 141.75 537 141.75C536.5 141.75 535.875 141.625 535.5 141.375C534.75 140.875 534.25 140.125 533.875 139C533.75 138.5 533.75 138 533.75 137.375C533.75 136.875 533.75 136.375 533.875 135.875C534 135.375 534.125 134.875 534.5 134.5C534.75 134.125 535.125 133.75 535.5 133.5C535.875 133.25 536.5 133.125 537 133.125C537.625 133.125 538.125 133.25 538.5 133.5C539.25 133.875 539.875 134.75 540.125 135.875C540.375 136.875 540.375 138 540.125 139C539.875 140.125 539.25 140.875 538.5 141.375ZM537 140.5C537.625 140.5 538.125 140.25 538.5 139.625C538.875 139 539 138.25 539 137.375C539 136.5 538.875 135.75 538.5 135.125C538.125 134.5 537.625 134.25 537 134.25C536.375 134.25 535.875 134.5 535.5 135.125C535.125 135.75 535 136.375 535 137.375C535 138.25 535.125 139 535.5 139.625C535.875 140.25 536.375 140.5 537 140.5Z" fill="#565440"/>
<path d="M541.875 141.75C541.625 141.75 541.5 141.625 541.25 141.5C541 141.375 541 141.125 541 140.875C541 140.625 541.125 140.5 541.25 140.375C541.375 140.25 541.625 140.125 541.875 140.125C542.125 140.125 542.25 140.25 542.375 140.375C542.5 140.5 542.625 140.75 542.625 140.875C542.625 141.125 542.5 141.25 542.375 141.5C542.25 141.75 542.125 141.75 541.875 141.75Z" fill="#565440"/>
<path d="M546.5 136.25C547.25 136.25 548 136.5 548.5 137C549 137.5 549.25 138.125 549.25 139C549.25 139.875 549 140.5 548.375 141C547.875 141.5 547.125 141.75 546.25 141.75C545.25 141.75 544.375 141.375 543.5 140.75L544.125 139.75C544.875 140.25 545.5 140.5 546.25 140.5C546.75 140.5 547.125 140.375 547.5 140C547.875 139.75 548 139.375 548 138.875C548 138.375 547.875 138 547.5 137.75C547.25 137.5 546.75 137.25 546.25 137.25C545.625 137.25 545.125 137.5 544.75 137.875L544 137.375L544.5 133.25H548.75V134.375H545.5L545.25 136.375C545.625 136.25 546.125 136.25 546.5 136.25Z" fill="#565440"/>
<path d="M377.625 449.75C376.75 449.75 375.875 449.5 375 448.875L375.625 447.875C376.375 448.375 377 448.5 377.625 448.5C378.125 448.5 378.5 448.375 378.75 448.125C379 447.875 379.125 447.625 379.125 447.125C379.125 446.75 379 446.375 378.625 446.125C378.375 445.875 378 445.75 377.5 445.75H376.5V444.625H377.5C377.875 444.625 378.25 444.5 378.5 444.25C378.75 444 378.875 443.75 378.875 443.375C378.875 443 378.75 442.75 378.5 442.5C378.25 442.25 377.875 442.125 377.5 442.125C377 442.125 376.375 442.375 375.75 442.875L375.125 442C375.375 441.75 375.875 441.5 376.25 441.25C376.75 441.125 377.125 441 377.625 441C378.375 441 379 441.25 379.5 441.625C380 442 380.25 442.625 380.25 443.125C380.25 443.625 380.125 444 379.875 444.25C379.625 444.625 379.25 444.875 378.875 445C379.375 445.125 379.75 445.375 380.125 445.75C380.375 446.125 380.5 446.5 380.5 447.125C380.5 447.875 380.25 448.375 379.75 448.875C379.125 449.5 378.5 449.75 377.625 449.75Z" fill="#565440"/>
<path d="M381.25 442.5V441.375H386.5V442.25L383.375 449.75H382L385.125 442.625H381.25V442.5Z" fill="#565440"/>
<path d="M495.625 418.75L493.625 421H497V422.25H491.75V421.125L494.375 418.25L495 417.5C495.125 417.375 495.25 417.125 495.375 416.875C495.5 416.625 495.5 416.375 495.5 416.125C495.5 415.75 495.375 415.5 495.125 415.25C494.875 415 494.5 414.875 494.125 414.875C493.5 414.875 492.875 415.125 492.125 415.75L491.375 414.875C492.25 414.125 493.125 413.625 494.125 413.625C494.875 413.625 495.5 413.875 496 414.375C496.5 414.875 496.75 415.5 496.75 416.125C496.875 417 496.5 417.75 495.625 418.75Z" fill="#565440"/>
<path d="M498.875 422.375C498.625 422.375 498.5 422.25 498.25 422.125C498 422 498 421.75 498 421.5C498 421.25 498.125 421.125 498.25 421C498.375 420.875 498.625 420.75 498.875 420.75C499.125 420.75 499.25 420.875 499.375 421C499.5 421.125 499.625 421.375 499.625 421.5C499.625 421.75 499.5 421.875 499.375 422.125C499.25 422.375 499.125 422.375 498.875 422.375Z" fill="#565440"/>
<path d="M503.5 413.75C504.5 413.75 505.25 414.125 505.75 414.875C506.25 415.625 506.5 416.625 506.5 417.75C506.5 418.375 506.375 419 506.25 419.5C506.125 420 505.875 420.5 505.625 421C505.375 421.375 505 421.75 504.5 422C504 422.25 503.5 422.375 503 422.375C502.125 422.375 501.375 422.125 500.75 421.625L501.25 420.625C501.75 421 502.375 421.25 502.875 421.25C503.625 421.25 504.125 421 504.5 420.375C504.875 419.75 505.125 419.125 505.125 418.25C504.875 418.625 504.625 418.875 504.25 419C503.875 419.125 503.5 419.25 503 419.25C502.25 419.25 501.625 419 501.125 418.5C500.625 418 500.375 417.375 500.375 416.625C500.375 415.875 500.625 415.125 501.125 414.625C502 414 502.75 413.75 503.5 413.75ZM505.125 416.5C505.125 416 505 415.625 504.625 415.375C504.375 415 504 414.875 503.5 414.875C503 414.875 502.625 415 502.375 415.375C502.125 415.75 501.875 416.125 501.875 416.5C501.875 417 502 417.375 502.375 417.625C502.625 417.875 503 418.125 503.5 418.125C504 418.125 504.375 418 504.625 417.625C505 417.375 505.125 416.875 505.125 416.5Z" fill="#565440"/>
<path d="M491.125 358C490.25 358 489.375 357.75 488.5 357.125L489.125 356.125C489.875 356.625 490.5 356.75 491.125 356.75C491.625 356.75 492 356.625 492.25 356.375C492.5 356.125 492.625 355.875 492.625 355.375C492.625 355 492.5 354.625 492.125 354.375C491.875 354.125 491.5 354 491 354H490V352.875H491C491.375 352.875 491.75 352.75 492 352.5C492.25 352.25 492.375 352 492.375 351.625C492.375 351.25 492.25 351 492 350.75C491.75 350.5 491.375 350.375 491 350.375C490.5 350.375 489.875 350.625 489.25 351.125L488.625 350.25C488.875 350 489.375 349.75 489.75 349.5C490.25 349.375 490.625 349.25 491.125 349.25C491.875 349.25 492.5 349.5 493 349.875C493.5 350.25 493.75 350.875 493.75 351.375C493.75 351.875 493.625 352.25 493.375 352.5C493.125 352.875 492.75 353.125 492.375 353.25C492.875 353.375 493.25 353.625 493.625 354C493.875 354.375 494 354.75 494 355.375C494 356.125 493.75 356.625 493.25 357.125C492.75 357.75 492 358 491.125 358Z" fill="#565440"/>
<path d="M496 358C495.75 358 495.625 357.875 495.375 357.75C495.125 357.625 495.125 357.375 495.125 357.125C495.125 356.875 495.25 356.75 495.375 356.625C495.5 356.5 495.75 356.375 496 356.375C496.25 356.375 496.375 356.5 496.5 356.625C496.625 356.75 496.75 357 496.75 357.125C496.75 357.375 496.625 357.5 496.5 357.75C496.375 358 496.25 358 496 358Z" fill="#565440"/>
<path d="M500.625 349.375C501.625 349.375 502.375 349.75 502.875 350.5C503.375 351.25 503.625 352.25 503.625 353.375C503.625 354 503.5 354.625 503.375 355.125C503.25 355.625 503 356.125 502.75 356.625C502.5 357 502.125 357.375 501.625 357.625C501.125 357.875 500.625 358 500.125 358C499.25 358 498.5 357.75 497.875 357.25L498.375 356.25C498.875 356.625 499.5 356.875 500 356.875C500.75 356.875 501.25 356.625 501.625 356C502 355.375 502.25 354.75 502.25 353.875C502 354.25 501.75 354.5 501.375 354.625C501 354.75 500.625 354.875 500.125 354.875C499.375 354.875 498.75 354.625 498.25 354.125C497.75 353.625 497.5 353 497.5 352.25C497.5 351.5 497.75 350.75 498.25 350.25C499.125 349.625 499.875 349.375 500.625 349.375ZM502.25 352.125C502.25 351.625 502.125 351.25 501.75 351C501.5 350.625 501.125 350.5 500.625 350.5C500.125 350.5 499.75 350.625 499.5 351C499.25 351.375 499 351.75 499 352.125C499 352.625 499.125 353 499.5 353.25C499.75 353.5 500.125 353.75 500.625 353.75C501.125 353.75 501.5 353.625 501.75 353.25C502 353 502.25 352.625 502.25 352.125Z" fill="#565440"/>
<path d="M495.375 464.125C496.125 464.125 496.75 464.375 497.25 464.875C497.75 465.375 498 466 498 466.75C498 467.5 497.75 468.25 497.125 468.75C496.625 469.25 495.875 469.5 495 469.5C494 469.5 493.25 469.125 492.75 468.375C492.25 467.625 492 466.625 492 465.5C492 464.75 492.125 464 492.375 463.25C492.625 462.625 493 462 493.5 461.625C494 461.125 494.75 461 495.5 461C496.375 461 497.125 461.25 497.625 461.75L497.125 462.75C496.625 462.375 496.125 462.25 495.625 462.25C495.125 462.25 494.75 462.375 494.375 462.75C493.75 463.375 493.375 464.25 493.375 465.375C493.5 465 493.875 464.75 494.25 464.5C494.625 464.25 495 464.125 495.375 464.125ZM495.25 468.375C495.75 468.375 496.125 468.25 496.375 467.875C496.625 467.5 496.875 467.125 496.875 466.75C496.875 466.25 496.75 465.875 496.375 465.625C496.125 465.375 495.75 465.125 495.25 465.125C494.75 465.125 494.375 465.25 494.125 465.625C493.875 465.875 493.625 466.375 493.625 466.75C493.625 467.25 493.75 467.625 494.125 467.875C494.375 468.25 494.75 468.375 495.25 468.375Z" fill="#565440"/>
<path d="M499.875 469.625C499.625 469.625 499.5 469.5 499.25 469.375C499 469.25 499 469 499 468.75C499 468.5 499.125 468.375 499.25 468.25C499.375 468.125 499.625 468 499.875 468C500.125 468 500.25 468.125 500.375 468.25C500.5 468.375 500.625 468.625 500.625 468.75C500.625 469 500.5 469.125 500.375 469.375C500.25 469.625 500.125 469.625 499.875 469.625Z" fill="#565440"/>
<path d="M504.875 464.125C505.625 464.125 506.25 464.375 506.75 464.875C507.25 465.375 507.5 466 507.5 466.75C507.5 467.5 507.25 468.25 506.625 468.75C506.125 469.25 505.375 469.5 504.5 469.5C503.5 469.5 502.75 469.125 502.25 468.375C501.75 467.625 501.5 466.625 501.5 465.5C501.5 464.75 501.625 464 501.875 463.25C502.125 462.5 502.5 462 503 461.625C503.5 461.125 504.25 461 505 461C505.875 461 506.625 461.25 507.125 461.75L506.625 462.75C506.125 462.375 505.625 462.25 505.125 462.25C504.625 462.25 504.25 462.375 503.875 462.75C503.25 463.375 502.875 464.25 502.875 465.375C503.125 465 503.375 464.75 503.75 464.5C504.125 464.25 504.375 464.125 504.875 464.125ZM504.625 468.375C505.125 468.375 505.5 468.25 505.75 467.875C506 467.5 506.25 467.125 506.25 466.75C506.25 466.25 506.125 465.875 505.75 465.625C505.5 465.375 505.125 465.125 504.625 465.125C504.125 465.125 503.75 465.25 503.5 465.625C503.25 465.875 503 466.375 503 466.75C503 467.25 503.125 467.625 503.5 467.875C503.75 468.25 504.125 468.375 504.625 468.375Z" fill="#565440"/>
<path d="M474.875 494.5L472.875 496.75H476.25V498H471V496.875L473.625 494L474.25 493.25C474.375 493.125 474.5 492.875 474.625 492.625C474.75 492.375 474.75 492.125 474.75 491.875C474.75 491.5 474.625 491.25 474.375 491C474.125 490.75 473.75 490.625 473.375 490.625C472.75 490.625 472.125 490.875 471.375 491.5L470.625 490.625C471.5 489.875 472.375 489.375 473.375 489.375C474.125 489.375 474.75 489.625 475.25 490.125C475.75 490.625 476 491.25 476 491.875C476.25 492.75 475.75 493.625 474.875 494.5Z" fill="#565440"/>
<path d="M478.25 498.125C478 498.125 477.875 498 477.625 497.875C477.5 497.75 477.375 497.5 477.375 497.25C477.375 497 477.5 496.875 477.625 496.75C477.75 496.625 478 496.5 478.25 496.5C478.5 496.5 478.625 496.625 478.75 496.75C478.875 496.875 479 497.125 479 497.25C479 497.5 478.875 497.625 478.75 497.875C478.625 498.125 478.375 498.125 478.25 498.125Z" fill="#565440"/>
<path d="M482.875 489.5C483.875 489.5 484.625 489.875 485.125 490.625C485.625 491.375 485.875 492.375 485.875 493.5C485.875 494.125 485.75 494.75 485.625 495.25C485.5 495.75 485.25 496.25 485 496.75C484.75 497.125 484.375 497.5 483.875 497.75C483.375 498 482.875 498.125 482.375 498.125C481.5 498.125 480.75 497.875 480.125 497.375L480.625 496.375C481.125 496.75 481.75 497 482.25 497C483 497 483.5 496.75 483.875 496.125C484.25 495.5 484.5 494.875 484.5 494C484.25 494.375 484 494.625 483.625 494.75C483.25 494.875 482.875 495 482.375 495C481.625 495 481 494.75 480.5 494.25C480 493.75 479.75 493.125 479.75 492.375C479.75 491.625 480 490.875 480.5 490.375C481.375 489.75 482 489.5 482.875 489.5ZM484.375 492.25C484.375 491.75 484.25 491.375 483.875 491.125C483.625 490.75 483.25 490.625 482.75 490.625C482.25 490.625 481.875 490.75 481.625 491.125C481.375 491.5 481.125 491.875 481.125 492.25C481.125 492.75 481.25 493.125 481.625 493.375C481.875 493.625 482.25 493.875 482.75 493.875C483.25 493.875 483.625 493.75 483.875 493.375C484.25 493.125 484.375 492.75 484.375 492.25Z" fill="#565440"/>
</g>
<defs>
<clipPath id="clip0">
<rect width="900" height="600" fill="white"/>
</clipPath>
</defs>
</svg>
