<!-- DO NOT EDIT THIS, THIS FILE IS GENERATED FROM "plan-12-2.original.svg" using transform-svgs.js script -->
<svg width="900" height="600" viewBox="0 0 900 600" fill="none" xmlns="http://www.w3.org/2000/svg">
<rect data-nr="12-1" class="plan__svg__hoverable" x="211.375" y="467" width="30" height="30" rx="15" fill="#F6F2EB"/>
<rect data-nr="12-2" class="plan__svg__hoverable" x="211.375" y="344" width="30" height="30" rx="15" fill="#F6F2EB"/>
<rect data-nr="12-3" class="plan__svg__hoverable" x="209.375" y="188" width="30" height="30" rx="15" fill="#F6F2EB"/>
<rect data-nr="12-4" class="plan__svg__hoverable" x="314.375" y="165" width="30" height="30" rx="15" fill="#F6F2EB"/>
<rect data-nr="12-5" class="plan__svg__hoverable" x="275.375" y="241" width="30" height="30" rx="15" fill="#F6F2EB"/>
<rect data-nr="12-6" class="plan__svg__hoverable" x="275.375" y="344" width="30" height="30" rx="15" fill="#F6F2EB"/>
<rect data-nr="12-7" class="plan__svg__hoverable" x="661.375" y="497" width="30" height="30" rx="15" transform="rotate(180 661.375 497)" fill="#F6F2EB"/>
<rect data-nr="12-8" class="plan__svg__hoverable" x="658.375" y="215" width="30" height="30" rx="15" transform="rotate(180 658.375 215)" fill="#F6F2EB"/>
<rect data-nr="12-9" class="plan__svg__hoverable" x="764.375" y="215" width="30" height="30" rx="15" transform="rotate(180 764.375 215)" fill="#F6F2EB"/>
<rect data-nr="12-10" class="plan__svg__hoverable" x="734.375" y="374" width="30" height="30" rx="15" transform="rotate(180 734.375 374)" fill="#F6F2EB"/>
</svg>
