<svg width="900" height="600" viewBox="0 0 900 600" fill="none" xmlns="http://www.w3.org/2000/svg">
<path d="M631 85.375H272.125V525H631V85.375Z" fill="#DBD4CA"/>
<mask id="mask0" mask-type="alpha" maskUnits="userSpaceOnUse" x="486" y="380" width="136" height="130">
<rect x="486.25" y="380" width="135" height="130" fill="#C4C4C4"/>
</mask>
<g mask="url(#mask0)">
<path d="M164.625 384.625L581.5 -32.25" stroke="#C49F8A" stroke-miterlimit="10"/>
<path d="M177.625 397.625L594.5 -19.125" stroke="#C49F8A" stroke-miterlimit="10"/>
<path d="M190.625 410.75L607.5 -6.125" stroke="#C49F8A" stroke-miterlimit="10"/>
<path d="M203.75 423.75L620.5 6.875" stroke="#C49F8A" stroke-miterlimit="10"/>
<path d="M216.75 436.75L633.625 19.875" stroke="#C49F8A" stroke-miterlimit="10"/>
<path d="M229.75 449.75L646.625 32.875" stroke="#C49F8A" stroke-miterlimit="10"/>
<path d="M242.75 462.875L659.625 46" stroke="#C49F8A" stroke-miterlimit="10"/>
<path d="M229.75 449.75L646.625 32.875" stroke="#C49F8A" stroke-miterlimit="10"/>
<path d="M255.75 475.875L672.625 59" stroke="#C49F8A" stroke-miterlimit="10"/>
<path d="M268.875 488.875L685.75 72" stroke="#C49F8A" stroke-miterlimit="10"/>
<path d="M281.875 501.875L698.75 85" stroke="#C49F8A" stroke-miterlimit="10"/>
<path d="M294.875 514.875L711.75 98.125" stroke="#C49F8A" stroke-miterlimit="10"/>
<path d="M307.875 528L724.75 111.125" stroke="#C49F8A" stroke-miterlimit="10"/>
<path d="M321 541L737.75 124.125" stroke="#C49F8A" stroke-miterlimit="10"/>
<path d="M334 554L750.875 137.125" stroke="#C49F8A" stroke-miterlimit="10"/>
<path d="M347 567L763.875 150.125" stroke="#C49F8A" stroke-miterlimit="10"/>
<path d="M334 554L750.875 137.125" stroke="#C49F8A" stroke-miterlimit="10"/>
<path d="M360 580L776.875 163.25" stroke="#C49F8A" stroke-miterlimit="10"/>
<path d="M373 593.125L789.875 176.25" stroke="#C49F8A" stroke-miterlimit="10"/>
<path d="M386.125 606.125L802.875 189.25" stroke="#C49F8A" stroke-miterlimit="10"/>
<path d="M399.125 619.125L816 202.25" stroke="#C49F8A" stroke-miterlimit="10"/>
<path d="M412.125 632.125L829 215.25" stroke="#C49F8A" stroke-miterlimit="10"/>
<path d="M425.125 645.25L842 228.375" stroke="#C49F8A" stroke-miterlimit="10"/>
<path d="M438.125 658.25L855 241.375" stroke="#C49F8A" stroke-miterlimit="10"/>
<path d="M451.25 671.25L868.125 254.375" stroke="#C49F8A" stroke-miterlimit="10"/>
<path d="M438.125 658.25L855 241.375" stroke="#C49F8A" stroke-miterlimit="10"/>
<path d="M464.25 684.25L881.125 267.375" stroke="#C49F8A" stroke-miterlimit="10"/>
<path d="M477.25 697.25L894.125 280.5" stroke="#C49F8A" stroke-miterlimit="10"/>
<path d="M490.25 710.375L907.125 293.5" stroke="#C49F8A" stroke-miterlimit="10"/>
<path d="M503.375 723.375L920.125 306.5" stroke="#C49F8A" stroke-miterlimit="10"/>
<path d="M516.375 736.375L933.25 319.5" stroke="#C49F8A" stroke-miterlimit="10"/>
<path d="M529.375 749.375L946.25 332.5" stroke="#C49F8A" stroke-miterlimit="10"/>
<path d="M542.375 762.375L959.25 345.625" stroke="#C49F8A" stroke-miterlimit="10"/>
<path d="M555.375 749.375L138.625 332.5" stroke="#C49F8A" stroke-miterlimit="10"/>
<path d="M542.375 762.375L125.5 345.625" stroke="#C49F8A" stroke-miterlimit="10"/>
<path d="M568.5 736.375L151.625 319.5" stroke="#C49F8A" stroke-miterlimit="10"/>
<path d="M581.5 723.375L164.625 306.5" stroke="#C49F8A" stroke-miterlimit="10"/>
<path d="M594.5 710.375L177.625 293.5" stroke="#C49F8A" stroke-miterlimit="10"/>
<path d="M607.5 697.25L190.625 280.5" stroke="#C49F8A" stroke-miterlimit="10"/>
<path d="M620.5 684.25L203.75 267.375" stroke="#C49F8A" stroke-miterlimit="10"/>
<path d="M633.625 671.25L216.75 254.375" stroke="#C49F8A" stroke-miterlimit="10"/>
<path d="M646.625 658.25L229.75 241.375" stroke="#C49F8A" stroke-miterlimit="10"/>
<path d="M659.625 645.25L242.75 228.375" stroke="#C49F8A" stroke-miterlimit="10"/>
<path d="M646.625 658.25L229.75 241.375" stroke="#C49F8A" stroke-miterlimit="10"/>
<path d="M672.625 632.125L255.75 215.25" stroke="#C49F8A" stroke-miterlimit="10"/>
<path d="M685.75 619.125L268.875 202.25" stroke="#C49F8A" stroke-miterlimit="10"/>
<path d="M698.75 606.125L281.875 189.25" stroke="#C49F8A" stroke-miterlimit="10"/>
<path d="M711.75 593.125L294.875 176.25" stroke="#C49F8A" stroke-miterlimit="10"/>
<path d="M724.75 580L307.875 163.25" stroke="#C49F8A" stroke-miterlimit="10"/>
<path d="M737.75 567L321 150.125" stroke="#C49F8A" stroke-miterlimit="10"/>
<path d="M750.875 554L334 137.125" stroke="#C49F8A" stroke-miterlimit="10"/>
<path d="M763.875 541L347 124.125" stroke="#C49F8A" stroke-miterlimit="10"/>
<path d="M750.875 554L334 137.125" stroke="#C49F8A" stroke-miterlimit="10"/>
<path d="M776.875 528L360 111.125" stroke="#C49F8A" stroke-miterlimit="10"/>
<path d="M789.875 514.875L373 98.125" stroke="#C49F8A" stroke-miterlimit="10"/>
<path d="M802.875 501.875L386.125 85" stroke="#C49F8A" stroke-miterlimit="10"/>
<path d="M816 488.875L399.125 72" stroke="#C49F8A" stroke-miterlimit="10"/>
<path d="M829 475.875L412.125 59" stroke="#C49F8A" stroke-miterlimit="10"/>
<path d="M842 462.875L425.125 46" stroke="#C49F8A" stroke-miterlimit="10"/>
<path d="M855 449.75L438.125 32.875" stroke="#C49F8A" stroke-miterlimit="10"/>
<path d="M868.125 436.75L451.25 19.875" stroke="#C49F8A" stroke-miterlimit="10"/>
<path d="M855 449.75L438.125 32.875" stroke="#C49F8A" stroke-miterlimit="10"/>
<path d="M881.125 423.75L464.25 6.875" stroke="#C49F8A" stroke-miterlimit="10"/>
<path d="M894.125 410.75L477.25 -6.125" stroke="#C49F8A" stroke-miterlimit="10"/>
<path d="M907.125 397.625L490.25 -19.125" stroke="#C49F8A" stroke-miterlimit="10"/>
<path d="M920.125 384.625L503.375 -32.25" stroke="#C49F8A" stroke-miterlimit="10"/>
<g opacity="0.3">
<path opacity="0.7" d="M631 380H486V517H631V380Z" fill="#C49F8A"/>
</g>
</g>
<path d="M631 77.625V85.375H369.75V77.625H631Z" stroke="#565440"/>
<path d="M450 525C450 531.75 448.5 537.875 445.875 544.125C443.25 550.375 439.625 556.5 434.5 561.25C429.875 565.875 424.125 570 418 572.625C411.75 575.25 405.125 576.75 398.375 576.75V525M455.125 297.375C460.875 297.375 465.5 298.375 470.625 300.5C475.75 302.625 480.5 305.625 484.125 309.25C488.25 312.875 491.375 317.5 493.375 322.75C495.5 327.875 496.5 333.125 496.5 338.75H455.125V297.375ZM491.375 431.875C497.125 431.875 501.75 430.875 506.875 428.75C512 426.625 516.75 423.625 520.375 420C524.5 416.375 527.625 411.75 529.625 406.5C531.75 401.375 532.75 396.125 532.75 390.5H491.375V431.875Z" stroke="#565440"/>
<path d="M455.125 297.375V100.875H481V75H444.875V100.875H450V297.375H455.125Z" fill="#565440"/>
<path d="M636.25 75H553.5V111.25H620.75V375H491.5V344H455.25V338.75H450V380.125H455.125V349.125H486.25V390.5H491.375V380.125H620.625V489.75H599.75V509.5H491.25V431.875H486.25V509.5H450V525H636.25V75ZM620.75 509.5H605V495H620.625V509.5H620.75Z" fill="#565440"/>
<path d="M377.625 474.375H372.5V509.5H296.625V488.125V488H279.375V111.25H372.5V75H263.75V525H398.25V509.5H377.5V474.375H377.625ZM291.375 509.5H279.25V493.125H291.375V509.5Z" fill="#565440"/>
<path d="M312.375 377.125H279.875V479.5H312.375V377.125Z" fill="#E9E4DC"/>
<path d="M311.875 377.75V478.875H280.625V377.75H311.875ZM313.125 376.5H279.375V480.125H313.125V376.5Z" fill="#C49F8A"/>
<path d="M371.75 480.75H311.25V508.875H371.75V480.75Z" fill="#E9E4DC"/>
<path d="M371.125 481.375V508.25H311.875V481.375H371.125ZM372.375 480.125H310.625V509.5H372.375V480.125Z" fill="#C49F8A"/>
<path d="M620.125 165.375H519.375V249.375H620.125V165.375Z" fill="#E9E4DC"/>
<path d="M520 166H619.5V248.75H520V166ZM518.75 164.75V250H620.75V164.75H518.75Z" fill="#C49F8A"/>
<path d="M613.5 209.375H588.25V242.625H613.5V209.375Z" fill="#E9E4DC" stroke="#C49F8A"/>
<path d="M613.5 172H588.25V205.25H613.5V172Z" fill="#E9E4DC" stroke="#C49F8A"/>
<path d="M598.5 238.625L605 214.625L580.625 208.125L574.125 232.125L598.5 238.625Z" fill="#E9E4DC" stroke="#C49F8A" stroke-miterlimit="3.9998"/>
<path d="M580.625 206.375L605 200L598.5 175.875L574.125 182.375L580.625 206.375Z" fill="#E9E4DC" stroke="#C49F8A" stroke-miterlimit="3.9998"/>
<path d="M518.375 249.25V165.375H598.75L600.875 198.875L593.375 249.25H518.375Z" fill="#E9E4DC"/>
<path d="M598.125 166L600.25 198.75L592.875 248.625H519V166H597.75H598.125ZM599.375 164.75H597.75H517.75V249.875H593.5H594L601.5 198.75L599.375 164.75Z" fill="#C49F8A"/>
<path d="M596.75 165.875V199.125L592.5 249" stroke="#C49F8A"/>
<path d="M620.25 344.625H492V346.875H620.25V344.625Z" fill="#E9E4DC"/>
<path d="M619.625 345.25V346.25H492.625V345.25H619.625ZM620.875 344H491.375V347.5H620.875V344Z" fill="#C49F8A"/>
<path d="M620.25 346.875H492V374.375H620.25V346.875Z" fill="#E9E4DC"/>
<path d="M492.625 347.5H619.625V373.75H492.625V347.5ZM491.375 346.25V375H620.875V346.25H491.375Z" fill="#C49F8A"/>
<path d="M492 374.125L620.625 347.25L492 374.125Z" fill="#E9E4DC"/>
<path d="M492 374.125L620.625 347.25" stroke="#C49F8A"/>
<path d="M458.125 435.375H455.875V508.75H458.125V435.375Z" fill="#E9E4DC"/>
<path d="M457.5 436V508.125H456.5V436H457.5ZM458.75 434.75H455.25V509.375H458.75V434.75Z" fill="#C49F8A"/>
<path d="M485.625 435.375H458.125V508.75H485.625V435.375Z" fill="#E9E4DC"/>
<path d="M458.75 436H485V508.125H458.75V436ZM457.5 434.75V509.375H486.25V434.75H457.5Z" fill="#C49F8A"/>
<path d="M485.25 509.125L458.5 435L485.25 509.125Z" fill="#E9E4DC"/>
<path d="M485.25 509.125L458.5 435" stroke="#C49F8A"/>
<path d="M397 486.625H394.75V509H397V486.625Z" fill="#E9E4DC"/>
<path d="M396.375 487.25V508.375H395.375V487.25H396.375ZM397.625 486H394.125V509.625H397.625V486Z" fill="#C49F8A"/>
<path d="M394.75 486.625H378.25V509H394.75V486.625Z" fill="#E9E4DC"/>
<path d="M378.875 487.25H394.125V508.375H378.875V487.25ZM377.625 486V509.625H395.375V486H377.625Z" fill="#C49F8A"/>
<path d="M378.5 486.625L394.5 508.875L378.5 486.625Z" fill="#E9E4DC"/>
<path d="M378.5 486.625L394.5 508.875" stroke="#C49F8A"/>
<path d="M620.125 380.875H584.25V479.5H620.125V380.875Z" fill="#E9E4DC"/>
<path d="M584.875 381.5H619.5V478.875H584.875V381.5ZM583.625 380.25V480.125H620.75V380.25H583.625Z" fill="#C49F8A"/>
<path d="M602.125 466.875C609 466.875 614.375 460.875 613.75 454.125C613.125 446.625 612.5 437.125 612.5 430.125C612.5 423.125 613.125 413.75 613.75 406.125C614.375 399.25 609 393.375 602.125 393.375C595.25 393.375 589.875 399.375 590.5 406.125C591.125 413.625 591.75 423.125 591.75 430.125C591.75 437.125 591.125 446.5 590.5 454.125C589.875 460.875 595.25 466.875 602.125 466.875Z" fill="#E9E4DC" stroke="#C49F8A" stroke-linejoin="round"/>
<path d="M602.125 456.375C602.953 456.375 603.625 455.703 603.625 454.875C603.625 454.047 602.953 453.375 602.125 453.375C601.297 453.375 600.625 454.047 600.625 454.875C600.625 455.703 601.297 456.375 602.125 456.375Z" fill="#E9E4DC" stroke="#C49F8A" stroke-linejoin="round"/>
<path d="M581.25 486.625H552V508.875H581.25V486.625Z" fill="#E9E4DC"/>
<path d="M580.625 487.25V508.25H552.625V487.25H580.625ZM581.875 486H551.375V509.5H581.875V486Z" fill="#C49F8A"/>
<path d="M579 497.75C579 493.75 575.75 490.5 571.75 490.5H561.5C557.5 490.5 554.25 493.75 554.25 497.75C554.25 501.75 557.5 505 561.5 505H571.75C575.75 504.875 579 501.75 579 497.75Z" fill="#E9E4DC" stroke="#C49F8A"/>
<path d="M566.625 502.375C567.453 502.375 568.125 501.703 568.125 500.875C568.125 500.047 567.453 499.375 566.625 499.375C565.797 499.375 565.125 500.047 565.125 500.875C565.125 501.703 565.797 502.375 566.625 502.375Z" fill="#E9E4DC" stroke="#C49F8A"/>
<path d="M357.75 483.5H322.875V505.5H357.75V483.5Z" fill="#E9E4DC" stroke="#C49F8A"/>
<path d="M336.5 494.625C336.5 490 340.25 486.375 344.75 486.375H346.625C351.25 486.375 354.875 490.125 354.875 494.625C354.875 499.25 351.125 502.875 346.625 502.875H344.75C340.25 502.875 336.5 499.125 336.5 494.625Z" fill="#E9E4DC" stroke="#C49F8A"/>
<path d="M345.75 499.75C346.578 499.75 347.25 499.078 347.25 498.25C347.25 497.422 346.578 496.75 345.75 496.75C344.922 496.75 344.25 497.422 344.25 498.25C344.25 499.078 344.922 499.75 345.75 499.75Z" fill="#E9E4DC" stroke="#C49F8A"/>
<path d="M324.625 486.25H333.875M324.625 502.875H333.875H324.625ZM324.625 500.125H333.875H324.625ZM324.625 497.375H333.875H324.625ZM324.625 494.625H333.875H324.625ZM324.625 491.875H333.875H324.625ZM324.625 489.125H333.875H324.625Z" stroke="#C49F8A"/>
<path d="M312.375 380.125H279.875V411.75H312.375V380.125Z" fill="#E9E4DC"/>
<path d="M311.875 380.75V411.125H280.625V380.75H311.875ZM313.125 379.5H279.375V412.375H313.125V379.5Z" fill="#C49F8A"/>
<path d="M282.125 380.125H279.875V411.75H282.125V380.125Z" fill="#E9E4DC"/>
<path d="M281.625 380.75V411.125H280.625V380.75H281.625ZM282.875 379.5H279.375V412.375H282.875V379.5Z" fill="#C49F8A"/>
<path d="M290.875 391.625C288.875 391.625 287.25 390 287.25 388C287.25 386 288.875 384.375 290.875 384.375C292.875 384.375 294.5 386 294.5 388C294.5 390 292.875 391.625 290.875 391.625Z" fill="#E9E4DC"/>
<path d="M290.875 385C292.5 385 293.875 386.375 293.875 388C293.875 389.625 292.5 391 290.875 391C289.25 391 287.875 389.625 287.875 388C288 386.375 289.25 385 290.875 385ZM290.875 383.75C288.5 383.75 286.625 385.625 286.625 388C286.625 390.375 288.5 392.25 290.875 392.25C293.25 392.25 295.125 390.375 295.125 388C295.125 385.625 293.25 383.75 290.875 383.75Z" fill="#C49F8A"/>
<path d="M303.625 392.625C301 392.625 299 390.5 299 388C299 385.5 301.125 383.375 303.625 383.375C306.25 383.375 308.25 385.5 308.25 388C308.25 390.5 306.125 392.625 303.625 392.625Z" fill="#E9E4DC"/>
<path d="M303.625 384C305.875 384 307.625 385.75 307.625 388C307.625 390.25 305.875 392 303.625 392C301.375 392 299.625 390.25 299.625 388C299.5 385.75 301.375 384 303.625 384ZM303.625 382.75C300.75 382.75 298.375 385.125 298.375 388C298.375 390.875 300.75 393.25 303.625 393.25C306.5 393.25 308.875 390.875 308.875 388C308.875 385.125 306.5 382.75 303.625 382.75Z" fill="#C49F8A"/>
<path d="M290.875 407.375C288.25 407.375 286.25 405.25 286.25 402.75C286.25 400.25 288.375 398.125 290.875 398.125C293.5 398.125 295.5 400.25 295.5 402.75C295.5 405.25 293.5 407.375 290.875 407.375Z" fill="#E9E4DC"/>
<path d="M290.875 398.75C293.125 398.75 294.875 400.5 294.875 402.75C294.875 405 293.125 406.75 290.875 406.75C288.625 406.75 286.875 405 286.875 402.75C286.875 400.5 288.75 398.75 290.875 398.75ZM290.875 397.5C288 397.5 285.625 399.875 285.625 402.75C285.625 405.625 288 408 290.875 408C293.75 408 296.125 405.625 296.125 402.75C296.25 399.875 293.875 397.5 290.875 397.5Z" fill="#C49F8A"/>
<path d="M304.625 406.375C302.625 406.375 301 404.75 301 402.75C301 400.75 302.625 399.125 304.625 399.125C306.625 399.125 308.25 400.75 308.25 402.75C308.25 404.75 306.625 406.375 304.625 406.375Z" fill="#E9E4DC"/>
<path d="M304.625 399.75C306.25 399.75 307.625 401.125 307.625 402.75C307.625 404.375 306.25 405.75 304.625 405.75C303 405.75 301.625 404.375 301.625 402.75C301.625 401.125 303 399.75 304.625 399.75ZM304.625 398.5C302.25 398.5 300.375 400.375 300.375 402.75C300.375 405.125 302.25 407 304.625 407C307 407 308.875 405.125 308.875 402.75C308.875 400.375 307 398.5 304.625 398.5Z" fill="#C49F8A"/>
<path d="M532.125 490.75H511.125V497.75H532.125V490.75Z" fill="#E9E4DC"/>
<path d="M531.5 491.375V497.125H511.75V491.375H531.5ZM532.75 490.125H510.5V498.375H532.75V490.125Z" fill="#C49F8A"/>
<path d="M529.5 476.125C529.75 471.5 526.125 467.625 521.625 467.625C517 467.625 513.375 471.5 513.75 476.125L514.75 490.875H528.625L529.5 476.125Z" fill="#E9E4DC" stroke="#C49F8A"/>
<path d="M527 476.5C527.25 473.375 524.75 470.625 521.625 470.625C518.5 470.625 516 473.375 516.25 476.5L517 485.125H526.25L527 476.5Z" fill="#E9E4DC" stroke="#C49F8A"/>
<path d="M521.625 483C522.453 483 523.125 482.328 523.125 481.5C523.125 480.672 522.453 480 521.625 480C520.797 480 520.125 480.672 520.125 481.5C520.125 482.328 520.797 483 521.625 483Z" fill="#E9E4DC" stroke="#C49F8A"/>
<path d="M312.375 446.125H279.875V479.375H312.375V446.125Z" fill="#E9E4DC"/>
<path d="M311.75 446.75V478.75H280.5V446.75H311.75ZM313 445.5H279.25V480H313V445.5Z" fill="#C49F8A"/>
<path d="M312.375 446.125H310.125V479.375H312.375V446.125Z" fill="#E9E4DC"/>
<path d="M311.75 446.75V478.75H310.75V446.75H311.75ZM313 445.5H309.5V480H313V445.5Z" fill="#C49F8A"/>
<path d="M291.375 460L301.125 465.5M296.25 457.25V468.375V457.25ZM301.125 460L291.375 465.5L301.125 460Z" stroke="#C49F8A"/>
<path d="M286.875 255.875V206.375H316.375C317.625 206.375 318.625 207.375 318.625 208.625V253.625C318.625 254.875 317.625 255.875 316.375 255.875H286.875Z" fill="#E9E4DC"/>
<path d="M316.5 205.75V207C317.375 207 318.125 207.75 318.125 208.625V253.625C318.125 254.5 317.375 255.25 316.5 255.25H287.5V207H316.375V205.75H316.5ZM316.5 205.75H286.375V256.5H316.5C318.125 256.5 319.375 255.25 319.375 253.625V208.625C319.375 207 318 205.75 316.5 205.75Z" fill="#C49F8A"/>
<path d="M286.875 207.25V157.75H316.375C317.625 157.75 318.625 158.75 318.625 160V205C318.625 206.25 317.625 207.25 316.375 207.25H286.875Z" fill="#E9E4DC"/>
<path d="M316.5 157.125V158.375C317.375 158.375 318.125 159.125 318.125 160V205C318.125 205.875 317.375 206.625 316.5 206.625H287.5V158.375H316.375V157.125H316.5ZM316.5 157.125H286.375V207.875H316.5C318.125 207.875 319.375 206.625 319.375 205V160C319.375 158.375 318 157.125 316.5 157.125Z" fill="#C49F8A"/>
<path d="M279.875 262.75V150.875H321V158.5H287.625V255H321V262.75H279.875Z" fill="#E9E4DC"/>
<path d="M320.375 151.5V158H288.25H287V159.25V206.875V254.5V255.75H288.25H320.375V262.25H280.5V151.625L320.375 151.5ZM321.625 150.25H279.25V263.375H321.625V254.375H288.25V206.75V159.125H321.625V150.25Z" fill="#C49F8A"/>
<path d="M378.125 331.25H279.875V377.125H378.125V331.25Z" fill="#E9E4DC"/>
<path d="M377.5 331.875V376.5H280.5V331.875H377.5ZM378.75 330.625H279.25V377.75H378.75V330.625Z" fill="#C49F8A"/>
<path d="M378.125 344.25H279.875V348.625H378.125V344.25Z" fill="#E9E4DC"/>
<path d="M377.5 344.875V348H280.5V344.875H377.5ZM378.75 343.625H279.25V349.25H378.75V343.625Z" fill="#C49F8A"/>
<path d="M294 321.25C299.868 321.25 304.625 316.493 304.625 310.625C304.625 304.757 299.868 300 294 300C288.132 300 283.375 304.757 283.375 310.625C283.375 316.493 288.132 321.25 294 321.25Z" fill="#E9E4DC"/>
<path d="M294 300.625C299.5 300.625 304 305.125 304 310.625C304 316.125 299.5 320.625 294 320.625C288.5 320.625 284 316.125 284 310.625C284 305.125 288.5 300.625 294 300.625ZM294 299.375C287.75 299.375 282.75 304.375 282.75 310.625C282.75 316.875 287.75 321.875 294 321.875C300.25 321.875 305.25 316.875 305.25 310.625C305.25 304.375 300.125 299.375 294 299.375Z" fill="#C49F8A"/>
<path d="M328.125 321.25C333.993 321.25 338.75 316.493 338.75 310.625C338.75 304.757 333.993 300 328.125 300C322.257 300 317.5 304.757 317.5 310.625C317.5 316.493 322.257 321.25 328.125 321.25Z" fill="#E9E4DC"/>
<path d="M328.125 300.625C333.625 300.625 338.125 305.125 338.125 310.625C338.125 316.125 333.625 320.625 328.125 320.625C322.625 320.625 318.125 316.125 318.125 310.625C318.125 305.125 322.625 300.625 328.125 300.625ZM328.125 299.375C321.875 299.375 316.875 304.375 316.875 310.625C316.875 316.875 321.875 321.875 328.125 321.875C334.375 321.875 339.375 316.875 339.375 310.625C339.375 304.375 334.375 299.375 328.125 299.375Z" fill="#C49F8A"/>
<path d="M365.375 321.25C359.5 321.25 354.75 316.5 354.75 310.625C354.75 304.75 359.5 300 365.375 300C371.25 300 376 304.75 376 310.625C376 316.5 371.25 321.25 365.375 321.25Z" fill="#E9E4DC"/>
<path d="M365.375 300.625C370.875 300.625 375.375 305.125 375.375 310.625C375.375 316.125 370.875 320.625 365.375 320.625C359.875 320.625 355.375 316.125 355.375 310.625C355.375 305.125 359.875 300.625 365.375 300.625ZM365.375 299.375C359.125 299.375 354.125 304.375 354.125 310.625C354.125 316.875 359.125 321.875 365.375 321.875C371.625 321.875 376.625 316.875 376.625 310.625C376.625 304.375 371.625 299.375 365.375 299.375Z" fill="#C49F8A"/>
<path d="M485.5 349.75H455.75V375.5H485.5V349.75Z" fill="#E9E4DC"/>
<path d="M485 350.375V374.875H456.5V350.375H485ZM486.25 349.125H455.25V376.125H486.25V349.125Z" fill="#C49F8A"/>
<path d="M455.875 350.125L465.75 358.5" stroke="#C49F8A"/>
<path d="M485.5 350.125L475.5 358.5" stroke="#C49F8A"/>
<path d="M455.875 375.25L465.75 366.875" stroke="#C49F8A"/>
<path d="M485.5 375.25L475.5 366.875" stroke="#C49F8A"/>
<path d="M436.125 166.625H433.875V246.125H436.125V166.625Z" fill="#E9E4DC"/>
<path d="M435.5 167.25V245.5H434.5V167.25H435.5ZM436.75 166H433.25V246.75H436.75V166Z" fill="#C49F8A"/>
<path d="M449.375 166.625H436.125V246.125H449.375V166.625Z" fill="#E9E4DC"/>
<path d="M448.75 167.25V245.5H436.75V167.25H448.75ZM450 166H435.5V246.75H450V166Z" fill="#C49F8A"/>
<path d="M447.25 180.25H445V232.625H447.25V180.25Z" fill="#E9E4DC"/>
<path d="M446.75 180.875V232H445.75V180.875H446.75ZM448 179.625H444.5V233.25H448V179.625Z" fill="#C49F8A"/>
<path d="M447.375 217.75V195L449.375 197V215.625L447.375 217.75Z" fill="#E9E4DC" stroke="#C49F8A"/>
<path d="M471.25 166.625H469V246.125H471.25V166.625Z" fill="#E9E4DC"/>
<path d="M470.75 167.25V245.5H469.75V167.25H470.75ZM472 166H468.5V246.75H472V166Z" fill="#C49F8A"/>
<path d="M469 166.625H455.75V246.125H469V166.625Z" fill="#E9E4DC"/>
<path d="M468.375 167.25V245.5H456.375V167.25H468.375ZM469.625 166H455.125V246.75H469.625V166Z" fill="#C49F8A"/>
<path d="M460.125 180.25H457.875V232.625H460.125V180.25Z" fill="#E9E4DC"/>
<path d="M459.5 180.875V232H458.5V180.875H459.5ZM460.75 179.625H457.25V233.25H460.75V179.625Z" fill="#C49F8A"/>
<path d="M457.875 195V217.625L455.875 215.625V197L457.875 195Z" fill="#E9E4DC" stroke="#C49F8A"/>
<path d="M552 497.75H492V508.875H552V497.75Z" fill="#E9E4DC"/>
<path d="M551.375 498.375V508.25H492.625V498.375H551.375ZM552.625 497.125H491.375V509.5H552.625V497.125Z" fill="#C49F8A"/>
<path d="M297.25 508.875V487.375H279.875V479.5H311.125V508.875H297.25Z" fill="#E9E4DC"/>
<path d="M310.5 480.125V488V508.25H297.75V488V486.75H296.5H280.5V480.125H296.5H310.5ZM311.75 478.875H296.5H279.25V488H296.5V509.5H311.75V488V478.875Z" fill="#C49F8A"/>
<path d="M394.25 425.125L392.25 427.375H395.625V428.625H390.375V427.5L393 424.625L393.625 423.875C393.75 423.75 393.875 423.5 394 423.25C394.125 423 394.125 422.75 394.125 422.5C394.125 422.125 394 421.875 393.75 421.625C393.5 421.375 393.125 421.25 392.75 421.25C392.125 421.25 391.5 421.5 390.75 422.125L390 421.25C390.875 420.5 391.75 420 392.75 420C393.5 420 394.125 420.25 394.625 420.75C395.125 421.25 395.375 421.875 395.375 422.5C395.5 423.375 395.125 424.125 394.25 425.125Z" fill="#565440"/>
<path d="M397.5 428.75C397.25 428.75 397.125 428.625 396.875 428.5C396.75 428.375 396.625 428.125 396.625 427.875C396.625 427.625 396.75 427.5 396.875 427.375C397 427.25 397.25 427.125 397.5 427.125C397.75 427.125 397.875 427.25 398 427.375C398.125 427.5 398.25 427.75 398.25 427.875C398.25 428.125 398.125 428.25 398 428.5C397.875 428.625 397.75 428.75 397.5 428.75Z" fill="#565440"/>
<path d="M402.5 423.125C403.25 423.125 403.875 423.375 404.375 423.875C404.875 424.375 405.125 425 405.125 425.75C405.125 426.5 404.875 427.25 404.25 427.75C403.75 428.25 403 428.5 402.125 428.5C401.125 428.5 400.375 428.125 399.875 427.375C399.375 426.625 399.125 425.625 399.125 424.5C399.125 423.75 399.25 423 399.5 422.25C399.75 421.625 400.125 421 400.625 420.625C401.125 420.125 401.875 420 402.625 420C403.5 420 404.25 420.25 404.75 420.75L404.25 421.75C403.75 421.375 403.25 421.25 402.75 421.25C402.25 421.25 401.875 421.375 401.5 421.75C400.875 422.375 400.5 423.25 400.5 424.375C400.625 424 401 423.75 401.375 423.5C401.75 423.25 402 423.125 402.5 423.125ZM402.25 427.5C402.75 427.5 403.125 427.375 403.375 427C403.625 426.625 403.875 426.25 403.875 425.875C403.875 425.375 403.75 425 403.375 424.75C403.125 424.5 402.75 424.25 402.25 424.25C401.75 424.25 401.375 424.375 401.125 424.75C400.875 425 400.625 425.5 400.625 425.875C400.625 426.375 400.75 426.75 401.125 427C401.375 427.375 401.75 427.5 402.25 427.5Z" fill="#565440"/>
<path d="M360.25 207.125L358.25 209.375H361.625V210.625H356.375V209.5L359 206.625L359.625 205.875C359.75 205.75 359.875 205.5 360 205.25C360.125 205 360.125 204.75 360.125 204.5C360.125 204.125 360 203.875 359.75 203.625C359.5 203.375 359.125 203.25 358.75 203.25C358.125 203.25 357.5 203.5 356.75 204.125L356 203.25C356.875 202.5 357.75 202 358.75 202C359.5 202 360.125 202.25 360.625 202.75C361.125 203.25 361.375 203.875 361.375 204.5C361.5 205.375 361.125 206.25 360.25 207.125Z" fill="#565440"/>
<path d="M362.125 204.25L364.5 202.25H365.5V210.625H364.25V204L362.75 205.125L362.125 204.25Z" fill="#565440"/>
<path d="M368 210.75C367.75 210.75 367.625 210.625 367.375 210.5C367.25 210.375 367.125 210.125 367.125 209.875C367.125 209.625 367.25 209.5 367.375 209.375C367.5 209.25 367.75 209.125 368 209.125C368.25 209.125 368.375 209.25 368.5 209.375C368.625 209.5 368.75 209.75 368.75 209.875C368.75 210.125 368.625 210.25 368.5 210.5C368.375 210.625 368.125 210.75 368 210.75Z" fill="#565440"/>
<path d="M369.25 203.375V202.25H374.5V203.125L371.375 210.625H370L373.125 203.5H369.25V203.375Z" fill="#565440"/>
<path d="M544 271.25L546.375 269.25H547.375V277.625H546.125V271L544.625 272.125L544 271.25Z" fill="#565440"/>
<path d="M551.625 272.125C552.375 272.125 553.125 272.375 553.625 272.875C554.125 273.375 554.375 274 554.375 274.875C554.375 275.75 554.125 276.375 553.5 276.875C553 277.375 552.25 277.625 551.375 277.625C550.375 277.625 549.5 277.25 548.625 276.625L549.25 275.625C550 276.125 550.625 276.375 551.375 276.375C551.875 276.375 552.25 276.25 552.625 275.875C553 275.625 553.125 275.25 553.125 274.75C553.125 274.25 553 273.875 552.625 273.625C552.375 273.375 551.875 273.125 551.375 273.125C550.75 273.125 550.25 273.375 549.875 273.75L549.125 273.25L549.625 269.125H553.875V270.25H550.625L550.375 272.25C550.75 272.25 551.25 272.125 551.625 272.125Z" fill="#565440"/>
<path d="M556.25 277.75C556 277.75 555.875 277.625 555.625 277.5C555.375 277.375 555.375 277.125 555.375 276.875C555.375 276.625 555.5 276.5 555.625 276.375C555.75 276.25 556 276.125 556.25 276.125C556.5 276.125 556.625 276.25 556.75 276.375C556.875 276.5 557 276.75 557 276.875C557 277.125 556.875 277.25 556.75 277.5C556.625 277.75 556.5 277.75 556.25 277.75Z" fill="#565440"/>
<path d="M562 274.125L560 276.375H563.375V277.625H558.125V276.5L560.75 273.625L561.375 272.875C561.5 272.75 561.625 272.5 561.75 272.25C561.875 272 561.875 271.75 561.875 271.5C561.875 271.125 561.75 270.875 561.5 270.625C561.25 270.375 560.875 270.25 560.5 270.25C559.875 270.25 559.25 270.5 558.5 271.125L557.75 270.25C558.625 269.5 559.5 269 560.5 269C561.25 269 561.875 269.25 562.375 269.75C562.875 270.25 563.125 270.875 563.125 271.5C563.25 272.375 562.875 273.125 562 274.125Z" fill="#565440"/>
<path d="M556 411C556.75 411 557.5 411.25 558 411.75C558.5 412.25 558.75 412.875 558.75 413.75C558.75 414.625 558.5 415.25 557.875 415.75C557.375 416.25 556.625 416.5 555.75 416.5C554.75 416.5 553.875 416.125 553 415.5L553.625 414.5C554.375 415 555 415.25 555.75 415.25C556.25 415.25 556.625 415.125 557 414.75C557.375 414.5 557.5 414.125 557.5 413.625C557.5 413.125 557.375 412.75 557 412.5C556.75 412.25 556.25 412 555.75 412C555.125 412 554.625 412.25 554.25 412.625L553.5 412.125L554 408H558.25V409.125H555L554.75 411.125C555.125 411.125 555.5 411 556 411Z" fill="#565440"/>
<path d="M463 402L465.375 400H466.375V408.375H465.125V401.75L463.625 402.875L463 402Z" fill="#565440"/>
<path d="M468.75 408.5C468.5 408.5 468.375 408.375 468.125 408.25C467.875 408.125 467.875 407.875 467.875 407.625C467.875 407.375 468 407.25 468.125 407.125C468.25 407 468.5 406.875 468.75 406.875C469 406.875 469.125 407 469.25 407.125C469.375 407.25 469.5 407.5 469.5 407.625C469.5 407.875 469.375 408 469.25 408.25C469.125 408.5 469 408.5 468.75 408.5Z" fill="#565440"/>
<path d="M469.5 402L471.875 400H472.875V408.375H471.625V401.75L470.125 402.875L469.5 402Z" fill="#565440"/>
</svg>
