<svg width="900" height="600" viewBox="0 0 900 600" fill="none" xmlns="http://www.w3.org/2000/svg">
<path d="M168.5 75.125H711.625L721.58 78.9954L698.183 170.625L697.435 237.5L720.402 244.916L697.435 330.36L697.446 408.75L718.5 414.75L697.375 509.25L603 490.625H539.125L532.75 514.375L399.125 483.625H323.875L317 508.375L225 487.125H168.5V75.125Z" fill="#DBD4CA"/>
<mask id="mask0" mask-type="alpha" maskUnits="userSpaceOnUse" x="302" y="90" width="201" height="134">
<rect x="302" y="90" width="201" height="134" fill="#C4C4C4"/>
</mask>
<g mask="url(#mask0)">
<path d="M110.354 171.712L527.208 -245.142" stroke="#C49F8A" stroke-miterlimit="10"/>
<path d="M97.3273 158.686L514.181 -258.168" stroke="#C49F8A" stroke-miterlimit="10"/>
<path d="M123.381 184.739L540.235 -232.115" stroke="#C49F8A" stroke-miterlimit="10"/>
<path d="M136.407 197.766L553.261 -219.088" stroke="#C49F8A" stroke-miterlimit="10"/>
<path d="M149.434 210.792L566.288 -206.062" stroke="#C49F8A" stroke-miterlimit="10"/>
<path d="M162.461 223.819L579.315 -193.035" stroke="#C49F8A" stroke-miterlimit="10"/>
<path d="M175.487 236.846L592.341 -180.008" stroke="#C49F8A" stroke-miterlimit="10"/>
<path d="M188.514 249.872L605.368 -166.982" stroke="#C49F8A" stroke-miterlimit="10"/>
<path d="M201.541 262.899L618.395 -153.955" stroke="#C49F8A" stroke-miterlimit="10"/>
<path d="M214.568 275.926L631.421 -140.928" stroke="#C49F8A" stroke-miterlimit="10"/>
<path d="M201.541 262.899L618.395 -153.955" stroke="#C49F8A" stroke-miterlimit="10"/>
<path d="M227.594 288.952L644.448 -127.902" stroke="#C49F8A" stroke-miterlimit="10"/>
<path d="M240.621 301.979L657.475 -114.875" stroke="#C49F8A" stroke-miterlimit="10"/>
<path d="M253.647 315.006L670.501 -101.848" stroke="#C49F8A" stroke-miterlimit="10"/>
<path d="M266.674 328.032L683.528 -88.8215" stroke="#C49F8A" stroke-miterlimit="10"/>
<path d="M279.701 341.059L696.555 -75.7949" stroke="#C49F8A" stroke-miterlimit="10"/>
<path d="M292.728 354.086L709.581 -62.7681" stroke="#C49F8A" stroke-miterlimit="10"/>
<path d="M305.754 367.113L722.608 -49.7415" stroke="#C49F8A" stroke-miterlimit="10"/>
<path d="M318.781 380.139L735.635 -36.7148" stroke="#C49F8A" stroke-miterlimit="10"/>
<path d="M305.754 367.113L722.608 -49.7415" stroke="#C49F8A" stroke-miterlimit="10"/>
<path d="M331.808 393.166L748.662 -23.6882" stroke="#C49F8A" stroke-miterlimit="10"/>
<path d="M344.834 406.193L761.688 -10.6614" stroke="#C49F8A" stroke-miterlimit="10"/>
<path d="M357.861 419.219L774.715 2.36523" stroke="#C49F8A" stroke-miterlimit="10"/>
<path d="M370.888 432.246L787.742 15.3921" stroke="#C49F8A" stroke-miterlimit="10"/>
<path d="M383.914 445.273L800.768 28.4187" stroke="#C49F8A" stroke-miterlimit="10"/>
<path d="M396.941 458.299L813.795 41.4453" stroke="#C49F8A" stroke-miterlimit="10"/>
<path d="M409.968 471.326L826.822 54.4719" stroke="#C49F8A" stroke-miterlimit="10"/>
<path d="M422.994 484.353L839.848 67.4988" stroke="#C49F8A" stroke-miterlimit="10"/>
<path d="M409.968 471.326L826.822 54.4719" stroke="#C49F8A" stroke-miterlimit="10"/>
<path d="M436.021 497.379L852.875 80.5254" stroke="#C49F8A" stroke-miterlimit="10"/>
<path d="M449.048 510.406L865.902 93.552" stroke="#C49F8A" stroke-miterlimit="10"/>
<path d="M462.074 523.433L878.928 106.579" stroke="#C49F8A" stroke-miterlimit="10"/>
<path d="M475.101 536.459L891.955 119.605" stroke="#C49F8A" stroke-miterlimit="10"/>
<path d="M488.128 549.486L904.982 132.632" stroke="#C49F8A" stroke-miterlimit="10"/>
<path d="M501.155 562.513L918.009 145.659" stroke="#C49F8A" stroke-miterlimit="10"/>
<path d="M527.208 562.513L110.354 145.659" stroke="#C49F8A" stroke-miterlimit="10"/>
<path d="M514.181 575.539L97.3273 158.686" stroke="#C49F8A" stroke-miterlimit="10"/>
<path d="M540.234 549.486L123.381 132.632" stroke="#C49F8A" stroke-miterlimit="10"/>
<path d="M553.261 536.459L136.407 119.605" stroke="#C49F8A" stroke-miterlimit="10"/>
<path d="M566.288 523.433L149.434 106.579" stroke="#C49F8A" stroke-miterlimit="10"/>
<path d="M579.315 510.406L162.461 93.552" stroke="#C49F8A" stroke-miterlimit="10"/>
<path d="M592.341 497.379L175.487 80.5254" stroke="#C49F8A" stroke-miterlimit="10"/>
<path d="M605.368 484.352L188.514 67.4985" stroke="#C49F8A" stroke-miterlimit="10"/>
<path d="M618.395 471.326L201.541 54.4719" stroke="#C49F8A" stroke-miterlimit="10"/>
<path d="M631.421 458.299L214.568 41.4453" stroke="#C49F8A" stroke-miterlimit="10"/>
<path d="M618.395 471.326L201.541 54.4719" stroke="#C49F8A" stroke-miterlimit="10"/>
<path d="M644.448 445.273L227.594 28.4187" stroke="#C49F8A" stroke-miterlimit="10"/>
<path d="M657.475 432.246L240.621 15.3921" stroke="#C49F8A" stroke-miterlimit="10"/>
<path d="M670.501 419.219L253.647 2.36523" stroke="#C49F8A" stroke-miterlimit="10"/>
<path d="M683.528 406.192L266.674 -10.6614" stroke="#C49F8A" stroke-miterlimit="10"/>
<path d="M696.555 393.166L279.701 -23.6882" stroke="#C49F8A" stroke-miterlimit="10"/>
<path d="M709.581 380.139L292.728 -36.7148" stroke="#C49F8A" stroke-miterlimit="10"/>
<path d="M722.608 367.112L305.754 -49.7415" stroke="#C49F8A" stroke-miterlimit="10"/>
<path d="M735.635 354.086L318.781 -62.7681" stroke="#C49F8A" stroke-miterlimit="10"/>
<path d="M722.608 367.112L305.754 -49.7415" stroke="#C49F8A" stroke-miterlimit="10"/>
<path d="M748.661 341.059L331.808 -75.7949" stroke="#C49F8A" stroke-miterlimit="10"/>
<path d="M761.688 328.032L344.834 -88.8215" stroke="#C49F8A" stroke-miterlimit="10"/>
<path d="M774.715 315.006L357.861 -101.848" stroke="#C49F8A" stroke-miterlimit="10"/>
<path d="M787.742 301.979L370.888 -114.875" stroke="#C49F8A" stroke-miterlimit="10"/>
<path d="M800.768 288.952L383.914 -127.902" stroke="#C49F8A" stroke-miterlimit="10"/>
<path d="M813.795 275.926L396.941 -140.928" stroke="#C49F8A" stroke-miterlimit="10"/>
<path d="M826.822 262.899L409.968 -153.955" stroke="#C49F8A" stroke-miterlimit="10"/>
<path d="M839.848 249.872L422.994 -166.982" stroke="#C49F8A" stroke-miterlimit="10"/>
<path d="M826.822 262.899L409.968 -153.955" stroke="#C49F8A" stroke-miterlimit="10"/>
<path d="M852.875 236.845L436.021 -180.008" stroke="#C49F8A" stroke-miterlimit="10"/>
<path d="M865.902 223.819L449.048 -193.035" stroke="#C49F8A" stroke-miterlimit="10"/>
<path d="M878.928 210.792L462.074 -206.062" stroke="#C49F8A" stroke-miterlimit="10"/>
<path d="M891.955 197.765L475.101 -219.088" stroke="#C49F8A" stroke-miterlimit="10"/>
<path d="M904.982 184.739L488.128 -232.115" stroke="#C49F8A" stroke-miterlimit="10"/>
<path d="M918.008 171.712L501.155 -245.142" stroke="#C49F8A" stroke-miterlimit="10"/>
<g opacity="0.3">
<path opacity="0.7" d="M540.847 67.6128H273.307V242.09H540.847V67.6128Z" fill="#C49F8A"/>
</g>
</g>
<path d="M235.374 489.422L315.494 507.912L313.953 515.615L233.833 497.126L235.374 489.422Z" stroke="#565440"/>
<path d="M397.668 483.259L527.606 513.047L526.066 520.75L396.127 490.962L397.668 483.259Z" stroke="#565440"/>
<path d="M725.852 416.492L718.148 414.951L697.091 508.939L573.316 484.286L572.288 491.99L703.254 518.183L703.767 514.588L725.852 416.492Z" stroke="#565440"/>
<path d="M720.694 243.79L697.435 333.303L704.881 335.237L728.14 245.725L720.694 243.79Z" stroke="#565440" stroke-width="1.00004" stroke-miterlimit="4.00017"/>
<path d="M720.735 83.6116L699.543 165.17L706.989 167.105L728.181 85.5463L720.735 83.6116Z" stroke="#565440" stroke-width="1.00004" stroke-miterlimit="4.00017"/>
<path d="M238.969 74.9553C238.969 68.2788 240.51 62.1154 243.078 55.9526C245.646 49.7892 249.241 43.6264 254.377 39.0045C258.999 34.382 264.648 30.2732 270.812 27.7054C276.975 25.1375 283.652 23.5967 290.328 23.5967V74.9553M502.44 285.527C502.44 291.176 501.413 295.799 499.359 300.935C497.304 306.07 494.223 310.693 490.627 314.288C487.032 318.397 482.41 321.478 477.274 323.533C472.138 325.587 467.003 326.614 461.353 326.614V285.527H502.44ZM455.19 218.76C455.19 213.111 456.218 208.488 458.272 203.353C460.326 198.217 463.408 193.594 467.003 189.999C470.599 185.891 475.221 182.809 480.356 180.755C485.492 178.701 490.628 177.673 496.277 177.673V218.76H455.19ZM302.141 166.374C307.79 166.374 312.412 165.347 317.548 163.293C322.684 161.238 327.307 158.157 330.902 154.561C335.01 150.966 338.092 146.344 340.146 141.208C342.2 136.072 343.228 130.936 343.228 125.287H302.141V166.374ZM538.392 234.168C544.041 234.168 548.663 235.195 553.8 237.25C558.935 239.304 563.558 242.386 567.153 245.981C571.261 249.577 574.343 254.199 576.397 259.334C578.451 264.47 579.479 269.606 579.479 275.256H538.392V234.168Z" stroke="#565440"/>
<path d="M194.268 475.542V217.125H211.875V194.25H194.268V90.3496H238.969V74.9424H194.268H168.589V501.222H194.268H221.561L234.328 504.303L239.978 479.137L225.083 475.542H194.268ZM206.75 199.375V212H194.268V199.375H206.75Z" fill="#565440"/>
<path d="M317.53 490.95L311.88 516.116L326.774 519.711L331.04 500.708H399.704V469.893H317.53V490.95Z" fill="#565440"/>
<path d="M528.102 500.661L523.479 521.252L538.373 524.847L543.792 500.708H605.14V469.893H528.102V500.661Z" fill="#565440"/>
<path d="M451.063 280.378V482.219L447.982 496.086L453.118 497.113L456.199 483.246V285.514H461.334V280.378H456.199H451.063Z" fill="#565440"/>
<path d="M496.259 218.748V223.883H533.237V234.155H538.373V223.883V218.748H507.558V90.3496H715.049L727.816 93.4318L731.411 78.5374L716.517 74.9424H290.328V90.3496H296.875V125.5H302V107L318.75 107V90.3496H404.84V218.748H302.122V166.875H296.986V223.883H302.122H455.685V218.748H409.976V90.3496H502.422V218.748H496.259ZM313.625 101.875H302V90.3496H313.625V101.875Z" fill="#565440"/>
<path d="M708.885 288.596L709.912 283.46L697.586 280.378H538.373V275.242H533.237V280.378H502.422V285.514H696.559L708.885 288.596Z" fill="#565440"/>
<path d="M707.753 328.279H676.937V414.743H704.905L727.782 419.879L731.378 404.985L707.753 399.681V328.279Z" fill="#565440"/>
<path d="M707.753 176.053L710.834 163.286L685.668 157.636L682.193 172.53H682.073V247.212H704.905L727.782 252.348L731.378 237.454L707.753 232.15V176.053Z" fill="#565440"/>
<path d="M674.5 91.125H605.625V172.625H674.5V91.125Z" fill="#E9E4DC"/>
<path d="M606.25 91.75H673.875V172H606.25V91.75ZM605 90.5V173.25H675.125V90.5H605Z" fill="#C49F8A"/>
<path d="M669.125 96.375H641.75V116.875H669.125V96.375Z" fill="#E9E4DC" stroke="#C49F8A"/>
<path d="M638.375 96.375H611V116.875H638.375V96.375Z" fill="#E9E4DC" stroke="#C49F8A"/>
<path d="M645.866 103.298L640.56 123.099L660.361 128.404L665.667 108.603L645.866 103.298Z" fill="#E9E4DC" stroke="#C49F8A" stroke-width="0.99997" stroke-miterlimit="3.99928"/>
<path d="M633.979 103.194L614.178 108.499L619.484 128.3L639.285 122.995L633.979 103.194Z" fill="#E9E4DC" stroke="#C49F8A" stroke-width="0.99997" stroke-miterlimit="3.99928"/>
<path d="M605.625 204.25V108.375L633 106.75L674.5 112.75V204.25H605.625Z" fill="#E9E4DC"/>
<path d="M633 107.375L673.875 113.25V203.625H606.25V109.125V109L633 107.375ZM633 106.125L605 107.875V109.125V204.875H675.125V112.625V112.25L633 106.125Z" fill="#C49F8A"/>
<path d="M606 110H633.25L674.375 113.375" stroke="#C49F8A"/>
<path d="M652.875 286.125H568.875V385.5H652.875V286.125Z" fill="#E9E4DC"/>
<path d="M569.5 286.75H652.25V384.875H569.5L569.5 286.75ZM568.25 285.5V386.125H653.5V285.5H568.25Z" fill="#C49F8A"/>
<path d="M646.25 292.75H613V317.625H646.25V292.75Z" fill="#E9E4DC" stroke="#C49F8A"/>
<path d="M608.75 292.75H575.5V317.625H608.75V292.75Z" fill="#E9E4DC" stroke="#C49F8A"/>
<path d="M618.07 301.131L611.632 325.157L635.659 331.595L642.096 307.568L618.07 301.131Z" fill="#E9E4DC" stroke="#C49F8A" stroke-width="0.99997" stroke-miterlimit="3.99928"/>
<path d="M603.472 301.07L579.446 307.508L585.883 331.534L609.91 325.097L603.472 301.07Z" fill="#E9E4DC" stroke="#C49F8A" stroke-width="0.99997" stroke-miterlimit="3.99928"/>
<path d="M568.875 390.375V307.25L602.375 305.125L652.875 312.5V390.375H568.875Z" fill="#E9E4DC"/>
<path d="M602.375 305.75L652.25 313V389.75H569.625V308.25V307.875L602.375 305.75ZM602.375 304.5L568.25 306.625V308.25V391H653.375V312.375V311.875L602.375 304.5Z" fill="#C49F8A"/>
<path d="M569.375 309.125H602.625L652.5 313.375" stroke="#C49F8A"/>
<path d="M501.5 91H410.375V128.25H501.5V91Z" fill="#E9E4DC"/>
<path d="M500.875 91.625V127.625H411V91.625H500.875ZM502.125 90.375H409.75V128.875H502.125V90.375Z" fill="#C49F8A"/>
<path d="M493.75 109.625C493.75 102.5 487.625 96.9999 480.75 97.7499C473 98.4999 463.375 99.1249 456.125 99.1249C449 99.1249 439.25 98.3749 431.5 97.7499C424.5 97.1249 418.5 102.625 418.5 109.625C418.5 116.625 424.625 122.25 431.5 121.5C439.25 120.75 448.875 120.125 456.125 120.125C463.25 120.125 473 120.875 480.75 121.5C487.625 122.125 493.75 116.625 493.75 109.625Z" fill="#E9E4DC" stroke="#C49F8A" stroke-linejoin="round"/>
<path d="M481.5 111.25C482.398 111.25 483.125 110.522 483.125 109.625C483.125 108.728 482.398 108 481.5 108C480.603 108 479.875 108.728 479.875 109.625C479.875 110.522 480.603 111.25 481.5 111.25Z" fill="#E9E4DC" stroke="#C49F8A" stroke-linejoin="round"/>
<path d="M342.25 197H310.875V218.125H342.25V197Z" fill="#E9E4DC"/>
<path d="M341.625 197.625V217.5H311.5V197.625H341.625ZM342.875 196.375H310.25V218.75H342.875V196.375Z" fill="#C49F8A"/>
<path d="M326.5 214.25C322.875 214.25 319.875 211.25 319.875 207.625C319.875 204 322.875 201 326.5 201C330.125 201 333.125 204 333.125 207.625C333.125 211.25 330.25 214.25 326.5 214.25Z" fill="#E9E4DC"/>
<path d="M326.5 201.5C329.875 201.5 332.5 204.25 332.5 207.5C332.5 210.75 329.75 213.5 326.5 213.5C323.25 213.5 320.5 210.75 320.5 207.5C320.5 204.25 323.25 201.5 326.5 201.5ZM326.5 200.25C322.5 200.25 319.25 203.5 319.25 207.5C319.25 211.5 322.5 214.75 326.5 214.75C330.5 214.75 333.75 211.5 333.75 207.5C333.75 203.5 330.5 200.25 326.5 200.25Z" fill="#C49F8A"/>
<path d="M287.25 346H355V395.25H287.25V346Z" fill="#E9E4DC" stroke="#C49F8A"/>
<path d="M359.125 358.375H360.125C366.875 358.375 372.5 363.875 372.5 370.75C372.5 377.5 367 383.125 360.125 383.125H359.125V358.375Z" fill="#E9E4DC" stroke="#C49F8A"/>
<path d="M355 360.375H360.125C365.75 360.375 370.375 365 370.375 370.625C370.375 376.25 365.75 380.875 360.125 380.875H355V360.375Z" fill="#E9E4DC" stroke="#C49F8A"/>
<path d="M283.125 358.375H282.125C275.375 358.375 269.75 363.875 269.75 370.75C269.75 377.5 275.25 383.125 282.125 383.125H283.125V358.375Z" fill="#E9E4DC" stroke="#C49F8A"/>
<path d="M287.25 360.375H282.125C276.5 360.375 271.875 365 271.875 370.625C271.875 376.25 276.5 380.875 282.125 380.875H287.25V360.375Z" fill="#E9E4DC" stroke="#C49F8A"/>
<path d="M333.5 341.875V340.875C333.5 334.125 328 328.5 321.125 328.5C314.375 328.5 308.75 334 308.75 340.875V341.875H333.5Z" fill="#E9E4DC" stroke="#C49F8A"/>
<path d="M331.375 346V340.875C331.375 335.25 326.75 330.625 321.125 330.625C315.5 330.625 310.875 335.25 310.875 340.875V346H331.375Z" fill="#E9E4DC" stroke="#C49F8A"/>
<path d="M333.5 399.375V400.375C333.5 407.125 328 412.75 321.125 412.75C314.375 412.75 308.75 407.25 308.75 400.375V399.375H333.5Z" fill="#E9E4DC" stroke="#C49F8A"/>
<path d="M331.375 395.25V400.375C331.375 406 326.75 410.625 321.125 410.625C315.5 410.625 310.875 406 310.875 400.375V395.25H331.375Z" fill="#E9E4DC" stroke="#C49F8A"/>
<path d="M649.375 444.25L672.125 448.75L671.125 470.125L642.125 464.375L649.375 444.25Z" fill="#E9E4DC" stroke="#C49F8A"/>
<path d="M613.311 456.427L606.646 490.531L696.444 508.081L703.109 473.977L613.311 456.427Z" fill="#E9E4DC"/>
<path d="M613.875 457.125L702.375 474.375L696 507.25L607.5 490L613.875 457.125ZM612.875 455.625L606 490.875L697 508.625L703.875 473.375L612.875 455.625Z" fill="#C49F8A"/>
<path d="M647.5 473.375L665.125 476.875L647.5 473.375ZM646.875 468.875L667.625 473L666.375 479.25L645.625 475.125L646.875 468.875Z" stroke="#C49F8A"/>
<path d="M638.375 466.875C639.25 467 639.75 467.875 639.625 468.75L639.25 470.875C639.125 471.75 638.25 472.25 637.375 472.125C636.5 472 636 471.125 636.125 470.25L636.5 468.125C636.625 467.375 637.5 466.75 638.375 466.875Z" fill="#E9E4DC" stroke="#C49F8A"/>
<path d="M648.875 486.25C649.5 483.375 652.25 481.5 655.125 482.125C658 482.75 659.875 485.5 659.25 488.375L658.25 493.5L647.875 491.5L648.875 486.25Z" fill="#E9E4DC" stroke="#C49F8A"/>
<path d="M626.366 484.922L625.955 487.007L679.915 497.65L680.326 495.565L626.366 484.922Z" fill="#E9E4DC" stroke="#C49F8A"/>
<path d="M649.487 443.886L645.818 462.656L668.145 467.019L671.813 448.25L649.487 443.886Z" fill="#E9E4DC"/>
<path d="M650.125 444.375L671.25 448.5L667.75 466.125L646.625 462L650.125 444.375ZM649.125 443L645.25 463L668.75 467.625L672.625 447.625L649.125 443Z" fill="#C49F8A"/>
<path d="M649.937 441.787L649.602 443.505L672.054 447.885L672.389 446.168L649.937 441.787Z" fill="#E9E4DC"/>
<path d="M650.5 442.625L671.625 446.75L671.5 447.25L650.375 443.125L650.5 442.625ZM649.5 441.125L648.875 444.125L672.5 448.75L673.125 445.75L649.5 441.125Z" fill="#C49F8A"/>
<path d="M356.25 91H319.375V114.625H356.25V91Z" fill="#E9E4DC"/>
<path d="M355.625 91.625V114H320V91.625H355.625ZM356.875 90.375H318.75V115.25H356.875V90.375Z" fill="#C49F8A"/>
<path d="M324.75 102.875C324.75 107.125 328.125 110.5 332.375 110.5H343.25C347.5 110.5 350.875 107.125 350.875 102.875C350.875 98.625 347.5 95.25 343.25 95.25H332.375C328.125 95.25 324.75 98.625 324.75 102.875Z" fill="#E9E4DC" stroke="#C49F8A"/>
<path d="M337.75 100.5C338.647 100.5 339.375 99.7724 339.375 98.875C339.375 97.9775 338.647 97.25 337.75 97.25C336.853 97.25 336.125 97.9775 336.125 98.875C336.125 99.7724 336.853 100.5 337.75 100.5Z" fill="#E9E4DC" stroke="#C49F8A"/>
<path d="M434 163.375H410.375V218.25H434V163.375Z" fill="#E9E4DC"/>
<path d="M433.375 164V217.625H411V164L433.375 164ZM434.625 162.75H409.75V218.875H434.625V162.75Z" fill="#C49F8A"/>
<path d="M422.25 207.5C426.5 207.5 429.875 204.125 429.875 199.875V189C429.875 184.75 426.5 181.375 422.25 181.375C418 181.375 414.625 184.75 414.625 189V199.875C414.625 204.125 418 207.5 422.25 207.5Z" fill="#E9E4DC" stroke="#C49F8A"/>
<path d="M418.25 196C419.147 196 419.875 195.272 419.875 194.375C419.875 193.478 419.147 192.75 418.25 192.75C417.353 192.75 416.625 193.478 416.625 194.375C416.625 195.272 417.353 196 418.25 196Z" fill="#E9E4DC" stroke="#C49F8A"/>
<path d="M390 102.125H367.75V109.5H390V102.125Z" fill="#E9E4DC"/>
<path d="M389.25 102.75V108.875H368.25V102.75H389.25ZM390.5 101.5H367V110.125H390.5V101.5Z" fill="#C49F8A"/>
<path d="M370.5 125C370.125 129.875 374 133.875 378.875 133.875C383.75 133.875 387.5 129.75 387.25 125L386.25 109.5H371.625L370.5 125Z" fill="#E9E4DC" stroke="#C49F8A"/>
<path d="M372.125 125C371.75 128.875 374.875 132.25 378.75 132.25C382.625 132.25 385.75 128.875 385.375 125L384.375 114.375H373L372.125 125Z" fill="#E9E4DC" stroke="#C49F8A"/>
<path d="M378.875 120.875C379.772 120.875 380.5 120.147 380.5 119.25C380.5 118.353 379.772 117.625 378.875 117.625C377.978 117.625 377.25 118.353 377.25 119.25C377.25 120.147 377.978 120.875 378.875 120.875Z" fill="#E9E4DC" stroke="#C49F8A"/>
<path d="M417.75 141.125H410.375V163.375H417.75V141.125Z" fill="#E9E4DC"/>
<path d="M417.25 141.75V162.75H411V141.75H417.25V141.75ZM418.5 140.5H409.75V164H418.5V140.5Z" fill="#C49F8A"/>
<path d="M433.375 160.625C438.25 161 442.25 157.125 442.25 152.25C442.25 147.375 438.125 143.625 433.375 143.875L417.875 144.875V159.5L433.375 160.625Z" fill="#E9E4DC" stroke="#C49F8A"/>
<path d="M433.375 158.875C437.25 159.25 440.625 156.125 440.625 152.25C440.625 148.375 437.25 145.25 433.375 145.625L422.75 146.625V158L433.375 158.875Z" fill="#E9E4DC" stroke="#C49F8A"/>
<path d="M427.75 153.875C428.647 153.875 429.375 153.147 429.375 152.25C429.375 151.353 428.647 150.625 427.75 150.625C426.853 150.625 426.125 151.353 426.125 152.25C426.125 153.147 426.853 153.875 427.75 153.875Z" fill="#E9E4DC" stroke="#C49F8A"/>
<path d="M404 174.625V218.125H360.5V188.125C360.5 180.625 366.5 174.625 374 174.625H404Z" fill="#E9E4DC" stroke="#C49F8A"/>
<path d="M401.75 176.875V215.875H362.75V187.625C362.75 181.625 367.625 176.75 373.625 176.75H401.75V176.875Z" fill="#E9E4DC" stroke="#C49F8A"/>
<path d="M392.875 208.625C393.772 208.625 394.5 207.897 394.5 207C394.5 206.103 393.772 205.375 392.875 205.375C391.978 205.375 391.25 206.103 391.25 207C391.25 207.897 391.978 208.625 392.875 208.625Z" fill="#E9E4DC" stroke="#C49F8A"/>
<path d="M604.375 453.375H528.375V464.375H604.375V453.375Z" fill="#E9E4DC"/>
<path d="M603.75 454V463.75H529V454H603.75ZM605 452.75H527.75V465H605V452.75Z" fill="#C49F8A"/>
<path d="M604.375 455.625H528.375V468.875H604.375V455.625Z" fill="#E9E4DC"/>
<path d="M603.75 456.25V468.25H529V456.25H603.75ZM605 455H527.75V469.5H605V455Z" fill="#C49F8A"/>
<path d="M592.125 464.75H540.75V466.875H592.125V464.75Z" fill="#E9E4DC" stroke="#C49F8A"/>
<path d="M555 466.875H577.625L575.625 468.875H557L555 466.875Z" fill="#E9E4DC" stroke="#C49F8A"/>
<path d="M226.875 217.75H194.875V319.625H226.875V217.75Z" fill="#E9E4DC"/>
<path d="M226.125 218.375V319H195.375V218.375H226.125ZM227.375 217.125H194.125V320.25H227.375V217.125Z" fill="#C49F8A"/>
<path d="M226.875 350.75H194.875V396.25H226.875V350.75Z" fill="#E9E4DC"/>
<path d="M226.125 351.375V395.625H195.375V351.375H226.125ZM227.375 350.125H194.125V396.875H227.375V350.125Z" fill="#C49F8A"/>
<path d="M228.875 369H196.875V392.625H228.875V369Z" fill="#E9E4DC"/>
<path d="M228.25 369.625V392H197.5V369.625H228.25ZM229.5 368.375H196.25V393.25H229.5V368.375Z" fill="#C49F8A"/>
<path d="M226.875 364.25H194.875V397.375H226.875V364.25Z" fill="#E9E4DC"/>
<path d="M226.125 364.875V396.75H195.375V364.875H226.125ZM227.375 363.625H194.125V398H227.375V363.625Z" fill="#C49F8A"/>
<path d="M226.875 397.375H194.875V429.375H226.875V397.375Z" fill="#E9E4DC"/>
<path d="M226.125 398V428.75H195.375V398H226.125ZM227.375 396.75H194.125V430H227.375V396.75Z" fill="#C49F8A"/>
<path d="M223.25 240.625H198.375V280.125H223.25V240.625Z" fill="#E9E4DC" stroke="#C49F8A"/>
<path d="M210.75 256.125C215.875 256.125 220.125 260.25 220.125 265.5V267.625C220.125 272.75 216 277 210.75 277C205.625 277 201.375 272.875 201.375 267.625V265.5C201.5 260.375 205.625 256.125 210.75 256.125Z" fill="#E9E4DC" stroke="#C49F8A"/>
<path d="M206.625 268.25C207.522 268.25 208.25 267.522 208.25 266.625C208.25 265.728 207.522 265 206.625 265C205.728 265 205 265.728 205 266.625C205 267.522 205.728 268.25 206.625 268.25Z" fill="#E9E4DC" stroke="#C49F8A"/>
<path d="M220.125 242.625V253M201.5 242.625V253V242.625ZM204.625 242.625V253V242.625ZM207.75 242.625V253V242.625ZM210.75 242.625V253V242.625ZM213.875 242.625V253V242.625ZM217 242.625V253V242.625Z" stroke="#C49F8A"/>
<path d="M226.875 319.625H194.875V350.75H226.875V319.625Z" fill="#E9E4DC"/>
<path d="M226.125 320.25V350.125H195.375V320.25H226.125ZM227.375 319H194.125V351.375H227.375V319Z" fill="#C49F8A"/>
<path d="M197.25 319.625H194.875V350.75H197.25V319.625Z" fill="#E9E4DC"/>
<path d="M196.5 320.25V350.125H195.375V320.25H196.5ZM197.75 319H194.125V351.375H197.75V319Z" fill="#C49F8A"/>
<path d="M205.625 330.875C203.625 330.875 202.125 329.25 202.125 327.375C202.125 325.375 203.75 323.875 205.625 323.875C207.5 323.875 209.125 325.5 209.125 327.375C209.125 329.25 207.5 330.875 205.625 330.875Z" fill="#E9E4DC"/>
<path d="M205.625 324.375C207.25 324.375 208.5 325.625 208.5 327.25C208.5 328.875 207.25 330.125 205.625 330.125C204 330.125 202.75 328.875 202.75 327.25C202.75 325.75 204 324.375 205.625 324.375ZM205.625 323.125C203.375 323.125 201.5 325 201.5 327.25C201.5 329.5 203.375 331.375 205.625 331.375C207.875 331.375 209.75 329.5 209.75 327.25C209.75 325 207.875 323.125 205.625 323.125Z" fill="#C49F8A"/>
<path d="M218.125 332C220.679 332 222.75 329.929 222.75 327.375C222.75 324.821 220.679 322.75 218.125 322.75C215.571 322.75 213.5 324.821 213.5 327.375C213.5 329.929 215.571 332 218.125 332Z" fill="#E9E4DC"/>
<path d="M218.125 323.375C220.25 323.375 222.125 325.125 222.125 327.375C222.125 329.625 220.375 331.375 218.125 331.375C215.875 331.375 214.125 329.625 214.125 327.375C214.125 325.125 215.875 323.375 218.125 323.375ZM218.125 322.125C215.25 322.125 212.875 324.5 212.875 327.375C212.875 330.25 215.25 332.625 218.125 332.625C221 332.625 223.375 330.25 223.375 327.375C223.375 324.5 221 322.125 218.125 322.125Z" fill="#C49F8A"/>
<path d="M205.625 346.5C208.179 346.5 210.25 344.429 210.25 341.875C210.25 339.321 208.179 337.25 205.625 337.25C203.071 337.25 201 339.321 201 341.875C201 344.429 203.071 346.5 205.625 346.5Z" fill="#E9E4DC"/>
<path d="M205.625 337.875C207.75 337.875 209.625 339.625 209.625 341.875C209.625 344 207.875 345.875 205.625 345.875C203.375 345.875 201.625 344.125 201.625 341.875C201.625 339.75 203.5 337.875 205.625 337.875ZM205.625 336.625C202.75 336.625 200.375 339 200.375 341.875C200.375 344.75 202.75 347.125 205.625 347.125C208.5 347.125 210.875 344.75 210.875 341.875C210.75 339 208.5 336.625 205.625 336.625Z" fill="#C49F8A"/>
<path d="M219.125 345.375C217.125 345.375 215.625 343.75 215.625 341.875C215.625 340 217.25 338.375 219.125 338.375C221 338.375 222.625 340 222.625 341.875C222.625 343.75 221 345.375 219.125 345.375Z" fill="#E9E4DC"/>
<path d="M219.125 339C220.75 339 222 340.25 222 341.875C222 343.5 220.75 344.75 219.125 344.75C217.5 344.75 216.25 343.5 216.25 341.875C216.25 340.25 217.5 339 219.125 339ZM219.125 337.75C216.875 337.75 215 339.625 215 341.875C215 344.125 216.875 346 219.125 346C221.375 346 223.25 344.125 223.25 341.875C223.25 339.625 221.375 337.75 219.125 337.75Z" fill="#C49F8A"/>
<path d="M207.125 411.375L214.375 415.5M210.75 409.25V417.5V409.25ZM214.375 411.375L207.125 415.5L214.375 411.375Z" stroke="#C49F8A"/>
<path d="M383.5 414.875C382.125 414.875 380.875 416 380.875 417.5V443.5H440.375V414.875H383.5Z" fill="#E9E4DC" stroke="#C49F8A"/>
<path d="M414.25 368.75C412.875 368.75 411.625 370 411.625 371.5V412.25C411.625 413.75 412.75 415 414.25 415H440.375V368.75L414.25 368.75Z" fill="#E9E4DC" stroke="#C49F8A"/>
<path d="M414.25 324.375C412.875 324.375 411.625 325.5 411.625 327V366.125C411.625 367.625 412.75 368.75 414.25 368.75H440.375V324.375H414.25Z" fill="#E9E4DC" stroke="#C49F8A"/>
<path d="M409.5 324.375V314.75H450.5V454.125H370.625V412.875H380.875V443.625H440.375V324.5L409.5 324.375Z" fill="#E9E4DC" stroke="#C49F8A"/>
<path d="M483.375 356.25H466.375V439.875H483.375V356.25Z" fill="#E9E4DC"/>
<path d="M482.625 356.875V439.25H466.875V356.875H482.625ZM483.875 355.625H465.625V440.5H483.875V355.625Z" fill="#C49F8A"/>
<path d="M480.625 356.25H456.875V439.875H480.625V356.25Z" fill="#E9E4DC"/>
<path d="M480 356.875V439.25H457.5V356.875H480ZM481.25 355.625H456.25V440.5H481.25V355.625Z" fill="#C49F8A"/>
<path d="M457.125 356.25L480.5 440.125L457.125 356.25Z" fill="#E9E4DC"/>
<path d="M457.125 356.25L480.5 440.125" stroke="#C49F8A"/>
<path d="M483.375 439.875H466.375V465.625H483.375V439.875Z" fill="#E9E4DC"/>
<path d="M482.625 440.5V465H466.875V440.5H482.625ZM483.875 439.25H465.625V466.25H483.875V439.25Z" fill="#C49F8A"/>
<path d="M480.625 439.875H456.875V465.625H480.625V439.875Z" fill="#E9E4DC"/>
<path d="M457.5 440.5H480V465H457.5V440.5ZM456.25 439.25V466.25H481.25V439.25H456.25Z" fill="#C49F8A"/>
<path d="M457.125 439.375L480.5 466.125L457.125 439.375Z" fill="#E9E4DC"/>
<path d="M457.125 439.375L480.5 466.125" stroke="#C49F8A"/>
<path d="M221.25 91.125H204.25V178.375H221.25V91.125Z" fill="#E9E4DC"/>
<path d="M220.5 91.75V177.75H204.75V91.75H220.5ZM221.75 90.5H203.5V179H221.75V90.5Z" fill="#C49F8A"/>
<path d="M218.625 91.125H194.875V178.375H218.625V91.125Z" fill="#E9E4DC"/>
<path d="M217.875 91.75V177.75H195.375V91.75H217.875ZM219.125 90.5H194.125V179H219.125V90.5Z" fill="#C49F8A"/>
<path d="M195 91.125L218.375 178.625L195 91.125Z" fill="#E9E4DC"/>
<path d="M195 91.125L218.375 178.625" stroke="#C49F8A"/>
<path d="M404 91H356.25V102.125H404V91Z" fill="#E9E4DC"/>
<path d="M403.375 91.625V101.5H356.875V91.625H403.375ZM404.625 90.375H355.625V102.75H404.625V90.375Z" fill="#C49F8A"/>
<path d="M631 228.75H653.25L656.25 248.875H628L631 228.75Z" fill="#E9E4DC" stroke="#C49F8A"/>
<path d="M679.625 246.75H606.75V279.75H679.625V246.75Z" fill="#E9E4DC"/>
<path d="M679 247.375V279.125H607.375V247.375H679ZM680.25 246.125H606.125V280.375H680.25V246.125Z" fill="#C49F8A"/>
<path d="M634.625 256.375H651.75H634.625ZM633.125 252.25H653.25V258.25H633.125L633.125 252.25Z" stroke="#C49F8A"/>
<path d="M624.875 252C625.75 252 626.375 252.625 626.375 253.5V255.5C626.375 256.375 625.75 257 624.875 257C624 257 623.375 256.375 623.375 255.5V253.5C623.25 252.625 624 252 624.875 252Z" fill="#E9E4DC" stroke="#C49F8A"/>
<path d="M638.25 268.125C638.25 265.375 640.5 263.125 643.25 263.125C646 263.125 648.25 265.375 648.25 268.125V273.125H638.125L638.25 268.125Z" fill="#E9E4DC" stroke="#C49F8A"/>
<path d="M617.136 271.114L617.133 273.114L669.633 273.203L669.636 271.203L617.136 271.114Z" fill="#E9E4DC" stroke="#C49F8A" stroke-miterlimit="4.00001"/>
<path d="M652.875 228.125H631.25V246.375H652.875V228.125Z" fill="#E9E4DC"/>
<path d="M652.25 228.75V245.75H631.875V228.75H652.25ZM653.5 227.5H630.625V247H653.5V227.5Z" fill="#C49F8A"/>
<path d="M653.125 226.125H631.125V228H653.125V226.125Z" fill="#E9E4DC"/>
<path d="M652.5 226.75V227.375H631.75V226.75H652.5ZM653.75 225.5H630.5V228.625H653.75V225.5Z" fill="#C49F8A"/>
<path d="M534.25 91H517.25V218.25H534.25V91Z" fill="#E9E4DC"/>
<path d="M533.625 91.625V217.625H517.875V91.625H533.625ZM534.875 90.375H516.625V218.875H534.875V90.375Z" fill="#C49F8A"/>
<path d="M531.625 91H507.875V218.25H531.625V91Z" fill="#E9E4DC"/>
<path d="M531 91.625V217.625H508.5V91.625H531ZM532.25 90.375H507.25V218.875H532.25V90.375Z" fill="#C49F8A"/>
<path d="M508.125 218L531.5 90.875L508.125 218Z" fill="#E9E4DC"/>
<path d="M508.125 218L531.5 90.875" stroke="#C49F8A"/>
<path d="M319.25 320.25L317.25 322.5H320.625V323.75H315.375V322.625L318 319.75L318.625 319C318.75 318.875 318.875 318.625 319 318.375C319.125 318.125 319.125 317.875 319.125 317.625C319.125 317.25 319 317 318.75 316.75C318.5 316.5 318.125 316.375 317.75 316.375C317.125 316.375 316.5 316.625 315.75 317.25L315 316.375C315.875 315.625 316.75 315.125 317.75 315.125C318.5 315.125 319.125 315.375 319.625 315.875C320.125 316.375 320.375 317 320.375 317.625C320.5 318.375 320.125 319.25 319.25 320.25Z" fill="#565440"/>
<path d="M324 323.75C323.125 323.75 322.25 323.5 321.375 322.875L322 321.875C322.75 322.375 323.375 322.5 324 322.5C324.5 322.5 324.875 322.375 325.125 322.125C325.375 321.875 325.5 321.625 325.5 321.125C325.5 320.75 325.375 320.375 325 320.125C324.75 319.875 324.375 319.75 323.875 319.75H322.875V318.625H323.875C324.25 318.625 324.625 318.5 324.875 318.25C325.125 318 325.25 317.75 325.25 317.375C325.25 317 325.125 316.75 324.875 316.5C324.625 316.25 324.25 316.125 323.875 316.125C323.375 316.125 322.75 316.375 322.125 316.875L321.5 316C321.75 315.75 322.25 315.5 322.625 315.25C323.125 315.125 323.5 315 324 315C324.75 315 325.375 315.25 325.875 315.625C326.375 316 326.625 316.625 326.625 317.125C326.625 317.625 326.5 318 326.25 318.25C326 318.625 325.625 318.875 325.25 319C325.75 319.125 326.125 319.375 326.5 319.75C326.75 320.125 326.875 320.5 326.875 321.125C326.875 321.875 326.625 322.375 326.125 322.875C325.5 323.5 324.875 323.75 324 323.75Z" fill="#565440"/>
<path d="M541 395.25L543.375 393.25H544.375V401.625H543.125V395L541.625 396.125L541 395.25Z" fill="#565440"/>
<path d="M549.375 396.125C550.125 396.125 550.75 396.375 551.25 396.875C551.75 397.375 552 398 552 398.75C552 399.5 551.75 400.25 551.125 400.75C550.625 401.25 549.875 401.5 549 401.5C548 401.5 547.25 401.125 546.75 400.375C546.25 399.625 546 398.625 546 397.5C546 396.75 546.125 396 546.375 395.25C546.625 394.625 547 394 547.5 393.625C548 393.125 548.75 393 549.5 393C550.375 393 551.125 393.25 551.625 393.75L551.125 394.75C550.625 394.375 550.125 394.25 549.625 394.25C549.125 394.25 548.75 394.375 548.375 394.75C547.75 395.375 547.375 396.25 547.375 397.375C547.5 397 547.875 396.75 548.25 396.5C548.625 396.25 548.875 396.125 549.375 396.125ZM549.125 400.5C549.625 400.5 550 400.375 550.25 400C550.5 399.625 550.75 399.25 550.75 398.875C550.75 398.375 550.625 398 550.25 397.75C550 397.5 549.625 397.25 549.125 397.25C548.625 397.25 548.25 397.375 548 397.75C547.75 398 547.5 398.5 547.5 398.875C547.5 399.375 547.625 399.75 548 400C548.25 400.25 548.625 400.5 549.125 400.5Z" fill="#565440"/>
<path d="M553.75 401.625C553.5 401.625 553.375 401.5 553.125 401.375C552.875 401.25 552.875 401 552.875 400.75C552.875 400.5 553 400.375 553.125 400.25C553.25 400.125 553.5 400 553.75 400C554 400 554.125 400.125 554.25 400.25C554.375 400.375 554.5 400.625 554.5 400.75C554.5 401 554.375 401.125 554.25 401.375C554.125 401.625 554 401.625 553.75 401.625Z" fill="#565440"/>
<path d="M558.75 396.125C559.5 396.125 560.125 396.375 560.625 396.875C561.125 397.375 561.375 398 561.375 398.75C561.375 399.5 561.125 400.25 560.5 400.75C560 401.25 559.25 401.5 558.375 401.5C557.375 401.5 556.625 401.125 556.125 400.375C555.625 399.625 555.375 398.625 555.375 397.5C555.375 396.75 555.5 396 555.75 395.25C556 394.5 556.375 394 556.875 393.625C557.375 393.125 558.125 393 558.875 393C559.75 393 560.5 393.25 561 393.75L560.5 394.75C560 394.375 559.5 394.25 559 394.25C558.5 394.25 558.125 394.375 557.75 394.75C557.125 395.375 556.75 396.25 556.75 397.375C557 397 557.25 396.75 557.625 396.5C558 396.25 558.25 396.125 558.75 396.125ZM558.5 400.5C559 400.5 559.375 400.375 559.625 400C559.875 399.625 560.125 399.25 560.125 398.875C560.125 398.375 560 398 559.625 397.75C559.375 397.5 559 397.25 558.5 397.25C558 397.25 557.625 397.375 557.375 397.75C557.125 398 556.875 398.5 556.875 398.875C556.875 399.375 557 399.75 557.375 400C557.625 400.25 558.125 400.5 558.5 400.5Z" fill="#565440"/>
<path d="M453.75 248.625L456.125 246.625H457.125V255H455.875V248.375L454.375 249.5L453.75 248.625Z" fill="#565440"/>
<path d="M459.5 255C459.25 255 459.125 254.875 458.875 254.75C458.625 254.625 458.625 254.375 458.625 254.125C458.625 253.875 458.75 253.75 458.875 253.625C459 253.5 459.25 253.375 459.5 253.375C459.75 253.375 459.875 253.5 460 253.625C460.125 253.75 460.25 254 460.25 254.125C460.25 254.375 460.125 254.5 460 254.75C459.875 255 459.75 255 459.5 255Z" fill="#565440"/>
<path d="M460.875 247.75V246.625H466.125V247.5L463 255H461.625L464.75 247.875H460.875V247.75Z" fill="#565440"/>
<path d="M566 173.125L568.375 171.125H569.375V179.5H568.125V172.875L566.625 174L566 173.125Z" fill="#565440"/>
<path d="M570.375 173.125L572.75 171.125H573.75V179.5H572.5V172.875L571 174L570.375 173.125Z" fill="#565440"/>
<path d="M576.125 179.5C575.875 179.5 575.75 179.375 575.5 179.25C575.25 179.125 575.25 178.875 575.25 178.625C575.25 178.375 575.375 178.25 575.5 178.125C575.625 178 575.875 177.875 576.125 177.875C576.375 177.875 576.5 178 576.625 178.125C576.75 178.25 576.875 178.5 576.875 178.625C576.875 178.875 576.75 179 576.625 179.25C576.5 179.5 576.375 179.5 576.125 179.5Z" fill="#565440"/>
<path d="M580.75 174C581.5 174 582.25 174.25 582.75 174.75C583.25 175.25 583.5 175.875 583.5 176.75C583.5 177.625 583.25 178.25 582.625 178.75C582.125 179.25 581.375 179.5 580.5 179.5C579.5 179.5 578.625 179.125 577.75 178.5L578.375 177.5C579.125 178 579.75 178.25 580.5 178.25C581 178.25 581.375 178.125 581.75 177.75C582.125 177.5 582.25 177.125 582.25 176.625C582.25 176.125 582.125 175.75 581.75 175.5C581.5 175.25 581 175 580.5 175C579.875 175 579.375 175.25 579 175.625L578.25 175.125L578.75 171H583V172.125H579.75L579.5 174.125C579.875 174.125 580.375 174 580.75 174Z" fill="#565440"/>
<path d="M250.25 183.5H251.125V184.625H250.25V186.625H249V184.625H245.25L245 183.875L249.5 178.375H250.375V183.5H250.25ZM249 180.5L246.5 183.5H249V180.5Z" fill="#565440"/>
<path d="M252.875 186.75C252.625 186.75 252.5 186.625 252.25 186.5C252.125 186.375 252 186.125 252 185.875C252 185.625 252.125 185.5 252.25 185.375C252.375 185.25 252.625 185.125 252.875 185.125C253.125 185.125 253.25 185.25 253.375 185.375C253.5 185.5 253.625 185.75 253.625 185.875C253.625 186.125 253.5 186.25 253.375 186.5C253.375 186.75 253.125 186.75 252.875 186.75Z" fill="#565440"/>
<path d="M257.375 186.75C256.5 186.75 255.625 186.5 254.75 185.875L255.375 184.875C256.125 185.375 256.75 185.5 257.375 185.5C257.875 185.5 258.25 185.375 258.5 185.125C258.75 184.875 258.875 184.625 258.875 184.125C258.875 183.75 258.75 183.375 258.375 183.125C258.125 182.875 257.75 182.75 257.25 182.75H256.25V181.625H257.25C257.625 181.625 258 181.5 258.25 181.25C258.5 181 258.625 180.75 258.625 180.375C258.625 180 258.5 179.75 258.25 179.5C258 179.25 257.625 179.125 257.25 179.125C256.75 179.125 256.125 179.375 255.5 179.875L254.875 179C255.125 178.75 255.625 178.5 256 178.25C256.5 178.125 256.875 178 257.375 178C258.125 178 258.75 178.25 259.25 178.625C259.75 179 260 179.625 260 180.125C260 180.625 259.875 181 259.625 181.25C259.375 181.625 259 181.875 258.625 182C259.125 182.125 259.5 182.375 259.875 182.75C260.125 183.125 260.25 183.5 260.25 184.125C260.25 184.875 260 185.375 259.5 185.875C258.875 186.5 258.125 186.75 257.375 186.75Z" fill="#565440"/>
<path d="M355.875 150.875H356.75V152H355.875V154H354.625V152H350.875L350.625 151.25L355.125 145.75H356V150.875H355.875ZM354.625 147.875L352.125 150.875H354.625V147.875Z" fill="#565440"/>
<path d="M358.625 154.125C358.375 154.125 358.25 154 358 153.875C357.875 153.75 357.75 153.5 357.75 153.25C357.75 153 357.875 152.875 358 152.75C358.125 152.625 358.375 152.5 358.625 152.5C358.875 152.5 359 152.625 359.125 152.75C359.25 152.875 359.375 153.125 359.375 153.25C359.375 153.5 359.25 153.625 359.125 153.875C359 154.125 358.75 154.125 358.625 154.125Z" fill="#565440"/>
<path d="M364.375 150.625L362.375 152.875H365.75V154.125H360.5V153L363.125 150.125L363.75 149.375C363.875 149.25 364 149 364.125 148.75C364.25 148.5 364.25 148.25 364.25 148C364.25 147.625 364.125 147.375 363.875 147.125C363.625 146.875 363.25 146.75 362.875 146.75C362.25 146.75 361.625 147 360.875 147.625L360.125 146.75C361 146 361.875 145.5 362.875 145.5C363.625 145.5 364.25 145.75 364.75 146.25C365.25 146.75 365.5 147.375 365.5 148C365.625 148.75 365.25 149.625 364.375 150.625Z" fill="#565440"/>
<path d="M459.25 183.125H460.125V184.25H459.25V186.25H458V184.25H454.25L454 183.5L458.5 178H459.375V183.125H459.25ZM458 180.125L455.5 183.125H458V180.125Z" fill="#565440"/>
</svg>
