<svg width="900" height="600" viewBox="0 0 900 600" fill="none" xmlns="http://www.w3.org/2000/svg">
<path d="M341 82L399.25 97.375H499.125L503 84.125L570.75 99.625V379.5H513.25V428.875H492.75V522.75H340.875L341 82Z" fill="#DBD4CA"/>
<g opacity="0.3">
<path opacity="0.7" d="M418.75 221.375H347.375V295H418.75V221.375Z" fill="#C49F8A"/>
<path opacity="0.7" d="M570.75 224.5H503.75V308.125H570.75V224.5Z" fill="#C49F8A"/>
</g>
<path d="M570.75 304.5L566.875 308.375H568.625L570.75 306.25V304.5Z" fill="#C49F8A"/>
<path d="M550.5 224.75H548.75L560.25 236.25L548 248.5L535.875 236.375L547.5 224.75H545.75L535 235.5L524.25 224.75H522.5L534.125 236.375L521.875 248.625L509.625 236.375L521.25 224.75H519.5L508.75 235.5L503.875 230.625V232.375L507.875 236.375L503.875 240.375V242.125L508.75 237.25L521 249.5L508.875 261.625L503.875 256.625V258.375L508 262.5L503.875 266.625V268.375L508.875 263.375L521 275.5L508.75 287.75L503.875 282.875V284.625L507.875 288.625L503.875 292.625V294.375L508.75 289.5L521 301.75L514.375 308.375H516.125L521.875 302.625L527.625 308.375H529.375L522.75 301.75L535 289.5L547.25 301.75L540.625 308.375H542.375L548.125 302.625L553.875 308.375H555.625L549 301.75L561.125 289.625L570.75 299.25V297.5L562 288.75L570.75 280V278.25L561.125 287.875L548.875 275.625L561.125 263.375L570.75 273V271.25L562 262.5L570.75 253.75V252L561.125 261.625L548.875 249.375L561.125 237.125L570.75 246.75V245L562 236.25L570.75 227.5V225.75L561.125 235.375L550.5 224.75ZM535 237.25L547.125 249.375L534.875 261.625L522.75 249.5L535 237.25ZM509.75 262.5L521.875 250.375L534 262.5L521.875 274.625L509.75 262.5ZM521.875 300.875L509.625 288.625L521.875 276.375L534.125 288.625L521.875 300.875ZM522.75 275.5L534.875 263.375L547.125 275.625L535 287.75L522.75 275.5ZM560.25 288.75L548.125 300.875L535.875 288.625L548 276.5L560.25 288.75ZM560.25 262.5L548 274.75L535.75 262.5L548 250.25L560.25 262.5Z" fill="#C49F8A"/>
<path d="M418.875 221.375H417.5L416.75 222.125L416 221.375H414.25L416 223.125L403.75 235.375L391.5 223.125L393.25 221.375H391.25L390.5 222.125L389.75 221.375H388L389.75 223.125L377.625 235.25L365.5 223.125L367.25 221.375H365.5L364.75 222.125L364 221.375H362.25L364 223.125L351.75 235.375L348 231.625V233.375L350.875 236.25L348 239.125V240.875L351.75 237.125L363.875 249.25L351.625 261.5L348 257.875V259.625L350.75 262.375L348 265.125V266.875L351.625 263.25L363.875 275.5L351.625 287.75L348 284.125V285.875L350.75 288.625L348 291.375V293.125L351.625 289.5L357.125 295H358.875L352.5 288.625L364.75 276.375L377 288.625L370.625 295H372.375L377.875 289.5L383.375 295H385.125L378.75 288.625L391 276.375L403.125 288.5L396.625 295H398.375L404 289.375L409.625 295H411.375L404.875 288.5L417.125 276.25L419.375 278.5V276.75L418.125 275.5L419.375 274.25V272.5L417.125 274.75L405 262.625L417.125 250.5L419.375 252.75V251L418.125 249.75L419.375 248.5V246.25L417.125 248.5L404.875 236.25L417.125 224L419.375 226.25V224.5L418.125 223.25L419.375 222V221.375H418.875ZM390.5 224L402.75 236.25L390.625 248.375L378.375 236.125L390.5 224ZM389.625 249.25L377.375 261.5L365.125 249.25L377.375 237L389.625 249.25ZM352.125 236.125L364.375 223.875L376.5 236L364.25 248.25L352.125 236.125ZM352.125 262.375L364.375 250.125L376.625 262.375L364.375 274.625L352.125 262.375ZM377.375 287.625L365.125 275.375L377.375 263.125L389.625 275.375L377.375 287.625ZM378.375 262.375L390.625 250.125L402.875 262.375L390.625 274.625L378.375 262.375ZM415.875 275.375L403.625 287.625L391.5 275.5L403.75 263.25L415.875 275.375ZM415.875 249.25L403.75 261.375L391.5 249.125L403.625 237L415.875 249.25Z" fill="#C49F8A"/>
<path d="M500.875 78.75L562.5 93L561.5 97.75L500 83.125L500.875 78.75Z" stroke="#565440"/>
<path d="M336.125 294.125H340.875V385.875H336.125V294.125Z" stroke="#565440"/>
<path d="M336.125 75.875V168.875H340.875V82.25L396.5 96.75L397.875 92L336.125 75.875Z" stroke="#565440"/>
<path d="M567 91.75H554.375V110.75H567V221.375H494.25V224.5H503.75V253H506.875V224.5H555.375V234.5H556.875H558.5H567V306.75H506.875V278H503.75V310H506.875H567V370H560.625V379.5H567H576.5V91.75H567ZM558.5 231.375V224.5H567V231.375H558.5Z" fill="#565440"/>
<path d="M333 297.25H348.375H352H462.75V294.125V259.375H459.625V294.125H420.375V224.5V221.375H414V224.5H417.125V294.125H352V234.5H370H371.625H373.125V224.5H389.875V221.375H351.875V139.125H332.875V142.25H323.375V151.75H332.875V189.75H323.375V199.25H332.875V237.25H323.375V246.75H332.875V287.875H323.375V297.375H333V297.25ZM370 224.5V231.375H352V224.5H370Z" fill="#565440"/>
<path d="M345.625 335.25H323.5V344.75H345.625V335.25Z" fill="#565440"/>
<path d="M396.25 104.375H402.5V110.625H424.625V104.375H459.5V234H462.625V224.5H469V221.375H462.625V104.375H502.5L503.75 104.625L509.5 80L500.25 77.75L496.375 94.875H424.625H409.5L396.875 89.75L393.375 98.625L396.25 99.75V104.375Z" fill="#565440"/>
<path d="M481.625 370V373.125H503.75V379.5V420.625H494.25H484.75V464.875H389.875V445.875H386.75V464.875V468H427.875V471.125H431V468H484.75V505.25H474.5H471.375V508.375V515.5H431V496.5H427.875V515.5H352V449H361.5V445.875H352V382.625H333H323.5V392.125H333V433.25H323.5V442.75H333V525H339.5H487.5H494.375V430.125H503.875H513.375V379.5H529.25V370H503.75H481.625ZM474.5 508.375H484.75V515.5H474.5V508.375Z" fill="#565440"/>
<path d="M529.125 370C529.125 365.875 530.125 362.125 531.625 358.25C533.25 354.5 535.375 350.625 538.625 347.875C541.5 345 545 342.5 548.75 340.875C552.5 339.25 556.625 338.375 560.75 338.375V370M494.25 221.375C494.25 217.875 493.625 215 492.375 211.875C491.125 208.75 489.25 205.875 487 203.625C484.75 201.125 482 199.25 478.75 197.875C475.625 196.625 472.375 196 469 196V221.25L494.25 221.375ZM459.5 234C456 234 453.125 234.625 450 235.875C446.875 237.125 444 239 441.75 241.25C439.25 243.5 437.375 246.25 436 249.5C434.75 252.625 434.125 255.875 434.125 259.25H459.375L459.5 234ZM503.75 278C500.25 278 497.375 277.375 494.25 276.125C491.125 274.875 488.25 273 486 270.75C483.5 268.5 481.625 265.75 480.25 262.5C478.875 259.25 478.375 256.125 478.375 252.75H503.75V278ZM389.625 224.5C389.625 227.625 390.25 230.5 391.5 233.375C392.75 236.25 394.375 239.125 396.875 241.25C399.125 243.5 401.875 245.375 404.75 246.625C407.625 247.875 410.75 248.5 413.875 248.5V224.5H389.625ZM386.75 445.875C386.75 442.375 386.125 439.5 384.875 436.375C383.625 433.25 381.75 430.375 379.5 428.125C377.25 425.625 374.5 423.75 371.25 422.375C368.125 421.125 364.875 420.5 361.5 420.5V445.75L386.75 445.875ZM427.875 496.5C424.375 496.5 421.5 495.875 418.375 494.625C415.25 493.375 412.375 491.5 410.125 489.25C407.625 487 405.75 484.25 404.375 481C403.125 477.875 402.5 474.625 402.5 471.25H427.75L427.875 496.5Z" stroke="#565440"/>
<path d="M566.5 141.5H500.375V185.5H566.5V141.5Z" fill="#E9E4DC"/>
<path d="M501 142.125H565.875V185H501V142.125ZM499.75 140.875V186.125H567.125V140.875H499.75Z" fill="#C49F8A"/>
<path d="M562.25 164.625H545.625V182.25H562.25V164.625Z" fill="#E9E4DC" stroke="#C49F8A"/>
<path d="M562.25 144.75H545.625V162.375H562.25V144.75Z" fill="#E9E4DC" stroke="#C49F8A"/>
<path d="M552.375 180.125L556.625 167.375L540.625 164L536.25 176.75L552.375 180.125Z" fill="#E9E4DC" stroke="#C49F8A" stroke-miterlimit="3.9998"/>
<path d="M540.625 163L556.625 159.625L552.375 146.875L536.25 150.25L540.625 163Z" fill="#E9E4DC" stroke="#C49F8A" stroke-miterlimit="3.9998"/>
<path d="M499.625 185.5V141.5H552.375L553.75 159L548.875 185.5H499.625Z" fill="#E9E4DC"/>
<path d="M551.75 142.125L553.125 158.875L548.375 184.875H500.375V142.125H551.75ZM552.875 140.875H551.75H498.875V186.125H548.875H549.25L554.25 159L552.875 140.875Z" fill="#C49F8A"/>
<path d="M551.25 141.5V159.125L548.5 185.625" stroke="#C49F8A"/>
<path d="M458.875 128.75H399.125V176.125H458.875V128.75Z" fill="#E9E4DC"/>
<path d="M458.25 129.375V175.5H399.75V129.375H458.25ZM459.5 128.125H398.5V176.75H459.5V128.125Z" fill="#C49F8A"/>
<path d="M455.25 153.625H440.125V172.625H455.25V153.625Z" fill="#E9E4DC" stroke="#C49F8A"/>
<path d="M455.25 132.25H440.125V151.25H455.25V132.25Z" fill="#E9E4DC" stroke="#C49F8A"/>
<path d="M446.25 170.25L450.125 156.5L435.5 152.875L431.625 166.5L446.25 170.25Z" fill="#E9E4DC" stroke="#C49F8A" stroke-miterlimit="3.9998"/>
<path d="M435.5 151.875L450.125 148.125L446.25 134.5L431.625 138.125L435.5 151.875Z" fill="#E9E4DC" stroke="#C49F8A" stroke-miterlimit="3.9998"/>
<path d="M398.5 176V128.75H446.125L447.375 147.5L443 176H398.5Z" fill="#E9E4DC"/>
<path d="M445.5 129.375L446.75 147.5L442.5 175.5H399.25V129.375H445.5ZM446.75 128.125H445.75H397.875V176.75H443.125H443.5L448 147.625L446.75 128.125Z" fill="#C49F8A"/>
<path d="M445.125 128.75V147.75L442.625 176.125" stroke="#C49F8A"/>
<path d="M566.5 282.375H507.625V306.125H566.5V282.375Z" fill="#E9E4DC"/>
<path d="M565.75 283V305.5H508.25V283H565.75ZM567 281.75H507V306.75H567V281.75Z" fill="#C49F8A"/>
<path d="M561.5 294.25C561.5 289.625 557.5 286.125 553 286.5C548 287 541.75 287.375 537 287.375C532.375 287.375 526 286.875 521 286.5C516.5 286.125 512.5 289.75 512.5 294.25C512.5 298.75 516.5 302.375 521 302C526 301.5 532.25 301.125 537 301.125C541.625 301.125 548 301.625 553 302C557.5 302.375 561.5 298.875 561.5 294.25Z" fill="#E9E4DC" stroke="#C49F8A" stroke-linejoin="round"/>
<path d="M553.5 295.375C554.121 295.375 554.625 294.871 554.625 294.25C554.625 293.629 554.121 293.125 553.5 293.125C552.879 293.125 552.375 293.629 552.375 294.25C552.375 294.871 552.879 295.375 553.5 295.375Z" fill="#E9E4DC" stroke="#C49F8A" stroke-linejoin="round"/>
<path d="M484.25 468.625H473.625V484.625H484.25V468.625Z" fill="#E9E4DC"/>
<path d="M483.5 469.25V484H474.125V469.25H483.5ZM484.75 468H472.875V485.25H484.75V468Z" fill="#C49F8A"/>
<path d="M478.875 479.875C477.125 479.875 475.625 478.375 475.625 476.625C475.625 474.875 477.125 473.375 478.875 473.375C480.625 473.375 482.125 474.875 482.125 476.625C482.125 478.375 480.625 479.875 478.875 479.875Z" fill="#E9E4DC"/>
<path d="M478.875 474.125C480.25 474.125 481.5 475.25 481.5 476.75C481.5 478.25 480.375 479.375 478.875 479.375C477.375 479.375 476.25 478.25 476.25 476.75C476.25 475.25 477.5 474.125 478.875 474.125ZM478.875 472.875C476.75 472.875 475 474.625 475 476.75C475 478.875 476.75 480.625 478.875 480.625C481 480.625 482.75 478.875 482.75 476.75C482.75 474.625 481 472.875 478.875 472.875Z" fill="#C49F8A"/>
<path d="M409.625 375.625H450.75V405.5H409.625V375.625Z" fill="#E9E4DC" stroke="#C49F8A"/>
<path d="M407 383H406.375C402.125 383 398.75 386.375 398.75 390.625C398.75 394.875 402.125 398.25 406.375 398.25H407V383Z" fill="#E9E4DC" stroke="#C49F8A"/>
<path d="M409.375 384.625H406.375C403.125 384.625 400.5 387.25 400.5 390.5C400.5 393.75 403.125 396.375 406.375 396.375H409.375V384.625Z" fill="#E9E4DC" stroke="#C49F8A"/>
<path d="M453.125 383H453.75C458 383 461.375 386.375 461.375 390.625C461.375 394.875 458 398.25 453.75 398.25H453.125V383Z" fill="#E9E4DC" stroke="#C49F8A"/>
<path d="M450.75 384.625H453.75C457 384.625 459.625 387.25 459.625 390.5C459.625 393.75 457 396.375 453.75 396.375H450.75V384.625Z" fill="#E9E4DC" stroke="#C49F8A"/>
<path d="M422.5 407.875V408.5C422.5 412.75 425.875 416.125 430.125 416.125C434.375 416.125 437.75 412.75 437.75 408.5V407.875H422.5Z" fill="#E9E4DC" stroke="#C49F8A"/>
<path d="M424.25 405.5V408.5C424.25 411.75 426.875 414.375 430.125 414.375C433.375 414.375 436 411.75 436 408.5V405.5H424.25Z" fill="#E9E4DC" stroke="#C49F8A"/>
<path d="M422.5 373.25V372.625C422.5 368.375 425.875 365 430.125 365C434.375 365 437.75 368.375 437.75 372.625V373.25H422.5Z" fill="#E9E4DC" stroke="#C49F8A"/>
<path d="M424.25 375.625V372.625C424.25 369.375 426.875 366.75 430.125 366.75C433.375 366.75 436 369.375 436 372.625V375.625H424.25Z" fill="#E9E4DC" stroke="#C49F8A"/>
<path d="M416.5 280.125H391.375V293.5H416.5V280.125Z" fill="#E9E4DC"/>
<path d="M415.875 280.75V292.875H392V280.75H415.875ZM417.125 279.5H390.75V294.125H417.125V279.5Z" fill="#C49F8A"/>
<path d="M396.25 286.75C396.25 284.25 398.25 282.25 400.75 282.25H407.125C409.625 282.25 411.625 284.25 411.625 286.75C411.625 289.25 409.625 291.25 407.125 291.25H400.75C398.25 291.25 396.25 289.25 396.25 286.75Z" fill="#E9E4DC" stroke="#C49F8A"/>
<path d="M403.875 289.625C404.496 289.625 405 289.121 405 288.5C405 287.879 404.496 287.375 403.875 287.375C403.254 287.375 402.75 287.879 402.75 288.5C402.75 289.121 403.254 289.625 403.875 289.625Z" fill="#E9E4DC" stroke="#C49F8A"/>
<path d="M566.375 262.375H553.75V282.375H566.375V262.375Z" fill="#E9E4DC"/>
<path d="M565.75 263V281.75H554.375V263H565.75ZM567 261.75H553.125V283H567V261.75Z" fill="#C49F8A"/>
<path d="M560.125 265.5C557.75 265.5 555.875 267.375 555.875 269.75V275.875C555.875 278.25 557.75 280.125 560.125 280.125C562.5 280.125 564.375 278.25 564.375 275.875V269.75C564.375 267.375 562.5 265.5 560.125 265.5Z" fill="#E9E4DC" stroke="#C49F8A"/>
<path d="M561.25 273.875C561.871 273.875 562.375 273.371 562.375 272.75C562.375 272.129 561.871 271.625 561.25 271.625C560.629 271.625 560.125 272.129 560.125 272.75C560.125 273.371 560.629 273.875 561.25 273.875Z" fill="#E9E4DC" stroke="#C49F8A"/>
<path d="M526.75 231.25H513.75V235.125H526.75V231.25Z" fill="#E9E4DC"/>
<path d="M526.125 231.875V234.5H514.375V231.875H526.125ZM527.375 230.625H513.125V235.75H527.375V230.625Z" fill="#C49F8A"/>
<path d="M515.125 244.5C514.875 247.5 517.25 250 520.25 250C523.25 250 525.5 247.5 525.375 244.5L524.75 235H515.75L515.125 244.5Z" fill="#E9E4DC" stroke="#C49F8A"/>
<path d="M516.875 244.25C516.75 246.25 518.25 248 520.25 248C522.25 248 523.875 246.25 523.625 244.25L523.25 238.75H517.375L516.875 244.25Z" fill="#E9E4DC" stroke="#C49F8A"/>
<path d="M520.25 242.875C520.871 242.875 521.375 242.371 521.375 241.75C521.375 241.129 520.871 240.625 520.25 240.625C519.629 240.625 519.125 241.129 519.125 241.75C519.125 242.371 519.629 242.875 520.25 242.875Z" fill="#E9E4DC" stroke="#C49F8A"/>
<path d="M484.125 446.5H390.5V464.25H484.125V446.5Z" fill="#E9E4DC"/>
<path d="M391.125 447.125H483.5V463.625H391.125V447.125ZM389.875 445.875V464.875H484.75V445.875H389.875Z" fill="#C49F8A"/>
<path d="M503.25 398.25H482.875V420H503.25V398.25Z" fill="#E9E4DC"/>
<path d="M502.625 398.875V419.375H483.5V398.875H502.625ZM503.875 397.625H482.25V420.625H503.875V397.625Z" fill="#C49F8A"/>
<path d="M483.5 398.25H481.25V420H483.5V398.25Z" fill="#E9E4DC"/>
<path d="M482.875 398.875V419.375H481.875V398.875H482.875ZM484.125 397.625H480.625V420.625H484.125V397.625Z" fill="#C49F8A"/>
<path d="M503.25 373.75H481.25V398.25H503.25V373.75Z" fill="#E9E4DC"/>
<path d="M502.625 374.375V397.625H481.875V374.375H502.625ZM503.875 373.125H480.625V398.875H503.875V373.125Z" fill="#C49F8A"/>
<path d="M481.375 373.75H479.125V398.25H481.375V373.75Z" fill="#E9E4DC"/>
<path d="M480.625 374.375V397.625H479.625V374.375H480.625ZM481.875 373.125H478.375V398.875H481.875V373.125Z" fill="#C49F8A"/>
<path d="M477 448.25H454.5V462.5H477V448.25Z" fill="#E9E4DC" stroke="#C49F8A"/>
<path d="M463.375 455.375C463.375 452.375 465.75 450 468.75 450H469.875C472.875 450 475.25 452.375 475.25 455.375C475.25 458.375 472.875 460.75 469.875 460.75H468.75C465.75 460.75 463.375 458.375 463.375 455.375Z" fill="#E9E4DC" stroke="#C49F8A"/>
<path d="M469.25 458.75C469.871 458.75 470.375 458.246 470.375 457.625C470.375 457.004 469.871 456.5 469.25 456.5C468.629 456.5 468.125 457.004 468.125 457.625C468.125 458.246 468.629 458.75 469.25 458.75Z" fill="#E9E4DC" stroke="#C49F8A"/>
<path d="M455.625 450.125H461.5M455.625 460.75H461.5H455.625ZM455.625 459H461.5H455.625ZM455.625 457.125H461.5H455.625ZM455.625 455.375H461.5H455.625ZM455.625 453.625H461.5H455.625ZM455.625 451.875H461.5H455.625Z" stroke="#C49F8A"/>
<path d="M439.625 446.5H422.375V464.25H439.625V446.5Z" fill="#E9E4DC"/>
<path d="M439 447.125V463.625H423V447.125H439ZM440.25 445.875H421.75V464.875H440.25V445.875Z" fill="#C49F8A"/>
<path d="M439.625 462.25H422.375V464.25H439.625V462.25Z" fill="#E9E4DC"/>
<path d="M439 462.875V463.625H423V462.875H439ZM440.25 461.625H421.75V464.875H440.25V461.625Z" fill="#C49F8A"/>
<path d="M427.125 459.5C426.25 459.5 425.5 458.75 425.5 457.875C425.5 457 426.25 456.25 427.125 456.25C428 456.25 428.75 457 428.75 457.875C428.75 458.75 428 459.5 427.125 459.5Z" fill="#E9E4DC"/>
<path d="M427.125 456.875C427.625 456.875 428.125 457.25 428.125 457.875C428.125 458.5 427.75 458.875 427.125 458.875C426.5 458.875 426.125 458.5 426.125 457.875C426.125 457.25 426.625 456.875 427.125 456.875ZM427.125 455.625C425.875 455.625 424.875 456.625 424.875 457.875C424.875 459.125 425.875 460.125 427.125 460.125C428.375 460.125 429.375 459.125 429.375 457.875C429.375 456.625 428.375 455.625 427.125 455.625Z" fill="#C49F8A"/>
<path d="M427.125 453.375C426 453.375 425 452.375 425 451.25C425 450.125 426 449.125 427.125 449.125C428.25 449.125 429.25 450.125 429.25 451.25C429.25 452.375 428.25 453.375 427.125 453.375Z" fill="#E9E4DC"/>
<path d="M427.125 449.75C428 449.75 428.625 450.375 428.625 451.25C428.625 452.125 428 452.75 427.125 452.75C426.25 452.75 425.625 452.125 425.625 451.25C425.625 450.375 426.25 449.75 427.125 449.75ZM427.125 448.5C425.625 448.5 424.375 449.75 424.375 451.25C424.375 452.75 425.625 454 427.125 454C428.625 454 429.875 452.75 429.875 451.25C429.875 449.75 428.625 448.5 427.125 448.5Z" fill="#C49F8A"/>
<path d="M434.875 460C433.75 460 432.75 459 432.75 457.875C432.75 456.75 433.75 455.75 434.875 455.75C436 455.75 437 456.75 437 457.875C437 459 436 460 434.875 460Z" fill="#E9E4DC"/>
<path d="M434.875 456.375C435.75 456.375 436.375 457 436.375 457.875C436.375 458.75 435.75 459.375 434.875 459.375C434 459.375 433.375 458.75 433.375 457.875C433.375 457 434 456.375 434.875 456.375ZM434.875 455.125C433.375 455.125 432.125 456.375 432.125 457.875C432.125 459.375 433.375 460.625 434.875 460.625C436.375 460.625 437.625 459.375 437.625 457.875C437.625 456.375 436.375 455.125 434.875 455.125Z" fill="#C49F8A"/>
<path d="M434.875 452.375C435.772 452.375 436.5 451.647 436.5 450.75C436.5 449.853 435.772 449.125 434.875 449.125C433.978 449.125 433.25 449.853 433.25 450.75C433.25 451.647 433.978 452.375 434.875 452.375Z" fill="#E9E4DC"/>
<path d="M434.875 449.75C435.375 449.75 435.875 450.125 435.875 450.75C435.875 451.375 435.5 451.75 434.875 451.75C434.375 451.75 433.875 451.375 433.875 450.75C433.875 450.125 434.25 449.75 434.875 449.75ZM434.875 448.5C433.625 448.5 432.625 449.5 432.625 450.75C432.625 452 433.625 453 434.875 453C436.125 453 437.125 452 437.125 450.75C437.125 449.5 436 448.5 434.875 448.5Z" fill="#C49F8A"/>
<path d="M493.75 407L490.875 412M495.125 409.5H489.375H495.125ZM493.75 412L490.875 407L493.75 412Z" stroke="#C49F8A"/>
<path d="M528.625 123.5L515.125 120.375L516.125 107.625L533.25 111.625L528.625 123.5Z" fill="#E9E4DC" stroke="#C49F8A"/>
<path d="M508.465 86.5266L503.919 106.13L548.971 116.578L553.517 96.9745L508.465 86.5266Z" fill="#E9E4DC"/>
<path d="M509 87.125L552.75 97.25L548.5 115.625L504.75 105.5L509 87.125ZM508.125 85.625L503.25 106.5L549.5 117.25L554.375 96.375L508.125 85.625Z" fill="#C49F8A"/>
<path d="M530.25 106.5L519.875 104.125L530.25 106.5ZM530.625 108.875L518.375 106L519.25 102.375L531.5 105.25L530.625 108.875Z" stroke="#C49F8A"/>
<path d="M535.625 110.25C535.125 110.125 534.75 109.625 534.875 109.125L535.125 107.875C535.25 107.375 535.75 107 536.25 107.125C536.75 107.25 537.125 107.75 537 108.25L536.75 109.5C536.75 110 536.25 110.375 535.625 110.25Z" fill="#E9E4DC" stroke="#C49F8A"/>
<path d="M529.875 98.5C529.5 100.25 527.75 101.25 526.125 100.875C524.375 100.5 523.375 98.75 523.75 97.125L524.5 94L530.625 95.375L529.875 98.5Z" fill="#E9E4DC" stroke="#C49F8A"/>
<path d="M543.125 99.625L511.25 92.25L511.75 90L543.625 97.5L543.125 99.625Z" fill="#E9E4DC" stroke="#C49F8A"/>
<path d="M518.052 110.225L515.595 120.818L528.258 123.755L530.715 113.161L518.052 110.225Z" fill="#E9E4DC"/>
<path d="M518.5 110.625L530 113.25L527.875 122.625L516.375 120L518.5 110.625ZM517.5 109.125L514.75 121L528.625 124.25L531.375 112.375L517.5 109.125Z" fill="#C49F8A"/>
<path d="M515.366 121.063L515.225 121.671L528.01 124.642L528.151 124.033L515.366 121.063Z" fill="#E9E4DC"/>
<path d="M514.875 120.25L514.5 122.125L528.5 125.375L528.875 123.5L514.875 120.25Z" fill="#C49F8A"/>
<path d="M566.375 200.875H507.125V217.875H566.375V200.875Z" fill="#E9E4DC"/>
<path d="M507.75 201.5H565.75V217.25H507.75V201.5ZM506.5 200.25V218.5H567V200.25H506.5Z" fill="#C49F8A"/>
<path d="M566.375 203.5H507.125V220.625H566.375V203.5Z" fill="#E9E4DC"/>
<path d="M507.75 204.125H565.75V220H507.75V204.125ZM506.5 202.875V221.25H567V202.875H506.5Z" fill="#C49F8A"/>
<path d="M507.5 220.75L566.375 203.5L507.5 220.75Z" fill="#E9E4DC"/>
<path d="M507.5 220.75L566.375 203.5" stroke="#C49F8A"/>
<path d="M458.875 273.75H420.875V290.75H458.875V273.75Z" fill="#E9E4DC"/>
<path d="M421.5 274.375H458.25V290.125H421.5V274.375ZM420.25 273.125V291.375H459.5V273.125H420.25Z" fill="#C49F8A"/>
<path d="M458.875 276.375H420.875V293.5H458.875V276.375Z" fill="#E9E4DC"/>
<path d="M421.5 277H458.25V292.875H421.5V277ZM420.25 275.75V294.125H459.5V275.75H420.25Z" fill="#C49F8A"/>
<path d="M420.875 293.5L459.125 276.5L420.875 293.5Z" fill="#E9E4DC"/>
<path d="M420.875 293.5L459.125 276.5" stroke="#C49F8A"/>
<path d="M566.375 313.25H504.375V327.125H566.375V313.25Z" fill="#E9E4DC"/>
<path d="M505 313.875H565.75V326.5H505V313.875ZM503.75 312.625V327.75H567V312.625H503.75Z" fill="#C49F8A"/>
<path d="M566.375 310.5H504.375V324.5H566.375V310.5Z" fill="#E9E4DC"/>
<path d="M505 311.125H565.75V323.875H505V311.125ZM503.75 309.875V325.125H567V309.875H503.75Z" fill="#C49F8A"/>
<path d="M566.125 310.375L504.5 324.625L566.125 310.375Z" fill="#E9E4DC"/>
<path d="M566.125 310.375L504.5 324.625" stroke="#C49F8A"/>
<path d="M525.625 358.75H509.875V368.25H525.625V358.75Z" fill="#E9E4DC"/>
<path d="M510.5 359.375H525V367.625H510.5V359.375ZM509.25 358.125V368.875H526.25V358.125H509.25Z" fill="#C49F8A"/>
<path d="M525.625 361.375H509.875V369.375H525.625V361.375Z" fill="#E9E4DC"/>
<path d="M525 362V368.75H510.5V362H525ZM526.25 360.75H509.25V370H526.25V360.75Z" fill="#C49F8A"/>
<path d="M509.5 369.125L526 361.625L509.5 369.125Z" fill="#E9E4DC"/>
<path d="M509.5 369.125L526 361.625" stroke="#C49F8A"/>
<path d="M363.375 129.125H361.25V175.75H363.375V129.125Z" fill="#E9E4DC"/>
<path d="M362.75 129.75V175.125H361.875V129.75H362.75ZM364 128.5H360.625V176.375H364V128.5Z" fill="#C49F8A"/>
<path d="M361.25 129.125H352.75V175.75H361.25V129.125Z" fill="#E9E4DC"/>
<path d="M360.5 129.75V175.125H353.25V129.75H360.5ZM361.75 128.5H352V176.375H361.75V128.5Z" fill="#C49F8A"/>
<path d="M356.5 135H354.5V168.875H356.5V135Z" fill="#E9E4DC" stroke="#C49F8A"/>
<path d="M354.5 159.125V144.75L352.75 146V157.75L354.5 159.125Z" fill="#E9E4DC" stroke="#C49F8A"/>
<path d="M566.375 243.25H553.75V262.375H566.375V243.25Z" fill="#E9E4DC"/>
<path d="M565.75 243.875V261.75H554.375V243.875H565.75ZM567 242.625H553.125V263H567V242.625Z" fill="#C49F8A"/>
<path d="M560.125 256.75C558 256.75 556.25 255 556.25 252.875C556.25 250.75 558 249 560.125 249C562.25 249 564 250.75 564 252.875C564 255 562.25 256.75 560.125 256.75Z" fill="#E9E4DC"/>
<path d="M560.125 249.5C561.875 249.5 563.375 251 563.375 252.75C563.375 254.5 561.875 256 560.125 256C558.375 256 556.875 254.5 556.875 252.75C556.875 251 558.25 249.5 560.125 249.5ZM560.125 248.25C557.625 248.25 555.625 250.25 555.625 252.75C555.625 255.25 557.625 257.25 560.125 257.25C562.625 257.25 564.625 255.25 564.625 252.75C564.625 250.25 562.625 248.25 560.125 248.25Z" fill="#C49F8A"/>
<path d="M554.75 225.125H507.625V231.25H554.75V225.125Z" fill="#E9E4DC"/>
<path d="M554 225.75V230.625H508.25V225.75H554ZM555.25 224.5H507V231.875H555.375V224.5H555.25Z" fill="#C49F8A"/>
<path d="M450.125 306.5H403.5V308.625H450.125V306.5Z" fill="#E9E4DC"/>
<path d="M449.5 307.125V308H404.125V307.125H449.5ZM450.75 305.875H402.875V309.25H450.75V305.875Z" fill="#C49F8A"/>
<path d="M450.125 297.875H403.5V306.375H450.125V297.875Z" fill="#E9E4DC"/>
<path d="M449.5 298.5V305.75H404.125V298.5H449.5ZM450.75 297.25H402.875V307H450.75V297.25Z" fill="#C49F8A"/>
<path d="M444.25 299.625H410.375V301.625H444.25V299.625Z" fill="#E9E4DC" stroke="#C49F8A"/>
<path d="M420.125 299.625H434.5L433.25 297.875H421.5L420.125 299.625Z" fill="#E9E4DC" stroke="#C49F8A"/>
<path d="M355 293.5V270.625H371C374.75 270.625 377.875 273.75 377.875 277.5V293.5H355Z" fill="#E9E4DC"/>
<path d="M371.125 271.25C374.625 271.25 377.375 274 377.375 277.5V292.875H355.75V271.25H371.125ZM371.125 270H354.5V294.125H378.625V277.5C378.625 273.25 375.25 270 371.125 270Z" fill="#C49F8A"/>
<path d="M357 291.5V272.5H371C373.75 272.5 376 274.75 376 277.5V291.5H357Z" fill="#E9E4DC"/>
<path d="M371 273.125C373.375 273.125 375.375 275.125 375.375 277.5V290.875H357.625V273.125H371ZM371 271.875H356.375V292.125H376.625V277.5C376.625 274.375 374.125 271.875 371 271.875Z" fill="#C49F8A"/>
<path d="M360.625 289C361.246 289 361.75 288.496 361.75 287.875C361.75 287.254 361.246 286.75 360.625 286.75C360.004 286.75 359.5 287.254 359.5 287.875C359.5 288.496 360.004 289 360.625 289Z" fill="#E9E4DC" stroke="#C49F8A"/>
<path d="M352.625 293.5V235.125H358.125V266.75H355V293.5H352.625Z" fill="#E9E4DC"/>
<path d="M357.5 235.75V266.125H355.625H354.375V267.375V292.875H353.25V267.375V235.75H355.625H357.5ZM358.75 234.5H355.625H352V267.375V294.125H355.625V267.375H358.75V234.5Z" fill="#C49F8A"/>
<path d="M362 243.75H358.125V260H362V243.75Z" fill="#E9E4DC"/>
<path d="M361.375 244.375V259.375H358.75V244.375H361.375ZM362.625 243.125H357.5V260.625H362.625V243.125Z" fill="#C49F8A"/>
<path d="M372.375 257.375C375.625 257.625 378.375 255 378.375 251.75C378.375 248.5 375.625 246 372.375 246.125L362 246.875V256.625L372.375 257.375Z" fill="#E9E4DC" stroke="#C49F8A"/>
<path d="M372.125 255.625C374.375 255.875 376.375 254 376.375 251.75C376.375 249.5 374.375 247.75 372.125 247.875L366 248.375V254.875L372.125 255.625Z" fill="#E9E4DC" stroke="#C49F8A"/>
<path d="M369.125 253C369.746 253 370.25 252.496 370.25 251.875C370.25 251.254 369.746 250.75 369.125 250.75C368.504 250.75 368 251.254 368 251.875C368 252.496 368.504 253 369.125 253Z" fill="#E9E4DC" stroke="#C49F8A"/>
<path d="M427.25 500.375H352.375V512.875H427.25V500.375Z" fill="#E9E4DC"/>
<path d="M353 501H426.625V512.25H353V501ZM351.75 499.75V513.5H427.875V499.75H351.75Z" fill="#C49F8A"/>
<path d="M427.25 502.75H352.375V514.875H427.25V502.75Z" fill="#E9E4DC"/>
<path d="M353 503.375H426.625V514.25H353V503.375ZM351.75 502.125V515.5H427.875V502.125H351.75Z" fill="#C49F8A"/>
<path d="M352.25 514.875L427.625 502.75L352.25 514.875Z" fill="#E9E4DC"/>
<path d="M352.25 514.875L427.625 502.75" stroke="#C49F8A"/>
<path d="M465.5 500.375H431.625V512.875H465.5V500.375Z" fill="#E9E4DC"/>
<path d="M432.25 501H464.875V512.25H432.25V501ZM431 499.75V513.5H466.125V499.75H431Z" fill="#C49F8A"/>
<path d="M465.5 502.75H431.625V514.875H465.5V502.75Z" fill="#E9E4DC"/>
<path d="M432.25 503.375H464.875V514.25H432.25V503.375ZM431 502.125V515.5H466.125V502.125H431Z" fill="#C49F8A"/>
<path d="M431.5 514.875L465.875 502.75L431.5 514.875Z" fill="#E9E4DC"/>
<path d="M431.5 514.875L465.875 502.75" stroke="#C49F8A"/>
<path d="M401 189.125L403.375 187.125H404.375V195.5H403.125V188.875L401.625 190L401 189.125Z" fill="#565440"/>
<path d="M408.625 190C409.375 190 410.125 190.25 410.625 190.75C411.125 191.25 411.375 191.875 411.375 192.75C411.375 193.625 411.125 194.25 410.5 194.75C410 195.25 409.25 195.5 408.375 195.5C407.375 195.5 406.5 195.125 405.625 194.5L406.25 193.5C407 194 407.625 194.25 408.375 194.25C408.875 194.25 409.25 194.125 409.625 193.75C410 193.5 410.125 193.125 410.125 192.625C410.125 192.125 410 191.75 409.625 191.5C409.375 191.25 408.875 191 408.375 191C407.75 191 407.25 191.25 406.875 191.625L406.125 191.125L406.625 187H410.875V188.125H407.625L407.375 190.125C407.75 190.125 408.125 190 408.625 190Z" fill="#565440"/>
<path d="M394.5 263C393.625 263 392.75 262.75 391.875 262.125L392.5 261.125C393.25 261.625 393.875 261.75 394.5 261.75C395 261.75 395.375 261.625 395.625 261.375C395.875 261.125 396 260.875 396 260.375C396 260 395.875 259.625 395.5 259.375C395.25 259.125 394.875 259 394.375 259H393.375V257.875H394.375C394.75 257.875 395.125 257.75 395.375 257.5C395.625 257.25 395.75 257 395.75 256.625C395.75 256.25 395.625 256 395.375 255.75C395.125 255.5 394.75 255.375 394.375 255.375C393.875 255.375 393.25 255.625 392.625 256.125L392 255.25C392.25 255 392.75 254.75 393.125 254.5C393.625 254.375 394 254.25 394.5 254.25C395.25 254.25 395.875 254.5 396.375 254.875C396.875 255.25 397.125 255.875 397.125 256.375C397.125 256.875 397 257.25 396.75 257.5C396.5 257.875 396.125 258.125 395.75 258.25C396.25 258.375 396.625 258.625 397 259C397.25 259.375 397.375 259.75 397.375 260.375C397.375 261.125 397.125 261.625 396.625 262.125C396 262.75 395.375 263 394.5 263Z" fill="#565440"/>
<path d="M399.25 263C399 263 398.875 262.875 398.625 262.75C398.5 262.625 398.375 262.375 398.375 262.125C398.375 261.875 398.5 261.75 398.625 261.625C398.75 261.5 399 261.375 399.25 261.375C399.5 261.375 399.625 261.5 399.75 261.625C399.875 261.75 400 262 400 262.125C400 262.375 399.875 262.5 399.75 262.75C399.75 263 399.5 263 399.25 263Z" fill="#565440"/>
<path d="M404.125 263C403.25 263 402.5 262.75 402 262.375C401.5 261.875 401.125 261.375 401.125 260.625C401.125 260.125 401.25 259.75 401.625 259.375C401.875 259 402.25 258.75 402.75 258.5C402.375 258.375 402 258 401.875 257.75C401.625 257.375 401.5 257.125 401.5 256.625C401.5 256 401.75 255.5 402.25 255C402.75 254.625 403.375 254.375 404.125 254.375C404.875 254.375 405.5 254.625 406 255C406.5 255.375 406.75 256 406.75 256.625C406.75 257 406.625 257.375 406.375 257.75C406.125 258.125 405.875 258.375 405.5 258.5C406 258.625 406.375 259 406.625 259.375C406.875 259.75 407.125 260.25 407.125 260.625C407.125 261.375 406.875 261.875 406.25 262.375C405.75 262.75 405 263 404.125 263ZM404.125 261.875C404.625 261.875 405 261.75 405.375 261.5C405.75 261.25 405.875 260.875 405.875 260.5C405.875 260.125 405.75 259.75 405.375 259.5C405 259.25 404.625 259.125 404.125 259.125C403.625 259.125 403.25 259.25 402.875 259.5C402.5 259.75 402.375 260.125 402.375 260.5C402.375 260.875 402.5 261.25 402.875 261.5C403.25 261.75 403.625 261.875 404.125 261.875ZM405.25 257.625C405.5 257.375 405.625 257.125 405.625 256.75C405.625 256.375 405.5 256.125 405.25 255.875C405 255.625 404.625 255.5 404.25 255.5C403.875 255.5 403.5 255.625 403.25 255.875C403 256.125 402.875 256.375 402.875 256.75C402.875 257.125 403 257.375 403.25 257.625C403.5 257.875 403.875 258 404.25 258C404.625 258 404.875 257.875 405.25 257.625Z" fill="#565440"/>
<path d="M475 161L477.375 159H478.375V167.375H477.125V160.75L475.625 161.875L475 161Z" fill="#565440"/>
<path d="M479.5 161L481.875 159H482.875V167.375H481.625V160.75L480.125 161.875L479.5 161Z" fill="#565440"/>
<path d="M485.25 167.375C485 167.375 484.875 167.25 484.625 167.125C484.5 167 484.375 166.75 484.375 166.5C484.375 166.25 484.5 166.125 484.625 166C484.75 165.875 485 165.75 485.25 165.75C485.5 165.75 485.625 165.875 485.75 166C485.875 166.125 486 166.375 486 166.5C486 166.75 485.875 166.875 485.75 167.125C485.625 167.375 485.5 167.375 485.25 167.375Z" fill="#565440"/>
<path d="M492 164.125H492.875V165.25H492V167.25H490.75V165.25H487L486.75 164.5L491.25 159H492.125V164.125H492ZM490.75 161.125L488.25 164.125H490.75V161.125Z" fill="#565440"/>
<path d="M477.375 286.5L475.375 288.75H478.75V290H473.5V288.75L476.125 285.875L476.75 285.125C476.875 285 477 284.75 477.125 284.5C477.25 284.25 477.25 284 477.25 283.75C477.25 283.375 477.125 283.125 476.875 282.875C476.625 282.625 476.25 282.5 475.875 282.5C475.25 282.5 474.625 282.75 473.875 283.375L473.125 282.5C474 281.75 474.875 281.25 475.875 281.25C476.625 281.25 477.25 281.5 477.75 282C478.25 282.5 478.5 283.125 478.5 283.75C478.625 284.625 478.25 285.5 477.375 286.5Z" fill="#565440"/>
<path d="M480.625 290C480.375 290 480.25 289.875 480 289.75C479.875 289.625 479.75 289.375 479.75 289.125C479.75 288.875 479.875 288.75 480 288.625C480.125 288.5 480.375 288.375 480.625 288.375C480.875 288.375 481 288.5 481.125 288.625C481.25 288.75 481.375 289 481.375 289.125C481.375 289.375 481.25 289.5 481.125 289.75C481 290 480.875 290 480.625 290Z" fill="#565440"/>
<path d="M485.625 284.5C486.375 284.5 487 284.75 487.5 285.25C488 285.75 488.25 286.375 488.25 287.125C488.25 287.875 488 288.625 487.375 289.125C486.875 289.625 486.125 289.875 485.25 289.875C484.25 289.875 483.5 289.5 483 288.75C482.5 288 482.25 287 482.25 285.875C482.25 285.125 482.375 284.375 482.625 283.625C482.875 282.875 483.25 282.375 483.75 282C484.25 281.5 485 281.375 485.75 281.375C486.625 281.375 487.375 281.625 487.875 282.125L487.375 283.125C486.875 282.75 486.375 282.625 485.875 282.625C485.375 282.625 485 282.75 484.625 283.125C484 283.75 483.625 284.625 483.625 285.75C483.875 285.375 484.125 285.125 484.5 284.875C484.875 284.625 485.125 284.5 485.625 284.5ZM485.375 288.875C485.875 288.875 486.25 288.75 486.5 288.375C486.75 288 487 287.625 487 287.25C487 286.75 486.875 286.375 486.5 286.125C486.25 285.875 485.875 285.625 485.375 285.625C484.875 285.625 484.5 285.75 484.25 286.125C484 286.375 483.75 286.875 483.75 287.25C483.75 287.75 483.875 288.125 484.25 288.375C484.5 288.625 484.875 288.875 485.375 288.875Z" fill="#565440"/>
<path d="M501.75 346.875C500.875 346.875 500 346.625 499.125 346L499.75 345C500.5 345.5 501.125 345.625 501.75 345.625C502.25 345.625 502.625 345.5 502.875 345.25C503.125 345 503.25 344.75 503.25 344.25C503.25 343.875 503.125 343.5 502.75 343.25C502.5 343 502.125 342.875 501.625 342.875H500.625V341.75H501.625C502 341.75 502.375 341.625 502.625 341.375C502.875 341.125 503 340.875 503 340.5C503 340.125 502.875 339.875 502.625 339.625C502.375 339.375 502 339.25 501.625 339.25C501.125 339.25 500.5 339.5 499.875 340L499.25 339.125C499.5 338.875 499.875 338.625 500.375 338.375C500.875 338.25 501.25 338.125 501.75 338.125C502.5 338.125 503.125 338.375 503.625 338.75C504.125 339.125 504.375 339.75 504.375 340.25C504.375 340.75 504.25 341.125 504 341.375C503.75 341.75 503.375 342 503 342.125C503.5 342.25 503.875 342.5 504.25 342.875C504.5 343.25 504.625 343.625 504.625 344.25C504.625 345 504.375 345.5 503.875 346C503.375 346.625 502.625 346.875 501.75 346.875Z" fill="#565440"/>
<path d="M506.625 346.875C506.375 346.875 506.25 346.75 506 346.625C505.875 346.5 505.75 346.25 505.75 346C505.75 345.75 505.875 345.625 506 345.5C506.125 345.375 506.375 345.25 506.625 345.25C506.875 345.25 507 345.375 507.125 345.5C507.25 345.625 507.375 345.875 507.375 346C507.375 346.25 507.25 346.375 507.125 346.625C507 346.875 506.875 346.875 506.625 346.875Z" fill="#565440"/>
<path d="M513.375 343.625H514.25V344.75H513.375V346.75H512.125V344.75H508.375L508.125 344L512.625 338.5H513.5V343.625H513.375ZM512.125 340.625L509.625 343.625H512.125V340.625Z" fill="#565440"/>
<path d="M411.25 350.125L409.25 352.375H412.625V353.625H407.375V352.5L410 349.625L410.625 348.875C410.75 348.75 410.875 348.5 411 348.25C411.125 348 411.125 347.75 411.125 347.5C411.125 347.125 411 346.875 410.75 346.625C410.5 346.375 410.125 346.25 409.75 346.25C409.125 346.25 408.5 346.5 407.75 347.125L407 346.25C407.875 345.5 408.75 345 409.75 345C410.5 345 411.125 345.25 411.625 345.75C412.125 346.25 412.375 346.875 412.375 347.5C412.5 348.25 412.125 349.125 411.25 350.125Z" fill="#565440"/>
<path d="M417.625 350.125L415.625 352.375H419V353.625H413.75V352.5L416.375 349.625L417 348.875C417.125 348.75 417.25 348.5 417.375 348.25C417.5 348 417.5 347.75 417.5 347.5C417.5 347.125 417.375 346.875 417.125 346.625C416.875 346.375 416.5 346.25 416.125 346.25C415.5 346.25 414.875 346.5 414.125 347.125L413.375 346.25C414.25 345.5 415.125 345 416.125 345C416.875 345 417.5 345.25 418 345.75C418.5 346.25 418.75 346.875 418.75 347.5C418.875 348.25 418.5 349.125 417.625 350.125Z" fill="#565440"/>
<path d="M420.875 353.625C420.625 353.625 420.5 353.5 420.25 353.375C420.125 353.25 420 353 420 352.75C420 352.5 420.125 352.375 420.25 352.25C420.375 352.125 420.625 352 420.875 352C421.125 352 421.25 352.125 421.375 352.25C421.5 352.375 421.625 352.625 421.625 352.75C421.625 353 421.5 353.125 421.375 353.375C421.25 353.625 421.125 353.625 420.875 353.625Z" fill="#565440"/>
<path d="M425.5 348.125C426.25 348.125 427 348.375 427.5 348.875C428 349.375 428.25 350 428.25 350.875C428.25 351.75 428 352.375 427.375 352.875C426.875 353.375 426.125 353.625 425.25 353.625C424.25 353.625 423.375 353.25 422.5 352.625L423.125 351.625C423.875 352.125 424.5 352.375 425.25 352.375C425.75 352.375 426.125 352.25 426.5 351.875C426.875 351.625 427 351.25 427 350.75C427 350.25 426.875 349.875 426.5 349.625C426.25 349.375 425.75 349.125 425.25 349.125C424.625 349.125 424.125 349.375 423.75 349.75L423 349.25L423.5 345.125H427.75V346.25H424.5L424.25 348.25C424.625 348.25 425 348.125 425.5 348.125Z" fill="#565440"/>
<path d="M372.375 488.125C371.5 488.125 370.625 487.875 369.75 487.25L370.375 486.25C371.125 486.75 371.75 486.875 372.375 486.875C372.875 486.875 373.25 486.75 373.5 486.5C373.75 486.25 373.875 486 373.875 485.5C373.875 485.125 373.75 484.75 373.375 484.5C373.125 484.25 372.75 484.125 372.25 484.125H371.25V483H372.25C372.625 483 373 482.875 373.25 482.625C373.5 482.375 373.625 482.125 373.625 481.75C373.625 481.375 373.5 481.125 373.25 480.875C373 480.625 372.625 480.5 372.25 480.5C371.75 480.5 371.125 480.75 370.5 481.25L369.875 480.375C370.125 480.125 370.625 479.875 371 479.625C371.5 479.5 371.875 479.375 372.375 479.375C373.125 479.375 373.75 479.625 374.25 480C374.75 480.375 375 481 375 481.5C375 482 374.875 482.375 374.625 482.625C374.375 483 374 483.25 373.625 483.375C374.125 483.5 374.5 483.75 374.875 484.125C375.125 484.5 375.25 484.875 375.25 485.5C375.25 486.25 375 486.75 374.5 487.25C373.875 487.875 373.25 488.125 372.375 488.125Z" fill="#565440"/>
<path d="M377.125 488.125C376.875 488.125 376.75 488 376.5 487.875C376.375 487.75 376.25 487.5 376.25 487.25C376.25 487 376.375 486.875 376.5 486.75C376.625 486.625 376.875 486.5 377.125 486.5C377.375 486.5 377.5 486.625 377.625 486.75C377.75 486.875 377.875 487.125 377.875 487.25C377.875 487.5 377.75 487.625 377.625 487.875C377.625 488.125 377.375 488.125 377.125 488.125Z" fill="#565440"/>
<path d="M384 484.875H384.875V486H384V488H382.75V486H379L378.75 485.25L383.25 479.75H384.125V484.875H384ZM382.75 481.875L380.25 484.875H382.75V481.875Z" fill="#565440"/>
<path d="M442.625 484.625L440.625 486.875H444V488.125H438.75V487L441.375 484.125L442 483.375C442.125 483.25 442.25 483 442.375 482.75C442.5 482.5 442.5 482.25 442.5 482C442.5 481.625 442.375 481.375 442.125 481.125C441.875 480.875 441.5 480.75 441.125 480.75C440.5 480.75 439.875 481 439.125 481.625L438.375 480.75C439.25 480 440.125 479.5 441.125 479.5C441.875 479.5 442.5 479.75 443 480.25C443.5 480.75 443.75 481.375 443.75 482C443.875 482.75 443.5 483.625 442.625 484.625Z" fill="#565440"/>
<path d="M445.875 488.125C445.625 488.125 445.5 488 445.25 487.875C445.125 487.75 445 487.5 445 487.25C445 487 445.125 486.875 445.25 486.75C445.375 486.625 445.625 486.5 445.875 486.5C446.125 486.5 446.25 486.625 446.375 486.75C446.5 486.875 446.625 487.125 446.625 487.25C446.625 487.5 446.5 487.625 446.375 487.875C446.375 488.125 446.125 488.125 445.875 488.125Z" fill="#565440"/>
<path d="M451.625 484.625L449.625 486.875H453V488.125H447.75V487L450.375 484.125L451 483.375C451.125 483.25 451.25 483 451.375 482.75C451.5 482.5 451.5 482.25 451.5 482C451.5 481.625 451.375 481.375 451.125 481.125C450.875 480.875 450.5 480.75 450.125 480.75C449.5 480.75 448.875 481 448.125 481.625L447.375 480.75C448.25 480 449.125 479.5 450.125 479.5C450.875 479.5 451.5 479.75 452 480.25C452.5 480.75 452.75 481.375 452.75 482C453 482.75 452.5 483.625 451.625 484.625Z" fill="#565440"/>
<path d="M517.25 262.125H518.125V263.25H517.25V265.25H516V263.25H512.25L512 262.5L516.5 257H517.375V262.125H517.25ZM516 259.125L513.5 262.125H516V259.125Z" fill="#565440"/>
</svg>
