<svg width="900" height="600" viewBox="0 0 900 600" fill="none" xmlns="http://www.w3.org/2000/svg">
<g clip-path="url(#clip0)">
<path d="M311.25 383.875V309.5H403.125L403.125 90.5L20.5 90.5L20.5 505.375H125.625V514.25H403.125V383.875H311.25Z" fill="#DBD4CA"/>
<mask id="mask0" mask-type="alpha" maskUnits="userSpaceOnUse" x="130" y="455" width="67" height="50">
<rect x="130.625" y="455" width="66" height="50" fill="#C4C4C4"/>
</mask>
<g mask="url(#mask0)">
<g opacity="0.3">
<path opacity="0.7" d="M359.125 296.375L-43.625 296.375L-43.625 699.125H359.125L359.125 296.375Z" fill="#C49F8A"/>
</g>
<path d="M177.25 621.5L34 478.125" stroke="#C49F8A" stroke-miterlimit="10"/>
<path d="M164.25 634.5L21 491.125" stroke="#C49F8A" stroke-miterlimit="10"/>
<path d="M190.375 608.375L47 465.125" stroke="#C49F8A" stroke-miterlimit="10"/>
<path d="M203.375 595.375L60.125 452.125" stroke="#C49F8A" stroke-miterlimit="10"/>
<path d="M216.375 582.375L73.125 439.125" stroke="#C49F8A" stroke-miterlimit="10"/>
<path d="M229.375 569.375L86.125 426" stroke="#C49F8A" stroke-miterlimit="10"/>
<path d="M242.5 556.25L99.125 413" stroke="#C49F8A" stroke-miterlimit="10"/>
<path d="M255.5 543.25L112.125 400" stroke="#C49F8A" stroke-miterlimit="10"/>
<path d="M268.5 530.25L125.25 387" stroke="#C49F8A" stroke-miterlimit="10"/>
<path d="M281.5 517.25L138.25 373.875" stroke="#C49F8A" stroke-miterlimit="10"/>
<path d="M268.5 530.25L125.25 387" stroke="#C49F8A" stroke-miterlimit="10"/>
<path d="M294.5 504.25L151.25 360.875" stroke="#C49F8A" stroke-miterlimit="10"/>
<path d="M281.5 491.125L151.25 621.5" stroke="#C49F8A" stroke-miterlimit="10"/>
<path d="M294.5 504.25L164.25 634.5" stroke="#C49F8A" stroke-miterlimit="10"/>
<path d="M268.5 478.125L138.25 608.375" stroke="#C49F8A" stroke-miterlimit="10"/>
<path d="M255.5 465.125L125.25 595.375" stroke="#C49F8A" stroke-miterlimit="10"/>
<path d="M242.5 452.125L112.125 582.375" stroke="#C49F8A" stroke-miterlimit="10"/>
<path d="M229.375 439.125L99.125 569.375" stroke="#C49F8A" stroke-miterlimit="10"/>
<path d="M216.375 426L86.125 556.25" stroke="#C49F8A" stroke-miterlimit="10"/>
<path d="M203.375 413L73.125 543.25" stroke="#C49F8A" stroke-miterlimit="10"/>
<path d="M190.375 400L60.125 530.25" stroke="#C49F8A" stroke-miterlimit="10"/>
<path d="M177.25 387L47 517.25" stroke="#C49F8A" stroke-miterlimit="10"/>
<path d="M190.375 400L60.125 530.25" stroke="#C49F8A" stroke-miterlimit="10"/>
<path d="M164.25 373.875L34 504.25" stroke="#C49F8A" stroke-miterlimit="10"/>
<path d="M151.25 360.875L21 491.125" stroke="#C49F8A" stroke-miterlimit="10"/>
</g>
<mask id="mask1" mask-type="alpha" maskUnits="userSpaceOnUse" x="130" y="307" width="74" height="62">
<rect x="130.625" y="307" width="73" height="62" fill="#C4C4C4"/>
</mask>
<g mask="url(#mask1)">
<g opacity="0.3">
<path opacity="0.7" d="M360.125 152.875L-42.625 152.875L-42.625 555.625H360.125L360.125 152.875Z" fill="#C49F8A"/>
</g>
<path d="M178.25 478L35 334.625" stroke="#C49F8A" stroke-miterlimit="10"/>
<path d="M165.25 491L21.875 347.625" stroke="#C49F8A" stroke-miterlimit="10"/>
<path d="M191.25 464.875L48 321.625" stroke="#C49F8A" stroke-miterlimit="10"/>
<path d="M204.25 451.875L61 308.625" stroke="#C49F8A" stroke-miterlimit="10"/>
<path d="M217.375 438.875L74 295.625" stroke="#C49F8A" stroke-miterlimit="10"/>
<path d="M230.375 425.875L87.125 282.5" stroke="#C49F8A" stroke-miterlimit="10"/>
<path d="M243.375 412.875L100.125 269.5" stroke="#C49F8A" stroke-miterlimit="10"/>
<path d="M256.375 399.75L113.125 256.5" stroke="#C49F8A" stroke-miterlimit="10"/>
<path d="M269.5 386.75L126.125 243.5" stroke="#C49F8A" stroke-miterlimit="10"/>
<path d="M282.5 373.75L139.125 230.5" stroke="#C49F8A" stroke-miterlimit="10"/>
<path d="M269.5 386.75L126.125 243.5" stroke="#C49F8A" stroke-miterlimit="10"/>
<path d="M295.5 360.75L152.25 217.375" stroke="#C49F8A" stroke-miterlimit="10"/>
<path d="M282.5 347.625L152.25 478" stroke="#C49F8A" stroke-miterlimit="10"/>
<path d="M295.5 360.75L165.25 491" stroke="#C49F8A" stroke-miterlimit="10"/>
<path d="M269.5 334.625L139.125 464.875" stroke="#C49F8A" stroke-miterlimit="10"/>
<path d="M256.375 321.625L126.125 451.875" stroke="#C49F8A" stroke-miterlimit="10"/>
<path d="M243.375 308.625L113.125 438.875" stroke="#C49F8A" stroke-miterlimit="10"/>
<path d="M230.375 295.625L100.125 425.875" stroke="#C49F8A" stroke-miterlimit="10"/>
<path d="M217.375 282.5L87.125 412.875" stroke="#C49F8A" stroke-miterlimit="10"/>
<path d="M204.25 269.5L74 399.75" stroke="#C49F8A" stroke-miterlimit="10"/>
<path d="M191.25 256.5L61 386.75" stroke="#C49F8A" stroke-miterlimit="10"/>
<path d="M178.25 243.5L48 373.75" stroke="#C49F8A" stroke-miterlimit="10"/>
<path d="M191.25 256.5L61 386.75" stroke="#C49F8A" stroke-miterlimit="10"/>
<path d="M165.25 230.5L35 360.75" stroke="#C49F8A" stroke-miterlimit="10"/>
<path d="M152.25 217.375L21.875 347.625" stroke="#C49F8A" stroke-miterlimit="10"/>
</g>
<mask id="mask2" mask-type="alpha" maskUnits="userSpaceOnUse" x="343" y="248" width="56" height="61">
<rect x="343.625" y="248" width="55" height="61" fill="#C4C4C4"/>
</mask>
<g mask="url(#mask2)">
<g opacity="0.3">
<path opacity="0.7" d="M573 84.75L170.25 84.75L170.25 487.5L573 487.5V84.75Z" fill="#C49F8A"/>
</g>
<path d="M391.25 409.875L247.875 266.625" stroke="#C49F8A" stroke-miterlimit="10"/>
<path d="M378.125 422.875L234.875 279.625" stroke="#C49F8A" stroke-miterlimit="10"/>
<path d="M404.25 396.875L260.875 253.625" stroke="#C49F8A" stroke-miterlimit="10"/>
<path d="M417.25 383.875L274 240.5" stroke="#C49F8A" stroke-miterlimit="10"/>
<path d="M430.25 370.75L287 227.5" stroke="#C49F8A" stroke-miterlimit="10"/>
<path d="M443.25 357.75L300 214.5" stroke="#C49F8A" stroke-miterlimit="10"/>
<path d="M456.375 344.75L313 201.5" stroke="#C49F8A" stroke-miterlimit="10"/>
<path d="M469.375 331.75L326.125 188.375" stroke="#C49F8A" stroke-miterlimit="10"/>
<path d="M482.375 318.75L339.125 175.375" stroke="#C49F8A" stroke-miterlimit="10"/>
<path d="M495.375 305.625L352.125 162.375" stroke="#C49F8A" stroke-miterlimit="10"/>
<path d="M482.375 318.75L339.125 175.375" stroke="#C49F8A" stroke-miterlimit="10"/>
<path d="M508.5 292.625L365.125 149.375" stroke="#C49F8A" stroke-miterlimit="10"/>
<path d="M495.375 279.625L365.125 409.875" stroke="#C49F8A" stroke-miterlimit="10"/>
<path d="M508.5 292.625L378.125 422.875" stroke="#C49F8A" stroke-miterlimit="10"/>
<path d="M482.375 266.625L352.125 396.875" stroke="#C49F8A" stroke-miterlimit="10"/>
<path d="M469.375 253.625L339.125 383.875" stroke="#C49F8A" stroke-miterlimit="10"/>
<path d="M456.375 240.5L326.125 370.75" stroke="#C49F8A" stroke-miterlimit="10"/>
<path d="M443.25 227.5L313 357.75" stroke="#C49F8A" stroke-miterlimit="10"/>
<path d="M430.25 214.5L300 344.75" stroke="#C49F8A" stroke-miterlimit="10"/>
<path d="M417.25 201.5L287 331.75" stroke="#C49F8A" stroke-miterlimit="10"/>
<path d="M404.25 188.375L274 318.75" stroke="#C49F8A" stroke-miterlimit="10"/>
<path d="M391.25 175.375L260.875 305.625" stroke="#C49F8A" stroke-miterlimit="10"/>
<path d="M404.25 188.375L274 318.75" stroke="#C49F8A" stroke-miterlimit="10"/>
<path d="M378.125 162.375L247.875 292.625" stroke="#C49F8A" stroke-miterlimit="10"/>
<path d="M365.125 149.375L234.875 279.625" stroke="#C49F8A" stroke-miterlimit="10"/>
</g>
<path d="M284 514.25H194.375V518.375H284V514.25Z" stroke="#565440"/>
<path d="M59.25 129.625V133.75L59.25 470.75H63.375L63.375 133.75L400.375 133.75V129.625L63.375 129.625H59.25Z" stroke="#565440"/>
<path d="M16.25 86.125L16.25 509.75H17.75H20.375H117.5V505.625H20.375L20.375 90.25L403.125 90.25V86.125L16.25 86.125Z" stroke="#565440"/>
<path d="M196.5 377.75V369.5H204.875V306.875H141.875V299.375V297.125V296.5H129.125V297.125V299.375V306.875H58.75V315.125H129.125V369.5H148.875V366.75H131.875V325.5H141.875V325V322.75V315.125H202.125V366.75H169V369.5H193.75V377.75H196.5ZM131.875 299.375H139.125V306.875H131.875V299.375ZM139.125 322.75H131.875V315.125H139.125V322.75Z" fill="#565440"/>
<path d="M294 249.125H302.875V256.625H305.625V249.125H311.125V128.625H302.875V236.25H294H291.75H291.125V249H291.75H294V249.125ZM302.875 239.125V246.375H294V239.125H302.875Z" fill="#565440"/>
<path d="M319.875 298.375H319.25H317.125H311.125V291.75H305.625V276.5H302.875V327.5H311.125V315.375H407.25L407.25 80H399V245.75L382.875 245.75V248.5L399 248.5L399 307H345.125L345.125 248.5H363V245.75H342.375L342.375 307H320V298.375H319.875ZM311.25 307.25V301.25H317.25V307.25H311.25Z" fill="#565440"/>
<path d="M40.75 95.375H73.5V93.375H77.25V88.125H73.5V86.125H77.25V80.75H73.5V78.75H70.75V75H65.375V78.75H63.5V75H58.125V78.75H56.125V75H50.875V78.75H48.875V75H43.5V78.75H40.75V80.75H37V86.125H40.75V88.125H37V93.375H40.75V95.375Z" fill="#565440"/>
<path d="M20.375 130.375H15V134.125H13.125V130.375H7.75001L7.75001 134.125H5.75L5.75 136.875H2L2 142.25H5.75V144.25H2L2 149.5H5.75V151.5H2L2 156.875H5.75V158.75H2L2 164.125H5.75V166.875H7.75001V170.625H13.125L13.125 166.875H15L15 170.625H20.375V166.875H22.25L22.25 134.125H20.375V130.375Z" fill="#565440"/>
<path d="M20.375 422.875H15V426.625H13.125V422.875H7.75001L7.75001 426.625H5.75L5.75 429.375H2L2 434.75H5.75V436.625H2L2 442H5.75V444H2L2 449.25H5.75V451.25H2L2 456.625H5.75V459.375H7.75001V463.125H13.125L13.125 459.375H15L15 463.125H20.375V459.375H22.25L22.25 426.625H20.375V422.875Z" fill="#565440"/>
<path d="M73.875 504.625H41V506.625H37.25V511.875H41V513.875H37.25V519.25H41V521.25H43.875V525H49.125V521.25H51.125V525H56.5V521.25H58.375V525H63.75V521.25H65.75V525H71V521.25H73.875V519.25H77.625V513.875H73.875V511.875H77.625V506.625H73.875V504.625Z" fill="#565440"/>
<path d="M222.875 521.25H226.125V525H231.5V521.25H233.375V525H238.75V521.25H242V504.625H222.875V521.25Z" fill="#565440"/>
<path d="M129.5 95.375H167.25V93.375H171V88.125H167.25V86.125H171V80.75H167.25V78.75H165.625V75H160.25V78.75H158.375V75H153V78.75H151V75H145.75V78.75H143.75V75H138.375V78.75H136.5V75H131.125V78.75H129.5V80.75H125.75V86.125H129.5V88.125H125.75V93.375H129.5V95.375Z" fill="#565440"/>
<path d="M20.375 280.25H15V284H13.125V280.25H7.75001L7.75001 284H5.75L5.75 285.5H2L2 290.875H5.75V292.875H2L2 298.125H5.75L5.75 300.125H2L2 305.5H5.75L5.75 307.375H2L2 312.75H5.75V314.75H2L2 320H5.75L5.75 321.625H7.75001L7.75001 325.375H13.125V321.625H15V325.375H20.375V321.625H22.25L22.25 284H20.375V280.25Z" fill="#565440"/>
<path d="M295.375 95.375H333.125V93.375H336.875V88.125H333.125V86.125H336.875V80.75H333.125V78.75H331.5V75H326.125V78.75H324.25V75H318.875V78.75H316.875V75H311.625V78.75H309.625V75H304.25V78.75H302.375V75H297V78.75H295.375V80.75H291.75V86.125H295.375V88.125H291.75V93.375H295.375V95.375Z" fill="#565440"/>
<path d="M196.5 397.875H193.75V405H168.75V407.75H193.75V455.125H131.875V407.75H151.875V405H129.125V455.125H75.375L75.375 437.5H58.75L58.75 471.75H115.25L115.25 521.25H119.625H122.375V525H127.75V521.25H129.75V525H135.125V521.25H137.125V525H142.5V521.25H144.5V525H149.875V521.25H151.875V525H157.25V521.25H159.25V525H164.625V521.25H166.625V525H172V521.25H174V525H179.375V521.25H181.375V525H186.75V521.25H188.75V525H194.125V521.25H197.25V495.875H194.5V504.625H143.625V494.75V492.5V491.875H132.625V457.75H194.5V475.625H197.25V407.625H208.375V405H197.25V397.875H196.5ZM140 494.875V504.75H131.75V494.875H140Z" fill="#565440"/>
<path d="M389.25 380.375H311.125V355H302.875V385.875H232.125V386.5V405H228.125V407.75H234.875V388.625H302.875H329.375V457.375H332.125V388.625H378.375V396.125V398.375V399H389.25V504.75H332.125V477.5H329.375V504.625H282V521.25H284.75V525H290.125V521.25H292.125V525H297.5V521.25H299.5V525H304.875V521.25H306.875V525H312.25V521.25H314.25V525H319.625V521.25H321.625V525H327V521.25H329V525H334.375V521.25H336.375V525H341.75V521.25H343.75V525H349.125V521.25H351.125V525H356.5V521.25H403.875V516V380.375H389.25ZM381.125 396.125V388.625H389.25V396.125H381.125Z" fill="#565440"/>
<path d="M58.625 255.875C55.625 255.875 53.125 256.375 50.375 257.5C47.625 258.625 45.125 260.25 43.125 262.25C40.875 264.125 39.25 266.625 38.125 269.5C37 272.25 36.5 275 36.5 278.125H58.625" stroke="#565440"/>
<path d="M311.25 327.625C315 327.625 318.125 328.25 321.5 329.625C324.875 331 328 333 330.375 335.5C333.125 337.875 335.125 341 336.5 344.375C337.875 347.75 338.5 351.25 338.5 355H311" stroke="#565440"/>
<path d="M305.625 256.625C308.375 256.625 310.625 257.125 313.125 258.125C315.625 259.125 317.875 260.625 319.625 262.375C321.625 264.125 323.125 266.375 324.125 268.875C325.125 271.375 325.625 273.875 325.625 276.625H305.75" stroke="#565440"/>
<path d="M363 245.875C363 243.125 363.5 240.875 364.5 238.375C365.5 235.875 367 233.625 368.75 231.875C370.5 229.875 372.75 228.375 375.25 227.375C377.75 226.375 380.25 225.875 383 225.875V245.75" stroke="#565440"/>
<path d="M58.625 372C55.625 372 53.125 371.5 50.375 370.375C47.625 369.25 45.125 367.625 43.125 365.625C40.875 363.75 39.25 361.25 38.125 358.375C37 355.625 36.5 352.875 36.5 349.75H58.625" stroke="#565440"/>
<path d="M169 369.5C169 372.25 168.5 374.5 167.5 377C166.5 379.5 165 381.75 163.25 383.5C161.5 385.5 159.25 387 156.75 388C154.25 389 151.75 389.5 149 389.5V369.5" stroke="#565440"/>
<path d="M207.625 405.125C207.625 402.375 208.125 400.125 209.125 397.625C210.125 395.125 211.625 392.875 213.375 391.125C215.125 389.125 217.375 387.625 219.875 386.625C222.375 385.625 224.875 385.125 227.625 385.125V405.125" stroke="#565440"/>
<path d="M193.75 397.875C191 397.875 188.75 397.375 186.25 396.375C183.75 395.375 181.5 393.875 179.75 392.125C177.75 390.375 176.25 388.125 175.25 385.625C174.25 383.125 173.75 380.625 173.75 377.875H193.75" stroke="#565440"/>
<path d="M196.5 475.75C199.25 475.75 201.5 476.25 204 477.25C206.5 478.25 208.75 479.75 210.5 481.5C212.5 483.25 214 485.5 215 488C216 490.5 216.5 493 216.5 495.75H196.5" stroke="#565440"/>
<path d="M332.125 477.5C334.875 477.5 337.125 477 339.625 476C342.125 475 344.375 473.5 346.125 471.75C348.125 470 349.625 467.75 350.625 465.25C351.625 462.75 352.125 460.25 352.125 457.5H332.125" stroke="#565440"/>
<path d="M364.125 155.125H311.875V199.125H364.125V155.125Z" fill="#E9E4DC"/>
<path d="M363.5 155.75V198.5H312.5V155.75H363.5ZM364.75 154.5H311.25V199.75H364.75V154.5Z" fill="#C49F8A"/>
<path d="M328.25 178.25H315V195.875H328.25V178.25Z" fill="#E9E4DC" stroke="#C49F8A"/>
<path d="M328.25 158.375H315V176H328.25V158.375Z" fill="#E9E4DC" stroke="#C49F8A"/>
<path d="M332.158 177.52L319.359 180.949L322.788 193.747L335.587 190.318L332.158 177.52Z" fill="#E9E4DC" stroke="#C49F8A" stroke-miterlimit="3.9998"/>
<path d="M322.788 160.473L319.359 173.271L332.158 176.701L335.587 163.902L322.788 160.473Z" fill="#E9E4DC" stroke="#C49F8A" stroke-miterlimit="3.9998"/>
<path d="M325.75 199.125L321.875 172.625L323 155.125H364.625V199.125H325.75Z" fill="#E9E4DC"/>
<path d="M364 155.75V198.5H326.375L322.625 172.5L323.625 155.625H364V155.75ZM365.25 154.5H323.25H322.375L321.25 172.625L325.25 199.75H325.5H365.25V154.5Z" fill="#C49F8A"/>
<path d="M323.75 155.125V172.75L326 199.25" stroke="#C49F8A"/>
<path d="M283.875 389.375H239.875V441.625H283.875V389.375Z" fill="#E9E4DC"/>
<path d="M283.25 390V441H240.5V390H283.25ZM284.5 388.75H239.25V442.25H284.5V388.75Z" fill="#C49F8A"/>
<path d="M260.75 392.5H243.125V405.75H260.75V392.5Z" fill="#E9E4DC" stroke="#C49F8A"/>
<path d="M280.625 392.5H263V405.75H280.625V392.5Z" fill="#E9E4DC" stroke="#C49F8A"/>
<path d="M258.06 397.007L245.262 400.437L248.691 413.235L261.489 409.806L258.06 397.007Z" fill="#E9E4DC" stroke="#C49F8A" stroke-miterlimit="3.9998"/>
<path d="M265.871 396.994L262.441 409.792L275.24 413.221L278.669 400.423L265.871 396.994Z" fill="#E9E4DC" stroke="#C49F8A" stroke-miterlimit="3.9998"/>
<path d="M239.875 442.125V403.25L266.5 399.375L283.875 400.5V442.125H239.875Z" fill="#E9E4DC"/>
<path d="M266.5 400L283.375 401V441.375H240.625V403.75L266.5 400ZM266.375 398.75L239.25 402.75V403V442.75H284.5V400.75V399.875L266.375 398.75Z" fill="#C49F8A"/>
<path d="M284 401.25H266.25L239.75 403.5" stroke="#C49F8A"/>
<path d="M112 395.75H75.875L75.875 454.5H112V395.75Z" fill="#E9E4DC"/>
<path d="M111.375 396.375V453.875H76.5L76.5 396.375H111.375ZM112.625 395.125H75.25L75.25 455.125H112.625V395.125Z" fill="#C49F8A"/>
<path d="M109.5 436H94.875V450.875H109.5V436Z" fill="#E9E4DC" stroke="#C49F8A"/>
<path d="M93.125 436H78.5V450.875H93.125V436Z" fill="#E9E4DC" stroke="#C49F8A"/>
<path d="M107.625 442L97.125 445.875L94.375 431.625L104.875 427.75L107.625 442Z" fill="#E9E4DC" stroke="#C49F8A" stroke-miterlimit="3.9998"/>
<path d="M93.5 431.625L90.75 445.875L80.25 442L83 427.75L93.5 431.625Z" fill="#E9E4DC" stroke="#C49F8A" stroke-miterlimit="3.9998"/>
<path d="M75.875 442L75.875 395.25H112V438.875L90.25 443.25L75.875 442Z" fill="#E9E4DC"/>
<path d="M111.375 395.875V438.5L90.125 442.625L76.5 441.5L76.5 395.875H111.375ZM112.625 394.625H75.25L75.25 441.625V442.625L90.25 443.875L112.625 439.5V439.125V394.625Z" fill="#C49F8A"/>
<path d="M75.75 441H90.375L112.25 438.625" stroke="#C49F8A"/>
<path d="M372.125 399.5H369.875V504.25H372.125V399.5Z" fill="#E9E4DC"/>
<path d="M370.5 400.125H371.5V503.625H370.5V400.125ZM369.25 398.875V504.875H372.75V398.875H369.25Z" fill="#C49F8A"/>
<path d="M388.625 399.5H372.125V504.25H388.625V399.5Z" fill="#E9E4DC"/>
<path d="M372.75 400.125H388V503.625H372.75V400.125ZM371.5 398.875V504.875H389.25V398.875H371.5Z" fill="#C49F8A"/>
<path d="M388.75 504.5L372.125 399.125L388.75 504.5Z" fill="#E9E4DC"/>
<path d="M388.75 504.5L372.125 399.125" stroke="#C49F8A"/>
<path d="M176.75 408.375H174.5V454.5H176.75V408.375Z" fill="#E9E4DC"/>
<path d="M176.25 409V453.875H175.25V409H176.25ZM177.5 407.75H174V455.125H177.5V407.75Z" fill="#C49F8A"/>
<path d="M193.375 408.375H176.875V454.5H193.375V408.375Z" fill="#E9E4DC"/>
<path d="M177.5 409H192.75V453.875H177.5V409ZM176.25 407.75V455.125H194V407.75H176.25Z" fill="#C49F8A"/>
<path d="M193.375 455L176.75 407.875L193.375 455Z" fill="#E9E4DC"/>
<path d="M193.375 455L176.75 407.875" stroke="#C49F8A"/>
<path d="M302.25 372.625H238.25V374.875H302.25V372.625Z" fill="#E9E4DC"/>
<path d="M238.875 373.25H301.625V374.25H238.875V373.25ZM237.625 372V375.5H302.875V372H237.625Z" fill="#C49F8A"/>
<path d="M302.25 374.875H238.25V385.25H302.25V374.875Z" fill="#E9E4DC"/>
<path d="M238.875 375.5H301.625V384.625H238.875V375.5ZM237.625 374.25V385.875H302.875V374.25H237.625Z" fill="#C49F8A"/>
<path d="M238.375 385.125L302.5 374.875L238.375 385.125Z" fill="#E9E4DC"/>
<path d="M238.375 385.125L302.5 374.875" stroke="#C49F8A"/>
<path d="M341.625 290.375H320.5V292.625H341.625V290.375Z" fill="#E9E4DC"/>
<path d="M321.125 291H341V292H321.125V291ZM319.875 289.75V293.25H342.25V289.75H319.875Z" fill="#C49F8A"/>
<path d="M341.625 292.75H320.5V306.625H341.625V292.75Z" fill="#E9E4DC"/>
<path d="M321.125 293.375H341V306H321.125V293.375ZM319.875 292.125V307.25H342.25V292.125H319.875Z" fill="#C49F8A"/>
<path d="M320.125 306.25L342.125 293L320.125 306.25Z" fill="#E9E4DC"/>
<path d="M320.125 306.25L342.125 293" stroke="#C49F8A"/>
<path d="M291.875 299H289.625V313.875H291.875V299Z" fill="#E9E4DC"/>
<path d="M291.25 299.625V313.25H290.25V299.625H291.25ZM292.5 298.375H289V314.5H292.5V298.375Z" fill="#C49F8A"/>
<path d="M302.25 299H291.875V313.875H302.25V299Z" fill="#E9E4DC"/>
<path d="M292.5 299.625H301.625V313.25H292.5V299.625ZM291.25 298.375V314.5H302.875V298.375H291.25Z" fill="#C49F8A"/>
<path d="M302 313.75L292.25 299L302 313.75Z" fill="#E9E4DC"/>
<path d="M302 313.75L292.25 299" stroke="#C49F8A"/>
<path d="M201.375 315.75H179.75V366.125H201.375V315.75Z" fill="#E9E4DC"/>
<path d="M200.75 316.375V365.5H180.375V316.375H200.75ZM202 315.125H179.125V366.75H202V315.125Z" fill="#C49F8A"/>
<path d="M190.625 319.875C194.625 319.875 197.625 323.25 197.25 327.125C196.875 331.375 196.5 336.875 196.5 340.875C196.5 344.875 196.875 350.25 197.25 354.625C197.625 358.5 194.5 361.875 190.625 361.875C186.75 361.875 183.625 358.5 184 354.625C184.375 350.375 184.75 344.875 184.75 340.875C184.75 336.875 184.375 331.5 184 327.125C183.625 323.25 186.625 319.875 190.625 319.875Z" fill="#E9E4DC" stroke="#C49F8A" stroke-linejoin="round"/>
<path d="M190.625 327.875C191.246 327.875 191.75 327.371 191.75 326.75C191.75 326.129 191.246 325.625 190.625 325.625C190.004 325.625 189.5 326.129 189.5 326.75C189.5 327.371 190.004 327.875 190.625 327.875Z" fill="#E9E4DC" stroke="#C49F8A" stroke-linejoin="round"/>
<path d="M398.375 259.625H378.25V306.625H398.375V259.625Z" fill="#E9E4DC"/>
<path d="M397.75 260.25V306H378.875V260.25H397.75ZM399 259H377.625V307.25H399V259Z" fill="#C49F8A"/>
<path d="M388.251 302.75C384.5 302.75 381.75 299.625 382 296C382.375 292 382.75 286.875 382.75 283.125C382.75 279.375 382.375 274.375 382 270.25C381.625 266.625 384.625 263.5 388.251 263.5C391.876 263.5 394.751 266.625 394.501 270.25C394.126 274.25 393.751 279.375 393.751 283.125C393.751 286.875 394.126 291.875 394.501 296C394.876 299.5 392.001 302.75 388.251 302.75Z" fill="#E9E4DC" stroke="#C49F8A" stroke-linejoin="round"/>
<path d="M388.25 297.5C388.871 297.5 389.375 296.996 389.375 296.375C389.375 295.754 388.871 295.25 388.25 295.25C387.629 295.25 387.125 295.754 387.125 296.375C387.125 296.996 387.629 297.5 388.25 297.5Z" fill="#E9E4DC" stroke="#C49F8A" stroke-linejoin="round"/>
<path d="M357.5 249.25H345.625V267.125H357.5V249.25Z" fill="#E9E4DC"/>
<path d="M356.875 249.875V266.5H346.25V249.875H356.875ZM358.125 248.625H345V267.75H358.125V248.625Z" fill="#C49F8A"/>
<path d="M351.5 261.875C349.5 261.875 347.875 260.25 347.875 258.25C347.875 256.25 349.5 254.625 351.5 254.625C353.5 254.625 355.125 256.25 355.125 258.25C355.125 260.25 353.625 261.875 351.5 261.875Z" fill="#E9E4DC"/>
<path d="M351.5 255.25C353.125 255.25 354.5 256.625 354.5 258.25C354.5 259.875 353.125 261.25 351.5 261.25C349.875 261.25 348.5 259.875 348.5 258.25C348.5 256.625 349.875 255.25 351.5 255.25ZM351.5 254C349.125 254 347.25 255.875 347.25 258.25C347.25 260.625 349.125 262.5 351.5 262.5C353.875 262.5 355.75 260.625 355.75 258.25C355.875 255.875 353.875 254 351.5 254Z" fill="#C49F8A"/>
<path d="M130.875 238.875V202H157.75V238.875H130.875Z" fill="#E9E4DC" stroke="#C49F8A"/>
<path d="M136.5 199.75V199.125C136.5 194.75 140 191.25 144.375 191.25C148.75 191.25 152.25 194.75 152.25 199.125V199.75H136.5Z" fill="#E9E4DC" stroke="#C49F8A"/>
<path d="M138.75 202V199.25C138.75 196.125 141.25 193.625 144.375 193.625C147.5 193.625 150 196.125 150 199.25V202H138.75Z" fill="#E9E4DC" stroke="#C49F8A"/>
<path d="M136.5 241.125V241.75C136.5 246.125 140 249.625 144.375 249.625C148.75 249.625 152.25 246.125 152.25 241.75V241.125H136.5Z" fill="#E9E4DC" stroke="#C49F8A"/>
<path d="M138.75 238.875V241.625C138.75 244.75 141.25 247.25 144.375 247.25C147.5 247.25 150 244.75 150 241.625V238.875H138.75Z" fill="#E9E4DC" stroke="#C49F8A"/>
<path d="M160 228.25H160.625C165 228.25 168.5 224.75 168.5 220.375C168.5 216 165 212.5 160.625 212.5H160V228.25Z" fill="#E9E4DC" stroke="#C49F8A"/>
<path d="M157.75 226H160.5C163.625 226 166.125 223.5 166.125 220.375C166.125 217.25 163.625 214.75 160.5 214.75H157.75V226Z" fill="#E9E4DC" stroke="#C49F8A"/>
<path d="M128.625 228.25H128C123.625 228.25 120.125 224.75 120.125 220.375C120.125 216 123.625 212.5 128 212.5H128.625V228.25Z" fill="#E9E4DC" stroke="#C49F8A"/>
<path d="M130.875 226H128.125C125 226 122.5 223.5 122.5 220.375C122.5 217.25 125 214.75 128.125 214.75H130.875V226Z" fill="#E9E4DC" stroke="#C49F8A"/>
<path d="M182.375 458.5H163.75V470.375H182.375V458.5Z" fill="#E9E4DC"/>
<path d="M181.75 459.125V469.75H164.375V459.125H181.75ZM183 457.875H163.125V471H183V457.875Z" fill="#C49F8A"/>
<path d="M166.125 464.375C166.125 466.625 167.875 468.375 170.125 468.375H175.875C178.125 468.375 179.875 466.625 179.875 464.375C179.875 462.125 178.125 460.375 175.875 460.375H170.125C168 460.375 166.125 462.25 166.125 464.375Z" fill="#E9E4DC" stroke="#C49F8A"/>
<path d="M173 464.25C173.621 464.25 174.125 463.746 174.125 463.125C174.125 462.504 173.621 462 173 462C172.379 462 171.875 462.504 171.875 463.125C171.875 463.746 172.379 464.25 173 464.25Z" fill="#E9E4DC" stroke="#C49F8A"/>
<path d="M179.75 315.75H161.125V327.625H179.75V315.75Z" fill="#E9E4DC"/>
<path d="M179.125 316.375V327H161.75V316.375H179.125ZM180.375 315.125H160.5V328.25H180.375V315.125Z" fill="#C49F8A"/>
<path d="M163.5 321.625C163.5 323.875 165.25 325.625 167.5 325.625H173.25C175.5 325.625 177.25 323.875 177.25 321.625C177.25 319.375 175.5 317.625 173.25 317.625H167.5C165.375 317.625 163.5 319.5 163.5 321.625Z" fill="#E9E4DC" stroke="#C49F8A"/>
<path d="M170.375 321.375C170.996 321.375 171.5 320.871 171.5 320.25C171.5 319.629 170.996 319.125 170.375 319.125C169.754 319.125 169.25 319.629 169.25 320.25C169.25 320.871 169.754 321.375 170.375 321.375Z" fill="#E9E4DC" stroke="#C49F8A"/>
<path d="M357.5 267.25H345.625V289.125H357.5V267.25Z" fill="#E9E4DC"/>
<path d="M356.875 267.875V288.5H346.25V267.875H356.875ZM358.125 266.625H345V289.75H358.125V266.625Z" fill="#C49F8A"/>
<path d="M351.5 285C353.75 285 355.5 283.25 355.5 281V275.25C355.5 273 353.75 271.25 351.5 271.25C349.25 271.25 347.5 273 347.5 275.25V281C347.5 283.25 349.375 285 351.5 285Z" fill="#E9E4DC" stroke="#C49F8A"/>
<path d="M350.375 279.25C350.996 279.25 351.5 278.746 351.5 278.125C351.5 277.504 350.996 277 350.375 277C349.754 277 349.25 277.504 349.25 278.125C349.25 278.746 349.754 279.25 350.375 279.25Z" fill="#E9E4DC" stroke="#C49F8A"/>
<path d="M146.75 493.125H143.5V504H146.75V493.125Z" fill="#E9E4DC"/>
<path d="M146.125 493.75V503.375H144.125V493.75H146.125ZM147.375 492.5H142.875V504.625H147.375V492.5Z" fill="#C49F8A"/>
<path d="M155.25 503.25C157.875 503.375 160.125 501.375 160.125 498.625C160.125 496 157.875 493.875 155.25 494L146.75 494.625V502.75L155.25 503.25Z" fill="#E9E4DC" stroke="#C49F8A"/>
<path d="M155.125 501.375C156.75 501.5 158.25 500.25 158.25 498.5C158.25 496.875 156.75 495.5 155.125 495.625L150.625 496V500.875L155.125 501.375Z" fill="#E9E4DC" stroke="#C49F8A"/>
<path d="M153.25 499.75C153.871 499.75 154.375 499.246 154.375 498.625C154.375 498.004 153.871 497.5 153.25 497.5C152.629 497.5 152.125 498.004 152.125 498.625C152.125 499.246 152.629 499.75 153.25 499.75Z" fill="#E9E4DC" stroke="#C49F8A"/>
<path d="M348.875 295.625H345.625V306.5H348.875V295.625Z" fill="#E9E4DC"/>
<path d="M348.25 296.25V305.875H346.25V296.25H348.25ZM349.5 295H345V307.125H349.5V295Z" fill="#C49F8A"/>
<path d="M357.5 305.75C360.125 305.875 362.375 303.875 362.375 301.125C362.375 298.5 360.125 296.375 357.5 296.5L349 297.125V305.25L357.5 305.75Z" fill="#E9E4DC" stroke="#C49F8A"/>
<path d="M357.25 304C358.875 304.125 360.375 302.875 360.375 301.125C360.375 299.5 358.875 298.125 357.25 298.25L352.75 298.625V303.5L357.25 304Z" fill="#E9E4DC" stroke="#C49F8A"/>
<path d="M355.5 302.25C356.121 302.25 356.625 301.746 356.625 301.125C356.625 300.504 356.121 300 355.5 300C354.879 300 354.375 300.504 354.375 301.125C354.375 301.746 354.879 302.25 355.5 302.25Z" fill="#E9E4DC" stroke="#C49F8A"/>
<path d="M153.375 315.75H142.5V319H153.375V315.75Z" fill="#E9E4DC"/>
<path d="M152.75 316.375V318.375H143.125V316.375H152.75ZM154 315.125H141.875V319.625H154V315.125Z" fill="#C49F8A"/>
<path d="M143.377 327.625C143.252 330.25 145.252 332.5 148.002 332.5C150.627 332.5 152.752 330.25 152.627 327.625L152.002 319.125H143.877L143.377 327.625Z" fill="#E9E4DC" stroke="#C49F8A"/>
<path d="M145.126 327.375C145.001 329 146.251 330.5 148.001 330.5C149.626 330.5 151.001 329 150.876 327.375L150.501 322.875H145.626L145.126 327.375Z" fill="#E9E4DC" stroke="#C49F8A"/>
<path d="M148 326.625C148.621 326.625 149.125 326.121 149.125 325.5C149.125 324.879 148.621 324.375 148 324.375C147.379 324.375 146.875 324.879 146.875 325.5C146.875 326.121 147.379 326.625 148 326.625Z" fill="#E9E4DC" stroke="#C49F8A"/>
<path d="M389.375 156H386.625V197H389.375V156Z" fill="#E9E4DC"/>
<path d="M388.75 156.625V196.375H387.25V156.625H388.75ZM390 155.375H386V197.625H390V155.375Z" fill="#C49F8A"/>
<path d="M398.25 156H389.375V197H398.25V156Z" fill="#E9E4DC"/>
<path d="M397.75 156.625V196.375H390.125V156.625H397.75ZM399 155.375H388.875V197.625H399V155.375Z" fill="#C49F8A"/>
<path d="M395.375 163.125H392.625V190H395.375V163.125Z" fill="#E9E4DC"/>
<path d="M394.75 163.75V189.375H393.25V163.75H394.75ZM396 162.5H392V190.625H396V162.5Z" fill="#C49F8A"/>
<path d="M396 182.5V170.625L398.25 171.75V181.5L396 182.5Z" fill="#E9E4DC" stroke="#C49F8A"/>
<path d="M121.125 294.5H80.125V297.25H121.125V294.5Z" fill="#E9E4DC"/>
<path d="M120.5 295.125V296.625H80.75V295.125H120.5ZM121.75 293.875H79.5V297.875H121.75V293.875Z" fill="#C49F8A"/>
<path d="M121.125 297.25H80.125V306.125H121.125V297.25Z" fill="#E9E4DC"/>
<path d="M120.5 297.875V305.5H80.75V297.875H120.5ZM121.75 296.625H79.5V306.75H121.75V296.625Z" fill="#C49F8A"/>
<path d="M114.125 300.5H87.25V303.25H114.125V300.5Z" fill="#E9E4DC"/>
<path d="M113.375 301.125V302.625H87.75V301.125H113.375ZM114.625 299.875H86.5V303.875H114.625V299.875Z" fill="#C49F8A"/>
<path d="M94.75 303.875H106.625L105.5 306.125H95.75L94.75 303.875Z" fill="#E9E4DC" stroke="#C49F8A"/>
<path d="M302.375 135H285.625V235.75H302.375V135Z" fill="#E9E4DC"/>
<path d="M301.625 135.625V235.125H286.125V135.625H301.625ZM302.875 134.375H284.875V236.375H302.875V134.375Z" fill="#C49F8A"/>
<path d="M300 143.625H287.875V162.75H300V143.625Z" fill="#E9E4DC" stroke="#C49F8A"/>
<path d="M293.875 155.25C296.375 155.25 298.375 153.25 298.375 150.75V149.75C298.375 147.25 296.375 145.25 293.875 145.25C291.375 145.25 289.375 147.25 289.375 149.75V150.75C289.375 153.25 291.375 155.25 293.875 155.25Z" fill="#E9E4DC" stroke="#C49F8A"/>
<path d="M295.75 151.375C296.371 151.375 296.875 150.871 296.875 150.25C296.875 149.629 296.371 149.125 295.75 149.125C295.129 149.125 294.625 149.629 294.625 150.25C294.625 150.871 295.129 151.375 295.75 151.375Z" fill="#E9E4DC" stroke="#C49F8A"/>
<path d="M290.375 161.75V156.75" stroke="#C49F8A"/>
<path d="M292.75 161.75V156.75" stroke="#C49F8A"/>
<path d="M295.125 161.75V156.75" stroke="#C49F8A"/>
<path d="M297.5 161.75V156.75" stroke="#C49F8A"/>
<path d="M302.25 178.875H285.625V195.125H302.25V178.875Z" fill="#E9E4DC"/>
<path d="M301.625 179.5V194.5H286.25V179.5H301.625ZM302.875 178.25H285V195.75H302.875V178.25Z" fill="#C49F8A"/>
<path d="M290.5 192.875C289.625 192.875 288.875 192.125 288.875 191.25C288.875 190.375 289.625 189.625 290.5 189.625C291.375 189.625 292.125 190.375 292.125 191.25C292.125 192.125 291.5 192.875 290.5 192.875Z" fill="#E9E4DC"/>
<path d="M290.5 190.25C291 190.25 291.5 190.75 291.5 191.25C291.5 191.75 291 192.25 290.5 192.25C290 192.25 289.5 191.75 289.5 191.25C289.5 190.75 290 190.25 290.5 190.25ZM290.5 189C289.25 189 288.25 190 288.25 191.25C288.25 192.5 289.25 193.5 290.5 193.5C291.75 193.5 292.75 192.5 292.75 191.25C292.75 190 291.75 189 290.5 189Z" fill="#C49F8A"/>
<path d="M297.25 193.5C296 193.5 295.125 192.5 295.125 191.375C295.125 190.25 296.125 189.25 297.25 189.25C298.5 189.25 299.375 190.25 299.375 191.375C299.375 192.5 298.5 193.5 297.25 193.5Z" fill="#E9E4DC"/>
<path d="M297.25 189.75C298.125 189.75 298.75 190.5 298.75 191.25C298.75 192 298 192.75 297.25 192.75C296.5 192.75 295.75 192 295.75 191.25C295.75 190.5 296.375 189.75 297.25 189.75ZM297.25 188.5C295.75 188.5 294.5 189.75 294.5 191.25C294.5 192.75 295.75 194 297.25 194C298.75 194 300 192.75 300 191.25C300.125 189.75 298.875 188.5 297.25 188.5Z" fill="#C49F8A"/>
<path d="M290.5 185.625C289.25 185.625 288.375 184.625 288.375 183.5C288.375 182.375 289.375 181.375 290.5 181.375C291.75 181.375 292.625 182.375 292.625 183.5C292.625 184.625 291.75 185.625 290.5 185.625Z" fill="#E9E4DC"/>
<path d="M290.5 181.875C291.375 181.875 292 182.625 292 183.375C292 184.125 291.25 184.875 290.5 184.875C289.75 184.875 289 184.125 289 183.375C289 182.625 289.75 181.875 290.5 181.875ZM290.5 180.625C289 180.625 287.75 181.875 287.75 183.375C287.75 184.875 289 186.125 290.5 186.125C292 186.125 293.25 184.875 293.25 183.375C293.25 181.875 292.125 180.625 290.5 180.625Z" fill="#C49F8A"/>
<path d="M297.875 185C297 185 296.25 184.25 296.25 183.375C296.25 182.5 297 181.75 297.875 181.75C298.75 181.75 299.5 182.5 299.5 183.375C299.5 184.25 298.75 185 297.875 185Z" fill="#E9E4DC"/>
<path d="M297.875 182.375C298.375 182.375 298.875 182.875 298.875 183.375C298.875 183.875 298.375 184.375 297.875 184.375C297.375 184.375 296.875 183.875 296.875 183.375C296.875 182.875 297.25 182.375 297.875 182.375ZM297.875 181.125C296.625 181.125 295.625 182.125 295.625 183.375C295.625 184.625 296.625 185.625 297.875 185.625C299.125 185.625 300.125 184.625 300.125 183.375C300.125 182.125 299.125 181.125 297.875 181.125Z" fill="#C49F8A"/>
<path d="M85.5 171.25C85.5 172 84.875 172.625 84.125 172.625H69.875V140H85.625V171.25H85.5Z" fill="#E9E4DC" stroke="#C49F8A"/>
<path d="M110.75 154.375C110.75 155.125 110.125 155.75 109.25 155.75H86.875C86 155.75 85.375 155.125 85.375 154.375V140H110.625V154.375H110.75Z" fill="#E9E4DC" stroke="#C49F8A"/>
<path d="M135.125 154.375C135.125 155.125 134.5 155.75 133.75 155.75H112.25C111.5 155.75 110.875 155.125 110.875 154.375V140H135.25V154.375H135.125Z" fill="#E9E4DC" stroke="#C49F8A"/>
<path d="M135.125 157H140.375V134.5H63.875L63.875 178.375H86.5V172.75H69.625V140H135V157H135.125Z" fill="#E9E4DC" stroke="#C49F8A"/>
<path d="M132.5 481.125V458.5H155.125V474C155.125 477.875 152 481 148.125 481H132.5V481.125Z" fill="#E9E4DC" stroke="#C49F8A"/>
<path d="M134.75 478.75V460.875H152.625V473.125C152.625 476.25 150.125 478.625 147.125 478.625H134.75V478.75Z" fill="#E9E4DC" stroke="#C49F8A"/>
<path d="M138.25 465.5C138.871 465.5 139.375 464.996 139.375 464.375C139.375 463.754 138.871 463.25 138.25 463.25C137.629 463.25 137.125 463.754 137.125 464.375C137.125 464.996 137.629 465.5 138.25 465.5Z" fill="#E9E4DC" stroke="#C49F8A"/>
<path d="M150.624 268.75C155.249 253.375 171.499 244.625 186.749 249.25C202.124 253.875 210.874 270.125 206.249 285.375C201.624 300.625 185.374 309.5 170.124 304.875C154.749 300.5 145.999 284.25 150.624 268.75Z" fill="#E9E4DC"/>
<path d="M205.748 285.375C201.248 300.5 185.373 309 170.248 304.5C155.123 300 146.623 284.125 151.123 269C155.623 253.875 171.498 245.375 186.623 249.875C201.748 254.375 210.248 270.25 205.748 285.375ZM206.873 285.625C211.623 269.875 202.623 253.375 186.998 248.75C171.248 244 154.748 253 150.123 268.625C145.498 284.25 154.373 300.875 169.998 305.5C185.623 310.375 202.248 301.375 206.873 285.625Z" fill="#C49F8A"/>
<path d="M205.625 288L178.5 277.125" stroke="#C49F8A"/>
<path d="M196.75 300L178.5 277.125" stroke="#C49F8A"/>
<path d="M184.375 305.75L178.5 277.125" stroke="#C49F8A"/>
<path d="M171.375 305.5L178.5 277.125" stroke="#C49F8A"/>
<path d="M159.875 299.625L178.5 277.125" stroke="#C49F8A"/>
<path d="M175.748 276.375C176.248 274.875 177.748 274 179.248 274.5C180.748 275 181.623 276.5 181.123 278C180.623 279.5 179.123 280.375 177.623 279.875C176.123 279.375 175.373 277.875 175.748 276.375Z" fill="#E9E4DC"/>
<path d="M180.75 277.875C180.375 279.125 179.125 279.75 177.875 279.375C176.625 279 176 277.75 176.375 276.5C176.75 275.25 178 274.625 179.25 275C180.375 275.375 181 276.625 180.75 277.875ZM181.75 278.125C182.25 276.25 181.25 274.375 179.5 273.875C177.625 273.375 175.75 274.375 175.25 276.125C174.75 278 175.75 279.875 177.5 280.375C179.25 281 181.25 280 181.75 278.125Z" fill="#C49F8A"/>
<path d="M168.25 290C168.25 290 175.875 298.125 187.125 292.25" stroke="#C49F8A"/>
<path d="M187.125 296L195 286L183.125 290.75L187.125 296Z" fill="#C49F8A"/>
<path d="M168.25 291.625C169.147 291.625 169.875 290.897 169.875 290C169.875 289.103 169.147 288.375 168.25 288.375C167.353 288.375 166.625 289.103 166.625 290C166.625 290.897 167.353 291.625 168.25 291.625Z" fill="#C49F8A"/>
<path d="M285.625 211.75H249.375V235.75H285.625V211.75Z" fill="#E9E4DC"/>
<path d="M285 212.375V235.125H250V212.375H285ZM286.25 211.125H248.75V236.375H286.25V211.125Z" fill="#C49F8A"/>
<path d="M240.5 229.375C237.5 229.375 235.125 227 235.125 224C235.125 221 237.5 218.625 240.5 218.625C243.5 218.625 245.875 221 245.875 224C245.875 227 243.5 229.375 240.5 229.375Z" fill="#E9E4DC"/>
<path d="M240.5 219.25C243.125 219.25 245.25 221.375 245.25 224C245.25 226.625 243.125 228.75 240.5 228.75C237.875 228.75 235.75 226.625 235.75 224C235.75 221.375 237.875 219.25 240.5 219.25ZM240.5 218C237.25 218 234.5 220.625 234.5 224C234.5 227.25 237.125 230 240.5 230C243.875 230 246.5 227.375 246.5 224C246.5 220.75 243.875 218 240.5 218Z" fill="#C49F8A"/>
<path d="M256.125 250.375C253.125 250.375 250.75 248 250.75 245C250.75 242 253.125 239.625 256.125 239.625C259.125 239.625 261.5 242 261.5 245C261.5 248 259.125 250.375 256.125 250.375Z" fill="#E9E4DC"/>
<path d="M256.125 240.25C258.75 240.25 260.875 242.375 260.875 245C260.875 247.625 258.75 249.75 256.125 249.75C253.5 249.75 251.375 247.625 251.375 245C251.375 242.375 253.5 240.25 256.125 240.25ZM256.125 239C252.875 239 250.125 241.625 250.125 245C250.125 248.25 252.75 251 256.125 251C259.375 251 262.125 248.375 262.125 245C262.125 241.75 259.375 239 256.125 239Z" fill="#C49F8A"/>
<path d="M270.125 250.375C267.125 250.375 264.75 248 264.75 245C264.75 242 267.125 239.625 270.125 239.625C273.125 239.625 275.5 242 275.5 245C275.375 248 273 250.375 270.125 250.375Z" fill="#E9E4DC"/>
<path d="M270.125 240.25C272.75 240.25 274.875 242.375 274.875 245C274.875 247.625 272.75 249.75 270.125 249.75C267.5 249.75 265.375 247.625 265.375 245C265.375 242.375 267.5 240.25 270.125 240.25ZM270.125 239C266.875 239 264.125 241.625 264.125 245C264.125 248.25 266.75 251 270.125 251C273.5 251 276.125 248.375 276.125 245C276 241.75 273.375 239 270.125 239Z" fill="#C49F8A"/>
<path d="M214 110.125L216.375 108.125H217.375V116.5H216.125V109.875L214.625 111L214 110.125Z" fill="#565440"/>
<path d="M218.75 109.25V108.125H224V109L220.875 116.5H219.5L222.625 109.375H218.75V109.25Z" fill="#565440"/>
<path d="M224.75 116.625C224.5 116.625 224.375 116.5 224.125 116.375C223.875 116.25 223.875 116 223.875 115.75C223.875 115.5 224 115.375 224.125 115.25C224.25 115.125 224.5 115 224.75 115C225 115 225.125 115.125 225.25 115.25C225.375 115.375 225.5 115.625 225.5 115.75C225.5 116 225.375 116.125 225.25 116.375C225.125 116.625 225 116.625 224.75 116.625Z" fill="#565440"/>
<path d="M229.125 116.5C228.25 116.5 227.375 116.25 226.5 115.625L227.125 114.625C227.875 115.125 228.5 115.25 229.125 115.25C229.625 115.25 230 115.125 230.25 114.875C230.5 114.625 230.625 114.375 230.625 113.875C230.625 113.5 230.5 113.125 230.125 112.875C229.875 112.625 229.5 112.5 229 112.5H228V111.375H229C229.375 111.375 229.75 111.25 230 111C230.25 110.75 230.375 110.5 230.375 110.125C230.375 109.75 230.25 109.5 230 109.25C229.75 109 229.375 108.875 229 108.875C228.5 108.875 227.875 109.125 227.25 109.625L226.625 108.75C226.875 108.5 227.25 108.25 227.75 108C228.25 107.875 228.625 107.75 229.125 107.75C229.875 107.75 230.5 108 231 108.375C231.5 108.75 231.75 109.375 231.75 109.875C231.75 110.375 231.625 110.75 231.375 111C231.125 111.375 230.75 111.625 230.375 111.75C230.875 111.875 231.25 112.125 231.625 112.5C231.875 112.875 232 113.25 232 113.875C232 114.625 231.75 115.125 231.25 115.625C230.625 116.375 230 116.5 229.125 116.5Z" fill="#565440"/>
<path d="M182.5 196.125H183.375V197.25H182.5V199.25H181.25V197.25H177.5L177.25 196.5L181.75 191H182.625V196.125H182.5ZM181.25 193.125L178.75 196.125H181.25V193.125Z" fill="#565440"/>
<path d="M189.25 199C188.75 199.25 188.25 199.375 187.75 199.375C187.25 199.375 186.625 199.25 186.25 199C185.5 198.5 185 197.75 184.625 196.625C184.5 196.125 184.5 195.625 184.5 195C184.5 194.5 184.5 194 184.625 193.5C184.75 193 184.875 192.5 185.25 192.125C185.5 191.75 185.875 191.375 186.25 191.125C186.625 190.875 187.25 190.75 187.75 190.75C188.375 190.75 188.875 190.875 189.25 191.125C190 191.5 190.625 192.375 190.875 193.5C191.125 194.5 191.125 195.625 190.875 196.625C190.5 197.875 190 198.625 189.25 199ZM187.75 198.25C188.375 198.25 188.875 198 189.25 197.375C189.625 196.75 189.75 196 189.75 195.125C189.75 194.25 189.625 193.5 189.25 192.875C188.875 192.25 188.375 192 187.75 192C187.125 192 186.625 192.25 186.25 192.875C185.875 193.5 185.75 194.125 185.75 195.125C185.75 196 185.875 196.75 186.25 197.375C186.625 198 187 198.25 187.75 198.25Z" fill="#565440"/>
<path d="M192.625 199.5C192.375 199.5 192.25 199.375 192 199.25C191.875 199.125 191.75 198.875 191.75 198.625C191.75 198.375 191.875 198.25 192 198.125C192.125 198 192.375 197.875 192.625 197.875C192.875 197.875 193 198 193.125 198.125C193.25 198.25 193.375 198.5 193.375 198.625C193.375 198.875 193.25 199 193.125 199.25C193 199.375 192.875 199.5 192.625 199.5Z" fill="#565440"/>
<path d="M197.5 199.375C196.625 199.375 195.875 199.125 195.375 198.75C194.875 198.25 194.5 197.75 194.5 197C194.5 196.5 194.625 196.125 195 195.75C195.25 195.375 195.625 195.125 196.125 194.875C195.75 194.75 195.375 194.375 195.25 194.125C195 193.75 194.875 193.5 194.875 193C194.875 192.375 195.125 191.875 195.625 191.375C196.125 191 196.75 190.75 197.5 190.75C198.25 190.75 198.875 191 199.375 191.375C199.875 191.75 200.125 192.375 200.125 193C200.125 193.375 200 193.75 199.75 194.125C199.5 194.5 199.25 194.75 198.875 194.875C199.375 195 199.75 195.375 200 195.75C200.25 196.125 200.5 196.625 200.5 197C200.5 197.75 200.25 198.25 199.625 198.75C199.125 199.25 198.375 199.375 197.5 199.375ZM197.5 198.25C198 198.25 198.375 198.125 198.75 197.875C199.125 197.625 199.25 197.25 199.25 196.875C199.25 196.5 199.125 196.125 198.75 195.875C198.375 195.625 198 195.5 197.5 195.5C197 195.5 196.625 195.625 196.25 195.875C195.875 196.125 195.75 196.5 195.75 196.875C195.75 197.25 195.875 197.625 196.25 197.875C196.625 198.125 197 198.25 197.5 198.25ZM198.5 194C198.75 193.75 198.875 193.5 198.875 193.125C198.875 192.75 198.75 192.5 198.5 192.25C198.25 192 197.875 191.875 197.5 191.875C197.125 191.875 196.75 192 196.5 192.25C196.25 192.5 196.125 192.75 196.125 193.125C196.125 193.5 196.25 193.75 196.5 194C196.75 194.25 197.125 194.375 197.5 194.375C198 194.375 198.25 194.25 198.5 194Z" fill="#565440"/>
<path d="M346.625 213.375L349 211.375H350V219.75H348.75V213.125L347.25 214.25L346.625 213.375Z" fill="#565440"/>
<path d="M354.875 214.375C355.625 214.375 356.25 214.625 356.75 215.125C357.25 215.625 357.5 216.25 357.5 217C357.5 217.75 357.25 218.5 356.625 219C356.125 219.5 355.375 219.75 354.5 219.75C353.5 219.75 352.75 219.375 352.25 218.625C351.75 217.875 351.5 216.875 351.5 215.75C351.5 215 351.625 214.25 351.875 213.5C352.125 212.875 352.5 212.25 353 211.875C353.5 211.375 354.25 211.25 355 211.25C355.875 211.25 356.625 211.5 357.125 212L356.625 213C356.125 212.625 355.625 212.5 355.125 212.5C354.625 212.5 354.25 212.625 353.875 213C353.25 213.625 352.875 214.5 352.875 215.625C353 215.25 353.375 215 353.75 214.75C354.125 214.5 354.375 214.375 354.875 214.375ZM354.625 218.625C355.125 218.625 355.5 218.5 355.75 218.125C356 217.75 356.25 217.375 356.25 217C356.25 216.5 356.125 216.125 355.75 215.875C355.5 215.625 355.125 215.375 354.625 215.375C354.125 215.375 353.75 215.5 353.5 215.875C353.25 216.125 353 216.625 353 217C353 217.5 353.125 217.875 353.5 218.125C353.875 218.5 354.25 218.625 354.625 218.625Z" fill="#565440"/>
<path d="M359.375 219.875C359.125 219.875 359 219.75 358.75 219.625C358.5 219.5 358.5 219.25 358.5 219C358.5 218.75 358.625 218.625 358.75 218.5C358.875 218.375 359.125 218.25 359.375 218.25C359.625 218.25 359.75 218.375 359.875 218.5C360 218.625 360.125 218.875 360.125 219C360.125 219.25 360 219.375 359.875 219.625C359.75 219.875 359.5 219.875 359.375 219.875Z" fill="#565440"/>
<path d="M360.125 213.375L362.5 211.375H363.5V219.75H362.25V213.125L360.75 214.25L360.125 213.375Z" fill="#565440"/>
<path d="M248.625 319.625C247.75 319.625 247 319.375 246.5 319C245.875 318.5 245.625 318 245.625 317.25C245.625 316.75 245.75 316.375 246.125 316C246.375 315.625 246.75 315.375 247.25 315.125C246.875 315 246.5 314.625 246.375 314.375C246.125 314 246 313.75 246 313.25C246 312.625 246.25 312.125 246.75 311.625C247.25 311.25 247.875 311 248.625 311C249.375 311 250 311.25 250.5 311.625C251 312 251.25 312.625 251.25 313.25C251.25 313.625 251.125 314 250.875 314.375C250.625 314.75 250.375 315 250 315.125C250.5 315.25 250.875 315.625 251.125 316C251.375 316.375 251.625 316.875 251.625 317.25C251.625 318 251.375 318.5 250.75 319C250.25 319.375 249.5 319.625 248.625 319.625ZM248.625 318.5C249.125 318.5 249.5 318.375 249.875 318.125C250.25 317.875 250.375 317.5 250.375 317.125C250.375 316.75 250.25 316.375 249.875 316.125C249.5 315.875 249.125 315.75 248.625 315.75C248.125 315.75 247.75 315.875 247.375 316.125C247 316.375 246.875 316.75 246.875 317.125C246.875 317.5 247 317.875 247.375 318.125C247.75 318.375 248.125 318.5 248.625 318.5ZM249.625 314.25C249.875 314 250 313.75 250 313.375C250 313 249.875 312.75 249.625 312.5C249.375 312.25 249 312.125 248.625 312.125C248.25 312.125 247.875 312.25 247.625 312.5C247.375 312.75 247.25 313 247.25 313.375C247.25 313.75 247.375 314 247.625 314.25C247.875 314.5 248.25 314.625 248.625 314.625C249.125 314.625 249.375 314.5 249.625 314.25Z" fill="#565440"/>
<path d="M253.5 319.75C253.25 319.75 253.125 319.625 252.875 319.5C252.75 319.375 252.625 319.125 252.625 318.875C252.625 318.625 252.75 318.5 252.875 318.375C253 318.25 253.25 318.125 253.5 318.125C253.75 318.125 253.875 318.25 254 318.375C254.125 318.5 254.25 318.75 254.25 318.875C254.25 319.125 254.125 319.25 254 319.5C253.875 319.625 253.75 319.75 253.5 319.75Z" fill="#565440"/>
<path d="M258.5 314.125C259.25 314.125 259.875 314.375 260.375 314.875C260.875 315.375 261.125 316 261.125 316.75C261.125 317.5 260.875 318.25 260.25 318.75C259.75 319.25 259 319.5 258.125 319.5C257.125 319.5 256.375 319.125 255.875 318.375C255.375 317.625 255.125 316.625 255.125 315.5C255.125 314.75 255.25 314 255.5 313.25C255.75 312.625 256.125 312 256.625 311.625C257.125 311.125 257.875 311 258.625 311C259.5 311 260.25 311.25 260.75 311.75L260.25 312.75C259.75 312.375 259.25 312.25 258.75 312.25C258.25 312.25 257.875 312.375 257.5 312.75C256.875 313.375 256.5 314.25 256.5 315.375C256.625 315 257 314.75 257.375 314.5C257.75 314.25 258 314.125 258.5 314.125ZM258.25 318.5C258.75 318.5 259.125 318.375 259.375 318C259.625 317.625 259.875 317.25 259.875 316.875C259.875 316.375 259.75 316 259.375 315.75C259.125 315.5 258.75 315.25 258.25 315.25C257.75 315.25 257.375 315.375 257.125 315.75C256.875 316 256.625 316.5 256.625 316.875C256.625 317.375 256.75 317.75 257.125 318C257.375 318.375 257.75 318.5 258.25 318.5Z" fill="#565440"/>
<path d="M158.875 346.75H159.75V347.875H158.875V349.875H157.625V347.875H153.875L153.625 347.125L158.125 341.625H159V346.75H158.875ZM157.625 343.75L155.125 346.75H157.625V343.75Z" fill="#565440"/>
<path d="M82.5 367.5L84.875 365.5H85.875V373.875H84.625V367.25L83.125 368.375L82.5 367.5Z" fill="#565440"/>
<path d="M90.125 368.5C90.875 368.5 91.625 368.75 92.125 369.25C92.625 369.75 92.875 370.375 92.875 371.25C92.875 372.125 92.625 372.75 92 373.25C91.5 373.75 90.75 374 89.875 374C88.875 374 88 373.625 87.125 373L87.75 372C88.5 372.5 89.125 372.75 89.875 372.75C90.375 372.75 90.75 372.625 91.125 372.25C91.5 372 91.625 371.625 91.625 371.125C91.625 370.625 91.5 370.25 91.125 370C90.875 369.75 90.375 369.5 89.875 369.5C89.25 369.5 88.75 369.75 88.375 370.125L87.625 369.625L88.125 365.5H92.375V366.625H89.125L88.875 368.625C89.25 368.5 89.625 368.5 90.125 368.5Z" fill="#565440"/>
<path d="M94.75 374C94.5 374 94.375 373.875 94.125 373.75C94 373.625 93.875 373.375 93.875 373.125C93.875 372.875 94 372.75 94.125 372.625C94.25 372.5 94.5 372.375 94.75 372.375C95 372.375 95.125 372.5 95.25 372.625C95.375 372.75 95.5 373 95.5 373.125C95.5 373.375 95.375 373.5 95.25 373.75C95.125 374 94.875 374 94.75 374Z" fill="#565440"/>
<path d="M99.125 374C98.25 374 97.375 373.75 96.5 373.125L97.125 372.125C97.875 372.625 98.5 372.75 99.125 372.75C99.625 372.75 100 372.625 100.25 372.375C100.5 372.125 100.625 371.875 100.625 371.375C100.625 371 100.5 370.625 100.125 370.375C99.875 370.125 99.5 370 99 370H98V368.875H99C99.375 368.875 99.75 368.75 100 368.5C100.25 368.25 100.375 368 100.375 367.625C100.375 367.25 100.25 367 100 366.75C99.75 366.5 99.375 366.375 99 366.375C98.5 366.375 97.875 366.625 97.25 367.125L96.625 366.25C96.875 366 97.375 365.75 97.75 365.5C98.25 365.375 98.625 365.25 99.125 365.25C99.875 365.25 100.5 365.5 101 365.875C101.5 366.25 101.75 366.875 101.75 367.375C101.75 367.875 101.625 368.25 101.375 368.5C101.125 368.875 100.75 369.125 100.375 369.25C100.875 369.375 101.25 369.625 101.625 370C101.875 370.375 102 370.75 102 371.375C102 372.125 101.75 372.625 101.25 373.125C100.625 373.75 100 374 99.125 374Z" fill="#565440"/>
<path d="M155.875 428.125C156.625 428.125 157.375 428.375 157.875 428.875C158.375 429.375 158.625 430 158.625 430.875C158.625 431.75 158.375 432.375 157.75 432.875C157.25 433.375 156.5 433.625 155.625 433.625C154.625 433.625 153.75 433.25 152.875 432.625L153.5 431.625C154.25 432.125 154.875 432.375 155.625 432.375C156.125 432.375 156.5 432.25 156.875 431.875C157.25 431.625 157.375 431.25 157.375 430.75C157.375 430.25 157.25 429.875 156.875 429.625C156.625 429.375 156.125 429.125 155.625 429.125C155 429.125 154.5 429.375 154.125 429.75L153.375 429.25L153.875 425.125H158.125V426.25H154.875L154.625 428.25C155 428.125 155.5 428.125 155.875 428.125Z" fill="#565440"/>
<path d="M172 487.625H172.875V488.75H172V490.75H170.75V488.75H167L166.75 488L171.25 482.5H172.125V487.625H172ZM170.75 484.625L168.25 487.625H170.75V484.625Z" fill="#565440"/>
<path d="M258.625 471.75L256.625 474H260V475.25H254.75V474.125L257.375 471.25L258 470.5C258.125 470.375 258.25 470.125 258.375 469.875C258.5 469.625 258.5 469.375 258.5 469.125C258.5 468.75 258.375 468.5 258.125 468.25C257.875 468 257.5 467.875 257.125 467.875C256.5 467.875 255.875 468.125 255.125 468.75L254.375 467.875C255.25 467.125 256.125 466.625 257.125 466.625C257.875 466.625 258.5 466.875 259 467.375C259.5 467.875 259.75 468.5 259.75 469.125C259.875 470 259.375 470.75 258.625 471.75Z" fill="#565440"/>
<path d="M260.5 468.875L262.875 466.875H263.875V475.25H262.625V468.625L261.125 469.75L260.5 468.875Z" fill="#565440"/>
<path d="M266.25 475.375C266 475.375 265.875 475.25 265.625 475.125C265.5 475 265.375 474.75 265.375 474.5C265.375 474.25 265.5 474.125 265.625 474C265.75 473.875 266 473.75 266.25 473.75C266.5 473.75 266.625 473.875 266.75 474C266.875 474.125 267 474.375 267 474.5C267 474.75 266.875 474.875 266.75 475.125C266.75 475.25 266.5 475.375 266.25 475.375Z" fill="#565440"/>
<path d="M267.125 468.875L269.5 466.875H270.5V475.25H269.25V468.625L267.75 469.75L267.125 468.875Z" fill="#565440"/>
<path d="M352.625 446.375H353.5V447.5H352.625V449.5H351.375V447.5H347.625L347.375 446.75L351.875 441.25H352.75V446.375H352.625ZM351.5 443.375L349 446.375H351.5V443.375Z" fill="#565440"/>
<path d="M791.25 383.875V309.5H883.125V90.5L500.5 90.5L500.5 505.375H605.625V514.25H883.125V383.875H791.25Z" fill="#DBD4CA"/>
<mask id="mask3" mask-type="alpha" maskUnits="userSpaceOnUse" x="609" y="458" width="68" height="47">
<rect x="609.625" y="458" width="67" height="47" fill="#C4C4C4"/>
</mask>
<g mask="url(#mask3)">
<g opacity="0.3">
<path opacity="0.7" d="M839.125 296.375L436.375 296.375L436.375 699.125H839.125V296.375Z" fill="#C49F8A"/>
</g>
<path d="M657.25 621.5L514 478.125" stroke="#C49F8A" stroke-miterlimit="10"/>
<path d="M644.25 634.5L501 491.125" stroke="#C49F8A" stroke-miterlimit="10"/>
<path d="M670.375 608.375L527 465.125" stroke="#C49F8A" stroke-miterlimit="10"/>
<path d="M683.375 595.375L540.125 452.125" stroke="#C49F8A" stroke-miterlimit="10"/>
<path d="M696.375 582.375L553.125 439.125" stroke="#C49F8A" stroke-miterlimit="10"/>
<path d="M709.375 569.375L566.125 426" stroke="#C49F8A" stroke-miterlimit="10"/>
<path d="M722.5 556.25L579.125 413" stroke="#C49F8A" stroke-miterlimit="10"/>
<path d="M735.5 543.25L592.125 400" stroke="#C49F8A" stroke-miterlimit="10"/>
<path d="M748.5 530.25L605.25 387" stroke="#C49F8A" stroke-miterlimit="10"/>
<path d="M761.5 517.25L618.25 373.875" stroke="#C49F8A" stroke-miterlimit="10"/>
<path d="M748.5 530.25L605.25 387" stroke="#C49F8A" stroke-miterlimit="10"/>
<path d="M774.5 504.25L631.25 360.875" stroke="#C49F8A" stroke-miterlimit="10"/>
<path d="M761.5 491.125L631.25 621.5" stroke="#C49F8A" stroke-miterlimit="10"/>
<path d="M774.5 504.25L644.25 634.5" stroke="#C49F8A" stroke-miterlimit="10"/>
<path d="M748.5 478.125L618.25 608.375" stroke="#C49F8A" stroke-miterlimit="10"/>
<path d="M735.5 465.125L605.25 595.375" stroke="#C49F8A" stroke-miterlimit="10"/>
<path d="M722.5 452.125L592.125 582.375" stroke="#C49F8A" stroke-miterlimit="10"/>
<path d="M709.375 439.125L579.125 569.375" stroke="#C49F8A" stroke-miterlimit="10"/>
<path d="M696.375 426L566.125 556.25" stroke="#C49F8A" stroke-miterlimit="10"/>
<path d="M683.375 413L553.125 543.25" stroke="#C49F8A" stroke-miterlimit="10"/>
<path d="M670.375 400L540.125 530.25" stroke="#C49F8A" stroke-miterlimit="10"/>
<path d="M657.25 387L527 517.25" stroke="#C49F8A" stroke-miterlimit="10"/>
<path d="M670.375 400L540.125 530.25" stroke="#C49F8A" stroke-miterlimit="10"/>
<path d="M644.25 373.875L514 504.25" stroke="#C49F8A" stroke-miterlimit="10"/>
<path d="M631.25 360.875L501 491.125" stroke="#C49F8A" stroke-miterlimit="10"/>
</g>
<mask id="mask4" mask-type="alpha" maskUnits="userSpaceOnUse" x="609" y="309" width="75" height="60">
<rect x="609.625" y="309" width="74" height="60" fill="#C4C4C4"/>
</mask>
<g mask="url(#mask4)">
<g opacity="0.3">
<path opacity="0.7" d="M840.125 152.875L437.375 152.875L437.375 555.625H840.125V152.875Z" fill="#C49F8A"/>
</g>
<path d="M658.25 478L515 334.625" stroke="#C49F8A" stroke-miterlimit="10"/>
<path d="M645.25 491L501.875 347.625" stroke="#C49F8A" stroke-miterlimit="10"/>
<path d="M671.25 464.875L528 321.625" stroke="#C49F8A" stroke-miterlimit="10"/>
<path d="M684.25 451.875L541 308.625" stroke="#C49F8A" stroke-miterlimit="10"/>
<path d="M697.375 438.875L554 295.625" stroke="#C49F8A" stroke-miterlimit="10"/>
<path d="M710.375 425.875L567.125 282.5" stroke="#C49F8A" stroke-miterlimit="10"/>
<path d="M723.375 412.875L580.125 269.5" stroke="#C49F8A" stroke-miterlimit="10"/>
<path d="M736.375 399.75L593.125 256.5" stroke="#C49F8A" stroke-miterlimit="10"/>
<path d="M749.5 386.75L606.125 243.5" stroke="#C49F8A" stroke-miterlimit="10"/>
<path d="M762.5 373.75L619.125 230.5" stroke="#C49F8A" stroke-miterlimit="10"/>
<path d="M749.5 386.75L606.125 243.5" stroke="#C49F8A" stroke-miterlimit="10"/>
<path d="M775.5 360.75L632.25 217.375" stroke="#C49F8A" stroke-miterlimit="10"/>
<path d="M762.5 347.625L632.25 478" stroke="#C49F8A" stroke-miterlimit="10"/>
<path d="M775.5 360.75L645.25 491" stroke="#C49F8A" stroke-miterlimit="10"/>
<path d="M749.5 334.625L619.125 464.875" stroke="#C49F8A" stroke-miterlimit="10"/>
<path d="M736.375 321.625L606.125 451.875" stroke="#C49F8A" stroke-miterlimit="10"/>
<path d="M723.375 308.625L593.125 438.875" stroke="#C49F8A" stroke-miterlimit="10"/>
<path d="M710.375 295.625L580.125 425.875" stroke="#C49F8A" stroke-miterlimit="10"/>
<path d="M697.375 282.5L567.125 412.875" stroke="#C49F8A" stroke-miterlimit="10"/>
<path d="M684.25 269.5L554 399.75" stroke="#C49F8A" stroke-miterlimit="10"/>
<path d="M671.25 256.5L541 386.75" stroke="#C49F8A" stroke-miterlimit="10"/>
<path d="M658.25 243.5L528 373.75" stroke="#C49F8A" stroke-miterlimit="10"/>
<path d="M671.25 256.5L541 386.75" stroke="#C49F8A" stroke-miterlimit="10"/>
<path d="M645.25 230.5L515 360.75" stroke="#C49F8A" stroke-miterlimit="10"/>
<path d="M632.25 217.375L501.875 347.625" stroke="#C49F8A" stroke-miterlimit="10"/>
</g>
<mask id="mask5" mask-type="alpha" maskUnits="userSpaceOnUse" x="822" y="246" width="59" height="63">
<rect x="822.625" y="246" width="58" height="63" fill="#C4C4C4"/>
</mask>
<g mask="url(#mask5)">
<g opacity="0.3">
<path opacity="0.7" d="M1053 84.75L650.25 84.75L650.25 487.5L1053 487.5V84.75Z" fill="#C49F8A"/>
</g>
<path d="M871.25 409.875L727.875 266.625" stroke="#C49F8A" stroke-miterlimit="10"/>
<path d="M858.125 422.875L714.875 279.625" stroke="#C49F8A" stroke-miterlimit="10"/>
<path d="M884.25 396.875L740.875 253.625" stroke="#C49F8A" stroke-miterlimit="10"/>
<path d="M897.25 383.875L754 240.5" stroke="#C49F8A" stroke-miterlimit="10"/>
<path d="M910.25 370.75L767 227.5" stroke="#C49F8A" stroke-miterlimit="10"/>
<path d="M923.25 357.75L780 214.5" stroke="#C49F8A" stroke-miterlimit="10"/>
<path d="M936.375 344.75L793 201.5" stroke="#C49F8A" stroke-miterlimit="10"/>
<path d="M949.375 331.75L806.125 188.375" stroke="#C49F8A" stroke-miterlimit="10"/>
<path d="M962.375 318.75L819.125 175.375" stroke="#C49F8A" stroke-miterlimit="10"/>
<path d="M975.375 305.625L832.125 162.375" stroke="#C49F8A" stroke-miterlimit="10"/>
<path d="M962.375 318.75L819.125 175.375" stroke="#C49F8A" stroke-miterlimit="10"/>
<path d="M988.5 292.625L845.125 149.375" stroke="#C49F8A" stroke-miterlimit="10"/>
<path d="M975.375 279.625L845.125 409.875" stroke="#C49F8A" stroke-miterlimit="10"/>
<path d="M988.5 292.625L858.125 422.875" stroke="#C49F8A" stroke-miterlimit="10"/>
<path d="M962.375 266.625L832.125 396.875" stroke="#C49F8A" stroke-miterlimit="10"/>
<path d="M949.375 253.625L819.125 383.875" stroke="#C49F8A" stroke-miterlimit="10"/>
<path d="M936.375 240.5L806.125 370.75" stroke="#C49F8A" stroke-miterlimit="10"/>
<path d="M923.25 227.5L793 357.75" stroke="#C49F8A" stroke-miterlimit="10"/>
<path d="M910.25 214.5L780 344.75" stroke="#C49F8A" stroke-miterlimit="10"/>
<path d="M897.25 201.5L767 331.75" stroke="#C49F8A" stroke-miterlimit="10"/>
<path d="M884.25 188.375L754 318.75" stroke="#C49F8A" stroke-miterlimit="10"/>
<path d="M871.25 175.375L740.875 305.625" stroke="#C49F8A" stroke-miterlimit="10"/>
<path d="M884.25 188.375L754 318.75" stroke="#C49F8A" stroke-miterlimit="10"/>
<path d="M858.125 162.375L727.875 292.625" stroke="#C49F8A" stroke-miterlimit="10"/>
<path d="M845.125 149.375L714.875 279.625" stroke="#C49F8A" stroke-miterlimit="10"/>
</g>
<path d="M764 514.25H674.375V518.375H764V514.25Z" stroke="#565440"/>
<path d="M880.375 133.75V129.625L543.375 129.625H539.25V133.75V465.125V467.375V469.25H570V465.125H543.375V133.75L880.375 133.75Z" stroke="#565440"/>
<path d="M496.25 86.125L496.25 509.75H497.75H500.375H597.5V505.625H500.375L500.375 90.25L883.125 90.25V86.125L496.25 86.125Z" stroke="#565440"/>
<path d="M791.25 356.875C795 356.875 798.125 356.25 801.5 354.875C804.875 353.5 808 351.5 810.375 349C813.125 346.625 815.125 343.5 816.5 340.125C817.875 336.75 818.5 333.25 818.5 329.5H791" stroke="#565440"/>
<path d="M785.625 256.625C788.375 256.625 790.625 257.125 793.125 258.125C795.625 259.125 797.875 260.625 799.625 262.375C801.625 264.125 803.125 266.375 804.125 268.875C805.125 271.375 805.625 273.875 805.625 276.625H785.75" stroke="#565440"/>
<path d="M843 245.875C843 243.125 843.5 240.875 844.5 238.375C845.5 235.875 847 233.625 848.75 231.875C850.5 229.875 852.75 228.375 855.25 227.375C857.75 226.375 860.25 225.875 863 225.875V245.75" stroke="#565440"/>
<path d="M649 369.5C649 372.25 648.5 374.5 647.5 377C646.5 379.5 645 381.75 643.25 383.5C641.5 385.5 639.25 387 636.75 388C634.25 389 631.75 389.5 629 389.5V369.5" stroke="#565440"/>
<path d="M687.625 405.125C687.625 402.375 688.125 400.125 689.125 397.625C690.125 395.125 691.625 392.875 693.375 391.125C695.125 389.125 697.375 387.625 699.875 386.625C702.375 385.625 704.875 385.125 707.625 385.125V405.125" stroke="#565440"/>
<path d="M673.75 397.875C671 397.875 668.75 397.375 666.25 396.375C663.75 395.375 661.5 393.875 659.75 392.125C657.75 390.375 656.25 388.125 655.25 385.625C654.25 383.125 653.75 380.625 653.75 377.875H673.75" stroke="#565440"/>
<path d="M676.5 475.75C679.25 475.75 681.5 476.25 684 477.25C686.5 478.25 688.75 479.75 690.5 481.5C692.5 483.25 694 485.5 695 488C696 490.5 696.5 493 696.5 495.75H676.5" stroke="#565440"/>
<path d="M812.125 477.5C814.875 477.5 817.125 477 819.625 476C822.125 475 824.375 473.5 826.125 471.75C828.125 470 829.625 467.75 830.625 465.25C831.625 462.75 832.125 460.25 832.125 457.5H812.125" stroke="#565440"/>
<path d="M684.875 315.125V306.875H621.875V296.625H609.125V306.875H538.75V315.125H609.125V325.5V369.5H628.875V366.75H611.875V325.5H621.875V315.125H682.125V366.75H649V369.5H673.75V377.75H676.5V369.5H684.875V366.75V315.125ZM611.875 299.375H619.125V306.875H611.875V299.375ZM619.125 322.75H611.875V315.125H619.125V322.75Z" fill="#565440"/>
<path d="M610.125 492.5H622.875V506.375H620V495.25H610.125V492.5Z" fill="#565440"/>
<path d="M520.75 95.375H553.5V93.375H557.25V88.125H553.5V86.125H557.25V80.75H553.5V78.75H550.75V75H545.375V78.75H543.5V75H538.125V78.75H536.125V75H530.875V78.75H528.875V75H523.5V78.75H520.75V80.75H517V86.125H520.75V88.125H517V93.375H520.75V95.375Z" fill="#565440"/>
<path d="M500.375 130.375H495V134.125H493.125V130.375H487.75V134.125H485.75V136.875H482V142.25H485.75V144.25H482V149.5H485.75V151.5H482V156.875H485.75V158.75H482V164.125H485.75V166.875H487.75V170.625H493.125V166.875H495V170.625H500.375V166.875H502.25V134.125H500.375V130.375Z" fill="#565440"/>
<path d="M500.375 422.875H495V426.625H493.125V422.875H487.75V426.625H485.75V429.375H482V434.75H485.75V436.625H482V442H485.75V444H482V449.25H485.75V451.25H482V456.625H485.75V459.375H487.75V463.125H493.125V459.375H495V463.125H500.375V459.375H502.25V426.625H500.375V422.875Z" fill="#565440"/>
<path d="M553.875 504.625H521V506.625H517.25V511.875H521V513.875H517.25V519.25H521V521.25H523.875V525H529.125V521.25H531.125V525H536.5V521.25H538.375V525H543.75V521.25H545.75V525H551V521.25H553.875V519.25H557.625V513.875H553.875V511.875H557.625V506.625H553.875V504.625Z" fill="#565440"/>
<path d="M702.875 521.25H706.125V525H711.5V521.25H713.375V525H718.75V521.25H722V504.625H702.875V521.25Z" fill="#565440"/>
<path d="M609.5 95.375H647.25V93.375H651V88.125H647.25V86.125H651V80.75H647.25V78.75H645.625V75H640.25V78.75H638.375V75H633V78.75H631V75H625.75V78.75H623.75V75H618.375V78.75H616.5V75H611.125V78.75H609.5V80.75H605.75V86.125H609.5V88.125H605.75V93.375H609.5V95.375Z" fill="#565440"/>
<path d="M500.375 280.25H495V284H493.125V280.25H487.75V284H485.75V285.5H482V290.875H485.75V292.875H482V298.125H485.75V300.125H482V305.5H485.75V307.375H482V312.75H485.75V314.75H482V320H485.75V321.625H487.75V325.375H493.125V321.625H495V325.375H500.375V321.625H502.25V284H500.375V280.25Z" fill="#565440"/>
<path d="M775.375 95.375H813.125V93.375H816.875V88.125H813.125V86.125H816.875V80.75H813.125V78.75H811.5V75H806.125V78.75H804.25V75H798.875V78.75H796.875V75H791.625V78.75H789.625V75H784.25V78.75H782.375V75H777V78.75H775.375V80.75H771.75V86.125H775.375V88.125H771.75V93.375H775.375V95.375Z" fill="#565440"/>
<path d="M676.5 397.875H673.75V405H648.625V407.75H673.75V455.125H611.875V407.75H631.875V405H609.125V455.125H567V471.75H595.25V521.25H602.375V525H607.75V521.25H609.625V525H615V521.25H617V525H622.25V521.25H624.25V525H629.625V521.25H631.5V525H636.875V521.25H638.875V525H644.125V521.25H646.125V525H651.5V521.25H653.375V525H658.75V521.25H660.625V525H666V521.25H668V525H673.25V521.25H676.5V495.875H673.75V504.625H611.875V457.875H673.75V475.75H676.5V407.75H687.625V405H676.5V397.875Z" fill="#565440"/>
<path d="M791.25 380.375V356.875H783V386H712.125V386.625V405H708.125V407.75H714.875V388.625H782.875H809.375V457.375H812.125V388.625H858.375V398.875H869.25V504.625H812.125V477.5H809.375V504.625H762V521.25H764.75V525H770.125V521.25H772.125V525H777.5V521.25H779.5V525H784.875V521.25H786.875V525H792.25V521.25H794.25V525H799.625V521.25H801.625V525H807V521.25H809V525H814.375V521.25H816.375V525H821.75V521.25H823.75V525H829.125V521.25H831.125V525H836.5V521.25H883.875V380.375H791.25ZM861.125 396.125V388.625H869.25V396.125H861.125Z" fill="#565440"/>
<path d="M677.375 251.75H782.875V256.625H785.625V249.125L791.125 249.125V128.625H782.875V236.25H771.25V248.875H677.375H675H674.625V280.5H658.125V283.25H677.375V251.75ZM774 239.125H782.875V246.375H774V239.125Z" fill="#565440"/>
<path d="M799.875 298.375H791.125V291.75H785.625V276.5H782.875V329.375H791.125V315.5H887.25V80.125H879V245.875L862.875 245.875V248.625L879 248.625V307.125H825.125V248.625H843V245.875H822.375V307.125H800V298.375H799.875ZM791.25 307.25V301.25H797.25V307.25H791.25Z" fill="#565440"/>
<path d="M844.125 155.125H791.875V199.125H844.125V155.125Z" fill="#E9E4DC"/>
<path d="M843.5 155.75V198.5H792.5V155.75H843.5ZM844.75 154.5H791.25V199.75H844.75V154.5Z" fill="#C49F8A"/>
<path d="M808.25 178.25H795V195.875H808.25V178.25Z" fill="#E9E4DC" stroke="#C49F8A"/>
<path d="M808.25 158.375H795V176H808.25V158.375Z" fill="#E9E4DC" stroke="#C49F8A"/>
<path d="M812.158 177.52L799.359 180.949L802.788 193.747L815.587 190.318L812.158 177.52Z" fill="#E9E4DC" stroke="#C49F8A" stroke-miterlimit="3.9998"/>
<path d="M802.788 160.473L799.359 173.271L812.158 176.701L815.587 163.902L802.788 160.473Z" fill="#E9E4DC" stroke="#C49F8A" stroke-miterlimit="3.9998"/>
<path d="M805.75 199.125L801.875 172.625L803 155.125H844.625V199.125H805.75Z" fill="#E9E4DC"/>
<path d="M844 155.75V198.5H806.375L802.625 172.5L803.625 155.625H844V155.75ZM845.25 154.5H803.25H802.375L801.25 172.625L805.25 199.75H805.5H845.25V154.5Z" fill="#C49F8A"/>
<path d="M803.75 155.125V172.75L806 199.25" stroke="#C49F8A"/>
<path d="M763.875 389.375H719.875V441.625H763.875V389.375Z" fill="#E9E4DC"/>
<path d="M763.25 390V441H720.5V390H763.25ZM764.5 388.75H719.25V442.25H764.5V388.75Z" fill="#C49F8A"/>
<path d="M740.75 392.5H723.125V405.75H740.75V392.5Z" fill="#E9E4DC" stroke="#C49F8A"/>
<path d="M760.625 392.5H743V405.75H760.625V392.5Z" fill="#E9E4DC" stroke="#C49F8A"/>
<path d="M738.06 397.007L725.262 400.437L728.691 413.235L741.489 409.806L738.06 397.007Z" fill="#E9E4DC" stroke="#C49F8A" stroke-miterlimit="3.9998"/>
<path d="M745.871 396.994L742.441 409.792L755.24 413.221L758.669 400.423L745.871 396.994Z" fill="#E9E4DC" stroke="#C49F8A" stroke-miterlimit="3.9998"/>
<path d="M719.875 442.125V403.25L746.5 399.375L763.875 400.5V442.125H719.875Z" fill="#E9E4DC"/>
<path d="M746.5 400L763.375 401V441.375H720.625V403.75L746.5 400ZM746.375 398.75L719.25 402.75V403V442.75H764.5V400.75V399.875L746.375 398.75Z" fill="#C49F8A"/>
<path d="M764 401.25H746.25L719.75 403.5" stroke="#C49F8A"/>
<path d="M592 395.75H555.875V454.5H592V395.75Z" fill="#E9E4DC"/>
<path d="M591.375 396.375V453.875H556.5V396.375H591.375ZM592.625 395.125H555.25V455.125H592.625V395.125Z" fill="#C49F8A"/>
<path d="M589.5 436H574.875V450.875H589.5V436Z" fill="#E9E4DC" stroke="#C49F8A"/>
<path d="M573.125 436H558.5V450.875H573.125V436Z" fill="#E9E4DC" stroke="#C49F8A"/>
<path d="M587.625 442L577.125 445.875L574.375 431.625L584.875 427.75L587.625 442Z" fill="#E9E4DC" stroke="#C49F8A" stroke-miterlimit="3.9998"/>
<path d="M573.5 431.625L570.75 445.875L560.25 442L563 427.75L573.5 431.625Z" fill="#E9E4DC" stroke="#C49F8A" stroke-miterlimit="3.9998"/>
<path d="M555.875 442V395.25H592V438.875L570.25 443.25L555.875 442Z" fill="#E9E4DC"/>
<path d="M591.375 395.875V438.5L570.125 442.625L556.5 441.5V395.875H591.375ZM592.625 394.625H555.25V441.625V442.625L570.25 443.875L592.625 439.5V439.125V394.625Z" fill="#C49F8A"/>
<path d="M555.75 441H570.375L592.25 438.625" stroke="#C49F8A"/>
<path d="M852.125 399.5H849.875V504.25H852.125V399.5Z" fill="#E9E4DC"/>
<path d="M850.5 400.125H851.5V503.625H850.5V400.125ZM849.25 398.875V504.875H852.75V398.875H849.25Z" fill="#C49F8A"/>
<path d="M868.625 399.5H852.125V504.25H868.625V399.5Z" fill="#E9E4DC"/>
<path d="M852.75 400.125H868V503.625H852.75V400.125ZM851.5 398.875V504.875H869.25V398.875H851.5Z" fill="#C49F8A"/>
<path d="M868.75 504.5L852.125 399.125L868.75 504.5Z" fill="#E9E4DC"/>
<path d="M868.75 504.5L852.125 399.125" stroke="#C49F8A"/>
<path d="M656.75 408.375H654.5V454.5H656.75V408.375Z" fill="#E9E4DC"/>
<path d="M656.25 409V453.875H655.25V409H656.25ZM657.5 407.75H654V455.125H657.5V407.75Z" fill="#C49F8A"/>
<path d="M673.375 408.375H656.875V454.5H673.375V408.375Z" fill="#E9E4DC"/>
<path d="M657.5 409H672.75V453.875H657.5V409ZM656.25 407.75V455.125H674V407.75H656.25Z" fill="#C49F8A"/>
<path d="M673.375 455L656.75 407.875L673.375 455Z" fill="#E9E4DC"/>
<path d="M673.375 455L656.75 407.875" stroke="#C49F8A"/>
<path d="M782.25 372.625H718.25V374.875H782.25V372.625Z" fill="#E9E4DC"/>
<path d="M718.875 373.25H781.625V374.25H718.875V373.25ZM717.625 372V375.5H782.875V372H717.625Z" fill="#C49F8A"/>
<path d="M782.25 374.875H718.25V385.25H782.25V374.875Z" fill="#E9E4DC"/>
<path d="M718.875 375.5H781.625V384.625H718.875V375.5ZM717.625 374.25V385.875H782.875V374.25H717.625Z" fill="#C49F8A"/>
<path d="M718.375 385.125L782.5 374.875L718.375 385.125Z" fill="#E9E4DC"/>
<path d="M718.375 385.125L782.5 374.875" stroke="#C49F8A"/>
<path d="M821.625 290.375H800.5V292.625H821.625V290.375Z" fill="#E9E4DC"/>
<path d="M801.125 291H821V292H801.125V291ZM799.875 289.75V293.25H822.25V289.75H799.875Z" fill="#C49F8A"/>
<path d="M821.625 292.75H800.5V306.625H821.625V292.75Z" fill="#E9E4DC"/>
<path d="M801.125 293.375H821V306H801.125V293.375ZM799.875 292.125V307.25H822.25V292.125H799.875Z" fill="#C49F8A"/>
<path d="M800.125 306.25L822.125 293L800.125 306.25Z" fill="#E9E4DC"/>
<path d="M800.125 306.25L822.125 293" stroke="#C49F8A"/>
<path d="M771.875 299H769.625V313.875H771.875V299Z" fill="#E9E4DC"/>
<path d="M771.25 299.625V313.25H770.25V299.625H771.25ZM772.5 298.375H769V314.5H772.5V298.375Z" fill="#C49F8A"/>
<path d="M782.25 299H771.875V313.875H782.25V299Z" fill="#E9E4DC"/>
<path d="M772.5 299.625H781.625V313.25H772.5V299.625ZM771.25 298.375V314.5H782.875V298.375H771.25Z" fill="#C49F8A"/>
<path d="M782 313.75L772.25 299L782 313.75Z" fill="#E9E4DC"/>
<path d="M782 313.75L772.25 299" stroke="#C49F8A"/>
<path d="M681.375 315.75H659.75V366.125H681.375V315.75Z" fill="#E9E4DC"/>
<path d="M680.75 316.375V365.5H660.375V316.375H680.75ZM682 315.125H659.125V366.75H682V315.125Z" fill="#C49F8A"/>
<path d="M670.625 319.875C674.625 319.875 677.625 323.25 677.25 327.125C676.875 331.375 676.5 336.875 676.5 340.875C676.5 344.875 676.875 350.25 677.25 354.625C677.625 358.5 674.5 361.875 670.625 361.875C666.75 361.875 663.625 358.5 664 354.625C664.375 350.375 664.75 344.875 664.75 340.875C664.75 336.875 664.375 331.5 664 327.125C663.625 323.25 666.625 319.875 670.625 319.875Z" fill="#E9E4DC" stroke="#C49F8A" stroke-linejoin="round"/>
<path d="M670.625 327.875C671.246 327.875 671.75 327.371 671.75 326.75C671.75 326.129 671.246 325.625 670.625 325.625C670.004 325.625 669.5 326.129 669.5 326.75C669.5 327.371 670.004 327.875 670.625 327.875Z" fill="#E9E4DC" stroke="#C49F8A" stroke-linejoin="round"/>
<path d="M878.375 259.625H858.25V306.625H878.375V259.625Z" fill="#E9E4DC"/>
<path d="M877.75 260.25V306H858.875V260.25H877.75ZM879 259H857.625V307.25H879V259Z" fill="#C49F8A"/>
<path d="M868.251 302.75C864.5 302.75 861.75 299.625 862 296C862.375 292 862.75 286.875 862.75 283.125C862.75 279.375 862.375 274.375 862 270.25C861.625 266.625 864.625 263.5 868.251 263.5C871.876 263.5 874.751 266.625 874.501 270.25C874.126 274.25 873.751 279.375 873.751 283.125C873.751 286.875 874.126 291.875 874.501 296C874.876 299.5 872.001 302.75 868.251 302.75Z" fill="#E9E4DC" stroke="#C49F8A" stroke-linejoin="round"/>
<path d="M868.25 297.5C868.871 297.5 869.375 296.996 869.375 296.375C869.375 295.754 868.871 295.25 868.25 295.25C867.629 295.25 867.125 295.754 867.125 296.375C867.125 296.996 867.629 297.5 868.25 297.5Z" fill="#E9E4DC" stroke="#C49F8A" stroke-linejoin="round"/>
<path d="M837.5 249.25H825.625V267.125H837.5V249.25Z" fill="#E9E4DC"/>
<path d="M836.875 249.875V266.5H826.25V249.875H836.875ZM838.125 248.625H825V267.75H838.125V248.625Z" fill="#C49F8A"/>
<path d="M831.5 261.875C829.5 261.875 827.875 260.25 827.875 258.25C827.875 256.25 829.5 254.625 831.5 254.625C833.5 254.625 835.125 256.25 835.125 258.25C835.125 260.25 833.625 261.875 831.5 261.875Z" fill="#E9E4DC"/>
<path d="M831.5 255.25C833.125 255.25 834.5 256.625 834.5 258.25C834.5 259.875 833.125 261.25 831.5 261.25C829.875 261.25 828.5 259.875 828.5 258.25C828.5 256.625 829.875 255.25 831.5 255.25ZM831.5 254C829.125 254 827.25 255.875 827.25 258.25C827.25 260.625 829.125 262.5 831.5 262.5C833.875 262.5 835.75 260.625 835.75 258.25C835.875 255.875 833.875 254 831.5 254Z" fill="#C49F8A"/>
<path d="M662.375 458.5H643.75V470.375H662.375V458.5Z" fill="#E9E4DC"/>
<path d="M661.75 459.125V469.75H644.375V459.125H661.75ZM663 457.875H643.125V471H663V457.875Z" fill="#C49F8A"/>
<path d="M646.125 464.375C646.125 466.625 647.875 468.375 650.125 468.375H655.875C658.125 468.375 659.875 466.625 659.875 464.375C659.875 462.125 658.125 460.375 655.875 460.375H650.125C648 460.375 646.125 462.25 646.125 464.375Z" fill="#E9E4DC" stroke="#C49F8A"/>
<path d="M653 464.25C653.621 464.25 654.125 463.746 654.125 463.125C654.125 462.504 653.621 462 653 462C652.379 462 651.875 462.504 651.875 463.125C651.875 463.746 652.379 464.25 653 464.25Z" fill="#E9E4DC" stroke="#C49F8A"/>
<path d="M659.75 315.75H641.125V327.625H659.75V315.75Z" fill="#E9E4DC"/>
<path d="M659.125 316.375V327H641.75V316.375H659.125ZM660.375 315.125H640.5V328.25H660.375V315.125Z" fill="#C49F8A"/>
<path d="M643.5 321.625C643.5 323.875 645.25 325.625 647.5 325.625H653.25C655.5 325.625 657.25 323.875 657.25 321.625C657.25 319.375 655.5 317.625 653.25 317.625H647.5C645.375 317.625 643.5 319.5 643.5 321.625Z" fill="#E9E4DC" stroke="#C49F8A"/>
<path d="M650.375 321.375C650.996 321.375 651.5 320.871 651.5 320.25C651.5 319.629 650.996 319.125 650.375 319.125C649.754 319.125 649.25 319.629 649.25 320.25C649.25 320.871 649.754 321.375 650.375 321.375Z" fill="#E9E4DC" stroke="#C49F8A"/>
<path d="M837.5 267.25H825.625V289.125H837.5V267.25Z" fill="#E9E4DC"/>
<path d="M836.875 267.875V288.5H826.25V267.875H836.875ZM838.125 266.625H825V289.75H838.125V266.625Z" fill="#C49F8A"/>
<path d="M831.5 285C833.75 285 835.5 283.25 835.5 281V275.25C835.5 273 833.75 271.25 831.5 271.25C829.25 271.25 827.5 273 827.5 275.25V281C827.5 283.25 829.375 285 831.5 285Z" fill="#E9E4DC" stroke="#C49F8A"/>
<path d="M830.375 279.25C830.996 279.25 831.5 278.746 831.5 278.125C831.5 277.504 830.996 277 830.375 277C829.754 277 829.25 277.504 829.25 278.125C829.25 278.746 829.754 279.25 830.375 279.25Z" fill="#E9E4DC" stroke="#C49F8A"/>
<path d="M626.75 493.125H623.5V504H626.75V493.125Z" fill="#E9E4DC"/>
<path d="M626.125 493.75V503.375H624.125V493.75H626.125ZM627.375 492.5H622.875V504.625H627.375V492.5Z" fill="#C49F8A"/>
<path d="M635.25 503.25C637.875 503.375 640.125 501.375 640.125 498.625C640.125 496 637.875 493.875 635.25 494L626.75 494.625V502.75L635.25 503.25Z" fill="#E9E4DC" stroke="#C49F8A"/>
<path d="M635.125 501.375C636.75 501.5 638.25 500.25 638.25 498.5C638.25 496.875 636.75 495.5 635.125 495.625L630.625 496V500.875L635.125 501.375Z" fill="#E9E4DC" stroke="#C49F8A"/>
<path d="M633.25 499.75C633.871 499.75 634.375 499.246 634.375 498.625C634.375 498.004 633.871 497.5 633.25 497.5C632.629 497.5 632.125 498.004 632.125 498.625C632.125 499.246 632.629 499.75 633.25 499.75Z" fill="#E9E4DC" stroke="#C49F8A"/>
<path d="M828.875 295.625H825.625V306.5H828.875V295.625Z" fill="#E9E4DC"/>
<path d="M828.25 296.25V305.875H826.25V296.25H828.25ZM829.5 295H825V307.125H829.5V295Z" fill="#C49F8A"/>
<path d="M837.5 305.75C840.125 305.875 842.375 303.875 842.375 301.125C842.375 298.5 840.125 296.375 837.5 296.5L829 297.125V305.25L837.5 305.75Z" fill="#E9E4DC" stroke="#C49F8A"/>
<path d="M837.25 304C838.875 304.125 840.375 302.875 840.375 301.125C840.375 299.5 838.875 298.125 837.25 298.25L832.75 298.625V303.5L837.25 304Z" fill="#E9E4DC" stroke="#C49F8A"/>
<path d="M835.5 302.25C836.121 302.25 836.625 301.746 836.625 301.125C836.625 300.504 836.121 300 835.5 300C834.879 300 834.375 300.504 834.375 301.125C834.375 301.746 834.879 302.25 835.5 302.25Z" fill="#E9E4DC" stroke="#C49F8A"/>
<path d="M633.375 315.75H622.5V319H633.375V315.75Z" fill="#E9E4DC"/>
<path d="M632.75 316.375V318.375H623.125V316.375H632.75ZM634 315.125H621.875V319.625H634V315.125Z" fill="#C49F8A"/>
<path d="M623.377 327.625C623.252 330.25 625.252 332.5 628.002 332.5C630.627 332.5 632.752 330.25 632.627 327.625L632.002 319.125H623.877L623.377 327.625Z" fill="#E9E4DC" stroke="#C49F8A"/>
<path d="M625.126 327.375C625.001 329 626.251 330.5 628.001 330.5C629.626 330.5 631.001 329 630.876 327.375L630.501 322.875H625.626L625.126 327.375Z" fill="#E9E4DC" stroke="#C49F8A"/>
<path d="M628 326.625C628.621 326.625 629.125 326.121 629.125 325.5C629.125 324.879 628.621 324.375 628 324.375C627.379 324.375 626.875 324.879 626.875 325.5C626.875 326.121 627.379 326.625 628 326.625Z" fill="#E9E4DC" stroke="#C49F8A"/>
<path d="M869.375 156H866.625V197H869.375V156Z" fill="#E9E4DC"/>
<path d="M868.75 156.625V196.375H867.25V156.625H868.75ZM870 155.375H866V197.625H870V155.375Z" fill="#C49F8A"/>
<path d="M878.25 156H869.375V197H878.25V156Z" fill="#E9E4DC"/>
<path d="M877.75 156.625V196.375H870.125V156.625H877.75ZM879 155.375H868.875V197.625H879V155.375Z" fill="#C49F8A"/>
<path d="M875.375 163.125H872.625V190H875.375V163.125Z" fill="#E9E4DC"/>
<path d="M874.75 163.75V189.375H873.25V163.75H874.75ZM876 162.5H872V190.625H876V162.5Z" fill="#C49F8A"/>
<path d="M876 182.5V170.625L878.25 171.75V181.5L876 182.5Z" fill="#E9E4DC" stroke="#C49F8A"/>
<path d="M612.5 481.125V458.5H635.125V474C635.125 477.875 632 481 628.125 481H612.5V481.125Z" fill="#E9E4DC" stroke="#C49F8A"/>
<path d="M614.75 478.75V460.875H632.625V473.125C632.625 476.25 630.125 478.625 627.125 478.625H614.75V478.75Z" fill="#E9E4DC" stroke="#C49F8A"/>
<path d="M618.25 465.5C618.871 465.5 619.375 464.996 619.375 464.375C619.375 463.754 618.871 463.25 618.25 463.25C617.629 463.25 617.125 463.754 617.125 464.375C617.125 464.996 617.629 465.5 618.25 465.5Z" fill="#E9E4DC" stroke="#C49F8A"/>
<path d="M674.629 252.876C672.754 251.626 670.629 250.501 668.379 249.751C653.254 244.376 636.504 252.251 631.254 267.376C626.129 281.751 633.129 297.626 646.879 303.751L657.629 280.751H674.629V252.876Z" fill="#E9E4DC"/>
<path d="M674.627 252.25C672.752 251 670.752 250 668.502 249.25C653.127 243.75 636.127 251.875 630.627 267.125C625.252 281.75 632.377 298 646.627 304.125L647.127 303.125C633.627 297.125 626.752 281.625 631.752 267.5C637.002 252.75 653.377 245 668.127 250.25C670.502 251.125 672.627 252.25 674.627 253.625V252.25Z" fill="#C49F8A"/>
<path d="M646.251 266.25C646.251 266.25 637.751 273.5 643.001 285" stroke="#C49F8A"/>
<path d="M639.25 284.75L648.875 293.125L644.75 281.125L639.25 284.75Z" fill="#C49F8A"/>
<path d="M646.25 267.875C647.147 267.875 647.875 267.147 647.875 266.25C647.875 265.353 647.147 264.625 646.25 264.625C645.353 264.625 644.625 265.353 644.625 266.25C644.625 267.147 645.353 267.875 646.25 267.875Z" fill="#C49F8A"/>
<path d="M646.25 303.625L658.5 277.125" stroke="#C49F8A" stroke-miterlimit="10"/>
<path d="M634.75 294.25L658.5 277.125" stroke="#C49F8A" stroke-miterlimit="10"/>
<path d="M629.625 281.5L658.5 277.125" stroke="#C49F8A" stroke-miterlimit="10"/>
<path d="M630.625 268.5L658.5 277.125" stroke="#C49F8A" stroke-miterlimit="10"/>
<path d="M637 257.375L658.5 277.125" stroke="#C49F8A" stroke-miterlimit="10"/>
<path d="M649.5 249.625L658.5 277.5" stroke="#C49F8A" stroke-miterlimit="10"/>
<path d="M663.25 248.625L658.5 277.5" stroke="#C49F8A" stroke-miterlimit="10"/>
<path d="M675.25 253.625L658.5 277.5" stroke="#C49F8A" stroke-miterlimit="10"/>
<path d="M675.5 268.5L658.5 277.125" stroke="#C49F8A" stroke-miterlimit="10"/>
<path d="M674.625 276.875L658.5 277.125" stroke="#C49F8A" stroke-miterlimit="10"/>
<path d="M659.502 274.5C661.002 275 661.752 276.625 661.252 278.125C660.752 279.625 659.127 280.375 657.627 279.875C656.127 279.375 655.377 277.75 655.877 276.25C656.377 274.75 658.002 274 659.502 274.5Z" fill="#E9E4DC"/>
<path d="M657.751 279.25C656.626 278.875 656.001 277.5 656.376 276.375C656.751 275.25 658.126 274.625 659.251 275C660.376 275.375 661.001 276.75 660.626 277.875C660.251 279.125 658.876 279.75 657.751 279.25ZM657.376 280.375C659.251 281 661.126 280.125 661.751 278.25C662.376 276.375 661.501 274.5 659.626 273.875C657.751 273.25 655.876 274.125 655.251 276C654.626 277.75 655.501 279.75 657.376 280.375Z" fill="#C49F8A"/>
<path d="M826.625 216.125L829 214.125H830V222.5H828.75V215.875L827.25 217L826.625 216.125Z" fill="#565440"/>
<path d="M834.875 217.125C835.625 217.125 836.25 217.375 836.75 217.875C837.25 218.375 837.5 219 837.5 219.75C837.5 220.5 837.25 221.25 836.625 221.75C836.125 222.25 835.375 222.5 834.5 222.5C833.5 222.5 832.75 222.125 832.25 221.375C831.75 220.625 831.5 219.625 831.5 218.5C831.5 217.75 831.625 217 831.875 216.25C832.125 215.625 832.5 215 833 214.625C833.5 214.125 834.25 214 835 214C835.875 214 836.625 214.25 837.125 214.75L836.625 215.75C836.125 215.375 835.625 215.25 835.125 215.25C834.625 215.25 834.25 215.375 833.875 215.75C833.25 216.375 832.875 217.25 832.875 218.375C833 218 833.375 217.75 833.75 217.5C834.125 217.25 834.375 217.125 834.875 217.125ZM834.625 221.375C835.125 221.375 835.5 221.25 835.75 220.875C836 220.5 836.25 220.125 836.25 219.75C836.25 219.25 836.125 218.875 835.75 218.625C835.5 218.375 835.125 218.125 834.625 218.125C834.125 218.125 833.75 218.25 833.5 218.625C833.25 218.875 833 219.375 833 219.75C833 220.25 833.125 220.625 833.5 220.875C833.875 221.25 834.25 221.375 834.625 221.375Z" fill="#565440"/>
<path d="M839.375 222.625C839.125 222.625 839 222.5 838.75 222.375C838.5 222.25 838.5 222 838.5 221.75C838.5 221.5 838.625 221.375 838.75 221.25C838.875 221.125 839.125 221 839.375 221C839.625 221 839.75 221.125 839.875 221.25C840 221.375 840.125 221.625 840.125 221.75C840.125 222 840 222.125 839.875 222.375C839.75 222.625 839.5 222.625 839.375 222.625Z" fill="#565440"/>
<path d="M840.125 216.125L842.5 214.125H843.5V222.5H842.25V215.875L840.75 217L840.125 216.125Z" fill="#565440"/>
<path d="M724.625 341L727 339H728V347.375H726.75V340.75L725.25 341.875L724.625 341Z" fill="#565440"/>
<path d="M734.375 344.125H735.25V345.25H734.375V347.25H733.125V345.25H729.375L729.125 344.5L733.625 339H734.5V344.125H734.375ZM733.25 341.125L730.75 344.125H733.25V341.125Z" fill="#565440"/>
<path d="M737.125 347.5C736.875 347.5 736.75 347.375 736.5 347.25C736.375 347.125 736.25 346.875 736.25 346.625C736.25 346.375 736.375 346.25 736.5 346.125C736.625 346 736.875 345.875 737.125 345.875C737.375 345.875 737.5 346 737.625 346.125C737.75 346.25 737.875 346.5 737.875 346.625C737.875 346.875 737.75 347 737.625 347.25C737.5 347.375 737.375 347.5 737.125 347.5Z" fill="#565440"/>
<path d="M738.5 340.125V339H743.75V339.875L740.625 347.375H739.25L742.375 340.25H738.5V340.125Z" fill="#565440"/>
<path d="M638.875 346.75H639.75V347.875H638.875V349.875H637.625V347.875H633.875L633.625 347.125L638.125 341.625H639V346.75H638.875ZM637.625 343.75L635.125 346.75H637.625V343.75Z" fill="#565440"/>
<path d="M562.5 367.5L564.875 365.5H565.875V373.875H564.625V367.25L563.125 368.375L562.5 367.5Z" fill="#565440"/>
<path d="M570.125 368.5C570.875 368.5 571.625 368.75 572.125 369.25C572.625 369.75 572.875 370.375 572.875 371.25C572.875 372.125 572.625 372.75 572 373.25C571.5 373.75 570.75 374 569.875 374C568.875 374 568 373.625 567.125 373L567.75 372C568.5 372.5 569.125 372.75 569.875 372.75C570.375 372.75 570.75 372.625 571.125 372.25C571.5 372 571.625 371.625 571.625 371.125C571.625 370.625 571.5 370.25 571.125 370C570.875 369.75 570.375 369.5 569.875 369.5C569.25 369.5 568.75 369.75 568.375 370.125L567.625 369.625L568.125 365.5H572.375V366.625H569.125L568.875 368.625C569.25 368.5 569.625 368.5 570.125 368.5Z" fill="#565440"/>
<path d="M574.75 374C574.5 374 574.375 373.875 574.125 373.75C574 373.625 573.875 373.375 573.875 373.125C573.875 372.875 574 372.75 574.125 372.625C574.25 372.5 574.5 372.375 574.75 372.375C575 372.375 575.125 372.5 575.25 372.625C575.375 372.75 575.5 373 575.5 373.125C575.5 373.375 575.375 373.5 575.25 373.75C575.125 374 574.875 374 574.75 374Z" fill="#565440"/>
<path d="M579.125 374C578.25 374 577.375 373.75 576.5 373.125L577.125 372.125C577.875 372.625 578.5 372.75 579.125 372.75C579.625 372.75 580 372.625 580.25 372.375C580.5 372.125 580.625 371.875 580.625 371.375C580.625 371 580.5 370.625 580.125 370.375C579.875 370.125 579.5 370 579 370H578V368.875H579C579.375 368.875 579.75 368.75 580 368.5C580.25 368.25 580.375 368 580.375 367.625C580.375 367.25 580.25 367 580 366.75C579.75 366.5 579.375 366.375 579 366.375C578.5 366.375 577.875 366.625 577.25 367.125L576.625 366.25C576.875 366 577.375 365.75 577.75 365.5C578.25 365.375 578.625 365.25 579.125 365.25C579.875 365.25 580.5 365.5 581 365.875C581.5 366.25 581.75 366.875 581.75 367.375C581.75 367.875 581.625 368.25 581.375 368.5C581.125 368.875 580.75 369.125 580.375 369.25C580.875 369.375 581.25 369.625 581.625 370C581.875 370.375 582 370.75 582 371.375C582 372.125 581.75 372.625 581.25 373.125C580.625 373.75 580 374 579.125 374Z" fill="#565440"/>
<path d="M635.875 428.125C636.625 428.125 637.375 428.375 637.875 428.875C638.375 429.375 638.625 430 638.625 430.875C638.625 431.75 638.375 432.375 637.75 432.875C637.25 433.375 636.5 433.625 635.625 433.625C634.625 433.625 633.75 433.25 632.875 432.625L633.5 431.625C634.25 432.125 634.875 432.375 635.625 432.375C636.125 432.375 636.5 432.25 636.875 431.875C637.25 431.625 637.375 431.25 637.375 430.75C637.375 430.25 637.25 429.875 636.875 429.625C636.625 429.375 636.125 429.125 635.625 429.125C635 429.125 634.5 429.375 634.125 429.75L633.375 429.25L633.875 425.125H638.125V426.25H634.875L634.625 428.25C635 428.125 635.5 428.125 635.875 428.125Z" fill="#565440"/>
<path d="M652 487.625H652.875V488.75H652V490.75H650.75V488.75H647L646.75 488L651.25 482.5H652.125V487.625H652ZM650.75 484.625L648.25 487.625H650.75V484.625Z" fill="#565440"/>
<path d="M738.625 471.75L736.625 474H740V475.25H734.75V474.125L737.375 471.25L738 470.5C738.125 470.375 738.25 470.125 738.375 469.875C738.5 469.625 738.5 469.375 738.5 469.125C738.5 468.75 738.375 468.5 738.125 468.25C737.875 468 737.5 467.875 737.125 467.875C736.5 467.875 735.875 468.125 735.125 468.75L734.375 467.875C735.25 467.125 736.125 466.625 737.125 466.625C737.875 466.625 738.5 466.875 739 467.375C739.5 467.875 739.75 468.5 739.75 469.125C739.875 470 739.375 470.75 738.625 471.75Z" fill="#565440"/>
<path d="M740.5 468.875L742.875 466.875H743.875V475.25H742.625V468.625L741.125 469.75L740.5 468.875Z" fill="#565440"/>
<path d="M746.25 475.375C746 475.375 745.875 475.25 745.625 475.125C745.5 475 745.375 474.75 745.375 474.5C745.375 474.25 745.5 474.125 745.625 474C745.75 473.875 746 473.75 746.25 473.75C746.5 473.75 746.625 473.875 746.75 474C746.875 474.125 747 474.375 747 474.5C747 474.75 746.875 474.875 746.75 475.125C746.75 475.25 746.5 475.375 746.25 475.375Z" fill="#565440"/>
<path d="M747.125 468.875L749.5 466.875H750.5V475.25H749.25V468.625L747.75 469.75L747.125 468.875Z" fill="#565440"/>
<path d="M832.625 446.375H833.5V447.5H832.625V449.5H831.375V447.5H827.625L827.375 446.75L831.875 441.25H832.75V446.375H832.625ZM831.5 443.375L829 446.375H831.5V443.375Z" fill="#565440"/>
</g>
<defs>
<clipPath id="clip0">
<rect width="900" height="600" fill="white"/>
</clipPath>
</defs>
</svg>
