<?xml version="1.0" encoding="utf-8"?>
<!-- Generator: Adobe Illustrator 25.0.0, SVG Export Plug-In . SVG Version: 6.00 Build 0)  -->
<svg version="1.1" id="_x31__x5F_2" xmlns="http://www.w3.org/2000/svg" xmlns:xlink="http://www.w3.org/1999/xlink" x="0px"
	 y="0px" viewBox="0 0 720 480" style="enable-background:new 0 0 720 480;" xml:space="preserve">
<style type="text/css">
	.st0{fill:#DBD4CA;}
	.st1{clip-path:url(#SVGID_2_);}
	.st2{fill:none;stroke:#C49F8A;stroke-miterlimit:10;}
	.st3{opacity:0.3;clip-path:url(#SVGID_4_);}
	.st4{opacity:0.7;fill:#C49F8A;enable-background:new    ;}
	.st5{clip-path:url(#SVGID_6_);}
	.st6{opacity:0.3;clip-path:url(#SVGID_8_);}
	.st7{fill:none;stroke:#565440;}
	.st8{fill:none;stroke:#565440;stroke-width:1.000041;stroke-miterlimit:4.000165;}
	.st9{fill:#565440;}
	.st10{fill:#E9E4DC;}
	.st11{fill:#C49F8A;}
	.st12{fill:#E9E4DC;stroke:#C49F8A;}
	.st13{fill:#E9E4DC;stroke:#C49F8A;stroke-miterlimit:3.9998;}
	.st14{fill:none;stroke:#C49F8A;}
	.st15{fill:#E9E4DC;stroke:#C49F8A;stroke-linejoin:round;}
	.st16{opacity:0;}
	.st17{fill:none;}
</style>
<path id="Floor" class="st0" d="M234.800003,407.200012V221h63.999985V60.299999h174.5v7.799999L480.899994,70l-11.299988,44.5
	v27.199997l11,2.800003l-10.55896,40.107712l1.05896,37.692291l8.715149,3.877213l-9.107422,35.049957l-0.807739,30.872833h4
	l6.402313,3.011353l-9.602325,38.488647v33.200012h3.299988l5.775543,1.833496l-9.775543,44.26651l-46.564392-9.360138
	l-26.835602,0.360138v5.899994l-1.200012,5.100006l-58.600006-13.399994h-31.899994v4.700012l-1.700012,6.700012
	l-49.600006-11.100006c0,0,0.199997,5.100006,0,5.100006C253.399994,406.899994,234.800003,407.200012,234.800003,407.200012z"/>
<g id="Wet_Floor">
	<g id="Wet_Floor_1_">
		<g>
			<defs>
				<rect id="SVGID_1_" x="242.055222" y="224.072754" width="111.567886" height="58.643066"/>
			</defs>
			<clipPath id="SVGID_2_">
				<use xlink:href="#SVGID_1_"  style="overflow:visible;"/>
			</clipPath>
			<g class="st1">
				<g>
					<line class="st2" x1="42.210926" y1="221.742828" x2="375.694122" y2="-111.740372"/>
					<line class="st2" x1="31.789577" y1="211.321472" x2="365.272766" y2="-122.16172"/>
					<line class="st2" x1="52.632275" y1="232.164169" x2="386.115479" y2="-101.319023"/>
					<line class="st2" x1="63.053623" y1="242.585526" x2="396.536835" y2="-90.897675"/>
					<line class="st2" x1="73.474968" y1="253.006866" x2="406.95816" y2="-80.476326"/>
					<line class="st2" x1="83.896317" y1="263.428223" x2="417.379517" y2="-70.054977"/>
					<line class="st2" x1="94.317665" y1="273.849579" x2="427.800873" y2="-59.633629"/>
					<line class="st2" x1="104.739014" y1="284.270905" x2="438.222229" y2="-49.21228"/>
					<line class="st2" x1="115.160362" y1="294.692261" x2="448.643555" y2="-38.790932"/>
					<line class="st2" x1="125.581711" y1="305.113617" x2="459.064911" y2="-28.369585"/>
					<line class="st2" x1="115.160362" y1="294.692261" x2="448.643555" y2="-38.790932"/>
					<line class="st2" x1="136.003067" y1="315.534973" x2="469.486267" y2="-17.948236"/>
					<line class="st2" x1="146.424408" y1="325.956299" x2="479.907593" y2="-7.526888"/>
					<line class="st2" x1="156.845764" y1="336.377655" x2="490.328949" y2="2.894461"/>
					<line class="st2" x1="167.267105" y1="346.799011" x2="500.750305" y2="13.315809"/>
					<line class="st2" x1="177.688461" y1="357.220367" x2="511.171661" y2="23.737158"/>
					<line class="st2" x1="188.109802" y1="367.641693" x2="521.593018" y2="34.158504"/>
					<line class="st2" x1="198.531158" y1="378.063049" x2="532.014343" y2="44.579853"/>
					<line class="st2" x1="208.952499" y1="388.484406" x2="542.435669" y2="55.001202"/>
					<line class="st2" x1="198.531158" y1="378.063049" x2="532.014343" y2="44.579853"/>
					<line class="st2" x1="219.373856" y1="398.905762" x2="552.857056" y2="65.422554"/>
					<line class="st2" x1="229.795197" y1="409.327087" x2="563.278381" y2="75.843903"/>
					<line class="st2" x1="240.216553" y1="419.748444" x2="573.699768" y2="86.265251"/>
					<line class="st2" x1="250.637894" y1="430.1698" x2="584.121094" y2="96.6866"/>
					<line class="st2" x1="261.059235" y1="440.591156" x2="594.542419" y2="107.107941"/>
					<line class="st2" x1="271.480591" y1="451.012482" x2="604.963806" y2="117.529289"/>
					<line class="st2" x1="281.901947" y1="461.433838" x2="615.385132" y2="127.950638"/>
					<line class="st2" x1="292.323273" y1="471.855194" x2="625.806458" y2="138.371994"/>
					<line class="st2" x1="281.901947" y1="461.433838" x2="615.385132" y2="127.950638"/>
					<line class="st2" x1="302.744629" y1="482.27655" x2="636.227844" y2="148.793335"/>
					<line class="st2" x1="313.165985" y1="492.697876" x2="646.64917" y2="159.214691"/>
					<line class="st2" x1="323.587341" y1="503.119232" x2="657.070557" y2="169.636032"/>
					<line class="st2" x1="334.008667" y1="513.540588" x2="667.491882" y2="180.057388"/>
					<line class="st2" x1="344.430023" y1="523.961914" x2="677.913208" y2="190.478729"/>
					<line class="st2" x1="354.851379" y1="534.383301" x2="688.334595" y2="200.900085"/>
					<line class="st2" x1="365.272736" y1="544.804626" x2="698.75592" y2="211.321426"/>
				</g>
				<g>
					<line class="st2" x1="375.694031" y1="534.383118" x2="42.210968" y2="200.90007"/>
					<line class="st2" x1="365.272675" y1="544.804443" x2="31.789619" y2="211.321426"/>
					<line class="st2" x1="386.115356" y1="523.961792" x2="52.632317" y2="190.478729"/>
					<line class="st2" x1="396.536713" y1="513.540405" x2="63.053665" y2="180.057373"/>
					<line class="st2" x1="406.958069" y1="503.11908" x2="73.475014" y2="169.636032"/>
					<line class="st2" x1="417.379425" y1="492.697723" x2="83.896362" y2="159.214676"/>
					<line class="st2" x1="427.800751" y1="482.276398" x2="94.317711" y2="148.793335"/>
					<line class="st2" x1="438.222107" y1="471.855042" x2="104.739059" y2="138.371979"/>
					<line class="st2" x1="448.643463" y1="461.433685" x2="115.160408" y2="127.95063"/>
					<line class="st2" x1="459.064819" y1="451.012329" x2="125.581757" y2="117.529282"/>
					<line class="st2" x1="448.643463" y1="461.433685" x2="115.160408" y2="127.95063"/>
					<line class="st2" x1="469.486145" y1="440.591003" x2="136.003098" y2="107.107941"/>
					<line class="st2" x1="479.907501" y1="430.169647" x2="146.424454" y2="96.686592"/>
					<line class="st2" x1="490.328857" y1="419.748291" x2="156.845795" y2="86.265244"/>
					<line class="st2" x1="500.750214" y1="409.326935" x2="167.267151" y2="75.843895"/>
					<line class="st2" x1="511.171539" y1="398.905609" x2="177.688492" y2="65.422546"/>
					<line class="st2" x1="521.592896" y1="388.484253" x2="188.109848" y2="55.001194"/>
					<line class="st2" x1="532.014221" y1="378.062897" x2="198.531189" y2="44.579845"/>
					<line class="st2" x1="542.435608" y1="367.641541" x2="208.952545" y2="34.158497"/>
					<line class="st2" x1="532.014221" y1="378.062897" x2="198.531189" y2="44.579845"/>
					<line class="st2" x1="552.856934" y1="357.220215" x2="219.373886" y2="23.73715"/>
					<line class="st2" x1="563.27832" y1="346.798859" x2="229.795242" y2="13.315802"/>
					<line class="st2" x1="573.699646" y1="336.377502" x2="240.216583" y2="2.894453"/>
					<line class="st2" x1="584.120972" y1="325.956146" x2="250.637939" y2="-7.526895"/>
					<line class="st2" x1="594.542358" y1="315.534821" x2="261.059296" y2="-17.948244"/>
					<line class="st2" x1="604.963684" y1="305.113464" x2="271.480621" y2="-28.369593"/>
					<line class="st2" x1="615.38501" y1="294.692108" x2="281.901978" y2="-38.790939"/>
					<line class="st2" x1="625.806396" y1="284.270752" x2="292.323334" y2="-49.212288"/>
					<line class="st2" x1="615.38501" y1="294.692108" x2="281.901978" y2="-38.790939"/>
					<line class="st2" x1="636.227722" y1="273.849426" x2="302.74469" y2="-59.633636"/>
					<line class="st2" x1="646.649109" y1="263.42807" x2="313.166016" y2="-70.054985"/>
					<line class="st2" x1="657.070435" y1="253.006714" x2="323.587372" y2="-80.476334"/>
					<line class="st2" x1="667.49176" y1="242.585373" x2="334.008728" y2="-90.897682"/>
					<line class="st2" x1="677.913147" y1="232.164017" x2="344.430084" y2="-101.319031"/>
					<line class="st2" x1="688.334473" y1="221.742676" x2="354.85141" y2="-111.740379"/>
					<line class="st2" x1="698.755798" y1="211.32132" x2="365.272766" y2="-122.161728"/>
				</g>
			</g>
		</g>
		<g>
			<defs>
				<rect id="SVGID_3_" x="242.055222" y="224.072754" width="111.567886" height="58.643066"/>
			</defs>
			<clipPath id="SVGID_4_">
				<use xlink:href="#SVGID_3_"  style="overflow:visible;"/>
			</clipPath>
			<g class="st3">
				<rect x="204.193253" y="39.82056" class="st4" width="322.158936" height="322.158936"/>
			</g>
		</g>
	</g>
	<g id="Wet_Floor_2_">
		<g>
			<defs>
				<rect id="SVGID_5_" x="302.018402" y="65.957054" width="51.608124" height="53.663734"/>
			</defs>
			<clipPath id="SVGID_6_">
				<use xlink:href="#SVGID_5_"  style="overflow:visible;"/>
			</clipPath>
			<g class="st5">
				<g>
					<line class="st2" x1="67.971771" y1="60.056683" x2="401.454956" y2="-273.426514"/>
					<line class="st2" x1="57.550423" y1="49.635334" x2="391.03363" y2="-283.84787"/>
					<line class="st2" x1="78.39312" y1="70.478035" x2="411.876312" y2="-263.005157"/>
					<line class="st2" x1="88.814468" y1="80.899384" x2="422.297668" y2="-252.583817"/>
					<line class="st2" x1="99.235817" y1="91.320732" x2="432.719025" y2="-242.162476"/>
					<line class="st2" x1="109.657166" y1="101.742081" x2="443.14035" y2="-231.741119"/>
					<line class="st2" x1="120.078514" y1="112.163429" x2="453.561707" y2="-221.319778"/>
					<line class="st2" x1="130.499863" y1="122.584778" x2="463.983063" y2="-210.898422"/>
					<line class="st2" x1="140.921204" y1="133.006119" x2="474.404419" y2="-200.477081"/>
					<line class="st2" x1="151.34256" y1="143.427475" x2="484.825745" y2="-190.055725"/>
					<line class="st2" x1="140.921204" y1="133.006119" x2="474.404419" y2="-200.477081"/>
					<line class="st2" x1="161.763901" y1="153.848816" x2="495.247101" y2="-179.634384"/>
					<line class="st2" x1="172.185257" y1="164.270172" x2="505.668457" y2="-169.213028"/>
					<line class="st2" x1="182.606598" y1="174.691513" x2="516.089783" y2="-158.791687"/>
					<line class="st2" x1="193.027954" y1="185.112869" x2="526.511169" y2="-148.370331"/>
					<line class="st2" x1="203.449295" y1="195.53421" x2="536.932495" y2="-137.94899"/>
					<line class="st2" x1="213.870651" y1="205.955566" x2="547.353821" y2="-127.527634"/>
					<line class="st2" x1="224.291992" y1="216.376907" x2="557.775208" y2="-117.106285"/>
					<line class="st2" x1="234.713348" y1="226.798264" x2="568.196533" y2="-106.684937"/>
					<line class="st2" x1="224.291992" y1="216.376907" x2="557.775208" y2="-117.106285"/>
					<line class="st2" x1="245.134689" y1="237.219604" x2="578.61792" y2="-96.263588"/>
					<line class="st2" x1="255.556046" y1="247.640961" x2="589.039246" y2="-85.842239"/>
					<line class="st2" x1="265.977386" y1="258.062317" x2="599.460571" y2="-75.420898"/>
					<line class="st2" x1="276.398743" y1="268.483643" x2="609.881958" y2="-64.99955"/>
					<line class="st2" x1="286.820099" y1="278.904999" x2="620.303284" y2="-54.578197"/>
					<line class="st2" x1="297.241425" y1="289.326355" x2="630.724609" y2="-44.156849"/>
					<line class="st2" x1="307.662781" y1="299.747711" x2="641.145996" y2="-33.7355"/>
					<line class="st2" x1="318.084137" y1="310.169037" x2="651.567322" y2="-23.314154"/>
					<line class="st2" x1="307.662781" y1="299.747711" x2="641.145996" y2="-33.7355"/>
					<line class="st2" x1="328.505493" y1="320.590393" x2="661.988708" y2="-12.892804"/>
					<line class="st2" x1="338.926819" y1="331.011749" x2="672.410034" y2="-2.471456"/>
					<line class="st2" x1="349.348175" y1="341.433075" x2="682.83136" y2="7.949892"/>
					<line class="st2" x1="359.769531" y1="351.854431" x2="693.252747" y2="18.371241"/>
					<line class="st2" x1="370.190887" y1="362.275787" x2="703.674072" y2="28.792589"/>
					<line class="st2" x1="380.612213" y1="372.697144" x2="714.095398" y2="39.213936"/>
					<line class="st2" x1="391.033569" y1="383.118469" x2="724.516785" y2="49.635284"/>
				</g>
				<g>
					<line class="st2" x1="401.454865" y1="372.696991" x2="67.971817" y2="39.213928"/>
					<line class="st2" x1="391.033508" y1="383.118317" x2="57.550465" y2="49.635277"/>
					<line class="st2" x1="411.876221" y1="362.275635" x2="78.393166" y2="28.792582"/>
					<line class="st2" x1="422.297577" y1="351.854279" x2="88.814507" y2="18.371233"/>
					<line class="st2" x1="432.718903" y1="341.432922" x2="99.235855" y2="7.949885"/>
					<line class="st2" x1="443.140259" y1="331.011597" x2="109.657204" y2="-2.471463"/>
					<line class="st2" x1="453.561615" y1="320.59024" x2="120.078552" y2="-12.892812"/>
					<line class="st2" x1="463.982941" y1="310.168884" x2="130.499908" y2="-23.314159"/>
					<line class="st2" x1="474.404297" y1="299.747559" x2="140.921249" y2="-33.735508"/>
					<line class="st2" x1="484.825653" y1="289.326202" x2="151.342606" y2="-44.156857"/>
					<line class="st2" x1="474.404297" y1="299.747559" x2="140.921249" y2="-33.735508"/>
					<line class="st2" x1="495.247009" y1="278.904846" x2="161.763947" y2="-54.578205"/>
					<line class="st2" x1="505.668335" y1="268.48349" x2="172.185303" y2="-64.999557"/>
					<line class="st2" x1="516.089722" y1="258.062164" x2="182.606644" y2="-75.420898"/>
					<line class="st2" x1="526.511047" y1="247.640808" x2="193.028" y2="-85.842247"/>
					<line class="st2" x1="536.932373" y1="237.219452" x2="203.449341" y2="-96.263596"/>
					<line class="st2" x1="547.35376" y1="226.798111" x2="213.870697" y2="-106.684944"/>
					<line class="st2" x1="557.775085" y1="216.376755" x2="224.292038" y2="-117.106293"/>
					<line class="st2" x1="568.196411" y1="205.955414" x2="234.713394" y2="-127.527641"/>
					<line class="st2" x1="557.775085" y1="216.376755" x2="224.292038" y2="-117.106293"/>
					<line class="st2" x1="578.617798" y1="195.534058" x2="245.134735" y2="-137.94899"/>
					<line class="st2" x1="589.039124" y1="185.112717" x2="255.556091" y2="-148.370346"/>
					<line class="st2" x1="599.46051" y1="174.69136" x2="265.977448" y2="-158.791687"/>
					<line class="st2" x1="609.881836" y1="164.27002" x2="276.398773" y2="-169.213043"/>
					<line class="st2" x1="620.303162" y1="153.848663" x2="286.820129" y2="-179.634384"/>
					<line class="st2" x1="630.724548" y1="143.427322" x2="297.241486" y2="-190.05574"/>
					<line class="st2" x1="641.145874" y1="133.005966" x2="307.662811" y2="-200.477081"/>
					<line class="st2" x1="651.5672" y1="122.584618" x2="318.084167" y2="-210.898438"/>
					<line class="st2" x1="641.145874" y1="133.005966" x2="307.662811" y2="-200.477081"/>
					<line class="st2" x1="661.988586" y1="112.163269" x2="328.505524" y2="-221.319778"/>
					<line class="st2" x1="672.409912" y1="101.74192" x2="338.92688" y2="-231.741135"/>
					<line class="st2" x1="682.831299" y1="91.32058" x2="349.348206" y2="-242.162476"/>
					<line class="st2" x1="693.252625" y1="80.899231" x2="359.769562" y2="-252.583832"/>
					<line class="st2" x1="703.67395" y1="70.477882" x2="370.190918" y2="-263.005188"/>
					<line class="st2" x1="714.095337" y1="60.05653" x2="380.612274" y2="-273.426514"/>
					<line class="st2" x1="724.516663" y1="49.635181" x2="391.0336" y2="-283.84787"/>
				</g>
			</g>
		</g>
		<g>
			<defs>
				<rect id="SVGID_7_" x="302.018402" y="65.957054" width="51.608124" height="53.663734"/>
			</defs>
			<clipPath id="SVGID_8_">
				<use xlink:href="#SVGID_7_"  style="overflow:visible;"/>
			</clipPath>
			<g class="st6">
				<rect x="229.954102" y="-121.865578" class="st4" width="322.158936" height="322.158936"/>
			</g>
		</g>
	</g>
</g>
<g id="Doors">
	<path class="st7" d="M343.343781,329.543243c0,2.741272-0.456818,4.796967-1.370605,7.08136
		c-0.913818,2.28418-2.284485,4.568451-4.111664,6.167542c-1.599091,1.827393-3.883362,3.4263-6.167542,4.340149
		c-2.28418,0.913605-4.796936,1.370605-7.538147,1.370605v-19.187714"/>
	<path class="st7" d="M380.120483,324.746307c2.741241,0,4.796936-0.456787,7.309631-1.370605
		c2.512695-0.913574,4.568451-2.512695,6.395844-4.111633c1.827393-1.599121,3.42627-3.883362,4.340149-6.395844
		c0.913788-2.512695,1.370605-4.796967,1.370605-7.537933h-19.416229"/>
	<path class="st7" d="M380.120483,251.421249c2.741241,0,4.796936-0.456787,7.309631-1.37059
		c2.512695-0.913589,4.568451-2.512695,6.395844-4.111649c1.827393-1.598969,3.42627-3.883087,4.340149-6.395844
		c0.913788-2.512695,1.370605-4.796951,1.370605-7.537933h-19.416229"/>
	<path class="st7" d="M318.445282,322.005035c-2.741272,0-4.796936-0.457001-7.309631-1.370575
		c-2.512695-0.913818-4.568451-2.512695-6.395844-4.111664c-1.827393-1.599091-3.42627-3.883362-4.340149-6.395844
		c-0.913818-2.512695-1.370605-4.796936-1.370605-7.538147h19.416229"/>
	<path class="st7" d="M351.338715,254.619324c-2.512695,0-4.796967,0.456787-7.081146,1.37059s-4.568665,2.284195-6.167542,4.111649
		c-1.827393,1.599091-3.4263,3.883362-4.340149,6.167542c-0.913818,2.28421-1.370605,4.796967-1.370605,7.309662h18.959442"/>
	<path class="st7" d="M266.135651,283.85788c0,2.28418,0.457001,4.568665,1.370575,6.624329
		c0.913818,2.055908,2.055908,4.340179,3.883362,5.939056c1.599091,1.599091,3.654846,2.969482,5.710754,3.883362
		c2.055908,0.913788,4.568451,1.370605,6.852844,1.370605V283.85788"/>
	<path class="st7" d="M329.866516,117.335312c0-2.512726,0.456787-4.340118,1.370575-6.624344
		c0.913818-2.284218,2.284485-4.11161,3.654877-5.710747c1.599091-1.827431,3.42627-3.198029,5.710754-3.883324
		c2.28418-0.913589,4.340149-1.370636,6.852844-1.370636v17.588806"/>
	<path class="st7" d="M298.800751,132.868225c-3.198059,0-6.395813,0.685287-9.365601,2.055923
		c-2.969482,1.370636-5.939026,2.969528-8.22345,5.482254c-2.28418,2.284225-4.340149,5.025452-5.482239,7.994965
		c-1.370605,2.969528-2.055878,6.396057-2.055878,9.593872h25.126953"/>
	<path class="st7" d="M351.338715,192.944061c-2.28421,0-4.340149,0.456802-6.624359,1.37059
		c-2.055878,0.913605-4.340149,2.055908-5.710754,3.883362c-1.599091,1.598892-2.969482,3.426285-3.883362,5.710541
		c-0.913574,2.055893-1.370575,4.340164-1.370575,6.624344h17.588837"/>
</g>
<g id="Windows">
	<path class="st7" d="M264.536743,404.010345l35.634399,8.223206l-0.685303,3.4263l-35.634399-8.22345L264.536743,404.010345z"/>
	<path class="st7" d="M336.719421,401.269135l57.791901,13.248688l-0.685303,3.42627l-57.791901-13.248657L336.719421,401.269135z"
		/>
	<polygon class="st7" points="482.684082,371.5737 479.257599,370.888397 469.892212,412.690369 414.841339,401.725922 
		414.384552,405.152435 472.63324,416.802216 472.861755,415.203125 	"/>
	
		<rect x="456.302246" y="163.421204" transform="matrix(0.25149 -0.96786 0.96786 0.25149 197.116913 585.145691)" class="st8" width="41.134003" height="3.421616"/>
	
		<rect x="456.308929" y="313.390167" transform="matrix(0.25149 -0.96786 0.96786 0.25149 51.972839 697.405396)" class="st8" width="41.133728" height="3.421661"/>
	
		<rect x="456.305237" y="242.594925" transform="matrix(0.25149 -0.96786 0.96786 0.25149 120.490051 644.41095)" class="st8" width="41.134003" height="3.421646"/>
	
		<rect x="458.607727" y="89.997337" transform="matrix(0.25149 -0.96786 0.96786 0.25149 268.538727 530.64978)" class="st8" width="37.479004" height="3.421616"/>
</g>
<g id="Walls">
	<polygon class="st9" points="320.272888,329.771484 324.241577,329.771484 324.241577,327.487305 320.272888,327.487305 
		320.272888,322.005066 317.988464,322.005066 317.988464,395.558411 301.084961,395.558411 301.084961,404.92395 
		298.572266,416.116699 305.196594,417.71582 307.093872,409.264099 337.63324,409.264099 337.63324,395.558411 
		320.272888,395.558411 	"/>
	<polygon class="st9" points="397.023987,327.487305 380.120483,327.487305 380.120483,324.746338 377.836304,324.746338 
		377.836304,327.487305 343.34375,327.487305 343.34375,329.771484 394.739807,329.771484 394.739807,409.243408 
		392.683838,418.401123 399.308472,420 401.718384,409.264099 429.003845,409.264099 429.003845,395.558411 397.023987,395.558411 	
		"/>
	<path class="st9" d="M283.953003,282.258972v2.284302h34.035461v18.274048h2.284424v-18.274048h31.065796v13.705444h2.284424
		v-24.669983h-2.284424v8.680237h-56.192749v-47.05896h16.154053v-8.448669h40.038696v27.867981h2.284424v-44.086243h-2.284424
		v13.934021H312.5v-10.367126l-6.846619-0.029419v-25.009583h45.685303v3.883057h2.284424v-3.883057v-2.28418v-32.20813h-2.284424
		v32.20813h-45.685303v-29.010132h-6.8526v62.131836h-63.959473v189.594055h23.560913l5.677734,1.370422l2.512695-11.19281
		l-6.624329-1.598877h-13.705688V284.543274h19.872986v-2.284302h-12.935608V274h-6.937378v-47.248657h46.59906v55.507629
		H283.953003z M250.900024,276.299988v5.958984h-4.63739v-5.958984H250.900024z M310.100037,216.399963v8.067139h-4.446655
		v-8.067139H310.100037z M308.900024,226.751343v6.148621h-13.754089v-6.148621H308.900024z"/>
	<path class="st9" d="M305.653381,119.619507h24.213135v-2.284424h-24.213135V66.852844h36.046631V73h9.638672v44.335083h-3.883118
		v2.284424h6.167542V66.852844h107.330688l-0.002075,5.438354h11.400146l11.192993,2.512451l1.59906-6.624084l-10.50769-2.359131
		L474.621277,60H298.800781v73.096497h6.8526V119.619507z M351.338684,70.700012H344v-3.847168h7.338684V70.700012z"/>
	<polygon class="st9" points="460.949646,219.67041 377.836304,219.67041 377.836304,232.005005 380.120483,232.005005 
		380.120483,226.523071 477.88147,226.519592 483.551208,227.892761 483.552185,227.888367 483.559509,227.890198 
		485.158691,221.265869 478.534363,219.666748 474.691223,219.666748 474.691223,183.124695 474.63623,183.124695 
		474.63623,183.121216 460.951721,183.121216 	"/>
	<polygon class="st9" points="474.63623,332.341919 460.930542,332.341919 460.930542,370.798279 473.369812,370.798279 
		483.544861,373.08252 485.143921,366.457886 474.63623,364.099182 	"/>
	<polygon class="st9" points="474.63623,264.637085 476.006897,258.958984 464.813904,256.445984 463.268127,263.070618 
		463.214722,263.070618 463.214722,300.533142 380.120483,300.533142 380.120483,251.421021 377.836304,251.421021 
		377.836304,305.330078 380.120483,305.330078 380.120483,302.817322 470.067688,302.817322 470.067688,296.286377 
		473.369812,296.286377 483.544861,298.570557 485.143921,291.946228 474.63623,289.58728 	"/>
	<polygon class="st9" points="476.392822,109.384521 465.259399,106.871582 463.203491,115.552063 463.203491,146.563354 
		474.56543,146.563354 474.56543,146.544739 482.789001,148.390747 484.387878,141.766418 474.56543,139.561523 
		474.56543,117.303345 	"/>
</g>
<g id="Furniture_3_">
	<g>
		<g>
			<rect x="380.600006" y="270.165649" class="st10" width="47.899994" height="29.899994"/>
			<path class="st11" d="M381.100006,270.665649H428v28.899994h-46.899994V270.665649 M380.100006,269.665649v30.899994H429
				v-30.899994H380.100006L380.100006,269.665649z"/>
		</g>
		<rect x="383.600006" y="272.265656" class="st12" width="12.100006" height="12.100006"/>
		<rect x="383.600006" y="285.865662" class="st12" width="12.100006" height="12.100006"/>
		<polygon class="st13" points="390.700012,273.765656 387.600006,282.465637 399.299988,284.865662 402.399994,276.065643 		"/>
		<polygon class="st13" points="399.299988,285.465637 387.600006,287.765656 390.799988,296.565643 402.399994,294.165649 		"/>
		<g>
			<polygon class="st10" points="390.799988,300.065643 389.799988,288.265656 393.299988,270.165649 428.899994,270.165649 
				428.899994,300.065643 			"/>
			<path class="st11" d="M428.399994,270.665649v28.899994h-37.200012l-0.899994-11.299988l3.399994-17.600006H428.399994
				 M429.399994,269.665649h-36.299988h-0.299988l-3.600006,18.600006l1,12.399994H391h38.299988v-31H429.399994z"/>
		</g>
		<polyline class="st14" points="391.600006,300.165649 391.600006,288.065643 393.600006,269.965637 		"/>
	</g>
	<g>
		<g>
			<rect x="246.699997" y="350.399994" class="st10" width="43.199997" height="35.899994"/>
			<path class="st11" d="M247.199997,350.899994h42.199997v34.899994h-42.199997V350.899994 M246.199997,349.899994v36.899994
				h44.199997v-36.899994H246.199997L246.199997,349.899994z"/>
		</g>
		<rect x="249.399994" y="353.100006" class="st12" width="10.899994" height="14.399994"/>
		<rect x="249.399994" y="369.299988" class="st12" width="10.899994" height="14.399994"/>
		<polygon class="st13" points="255.899994,354.899994 253,365.299988 263.600006,368.100006 266.399994,357.700012 		"/>
		<polygon class="st13" points="263.600006,368.799988 253,371.600006 255.899994,382 266.399994,379.200012 		"/>
		<g>
			<polygon class="st10" points="256,386.299988 255.100006,372.100006 258.299988,350.5 290.399994,350.5 290.399994,386.299988 
							"/>
			<path class="st11" d="M258.700012,351h31.200012v34.899994h-33.5l-0.899994-13.700012L258.700012,351 M258.100006,350h-0.200012
				l-3.300003,22.100006l0.899994,14.799988h0.699997h34.700012V350H258.100006L258.100006,350z"/>
		</g>
		<polyline class="st14" points="256.600006,386.299988 256.600006,371.899994 258.399994,350.399994 		"/>
	</g>
	<g>
		<g>
			<rect x="359.399994" y="330.200012" class="st10" width="29.899994" height="47.899994"/>
			<path class="st11" d="M388.799988,330.700012v46.899994h-28.899994v-46.899994H388.799988 M389.799988,329.700012h-30.899994
				v48.899994h30.899994V329.700012L389.799988,329.700012z"/>
		</g>
		<rect x="361.5" y="333.200012" class="st12" width="12.100006" height="12.100006"/>
		<rect x="375.100006" y="333.200012" class="st12" width="12.100006" height="12.100006"/>
		<polygon class="st13" points="363,340.299988 371.700012,337.200012 374.100006,348.899994 365.299988,352 		"/>
		<polygon class="st13" points="374.700012,348.899994 377,337.200012 385.799988,340.299988 383.399994,352 		"/>
		<g>
			<polygon class="st10" points="359.399994,378.5 359.399994,342.899994 377.5,339.399994 389.299988,340.399994 389.299988,378.5 
							"/>
			<path class="st11" d="M377.5,339.899994l11.299988,0.899994V378h-28.899994v-34.700012L377.5,339.899994 M377.399994,338.899994
				L358.799988,342.5v0.299988V379h30.899994v-38.299988v-0.799988L377.399994,338.899994L377.399994,338.899994z"/>
		</g>
		<polyline class="st14" points="389.399994,341.200012 377.299988,341.200012 359.200012,343.200012 		"/>
	</g>
	<g>
		<g>
			<rect x="397.5" y="347.182831" class="st10" width="31" height="47.899994"/>
			<path class="st11" d="M428,347.682831v46.899994h-30v-46.899994H428 M429,346.682831h-32v48.899994h32V346.682831L429,346.682831
				z"/>
		</g>
		<rect x="399.700012" y="379.982819" class="st12" width="12.5" height="12.100006"/>
		<rect x="413.799988" y="379.982819" class="st12" width="12.5" height="12.100006"/>
		<polygon class="st13" points="401.299988,384.882812 410.299988,388.082825 412.700012,376.382812 403.700012,373.282837 		"/>
		<polygon class="st13" points="413.399994,376.382812 415.799988,388.082825 424.799988,384.882812 422.399994,373.282837 		"/>
		<g>
			<polygon class="st10" points="397.5,382.382812 397.5,346.682831 428.5,346.682831 428.5,384.882812 416.200012,385.882812 			
				"/>
			<path class="st11" d="M398,347.182831h30v37.200012l-11.700012,0.899994l-18.200012-3.399994v-34.700012 M397,346.182831
				v36.299988v0.299988l19.200012,3.600006l12.799988-1v-0.799988v-38.299988L397,346.182831L397,346.182831z"/>
		</g>
		<polyline class="st14" points="428.600006,384.082825 416.100006,384.082825 397.399994,382.082825 		"/>
	</g>
	<g>
		<g>
			<rect x="250.772751" y="227.251343" class="st10" width="41.599991" height="16.699997"/>
			<path class="st11" d="M291.872742,227.751343v15.699997h-40.600006v-15.699997H291.872742 M292.872742,226.751343h-42.600006
				v17.699997h42.600006V226.751343L292.872742,226.751343z"/>
		</g>
		<g>
			<g>
				<path class="st15" d="M288.972748,235.651352c0-3.300003-2.799988-5.800003-6-5.5
					c-3.600006,0.300003-8,0.600006-11.399994,0.600006c-3.299988,0-7.799988-0.300003-11.399994-0.600006
					c-3.200012-0.300003-6,2.300003-6,5.5s2.799988,5.800003,6,5.5c3.600006-0.300003,8-0.600006,11.399994-0.600006
					c3.299988,0,7.799988,0.300003,11.399994,0.600006C286.17276,241.45134,288.972748,238.851349,288.972748,235.651352z"/>
				<ellipse class="st15" cx="283.272766" cy="235.651352" rx="0.899994" ry="0.899994"/>
			</g>
		</g>
	</g>
	<g>
		<g>
			<rect x="295.600006" y="235.699997" class="st10" width="16" height="40.000015"/>
			<path class="st11" d="M311.100006,236.199997v39.000015h-15v-39h15 M312.100006,235.199997h-17v41.000015h17V235.199997
				L312.100006,235.199997z"/>
		</g>
		<g>
			<g>
				<path class="st15" d="M303.600006,239C300.5,239,298,241.699997,298.300018,244.800003
					c0.299988,3.399994,0.600006,7.699997,0.600006,10.899994s-0.299988,7.500015-0.600006,10.900009
					c-0.299988,3.100006,2.200012,5.799988,5.299988,5.799988s5.600006-2.700012,5.299988-5.799988
					c-0.299988-3.399994-0.600006-7.700012-0.600006-10.899994c0-3.199997,0.299988-7.5,0.600006-10.899994
					C309.200012,241.699997,306.700012,239,303.600006,239z"/>
				<ellipse class="st15" cx="303.600006" cy="244.5" rx="0.899994" ry="0.899994"/>
			</g>
		</g>
	</g>
	<g>
		<g>
			<rect x="306.148315" y="189.561417" class="st10" width="9.399994" height="14.100006"/>
			<path class="st11" d="M315.048309,190.061417v13.100006h-8.399994v-13.100006H315.048309 M316.048309,189.061417h-10.399994
				v15.100006h10.399994V189.061417L316.048309,189.061417z"/>
		</g>
		<g>
			<circle class="st10" cx="310.848297" cy="196.561417" r="2.899994"/>
			<path class="st11" d="M310.848297,194.161423c1.299988,0,2.399994,1.100006,2.399994,2.399994
				c0,1.300003-1.100006,2.399994-2.399994,2.399994s-2.399994-1.100006-2.399994-2.399994
				C308.448303,195.261414,309.548309,194.161423,310.848297,194.161423 M310.848297,193.161423
				c-1.899994,0-3.399994,1.5-3.399994,3.399994s1.5,3.399994,3.399994,3.399994s3.399994-1.5,3.399994-3.399994
				C314.248322,194.761414,312.748322,193.161423,310.848297,193.161423L310.848297,193.161423z"/>
		</g>
	</g>
	<g>
		<path class="st12" d="M385.299988,152.600006h31.799988v23.199997h-31.799988V152.600006z"/>
		<path class="st12" d="M383.200012,157.800003h-0.5c-3.5,0-6.399994,2.899994-6.399994,6.399994
			s2.899994,6.399994,6.399994,6.399994h0.5V157.800003z"/>
		<path class="st12" d="M385.299988,159.300003h-2.399994c-2.700012,0-4.799988,2.199997-4.799988,4.800003
			c0,2.699997,2.200012,4.800003,4.799988,4.800003h2.399994V159.300003z"/>
		<path class="st12" d="M419.200012,157.800003h0.5c3.5,0,6.399994,2.899994,6.399994,6.399994
			s-2.899994,6.399994-6.399994,6.399994h-0.5V157.800003z"/>
		<path class="st12" d="M417.100006,159.300003H419.5c2.700012,0,4.799988,2.199997,4.799988,4.800003
			c0,2.699997-2.200012,4.800003-4.799988,4.800003h-2.399994V159.300003z"/>
		<path class="st12" d="M407.600006,177.800003v0.5c0,3.5-2.899994,6.399994-6.399994,6.399994
			s-6.399994-2.899994-6.399994-6.399994v-0.5H407.600006z"/>
		<path class="st12" d="M406,175.699997v2.399994c0,2.699997-2.200012,4.800003-4.799988,4.800003
			s-4.799988-2.199997-4.799988-4.800003v-2.399994H406z"/>
		<path class="st12" d="M407.600006,150.5V150c0-3.5-2.899994-6.399994-6.399994-6.399994S394.800018,146.5,394.800018,150v0.5
			H407.600006z"/>
		<path class="st12" d="M406,152.600006v-2.399994c0-2.699997-2.200012-4.800003-4.799988-4.800003
			s-4.799988,2.199997-4.799988,4.800003v2.399994H406z"/>
	</g>
	<g>
		<path class="st12" d="M454.600006,250.725143h-10.399994l-1.399994-9.5h13.200012L454.600006,250.725143z"/>
		<g>
			<rect x="432.799988" y="227.025146" class="st10" width="33.299988" height="15.100006"/>
			<path class="st11" d="M465.700012,227.525146v14.100006h-32.299988v-14.100006H465.700012 M466.700012,226.525146h-34.299988
				v16.100006h34.299988V226.525146L466.700012,226.525146z"/>
		</g>
		<path class="st14" d="M453.5,238.125153h-8 M454.200012,239.725143h-9.399994v-2.800003h9.399994V239.725143z"/>
		<path class="st12" d="M458.100006,239.82515L458.100006,239.82515c-0.399994,0-0.700012-0.300003-0.700012-0.699997v-0.899994
			c0-0.399994,0.299988-0.699997,0.700012-0.699997l0,0c0.399994,0,0.700012,0.300003,0.700012,0.699997v0.899994
			C458.799988,239.525146,458.399994,239.82515,458.100006,239.82515z"/>
		<path class="st12" d="M451.799988,232.925156c0,1.199997-1.100006,2.199997-2.399994,2.199997s-2.399994-1-2.399994-2.199997
			v-2.199997h4.700012L451.799988,232.925156z"/>
		<g>
			<rect x="444.600006" y="242.625153" class="st10" width="9.700012" height="8.100006"/>
			<path class="st11" d="M453.799988,243.125153v7.100006h-8.700012v-7.100006H453.799988 M454.799988,242.125153h-10.700012
				v9.100006h10.700012V242.125153L454.799988,242.125153z"/>
		</g>
		<g>
			<rect x="444.299988" y="250.82515" class="st10" width="10.299988" height="1.800003"/>
			<path class="st11" d="M454,251.32515v0.800003h-9.299988v-0.800003H454 M455,250.32515h-11.299988v2.800003H455V250.32515
				L455,250.32515z"/>
		</g>
		<g>
			<path class="st11" d="M461.200012,229.425156v0.800003h-23.600006v-0.800003H461.200012 M462.200012,228.425156h-25.600006
				v2.800003h25.600006V228.425156L462.200012,228.425156z"/>
		</g>
	</g>
	<g>
		<path class="st12" d="M458.100006,385l-10.200012-2l-3.200012,9l13,2.600006L458.100006,385z"/>
		<g>
			
				<rect x="443.291931" y="380.227264" transform="matrix(0.196789 -0.980446 0.980446 0.196789 -30.427832 763.614807)" class="st10" width="15.100831" height="40.302219"/>
			<path class="st11" d="M433,389.600006l38.5,7.700012l-2.799988,13.799988l-38.5-7.700012L433,389.600006 M432.200012,388.5
				L429,404.299988l40.5,8.100006l3.200012-15.799988L432.200012,388.5L432.200012,388.5z"/>
		</g>
		<path class="st14" d="M454,397l-7.899994-1.600006 M455,395.600006l-9.299988-1.799988l-0.600006,2.799988l9.299988,1.799988
			L455,395.600006z"/>
		<path class="st12" d="M458.799988,396.299988L458.799988,396.299988C458.399994,396.199982,458,396.5,458,396.899994
			l-0.200012,0.899994c-0.100006,0.399994,0.200012,0.799988,0.600006,0.799988l0,0
			c0.399994,0.100006,0.799988-0.200012,0.799988-0.600006l0.200012-0.899994
			C459.5,396.700012,459.200012,396.299988,458.799988,396.299988z"/>
		<path class="st12" d="M451.299988,401.799988c0.200012-1.200012-0.600006-2.399994-1.899994-2.600006
			c-1.299988-0.299988-2.5,0.5-2.700012,1.700012l-0.399994,2.200012L450.899994,404L451.299988,401.799988z"/>
		<g>
			
				<rect x="448.241821" y="383.074524" transform="matrix(0.196693 -0.980465 0.980465 0.196693 -17.017328 755.079102)" class="st10" width="8.100281" height="9.700348"/>
			<path class="st11" d="M448.700012,383.600006l8.600006,1.700012l-1.399994,7l-8.600006-1.700012L448.700012,383.600006
				 M447.899994,382.399994l-1.799988,9l10.5,2.100006l1.799988-9L447.899994,382.399994L447.899994,382.399994z"/>
		</g>
		<g>
			
				<rect x="452.301361" y="377.933319" transform="matrix(0.196405 -0.980523 0.980523 0.196405 -11.431355 752.218201)" class="st10" width="1.799957" height="10.299743"/>
			<path class="st11" d="M448.799988,381.700012L457.899994,383.5l-0.200012,0.799988L448.599976,382.5L448.799988,381.700012
				 M448,380.600006l-0.600006,2.799988L458.5,385.600006l0.600006-2.799988L448,380.600006L448,380.600006z"/>
		</g>
		<g>
			<path class="st11" d="M436.899994,401.700012L460,406.300018l-0.200012,0.799988L436.699982,402.5L436.899994,401.700012
				 M436.100006,400.5L435.5,403.299988l25.100006,5L461.200012,405.5L436.100006,400.5L436.100006,400.5z"/>
		</g>
	</g>
	<g id="Sink_2_3_">
		<g id="Rectangle_16_x5F_11_4_">
			<rect x="331.100006" y="227.199997" class="st10" width="19.899994" height="12.199997"/>
			<path class="st11" d="M350.399994,227.699997v11.199997H331.5v-11.199997H350.399994 M351.399994,226.699997H330.5v13.199997
				h20.899994V226.699997L351.399994,226.699997z"/>
		</g>
		<path id="Rectangle_19_x5F_5_3_" class="st12" d="M347.899994,233.300003L347.899994,233.300003c0,2.199997-1.799988,4-4,4
			h-5.799988c-2.200012,0-4-1.800003-4-4l0,0c0-2.199997,1.799988-4,4-4h5.799988
			C346.100006,229.300003,347.899994,231.100006,347.899994,233.300003z"/>
		<circle id="Ellipse_7_x5F_2_3_" class="st12" cx="341" cy="232.100006" r="0.899994"/>
	</g>
	<g id="Sink_2_5_">
		<g id="Rectangle_16_x5F_11_9_">
			<rect x="326.100006" y="67.300003" class="st10" width="15.200012" height="9.199997"/>
			<path class="st11" d="M340.799988,67.800003V76h-14.200012v-8.199997H340.799988 M341.799988,66.800003h-16.200012V77h16.200012
				V66.800003L341.799988,66.800003z"/>
		</g>
		<path id="Rectangle_19_x5F_5_5_" class="st12" d="M339.100006,71.900002L339.100006,71.900002
			C339.100006,73.599998,337.700012,75,336,75h-4.5c-1.700012,0-3.100006-1.400002-3.100006-3.099998l0,0
			c0-1.699997,1.399994-3.099998,3.100006-3.099998h4.5C337.700012,68.800003,339.100006,70.199997,339.100006,71.900002z"/>
		<circle id="Ellipse_7_x5F_2_6_" class="st12" cx="333.700012" cy="71.300003" r="0.899994"/>
	</g>
	<g id="Sink_2_4_">
		<g id="Rectangle_16_x5F_11_5_">
			<rect x="280.164429" y="250" class="st10" width="12.200012" height="19.899994"/>
			<path class="st11" d="M291.86441,250.5v18.899994h-11.200012V250.5H291.86441 M292.86441,249.5h-13.200012v20.899994h13.200012
				V249.5L292.86441,249.5z"/>
		</g>
		<path id="Rectangle_19_x5F_5_4_" class="st12" d="M286.264435,266.899994L286.264435,266.899994c-2.200012,0-4-1.799988-4-4
			v-5.799988c0-2.199997,1.799988-4,4-4l0,0c2.200012,0,4,1.800003,4,4v5.799988
			C290.36441,265.100006,288.564423,266.899994,286.264435,266.899994z"/>
		<circle id="Ellipse_7_x5F_2_5_" class="st12" cx="287.464417" cy="260" r="0.899994"/>
	</g>
	<g id="Toilet_4_">
		<g id="Rectangle_21_5_">
			<rect x="316" y="232.800003" class="st10" width="10.600006" height="2.899994"/>
			<path class="st11" d="M326.100006,233.300003v1.899994H316.5v-1.899994H326.100006 M327.100006,232.300003H315.5v3.899994
				h11.600006V232.300003L327.100006,232.300003z"/>
		</g>
		<path id="Rectangle_19_x5F_2_4_" class="st12" d="M317.5,242.800003c-0.100006,2.199997,1.600006,4.100006,3.799988,4.100006l0,0
			c2.200012,0,3.899994-1.899994,3.799988-4.100006l-0.5-7H318L317.5,242.800003z"/>
		<path id="Rectangle_18_x5F_13_4_" class="st12" d="M318.899994,242.300003c-0.100006,1.399994,1,2.600006,2.299988,2.600006l0,0
			c1.399994,0,2.5-1.199997,2.299988-2.600006l-0.299988-3.699997h-4L318.899994,242.300003z"/>
		<ellipse id="Ellipse_6_x5F_2_4_" class="st12" cx="321.299988" cy="241.100006" rx="0.899994" ry="0.899994"/>
	</g>
	<g id="Toilet_5_">
		<g id="Rectangle_21_4_">
			<rect x="249.199997" y="254" class="st10" width="2.899994" height="10.600006"/>
			<path class="st11" d="M251.600006,254.5v9.600006h-1.899994V254.5H251.600006 M252.600006,253.5h-3.899994v11.600006h3.899994
				V253.5L252.600006,253.5z"/>
		</g>
		<path id="Rectangle_19_x5F_2_5_" class="st12" d="M259.200012,263.100006c2.200012,0.100006,4.100006-1.600006,4.100006-3.799988
			l0,0c0-2.200012-1.899994-3.899994-4.100006-3.800003l-7,0.499985v6.600006L259.200012,263.100006z"/>
		<path id="Rectangle_18_x5F_13_5_" class="st12" d="M258.799988,261.700012c1.399994,0.100006,2.600006-1,2.600006-2.299988l0,0
			c0-1.399994-1.200012-2.5-2.600006-2.299988l-3.699997,0.299988v4L258.799988,261.700012z"/>
		<ellipse id="Ellipse_6_x5F_2_5_" class="st12" cx="257.299988" cy="259.299988" rx="0.899994" ry="0.899994"/>
	</g>
	<g id="TV">
		<g id="Rectangle_16">
			<rect x="309.510437" y="351.299988" class="st10" width="1.799988" height="34.899994"/>
			<path class="st11" d="M310.810455,351.799988v33.899994h-0.799988v-33.899994H310.810455 M311.810455,350.799988h-2.799988
				v35.899994h2.799988V350.799988L311.810455,350.799988z"/>
		</g>
		<g id="Rectangle_15">
			<rect x="311.310455" y="351.299988" class="st10" width="6.100006" height="34.899994"/>
			<path class="st11" d="M317.010437,351.799988v33.899994h-5.100006v-33.899994H317.010437 M318.010437,350.799988h-7.100006
				v35.899994h7.100006V350.799988L318.010437,350.799988z"/>
		</g>
		<g id="Rectangle_17">
			<rect x="314.010437" y="356.399994" class="st10" width="1.799988" height="24.600006"/>
			<path class="st11" d="M315.410431,356.899994V380.5h-0.799988v-23.600006H315.410431 M316.410431,355.899994h-2.799988V381.5
				h2.799988V355.899994L316.410431,355.899994z"/>
		</g>
		<path id="Rectangle_18_x5F_2" class="st12" d="M315.910431,363.700012v10.100006l1.799988-0.899994v-8.299988
			L315.910431,363.700012z"/>
	</g>
	<g id="Kitchen">
		<g>
			<rect x="424.52652" y="80.65284" class="st10" width="16.100006" height="1.800003"/>
			<path class="st11" d="M440.126526,81.15284v0.800003H425.02652V81.15284H440.126526 M441.126526,80.15284H424.02652v2.800003
				h17.100006V80.15284L441.126526,80.15284z"/>
		</g>
		<g id="Rectangle_24">
			<rect x="354.126526" y="67.352844" class="st10" width="100.899994" height="13.400002"/>
			<path class="st11" d="M454.52652,67.852844v12.400002h-99.899994V67.852844H454.52652 M455.52652,66.852844H353.626526v14.400002
				H455.52652V66.852844L455.52652,66.852844z"/>
		</g>
		<g id="Rectangle_27_1_">
			<rect x="442.326508" y="67.352844" class="st10" width="13.399994" height="13.400002"/>
			<path class="st11" d="M455.226532,67.852844v12.400002h-12.399994V67.852844H455.226532 M456.226532,66.852844h-14.399994
				v14.400002h14.399994V66.852844L456.226532,66.852844z"/>
		</g>
		<g id="Sink_3">
			<rect id="Rectangle_28_x5F_2" x="355.926514" y="69.252846" class="st12" width="14.799988" height="9.400002"/>
			<path id="Rectangle_29_x5F_2" class="st12" d="M361.726532,73.952843L361.726532,73.952843c0-1.900002,1.600006-3.5,3.5-3.5
				h0.799988c1.899994,0,3.5,1.599998,3.5,3.5l0,0c0,1.900002-1.600006,3.5-3.5,3.5h-0.799988
				C363.326508,77.452843,361.726532,75.852844,361.726532,73.952843z"/>
			<ellipse id="Ellipse_7_x5F_3" class="st12" cx="365.626526" cy="75.052841" rx="0.899994" ry="0.900002"/>
			<line class="st14" x1="356.726532" y1="77.052841" x2="360.626526" y2="77.052841"/>
			<line class="st14" x1="356.726532" y1="75.452843" x2="360.626526" y2="75.452843"/>
			<line class="st14" x1="356.726532" y1="73.952843" x2="360.626526" y2="73.952843"/>
			<line class="st14" x1="356.726532" y1="72.352844" x2="360.626526" y2="72.352844"/>
			<line class="st14" x1="356.726532" y1="70.752846" x2="360.626526" y2="70.752846"/>
		</g>
		<g id="Stove_1_">
			<g id="Rectangle_25_1_">
				<rect x="409.826508" y="67.352844" class="st10" width="13" height="13.400002"/>
				<path class="st11" d="M422.326508,67.852844v12.400002h-12V67.852844H422.326508 M423.326508,66.852844h-14v14.400002h14
					V66.852844L423.326508,66.852844z"/>
			</g>
			<g id="Rectangle_28_x5F_3_1_">
				<rect x="409.826508" y="79.052841" class="st10" width="13" height="1.699997"/>
				<path class="st11" d="M422.326508,79.552841v0.699997h-12v-0.699997H422.326508 M423.326508,78.552841h-14v2.699997h14
					V78.552841L423.326508,78.552841z"/>
			</g>
			<g id="Ellipse_7_x5F_4_1_">
				<path class="st10" d="M413.626526,76.65284c-0.600006,0-1-0.5-1-1s0.5-1,1-1c0.600006,0,1,0.5,1,1
					S414.126526,76.65284,413.626526,76.65284z"/>
				<path class="st11" d="M413.626526,75.052841c0.299988,0,0.5,0.199997,0.5,0.5s-0.200012,0.5-0.5,0.5s-0.5-0.199997-0.5-0.5
					S413.326508,75.052841,413.626526,75.052841 M413.626526,74.052841c-0.799988,0-1.5,0.699997-1.5,1.5s0.700012,1.5,1.5,1.5
					s1.5-0.699997,1.5-1.5S414.426514,74.052841,413.626526,74.052841L413.626526,74.052841z"/>
			</g>
			<g id="Ellipse_9_1_">
				<path class="st10" d="M413.626526,72.452843c-0.799988,0-1.399994-0.599998-1.399994-1.400002
					s0.600006-1.400002,1.399994-1.400002s1.399994,0.599998,1.399994,1.400002
					C414.926514,71.852844,414.326508,72.452843,413.626526,72.452843z"/>
				<path class="st11" d="M413.626526,70.252838c0.5,0,0.899994,0.400002,0.899994,0.900002s-0.399994,0.900002-0.899994,0.900002
					s-0.899994-0.400002-0.899994-0.900002S413.126526,70.252838,413.626526,70.252838 M413.626526,69.252838
					c-1,0-1.899994,0.800003-1.899994,1.900002s0.799988,1.900002,1.899994,1.900002s1.899994-0.800003,1.899994-1.900002
					S414.626526,69.252838,413.626526,69.252838L413.626526,69.252838z"/>
			</g>
			<g id="Ellipse_10_1_">
				<path class="st10" d="M418.826508,76.952843c-0.799988,0-1.399994-0.599998-1.399994-1.400002
					s0.600006-1.400002,1.399994-1.400002s1.399994,0.599998,1.399994,1.400002S419.626526,76.952843,418.826508,76.952843z"/>
				<path class="st11" d="M418.826508,74.752838c0.5,0,0.899994,0.400002,0.899994,0.900002s-0.399994,0.900002-0.899994,0.900002
					s-0.799988-0.5-0.799988-0.900002S418.326508,74.752838,418.826508,74.752838 M418.826508,73.752838
					c-1,0-1.899994,0.800003-1.899994,1.900002s0.799988,1.900002,1.899994,1.900002s1.899994-0.800003,1.899994-1.900002
					S419.926514,73.752838,418.826508,73.752838L418.826508,73.752838z"/>
			</g>
			<g id="Ellipse_8_1_">
				<path class="st10" d="M418.826508,71.752838c-0.600006,0-1-0.5-1-1s0.5-1,1-1c0.600006,0,1,0.5,1,1
					S419.426514,71.752838,418.826508,71.752838z"/>
				<path class="st11" d="M418.826508,70.252838c0.299988,0,0.5,0.199997,0.5,0.5s-0.200012,0.5-0.5,0.5s-0.5-0.199997-0.5-0.5
					S418.626526,70.252838,418.826508,70.252838 M418.826508,69.252838c-0.799988,0-1.5,0.699997-1.5,1.5s0.700012,1.5,1.5,1.5
					s1.5-0.699997,1.5-1.5C420.326508,69.852844,419.726532,69.252838,418.826508,69.252838L418.826508,69.252838z"/>
			</g>
		</g>
		<path id="Vector_3_1_" class="st14" d="M446.326508,72.877129h5.399994 M447.626526,70.477127l2.700012,4.800003
			 M447.626526,75.27713l2.700012-4.800003"/>
	</g>
	<g>
		<path class="st12" d="M430.213806,201.703384c-0.600006,0-1.200012,0.5-1.200012,1.199997v11.699997h26.799988v-12.899994
			H430.213806z"/>
		<path class="st12" d="M444.1138,180.903381c-0.600006,0-1.200012,0.5-1.200012,1.199997v18.300003
			c0,0.699997,0.5,1.199997,1.200012,1.199997h11.799988v-20.699997H444.1138z"/>
		<path class="st12" d="M444.1138,160.903381c-0.600006,0-1.200012,0.5-1.200012,1.199997v17.600006
			c0,0.600006,0.5,1.199997,1.200012,1.199997h11.799988v-20H444.1138z"/>
		<path class="st12" d="M442.013794,160.903381v-4.399994h18.5v62.699997h-36v-18.600006h4.600006v13.899994h26.799988v-53.699997
			L442.013794,160.903381z"/>
	</g>
	<g>
		<g>
			<rect x="306.148315" y="171.879288" class="st10" width="36.299988" height="1.800003"/>
			<path class="st11" d="M341.948303,172.379288v0.800003h-35.299988v-0.800003H341.948303 M342.948303,171.379288h-37.299988
				v2.800003h37.299988V171.379288L342.948303,171.379288z"/>
		</g>
		<g>
			<rect x="306.148315" y="173.679291" class="st10" width="36.299988" height="12.600006"/>
			<path class="st11" d="M341.948303,174.179291v11.600006h-35.299988v-11.600006H341.948303 M342.948303,173.179291h-37.299988
				v13.600006h37.299988V173.179291L342.948303,173.179291z"/>
		</g>
		<path class="st12" d="M342.748322,186.379288l-36.899994-12.699997"/>
	</g>
	<g>
		<g>
			<rect x="448.198761" y="263.74295" class="st10" width="1.799988" height="36.299988"/>
			<path class="st11" d="M449.498779,264.24295v35.299988h-0.799988V264.24295H449.498779 M450.498779,263.24295h-2.799988
				v37.299988h2.799988V263.24295L450.498779,263.24295z"/>
		</g>
		<g>
			<rect x="449.998779" y="263.74295" class="st10" width="12.600006" height="36.299988"/>
			<path class="st11" d="M462.198761,264.24295v35.299988h-11.600006V264.24295H462.198761 M463.198761,263.24295h-13.600006
				v37.299988h13.600006V263.24295L463.198761,263.24295z"/>
		</g>
		<path class="st12" d="M462.698761,263.542938l-12.700012,36.899994"/>
	</g>
	<g>
		<g>
			<rect x="333.442383" y="358.783447" class="st10" width="1.799988" height="36.299988"/>
			<path class="st11" d="M333.942352,394.583435v-35.299988h0.799988v35.299988H333.942352 M332.942352,395.583435h2.799988
				v-37.299988h-2.799988V395.583435L332.942352,395.583435z"/>
		</g>
		<g>
			<rect x="320.842346" y="358.783447" class="st10" width="12.600006" height="36.299988"/>
			<path class="st11" d="M321.242371,394.583435v-35.299988h11.600006v35.299988H321.242371 M320.242371,395.583435h13.600006
				v-37.299988h-13.600006V395.583435L320.242371,395.583435z"/>
		</g>
		<path class="st12" d="M320.742371,395.283447l12.700012-36.899994"/>
	</g>
	<g>
		<g>
			<rect x="431.700012" y="315.903503" class="st10" width="36.299988" height="1.799988"/>
			<path class="st11" d="M432.200012,316.403503H467.5v0.799988h-35.299988V316.403503 M431.200012,315.403503v2.799988H468.5
				v-2.799988H431.200012L431.200012,315.403503z"/>
		</g>
		<g>
			<rect x="431.700012" y="303.303528" class="st10" width="36.299988" height="12.600006"/>
			<path class="st11" d="M467.5,303.803528v11.600006h-35.299988v-11.600006H467.5 M468.5,302.803528h-37.299988v13.600006H468.5
				V302.803528L468.5,302.803528z"/>
		</g>
		<path class="st12" d="M431.5,303.203522l36.899994,12.700012"/>
	</g>
	<g>
		<g>
			<rect x="320.700012" y="297.5" class="st10" width="30.100006" height="1.799988"/>
			<path class="st11" d="M321.200012,298h29.100006v0.799988h-29.100006V298 M320.200012,297v2.799988h31.100006V297H320.200012
				L320.200012,297z"/>
		</g>
		<g>
			<rect x="320.700012" y="284.899994" class="st10" width="30.100006" height="12.600006"/>
			<path class="st11" d="M350.299988,285.399994V297h-29.100006v-11.600006H350.299988 M351.299988,284.399994h-31.100006V298
				h31.100006V284.399994L351.299988,284.399994z"/>
		</g>
		<path class="st12" d="M320.600006,285L351,297.600006"/>
	</g>
	<g>
		<g>
			<rect x="246.762634" y="297.643768" class="st10" width="16.799988" height="1.799988"/>
			<path class="st11" d="M247.262634,298.143768h15.799988v0.799988h-15.799988V298.143768 M246.262634,297.143768v2.799988
				h17.799988v-2.799988H246.262634L246.262634,297.143768z"/>
		</g>
		<g>
			<rect x="246.662628" y="285.043762" class="st10" width="16.800018" height="12.600006"/>
			<path class="st11" d="M263.062622,285.543762v11.600006h-15.799988v-11.600006H263.062622 M264.062622,284.543762h-17.799988
				v13.600006h17.799988V284.543762L264.062622,284.543762z"/>
		</g>
		<path class="st12" d="M246.662628,285.243774l17.000031,12.299988"/>
	</g>
	<g>
		<g>
			<rect x="285.5" y="297.5" class="st10" width="31.899994" height="1.799988"/>
			<path class="st11" d="M316.899994,298v0.799988H286V298H316.899994 M317.899994,297H285v2.799988h32.899994V297L317.899994,297z"
				/>
		</g>
		<g>
			<rect x="285.5" y="284.899994" class="st10" width="31.899994" height="12.600006"/>
			<path class="st11" d="M316.899994,285.399994V297H286v-11.600006H316.899994 M317.899994,284.399994H285V298h32.899994
				V284.399994L317.899994,284.399994z"/>
		</g>
		<path class="st12" d="M285.399994,285L317.5,297.600006"/>
	</g>
	<g>
		<g>
			<rect x="313.53064" y="212.17276" class="st10" width="37.299988" height="1.800003"/>
			<path class="st11" d="M350.330627,212.67276v0.800003H314.03064v-0.800003H350.330627 M351.330627,211.67276H313.03064v2.800003
				h38.299988V211.67276L351.330627,211.67276z"/>
		</g>
		<g>
			<rect x="313.53064" y="213.972748" class="st10" width="37.299988" height="10"/>
			<path class="st11" d="M350.330627,214.472748v9H314.03064v-9H350.330627 M351.330627,213.472748H313.03064v11h38.299988
				V213.472748L351.330627,213.472748z"/>
		</g>
		<path class="st12" d="M350.830627,224.072754l-37.299988-10.100006"/>
	</g>
	<g>
		<g>
			<rect x="313.144165" y="120.120789" class="st10" width="1.799988" height="10.5"/>
			<path class="st11" d="M314.444153,120.620789v9.5h-0.799988v-9.499992h0.799988 M315.444153,119.620789h-2.799988v11.5h2.799988
				V119.620789L315.444153,119.620789z"/>
		</g>
		<g>
			<rect x="306.144165" y="120.120789" class="st10" width="7" height="10.5"/>
			<path class="st11" d="M312.644165,120.620789v9.5h-6v-9.499992h6 M313.644165,119.620789h-8v11.5h8V119.620789
				L313.644165,119.620789z"/>
		</g>
		<path class="st12" d="M306.244171,120.120789l6.899994,10.5"/>
	</g>
	<g>
		<g>
			<path class="st10" d="M306.051086,86.5V69.800003h16.600006V81.5c0,2.699997-2.200012,5-5,5H306.051086z"/>
			<path class="st11" d="M322.251068,70.300003V81.5c0,2.5-2,4.5-4.5,4.5h-11.200012V70.300003H322.251068 M323.251068,69.300003
				h-17.600006V87h12.200012c3,0,5.5-2.5,5.5-5.5V69.300003H323.251068z"/>
		</g>
		<g>
			<path class="st10" d="M307.551086,85V71.300003h13.799988V81.5c0,2-1.600006,3.599998-3.600006,3.599998h-10.199982V85z"/>
			<path class="st11" d="M320.751068,71.800003V81.5c0,0.800003-0.299988,1.599998-0.899994,2.199997
				s-1.399994,0.900002-2.200012,0.900002h-9.700012V71.800003H320.751068 M321.751068,70.800003H306.95108v14.800003h10.700012
				c2.299988,0,4.100006-1.800003,4.100006-4.099998V70.800003H321.751068z"/>
		</g>
		<ellipse class="st12" cx="310.151093" cy="73.800003" rx="0.899994" ry="0.900002"/>
	</g>
	<g>
		<rect x="311.799988" y="227.199997" class="st10" width="19.200012" height="5.5"/>
		<path class="st11" d="M330.5,227.699997v4.5h-18.200012v-4.5H330.5 M331.5,226.699997h-20.200012v6.5H331.5V226.699997
			L331.5,226.699997z"/>
	</g>
	<g>
		<rect x="246.699997" y="245" class="st10" width="2.5" height="28.600006"/>
		<path class="st11" d="M248.699997,245.5V273h-1.5v-27.600006h1.5 M249.699997,244.5h-3.5V274h3.5V244.5L249.699997,244.5z"/>
	</g>
	<g id="Toilet_6_">
		<g id="Rectangle_21_9_">
			<rect x="308.644165" y="100.838982" class="st10" width="2.899994" height="10.599998"/>
			<path class="st11" d="M311.044159,101.338982v9.599998h-1.899994v-9.599998H311.044159 M312.044159,100.338982h-3.899994
				v11.599998h3.899994V100.338982L312.044159,100.338982z"/>
		</g>
		<path id="Rectangle_19_x5F_2_6_" class="st12" d="M318.644165,109.93898c2.200012,0.099998,4.100006-1.599998,4.100006-3.800003
			l0,0c0-2.199997-1.899994-3.900002-4.100006-3.800003l-7,0.5v6.599998L318.644165,109.93898z"/>
		<path id="Rectangle_18_x5F_13_6_" class="st12" d="M318.244171,108.538979c1.399994,0.099998,2.600006-1,2.600006-2.300003l0,0
			c0-1.400002-1.200012-2.5-2.600006-2.300003l-3.700012,0.300003v4L318.244171,108.538979z"/>
		<ellipse id="Ellipse_6_x5F_2_6_" class="st12" cx="316.844147" cy="106.138977" rx="0.899994" ry="0.900002"/>
	</g>
	<g>
		<rect x="306.144165" y="89.038979" class="st10" width="2.5" height="27.800003"/>
		<path class="st11" d="M308.144165,89.538979v26.800003h-1.5V89.538979H308.144165 M309.144165,88.538979h-3.5v28.800003h3.5
			V88.538979L309.144165,88.538979z"/>
	</g>
	<g>
		<rect x="306.151062" y="67.300003" class="st10" width="19.948944" height="2.5"/>
		<path class="st11" d="M325.600006,67.800003v1.5h-18.948944v-1.5H325.600006 M326.600006,66.800003h-20.948944v3.5h20.948944
			V66.800003L326.600006,66.800003z"/>
	</g>
</g>
<g id="Numbers">
	<g>
		<path class="st9" d="M327.5,91.599998c0.600006,0,1.200012,0.199997,1.600006,0.599998s0.600006,0.900002,0.600006,1.599998
			S329.5,94.999992,329,95.399994c-0.399994,0.400002-1,0.599998-1.700012,0.599998c-0.799988,0-1.5-0.300003-2.200012-0.800003
			l0.5-0.800003c0.600006,0.400002,1.100006,0.599998,1.700012,0.599998c0.399994,0,0.700012-0.099998,1-0.400002
			c0.299988-0.199997,0.399994-0.5,0.399994-0.900002s-0.100006-0.699997-0.399994-0.900002
			c-0.200012-0.199997-0.600006-0.400002-1-0.400002c-0.5,0-0.899994,0.199997-1.200012,0.5l-0.600006-0.400002l0.399994-3.300003
			h3.399994v0.900002h-2.600006l-0.200012,1.599998C326.799988,91.699997,327.200012,91.599998,327.5,91.599998z"/>
		<path class="st9" d="M331.200012,96.099998c-0.200012,0-0.299988-0.099998-0.5-0.199997
			c-0.100006-0.099998-0.200012-0.300003-0.200012-0.5S330.600006,95.099998,330.700012,95s0.299988-0.199997,0.5-0.199997
			S331.5,94.900002,331.600006,95s0.200012,0.300003,0.200012,0.400002c0,0.199997-0.100006,0.300003-0.200012,0.5
			C331.5,96,331.399994,96.099998,331.200012,96.099998z"/>
		<path class="st9" d="M334.700012,96c-0.700012,0-1.399994-0.199997-2.100006-0.699997l0.5-0.800003
			c0.600006,0.400002,1.100006,0.5,1.600006,0.5c0.399994,0,0.700012-0.099998,0.899994-0.300003
			c0.200012-0.199997,0.299988-0.400002,0.299988-0.800003c0-0.300003-0.100006-0.599998-0.399994-0.800003
			c-0.200012-0.199997-0.5-0.300003-0.899994-0.300003h-0.799988V92h0.799988c0.299988,0,0.600006-0.099998,0.799988-0.300003
			C335.600006,91.5,335.699982,91.299995,335.699982,91c0-0.300003-0.100006-0.5-0.299988-0.699997S334.899994,90,334.600006,90
			c-0.399994,0-0.899994,0.199997-1.399994,0.599998l-0.5-0.699997c0.200012-0.199997,0.600006-0.400002,0.899994-0.599998
			c0.399994-0.099998,0.700012-0.199997,1.100006-0.199997c0.600006,0,1.100006,0.199997,1.5,0.5
			s0.600006,0.800003,0.600006,1.199997c0,0.400002-0.100006,0.699997-0.299988,0.900002
			c-0.200012,0.300003-0.5,0.5-0.799988,0.599998l0,0c0.399994,0.099998,0.700012,0.300003,1,0.599998
			C336.900055,93.200005,337.000031,93.5,337.000031,94c0,0.599998-0.200012,1-0.600006,1.400002
			C335.899994,95.800003,335.399994,96,334.700012,96z"/>
	</g>
	<g>
		<path class="st9" d="M324.100006,147.199997C323.399994,147.199997,322.700012,147,322,146.5l0.5-0.800003
			c0.600006,0.399994,1.100006,0.5,1.600006,0.5c0.399994,0,0.700012-0.100006,0.899994-0.300003
			c0.200012-0.199997,0.299988-0.399994,0.299988-0.800003c0-0.300003-0.100006-0.600006-0.399994-0.800003
			c-0.200012-0.199997-0.5-0.300003-0.899994-0.300003h-0.799988v-0.899994H324c0.299988,0,0.600006-0.100006,0.799988-0.300003
			c0.200012-0.199997,0.299988-0.399994,0.299988-0.699997s-0.100006-0.5-0.299988-0.699997s-0.5-0.300003-0.799988-0.300003
			c-0.399994,0-0.899994,0.199997-1.399994,0.600006l-0.5-0.699997c0.200012-0.199997,0.600006-0.399994,0.899994-0.600006
			c0.399994-0.100006,0.700012-0.199997,1.100006-0.199997c0.600006,0,1.100006,0.199997,1.5,0.5
			s0.600006,0.800003,0.600006,1.199997s-0.100006,0.699997-0.299988,0.899994c-0.200012,0.300003-0.5,0.5-0.799988,0.600006l0,0
			c0.399994,0.100006,0.700012,0.300003,1,0.600006c0.200012,0.300003,0.299988,0.600006,0.299988,1.100006
			c0,0.600006-0.200012,1-0.600006,1.399994C325.299988,147,324.799988,147.199997,324.100006,147.199997z"/>
		<path class="st9" d="M327.899994,147.199997c-0.200012,0-0.299988-0.100006-0.5-0.199997
			c-0.100006-0.100006-0.200012-0.300003-0.200012-0.5s0.100006-0.300003,0.200012-0.399994
			c0.100006-0.100006,0.299988-0.199997,0.5-0.199997s0.299988,0.100006,0.399994,0.199997
			C328.399994,146.200012,328.5,146.400009,328.5,146.5c0,0.199997-0.100006,0.300003-0.200012,0.5
			C328.200012,147.199997,328.100006,147.199997,327.899994,147.199997z"/>
		<path class="st9" d="M329,141.399994V140.5h4.200012v0.699997l-2.5,6h-1.100006l2.5-5.699997H329V141.399994z"/>
	</g>
	<g>
		<path class="st9" d="M322.5,201.5l-1.600006,1.800003h2.700012v1h-4.200012v-0.899994L321.5,201.100006L322,200.5
			c0.100006-0.100006,0.200012-0.300003,0.299988-0.5s0.100006-0.399994,0.100006-0.600006
			c0-0.300003-0.100006-0.5-0.299988-0.699997c-0.200012-0.199997-0.5-0.300003-0.799988-0.300003
			c-0.5,0-1,0.199997-1.600006,0.699997l-0.600006-0.699997c0.700012-0.600006,1.399994-1,2.200012-1
			c0.600006,0,1.100006,0.199997,1.5,0.600006c0.399994,0.399994,0.600006,0.899994,0.600006,1.399994
			C323.5,200.100006,323.200012,200.800003,322.5,201.5z"/>
		<path class="st9" d="M325.100006,204.399994c-0.200012,0-0.299988-0.100006-0.5-0.199997
			c-0.100006-0.100006-0.200012-0.300003-0.200012-0.5s0.100006-0.300003,0.200012-0.399994
			c0.100006-0.100006,0.299988-0.199997,0.5-0.199997s0.299988,0.100006,0.399994,0.199997
			c0.100006,0.100006,0.200012,0.300003,0.200012,0.399994c0,0.199997-0.100006,0.300003-0.200012,0.5
			S325.299988,204.399994,325.100006,204.399994z"/>
		<path class="st9" d="M329.100006,200c0.600006,0,1.100006,0.199997,1.5,0.600006C331,201,331.200012,201.5,331.200012,202.100006
			S331,203.300003,330.5,203.700012c-0.399994,0.399994-1,0.600006-1.700012,0.600006
			c-0.799988,0-1.399994-0.300003-1.799988-0.899994c-0.399994-0.600006-0.600006-1.399994-0.600006-2.300003
			c0-0.600006,0.100006-1.199997,0.299988-1.800003c0.200012-0.5,0.5-1,0.899994-1.300003c0.399994-0.399994,1-0.5,1.600006-0.5
			c0.700012,0,1.299988,0.199997,1.700012,0.600006L330.5,198.900024c-0.399994-0.300003-0.799988-0.399994-1.200012-0.399994
			c-0.399994,0-0.700012,0.100006-1,0.399994c-0.5,0.5-0.799988,1.199997-0.799988,2.100006
			c0.100006-0.300003,0.399994-0.5,0.700012-0.699997S328.700012,200,329.100006,200z M328.899994,203.5
			c0.399994,0,0.700012-0.100006,0.899994-0.399994c0.200012-0.300003,0.399994-0.600006,0.399994-0.899994
			c0-0.399994-0.100006-0.699997-0.399994-0.899994c-0.200012-0.199997-0.5-0.399994-0.899994-0.399994
			s-0.700012,0.100006-0.899994,0.399994c-0.200012,0.199997-0.399994,0.600006-0.399994,0.899994
			c0,0.399994,0.100006,0.699997,0.399994,0.899994C328.200012,203.300003,328.5,203.5,328.899994,203.5z"/>
	</g>
	<g>
		<path class="st9" d="M406.799988,122.400002c-0.700012,0-1.399994-0.199997-2.100006-0.699997l0.5-0.800003
			c0.600006,0.400002,1.100006,0.5,1.600006,0.5c0.399994,0,0.700012-0.099998,0.899994-0.300003
			c0.200012-0.199997,0.299988-0.400002,0.299988-0.800003c0-0.300003-0.100006-0.599998-0.399994-0.800003
			c-0.200012-0.199997-0.5-0.300003-0.899994-0.300003h-0.799988v-0.900002h0.799988
			c0.299988,0,0.600006-0.099998,0.799988-0.300003c0.200012-0.199997,0.299988-0.400002,0.299988-0.699997
			c0-0.300003-0.100006-0.5-0.299988-0.699997s-0.5-0.300003-0.799988-0.300003c-0.399994,0-0.899994,0.199997-1.399994,0.599998
			l-0.5-0.699997c0.200012-0.199997,0.5-0.400002,0.899994-0.599998c0.399994-0.099998,0.700012-0.199997,1.100006-0.199997
			c0.600006,0,1.100006,0.199997,1.5,0.5s0.600006,0.800003,0.600006,1.199997c0,0.400002-0.100006,0.699997-0.299988,0.900002
			c-0.200012,0.300003-0.5,0.5-0.799988,0.599998l0,0c0.399994,0.099998,0.700012,0.300003,1,0.599998
			c0.200012,0.300003,0.299988,0.599998,0.299988,1.099998c0,0.599998-0.200012,1-0.600006,1.400002
			C408,122.199997,407.5,122.400002,406.799988,122.400002z"/>
		<path class="st9" d="M409.600006,117.199997L411.5,115.599998h0.799988v6.699997h-1V117l-1.200012,0.900002L409.600006,117.199997
			z"/>
		<path class="st9" d="M414.200012,122.400002c-0.200012,0-0.299988-0.099998-0.5-0.199997s-0.200012-0.300003-0.200012-0.5
			s0.100006-0.300003,0.200012-0.400002s0.299988-0.199997,0.5-0.199997s0.299988,0.099998,0.399994,0.199997
			s0.200012,0.300003,0.200012,0.400002c0,0.199997-0.100006,0.300003-0.200012,0.5S414.399994,122.400002,414.200012,122.400002z"
			/>
		<path class="st9" d="M414.799988,117.199997l1.899994-1.599998h0.799988v6.699997h-1V117l-1.200012,0.900002
			L414.799988,117.199997z"/>
	</g>
	<g>
		<path class="st9" d="M407.600006,246.800003L409.5,245.199997h0.799988v6.699997h-1v-5.300003l-1.200012,0.899994
			L407.600006,246.800003z"/>
		<path class="st9" d="M415.399994,251.699997C415,251.899994,414.600006,252,414.199982,252
			c-0.399994,0-0.899994-0.100006-1.200012-0.300003c-0.600006-0.399994-1-1-1.299988-1.899994
			C411.599976,249.400009,411.599976,249,411.599976,248.5c0-0.399994,0-0.800003,0.100006-1.199997s0.200012-0.800003,0.5-1.100006
			c0.200012-0.300003,0.5-0.600006,0.799988-0.800003s0.799988-0.300003,1.200012-0.300003
			c0.5,0,0.899994,0.100006,1.200012,0.300003c0.600006,0.300003,1.100006,1,1.299988,1.899994
			c0.200012,0.800003,0.200012,1.699997,0,2.5C416.5,250.699997,416,251.300003,415.399994,251.699997z M414.200012,251
			c0.5,0,0.899994-0.199997,1.200012-0.699997c0.299988-0.5,0.399994-1.100006,0.399994-1.800003
			s-0.100006-1.300003-0.399994-1.800003S414.700012,246,414.200012,246s-0.899994,0.199997-1.200012,0.699997
			c-0.299988,0.5-0.399994,1-0.399994,1.800003c0,0.699997,0.100006,1.300003,0.399994,1.800003S413.700012,251,414.200012,251z"/>
		<path class="st9" d="M418.200012,252c-0.200012,0-0.299988-0.100006-0.5-0.199997
			c-0.100006-0.100006-0.200012-0.300003-0.200012-0.5s0.100006-0.300003,0.200012-0.399994
			c0.100006-0.100006,0.299988-0.199997,0.5-0.199997s0.299988,0.100006,0.399994,0.199997
			c0.100006,0.100006,0.200012,0.300003,0.200012,0.399994c0,0.199997-0.100006,0.300003-0.200012,0.5
			S418.299988,252,418.200012,252z"/>
		<path class="st9" d="M421.899994,245.100006c0.799988,0,1.399994,0.300003,1.799988,0.899994
			c0.399994,0.600006,0.600006,1.399994,0.600006,2.300003c0,0.5-0.100006,1-0.200012,1.399994s-0.299988,0.800003-0.5,1.199997
			c-0.200012,0.300003-0.5,0.600006-0.899994,0.800003S421.899994,252,421.499969,252
			c-0.700012,0-1.299988-0.199997-1.799988-0.600006l0.399994-0.800003c0.399994,0.300003,0.899994,0.5,1.299988,0.5
			c0.600006,0,1-0.199997,1.299988-0.699997s0.5-1,0.5-1.699997c-0.200012,0.300003-0.399994,0.5-0.700012,0.600006
			s-0.600006,0.199997-1,0.199997c-0.600006,0-1.100006-0.199997-1.5-0.600006c-0.399994-0.399994-0.600006-0.899994-0.600006-1.5
			s0.200012-1.199997,0.600006-1.600006C420.700012,245.300003,421.200012,245.100006,421.899994,245.100006z
			 M423.100006,247.300003c0-0.399994-0.100006-0.699997-0.399994-0.899994c-0.200012-0.300003-0.5-0.399994-0.899994-0.399994
			s-0.700012,0.100006-0.899994,0.399994c-0.200012,0.300003-0.399994,0.600006-0.399994,0.899994
			c0,0.399994,0.100006,0.699997,0.399994,0.899994c0.200012,0.199997,0.5,0.399994,0.899994,0.399994
			s0.700012-0.100006,0.899994-0.399994C423,248,423.100006,247.699997,423.100006,247.300003z"/>
	</g>
	<g>
		<path class="st9" d="M323.200012,256.5h0.700012v0.899994h-0.700012V259h-1v-1.600006h-3L319,256.799988l3.600006-4.399994
			h0.700012V256.5H323.200012z M322.299988,254.100006l-2,2.399994h2V254.100006z"/>
		<path class="st9" d="M325.399994,259.200012c-0.200012,0-0.299988-0.100006-0.5-0.200012
			c-0.100006-0.100006-0.200012-0.299988-0.200012-0.5s0.100006-0.299988,0.200012-0.399994s0.299988-0.200012,0.5-0.200012
			s0.299988,0.100006,0.399994,0.200012S326,258.399994,326,258.5c0,0.200012-0.100006,0.299988-0.200012,0.5
			C325.700012,259.100006,325.600006,259.200012,325.399994,259.200012z"/>
		<path class="st9" d="M329.200012,252.300003c0.799988,0,1.399994,0.300003,1.799988,0.899994
			c0.399994,0.600006,0.600006,1.399994,0.600006,2.300003c0,0.5-0.100006,1-0.200012,1.399994s-0.299988,0.799988-0.5,1.200012
			c-0.200012,0.299988-0.5,0.600006-0.899994,0.799988c-0.399994,0.200012-0.799988,0.299988-1.200012,0.299988
			c-0.700012,0-1.299988-0.200012-1.799988-0.600006l0.399994-0.799988c0.399994,0.299988,0.899994,0.5,1.299988,0.5
			c0.600006,0,1-0.200012,1.299988-0.700012s0.5-1,0.5-1.699997c-0.200012,0.300003-0.399994,0.499985-0.700012,0.599991
			s-0.600006,0.200012-1,0.200012c-0.600006,0-1.100006-0.200012-1.5-0.600006s-0.600006-0.899994-0.600006-1.5
			s0.200012-1.199997,0.600006-1.600006C327.899994,252.5,328.5,252.300003,329.200012,252.300003z M330.399994,254.5
			c0-0.399994-0.100006-0.699997-0.399994-0.899994c-0.200012-0.300003-0.5-0.399994-0.899994-0.399994
			s-0.700012,0.100006-0.899994,0.399994C328,253.900009,327.800018,254.200012,327.800018,254.5
			c0,0.399994,0.100006,0.699997,0.399994,0.899994c0.200012,0.199997,0.5,0.399994,0.899994,0.399994
			s0.700012-0.100006,0.899994-0.399994C330.299988,255.199997,330.399994,254.899994,330.399994,254.5z"/>
	</g>
	<g>
		<path class="st9" d="M266.200012,269.899994h0.700012v0.899994h-0.700012v1.600006h-1v-1.600006h-3L262,270.199982
			l3.600006-4.399994h0.700012v4.100006H266.200012z M265.200012,267.5l-2,2.399994h2V267.5z"/>
		<path class="st9" d="M268.399994,272.600006c-0.200012,0-0.299988-0.100006-0.5-0.200012
			c-0.100006-0.100006-0.200012-0.299988-0.200012-0.5s0.100006-0.299988,0.200012-0.399994s0.299988-0.200012,0.5-0.200012
			s0.299988,0.100006,0.399994,0.200012S269,271.799988,269,271.899994c0,0.200012-0.100006,0.299988-0.200012,0.5
			C268.700012,272.5,268.600006,272.600006,268.399994,272.600006z"/>
		<path class="st9" d="M273,269.700012L271.399994,271.5h2.700012v1h-4.200012v-0.899994L272,269.300018l0.5-0.600006
			c0.100006-0.100006,0.200012-0.299988,0.299988-0.5s0.100006-0.399994,0.100006-0.600006
			c0-0.299988-0.100006-0.5-0.299988-0.700012c-0.200012-0.200012-0.5-0.299988-0.799988-0.299988
			c-0.5,0-1,0.200012-1.600006,0.700012l-0.600006-0.700012c0.700012-0.600006,1.399994-1,2.200012-1
			c0.600006,0,1.100006,0.200012,1.5,0.600006s0.600006,0.899994,0.600006,1.399994
			C274,268.299988,273.700012,268.899994,273,269.700012z"/>
	</g>
	<g>
		<path class="st9" d="M265.700012,327.700012l1.899994-1.600006h0.799988v6.700012h-1v-5.299988l-1.200012,0.899994
			L265.700012,327.700012z"/>
		<path class="st9" d="M273.600006,330.200012h0.700012v0.899994h-0.700012v1.600006h-1v-1.600006h-3L269.399994,330.5
			L273,326.100006h0.700012v4.100006H273.600006z M272.600006,327.799988l-2,2.399994h2V327.799988z"/>
		<path class="st9" d="M275.700012,332.899994c-0.200012,0-0.299988-0.100006-0.5-0.200012
			c-0.100006-0.100006-0.200012-0.299988-0.200012-0.5s0.100006-0.299988,0.200012-0.399994s0.299988-0.200012,0.5-0.200012
			s0.299988,0.100006,0.399994,0.200012s0.200012,0.299988,0.200012,0.399994c0,0.200012-0.100006,0.299988-0.200012,0.5
			C276,332.799988,275.899994,332.899994,275.700012,332.899994z"/>
		<path class="st9" d="M279.5,326c0.799988,0,1.399994,0.299988,1.799988,0.899994s0.600006,1.399994,0.600006,2.299988
			c0,0.5-0.100006,1-0.200012,1.399994s-0.299988,0.799988-0.5,1.200012c-0.200012,0.299988-0.5,0.600006-0.899994,0.799988
			c-0.399994,0.200012-0.799988,0.299988-1.200012,0.299988c-0.700012,0-1.299988-0.200012-1.799988-0.600006l0.399994-0.799988
			c0.399994,0.299988,0.899994,0.5,1.299988,0.5c0.600006,0,1-0.200012,1.299988-0.700012s0.5-1,0.5-1.700012
			c-0.200012,0.299988-0.399994,0.5-0.700012,0.600006s-0.600006,0.200012-1,0.200012c-0.600006,0-1.100006-0.200012-1.5-0.600006
			s-0.600006-0.899994-0.600006-1.5s0.200012-1.200012,0.600006-1.600006C278.200012,326.200012,278.799988,326,279.5,326z
			 M280.700012,328.200012c0-0.399994-0.100006-0.700012-0.399994-0.899994c-0.200012-0.299988-0.5-0.399994-0.899994-0.399994
			s-0.700012,0.100006-0.899994,0.399994c-0.200012,0.299988-0.399994,0.600006-0.399994,0.899994
			c0,0.399994,0.100006,0.700012,0.399994,0.899994c0.200012,0.200012,0.5,0.399994,0.899994,0.399994
			s0.700012-0.100006,0.899994-0.399994C280.600006,328.799988,280.700012,328.5,280.700012,328.200012z"/>
	</g>
	<g>
		<path class="st9" d="M347.200012,312c0.600006,0,1.100006,0.200012,1.5,0.600006s0.600006,0.899994,0.600006,1.5
			s-0.200012,1.200012-0.700012,1.600006c-0.399994,0.399994-1,0.600006-1.700012,0.600006
			c-0.799988,0-1.399994-0.299988-1.799988-0.899994S344.5,314.000031,344.5,313.100037
			c0-0.600006,0.100006-1.200012,0.299988-1.799988c0.200012-0.5,0.5-1,0.899994-1.299988c0.399994-0.399994,1-0.5,1.600006-0.5
			c0.700012,0,1.299988,0.200012,1.700012,0.600006l-0.399994,0.799988c-0.399994-0.299988-0.799988-0.399994-1.200012-0.399994
			c-0.399994,0-0.700012,0.100006-1,0.399994c-0.5,0.5-0.799988,1.200012-0.799988,2.100006
			c0.100006-0.299988,0.399994-0.5,0.700012-0.700012S346.799988,312,347.200012,312z M347,315.5
			c0.399994,0,0.700012-0.100006,0.899994-0.399994c0.200012-0.299988,0.399994-0.600006,0.399994-0.899994
			c0-0.399994-0.100006-0.700012-0.399994-0.899994c-0.200012-0.200012-0.5-0.399994-0.899994-0.399994
			s-0.700012,0.100006-0.899994,0.399994c-0.200012,0.200012-0.399994,0.600006-0.399994,0.899994
			c0,0.399994,0.100006,0.700012,0.399994,0.899994C346.299988,315.399994,346.700012,315.5,347,315.5z"/>
		<path class="st9" d="M350.799988,316.5c-0.200012,0-0.299988-0.100006-0.5-0.200012
			c-0.100006-0.100006-0.200012-0.299988-0.200012-0.5s0.100006-0.299988,0.200012-0.399994s0.299988-0.200012,0.5-0.200012
			s0.299988,0.100006,0.399994,0.200012s0.200012,0.299988,0.200012,0.399994c0,0.200012-0.100006,0.299988-0.200012,0.5
			C351.100006,316.399994,350.899994,316.5,350.799988,316.5z"/>
		<path class="st9" d="M351.799988,310.600006v-0.899994H356v0.700012l-2.5,6h-1.100006l2.5-5.700012h-3.100006V310.600006z"/>
	</g>
	<g>
		<path class="st9" d="M358.599915,387.033447c0.799988,0,1.399963,0.299988,1.799988,0.899994
			c0.399963,0.600006,0.599976,1.399994,0.599976,2.299988c0,0.5-0.099976,1-0.200012,1.399994
			c-0.099976,0.399994-0.299988,0.799988-0.5,1.200012c-0.200012,0.299988-0.5,0.600006-0.899963,0.799988
			c-0.400024,0.200012-0.799988,0.299988-1.200012,0.299988c-0.700012,0-1.299988-0.200012-1.799988-0.600006l0.399963-0.799988
			c0.400024,0.299988,0.900024,0.5,1.299988,0.5c0.600037,0,1-0.200012,1.299988-0.700012s0.5-1,0.5-1.700012
			c-0.200012,0.299988-0.399963,0.5-0.700012,0.600006c-0.299988,0.100006-0.599976,0.200012-1,0.200012
			c-0.599976,0-1.099976-0.200012-1.5-0.600006c-0.399963-0.399994-0.599976-0.899994-0.599976-1.5
			s0.200012-1.200012,0.599976-1.600006C357.399902,387.233429,357.999939,387.033447,358.599915,387.033447z
			 M359.899902,389.233429c0-0.399994-0.099976-0.700012-0.399963-0.899994c-0.200012-0.299988-0.5-0.399994-0.900024-0.399994
			c-0.399963,0-0.700012,0.100006-0.899963,0.399994c-0.200012,0.299988-0.400024,0.600006-0.400024,0.899994
			c0,0.399994,0.100037,0.700012,0.400024,0.899994c0.200012,0.200012,0.5,0.399994,0.899963,0.399994
			c0.400024,0,0.700012-0.100006,0.900024-0.399994C359.799927,389.933441,359.899902,389.633423,359.899902,389.233429z"/>
		<path class="st9" d="M362.399902,393.933441c-0.200012,0-0.299988-0.100006-0.5-0.200012
			c-0.099976-0.100006-0.200012-0.299988-0.200012-0.5s0.100037-0.299988,0.200012-0.399994
			c0.100037-0.100006,0.299988-0.200012,0.5-0.200012s0.299988,0.100006,0.400024,0.200012
			c0.099976,0.100006,0.200012,0.299988,0.200012,0.399994c0,0.200012-0.100037,0.299988-0.200012,0.5
			C362.69989,393.833435,362.499939,393.933441,362.399902,393.933441z"/>
		<path class="st9" d="M365.999939,389.433441c0.599976,0,1.200012,0.200012,1.599976,0.600006
			c0.400024,0.399994,0.600037,0.899994,0.600037,1.600006s-0.200012,1.200012-0.700012,1.600006
			c-0.400024,0.399994-1,0.600006-1.700012,0.600006c-0.799988,0-1.5-0.299988-2.200012-0.799988l0.5-0.799988
			c0.599976,0.399994,1.099976,0.600006,1.700012,0.600006c0.399963,0,0.700012-0.100006,1-0.399994
			c0.299988-0.200012,0.399963-0.5,0.399963-0.899994s-0.099976-0.700012-0.399963-0.899994
			c-0.200012-0.200012-0.600037-0.399994-1-0.399994c-0.5,0-0.900024,0.200012-1.200012,0.5l-0.600037-0.399994l0.400024-3.299988
			h3.399963v0.899994h-2.599976l-0.200012,1.600006C365.299927,389.533447,365.69989,389.433441,365.999939,389.433441z"/>
	</g>
	<g>
		<path class="st9" d="M433.700012,348l1.899994-1.600006h0.799988v6.700012h-1v-5.299988l-1.200012,0.899994L433.700012,348z"/>
		<path class="st9" d="M439.5,353.200012c-0.700012,0-1.399994-0.200012-2.100006-0.700012l0.5-0.799988
			c0.600006,0.399994,1.100006,0.5,1.600006,0.5c0.399994,0,0.700012-0.100006,0.899994-0.299988
			c0.200012-0.200012,0.299988-0.399994,0.299988-0.799988c0-0.299988-0.100006-0.600006-0.399994-0.799988
			c-0.200012-0.200012-0.5-0.299988-0.899994-0.299988h-0.799988v-0.899994h0.799988
			c0.299988,0,0.600006-0.100006,0.799988-0.299988c0.200012-0.200012,0.299988-0.399994,0.299988-0.700012
			c0-0.299988-0.100006-0.5-0.299988-0.700012s-0.5-0.299988-0.799988-0.299988C439,347.100067,438.5,347.300079,438,347.700073
			l-0.5-0.700012c0.200012-0.200012,0.600006-0.399994,0.899994-0.600006c0.399994-0.100006,0.700012-0.200012,1.100006-0.200012
			c0.600006,0,1.100006,0.200012,1.5,0.5s0.600006,0.799988,0.600006,1.200012c0,0.399994-0.100006,0.700012-0.299988,0.899994
			c-0.200012,0.299988-0.5,0.5-0.799988,0.600006l0,0c0.399994,0.100006,0.700012,0.299988,1,0.600006
			c0.200012,0.299988,0.299988,0.600006,0.299988,1.100006c0,0.600006-0.200012,1-0.600006,1.399994
			C440.799988,353,440.200012,353.200012,439.5,353.200012z"/>
		<path class="st9" d="M443.299988,353.200012c-0.200012,0-0.299988-0.100006-0.5-0.200012s-0.200012-0.299988-0.200012-0.5
			s0.100006-0.299988,0.200012-0.399994s0.299988-0.200012,0.5-0.200012s0.299988,0.100006,0.399994,0.200012
			s0.200012,0.299988,0.200012,0.399994c0,0.200012-0.100006,0.299988-0.200012,0.5S443.5,353.200012,443.299988,353.200012z"/>
		<path class="st9" d="M447,348.799988c0.600006,0,1.200012,0.200012,1.600006,0.600006s0.600006,0.899994,0.600006,1.600006
			S449,352.200012,448.5,352.600006c-0.399994,0.399994-1,0.600006-1.700012,0.600006c-0.799988,0-1.5-0.299988-2.200012-0.799988
			l0.5-0.799988c0.600006,0.399994,1.100006,0.600006,1.700012,0.600006c0.399994,0,0.700012-0.100006,1-0.399994
			c0.299988-0.200012,0.399994-0.5,0.399994-0.899994s-0.100006-0.700012-0.399994-0.899994
			c-0.200012-0.200012-0.600006-0.399994-1-0.399994c-0.5,0-0.899994,0.200012-1.200012,0.5l-0.600006-0.399994l0.399994-3.299988
			h3.399994v0.899994h-2.600006L446,349C446.299988,348.799988,446.700012,348.799988,447,348.799988z"/>
	</g>
</g>
<g id="street_anchors" class="st16">
	<rect id="street_anchor_01" x="355" y="450" class="st17" width="10" height="10"/>
	<rect id="street_anchor_02" x="515.200012" y="235" class="st17" width="10" height="10"/>
</g>
</svg>
