<svg width="900" height="600" viewBox="0 0 900 600" fill="none" xmlns="http://www.w3.org/2000/svg">
<path d="M254.531 80.625L557.451 80.6251L557.451 386.955L642.968 386.955L642.968 519.471L254.531 519.471L254.531 80.625Z" fill="#DBD4CA"/>
<mask id="mask0" mask-type="alpha" maskUnits="userSpaceOnUse" x="375" y="248" width="73" height="125">
<rect x="375" y="248.75" width="72.5" height="123.75" fill="#C4C4C4"/>
</mask>
<g mask="url(#mask0)">
<g opacity="0.3">
<path opacity="0.7" d="M606.407 87.1309L203.708 87.1309L203.708 489.83L606.407 489.83L606.407 87.1309Z" fill="#C49F8A"/>
</g>
<path d="M424.598 412.234L281.304 268.94" stroke="#C49F8A" stroke-miterlimit="10"/>
<path d="M411.571 425.26L268.277 281.967" stroke="#C49F8A" stroke-miterlimit="10"/>
<path d="M437.624 399.207L294.331 255.914" stroke="#C49F8A" stroke-miterlimit="10"/>
<path d="M450.651 386.18L307.357 242.887" stroke="#C49F8A" stroke-miterlimit="10"/>
<path d="M463.678 373.154L320.384 229.86" stroke="#C49F8A" stroke-miterlimit="10"/>
<path d="M476.704 360.127L333.411 216.833" stroke="#C49F8A" stroke-miterlimit="10"/>
<path d="M489.731 347.1L346.437 203.807" stroke="#C49F8A" stroke-miterlimit="10"/>
<path d="M502.758 334.073L359.464 190.78" stroke="#C49F8A" stroke-miterlimit="10"/>
<path d="M515.784 321.047L372.491 177.753" stroke="#C49F8A" stroke-miterlimit="10"/>
<path d="M528.811 308.02L385.517 164.727" stroke="#C49F8A" stroke-miterlimit="10"/>
<path d="M515.784 321.047L372.491 177.753" stroke="#C49F8A" stroke-miterlimit="10"/>
<path d="M541.838 294.993L398.544 151.7" stroke="#C49F8A" stroke-miterlimit="10"/>
<path d="M528.811 281.966L398.544 412.233" stroke="#C49F8A" stroke-miterlimit="10"/>
<path d="M541.837 294.993L411.571 425.26" stroke="#C49F8A" stroke-miterlimit="10"/>
<path d="M515.784 268.94L385.517 399.207" stroke="#C49F8A" stroke-miterlimit="10"/>
<path d="M502.757 255.913L372.491 386.18" stroke="#C49F8A" stroke-miterlimit="10"/>
<path d="M489.731 242.886L359.464 373.153" stroke="#C49F8A" stroke-miterlimit="10"/>
<path d="M476.704 229.86L346.437 360.127" stroke="#C49F8A" stroke-miterlimit="10"/>
<path d="M463.677 216.833L333.41 347.1" stroke="#C49F8A" stroke-miterlimit="10"/>
<path d="M450.651 203.807L320.384 334.073" stroke="#C49F8A" stroke-miterlimit="10"/>
<path d="M437.624 190.78L307.357 321.047" stroke="#C49F8A" stroke-miterlimit="10"/>
<path d="M424.597 177.753L294.33 308.02" stroke="#C49F8A" stroke-miterlimit="10"/>
<path d="M437.624 190.78L307.357 321.047" stroke="#C49F8A" stroke-miterlimit="10"/>
<path d="M411.571 164.727L281.304 294.993" stroke="#C49F8A" stroke-miterlimit="10"/>
<path d="M398.544 151.7L268.277 281.967" stroke="#C49F8A" stroke-miterlimit="10"/>
</g>
<mask id="mask1" mask-type="alpha" maskUnits="userSpaceOnUse" x="502" y="248" width="47" height="69">
<rect x="502.5" y="248.75" width="46.25" height="67.5" fill="#C4C4C4"/>
</mask>
<g mask="url(#mask1)">
<g opacity="0.3">
<path opacity="0.7" d="M627.2 191.812L436.041 191.812L436.041 382.971L627.2 382.971L627.2 191.812Z" fill="#C49F8A"/>
</g>
<path d="M551.16 411.145L407.867 267.851" stroke="#C49F8A" stroke-miterlimit="10"/>
<path d="M538.134 424.172L394.84 280.878" stroke="#C49F8A" stroke-miterlimit="10"/>
<path d="M564.187 398.118L420.893 254.825" stroke="#C49F8A" stroke-miterlimit="10"/>
<path d="M577.214 385.092L433.92 241.798" stroke="#C49F8A" stroke-miterlimit="10"/>
<path d="M590.24 372.065L446.947 228.771" stroke="#C49F8A" stroke-miterlimit="10"/>
<path d="M603.267 359.038L459.974 215.745" stroke="#C49F8A" stroke-miterlimit="10"/>
<path d="M616.294 346.011L473 202.718" stroke="#C49F8A" stroke-miterlimit="10"/>
<path d="M629.32 332.985L486.027 189.691" stroke="#C49F8A" stroke-miterlimit="10"/>
<path d="M642.347 319.958L499.054 176.665" stroke="#C49F8A" stroke-miterlimit="10"/>
<path d="M655.374 306.931L512.08 163.638" stroke="#C49F8A" stroke-miterlimit="10"/>
<path d="M642.347 319.958L499.054 176.665" stroke="#C49F8A" stroke-miterlimit="10"/>
<path d="M668.401 293.904L525.107 150.611" stroke="#C49F8A" stroke-miterlimit="10"/>
<path d="M655.374 280.877L525.107 411.144" stroke="#C49F8A" stroke-miterlimit="10"/>
<path d="M668.4 293.904L538.133 424.171" stroke="#C49F8A" stroke-miterlimit="10"/>
<path d="M642.347 267.851L512.08 398.118" stroke="#C49F8A" stroke-miterlimit="10"/>
<path d="M629.32 254.824L499.053 385.091" stroke="#C49F8A" stroke-miterlimit="10"/>
<path d="M616.294 241.797L486.027 372.064" stroke="#C49F8A" stroke-miterlimit="10"/>
<path d="M603.267 228.771L473 359.038" stroke="#C49F8A" stroke-miterlimit="10"/>
<path d="M590.24 215.744L459.973 346.011" stroke="#C49F8A" stroke-miterlimit="10"/>
<path d="M577.213 202.718L446.947 332.985" stroke="#C49F8A" stroke-miterlimit="10"/>
<path d="M564.187 189.691L433.92 319.958" stroke="#C49F8A" stroke-miterlimit="10"/>
<path d="M551.16 176.664L420.893 306.931" stroke="#C49F8A" stroke-miterlimit="10"/>
<path d="M564.187 189.691L433.92 319.958" stroke="#C49F8A" stroke-miterlimit="10"/>
<path d="M538.133 163.638L407.867 293.905" stroke="#C49F8A" stroke-miterlimit="10"/>
<path d="M525.107 150.611L394.84 280.878" stroke="#C49F8A" stroke-miterlimit="10"/>
</g>
<mask id="mask2" mask-type="alpha" maskUnits="userSpaceOnUse" x="374" y="450" width="69" height="62">
<rect x="375" y="450" width="67.5" height="61.25" fill="#C4C4C4"/>
</mask>
<g mask="url(#mask2)">
<g opacity="0.3">
<path opacity="0.7" d="M498.702 392.622L307.543 392.622L307.543 583.781L498.702 583.781L498.702 392.622Z" fill="#C49F8A"/>
</g>
<path d="M422.663 611.955L279.369 468.662" stroke="#C49F8A" stroke-miterlimit="10"/>
<path d="M409.636 624.982L266.343 481.688" stroke="#C49F8A" stroke-miterlimit="10"/>
<path d="M435.69 598.929L292.396 455.635" stroke="#C49F8A" stroke-miterlimit="10"/>
<path d="M448.716 585.902L305.423 442.608" stroke="#C49F8A" stroke-miterlimit="10"/>
<path d="M461.743 572.875L318.449 429.582" stroke="#C49F8A" stroke-miterlimit="10"/>
<path d="M474.77 559.849L331.476 416.555" stroke="#C49F8A" stroke-miterlimit="10"/>
<path d="M487.796 546.822L344.503 403.528" stroke="#C49F8A" stroke-miterlimit="10"/>
<path d="M500.823 533.795L357.529 390.501" stroke="#C49F8A" stroke-miterlimit="10"/>
<path d="M513.85 520.769L370.556 377.475" stroke="#C49F8A" stroke-miterlimit="10"/>
<path d="M526.876 507.742L383.583 364.448" stroke="#C49F8A" stroke-miterlimit="10"/>
<path d="M513.85 520.769L370.556 377.475" stroke="#C49F8A" stroke-miterlimit="10"/>
<path d="M539.903 494.715L396.61 351.421" stroke="#C49F8A" stroke-miterlimit="10"/>
<path d="M526.876 481.688L396.609 611.955" stroke="#C49F8A" stroke-miterlimit="10"/>
<path d="M539.903 494.715L409.636 624.982" stroke="#C49F8A" stroke-miterlimit="10"/>
<path d="M513.85 468.662L383.583 598.928" stroke="#C49F8A" stroke-miterlimit="10"/>
<path d="M500.823 455.635L370.556 585.902" stroke="#C49F8A" stroke-miterlimit="10"/>
<path d="M487.796 442.608L357.529 572.875" stroke="#C49F8A" stroke-miterlimit="10"/>
<path d="M474.77 429.582L344.503 559.848" stroke="#C49F8A" stroke-miterlimit="10"/>
<path d="M461.743 416.555L331.476 546.822" stroke="#C49F8A" stroke-miterlimit="10"/>
<path d="M448.716 403.528L318.449 533.795" stroke="#C49F8A" stroke-miterlimit="10"/>
<path d="M435.689 390.501L305.423 520.768" stroke="#C49F8A" stroke-miterlimit="10"/>
<path d="M422.663 377.475L292.396 507.741" stroke="#C49F8A" stroke-miterlimit="10"/>
<path d="M435.689 390.501L305.423 520.768" stroke="#C49F8A" stroke-miterlimit="10"/>
<path d="M409.636 364.448L279.369 494.715" stroke="#C49F8A" stroke-miterlimit="10"/>
<path d="M396.609 351.421L266.343 481.688" stroke="#C49F8A" stroke-miterlimit="10"/>
</g>
<path d="M557.451 353.434C561.365 353.434 564.567 352.723 568.125 351.299C571.684 349.876 574.886 347.741 577.377 345.25C580.224 342.759 582.359 339.556 583.782 335.998C585.205 332.44 585.917 328.881 585.917 324.967L557.451 324.967M375.469 220.866C372.438 220.866 369.958 220.315 367.202 219.212C364.446 218.11 361.966 216.457 360.037 214.528C357.832 212.598 356.178 210.118 355.076 207.362C353.974 204.607 353.422 201.851 353.422 198.819L375.469 198.819L375.469 220.866ZM375.469 189.625C372.438 189.625 369.958 189.074 367.202 187.971C364.446 186.869 361.966 185.215 360.037 183.286C357.832 181.357 356.178 178.877 355.076 176.121C353.974 173.365 353.422 170.61 353.422 167.578L375.469 167.578L375.469 189.625ZM375.469 269.685C372.375 269.685 369.844 270.247 367.031 271.372C364.219 272.497 361.688 274.185 359.719 276.153C357.469 278.122 355.781 280.653 354.656 283.466C353.532 286.278 352.969 289.091 352.969 292.185L375.469 292.185L375.469 269.685ZM375.469 400.277C372.375 400.277 369.844 399.715 367.031 398.589C364.219 397.465 361.688 395.777 359.719 393.808C357.469 391.839 355.781 389.308 354.656 386.496C353.532 383.683 352.969 380.871 352.969 377.777L375.469 377.777L375.469 400.277ZM442.969 467.821C446.063 467.821 448.594 468.384 451.406 469.509C454.219 470.634 456.75 472.321 458.719 474.29C460.969 476.259 462.657 478.79 463.781 481.603C464.906 484.415 465.469 487.228 465.469 490.321L442.969 490.321L442.969 467.821ZM579.976 478.762C583.07 478.762 585.601 478.199 588.413 477.074C591.226 475.949 593.757 474.262 595.726 472.293C597.976 470.324 599.664 467.793 600.788 464.98C601.913 462.168 602.476 459.355 602.476 456.262L579.976 456.262L579.976 478.762ZM415.736 373.125C415.736 376.219 415.174 378.75 414.049 381.562C412.924 384.375 411.236 386.906 409.267 388.875C407.299 391.125 404.767 392.812 401.955 393.937C399.143 395.062 396.33 395.625 393.236 395.625L393.236 373.125L415.736 373.125ZM392.932 409.699C392.932 412.793 393.494 415.324 394.619 418.136C395.744 420.949 397.432 423.48 399.4 425.449C401.369 427.699 403.9 429.387 406.713 430.511C409.525 431.636 412.338 432.199 415.432 432.199L415.431 409.699L392.932 409.699ZM478.159 409.699C478.159 412.793 477.597 415.324 476.472 418.136C475.347 420.949 473.659 423.48 471.691 425.449C469.722 427.699 467.191 429.387 464.378 430.511C461.566 431.636 458.753 432.199 455.66 432.199L455.66 409.699L478.159 409.699ZM502.032 292.403C499.112 292.403 496.723 291.873 494.068 290.811C491.413 289.749 489.024 288.156 487.166 286.298C485.042 284.44 483.45 282.05 482.388 279.396C481.326 276.741 480.795 274.087 480.795 271.167L502.032 271.167L502.032 292.403Z" stroke="#565440"/>
<path d="M250.313 76.4064L250.313 344.766L250.313 523.594L531.563 523.594L531.563 519.375L254.531 519.375L254.531 519.375L254.531 315.75L254.531 80.6251L554.387 80.6251L554.387 80.6249L554.387 76.4063L250.313 76.4064Z" stroke="#565440"/>
<path d="M488.486 75L470.05 75L470.05 89.0626L488.486 89.0626L488.486 75Z" fill="#565440"/>
<path d="M262.969 196.13L375.469 196.13L375.469 198.82L378.281 198.82L378.282 189.625L375.47 189.625L375.47 193.317L262.969 193.317L262.969 159.375L265.767 159.375L265.767 139.688L248.906 139.688L248.906 218.438L262.969 218.438L262.969 196.13Z" fill="#565440"/>
<path d="M375.469 167.578L378.281 167.578L378.281 89.0626L381.799 89.0626L381.799 91.8609L406.406 91.8609L406.406 89.0626L430.208 89.0626L430.208 75L350.859 75L350.859 89.0626L375.469 89.0626L375.469 167.578Z" fill="#565440"/>
<path d="M310.781 75L291.094 75L291.094 91.8609L310.781 91.8609L310.781 75Z" fill="#565440"/>
<path d="M549.013 324.967L557.451 324.967L557.451 75L528.433 75L528.433 89.0626L549.013 89.0626L549.013 89.0963L549.013 237.311L539.648 237.311L539.648 237.387L539.648 240.123L539.648 246.867L502.799 246.867L502.799 246.867L502.032 246.867L502.032 271.167L504.844 271.167L504.844 249.679L549.013 249.679L549.013 315.078L504.844 315.078L504.844 292.185L502.032 292.185L502.032 315.078L502.032 317.891L549.013 317.891L549.013 324.967ZM542.461 246.867L542.461 240.123L549.013 240.123L549.013 246.867L542.461 246.867Z" fill="#565440"/>
<path d="M262.969 409.699L392.932 409.699L392.932 406.887L378.281 406.887L378.281 400.277L375.469 400.277L375.469 406.887L262.969 406.887L262.969 378.75L248.906 378.75L248.906 457.5L265.767 457.5L265.767 437.813L262.969 437.813L262.969 409.699Z" fill="#565440"/>
<path d="M262.969 319.688L375.469 319.687L375.469 377.777L378.281 377.777L378.281 373.125L393.236 373.125L393.236 370.313L378.281 370.313L378.281 329.69L388.277 329.69L388.277 328.625L388.277 328.625L388.277 319.687L446.227 319.687L446.227 370.312L415.736 370.312L415.736 373.125L449.04 373.125L449.04 319.687L449.04 318.586L449.04 315.078L449.04 311.25L449.04 246.867L378.281 246.867L378.281 219.885L375.469 219.885L375.469 269.685L378.281 269.685L378.281 249.679L446.227 249.679L446.227 311.25L388.277 311.25L388.277 302.142L388.277 302.142L388.277 301.077L378.281 301.077L378.281 292.185L375.469 292.185L375.469 311.25L265.767 311.25L265.767 293.145L262.969 293.145L262.969 259.524L248.906 259.524L248.906 336.606L262.969 336.606L262.969 319.688ZM385.465 326.878L378.281 326.878L378.281 319.687L385.465 319.687L385.465 326.878ZM385.465 303.89L385.465 311.25L378.281 311.25L378.281 303.89L385.465 303.89Z" fill="#565440"/>
<path d="M310.781 508.139L291.094 508.139L291.094 525L310.781 525L310.781 508.139Z" fill="#565440"/>
<path d="M490.781 510.938L471.094 510.938L471.094 525L490.781 525L490.781 510.938Z" fill="#565440"/>
<path d="M415.53 409.699L440.156 409.699L440.156 447.701L372.656 447.701L372.656 510.937L364.219 510.937L364.219 525L442.969 525L442.969 490.322L440.156 490.322L440.156 508.139L423.281 508.139L423.281 510.937L388.041 510.937L388.041 498.892L388.041 497.144L388.041 496.079L375.469 496.079L375.469 450.514L440.156 450.514L440.156 467.822L442.969 467.822L442.969 409.699L455.66 409.699L455.66 406.887L415.53 406.887L415.53 409.699ZM385.229 498.892L385.229 510.937L375.469 510.937L375.469 498.892L385.229 498.892Z" fill="#565440"/>
<path d="M651.094 384.375L557.451 384.375L557.451 353.435L549.013 353.435L549.013 390L479.404 390L479.404 406.887L478.159 406.887L478.159 409.699L482.217 409.699L482.217 406.887L482.216 406.887L482.216 392.812L577.187 392.812L577.187 456.262L580 456.262L580 392.812L627.2 392.812L627.2 400.047L627.2 401.794L627.2 402.859L637.031 402.859L637.031 508.139L579.976 508.139L579.976 478.762L577.163 478.762L577.163 508.139L530.156 508.139L530.156 525L651.094 525L651.094 505.312L651.094 384.375ZM630.012 400.047L630.012 392.812L637.031 392.813L637.031 400.047L630.012 400.047Z" fill="#565440"/>
<path d="M304 159.149L306.419 157.146L307.42 157.146L307.42 165.46L306.137 165.46L306.137 158.89L304.698 160.059L304 159.149Z" fill="#565440"/>
<path d="M312.865 162.028L310.818 164.267L314.248 164.267L314.248 165.459L308.984 165.459L308.984 164.379L311.628 161.567L312.257 160.87C312.415 160.689 312.555 160.468 312.679 160.206C312.803 159.943 312.865 159.708 312.865 159.498C312.865 159.122 312.732 158.813 312.466 158.569C312.199 158.326 311.867 158.204 311.47 158.204C310.825 158.204 310.169 158.515 309.501 159.137L308.792 158.215C309.617 157.404 310.528 157 311.526 157C312.291 157 312.917 157.232 313.405 157.697C313.9 158.162 314.147 158.765 314.147 159.509C314.147 160.265 313.72 161.105 312.865 162.028Z" fill="#565440"/>
<path d="M316.138 165.639C315.913 165.639 315.724 165.564 315.57 165.414C315.417 165.264 315.34 165.077 315.34 164.852C315.34 164.634 315.417 164.451 315.57 164.301C315.724 164.151 315.913 164.075 316.138 164.075C316.356 164.075 316.54 164.151 316.69 164.301C316.839 164.451 316.914 164.634 316.914 164.852C316.914 165.077 316.839 165.264 316.69 165.414C316.54 165.564 316.356 165.639 316.138 165.639Z" fill="#565440"/>
<path d="M321.111 160.093C321.861 160.093 322.491 160.348 323.001 160.859C323.503 161.36 323.755 161.999 323.755 162.77C323.755 163.581 323.481 164.249 322.933 164.773C322.4 165.298 321.711 165.561 320.863 165.561C319.881 165.561 319.117 165.18 318.574 164.419C318.03 163.658 317.77 162.703 317.792 161.556C317.792 160.761 317.912 160.026 318.152 159.351C318.392 158.676 318.782 158.117 319.322 157.675C319.877 157.225 320.533 157 321.291 157C322.138 157 322.862 157.236 323.462 157.708L322.911 158.676C322.431 158.316 321.917 158.135 321.369 158.135C320.874 158.135 320.439 158.305 320.064 158.642C319.397 159.257 319.056 160.124 319.041 161.241C319.228 160.881 319.504 160.6 319.867 160.397C320.231 160.195 320.646 160.093 321.111 160.093ZM320.874 164.424C321.324 164.424 321.703 164.267 322.011 163.952C322.318 163.63 322.472 163.239 322.472 162.782C322.472 162.332 322.318 161.954 322.011 161.646C321.711 161.346 321.336 161.196 320.885 161.196C320.42 161.196 320.038 161.346 319.738 161.646C319.43 161.954 319.277 162.336 319.277 162.793C319.277 163.243 319.43 163.63 319.738 163.952C320.046 164.267 320.425 164.424 320.874 164.424Z" fill="#565440"/>
<path d="M307.892 236.374L310.311 234.371L311.312 234.371L311.312 242.685L310.029 242.685L310.029 236.115L308.589 237.285L307.892 236.374Z" fill="#565440"/>
<path d="M316.757 239.254L314.709 241.492L318.14 241.492L318.14 242.685L312.875 242.685L312.875 241.605L315.519 238.792L316.149 238.095C316.307 237.915 316.447 237.694 316.571 237.431C316.695 237.169 316.757 236.933 316.757 236.723C316.757 236.347 316.624 236.038 316.357 235.794C316.091 235.551 315.759 235.429 315.362 235.429C314.717 235.429 314.061 235.74 313.393 236.363L312.684 235.44C313.509 234.63 314.42 234.226 315.418 234.226C316.183 234.226 316.809 234.458 317.297 234.923C317.792 235.388 318.039 235.991 318.039 236.734C318.039 237.491 317.612 238.331 316.757 239.254Z" fill="#565440"/>
<path d="M320.03 242.865C319.805 242.865 319.615 242.79 319.462 242.64C319.308 242.49 319.232 242.303 319.232 242.077C319.232 241.86 319.308 241.677 319.462 241.527C319.615 241.376 319.805 241.301 320.03 241.301C320.248 241.301 320.432 241.376 320.582 241.527C320.731 241.677 320.806 241.86 320.806 242.077C320.806 242.303 320.731 242.49 320.582 242.64C320.432 242.79 320.248 242.865 320.03 242.865Z" fill="#565440"/>
<path d="M325.002 237.319C325.753 237.319 326.382 237.574 326.893 238.084C327.395 238.586 327.646 239.224 327.646 239.996C327.646 240.806 327.372 241.474 326.825 241.999C326.292 242.524 325.602 242.786 324.755 242.786C323.773 242.786 323.009 242.406 322.466 241.645C321.922 240.883 321.661 239.929 321.684 238.781C321.684 237.987 321.804 237.252 322.043 236.577C322.284 235.902 322.674 235.343 323.214 234.901C323.769 234.45 324.425 234.226 325.182 234.226C326.03 234.226 326.754 234.461 327.354 234.934L326.802 235.902C326.323 235.542 325.809 235.361 325.261 235.361C324.766 235.361 324.331 235.531 323.956 235.867C323.289 236.483 322.947 237.349 322.933 238.466C323.12 238.106 323.395 237.825 323.759 237.623C324.123 237.42 324.537 237.319 325.002 237.319ZM324.766 241.65C325.216 241.65 325.595 241.492 325.903 241.177C326.21 240.855 326.364 240.465 326.364 240.008C326.364 239.558 326.21 239.179 325.903 238.872C325.602 238.571 325.228 238.421 324.777 238.421C324.312 238.421 323.93 238.571 323.63 238.872C323.322 239.179 323.169 239.561 323.169 240.019C323.169 240.468 323.322 240.855 323.63 241.177C323.937 241.492 324.316 241.65 324.766 241.65Z" fill="#565440"/>
<path d="M309.66 389.314L312.079 387.311L313.08 387.311L313.08 395.625L311.797 395.625L311.797 389.055L310.358 390.224L309.66 389.314Z" fill="#565440"/>
<path d="M318.525 392.194L316.478 394.432L319.908 394.432L319.908 395.625L314.643 395.625L314.643 394.545L317.288 391.732L317.917 391.035C318.075 390.854 318.215 390.634 318.339 390.371C318.463 390.109 318.525 389.873 318.525 389.663C318.525 389.287 318.392 388.978 318.126 388.734C317.859 388.491 317.527 388.369 317.13 388.369C316.485 388.369 315.829 388.68 315.161 389.303L314.452 388.38C315.277 387.57 316.188 387.166 317.186 387.166C317.951 387.166 318.577 387.397 319.065 387.863C319.56 388.328 319.807 388.931 319.807 389.674C319.807 390.431 319.38 391.271 318.525 392.194Z" fill="#565440"/>
<path d="M306 488.149L308.419 486.146L309.42 486.146L309.42 494.46L308.137 494.46L308.137 487.89L306.698 489.059L306 488.149Z" fill="#565440"/>
<path d="M313.245 494.595C312.33 494.595 311.46 494.32 310.635 493.773L311.209 492.727C311.921 493.177 312.585 493.402 313.2 493.402C313.687 493.402 314.074 493.284 314.359 493.047C314.644 492.812 314.786 492.498 314.786 492.108C314.786 491.718 314.64 491.402 314.347 491.157C314.055 490.915 313.676 490.792 313.211 490.792L312.176 490.792L312.176 489.622L313.166 489.622C313.601 489.622 313.953 489.51 314.224 489.285C314.494 489.059 314.629 488.764 314.629 488.396C314.629 488.036 314.497 487.747 314.235 487.53C313.972 487.312 313.642 487.204 313.245 487.204C312.689 487.204 312.101 487.436 311.479 487.901L310.826 486.99C311.134 486.682 311.514 486.441 311.968 486.264C312.422 486.088 312.888 486 313.369 486C314.111 486 314.726 486.21 315.214 486.63C315.701 487.05 315.945 487.567 315.945 488.181C315.945 488.625 315.814 489.016 315.551 489.358C315.288 489.699 314.943 489.937 314.516 490.072L314.516 490.117C315.026 490.237 315.423 490.479 315.709 490.843C315.993 491.206 316.136 491.647 316.136 492.165C316.136 492.87 315.866 493.455 315.326 493.92C314.793 494.369 314.1 494.595 313.245 494.595Z" fill="#565440"/>
<path d="M318.037 494.639C317.812 494.639 317.622 494.564 317.469 494.414C317.315 494.264 317.238 494.077 317.238 493.852C317.238 493.634 317.315 493.451 317.469 493.301C317.622 493.151 317.812 493.075 318.037 493.075C318.255 493.075 318.438 493.151 318.589 493.301C318.738 493.451 318.813 493.634 318.813 493.852C318.813 494.077 318.738 494.264 318.589 494.414C318.438 494.564 318.255 494.639 318.037 494.639Z" fill="#565440"/>
<path d="M319.387 487.316L319.387 486.146L324.674 486.146L324.674 486.967L321.524 494.46L320.152 494.46L323.223 487.316L319.387 487.316Z" fill="#565440"/>
<path d="M409.57 487.173L410.492 487.173L410.492 488.286L409.57 488.286L409.57 490.323L408.332 490.323L408.332 488.286L404.53 488.286L404.271 487.476L408.749 482.008L409.57 482.008L409.57 487.173ZM408.332 484.169L405.88 487.173L408.332 487.173L408.332 484.169Z" fill="#565440"/>
<path d="M385.303 432.615L383.256 434.854L386.687 434.854L386.687 436.046L381.422 436.046L381.422 434.966L384.066 432.154L384.696 431.457C384.853 431.276 384.994 431.055 385.118 430.792C385.242 430.53 385.303 430.294 385.303 430.084C385.303 429.708 385.17 429.4 384.904 429.156C384.638 428.913 384.306 428.791 383.909 428.791C383.263 428.791 382.607 429.102 381.94 429.724L381.231 428.802C382.056 427.991 382.967 427.587 383.965 427.587C384.73 427.587 385.356 427.819 385.843 428.284C386.338 428.749 386.586 429.352 386.586 430.095C386.586 430.852 386.158 431.692 385.303 432.615Z" fill="#565440"/>
<path d="M388.577 436.226C388.352 436.226 388.162 436.151 388.009 436.001C387.855 435.851 387.778 435.664 387.778 435.438C387.778 435.221 387.855 435.038 388.009 434.888C388.162 434.738 388.352 434.662 388.577 434.662C388.794 434.662 388.978 434.738 389.128 434.888C389.278 435.038 389.353 435.221 389.353 435.438C389.353 435.664 389.278 435.851 389.128 436.001C388.978 436.151 388.794 436.226 388.577 436.226Z" fill="#565440"/>
<path d="M393.549 430.68C394.299 430.68 394.929 430.935 395.439 431.446C395.942 431.947 396.193 432.586 396.193 433.357C396.193 434.168 395.919 434.835 395.372 435.36C394.839 435.885 394.149 436.148 393.302 436.148C392.319 436.148 391.556 435.767 391.013 435.006C390.469 434.245 390.208 433.29 390.231 432.143C390.231 431.348 390.35 430.613 390.59 429.938C390.831 429.263 391.221 428.704 391.76 428.262C392.316 427.812 392.972 427.587 393.729 427.587C394.576 427.587 395.3 427.823 395.9 428.295L395.349 429.263C394.869 428.903 394.355 428.722 393.808 428.722C393.313 428.722 392.878 428.892 392.503 429.229C391.835 429.844 391.494 430.711 391.479 431.828C391.667 431.468 391.942 431.187 392.306 430.984C392.67 430.781 393.084 430.68 393.549 430.68ZM393.313 435.011C393.763 435.011 394.142 434.854 394.449 434.539C394.756 434.217 394.91 433.826 394.91 433.369C394.91 432.919 394.756 432.541 394.449 432.233C394.149 431.933 393.774 431.782 393.324 431.782C392.859 431.782 392.477 431.933 392.176 432.233C391.869 432.541 391.716 432.923 391.716 433.38C391.716 433.83 391.869 434.217 392.176 434.539C392.484 434.854 392.863 435.011 393.313 435.011Z" fill="#565440"/>
<path d="M513.072 478.028L511.025 480.267L514.457 480.267L514.457 481.459L509.192 481.459L509.192 480.379L511.836 477.567L512.466 476.87C512.623 476.689 512.763 476.468 512.887 476.206C513.011 475.943 513.072 475.708 513.072 475.498C513.072 475.122 512.939 474.813 512.673 474.569C512.407 474.326 512.075 474.204 511.678 474.204C511.032 474.204 510.377 474.515 509.709 475.137L509 474.215C509.825 473.404 510.736 473 511.734 473C512.499 473 513.125 473.232 513.613 473.697C514.107 474.162 514.355 474.765 514.355 475.509C514.355 476.265 513.928 477.105 513.072 478.028Z" fill="#565440"/>
<path d="M515.03 475.149L517.448 473.146L518.449 473.146L518.449 481.46L517.168 481.46L517.168 474.89L515.727 476.059L515.03 475.149Z" fill="#565440"/>
<path d="M520.801 481.639C520.576 481.639 520.387 481.564 520.233 481.414C520.079 481.264 520.002 481.077 520.002 480.852C520.002 480.634 520.079 480.451 520.233 480.301C520.387 480.151 520.576 480.075 520.801 480.075C521.019 480.075 521.202 480.151 521.352 480.301C521.502 480.451 521.577 480.634 521.577 480.852C521.577 481.077 521.502 481.264 521.352 481.414C521.202 481.564 521.019 481.639 520.801 481.639Z" fill="#565440"/>
<path d="M521.6 475.149L524.018 473.146L525.019 473.146L525.019 481.46L523.738 481.46L523.738 474.89L522.297 476.059L521.6 475.149Z" fill="#565440"/>
<path d="M600.48 432.896L601.401 432.896L601.401 434.009L600.48 434.009L600.48 436.045L599.242 436.045L599.242 434.009L595.439 434.009L595.181 433.198L599.658 427.731L600.48 427.731L600.48 432.896ZM599.242 429.892L596.789 432.896L599.242 432.896L599.242 429.892Z" fill="#565440"/>
<path d="M507.25 347.614C506.357 347.614 505.63 347.388 505.067 346.938C504.504 346.488 504.224 345.918 504.224 345.228C504.224 344.763 504.369 344.333 504.662 343.94C504.955 343.546 505.344 343.259 505.832 343.08L505.832 343.057C505.442 342.87 505.134 342.615 504.91 342.291C504.685 341.969 504.571 341.609 504.571 341.212C504.571 340.575 504.819 340.049 505.315 339.636C505.802 339.225 506.446 339.019 507.25 339.019C508.044 339.019 508.682 339.225 509.163 339.636C509.657 340.049 509.905 340.575 509.905 341.212C509.905 341.609 509.792 341.971 509.567 342.297C509.342 342.623 509.031 342.877 508.633 343.057L508.633 343.091C509.128 343.263 509.521 343.545 509.814 343.934C510.107 344.324 510.253 344.756 510.253 345.228C510.253 345.918 509.972 346.488 509.409 346.938C508.862 347.388 508.142 347.614 507.25 347.614ZM507.25 346.477C507.751 346.477 508.164 346.344 508.487 346.078C508.81 345.812 508.971 345.472 508.971 345.06C508.971 344.655 508.811 344.324 508.492 344.07C508.174 343.815 507.756 343.687 507.239 343.687C506.721 343.687 506.302 343.815 505.984 344.07C505.665 344.324 505.505 344.655 505.505 345.06C505.505 345.472 505.666 345.812 505.99 346.078C506.312 346.344 506.732 346.477 507.25 346.477ZM508.285 342.224C508.547 341.992 508.678 341.696 508.678 341.335C508.678 340.975 508.545 340.68 508.279 340.447C508.013 340.215 507.666 340.098 507.239 340.098C506.803 340.098 506.45 340.215 506.18 340.447C505.911 340.68 505.775 340.975 505.775 341.335C505.775 341.696 505.911 341.992 506.18 342.224C506.45 342.457 506.803 342.573 507.239 342.573C507.673 342.573 508.022 342.457 508.285 342.224Z" fill="#565440"/>
<path d="M512.109 347.657C511.885 347.657 511.694 347.583 511.542 347.433C511.388 347.283 511.311 347.096 511.311 346.87C511.311 346.653 511.388 346.47 511.542 346.32C511.694 346.169 511.885 346.094 512.109 346.094C512.327 346.094 512.511 346.169 512.661 346.32C512.81 346.47 512.886 346.653 512.886 346.87C512.886 347.096 512.81 347.283 512.661 347.433C512.511 347.583 512.327 347.657 512.109 347.657Z" fill="#565440"/>
<path d="M517.081 342.112C517.832 342.112 518.462 342.367 518.972 342.877C519.474 343.379 519.725 344.017 519.725 344.789C519.725 345.599 519.452 346.267 518.904 346.792C518.372 347.317 517.682 347.579 516.835 347.579C515.852 347.579 515.088 347.198 514.545 346.438C514.001 345.676 513.74 344.722 513.763 343.574C513.763 342.78 513.883 342.045 514.122 341.37C514.363 340.695 514.753 340.135 515.293 339.694C515.848 339.243 516.504 339.019 517.262 339.019C518.109 339.019 518.833 339.254 519.432 339.727L518.882 340.695C518.402 340.334 517.888 340.154 517.34 340.154C516.846 340.154 516.41 340.323 516.035 340.66C515.367 341.276 515.027 342.142 515.012 343.259C515.199 342.899 515.475 342.618 515.839 342.416C516.202 342.213 516.616 342.112 517.081 342.112ZM516.846 346.443C517.295 346.443 517.675 346.285 517.982 345.97C518.289 345.648 518.442 345.258 518.442 344.801C518.442 344.351 518.289 343.972 517.982 343.665C517.682 343.364 517.307 343.214 516.857 343.214C516.392 343.214 516.01 343.364 515.709 343.665C515.402 343.972 515.248 344.354 515.248 344.812C515.248 345.261 515.402 345.648 515.709 345.97C516.017 346.285 516.395 346.443 516.846 346.443Z" fill="#565440"/>
<path d="M407.274 349.667L408.196 349.667L408.196 350.78L407.274 350.78L407.274 352.816L406.036 352.816L406.036 350.78L402.234 350.78L401.975 349.969L406.453 344.502L407.274 344.502L407.274 349.667ZM406.036 346.663L403.584 349.667L406.036 349.667L406.036 346.663Z" fill="#565440"/>
<path d="M524.413 282.926L525.336 282.926L525.336 284.039L524.413 284.039L524.413 286.075L523.175 286.075L523.175 284.039L519.373 284.039L519.114 283.229L523.591 277.761L524.413 277.761L524.413 282.926ZM523.175 279.922L520.723 282.926L523.175 282.926L523.175 279.922Z" fill="#565440"/>
<path d="M408.487 277.786L409.409 277.786L409.409 278.899L408.487 278.899L408.487 280.935L407.249 280.935L407.249 278.899L403.447 278.899L403.188 278.089L407.665 272.621L408.487 272.621L408.487 277.786ZM407.249 274.782L404.797 277.786L407.249 277.786L407.249 274.782Z" fill="#565440"/>
<path d="M457.299 194.31L458.221 194.31L458.221 195.424L457.299 195.424L457.299 197.46L456.061 197.46L456.061 195.424L452.259 195.424L452 194.613L456.478 189.146L457.299 189.146L457.299 194.31ZM456.061 191.306L453.609 194.31L456.061 194.31L456.061 191.306Z" fill="#565440"/>
<path d="M464.061 194.31L464.982 194.31L464.982 195.424L464.061 195.424L464.061 197.46L462.823 197.46L462.823 195.424L459.02 195.424L458.761 194.613L463.239 189.146L464.061 189.146L464.061 194.31ZM462.823 191.306L460.37 194.31L462.823 194.31L462.823 191.306Z" fill="#565440"/>
<path d="M466.772 197.639C466.547 197.639 466.357 197.564 466.204 197.414C466.05 197.264 465.973 197.077 465.973 196.852C465.973 196.634 466.05 196.451 466.204 196.301C466.357 196.151 466.547 196.075 466.772 196.075C466.989 196.075 467.173 196.151 467.323 196.301C467.472 196.451 467.548 196.634 467.548 196.852C467.548 197.077 467.472 197.264 467.323 197.414C467.173 197.564 466.989 197.639 466.772 197.639Z" fill="#565440"/>
<path d="M472.531 194.028L470.484 196.267L473.915 196.267L473.915 197.459L468.65 197.459L468.65 196.379L471.294 193.567L471.924 192.87C472.082 192.689 472.222 192.468 472.345 192.206C472.47 191.943 472.531 191.708 472.531 191.498C472.531 191.122 472.398 190.813 472.132 190.569C471.866 190.326 471.534 190.204 471.137 190.204C470.491 190.204 469.836 190.515 469.168 191.137L468.459 190.215C469.284 189.404 470.195 189 471.193 189C471.957 189 472.584 189.232 473.072 189.697C473.566 190.162 473.814 190.765 473.814 191.509C473.814 192.265 473.387 193.105 472.531 194.028Z" fill="#565440"/>
<path d="M311.764 256.759L266.349 256.759L266.349 310.626L311.764 310.626L311.764 256.759Z" fill="#E9E4DC"/>
<path d="M311.139 257.384L311.139 310L266.973 310L266.973 257.384L311.139 257.384ZM312.389 256.134L265.723 256.134L265.723 311.25L312.389 311.25L312.389 256.134Z" fill="#C49F8A"/>
<path d="M308.405 293.697L290.192 293.697L290.192 307.327L308.405 307.327L308.405 293.697Z" fill="#E9E4DC" stroke="#C49F8A"/>
<path d="M287.92 293.697L269.706 293.697L269.706 307.327L287.92 307.327L287.92 293.697Z" fill="#E9E4DC" stroke="#C49F8A"/>
<path d="M302.64 286.075L289.475 289.603L293.002 302.768L306.167 299.24L302.64 286.075Z" fill="#E9E4DC" stroke="#C49F8A" stroke-width="0.99997" stroke-miterlimit="3.99978"/>
<path d="M275.367 286.07L271.839 299.235L285.004 302.762L288.532 289.597L275.367 286.07Z" fill="#E9E4DC" stroke="#C49F8A" stroke-width="0.99997" stroke-miterlimit="3.99978"/>
<path d="M266.349 299.117L266.349 256.216L311.747 256.216L311.747 296.264L284.365 300.236L266.349 299.117Z" fill="#E9E4DC"/>
<path d="M311.122 256.841L311.122 295.723L284.34 299.608L266.973 298.529L266.973 256.841L311.122 256.841ZM312.372 255.591L265.723 255.591L265.723 298.834L265.723 299.704L284.391 300.864L312.372 296.805L312.372 296.515L312.372 255.591Z" fill="#C49F8A"/>
<path d="M266.345 298.302L284.559 298.302L311.859 296.03" stroke="#C49F8A"/>
<path d="M374.844 105.065L316.261 105.065L316.261 140.794L374.844 140.794L374.844 105.065Z" fill="#E9E4DC"/>
<path d="M374.219 105.69L374.219 140.169L316.886 140.169L316.886 105.69L374.219 105.69ZM375.469 104.44L315.636 104.44L315.636 141.419L375.469 141.419L375.469 104.44Z" fill="#C49F8A"/>
<path d="M371.21 107.597L356.413 107.597L356.413 122.03L371.21 122.03L371.21 107.597Z" fill="#E9E4DC" stroke="#C49F8A"/>
<path d="M371.21 123.83L356.413 123.83L356.413 138.263L371.21 138.263L371.21 123.83Z" fill="#E9E4DC" stroke="#C49F8A"/>
<path d="M362.432 109.37L366.261 119.802L351.969 122.598L348.14 112.165L362.432 109.37Z" fill="#E9E4DC" stroke="#C49F8A" stroke-width="0.99997" stroke-miterlimit="3.99978"/>
<path d="M351.963 123.345L366.255 126.14L362.426 136.573L348.134 133.778L351.963 123.345Z" fill="#E9E4DC" stroke="#C49F8A" stroke-width="0.99997" stroke-miterlimit="3.99978"/>
<path d="M315.671 140.794L315.671 105.078L359.274 105.078L363.564 126.661L362.361 140.794L315.671 140.794Z" fill="#E9E4DC"/>
<path d="M358.761 105.703L362.934 126.696L361.787 140.169L316.296 140.169L316.296 105.703L358.761 105.703ZM359.788 104.453L359.473 104.453L315.046 104.453L315.046 141.419L361.991 141.419L362.935 141.419L364.194 126.626L359.788 104.453Z" fill="#C49F8A"/>
<path d="M361.413 140.926L361.413 126.493L358.947 104.86" stroke="#C49F8A"/>
<path d="M359.675 222.578L357.382 222.578L357.382 268.344L359.675 268.344L359.675 222.578Z" fill="#E9E4DC"/>
<path d="M359.05 223.203L359.05 267.719L358.006 267.719L358.006 223.203L359.05 223.203ZM360.3 221.953L356.756 221.953L356.756 268.969L360.3 268.969L360.3 221.953Z" fill="#C49F8A"/>
<path d="M374.844 222.578L359.67 222.578L359.67 268.344L374.844 268.344L374.844 222.578Z" fill="#E9E4DC"/>
<path d="M374.219 223.203L374.219 267.719L360.296 267.719L360.296 223.203L374.219 223.203ZM375.469 221.953L359.046 221.953L359.046 268.969L375.469 268.969L375.469 221.953Z" fill="#C49F8A"/>
<path d="M374.831 268.22L359.682 222.571L374.831 268.22Z" fill="#E9E4DC"/>
<path d="M374.831 268.22L359.682 222.571" stroke="#C49F8A"/>
<path d="M332.542 175.262L263.571 175.262L263.571 177.555L332.542 177.555L332.542 175.262Z" fill="#E9E4DC"/>
<path d="M264.196 175.887L331.917 175.887L331.917 176.93L264.196 176.93L264.196 175.887ZM262.946 174.637L262.946 178.18L333.167 178.18L333.167 174.637L262.946 174.637Z" fill="#C49F8A"/>
<path d="M332.542 177.551L263.571 177.551L263.571 192.725L332.542 192.725L332.542 177.551Z" fill="#E9E4DC"/>
<path d="M264.196 178.176L331.917 178.176L331.917 192.1L264.196 192.1L264.196 178.176ZM262.946 176.926L262.946 193.35L333.167 193.35L333.167 176.926L262.946 176.926Z" fill="#C49F8A"/>
<path d="M264.065 192.712L332.244 177.562L264.065 192.712Z" fill="#E9E4DC"/>
<path d="M264.065 192.712L332.244 177.562" stroke="#C49F8A"/>
<path d="M359.675 320.345L357.382 320.345L357.382 372.5L359.675 372.5L359.675 320.345Z" fill="#E9E4DC"/>
<path d="M359.05 320.97L359.05 371.875L358.006 371.875L358.006 320.97L359.05 320.97ZM360.3 319.72L356.756 319.72L356.756 373.125L360.3 373.125L360.3 319.72Z" fill="#C49F8A"/>
<path d="M374.844 320.344L359.67 320.344L359.67 372.5L374.844 372.5L374.844 320.344Z" fill="#E9E4DC"/>
<path d="M360.296 320.97L374.219 320.97L374.219 371.875L360.296 371.875L360.296 320.97ZM359.046 319.72L359.046 373.125L375.469 373.125L375.469 319.72L359.046 319.72Z" fill="#C49F8A"/>
<path d="M374.831 372.275L359.682 320.422L374.831 372.275Z" fill="#E9E4DC"/>
<path d="M374.831 372.275L359.682 320.422" stroke="#C49F8A"/>
<path d="M548.384 371.924L484.989 371.924L484.989 374.218L548.384 374.218L548.384 371.924Z" fill="#E9E4DC"/>
<path d="M485.613 372.549L547.759 372.549L547.759 373.593L485.613 373.593L485.613 372.549ZM484.363 371.299L484.363 374.843L549.009 374.843L549.009 371.299L484.363 371.299Z" fill="#C49F8A"/>
<path d="M548.385 374.214L484.989 374.214L484.989 389.388L548.385 389.388L548.385 374.214Z" fill="#E9E4DC"/>
<path d="M485.614 374.839L547.759 374.839L547.759 388.762L485.614 388.762L485.614 374.839ZM484.364 373.589L484.364 390.012L549.009 390.012L549.009 373.589L484.364 373.589Z" fill="#C49F8A"/>
<path d="M485.393 389.374L548.159 374.225L485.393 389.374Z" fill="#E9E4DC"/>
<path d="M485.393 389.374L548.159 374.225" stroke="#C49F8A"/>
<path d="M424.368 410.325L422.075 410.325L422.075 447.076L424.368 447.076L424.368 410.325Z" fill="#E9E4DC"/>
<path d="M423.743 410.949L423.743 446.451L422.699 446.451L422.699 410.949L423.743 410.949ZM424.993 409.699L421.449 409.699L421.449 447.701L424.993 447.701L424.993 409.699Z" fill="#C49F8A"/>
<path d="M439.537 410.325L424.363 410.325L424.363 447.076L439.537 447.076L439.537 410.325Z" fill="#E9E4DC"/>
<path d="M438.912 410.949L438.912 446.451L424.989 446.451L424.989 410.949L438.912 410.949ZM440.162 409.699L423.739 409.699L423.739 447.701L440.162 447.701L440.162 409.699Z" fill="#C49F8A"/>
<path d="M439.524 447.096L424.375 410.199L439.524 447.096Z" fill="#E9E4DC"/>
<path d="M439.524 447.096L424.375 410.199" stroke="#C49F8A"/>
<path d="M621.285 403.485L618.992 403.485L618.992 507.514L621.285 507.514L621.285 403.485Z" fill="#E9E4DC"/>
<path d="M620.66 404.109L620.66 506.889L619.617 506.889L619.617 404.109L620.66 404.109ZM621.91 402.859L618.367 402.859L618.366 508.139L621.91 508.139L621.91 402.859Z" fill="#C49F8A"/>
<path d="M636.454 403.484L621.28 403.484L621.28 507.513L636.454 507.513L636.454 403.484Z" fill="#E9E4DC"/>
<path d="M621.906 404.109L635.829 404.109L635.829 506.889L621.906 506.889L621.906 404.109ZM620.656 402.859L620.656 508.139L637.079 508.139L637.079 402.859L620.656 402.859Z" fill="#C49F8A"/>
<path d="M636.442 506.462L621.292 404.244L636.442 506.462Z" fill="#E9E4DC"/>
<path d="M636.442 506.462L621.292 404.244" stroke="#C49F8A"/>
<path d="M273.254 466.004L270.961 466.004L270.961 518.16L273.254 518.16L273.254 466.004Z" fill="#E9E4DC"/>
<path d="M272.629 466.63L272.629 517.535L271.586 517.535L271.586 466.63L272.629 466.63ZM273.879 465.38L270.336 465.38L270.336 518.785L273.879 518.785L273.879 465.38Z" fill="#C49F8A"/>
<path d="M270.965 466.004L255.792 466.004L255.792 518.16L270.965 518.16L270.965 466.004Z" fill="#E9E4DC"/>
<path d="M256.417 466.63L270.34 466.63L270.34 517.535L256.417 517.535L256.417 466.63ZM255.167 465.38L255.167 518.785L271.59 518.785L271.59 465.38L255.167 465.38Z" fill="#C49F8A"/>
<path d="M255.804 466.23L270.954 518.083L255.804 466.23Z" fill="#E9E4DC"/>
<path d="M255.804 466.23L270.954 518.083" stroke="#C49F8A"/>
<path d="M445.595 261.358L425.819 261.358L425.819 310.648L445.595 310.648L445.595 261.358Z" fill="#E9E4DC"/>
<path d="M444.97 261.983L444.97 310.023L426.444 310.023L426.444 261.983L444.97 261.983ZM446.22 260.733L425.194 260.733L425.194 311.273L446.22 311.273L446.22 260.733Z" fill="#C49F8A"/>
<path d="M435.707 306.603C439.581 306.603 442.573 303.266 442.228 299.468C441.845 295.248 441.499 289.954 441.499 286.003C441.499 282.09 441.883 276.797 442.228 272.538C442.574 268.702 439.543 265.403 435.707 265.403C431.871 265.403 428.84 268.741 429.185 272.538C429.569 276.758 429.914 282.052 429.914 286.003C429.914 289.916 429.531 295.21 429.185 299.468C428.84 303.266 431.871 306.603 435.707 306.603Z" fill="#E9E4DC" stroke="#C49F8A" stroke-linejoin="round"/>
<path d="M435.707 300.89C436.259 300.89 436.707 300.442 436.707 299.89C436.707 299.337 436.259 298.89 435.707 298.89C435.155 298.89 434.707 299.337 434.707 299.89C434.707 300.442 435.155 300.89 435.707 300.89Z" fill="#E9E4DC" stroke="#C49F8A" stroke-linejoin="round"/>
<path d="M395.879 250.29L378.901 250.29L378.901 261.505L395.879 261.505L395.879 250.29Z" fill="#E9E4DC"/>
<path d="M395.254 250.915L395.254 260.88L379.526 260.88L379.526 250.915L395.254 250.915ZM396.504 249.665L378.276 249.665L378.276 262.13L396.504 262.13L396.504 249.665Z" fill="#C49F8A"/>
<path d="M387.39 259.332C385.497 259.332 383.956 257.791 383.956 255.897C383.956 254.003 385.497 252.463 387.39 252.463C389.284 252.463 390.824 254.003 390.824 255.897C390.824 257.791 389.284 259.332 387.39 259.332Z" fill="#E9E4DC"/>
<path d="M387.39 253.088C388.939 253.088 390.199 254.348 390.199 255.897C390.199 257.446 388.939 258.706 387.39 258.706C385.841 258.706 384.581 257.446 384.581 255.897C384.581 254.348 385.841 253.088 387.39 253.088ZM387.39 251.838C385.148 251.838 383.331 253.655 383.331 255.897C383.331 258.139 385.148 259.956 387.39 259.956C389.632 259.956 391.449 258.139 391.449 255.897C391.449 253.655 389.632 251.838 387.39 251.838Z" fill="#C49F8A"/>
<path d="M450.181 171.481L450.181 134.102L477.366 134.102L477.366 171.481L450.181 171.481Z" fill="#E9E4DC" stroke="#C49F8A"/>
<path d="M455.881 132.017L455.881 131.36C455.881 127.001 459.415 123.467 463.773 123.467C468.132 123.467 471.666 127.001 471.666 131.36L471.666 132.017L455.881 132.017Z" fill="#E9E4DC" stroke="#C49F8A"/>
<path d="M458.11 134.102L458.11 131.27C458.11 128.142 460.646 125.606 463.773 125.606C466.901 125.606 469.437 128.142 469.437 131.27L469.437 134.102L458.11 134.102Z" fill="#E9E4DC" stroke="#C49F8A"/>
<path d="M455.881 173.567L455.881 174.224C455.881 178.583 459.415 182.117 463.773 182.117C468.132 182.117 471.666 178.583 471.666 174.224L471.666 173.567L455.881 173.567Z" fill="#E9E4DC" stroke="#C49F8A"/>
<path d="M458.11 171.481L458.11 174.313C458.11 177.441 460.646 179.977 463.773 179.977C466.901 179.977 469.437 177.441 469.437 174.313L469.437 171.481L458.11 171.481Z" fill="#E9E4DC" stroke="#C49F8A"/>
<path d="M479.451 159.458L480.108 159.458C484.467 159.458 488.001 155.924 488.001 151.566C488.001 147.207 484.467 143.673 480.108 143.673L479.451 143.673L479.451 159.458Z" fill="#E9E4DC" stroke="#C49F8A"/>
<path d="M477.366 157.229L480.198 157.229C483.325 157.229 485.861 154.694 485.861 151.566C485.861 148.438 483.325 145.902 480.198 145.902L477.366 145.902L477.366 157.229Z" fill="#E9E4DC" stroke="#C49F8A"/>
<path d="M448.096 143.673L447.439 143.673C443.08 143.673 439.546 147.207 439.546 151.565C439.546 155.924 443.08 159.458 447.439 159.458L448.096 159.458L448.096 143.673Z" fill="#E9E4DC" stroke="#C49F8A"/>
<path d="M450.181 145.901L447.349 145.901C444.222 145.901 441.686 148.437 441.686 151.565C441.686 154.693 444.222 157.228 447.349 157.228L450.181 157.228L450.181 145.901Z" fill="#E9E4DC" stroke="#C49F8A"/>
<path d="M287.371 110.718L287.348 124.521L274.796 126.382L274.826 108.814L287.371 110.718Z" fill="#E9E4DC" stroke="#C49F8A"/>
<path d="M275.935 81.8081L255.846 81.8081L255.846 139.296L275.935 139.296L275.935 81.8081Z" fill="#E9E4DC"/>
<path d="M275.31 82.4331L275.31 138.671L256.471 138.671L256.471 82.4331L275.31 82.4331ZM276.56 81.1831L255.221 81.1831L255.221 139.921L276.56 139.921L276.56 81.1831Z" fill="#C49F8A"/>
<path d="M270.717 112.264L270.699 122.929L270.717 112.264ZM272.694 111.327L272.673 123.875L268.908 123.869L268.929 111.321L272.694 111.327Z" stroke="#C49F8A"/>
<path d="M272.894 106.889C272.893 107.408 272.471 107.829 271.951 107.828L270.696 107.826C270.177 107.825 269.756 107.403 269.757 106.883C269.758 106.364 270.18 105.943 270.7 105.944L271.954 105.946C272.474 105.947 272.895 106.369 272.894 106.889Z" fill="#E9E4DC" stroke="#C49F8A"/>
<path d="M262.841 114.464C264.573 114.467 265.976 115.874 265.972 117.606C265.97 119.339 264.563 120.74 262.83 120.738L259.693 120.732L259.704 114.458L262.841 114.464Z" fill="#E9E4DC" stroke="#C49F8A"/>
<path d="M260.534 101.478L258.241 101.478L258.241 133.7L260.534 133.7L260.534 101.478Z" fill="#E9E4DC"/>
<path d="M259.909 102.103L259.909 133.076L258.866 133.076L258.866 102.103L259.909 102.103ZM261.159 100.853L257.616 100.853L257.616 134.326L261.159 134.326L261.159 100.853Z" fill="#C49F8A"/>
<path d="M287.476 111.105L276.596 111.105L276.596 124.092L287.476 124.092L287.476 111.105Z" fill="#E9E4DC"/>
<path d="M286.851 111.73L286.851 123.467L277.221 123.467L277.221 111.73L286.851 111.73ZM288.101 110.48L275.971 110.48L275.971 124.717L288.101 124.717L288.101 110.48Z" fill="#C49F8A"/>
<path d="M289.786 110.805L287.493 110.805L287.493 124.458L289.786 124.458L289.786 110.805Z" fill="#E9E4DC"/>
<path d="M289.161 111.43L289.161 123.832L288.118 123.832L288.118 111.43L289.161 111.43ZM290.411 110.18L286.868 110.18L286.868 125.082L290.411 125.082L290.411 110.18Z" fill="#C49F8A"/>
<path d="M287.291 350.798L287.267 364.6L274.716 366.461L274.746 348.894L287.291 350.798Z" fill="#E9E4DC" stroke="#C49F8A"/>
<path d="M275.855 337.23L255.766 337.23L255.766 378.125L275.855 378.125L275.855 337.23Z" fill="#E9E4DC"/>
<path d="M275.23 337.855L275.23 377.5L256.391 377.5L256.391 337.855L275.23 337.855ZM276.48 336.605L255.141 336.605L255.141 378.75L276.48 378.75L276.48 336.605Z" fill="#C49F8A"/>
<path d="M270.636 352.343L270.618 363.009L270.636 352.343ZM272.613 351.406L272.592 363.955L268.827 363.948L268.849 351.4L272.613 351.406Z" stroke="#C49F8A"/>
<path d="M272.514 347.955C272.514 348.474 272.091 348.895 271.572 348.894L270.317 348.892C269.797 348.891 269.377 348.469 269.377 347.949C269.378 347.43 269.8 347.009 270.32 347.01L271.575 347.012C272.095 347.013 272.515 347.435 272.514 347.955Z" fill="#E9E4DC" stroke="#C49F8A"/>
<path d="M262.761 354.544C264.493 354.546 265.895 355.953 265.892 357.686C265.889 359.418 264.482 360.82 262.75 360.817L259.613 360.812L259.623 354.538L262.761 354.544Z" fill="#E9E4DC" stroke="#C49F8A"/>
<path d="M260.453 341.566L258.16 341.566L258.16 373.789L260.453 373.789L260.453 341.566Z" fill="#E9E4DC"/>
<path d="M259.829 342.191L259.829 373.164L258.785 373.164L258.785 342.191L259.829 342.191ZM261.079 340.941L257.535 340.941L257.535 374.414L261.079 374.414L261.079 340.941Z" fill="#C49F8A"/>
<path d="M287.396 351.184L276.515 351.184L276.515 364.171L287.396 364.171L287.396 351.184Z" fill="#E9E4DC"/>
<path d="M286.771 351.809L286.771 363.546L277.14 363.546L277.14 351.809L286.771 351.809ZM288.021 350.559L275.89 350.559L275.89 364.796L288.021 364.796L288.021 350.559Z" fill="#C49F8A"/>
<path d="M289.706 350.852L287.412 350.852L287.412 364.504L289.706 364.504L289.706 350.852Z" fill="#E9E4DC"/>
<path d="M289.081 351.477L289.081 363.879L288.037 363.879L288.037 351.477L289.081 351.477ZM290.331 350.227L286.787 350.227L286.787 365.129L290.331 365.129L290.331 350.227Z" fill="#C49F8A"/>
<path d="M528.739 250.301L509.31 250.301L509.31 262.638L528.739 262.638L528.739 250.301Z" fill="#E9E4DC"/>
<path d="M528.113 250.926L528.113 262.014L509.936 262.014L509.936 250.926L528.113 250.926ZM529.363 249.676L508.686 249.676L508.686 263.264L529.363 263.264L529.363 249.676Z" fill="#C49F8A"/>
<path d="M511.894 256.47C511.894 258.767 513.756 260.63 516.054 260.63L521.996 260.63C524.293 260.63 526.155 258.767 526.155 256.47C526.155 254.173 524.293 252.311 521.996 252.311L516.054 252.311C513.756 252.311 511.894 254.173 511.894 256.47Z" fill="#E9E4DC" stroke="#C49F8A"/>
<path d="M519.025 255.622C519.577 255.622 520.025 255.174 520.025 254.622C520.025 254.07 519.577 253.622 519.025 253.622C518.472 253.622 518.025 254.07 518.025 254.622C518.025 255.174 518.472 255.622 519.025 255.622Z" fill="#E9E4DC" stroke="#C49F8A"/>
<path d="M425.803 298.31L406.375 298.31L406.375 310.648L425.803 310.648L425.803 298.31Z" fill="#E9E4DC"/>
<path d="M425.178 298.936L425.178 310.023L407.001 310.023L407.001 298.936L425.178 298.936ZM426.428 297.686L405.751 297.686L405.751 311.273L426.428 311.273L426.428 297.686Z" fill="#C49F8A"/>
<path d="M423.22 304.48C423.22 302.183 421.358 300.32 419.061 300.32L413.118 300.32C410.821 300.32 408.959 302.183 408.959 304.48C408.959 306.777 410.821 308.639 413.118 308.639L419.061 308.639C421.358 308.639 423.22 306.777 423.22 304.48Z" fill="#E9E4DC" stroke="#C49F8A"/>
<path d="M416.089 307.234C416.642 307.234 417.089 306.787 417.089 306.234C417.089 305.682 416.642 305.234 416.089 305.234C415.537 305.234 415.089 305.682 415.089 306.234C415.089 306.787 415.537 307.234 416.089 307.234Z" fill="#E9E4DC" stroke="#C49F8A"/>
<path d="M546.832 250.301L534.954 250.301L534.954 254.247L546.832 254.247L546.832 250.301Z" fill="#E9E4DC"/>
<path d="M546.208 250.926L546.208 253.621L535.579 253.621L535.579 250.926L546.208 250.926ZM547.458 249.676L534.329 249.676L534.329 254.871L547.458 254.871L547.458 249.676Z" fill="#C49F8A"/>
<path d="M536.757 262.043C536.597 264.436 538.495 266.465 540.894 266.465C543.292 266.465 545.19 264.436 545.03 262.043L544.52 254.378L537.268 254.378L536.757 262.043Z" fill="#E9E4DC" stroke="#C49F8A"/>
<path d="M538.423 261.756C538.291 263.209 539.435 264.461 540.894 264.461C542.352 264.461 543.496 263.209 543.364 261.756L543.006 257.822L538.781 257.822L538.423 261.756Z" fill="#E9E4DC" stroke="#C49F8A"/>
<path d="M540.894 261.064C541.446 261.064 541.894 260.617 541.894 260.064C541.894 259.512 541.446 259.064 540.894 259.064C540.341 259.064 539.894 259.512 539.894 260.064C539.894 260.617 540.341 261.064 540.894 261.064Z" fill="#E9E4DC" stroke="#C49F8A"/>
<path d="M379.996 483.576L376.05 483.576L376.05 495.455L379.996 495.455L379.996 483.576Z" fill="#E9E4DC"/>
<path d="M379.371 484.201L379.371 494.829L376.675 494.829L376.675 484.201L379.371 484.201ZM380.621 482.951L375.425 482.951L375.425 496.079L380.621 496.079L380.621 482.951Z" fill="#C49F8A"/>
<path d="M387.792 493.652C390.185 493.811 392.214 491.913 392.214 489.515C392.214 487.116 390.185 485.218 387.792 485.378L380.127 485.889L380.127 493.141L387.792 493.652Z" fill="#E9E4DC" stroke="#C49F8A"/>
<path d="M387.505 491.985C388.958 492.118 390.21 490.974 390.21 489.515C390.21 488.057 388.958 486.913 387.505 487.045L383.571 487.403L383.571 491.628L387.505 491.985Z" fill="#E9E4DC" stroke="#C49F8A"/>
<path d="M385.814 490.515C386.366 490.515 386.814 490.067 386.814 489.515C386.814 488.963 386.366 488.515 385.814 488.515C385.261 488.515 384.814 488.963 384.814 489.515C384.814 490.067 385.261 490.515 385.814 490.515Z" fill="#E9E4DC" stroke="#C49F8A"/>
<path d="M382.843 352.968L378.898 352.968L378.898 364.847L382.843 364.847L382.843 352.968Z" fill="#E9E4DC"/>
<path d="M382.218 353.593L382.218 364.222L379.523 364.222L379.523 353.593L382.218 353.593ZM383.468 352.343L378.273 352.343L378.273 365.472L383.468 365.472L383.468 352.343Z" fill="#C49F8A"/>
<path d="M390.522 363.044C392.916 363.204 394.944 361.306 394.944 358.907C394.944 356.509 392.916 354.611 390.522 354.771L382.858 355.281L382.858 362.533L390.522 363.044Z" fill="#E9E4DC" stroke="#C49F8A"/>
<path d="M390.236 361.378C391.689 361.51 392.941 360.366 392.941 358.908C392.941 357.449 391.689 356.306 390.236 356.438L386.302 356.795L386.302 361.02L390.236 361.378Z" fill="#E9E4DC" stroke="#C49F8A"/>
<path d="M388.82 359.908C389.372 359.908 389.82 359.46 389.82 358.908C389.82 358.355 389.372 357.908 388.82 357.908C388.268 357.908 387.82 358.355 387.82 358.908C387.82 359.46 388.268 359.908 388.82 359.908Z" fill="#E9E4DC" stroke="#C49F8A"/>
<path d="M402.077 306.703L390.199 306.703L390.199 310.648L402.077 310.648L402.077 306.703Z" fill="#E9E4DC"/>
<path d="M401.452 307.328L401.452 310.023L390.824 310.023L390.824 307.328L401.452 307.328ZM402.702 306.078L389.574 306.078L389.574 311.273L402.702 311.273L402.702 306.078Z" fill="#C49F8A"/>
<path d="M400.275 298.907C400.434 296.514 398.537 294.485 396.138 294.485C393.74 294.485 391.842 296.514 392.001 298.907L392.512 306.572L399.764 306.572L400.275 298.907Z" fill="#E9E4DC" stroke="#C49F8A"/>
<path d="M398.608 299.193C398.74 297.741 397.597 296.488 396.138 296.488C394.68 296.488 393.536 297.741 393.668 299.193L394.026 303.127L398.251 303.127L398.608 299.193Z" fill="#E9E4DC" stroke="#C49F8A"/>
<path d="M396.138 301.885C396.69 301.885 397.138 301.438 397.138 300.885C397.138 300.333 396.69 299.885 396.138 299.885C395.586 299.885 395.138 300.333 395.138 300.885C395.138 301.438 395.586 301.885 396.138 301.885Z" fill="#E9E4DC" stroke="#C49F8A"/>
<path d="M310.456 204.152L268.493 204.152L268.493 206.446L310.456 206.446L310.456 204.152Z" fill="#E9E4DC"/>
<path d="M309.831 204.777L309.831 205.82L269.118 205.82L269.118 204.777L309.831 204.777ZM311.081 203.527L267.868 203.527L267.868 207.07L311.081 207.07L311.081 203.527Z" fill="#C49F8A"/>
<path d="M310.456 196.753L268.493 196.753L268.493 204.144L310.456 204.144L310.456 196.753Z" fill="#E9E4DC"/>
<path d="M309.831 197.378L309.831 203.518L269.118 203.518L269.118 197.378L309.831 197.378ZM311.081 196.128L267.868 196.128L267.868 204.768L311.081 204.768L311.081 196.128Z" fill="#C49F8A"/>
<path d="M303.206 199.173L275.743 199.173L275.743 201.467L303.206 201.467L303.206 199.173Z" fill="#E9E4DC"/>
<path d="M302.581 199.798L302.581 200.841L276.368 200.841L276.368 199.798L302.581 199.798ZM303.831 198.548L275.118 198.548L275.118 202.091L303.831 202.091L303.831 198.548Z" fill="#C49F8A"/>
<path d="M295.548 199.182L283.401 199.182L284.505 196.825L294.444 196.825L295.548 199.182Z" fill="#E9E4DC" stroke="#C49F8A"/>
<path d="M442.078 236.559L400.116 236.559L400.116 238.852L442.078 238.852L442.078 236.559Z" fill="#E9E4DC"/>
<path d="M400.741 237.184L441.453 237.184L441.453 238.227L400.741 238.227L400.741 237.184ZM399.491 235.934L399.491 239.477L442.703 239.477L442.703 235.934L399.491 235.934Z" fill="#C49F8A"/>
<path d="M442.078 238.861L400.116 238.861L400.116 246.251L442.078 246.251L442.078 238.861Z" fill="#E9E4DC"/>
<path d="M400.741 239.486L441.453 239.486L441.453 245.626L400.741 245.626L400.741 239.486ZM399.491 238.236L399.491 246.876L442.703 246.876L442.703 238.236L399.491 238.236Z" fill="#C49F8A"/>
<path d="M434.828 241.538L407.366 241.538L407.366 243.831L434.828 243.831L434.828 241.538Z" fill="#E9E4DC"/>
<path d="M434.204 242.163L434.204 243.206L407.991 243.206L407.991 242.163L434.204 242.163ZM435.454 240.913L406.741 240.913L406.741 244.456L435.454 244.456L435.454 240.913Z" fill="#C49F8A"/>
<path d="M415.023 243.822L427.171 243.822L426.067 246.179L416.128 246.179L415.023 243.822Z" fill="#E9E4DC" stroke="#C49F8A"/>
<path d="M548.387 164.267L531.876 164.267L531.876 218.146L548.387 218.146L548.387 164.267Z" fill="#E9E4DC"/>
<path d="M547.763 164.892L547.763 217.522L532.502 217.522L532.502 164.892L547.763 164.892ZM549.013 163.642L531.252 163.642L531.252 218.772L549.013 218.772L549.013 163.642Z" fill="#C49F8A"/>
<path d="M548.387 89.6875L531.876 89.6875L531.876 229.037L548.387 229.037L548.387 89.6875Z" fill="#E9E4DC"/>
<path d="M547.763 90.3125L547.763 228.412L532.502 228.412L532.502 90.3125L547.763 90.3125ZM549.013 89.0625L531.252 89.0625L531.252 229.662L549.013 229.662L549.013 89.0625Z" fill="#C49F8A"/>
<path d="M545.974 133.376L534.291 133.376L534.291 151.874L545.974 151.874L545.974 133.376Z" fill="#E9E4DC" stroke="#C49F8A"/>
<path d="M540.132 144.623C542.552 144.623 544.514 142.662 544.514 140.242L544.514 139.268C544.514 136.849 542.552 134.887 540.132 134.887C537.713 134.887 535.751 136.849 535.751 139.268L535.751 140.242C535.751 142.662 537.713 144.623 540.132 144.623Z" fill="#E9E4DC" stroke="#C49F8A"/>
<path d="M542.554 140.755C543.106 140.755 543.554 140.308 543.554 139.755C543.554 139.203 543.106 138.755 542.554 138.755C542.002 138.755 541.554 139.203 541.554 139.755C541.554 140.308 542.002 140.755 542.554 140.755Z" fill="#E9E4DC" stroke="#C49F8A"/>
<path d="M536.357 150.797L536.357 145.929" stroke="#C49F8A"/>
<path d="M538.857 150.797L538.857 145.929" stroke="#C49F8A"/>
<path d="M541.357 150.797L541.357 145.929" stroke="#C49F8A"/>
<path d="M543.857 150.797L543.857 145.929" stroke="#C49F8A"/>
<path d="M548.387 168.928L531.876 168.928L531.876 184.973L548.387 184.973L548.387 168.928Z" fill="#E9E4DC"/>
<path d="M547.763 169.553L547.763 184.348L532.502 184.348L532.502 169.553L547.763 169.553ZM549.013 168.303L531.252 168.303L531.252 185.598L549.013 185.598L549.013 168.303Z" fill="#C49F8A"/>
<path d="M536.802 182.753C535.922 182.753 535.206 182.037 535.206 181.158C535.206 180.278 535.922 179.563 536.802 179.563C537.682 179.563 538.397 180.278 538.397 181.158C538.397 182.037 537.682 182.753 536.802 182.753Z" fill="#E9E4DC"/>
<path d="M536.802 180.188C537.337 180.188 537.772 180.623 537.772 181.158C537.772 181.693 537.337 182.128 536.802 182.128C536.267 182.128 535.832 181.693 535.832 181.158C535.832 180.623 536.267 180.188 536.802 180.188ZM536.802 178.938C535.576 178.938 534.582 179.931 534.582 181.158C534.582 182.384 535.576 183.378 536.802 183.378C538.028 183.378 539.022 182.384 539.022 181.158C539.022 179.931 538.028 178.938 536.802 178.938Z" fill="#C49F8A"/>
<path d="M543.462 183.307C542.277 183.307 541.312 182.343 541.312 181.157C541.312 179.971 542.277 179.007 543.462 179.007C544.648 179.007 545.613 179.971 545.613 181.157C545.613 182.343 544.648 183.307 543.462 183.307Z" fill="#E9E4DC"/>
<path d="M543.463 179.632C544.304 179.632 544.988 180.316 544.988 181.157C544.988 181.998 544.304 182.682 543.463 182.682C542.622 182.682 541.937 181.998 541.937 181.157C541.937 180.316 542.622 179.632 543.463 179.632ZM543.463 178.382C541.93 178.382 540.687 179.624 540.687 181.157C540.687 182.69 541.93 183.932 543.463 183.932C544.995 183.932 546.238 182.69 546.238 181.157C546.238 179.624 544.995 178.382 543.463 178.382Z" fill="#C49F8A"/>
<path d="M536.802 175.537C535.616 175.537 534.652 174.572 534.652 173.387C534.652 172.201 535.616 171.237 536.802 171.237C537.988 171.237 538.953 172.201 538.953 173.387C538.953 174.572 537.988 175.537 536.802 175.537Z" fill="#E9E4DC"/>
<path d="M536.802 171.862C537.643 171.862 538.327 172.546 538.327 173.387C538.327 174.228 537.643 174.912 536.802 174.912C535.961 174.912 535.277 174.228 535.277 173.387C535.277 172.546 535.961 171.862 536.802 171.862ZM536.802 170.612C535.269 170.612 534.027 171.854 534.027 173.387C534.027 174.92 535.269 176.162 536.802 176.162C538.335 176.162 539.577 174.92 539.577 173.387C539.577 171.854 538.335 170.612 536.802 170.612Z" fill="#C49F8A"/>
<path d="M544.017 174.981C543.137 174.981 542.422 174.265 542.422 173.386C542.422 172.506 543.137 171.791 544.017 171.791C544.897 171.791 545.613 172.506 545.613 173.386C545.613 174.265 544.897 174.981 544.017 174.981Z" fill="#E9E4DC"/>
<path d="M544.018 172.416C544.552 172.416 544.988 172.851 544.988 173.386C544.988 173.921 544.552 174.356 544.018 174.356C543.483 174.356 543.047 173.921 543.047 173.386C543.047 172.851 543.483 172.416 544.018 172.416ZM544.018 171.166C542.791 171.166 541.797 172.16 541.797 173.386C541.797 174.612 542.791 175.606 544.018 175.606C545.244 175.606 546.238 174.612 546.238 173.386C546.238 172.16 545.244 171.166 544.018 171.166Z" fill="#C49F8A"/>
<path d="M502.656 246.244L502.656 229.045L548.387 229.045L548.387 236.685L539.023 236.685L539.023 246.244L502.656 246.244Z" fill="#E9E4DC"/>
<path d="M547.763 229.67L547.763 236.061L539.648 236.061L538.398 236.061L538.398 237.311L538.398 245.619L503.282 245.619L503.282 229.67L512.419 229.67L539.648 229.67L547.763 229.67ZM549.013 228.42L539.648 228.42L512.419 228.42L502.032 228.42L502.032 246.869L539.648 246.869L539.648 237.311L549.013 237.311L549.013 228.42Z" fill="#C49F8A"/>
<path d="M531.869 229.045L514.669 229.045L514.669 246.244L531.869 246.244L531.869 229.045Z" fill="#E9E4DC"/>
<path d="M531.244 229.67L531.244 245.619L515.295 245.619L515.295 229.67L531.244 229.67ZM532.494 228.42L514.045 228.42L514.045 246.869L532.494 246.869L532.494 228.42Z" fill="#C49F8A"/>
<path d="M524.377 236.779L522.162 240.655M525.484 238.717L521.054 238.717L525.484 238.717ZM524.377 240.655L522.162 236.779L524.377 240.655Z" stroke="#C49F8A"/>
<path d="M531.869 229.045L514.67 229.045L514.67 231.338L531.869 231.338L531.869 229.045Z" fill="#E9E4DC"/>
<path d="M531.244 229.67L531.244 230.713L515.295 230.713L515.295 229.67L531.244 229.67ZM532.494 228.42L514.045 228.42L514.045 231.963L532.494 231.963L532.494 228.42Z" fill="#C49F8A"/>
<path d="M415.335 113.462C416.123 113.462 416.762 112.824 416.762 112.035L416.762 97.6348L383.914 97.6348L383.914 113.462L415.335 113.462Z" fill="#E9E4DC" stroke="#C49F8A"/>
<path d="M398.342 138.947C399.13 138.947 399.769 138.281 399.769 137.459L399.769 114.962C399.769 114.14 399.13 113.475 398.342 113.475L383.914 113.475L383.914 138.947L398.342 138.947Z" fill="#E9E4DC" stroke="#C49F8A"/>
<path d="M398.342 163.48C399.13 163.48 399.769 162.835 399.769 162.04L399.769 140.387C399.769 139.591 399.13 138.947 398.342 138.947L383.914 138.947L383.914 163.48L398.342 163.48Z" fill="#E9E4DC" stroke="#C49F8A"/>
<path d="M400.947 163.48L400.947 168.817L378.282 168.817L378.282 91.8345L422.419 91.8345L422.419 114.64L416.786 114.64L416.786 97.6347L383.914 97.6347L383.914 163.48L400.947 163.48Z" fill="#E9E4DC" stroke="#C49F8A"/>
<path d="M548.389 291.574L548.389 314.45L525.514 314.45L525.514 298.684C525.514 294.757 528.697 291.574 532.623 291.574L548.389 291.574Z" fill="#E9E4DC" stroke="#C49F8A"/>
<path d="M546.317 293.646L546.317 312.378L527.585 312.378L527.585 299.468C527.585 296.252 530.192 293.646 533.407 293.646L546.317 293.646Z" fill="#E9E4DC" stroke="#C49F8A"/>
<path d="M542.523 309.584C543.075 309.584 543.523 309.136 543.523 308.584C543.523 308.032 543.075 307.584 542.523 307.584C541.971 307.584 541.523 308.032 541.523 308.584C541.523 309.136 541.971 309.584 542.523 309.584Z" fill="#E9E4DC" stroke="#C49F8A"/>
<path d="M345.113 410.325L299.258 410.325L299.258 466.744L345.113 466.744L345.113 410.325Z" fill="#E9E4DC"/>
<path d="M299.883 410.949L344.489 410.949L344.489 466.119L299.883 466.119L299.883 410.949ZM298.633 409.699L298.633 467.369L345.739 467.369L345.739 409.699L298.633 409.699Z" fill="#C49F8A"/>
<path d="M341.718 413.805L323.332 413.805L323.332 428.066L341.718 428.066L341.718 413.805Z" fill="#E9E4DC" stroke="#C49F8A"/>
<path d="M321.039 413.805L302.654 413.805L302.654 428.066L321.039 428.066L321.039 413.805Z" fill="#E9E4DC" stroke="#C49F8A"/>
<path d="M339.459 422.266L326.169 418.575L322.609 432.35L335.898 436.04L339.459 422.266Z" fill="#E9E4DC" stroke="#C49F8A" stroke-width="0.99997" stroke-miterlimit="3.99978"/>
<path d="M321.656 432.355L318.096 418.581L304.807 422.271L308.367 436.046L321.656 432.355Z" fill="#E9E4DC" stroke="#C49F8A" stroke-width="0.99997" stroke-miterlimit="3.99978"/>
<path d="M299.258 467.312L299.258 422.366L317.45 421.194L345.097 425.353L345.097 467.312L299.258 467.312Z" fill="#E9E4DC"/>
<path d="M317.424 421.822L344.472 425.89L344.472 466.687L299.883 466.687L299.883 422.952L317.424 421.822ZM317.477 420.566L298.633 421.78L298.633 422.69L298.633 467.937L345.722 467.937L345.722 425.117L345.722 424.814L317.477 420.566Z" fill="#C49F8A"/>
<path d="M299.261 423.247L317.646 423.247L345.204 425.624" stroke="#C49F8A"/>
<path d="M536.972 393.424L491.117 393.424L491.117 449.844L536.972 449.844L536.972 393.424Z" fill="#E9E4DC"/>
<path d="M491.742 394.048L536.348 394.048L536.348 449.218L491.742 449.218L491.742 394.048ZM490.492 392.798L490.492 450.468L537.598 450.468L537.598 392.798L490.492 392.798Z" fill="#C49F8A"/>
<path d="M533.577 396.904L515.191 396.904L515.191 411.165L533.577 411.165L533.577 396.904Z" fill="#E9E4DC" stroke="#C49F8A"/>
<path d="M512.898 396.904L494.513 396.904L494.513 411.165L512.898 411.165L512.898 396.904Z" fill="#E9E4DC" stroke="#C49F8A"/>
<path d="M531.317 405.365L518.028 401.674L514.467 415.449L527.757 419.139L531.317 405.365Z" fill="#E9E4DC" stroke="#C49F8A" stroke-width="0.99997" stroke-miterlimit="3.99978"/>
<path d="M513.515 415.455L509.955 401.68L496.665 405.37L500.226 419.145L513.515 415.455Z" fill="#E9E4DC" stroke="#C49F8A" stroke-width="0.99997" stroke-miterlimit="3.99978"/>
<path d="M491.117 450.411L491.117 405.465L509.309 404.293L536.956 408.452L536.956 450.411L491.117 450.411Z" fill="#E9E4DC"/>
<path d="M509.282 404.922L536.331 408.989L536.331 449.786L491.742 449.786L491.742 406.051L509.282 404.922ZM509.336 403.666L490.492 404.879L490.492 405.789L490.492 451.036L537.581 451.036L537.581 408.216L537.581 407.913L509.336 403.666Z" fill="#C49F8A"/>
<path d="M491.119 406.347L509.505 406.347L537.063 408.724" stroke="#C49F8A"/>
<path d="M335.689 320.345L297.404 320.345L297.404 379.853L335.689 379.853L335.689 320.345Z" fill="#E9E4DC"/>
<path d="M298.029 320.97L335.064 320.97L335.064 379.228L298.029 379.228L298.029 320.97ZM296.779 319.72L296.779 380.478L336.314 380.478L336.314 319.72L296.779 319.72Z" fill="#C49F8A"/>
<path d="M332.939 324.045L317.509 324.045L317.509 339.07L332.939 339.07L332.939 324.045Z" fill="#E9E4DC" stroke="#C49F8A"/>
<path d="M315.584 324.045L300.154 324.045L300.154 339.07L315.584 339.07L315.584 324.045Z" fill="#E9E4DC" stroke="#C49F8A"/>
<path d="M331.043 332.959L319.889 329.07L316.901 343.583L328.054 347.471L331.043 332.959Z" fill="#E9E4DC" stroke="#C49F8A" stroke-width="0.99997" stroke-miterlimit="3.99978"/>
<path d="M316.102 343.589L313.114 329.077L301.96 332.965L304.949 347.478L316.102 343.589Z" fill="#E9E4DC" stroke="#C49F8A" stroke-width="0.99997" stroke-miterlimit="3.99978"/>
<path d="M297.404 380.452L297.404 333.024L312.561 331.799L335.675 336.162L335.675 380.452L297.404 380.452Z" fill="#E9E4DC"/>
<path d="M312.528 332.429L335.05 336.68L335.05 379.827L298.029 379.827L298.029 333.601L312.528 332.429ZM312.594 331.169L296.779 332.448L296.779 333.407L296.779 381.077L336.3 381.077L336.3 335.964L336.3 335.644L312.594 331.169Z" fill="#C49F8A"/>
<path d="M297.306 333.994L312.736 333.994L335.865 336.498" stroke="#C49F8A"/>
<path d="M430.146 451.134L376.05 451.134L376.05 472.909L430.146 472.909L430.146 451.134Z" fill="#E9E4DC"/>
<path d="M376.675 451.759L429.521 451.759L429.521 472.284L376.675 472.284L376.675 451.759ZM375.425 450.509L375.425 473.534L430.771 473.534L430.771 450.509L375.425 450.509Z" fill="#C49F8A"/>
<path d="M380.54 462.021C380.54 466.264 384.194 469.541 388.353 469.163C392.974 468.743 398.771 468.365 403.098 468.365C407.383 468.365 413.18 468.785 417.843 469.163C422.044 469.541 425.656 466.222 425.656 462.021C425.656 457.821 422.002 454.502 417.843 454.88C413.222 455.3 407.425 455.678 403.098 455.678C398.813 455.678 393.016 455.258 388.353 454.88C384.194 454.502 380.54 457.821 380.54 462.021Z" fill="#E9E4DC" stroke="#C49F8A" stroke-linejoin="round"/>
<path d="M387.891 463.021C388.443 463.021 388.891 462.574 388.891 462.021C388.891 461.469 388.443 461.021 387.891 461.021C387.339 461.021 386.891 461.469 386.891 462.021C386.891 462.574 387.339 463.021 387.891 463.021Z" fill="#E9E4DC" stroke="#C49F8A" stroke-linejoin="round"/>
<path d="M445.599 320.313L425.792 320.313L425.792 369.676L445.599 369.676L445.599 320.313Z" fill="#E9E4DC"/>
<path d="M444.974 320.938L444.974 369.051L426.417 369.051L426.417 320.938L444.974 320.938ZM446.224 319.688L425.167 319.688L425.167 370.301L446.224 370.301L446.224 319.688Z" fill="#C49F8A"/>
<path d="M435.695 324.364C439.576 324.364 442.572 327.707 442.226 331.51C441.842 335.736 441.496 341.037 441.496 344.994C441.496 348.913 441.881 354.214 442.226 358.479C442.572 362.32 439.537 365.624 435.695 365.624C431.854 365.624 428.819 362.282 429.165 358.479C429.549 354.253 429.894 348.951 429.894 344.994C429.894 341.076 429.51 335.774 429.165 331.51C428.819 327.707 431.854 324.364 435.695 324.364Z" fill="#E9E4DC" stroke="#C49F8A" stroke-linejoin="round"/>
<path d="M435.695 332.087C436.248 332.087 436.695 331.64 436.695 331.087C436.695 330.535 436.248 330.087 435.695 330.087C435.143 330.087 434.695 330.535 434.695 331.087C434.695 331.64 435.143 332.087 435.695 332.087Z" fill="#E9E4DC" stroke="#C49F8A" stroke-linejoin="round"/>
<path d="M416.253 498.824L396.112 498.824L396.112 510.327L416.253 510.327L416.253 498.824Z" fill="#E9E4DC"/>
<path d="M415.628 499.449L415.628 509.702L396.736 509.702L396.736 499.449L415.628 499.449ZM416.878 498.199L395.486 498.199L395.486 510.952L416.878 510.952L416.878 498.199Z" fill="#C49F8A"/>
<path d="M412.875 504.576C412.875 502.42 411.127 500.672 408.971 500.672L403.394 500.672C401.237 500.672 399.49 502.42 399.49 504.576C399.49 506.732 401.237 508.48 403.394 508.48L408.971 508.48C411.127 508.48 412.875 506.732 412.875 504.576Z" fill="#E9E4DC" stroke="#C49F8A"/>
<path d="M406.182 506.887C406.734 506.887 407.182 506.439 407.182 505.887C407.182 505.334 406.734 504.887 406.182 504.887C405.63 504.887 405.182 505.334 405.182 505.887C405.182 506.439 405.63 506.887 406.182 506.887Z" fill="#E9E4DC" stroke="#C49F8A"/>
<path d="M425.803 320.313L405.662 320.313L405.662 331.816L425.803 331.816L425.803 320.313Z" fill="#E9E4DC"/>
<path d="M425.178 320.938L425.178 331.19L406.287 331.19L406.287 320.938L425.178 320.938ZM426.428 319.688L405.037 319.688L405.037 332.44L426.428 332.44L426.428 319.688Z" fill="#C49F8A"/>
<path d="M409.04 326.064C409.04 328.22 410.788 329.968 412.944 329.968L418.521 329.968C420.677 329.968 422.425 328.22 422.425 326.064C422.425 323.908 420.677 322.16 418.521 322.16L412.944 322.16C410.788 322.16 409.04 323.908 409.04 326.064Z" fill="#E9E4DC" stroke="#C49F8A"/>
<path d="M415.732 325.557C416.285 325.557 416.732 325.109 416.732 324.557C416.732 324.005 416.285 323.557 415.732 323.557C415.18 323.557 414.732 324.005 414.732 324.557C414.732 325.109 415.18 325.557 415.732 325.557Z" fill="#E9E4DC" stroke="#C49F8A"/>
<path d="M285.97 506.048C291.116 506.048 295.288 501.876 295.288 496.731C295.288 491.585 291.116 487.413 285.97 487.413C280.824 487.413 276.653 491.585 276.653 496.731C276.653 501.876 280.824 506.048 285.97 506.048Z" fill="#E9E4DC" stroke="#C49F8A"/>
</svg>
