<?xml version="1.0" encoding="utf-8"?>
<!-- DO NOT EDIT THIS, THIS FILE IS GENERATED FROM "1_13-22_3.original.svg" using transform-svgs.js script -->
<!-- Generator: Adobe Illustrator 24.2.0, SVG Export Plug-In . SVG Version: 6.00 Build 0)  -->
<!DOCTYPE svg PUBLIC "-//W3C//DTD SVG 1.1//EN" "http://www.w3.org/Graphics/SVG/1.1/DTD/svg11.dtd" [
	<!ENTITY ns_extend "http://ns.adobe.com/Extensibility/1.0/">
	<!ENTITY ns_ai "http://ns.adobe.com/AdobeIllustrator/10.0/">
	<!ENTITY ns_graphs "http://ns.adobe.com/Graphs/1.0/">
	<!ENTITY ns_vars "http://ns.adobe.com/Variables/1.0/">
	<!ENTITY ns_imrep "http://ns.adobe.com/ImageReplacement/1.0/">
	<!ENTITY ns_sfw "http://ns.adobe.com/SaveForWeb/1.0/">
	<!ENTITY ns_custom "http://ns.adobe.com/GenericCustomNamespace/1.0/">
	<!ENTITY ns_adobe_xpath "http://ns.adobe.com/XPath/1.0/">
]>
<svg version="1.1" id="Слой_1" xmlns:x="&ns_extend;" xmlns:i="&ns_ai;" xmlns:graph="&ns_graphs;"
	 xmlns="http://www.w3.org/2000/svg" xmlns:xlink="http://www.w3.org/1999/xlink" x="0px" y="0px" viewBox="0 0 150 100"
	 style="enable-background:new 0 0 150 100;" xml:space="preserve"><g transform="translate(30.321485622683962 20.214323748455975) scale(0.5957135250308805)">
<style type="text/css">
	.st0{fill:#DBD4CA;}
	.st1{fill:none;stroke:#565440;}
	.st2{fill:#565440;}
</style>
<metadata>
	<sfw  xmlns="&ns_sfw;">
		<slices></slices>
		<sliceSourceBounds  bottomLeftOrigin="true" height="99.9656219" width="135.1481476" x="14.6005859" y="0.0273428">
			</sliceSourceBounds>
	</sfw>
</metadata>
<rect id="Floor" x="15.2988987" y="0.0070354" class="st0" width="120.0928879" height="99.9656219"/>
<path id="Windows" class="st1" d="M15.2988987,1.3951162h2.0821209v70.0980835h-2.0821209V1.3951162z"/>
<g id="Walls">
	<polygon class="st2" points="14.6048584,41.6494522 14.6048584,51.3660049 21.5452881,51.3660049 21.5452881,49.9779434 
		77.2294312,49.9779434 77.2294312,48.5898819 21.5452881,48.5898819 21.5452881,41.6494522 	"/>
	<polygon class="st2" points="131.2036743,95.7846451 102.2775269,95.7846451 102.2775269,70.418251 100.8894653,70.418251 
		100.8894653,95.7846451 22.946167,95.7846451 22.946167,70.7991714 14.6005859,70.7991714 14.6005859,99.9488907 
		19.8284912,99.9488907 22.946167,99.9488907 135.3679199,99.9488907 135.3679199,95.7846451 135.3679199,69.1536026 
		131.2036743,69.1536026 	"/>
	<polygon class="st2" points="14.6048584,0.0070582 14.6048584,4.1713037 14.6011963,4.1713037 14.6011963,22.2163486 
		22.9467163,22.2163486 22.9467163,4.1713037 98.9073486,4.1713037 98.9073486,48.5898819 88.3341064,48.5898819 
		88.3341064,49.9779434 98.9073486,49.9779434 100.2954712,49.9779434 101.9381714,49.9779434 101.9381714,48.5898819 
		100.2954712,48.5898819 100.2954712,4.1713037 131.2036743,4.1713037 131.2036743,48.5898819 112.9490967,48.5898819 
		112.9490967,49.9779434 131.2036743,49.9779434 131.2036743,55.2685928 135.3679199,55.2685928 135.3679199,4.1713037 
		135.3679199,3.4490747 135.3679199,0.0070582 	"/>
</g>
<path id="Doors" class="st1" d="M77.2294312,48.5898666c0-1.5268974,0.2776108-2.7761612,0.8328552-4.1642418
	c0.5552444-1.3880844,1.3880997-2.6373482,2.3597336-3.6090202c0.9716721-1.1104469,2.2209396-1.943306,3.6090164-2.4985275
	c1.3880844-0.5552254,2.7761688-0.832859,4.3030624-0.832859v11.1046486 M113.0428543,48.5898666
	c0-1.5268974-0.2776337-2.7761612-0.8328552-4.1642418c-0.5552216-1.3880844-1.3880844-2.6373482-2.3597565-3.6090202
	c-0.9716721-1.1104469-2.2209396-1.943306-3.6090164-2.4985275c-1.3880844-0.5552254-2.7761612-0.832859-4.3030624-0.832859
	v11.1046486 M135.3679199,55.2728004c1.8044891,0,3.4701996,0.4164085,5.1359253,1.1104469
	c1.6657104,0.6940422,3.3313751,1.6657143,4.5806427,3.0537949c1.2492676,1.2492676,2.3597565,2.776165,3.0538025,4.4418793
	c0.6940308,1.6657104,1.1104431,3.4701996,1.1104431,5.2746887h-13.8808136"/>
</g></svg>
