<?xml version="1.0" encoding="utf-8"?>
<!-- DO NOT EDIT THIS, THIS FILE IS GENERATED FROM "1_13-22_9.original.svg" using transform-svgs.js script -->
<!-- Generator: Adobe Illustrator 24.2.0, SVG Export Plug-In . SVG Version: 6.00 Build 0)  -->
<!DOCTYPE svg PUBLIC "-//W3C//DTD SVG 1.1//EN" "http://www.w3.org/Graphics/SVG/1.1/DTD/svg11.dtd" [
	<!ENTITY ns_extend "http://ns.adobe.com/Extensibility/1.0/">
	<!ENTITY ns_ai "http://ns.adobe.com/AdobeIllustrator/10.0/">
	<!ENTITY ns_graphs "http://ns.adobe.com/Graphs/1.0/">
	<!ENTITY ns_vars "http://ns.adobe.com/Variables/1.0/">
	<!ENTITY ns_imrep "http://ns.adobe.com/ImageReplacement/1.0/">
	<!ENTITY ns_sfw "http://ns.adobe.com/SaveForWeb/1.0/">
	<!ENTITY ns_custom "http://ns.adobe.com/GenericCustomNamespace/1.0/">
	<!ENTITY ns_adobe_xpath "http://ns.adobe.com/XPath/1.0/">
]>
<svg version="1.1" id="Слой_1" xmlns:x="&ns_extend;" xmlns:i="&ns_ai;" xmlns:graph="&ns_graphs;"
	 xmlns="http://www.w3.org/2000/svg" xmlns:xlink="http://www.w3.org/1999/xlink" x="0px" y="0px" viewBox="0 0 150 100"
	 style="enable-background:new 0 0 150 100;" xml:space="preserve"><g transform="translate(27.376441239093168 18.250960826062112) scale(0.6349807834787577)">
<style type="text/css">
	.st0{fill:#DBD4CA;}
	.st1{fill:none;stroke:#565440;}
	.st2{fill:none;stroke:#565440;stroke-width:1.0000414;stroke-miterlimit:4.0001655;}
	.st3{fill:#565440;}
</style>
<metadata>
	<sfw  xmlns="&ns_sfw;">
		<slices></slices>
		<sliceSourceBounds  bottomLeftOrigin="true" height="100" width="124.927597" x="5.4947901" y="0"></sliceSourceBounds>
	</sfw>
</metadata>
<polygon id="Floor_1_" class="st0" points="123.5548477,0.0010927 123.5548477,6.3241415 129.3750763,7.9235978 
	123.7668686,31.0012608 121.716423,49.8612556 129.4355774,52.7558594 123.9693222,74.896965 121.9392548,96.4902496 
	19.6005802,96.4902496 19.6005802,0.0010927 "/>
<path id="Doors" class="st1" d="M38.1958847,50.6814537c0,1.4945869,0.2717056,2.7174683,0.8152428,4.0761223
	c0.5434113,1.3586693,1.3586502,2.5815315,2.3098488,3.5325851c0.9510307,1.0869675,2.1739349,1.9022064,3.5325851,2.4456177
	s2.7174683,0.8152618,4.2120361,0.8152618V50.6814537 M73.5219498,50.6814537c0,1.4945869-0.2717056,2.7174683-0.8152466,4.0761223
	c-0.5435333,1.3586693-1.3586502,2.5815315-2.309845,3.5325851c-0.9511566,1.0869675-2.1739349,1.9022064-3.5325851,2.4456177
	s-2.7173462,0.8152618-4.2119102,0.8152618V50.6814537 M19.5816784,43.6161575
	c-1.7662716,0-3.3967953-0.4076195-5.0271511-1.0869675c-1.6303568-0.6793442-3.2608805-1.6303749-4.4836159-2.9891739
	c-1.2228613-1.2228813-2.3098493-2.7173233-2.9891753-4.3478241c-0.6793256-1.6303787-1.086946-3.3967972-1.086946-5.1630898
	h13.5868883"/>
<g id="Windows">
	
		<rect x="113.2634735" y="61.6517868" transform="matrix(0.2514896 -0.96786 0.96786 0.2514896 33.2805176 168.3720856)" class="st2" width="24.4667912" height="2.0352025"/>
	
		<rect x="114.6347733" y="17.97855" transform="matrix(0.2514896 -0.96786 0.96786 0.2514896 75.762886 135.9573669)" class="st2" width="22.2927685" height="2.0352025"/>
</g>
<g id="Walls">
	<polygon class="st3" points="23.6578007,4.0780406 50.8317451,4.0780406 50.8317451,29.485693 52.1904373,29.485693 
		52.1904373,4.0780406 116.0399551,4.0783119 116.0399551,7.4470849 122.8098831,7.4470849 129.467514,8.9415264 
		130.4187164,5.0014668 124.168663,3.598206 124.168663,0.0020448 124.168663,0 19.5816784,0.0020448 19.5816784,30.1650391 
		23.6578007,30.1650391 	"/>
	<polygon class="st3" points="130.4223938,96.0599213 126.4821854,95.1087646 124.2013321,95.1087646 124.2013321,73.3716354 
		124.168663,73.3716354 124.168663,73.3695908 116.0289764,73.3695908 116.027771,95.1108093 52.1904373,95.1108093 
		52.1904373,51.6324844 62.6523628,51.6324844 62.6523628,50.2738113 52.1904373,50.2738113 50.8317451,50.2738113 
		49.0654716,50.2738113 49.0654716,51.6324844 50.8317451,51.6324844 50.8317451,95.1108093 23.6578007,95.1108093 
		23.6578007,51.6324844 38.1958847,51.6324844 38.1958847,50.2738113 23.6578007,50.2738113 23.6578007,43.4803696 
		19.5816784,43.4803696 19.5816784,95.1108093 19.5816784,99.1868057 126.0988922,99.1832123 129.4712372,100 	"/>
	<polygon class="st3" points="124.168663,47.7817078 124.1697464,34.2166862 125.2567368,29.5063496 118.5990601,28.0117607 
		117.376152,33.1748505 117.3750687,50.2717667 73.5219498,50.2738113 73.5219498,51.6324844 122.8098831,51.6305656 
		129.467514,53.1250267 130.4187164,49.184948 	"/>
</g>
</g></svg>
