<?xml version="1.0" encoding="utf-8"?>
<!-- DO NOT EDIT THIS, THIS FILE IS GENERATED FROM "1_25-36_7.original.svg" using transform-svgs.js script -->
<!-- Generator: Adobe Illustrator 24.2.0, SVG Export Plug-In . SVG Version: 6.00 Build 0)  -->
<!DOCTYPE svg PUBLIC "-//W3C//DTD SVG 1.1//EN" "http://www.w3.org/Graphics/SVG/1.1/DTD/svg11.dtd" [
	<!ENTITY ns_extend "http://ns.adobe.com/Extensibility/1.0/">
	<!ENTITY ns_ai "http://ns.adobe.com/AdobeIllustrator/10.0/">
	<!ENTITY ns_graphs "http://ns.adobe.com/Graphs/1.0/">
	<!ENTITY ns_vars "http://ns.adobe.com/Variables/1.0/">
	<!ENTITY ns_imrep "http://ns.adobe.com/ImageReplacement/1.0/">
	<!ENTITY ns_sfw "http://ns.adobe.com/SaveForWeb/1.0/">
	<!ENTITY ns_custom "http://ns.adobe.com/GenericCustomNamespace/1.0/">
	<!ENTITY ns_adobe_xpath "http://ns.adobe.com/XPath/1.0/">
]>
<svg version="1.1" id="Слой_1" xmlns:x="&ns_extend;" xmlns:i="&ns_ai;" xmlns:graph="&ns_graphs;"
	 xmlns="http://www.w3.org/2000/svg" xmlns:xlink="http://www.w3.org/1999/xlink" x="0px" y="0px" viewBox="0 0 150 100"
	 style="enable-background:new 0 0 150 100;" xml:space="preserve"><g transform="translate(27.83535099831666 18.55690066554444) scale(0.6288619866891112)">
<style type="text/css">
	.st0{fill:#DBD4CA;}
	.st1{fill:none;stroke:#565440;}
	.st2{fill:#565440;}
	.st3{fill:none;stroke:#565440;stroke-width:1.0000414;stroke-miterlimit:4.0001655;}
</style>
<metadata>
	<sfw  xmlns="&ns_sfw;">
		<slices></slices>
		<sliceSourceBounds  bottomLeftOrigin="true" height="100.0000458" width="123.5528793" x="6.4168115" y="0"></sliceSourceBounds>
	</sfw>
</metadata>
<polygon id="Floor_1_" class="st0" points="20.0233994,16.9333477 20.0233994,99.3938522 122.0665665,99.3938522 
	122.0665665,80.6470337 123.7577286,75.7867203 128.6323853,55.516552 122.7179947,52.7926254 122.7179947,34.3141441 
	128.2924652,11.8267212 121.6426773,10.0472717 121.6426773,-0.0000438 20.1577835,-0.0000438 "/>
<path id="Doors" class="st1" d="M20.0565453,85.4166718c-1.8090611,0-3.3326092-0.2856598-4.9512587-0.9522018
	c-1.6186085-0.6665497-3.1421547-1.6186295-4.2846708-2.8564987c-1.3329687-1.1425171-2.2851963-2.6660614-2.9517426-4.2846909
	s-0.9520617-3.3326111-0.9520617-5.1416931h13.2349606 M102.4209824,47.4529724
	c0-1.4783707,0.2687607-2.8222771,0.8063965-4.1662064c0.5375137-1.3439293,1.3439102-2.6878357,2.2846222-3.6286926
	c0.940834-1.0751686,2.1503372-1.8815651,3.6286926-2.5535164c1.3439026-0.5375137,2.8222961-0.8064156,4.3006439-0.8064156
	V47.318531 M35.6265678,69.4938736c0-1.478363-0.2687569-2.6878357-0.8063965-4.0318832
	c-0.5376358-1.3439331-1.3440742-2.553524-2.2847824-3.4942551c-0.940836-1.0751686-2.1503429-1.8815651-3.4942513-2.4190788
	s-2.6878567-0.8064156-4.1662045-0.8064156v10.6171722 M51.0819168,27.5625343
	c-1.3439064,0-2.6878548-0.2687569-3.8974457-0.8064156s-2.5535431-1.2096119-3.4942513-2.2847633
	c-0.940712-0.9407101-1.7471046-2.150322-2.2846184-3.3599339s-0.8063965-2.6878357-0.8063965-4.031889h10.6171951"/>
<g id="Walls">
	<polygon class="st2" points="122.1370697,54.5484428 128.7225037,56.0268135 129.663208,52.129364 123.4809723,50.741497 
		123.4715271,32.393261 115.4380035,32.393261 115.4324722,47.1770515 113.4324188,47.1825829 113.4324188,51.2144928 
		115.4308624,51.2162476 115.4296265,54.5484428 	"/>
	<polygon class="st2" points="123.4885712,94.7310486 123.4885712,80.9468079 124.5637207,76.287735 118.0133362,74.8092194 
		116.8037033,79.9162827 116.8037033,95.9681091 80.3366547,95.9681091 80.3366547,95.9652634 24.066227,95.9652634 
		24.066227,85.3871841 24.0611076,85.3871841 24.0611076,85.3843307 20.0292206,85.3843307 20.0292206,99.9971695 
		20.034338,99.9971695 20.034338,99.9998779 129.0284424,99.9998779 129.0288544,100 129.969696,96.1024246 	"/>
	<polygon class="st2" points="123.4730072,6.7828994 123.4809723,0 20.0278587,0.0101542 20.0278587,72.1802292 
		24.0597458,72.1802292 24.0597458,70.4329758 25.2693367,70.4329758 25.2693367,69.0890503 24.0597458,69.0890503 
		24.0597458,51.2144928 50.9386864,51.2144928 50.9386864,69.0890503 34.9456978,69.0890503 34.9456978,70.4329758 
		50.9386864,70.4329758 50.9386864,76.6153107 52.2827187,76.6153107 52.2827187,51.2144928 102.4120255,51.2144928 
		102.4120255,47.1825829 52.2827187,47.1825829 52.2827187,27.0233898 50.9386864,27.0233898 50.9386864,47.1825829 
		24.0597458,47.1825829 24.0597458,4.0418983 50.9386864,4.0418983 50.9386864,17.3469276 52.2827187,17.3469276 
		52.2827187,4.0418983 116.7881851,4.0388021 116.7881851,10.902585 123.4730072,10.902585 123.4730072,10.8914814 
		128.3112946,11.9777355 129.2519989,8.080164 	"/>
</g>
<g id="Windows">
	
		<rect x="112.6899719" y="20.3218708" transform="matrix(0.2514896 -0.96786 0.96786 0.2514896 72.7641373 136.7444)" class="st3" width="24.2012882" height="2.0131173"/>
	
		<rect x="114.0505142" y="64.9656372" transform="matrix(0.2514896 -0.96786 0.96786 0.2514896 29.7687912 170.4368744)" class="st3" width="22.0508556" height="2.0131173"/>
</g>
</g></svg>
