<?xml version="1.0" encoding="utf-8"?>
<!-- DO NOT EDIT THIS, THIS FILE IS GENERATED FROM "1_25-36_6.original.svg" using transform-svgs.js script -->
<!-- Generator: Adobe Illustrator 24.2.0, SVG Export Plug-In . SVG Version: 6.00 Build 0)  -->
<!DOCTYPE svg PUBLIC "-//W3C//DTD SVG 1.1//EN" "http://www.w3.org/Graphics/SVG/1.1/DTD/svg11.dtd" [
	<!ENTITY ns_extend "http://ns.adobe.com/Extensibility/1.0/">
	<!ENTITY ns_ai "http://ns.adobe.com/AdobeIllustrator/10.0/">
	<!ENTITY ns_graphs "http://ns.adobe.com/Graphs/1.0/">
	<!ENTITY ns_vars "http://ns.adobe.com/Variables/1.0/">
	<!ENTITY ns_imrep "http://ns.adobe.com/ImageReplacement/1.0/">
	<!ENTITY ns_sfw "http://ns.adobe.com/SaveForWeb/1.0/">
	<!ENTITY ns_custom "http://ns.adobe.com/GenericCustomNamespace/1.0/">
	<!ENTITY ns_adobe_xpath "http://ns.adobe.com/XPath/1.0/">
]>
<svg version="1.1" id="Слой_1" xmlns:x="&ns_extend;" xmlns:i="&ns_ai;" xmlns:graph="&ns_graphs;"
	 xmlns="http://www.w3.org/2000/svg" xmlns:xlink="http://www.w3.org/1999/xlink" x="0px" y="0px" viewBox="0 0 150 100"
	 style="enable-background:new 0 0 150 100;" xml:space="preserve"><g transform="translate(4.186262695152659 2.7908417967684396) scale(0.9441831640646312)">
<style type="text/css">
	.st0{fill:#DBD4CA;}
	.st1{fill:none;stroke:#565440;}
	.st2{fill:#565440;}
</style>
<metadata>
	<sfw  xmlns="&ns_sfw;">
		<slices></slices>
		<sliceSourceBounds  bottomLeftOrigin="true" height="99.9624786" width="56.0887718" x="47.0422287" y="0"></sliceSourceBounds>
	</sfw>
</metadata>
<polygon id="Floor" class="st0" points="47.0422287,98.510437 47.0422287,8.8417292 47.0422287,4.5460868 50.7082443,4.5460868 
	51.6822624,0.7772684 64.1732178,3.9460232 83.5337448,3.9460232 84.7179413,0.4346485 101.7914124,4.5460868 99.6686325,12.974535 
	99.6686325,26.1311378 99.2883453,26.1311378 99.2883453,35.7244835 102.4048538,37.0949707 99.2883453,49.6270027 
	99.2883453,56.5855865 102.4908218,57.9812508 99.4630432,70.2036896 99.4630432,79.3693314 102.6748428,81.3052979 
	99.4630432,94.1104279 99.4630432,99.4951019 47.0422287,99.4951019 "/>
<g id="Windows">
	<polygon class="st1" points="101.6004639,4.4790802 85.1546783,0.6417291 84.9491043,1.6695657 100.4355469,5.2328563 
		98.6539307,12.9760399 98.6539307,25.8585472 99.6817551,25.8585472 99.6817551,12.9760399 	"/>
	<polygon class="st1" points="101.3263397,57.6536789 102.354187,57.8592644 99.6132736,69.8509674 98.5853806,69.6454544 	"/>
	<polygon class="st1" points="101.3263397,36.4112473 102.354187,36.6168289 99.6132736,48.6085281 98.5853806,48.4029503 	"/>
	<polygon class="st1" points="50.7556,0.7787601 63.6381149,3.7253072 63.4326019,4.7531424 50.5500221,1.8066651 	"/>
	<polygon class="st1" points="99.5771408,92.9587326 98.583786,92.7005234 101.5286102,81.3052979 102.521965,81.5634232 	"/>
</g>
<path id="Doors" class="st1" d="M55.9634743,61.0799408c0-0.7537766,0.1370316-1.3704491,0.4111557-2.0557442
	c0.2740631-0.6852264,0.6852188-1.3019714,1.1649437-1.7816086c0.479641-0.5481949,1.0963936-0.9593544,1.7816124-1.2334175
	s1.3704567-0.4111633,2.1242867-0.4111633v5.4819336 M62.8158684,35.7260208c-0.7537651,0-1.3704605-0.1370277-2.0557404-0.4111595
	c-0.6852188-0.2740631-1.3018875-0.6852226-1.7816124-1.1649361c-0.5481873-0.4796486-0.9593658-1.096386-1.233429-1.7816086
	c-0.2741241-0.6852245-0.4111557-1.3704491-0.4111557-2.1242237h5.4819374 M64.1863632,28.8736401
	c0-0.7537766,0.1370316-1.3704472,0.4111633-2.0557442c0.2741241-0.6852226,0.6852112-1.3019676,1.1649399-1.7816086
	c0.4797058-0.548193,1.0963974-0.9593544,1.7816162-1.2334156c0.6852112-0.2740612,1.3704529-0.4111614,2.1242218-0.4111614
	v5.4819298 M76.47435,30.2440929c0.7537689,0,1.3704605,0.1370316,2.0557404,0.4111614s1.3019714,0.6852226,1.7816162,1.1649361
	c0.5481873,0.4796448,0.9593582,1.096386,1.2334213,1.7816086c0.2741241,0.6852226,0.4111557,1.3704491,0.4111557,2.1242218
	H76.47435 M49.1110382,66.5617981c0.8907967,0,1.7130699,0.2055893,2.5353813,0.5481949
	c0.8223343,0.3426132,1.6445808,0.822258,2.2612534,1.5075455c0.6167336,0.616745,1.1649437,1.3705215,1.5075531,2.1927719
	c0.3426056,0.822258,0.5481873,1.7131271,0.5481873,2.6039352h-6.852375 M63.1584778,86.5023422
	c0.685215,0,1.3019714,0.1370316,1.9186401,0.4111633c0.6167374,0.2740631,1.233429,0.6166687,1.7131348,1.1648712
	c0.4796371,0.4796371,0.8907928,1.0278397,1.164856,1.6445847c0.2740631,0.6167374,0.4111557,1.3019562,0.4111557,1.9871902
	h-5.2078094 M89.1976089,76.0181198c0,0.7537766,0.1370316,1.3705215,0.4111557,2.0557404
	c0.2741241,0.6852264,0.6852188,1.3019638,1.1649475,1.7816086c0.4796982,0.5482025,1.0963898,0.9593582,1.7816086,1.2334213
	s1.3704605,0.4111633,2.1242294,0.4111633v-5.4819336"/>
<g id="Walls">
	<polygon class="st2" points="49.1071053,61.6951675 55.9595375,61.6951675 55.9595375,61.0099411 49.1071053,61.0099411 
		49.1071053,48.7441101 62.8119316,48.7441101 62.8119316,61.0099411 61.4414749,61.0099411 61.4414749,61.6951675 
		62.8119316,61.6951675 63.4971504,61.6951675 63.4971504,61.0099411 63.4971504,35.7245064 62.8119316,35.7245064 
		62.8119316,48.0588188 49.1071053,48.0588188 49.1071053,29.5573483 62.8119316,29.5573483 62.8119316,30.2425728 
		63.4971504,30.2425728 63.4971504,29.5573483 64.1823654,29.5573483 64.1823654,28.8721256 49.1071053,28.8721256 
		49.1071053,5.5739498 51.1628418,5.5739498 52.2592163,0.9143429 50.2720261,0.4346304 49.546463,3.5182085 49.1071053,3.5182085 
		47.0514297,3.5182085 47.0514297,66.5603561 49.1071053,66.5603561 	"/>
	<polygon class="st2" points="75.831543,28.8721256 69.6643066,28.8721256 69.6643066,29.5573483 75.831543,29.5573483 
		75.831543,30.2625027 76.5167618,30.2625027 76.5167618,6.9443998 85.4248734,6.9443998 85.4248734,6.9290886 
		85.4933548,6.9443998 86.8638077,0.9143429 83.5061646,0.1605 82.7430954,3.5182085 76.5167618,3.5182085 61.4414749,3.5182085 
		61.4414749,5.5739498 75.831543,5.5739498 	"/>
	<polygon class="st2" points="100.3472519,47.8047562 97.0074081,47.0509796 96.3906784,49.6549187 96.3906784,58.6033821 
		99.7990646,58.6033821 99.7990646,58.5977974 102.2659836,59.151577 102.7456207,57.1643829 99.7990646,56.5029526 
		99.7990646,50.1802788 	"/>
	<polygon class="st2" points="76.5008926,35.7260208 75.8156128,35.7260208 75.8156128,36.736618 71.018959,36.736618 
		71.018959,37.4219093 99.7990646,37.416256 102.2659836,37.9701042 102.7456207,35.9828415 99.7990646,35.3214111 
		99.7990646,25.1754608 95.7002182,25.1754608 95.7002182,36.736618 76.5008926,36.736618 	"/>
	<polygon class="st2" points="99.413208,81.2188187 102.4665985,81.9041824 102.4668045,81.9035645 102.4688721,81.9040451 
		102.9485703,79.9168549 99.7964554,79.2092133 99.79673,78.5554352 99.7967987,78.5554352 99.7967987,78.4040604 
		99.797699,76.1534958 99.7990646,76.1534958 99.7990646,69.6634445 95.6938629,69.6634445 95.6938629,74.0977478 
		95.693924,74.0977478 95.693924,74.0979614 94.6756134,74.0979614 94.6756134,76.1534958 95.6938629,76.1534958 
		95.6938629,76.1552887 95.693924,76.1552887 95.693924,81.2188187 	"/>
	<polygon class="st2" points="100.3420181,92.6597672 97.0021057,91.9059906 96.385376,94.5099335 96.385376,97.9443207 
		91.2425308,97.9443207 63.4971504,97.9443207 63.4971504,91.5031052 62.8119316,91.5031052 62.8119316,97.9443207 
		49.1071053,97.9443207 49.1071053,79.9225006 62.8119316,79.9225006 62.8119316,86.6378555 63.4971504,86.6378555 
		63.4971504,76.1537018 89.1936722,76.1537018 89.1936722,74.0979614 60.1395226,74.0979614 60.1395226,76.1537018 
		62.8119316,76.1537018 62.8119316,79.2372742 49.1071053,79.2372742 49.1071053,73.4127274 47.0514297,73.4127274 47.0514297,100 
		99.7988586,100 99.7973404,97.6063385 99.7953415,97.6063385 99.7937622,95.0352936 	"/>
</g>
</g></svg>
