<?xml version="1.0" encoding="utf-8"?>
<!-- DO NOT EDIT THIS, THIS FILE IS GENERATED FROM "1_37_3.original.svg" using transform-svgs.js script -->
<!-- Generator: Adobe Illustrator 24.2.0, SVG Export Plug-In . SVG Version: 6.00 Build 0)  -->
<!DOCTYPE svg PUBLIC "-//W3C//DTD SVG 1.1//EN" "http://www.w3.org/Graphics/SVG/1.1/DTD/svg11.dtd" [
	<!ENTITY ns_extend "http://ns.adobe.com/Extensibility/1.0/">
	<!ENTITY ns_ai "http://ns.adobe.com/AdobeIllustrator/10.0/">
	<!ENTITY ns_graphs "http://ns.adobe.com/Graphs/1.0/">
	<!ENTITY ns_vars "http://ns.adobe.com/Variables/1.0/">
	<!ENTITY ns_imrep "http://ns.adobe.com/ImageReplacement/1.0/">
	<!ENTITY ns_sfw "http://ns.adobe.com/SaveForWeb/1.0/">
	<!ENTITY ns_custom "http://ns.adobe.com/GenericCustomNamespace/1.0/">
	<!ENTITY ns_adobe_xpath "http://ns.adobe.com/XPath/1.0/">
]>
<svg version="1.1" id="Слой_1" xmlns:x="&ns_extend;" xmlns:i="&ns_ai;" xmlns:graph="&ns_graphs;"
	 xmlns="http://www.w3.org/2000/svg" xmlns:xlink="http://www.w3.org/1999/xlink" x="0px" y="0px" viewBox="0 0 150 100"
	 style="enable-background:new 0 0 150 100;" xml:space="preserve"><g transform="translate(15.651998236442255 10.434665490961503) scale(0.7913066901807699)">
<style type="text/css">
	.st0{fill:#DBD4CA;}
	.st1{fill:#565440;}
	.st2{fill:none;stroke:#565440;}
</style>
<metadata>
	<sfw  xmlns="&ns_sfw;">
		<slices></slices>
		<sliceSourceBounds  bottomLeftOrigin="true" height="99.9957809" width="73.3024063" x="38.3497772" y="0.0000219">
			</sliceSourceBounds>
	</sfw>
</metadata>
<polygon id="Floor" class="st0" points="38.5278931,0.5041953 38.5278931,99.9999542 94.1971741,99.9999542 94.1971741,54.8909569 
	111.1521835,54.8909569 111.1521835,0.5041953 "/>
<g id="Walls">
	<polygon class="st1" points="38.5298462,55.2108536 70.755249,55.2108536 70.755249,53.2913589 70.5668335,53.2913589 
		70.5668335,52.5105972 69.9269409,52.5105972 69.9269409,53.2913589 42.3748169,53.2913589 42.3748169,50.0921402 
		38.5278931,50.0921402 38.5278931,53.2913589 38.5298462,53.2913589 	"/>
	<polygon class="st1" points="42.3748169,36.6553726 41.7290649,36.6553726 41.7290649,31.2854404 69.9269409,31.2854404 
		69.9269409,47.532753 70.5668335,47.532753 70.5668335,31.2854404 71.8740234,31.2854404 71.8740234,30.6455479 
		70.5668335,30.6455479 69.9269409,30.6455479 41.7290649,30.6455479 41.7290649,23.218668 38.5298462,23.218668 
		38.5298462,36.6553726 38.5278931,36.6553726 38.5278931,41.1343155 42.3748169,41.1343155 	"/>
	<rect x="38.5278931" y="9.7819605" class="st1" width="3.8469238" height="4.4788818"/>
	<polygon class="st1" points="57.7247925,3.383523 71.1144409,3.383523 71.1144409,0.1842432 57.7247925,0.1842432 
		57.7247925,0.1822901 53.2467041,0.1822901 53.2467041,4.0292139 57.7247925,4.0292139 	"/>
	<polygon class="st1" points="108.2728882,9.7819605 108.2728882,38.6440201 93.1776733,38.6440201 92.5378418,38.6440201 
		90.7513428,38.6440201 90.7513428,39.2838516 92.5378418,39.2838516 92.5378418,41.1500015 93.1776733,41.1500015 
		93.1776733,39.2838516 108.2728882,39.2838516 108.2728882,53.2913589 94.1972046,53.2913589 93.1776733,53.2913589 
		93.1776733,46.7696915 92.5378418,46.7696915 92.5378418,53.2913589 92.2776489,53.2913589 92.2776489,55.2108536 
		92.2776489,56.0879898 79.4799194,56.0879898 79.4799194,39.2838516 80.1201782,39.2838516 80.7600098,39.2838516 
		85.9702148,39.2838516 85.9702148,38.6440201 80.7600098,38.6440201 80.7600098,37.9350967 80.1201782,37.9350967 
		80.1201782,38.6440201 79.4799194,38.6440201 78.8400269,38.6440201 78.8400269,39.2838516 78.8400269,62.2436905 
		79.4799194,62.2436905 79.4799194,56.7278214 92.2776489,56.7278214 92.2776489,69.459938 79.4799194,69.459938 
		79.4799194,67.2427139 78.8400269,67.2427139 78.8400269,78.2214737 78.8400269,78.8613663 79.4799194,78.8613663 
		79.9996338,78.8613663 79.9996338,78.2214737 79.4799194,78.2214737 79.4799194,70.0997696 92.2776489,70.0997696 
		92.2776489,78.2214737 84.4308472,78.2214737 84.4308472,78.8613663 92.2776489,78.8613663 92.2776489,79.4867325 
		94.1972046,79.4867325 94.1972046,55.2108536 111.4721069,55.2108536 111.4721069,53.2913589 111.4721069,9.7819605 	"/>
	<polygon class="st1" points="80.1201782,32.8913345 80.7600098,32.8913345 80.7600098,4.0292139 84.5982666,4.0292139 
		84.5982666,3.383523 97.1576538,3.383523 97.1576538,0.1842432 84.5982666,0.1842432 84.5982666,0.1822901 80.1201782,0.1822901 
		80.1201782,3.383523 80.1201782,4.0292139 80.1201782,30.6455479 76.6143188,30.6455479 76.6143188,31.2854404 
		80.1201782,31.2854404 	"/>
	<rect x="38.5307007" y="63.5288467" class="st1" width="3.1992188" height="4.4789429"/>
	<rect x="38.5289917" y="76.9656143" class="st1" width="3.8469238" height="4.4788818"/>
	<polygon class="st1" points="92.2776489,90.7278824 83.7091675,90.7278824 83.7091675,91.3677139 92.2776489,91.3677139 
		92.2776489,98.0804214 78.5779419,98.0804214 78.5779419,91.3677139 78.9397583,91.3677139 78.9397583,90.7278824 
		78.5779419,90.7278824 77.9380493,90.7278824 77.9380493,91.3677139 77.9380493,98.0804214 42.3759155,98.0804214 
		42.3759155,95.8943863 41.7299194,95.8943863 41.7299194,90.2328262 38.5307007,90.2328262 38.5307007,95.8943863 
		38.5289917,95.8943863 38.5289917,99.9999771 41.9387207,99.9999771 42.3759155,99.9999771 94.1972046,99.9999771 
		94.1972046,98.0804214 94.1972046,85.8341446 92.2776489,85.8341446 	"/>
</g>
<g id="Windows_1_">
	<polygon id="Windows" class="st2" points="110.192421,0.5041953 38.8497772,0.5041953 38.8497772,50.4120483 
		39.8095436,50.4120483 39.8095436,1.4639616 110.192421,1.4639616 110.192421,10.1018629 111.1521835,10.1018629 
		111.1521835,0.5041953 	"/>
	<path id="Windows_1" class="st2" d="M38.8497772,54.8909569h0.9597664v35.8312569h-0.9597664V54.8909569z"/>
</g>
<g id="Doors">
	<path class="st2" d="M78.894455,67.34478c-0.7038345,0-1.2796936-0.1279678-1.9195328-0.3839111
		c-0.6398468-0.2559204-1.2157059-0.6398315-1.6636047-1.0877304c-0.5118866-0.4478989-0.8957748-1.0237579-1.1517258-1.6636047
		c-0.2559357-0.6398392-0.3839111-1.279686-0.3839111-1.9835167h5.1187515"/>
	<path class="st2" d="M84.6424103,78.6545486c0,0.7038269-0.1279755,1.279686-0.3839111,1.9195328
		c-0.2559357,0.6398392-0.6398468,1.2156982-1.0877457,1.6635971c-0.4478989,0.511879-1.0237503,0.8957748-1.6635971,1.1517181
		c-0.6398468,0.2559357-1.279686,0.3839111-1.9835205,0.3839111v-5.1187515"/>
	<path class="st2" d="M84.0626831,90.7978363c0-0.7038269-0.1279755-1.279686-0.3839111-1.9195328
		c-0.255928-0.6398392-0.6398392-1.2156982-1.087738-1.6635971c-0.4478989-0.511879-1.0237579-0.8957748-1.6635971-1.1517181
		c-0.6398468-0.2559357-1.2796936-0.3839111-1.9835205-0.3839111v5.1187439"/>
	<path class="st2" d="M94.1555023,79.4774246c0.8317871,0,1.5996094,0.1919556,2.3674316,0.5118713
		c0.7678223,0.3199234,1.5356216,0.7678146,2.1114807,1.4076614c0.5758514,0.5758514,1.087738,1.279686,1.4076614,2.047493
		c0.3199234,0.7678146,0.5118713,1.599617,0.5118713,2.4314117h-6.3984451"/>
	<path class="st2" d="M71.6188202,30.8575439c0-0.7038326,0.1279755-1.2796879,0.3839111-1.9195328
		c0.2559357-0.639843,0.6398468-1.2157001,1.0877457-1.663599c0.4478989-0.5118771,1.0237503-0.8957767,1.6635971-1.15172
		c0.6398468-0.2559338,1.279686-0.3839111,1.9835205-0.3839111v5.1187534"/>
	<path class="st2" d="M80.1188431,37.9629784c-0.7038498,0-1.2796936-0.1279678-1.9195328-0.3839111
		c-0.6398468-0.2559319-1.2157211-0.639843-1.66362-1.0877342c-0.5118637-0.4478874-0.8957596-1.0237541-1.1517105-1.6635971
		c-0.2559357-0.639843-0.3839111-1.2796898-0.3839111-1.9835205h5.1187515"/>
	<path class="st2" d="M70.0353165,52.5655556c-0.7038269,0-1.279686-0.1279678-1.9195328-0.3839111
		c-0.6398468-0.2559319-1.2157059-0.639843-1.6636047-1.0877304c-0.511879-0.4478912-0.8957748-1.0237579-1.1517181-1.6636009
		c-0.2559357-0.639843-0.3839111-1.2796898-0.3839111-1.9835205h5.1187515"/>
	<path class="st2" d="M85.8854446,38.8628769c0-0.7038345,0.1279755-1.2796898,0.3839111-1.9195328
		s0.6398468-1.2157021,1.0877457-1.6636009c0.447876-0.5118675,1.0237503-0.8957748,1.6635971-1.1517105
		c0.6398468-0.2559319,1.279686-0.3839111,1.9835205-0.3839111v5.1187553"/>
</g>
</g></svg>
