<?xml version="1.0" encoding="utf-8"?>
<!-- DO NOT EDIT THIS, THIS FILE IS GENERATED FROM "1_39_1.original.svg" using transform-svgs.js script -->
<!-- Generator: Adobe Illustrator 24.2.0, SVG Export Plug-In . SVG Version: 6.00 Build 0)  -->
<!DOCTYPE svg PUBLIC "-//W3C//DTD SVG 1.1//EN" "http://www.w3.org/Graphics/SVG/1.1/DTD/svg11.dtd" [
	<!ENTITY ns_extend "http://ns.adobe.com/Extensibility/1.0/">
	<!ENTITY ns_ai "http://ns.adobe.com/AdobeIllustrator/10.0/">
	<!ENTITY ns_graphs "http://ns.adobe.com/Graphs/1.0/">
	<!ENTITY ns_vars "http://ns.adobe.com/Variables/1.0/">
	<!ENTITY ns_imrep "http://ns.adobe.com/ImageReplacement/1.0/">
	<!ENTITY ns_sfw "http://ns.adobe.com/SaveForWeb/1.0/">
	<!ENTITY ns_custom "http://ns.adobe.com/GenericCustomNamespace/1.0/">
	<!ENTITY ns_adobe_xpath "http://ns.adobe.com/XPath/1.0/">
]>
<svg version="1.1" id="Слой_1" xmlns:x="&ns_extend;" xmlns:i="&ns_ai;" xmlns:graph="&ns_graphs;"
	 xmlns="http://www.w3.org/2000/svg" xmlns:xlink="http://www.w3.org/1999/xlink" x="0px" y="0px" viewBox="0 0 150 100"
	 style="enable-background:new 0 0 150 100;" xml:space="preserve"><g transform="translate(28.245862365288907 18.830574910192606) scale(0.6233885017961479)">
<style type="text/css">
	.st0{fill:#DBD4CA;}
	.st1{fill:none;stroke:#565440;}
	.st2{fill:#565440;}
</style>
<metadata>
	<sfw  xmlns="&ns_sfw;">
		<slices></slices>
		<sliceSourceBounds  bottomLeftOrigin="true" height="100.1502991" width="112.1888275" x="18.9055862" y="-0.1502968">
			</sliceSourceBounds>
	</sfw>
</metadata>
<polygon id="Floor" class="st0" points="95.97229,1.5531616 95.97229,23.0768909 18.9509201,23.0768909 18.9509201,99.7479095 
	130.746933,99.7479095 130.746933,1.5531616 "/>
<g id="Windows">
	<polygon class="st1" points="20.4545231,24.1957169 19.4055862,24.1957169 19.4055862,99.6502991 78.1469193,99.6502991 
		78.1469193,98.6013565 20.4546108,98.6013565 	"/>
	<polygon class="st1" points="129.5454712,29.7202206 129.5454712,98.6013565 78.9160843,98.6013565 78.9160843,99.6502991 
		130.5944214,99.6502991 130.5944214,29.7202206 	"/>
</g>
<g id="Walls">
	<polygon class="st2" points="23.2517204,25.1748085 61.9930038,25.1748085 61.9930038,36.363636 61.9930038,37.06287 
		61.9930038,37.0629158 67.7972336,37.0629158 67.7972336,36.363636 62.6922798,36.363636 62.6922798,25.1748085 
		79.0559082,25.1748085 79.0559082,36.363636 72.9720383,36.363636 72.9720383,37.0629158 79.755188,37.0629158 79.755188,37.06287 
		79.755188,25.1748085 81.4336014,25.1748085 81.4336014,23.0768909 19.0558834,23.0768909 19.0558834,30.0698814 
		23.2517204,30.0698814 	"/>
	<rect x="19.0558834" y="40.5594292" class="st2" width="3.4964738" height="4.8951149"/>
	<polygon class="st2" points="22.5524426,68.5314789 41.2322464,68.5314789 41.2322464,67.8321991 22.5524426,67.8321991 
		22.5524426,67.4824524 23.2517204,67.4824524 23.2517204,61.3985825 22.5524426,61.3985825 22.5524426,55.3146629 
		19.0558834,55.3146629 19.0558834,61.3985825 19.0558834,67.4824524 19.0558834,75.1048355 22.5524426,75.1048355 	"/>
	<polygon class="st2" points="48.4265709,68.5314789 49.5453987,68.5314789 49.5453987,67.8321991 46.8266411,67.8321991 
		46.8266411,68.5314789 47.7272072,68.5314789 47.7272072,96.5035248 40.0349388,96.5035248 40.0349388,95.8041611 
		35.1398239,95.8041611 35.1398239,100 54.7202835,100 54.7202835,96.5035248 48.4265709,96.5035248 	"/>
	<rect x="19.0558834" y="84.6154175" class="st2" width="4.1957941" height="4.8951149"/>
	<polygon class="st2" points="109.2657394,95.8042068 109.2588196,95.8042068 109.2588196,96.5033112 104.069458,96.5033112 
		104.069458,74.9129105 104.069458,74.8251877 104.0695496,74.8251877 104.0695496,74.1259155 104.069458,74.1259155 
		104.069458,73.6882782 103.3701859,73.6882782 103.3701859,74.1259155 102.549469,74.1259155 102.549469,74.8251877 
		103.3701859,74.8251877 103.3701859,74.9129105 103.3701859,96.5033112 94.5736542,96.5033112 94.5736542,99.9997864 
		94.5804367,99.9997864 94.5804367,100 114.1608505,100 114.1608505,95.8041611 109.2657394,95.8041611 	"/>
	<polygon class="st2" points="95.9789963,0 95.9789963,0.0007732 95.97229,0.0007732 95.97229,23.0768909 88.42659,23.0768909 
		88.42659,25.1748085 91.5069046,25.1748085 91.5069046,25.1753235 92.4753036,25.1753235 92.4753036,35.6647034 
		92.4753036,36.2788849 92.4753036,36.3639793 97.3713226,36.3639793 97.3713226,41.6282578 99.0261917,41.6282578 
		99.0261917,40.928978 98.0705948,40.928978 98.0705948,35.6679688 98.0701675,35.6679688 98.0701675,35.6647034 
		93.1745834,35.6647034 93.1745834,25.1753235 98.0701675,25.1753235 98.0701675,25.1748085 98.0769119,25.1748085 
		98.0769119,16.2673206 100.1282654,16.2673206 100.1282654,15.5680437 98.0769119,15.5680437 98.0769119,3.4971611 
		115.0653305,3.4971611 115.0653305,15.5676994 105.3486023,15.5676994 105.3486023,16.2669773 119.4350967,16.2669773 
		119.4350967,15.5676994 115.7646103,15.5676994 115.7646103,3.4971611 127.4475555,3.4971611 127.4475555,15.5677853 
		124.7716675,15.5677853 124.7716675,16.2670631 127.4475555,16.2670631 127.4475555,30.0698814 127.4475555,30.0703964 
		130.9369812,30.0703964 130.9369812,30.0698814 130.9441223,30.0698814 130.9441223,0 	"/>
	<polygon class="st2" points="126.7482376,51.7484283 126.6720734,51.7484283 126.6720734,56.643589 127.4405136,56.643589 
		127.4405136,67.8322449 105.8505783,67.8322449 105.3093414,67.8322449 105.3093414,55.8671608 104.6100616,55.8671608 
		104.6100616,67.8322449 104.069458,67.8322449 103.3701859,67.8322449 103.3695374,67.8322449 103.3695374,68.5315247 
		103.3701859,68.5315247 103.3701859,69.0568695 104.069458,69.0568695 104.069458,68.5315247 104.6100616,68.5315247 
		105.3093414,68.5315247 105.8505783,68.5315247 127.4405136,68.5315247 127.4405136,71.3287582 130.9369812,71.3287582 
		130.9369812,71.3286743 130.9441223,71.3286743 130.9441223,51.7482567 126.7482376,51.7482567 	"/>
	<polygon class="st2" points="130.9369812,84.6153336 126.6659317,84.6153336 126.6659317,89.5104065 126.8182144,89.5104065 
		126.8182144,89.5105362 130.9440765,89.5105362 130.9440765,84.6154175 130.9369812,84.6154175 	"/>
	<polygon class="st2" points="130.9369812,44.7555275 130.9369812,44.7552681 130.9440308,44.7552681 130.9440308,39.8601532 
		127.4475555,39.8601532 127.4475555,39.8604965 127.4405136,39.8604965 127.4405136,40.928894 104.1362152,40.928894 
		104.1362152,41.62817 104.6100616,41.62817 104.6100616,49.6684685 105.3093414,49.6684685 105.3093414,41.62817 
		127.4405136,41.62817 127.4405136,44.7555275 	"/>
	<polygon class="st2" points="79.895134,96.5035248 79.895134,68.5315247 96.286087,68.5315247 96.286087,74.1259155 
		96.286087,74.6508789 96.286087,74.8251877 97.4394455,74.8251877 97.4394455,74.1259155 96.9853592,74.1259155 
		96.9853592,68.5315247 96.9860916,68.5315247 96.9860916,67.8322449 96.9853592,67.8322449 96.286087,67.8322449 
		93.1750946,67.8322449 93.1750946,63.5969734 92.4758148,63.5969734 92.4758148,67.8322449 79.895134,67.8322449 
		79.895134,50.3498764 92.4758148,50.3498764 92.4758148,58.5776291 93.1750946,58.5776291 93.1750946,49.6505966 
		79.895134,49.6505966 79.895134,49.650341 61.9930038,49.650341 61.9930038,67.8321991 55.1397896,67.8321991 
		55.1397896,68.5314789 67.7272568,68.5314789 67.7272568,67.8321991 62.6922798,67.8321991 62.6922798,50.349659 
		77.7905579,50.349659 77.7905579,67.8321991 72.8321686,67.8321991 72.8321686,68.5314789 77.7905579,68.5314789 
		77.7905579,95.8041611 73.4615173,95.8041611 73.4615173,96.5035248 64.9300613,96.5035248 64.9300613,100 84.3006821,100 
		84.3006821,96.5035248 84.0842743,96.5035248 	"/>
</g>
<g id="Doors">
	<path class="st1" d="M55.1397896,68.4615173c0,0.7692261-0.139843,1.3985748-0.41959,2.0979156
		c-0.2797508,0.6992798-0.6992798,1.3286896-1.1888466,1.8181686c-0.4895439,0.559433-1.1188889,0.9790497-1.8181686,1.2587357
		c-0.699276,0.279686-1.3986397,0.4195938-2.1678085,0.4195938v-5.5944138"/>
	<path class="st1" d="M46.8266487,68.4615173c0,0.7692261-0.1398392,1.3985748-0.4196014,2.0979156
		c-0.2797585,0.6993408-0.6992874,1.3286896-1.1888351,1.8181686c-0.4894791,0.559433-1.1188812,0.9790497-1.8181686,1.2587357
		s-1.3986397,0.4195938-2.1678085,0.4195938v-5.5944138"/>
	<path class="st1" d="M67.4474869,68.4615173c0,0.7692261,0.1399078,1.3985748,0.4195938,2.0979156
		s0.6992798,1.3286896,1.1888428,1.8181686c0.4895477,0.559433,1.1188965,0.9790497,1.8181686,1.2587357
		c0.6992798,0.279686,1.3985825,0.4195938,2.1678085,0.4195938v-5.5944138"/>
	<path class="st1" d="M73.3216553,36.8531303c0,0.7692299-0.1398468,1.3985748-0.4195938,2.0979195
		c-0.2797546,0.699276-0.6992798,1.3286858-1.1888428,1.8181686c-0.4895477,0.559433-1.1188965,0.9790459-1.8181763,1.2587318
		c-0.6992722,0.279686-1.3985748,0.4195938-2.1678009,0.4195938v-5.5944138"/>
	<path class="st1" d="M88.4265671,23.3565865c0-0.9090729-0.2097931-1.7482796-0.559433-2.5873985
		c-0.3496399-0.8392067-0.8392105-1.6783276-1.5384827-2.3077164c-0.6293945-0.6293869-1.3985825-1.1887589-2.2377625-1.5384827
		c-0.8392105-0.3496399-1.7482834-0.5594349-2.6573563-0.5594349v6.9929695"/>
	<path class="st1" d="M93.1751099,58.2486801c0.7692261,0,1.3985748,0.139843,2.0979156,0.4195938
		c0.6992798,0.2797508,1.328598,0.699276,1.8181686,1.1888428c0.559433,0.4894829,0.9790497,1.1188927,1.2587357,1.8181686
		c0.279686,0.6992798,0.4195938,1.3985786,0.4195938,2.1678085h-5.5943527"/>
	<path class="st1" d="M104.0695419,68.8811417c0.6857452,0,1.2467957,0.1246643,1.8702393,0.374054
		c0.6233826,0.2493896,1.1844101,0.6233826,1.620842,1.0598221c0.4987259,0.4363556,0.8727951,0.9974594,1.1221313,1.6208496
		c0.2493286,0.6233826,0.374054,1.246788,0.374054,1.9325409h-4.9872131"/>
	<path class="st1" d="M97.3677902,74.8251877c0,0.7225189,0.1313477,1.313652,0.3941116,1.97052
		c0.2627563,0.6568146,0.6568069,1.2479172,1.1166458,1.707756c0.4597549,0.5254669,1.0509415,0.9195938,1.707756,1.1822968
		s1.3136444,0.3941116,2.0361633,0.3941116v-5.2546234"/>
	<path class="st1" d="M104.1966934,40.9352226c0-0.7225189-0.1313477-1.3136444-0.3941116-1.9705162
		c-0.2627563-0.6568146-0.6568069-1.247921-1.1166458-1.7077599c-0.4597549-0.5254593-1.0509415-0.91959-1.707756-1.1822929
		c-0.6568146-0.2626991-1.3136444-0.3941116-2.0361633-0.3941116v5.2546196"/>
	<path class="st1" d="M105.3093491,55.9772568c0.7489624,0,1.3617249-0.1618156,2.0426407-0.4855194
		c0.6808472-0.3236275,1.2935867-0.8091469,1.770256-1.3755341c0.544693-0.5663872,0.9532471-1.2946892,1.225563-2.1038361
		s0.4085312-1.6183205,0.4085312-2.5084114h-5.4469299"/>
	<path class="st1" d="M119.2905807,16.2669926c0,0.7692318,0.1398392,1.3985767,0.4195938,2.0978546
		c0.279747,0.6992779,0.6992722,1.3286018,1.1888428,1.8181686c0.4894791,0.5594349,1.1188889,0.9790497,1.8181686,1.2587337
		c0.6992798,0.2797508,1.3985748,0.4195919,2.1678085,0.4195919v-5.5943489"/>
	<path class="st1" d="M105.5413513,16.2669926c0,0.7692318-0.1398392,1.3985767-0.4195938,2.0978546
		c-0.279747,0.6992779-0.6992722,1.3286018-1.1888428,1.8181686c-0.4894791,0.5594349-1.1188889,0.9790497-1.8181686,1.2587337
		c-0.6992798,0.2797508-1.3985748,0.4195919-2.1678085,0.4195919v-5.5943489"/>
</g>
</g></svg>
