<?xml version="1.0" encoding="utf-8"?>
<!-- DO NOT EDIT THIS, THIS FILE IS GENERATED FROM "1_39_2.original.svg" using transform-svgs.js script -->
<!-- Generator: Adobe Illustrator 24.2.0, SVG Export Plug-In . SVG Version: 6.00 Build 0)  -->
<!DOCTYPE svg PUBLIC "-//W3C//DTD SVG 1.1//EN" "http://www.w3.org/Graphics/SVG/1.1/DTD/svg11.dtd" [
	<!ENTITY ns_extend "http://ns.adobe.com/Extensibility/1.0/">
	<!ENTITY ns_ai "http://ns.adobe.com/AdobeIllustrator/10.0/">
	<!ENTITY ns_graphs "http://ns.adobe.com/Graphs/1.0/">
	<!ENTITY ns_vars "http://ns.adobe.com/Variables/1.0/">
	<!ENTITY ns_imrep "http://ns.adobe.com/ImageReplacement/1.0/">
	<!ENTITY ns_sfw "http://ns.adobe.com/SaveForWeb/1.0/">
	<!ENTITY ns_custom "http://ns.adobe.com/GenericCustomNamespace/1.0/">
	<!ENTITY ns_adobe_xpath "http://ns.adobe.com/XPath/1.0/">
]>
<svg version="1.1" id="Слой_1" xmlns:x="&ns_extend;" xmlns:i="&ns_ai;" xmlns:graph="&ns_graphs;"
	 xmlns="http://www.w3.org/2000/svg" xmlns:xlink="http://www.w3.org/1999/xlink" x="0px" y="0px" viewBox="0 0 150 100"
	 style="enable-background:new 0 0 150 100;" xml:space="preserve"><g transform="translate(30.130342491499274 20.086894994332848) scale(0.598262100113343)">
<style type="text/css">
	.st0{fill:#DBD4CA;}
	.st1{fill:none;stroke:#565440;}
	.st2{fill:#565440;}
</style>
<metadata>
	<sfw  xmlns="&ns_sfw;">
		<slices></slices>
		<sliceSourceBounds  bottomLeftOrigin="true" height="100" width="135.2107697" x="14.5290251" y="0.0000219"></sliceSourceBounds>
	</sfw>
</metadata>
<polygon id="Floor" class="st0" points="14.8711653,1.0394338 14.8711653,99.6781998 135.5395355,99.6781998 135.5395355,1.0394338 
	"/>
<path id="Windows" class="st1" d="M15.2177496,1.3773667h2.0661154v70.2479401h-2.0661154V1.3773667z"/>
<g id="Walls">
	<polygon class="st2" points="14.5290861,41.7355118 14.5290861,51.9283218 21.4161091,51.9283218 21.4161091,49.9999771 
		77.2012024,49.9999771 77.2012024,48.6225967 21.4161091,48.6225967 21.4161091,41.7355118 	"/>
	<polygon class="st2" points="131.3334656,95.867775 102.4078064,95.867775 102.4078064,70.5234146 101.030426,70.5234146 
		101.030426,95.867775 22.9312458,95.867775 22.9312458,85.1240005 21.4161091,85.1240005 21.4161091,70.5234146 
		14.5290861,70.5234146 14.5290861,85.1240005 14.5290861,88.154213 14.5290861,99.9999771 135.4657288,99.9999771 
		135.4657288,96.0054703 135.4657288,95.867775 135.4657288,69.2837296 131.3334656,69.2837296 	"/>
	<polygon class="st2" points="14.5290251,-0.0000219 14.5290251,4.1321802 14.5290861,4.1321802 14.5290861,6.3360376 
		14.5290861,8.5398951 14.5290861,21.4875278 21.4161091,21.4875278 21.4161091,8.5398951 22.9312458,8.5398951 
		22.9312458,4.1321802 98.964325,4.1321802 98.964325,48.6225967 88.3583069,48.6225967 88.3583069,49.9999771 
		98.964325,49.9999771 100.3417664,49.9999771 101.9946594,49.9999771 101.9946594,48.6225967 100.3417664,48.6225967 
		100.3417664,4.1321802 131.3334656,4.1321802 131.3334656,48.6225967 113.0138855,48.6225967 113.0138855,49.9999771 
		131.3334656,49.9999771 131.3334656,55.3718643 135.4657288,55.3718643 135.4657288,4.1321802 135.4657288,-0.0000219 	"/>
</g>
<path id="Doors" class="st1" d="M77.2012405,48.6225739c0-1.5151634,0.2755051-2.7548218,0.8264542-4.1322327
	c0.5509644-1.3774109,1.3774185-2.6170731,2.3416214-3.5812759c0.9641953-1.1019135,2.2038651-1.9283676,3.5812683-2.4793205
	c1.3774185-0.5509567,2.7548294-0.8264542,4.2699814-0.8264542v11.157032 M113.1516724,48.6225739
	c0-1.5151634-0.2755051-2.7548218-0.8264618-4.1322327c-0.5509491-1.3774109-1.3774033-2.6170731-2.3416061-3.5812759
	c-0.9642105-1.1019135-2.2038727-1.9283676-3.5812836-2.4793205c-1.3774109-0.5509567-2.7548218-0.8264542-4.2699814-0.8264542
	v11.157032 M135.465683,55.3718758c1.7906342,0,3.4435425,0.413208,5.0964508,1.1019096
	c1.6529083,0.6887054,3.3057709,1.6529121,4.5454407,3.030323c1.2396545,1.2396584,2.3416138,2.754818,3.0303192,4.4077263
	c0.6887054,1.652916,1.1018982,3.4435349,1.1018982,5.2341461h-13.91185"/>
</g></svg>
