<?xml version="1.0" encoding="utf-8"?>
<!-- DO NOT EDIT THIS, THIS FILE IS GENERATED FROM "1_4-6_8.original.svg" using transform-svgs.js script -->
<!-- Generator: Adobe Illustrator 24.2.0, SVG Export Plug-In . SVG Version: 6.00 Build 0)  -->
<!DOCTYPE svg PUBLIC "-//W3C//DTD SVG 1.1//EN" "http://www.w3.org/Graphics/SVG/1.1/DTD/svg11.dtd" [
	<!ENTITY ns_extend "http://ns.adobe.com/Extensibility/1.0/">
	<!ENTITY ns_ai "http://ns.adobe.com/AdobeIllustrator/10.0/">
	<!ENTITY ns_graphs "http://ns.adobe.com/Graphs/1.0/">
	<!ENTITY ns_vars "http://ns.adobe.com/Variables/1.0/">
	<!ENTITY ns_imrep "http://ns.adobe.com/ImageReplacement/1.0/">
	<!ENTITY ns_sfw "http://ns.adobe.com/SaveForWeb/1.0/">
	<!ENTITY ns_custom "http://ns.adobe.com/GenericCustomNamespace/1.0/">
	<!ENTITY ns_adobe_xpath "http://ns.adobe.com/XPath/1.0/">
]>
<svg version="1.1" id="Слой_1" xmlns:x="&ns_extend;" xmlns:i="&ns_ai;" xmlns:graph="&ns_graphs;"
	 xmlns="http://www.w3.org/2000/svg" xmlns:xlink="http://www.w3.org/1999/xlink" x="0px" y="0px" viewBox="0 0 150 100"
	 style="enable-background:new 0 0 150 100;" xml:space="preserve"><g transform="translate(28.316054556817814 18.87736970454521) scale(0.6224526059090958)">
<style type="text/css">
	.st0{fill:#DBD4CA;}
	.st1{fill:none;stroke:#565440;}
	.st2{fill:#565440;}
	.st3{fill:none;stroke:#565440;stroke-width:1.0000414;stroke-miterlimit:4.0001655;}
</style>
<metadata>
	<sfw  xmlns="&ns_sfw;">
		<slices></slices>
		<sliceSourceBounds  bottomLeftOrigin="true" height="100" width="125.9682693" x="4.9928603" y="0"></sliceSourceBounds>
	</sfw>
</metadata>
<polygon id="Floor" class="st0" points="123.9000015,0.4999781 123.9000015,12.0999784 129.8496857,14.8233461 
	124.1999969,38.8417511 124.1999969,55.6999779 129.5592041,59.8607216 123.6999969,84.393898 123.6999969,99.9999771 
	19.2000008,99.9999771 19.2000008,0.4999781 "/>
<path id="Doors" class="st1" d="M42.4775238,63.0154419c0,1.5067978,0.2739258,2.7395248,0.8218994,4.1094208
	c0.5479774,1.3697739,1.369751,2.602623,2.3287201,3.5614471c0.9589272,1.0958481,2.1916962,1.9177475,3.5614471,2.4655991
	c1.369751,0.5478439,2.7395439,0.8219223,4.2463188,0.8219223V63.0154419 M78.0922241,52.0570564
	c0,1.5067978-0.2739258,2.7396698-0.8218994,4.1094208c-0.5478516,1.3697701-1.369751,2.602623-2.3285522,3.5614433
	c-0.9589233,1.0958481-2.1916962,1.9177513-3.5614471,2.4655991c-1.369751,0.5478516-2.7395401,0.8219223-4.2464447,0.8219223
	V52.0570564 M19.2538967,50.6873055c-1.7807007,0-3.4875259-0.4109497-5.1312437-1.0958481
	c-1.6438446-0.6848755-3.2875204-1.6436958-4.5203714-3.0135956c-1.232852-1.232872-2.3287196-2.739521-3.0135951-4.3833466
	c-0.6848755-1.6436958-1.0958261-3.4245453-1.0958261-5.205265h13.76091"/>
<g id="Walls">
	<polygon class="st2" points="124.660141,84.1372986 124.6557236,84.1372986 124.6557236,80.8172607 115.0851746,80.8172607 
		115.0767593,95.8907242 57.5452042,95.8907242 57.5452042,63.0155907 65.7640457,63.0155907 65.7640457,52.0572014 
		67.1338425,52.0572014 67.1338425,50.6873055 57.5452042,50.6873055 57.5452042,52.0572014 64.3941727,52.0572014 
		64.3941727,61.6456718 53.4357834,61.6456718 53.4357834,63.0155907 56.1754532,63.0155907 56.1754532,95.8907242 
		23.3002949,95.8907242 23.3002949,63.0155907 42.4775238,63.0155907 42.4775238,61.6456718 23.3002949,61.6456718 
		23.3002949,50.6873055 19.1908741,50.6873055 19.1908741,100 124.6652298,100 	"/>
	<polygon class="st2" points="23.3002949,28.5510693 31.3814392,28.5510693 31.3814392,27.1904049 23.3002949,27.1904049 
		23.3002949,4.1142592 115.0767593,4.1142592 115.0767593,14.2398272 123.8940659,14.2398272 129.9977417,15.6098719 
		129.9980316,15.6086311 130.0022888,15.6095991 130.9611206,11.6372032 124.660141,10.2227726 124.6652298,0.0048382 
		124.660141,0.0048382 124.660141,0 115.0767593,0 115.0767593,0.0048382 19.1908741,0.0048382 19.1908741,36.9893951 
		23.3002949,36.9893951 	"/>
	<polygon class="st2" points="124.6646805,41.635643 125.7605515,36.8868256 119.0486145,35.3800278 117.8157578,40.5852966 
		117.8157578,50.6873055 78.0966034,50.6873055 78.0966034,52.0570564 117.8157578,52.0570564 117.8157578,58.9229774 
		124.6646805,58.9229774 124.6646805,58.9118042 129.5960388,60.0188026 130.5548401,56.0464058 124.6646805,54.7242165 	"/>
</g>
<g id="Windows">
	
		<rect x="113.6667099" y="68.513649" transform="matrix(0.2514896 -0.96786 0.96786 0.2514896 27.0077782 174.0014954)" class="st3" width="24.6666756" height="2.0518293"/>
	<polygon class="st1" points="124.2216339,37.7079086 122.2359161,37.191906 128.1225891,14.4127178 130.1084747,14.9287195 	"/>
</g>
</g></svg>
