<?xml version="1.0" encoding="utf-8"?>
<!-- DO NOT EDIT THIS, THIS FILE IS GENERATED FROM "1_41-42_1.original.svg" using transform-svgs.js script -->
<!-- Generator: Adobe Illustrator 24.2.0, SVG Export Plug-In . SVG Version: 6.00 Build 0)  -->
<!DOCTYPE svg PUBLIC "-//W3C//DTD SVG 1.1//EN" "http://www.w3.org/Graphics/SVG/1.1/DTD/svg11.dtd" [
	<!ENTITY ns_extend "http://ns.adobe.com/Extensibility/1.0/">
	<!ENTITY ns_ai "http://ns.adobe.com/AdobeIllustrator/10.0/">
	<!ENTITY ns_graphs "http://ns.adobe.com/Graphs/1.0/">
	<!ENTITY ns_vars "http://ns.adobe.com/Variables/1.0/">
	<!ENTITY ns_imrep "http://ns.adobe.com/ImageReplacement/1.0/">
	<!ENTITY ns_sfw "http://ns.adobe.com/SaveForWeb/1.0/">
	<!ENTITY ns_custom "http://ns.adobe.com/GenericCustomNamespace/1.0/">
	<!ENTITY ns_adobe_xpath "http://ns.adobe.com/XPath/1.0/">
]>
<svg version="1.1" id="Слой_1" xmlns:x="&ns_extend;" xmlns:i="&ns_ai;" xmlns:graph="&ns_graphs;"
	 xmlns="http://www.w3.org/2000/svg" xmlns:xlink="http://www.w3.org/1999/xlink" x="0px" y="0px" viewBox="0 0 150 100"
	 style="enable-background:new 0 0 150 100;" xml:space="preserve"><g transform="translate(28.441641867451743 18.961094578301164) scale(0.6207781084339767)">
<style type="text/css">
	.st0{fill:#DBD4CA;}
	.st1{fill:#565440;}
	.st2{fill:none;stroke:#565440;}
</style>
<metadata>
	<sfw  xmlns="&ns_sfw;">
		<slices></slices>
		<sliceSourceBounds  bottomLeftOrigin="true" height="100.1564713" width="111.1808319" x="19.566103" y="-0.1807023">
			</sliceSourceBounds>
	</sfw>
</metadata>
<polygon id="Floor" class="st0" points="95.97229,1.5531616 95.97229,24.0140972 79.7147217,24.0140972 79.7159042,0.0242284 
	19.7696133,0.0242284 19.7696133,99.7483444 130.746933,99.7479095 130.746933,1.5531616 "/>
<g id="Walls">
	<polygon class="st1" points="63.7511215,6.3585758 64.4609985,6.3585758 64.4609985,2.0992601 77.7849426,2.0992601 
		77.7849426,16.4607372 64.4609985,16.4607372 64.4609985,11.9283895 63.7511215,11.9283895 63.7511215,17.1706123 
		77.7849426,17.1706123 77.7849426,24.0140266 73.006691,24.0140266 73.006691,25.3951817 72.5230179,25.3951817 
		72.5230179,26.0857258 73.006691,26.0857258 77.7755432,26.0857258 81.369812,26.0857258 81.369812,24.0140266 
		79.8599701,24.0140266 79.8599701,0.0242284 19.7384453,0.0242284 19.7384453,2.0992601 63.7511215,2.0992601 	"/>
	<polygon class="st1" points="19.7717075,30.9196339 23.9151058,30.9196339 23.9151058,26.0857258 67.2780685,26.0853596 
		67.2780685,25.3948479 62.8228073,25.3948479 62.8228073,23.9963951 23.8885422,23.9963951 23.8885422,18.6449871 
		23.1786671,18.6449871 23.1786671,11.3823595 19.7384453,11.3823595 19.7384453,26.0714264 19.7717075,26.0714264 	"/>
	<rect x="19.7717075" y="41.2780952" class="st1" width="3.4527869" height="4.8339086"/>
	<polygon class="st1" points="19.7717075,61.8567657 19.7717075,67.864624 19.7717075,75.391716 23.2245617,75.391716 
		23.2245617,68.9005203 41.6709099,68.9005203 41.6709099,68.2099762 23.2245617,68.2099762 23.2245617,67.864624 
		23.9151058,67.864624 23.9151058,61.8567657 23.2245617,61.8567657 23.2245617,55.8489113 19.7717075,55.8489113 	"/>
	<polygon class="st1" points="48.7753258,68.9005203 49.880146,68.9005203 49.880146,68.2099762 47.1953964,68.2099762 
		47.1953964,68.9005203 48.084713,68.9005203 48.084713,96.5229874 40.4885635,96.5229874 40.4885635,95.8323746 
		35.6546211,95.8323746 35.6546211,99.975769 54.990387,99.975769 54.990387,96.5229874 48.7753258,96.5229874 	"/>
	<rect x="19.7717075" y="84.7834702" class="st1" width="4.1433644" height="4.8339086"/>
	<polygon class="st1" points="108.854126,95.8324051 108.84729,95.8324051 108.84729,96.5227814 103.7227859,96.5227814 
		103.7227859,75.2022095 103.7227859,75.1155853 103.7228546,75.1155853 103.7228546,74.4250412 103.7227859,74.4250412 
		103.7227859,73.992897 103.0322418,73.992897 103.0322418,74.4250412 102.2217789,74.4250412 102.2217789,75.1155853 
		103.0322418,75.1155853 103.0322418,75.2022095 103.0322418,96.5227814 94.345665,96.5227814 94.345665,99.9755402 
		94.3523636,99.9755402 94.3523636,99.975769 113.6880646,99.975769 113.6880646,95.8323746 108.854126,95.8323746 	"/>
	<polygon class="st1" points="95.7334213,1.2255731 95.7334213,1.2263396 95.7268219,1.2263396 95.7268219,24.0140266 
		88.2754135,24.0140266 88.2754135,26.0857258 91.3172226,26.0857258 91.3172226,26.0862579 92.2735367,26.0862579 
		92.2735367,36.444519 92.2735367,37.0510406 92.2735367,37.1350632 97.108345,37.1350632 97.108345,42.3335571 
		98.7425308,42.3335571 98.7425308,41.643013 97.7988892,41.643013 97.7988892,36.4477539 97.7984543,36.4477539 
		97.7984543,36.444519 92.9640808,36.444519 92.9640808,26.0862579 97.7984543,26.0862579 97.7984543,26.0857258 
		97.8051147,26.0857258 97.8051147,17.2895622 99.8308563,17.2895622 99.8308563,16.5990524 97.8051147,16.5990524 
		97.8051147,4.6790266 114.5812149,4.6790266 114.5812149,16.5986862 104.9859238,16.5986862 104.9859238,17.2892303 
		118.8963928,17.2892303 118.8963928,16.5986862 115.271759,16.5986862 115.271759,4.6790266 126.8087006,4.6790266 
		126.8087006,16.5987854 124.1662445,16.5987854 124.1662445,17.2893295 126.8087006,17.2893295 126.8087006,30.9196339 
		126.8087006,30.9201336 130.2545166,30.9201336 130.2545166,30.9196339 130.2615509,30.9196339 130.2615509,1.2255731 	"/>
	<polygon class="st1" points="126.1181259,52.3272324 126.0429001,52.3272324 126.0429001,57.1612091 126.8017349,57.1612091 
		126.8017349,68.2100449 105.4816284,68.2100449 104.9471588,68.2100449 104.9471588,56.3945084 104.2566147,56.3945084 
		104.2566147,68.2100449 103.7227859,68.2100449 103.0322418,68.2100449 103.0316086,68.2100449 103.0316086,68.900589 
		103.0322418,68.900589 103.0322418,69.4193573 103.7227859,69.4193573 103.7227859,68.900589 104.2566147,68.900589 
		104.9471588,68.900589 105.4816284,68.900589 126.8017349,68.900589 126.8017349,71.6628647 130.2545166,71.6628647 
		130.2545166,71.6627655 130.2615509,71.6627655 130.2615509,52.3270645 126.1181259,52.3270645 	"/>
	<polygon class="st1" points="130.2545166,84.783371 126.0368347,84.783371 126.0368347,89.6172791 126.1872177,89.6172791 
		126.1872177,89.6173782 130.2615204,89.6173782 130.2615204,84.7834702 130.2545166,84.7834702 	"/>
	<polygon class="st1" points="130.2545166,45.4217262 130.2545166,45.4214935 130.2614594,45.4214935 130.2614594,40.5875511 
		126.8087006,40.5875511 126.8087006,40.587883 126.8017349,40.587883 126.8017349,41.6429138 103.7887115,41.6429138 
		103.7887115,42.3334579 104.2566147,42.3334579 104.2566147,50.2732658 104.9471588,50.2732658 104.9471588,42.3334579 
		126.8017349,42.3334579 126.8017349,45.4217262 	"/>
	<polygon class="st1" points="79.8505707,96.5229874 79.8505707,68.900589 96.0366821,68.900589 96.0366821,74.4250412 
		96.0366821,74.9434433 96.0366821,75.1155853 97.1756363,75.1155853 97.1756363,74.4250412 96.7272263,74.4250412 
		96.7272263,68.900589 96.7279205,68.900589 96.7279205,68.2100449 96.7272263,68.2100449 96.0366821,68.2100449 
		92.9645767,68.2100449 92.9645767,64.0276871 92.2740326,64.0276871 92.2740326,68.2100449 79.8505707,68.2100449 
		79.8505707,50.9461784 92.2740326,50.9461784 92.2740326,59.0710945 92.9645767,59.0710945 92.9645767,50.2556343 
		79.8505707,50.2556343 79.8505707,50.2553673 62.1721916,50.2553673 62.1721916,68.2099762 55.4046326,68.2099762 
		55.4046326,68.9005203 67.8347931,68.9005203 67.8347931,68.2099762 62.8627357,68.2099762 62.8627357,50.9459457 
		77.7723083,50.9459457 77.7723083,68.2099762 72.8759079,68.2099762 72.8759079,68.9005203 77.7723083,68.9005203 
		77.7723083,95.8323746 73.4973602,95.8323746 73.4973602,96.5229874 65.0725479,96.5229874 65.0725479,99.975769 
		84.2010803,99.975769 84.2010803,96.5229874 83.9873734,96.5229874 	"/>
</g>
<g id="Windows">
	<polygon class="st2" points="128.8963928,30.6037331 128.8963928,98.6431732 78.8770676,98.6431732 78.8770676,99.6806717 
		129.9339294,99.6806717 129.9339294,30.6037331 	"/>
	<polygon class="st2" points="21.1036015,25.1431065 21.1036015,1.2255656 20.066103,1.2255656 20.066103,99.6807022 
		78.1125641,99.6807022 78.1125641,98.6431732 21.1036015,98.6431732 	"/>
</g>
<g id="Doors">
	<path class="st2" d="M55.4046364,68.8314438c0,0.7596207-0.1380959,1.3810959-0.4143486,2.071701
		c-0.2762527,0.6905365-0.6905365,1.3120804-1.1739845,1.7954407c-0.483429,0.5524445-1.104908,0.9668121-1.7954483,1.2430038
		c-0.6905365,0.2761917-1.3811607,0.4143524-2.1407127,0.4143524v-5.524498"/>
	<path class="st2" d="M47.1953964,68.8314438c0,0.7596207-0.1380959,1.3810959-0.41436,2.071701
		c-0.2762642,0.6905975-0.6905479,1.3120804-1.1739769,1.7954407c-0.4833641,0.5524445-1.1048965,0.9668121-1.7954445,1.2430038
		s-1.3811607,0.4143524-2.1407166,0.4143524v-5.524498"/>
	<path class="st2" d="M67.5585098,68.8314438c0,0.7596207,0.1381607,1.3810959,0.4143524,2.071701
		c0.2761841,0.6905975,0.6905365,1.3120804,1.1739883,1.7954407c0.4834213,0.5524445,1.1049042,0.9668121,1.7954407,1.2430038
		s1.3810959,0.4143524,2.1407166,0.4143524v-5.524498"/>
	<path class="st2" d="M88.2753906,24.2902412c0-0.8977127-0.2071686-1.7264309-0.5524445-2.5550632
		c-0.3452682-0.8287182-0.8287125-1.6573505-1.519249-2.2788734c-0.6215286-0.621521-1.3811035-1.1739006-2.2097931-1.5192547
		c-0.8287201-0.3452702-1.7264328-0.5524426-2.6241455-0.5524426v6.9055691"/>
	<path class="st2" d="M92.9645844,58.7462502c0.7596207,0,1.3810959,0.1380959,2.071701,0.4143486
		c0.6905365,0.2762527,1.3119965,0.6905365,1.7954407,1.1739845c0.5524445,0.4833641,0.9668121,1.104908,1.2430038,1.7954483
		c0.2761917,0.6905365,0.4143524,1.3810959,0.4143524,2.1407127h-5.524437"/>
	<path class="st2" d="M63.754734,12.0218325c-0.7877617,0-1.4322624-0.1432104-2.1484489-0.4296989
		c-0.7161217-0.2864876-1.3606033-0.7161198-1.8619614-1.2174797c-0.5729103-0.5012703-1.0026321-1.1458406-1.2890549-1.8619614
		s-0.4296989-1.4322629-0.4296989-2.2200217h5.7290955"/>
	<path class="st2" d="M103.7228622,69.2458191c0.6771774,0,1.2312088,0.1231079,1.8468628,0.3693848
		c0.615593,0.2462692,1.1696091,0.615593,1.6005859,1.0465775c0.4924927,0.4309006,0.8618927,0.984993,1.1081009,1.6005859
		c0.2462158,0.6156006,0.3693848,1.2312164,0.3693848,1.9083939h-4.924881"/>
	<path class="st2" d="M97.104866,75.1155853c0,0.7134857,0.1297073,1.297226,0.389183,1.9458923
		c0.2594757,0.6486053,0.6486053,1.2323227,1.1026917,1.686409c0.45401,0.518898,1.0378113,0.9081039,1.6864166,1.1675186
		c0.6486053,0.2594223,1.297226,0.3891907,2.0107117,0.3891907v-5.1889496"/>
	<path class="st2" d="M103.8484268,41.6491776c0-0.7134895-0.1297073-1.2972298-0.3891907-1.9458923
		c-0.2594757-0.6486015-0.6485977-1.2323227-1.1026917-1.6864128c-0.45401-0.5188942-1.0378113-0.9081001-1.686409-1.1675148
		c-0.6486053-0.2594185-1.297226-0.3891869-2.0107193-0.3891869v5.1889458"/>
	<path class="st2" d="M104.9471741,56.503212c0.7396011,0,1.3447037-0.15979,2.0171051-0.4794502
		c0.6723404-0.3195839,1.2774277-0.7990341,1.7481308-1.3583412c0.5378876-0.5593109,0.9413376-1.278511,1.2102509-2.0775452
		s0.4034271-1.5980911,0.4034271-2.4770584h-5.3788528"/>
	<path class="st2" d="M118.7536621,17.2892532c0,0.7596169,0.1380997,1.3810959,0.4143524,2.0716343
		s0.6905365,1.3119965,1.1739883,1.7954445c0.4833603,0.5524445,1.1049042,0.966814,1.7954407,1.2430038
		c0.6905365,0.2762527,1.3810959,0.4143467,2.1407166,0.4143467v-5.5244293"/>
	<path class="st2" d="M105.1762772,17.2892532c0,0.7596169-0.1380997,1.3810959-0.4143524,2.0716343
		s-0.6905365,1.3119965-1.1739807,1.7954445c-0.4833679,0.5524445-1.1049118,0.966814-1.7954483,1.2430038
		c-0.6905365,0.2762527-1.3810959,0.4143467-2.1407166,0.4143467v-5.5244293"/>
	<path class="st2" d="M67.2458801,26.0857258c0,0.7008762,0.1617508,1.3478851,0.4313126,1.9948273
		c0.2695694,0.6470108,0.6470108,1.2939529,1.186142,1.7791977c0.4852448,0.4852448,1.07827,0.9165077,1.7252655,1.1861362
		c0.6470032,0.2695637,1.3478851,0.4313126,2.0487595,0.4313126v-5.3914242"/>
</g>
</g></svg>
