<?xml version="1.0" encoding="utf-8"?>
<!-- DO NOT EDIT THIS, THIS FILE IS GENERATED FROM "1_7-12_4.original.svg" using transform-svgs.js script -->
<!-- Generator: Adobe Illustrator 24.2.0, SVG Export Plug-In . SVG Version: 6.00 Build 0)  -->
<!DOCTYPE svg PUBLIC "-//W3C//DTD SVG 1.1//EN" "http://www.w3.org/Graphics/SVG/1.1/DTD/svg11.dtd" [
	<!ENTITY ns_extend "http://ns.adobe.com/Extensibility/1.0/">
	<!ENTITY ns_ai "http://ns.adobe.com/AdobeIllustrator/10.0/">
	<!ENTITY ns_graphs "http://ns.adobe.com/Graphs/1.0/">
	<!ENTITY ns_vars "http://ns.adobe.com/Variables/1.0/">
	<!ENTITY ns_imrep "http://ns.adobe.com/ImageReplacement/1.0/">
	<!ENTITY ns_sfw "http://ns.adobe.com/SaveForWeb/1.0/">
	<!ENTITY ns_custom "http://ns.adobe.com/GenericCustomNamespace/1.0/">
	<!ENTITY ns_adobe_xpath "http://ns.adobe.com/XPath/1.0/">
]>
<svg version="1.1" id="Слой_1" xmlns:x="&ns_extend;" xmlns:i="&ns_ai;" xmlns:graph="&ns_graphs;"
	 xmlns="http://www.w3.org/2000/svg" xmlns:xlink="http://www.w3.org/1999/xlink" x="0px" y="0px" viewBox="0 0 150 100"
	 style="enable-background:new 0 0 150 100;" xml:space="preserve"><g transform="translate(29.43367951129535 19.622453007530233) scale(0.6075509398493953)">
<style type="text/css">
	.st0{fill:#DBD4CA;}
	.st1{fill:none;stroke:#565440;}
	.st2{fill:#565440;}
</style>
<metadata>
	<sfw  xmlns="&ns_sfw;">
		<slices></slices>
		<sliceSourceBounds  bottomLeftOrigin="true" height="100" width="133.3654327" x="15.4000244" y="0"></sliceSourceBounds>
	</sfw>
</metadata>
<rect id="Floor_1_" x="16.101757" y="1.3450316" class="st0" width="118.4795227" height="97.4268799"/>
<path id="Windows_1_" class="st1" d="M16.101757,3.4210541h2.076025v76.6958923h-2.076025V3.4210541z"/>
<g id="Walls">
	<rect x="15.4000244" y="21.9298096" class="st2" width="6.8421021" height="9.5906372"/>
	<polygon class="st2" points="24.9906616,50.9356689 24.9906616,50.7017212 24.9906616,47.953186 74.3181152,47.953186 
		74.3181152,46.5789185 23.616394,46.5789185 23.616394,47.9239502 23.616394,47.953186 23.616394,50.7017212 
		15.4000244,50.7017212 15.4000244,60.2923584 24.9906616,60.2923584 	"/>
	<polygon class="st2" points="130.4584961,71.7543945 121.1894531,71.7543945 121.1894531,73.1286621 130.4584961,73.1286621 
		130.4584961,95.9064331 24.9906616,95.9064331 24.9906616,79.444458 15.4000244,79.444458 15.4000244,100 24.9906616,100 
		134.552063,100 134.552063,95.9064331 134.552063,65.7601929 130.4584961,65.7601929 	"/>
	<polygon class="st2" points="15.4000244,0 15.4000244,4.0935669 94.8444214,4.0935669 94.8444214,36.9882813 
		88.0023193,36.9882813 86.6280518,36.9882813 86.6280518,46.5789185 85.2537842,46.5789185 85.2537842,47.953186 
		96.218689,47.953186 96.218689,46.5789185 88.0023193,46.5789185 88.0023193,38.3625488 98.9672241,38.3625488 
		98.9672241,36.9882813 96.218689,36.9882813 96.218689,4.0935669 130.4584961,4.0935669 130.4584961,36.9882813 
		109.9321289,36.9882813 109.9321289,38.3625488 130.4584961,38.3625488 130.4584961,52.0467529 134.552063,52.0467529 
		134.552063,4.0935669 134.5812378,4.0935669 134.5812378,0 	"/>
</g>
<path id="Doors" class="st1" d="M74.2888794,46.5789413c0-1.4619904,0.2923965-2.7192993,0.8187103-4.0643272
	c0.5555496-1.3450279,1.3450317-2.5730972,2.3684235-3.6257248c1.0233917-1.0526314,2.2222214-1.8421059,3.5672531-2.4269028
	c1.3450317-0.5555534,2.7485352-0.84795,4.181282-0.84795v10.9649086 M109.9321442,36.9883003
	c0-1.4619904-0.2923965-2.7192993-0.8479538-4.0643272c-0.5555496-1.3450241-1.3450241-2.5730972-2.3684158-3.6257267
	c-1.0233917-1.0526333-2.222229-1.8421059-3.5672607-2.4269009c-1.3450241-0.5555534-2.7485352-0.84795-4.181282-0.84795v10.9649086
	 M134.5812531,52.0760155c1.8421021,0,3.3918152,0.3508759,5.087738,1.0526352
	c1.6958923,0.7017517,3.2163696,1.6958961,4.5321503,2.9824524c1.2865601,1.257309,2.3391876,2.7777786,3.0117035,4.4444466
	c0.7017517,1.6666718,1.0526123,3.4502869,1.0526123,5.2631607h-13.6842041"/>
</g></svg>
