<?xml version="1.0" encoding="utf-8"?>
<!-- DO NOT EDIT THIS, THIS FILE IS GENERATED FROM "1_7-12_7.original.svg" using transform-svgs.js script -->
<!-- Generator: Adobe Illustrator 24.2.0, SVG Export Plug-In . SVG Version: 6.00 Build 0)  -->
<!DOCTYPE svg PUBLIC "-//W3C//DTD SVG 1.1//EN" "http://www.w3.org/Graphics/SVG/1.1/DTD/svg11.dtd" [
	<!ENTITY ns_extend "http://ns.adobe.com/Extensibility/1.0/">
	<!ENTITY ns_ai "http://ns.adobe.com/AdobeIllustrator/10.0/">
	<!ENTITY ns_graphs "http://ns.adobe.com/Graphs/1.0/">
	<!ENTITY ns_vars "http://ns.adobe.com/Variables/1.0/">
	<!ENTITY ns_imrep "http://ns.adobe.com/ImageReplacement/1.0/">
	<!ENTITY ns_sfw "http://ns.adobe.com/SaveForWeb/1.0/">
	<!ENTITY ns_custom "http://ns.adobe.com/GenericCustomNamespace/1.0/">
	<!ENTITY ns_adobe_xpath "http://ns.adobe.com/XPath/1.0/">
]>
<svg version="1.1" id="Слой_1" xmlns:x="&ns_extend;" xmlns:i="&ns_ai;" xmlns:graph="&ns_graphs;"
	 xmlns="http://www.w3.org/2000/svg" xmlns:xlink="http://www.w3.org/1999/xlink" x="0px" y="0px" viewBox="0 0 150 100"
	 style="enable-background:new 0 0 150 100;" xml:space="preserve"><g transform="translate(15.041896099645818 10.027930733097213) scale(0.7994413853380558)">
<style type="text/css">
	.st0{fill:#DBD4CA;}
	.st1{fill:none;stroke:#565440;}
	.st2{fill:#565440;}
</style>
<metadata>
	<sfw  xmlns="&ns_sfw;">
		<slices></slices>
		<sliceSourceBounds  bottomLeftOrigin="true" height="100" width="73.3700562" x="38.3453674" y="0"></sliceSourceBounds>
	</sfw>
</metadata>
<polygon id="Floor_1_" class="st0" points="42.7460442,5.5269718 43.8820572,0.9904428 60.8922119,4.7926707 87.5823517,4.9951248 
	88.6871185,0.7711985 110.0138016,5.7681308 107.5876236,16.8637371 107.1656418,47.2618179 110.9653931,48.5892982 
	107.0920258,65.3448181 107.0874252,75.492569 110.9405823,76.6429825 107.3128815,92.5656738 105.8206787,98.6662598 
	38.3558273,98.6662598 38.3558273,5.5269718 "/>
<path id="Doors" class="st1" d="M50.0894012,76.5545883c0-0.9918976,0.1803207-1.8034744,0.5410423-2.7051697
	c0.3607216-0.9016876,0.9016838-1.7132645,1.5329552-2.344429c0.6312447-0.7213669,1.4427528-1.2624207,2.3444366-1.6230545
	c0.90168-0.3606415,1.8033905-0.5410538,2.7952766-0.5410538v7.213707 M59.1065598,46.7980728
	c-0.9918823,0-1.8033943-0.1803207-2.7051582-0.54105c-0.9016838-0.3607292-1.7132759-0.9016914-2.3444366-1.5329475
	c-0.7213631-0.6311684-1.2624321-1.4427414-1.6230736-2.344429c-0.3606377-0.9016914-0.5410423-1.8034706-0.5410423-2.7952766
	h7.2137108 M60.9099541,37.780983c0-0.9919014,0.1803207-1.8034706,0.5410423-2.7051659
	c0.3607216-0.9016914,0.9016838-1.7132683,1.5329552-2.344429c0.6312447-0.7213707,1.4427528-1.2624207,2.3444328-1.6230602
	c0.9016876-0.3607311,1.8033981-0.54105,2.7952805-0.54105v7.2137051 M77.1096115,39.5843697
	c0.9918823,0,1.8033981,0.1803169,2.705162,0.5410461c0.90168,0.360733,1.7132721,0.9016914,2.3444366,1.5329514
	c0.7213593,0.6311684,1.2624283,1.4427376,1.6230698,2.344429c0.3607254,0.9016876,0.5410461,1.8034668,0.5410461,2.7952766
	h-7.2137146 M41.0722961,87.375145c1.1722031,0,2.2542343,0.2705307,3.336319,0.7213745
	c1.0821152,0.4508362,2.1641159,1.0820999,2.9755974,1.9837952c0.8115654,0.8115768,1.5329552,1.8033752,1.983799,2.8854752
	c0.45084,1.082016,0.7213631,2.2543182,0.7213631,3.4265366h-9.0170784"/>
<g id="Walls">
	<polygon class="st2" points="41.0504189,77.4571915 50.0676041,77.4571915 50.0676041,76.5554962 41.0504189,76.5554962 
		41.0504189,63.9314651 59.0847092,63.9314651 59.0847092,76.5554962 57.2813148,76.5554962 57.2813148,77.4571915 
		59.9864769,77.4571915 59.9864769,76.5554962 59.9864769,46.7989807 59.0847092,46.7989807 59.0847092,63.0297737 
		41.0504189,63.0297737 41.0504189,38.6835861 59.0847092,38.6835861 59.0847092,39.5852737 59.9864769,39.5852737 
		59.9864769,38.6835861 60.8881569,38.6835861 60.8881569,37.7817993 41.0504189,37.7817993 41.0504189,7.1235909 
		43.7762909,7.1256785 45.1984138,1.0821013 42.5833702,0.4509366 41.6498413,4.4184284 41.0504189,4.4184284 38.3453674,4.4184284 
		38.3453674,87.3760529 41.0504189,87.3760529 	"/>
	<polygon class="st2" points="107.7771835,65.8216934 108.4986343,62.6957207 104.1037064,61.7038307 103.2921448,65.1303558 
		103.2921448,76.9057007 107.7771835,76.9057007 107.7771835,76.8983459 111.0233841,77.6270676 111.6546326,75.0121078 
		107.7771835,74.1417313 	"/>
	<polygon class="st2" points="102.375206,97.2949219 41.0504189,97.2949219 41.0504189,96.3931427 38.3453674,96.3931427 
		38.3453674,97.2949219 38.3453674,100 107.7771835,100 107.7771835,97.2949219 107.7771835,91.4598007 102.375206,91.4598007 	"/>
	<polygon class="st2" points="77.1189728,46.7980728 76.2172623,46.7980728 76.2172623,48.1310997 69.9052658,48.1310997 
		69.9052658,49.0327873 107.7771835,49.0254364 111.0233841,49.754158 111.6546326,47.1392021 107.7771835,46.2688217 
		107.7771835,32.9176064 102.3834534,32.9176064 102.3834534,48.1310997 77.1189728,48.1310997 	"/>
	<polygon class="st2" points="76.2172623,37.7817993 68.1018677,37.7817993 68.1018677,38.6835861 76.2172623,38.6835861 
		76.2172623,39.5843697 77.1189728,39.5843697 77.1189728,38.6835861 77.1189728,37.7817993 77.1189728,8.9270639 
		88.8412094,8.9270639 88.8412094,8.9067364 88.9314117,8.9270639 90.7348862,0.9918964 86.316452,0 85.3123322,4.4184284 
		77.1189728,4.4184284 57.2813148,4.4184284 57.2813148,7.1235909 76.2172623,7.1235909 	"/>
</g>
<path id="Windows" class="st1" d="M110.1217041,5.6808515L88.4805984,0.6312565L88.2100754,1.983791l20.3787003,4.6888657
	l-2.3444366,10.189394v16.9521694h1.3525238V16.862051L110.1217041,5.6808515z M109.7609558,75.653717l1.3525238,0.2705231
	l-3.8342743,16.7719421l-1.3525238-0.2705231L109.7609558,75.653717z M109.7609558,47.7006683l1.3525238,0.2705307
	l-3.606842,15.7799454l-1.3525238-0.2705269L109.7609558,47.7006683z M43.2145348,0.8115764l16.9521484,3.8773808
	l-0.2705193,1.3525343L42.943985,2.1641109L43.2145348,0.8115764z"/>
</g></svg>
