<?xml version="1.0" encoding="utf-8"?>
<!-- DO NOT EDIT THIS, THIS FILE IS GENERATED FROM "1_7-12_5.original.svg" using transform-svgs.js script -->
<!-- Generator: Adobe Illustrator 24.2.0, SVG Export Plug-In . SVG Version: 6.00 Build 0)  -->
<!DOCTYPE svg PUBLIC "-//W3C//DTD SVG 1.1//EN" "http://www.w3.org/Graphics/SVG/1.1/DTD/svg11.dtd" [
	<!ENTITY ns_extend "http://ns.adobe.com/Extensibility/1.0/">
	<!ENTITY ns_ai "http://ns.adobe.com/AdobeIllustrator/10.0/">
	<!ENTITY ns_graphs "http://ns.adobe.com/Graphs/1.0/">
	<!ENTITY ns_vars "http://ns.adobe.com/Variables/1.0/">
	<!ENTITY ns_imrep "http://ns.adobe.com/ImageReplacement/1.0/">
	<!ENTITY ns_sfw "http://ns.adobe.com/SaveForWeb/1.0/">
	<!ENTITY ns_custom "http://ns.adobe.com/GenericCustomNamespace/1.0/">
	<!ENTITY ns_adobe_xpath "http://ns.adobe.com/XPath/1.0/">
]>
<svg version="1.1" id="Слой_1" xmlns:x="&ns_extend;" xmlns:i="&ns_ai;" xmlns:graph="&ns_graphs;"
	 xmlns="http://www.w3.org/2000/svg" xmlns:xlink="http://www.w3.org/1999/xlink" x="0px" y="0px" viewBox="0 0 150 100"
	 style="enable-background:new 0 0 150 100;" xml:space="preserve"><g transform="translate(26.866713444079892 17.911142296053264) scale(0.6417771540789348)">
<style type="text/css">
	.st0{fill:#DBD4CA;}
	.st1{fill:none;stroke:#565440;}
	.st2{fill:#565440;}
</style>
<metadata>
	<sfw  xmlns="&ns_sfw;">
		<slices></slices>
		<sliceSourceBounds  bottomLeftOrigin="true" height="100.0191345" width="118.1784668" x="15.8496094" y="-0.0191355">
			</sliceSourceBounds>
	</sfw>
</metadata>
<polygon id="Floor" class="st0" points="16.3711147,0.5214774 133.5097351,0.5467113 133.5097351,89.1954193 16.396574,89.1954193 
	"/>
<polygon id="Windows_2_" class="st1" points="131.9547882,0.5214774 16.3711147,0.5214774 16.3711147,81.3782043 
	17.9260521,81.3782043 17.9260521,2.0764141 131.9547882,2.0764141 131.9547882,16.0708504 133.5097351,16.0708504 
	133.5097351,0.5214774 "/>
<g id="Walls">
	<rect x="15.8496094" y="59.0907593" class="st2" width="6.2324829" height="7.2564087"/>
	<rect x="15.8496094" y="15.5525513" class="st2" width="6.2324829" height="7.2563477"/>
	<rect x="39.6958008" class="st2" width="7.2550659" height="6.2324829"/>
	<rect x="106.0391846" y="0.0031738" class="st2" width="7.2563477" height="5.1831055"/>
	<polygon class="st2" points="128.8449097,15.5525513 128.8449097,58.0541382 116.4053955,58.0541382 116.4053955,51.8344116 
		115.3687744,51.8344116 115.3687744,59.0907593 116.4053955,59.0907593 128.8449097,59.0907593 128.8449097,86.0430298 
		119.9185181,86.0430298 119.9185181,89.1528931 134.0280762,89.1528931 134.0280762,86.0430298 134.0280762,15.5525513 	"/>
	<polygon class="st2" points="72.8671875,39.3948975 71.8305664,39.3948975 71.8305664,40.4315186 72.8671875,40.4315186 
		73.9038086,40.4315186 73.9038086,5.1862793 83.2340698,5.1862793 83.2340698,6.2324829 90.4891357,6.2324829 
		90.4891357,5.1862793 90.4898071,5.1862793 90.4898071,0.0031738 90.4891357,0.0031738 90.4891357,0 83.2340698,0 
		83.2340698,0.0031738 61.4642944,0.0031738 61.4642944,5.1862793 72.8671875,5.1862793 	"/>
	<polygon class="st2" points="61.4642944,42.5047607 61.4642944,40.4315186 63.5375366,40.4315186 63.5375366,39.3948975 
		21.0359497,39.3948975 21.0359497,37.3216553 15.8527832,37.3216553 15.8527832,44.5780029 21.0359497,44.5780029 
		21.0359497,40.4315186 60.4276733,40.4315186 60.4276733,42.5047607 	"/>
	<polygon class="st2" points="102.9293213,69.4570313 101.8927002,69.4570313 101.8927002,86.0430298 82.1967773,86.0430298 
		82.1967773,59.0907593 101.8927002,59.0907593 101.8927002,61.1640015 102.9293213,61.1640015 102.9293213,59.0907593 
		102.9293213,58.0541382 102.9293213,51.8344116 101.8927002,51.8344116 101.8927002,58.0541382 61.4642944,58.0541382 
		61.4642944,50.7977905 60.4276733,50.7977905 60.4276733,68.4204102 61.4642944,68.4204102 61.4642944,59.0907593 
		81.1601563,59.0907593 81.1601563,86.0430298 61.4642944,86.0430298 61.4642944,76.7133789 60.4276733,76.7133789 
		60.4276733,86.0430298 22.0820923,86.0430298 22.0820923,80.8599243 15.8496094,80.8599243 15.8496094,86.0430298 
		15.8527832,86.0430298 15.8528442,89.1528931 109.6158447,89.1528931 109.6158447,86.0430298 102.9293213,86.0430298 	"/>
</g>
<path id="Doors_2_" class="st1" d="M119.9537506,89.1528931c0,1.3476105-0.3109665,2.5915604-0.829277,3.8355026
	c-0.5183105,1.2439499-1.2439651,2.4878922-2.2805862,3.4208679c-0.9329529,0.9329529-2.0732498,1.7622528-3.317215,2.280571
	c-1.2439575,0.5183105-2.5915604,0.8292999-3.9391556,0.8292999V89.1528931 M63.5375519,39.3949051
	c0-1.1402969,0.2073441-2.0732498,0.6219864-3.1098785c0.4146423-1.0366211,1.0366211-1.9695778,1.7622757-2.6952286
	c0.725647-0.8293037,1.6586075-1.4512672,2.6952286-1.8659248c1.0366211-0.4146442,2.0732498-0.6219826,3.2135391-0.6219826
	v8.2929955 M60.4276695,50.7977715c-1.1402969,0-2.0732536-0.2073212-3.1098785-0.6219749
	c-1.0366211-0.41465-1.9695816-1.0366325-2.6952286-1.7622643c-0.8293037-0.7256317-1.4512711-1.6586037-1.8659286-2.6952286
	c-0.4146461-1.0366211-0.6219826-2.0732498-0.6219826-3.2135391h8.2929955 M60.4276695,68.4203949
	c-1.1402969,0-2.0732536,0.2073212-3.1098785,0.6219788c-1.0366211,0.41465-1.9695816,1.0366287-2.6952286,1.7622604
	c-0.8293037,0.7256317-1.4512711,1.6586075-1.8659286,2.6952286c-0.4146461,1.0366211-0.6219826,2.0732498-0.6219826,3.2135391
	h8.2929955 M101.8926697,69.4570236c-1.1402893,0-2.0732498-0.2073212-3.1098709-0.6219864
	c-1.0366287-0.4146423-1.9695816-1.0366211-2.6952286-1.7622528c-0.8292923-0.7256393-1.4512711-1.6586075-1.8659134-2.6952362
	c-0.41465-1.0366249-0.6219864-2.0732498-0.6219864-3.2135429h8.2929993"/>
</g></svg>
