<?xml version="1.0" encoding="utf-8"?>
<!-- DO NOT EDIT THIS, THIS FILE IS GENERATED FROM "1_7-12_8.original.svg" using transform-svgs.js script -->
<!-- Generator: Adobe Illustrator 24.2.0, SVG Export Plug-In . SVG Version: 6.00 Build 0)  -->
<!DOCTYPE svg PUBLIC "-//W3C//DTD SVG 1.1//EN" "http://www.w3.org/Graphics/SVG/1.1/DTD/svg11.dtd" [
	<!ENTITY ns_extend "http://ns.adobe.com/Extensibility/1.0/">
	<!ENTITY ns_ai "http://ns.adobe.com/AdobeIllustrator/10.0/">
	<!ENTITY ns_graphs "http://ns.adobe.com/Graphs/1.0/">
	<!ENTITY ns_vars "http://ns.adobe.com/Variables/1.0/">
	<!ENTITY ns_imrep "http://ns.adobe.com/ImageReplacement/1.0/">
	<!ENTITY ns_sfw "http://ns.adobe.com/SaveForWeb/1.0/">
	<!ENTITY ns_custom "http://ns.adobe.com/GenericCustomNamespace/1.0/">
	<!ENTITY ns_adobe_xpath "http://ns.adobe.com/XPath/1.0/">
]>
<svg version="1.1" id="Слой_1" xmlns:x="&ns_extend;" xmlns:i="&ns_ai;" xmlns:graph="&ns_graphs;"
	 xmlns="http://www.w3.org/2000/svg" xmlns:xlink="http://www.w3.org/1999/xlink" x="0px" y="0px" viewBox="0 0 150 100"
	 style="enable-background:new 0 0 150 100;" xml:space="preserve"><g transform="translate(27.74124665032538 18.494164433550253) scale(0.6301167113289949)">
<style type="text/css">
	.st0{fill:#DBD4CA;}
	.st1{fill:none;stroke:#565440;}
	.st2{fill:#565440;}
	.st3{fill:none;stroke:#565440;stroke-width:1.0000414;stroke-miterlimit:4.0001655;}
</style>
<metadata>
	<sfw  xmlns="&ns_sfw;">
		<slices></slices>
		<sliceSourceBounds  bottomLeftOrigin="true" height="100" width="125.9680176" x="4.8917594" y="0"></sliceSourceBounds>
	</sfw>
</metadata>
<polygon id="Floor_1_" class="st0" points="123.7433548,2.8283443 123.7433548,12.0384264 129.9217072,15.2568741 
	123.2658997,40.3549652 123.2147217,55.6476021 129.6842194,59.0481834 124.1073608,80.6564407 124.0245361,99.8948288 
	19.1312542,99.8948288 19.1312542,2.8283443 "/>
<path id="Doors" class="st1" d="M42.3762131,63.0130844c0,1.5067978,0.2739258,2.7395248,0.8218994,4.1094208
	c0.5478516,1.3697739,1.369751,2.602623,2.3285522,3.5614471c0.9589272,1.0958481,2.1916924,1.9177475,3.5614433,2.4655991
	s2.7395439,0.8219223,4.2464485,0.8219223V63.0130844 M77.9908752,52.0547218c0,1.5067978-0.2739258,2.7396698-0.821907,4.1094208
	c-0.5478439,1.3697701-1.369751,2.602623-2.3285446,3.5614433c-0.958931,1.0958481-2.1916962,1.9177475-3.5614471,2.4655991
	s-2.7395477,0.8219223-4.2464447,0.8219223V52.0547218 M19.1526699,50.6848221
	c-1.7807007,0-3.4875259-0.4109497-5.1312437-1.0958481c-1.6438446-0.6848755-3.2875204-1.6436958-4.5202456-3.0135918
	c-1.232852-1.2328758-2.3287196-2.7396698-3.0135951-4.3833466c-0.6848755-1.6438255-1.0958261-3.4245453-1.0958261-5.2052689
	h13.76091"/>
<g id="Walls">
	<polygon class="st2" points="124.5587845,84.1372986 124.5543671,84.1372986 124.5543671,80.8172607 116.3661499,80.8172607 
		116.3577423,95.8905792 57.4440193,95.8905792 57.4440193,63.0154419 65.6626968,63.0154419 65.6626968,52.0570564 
		67.032486,52.0570564 67.032486,50.6873055 57.4440193,50.6873055 57.4440193,52.0570564 64.2929459,52.0570564 
		64.2929459,61.6456718 53.3345566,61.6456718 53.3345566,63.0154419 56.0741005,63.0154419 56.0741005,95.8905792 
		23.1989422,95.8905792 23.1989422,63.0154419 42.3762131,63.0154419 42.3762131,61.6456718 23.1989422,61.6456718 
		23.1989422,50.6873055 19.0896893,50.6873055 19.0896893,100 124.5639191,100 	"/>
	<polygon class="st2" points="23.1989422,28.5510693 31.2800865,28.5510693 31.2800865,27.1904049 23.1989422,27.1904049 
		23.1989422,4.1142592 116.3577423,4.1142592 116.3577423,14.2398272 123.7927094,14.2398272 129.8963928,15.6098719 
		129.8968048,15.6086311 129.9009705,15.6095991 130.8597717,11.6372032 124.5587845,10.2227726 124.5639191,0.0048382 
		124.5587845,0.0048382 124.5587845,0 114.9754105,0 114.9754105,0.0048382 19.0896893,0.0048382 19.0896893,36.9893951 
		23.1989422,36.9893951 	"/>
	<polygon class="st2" points="124.5194931,54.7242165 124.5194931,41.8646164 125.6154861,37.1159477 118.9390106,35.609024 
		117.7062454,40.81427 117.7062454,50.6821938 77.9909973,50.6873055 77.9909973,52.0572014 117.7062454,52.0520897 
		117.7062454,58.9229774 124.5194931,58.9229774 124.5194931,58.9118042 129.4508514,60.0188026 130.4097748,56.0464058 	"/>
</g>
<g id="Windows">
	
		<rect x="113.5654755" y="68.5110931" transform="matrix(0.2514896 -0.96786 0.96786 0.2514896 26.9344769 173.9015961)" class="st3" width="24.6666756" height="2.0518293"/>
	<polygon class="st1" points="124.1202774,37.7054253 122.1345673,37.1894226 128.0212402,14.4102144 130.0071259,14.9263639 	"/>
</g>
</g></svg>
