<?xml version="1.0" encoding="utf-8"?>
<!-- DO NOT EDIT THIS, THIS FILE IS GENERATED FROM "1_7-12_9.original.svg" using transform-svgs.js script -->
<!-- Generator: Adobe Illustrator 24.2.0, SVG Export Plug-In . SVG Version: 6.00 Build 0)  -->
<!DOCTYPE svg PUBLIC "-//W3C//DTD SVG 1.1//EN" "http://www.w3.org/Graphics/SVG/1.1/DTD/svg11.dtd" [
	<!ENTITY ns_extend "http://ns.adobe.com/Extensibility/1.0/">
	<!ENTITY ns_ai "http://ns.adobe.com/AdobeIllustrator/10.0/">
	<!ENTITY ns_graphs "http://ns.adobe.com/Graphs/1.0/">
	<!ENTITY ns_vars "http://ns.adobe.com/Variables/1.0/">
	<!ENTITY ns_imrep "http://ns.adobe.com/ImageReplacement/1.0/">
	<!ENTITY ns_sfw "http://ns.adobe.com/SaveForWeb/1.0/">
	<!ENTITY ns_custom "http://ns.adobe.com/GenericCustomNamespace/1.0/">
	<!ENTITY ns_adobe_xpath "http://ns.adobe.com/XPath/1.0/">
]>
<svg version="1.1" id="Слой_1" xmlns:x="&ns_extend;" xmlns:i="&ns_ai;" xmlns:graph="&ns_graphs;"
	 xmlns="http://www.w3.org/2000/svg" xmlns:xlink="http://www.w3.org/1999/xlink" x="0px" y="0px" viewBox="0 0 150 100"
	 style="enable-background:new 0 0 150 100;" xml:space="preserve"><g transform="translate(27.353576549346453 18.2357176995643) scale(0.635285646008714)">
<style type="text/css">
	.st0{fill:#DBD4CA;}
	.st1{fill:none;stroke:#565440;}
	.st2{fill:#565440;}
	.st3{fill:none;stroke:#565440;stroke-width:1.0000414;stroke-miterlimit:4.0001655;}
</style>
<metadata>
	<sfw  xmlns="&ns_sfw;">
		<slices></slices>
		<sliceSourceBounds  bottomLeftOrigin="true" height="100" width="124.932518" x="5.547543" y="0"></sliceSourceBounds>
	</sfw>
</metadata>
<polygon id="Floor_1_" class="st0" points="123.5548477,0.0010927 123.5548477,6.3241415 129.3357086,7.9127774 
	123.7208557,31.9398899 123.5566864,48.5798683 129.3357086,52.9891014 123.996933,74.9245529 123.9693222,96.4902496 
	19.6005802,96.4902496 19.6005802,0.0010927 "/>
<path id="Doors" class="st1" d="M42.7323799,62.4985237c0,1.4945869,0.2717056,2.7173271,0.8152428,4.0761452
	c0.5435333,1.3586502,1.3586502,2.5815506,2.3098488,3.5325851c0.9511566,1.0868149,2.1739311,1.9020615,3.5325851,2.4456329
	c1.3586502,0.543541,2.7173424,0.8152466,4.2119102,0.8152466v-10.869442 M78.0584412,51.6289368
	c0,1.4945869-0.2717056,2.7173233-0.815239,4.0761223c-0.5434113,1.3586731-1.3586502,2.5815315-2.3098526,3.5325851
	c-0.9510269,1.0869675-2.1739349,1.9022064-3.5325851,2.4456177c-1.3588181,0.5434113-2.7174683,0.8152618-4.2120361,0.8152618
	V51.6289368 M19.6344318,36.6833763c-1.7662716,0-3.3967953,0.4076195-5.0271521,1.0869675
	s-3.2608795,1.6303787-4.4836159,2.9891739c-1.2228613,1.2228813-2.3098493,2.7174721-2.9891748,4.3478279
	c-0.6793256,1.6305008-1.086946,3.3967934-1.086946,5.1630859h13.5868893"/>
<g id="Walls">
	<polygon class="st2" points="126.5397339,95.1087646 124.2262115,95.1087646 124.2262115,73.3695908 116.0865326,73.3695908 
		116.0865326,95.1087646 57.6502113,95.1087646 57.6502113,62.5000267 65.8022842,62.5000267 65.8022842,61.1413536 
		65.8022842,51.6304398 67.1609802,51.6304398 67.1609802,50.2717896 57.6502113,50.2717896 57.6502113,51.6304398 
		64.443634,51.6304398 64.443634,61.1413536 53.5740471,61.1413536 53.5740471,62.5000267 56.2913933,62.5000267 
		56.2913933,95.1087646 23.6826344,95.1087646 23.6826344,62.5000267 42.7045059,62.5000267 42.7045059,61.1413536 
		23.6826344,61.1413536 23.6826344,50.2717896 19.6066818,50.2717896 19.6066818,95.1087646 19.6066818,99.184761 
		126.1517715,99.184761 129.5289154,100 130.480072,96.0597916 	"/>
	<polygon class="st2" points="23.6826344,30.2636261 31.4916878,30.2636261 31.4916878,28.8982773 23.6826344,28.8982773 
		23.6826344,4.0759954 116.0852814,4.0759954 116.0852814,7.4470849 122.8675156,7.4470849 129.5251923,8.9415264 
		130.4763489,5.0013208 124.2262115,3.5982268 124.2262115,0 19.6066818,0 19.6066818,4.0759954 19.6066818,36.6847343 
		23.6826344,36.6847343 	"/>
	<polygon class="st2" points="124.2249603,47.7840424 124.2249603,45.3099861 124.2260437,45.3099861 124.2260437,34.2188759 
		125.3130341,29.5086861 118.6554794,28.0140972 117.4326248,33.1771851 117.4326248,38.6144409 117.4314957,38.6144409 
		117.4314957,50.2741051 78.0293121,50.2741051 78.0293121,51.6327553 122.8663101,51.6327553 129.5239868,53.1273422 
		130.4750214,49.1871376 	"/>
</g>
<g id="Windows">
	
		<rect x="113.321167" y="61.6517715" transform="matrix(0.2514896 -0.96786 0.96786 0.2514896 33.3237152 168.4279175)" class="st3" width="24.4667912" height="2.0352025"/>
	
		<rect x="114.692337" y="17.9787025" transform="matrix(0.2514896 -0.96786 0.96786 0.2514896 75.8058243 136.0131989)" class="st3" width="22.2927685" height="2.0352025"/>
</g>
</g></svg>
