<?xml version="1.0" encoding="utf-8"?>
<!-- Generator: Adobe Illustrator 26.0.3, SVG Export Plug-In . SVG Version: 6.00 Build 0)  -->
<svg version="1.1" xmlns="http://www.w3.org/2000/svg" xmlns:xlink="http://www.w3.org/1999/xlink" x="0px" y="0px"
	 viewBox="0 0 720 480" style="enable-background:new 0 0 720 480;" xml:space="preserve">
<style type="text/css">
	.st0{fill:#DBD4CA;}
	.st1{clip-path:url(#SVGID_00000037676642098510951710000007326650320658326954_);}
	.st2{fill:none;stroke:#C49F8A;stroke-miterlimit:10;}
	.st3{opacity:0.3;clip-path:url(#SVGID_00000170281012402658585010000013873067937039914368_);}
	.st4{opacity:0.7;fill:#C49F8A;enable-background:new    ;}
	.st5{fill:none;stroke:#565440;}
	.st6{fill:none;stroke:#565440;stroke-width:1;stroke-miterlimit:4.0002;}
	.st7{fill:#565440;}
	.st8{fill:#E9E4DC;}
	.st9{fill:#C49F8A;}
	.st10{fill:#E9E4DC;stroke:#C49F8A;}
	.st11{fill:none;stroke:#C49F8A;}
	.st12{fill:#E9E4DC;stroke:#C49F8A;stroke-width:1;stroke-miterlimit:3.9997;}
	.st13{fill:none;}
</style>
<g id="_x31__x5F_2">
	<polygon id="Floor" class="st0" points="534.4,60.5 534.4,83.2 549.5,87.9 528.5,169.9 527.8,239.5 547.5,247.3 527.8,325.7 
		527.6,406.9 160.5,406.9 160.5,60.5 	"/>
	<g id="Wet_Floor_1_">
		<g>
			<defs>
				<rect id="SVGID_1_" x="167.2" y="241" width="109" height="166.9"/>
			</defs>
			<clipPath id="SVGID_00000127736467836033443390000018076986160369768872_">
				<use xlink:href="#SVGID_1_"  style="overflow:visible;"/>
			</clipPath>
			<g style="clip-path:url(#SVGID_00000127736467836033443390000018076986160369768872_);">
				<g>
					<line class="st2" x1="-8.7" y1="335.1" x2="324.8" y2="1.6"/>
					<line class="st2" x1="-19.1" y1="324.7" x2="314.4" y2="-8.8"/>
					<line class="st2" x1="1.7" y1="345.5" x2="335.2" y2="12"/>
					<line class="st2" x1="12.1" y1="355.9" x2="345.6" y2="22.4"/>
					<line class="st2" x1="22.6" y1="366.3" x2="356" y2="32.9"/>
					<line class="st2" x1="33" y1="376.8" x2="366.5" y2="43.3"/>
					<line class="st2" x1="43.4" y1="387.2" x2="376.9" y2="53.7"/>
					<line class="st2" x1="53.8" y1="397.6" x2="387.3" y2="64.1"/>
					<line class="st2" x1="64.3" y1="408" x2="397.7" y2="74.5"/>
					<line class="st2" x1="74.7" y1="418.4" x2="408.2" y2="85"/>
					<line class="st2" x1="64.3" y1="408" x2="397.7" y2="74.5"/>
					<line class="st2" x1="85.1" y1="428.9" x2="418.6" y2="95.4"/>
					<line class="st2" x1="95.5" y1="439.3" x2="429" y2="105.8"/>
					<line class="st2" x1="105.9" y1="449.7" x2="439.4" y2="116.2"/>
					<line class="st2" x1="116.4" y1="460.1" x2="449.8" y2="126.6"/>
					<line class="st2" x1="126.8" y1="470.6" x2="460.3" y2="137.1"/>
					<line class="st2" x1="137.2" y1="481" x2="470.7" y2="147.5"/>
					<line class="st2" x1="147.6" y1="491.4" x2="481.1" y2="157.9"/>
					<line class="st2" x1="158" y1="501.8" x2="491.5" y2="168.3"/>
					<line class="st2" x1="147.6" y1="491.4" x2="481.1" y2="157.9"/>
					<line class="st2" x1="168.5" y1="512.2" x2="501.9" y2="178.8"/>
					<line class="st2" x1="178.9" y1="522.7" x2="512.4" y2="189.2"/>
					<line class="st2" x1="189.3" y1="533.1" x2="522.8" y2="199.6"/>
					<line class="st2" x1="199.7" y1="543.5" x2="533.2" y2="210"/>
					<line class="st2" x1="210.1" y1="553.9" x2="543.6" y2="220.4"/>
					<line class="st2" x1="220.6" y1="564.3" x2="554.1" y2="230.9"/>
					<line class="st2" x1="231" y1="574.8" x2="564.5" y2="241.3"/>
					<line class="st2" x1="241.4" y1="585.2" x2="574.9" y2="251.7"/>
					<line class="st2" x1="231" y1="574.8" x2="564.5" y2="241.3"/>
					<line class="st2" x1="251.8" y1="595.6" x2="585.3" y2="262.1"/>
					<line class="st2" x1="262.3" y1="606" x2="595.7" y2="272.5"/>
					<line class="st2" x1="272.7" y1="616.4" x2="606.2" y2="283"/>
					<line class="st2" x1="283.1" y1="626.9" x2="616.6" y2="293.4"/>
					<line class="st2" x1="293.5" y1="637.3" x2="627" y2="303.8"/>
					<line class="st2" x1="303.9" y1="647.7" x2="637.4" y2="314.2"/>
					<line class="st2" x1="314.4" y1="658.1" x2="647.8" y2="324.7"/>
				</g>
				<g>
					<line class="st2" x1="324.8" y1="647.7" x2="-8.7" y2="314.2"/>
					<line class="st2" x1="314.4" y1="658.1" x2="-19.1" y2="324.7"/>
					<line class="st2" x1="335.2" y1="637.3" x2="1.7" y2="303.8"/>
					<line class="st2" x1="345.6" y1="626.9" x2="12.1" y2="293.4"/>
					<line class="st2" x1="356" y1="616.4" x2="22.6" y2="283"/>
					<line class="st2" x1="366.5" y1="606" x2="33" y2="272.5"/>
					<line class="st2" x1="376.9" y1="595.6" x2="43.4" y2="262.1"/>
					<line class="st2" x1="387.3" y1="585.2" x2="53.8" y2="251.7"/>
					<line class="st2" x1="397.7" y1="574.8" x2="64.3" y2="241.3"/>
					<line class="st2" x1="408.2" y1="564.3" x2="74.7" y2="230.9"/>
					<line class="st2" x1="397.7" y1="574.8" x2="64.3" y2="241.3"/>
					<line class="st2" x1="418.6" y1="553.9" x2="85.1" y2="220.4"/>
					<line class="st2" x1="429" y1="543.5" x2="95.5" y2="210"/>
					<line class="st2" x1="439.4" y1="533.1" x2="105.9" y2="199.6"/>
					<line class="st2" x1="449.8" y1="522.7" x2="116.4" y2="189.2"/>
					<line class="st2" x1="460.3" y1="512.2" x2="126.8" y2="178.8"/>
					<line class="st2" x1="470.7" y1="501.8" x2="137.2" y2="168.3"/>
					<line class="st2" x1="481.1" y1="491.4" x2="147.6" y2="157.9"/>
					<line class="st2" x1="491.5" y1="481" x2="158" y2="147.5"/>
					<line class="st2" x1="481.1" y1="491.4" x2="147.6" y2="157.9"/>
					<line class="st2" x1="501.9" y1="470.6" x2="168.5" y2="137.1"/>
					<line class="st2" x1="512.4" y1="460.1" x2="178.9" y2="126.6"/>
					<line class="st2" x1="522.8" y1="449.7" x2="189.3" y2="116.2"/>
					<line class="st2" x1="533.2" y1="439.3" x2="199.7" y2="105.8"/>
					<line class="st2" x1="543.6" y1="428.9" x2="210.1" y2="95.4"/>
					<line class="st2" x1="554.1" y1="418.4" x2="220.6" y2="85"/>
					<line class="st2" x1="564.5" y1="408" x2="231" y2="74.5"/>
					<line class="st2" x1="574.9" y1="397.6" x2="241.4" y2="64.1"/>
					<line class="st2" x1="564.5" y1="408" x2="231" y2="74.5"/>
					<line class="st2" x1="585.3" y1="387.2" x2="251.8" y2="53.7"/>
					<line class="st2" x1="595.7" y1="376.8" x2="262.3" y2="43.3"/>
					<line class="st2" x1="606.2" y1="366.3" x2="272.7" y2="32.9"/>
					<line class="st2" x1="616.6" y1="355.9" x2="283.1" y2="22.4"/>
					<line class="st2" x1="627" y1="345.5" x2="293.5" y2="12"/>
					<line class="st2" x1="637.4" y1="335.1" x2="303.9" y2="1.6"/>
					<line class="st2" x1="647.8" y1="324.7" x2="314.4" y2="-8.8"/>
				</g>
			</g>
		</g>
		<g>
			<defs>
				<rect id="SVGID_00000078027011621943461540000008245596988393024427_" x="167.2" y="241" width="109" height="166.9"/>
			</defs>
			<clipPath id="SVGID_00000024681949313672196640000015390643800802051514_">
				<use xlink:href="#SVGID_00000078027011621943461540000008245596988393024427_"  style="overflow:visible;"/>
			</clipPath>
			<g style="opacity:0.3;clip-path:url(#SVGID_00000024681949313672196640000015390643800802051514_);">
				<rect x="148.2" y="233.7" class="st4" width="180.1" height="176.1"/>
			</g>
		</g>
	</g>
	<path id="Doors" class="st5" d="M227.5,242.5c0,5.4,1,9.8,2.9,14.7c2,4.9,4.9,9.3,8.3,12.7c3.4,3.9,7.8,6.8,12.7,8.8
		c4.9,2,9.8,2.9,15.2,2.9v-39.1 M354.7,242.5c0,5.4-1,9.8-2.9,14.7c-2,4.9-4.9,9.3-8.3,12.7c-3.4,3.9-7.8,6.8-12.7,8.8
		s-9.8,2.9-15.2,2.9v-39.1 M160.5,217c-6.4,0-12.2-1.5-18.1-3.9c-5.9-2.4-11.7-5.9-16.1-10.8c-4.4-4.4-8.3-9.8-10.8-15.7
		c-2.4-5.9-3.9-12.2-3.9-18.6h48.9"/>
	<g id="Windows">
		
			<rect x="497.7" y="281.9" transform="matrix(0.2515 -0.9679 0.9679 0.2515 129.1051 738.1587)" class="st6" width="88.1" height="7.3"/>
		
			<rect x="502.7" y="124.7" transform="matrix(0.2515 -0.9679 0.9679 0.2515 282.0416 621.4657)" class="st6" width="80.3" height="7.3"/>
	</g>
	<g id="Walls">
		<path class="st7" d="M175.2,74.7h82.6v17.6H273v73.8h4.9V74.7l229.9,0v12.1h24.4l24,5.4l3.4-14.2L537,73V60v0l-376.5,0v108.6h14.7
			V74.7z M273,87.4h-10.3V74.7H273V87.4z"/>
		<path class="st7" d="M545.3,402.4h-8.2v-78.3H537v0h-29.3l0,78.3H277.9V245.9h37.7V241h-37.7H273h-6.4v4.9h6.4v156.5h-78.7v-19.8
			h-19.1V245.9h52.3V241h-52.3v-24.5h-14.7v185.9v14.7l383.5,0l12.1,2.9l3.4-14.2L545.3,402.4z M175.2,387.5h14.3v14.9h-14.3V387.5z
			"/>
		<polygon class="st7" points="540.9,166.2 516.9,160.8 512.5,179.4 512.5,241 354.7,241 354.7,245.9 532.1,245.9 556.1,251.3 
			559.5,237.1 537,232 537,183.2 		"/>
	</g>
	<g id="Furniture_1_">
		<g>
			<path class="st8" d="M422.3,111.7c-5.8,0-10.5-4.7-10.5-10.5s4.7-10.5,10.5-10.5s10.5,4.7,10.5,10.5S428,111.7,422.3,111.7z"/>
			<path class="st9" d="M422.3,91.2c2.7,0,5.2,1,7,2.9s2.9,4.4,2.9,7c0,5.5-4.5,10-10,10s-10-4.5-10-10
				C412.3,95.7,416.8,91.2,422.3,91.2 M422.3,90.2c-6.1,0-11,4.9-11,11s4.9,11,11,11s11-4.9,11-11C433.2,95.1,428.3,90.2,422.3,90.2
				L422.3,90.2z"/>
		</g>
		<g>
			<circle class="st8" cx="422.8" cy="129.1" r="10.5"/>
			<path class="st9" d="M422.8,119.2c2.7,0,5.2,1,7,2.9s2.9,4.4,2.9,7c0,5.5-4.5,10-10,10s-10-4.5-10-10
				C412.8,123.6,417.3,119.2,422.8,119.2 M422.8,118.2c-6.1,0-11,4.9-11,11c0,6.1,4.9,11,11,11s11-4.9,11-11
				C433.7,123.1,428.8,118.2,422.8,118.2L422.8,118.2z"/>
		</g>
		<g>
			<path class="st8" d="M384.5,164.3c-5.8,0-10.5-4.7-10.5-10.5s4.7-10.5,10.5-10.5S395,148,395,153.8S390.2,164.3,384.5,164.3z"/>
			<path class="st9" d="M384.5,143.9c2.7,0,5.2,1,7,2.9s2.9,4.4,2.9,7c0,5.5-4.5,10-10,10s-10-4.5-10-10
				C374.5,148.4,379,143.9,384.5,143.9 M384.5,142.9c-6.1,0-11,4.9-11,11s4.9,11,11,11s11-4.9,11-11
				C395.4,147.8,390.5,142.9,384.5,142.9L384.5,142.9z"/>
		</g>
		<g>
			<g>
				<rect x="360.2" y="75" class="st8" width="44.1" height="62.6"/>
				<path class="st9" d="M403.9,75.4v61.9h-43.1V75.4H403.9 M404.9,74.7h-45.1V138h45.1V74.7L404.9,74.7z"/>
			</g>
			<g>
				<rect x="387.1" y="75" class="st8" width="3.7" height="62.6"/>
				<path class="st9" d="M390.3,75.4v61.9h-2.7V75.4H390.3 M391.3,74.7h-4.7V138h4.7V74.7L391.3,74.7z"/>
			</g>
		</g>
		<g id="Kitchen_2_">
			<g id="Rectangle_24_4_">
				<rect x="278.5" y="75.2" class="st8" width="81.8" height="31.3"/>
				<path class="st9" d="M359.8,75.7V106H279V75.7H359.8 M360.8,74.7H278V107h82.8L360.8,74.7L360.8,74.7z"/>
			</g>
			<g id="Rectangle_24_3_">
				<rect x="278.4" y="75.2" class="st8" width="30.3" height="55"/>
				<path class="st9" d="M308.2,75.7v54h-29.3v-54L308.2,75.7 M309.2,74.7h-31.3v56h31.3V74.7L309.2,74.7z"/>
			</g>
			<g id="Rectangle_27_4_">
				<rect x="278.4" y="127" class="st8" width="30.3" height="30.3"/>
				<path class="st9" d="M308.2,127.5v29.3h-29.3v-29.3L308.2,127.5 M309.2,126.5h-31.3v31.3h31.3V126.5L309.2,126.5z"/>
			</g>
			<g id="Rectangle_27_3_">
				<rect x="307.1" y="127" class="st8" width="1.6" height="30.3"/>
				<path class="st9" d="M308.2,127.5v29.3h-0.6v-29.3L308.2,127.5 M309.2,126.5h-2.6v31.3h2.6V126.5L309.2,126.5z"/>
			</g>
			<g id="Sink_3_2_">
				<rect id="Rectangle_28_x5F_2_2_" x="282.1" y="84" class="st10" width="22" height="34.9"/>
				<path id="Rectangle_29_x5F_2_2_" class="st10" d="M293.1,97.8L293.1,97.8c4.6,0,8.3,3.7,8.3,8.3v1.8c0,4.6-3.7,8.3-8.3,8.3l0,0
					c-4.6,0-8.3-3.7-8.3-8.3v-1.8C284.9,101.5,288.5,97.8,293.1,97.8z"/>
				<ellipse id="Ellipse_7_x5F_3_2_" class="st10" cx="289.4" cy="107" rx="1.7" ry="1.7"/>
				<path id="Vector_2_2_" class="st11" d="M284.9,85.9v9.2 M287.6,85.9v9.2 M290.4,85.9v9.2 M293.1,85.9v9.2 M295.9,85.9v9.2
					 M298.6,85.9v9.2 M301.4,85.9v9.2"/>
			</g>
			<g id="Stove_2_">
				<g id="Rectangle_25_2_">
					<rect x="329.8" y="75.2" class="st8" width="30.5" height="31.3"/>
					<path class="st9" d="M359.8,75.7V106h-29.5V75.7H359.8 M360.8,74.7h-31.5V107h31.5V74.7L360.8,74.7z"/>
				</g>
				<g id="Rectangle_28_x5F_3_2_">
					<rect x="329.8" y="75.2" class="st8" width="30.5" height="1.8"/>
					<path class="st9" d="M359.8,75.7v0.8h-29.5v-0.8H359.8 M360.8,74.7h-31.5v2.8h31.5V74.7L360.8,74.7z"/>
				</g>
				<g id="Ellipse_7_x5F_4_2_">
					<circle class="st8" cx="352.2" cy="85.5" r="3.5"/>
					<path class="st9" d="M352.2,82.5c1.7,0,3,1.4,3,3s-1.4,3-3,3s-3-1.4-3-3S350.6,82.5,352.2,82.5 M352.2,81.5c-2.2,0-4,1.8-4,4
						s1.8,4,4,4s4-1.8,4-4C356.3,83.3,354.5,81.5,352.2,81.5L352.2,81.5z"/>
				</g>
				<g id="Ellipse_9_2_">
					<path class="st8" d="M352.2,102.2c-2.5,0-4.6-2-4.6-4.6s2-4.6,4.6-4.6c2.5,0,4.6,2,4.6,4.6S354.7,102.2,352.2,102.2z"/>
					<path class="st9" d="M352.2,93.6c2.2,0,4.1,1.8,4.1,4.1s-1.8,4.1-4.1,4.1c-2.3,0-4.1-1.8-4.1-4.1S350,93.6,352.2,93.6
						 M352.2,92.6c-2.8,0-5.1,2.3-5.1,5.1s2.3,5.1,5.1,5.1c2.8,0,5.1-2.3,5.1-5.1S355,92.6,352.2,92.6L352.2,92.6z"/>
				</g>
				<g id="Ellipse_10_2_">
					<circle class="st8" cx="338.1" cy="85.5" r="4.6"/>
					<path class="st9" d="M338.1,81.5c2.2,0,4.1,1.8,4.1,4.1c0,2.2-1.8,4.1-4.1,4.1c-2.3,0-4.1-1.8-4.1-4.1S335.9,81.5,338.1,81.5
						 M338.1,80.5c-2.8,0-5.1,2.3-5.1,5.1c0,2.8,2.3,5.1,5.1,5.1c2.8,0,5.1-2.3,5.1-5.1C343.1,82.7,340.9,80.5,338.1,80.5
						L338.1,80.5z"/>
				</g>
				<g id="Ellipse_8_2_">
					<circle class="st8" cx="338.1" cy="98.7" r="3.5"/>
					<path class="st9" d="M338.1,95.6c1.7,0,3,1.4,3,3s-1.4,3-3,3s-3-1.4-3-3S336.4,95.6,338.1,95.6 M338.1,94.6c-2.2,0-4,1.8-4,4
						s1.8,4,4,4s4-1.8,4-4S340.3,94.6,338.1,94.6L338.1,94.6z"/>
				</g>
			</g>
			<path id="Vector_3_2_" class="st11" d="M296.7,142.2h-7.8 M294.7,145.6l-3.9-6.8 M294.7,138.7l-3.9,6.8"/>
		</g>
		<g>
			<g>
				<rect x="426.1" y="306" class="st8" width="81.1" height="95.9"/>
				<path class="st9" d="M426.6,306.5h80.1v94.9h-80.1V306.5 M425.6,305.5v96.9h82.1v-96.9H425.6L425.6,305.5z"/>
			</g>
			<rect x="432.6" y="371.6" class="st10" width="32" height="24"/>
			<rect x="468.6" y="371.6" class="st10" width="32" height="24"/>
			
				<rect x="439.2" y="360.9" transform="matrix(0.2588 -0.9659 0.9659 0.2588 -25.7501 712.2621)" class="st12" width="24" height="24"/>
			
				<rect x="470.3" y="360.9" transform="matrix(0.9659 -0.2588 0.2588 0.9659 -80.0737 137.5223)" class="st12" width="24" height="24"/>
			<g>
				<polygon class="st8" points="426.1,376.6 426.1,305.1 507.2,305.1 507.2,381.7 474.9,383.7 				"/>
				<path class="st9" d="M426.6,305.6h80v75v0.6l-31.8,2l-48.2-7V305.6 M425.6,304.6v72v0.5l49.2,7.1l32.8-2v-1.5v-76L425.6,304.6
					L425.6,304.6z"/>
			</g>
			<polyline class="st11" points="506.6,379.7 474.5,379.7 426.5,375.7 			"/>
		</g>
		<g>
			<g>
				<rect x="175.7" y="85.6" class="st8" width="81.8" height="13.6"/>
				<path class="st9" d="M176.2,86.1H257v12.6h-80.8V86.1 M175.2,85.1v14.6H258V85.1H175.2L175.2,85.1z"/>
			</g>
			<g>
				<rect x="175.7" y="75.2" class="st8" width="81.8" height="21.4"/>
				<path class="st9" d="M176.2,75.7H257v20.4h-80.8V75.7 M175.2,74.7v22.4H258V74.7H175.2L175.2,74.7z"/>
			</g>
			<g>
				<rect x="175.7" y="75.2" class="st8" width="81.8" height="21.4"/>
				<path class="st9" d="M176.2,75.7H257v20.4h-80.8V75.7 M175.2,74.7v22.4H258V74.7H175.2L175.2,74.7z"/>
			</g>
			<path class="st10" d="M257.5,75.4l-81.9,20.9"/>
		</g>
		<g>
			<g>
				<rect x="177.3" y="140.2" class="st8" width="13.6" height="27.8"/>
				<path class="st9" d="M190.4,140.7v26.8h-12.6v-26.8H190.4 M191.4,139.7h-14.6v28.8h14.6V139.7L191.4,139.7z"/>
			</g>
			<g>
				<rect x="179.9" y="140.2" class="st8" width="8.4" height="27.8"/>
				<path class="st9" d="M187.8,140.7v26.8h-7.4v-26.8H187.8 M188.8,139.7h-9.4v28.8h9.4V139.7L188.8,139.7z"/>
			</g>
			<g>
				<rect x="175.6" y="140.2" class="st8" width="12.7" height="27.8"/>
				<path class="st9" d="M187.8,140.7v26.8h-11.7v-26.8H187.8 M188.8,139.7h-13.7v28.8h13.7V139.7L188.8,139.7z"/>
			</g>
			<path class="st10" d="M175.7,140.3l12.5,27.8"/>
		</g>
		<g>
			<g>
				<rect x="175.7" y="246.3" class="st8" width="20.6" height="30.6"/>
				<path class="st9" d="M195.8,246.8v29.6h-19.6v-29.6L195.8,246.8 M196.8,245.8h-21.6v31.6h21.6V245.8L196.8,245.8z"/>
			</g>
			<g>
				<circle class="st8" cx="186" cy="261.6" r="6.5"/>
				<path class="st9" d="M186,255.6c3.3,0,6,2.7,6,6s-2.7,6-6,6s-6-2.7-6-6C180,258.3,182.7,255.6,186,255.6 M186,254.6
					c-3.9,0-7,3.1-7,7s3.1,7,7,7s7-3.1,7-7C193,257.8,189.9,254.6,186,254.6L186,254.6z"/>
			</g>
		</g>
		<g>
			<g>
				<rect x="443.1" y="85.7" class="st8" width="64.2" height="2.8"/>
				<path class="st9" d="M443.6,86.2h63.2v1.7h-63.2V86.2 M442.6,85.2v3.7h65.2v-3.8L442.6,85.2L442.6,85.2z"/>
			</g>
			<g>
				<rect x="443.2" y="75.2" class="st8" width="64.2" height="10.5"/>
				<path class="st9" d="M506.8,75.7v9.5h-63.2v-9.5H506.8 M507.8,74.7h-65.2v11.5h65.2L507.8,74.7L507.8,74.7z"/>
			</g>
			<rect x="452.8" y="77.2" class="st10" width="46.1" height="1.7"/>
			<path class="st10" d="M466.1,77.2h19.5l-1.8-1.8h-16L466.1,77.2z"/>
		</g>
		<g id="Sink_2">
			<g id="Rectangle_16_x5F_11_1_">
				<rect x="175.7" y="321.6" class="st8" width="22.9" height="36.9"/>
				<path class="st9" d="M198.1,322.1V358h-21.9v-35.9H198.1 M199.1,321.1h-23.9V359h23.9V321.1L199.1,321.1z"/>
			</g>
			<path id="Rectangle_19_x5F_5" class="st10" d="M187.2,352.6L187.2,352.6c4,0,7.3-3.3,7.3-7.3v-10.5c0-4-3.3-7.3-7.3-7.3l0,0
				c-4,0-7.3,3.3-7.3,7.3v10.5C179.8,349.3,183.1,352.6,187.2,352.6z"/>
			<circle id="Ellipse_7_x5F_2_1_" class="st10" cx="183" cy="340" r="1.7"/>
		</g>
		<g id="Toilet_2_">
			<g id="Rectangle_21_2_">
				<rect x="185.6" y="292.9" class="st8" width="7.3" height="21.5"/>
				<path class="st9" d="M192.5,293.4v20.5h-6.3v-20.5H192.5 M193.5,292.4h-8.3v22.5h8.3V292.4L193.5,292.4z"/>
			</g>
			<path id="Rectangle_19_x5F_2_2_" class="st10" d="M207.8,311.7c4.6,0.3,8.6-3.4,8.6-8l0,0c0-4.6-3.9-8.3-8.6-8l-14.8,1v14
				L207.8,311.7z"/>
			<path id="Rectangle_18_x5F_13_2_" class="st10" d="M207.8,310c3.8,0.3,7-2.6,7-6.4l0,0c0-3.8-3.2-6.7-7-6.4l-10.2,0.9V309
				L207.8,310z"/>
			<ellipse id="Ellipse_6_x5F_2_2_" class="st10" cx="202.3" cy="303.7" rx="1.7" ry="1.7"/>
		</g>
		<g id="Shower">
			<path id="Rectangle_22" class="st10" d="M272.6,363.6v38.3h-38.3v-26.4c0-6.6,5.3-11.9,11.9-11.9H272.6z"/>
			<path id="Rectangle_23" class="st10" d="M270.6,365.5v34.4h-34.4v-24.8c0-5.3,4.3-9.5,9.5-9.5h24.9V365.5z"/>
			<ellipse id="Ellipse_6_x5F_4" class="st10" cx="262.8" cy="392" rx="1.7" ry="1.7"/>
		</g>
		<g id="TV_2_">
			<g id="Rectangle_16_2_">
				<rect x="431.1" y="250.6" class="st8" width="76.5" height="10.8"/>
				<path class="st9" d="M507,251.1v9.8h-75.5v-9.8L507,251.1 M508,250.1h-77.5v11.8H508V250.1L508,250.1z"/>
			</g>
			<g id="Rectangle_15_2_">
				<rect x="431.1" y="246.3" class="st8" width="76.5" height="12.9"/>
				<path class="st9" d="M507,246.8v11.9h-75.5v-11.9L507,246.8 M508,245.8h-77.5v13.9H508V245.8L508,245.8z"/>
			</g>
			<rect id="Rectangle_17_2_" x="443.6" y="248.4" class="st10" width="51.5" height="2"/>
			<path id="Rectangle_18_x5F_2_2_" class="st10" d="M480.2,248.4h-21.8l2-2h17.8L480.2,248.4z"/>
		</g>
		<g>
			<path class="st10" d="M460.7,206.1c0-1.5-1.2-2.7-2.7-2.7h-39.9c-1.5,0-2.7,1.2-2.7,2.7v26.2h45.2v-26.2H460.7z"/>
			<path class="st10" d="M503.8,206.1c0-1.5-1.2-2.7-2.7-2.7h-37.9c-1.5,0-2.7,1.2-2.7,2.7v26.2h43.2v-26.2H503.8z"/>
			<polygon class="st10" points="503.8,201.2 503.8,232.2 459.6,232.2 415.5,232.2 415.5,201.2 407.2,201.2 407.2,240.5 
				512.1,240.5 512.1,201.2 			"/>
		</g>
		<g>
			<rect x="175.7" y="358.4" class="st8" width="22.9" height="23.8"/>
			<path class="st9" d="M198.1,358.8v23h-21.9v-23H198.1 M199.1,358h-23.9v24.6h23.9V358L199.1,358z"/>
		</g>
		<g>
			<g>
				<rect x="294.6" y="246.4" class="st8" width="16.2" height="155.5"/>
				<path class="st9" d="M310.3,246.9v154.5h-15.2V246.9L310.3,246.9 M311.3,245.9h-17.2v156.5h17.2V245.9L311.3,245.9z"/>
			</g>
			<g>
				<rect x="278.3" y="246.4" class="st8" width="30" height="155.5"/>
				<path class="st9" d="M307.8,246.9v154.5h-29V246.9L307.8,246.9 M308.8,245.9h-31v156.5h31V245.9L308.8,245.9z"/>
			</g>
			<path class="st10" d="M278.8,401.9l29-155.7"/>
		</g>
		<g>
			<rect x="175.7" y="276.9" class="st8" width="9.9" height="44.6"/>
			<path class="st9" d="M185.1,277.4V321h-8.9v-43.6H185.1 M186.1,276.4h-10.9V322h10.9V276.4L186.1,276.4z"/>
		</g>
	</g>
	<g id="street_anchors">
		<rect id="street_anchor_01" x="589.5" y="235" class="st13" width="10" height="10"/>
	</g>
</g>
<g id="комнаты">
	<g>
		<g>
			<path class="st7" d="M229.5,199.8c-0.4-0.2-0.8-0.4-1.3-0.4c-0.8,0-1.6,0.7-1.6,2c0.4-0.4,1-0.9,1.7-0.9c1.2,0,1.9,1,1.9,1.9
				c0,1.3-0.9,2.2-2.1,2.2c-1.3,0-2.5-1.1-2.5-3.1c0-2.1,1.3-3.4,2.6-3.4c0.8,0,1.4,0.4,1.8,0.5L229.5,199.8z M226.7,202.2
				c0.2,0.8,0.8,1.3,1.4,1.3c0.6,0,1-0.5,1-1c0-0.4-0.2-0.8-0.9-0.8C227.6,201.6,227.1,201.9,226.7,202.2z"/>
			<path class="st7" d="M231.8,202.9c0.4,0,0.8,0.4,0.8,0.9c0,0.5-0.3,0.9-0.8,0.9c-0.4,0-0.7-0.4-0.7-0.9
				C231.1,203.3,231.4,202.9,231.8,202.9z"/>
			<path class="st7" d="M235.3,200.8h0.7c0.3,0,0.6-0.2,0.6-0.6c0-0.5-0.4-0.7-0.8-0.7c-0.6,0-1.1,0.4-1.6,1l-0.6-0.9
				c0.5-0.6,1.3-1.3,2.2-1.3c0.8,0,1.9,0.5,1.9,1.8c0,0.5-0.3,0.9-0.5,1.1c0.4,0.2,0.9,0.6,0.9,1.5c0,1.4-1.1,2.2-2.4,2.2
				c-0.9,0-1.7-0.4-2.4-1.3l0.6-1c0.5,0.6,1,1,1.8,1c0.7,0,1.3-0.4,1.3-1c0-0.5-0.5-0.6-0.7-0.6h-0.9V200.8z"/>
		</g>
	</g>
	<g>
		<g>
			<path class="st7" d="M414.2,171.9l1.4-0.8h1v6.1h-1.1v-4.7l-1,0.6L414.2,171.9z"/>
			<path class="st7" d="M417.6,176.5l0.5-1c0.3,0.3,1,0.7,1.9,0.7c0.6,0,1.2-0.3,1.2-1c0-0.6-0.5-0.9-0.9-0.9
				c-0.6,0-1.1,0.3-1.5,0.6l-0.6-0.6v-3.2h3.7v1.2h-2.7v1.4c0.4-0.3,0.7-0.6,1.3-0.6c0.9,0,1.9,0.6,1.9,2c0,1.6-1.2,2.3-2.3,2.3
				C418.8,177.4,418,176.8,417.6,176.5z"/>
			<path class="st7" d="M423.9,175.5c0.4,0,0.8,0.4,0.8,0.9c0,0.5-0.3,0.9-0.8,0.9c-0.4,0-0.7-0.4-0.7-0.9
				C423.2,176,423.5,175.5,423.9,175.5z"/>
			<path class="st7" d="M429.5,172.5c-0.4-0.2-0.8-0.4-1.3-0.4c-0.8,0-1.6,0.7-1.6,2c0.4-0.4,1-0.9,1.7-0.9c1.2,0,1.9,1,1.9,1.9
				c0,1.3-0.9,2.2-2.1,2.2c-1.3,0-2.5-1.1-2.5-3.1c0-2.1,1.3-3.4,2.6-3.4c0.8,0,1.4,0.4,1.8,0.5L429.5,172.5z M426.7,174.9
				c0.2,0.8,0.8,1.3,1.4,1.3c0.6,0,1-0.5,1-1c0-0.4-0.2-0.8-0.9-0.8C427.6,174.3,427.1,174.6,426.7,174.9z"/>
		</g>
	</g>
	<g>
		<g>
			<path class="st7" d="M367.3,333l1.4-0.8h1v6.1h-1.1v-4.7l-1,0.6L367.3,333z"/>
			<path class="st7" d="M370.8,337.6l0.5-1c0.3,0.3,1,0.7,1.9,0.7c0.6,0,1.2-0.3,1.2-1c0-0.6-0.5-0.9-0.9-0.9
				c-0.6,0-1.1,0.3-1.5,0.6l-0.6-0.6v-3.2h3.7v1.2h-2.7v1.4c0.4-0.3,0.7-0.6,1.3-0.6c0.9,0,1.9,0.6,1.9,2c0,1.6-1.2,2.3-2.3,2.3
				C372,338.5,371.2,337.9,370.8,337.6z"/>
			<path class="st7" d="M377.1,336.7c0.4,0,0.8,0.4,0.8,0.9c0,0.5-0.3,0.9-0.8,0.9c-0.4,0-0.7-0.4-0.7-0.9
				C376.3,337.1,376.6,336.7,377.1,336.7z"/>
			<path class="st7" d="M378.5,333l1.4-0.8h1v6.1h-1.1v-4.7l-1,0.6L378.5,333z"/>
		</g>
	</g>
	<g>
		<g>
			<path class="st7" d="M231,327.8l0.5-1c0.3,0.3,1,0.7,1.9,0.7c0.6,0,1.2-0.3,1.2-1c0-0.6-0.5-0.9-0.9-0.9c-0.6,0-1.1,0.3-1.5,0.6
				l-0.6-0.6v-3.2h3.7v1.2h-2.7v1.4c0.4-0.3,0.7-0.6,1.3-0.6c0.9,0,1.9,0.6,1.9,2c0,1.6-1.2,2.3-2.3,2.3
				C232.1,328.8,231.4,328.2,231,327.8z"/>
			<path class="st7" d="M237.2,326.9c0.4,0,0.8,0.4,0.8,0.9c0,0.5-0.3,0.9-0.8,0.9c-0.4,0-0.7-0.4-0.7-0.9
				C236.5,327.3,236.8,326.9,237.2,326.9z"/>
			<path class="st7" d="M242.8,323.8c-0.4-0.2-0.8-0.4-1.3-0.4c-0.8,0-1.6,0.7-1.6,2c0.4-0.5,1-0.9,1.7-0.9c1.2,0,1.9,1,1.9,1.9
				c0,1.3-0.9,2.2-2.1,2.2c-1.3,0-2.5-1.1-2.5-3.1c0-2.1,1.3-3.4,2.6-3.4c0.8,0,1.4,0.4,1.8,0.5L242.8,323.8z M240,326.3
				c0.2,0.8,0.8,1.3,1.4,1.3c0.6,0,1-0.5,1-1c0-0.4-0.2-0.8-0.9-0.8C241,325.7,240.4,326,240,326.3z"/>
		</g>
	</g>
</g>
</svg>
