<?xml version="1.0" encoding="utf-8"?>
<!-- Generator: Adobe Illustrator 26.0.3, SVG Export Plug-In . SVG Version: 6.00 Build 0)  -->
<svg version="1.1" xmlns="http://www.w3.org/2000/svg" xmlns:xlink="http://www.w3.org/1999/xlink" x="0px" y="0px"
	 viewBox="0 0 720 480" style="enable-background:new 0 0 720 480;" xml:space="preserve">
<style type="text/css">
	.st0{fill:#DBD4CA;}
	.st1{opacity:0.3;}
	.st2{opacity:0.7;fill:#C49F8A;enable-background:new    ;}
	.st3{fill:#C49F8A;}
	.st4{fill:none;stroke:#565440;}
	.st5{fill:#565440;}
	.st6{fill:#E9E4DC;}
	.st7{fill:#E9E4DC;stroke:#C49F8A;}
	.st8{fill:#E9E4DC;stroke:#C49F8A;stroke-miterlimit:3.9998;}
	.st9{fill:none;stroke:#C49F8A;}
	.st10{fill:#E9E4DC;stroke:#C49F8A;stroke-linejoin:round;}
	.st11{fill:#E9E4DC;stroke:#C49F8A;stroke-width:1;stroke-miterlimit:4;}
	.st12{fill:none;}
</style>
<g id="_x31__x5F_2">
	<polygon id="Floor" class="st0" points="129.9,68.6 590,68.7 590,420 130,420 	"/>
	<g id="Wet_Floor">
		<g class="st1">
			<rect x="303" y="297.2" class="st2" width="168.7" height="114.1"/>
		</g>
		<path class="st3" d="M460,306.1l8.9-8.9h-1.4l-8.2,8.2l-8.2-8.2h-1.4l8.9,8.9l-9.8,9.8l-9.8-9.8l8.9-8.9h-1.4l-8.2,8.2l-8.2-8.2
			h-1.4l8.9,8.9l-9.7,9.7l-9.7-9.7l8.9-8.9h-1.4l-8.2,8.2l-8.2-8.2h-1.4l8.9,8.9l-9.8,9.8l-9.8-9.8l8.9-8.9h-1.4l-8.2,8.2l-8.2-8.2
			h-1.4l8.9,8.9l-9.8,9.8l-10-10l8.7-8.7h-1.4l-8,8l-8-8h-1.4l8.7,8.7l-9.7,9.7l-9.8-9.8l8.7-8.7h-1.4l-8,8l-8-8H345l8.7,8.7
			l-9.8,9.8l-9.7-9.7l8.7-8.7h-1.4l-8,8l-8-8H324l8.7,8.7l-10,10l-9.8-9.8l8.9-8.9h-1.4l-8.2,8.2l-8.2-8.2h-1v0.4l8.6,8.6l-8.6,8.6
			v1.4l9.3-9.3l9.8,9.8l-9.8,9.8l-9.3-9.3v1.4l8.6,8.6l-8.6,8.6v1.4l9.3-9.3l9.7,9.7l-9.7,9.7L303,338v1.4l8.6,8.6l-8.6,8.6v1.4
			l9.3-9.3l9.8,9.8l-9.8,9.8L303,359v1.4l8.6,8.6l-8.6,8.6v1.4l9.3-9.3l10,10l-9.8,9.8L303,380v1.4l8.8,8.8L303,399v1.4l9.5-9.5
			l9.8,9.8l-9.8,9.8L303,401v1.4l8.8,8.8l-0.2,0.2h1.7l-0.2-0.2l9.8-9.8l9.7,9.7l-0.2,0.2h1.9l-0.2-0.2l9.8-9.8l9.8,9.8l-0.2,0.2
			h1.9l-0.2-0.2l9.8-9.8l9.8,9.8l-0.2,0.2h1.9l-0.2-0.2l9.7-9.7l9.8,9.8l-0.2,0.2h1.7l-0.2-0.2l9.8-9.8l9.7,9.7l-0.2,0.2h1.9
			l-0.2-0.2l10-10l9.8,9.8l-0.4,0.4h2.3l-0.4-0.4l9.8-9.8l10,10l-0.2,0.2h1.9l-0.2-0.2l9.7-9.7l1.7,1.7v-1.4l-1-1l1-1v-1.4L470,400
			l-10-10l9.8-9.8l1.9,1.9v-1.4l-1.2-1.2l1.2-1.2v-1.4l-1.9,1.9L460,369l9.8-9.8l1.9,1.9v-1.4l-1.2-1.2l1.2-1.2v-1.4l-1.9,1.9
			l-9.7-9.7l9.7-9.7l1.9,1.9v-1.4l-1.2-1.2l1.2-1.2V335l-1.9,1.9l-9.8-9.8l9.8-9.8l1.9,1.9v-1.4l-1.2-1.2l1.2-1.2V314l-1.9,1.9
			L460,306.1z M458.6,327.1l-9.7,9.7l-9.8-9.8l9.7-9.7L458.6,327.1z M428.6,337.5l9.8-9.8l9.8,9.8l-9.8,9.8L428.6,337.5z
			 M448.2,358.5l-9.8,9.8l-9.8-9.8l9.8-9.8L448.2,358.5z M437.7,348.1l-9.8,9.8l-9.8-9.8l9.8-9.8L437.7,348.1z M427.2,358.5
			l-9.7,9.7l-9.8-9.8l9.7-9.7L427.2,358.5z M417.4,347.3l-9.8-9.8l9.8-9.8l9.8,9.8L417.4,347.3z M416.7,348l-9.7,9.7l-9.8-9.8
			l9.7-9.7L416.7,348z M406.3,358.5l-9.8,9.8l-9.8-9.8l9.8-9.8L406.3,358.5z M396.5,347.3l-9.7-9.7l9.7-9.7l9.7,9.7L396.5,347.3z
			 M395.8,348l-9.8,9.8l-9.7-9.7l9.8-9.8L395.8,348z M385.3,358.5l-10,10l-9.7-9.7l10-10L385.3,358.5z M375.6,347.3l-9.8-9.8
			l9.8-9.8l9.8,9.8L375.6,347.3z M374.9,348l-10,10l-9.8-9.8l10-10L374.9,348z M364.2,358.7l-9.8,9.8l-9.8-9.8l9.8-9.8L364.2,358.7z
			 M354.4,347.5l-10-10l10-10l10,10L354.4,347.5z M353.7,348.2l-9.8,9.8l-10-10l9.8-9.8L353.7,348.2z M333.2,347.3l-9.8-9.8l9.8-9.8
			l9.8,9.8L333.2,347.3z M343.2,358.7l-9.7,9.7l-10-10l9.7-9.7L343.2,358.7z M343.2,379.7l-9.8,9.8l-9.8-9.8l9.8-9.8L343.2,379.7z
			 M334.2,369.2l9.7-9.7l9.8,9.8L344,379L334.2,369.2z M354.4,369.9l9.7,9.7l-9.7,9.7l-9.7-9.7L354.4,369.9z M355.1,369.2l9.8-9.8
			l9.7,9.7l-9.8,9.8L355.1,369.2z M375.3,369.9l9.8,9.8l-9.8,9.8l-9.8-9.8L375.3,369.9z M376,369.2l10-10l9.8,9.8l-10,10L376,369.2z
			 M396.5,369.7l9.8,9.8l-10,10l-9.8-9.8L396.5,369.7z M397.2,369l9.8-9.8l9.8,9.8l-9.8,9.8L397.2,369z M417.5,369.7l9.8,9.8
			l-9.8,9.8l-9.8-9.8L417.5,369.7z M418.2,369l9.7-9.7l9.8,9.8l-9.7,9.7L418.2,369z M438.4,369.7l9.7,9.7l-9.7,9.7l-9.7-9.7
			L438.4,369.7z M439.1,369l9.8-9.8l9.7,9.7l-9.8,9.8L439.1,369z M439.1,348.1l9.8-9.8l9.8,9.8l-9.8,9.8L439.1,348.1z M438.3,306.8
			l9.8,9.8l-9.7,9.7l-9.8-9.8L438.3,306.8z M437.7,327.1l-9.8,9.8l-9.8-9.8l9.8-9.8L437.7,327.1z M417.5,306.8l9.7,9.7l-9.8,9.8
			l-9.7-9.7L417.5,306.8z M416.7,327.1l-9.8,9.8l-9.7-9.7l9.8-9.8L416.7,327.1z M396.5,306.8l9.8,9.8l-9.8,9.8l-9.8-9.8L396.5,306.8
			z M395.8,327.1l-9.7,9.7l-9.8-9.8l9.7-9.7L395.8,327.1z M375.3,306.6l10,10l-9.7,9.7l-10-10L375.3,306.6z M374.9,327.1l-9.8,9.8
			l-10-10l9.8-9.8L374.9,327.1z M354.4,306.6l9.8,9.8l-9.8,9.8l-9.8-9.8L354.4,306.6z M353.7,326.8l-10,10l-9.8-9.8l10-10
			L353.7,326.8z M333.5,306.6l9.7,9.7l-10,10l-9.7-9.7L333.5,306.6z M313,327.1l9.8-9.8l9.7,9.7l-9.8,9.8L313,327.1z M313,348
			l9.7-9.7l9.8,9.8l-9.7,9.7L313,348z M313,369l9.8-9.8l10,10L323,379L313,369z M313.2,390.2l9.8-9.8l9.8,9.8L323,400L313.2,390.2z
			 M333.4,410.4l-9.7-9.7l9.8-9.8l9.7,9.7L333.4,410.4z M334.2,390.2l9.8-9.8l9.7,9.7l-9.8,9.8L334.2,390.2z M354.4,410.4l-9.8-9.8
			l9.8-9.8l9.8,9.8L354.4,410.4z M355.1,390.1l9.7-9.7l9.8,9.8l-9.7,9.7L355.1,390.1z M375.4,410.4l-9.8-9.8l9.7-9.7l9.8,9.8
			L375.4,410.4z M376,390.2l9.8-9.8l9.8,9.8l-9.8,9.8L376,390.2z M396.3,410.4l-9.8-9.8l9.8-9.8l9.8,9.8L396.3,410.4z M397,390.2
			l10-10l9.8,9.8l-10,10L397,390.2z M417.2,410.4l-9.7-9.7l10-10l9.7,9.7L417.2,410.4z M418.2,390l9.8-9.8l9.7,9.7l-9.8,9.8
			L418.2,390z M438.4,410.2l-9.8-9.8l9.8-9.8l9.8,9.8L438.4,410.2z M439.1,389.9l9.7-9.7l9.8,9.8l-9.7,9.7L439.1,389.9z
			 M469.3,400.7l-9.7,9.7l-10-10l9.7-9.7L469.3,400.7z M469.1,379.5l-9.8,9.8l-9.8-9.8l9.8-9.8L469.1,379.5z M469.1,358.5l-9.8,9.8
			l-9.7-9.7l9.8-9.8L469.1,358.5z M469.1,337.6l-9.7,9.7l-9.8-9.8l9.7-9.7L469.1,337.6z M459.3,326.4l-9.8-9.8l9.8-9.8l9.8,9.8
			L459.3,326.4z"/>
	</g>
	<polygon id="Windows_1_" class="st4" points="589.9,62.3 123.6,62.3 123.6,388.5 129.9,388.5 129.9,68.6 589.9,68.6 589.9,125 
		596.1,125 596.1,62.3 	"/>
	<g id="Walls">
		<rect x="121.5" y="298.6" class="st5" width="25.1" height="29.3"/>
		<rect x="121.5" y="122.9" class="st5" width="25.1" height="29.3"/>
		<rect x="217.7" y="60.2" class="st5" width="29.3" height="25.1"/>
		<rect x="485.3" y="60.2" class="st5" width="29.3" height="20.9"/>
		<path class="st5" d="M577.3,122.9v171.5h-50.2v-25.1H523v29.3h4.2h36.3v31h2.3h1.9h9.7v77.7h-36v12.5h56.9v-12.5V122.9H577.3z
			 M567.6,325.4v-26.8h9.7v26.8H567.6z"/>
		<polygon class="st5" points="351.5,219.1 347.3,219.1 347.3,223.3 351.5,223.3 355.7,223.3 355.7,81.1 393.3,81.1 393.3,85.3 
			422.6,85.3 422.6,81.1 422.6,81.1 422.6,60.2 422.6,60.2 422.6,60.2 393.3,60.2 393.3,60.2 305.5,60.2 305.5,81.1 351.5,81.1 		
			"/>
		<polygon class="st5" points="305.5,231.6 305.5,223.3 313.9,223.3 313.9,219.1 142.4,219.1 142.4,210.7 121.5,210.7 121.5,240 
			142.4,240 142.4,223.3 301.3,223.3 301.3,231.6 		"/>
		<path class="st5" d="M472.8,340.4h-4.2v43.7h-18.8H448h-2.4v23.2h-56.5V298.6h79.5v8.4h4.2v-8.4v-4.2v-25.1h-4.2v25.1H305.5v-29.3
			h-4.2v71.1h4.2v-37.6H385v108.7h-79.5v-37.6h-4.2v37.6H146.6v-20.9h-25.1v20.9l0,0v12.5h378.2v-12.5h-27L472.8,340.4L472.8,340.4z
			 M449.8,407.3v-19h18.8v19H449.8z"/>
	</g>
	<path id="Doors_1_" class="st4" d="M541.5,419.8c0,5.4-1.3,10.5-3.3,15.5c-2.1,5-5,10-9.2,13.8c-3.8,3.8-8.4,7.1-13.4,9.2
		s-10.5,3.3-15.9,3.3v-41.8 M313.9,219.1c0-4.6,0.8-8.4,2.5-12.5c1.7-4.2,4.2-7.9,7.1-10.9c2.9-3.3,6.7-5.9,10.9-7.5
		c4.2-1.7,8.4-2.5,13-2.5v33.5 M301.3,265.1c-4.6,0-8.4-0.8-12.5-2.5c-4.2-1.7-7.9-4.2-10.9-7.1c-3.3-2.9-5.9-6.7-7.5-10.9
		c-1.7-4.2-2.5-8.4-2.5-13h33.5 M301.3,336.2c-4.6,0-8.4,0.8-12.5,2.5c-4.2,1.7-7.9,4.2-10.9,7.1c-3.3,2.9-5.9,6.7-7.5,10.9
		c-1.7,4.2-2.5,8.4-2.5,13h33.5 M468.6,340.4c-4.6,0-8.4-0.8-12.5-2.5c-4.2-1.7-7.9-4.2-10.9-7.1c-3.3-2.9-5.9-6.7-7.5-10.9
		c-1.7-4.2-2.5-8.4-2.5-13h33.5"/>
	<g id="Furniture_2_">
		<g>
			<rect x="389.6" y="325.9" class="st6" width="17.9" height="37.9"/>
			<path class="st3" d="M407,326.4v36.9h-16.9v-36.9H407 M408,325.4h-18.9v38.9H408V325.4L408,325.4z"/>
		</g>
		<g>
			<g>
				<rect x="209.1" y="129" class="st6" width="60" height="89.7"/>
				<path class="st3" d="M209.6,129.5h59v88.7h-59V129.5 M208.6,128.5v90.7h61v-90.7H208.6L208.6,128.5z"/>
			</g>
			<rect x="213.8" y="190.3" class="st7" width="23.8" height="22.4"/>
			<rect x="240.6" y="190.3" class="st7" width="23.8" height="22.4"/>
			<polygon class="st8" points="216.8,199.4 234,205.2 238.6,183.6 221.4,177.8 			"/>
			<polygon class="st8" points="239.8,183.6 244.4,205.2 261.6,199.4 257,177.8 			"/>
			<g>
				<polygon class="st6" points="209.1,195 209.1,128.1 269.1,128.1 269.1,199.7 245.2,201.6 				"/>
				<path class="st3" d="M209.6,128.6h59v70.1v0.5l-23.3,1.8l-35.6-6.5L209.6,128.6 M208.6,127.6v67.3v0.5l36.6,6.7l24.4-1.9v-1.4
					v-71.1L208.6,127.6L208.6,127.6z"/>
			</g>
			<polyline class="st9" points="268.8,197.9 245,197.9 209.3,194.1 			"/>
		</g>
		<g>
			<g>
				<rect x="182" y="324.5" class="st6" width="66" height="82.4"/>
				<path class="st3" d="M182.5,325h65v81.4h-65V325 M181.5,324v83.4h67V324H181.5L181.5,324z"/>
			</g>
			<rect x="187.2" y="380.9" class="st7" width="26.2" height="20.6"/>
			<rect x="216.6" y="380.9" class="st7" width="26.2" height="20.6"/>
			<polygon class="st8" points="190.4,389.3 209.3,394.6 214.4,374.7 195.5,369.3 			"/>
			<polygon class="st8" points="215.7,374.7 220.8,394.6 239.7,389.2 234.6,369.3 			"/>
			<g>
				<polygon class="st6" points="182,385.1 182,323.7 248,323.7 248,389.5 221.7,391.2 				"/>
				<path class="st3" d="M182.5,324.2h65v64.5v0.4l-25.8,1.7l-39.2-6V324.2 M181.5,323.2v61.9v0.4l40.2,6.1l26.8-1.8v-1.3V323
					L181.5,323.2L181.5,323.2z"/>
			</g>
			<polyline class="st9" points="247.6,387.8 221.4,387.8 182.2,384.4 			"/>
		</g>
		<g>
			<g>
				<rect x="306.1" y="299.2" class="st6" width="78.5" height="32.1"/>
				<path class="st3" d="M384.1,299.7v31.1h-77.5v-31.1H384.1 M385.1,298.7h-79.5v33.1h79.5V298.7L385.1,298.7z"/>
			</g>
			<g>
				<g>
					<path class="st10" d="M377.8,315.2c0-6.1-5.2-10.8-11.2-10.3c-6.6,0.6-15,1.1-21.2,1.1s-14.5-0.6-21.2-1.1
						c-6-0.5-11.2,4.2-11.2,10.3s5.2,10.8,11.2,10.3c6.6-0.6,15-1.1,21.2-1.1s14.5,0.6,21.2,1.1C372.5,326,377.8,321.2,377.8,315.2z
						"/>
					<ellipse class="st10" cx="367.2" cy="315.2" rx="1.3" ry="1.3"/>
				</g>
			</g>
		</g>
		<g>
			<g>
				<rect x="389.6" y="299.2" class="st6" width="17.9" height="26.7"/>
				<path class="st3" d="M407,299.7v25.7h-16.9v-25.7H407 M408,298.7h-18.9v27.7H408V298.7L408,298.7z"/>
			</g>
			<g>
				<path class="st6" d="M398.5,318.2c-3.1,0-5.7-2.5-5.7-5.7s2.5-5.7,5.7-5.7s5.7,2.5,5.7,5.7S401.7,318.2,398.5,318.2z"/>
				<path class="st3" d="M398.5,307.3c2.8,0,5.2,2.3,5.2,5.2c0,2.8-2.3,5.2-5.2,5.2s-5.2-2.3-5.2-5.2S395.7,307.3,398.5,307.3
					 M398.5,306.3c-3.4,0-6.2,2.8-6.2,6.2s2.8,6.2,6.2,6.2s6.2-2.8,6.2-6.2S401.9,306.3,398.5,306.3L398.5,306.3z"/>
			</g>
		</g>
		<g>
			<path class="st7" d="M471,118.8h55.7v40.5H471V118.8z"/>
			<path class="st7" d="M530.1,128.9h0.8c5.6,0,10.1,4.5,10.1,10.1s-4.5,10.1-10.1,10.1h-0.8V128.9z"/>
			<path class="st7" d="M526.7,130.6h4.2c4.7,0,8.4,3.8,8.4,8.4c0,4.7-3.8,8.4-8.4,8.4h-4.2V130.6z"/>
			<path class="st7" d="M467.6,128.9h-0.8c-5.6,0-10.1,4.5-10.1,10.1s4.5,10.1,10.1,10.1h0.8V128.9z"/>
			<path class="st7" d="M471,130.6h-4.2c-4.7,0-8.4,3.8-8.4,8.4c0,4.7,3.8,8.4,8.4,8.4h4.2V130.6z"/>
			<path class="st7" d="M509,115.4v-0.8c0-5.6-4.5-10.1-10.1-10.1s-10.1,4.5-10.1,10.1v0.8H509z"/>
			<path class="st7" d="M507.3,118.8v-4.2c0-4.7-3.8-8.4-8.4-8.4c-4.7,0-8.4,3.8-8.4,8.4v4.2H507.3z"/>
			<path class="st7" d="M509,162.7v0.8c0,5.6-4.5,10.1-10.1,10.1s-10.1-4.5-10.1-10.1v-0.8H509z"/>
			<path class="st7" d="M507.3,159.3v4.2c0,4.7-3.8,8.4-8.4,8.4c-4.7,0-8.4-3.8-8.4-8.4v-4.2H507.3z"/>
		</g>
		<g id="Sink_2_2_">
			<g id="Rectangle_16_x5F_11">
				<rect x="366.7" y="331.2" class="st6" width="17.9" height="42.2"/>
				<path class="st3" d="M384.1,331.7V373h-16.9v-41.2L384.1,331.7 M385.1,330.7h-18.9v43.2h18.9V330.7L385.1,330.7z"/>
			</g>
			<path id="Rectangle_19_x5F_5_2_" class="st7" d="M375.7,342.5L375.7,342.5c-3.2,0-5.8,2.6-5.8,5.8v8.3c0,3.2,2.6,5.8,5.8,5.8l0,0
				c3.2,0,5.8-2.6,5.8-5.8v-8.3C381.4,345,378.9,342.5,375.7,342.5z"/>
			<circle id="Ellipse_7_x5F_2_2_" class="st7" cx="378.4" cy="352.4" r="1.3"/>
		</g>
		<g id="Sink_2_3_">
			<g>
				<path id="Rectangle_19_x5F_5_3_" class="st7" d="M398.6,334.9L398.6,334.9c3.2,0,5.8,2.6,5.8,5.8v8.3c0,3.2-2.6,5.8-5.8,5.8l0,0
					c-3.2,0-5.8-2.6-5.8-5.8v-8.3C392.8,337.5,395.4,334.9,398.6,334.9z"/>
				<circle id="Ellipse_7_x5F_2_3_" class="st7" cx="395.8" cy="344.8" r="1.3"/>
			</g>
		</g>
		<g id="Toilet_4_">
			<g id="Rectangle_21_4_">
				<rect x="436.7" y="377.7" class="st6" width="17.8" height="5.9"/>
				<path class="st3" d="M454,378.2v4.9h-16.8v-4.9H454 M455,377.2h-18.8v6.9H455V377.2L455,377.2z"/>
			</g>
			<path id="Rectangle_19_x5F_2_4_" class="st7" d="M452.3,365.3c0.3-3.9-2.8-7.1-6.7-7.1l0,0c-3.9,0-6.9,3.3-6.7,7.1l0.8,12.4h11.7
				L452.3,365.3z"/>
			<path id="Rectangle_18_x5F_13_4_" class="st7" d="M450.7,365.3c0.3-3-2.1-5.6-5.1-5.6l0,0c-3,0-5.4,2.6-5.1,5.6l0.7,8.1h8.7
				L450.7,365.3z"/>
			<ellipse id="Ellipse_6_x5F_2_4_" class="st7" cx="445.6" cy="369.9" rx="1.3" ry="1.3"/>
		</g>
		<g id="Toilet_5_">
			<g id="Rectangle_21_6_">
				<rect x="327" y="391.9" class="st6" width="17.8" height="5.9"/>
				<path class="st3" d="M344.3,392.4v4.9h-16.8v-4.9H344.3 M345.3,391.4h-18.8v6.9h18.8V391.4L345.3,391.4z"/>
			</g>
			<path id="Rectangle_19_x5F_2_5_" class="st7" d="M342.6,379.6c0.3-3.9-2.8-7.1-6.7-7.1l0,0c-3.9,0-6.9,3.3-6.7,7.1L330,392h11.7
				L342.6,379.6z"/>
			<path id="Rectangle_18_x5F_13_5_" class="st7" d="M341,379.6c0.3-3-2.1-5.6-5.1-5.6l0,0c-3,0-5.4,2.6-5.1,5.6l0.7,8.1h8.7
				L341,379.6z"/>
			<ellipse id="Ellipse_6_x5F_2_5_" class="st7" cx="335.9" cy="384.1" rx="1.3" ry="1.3"/>
		</g>
		<g id="Shower_1_">
			<path id="Rectangle_22_1_" class="st7" d="M389.6,363.8v34.1h34.1v-23.5c0-5.9-4.7-10.6-10.6-10.6H389.6z"/>
			<path id="Rectangle_23_1_" class="st7" d="M391.3,365.6v30.6h30.6V374c0-4.7-3.8-8.5-8.5-8.5h-22.1V365.6z"/>
			<ellipse id="Ellipse_6_x5F_4_1_" class="st7" cx="398.3" cy="389.2" rx="1.3" ry="1.3"/>
		</g>
		<g id="Kitchen">
			<g id="Rectangle_27_1_">
				<g>
					<rect x="527.6" y="272" class="st6" width="24.9" height="21.9"/>
					<path class="st3" d="M552,272.5v20.9h-23.9v-20.9H552 M553,271.5h-25.9v22.9H553V271.5L553,271.5z"/>
				</g>
			</g>
			<g id="Rectangle_27_2_">
				<g>
					<rect x="552.5" y="123.4" class="st6" width="24.3" height="170.5"/>
					<path class="st3" d="M576.3,123.9v169.5H553V123.9H576.3 M577.3,122.9H552v171.5h25.3V122.9L577.3,122.9z"/>
				</g>
			</g>
			<g id="Rectangle_27_4_">
				<g>
					<rect x="552.5" y="152.3" class="st6" width="24.3" height="23.9"/>
					<path class="st3" d="M576.3,152.8v22.9H553v-22.9H576.3 M577.3,151.8H552v24.9h25.3V151.8L577.3,151.8z"/>
				</g>
			</g>
			<g id="Rectangle_27_5_">
				<g>
					<rect x="575.2" y="152.3" class="st6" width="1.6" height="23.9"/>
					<path class="st3" d="M576.3,152.8v22.9h-0.6v-22.9H576.3 M577.3,151.8h-2.6v24.9h2.6V151.8L577.3,151.8z"/>
				</g>
			</g>
			<g id="Rectangle_27_3_">
				<g>
					<rect x="527.6" y="269.8" class="st6" width="24.9" height="2.2"/>
					<path class="st3" d="M552,270.3v1.2h-23.9v-1.2H552 M553,269.3h-25.9v3.2H553V269.3L553,269.3z"/>
				</g>
			</g>
			<g id="Sink_3">
				<rect id="Rectangle_28_x5F_2" x="555.2" y="226.8" class="st7" width="19.2" height="30.4"/>
				<path id="Rectangle_29_x5F_2" class="st7" d="M564.7,245.1L564.7,245.1c-4,0-7.2-3.2-7.2-7.2v-1.6c0-4,3.2-7.2,7.2-7.2l0,0
					c4,0,7.2,3.2,7.2,7.2v1.6C571.9,241.9,568.7,245.1,564.7,245.1z"/>
				<ellipse id="Ellipse_7_x5F_3" class="st7" cx="567.9" cy="237.1" rx="1.3" ry="1.3"/>
				<path id="Vector_2" class="st9" d="M571.9,255.5v-8 M569.5,255.5v-8 M567.1,255.5v-8 M564.7,255.5v-8 M562.4,255.5v-8
					 M560,255.5v-8 M557.6,255.5v-8"/>
			</g>
			<g id="Stove">
				<g id="Ellipse_7_x5F_4">
					<circle class="st6" cx="568.7" cy="170.3" r="2.7"/>
					<path class="st3" d="M568.7,168.1c1.2,0,2.2,1,2.2,2.2s-1,2.2-2.2,2.2s-2.2-1-2.2-2.2S567.5,168.1,568.7,168.1 M568.7,167.1
						c-1.8,0-3.2,1.4-3.2,3.2s1.4,3.2,3.2,3.2s3.2-1.4,3.2-3.2S570.5,167.1,568.7,167.1L568.7,167.1z"/>
				</g>
				<g id="Ellipse_9">
					<circle class="st6" cx="559.2" cy="170.3" r="3.5"/>
					<path class="st3" d="M559.2,167.3c1.7,0,3,1.3,3,3s-1.3,3-3,3s-3-1.3-3-3S557.5,167.3,559.2,167.3 M559.2,166.3
						c-2.2,0-4,1.8-4,4s1.8,4,4,4s4-1.8,4-4C563.1,168.1,561.4,166.3,559.2,166.3L559.2,166.3z"/>
				</g>
				<g id="Ellipse_10">
					<circle class="st6" cx="568.7" cy="159.1" r="3.5"/>
					<path class="st3" d="M568.7,156.1c1.7,0,3,1.3,3,3s-1.3,3-3,3s-3-1.3-3-3C565.7,157.4,567.1,156.1,568.7,156.1 M568.7,155.1
						c-2.2,0-4,1.8-4,4s1.8,4,4,4s4-1.8,4-4C572.7,156.9,571,155.1,568.7,155.1L568.7,155.1z"/>
				</g>
				<g id="Ellipse_8">
					<path class="st6" d="M558.4,161.8c-1.5,0-2.7-1.2-2.7-2.7s1.2-2.7,2.7-2.7s2.7,1.2,2.7,2.7S559.8,161.8,558.4,161.8z"/>
					<path class="st3" d="M558.4,156.9c1.2,0,2.2,1,2.2,2.2s-1,2.2-2.2,2.2s-2.2-1-2.2-2.2S557.1,156.9,558.4,156.9 M558.4,155.9
						c-1.8,0-3.2,1.4-3.2,3.2s1.4,3.2,3.2,3.2s3.2-1.4,3.2-3.2C561.6,157.3,560.1,155.9,558.4,155.9L558.4,155.9z"/>
				</g>
			</g>
			<path id="Vector_3" class="st9" d="M540.1,285.6v-6.4 M537.3,284l5.6-3.2 M542.9,284l-5.6-3.2"/>
		</g>
		<g>
			<path class="st7" d="M410.7,126.4c1.2,0,2.1-0.9,2.1-2.1v-21.1h-48.2v23.2C364.6,126.4,410.7,126.4,410.7,126.4z"/>
			<path class="st7" d="M385.8,163.8c1.2,0,2.1-1,2.1-2.2v-33c0-1.2-0.9-2.2-2.1-2.2h-21.2v37.4L385.8,163.8L385.8,163.8z"/>
			<path class="st7" d="M385.8,199.8c1.2,0,2.1-0.9,2.1-2.1v-31.8c0-1.2-0.9-2.1-2.1-2.1h-21.2v36L385.8,199.8L385.8,199.8z"/>
			<path class="st7" d="M389.6,199.8v7.8h-33.3v-113h64.8v33.5h-8.3v-25h-48.3v96.7H389.6z"/>
		</g>
		<g>
			<path class="st7" d="M178.6,116.1h-20.2l-2.7-18.4h25.7L178.6,116.1z"/>
			<g>
				<rect x="130.9" y="69.6" class="st6" width="86.3" height="30.2"/>
				<path class="st3" d="M216.8,70.1v29.2h-85.3V70.1H216.8 M217.8,69.1h-87.3v31.2h87.3V69.1L217.8,69.1z"/>
			</g>
			<path class="st9" d="M175.3,91h-15.6 M176.6,94.6h-18.4v-5.5h18.4V94.6z"/>
			<path class="st7" d="M184.2,94.9L184.2,94.9c-0.8,0-1.4-0.6-1.4-1.4v-1.8c0-0.8,0.6-1.4,1.4-1.4l0,0c0.8,0,1.4,0.6,1.4,1.4v1.8
				C185.6,94.3,185,94.9,184.2,94.9z"/>
			<path class="st7" d="M172,80.2c0,2.5-2.1,4.6-4.6,4.6s-4.6-2.1-4.6-4.6v-4.6h9.2L172,80.2z"/>
			
				<rect x="166.5" y="52.7" transform="matrix(1.695898e-03 -1 1 1.695898e-03 90.5923 243.8208)" class="st11" width="1.8" height="47.7"/>
			<g>
				<rect x="158.6" y="99.9" class="st6" width="19.8" height="16.7"/>
				<path class="st3" d="M178,100.4v15.7h-18.8v-15.7H178 M179,99.4h-20.8v17.7H179V99.4L179,99.4z"/>
			</g>
			<g>
				<rect x="158.5" y="116.6" class="st6" width="19.9" height="1.6"/>
				<path class="st3" d="M178,117.1v0.6h-19v-0.6H178 M179,116.1h-21v2.6h21V116.1L179,116.1z"/>
			</g>
		</g>
		<g>
			<path class="st7" d="M190.5,270.3h-20.2l-2.7-18.4h25.7L190.5,270.3z"/>
			<g>
				<rect x="142.9" y="223.8" class="st6" width="86.3" height="30.2"/>
				<path class="st3" d="M228.7,224.3v29.2h-85.3v-29.2H228.7 M229.7,223.3h-87.3v31.2h87.3V223.3L229.7,223.3z"/>
			</g>
			<path class="st9" d="M187.2,245.1h-15.6 M188.6,248.8h-18.4v-5.5h18.4V248.8z"/>
			<path class="st7" d="M196.1,249.1L196.1,249.1c-0.8,0-1.4-0.6-1.4-1.4v-1.8c0-0.8,0.6-1.4,1.4-1.4l0,0c0.8,0,1.4,0.6,1.4,1.4v1.8
				C197.5,248.5,196.9,249.1,196.1,249.1z"/>
			<path class="st7" d="M184,234.4c0,2.5-2.1,4.6-4.6,4.6s-4.6-2.1-4.6-4.6v-4.6h9.2L184,234.4z"/>
			
				<rect x="178.6" y="207" transform="matrix(1.695898e-03 -1 1 1.695898e-03 -51.6887 409.9232)" class="st11" width="1.8" height="47.7"/>
			<g>
				<rect x="170.6" y="254.1" class="st6" width="19.8" height="16.7"/>
				<path class="st3" d="M189.9,254.6v15.7h-18.8v-15.7L189.9,254.6 M190.9,253.6h-20.8v17.7h20.8V253.6L190.9,253.6z"/>
			</g>
			<g>
				<rect x="170.5" y="270.8" class="st6" width="19.9" height="1.6"/>
				<path class="st3" d="M189.9,271.3v0.6H171v-0.6H189.9 M190.9,270.3H170v2.6h20.9V270.3L190.9,270.3z"/>
			</g>
		</g>
		<g>
			<g>
				<rect x="330.1" y="81.6" class="st6" width="13.6" height="85.5"/>
				<path class="st3" d="M343.1,82.1v84.5h-12.6V82.1H343.1 M344.1,81.1h-14.6v86.5h14.6V81.1L344.1,81.1z"/>
			</g>
			<g>
				<rect x="332.2" y="81.6" class="st6" width="19" height="85.5"/>
				<path class="st3" d="M332.7,82.1h18v84.5h-18V82.1 M331.7,81.1v86.5h20V81.1H331.7L331.7,81.1z"/>
			</g>
			<path class="st7" d="M351,167l-18.7-85.5"/>
		</g>
		<g>
			<g>
				<rect x="279.9" y="373.6" class="st6" width="13.6" height="33.4"/>
				<path class="st3" d="M292.9,374.1v32.4h-12.6v-32.4H292.9 M293.9,373.1h-14.6v34.4h14.6V373.1L293.9,373.1z"/>
			</g>
			<g>
				<rect x="282" y="373.6" class="st6" width="19" height="33.4"/>
				<path class="st3" d="M300.4,374.1v32.4h-18v-32.4H300.4 M301.4,373.1h-20v34.4h20V373.1L301.4,373.1z"/>
			</g>
			<path class="st7" d="M300.8,406.6l-18.7-32.9"/>
		</g>
		<g>
			<g>
				<rect x="279.9" y="269.9" class="st6" width="13.6" height="64.5"/>
				<path class="st3" d="M292.9,270.4v63.5h-12.6v-63.5H292.9 M293.9,269.4h-14.6v65.5h14.6V269.4L293.9,269.4z"/>
			</g>
			<g>
				<rect x="282" y="269.9" class="st6" width="19" height="64.5"/>
				<path class="st3" d="M282.5,270.4h18v63.5h-18V270.4 M281.5,269.4v65.5h20v-65.5H281.5L281.5,269.4z"/>
			</g>
			<path class="st7" d="M300.8,333.3l-18.7-62.6"/>
		</g>
		<g>
			<g>
				<rect x="556" y="336" class="st6" width="13.6" height="70.9"/>
				<path class="st3" d="M569,336.5v69.9h-12.6v-69.9H569 M570,335.5h-14.6v71.9H570V335.5L570,335.5z"/>
			</g>
			<g>
				<rect x="558.1" y="336" class="st6" width="19" height="70.9"/>
				<path class="st3" d="M558.6,336.5h18v69.9h-18V336.5 M557.6,335.5v71.9h20v-71.9H557.6L557.6,335.5z"/>
			</g>
			<path class="st7" d="M576.9,406.9l-18.7-71.1"/>
		</g>
		<g>
			<g>
				<rect x="541.2" y="301" class="st6" width="21.7" height="13.6"/>
				<path class="st3" d="M541.7,301.5h20.7V314h-20.7V301.5 M540.7,300.5V315h22.7v-14.6L540.7,300.5L540.7,300.5z"/>
			</g>
			<g>
				<rect x="541.2" y="299.1" class="st6" width="21.7" height="13.3"/>
				<path class="st3" d="M541.7,299.6h20.7v12.3h-20.7V299.6 M540.7,298.6v14.3h22.7v-14.3H540.7L540.7,298.6z"/>
			</g>
			<path class="st7" d="M563.2,299.1l-22.4,13.4"/>
		</g>
		<g>
			<g>
				<rect x="306.1" y="269.9" class="st6" width="162.2" height="13.5"/>
				<path class="st3" d="M306.6,270.4h161.2V283H306.6V270.4 M305.6,269.4V284h163.2v-14.6H305.6L305.6,269.4z"/>
			</g>
			<g>
				<rect x="306.1" y="272" class="st6" width="162.2" height="22"/>
				<path class="st3" d="M306.6,272.5h161.2v21H306.6V272.5 M305.6,271.5v23h163.2v-23H305.6L305.6,271.5z"/>
			</g>
			<path class="st7" d="M306,293.7l162.2-21.5"/>
		</g>
		<g>
			<rect x="306.1" y="397.9" class="st6" width="78.5" height="9"/>
			<path class="st3" d="M384.1,398.4v8h-77.5v-8H384.1 M385.1,397.4h-79.5v10h79.5V397.4L385.1,397.4z"/>
		</g>
		<g>
			<polygon class="st6" points="389.8,406.9 389.8,397.9 426.5,397.9 426.5,383.6 445.1,383.6 445.1,406.9 			"/>
			<path class="st3" d="M444.6,384.1v13.3v9H426h-35.9v-8H426h1v-1v-13.3H444.6 M445.6,383.1H426v14.3h-36.9v9.9l36.9,0.1l19.6-0.1
				v-9.9V383.1L445.6,383.1z"/>
		</g>
	</g>
	<g id="street_anchors">
		<rect id="street_anchor_01_1_" x="355" y="20.2" class="st12" width="10" height="10"/>
		<rect id="street_anchor_02_1_" x="81.5" y="235" class="st12" width="10" height="10"/>
		<rect id="street_anchor_03" x="628.5" y="235" class="st12" width="10" height="10"/>
	</g>
</g>
<g id="комнаты">
	<g>
		<g>
			<path class="st5" d="M420.8,225.3c0-1.5,0.9-2.2,2-2.6c0.3-0.1,0.8-0.3,0.8-0.9c0-0.5-0.4-0.6-0.8-0.6c-0.7,0-1.1,0.4-1.6,0.9
				l-0.6-1c0.6-0.6,1.2-1.2,2.1-1.2c0.9,0,1.9,0.5,1.9,1.8c0,1.4-1,1.8-1.8,2.1c-0.7,0.3-1.1,0.6-1.1,1.1v0.1h2.8v1.2h-3.9V225.3z"
				/>
			<path class="st5" d="M425.6,220.2h4.2v1.2l-2.4,4.9h-1.4l2.5-4.8h-2.9V220.2z"/>
			<path class="st5" d="M431.5,224.6c0.4,0,0.8,0.4,0.8,0.9c0,0.5-0.3,0.9-0.8,0.9c-0.4,0-0.7-0.4-0.7-0.9
				C430.7,225,431,224.6,431.5,224.6z"/>
			<path class="st5" d="M433,225.5l0.5-1c0.3,0.3,1,0.7,1.9,0.7c0.6,0,1.2-0.3,1.2-1c0-0.6-0.5-0.9-0.9-0.9c-0.6,0-1.1,0.3-1.5,0.6
				l-0.6-0.6v-3.2h3.7v1.2h-2.7v1.4c0.4-0.3,0.7-0.6,1.3-0.6c0.9,0,1.9,0.6,1.9,2c0,1.6-1.2,2.3-2.3,2.3
				C434.2,226.5,433.4,225.9,433,225.5z"/>
		</g>
	</g>
	<g>
		<g>
			<path class="st5" d="M504.8,356.2l0.5-1c0.3,0.3,1,0.7,1.9,0.7c0.6,0,1.2-0.3,1.2-1c0-0.6-0.5-0.9-0.9-0.9
				c-0.6,0-1.1,0.3-1.5,0.6l-0.6-0.6v-3.2h3.7v1.2h-2.7v1.4c0.4-0.3,0.7-0.6,1.3-0.6c0.9,0,1.9,0.6,1.9,2c0,1.6-1.2,2.3-2.3,2.3
				C505.9,357.2,505.2,356.6,504.8,356.2z"/>
			<path class="st5" d="M511,355.3c0.4,0,0.8,0.4,0.8,0.9c0,0.5-0.3,0.9-0.8,0.9c-0.4,0-0.7-0.4-0.7-0.9
				C510.3,355.7,510.6,355.3,511,355.3z"/>
			<path class="st5" d="M516.6,352.2c-0.4-0.2-0.8-0.4-1.3-0.4c-0.8,0-1.6,0.7-1.6,2c0.4-0.5,1-0.9,1.7-0.9c1.2,0,1.9,1,1.9,1.9
				c0,1.3-0.9,2.2-2.1,2.2c-1.3,0-2.5-1.1-2.5-3.1c0-2.1,1.3-3.4,2.6-3.4c0.8,0,1.4,0.4,1.8,0.5L516.6,352.2z M513.8,354.7
				c0.2,0.8,0.8,1.3,1.4,1.3c0.6,0,1-0.5,1-1c0-0.4-0.2-0.8-0.9-0.8C514.8,354.1,514.2,354.4,513.8,354.7z"/>
		</g>
	</g>
	<g>
		<g>
			<path class="st5" d="M428,346.4h-0.8v1.3h-1.1v-1.3h-3.2v-0.9l3.3-3.9h1v3.7h0.8V346.4z M424.5,345.3h1.6v-2H426
				C425.5,343.9,425,344.6,424.5,345.3L424.5,345.3z"/>
			<path class="st5" d="M429.6,346c0.4,0,0.8,0.4,0.8,0.9c0,0.5-0.3,0.9-0.8,0.9c-0.4,0-0.7-0.4-0.7-0.9
				C428.9,346.4,429.2,346,429.6,346z"/>
			<path class="st5" d="M431.3,346.7c0-1.5,0.9-2.2,2-2.6c0.3-0.1,0.8-0.3,0.8-0.9c0-0.5-0.4-0.6-0.8-0.6c-0.7,0-1.1,0.4-1.6,0.9
				l-0.6-1c0.6-0.6,1.2-1.2,2.1-1.2c0.9,0,1.9,0.5,1.9,1.8c0,1.4-1,1.8-1.8,2.1c-0.7,0.3-1.1,0.6-1.1,1.1v0.1h2.8v1.2h-3.9V346.7z"
				/>
		</g>
	</g>
	<g>
		<g>
			<path class="st5" d="M332.4,357.5h-0.8v1.3h-1.1v-1.3h-3.2v-0.9l3.3-3.9h1v3.7h0.8V357.5z M328.8,356.4h1.6v-2h-0.1
				C329.9,355,329.4,355.7,328.8,356.4L328.8,356.4z"/>
			<path class="st5" d="M334,357.1c0.4,0,0.8,0.4,0.8,0.9c0,0.5-0.3,0.9-0.8,0.9c-0.4,0-0.7-0.4-0.7-0.9
				C333.2,357.5,333.6,357.1,334,357.1z"/>
			<path class="st5" d="M335.4,353.5l1.4-0.8h1v6.1h-1.1V354l-1,0.6L335.4,353.5z"/>
		</g>
	</g>
	<g>
		<g>
			<path class="st5" d="M163.6,174.7l1.4-0.8h1v6.1h-1.1v-4.7l-1,0.6L163.6,174.7z"/>
			<path class="st5" d="M171.1,175.3c-0.4-0.2-0.8-0.4-1.3-0.4c-0.8,0-1.6,0.7-1.6,2c0.4-0.4,1-0.9,1.7-0.9c1.2,0,1.9,1,1.9,1.9
				c0,1.3-0.9,2.2-2.1,2.2c-1.3,0-2.5-1.1-2.5-3.1c0-2.1,1.3-3.4,2.6-3.4c0.8,0,1.4,0.4,1.8,0.5L171.1,175.3z M168.3,177.7
				c0.2,0.8,0.8,1.3,1.4,1.3c0.6,0,1-0.5,1-1c0-0.4-0.2-0.8-0.9-0.8C169.2,177.1,168.7,177.4,168.3,177.7z"/>
			<path class="st5" d="M173.4,178.4c0.4,0,0.8,0.4,0.8,0.9c0,0.5-0.3,0.9-0.8,0.9c-0.4,0-0.7-0.4-0.7-0.9
				C172.7,178.8,173,178.4,173.4,178.4z"/>
			<path class="st5" d="M174.9,179.3l0.5-1c0.3,0.3,1,0.7,1.9,0.7c0.6,0,1.2-0.3,1.2-1c0-0.6-0.5-0.9-0.9-0.9
				c-0.6,0-1.1,0.3-1.5,0.6l-0.6-0.6v-3.2h3.7v1.2h-2.7v1.4c0.4-0.3,0.7-0.6,1.3-0.6c0.9,0,1.9,0.6,1.9,2c0,1.6-1.2,2.3-2.3,2.3
				C176.1,180.2,175.4,179.6,174.9,179.3z"/>
		</g>
	</g>
	<g>
		<g>
			<path class="st5" d="M203.4,290.2l1.4-0.8h1v6.1h-1.1v-4.7l-1,0.6L203.4,290.2z"/>
			<path class="st5" d="M206.9,294.8l0.5-1c0.3,0.3,1,0.7,1.9,0.7c0.6,0,1.2-0.3,1.2-1c0-0.6-0.5-0.9-0.9-0.9
				c-0.6,0-1.1,0.3-1.5,0.6l-0.6-0.6v-3.2h3.7v1.2h-2.7v1.4c0.4-0.3,0.7-0.6,1.3-0.6c0.9,0,1.9,0.6,1.9,2c0,1.6-1.2,2.3-2.3,2.3
				C208.1,295.7,207.3,295.1,206.9,294.8z"/>
			<path class="st5" d="M213.2,293.9c0.4,0,0.8,0.4,0.8,0.9c0,0.5-0.3,0.9-0.8,0.9c-0.4,0-0.7-0.4-0.7-0.9
				C212.4,294.3,212.8,293.9,213.2,293.9z"/>
			<path class="st5" d="M219.8,294.2H219v1.3h-1.1v-1.3h-3.2v-0.9l3.3-3.9h1v3.7h0.8V294.2z M216.2,293.1h1.6v-2h-0.1
				C217.3,291.8,216.7,292.5,216.2,293.1L216.2,293.1z"/>
		</g>
	</g>
</g>
</svg>
