<?xml version="1.0" encoding="utf-8"?>
<!-- Generator: Adobe Illustrator 26.0.3, SVG Export Plug-In . SVG Version: 6.00 Build 0)  -->
<svg version="1.1" xmlns="http://www.w3.org/2000/svg" xmlns:xlink="http://www.w3.org/1999/xlink" x="0px" y="0px"
	 viewBox="0 0 720 480" style="enable-background:new 0 0 720 480;" xml:space="preserve">
<style type="text/css">
	.st0{fill:#DBD4CA;}
	.st1{clip-path:url(#SVGID_00000132781352744151202570000004884948100623754407_);}
	.st2{fill:none;stroke:#C49F8A;stroke-miterlimit:10;}
	.st3{opacity:0.3;clip-path:url(#SVGID_00000098935888919932129470000008136512623973603749_);}
	.st4{opacity:0.7;fill:#C49F8A;enable-background:new    ;}
	.st5{fill:none;stroke:#565440;}
	.st6{fill:none;stroke:#565440;stroke-width:1;stroke-miterlimit:4.0002;}
	.st7{fill:#565440;}
	.st8{fill:#E9E4DC;}
	.st9{fill:#C49F8A;}
	.st10{fill:#E9E4DC;stroke:#C49F8A;}
	.st11{fill:none;stroke:#C49F8A;}
	.st12{fill:#E9E4DC;stroke:#C49F8A;stroke-width:1;stroke-miterlimit:3.9997;}
	.st13{opacity:0;}
	.st14{fill:none;}
</style>
<g id="_x31__x5F_2">
	<polygon id="Floor" class="st0" points="536.1,70.2 536.1,103.4 550.6,110.4 529.7,193.9 529.2,260.6 549.7,270.4 528,354.2 
		528,419.7 159,419.7 159,70.2 	"/>
	<g id="Wet_Floor_1_">
		<g>
			<defs>
				<rect id="SVGID_1_" x="165.5" y="240.5" width="109" height="166.9"/>
			</defs>
			<clipPath id="SVGID_00000014633643440677184630000012447785995533033143_">
				<use xlink:href="#SVGID_1_"  style="overflow:visible;"/>
			</clipPath>
			<g style="clip-path:url(#SVGID_00000014633643440677184630000012447785995533033143_);">
				<g>
					<line class="st2" x1="-10.4" y1="334.6" x2="323.1" y2="1.1"/>
					<line class="st2" x1="-20.8" y1="324.2" x2="312.7" y2="-9.3"/>
					<line class="st2" x1="0.1" y1="345" x2="333.6" y2="11.5"/>
					<line class="st2" x1="10.5" y1="355.4" x2="344" y2="21.9"/>
					<line class="st2" x1="20.9" y1="365.8" x2="354.4" y2="32.4"/>
					<line class="st2" x1="31.3" y1="376.3" x2="364.8" y2="42.8"/>
					<line class="st2" x1="41.8" y1="386.7" x2="375.2" y2="53.2"/>
					<line class="st2" x1="52.2" y1="397.1" x2="385.7" y2="63.6"/>
					<line class="st2" x1="62.6" y1="407.5" x2="396.1" y2="74"/>
					<line class="st2" x1="73" y1="417.9" x2="406.5" y2="84.5"/>
					<line class="st2" x1="62.6" y1="407.5" x2="396.1" y2="74"/>
					<line class="st2" x1="83.4" y1="428.4" x2="416.9" y2="94.9"/>
					<line class="st2" x1="93.9" y1="438.8" x2="427.3" y2="105.3"/>
					<line class="st2" x1="104.3" y1="449.2" x2="437.8" y2="115.7"/>
					<line class="st2" x1="114.7" y1="459.6" x2="448.2" y2="126.2"/>
					<line class="st2" x1="125.1" y1="470.1" x2="458.6" y2="136.6"/>
					<line class="st2" x1="135.5" y1="480.5" x2="469" y2="147"/>
					<line class="st2" x1="146" y1="490.9" x2="479.4" y2="157.4"/>
					<line class="st2" x1="156.4" y1="501.3" x2="489.9" y2="167.8"/>
					<line class="st2" x1="146" y1="490.9" x2="479.4" y2="157.4"/>
					<line class="st2" x1="166.8" y1="511.7" x2="500.3" y2="178.3"/>
					<line class="st2" x1="177.2" y1="522.2" x2="510.7" y2="188.7"/>
					<line class="st2" x1="187.7" y1="532.6" x2="521.1" y2="199.1"/>
					<line class="st2" x1="198.1" y1="543" x2="531.6" y2="209.5"/>
					<line class="st2" x1="208.5" y1="553.4" x2="542" y2="219.9"/>
					<line class="st2" x1="218.9" y1="563.8" x2="552.4" y2="230.4"/>
					<line class="st2" x1="229.3" y1="574.3" x2="562.8" y2="240.8"/>
					<line class="st2" x1="239.8" y1="584.7" x2="573.2" y2="251.2"/>
					<line class="st2" x1="229.3" y1="574.3" x2="562.8" y2="240.8"/>
					<line class="st2" x1="250.2" y1="595.1" x2="583.7" y2="261.6"/>
					<line class="st2" x1="260.6" y1="605.5" x2="594.1" y2="272"/>
					<line class="st2" x1="271" y1="616" x2="604.5" y2="282.5"/>
					<line class="st2" x1="281.4" y1="626.4" x2="614.9" y2="292.9"/>
					<line class="st2" x1="291.9" y1="636.8" x2="625.3" y2="303.3"/>
					<line class="st2" x1="302.3" y1="647.2" x2="635.8" y2="313.7"/>
					<line class="st2" x1="312.7" y1="657.6" x2="646.2" y2="324.2"/>
				</g>
				<g>
					<line class="st2" x1="323.1" y1="647.2" x2="-10.4" y2="313.7"/>
					<line class="st2" x1="312.7" y1="657.6" x2="-20.8" y2="324.2"/>
					<line class="st2" x1="333.6" y1="636.8" x2="0.1" y2="303.3"/>
					<line class="st2" x1="344" y1="626.4" x2="10.5" y2="292.9"/>
					<line class="st2" x1="354.4" y1="616" x2="20.9" y2="282.5"/>
					<line class="st2" x1="364.8" y1="605.5" x2="31.3" y2="272"/>
					<line class="st2" x1="375.2" y1="595.1" x2="41.8" y2="261.6"/>
					<line class="st2" x1="385.7" y1="584.7" x2="52.2" y2="251.2"/>
					<line class="st2" x1="396.1" y1="574.3" x2="62.6" y2="240.8"/>
					<line class="st2" x1="406.5" y1="563.8" x2="73" y2="230.4"/>
					<line class="st2" x1="396.1" y1="574.3" x2="62.6" y2="240.8"/>
					<line class="st2" x1="416.9" y1="553.4" x2="83.4" y2="219.9"/>
					<line class="st2" x1="427.3" y1="543" x2="93.9" y2="209.5"/>
					<line class="st2" x1="437.8" y1="532.6" x2="104.3" y2="199.1"/>
					<line class="st2" x1="448.2" y1="522.2" x2="114.7" y2="188.7"/>
					<line class="st2" x1="458.6" y1="511.7" x2="125.1" y2="178.3"/>
					<line class="st2" x1="469" y1="501.3" x2="135.5" y2="167.8"/>
					<line class="st2" x1="479.4" y1="490.9" x2="146" y2="157.4"/>
					<line class="st2" x1="489.9" y1="480.5" x2="156.4" y2="147"/>
					<line class="st2" x1="479.4" y1="490.9" x2="146" y2="157.4"/>
					<line class="st2" x1="500.3" y1="470.1" x2="166.8" y2="136.6"/>
					<line class="st2" x1="510.7" y1="459.6" x2="177.2" y2="126.2"/>
					<line class="st2" x1="521.1" y1="449.2" x2="187.7" y2="115.7"/>
					<line class="st2" x1="531.6" y1="438.8" x2="198.1" y2="105.3"/>
					<line class="st2" x1="542" y1="428.4" x2="208.5" y2="94.9"/>
					<line class="st2" x1="552.4" y1="417.9" x2="218.9" y2="84.5"/>
					<line class="st2" x1="562.8" y1="407.5" x2="229.3" y2="74"/>
					<line class="st2" x1="573.2" y1="397.1" x2="239.8" y2="63.6"/>
					<line class="st2" x1="562.8" y1="407.5" x2="229.3" y2="74"/>
					<line class="st2" x1="583.7" y1="386.7" x2="250.2" y2="53.2"/>
					<line class="st2" x1="594.1" y1="376.3" x2="260.6" y2="42.8"/>
					<line class="st2" x1="604.5" y1="365.8" x2="271" y2="32.4"/>
					<line class="st2" x1="614.9" y1="355.4" x2="281.4" y2="21.9"/>
					<line class="st2" x1="625.3" y1="345" x2="291.9" y2="11.5"/>
					<line class="st2" x1="635.8" y1="334.6" x2="302.3" y2="1.1"/>
					<line class="st2" x1="646.2" y1="324.2" x2="312.7" y2="-9.3"/>
				</g>
			</g>
		</g>
		<g>
			<defs>
				<rect id="SVGID_00000031901735393855456650000004754206414800024764_" x="165.5" y="240.5" width="109" height="166.9"/>
			</defs>
			<clipPath id="SVGID_00000113351231892293000880000009575862767286796969_">
				<use xlink:href="#SVGID_00000031901735393855456650000004754206414800024764_"  style="overflow:visible;"/>
			</clipPath>
			<g style="opacity:0.3;clip-path:url(#SVGID_00000113351231892293000880000009575862767286796969_);">
				<rect x="146.5" y="233.2" class="st4" width="180.1" height="176.1"/>
			</g>
		</g>
	</g>
	<path id="Doors" class="st5" d="M226.4,245.4c0,5.4,1,9.9,3,14.8c2,4.9,4.9,9.4,8.4,12.8c3.5,3.9,7.9,6.9,12.8,8.9
		c4.9,2,9.9,3,15.3,3v-39.5 M354.6,245.4c0,5.4-1,9.9-3,14.8c-2,4.9-4.9,9.4-8.4,12.8c-3.5,3.9-7.9,6.9-12.8,8.9
		c-4.9,2-9.9,3-15.3,3v-39.5 M158.9,227.7c-6.4,0-12.3-1.5-18.2-3.9c-5.9-2.5-11.8-5.9-16.3-10.8c-4.4-4.4-8.4-9.9-10.8-15.8
		c-2.5-5.9-3.9-12.3-3.9-18.7h49.3"/>
	<g id="Windows">
		
			<rect x="498.9" y="306.6" transform="matrix(0.2515 -0.9679 0.9679 0.2515 106.3104 758.118)" class="st6" width="88.8" height="7.4"/>
		<polygon class="st5" points="536.9,195.7 529.7,193.9 550.9,111.9 558.1,113.7 		"/>
	</g>
	<g id="Walls">
		<path class="st7" d="M173.6,74.8h82.9v17.3c0,0,0.1,0,0.2,0l15.6,0v79.8h4.9V74.8h231.7v36.4h26.8l22,4.9l0,0l0,0l3.5-14.3
			l-22.7-5.1l0-4.7h0V91l0-18.8h0V60H158.9v118.4h14.8V74.8z M272.3,87.2h-10.9V74.8h10.9V87.2z"/>
		<path class="st7" d="M538.4,362.9v-12H509l0,54.1l-231.7,0.1V245.4h38v-4.9h-49.3v4.9h6.4v159.8h-81.2v-17.5h-17.4l-0.1-142.3
			h52.8v-4.9h-52.8v-12.8h-14.8V420h379.6v0L538.4,362.9L538.4,362.9z M173.8,392.6h12.5v12.6h-12.5L173.8,392.6z"/>
		<polygon class="st7" points="538.3,210.7 542.3,193.6 518.2,188.2 513.8,206.9 513.8,240.5 354.6,240.5 354.6,245.4 513.8,245.4 
			513.8,272.1 538.3,272.1 538.3,272.1 556.1,276.1 559.5,261.8 538.3,257 		"/>
	</g>
	<g id="Furniture_2_">
		<g>
			<path class="st8" d="M421.3,111.4c-5.8,0-10.5-4.7-10.5-10.5s4.7-10.5,10.5-10.5s10.5,4.7,10.5,10.5S427,111.4,421.3,111.4z"/>
			<path class="st9" d="M421.3,90.9c2.7,0,5.2,1,7,2.9s2.9,4.4,2.9,7c0,5.5-4.5,10-10,10s-10-4.5-10-10
				C411.3,95.4,415.8,90.9,421.3,90.9 M421.3,89.9c-6.1,0-11,4.9-11,11s4.9,11,11,11s11-4.9,11-11C432.2,94.8,427.3,89.9,421.3,89.9
				L421.3,89.9z"/>
		</g>
		<g>
			<circle class="st8" cx="421.8" cy="128.8" r="10.5"/>
			<path class="st9" d="M421.8,118.9c2.7,0,5.2,1,7,2.9s2.9,4.4,2.9,7c0,5.5-4.5,10-10,10s-10-4.5-10-10
				C411.8,123.3,416.3,118.9,421.8,118.9 M421.8,117.9c-6.1,0-11,4.9-11,11c0,6.1,4.9,11,11,11s11-4.9,11-11
				C432.7,122.8,427.8,117.9,421.8,117.9L421.8,117.9z"/>
		</g>
		<g>
			<path class="st8" d="M383.5,164c-5.8,0-10.5-4.7-10.5-10.5s4.7-10.5,10.5-10.5s10.5,4.7,10.5,10.5S389.2,164,383.5,164z"/>
			<path class="st9" d="M383.5,143.6c2.7,0,5.2,1,7,2.9s2.9,4.4,2.9,7c0,5.5-4.5,10-10,10s-10-4.5-10-10
				C373.5,148.1,378,143.6,383.5,143.6 M383.5,142.6c-6.1,0-11,4.9-11,11s4.9,11,11,11s11-4.9,11-11
				C394.4,147.5,389.5,142.6,383.5,142.6L383.5,142.6z"/>
		</g>
		<g>
			<g>
				<rect x="359.5" y="75.1" class="st8" width="44.1" height="62.6"/>
				<path class="st9" d="M403.2,75.5v61.9h-43.1V75.5H403.2 M404.2,74.8h-45.1v63.3h45.1V74.8L404.2,74.8z"/>
			</g>
			<g>
				<rect x="386.4" y="75.1" class="st8" width="3.7" height="62.6"/>
				<path class="st9" d="M389.6,75.5v61.9h-2.7V75.5H389.6 M390.6,74.8h-4.7v63.3h4.7V74.8L390.6,74.8z"/>
			</g>
		</g>
		<g id="Kitchen_1_">
			<g id="Rectangle_24_1_">
				<rect x="277.8" y="75.3" class="st8" width="81.8" height="31.3"/>
				<path class="st9" d="M359.1,75.8v30.3h-80.8V75.8H359.1 M360.1,74.8h-82.8v32.3h82.8L360.1,74.8L360.1,74.8z"/>
			</g>
			<g id="Rectangle_24_2_">
				<rect x="277.7" y="75.3" class="st8" width="30.3" height="55"/>
				<path class="st9" d="M307.5,75.8v54h-29.3v-54H307.5 M308.5,74.8h-31.3v56h31.3V74.8L308.5,74.8z"/>
			</g>
			<g id="Rectangle_27">
				<rect x="277.7" y="127.1" class="st8" width="30.3" height="30.3"/>
				<path class="st9" d="M307.5,127.6v29.3h-29.3v-29.3L307.5,127.6 M308.5,126.6h-31.3v31.3h31.3V126.6L308.5,126.6z"/>
			</g>
			<g id="Rectangle_27_2_">
				<rect x="306.4" y="127.1" class="st8" width="1.6" height="30.3"/>
				<path class="st9" d="M307.5,127.6v29.3h-0.6v-29.3L307.5,127.6 M308.5,126.6h-2.6v31.3h2.6V126.6L308.5,126.6z"/>
			</g>
			<g id="Sink_3_1_">
				<rect id="Rectangle_28_x5F_2_1_" x="281.4" y="84.1" class="st10" width="22" height="34.9"/>
				<path id="Rectangle_29_x5F_2_1_" class="st10" d="M292.4,97.9L292.4,97.9c4.6,0,8.3,3.7,8.3,8.3v1.8c0,4.6-3.7,8.3-8.3,8.3l0,0
					c-4.6,0-8.3-3.7-8.3-8.3v-1.8C284.2,101.6,287.8,97.9,292.4,97.9z"/>
				<ellipse id="Ellipse_7_x5F_3_1_" class="st10" cx="288.7" cy="107.1" rx="1.4" ry="1.4"/>
				<path id="Vector_2_1_" class="st11" d="M284.2,86v9.2 M286.9,86v9.2 M289.7,86v9.2 M292.4,86v9.2 M295.2,86v9.2 M297.9,86v9.2
					 M300.7,86v9.2"/>
			</g>
			<g id="Stove_1_">
				<g id="Rectangle_25_1_">
					<rect x="329.1" y="75.3" class="st8" width="30.5" height="31.3"/>
					<path class="st9" d="M359.1,75.8v30.3h-29.5V75.8H359.1 M360.1,74.8h-31.5v32.3h31.5V74.8L360.1,74.8z"/>
				</g>
				<g id="Rectangle_28_x5F_3_1_">
					<rect x="329.1" y="75.3" class="st8" width="30.5" height="1.8"/>
					<path class="st9" d="M359.1,75.8v0.8h-29.5v-0.8H359.1 M360.1,74.8h-31.5v2.8h31.5V74.8L360.1,74.8z"/>
				</g>
				<g id="Ellipse_7_x5F_4_1_">
					<circle class="st8" cx="351.5" cy="85.6" r="3.5"/>
					<path class="st9" d="M351.5,82.6c1.7,0,3,1.4,3,3s-1.4,3-3,3s-3-1.4-3-3S349.9,82.6,351.5,82.6 M351.5,81.6c-2.2,0-4,1.8-4,4
						s1.8,4,4,4s4-1.8,4-4C355.6,83.4,353.8,81.6,351.5,81.6L351.5,81.6z"/>
				</g>
				<g id="Ellipse_9_1_">
					<path class="st8" d="M351.5,102.3c-2.5,0-4.6-2-4.6-4.6s2-4.6,4.6-4.6c2.5,0,4.6,2,4.6,4.6S354,102.3,351.5,102.3z"/>
					<path class="st9" d="M351.5,93.7c2.2,0,4.1,1.8,4.1,4.1s-1.8,4.1-4.1,4.1c-2.3,0-4.1-1.8-4.1-4.1S349.3,93.7,351.5,93.7
						 M351.5,92.7c-2.8,0-5.1,2.3-5.1,5.1s2.3,5.1,5.1,5.1c2.8,0,5.1-2.3,5.1-5.1S354.3,92.7,351.5,92.7L351.5,92.7z"/>
				</g>
				<g id="Ellipse_10_1_">
					<circle class="st8" cx="337.4" cy="85.6" r="4.6"/>
					<path class="st9" d="M337.4,81.6c2.2,0,4.1,1.8,4.1,4.1c0,2.2-1.8,4.1-4.1,4.1c-2.3,0-4.1-1.8-4.1-4.1S335.2,81.6,337.4,81.6
						 M337.4,80.6c-2.8,0-5.1,2.3-5.1,5.1c0,2.8,2.3,5.1,5.1,5.1c2.8,0,5.1-2.3,5.1-5.1C342.4,82.8,340.2,80.6,337.4,80.6
						L337.4,80.6z"/>
				</g>
				<g id="Ellipse_8_1_">
					<circle class="st8" cx="337.4" cy="98.8" r="3.5"/>
					<path class="st9" d="M337.4,95.7c1.7,0,3,1.4,3,3s-1.4,3-3,3s-3-1.4-3-3S335.7,95.7,337.4,95.7 M337.4,94.7c-2.2,0-4,1.8-4,4
						s1.8,4,4,4s4-1.8,4-4S339.6,94.7,337.4,94.7L337.4,94.7z"/>
				</g>
			</g>
			<path id="Vector_3_1_" class="st11" d="M296,142.3h-7.8 M294,145.7l-3.9-6.8 M294,138.8l-3.9,6.8"/>
		</g>
		<g>
			<g>
				<rect x="427.4" y="308.7" class="st8" width="81.1" height="95.9"/>
				<path class="st9" d="M427.9,309.2H508v94.9h-80.1V309.2 M426.9,308.2v96.9H509v-96.9H426.9L426.9,308.2z"/>
			</g>
			<rect x="434" y="374.3" class="st10" width="32" height="24"/>
			<rect x="470" y="374.3" class="st10" width="32" height="24"/>
			
				<rect x="440.5" y="363.5" transform="matrix(0.2588 -0.9659 0.9659 0.2588 -27.3451 715.4102)" class="st12" width="24" height="24"/>
			
				<rect x="471.5" y="363.5" transform="matrix(0.9659 -0.2588 0.2588 0.9659 -80.712 137.938)" class="st12" width="24" height="24"/>
			<g>
				<polygon class="st8" points="427.5,379.3 427.5,307.8 508.5,307.8 508.5,384.3 476.2,386.4 				"/>
				<path class="st9" d="M428,308.3h80v75v0.6l-31.8,2l-48.2-7V308.3 M427,307.3v72v0.5l49.2,7.1l32.8-2v-1.5v-76L427,307.3
					L427,307.3z"/>
			</g>
			<polyline class="st11" points="507.9,382.3 475.9,382.3 427.9,378.4 			"/>
		</g>
		<g>
			<g>
				<rect x="296.3" y="245.9" class="st8" width="13.6" height="158.8"/>
				<path class="st9" d="M296.8,246.4h12.6v157.8h-12.6V246.4 M295.8,245.4v159.8h14.6V245.4H295.8L295.8,245.4z"/>
			</g>
			<g>
				<rect x="277.7" y="245.9" class="st8" width="29.5" height="158.8"/>
				<path class="st9" d="M278.2,246.4h28.5v157.8h-28.5V246.4 M277.2,245.4v159.8h30.5V245.4L277.2,245.4L277.2,245.4z"/>
			</g>
			<path class="st10" d="M277.8,245.8l29,158.8"/>
		</g>
		<g>
			<g>
				<rect x="174.3" y="85.7" class="st8" width="81.7" height="13.6"/>
				<path class="st9" d="M174.8,86.2h80.7v12.6h-80.7V86.2 M173.8,85.2v14.6h82.7V85.2H173.8L173.8,85.2z"/>
			</g>
			<g>
				<rect x="174.3" y="75.3" class="st8" width="81.7" height="21.4"/>
				<path class="st9" d="M174.8,75.8h80.7v20.4h-80.7V75.8 M173.8,74.8v22.4h82.7V74.8H173.8L173.8,74.8z"/>
			</g>
			<g>
				<rect x="174.3" y="75.3" class="st8" width="81.7" height="21.4"/>
				<path class="st9" d="M174.8,75.8h80.7v20.4h-80.7V75.8 M173.8,74.8v22.4h82.7V74.8H173.8L173.8,74.8z"/>
			</g>
			<path class="st10" d="M255.9,75.5l-81.8,20.9"/>
		</g>
		<g>
			<g>
				<rect x="176" y="150.2" class="st8" width="13.6" height="27.8"/>
				<path class="st9" d="M189,150.7v26.8h-12.6v-26.8H189 M190,149.7h-14.6v28.8H190V149.7L190,149.7z"/>
			</g>
			<g>
				<rect x="178.5" y="150.2" class="st8" width="8.4" height="27.8"/>
				<path class="st9" d="M186.5,150.7v26.8h-7.4v-26.8H186.5 M187.5,149.7h-9.4v28.8h9.4V149.7L187.5,149.7z"/>
			</g>
			<g>
				<rect x="174.3" y="150.2" class="st8" width="12.7" height="27.8"/>
				<path class="st9" d="M186.5,150.7v26.8h-11.7v-26.8H186.5 M187.5,149.7h-13.7v28.8h13.7V149.7L187.5,149.7z"/>
			</g>
			<path class="st10" d="M174.4,150.3l12.5,27.8"/>
		</g>
		<g>
			<g>
				<rect x="174.2" y="245.9" class="st8" width="20.6" height="30.6"/>
				<path class="st9" d="M194.3,246.4V276h-19.6v-29.6H194.3 M195.3,245.4h-21.6V277h21.6V245.4L195.3,245.4z"/>
			</g>
			<g>
				<circle class="st8" cx="184.5" cy="261.1" r="6.5"/>
				<path class="st9" d="M184.5,255.1c3.3,0,6,2.7,6,6s-2.7,6-6,6s-6-2.7-6-6C178.4,257.8,181.1,255.1,184.5,255.1 M184.5,254.1
					c-3.9,0-7,3.1-7,7s3.1,7,7,7s7-3.1,7-7C191.5,257.3,188.3,254.1,184.5,254.1L184.5,254.1z"/>
			</g>
		</g>
		<g>
			<g>
				<rect x="440.1" y="85.5" class="st8" width="64.2" height="2.8"/>
				<path class="st9" d="M440.6,86h63.2v1.8h-63.2V86 M439.6,85v3.8h65.2V85H439.6L439.6,85z"/>
			</g>
			<g>
				<rect x="440.1" y="75.3" class="st8" width="64.2" height="10.5"/>
				<path class="st9" d="M503.8,75.8v9.5h-63.2v-9.5H503.8 M504.8,74.8h-65.2v11.5h65.2L504.8,74.8L504.8,74.8z"/>
			</g>
			<rect x="449.8" y="77.3" class="st10" width="46.1" height="1.7"/>
			<path class="st10" d="M463.1,77.3h19.5l-1.8-1.8h-16L463.1,77.3z"/>
		</g>
		<g id="Sink_2">
			<g id="Rectangle_16_x5F_11_1_">
				<rect x="174.2" y="321.2" class="st8" width="22.9" height="36.9"/>
				<path class="st9" d="M196.6,321.7v35.9h-21.9v-35.9H196.6 M197.6,320.7h-23.9v37.9h23.9V320.7L197.6,320.7z"/>
			</g>
			<path id="Rectangle_19_x5F_5" class="st10" d="M185.6,352.2L185.6,352.2c4,0,7.3-3.3,7.3-7.3v-10.5c0-4-3.3-7.3-7.3-7.3l0,0
				c-4,0-7.3,3.3-7.3,7.3v10.5C178.3,348.9,181.6,352.2,185.6,352.2z"/>
			<circle id="Ellipse_7_x5F_2_1_" class="st10" cx="181.4" cy="339.6" r="1.4"/>
		</g>
		<g id="Toilet_2_">
			<g id="Rectangle_21_2_">
				<rect x="184.2" y="292.6" class="st8" width="7.3" height="21.5"/>
				<path class="st9" d="M191,293.1v20.5h-6.3v-20.5H191 M192,292.1h-8.3v22.5h8.3V292.1L192,292.1z"/>
			</g>
			<path id="Rectangle_19_x5F_2_2_" class="st10" d="M206.4,311.4c4.6,0.3,8.6-3.4,8.6-8l0,0c0-4.6-3.9-8.3-8.6-8l-14.8,1v14
				L206.4,311.4z"/>
			<path id="Rectangle_18_x5F_13_2_" class="st10" d="M206.4,309.7c3.8,0.3,7-2.6,7-6.4l0,0c0-3.8-3.2-6.7-7-6.4l-10.2,0.9v10.9
				L206.4,309.7z"/>
			<ellipse id="Ellipse_6_x5F_2_2_" class="st10" cx="200.9" cy="303.4" rx="1.4" ry="1.4"/>
		</g>
		<g id="Shower">
			<path id="Rectangle_22" class="st10" d="M272,366.7V405h-38.3v-26.4c0-6.6,5.3-11.9,11.9-11.9H272z"/>
			<path id="Rectangle_23" class="st10" d="M270,368.7v34.4h-34.4v-24.8c0-5.3,4.3-9.5,9.5-9.5H270V368.7z"/>
			<ellipse id="Ellipse_6_x5F_4" class="st10" cx="262.2" cy="395.2" rx="1.4" ry="1.4"/>
		</g>
		<g id="TV_2_">
			<g id="Rectangle_16_2_">
				<rect x="429" y="250.1" class="st8" width="76.5" height="10.8"/>
				<path class="st9" d="M505,250.6v9.8h-75.5v-9.8H505 M506,249.6h-77.5v11.8H506V249.6L506,249.6z"/>
			</g>
			<g id="Rectangle_15_2_">
				<rect x="429" y="245.9" class="st8" width="76.5" height="12.9"/>
				<path class="st9" d="M505,246.4v11.9h-75.5v-11.9H505 M506,245.4h-77.5v13.9H506V245.4L506,245.4z"/>
			</g>
			<rect id="Rectangle_17_2_" x="441.5" y="247.9" class="st10" width="51.5" height="2"/>
			<path id="Rectangle_18_x5F_2_2_" class="st10" d="M478.1,247.9h-21.8l2-2h17.8L478.1,247.9z"/>
		</g>
		<g>
			<path class="st10" d="M458.5,205.6c0-1.5-1.2-2.7-2.7-2.7h-39.9c-1.5,0-2.7,1.2-2.7,2.7v26.2h45.2v-26.2H458.5z"/>
			<path class="st10" d="M501.6,205.6c0-1.5-1.2-2.7-2.7-2.7H461c-1.5,0-2.7,1.2-2.7,2.7v26.2h43.2v-26.2H501.6z"/>
			<polygon class="st10" points="501.6,200.7 501.6,231.7 457.5,231.7 413.3,231.7 413.3,200.7 405,200.7 405,240 510,240 
				510,200.7 			"/>
		</g>
		<g>
			<rect x="174.3" y="279.9" class="st8" width="9.9" height="41.3"/>
			<path class="st9" d="M183.6,280.4v40.3h-8.9v-40.3H183.6 M184.6,279.4h-10.9v42.3h10.9V279.4L184.6,279.4z"/>
		</g>
		<g>
			<rect x="174.2" y="358.1" class="st8" width="22.9" height="29"/>
			<path class="st9" d="M196.6,358.6v28h-21.9v-28H196.6 M197.6,357.6h-23.9v30h23.9V357.6L197.6,357.6z"/>
		</g>
	</g>
	<g id="street_anchors" class="st13">
		<rect id="street_anchor_01" x="591.2" y="235" class="st14" width="10" height="10"/>
	</g>
</g>
<g id="комнаты">
	<g>
		<g>
			<path class="st7" d="M195.9,204.7c-0.4-0.2-0.8-0.4-1.3-0.4c-0.8,0-1.6,0.7-1.6,2c0.4-0.4,1-0.9,1.7-0.9c1.2,0,1.9,1,1.9,1.9
				c0,1.3-0.9,2.2-2.1,2.2c-1.3,0-2.5-1.1-2.5-3.1c0-2.1,1.3-3.4,2.6-3.4c0.8,0,1.4,0.4,1.8,0.5L195.9,204.7z M193.1,207.2
				c0.2,0.8,0.8,1.3,1.4,1.3c0.6,0,1-0.5,1-1c0-0.4-0.2-0.8-0.9-0.8C194.1,206.6,193.5,206.9,193.1,207.2z"/>
			<path class="st7" d="M198.3,207.8c0.4,0,0.8,0.4,0.8,0.9c0,0.5-0.3,0.9-0.8,0.9c-0.4,0-0.7-0.4-0.7-0.9
				C197.5,208.2,197.9,207.8,198.3,207.8z"/>
			<path class="st7" d="M199.7,204.2l1.4-0.8h1v6.1H201v-4.7l-1,0.6L199.7,204.2z"/>
		</g>
	</g>
	<g>
		<g>
			<path class="st7" d="M417.2,179.4l1.4-0.8h1v6.1h-1.1V180l-1,0.6L417.2,179.4z"/>
			<path class="st7" d="M420.6,184l0.5-1c0.3,0.3,1,0.7,1.9,0.7c0.6,0,1.2-0.3,1.2-1c0-0.6-0.5-0.9-0.9-0.9c-0.6,0-1.1,0.3-1.5,0.6
				l-0.6-0.6v-3.2h3.7v1.2h-2.7v1.4c0.4-0.3,0.7-0.6,1.3-0.6c0.9,0,1.9,0.6,1.9,2c0,1.6-1.2,2.3-2.3,2.3
				C421.8,184.9,421,184.3,420.6,184z"/>
			<path class="st7" d="M426.9,183.1c0.4,0,0.8,0.4,0.8,0.9c0,0.5-0.3,0.9-0.8,0.9c-0.4,0-0.7-0.4-0.7-0.9
				C426.2,183.5,426.5,183.1,426.9,183.1z"/>
			<path class="st7" d="M428.3,179.4l1.4-0.8h1v6.1h-1.1V180l-1,0.6L428.3,179.4z"/>
		</g>
	</g>
	<g>
		<g>
			<path class="st7" d="M366.7,333.7l1.4-0.8h1v6.1h-1.1v-4.7l-1,0.6L366.7,333.7z"/>
			<path class="st7" d="M375.2,337.7h-0.8v1.3h-1.1v-1.3h-3.2v-0.9l3.3-3.9h1v3.7h0.8V337.7z M371.6,336.6h1.6v-2h-0.1
				C372.7,335.3,372.1,336,371.6,336.6L371.6,336.6z"/>
			<path class="st7" d="M376.8,337.4c0.4,0,0.8,0.4,0.8,0.9c0,0.5-0.3,0.9-0.8,0.9c-0.4,0-0.7-0.4-0.7-0.9
				C376,337.8,376.4,337.4,376.8,337.4z"/>
			<path class="st7" d="M378.4,332.9h4.2v1.2l-2.4,4.9h-1.4l2.5-4.8h-2.9V332.9z"/>
		</g>
	</g>
	<g>
		<g>
			<path class="st7" d="M226.6,332.6l0.5-1c0.3,0.3,1,0.7,1.9,0.7c0.6,0,1.2-0.3,1.2-1c0-0.6-0.5-0.9-0.9-0.9
				c-0.6,0-1.1,0.3-1.5,0.6l-0.6-0.6v-3.2h3.7v1.2h-2.7v1.4c0.4-0.3,0.7-0.6,1.3-0.6c0.9,0,1.9,0.6,1.9,2c0,1.6-1.2,2.3-2.3,2.3
				C227.8,333.5,227.1,332.9,226.6,332.6z"/>
			<path class="st7" d="M232.9,331.7c0.4,0,0.8,0.4,0.8,0.9c0,0.5-0.3,0.9-0.8,0.9c-0.4,0-0.7-0.4-0.7-0.9
				C232.2,332.1,232.5,331.7,232.9,331.7z"/>
			<path class="st7" d="M234.5,332.6l0.5-1c0.3,0.3,1,0.7,1.9,0.7c0.6,0,1.2-0.3,1.2-1c0-0.6-0.5-0.9-0.9-0.9
				c-0.6,0-1.1,0.3-1.5,0.6l-0.6-0.6v-3.2h3.7v1.2h-2.7v1.4c0.4-0.3,0.7-0.6,1.3-0.6c0.9,0,1.9,0.6,1.9,2c0,1.6-1.2,2.3-2.3,2.3
				C235.6,333.5,234.9,332.9,234.5,332.6z"/>
		</g>
	</g>
</g>
</svg>
