<?xml version="1.0" encoding="utf-8"?>
<!-- Generator: Adobe Illustrator 26.0.3, SVG Export Plug-In . SVG Version: 6.00 Build 0)  -->
<svg version="1.1" xmlns="http://www.w3.org/2000/svg" xmlns:xlink="http://www.w3.org/1999/xlink" x="0px" y="0px"
	 viewBox="0 0 720 480" style="enable-background:new 0 0 720 480;" xml:space="preserve">
<style type="text/css">
	.st0{fill:#DBD4CA;}
	.st1{clip-path:url(#SVGID_00000015343995888893365050000013163670125972379836_);}
	.st2{fill:none;stroke:#C49F8A;stroke-miterlimit:10;}
	.st3{opacity:0.3;clip-path:url(#SVGID_00000129886928069985336240000005620404506288190899_);}
	.st4{opacity:0.7;fill:#C49F8A;enable-background:new    ;}
	.st5{clip-path:url(#SVGID_00000140013193613137176440000005697418773696660666_);}
	.st6{opacity:0.3;clip-path:url(#SVGID_00000032612169716313719400000009532054464776696450_);}
	.st7{fill:none;stroke:#565440;}
	.st8{fill:#565440;}
	.st9{fill:#E9E4DC;}
	.st10{fill:#C49F8A;}
	.st11{fill:#E9E4DC;stroke:#C49F8A;}
	.st12{fill:#E9E4DC;stroke:#C49F8A;stroke-miterlimit:3.9998;}
	.st13{fill:none;stroke:#C49F8A;}
	.st14{fill:#E9E4DC;stroke:#C49F8A;stroke-linejoin:round;}
	.st15{opacity:0;}
	.st16{fill:none;}
</style>
<g id="_x31__x5F_2">
	<polygon id="Floor" class="st0" points="272.8,65.6 319.4,77.9 399.3,77.9 402.4,67.3 456.6,79.7 456.6,303.6 410.6,303.6 
		410.6,343.1 394.2,343.1 394.2,418.2 272.7,418.2 	"/>
	<g id="Wet_Floor">
		<g id="Wet_Floor_1_">
			<g>
				<defs>
					<rect id="SVGID_1_" x="403" y="178.4" width="51.8" height="68.7"/>
				</defs>
				<clipPath id="SVGID_00000065754086815620023560000013994795150119357108_">
					<use xlink:href="#SVGID_1_"  style="overflow:visible;"/>
				</clipPath>
				<g style="clip-path:url(#SVGID_00000065754086815620023560000013994795150119357108_);">
					<g>
						<line class="st2" x1="75.6" y1="207.4" x2="409.1" y2="-126.1"/>
						<line class="st2" x1="65.2" y1="197" x2="398.6" y2="-136.5"/>
						<line class="st2" x1="86" y1="217.8" x2="419.5" y2="-115.6"/>
						<line class="st2" x1="96.4" y1="228.3" x2="429.9" y2="-105.2"/>
						<line class="st2" x1="106.8" y1="238.7" x2="440.3" y2="-94.8"/>
						<line class="st2" x1="117.3" y1="249.1" x2="450.8" y2="-84.4"/>
						<line class="st2" x1="127.7" y1="259.5" x2="461.2" y2="-74"/>
						<line class="st2" x1="138.1" y1="269.9" x2="471.6" y2="-63.5"/>
						<line class="st2" x1="148.5" y1="280.4" x2="482" y2="-53.1"/>
						<line class="st2" x1="159" y1="290.8" x2="492.4" y2="-42.7"/>
						<line class="st2" x1="148.5" y1="280.4" x2="482" y2="-53.1"/>
						<line class="st2" x1="169.4" y1="301.2" x2="502.9" y2="-32.3"/>
						<line class="st2" x1="179.8" y1="311.6" x2="513.3" y2="-21.8"/>
						<line class="st2" x1="190.2" y1="322.1" x2="523.7" y2="-11.4"/>
						<line class="st2" x1="200.6" y1="332.5" x2="534.1" y2="-1"/>
						<line class="st2" x1="211.1" y1="342.9" x2="544.5" y2="9.4"/>
						<line class="st2" x1="221.5" y1="353.3" x2="555" y2="19.8"/>
						<line class="st2" x1="231.9" y1="363.7" x2="565.4" y2="30.3"/>
						<line class="st2" x1="242.3" y1="374.2" x2="575.8" y2="40.7"/>
						<line class="st2" x1="231.9" y1="363.7" x2="565.4" y2="30.3"/>
						<line class="st2" x1="252.7" y1="384.6" x2="586.2" y2="51.1"/>
						<line class="st2" x1="263.2" y1="395" x2="596.6" y2="61.5"/>
						<line class="st2" x1="273.6" y1="405.4" x2="607.1" y2="71.9"/>
						<line class="st2" x1="284" y1="415.8" x2="617.5" y2="82.4"/>
						<line class="st2" x1="294.4" y1="426.3" x2="627.9" y2="92.8"/>
						<line class="st2" x1="304.9" y1="436.7" x2="638.3" y2="103.2"/>
						<line class="st2" x1="315.3" y1="447.1" x2="648.8" y2="113.6"/>
						<line class="st2" x1="325.7" y1="457.5" x2="659.2" y2="124.1"/>
						<line class="st2" x1="315.3" y1="447.1" x2="648.8" y2="113.6"/>
						<line class="st2" x1="336.1" y1="468" x2="669.6" y2="134.5"/>
						<line class="st2" x1="346.5" y1="478.4" x2="680" y2="144.9"/>
						<line class="st2" x1="357" y1="488.8" x2="690.4" y2="155.3"/>
						<line class="st2" x1="367.4" y1="499.2" x2="700.9" y2="165.7"/>
						<line class="st2" x1="377.8" y1="509.6" x2="711.3" y2="176.2"/>
						<line class="st2" x1="388.2" y1="520.1" x2="721.7" y2="186.6"/>
						<line class="st2" x1="398.6" y1="530.5" x2="732.1" y2="197"/>
					</g>
					<g>
						<line class="st2" x1="409.1" y1="520.1" x2="75.6" y2="186.6"/>
						<line class="st2" x1="398.6" y1="530.5" x2="65.2" y2="197"/>
						<line class="st2" x1="419.5" y1="509.6" x2="86" y2="176.2"/>
						<line class="st2" x1="429.9" y1="499.2" x2="96.4" y2="165.7"/>
						<line class="st2" x1="440.3" y1="488.8" x2="106.8" y2="155.3"/>
						<line class="st2" x1="450.8" y1="478.4" x2="117.3" y2="144.9"/>
						<line class="st2" x1="461.2" y1="468" x2="127.7" y2="134.5"/>
						<line class="st2" x1="471.6" y1="457.5" x2="138.1" y2="124.1"/>
						<line class="st2" x1="482" y1="447.1" x2="148.5" y2="113.6"/>
						<line class="st2" x1="492.4" y1="436.7" x2="159" y2="103.2"/>
						<line class="st2" x1="482" y1="447.1" x2="148.5" y2="113.6"/>
						<line class="st2" x1="502.9" y1="426.3" x2="169.4" y2="92.8"/>
						<line class="st2" x1="513.3" y1="415.8" x2="179.8" y2="82.4"/>
						<line class="st2" x1="523.7" y1="405.4" x2="190.2" y2="71.9"/>
						<line class="st2" x1="534.1" y1="395" x2="200.6" y2="61.5"/>
						<line class="st2" x1="544.5" y1="384.6" x2="211.1" y2="51.1"/>
						<line class="st2" x1="555" y1="374.2" x2="221.5" y2="40.7"/>
						<line class="st2" x1="565.4" y1="363.7" x2="231.9" y2="30.3"/>
						<line class="st2" x1="575.8" y1="353.3" x2="242.3" y2="19.8"/>
						<line class="st2" x1="565.4" y1="363.7" x2="231.9" y2="30.3"/>
						<line class="st2" x1="586.2" y1="342.9" x2="252.7" y2="9.4"/>
						<line class="st2" x1="596.6" y1="332.5" x2="263.2" y2="-1"/>
						<line class="st2" x1="607.1" y1="322.1" x2="273.6" y2="-11.4"/>
						<line class="st2" x1="617.5" y1="311.6" x2="284" y2="-21.8"/>
						<line class="st2" x1="627.9" y1="301.2" x2="294.4" y2="-32.3"/>
						<line class="st2" x1="638.3" y1="290.8" x2="304.9" y2="-42.7"/>
						<line class="st2" x1="648.8" y1="280.4" x2="315.3" y2="-53.1"/>
						<line class="st2" x1="659.2" y1="269.9" x2="325.7" y2="-63.5"/>
						<line class="st2" x1="648.8" y1="280.4" x2="315.3" y2="-53.1"/>
						<line class="st2" x1="669.6" y1="259.5" x2="336.1" y2="-74"/>
						<line class="st2" x1="680" y1="249.1" x2="346.5" y2="-84.4"/>
						<line class="st2" x1="690.4" y1="238.7" x2="357" y2="-94.8"/>
						<line class="st2" x1="700.9" y1="228.3" x2="367.4" y2="-105.2"/>
						<line class="st2" x1="711.3" y1="217.8" x2="377.8" y2="-115.6"/>
						<line class="st2" x1="721.7" y1="207.4" x2="388.2" y2="-126.1"/>
						<line class="st2" x1="732.1" y1="197" x2="398.6" y2="-136.5"/>
					</g>
				</g>
			</g>
			<g>
				<defs>
					<rect id="SVGID_00000144314945364378484340000009329525687778356608_" x="403" y="178.4" width="51.8" height="68.7"/>
				</defs>
				<clipPath id="SVGID_00000116220152298215709860000009625944839295217320_">
					<use xlink:href="#SVGID_00000144314945364378484340000009329525687778356608_"  style="overflow:visible;"/>
				</clipPath>
				<g style="opacity:0.3;clip-path:url(#SVGID_00000116220152298215709860000009625944839295217320_);">
					<rect x="237.6" y="25.5" class="st4" width="322.2" height="322.2"/>
				</g>
			</g>
		</g>
		<g id="Wet_Floor_2_">
			<g>
				<defs>
					<rect id="SVGID_00000016076378640108974370000012981130804096810632_" x="280.3" y="177.2" width="53.5" height="60.2"/>
				</defs>
				<clipPath id="SVGID_00000061444868069754490430000006178613650920784559_">
					<use xlink:href="#SVGID_00000016076378640108974370000012981130804096810632_"  style="overflow:visible;"/>
				</clipPath>
				<g style="clip-path:url(#SVGID_00000061444868069754490430000006178613650920784559_);">
					<g>
						<line class="st2" x1="-45.4" y1="206.2" x2="288.1" y2="-127.3"/>
						<line class="st2" x1="-55.8" y1="195.8" x2="277.7" y2="-137.7"/>
						<line class="st2" x1="-35" y1="216.6" x2="298.5" y2="-116.9"/>
						<line class="st2" x1="-24.5" y1="227" x2="308.9" y2="-106.5"/>
						<line class="st2" x1="-14.1" y1="237.4" x2="319.4" y2="-96"/>
						<line class="st2" x1="-3.7" y1="247.9" x2="329.8" y2="-85.6"/>
						<line class="st2" x1="6.7" y1="258.3" x2="340.2" y2="-75.2"/>
						<line class="st2" x1="17.1" y1="268.7" x2="350.6" y2="-64.8"/>
						<line class="st2" x1="27.6" y1="279.1" x2="361.1" y2="-54.3"/>
						<line class="st2" x1="38" y1="289.6" x2="371.5" y2="-43.9"/>
						<line class="st2" x1="27.6" y1="279.1" x2="361.1" y2="-54.3"/>
						<line class="st2" x1="48.4" y1="300" x2="381.9" y2="-33.5"/>
						<line class="st2" x1="58.8" y1="310.4" x2="392.3" y2="-23.1"/>
						<line class="st2" x1="69.3" y1="320.8" x2="402.7" y2="-12.7"/>
						<line class="st2" x1="79.7" y1="331.2" x2="413.2" y2="-2.2"/>
						<line class="st2" x1="90.1" y1="341.7" x2="423.6" y2="8.2"/>
						<line class="st2" x1="100.5" y1="352.1" x2="434" y2="18.6"/>
						<line class="st2" x1="110.9" y1="362.5" x2="444.4" y2="29"/>
						<line class="st2" x1="121.4" y1="372.9" x2="454.8" y2="39.4"/>
						<line class="st2" x1="110.9" y1="362.5" x2="444.4" y2="29"/>
						<line class="st2" x1="131.8" y1="383.3" x2="465.3" y2="49.9"/>
						<line class="st2" x1="142.2" y1="393.8" x2="475.7" y2="60.3"/>
						<line class="st2" x1="152.6" y1="404.2" x2="486.1" y2="70.7"/>
						<line class="st2" x1="163" y1="414.6" x2="496.5" y2="81.1"/>
						<line class="st2" x1="173.5" y1="425" x2="507" y2="91.6"/>
						<line class="st2" x1="183.9" y1="435.5" x2="517.4" y2="102"/>
						<line class="st2" x1="194.3" y1="445.9" x2="527.8" y2="112.4"/>
						<line class="st2" x1="204.7" y1="456.3" x2="538.2" y2="122.8"/>
						<line class="st2" x1="194.3" y1="445.9" x2="527.8" y2="112.4"/>
						<line class="st2" x1="215.2" y1="466.7" x2="548.6" y2="133.2"/>
						<line class="st2" x1="225.6" y1="477.1" x2="559.1" y2="143.7"/>
						<line class="st2" x1="236" y1="487.6" x2="569.5" y2="154.1"/>
						<line class="st2" x1="246.4" y1="498" x2="579.9" y2="164.5"/>
						<line class="st2" x1="256.8" y1="508.4" x2="590.3" y2="174.9"/>
						<line class="st2" x1="267.3" y1="518.8" x2="600.7" y2="185.3"/>
						<line class="st2" x1="277.7" y1="529.2" x2="611.2" y2="195.8"/>
					</g>
					<g>
						<line class="st2" x1="288.1" y1="518.8" x2="-45.4" y2="185.3"/>
						<line class="st2" x1="277.7" y1="529.2" x2="-55.8" y2="195.8"/>
						<line class="st2" x1="298.5" y1="508.4" x2="-35" y2="174.9"/>
						<line class="st2" x1="308.9" y1="498" x2="-24.5" y2="164.5"/>
						<line class="st2" x1="319.4" y1="487.6" x2="-14.1" y2="154.1"/>
						<line class="st2" x1="329.8" y1="477.1" x2="-3.7" y2="143.7"/>
						<line class="st2" x1="340.2" y1="466.7" x2="6.7" y2="133.2"/>
						<line class="st2" x1="350.6" y1="456.3" x2="17.1" y2="122.8"/>
						<line class="st2" x1="361.1" y1="445.9" x2="27.6" y2="112.4"/>
						<line class="st2" x1="371.5" y1="435.5" x2="38" y2="102"/>
						<line class="st2" x1="361.1" y1="445.9" x2="27.6" y2="112.4"/>
						<line class="st2" x1="381.9" y1="425" x2="48.4" y2="91.6"/>
						<line class="st2" x1="392.3" y1="414.6" x2="58.8" y2="81.1"/>
						<line class="st2" x1="402.7" y1="404.2" x2="69.3" y2="70.7"/>
						<line class="st2" x1="413.2" y1="393.8" x2="79.7" y2="60.3"/>
						<line class="st2" x1="423.6" y1="383.3" x2="90.1" y2="49.9"/>
						<line class="st2" x1="434" y1="372.9" x2="100.5" y2="39.4"/>
						<line class="st2" x1="444.4" y1="362.5" x2="110.9" y2="29"/>
						<line class="st2" x1="454.8" y1="352.1" x2="121.4" y2="18.6"/>
						<line class="st2" x1="444.4" y1="362.5" x2="110.9" y2="29"/>
						<line class="st2" x1="465.3" y1="341.7" x2="131.8" y2="8.2"/>
						<line class="st2" x1="475.7" y1="331.2" x2="142.2" y2="-2.2"/>
						<line class="st2" x1="486.1" y1="320.8" x2="152.6" y2="-12.7"/>
						<line class="st2" x1="496.5" y1="310.4" x2="163" y2="-23.1"/>
						<line class="st2" x1="507" y1="300" x2="173.5" y2="-33.5"/>
						<line class="st2" x1="517.4" y1="289.6" x2="183.9" y2="-43.9"/>
						<line class="st2" x1="527.8" y1="279.1" x2="194.3" y2="-54.3"/>
						<line class="st2" x1="538.2" y1="268.7" x2="204.7" y2="-64.8"/>
						<line class="st2" x1="527.8" y1="279.1" x2="194.3" y2="-54.3"/>
						<line class="st2" x1="548.6" y1="258.3" x2="215.2" y2="-75.2"/>
						<line class="st2" x1="559.1" y1="247.9" x2="225.6" y2="-85.6"/>
						<line class="st2" x1="569.5" y1="237.4" x2="236" y2="-96"/>
						<line class="st2" x1="579.9" y1="227" x2="246.4" y2="-106.5"/>
						<line class="st2" x1="590.3" y1="216.6" x2="256.8" y2="-116.9"/>
						<line class="st2" x1="600.7" y1="206.2" x2="267.3" y2="-127.3"/>
						<line class="st2" x1="611.2" y1="195.8" x2="277.7" y2="-137.7"/>
					</g>
				</g>
			</g>
			<g>
				<defs>
					<rect id="SVGID_00000168078320652470612920000014118718208142583946_" x="280.3" y="177.2" width="53.5" height="60.2"/>
				</defs>
				<clipPath id="SVGID_00000090266853168292351660000008634534367497031827_">
					<use xlink:href="#SVGID_00000168078320652470612920000014118718208142583946_"  style="overflow:visible;"/>
				</clipPath>
				<g style="opacity:0.3;clip-path:url(#SVGID_00000090266853168292351660000008634534367497031827_);">
					<rect x="116.6" y="24.3" class="st4" width="322.2" height="322.2"/>
				</g>
			</g>
		</g>
	</g>
	<g id="Windows">
		<path class="st7" d="M400.7,63.2L450,74.6l-0.8,3.8L400,66.7L400.7,63.2z"/>
		<path class="st7" d="M269,235.4h3.8v73.3H269V235.4z"/>
		<polygon class="st7" points="269,60.9 269,135.3 272.8,135.3 272.8,66 317.3,77.6 318.3,73.8 		"/>
	</g>
	<g id="Walls">
		<path class="st8" d="M455,73.6h-1.4h-10.2v15.2h10.2v88.4h-58.2v2.5h7.6v22.9h2.5v-22.9h38.8v8v2.1v0.4h9.3v55.3h-48.1v-23H403
			V248h2.5h48.1v48.1h-5.1v7.6h5.1h7.6V73.6H455z M446.8,187.7v-8h6.8v8H446.8z"/>
		<path class="st8" d="M266.5,237.9h12.2h2.9h88.5v-2.5v-27.8h-2.5v27.8h-31.4v-55.7v-0.4v-2.1h-5.1v2.5h2.6v55.7h-52.1v-47.8h9.9
			h2.5v-2.5v-5.4h18v-2.5h-30.4v-65.7h-15.2v2.5h-7.5v7.6h7.5V152h-7.5v7.6h7.5v30.3h-7.5v7.6h7.5v32.8h-7.5v7.6L266.5,237.9
			L266.5,237.9z M291.5,179.7v5.4h-9.9v-5.4H291.5z"/>
		<rect x="258.9" y="268.3" class="st8" width="17.7" height="7.6"/>
		<polygon class="st8" points="317,83.7 322,83.7 322,88.7 339.7,88.7 339.7,83.7 367.6,83.7 367.6,187.4 370.1,187.4 370.1,179.7 
			375.2,179.7 375.2,177.2 370.1,177.2 370.1,83.7 402.2,83.7 403,83.9 407.5,64.2 400.2,62.4 397.1,76.1 339.7,76.1 327.4,76.1 
			317.5,72.1 314.7,79.2 317,80.1 		"/>
		<path class="st8" d="M385.2,296.1v2.5H403v5.1v32.8h-7.6h-7.6v35.4h-75.9v-15.1h-2.5v15.1v0.1v2.4h32.9v2.6h2.5v-2.6h43v28.9H380
			h-2.5v2.5v6.6h-32.8v-15.2h-2.5v15.2h-60.7v-53.1h7.6v-2.5h-7.6v-50.6h-15.1h-0.1h-7.5v7.6h7.5v32.8h-7.5v7.6h7.5V420h5.2h10
			h106.2h2.1h5.5v-75.9h7.6v0.1h7.6v-40.5h12.6v-7.6H403H385.2z M380.1,412.4v-6.6h7.7v6.6H380.1z"/>
	</g>
	<path id="Doors" class="st7" d="M395.4,177.2c0-2.8-0.5-5.1-1.5-7.6s-2.5-4.8-4.3-6.6c-1.8-2-4-3.5-6.6-4.6c-2.5-1-5.1-1.5-7.8-1.5
		v20.3 M367.6,187.4c-2.8,0-5.1,0.5-7.6,1.5s-4.8,2.5-6.6,4.3c-2,1.8-3.5,4-4.6,6.6s-1.5,5.1-1.5,7.8h20.3 M403,222.5
		c-2.8,0-5.1-0.5-7.6-1.5s-4.8-2.5-6.6-4.3c-2-1.8-3.5-4-4.6-6.6c-1-2.5-1.5-5.1-1.5-7.8H403 M311.7,179.5c0,2.5,0.5,4.8,1.5,7.1
		s2.3,4.6,4.3,6.3c1.8,1.8,4,3.3,6.3,4.3s4.8,1.5,7.3,1.5v-19.2 M309.4,356.8c0-2.8-0.5-5.1-1.5-7.6s-2.5-4.8-4.3-6.6
		c-1.8-2-4-3.5-6.6-4.6c-2.5-1-5.1-1.5-7.8-1.5v20.2 M342.3,397.2c-2.8,0-5.1-0.5-7.6-1.5s-4.8-2.5-6.6-4.3c-2-1.8-3.5-4-4.6-6.6
		c-1-2.5-1.5-5.1-1.5-7.8h20.3 M423.2,296.1c0-3.3,0.8-6.3,2-9.4c1.3-3,3-6.1,5.6-8.3c2.3-2.3,5.1-4.3,8.1-5.6c3-1.3,6.3-2,9.6-2
		v25.3"/>
	<g id="Furniture_2_">
		<g>
			<g>
				<rect x="400.3" y="113.2" class="st9" width="52.9" height="35.2"/>
				<path class="st10" d="M400.8,113.7h51.9V148h-51.9V113.7 M399.8,112.7v36.2h53.9v-36.2H399.8L399.8,112.7z"/>
			</g>
			<rect x="436.5" y="131.7" class="st11" width="13.3" height="14.1"/>
			<rect x="436.5" y="115.8" class="st11" width="13.3" height="14.1"/>
			<polygon class="st12" points="441.9,144.1 445.3,133.9 432.5,131.2 429,141.4 			"/>
			<polygon class="st12" points="432.5,130.4 445.3,127.7 441.9,117.5 429,120.2 			"/>
			<g>
				<polygon class="st9" points="399.7,148.4 399.7,113.2 441.9,113.2 443,127.2 439.1,148.4 				"/>
				<path class="st10" d="M441.4,113.7l1.1,13.4l-3.8,20.8h-38.4v-34.2H441.4 M442.3,112.7h-0.9h-42.3v36.2h40h0.3l4-21.7
					L442.3,112.7L442.3,112.7z"/>
			</g>
			<polyline class="st13" points="441,113.2 441,127.3 438.8,148.5 			"/>
		</g>
		<g>
			<g>
				<rect x="319.3" y="103" class="st9" width="47.8" height="37.9"/>
				<path class="st10" d="M366.6,103.5v36.9h-46.8v-36.9L366.6,103.5 M367.6,102.5h-48.8v38.9h48.8V102.5L367.6,102.5z"/>
			</g>
			<rect x="352.1" y="122.9" class="st11" width="12.1" height="15.2"/>
			<rect x="352.1" y="105.8" class="st11" width="12.1" height="15.2"/>
			<polygon class="st12" points="357,136.2 360.1,125.2 348.4,122.3 345.3,133.2 			"/>
			<polygon class="st12" points="348.4,121.5 360.1,118.5 357,107.6 345.3,110.5 			"/>
			<g>
				<polygon class="st9" points="318.8,140.8 318.8,103 356.9,103 357.9,118 354.4,140.8 				"/>
				<path class="st10" d="M356.4,103.5l1,14.5l-3.4,22.4h-34.6v-36.9L356.4,103.5 M357.4,102.5h-0.8h-38.3v38.9h36.2h0.3l3.6-23.3
					L357.4,102.5L357.4,102.5z"/>
			</g>
			<polyline class="st13" points="356.1,103 356.1,118.2 354.1,140.9 			"/>
		</g>
		<g>
			<g>
				<rect x="406.1" y="226" class="st9" width="47.1" height="19"/>
				<path class="st10" d="M452.6,226.5v18h-46.1v-18H452.6 M453.6,225.5h-48.1v20h48.1V225.5L453.6,225.5z"/>
			</g>
			<g>
				<g>
					<path class="st14" d="M449.2,235.5c0-3.7-3.2-6.5-6.8-6.2c-4,0.4-9,0.7-12.8,0.7c-3.7,0-8.8-0.4-12.8-0.7
						c-3.6-0.3-6.8,2.6-6.8,6.2c0,3.6,3.2,6.5,6.8,6.2c4-0.4,9-0.7,12.8-0.7c3.7,0,8.8,0.4,12.8,0.7
						C446,242,449.2,239.2,449.2,235.5z"/>
					<ellipse class="st14" cx="442.8" cy="235.5" rx="0.9" ry="0.9"/>
				</g>
			</g>
		</g>
		<g>
			<g>
				<rect x="378.9" y="374.9" class="st9" width="8.5" height="12.8"/>
				<path class="st10" d="M386.8,375.4v11.8h-7.5v-11.8H386.8 M387.8,374.4h-9.5v13.8h9.5V374.4L387.8,374.4z"/>
			</g>
			<g>
				<path class="st9" d="M383.1,383.9c-1.4,0-2.6-1.2-2.6-2.6s1.2-2.6,2.6-2.6s2.6,1.2,2.6,2.6S384.5,383.9,383.1,383.9z"/>
				<path class="st10" d="M383.1,379.3c1.1,0,2.1,0.9,2.1,2.1s-0.9,2.1-2.1,2.1s-2.1-0.9-2.1-2.1S382,379.3,383.1,379.3
					 M383.1,378.3c-1.7,0-3.1,1.4-3.1,3.1s1.4,3.1,3.1,3.1s3.1-1.4,3.1-3.1C386.2,379.7,384.8,378.3,383.1,378.3L383.1,378.3z"/>
			</g>
		</g>
		<g>
			<path class="st11" d="M327.7,300.5h32.9v23.9h-32.9V300.5z"/>
			<path class="st11" d="M325.6,306.4h-0.5c-3.4,0-6.1,2.7-6.1,6.1s2.7,6.1,6.1,6.1h0.5V306.4z"/>
			<path class="st11" d="M327.5,307.7h-2.4c-2.6,0-4.7,2.1-4.7,4.7s2.1,4.7,4.7,4.7h2.4V307.7z"/>
			<path class="st11" d="M362.5,306.4h0.5c3.4,0,6.1,2.7,6.1,6.1s-2.7,6.1-6.1,6.1h-0.5V306.4z"/>
			<path class="st11" d="M360.6,307.7h2.4c2.6,0,4.7,2.1,4.7,4.7s-2.1,4.7-4.7,4.7h-2.4V307.7z"/>
			<path class="st11" d="M338,326.3v0.5c0,3.4,2.7,6.1,6.1,6.1s6.1-2.7,6.1-6.1v-0.5H338z"/>
			<path class="st11" d="M339.4,324.4v2.4c0,2.6,2.1,4.7,4.7,4.7s4.7-2.1,4.7-4.7v-2.4H339.4z"/>
			<path class="st11" d="M338,298.6v-0.5c0-3.4,2.7-6.1,6.1-6.1s6.1,2.7,6.1,6.1v0.5H338z"/>
			<path class="st11" d="M339.4,300.5v-2.4c0-2.6,2.1-4.7,4.7-4.7s4.7,2.1,4.7,4.7v2.4H339.4z"/>
		</g>
		<g id="Sink_2_2_">
			<g id="Rectangle_16_x5F_11">
				<rect x="313.1" y="224.2" class="st9" width="20.1" height="10.7"/>
				<path class="st10" d="M332.7,224.7v9.7h-19.1v-9.7H332.7 M333.7,223.7h-21.1v11.7h21.1V223.7L333.7,223.7z"/>
			</g>
			<path id="Rectangle_19_x5F_5_2_" class="st11" d="M317,229.5L317,229.5c0-2,1.6-3.6,3.6-3.6h5.1c2,0,3.6,1.6,3.6,3.6l0,0
				c0,2-1.6,3.6-3.6,3.6h-5.1C318.6,233.1,317,231.5,317,229.5z"/>
			<circle id="Ellipse_7_x5F_2_2_" class="st11" cx="323.1" cy="230.9" r="0.9"/>
		</g>
		<g id="Sink_2_3_">
			<g id="Rectangle_16_x5F_11_3_">
				<rect x="443" y="210" class="st9" width="10.1" height="16"/>
				<path class="st10" d="M452.6,210.5v15h-9.1v-15H452.6 M453.6,209.5h-11.1v17h11.1V209.5L453.6,209.5z"/>
			</g>
			<g>
				<path id="Rectangle_19_x5F_5_3_" class="st11" d="M448.1,212.5L448.1,212.5c-1.9,0-3.4,1.5-3.4,3.4v4.9c0,1.9,1.5,3.4,3.4,3.4
					l0,0c1.9,0,3.4-1.5,3.4-3.4v-4.9C451.5,214,450,212.5,448.1,212.5z"/>
				<circle id="Ellipse_7_x5F_2_3_" class="st11" cx="449" cy="218.3" r="0.9"/>
			</g>
		</g>
		<g id="Toilet_1_">
			<g id="Rectangle_21_1_">
				<rect x="410.9" y="185.1" class="st9" width="10.4" height="3.1"/>
				<path class="st10" d="M420.8,185.6v2.1h-9.4v-2.1H420.8 M421.8,184.6h-11.4v4.1h11.4V184.6L421.8,184.6z"/>
			</g>
			<path id="Rectangle_19_x5F_2_1_" class="st11" d="M412,195.8c-0.2,2.4,1.7,4.4,4.1,4.4l0,0c2.4,0,4.2-2,4.1-4.4l-0.5-7.6h-7.2
				L412,195.8z"/>
			<path id="Rectangle_18_x5F_13_1_" class="st11" d="M413.4,195.6c-0.1,1.6,1.1,3,2.7,3l0,0c1.6,0,2.9-1.4,2.7-3l-0.3-4.4h-4.7
				L413.4,195.6z"/>
			<ellipse id="Ellipse_6_x5F_2_1_" class="st11" cx="416.1" cy="193.6" rx="0.9" ry="0.9"/>
		</g>
		<g id="Rectangle_24">
			<rect x="312.4" y="357.2" class="st9" width="74.9" height="14.2"/>
			<path class="st10" d="M312.9,357.7h73.9v13.2h-73.9V357.7 M311.9,356.7v15.2h75.9v-15.2H311.9L311.9,356.7z"/>
		</g>
		<g id="Rectangle_27_1_">
			<rect x="386.3" y="318.6" class="st9" width="16.3" height="17.4"/>
			<path class="st10" d="M402.1,319.1v16.4h-15.3v-16.4H402.1 M403.1,318.1h-17.3v18.4h17.3V318.1L403.1,318.1z"/>
		</g>
		<g id="Rectangle_27_2_">
			<rect x="385" y="318.6" class="st9" width="1.8" height="17.4"/>
			<path class="st10" d="M386.3,319.1v16.4h-0.8v-16.4H386.3 M387.3,318.1h-2.8v18.4h2.8V318.1L387.3,318.1z"/>
		</g>
		<g id="Rectangle_27_6_">
			<rect x="385" y="299" class="st9" width="17.6" height="19.6"/>
			<path class="st10" d="M402.1,299.5v18.6h-16.6v-18.6H402.1 M403.1,298.5h-18.6v20.6h18.6V298.5L403.1,298.5z"/>
		</g>
		<g id="Rectangle_27_3_">
			<rect x="383.3" y="299" class="st9" width="1.8" height="19.6"/>
			<path class="st10" d="M384.5,299.5v18.6h-0.8v-18.6H384.5 M385.5,298.5h-2.8v20.6h2.8V298.5L385.5,298.5z"/>
		</g>
		<g id="Sink_3">
			<rect id="Rectangle_28_x5F_2" x="363.6" y="358.6" class="st11" width="18" height="11.4"/>
			<path id="Rectangle_29_x5F_2" class="st11" d="M370.7,364.3L370.7,364.3c0-2.4,1.9-4.3,4.3-4.3h0.9c2.4,0,4.3,1.9,4.3,4.3l0,0
				c0,2.4-1.9,4.3-4.3,4.3H375C372.6,368.6,370.7,366.7,370.7,364.3z"/>
			<ellipse id="Ellipse_7_x5F_3" class="st11" cx="375.4" cy="366.1" rx="0.9" ry="0.9"/>
			<path id="Vector_2" class="st13" d="M364.5,368.6h4.7 M364.5,367.2h4.7 M364.5,365.7h4.7 M364.5,364.3h4.7 M364.5,362.9h4.7
				 M364.5,361.5h4.7 M364.5,360.1h4.7"/>
		</g>
		<g id="Stove">
			<g id="Rectangle_25">
				<rect x="337.9" y="357.2" class="st9" width="13.8" height="14.2"/>
				<path class="st10" d="M351.2,357.7v13.2h-12.8v-13.2H351.2 M352.2,356.7h-14.8v15.2h14.8V356.7L352.2,356.7z"/>
			</g>
			<g id="Rectangle_28_x5F_3">
				<rect x="337.9" y="369.8" class="st9" width="13.8" height="1.6"/>
				<path class="st10" d="M351.2,370.3v0.6h-12.8v-0.6H351.2 M352.2,369.3h-14.8v2.6h14.8V369.3L352.2,369.3z"/>
			</g>
			<g id="Ellipse_7_x5F_4">
				<path class="st9" d="M341.7,367.6c-0.7,0-1.3-0.6-1.3-1.3s0.6-1.3,1.3-1.3c0.7,0,1.3,0.6,1.3,1.3S342.4,367.6,341.7,367.6z"/>
				<path class="st10" d="M341.7,365.5c0.4,0,0.8,0.3,0.8,0.8s-0.3,0.8-0.8,0.8s-0.8-0.3-0.8-0.8S341.3,365.5,341.7,365.5
					 M341.7,364.5c-1,0-1.8,0.8-1.8,1.8s0.8,1.8,1.8,1.8s1.8-0.8,1.8-1.8S342.7,364.5,341.7,364.5L341.7,364.5z"/>
			</g>
			<g id="Ellipse_9">
				<path class="st9" d="M341.7,362.7c-0.9,0-1.7-0.8-1.7-1.7c0-0.9,0.8-1.7,1.7-1.7c0.9,0,1.7,0.8,1.7,1.7
					C343.4,361.9,342.6,362.7,341.7,362.7z"/>
				<path class="st10" d="M341.7,359.8c0.7,0,1.2,0.5,1.2,1.2s-0.5,1.2-1.2,1.2s-1.2-0.5-1.2-1.2S341,359.8,341.7,359.8
					 M341.7,358.8c-1.2,0-2.2,1-2.2,2.2s1,2.2,2.2,2.2s2.2-1,2.2-2.2C343.9,359.8,342.9,358.8,341.7,358.8L341.7,358.8z"/>
			</g>
			<g id="Ellipse_10">
				<path class="st9" d="M347.9,368c-0.9,0-1.7-0.8-1.7-1.7c0-0.9,0.8-1.7,1.7-1.7c0.9,0,1.7,0.8,1.7,1.7S348.8,368,347.9,368z"/>
				<path class="st10" d="M347.9,365.1c0.7,0,1.2,0.5,1.2,1.2s-0.5,1.2-1.2,1.2s-1.2-0.5-1.2-1.2S347.2,365.1,347.9,365.1
					 M347.9,364.1c-1.2,0-2.2,1-2.2,2.2s1,2.2,2.2,2.2s2.2-1,2.2-2.2S349.1,364.1,347.9,364.1L347.9,364.1z"/>
			</g>
			<g id="Ellipse_8">
				<circle class="st9" cx="347.9" cy="360.6" r="1.3"/>
				<path class="st10" d="M347.9,359.8c0.4,0,0.8,0.3,0.8,0.8s-0.3,0.8-0.8,0.8c-0.4,0-0.8-0.3-0.8-0.8S347.4,359.8,347.9,359.8
					 M347.9,358.8c-1,0-1.8,0.8-1.8,1.8s0.8,1.8,1.8,1.8s1.8-0.8,1.8-1.8S348.8,358.8,347.9,358.8L347.9,358.8z"/>
			</g>
		</g>
		<path id="Vector_3" class="st13" d="M396.1,327.6h-4.6 M395,329.6l-2.3-4 M395,325.6l-2.3,4"/>
		<g>
			<path class="st11" d="M422.8,99L412,96.5l0.8-10.2l13.7,3.2L422.8,99z"/>
			<g>
				
					<rect x="414.9" y="63" transform="matrix(0.2259 -0.9741 0.9741 0.2259 247.9331 475.089)" class="st9" width="16.1" height="37"/>
				<path class="st10" d="M407.2,69.9l35,8.1l-3.4,14.7l-35-8.1L407.2,69.9 M406.5,68.7l-3.9,16.7l37,8.6l3.9-16.7L406.5,68.7
					L406.5,68.7z"/>
			</g>
			<path class="st13" d="M424.2,85.4l-8.3-1.9 M424.5,87.3l-9.8-2.3l0.7-2.9l9.8,2.3L424.5,87.3z"/>
			<path class="st11" d="M428.5,88.4L428.5,88.4c-0.4-0.1-0.7-0.5-0.6-0.9l0.2-1c0.1-0.4,0.5-0.7,0.9-0.6l0,0
				c0.4,0.1,0.7,0.5,0.6,0.9l-0.2,1C429.3,88.2,429,88.5,428.5,88.4z"/>
			<path class="st11" d="M423.8,79c-0.3,1.4-1.7,2.2-3,1.9c-1.4-0.3-2.2-1.7-1.9-3l0.6-2.5l4.9,1.1L423.8,79z"/>
			<polygon class="st11" points="434.5,79.9 409,74 409.3,72.2 434.8,78.2 			"/>
			<g>
				
					<rect x="414.1" y="88.6" transform="matrix(0.2259 -0.9741 0.9741 0.2259 232.532 480.3153)" class="st9" width="8.7" height="10.4"/>
				<path class="st10" d="M414.8,88.7l9.2,2.1l-1.7,7.5l-9.2-2.1L414.8,88.7 M414,87.5l-2.2,9.5l11.1,2.6l2.2-9.5L414,87.5L414,87.5
					z"/>
			</g>
		</g>
		<g>
			<g>
				<rect x="405.7" y="160.9" class="st9" width="47.4" height="13.6"/>
				<path class="st10" d="M406.2,161.4h46.4V174h-46.4V161.4 M405.2,160.4V175h48.4v-14.6H405.2L405.2,160.4z"/>
			</g>
			<g>
				<rect x="405.7" y="163" class="st9" width="47.4" height="13.7"/>
				<path class="st10" d="M406.2,163.5h46.4v12.7h-46.4V163.5 M405.2,162.5v14.7h48.4v-14.7H405.2L405.2,162.5z"/>
			</g>
			<path class="st11" d="M406,176.7l47.1-13.6"/>
		</g>
		<g>
			<g>
				<rect x="336.7" y="219.1" class="st9" width="30.4" height="13.6"/>
				<path class="st10" d="M337.2,219.6h29.4v12.6h-29.4V219.6 M336.2,218.6v14.6h31.4v-14.6H336.2L336.2,218.6z"/>
			</g>
			<g>
				<rect x="336.7" y="221.2" class="st9" width="30.4" height="13.7"/>
				<path class="st10" d="M337.2,221.7h29.4v12.7h-29.4V221.7 M336.2,220.7v14.7h31.4v-14.7H336.2L336.2,220.7z"/>
			</g>
			<path class="st11" d="M336.7,234.9l30.6-13.6"/>
		</g>
		<g>
			<g>
				<rect x="403.5" y="250.7" class="st9" width="49.6" height="11.1"/>
				<path class="st10" d="M404,251.2h48.6v10.1H404V251.2 M403,250.2v12.1h50.6v-12.1L403,250.2L403,250.2z"/>
			</g>
			<g>
				<rect x="403.5" y="248.5" class="st9" width="49.6" height="11.2"/>
				<path class="st10" d="M404,249h48.6v10.2H404V249 M403,248v12.2h50.6V248H403L403,248z"/>
			</g>
			<path class="st11" d="M452.9,248.6l-49.3,11"/>
		</g>
		<g>
			<g>
				<rect x="407.9" y="287.1" class="st9" width="12.6" height="7.6"/>
				<path class="st10" d="M408.4,287.6H420v6.6h-11.6V287.6 M407.4,286.6v8.6H421v-8.6H407.4L407.4,286.6z"/>
			</g>
			<g>
				<rect x="407.9" y="289.2" class="st9" width="12.6" height="6.4"/>
				<path class="st10" d="M420,289.7v5.4h-11.6v-5.4H420 M421,288.7h-13.6v7.4H421V288.7L421,288.7z"/>
			</g>
			<path class="st11" d="M407.6,295.4l13.2-6"/>
		</g>
		<g>
			<g>
				<rect x="289" y="103.3" class="st9" width="1.7" height="37.3"/>
				<path class="st10" d="M290.2,103.8v36.3h-0.7v-36.3H290.2 M291.2,102.8h-2.7v38.3h2.7V102.8L291.2,102.8z"/>
			</g>
			<g>
				<rect x="282.2" y="103.3" class="st9" width="6.8" height="37.3"/>
				<path class="st10" d="M288.4,103.8v36.3h-5.8v-36.3H288.4 M289.4,102.8h-7.8v38.3h7.8V102.8L289.4,102.8z"/>
			</g>
			<rect x="283.6" y="108" class="st11" width="1.6" height="27.1"/>
			<path class="st11" d="M283.6,127.3v-11.5l-1.4,1v9.4L283.6,127.3z"/>
		</g>
		<g>
			<g>
				<rect x="443" y="194.7" class="st9" width="10.1" height="15.3"/>
				<path class="st10" d="M452.6,195.2v14.3h-9.1v-14.3H452.6 M453.6,194.2h-11.1v16.3h11.1V194.2L453.6,194.2z"/>
			</g>
			<g>
				<path class="st9" d="M448.1,205.5c-1.7,0-3.1-1.4-3.1-3.1s1.4-3.1,3.1-3.1s3.1,1.4,3.1,3.1S449.8,205.5,448.1,205.5z"/>
				<path class="st10" d="M448.1,199.7c1.4,0,2.6,1.2,2.6,2.6s-1.2,2.6-2.6,2.6s-2.6-1.2-2.6-2.6S446.6,199.7,448.1,199.7
					 M448.1,198.7c-2,0-3.6,1.6-3.6,3.6s1.6,3.6,3.6,3.6s3.6-1.6,3.6-3.6S450.1,198.7,448.1,198.7L448.1,198.7z"/>
			</g>
		</g>
		<g>
			<rect x="406" y="180.2" class="st9" width="37.7" height="4.9"/>
			<path class="st10" d="M443.2,180.7v3.9h-36.7v-3.9h36.6 M444.1,179.7h-38.6v5.9h38.8v-5.9H444.1z"/>
		</g>
		<g>
			<g>
				<rect x="322.8" y="245.3" class="st9" width="37.3" height="1.7"/>
				<path class="st10" d="M359.6,245.8v0.7h-36.3v-0.7H359.6 M360.6,244.8h-38.3v2.7h38.3V244.8L360.6,244.8z"/>
			</g>
			<g>
				<rect x="322.8" y="238.4" class="st9" width="37.3" height="6.8"/>
				<path class="st10" d="M359.6,238.9v5.8h-36.3v-5.8H359.6 M360.6,237.9h-38.3v7.8h38.3V237.9L360.6,237.9z"/>
			</g>
			<rect x="328.3" y="239.8" class="st11" width="27.1" height="1.6"/>
			<path class="st11" d="M336.1,239.8h11.5l-1-1.4h-9.4L336.1,239.8z"/>
		</g>
		<g>
			<g>
				<path class="st9" d="M283.9,234.9v-18.3h12.8c3,0,5.5,2.5,5.5,5.5v12.8H283.9z"/>
				<path class="st10" d="M296.8,217.1c2.8,0,5,2.2,5,5v12.3h-17.3v-17.3H296.8 M296.8,216.1h-13.3v19.3h19.3v-13.3
					C302.8,218.7,300.1,216.1,296.8,216.1L296.8,216.1z"/>
			</g>
			<g>
				<path class="st9" d="M285.5,233.3v-15.2h11.2c2.2,0,4,1.8,4,4v11.2H285.5z"/>
				<path class="st10" d="M296.7,218.6c1.9,0,3.5,1.6,3.5,3.5v10.7H286v-14.2H296.7 M296.7,217.6H285v16.2h16.2v-11.7
					C301.2,219.6,299.2,217.6,296.7,217.6L296.7,217.6z"/>
			</g>
			<ellipse class="st11" cx="288.4" cy="230.4" rx="0.9" ry="0.9"/>
		</g>
		<g>
			<polygon class="st9" points="282.1,234.8 282.1,188.1 286.5,188.1 286.5,213.4 284,213.4 284,234.8 			"/>
			<path class="st10" d="M286,188.6v24.3h-1.5h-1v1v20.5h-0.9v-20.5v-25.3h1.9H286 M287,187.6h-2.5h-2.9v26.3v21.5h2.9v-21.5h2.5
				V187.6L287,187.6z"/>
		</g>
		<g id="Toilet_2_">
			<g id="Rectangle_21_2_">
				<rect x="286.5" y="195" class="st9" width="3.1" height="13"/>
				<path class="st10" d="M289.1,195.5v12H287v-12H289.1 M290.1,194.5H286v14h4.1V194.5L290.1,194.5z"/>
			</g>
			<path id="Rectangle_19_x5F_2_2_" class="st11" d="M297.9,205.9c2.6,0.2,4.8-1.9,4.8-4.5l0,0c0-2.6-2.2-4.6-4.8-4.5l-8.3,0.6v7.8
				L297.9,205.9z"/>
			<path id="Rectangle_18_x5F_13_2_" class="st11" d="M297.7,204.5c1.8,0.2,3.4-1.3,3.4-3.1l0,0c0-1.8-1.6-3.2-3.4-3.1l-4.9,0.4v5.2
				L297.7,204.5z"/>
			<ellipse id="Ellipse_6_x5F_2_2_" class="st11" cx="295.3" cy="201.5" rx="0.9" ry="0.9"/>
		</g>
		<g>
			<g>
				<rect x="281.9" y="400.3" class="st9" width="59.9" height="10"/>
				<path class="st10" d="M282.4,400.8h58.9v9h-58.9V400.8 M281.4,399.8v11h60.9v-11H281.4L281.4,399.8z"/>
			</g>
			<g>
				<rect x="281.9" y="402.2" class="st9" width="59.9" height="9.7"/>
				<path class="st10" d="M282.4,402.7h58.9v8.7h-58.9V402.7 M281.4,401.7v10.7h60.9v-10.7H281.4L281.4,401.7z"/>
			</g>
			<path class="st11" d="M281.8,411.9l60.3-9.7"/>
		</g>
		<g>
			<g>
				<rect x="345.3" y="400.3" class="st9" width="27.1" height="10"/>
				<path class="st10" d="M345.8,400.8h26.1v9h-26.1V400.8 M344.8,399.8v11h28.1v-11H344.8L344.8,399.8z"/>
			</g>
			<g>
				<rect x="345.3" y="402.2" class="st9" width="27.1" height="9.7"/>
				<path class="st10" d="M345.8,402.7h26.1v8.7h-26.1V402.7 M344.8,401.7v10.7h28.1v-10.7H344.8L344.8,401.7z"/>
			</g>
			<path class="st11" d="M345.2,411.9l27.5-9.7"/>
		</g>
		<g>
			
				<rect x="416.5" y="93.1" transform="matrix(0.2253 -0.9743 0.9743 0.2253 227.234 482.9751)" class="st0" width="1.7" height="11"/>
			<path class="st10" d="M412.5,97.1l9.8,2.3l-0.2,0.7l-9.8-2.3L412.5,97.1 M411.8,95.9l-0.6,2.7l11.7,2.7l0.6-2.7L411.8,95.9
				L411.8,95.9z"/>
		</g>
	</g>
	<g id="street_anchors" class="st15">
		<rect id="street_anchor_01_1_" x="362.6" y="20.2" class="st16" width="10" height="10"/>
		<rect id="street_anchor_02_1_" x="218.8" y="235" class="st16" width="10" height="10"/>
	</g>
</g>
<g id="комнаты">
	<g>
		<g>
			<path class="st8" d="M314.9,155.9l1.4-0.8h1v6.1h-1.1v-4.7l-1,0.6L314.9,155.9z"/>
			<path class="st8" d="M318.4,160.5l0.5-1c0.3,0.3,1,0.7,1.9,0.7c0.6,0,1.2-0.3,1.2-1c0-0.6-0.5-0.9-0.9-0.9
				c-0.6,0-1.1,0.3-1.5,0.6l-0.6-0.6v-3.2h3.7v1.2h-2.7v1.4c0.4-0.3,0.7-0.6,1.3-0.6c0.9,0,1.9,0.6,1.9,2c0,1.6-1.2,2.3-2.3,2.3
				C319.6,161.4,318.8,160.8,318.4,160.5z"/>
			<path class="st8" d="M324.7,159.6c0.4,0,0.8,0.4,0.8,0.9c0,0.5-0.3,0.9-0.8,0.9c-0.4,0-0.7-0.4-0.7-0.9
				C323.9,160,324.3,159.6,324.7,159.6z"/>
			<path class="st8" d="M326.4,160.2c0-1.5,0.9-2.2,2-2.6c0.3-0.1,0.8-0.3,0.8-0.9c0-0.5-0.4-0.6-0.8-0.6c-0.7,0-1.1,0.4-1.6,0.9
				l-0.6-1c0.6-0.6,1.2-1.2,2.1-1.2c0.9,0,1.9,0.5,1.9,1.8c0,1.4-1,1.8-1.8,2.1c-0.7,0.3-1.1,0.6-1.1,1.1v0.1h2.8v1.2h-3.9V160.2z"
				/>
		</g>
	</g>
	<g>
		<g>
			<path class="st8" d="M381.1,125.1l1.4-0.8h1v6.1h-1.1v-4.7l-1,0.6L381.1,125.1z"/>
			<path class="st8" d="M384.5,125.1l1.4-0.8h1v6.1h-1.1v-4.7l-1,0.6L384.5,125.1z"/>
			<path class="st8" d="M388.9,128.8c0.4,0,0.8,0.4,0.8,0.9c0,0.5-0.3,0.9-0.8,0.9c-0.4,0-0.7-0.4-0.7-0.9
				C388.1,129.2,388.4,128.8,388.9,128.8z"/>
			<path class="st8" d="M390.4,129.7l0.5-1c0.3,0.3,1,0.7,1.9,0.7c0.6,0,1.2-0.3,1.2-1c0-0.6-0.5-0.9-0.9-0.9
				c-0.6,0-1.1,0.3-1.5,0.6l-0.6-0.6v-3.2h3.7v1.2h-2.7v1.4c0.4-0.3,0.7-0.6,1.3-0.6c0.9,0,1.9,0.6,1.9,2c0,1.6-1.2,2.3-2.3,2.3
				C391.6,130.6,390.8,130,390.4,129.7z"/>
		</g>
	</g>
	<g>
		<g>
			<path class="st8" d="M380.4,231.2c0-1.5,0.9-2.2,2-2.6c0.3-0.1,0.8-0.3,0.8-0.9c0-0.5-0.4-0.6-0.8-0.6c-0.7,0-1.1,0.4-1.6,0.9
				l-0.6-1c0.6-0.6,1.2-1.2,2.1-1.2c0.9,0,1.9,0.5,1.9,1.8c0,1.4-1,1.8-1.8,2.1c-0.7,0.3-1.1,0.6-1.1,1.1v0.1h2.8v1.2h-3.9V231.2z"
				/>
			<path class="st8" d="M386,230.6c0.4,0,0.8,0.4,0.8,0.9c0,0.5-0.3,0.9-0.8,0.9c-0.4,0-0.7-0.4-0.7-0.9
				C385.3,231,385.6,230.6,386,230.6z"/>
			<path class="st8" d="M391.6,227.5c-0.4-0.2-0.8-0.4-1.3-0.4c-0.8,0-1.6,0.7-1.6,2c0.4-0.4,1-0.9,1.7-0.9c1.2,0,1.9,1,1.9,1.9
				c0,1.3-0.9,2.2-2.1,2.2c-1.3,0-2.5-1.1-2.5-3.1c0-2.1,1.3-3.4,2.6-3.4c0.8,0,1.4,0.4,1.8,0.5L391.6,227.5z M388.8,229.9
				c0.2,0.8,0.8,1.3,1.4,1.3c0.6,0,1-0.5,1-1c0-0.4-0.2-0.8-0.9-0.8C389.7,229.3,389.2,229.6,388.8,229.9z"/>
		</g>
	</g>
	<g>
		<g>
			<path class="st8" d="M401.4,273.7h0.7c0.3,0,0.6-0.2,0.6-0.6c0-0.5-0.4-0.7-0.8-0.7c-0.6,0-1.1,0.4-1.6,1l-0.6-0.9
				c0.5-0.6,1.3-1.3,2.2-1.3c0.8,0,1.9,0.5,1.9,1.8c0,0.5-0.3,0.9-0.5,1.1c0.4,0.2,0.9,0.6,0.9,1.5c0,1.4-1.1,2.2-2.4,2.2
				c-0.9,0-1.7-0.4-2.4-1.3l0.6-1c0.5,0.6,1,1,1.8,1c0.7,0,1.3-0.4,1.3-1c0-0.5-0.5-0.6-0.7-0.6h-0.9V273.7z"/>
			<path class="st8" d="M405.8,275.8c0.4,0,0.8,0.4,0.8,0.9c0,0.5-0.3,0.9-0.8,0.9c-0.4,0-0.7-0.4-0.7-0.9
				C405,276.2,405.3,275.8,405.8,275.8z"/>
			<path class="st8" d="M412.4,276.1h-0.8v1.3h-1.1v-1.3h-3.2v-0.9l3.3-3.9h1v3.7h0.8V276.1z M408.8,275h1.6v-2h-0.1
				C409.9,273.7,409.3,274.4,408.8,275L408.8,275z"/>
		</g>
	</g>
	<g>
		<g>
			<path class="st8" d="M342.7,277.8c0-1.5,0.9-2.2,2-2.6c0.3-0.1,0.8-0.3,0.8-0.9c0-0.5-0.4-0.6-0.8-0.6c-0.7,0-1.1,0.4-1.6,0.9
				l-0.6-1c0.6-0.6,1.2-1.2,2.1-1.2c0.9,0,1.9,0.5,1.9,1.8c0,1.4-1,1.8-1.8,2.1c-0.7,0.3-1.1,0.6-1.1,1.1v0.1h2.8v1.2h-3.9V277.8z"
				/>
			<path class="st8" d="M347.3,273.6l1.4-0.8h1v6.1h-1.1v-4.7l-1,0.6L347.3,273.6z"/>
			<path class="st8" d="M351.7,277.2c0.4,0,0.8,0.4,0.8,0.9c0,0.5-0.3,0.9-0.8,0.9c-0.4,0-0.7-0.4-0.7-0.9
				C350.9,277.6,351.3,277.2,351.7,277.2z"/>
			<path class="st8" d="M353.3,277c0-0.8,0.4-1.4,1-1.6c-0.4-0.2-0.7-0.6-0.7-1.2c0-1.1,1.2-1.7,2.1-1.7c0.9,0,2.1,0.5,2.1,1.7
				c0,0.6-0.2,1-0.7,1.2c0.5,0.2,1,0.8,1,1.6c0,1.3-1.1,2-2.3,2C354.5,279,353.3,278.3,353.3,277z M356.8,276.9
				c0-0.6-0.6-0.9-1.2-0.9c-0.5,0-1.2,0.3-1.2,0.9c0,0.6,0.6,0.9,1.2,0.9C356.3,277.8,356.8,277.5,356.8,276.9z M356.6,274.4
				c0-0.5-0.5-0.7-0.9-0.7c-0.4,0-0.9,0.2-0.9,0.7c0,0.4,0.3,0.6,0.9,0.6C356.3,275,356.6,274.8,356.6,274.4z"/>
		</g>
	</g>
	<g>
		<g>
			<path class="st8" d="M305.5,386.9h-0.8v1.3h-1.1v-1.3h-3.2v-0.9l3.3-3.9h1v3.7h0.8V386.9z M301.9,385.8h1.6v-2h-0.1
				C303,384.5,302.5,385.2,301.9,385.8L301.9,385.8z"/>
		</g>
	</g>
	<g>
		<g>
			<path class="st8" d="M351,389.5c0-1.5,0.9-2.2,2-2.6c0.3-0.1,0.8-0.3,0.8-0.9c0-0.5-0.4-0.6-0.8-0.6c-0.7,0-1.1,0.4-1.6,0.9
				l-0.6-1c0.6-0.6,1.2-1.2,2.1-1.2c0.9,0,1.9,0.5,1.9,1.8c0,1.4-1,1.8-1.8,2.1c-0.7,0.3-1.1,0.6-1.1,1.1v0.1h2.8v1.2H351V389.5z"/>
			<path class="st8" d="M356.6,388.9c0.4,0,0.8,0.4,0.8,0.9c0,0.5-0.3,0.9-0.8,0.9c-0.4,0-0.7-0.4-0.7-0.9
				C355.9,389.3,356.2,388.9,356.6,388.9z"/>
			<path class="st8" d="M358.4,389.5c0-1.5,0.9-2.2,2-2.6c0.3-0.1,0.8-0.3,0.8-0.9c0-0.5-0.4-0.6-0.8-0.6c-0.7,0-1.1,0.4-1.6,0.9
				l-0.6-1c0.6-0.6,1.2-1.2,2.1-1.2c0.9,0,1.9,0.5,1.9,1.8c0,1.4-1,1.8-1.8,2.1c-0.7,0.3-1.1,0.6-1.1,1.1v0.1h2.8v1.2h-3.9V389.5z"
				/>
		</g>
	</g>
	<g>
		<g>
			<path class="st8" d="M315.4,207.7h0.7c0.3,0,0.6-0.2,0.6-0.6c0-0.5-0.4-0.7-0.8-0.7c-0.6,0-1.1,0.4-1.6,1l-0.6-0.9
				c0.5-0.6,1.3-1.3,2.2-1.3c0.8,0,1.9,0.5,1.9,1.8c0,0.5-0.3,0.9-0.5,1.1c0.4,0.2,0.9,0.6,0.9,1.5c0,1.4-1.1,2.2-2.4,2.2
				c-0.9,0-1.7-0.4-2.4-1.3l0.6-1c0.5,0.6,1,1,1.8,1c0.7,0,1.3-0.4,1.3-1c0-0.5-0.5-0.6-0.7-0.6h-0.9V207.7z"/>
			<path class="st8" d="M319.8,209.8c0.4,0,0.8,0.4,0.8,0.9c0,0.5-0.3,0.9-0.8,0.9c-0.4,0-0.7-0.4-0.7-0.9
				C319,210.2,319.3,209.8,319.8,209.8z"/>
			<path class="st8" d="M321.4,209.7c0-0.8,0.4-1.4,1-1.6c-0.4-0.2-0.7-0.6-0.7-1.2c0-1.1,1.2-1.7,2.1-1.7c0.9,0,2.1,0.5,2.1,1.7
				c0,0.6-0.2,1-0.7,1.2c0.5,0.2,1,0.7,1,1.6c0,1.3-1.1,2-2.3,2C322.6,211.7,321.4,210.9,321.4,209.7z M324.9,209.6
				c0-0.6-0.6-0.9-1.2-0.9c-0.5,0-1.2,0.3-1.2,0.9c0,0.6,0.6,0.9,1.2,0.9C324.3,210.5,324.9,210.1,324.9,209.6z M324.7,207
				c0-0.5-0.5-0.7-0.9-0.7c-0.4,0-0.9,0.2-0.9,0.7c0,0.4,0.3,0.6,0.9,0.6C324.3,207.6,324.7,207.4,324.7,207z"/>
		</g>
	</g>
	<g>
		<g>
			<path class="st8" d="M430.1,210.5h-0.8v1.3h-1.1v-1.3H425v-0.9l3.3-3.9h1v3.7h0.8V210.5z M426.5,209.4h1.6v-2h-0.1
				C427.6,208.1,427.1,208.8,426.5,209.4L426.5,209.4z"/>
		</g>
	</g>
</g>
</svg>
