<?xml version="1.0" encoding="utf-8"?>
<!-- Generator: Adobe Illustrator 26.0.3, SVG Export Plug-In . SVG Version: 6.00 Build 0)  -->
<svg version="1.1" xmlns="http://www.w3.org/2000/svg" xmlns:xlink="http://www.w3.org/1999/xlink" x="0px" y="0px"
	 viewBox="0 0 720 480" style="enable-background:new 0 0 720 480;" xml:space="preserve">
<style type="text/css">
	.st0{fill:#DBD4CA;}
	.st1{opacity:0.3;}
	.st2{opacity:0.7;fill:#C49F8A;enable-background:new    ;}
	.st3{fill:#C49F8A;}
	.st4{fill:none;stroke:#565440;}
	.st5{fill:#565440;}
	.st6{fill:none;stroke:#565440;stroke-width:1;stroke-miterlimit:4.0002;}
	.st7{fill:#E9E4DC;}
	.st8{fill:#E9E4DC;stroke:#C49F8A;}
	.st9{fill:#E9E4DC;stroke:#C49F8A;stroke-width:1;stroke-miterlimit:3.9996;}
	.st10{fill:none;stroke:#C49F8A;}
	.st11{fill:#E9E4DC;stroke:#C49F8A;stroke-linejoin:round;}
	.st12{fill:none;}
</style>
<g id="_x31__x5F_2">
	<polygon id="Floor_2_" class="st0" points="174.2,69.3 525.5,69.3 525.5,86.2 546,94 522.9,183.4 526.8,249.6 546.6,258.7 
		522.2,352.8 522.6,419.7 162.5,419.7 162.5,112.8 162.5,69.3 	"/>
	<g id="Wet_Floor_2_">
		<g id="Wet_Floor">
			<g class="st1">
				<rect x="176.8" y="72.1" class="st2" width="102" height="160.6"/>
			</g>
			<path class="st3" d="M179.8,232.7h1.4l3-3l3,3h1.4l-3.7-3.7l10-10l9.8,9.8l-4,4h1.4l3.2-3.2l3.2,3.2h1.4l-4-4l9.8-9.8l9.7,9.7
				l-4,4h1.4l3.3-3.3l3.3,3.3h1.4l-4-4l9.7-9.7l9.8,9.8l-4,4h1.4l3.2-3.2l3.2,3.2h1.4l-4-4l9.8-9.8l9.8,9.8l-3.9,3.9h1.4l3.2-3.2
				l3.2,3.2h1.4l-3.9-3.9l9.8-9.8l0.1,0.1v-1.5l-0.1,0.1l-9.8-9.8l9.8-9.8l0.1,0.1v-1.6l-0.1,0.1l-9.8-9.8l9.7-9.7l0.1,0.1v-1.7
				l-0.1,0.1l-9.7-9.7l9.8-9.8l0.1,0.1v-1.6l-0.1,0.1l-9.8-9.8l9.9-9.9v-1.7l-9.9-9.9l9.8-9.8l0.1,0.1v-1.6l-0.1,0.1l-9.8-9.8
				l9.7-9.7l0.1,0.1v-1.7l-0.1,0.1l-9.7-9.7l9.6-9.6h-1.4l-8.8,8.8l-8.8-8.8H258l9.6,9.6l-9.7,9.7l-9.8-9.8l9.5-9.5h-1.4l-8.8,8.8
				l-8.8-8.8h-1.4l9.5,9.5l-9.8,9.8l-9.8-9.8l9.5-9.5h-1.4l-8.8,8.8l-8.8-8.8h-1.4l9.5,9.5l-10,10l-9.7-9.7l9.8-9.8h-1.4l-9.1,9.1
				l-9.1-9.1h-1.4l9.8,9.8l-9.8,9.8l-9.8-9.8l9.8-9.8h-1.4l-9.1,9.1l-7.4-7.4v1.4l6.7,6.7l-6.7,6.7v1.4l7.4-7.4l9.8,9.8l-9.7,9.7
				l-7.5-7.5V96l6.8,6.8l-6.8,6.8v1.4l7.5-7.5l9.7,9.7l-9.8,9.8l-7.4-7.4v1.4l6.7,6.7l-6.7,6.7v1.4l7.4-7.4l9.8,9.8l-9.8,9.8
				l-7.4-7.4v1.4l6.7,6.7l-6.7,6.7v1.4l7.4-7.4l9.8,9.8l-9.8,9.8l-7.4-7.4v1.4l6.7,6.7l-6.7,6.7v1.4l7.4-7.4l9.7,9.7l-9.7,9.7
				l-7.4-7.4v1.4l6.7,6.7l-6.7,6.7v1.4l7.4-7.4l9.8,9.8l-9.8,9.8l-7.4-7.4v1.4l6.7,6.7l-6.7,6.7v1.4l7.4-7.4l10,10l-10,10l-7.4-7.4
				v1.4l6.7,6.7L179.8,232.7z M205.4,228l-9.8-9.8l9.8-9.8l9.8,9.8L205.4,228z M236.1,176.3l-9.8,9.8l-10-10l9.8-9.8L236.1,176.3z
				 M216.4,155.1l9.8-9.8l9.8,9.8l-9.8,9.8L216.4,155.1z M226.8,165.6l9.8-9.8l10,10l-9.8,9.8L226.8,165.6z M247.3,166.6l9.8,9.8
				l-9.8,9.8l-9.8-9.8L247.3,166.6z M237.3,155.1l9.7-9.7l10,10l-9.7,9.7L237.3,155.1z M237.3,134.2l9.8-9.8l9.8,9.8l-9.8,9.8
				L237.3,134.2z M246.3,144.7l-9.7,9.7l-9.8-9.8l9.7-9.7L246.3,144.7z M226.1,143.9l-9.7-9.7l9.7-9.7l9.7,9.7L226.1,143.9z
				 M225.4,144.7l-9.8,9.8l-9.7-9.7l9.8-9.8L225.4,144.7z M225.4,165.6l-9.8,9.8l-9.8-9.8l9.8-9.8L225.4,165.6z M225.6,186.8
				l-9.8,9.8l-10-10l9.8-9.8L225.6,186.8z M226.3,187.6l9.8,9.8l-9.8,9.8l-9.8-9.8L226.3,187.6z M227,186.8l9.8-9.8l9.8,9.8
				l-9.8,9.8L227,186.8z M247.3,187.5l9.7,9.7l-9.8,9.8l-9.7-9.7L247.3,187.5z M248,186.8l9.8-9.8l9.7,9.7l-9.8,9.8L248,186.8z
				 M248,165.8l9.7-9.7l9.8,9.8l-9.7,9.7L248,165.8z M247.8,144.7l9.8-9.8l10,10l-9.8,9.8L247.8,144.7z M247.8,123.7l10-10l9.8,9.8
				l-10,10L247.8,123.7z M247.1,123l-9.7-9.7l10-10l9.7,9.7L247.1,123z M246.3,123.7l-9.8,9.8l-9.7-9.7l9.8-9.8L246.3,123.7z
				 M226.1,123.1l-9.8-9.8l9.8-9.8l9.8,9.8L226.1,123.1z M225.4,123.8l-9.7,9.7l-9.8-9.8l9.7-9.7L225.4,123.8z M205.2,123l-9.8-9.8
				l9.7-9.7l9.8,9.8L205.2,123z M215,134.2l-9.8,9.8l-9.8-9.8l9.8-9.8L215,134.2z M214.9,155.1l-9.8,9.8l-9.7-9.7l9.8-9.8
				L214.9,155.1z M214.9,176.1l-9.8,9.8l-9.8-9.8l9.8-9.8L214.9,176.1z M215.1,197.3l-9.7,9.7l-10-10l9.7-9.7L215.1,197.3z
				 M206.1,207.8l9.7-9.7l9.8,9.8l-9.7,9.7L206.1,207.8z M226.3,228l-9.7-9.7l9.7-9.7l9.7,9.7L226.3,228z M227,207.8l9.8-9.8
				l9.7,9.7l-9.8,9.8L227,207.8z M247.3,228l-9.8-9.8l9.8-9.8l9.8,9.8L247.3,228z M248,207.8l9.8-9.8l9.8,9.8l-9.8,9.8L248,207.8z
				 M278,218.3l-9.8,9.8l-9.8-9.8l9.8-9.8L278,218.3z M278,197.3l-9.8,9.8l-9.8-9.8l9.8-9.8L278,197.3z M278,176.3l-9.7,9.7
				l-9.7-9.7l9.7-9.7L278,176.3z M278,155.4l-9.8,9.8l-9.8-9.8l9.8-9.8L278,155.4z M278.2,134.2l-10,10l-10-10l10-10L278.2,134.2z
				 M278,113l-9.8,9.8l-9.8-9.8l9.8-9.8L278,113z M268.3,82.4l9.7,9.7l-9.7,9.7l-9.7-9.7L268.3,82.4z M267.5,102.5l-9.8,9.8
				l-9.7-9.7l9.8-9.8L267.5,102.5z M247.3,82.3l9.8,9.8l-9.8,9.8l-9.8-9.8L247.3,82.3z M246.6,102.6l-10,10l-9.8-9.8l10-10
				L246.6,102.6z M226.3,82.3l9.8,9.8l-10,10l-9.8-9.8L226.3,82.3z M225.4,102.8l-9.8,9.8l-9.8-9.8l9.8-9.8L225.4,102.8z
				 M205.2,82.6l9.7,9.7l-9.8,9.8l-9.7-9.7L205.2,82.6z M185,102.8l9.7-9.7l9.7,9.7l-9.7,9.7L185,102.8z M184.9,123.7l9.8-9.8
				l9.8,9.8l-9.8,9.8L184.9,123.7z M184.9,144.7l9.8-9.8l9.8,9.8l-9.8,9.8L184.9,144.7z M184.9,165.7l9.8-9.8l9.7,9.7l-9.8,9.8
				L184.9,165.7z M184.9,186.6l9.7-9.7l9.8,9.8l-9.7,9.7L184.9,186.6z M184.9,207.6l9.8-9.8l10,10l-9.8,9.8L184.9,207.6z"/>
		</g>
		<g id="Wet_Floor_1_">
			<g class="st1">
				<rect x="175.8" y="242.9" class="st2" width="100.1" height="69.9"/>
			</g>
			<path class="st3" d="M183.3,312.8h1.8l-0.2-0.2l9.8-9.8l9.8,9.8l-0.2,0.2h1.8l-0.2-0.2l9.8-9.8l9.7,9.7l-0.3,0.3h2l-0.3-0.3
				l9.7-9.7l9.8,9.8l-0.2,0.2h1.8l-0.2-0.2l9.8-9.8l10,10h1.4l6.8-6.8v-1.4l-7.5,7.5l-10-10l10-10l7.5,7.5v-1.4l-6.8-6.8l6.8-6.8
				v-1.4l-7.5,7.5l-9.8-9.8l9.8-9.8l7.5,7.5v-1.4l-6.8-6.8l6.8-6.8v-1.4l-7.5,7.5l-9.7-9.7l9.7-9.7l7.5,7.5v-1.4l-6.8-6.8l6.7-6.7
				h-1.4l-6,6l-6-6h-1.4l6.7,6.7l-9.7,9.7l-9.8-9.8l6.6-6.6h-1.4l-5.9,5.9l-5.9-5.9H240l6.6,6.6l-9.8,9.8l-9.8-9.8l6.6-6.6h-1.4
				l-5.9,5.9l-5.9-5.9H219l6.6,6.6l-10,10l-9.7-9.7l6.9-6.9h-1.4l-6.2,6.2l-6.2-6.2h-1.4l6.9,6.9l-9.8,9.8l-9.8-9.8l6.9-6.9h-1.4
				l-6.2,6.2l-6.2-6.2h-1.4l6.9,6.9l-7.8,7.8v1.4l8.5-8.5l9.8,9.8l-9.7,9.7l-8.6-8.6v1.4l7.8,7.8l-7.8,7.8v1.4l8.6-8.6l9.7,9.7
				l-9.8,9.8l-8.5-8.5v1.4l7.8,7.8l-7.8,7.8v1.4l8.5-8.5l9.8,9.8l-9.8,9.8l-8.5-8.5v1.4l7.8,7.8L183.3,312.8z M205.2,311.9l-9.8-9.8
				l9.8-9.8l9.8,9.8L205.2,311.9z M195.4,281.1l9.7-9.7l9.8,9.8l-9.7,9.7L195.4,281.1z M205.9,291.6l9.7-9.7l9.8,9.8l-9.7,9.7
				L205.9,291.6z M216.4,281.2l9.8-9.8l9.8,9.8l-9.8,9.8L216.4,281.2z M226.1,311.8l-9.7-9.7l9.7-9.7l9.7,9.7L226.1,311.8z
				 M226.8,291.7l9.8-9.8l9.7,9.7l-9.8,9.8L226.8,291.7z M237.3,281.2l10-10l9.7,9.7l-10,10L237.3,281.2z M247.1,311.9l-9.8-9.8
				l9.8-9.8l9.8,9.8L247.1,311.9z M267.5,291.4l-10,10l-9.8-9.8l10-10L267.5,291.4z M267.5,270.4l-9.8,9.8l-9.7-9.7l9.8-9.8
				L267.5,270.4z M247.3,250.2l9.8,9.8l-9.8,9.8l-9.8-9.8L247.3,250.2z M246.6,270.5l-10,10l-9.8-9.8l10-10L246.6,270.5z
				 M226.3,250.2l9.8,9.8l-10,10l-9.8-9.8L226.3,250.2z M225.4,270.7l-9.8,9.8l-9.8-9.8l9.8-9.8L225.4,270.7z M205.2,250.5l9.7,9.7
				l-9.8,9.8l-9.7-9.7L205.2,250.5z M185,270.7l9.7-9.7l9.7,9.7l-9.7,9.7L185,270.7z M184.9,291.6l9.8-9.8l9.8,9.8l-9.8,9.8
				L184.9,291.6z"/>
		</g>
	</g>
	<path id="Doors" class="st4" d="M162.2,367.5c-6.5,0-12-1-17.8-3.4c-5.8-2.4-11.3-5.8-15.4-10.3c-4.8-4.1-8.2-9.6-10.6-15.4
		c-2.4-5.8-3.4-12-3.4-18.5h47.6 M458.7,230.8c0-5.3,1-10.2,2.9-15c1.9-4.8,4.8-9.7,8.2-13.1c3.4-3.9,7.7-6.8,13.1-9.2
		c4.8-1.9,10.2-2.9,15.5-2.9v39.7 M218.3,310.2c0-5.3-1-9.7-2.9-14.5c-1.9-4.8-4.8-9.2-8.2-12.6c-3.4-3.9-7.7-6.8-12.6-8.7
		c-4.8-1.9-9.7-2.9-15-2.9v38.2 M273.9,159.2c-4.8,0-9.7-1-14-2.9c-4.4-1.9-9.2-4.4-12.6-8.2c-3.4-3.4-6.3-7.7-8.2-12.1
		c-1.9-4.4-2.9-9.7-2.9-14.5h38.2"/>
	<g id="Walls">
		<polygon class="st5" points="529.7,256.4 553.4,261.7 556.8,247.7 534.5,242.7 534.5,176.6 505.6,176.6 505.6,229.8 498.4,229.9 
			498.4,244.4 505.6,244.4 505.6,256.4 		"/>
		<polygon class="st5" points="534.6,401 534.6,351.4 538.4,334.6 514.9,329.3 510.5,347.7 510.5,405.5 379.2,405.5 379.2,405.5 
			176.6,405.5 176.6,367.4 176.6,367.4 176.6,367.4 162.1,367.4 162.1,420 162.1,420 162.1,420 554.5,420 554.5,420 557.9,406 		"/>
		<path class="st5" d="M176.6,313.6h4.4v-4.8h-4.4v-64.3h81.1v15.7h15.7v48.6h-57.6v4.8h57.6v22.3h4.8v-75.7l0,0v-15.7h180.5v-14.5
			H278.2v-72.6h-4.8v72.6h-78.9v-14.5h-17.9V74.6h96.8v47.9h4.8V74.6l232.2,0v24.7h24.1v0l17.4,3.9l3.4-14l-20.8-4.7l0-24.4
			l-372.4,0v259.8h14.5V313.6z M273.4,255.3h-10.9v-10.9h10.9V255.3z M189.7,220.2v9.7h-13.1v-9.7H189.7z"/>
	</g>
	<g id="Windows">
		
			<rect x="495.7" y="133.2" transform="matrix(0.2515 -0.9679 0.9679 0.2515 271.2451 624.2979)" class="st6" width="87.1" height="7.2"/>
		
			<rect x="500.6" y="293.9" transform="matrix(0.2515 -0.9679 0.9679 0.2515 116.462 745.5908)" class="st6" width="79.4" height="7.2"/>
	</g>
	<g id="Furniture_2_">
		<g>
			<g>
				<rect x="366.2" y="75" class="st7" width="80.3" height="95"/>
				<path class="st3" d="M366.7,75.5H446v94h-79.3V75.5 M365.7,74.5v96H447v-96H365.7L365.7,74.5z"/>
			</g>
			<rect x="408.4" y="81.3" class="st8" width="31.7" height="23.7"/>
			<rect x="372.7" y="81.3" class="st8" width="31.7" height="23.7"/>
			
				<rect x="409.8" y="92" transform="matrix(0.2588 -0.9659 0.9659 0.2588 212.2213 484.2867)" class="st9" width="23.7" height="23.7"/>
			
				<rect x="379.1" y="92" transform="matrix(0.9659 -0.2588 0.2588 0.9659 -13.5569 104.7163)" class="st9" width="23.7" height="23.7"/>
			<g>
				<polygon class="st7" points="366.2,170.9 366.2,95.1 398.2,93.1 446.5,100.1 446.5,170.9 				"/>
				<path class="st3" d="M398.2,93.6l47.8,6.9v69.9h-79.2V96.1v-0.6L398.2,93.6 M398.3,92.6l-32.5,2v1.5v75.3H447v-71.3v-0.5
					L398.3,92.6L398.3,92.6z"/>
			</g>
			<polyline class="st10" points="366.8,97.1 398.5,97.1 446.1,101 			"/>
		</g>
		<g>
			<g>
				<rect x="309.7" y="75" class="st7" width="2.2" height="46.2"/>
				<path class="st3" d="M311.4,75.5v45.2h-1.2V75.5H311.4 M312.4,74.5h-3.2v47.2h3.2V74.5L312.4,74.5z"/>
			</g>
			<g>
				<rect x="278.6" y="75" class="st7" width="31.1" height="46.2"/>
				<path class="st3" d="M309.3,75.5v45.2h-30.1V75.5H309.3 M310.3,74.5h-32.1v47.2h32.1V74.5L310.3,74.5z"/>
			</g>
			<path class="st8" d="M278.7,121.1L309.8,75"/>
		</g>
		<g>
			<g>
				<rect x="177.1" y="381" class="st7" width="81.1" height="2.2"/>
				<path class="st3" d="M177.6,381.5h80.1v1.2h-80.1L177.6,381.5 M176.6,380.5v3.2h82.1v-3.2H176.6L176.6,380.5z"/>
			</g>
			<g>
				<rect x="177.1" y="383.1" class="st7" width="81.1" height="21.9"/>
				<path class="st3" d="M177.6,383.6h80.1v20.9h-80.1L177.6,383.6 M176.6,382.6v22.9h82.1v-22.9H176.6L176.6,382.6z"/>
			</g>
			<path class="st8" d="M178.1,405l79.5-21.9"/>
		</g>
		<g>
			<g>
				<rect x="309.7" y="167.6" class="st7" width="2.2" height="61.7"/>
				<path class="st3" d="M311.4,168.1v60.7h-1.2v-60.7H311.4 M312.4,167.1h-3.2v62.7h3.2V167.1L312.4,167.1z"/>
			</g>
			<g>
				<rect x="278.6" y="167.6" class="st7" width="31.1" height="61.7"/>
				<path class="st3" d="M309.3,168.1v60.7h-30.1v-60.7H309.3 M310.3,167.1h-32.1v62.7h32.1V167.1L310.3,167.1z"/>
			</g>
			<path class="st8" d="M278.7,228.9l31.1-61.1"/>
		</g>
		<g>
			<g>
				<rect x="246.5" y="329.2" class="st7" width="26.4" height="2.2"/>
				<path class="st3" d="M272.4,329.7v1.2H247v-1.2H272.4 M273.4,328.7H246v3.2h27.4V328.7L273.4,328.7z"/>
			</g>
			<g>
				<rect x="246.5" y="314.1" class="st7" width="26.4" height="15.2"/>
				<path class="st3" d="M272.4,314.6v14.2H247v-14.2H272.4 M273.4,313.6H246v16.2h27.4V313.6L273.4,313.6z"/>
			</g>
			<path class="st8" d="M246.4,313.8l26.7,15.7"/>
		</g>
		<g>
			<g>
				<rect x="177.1" y="75" class="st7" width="34.1" height="83.4"/>
				<path class="st3" d="M210.7,75.5v82.3h-33.1V75.5H210.7 M211.7,74.5h-35.1v84.3h35.1L211.7,74.5L211.7,74.5z"/>
			</g>
			<g>
				<g>
					<path class="st11" d="M194.2,82.3c-6.5,0-11.5,5.6-10.9,11.9c0.6,7,1.2,15.9,1.2,22.5c0,6.5-0.6,15.4-1.2,22.5
						c-0.6,6.4,4.5,11.9,10.9,11.9s11.5-5.6,10.9-11.9c-0.6-7-1.2-15.9-1.2-22.5c0-6.5,0.6-15.4,1.2-22.5
						C205.6,87.9,200.6,82.3,194.2,82.3z"/>
					<ellipse class="st11" cx="194.2" cy="93.5" rx="1.6" ry="1.6"/>
				</g>
			</g>
		</g>
		<g>
			<g>
				<rect x="177" y="244.8" class="st7" width="31.3" height="20.2"/>
				<path class="st3" d="M207.9,245.3v19.2h-30.3v-19.2H207.9 M208.9,244.3h-32.3v21.2h32.3V244.3L208.9,244.3z"/>
			</g>
			<g>
				<path class="st7" d="M192.7,261.4c-3.5,0-6.4-2.9-6.4-6.4c0-3.5,2.9-6.4,6.4-6.4s6.4,2.9,6.4,6.4
					C199.1,258.5,196.2,261.4,192.7,261.4z"/>
				<path class="st3" d="M192.7,249c3.3,0,5.9,2.7,5.9,5.9c0,3.3-2.7,5.9-5.9,5.9c-3.3,0-5.9-2.7-5.9-5.9
					C186.7,251.7,189.4,249,192.7,249 M192.7,248c-3.8,0-6.9,3.1-6.9,6.9c0,3.8,3.1,6.9,6.9,6.9c3.8,0,6.9-3.1,6.9-6.9
					C199.6,251.1,196.5,248,192.7,248L192.7,248z"/>
			</g>
		</g>
		<g>
			<g>
				<rect x="371.1" y="216.7" class="st7" width="74" height="2.2"/>
				<path class="st3" d="M444.6,217.2v1.2h-73v-1.2H444.6 M445.6,216.2h-75v3.2h75V216.2L445.6,216.2z"/>
			</g>
			<g>
				<rect x="371.1" y="218.9" class="st7" width="74" height="10.5"/>
				<path class="st3" d="M444.6,219.4v9.5h-73v-9.5H444.6 M445.6,218.4h-75v11.5h75V218.4L445.6,218.4z"/>
			</g>
			<rect x="382.3" y="225.8" class="st8" width="53" height="1.7"/>
			<path class="st8" d="M397.6,227.5H420l-2,1.8h-18.4L397.6,227.5z"/>
		</g>
		<g id="Sink_2_2_">
			<g id="Rectangle_16_x5F_11">
				<rect x="208.4" y="244.8" class="st7" width="49" height="20.2"/>
				<path class="st3" d="M256.8,245.3v19.2h-48v-19.2H256.8 M257.8,244.3h-50v21.2h50V244.3L257.8,244.3z"/>
			</g>
			<path id="Rectangle_19_x5F_5_2_" class="st8" d="M213.6,254.9L213.6,254.9c0,3.6,2.9,6.5,6.5,6.5h9.3c3.6,0,6.5-2.9,6.5-6.5l0,0
				c0-3.6-2.9-6.5-6.5-6.5h-9.3C216.5,248.5,213.6,251.4,213.6,254.9z"/>
			<circle id="Ellipse_7_x5F_2_2_" class="st8" cx="224.7" cy="252.2" r="1.6"/>
		</g>
		<g id="Toilet_2_">
			<g id="Rectangle_21_2_">
				<rect x="255.9" y="275.7" class="st7" width="6.6" height="19.7"/>
				<path class="st3" d="M262,276.2v18.7h-5.6v-18.7H262 M263,275.2h-7.6v20.7h7.6V275.2L263,275.2z"/>
			</g>
			<path id="Rectangle_19_x5F_2_2_" class="st8" d="M242.2,292.9c-4.3,0.3-7.9-3.1-7.9-7.4l0,0c0-4.3,3.6-7.7,7.9-7.4l13.7,0.9v13
				L242.2,292.9z"/>
			<path id="Rectangle_18_x5F_13_2_" class="st8" d="M242.2,291.4c-3.5,0.3-6.4-2.4-6.4-5.9l0,0c0-3.5,3-6.2,6.4-5.9l9.4,0.9v10.1
				L242.2,291.4z"/>
			<ellipse id="Ellipse_6_x5F_2_2_" class="st8" cx="247.3" cy="285.5" rx="1.6" ry="1.6"/>
		</g>
		<g id="Rectangle_24">
			<rect x="278.7" y="244.9" class="st7" width="30" height="87.2"/>
			<path class="st3" d="M308.2,245.4v86.2h-29v-86.2H308.2 M309.2,244.4h-31v88.2h31V244.4L309.2,244.4z"/>
		</g>
		<g id="Rectangle_24_2_">
			<rect x="308.7" y="244.9" class="st7" width="60.6" height="30"/>
			<path class="st3" d="M368.8,245.4v29h-59.6v-29L368.8,245.4 M369.8,244.4h-61.6v31h61.6V244.4L369.8,244.4z"/>
		</g>
		<g id="Rectangle_27_1_">
			<rect x="278.7" y="302.1" class="st7" width="30" height="30"/>
			<path class="st3" d="M308.2,302.6v29h-29v-29H308.2 M309.2,301.6h-31v31h31V301.6L309.2,301.6z"/>
		</g>
		<g id="Rectangle_27_2_">
			<rect x="306.5" y="302.1" class="st7" width="2.2" height="30"/>
			<path class="st3" d="M308.2,302.6v29H307v-29H308.2 M309.2,301.6H306v31h3.2V301.6L309.2,301.6z"/>
		</g>
		<g id="Sink_3">
			<rect id="Rectangle_28_x5F_2" x="281.7" y="252.5" class="st8" width="23.8" height="37.7"/>
			<path id="Rectangle_29_x5F_2" class="st8" d="M293.6,267.3L293.6,267.3c4.9,0,8.9,4,8.9,8.9v2c0,4.9-4,8.9-8.9,8.9l0,0
				c-4.9,0-8.9-4-8.9-8.9v-2C284.7,271.3,288.7,267.3,293.6,267.3z"/>
			<ellipse id="Ellipse_7_x5F_3" class="st8" cx="289.7" cy="277.2" rx="1" ry="1"/>
			<path id="Vector_2" class="st10" d="M284.7,254.5v9.9 M287.7,254.5v9.9 M290.7,254.5v9.9 M293.6,254.5v9.9 M296.6,254.5v9.9
				 M299.6,254.5v9.9 M302.6,254.5v9.9"/>
		</g>
		<g id="Stove">
			<g id="Rectangle_25">
				<rect x="331.2" y="244.9" class="st7" width="29.2" height="30"/>
				<path class="st3" d="M359.9,245.4v29h-28.2v-29L359.9,245.4 M360.9,244.4h-30.2v31h30.2V244.4L360.9,244.4z"/>
			</g>
			<g id="Rectangle_28_x5F_3">
				<rect x="331.2" y="244.9" class="st7" width="29.2" height="2.4"/>
				<path class="st3" d="M359.9,245.4v1.4h-28.2v-1.4H359.9 M360.9,244.4h-30.2v3.4h30.2V244.4L360.9,244.4z"/>
			</g>
			<g id="Ellipse_7_x5F_4">
				<path class="st7" d="M353.1,258.4c-1.9,0-3.4-1.5-3.4-3.4c0-1.9,1.5-3.4,3.4-3.4s3.4,1.5,3.4,3.4
					C356.5,256.9,355,258.4,353.1,258.4z"/>
				<path class="st3" d="M353.1,252.2c1.6,0,2.9,1.3,2.9,2.9c0,0.8-0.3,1.5-0.8,2s-1.3,0.8-2,0.8c-1.6,0-2.9-1.3-2.9-2.9
					C350.3,253.5,351.6,252.2,353.1,252.2 M353.1,251.2c-2.1,0-3.9,1.7-3.9,3.9s1.7,3.9,3.9,3.9s3.9-1.7,3.9-3.9
					C357,252.9,355.3,251.2,353.1,251.2L353.1,251.2z"/>
			</g>
			<g id="Ellipse_9">
				<path class="st7" d="M353.1,271c-2.4,0-4.3-1.9-4.3-4.3s1.9-4.3,4.3-4.3s4.3,1.9,4.3,4.3S355.5,271,353.1,271z"/>
				<path class="st3" d="M353.1,262.8c2.1,0,3.8,1.7,3.8,3.8s-1.7,3.8-3.8,3.8c-2.1,0-3.8-1.7-3.8-3.8
					C349.3,264.6,351,262.8,353.1,262.8 M353.1,261.8c-2.7,0-4.8,2.2-4.8,4.8c0,2.7,2.2,4.8,4.8,4.8s4.8-2.2,4.8-4.8
					S355.8,261.8,353.1,261.8L353.1,261.8z"/>
			</g>
			<g id="Ellipse_10">
				<path class="st7" d="M339.6,259.4c-2.4,0-4.3-1.9-4.3-4.3s1.9-4.3,4.3-4.3s4.3,1.9,4.3,4.3C343.9,257.4,342,259.4,339.6,259.4z"
					/>
				<path class="st3" d="M339.6,251.2c2.1,0,3.8,1.7,3.8,3.8c0,2.1-1.7,3.8-3.8,3.8c-2.1,0-3.8-1.7-3.8-3.8
					C335.8,252.9,337.5,251.2,339.6,251.2 M339.6,250.2c-2.7,0-4.8,2.2-4.8,4.8c0,2.7,2.2,4.8,4.8,4.8s4.8-2.2,4.8-4.8
					C344.4,252.4,342.3,250.2,339.6,250.2L339.6,250.2z"/>
			</g>
			<g id="Ellipse_8">
				<path class="st7" d="M339.6,271c-1.9,0-3.4-1.5-3.4-3.4s1.5-3.4,3.4-3.4s3.4,1.5,3.4,3.4S341.5,271,339.6,271z"/>
				<path class="st3" d="M339.6,264.8c1.6,0,2.9,1.3,2.9,2.9s-1.3,2.9-2.9,2.9s-2.9-1.3-2.9-2.9S338,264.8,339.6,264.8 M339.6,263.8
					c-2.1,0-3.9,1.7-3.9,3.9c0,2.1,1.7,3.9,3.9,3.9c2.1,0,3.9-1.7,3.9-3.9C343.5,265.5,341.7,263.8,339.6,263.8L339.6,263.8z"/>
			</g>
		</g>
		<path id="Vector_3" class="st10" d="M293.7,313.3v7.7 M297.1,315.2l-6.8,3.9 M290.3,315.2l6.8,3.9"/>
		<g>
			<path class="st8" d="M458.2,373.8c0-1.3-1.2-2.4-2.6-2.4H416c-1.5,0-2.6,1.1-2.6,2.4v23.7h44.8L458.2,373.8z"/>
			<path class="st8" d="M500.9,373.8c0-1.3-1.2-2.4-2.6-2.4h-37.5c-1.5,0-2.6,1.1-2.6,2.4v23.7H501L500.9,373.8L500.9,373.8z"/>
			<polygon class="st8" points="500.9,369.4 500.9,397.4 457.1,397.4 413.4,397.4 413.4,369.4 405.1,369.4 405.1,405 509.2,405 
				509.2,369.4 			"/>
		</g>
		<g>
			<rect x="369.3" y="244.9" class="st7" width="43.8" height="64.5"/>
			<path class="st3" d="M412.7,245.4v63.5h-42.8v-63.5L412.7,245.4 M413.7,244.4h-44.8v65.5h44.8V244.4L413.7,244.4z"/>
		</g>
		<g>
			<rect x="395.6" y="244.9" class="st7" width="4.9" height="64.5"/>
			<path class="st3" d="M400,245.4v63.5h-3.9v-63.5L400,245.4 M401,244.4h-5.9v65.5h5.9V244.4L401,244.4z"/>
		</g>
		<g>
			<circle class="st7" cx="392.3" cy="322.1" r="9.8"/>
			<path class="st3" d="M392.3,312.8c5.1,0,9.3,4.2,9.3,9.3s-4.2,9.3-9.3,9.3c-5.1,0-9.3-4.2-9.3-9.3S387.1,312.8,392.3,312.8
				 M392.3,311.8c-5.7,0-10.3,4.6-10.3,10.3s4.6,10.3,10.3,10.3s10.3-4.6,10.3-10.3S398,311.8,392.3,311.8L392.3,311.8z"/>
		</g>
		<g>
			<circle class="st7" cx="428.9" cy="298.4" r="9.8"/>
			<path class="st3" d="M428.9,289.1c5.1,0,9.3,4.2,9.3,9.3s-4.2,9.3-9.3,9.3c-5.1,0-9.3-4.2-9.3-9.3S423.8,289.1,428.9,289.1
				 M428.9,288.1c-5.7,0-10.3,4.6-10.3,10.3c0,5.7,4.6,10.3,10.3,10.3s10.3-4.6,10.3-10.3C439.3,292.7,434.6,288.1,428.9,288.1
				L428.9,288.1z"/>
		</g>
		<g>
			<circle class="st7" cx="428.9" cy="271.5" r="9.8"/>
			<path class="st3" d="M428.9,262.1c5.1,0,9.3,4.2,9.3,9.3s-4.2,9.3-9.3,9.3c-5.1,0-9.3-4.2-9.3-9.3S423.8,262.1,428.9,262.1
				 M428.9,261.1c-5.7,0-10.3,4.6-10.3,10.3s4.6,10.3,10.3,10.3s10.3-4.6,10.3-10.3S434.6,261.1,428.9,261.1L428.9,261.1z"/>
		</g>
		<g id="Toilet_1_">
			<g id="Rectangle_21_1_">
				<rect x="239.7" y="212.4" class="st7" width="19.7" height="6.6"/>
				<path class="st3" d="M258.9,212.9v5.6h-18.7v-5.6H258.9 M259.9,211.9h-20.7v7.6h20.7V211.9L259.9,211.9z"/>
			</g>
			<path id="Rectangle_19_x5F_2_1_" class="st8" d="M242.2,198.7c-0.3-4.3,3.1-7.9,7.4-7.9l0,0c4.3,0,7.7,3.6,7.4,7.9l-0.9,13.7
				h-12.9L242.2,198.7z"/>
			<path id="Rectangle_18_x5F_13_1_" class="st8" d="M243.7,198.6c-0.3-3.5,2.4-6.4,5.9-6.4l0,0c3.5,0,6.2,3,5.9,6.4l-0.9,9.4h-10.1
				L243.7,198.6z"/>
			<ellipse id="Ellipse_6_x5F_2_1_" class="st8" cx="249.5" cy="203.7" rx="1.6" ry="1.6"/>
		</g>
		<g>
			<rect x="195" y="219" class="st7" width="77.9" height="10.4"/>
			<path class="st3" d="M272.4,219.5v9.4h-76.9v-9.4H272.4 M273.4,218.5h-78.9v11.4h78.9V218.5L273.4,218.5z"/>
		</g>
		<g id="Sink_2_3_">
			<g id="Rectangle_16_x5F_11_3_">
				<rect x="177" y="158.4" class="st7" width="21" height="56.5"/>
				<path class="st3" d="M197.6,158.9v55.5h-20v-55.5H197.6 M198.6,157.9h-22v57.5h22V157.9L198.6,157.9z"/>
			</g>
			<path id="Rectangle_19_x5F_5_3_" class="st8" d="M187.5,189.3L187.5,189.3c3.7,0,6.7-3,6.7-6.7V173c0-3.7-3-6.7-6.7-6.7l0,0
				c-3.7,0-6.7,3-6.7,6.7v9.6C180.8,186.3,183.8,189.3,187.5,189.3z"/>
			<circle id="Ellipse_7_x5F_2_3_" class="st8" cx="184.7" cy="177.8" r="1.6"/>
		</g>
		<g>
			<rect x="262.5" y="260.6" class="st7" width="10.4" height="47.6"/>
			<path class="st3" d="M272.4,261.1v46.6H263v-46.6H272.4 M273.4,260.1H262v48.6h11.4V260.1L273.4,260.1z"/>
		</g>
	</g>
	<g id="street_anchors">
		<rect id="street_anchor_01" x="587.9" y="235" class="st12" width="10" height="10"/>
	</g>
</g>
<g id="комнаты">
	<g>
		<g>
			<path class="st5" d="M213,280.9c0-1.5,0.9-2.2,2-2.6c0.3-0.1,0.8-0.3,0.8-0.9c0-0.5-0.4-0.6-0.8-0.6c-0.7,0-1.1,0.4-1.6,0.9
				l-0.6-1c0.6-0.6,1.2-1.2,2.1-1.2c0.9,0,1.9,0.5,1.9,1.8c0,1.4-1,1.8-1.8,2.1c-0.7,0.3-1.1,0.6-1.1,1.1v0.1h2.8v1.2H213V280.9z"/>
			<path class="st5" d="M218.6,280.3c0.4,0,0.8,0.4,0.8,0.9c0,0.5-0.3,0.9-0.8,0.9c-0.4,0-0.7-0.4-0.7-0.9
				C217.9,280.7,218.2,280.3,218.6,280.3z"/>
			<path class="st5" d="M220.4,280.9c0-1.5,0.9-2.2,2-2.6c0.3-0.1,0.8-0.3,0.8-0.9c0-0.5-0.4-0.6-0.8-0.6c-0.7,0-1.1,0.4-1.6,0.9
				l-0.6-1c0.6-0.6,1.2-1.2,2.1-1.2c0.9,0,1.9,0.5,1.9,1.8c0,1.4-1,1.8-1.8,2.1c-0.7,0.3-1.1,0.6-1.1,1.1v0.1h2.8v1.2h-3.9V280.9z"
				/>
		</g>
	</g>
	<g>
		<g>
			<path class="st5" d="M351.8,345.1l1.4-0.8h1v6.1h-1.1v-4.7l-1,0.6L351.8,345.1z"/>
			<path class="st5" d="M355.3,349.7l0.5-1c0.3,0.3,1,0.7,1.9,0.7c0.6,0,1.2-0.3,1.2-1c0-0.6-0.5-0.9-0.9-0.9
				c-0.6,0-1.1,0.3-1.5,0.6l-0.6-0.6v-3.2h3.7v1.2h-2.7v1.4c0.4-0.3,0.7-0.6,1.3-0.6c0.9,0,1.9,0.6,1.9,2c0,1.6-1.2,2.3-2.3,2.3
				C356.5,350.6,355.7,350,355.3,349.7z"/>
			<path class="st5" d="M361.6,348.8c0.4,0,0.8,0.4,0.8,0.9c0,0.5-0.3,0.9-0.8,0.9c-0.4,0-0.7-0.4-0.7-0.9
				C360.8,349.2,361.1,348.8,361.6,348.8z"/>
			<path class="st5" d="M363.1,349.7l0.5-1c0.3,0.3,1,0.7,1.9,0.7c0.6,0,1.2-0.3,1.2-1c0-0.6-0.5-0.9-0.9-0.9
				c-0.6,0-1.1,0.3-1.5,0.6l-0.6-0.6v-3.2h3.7v1.2h-2.7v1.4c0.4-0.3,0.7-0.6,1.3-0.6c0.9,0,1.9,0.6,1.9,2c0,1.6-1.2,2.3-2.3,2.3
				C364.3,350.6,363.5,350,363.1,349.7z"/>
		</g>
	</g>
	<g>
		<g>
			<path class="st5" d="M214.2,346.7h0.7c0.3,0,0.6-0.2,0.6-0.6c0-0.5-0.4-0.7-0.8-0.7c-0.6,0-1.1,0.4-1.6,1l-0.6-0.9
				c0.5-0.6,1.3-1.3,2.2-1.3c0.8,0,1.9,0.5,1.9,1.8c0,0.5-0.3,0.9-0.5,1.1c0.4,0.2,0.9,0.6,0.9,1.5c0,1.4-1.1,2.2-2.4,2.2
				c-0.9,0-1.7-0.4-2.4-1.3l0.6-1c0.5,0.6,1,1,1.8,1c0.7,0,1.3-0.4,1.3-1c0-0.5-0.5-0.6-0.7-0.6h-0.9V346.7z"/>
			<path class="st5" d="M218.6,348.8c0.4,0,0.8,0.4,0.8,0.9c0,0.5-0.3,0.9-0.8,0.9c-0.4,0-0.7-0.4-0.7-0.9
				C217.9,349.2,218.2,348.8,218.6,348.8z"/>
			<path class="st5" d="M220.3,348.6c0-0.8,0.4-1.4,1-1.6c-0.4-0.2-0.7-0.6-0.7-1.2c0-1.1,1.2-1.7,2.1-1.7c0.9,0,2.1,0.5,2.1,1.7
				c0,0.6-0.2,1-0.7,1.2c0.5,0.2,1,0.8,1,1.6c0,1.3-1.1,2-2.3,2C221.4,350.6,220.3,349.9,220.3,348.6z M223.8,348.5
				c0-0.6-0.6-0.9-1.2-0.9c-0.5,0-1.2,0.3-1.2,0.9c0,0.6,0.6,0.9,1.2,0.9C223.2,349.4,223.8,349.1,223.8,348.5z M223.5,345.9
				c0-0.5-0.5-0.7-0.9-0.7c-0.4,0-0.9,0.2-0.9,0.7c0,0.4,0.3,0.6,0.9,0.6C223.2,346.6,223.5,346.4,223.5,345.9z"/>
		</g>
	</g>
	<g>
		<g>
			<path class="st5" d="M475.4,134.2l1.4-0.8h1v6.1h-1.1v-4.7l-1,0.6L475.4,134.2z"/>
			<path class="st5" d="M478.8,138.8l0.5-1c0.3,0.3,1,0.7,1.9,0.7c0.6,0,1.2-0.3,1.2-1c0-0.6-0.5-0.9-0.9-0.9
				c-0.6,0-1.1,0.3-1.5,0.6l-0.6-0.6v-3.2h3.7v1.2h-2.7v1.4c0.4-0.3,0.7-0.6,1.3-0.6c0.9,0,1.9,0.6,1.9,2c0,1.6-1.2,2.3-2.3,2.3
				C480,139.7,479.3,139.1,478.8,138.8z"/>
		</g>
	</g>
	<g>
		<g>
			<path class="st5" d="M233.9,167.7l0.5-1c0.3,0.3,1,0.7,1.9,0.7c0.6,0,1.2-0.3,1.2-1c0-0.6-0.5-0.9-0.9-0.9
				c-0.6,0-1.1,0.3-1.5,0.6l-0.6-0.6v-3.2h3.7v1.2h-2.7v1.4c0.4-0.3,0.7-0.6,1.3-0.6c0.9,0,1.9,0.6,1.9,2c0,1.6-1.2,2.3-2.3,2.3
				C235.1,168.6,234.3,168,233.9,167.7z"/>
			<path class="st5" d="M240.2,166.8c0.4,0,0.8,0.4,0.8,0.9c0,0.5-0.3,0.9-0.8,0.9c-0.4,0-0.7-0.4-0.7-0.9
				C239.5,167.2,239.8,166.8,240.2,166.8z"/>
			<path class="st5" d="M245.8,163.7c-0.4-0.2-0.8-0.4-1.3-0.4c-0.8,0-1.6,0.7-1.6,2c0.4-0.4,1-0.9,1.7-0.9c1.2,0,1.9,1,1.9,1.9
				c0,1.3-0.9,2.2-2.1,2.2c-1.3,0-2.5-1.1-2.5-3.1c0-2.1,1.3-3.4,2.6-3.4c0.8,0,1.4,0.4,1.8,0.5L245.8,163.7z M243,166.1
				c0.2,0.8,0.8,1.3,1.4,1.3c0.6,0,1-0.5,1-1c0-0.4-0.2-0.8-0.9-0.8C243.9,165.5,243.4,165.8,243,166.1z"/>
		</g>
	</g>
</g>
</svg>
