<?xml version="1.0" encoding="utf-8"?>
<!-- Generator: Adobe Illustrator 26.0.3, SVG Export Plug-In . SVG Version: 6.00 Build 0)  -->
<svg version="1.1" xmlns="http://www.w3.org/2000/svg" xmlns:xlink="http://www.w3.org/1999/xlink" x="0px" y="0px"
	 viewBox="0 0 720 480" style="enable-background:new 0 0 720 480;" xml:space="preserve">
<style type="text/css">
	.st0{fill:#DBD4CA;}
	.st1{opacity:0.3;}
	.st2{opacity:0.7;fill:#C49F8A;enable-background:new    ;}
	.st3{fill:#C49F8A;}
	.st4{clip-path:url(#SVGID_00000044177216638624149870000015733735046564984201_);}
	.st5{fill:none;stroke:#C49F8A;stroke-miterlimit:10;}
	.st6{opacity:0.3;clip-path:url(#SVGID_00000106837035724665468640000013616562208205543818_);}
	.st7{fill:none;stroke:#565440;}
	.st8{fill:#565440;}
	.st9{fill:#E9E4DC;}
	.st10{fill:#E9E4DC;stroke:#C49F8A;stroke-linejoin:round;}
	.st11{fill:#E9E4DC;stroke:#C49F8A;}
	.st12{fill:none;stroke:#C49F8A;}
	.st13{fill:#E9E4DC;stroke:#C49F8A;stroke-width:1;stroke-miterlimit:3.9998;}
	.st14{fill:#E9E4DC;stroke:#C49F8A;stroke-width:1;stroke-miterlimit:4;}
	.st15{opacity:0;}
	.st16{fill:#3F3F3F;fill-opacity:0;}
</style>
<g id="_x31__x5F_2">
	<polygon id="Floor_1_" class="st0" points="330.6,143.7 313.8,143.7 313.8,183.4 268.3,183.4 268.3,415.1 450.5,415.1 450.5,209 
		450.5,182 450.5,160.4 450.5,143.2 450.5,64.1 330.6,64.1 	"/>
	<g id="Wet_Floor_1_">
		<g id="Wet_Floor">
			<g class="st1">
				<rect x="271.2" y="240.4" class="st2" width="48.5" height="66"/>
			</g>
			<path class="st3" d="M319.7,295.5v-1.4l-7,7l-9.8-9.8l9.8-9.8l7,7v-1.4l-6.3-6.3l6.3-6.3v-1.4l-7,7l-9.7-9.7l9.7-9.7l7,7v-1.4
				l-6.3-6.3l6.3-6.3v-1.5l-7.1,7.1l-9.8-9.8l9.1-9.1h-1.4l-8.4,8.4l-8.4-8.4h-1.4l9.1,9.1l-9.7,9.7l-10-10l8.8-8.8h-1.4l-8.1,8.1
				l-8.1-8.1h-1.4l8.8,8.8l-9.1,9.1v2.8l9.3,9.3l-9.3,9.3v2.8l9.1,9.1l-9.1,9.1v2.8l2.9,2.9h1.5l-4.3-4.3l9.8-9.8l9.7,9.7l-4.4,4.4
				h1.4l3.7-3.7l3.7,3.7h1.4l-4.4-4.4l10-10l9.8,9.8l-4.6,4.6h1.4l3.9-3.9l3.9,3.9h1.4l-4.6-4.6L319.7,295.5z M302.2,250.2l9.8,9.8
				l-9.7,9.7l-9.8-9.8L302.2,250.2z M291.8,260.6l9.8,9.8l-9.8,9.8l-9.8-9.8L291.8,260.6z M271.2,259.7l9.8-9.8l10,10l-9.8,9.8
				L271.2,259.7z M271.3,281.1l10-10l9.8,9.8l-10,10L271.3,281.1z M291.5,301.3l-9.7-9.7l10-10l9.7,9.7L291.5,301.3z M292.5,280.9
				l9.8-9.8l9.7,9.7l-9.8,9.8L292.5,280.9z"/>
			<polygon class="st3" points="319.7,245.4 314.7,240.4 313.3,240.4 319.7,246.8 			"/>
		</g>
		<g id="Wet_Floor_2_">
			<g>
				<g>
					<g>
						<defs>
							<rect id="SVGID_1_" x="330.5" y="60.5" width="69.2" height="58"/>
						</defs>
						<clipPath id="SVGID_00000109719798632110619630000002483293544194180012_">
							<use xlink:href="#SVGID_1_"  style="overflow:visible;"/>
						</clipPath>
						<g style="clip-path:url(#SVGID_00000109719798632110619630000002483293544194180012_);">
							<g>
								<line class="st5" x1="168.5" y1="242.5" x2="502" y2="-91"/>
								<line class="st5" x1="158.1" y1="232" x2="491.6" y2="-101.4"/>
								<line class="st5" x1="178.9" y1="252.9" x2="512.4" y2="-80.6"/>
								<line class="st5" x1="189.4" y1="263.3" x2="522.9" y2="-70.2"/>
								<line class="st5" x1="199.8" y1="273.7" x2="533.3" y2="-59.7"/>
								<line class="st5" x1="210.2" y1="284.2" x2="543.7" y2="-49.3"/>
								<line class="st5" x1="220.6" y1="294.6" x2="554.1" y2="-38.9"/>
								<line class="st5" x1="231.1" y1="305" x2="564.5" y2="-28.5"/>
								<line class="st5" x1="241.5" y1="315.4" x2="575" y2="-18.1"/>
								<line class="st5" x1="251.9" y1="325.8" x2="585.4" y2="-7.6"/>
								<line class="st5" x1="241.5" y1="315.4" x2="575" y2="-18.1"/>
								<line class="st5" x1="262.3" y1="336.3" x2="595.8" y2="2.8"/>
								<line class="st5" x1="272.7" y1="346.7" x2="606.2" y2="13.2"/>
								<line class="st5" x1="283.2" y1="357.1" x2="616.6" y2="23.6"/>
								<line class="st5" x1="293.6" y1="367.5" x2="627.1" y2="34"/>
								<line class="st5" x1="304" y1="377.9" x2="637.5" y2="44.5"/>
								<line class="st5" x1="314.4" y1="388.4" x2="647.9" y2="54.9"/>
								<line class="st5" x1="324.8" y1="398.8" x2="658.3" y2="65.3"/>
								<line class="st5" x1="335.3" y1="409.2" x2="668.8" y2="75.7"/>
								<line class="st5" x1="324.8" y1="398.8" x2="658.3" y2="65.3"/>
								<line class="st5" x1="345.7" y1="419.6" x2="679.2" y2="86.2"/>
								<line class="st5" x1="356.1" y1="430.1" x2="689.6" y2="96.6"/>
								<line class="st5" x1="366.5" y1="440.5" x2="700" y2="107"/>
								<line class="st5" x1="377" y1="450.9" x2="710.4" y2="117.4"/>
								<line class="st5" x1="387.4" y1="461.3" x2="720.9" y2="127.8"/>
								<line class="st5" x1="397.8" y1="471.7" x2="731.3" y2="138.3"/>
								<line class="st5" x1="408.2" y1="482.2" x2="741.7" y2="148.7"/>
								<line class="st5" x1="418.6" y1="492.6" x2="752.1" y2="159.1"/>
								<line class="st5" x1="408.2" y1="482.2" x2="741.7" y2="148.7"/>
								<line class="st5" x1="429.1" y1="503" x2="762.5" y2="169.5"/>
								<line class="st5" x1="439.5" y1="513.4" x2="773" y2="179.9"/>
								<line class="st5" x1="449.9" y1="523.8" x2="783.4" y2="190.4"/>
								<line class="st5" x1="460.3" y1="534.3" x2="793.8" y2="200.8"/>
								<line class="st5" x1="470.7" y1="544.7" x2="804.2" y2="211.2"/>
								<line class="st5" x1="481.2" y1="555.1" x2="814.7" y2="221.6"/>
								<line class="st5" x1="491.6" y1="565.5" x2="825.1" y2="232"/>
							</g>
							<g>
								<line class="st5" x1="502" y1="555.1" x2="168.5" y2="221.6"/>
								<line class="st5" x1="491.6" y1="565.5" x2="158.1" y2="232"/>
								<line class="st5" x1="512.4" y1="544.7" x2="178.9" y2="211.2"/>
								<line class="st5" x1="522.9" y1="534.3" x2="189.4" y2="200.8"/>
								<line class="st5" x1="533.3" y1="523.8" x2="199.8" y2="190.4"/>
								<line class="st5" x1="543.7" y1="513.4" x2="210.2" y2="179.9"/>
								<line class="st5" x1="554.1" y1="503" x2="220.6" y2="169.5"/>
								<line class="st5" x1="564.5" y1="492.6" x2="231.1" y2="159.1"/>
								<line class="st5" x1="575" y1="482.2" x2="241.5" y2="148.7"/>
								<line class="st5" x1="585.4" y1="471.7" x2="251.9" y2="138.3"/>
								<line class="st5" x1="575" y1="482.2" x2="241.5" y2="148.7"/>
								<line class="st5" x1="595.8" y1="461.3" x2="262.3" y2="127.8"/>
								<line class="st5" x1="606.2" y1="450.9" x2="272.7" y2="117.4"/>
								<line class="st5" x1="616.6" y1="440.5" x2="283.2" y2="107"/>
								<line class="st5" x1="627.1" y1="430.1" x2="293.6" y2="96.6"/>
								<line class="st5" x1="637.5" y1="419.6" x2="304" y2="86.2"/>
								<line class="st5" x1="647.9" y1="409.2" x2="314.4" y2="75.7"/>
								<line class="st5" x1="658.3" y1="398.8" x2="324.8" y2="65.3"/>
								<line class="st5" x1="668.8" y1="388.4" x2="335.3" y2="54.9"/>
								<line class="st5" x1="658.3" y1="398.8" x2="324.8" y2="65.3"/>
								<line class="st5" x1="679.2" y1="377.9" x2="345.7" y2="44.5"/>
								<line class="st5" x1="689.6" y1="367.5" x2="356.1" y2="34"/>
								<line class="st5" x1="700" y1="357.1" x2="366.5" y2="23.6"/>
								<line class="st5" x1="710.4" y1="346.7" x2="377" y2="13.2"/>
								<line class="st5" x1="720.9" y1="336.3" x2="387.4" y2="2.8"/>
								<line class="st5" x1="731.3" y1="325.8" x2="397.8" y2="-7.6"/>
								<line class="st5" x1="741.7" y1="315.4" x2="408.2" y2="-18.1"/>
								<line class="st5" x1="752.1" y1="305" x2="418.6" y2="-28.5"/>
								<line class="st5" x1="741.7" y1="315.4" x2="408.2" y2="-18.1"/>
								<line class="st5" x1="762.5" y1="294.6" x2="429.1" y2="-38.9"/>
								<line class="st5" x1="773" y1="284.2" x2="439.5" y2="-49.3"/>
								<line class="st5" x1="783.4" y1="273.7" x2="449.9" y2="-59.7"/>
								<line class="st5" x1="793.8" y1="263.3" x2="460.3" y2="-70.2"/>
								<line class="st5" x1="804.2" y1="252.9" x2="470.7" y2="-80.6"/>
								<line class="st5" x1="814.7" y1="242.5" x2="481.2" y2="-91"/>
								<line class="st5" x1="825.1" y1="232" x2="491.6" y2="-101.4"/>
							</g>
						</g>
					</g>
				</g>
			</g>
			<g>
				<g>
					<g>
						<defs>
							<rect id="SVGID_00000181050425598266623120000007052736241567353995_" x="330.5" y="60.5" width="69.2" height="58"/>
						</defs>
						<clipPath id="SVGID_00000005969596618364501090000008769415217602988195_">
							<use xlink:href="#SVGID_00000181050425598266623120000007052736241567353995_"  style="overflow:visible;"/>
						</clipPath>
						<g style="opacity:0.3;clip-path:url(#SVGID_00000005969596618364501090000008769415217602988195_);">
							<rect x="330.5" y="60.5" class="st2" width="322.2" height="322.2"/>
						</g>
					</g>
				</g>
			</g>
		</g>
	</g>
	<path id="Windows" class="st7" d="M450.6,414.9H268.3v3.8h186V167h-3.8L450.6,414.9L450.6,414.9z"/>
	<g id="Walls">
		<polygon class="st8" points="377.6,407.4 354.9,407.4 352.4,407.4 324.7,407.4 324.7,419.9 377.6,419.9 395.2,419.9 395.2,402.3 
			377.6,402.3 		"/>
		<rect x="435.5" y="364.6" class="st8" width="20.1" height="17.6"/>
		<polygon class="st8" points="443,203.5 443,207.3 359.5,207.3 359.5,209.8 360.8,209.8 360.8,249.3 363.4,249.3 363.4,209.8 
			443,209.8 443,221.1 455.6,221.1 455.6,203.5 		"/>
		<path class="st8" d="M334.8,209.8h5.5v-2.5h-3v-18.9h0v0h-17.6v-37.8h17.6v-7.6v-24.5h7.2V116h-7.2V81.4h6.9h1.3h1.3v-8.8h51.8
			V116h-34.8v2.5h50.5V116H401V72.6h37V116h-4.6v2.5h4.6v49.7h17.6V60H329.7v83.1h-17.6v40.3h-13v7.6h35.7V209.8z M344.2,72.6v6.3
			h-6.9v-6.3H344.2z"/>
		<path class="st8" d="M271.9,306.7h55.4v-2.5h-7.6V281h-2.5v23.2h-36.8v-7.6h-1.3h-1.3h-6v-55.3h45.3v20.6h2.5v-23.1h-47.8v-47.8h3
			v-7.6h-10.6v236.6H287v-17.6h-15.1V306.7z M277.9,299.1v5.1h-6v-5.1H277.9z"/>
		<polygon class="st8" points="360.8,271.7 360.8,304.2 360.8,306.7 363.4,306.7 443,306.7 443,316.7 455.6,316.7 455.6,246.3 
			438,246.3 438,263.9 443,263.9 443,304.2 363.4,304.2 363.4,271.7 		"/>
	</g>
	<path id="Doors" class="st7" d="M319.7,261.4c2.8,0,5,0.5,7.6,1.5c2.5,1,4.8,2.5,6.5,4.3c2,1.8,3.5,4,4.5,6.5c1,2.5,1.5,5,1.5,7.8
		h-20.1 M363.4,272.1c2.7,0,4.9-0.6,7.4-1.7c2.5-1.2,4.7-2.9,6.4-5c2-2,3.4-4.7,4.4-7.6c1-2.9,1.5-5.8,1.5-9h-19.6 M413.7,118.6
		c0,2.8,0.5,5,1.5,7.6s2.5,4.8,4.3,6.5c1.8,2,4,3.5,6.5,4.5c2.5,1,5,1.5,7.8,1.5v-20.1 M364.2,118.6c0,2.8-0.5,5-1.5,7.6
		s-2.5,4.8-4.3,6.5c-1.8,2-4,3.5-6.5,4.5c-2.5,1-5,1.5-7.8,1.5v-20.1 M359.9,207.4c0-2.8-0.5-5-1.5-7.6c-1-2.5-2.5-4.8-4.3-6.5
		c-1.8-2-4-3.5-6.5-4.5c-2.5-1-5-1.5-7.8-1.5v20.1 M299.5,190.9c0,3.3-0.8,6.3-2,9.3c-1.3,3-3,6-5.5,8.3c-2.3,2.3-5,4.3-8.1,5.5
		c-3,1.3-6.3,2-9.6,2v-25.2"/>
	<g id="Furniture_1_">
		<g>
			<rect x="280.9" y="298.7" class="st9" width="35.8" height="5"/>
			<path class="st3" d="M316.2,299.2v4h-34.8v-4H316.2 M317.2,298.2h-36.8v6h36.8V298.2L317.2,298.2z"/>
		</g>
		<g>
			<g>
				<rect x="272.4" y="241.7" class="st9" width="44.3" height="17.9"/>
				<path class="st3" d="M272.9,242.2h43.3v16.9h-43.3V242.2 M271.9,241.2v18.9h45.3v-18.9L271.9,241.2L271.9,241.2z"/>
			</g>
			<g>
				<g>
					<path class="st10" d="M276.1,250.6c0,3.5,3,6.2,6.4,5.8c3.8-0.3,8.5-0.7,12.1-0.7c3.5,0,8.3,0.3,12.1,0.7
						c3.4,0.3,6.4-2.4,6.4-5.8c0-3.4-3-6.2-6.4-5.8c-3.8,0.3-8.5,0.7-12.1,0.7c-3.5,0-8.3-0.3-12.1-0.7
						C279.1,244.4,276.1,247.1,276.1,250.6z"/>
					<ellipse class="st10" cx="282.1" cy="250.6" rx="1.1" ry="1.1"/>
				</g>
			</g>
		</g>
		<g id="Sink_2_2_">
			<g id="Rectangle_16_x5F_11_2_">
				<rect x="272.4" y="259.6" class="st9" width="11.2" height="18.6"/>
				<path class="st3" d="M283.1,260.1v17.6h-10.2v-17.6H283.1 M284.1,259.1h-12.2v19.6h12.2V259.1L284.1,259.1z"/>
			</g>
			<path id="Rectangle_19_x5F_5_2_" class="st11" d="M278,275.2L278,275.2c2,0,3.6-1.6,3.6-3.6v-5.2c0-2-1.6-3.6-3.6-3.6l0,0
				c-2,0-3.6,1.6-3.6,3.6v5.2C274.3,273.5,276,275.2,278,275.2z"/>
			<circle id="Ellipse_7_x5F_2_2_" class="st11" cx="276.9" cy="268.9" r="1.1"/>
		</g>
		<g id="Toilet_2_">
			<g id="Rectangle_21_2_">
				<rect x="300" y="295.3" class="st9" width="12" height="3.4"/>
				<path class="st3" d="M311.5,295.8v2.4h-11v-2.4H311.5 M312.5,294.8h-13v4.4h13V294.8L312.5,294.8z"/>
			</g>
			<path id="Rectangle_19_x5F_2_2_" class="st11" d="M310.5,287c0.2-2.6-1.9-4.8-4.5-4.8l0,0c-2.6,0-4.7,2.2-4.5,4.8l0.6,8.3h7.9
				L310.5,287z"/>
			<path id="Rectangle_18_x5F_13_2_" class="st11" d="M309.1,287.1c0.2-1.9-1.3-3.4-3.1-3.4l0,0c-1.9,0-3.3,1.6-3.1,3.4l0.5,5h5.4
				L309.1,287.1z"/>
			<ellipse id="Ellipse_6_x5F_2_2_" class="st11" cx="306" cy="289.5" rx="1.1" ry="1.1"/>
		</g>
		<g>
			<g>
				<rect x="272.4" y="278.2" class="st9" width="11.2" height="17.8"/>
				<path class="st3" d="M283.1,278.7v16.8h-10.2v-16.8H283.1 M284.1,277.7h-12.2v18.8h12.2V277.7L284.1,277.7z"/>
			</g>
			<g>
				<path class="st9" d="M277.5,290.3c-1.8,0-3.2-1.4-3.2-3.2s1.4-3.2,3.2-3.2c1.8,0,3.2,1.4,3.2,3.2S279.3,290.3,277.5,290.3z"/>
				<path class="st3" d="M277.5,283.4v1c1.5,0,2.7,1.2,2.7,2.7s-1.2,2.7-2.7,2.7s-2.7-1.2-2.7-2.7s1.2-2.7,2.7-2.7V283.4
					 M277.5,283.4c-2,0-3.7,1.7-3.7,3.7s1.7,3.7,3.7,3.7s3.7-1.7,3.7-3.7S279.6,283.4,277.5,283.4L277.5,283.4z"/>
			</g>
		</g>
		<g>
			<g>
				<rect x="272.3" y="224.3" class="st9" width="42.1" height="7.6"/>
				<path class="st3" d="M313.9,224.8v6.6h-41.1v-6.6H313.9 M314.9,223.8h-43.1v8.6h43.1V223.8L314.9,223.8z"/>
			</g>
			<g>
				<rect x="272.3" y="226" class="st9" width="42.1" height="12.2"/>
				<path class="st3" d="M313.9,226.5v11.2h-41.1v-11.2H313.9 M314.9,225.5h-43.1v13.2h43.1V225.5L314.9,225.5z"/>
			</g>
			<path class="st11" d="M314.5,238.2l-42.6-12.3"/>
		</g>
		<g>
			<path class="st11" d="M383.4,359H419v25.9h-35.6V359z"/>
			<path class="st11" d="M408.4,356.9v-0.6c0-4-3.2-7.2-7.2-7.2c-4,0-7.2,3.2-7.2,7.2v0.6H408.4z"/>
			<path class="st11" d="M406.6,359v-2.7c0-3-2.4-5.4-5.4-5.4c-3,0-5.4,2.4-5.4,5.4v2.7H406.6z"/>
			<path class="st11" d="M408.4,387v0.6c0,4-3.2,7.2-7.2,7.2c-4,0-7.2-3.2-7.2-7.2V387H408.4z"/>
			<path class="st11" d="M406.6,384.9v2.7c0,3-2.4,5.4-5.4,5.4c-3,0-5.4-2.4-5.4-5.4v-2.7H406.6z"/>
			<path class="st11" d="M421.1,364.8h0.6c4,0,7.2,3.2,7.2,7.2c0,4-3.2,7.2-7.2,7.2h-0.6V364.8z"/>
			<path class="st11" d="M419,366.5h2.7c3,0,5.4,2.4,5.4,5.4c0,3-2.4,5.4-5.4,5.4H419V366.5z"/>
			<path class="st11" d="M381.3,364.8h-0.6c-4,0-7.2,3.2-7.2,7.2c0,4,3.2,7.2,7.2,7.2h0.6V364.8z"/>
			<path class="st11" d="M383.4,366.5h-2.7c-3,0-5.4,2.4-5.4,5.4c0,3,2.4,5.4,5.4,5.4h2.7V366.5z"/>
		</g>
		<g id="TV">
			<g id="Rectangle_16">
				<rect x="373.3" y="122.6" class="st9" width="37.2" height="5"/>
				<path class="st3" d="M410,123.1v4h-36.2v-4H410 M411,122.1h-38.2v6H411V122.1L411,122.1z"/>
			</g>
			<g id="Rectangle_15">
				<rect x="373.3" y="119.1" class="st9" width="37.2" height="6.7"/>
				<path class="st3" d="M410,119.6v5.7h-36.2v-5.7H410 M411,118.6h-38.2v7.7H411V118.6L411,118.6z"/>
			</g>
			<rect id="Rectangle_17" x="379.2" y="120.7" class="st11" width="25.4" height="1.7"/>
			<path id="Rectangle_18_x5F_2" class="st11" d="M397.3,120.7h-10.7l1-1.6h8.8L397.3,120.7z"/>
		</g>
		<g>
			<g>
				<path class="st9" d="M365.6,341.8v-30.5h14.2V341c0,0.5-0.4,0.8-0.8,0.8H365.6z"/>
				<path class="st3" d="M379.3,311.8l0,29.2c0,0.2-0.1,0.3-0.3,0.3h-12.9l0-29.5H379.3 M380.3,310.8h-15.2l0,31.5H379
					c0.7,0,1.3-0.6,1.3-1.3L380.3,310.8L380.3,310.8z"/>
			</g>
			<g>
				<path class="st9" d="M380.7,325.5c-0.5,0-0.9-0.4-0.9-0.8v-13.5h23.3v13.5c0,0.5-0.4,0.8-0.9,0.8H380.7z"/>
				<path class="st3" d="M402.7,311.7v13c0,0.2-0.2,0.3-0.4,0.3l-21.6,0c-0.2,0-0.4-0.1-0.4-0.3v-13H402.7 M403.7,310.7h-24.3v14
					c0,0.7,0.6,1.3,1.4,1.3l21.6,0c0.8,0,1.4-0.6,1.4-1.3V310.7L403.7,310.7z"/>
			</g>
			<g>
				<path class="st9" d="M404,325.5c-0.5,0-0.8-0.4-0.8-0.8v-13.5h22.7v13.5c0,0.5-0.4,0.8-0.8,0.8H404z"/>
				<path class="st3" d="M425.4,311.7v13c0,0.2-0.1,0.3-0.3,0.3h-21c-0.2,0-0.3-0.1-0.3-0.3v-13H425.4 M426.4,310.7h-23.7v14
					c0,0.7,0.6,1.3,1.3,1.3h21c0.7,0,1.3-0.6,1.3-1.3V310.7L426.4,310.7z"/>
			</g>
			<g>
				<polygon class="st9" points="361.3,345.9 361.3,307.1 429.7,307.1 429.7,326.6 425.9,326.6 425.9,311.2 365.6,311.2 
					365.6,341.8 380.9,341.8 380.9,345.9 				"/>
				<path class="st3" d="M429.2,307.6v18.4h-2.8l0-14.3v-1h-1l-59.3,0h-1v1l0,29.6v1h1h14.3v3.1l-18.5,0v-37.8H429.2 M430.2,306.6
					h-69.4v39.8l20.5,0v-5.1h-15.3l0-29.6l59.3,0l0,15.3h4.8V306.6L430.2,306.6z"/>
			</g>
		</g>
		<g>
			<polygon class="st9" points="272.4,401.8 272.4,307.2 326.7,307.2 326.7,324 289.2,324 289.2,401.8 			"/>
			<path class="st3" d="M326.2,307.7v15.9h-36.5h-1v1v76.8h-15.9v-76.8v-16.9H326.2 M327.2,306.7h-55.4v0v17.8v77.8h17.9v-77.8h37.5
				V306.7L327.2,306.7z"/>
		</g>
		<g id="Rectangle_26">
			<rect x="272.4" y="330.3" class="st9" width="16.9" height="24.1"/>
			<path class="st3" d="M288.7,330.8v23.1h-15.9v-23.1H288.7 M289.7,329.8h-17.9v25.1h17.9V329.8L289.7,329.8z"/>
		</g>
		<g id="Oven">
			<g id="Rectangle_28">
				<rect x="289.2" y="372.9" class="st9" width="1.8" height="12.4"/>
				<path class="st3" d="M290.6,373.4v11.4h-0.8v-11.4H290.6 M291.6,372.4l-2.8,0v13.4l2.8,0V372.4L291.6,372.4z"/>
			</g>
			<g id="Rectangle_29">
				<rect x="272.4" y="370.3" class="st9" width="16.9" height="17.5"/>
				<path class="st3" d="M288.7,370.8v16.5h-15.9v-16.5L288.7,370.8 M289.7,369.8l-17.9,0v18.5h17.9V369.8L289.7,369.8z"/>
			</g>
		</g>
		<g id="Sink_3">
			<rect id="Rectangle_28_x5F_2" x="293.7" y="308.9" class="st11" width="21.2" height="13.4"/>
			<path id="Rectangle_29_x5F_2" class="st11" d="M306.6,315.6L306.6,315.6c0,2.8-2.2,5-5,5h-1.1c-2.8,0-5-2.2-5-5l0,0
				c0-2.8,2.2-5,5-5h1.1C304.3,310.6,306.6,312.8,306.6,315.6z"/>
			<ellipse id="Ellipse_7_x5F_3" class="st11" cx="301" cy="313.3" rx="1.1" ry="1.1"/>
			<path id="Vector_2" class="st12" d="M313.8,310.6h-5.6 M313.8,312.2l-5.6,0 M313.8,313.9h-5.6 M313.8,315.6h-5.6 M313.8,317.3
				h-5.6 M313.8,318.9h-5.6 M313.8,320.6h-5.6"/>
		</g>
		<g id="Stove">
			<g id="Rectangle_25">
				<rect x="272.4" y="330" class="st9" width="16.9" height="16.4"/>
				<path class="st3" d="M288.7,330.5v15.4h-15.9v-15.4H288.7 M289.7,329.5h-17.9v17.4h17.9V329.5L289.7,329.5z"/>
			</g>
			<g id="Rectangle_28_x5F_3">
				<rect x="287.4" y="330" class="st9" width="1.8" height="16.4"/>
				<path class="st3" d="M288.7,330.5v15.4h-0.8v-15.4H288.7 M289.7,329.5h-2.8v17.4h2.8V329.5L289.7,329.5z"/>
			</g>
			<g id="Ellipse_7_x5F_4">
				<path class="st9" d="M283,336.7c-1,0-1.7-0.8-1.7-1.7s0.8-1.7,1.7-1.7s1.7,0.8,1.7,1.7S284,336.7,283,336.7z"/>
				<path class="st3" d="M283,333.7c0.7,0,1.2,0.6,1.2,1.2c0,0.7-0.6,1.2-1.2,1.2c-0.7,0-1.2-0.6-1.2-1.2
					C281.8,334.3,282.3,333.7,283,333.7 M283,332.7c-1.2,0-2.2,1-2.2,2.2c0,1.2,1,2.2,2.2,2.2c1.2,0,2.2-1,2.2-2.2
					C285.3,333.7,284.3,332.7,283,332.7L283,332.7z"/>
			</g>
			<g id="Ellipse_9">
				<circle class="st9" cx="276.9" cy="334.9" r="2.3"/>
				<path class="st3" d="M276.9,333.1c1,0,1.8,0.8,1.8,1.8s-0.8,1.8-1.8,1.8s-1.8-0.8-1.8-1.8S275.9,333.1,276.9,333.1 M276.9,332.1
					c-1.5,0-2.8,1.2-2.8,2.8s1.2,2.8,2.8,2.8s2.8-1.2,2.8-2.8S278.4,332.1,276.9,332.1L276.9,332.1z"/>
			</g>
			<g id="Ellipse_10">
				<circle class="st9" cx="283" cy="341.7" r="2.3"/>
				<path class="st3" d="M283,339.9c1,0,1.8,0.8,1.8,1.8c0,1-0.8,1.8-1.8,1.8c-1,0-1.8-0.8-1.8-1.8C281.2,340.7,282,339.9,283,339.9
					 M283,338.9c-1.5,0-2.8,1.2-2.8,2.8c0,1.5,1.2,2.8,2.8,2.8c1.5,0,2.8-1.2,2.8-2.8C285.8,340.1,284.6,338.9,283,338.9L283,338.9z
					"/>
			</g>
			<g id="Ellipse_8">
				<path class="st9" d="M276.3,343.4c-1,0-1.7-0.8-1.7-1.7s0.8-1.7,1.7-1.7s1.7,0.8,1.7,1.7S277.3,343.4,276.3,343.4z"/>
				<path class="st3" d="M276.3,340.5c0.7,0,1.2,0.6,1.2,1.2c0,0.7-0.6,1.2-1.2,1.2c-0.7,0-1.2-0.6-1.2-1.2
					C275.1,341,275.6,340.5,276.3,340.5 M276.3,339.5c-1.2,0-2.2,1-2.2,2.2c0,1.2,1,2.2,2.2,2.2s2.2-1,2.2-2.2
					C278.6,340.5,277.6,339.5,276.3,339.5L276.3,339.5z"/>
			</g>
		</g>
		<g>
			<g id="Rectangle_27">
				<rect x="272.4" y="353.5" class="st9" width="16.9" height="16.8"/>
				<path class="st3" d="M288.7,354v15.9h-15.9V354L288.7,354 M289.7,353l-17.9,0v17.9h17.9V353L289.7,353z"/>
			</g>
			<path id="Vector_3" class="st12" d="M280.8,359.7v4.5 M282.7,360.8l-3.9,2.2 M278.8,360.8l3.9,2.2"/>
		</g>
		<g>
			<g>
				<rect x="380.9" y="73.1" class="st9" width="17.1" height="42.4"/>
				<path class="st3" d="M397.5,73.6V115h-16.1l0-41.4H397.5 M398.5,72.6h-18.1l0,43.4h18.1V72.6L398.5,72.6z"/>
			</g>
			<g>
				<g>
					<path class="st10" d="M389.4,76.6c-3.3,0-5.9,2.9-5.6,6.1c0.3,3.6,0.6,8.2,0.6,11.6c0,3.4-0.3,7.9-0.6,11.6
						c-0.3,3.3,2.3,6.1,5.6,6.1s5.9-2.9,5.6-6.1c-0.3-3.6-0.6-8.2-0.6-11.6c0-3.4,0.3-7.9,0.6-11.6
						C395.3,79.5,392.7,76.6,389.4,76.6z"/>
					<path class="st10" d="M389.4,81.3c0.6,0,1.1,0.5,1.1,1.1s-0.5,1.1-1.1,1.1s-1.1-0.5-1.1-1.1S388.8,81.3,389.4,81.3z"/>
				</g>
			</g>
		</g>
		<g id="Sink_2_1_">
			<g id="Rectangle_16_x5F_11_1_">
				<rect x="361.9" y="73.1" class="st9" width="19" height="11.6"/>
				<path class="st3" d="M380.4,73.6v10.6h-18V73.6H380.4 M381.4,72.6h-20v12.6h20V72.6L381.4,72.6z"/>
			</g>
			<path id="Rectangle_19_x5F_5_1_" class="st11" d="M364.8,78.9L364.8,78.9c0,2.1,1.7,3.9,3.9,3.9h5.5c2.1,0,3.9-1.7,3.9-3.9l0,0
				c0-2.1-1.7-3.9-3.9-3.9l-5.5,0C366.5,75,364.8,76.8,364.8,78.9z"/>
			<circle id="Ellipse_7_x5F_2_1_" class="st11" cx="371.4" cy="77.7" r="1.1"/>
		</g>
		<g>
			<g>
				<rect x="401.5" y="87.2" class="st9" width="36" height="1.8"/>
				<path class="st3" d="M437,87.7v0.8h-35v-0.8H437 M438,86.7h-37v2.8h37V86.7L438,86.7z"/>
			</g>
			<g>
				<rect x="401.5" y="73.1" class="st9" width="36" height="14.1"/>
				<path class="st3" d="M402,73.6l35,0v13.1h-35V73.6 M401,72.6v15.1h37V72.6L401,72.6L401,72.6z"/>
			</g>
			<path class="st11" d="M437.8,73.2L401.1,87"/>
		</g>
		<g>
			<g>
				<rect x="372.1" y="159.8" class="st9" width="39.7" height="47.1"/>
				<path class="st3" d="M372.6,160.3l38.7,0v46.1h-38.7V160.3 M371.6,159.3v48.1h40.7v-48.1L371.6,159.3L371.6,159.3z"/>
			</g>
			<rect x="375" y="192.1" class="st11" width="15.9" height="11.9"/>
			<rect x="392.9" y="192.1" class="st11" width="15.9" height="11.9"/>
			
				<rect x="378.3" y="186.8" transform="matrix(0.2588 -0.9659 0.9659 0.2588 98.6771 514.0093)" class="st13" width="11.9" height="11.9"/>
			
				<rect x="393.7" y="186.8" transform="matrix(0.9659 -0.2588 0.2588 0.9659 -36.2562 109.9973)" class="st13" width="11.9" height="11.9"/>
			<g>
				<polygon class="st9" points="372.1,194.4 372.1,159.3 411.8,159.3 411.8,196.8 396,197.8 				"/>
				<path class="st3" d="M372.6,159.8l38.7,0v36.5l-15.2,0.9l-23.4-3.4V159.8 M371.6,158.8v35.7v0.3l24.4,3.5l16.3-1v-0.8v-37.7
					L371.6,158.8L371.6,158.8z"/>
			</g>
			<polyline class="st12" points="411.7,196.1 395.8,196.1 372,194.1 			"/>
		</g>
		<g>
			<path class="st11" d="M348.1,162.8l0,12.2l-11.1,1.6l0-15.5L348.1,162.8z"/>
			<g>
				<rect x="320.2" y="151.1" class="st9" width="17.8" height="36.8"/>
				<path class="st3" d="M337.5,151.6l0,35.8h-16.8v-35.8H337.5 M338.5,150.6h-18.8v37.8h18.8L338.5,150.6L338.5,150.6z"/>
			</g>
			<path class="st12" d="M333.3,164.8l0,9.4 M335.1,164l0,11.1l-3.3,0l0-11.1L335.1,164z"/>
			<path class="st14" d="M335.3,159.4L335.3,159.4c0,0.5-0.4,0.8-0.8,0.8l-1.1,0c-0.5,0-0.8-0.4-0.8-0.8l0,0c0-0.5,0.4-0.8,0.8-0.8
				l1.1,0C334.9,158.6,335.3,159,335.3,159.4z"/>
			<path class="st11" d="M326.4,166.8c1.5,0,2.8,1.2,2.8,2.8c0,1.5-1.2,2.8-2.8,2.8l-2.8,0l0-5.5L326.4,166.8z"/>
			<g>
				<polygon class="st9" points="323.3,183.4 323.4,155.6 325.1,155.6 325,183.4 				"/>
				<path class="st3" d="M323.9,156.1l0.7,0l-0.1,26.8l-0.7,0L323.9,156.1 M322.9,155.1l-0.1,28.8l2.7,0l0.1-28.8L322.9,155.1
					L322.9,155.1z"/>
			</g>
			<g>
				<rect x="338.5" y="163.1" class="st9" width="9.7" height="11.6"/>
				<path class="st3" d="M347.7,163.6v10.6H339v-10.6H347.7 M348.7,162.6H338v12.6h10.7V162.6L348.7,162.6z"/>
			</g>
			<g>
				<rect x="348.2" y="162.9" class="st9" width="1.8" height="12"/>
				<path class="st3" d="M349.6,163.4v11h-0.8v-11H349.6 M350.6,162.4h-2.8v13h2.8V162.4L350.6,162.4z"/>
			</g>
		</g>
		<g>
			<g>
				<rect x="322.9" y="191.4" class="st9" width="3.8" height="17.9"/>
				<path class="st3" d="M326.3,191.9l0,16.9h-2.8v-16.9H326.3 M327.3,190.9h-4.8v18.9h4.8L327.3,190.9L327.3,190.9z"/>
			</g>
			<g>
				<rect x="325" y="191.4" class="st9" width="9.3" height="17.9"/>
				<path class="st3" d="M333.8,191.9v16.9h-8.3v-16.9H333.8 M334.8,190.9h-10.3v18.9h10.3V190.9L334.8,190.9z"/>
			</g>
			<path class="st11" d="M334.1,209.6l-9-18.6"/>
		</g>
		<g>
			<g>
				<rect x="386" y="210.3" class="st9" width="39.7" height="47.1"/>
				<path class="st3" d="M425.1,210.8v46.1l-38.7,0v-46.1H425.1 M426.1,209.8h-40.7v48.1l40.7,0V209.8L426.1,209.8z"/>
			</g>
			<rect x="406.8" y="213.3" class="st11" width="15.9" height="11.9"/>
			<rect x="388.9" y="213.3" class="st11" width="15.9" height="11.9"/>
			
				<rect x="407.5" y="218.6" transform="matrix(0.2588 -0.9659 0.9659 0.2588 89.5778 565.7632)" class="st13" width="11.9" height="11.9"/>
			
				<rect x="392.1" y="218.6" transform="matrix(0.9659 -0.2588 0.2588 0.9659 -44.5442 110.6717)" class="st13" width="11.9" height="11.9"/>
			<g>
				<polygon class="st9" points="386,257.9 386,220.4 401.7,219.4 425.6,222.9 425.6,257.9 				"/>
				<path class="st3" d="M401.7,219.9l23.4,3.4v34.1l-38.7,0l0-36.5L401.7,219.9 M401.7,218.9l-16.3,1v0.8l0,37.7l40.7,0v-35.7v-0.3
					L401.7,218.9L401.7,218.9z"/>
			</g>
			<polyline class="st12" points="386,221.1 401.9,221.1 425.7,223.1 			"/>
		</g>
		<g>
			<path class="st11" d="M414.6,292l0-12.2l11.1-1.6l0,15.5L414.6,292z"/>
			<g>
				<rect x="424.7" y="266.9" class="st9" width="17.8" height="36.8"/>
				<path class="st3" d="M442,267.4l0,35.8h-16.8v-35.8H442 M443,266.4h-18.8v37.8H443L443,266.4L443,266.4z"/>
			</g>
			<path class="st12" d="M429.4,290l0-9.4 M427.6,290.8l0-11.1l3.3,0l0,11.1L427.6,290.8z"/>
			<path class="st14" d="M427.4,295.4L427.4,295.4c0-0.5,0.4-0.8,0.8-0.8l1.1,0c0.5,0,0.8,0.4,0.8,0.8l0,0c0,0.5-0.4,0.8-0.8,0.8
				l-1.1,0C427.8,296.2,427.4,295.8,427.4,295.4z"/>
			<path class="st11" d="M436.3,288c-1.5,0-2.8-1.2-2.8-2.8c0-1.5,1.2-2.8,2.8-2.8l2.8,0l0,5.5L436.3,288z"/>
			<g>
				<polygon class="st9" points="437.6,299.2 437.7,271.3 439.4,271.4 439.3,299.2 				"/>
				<path class="st3" d="M438.2,271.8l0.7,0l-0.1,26.8l-0.7,0L438.2,271.8 M437.2,270.8l-0.1,28.8l2.7,0l0.1-28.8L437.2,270.8
					L437.2,270.8z"/>
			</g>
			<g>
				<rect x="414.5" y="280.1" class="st9" width="9.7" height="11.6"/>
				<path class="st3" d="M423.7,280.6v10.6H415v-10.6H423.7 M424.7,279.6H414v12.6h10.7V279.6L424.7,279.6z"/>
			</g>
			<g>
				<rect x="412.6" y="279.9" class="st9" width="1.8" height="12"/>
				<path class="st3" d="M414,280.4v11h-0.8v-11H414 M415,279.4h-2.8v13h2.8V279.4L415,279.4z"/>
			</g>
		</g>
		<g>
			<g>
				<rect x="363.9" y="287.7" class="st9" width="44.6" height="1.8"/>
				<path class="st3" d="M407.9,288.2v0.8h-43.6v-0.8H407.9 M408.9,287.2h-45.6v2.8h45.6V287.2L408.9,287.2z"/>
			</g>
			<g>
				<rect x="363.9" y="289.6" class="st9" width="44.6" height="14.1"/>
				<path class="st3" d="M364.4,290.1h43.6v13.1h-43.6V290.1 M363.4,289.1v15.1h45.6v-15.1H363.4L363.4,289.1z"/>
			</g>
			<path class="st11" d="M363.6,303.5l45.2-13.8"/>
		</g>
		<g id="Toilet_1_">
			<g id="Rectangle_21_1_">
				<rect x="337.8" y="88" class="st9" width="3.4" height="12"/>
				<path class="st3" d="M340.7,99.5h-2.4v-11h2.4V99.5 M341.7,100.5v-13h-4.4v13H341.7L341.7,100.5z"/>
			</g>
			<path id="Rectangle_19_x5F_2_1_" class="st11" d="M349.5,98.5c2.6,0.2,4.8-1.9,4.8-4.5l0,0c0-2.6-2.2-4.7-4.8-4.5l-8.3,0.6V98
				L349.5,98.5z"/>
			<path id="Rectangle_18_x5F_13_1_" class="st11" d="M349.4,97.1c1.9,0.2,3.4-1.3,3.4-3.1l0,0c0-1.9-1.6-3.3-3.4-3.1l-5,0.5v5.4
				L349.4,97.1z"/>
			<ellipse id="Ellipse_6_x5F_2_1_" class="st11" cx="347" cy="94" rx="1.1" ry="1.1"/>
		</g>
	</g>
	<g id="street_anchors" class="st15">
		<rect id="street_x5F_anchor_x5F_01" x="355" y="450" class="st16" width="10" height="10"/>
		<rect id="street_x5F_anchor_x5F_02" x="485.7" y="235" class="st16" width="10" height="10"/>
	</g>
</g>
<g id="комнаты">
	<g>
		<g>
			<path class="st8" d="M301.8,212.3h0.7c0.3,0,0.6-0.2,0.6-0.6c0-0.5-0.4-0.7-0.8-0.7c-0.6,0-1.1,0.4-1.6,1l-0.6-0.9
				c0.5-0.6,1.3-1.3,2.2-1.3c0.8,0,1.9,0.5,1.9,1.8c0,0.5-0.3,0.9-0.5,1.1c0.4,0.2,0.9,0.6,0.9,1.5c0,1.4-1.1,2.2-2.4,2.2
				c-0.9,0-1.7-0.4-2.4-1.3l0.6-1c0.5,0.6,1,1,1.8,1c0.7,0,1.3-0.4,1.3-1c0-0.5-0.5-0.6-0.7-0.6h-0.9V212.3z"/>
			<path class="st8" d="M306.2,214.4c0.4,0,0.8,0.4,0.8,0.9c0,0.5-0.3,0.9-0.8,0.9c-0.4,0-0.7-0.4-0.7-0.9
				C305.5,214.8,305.8,214.4,306.2,214.4z"/>
			<path class="st8" d="M312.8,214.8H312v1.3h-1.1v-1.3h-3.2v-0.9l3.3-3.9h1v3.7h0.8V214.8z M309.2,213.7h1.6v-2h-0.1
				C310.3,212.4,309.7,213,309.2,213.7L309.2,213.7z"/>
		</g>
	</g>
	<g>
		<g>
			<path class="st8" d="M415.1,103c0-1.5,0.9-2.2,2-2.6c0.3-0.1,0.8-0.3,0.8-0.9c0-0.5-0.4-0.6-0.8-0.6c-0.7,0-1.1,0.4-1.6,0.9
				l-0.6-1c0.6-0.6,1.2-1.2,2.1-1.2c0.9,0,1.9,0.5,1.9,1.8c0,1.4-1,1.8-1.8,2.1c-0.7,0.3-1.1,0.6-1.1,1.1v0.1h2.8v1.2h-3.9V103z"/>
			<path class="st8" d="M420.8,102.4c0.4,0,0.8,0.4,0.8,0.9c0,0.5-0.3,0.9-0.8,0.9c-0.4,0-0.7-0.4-0.7-0.9
				C420.1,102.8,420.4,102.4,420.8,102.4z"/>
			<path class="st8" d="M422.5,103c0-1.5,0.9-2.2,2-2.6c0.3-0.1,0.8-0.3,0.8-0.9c0-0.5-0.4-0.6-0.8-0.6c-0.7,0-1.1,0.4-1.6,0.9
				l-0.6-1c0.6-0.6,1.2-1.2,2.1-1.2c0.9,0,1.9,0.5,1.9,1.8c0,1.4-1,1.8-1.8,2.1c-0.7,0.3-1.1,0.6-1.1,1.1v0.1h2.8v1.2h-3.9V103z"/>
		</g>
	</g>
	<g>
		<g>
			<path class="st8" d="M327.8,371.4c0-1.5,0.9-2.2,2-2.6c0.3-0.1,0.8-0.3,0.8-0.9c0-0.5-0.4-0.6-0.8-0.6c-0.7,0-1.1,0.4-1.6,0.9
				l-0.6-1c0.6-0.6,1.2-1.2,2.1-1.2c0.9,0,1.9,0.5,1.9,1.8c0,1.4-1,1.8-1.8,2.1c-0.7,0.3-1.1,0.6-1.1,1.1v0.1h2.8v1.2h-3.9V371.4z"
				/>
			<path class="st8" d="M336.6,367.7c-0.4-0.2-0.8-0.4-1.3-0.4c-0.8,0-1.6,0.7-1.6,2c0.4-0.5,1-0.9,1.7-0.9c1.2,0,1.9,1,1.9,1.9
				c0,1.3-0.9,2.2-2.1,2.2c-1.3,0-2.5-1.1-2.5-3.1c0-2.1,1.3-3.4,2.6-3.4c0.8,0,1.4,0.4,1.8,0.5L336.6,367.7z M333.8,370.1
				c0.2,0.8,0.8,1.3,1.4,1.3c0.6,0,1-0.5,1-1c0-0.4-0.2-0.8-0.9-0.8C334.7,369.5,334.2,369.8,333.8,370.1z"/>
		</g>
	</g>
	<g>
		<g>
			<path class="st8" d="M301.6,277.4h-0.8v1.3h-1.1v-1.3h-3.2v-0.9l3.3-3.9h1v3.7h0.8V277.4z M298,276.3h1.6v-2h-0.1
				C299.1,275,298.5,275.7,298,276.3L298,276.3z"/>
		</g>
	</g>
	<g>
		<g>
			<path class="st8" d="M363.2,102.9h-0.8v1.3h-1.1v-1.3h-3.2v-0.9l3.3-3.9h1v3.7h0.8V102.9z M359.7,101.8h1.6v-2h-0.1
				C360.7,100.5,360.2,101.2,359.7,101.8L359.7,101.8z"/>
			<path class="st8" d="M364.8,102.5c0.4,0,0.8,0.4,0.8,0.9c0,0.5-0.3,0.9-0.8,0.9c-0.4,0-0.7-0.4-0.7-0.9
				C364.1,103,364.4,102.5,364.8,102.5z"/>
			<path class="st8" d="M366.2,98.9l1.4-0.8h1v6.1h-1.1v-4.7l-1,0.6L366.2,98.9z"/>
		</g>
	</g>
	<g>
		<g>
			<path class="st8" d="M390.2,273.4l1.4-0.8h1v6.1h-1.1V274l-1,0.6L390.2,273.4z"/>
			<path class="st8" d="M393.5,273.4l1.4-0.8h1v6.1h-1.1V274l-1,0.6L393.5,273.4z"/>
			<path class="st8" d="M397.9,277c0.4,0,0.8,0.4,0.8,0.9c0,0.5-0.3,0.9-0.8,0.9c-0.4,0-0.7-0.4-0.7-0.9
				C397.2,277.5,397.5,277,397.9,277z"/>
			<path class="st8" d="M401.4,275h0.7c0.3,0,0.6-0.2,0.6-0.6c0-0.5-0.4-0.7-0.8-0.7c-0.6,0-1.1,0.4-1.6,1l-0.6-0.9
				c0.5-0.6,1.3-1.3,2.2-1.3c0.8,0,1.9,0.5,1.9,1.8c0,0.5-0.3,0.9-0.5,1.1c0.4,0.2,0.9,0.6,0.9,1.5c0,1.4-1.1,2.2-2.4,2.2
				c-0.9,0-1.7-0.4-2.4-1.3l0.6-1c0.5,0.6,1,1,1.8,1c0.7,0,1.3-0.4,1.3-1c0-0.5-0.5-0.6-0.7-0.6h-0.9V275z"/>
		</g>
	</g>
	<g>
		<g>
			<path class="st8" d="M386.2,143l1.4-0.8h1v6.1h-1.1v-4.7l-1,0.6L386.2,143z"/>
			<path class="st8" d="M394.7,147.1h-0.8v1.3h-1.1v-1.3h-3.2v-0.9l3.3-3.9h1v3.7h0.8V147.1z M391.2,145.9h1.6v-2h-0.1
				C392.2,144.6,391.7,145.3,391.2,145.9L391.2,145.9z"/>
		</g>
	</g>
	<g>
		<g>
			<path class="st8" d="M334.7,248.1l0.5-1c0.3,0.3,1,0.7,1.9,0.7c0.6,0,1.2-0.3,1.2-1c0-0.6-0.5-0.9-0.9-0.9
				c-0.6,0-1.1,0.3-1.5,0.6l-0.6-0.6v-3.2h3.7v1.2h-2.7v1.4c0.4-0.3,0.7-0.6,1.3-0.6c0.9,0,1.9,0.6,1.9,2c0,1.6-1.2,2.3-2.3,2.3
				C335.9,249,335.1,248.4,334.7,248.1z"/>
			<path class="st8" d="M341,247.1c0.4,0,0.8,0.4,0.8,0.9c0,0.5-0.3,0.9-0.8,0.9c-0.4,0-0.7-0.4-0.7-0.9
				C340.2,247.6,340.6,247.1,341,247.1z"/>
			<path class="st8" d="M342.6,242.7h4.2v1.2l-2.4,4.9H343l2.5-4.8h-2.9V242.7z"/>
		</g>
	</g>
</g>
</svg>
