<?xml version="1.0" encoding="utf-8"?>
<!-- Generator: Adobe Illustrator 26.0.3, SVG Export Plug-In . SVG Version: 6.00 Build 0)  -->
<svg version="1.1" xmlns="http://www.w3.org/2000/svg" xmlns:xlink="http://www.w3.org/1999/xlink" x="0px" y="0px"
	 viewBox="0 0 720 480" style="enable-background:new 0 0 720 480;" xml:space="preserve">
<style type="text/css">
	.st0{fill:#DBD4CA;}
	.st1{clip-path:url(#SVGID_00000134948797086174914870000001950559261327330226_);}
	.st2{fill:none;stroke:#C49F8A;stroke-miterlimit:10;}
	.st3{opacity:0.3;clip-path:url(#SVGID_00000093169110558514063280000003092287470277229997_);}
	.st4{opacity:0.7;fill:#C49F8A;enable-background:new    ;}
	.st5{fill:none;stroke:#565440;}
	.st6{fill:#565440;}
	.st7{fill:#E9E4DC;}
	.st8{fill:#C49F8A;}
	.st9{fill:#E9E4DC;stroke:#C49F8A;}
	.st10{fill:#E9E4DC;stroke:#C49F8A;stroke-miterlimit:3.9998;}
	.st11{fill:none;stroke:#C49F8A;}
	.st12{fill:#E9E4DC;stroke:#C49F8A;stroke-linejoin:round;}
	.st13{opacity:0;}
	.st14{fill:#3F3F3F;fill-opacity:0;}
</style>
<g id="_x31__x5F_2">
	<polygon id="Floor" class="st0" points="447.4,416.2 194.3,416.2 194.3,66 525.2,66 525.2,319.1 447.4,319.1 	"/>
	<g id="Wet_Floor_1_">
		<g>
			<defs>
				<polygon id="SVGID_1_" points="446.5,412 373.8,412 373.8,316.3 348.9,315.8 348.9,230.1 446.5,229.9 				"/>
			</defs>
			<clipPath id="SVGID_00000065061237165476357310000006140532370486313900_">
				<use xlink:href="#SVGID_1_"  style="overflow:visible;"/>
			</clipPath>
			<g style="clip-path:url(#SVGID_00000065061237165476357310000006140532370486313900_);">
				<g>
					<line class="st2" x1="123.4" y1="357.2" x2="456.9" y2="23.8"/>
					<line class="st2" x1="113" y1="346.8" x2="446.5" y2="13.3"/>
					<line class="st2" x1="133.9" y1="367.7" x2="467.3" y2="34.2"/>
					<line class="st2" x1="144.3" y1="378.1" x2="477.8" y2="44.6"/>
					<line class="st2" x1="154.7" y1="388.5" x2="488.2" y2="55"/>
					<line class="st2" x1="165.1" y1="398.9" x2="498.6" y2="65.4"/>
					<line class="st2" x1="175.5" y1="409.3" x2="509" y2="75.9"/>
					<line class="st2" x1="186" y1="419.8" x2="519.4" y2="86.3"/>
					<line class="st2" x1="196.4" y1="430.2" x2="529.9" y2="96.7"/>
					<line class="st2" x1="206.8" y1="440.6" x2="540.3" y2="107.1"/>
					<line class="st2" x1="196.4" y1="430.2" x2="529.9" y2="96.7"/>
					<line class="st2" x1="217.2" y1="451" x2="550.7" y2="117.6"/>
					<line class="st2" x1="227.7" y1="461.5" x2="561.1" y2="128"/>
					<line class="st2" x1="238.1" y1="471.9" x2="571.6" y2="138.4"/>
					<line class="st2" x1="248.5" y1="482.3" x2="582" y2="148.8"/>
					<line class="st2" x1="258.9" y1="492.7" x2="592.4" y2="159.2"/>
					<line class="st2" x1="269.3" y1="503.1" x2="602.8" y2="169.7"/>
					<line class="st2" x1="279.8" y1="513.6" x2="613.2" y2="180.1"/>
					<line class="st2" x1="290.2" y1="524" x2="623.7" y2="190.5"/>
					<line class="st2" x1="279.8" y1="513.6" x2="613.2" y2="180.1"/>
					<line class="st2" x1="300.6" y1="534.4" x2="634.1" y2="200.9"/>
					<line class="st2" x1="311" y1="544.8" x2="644.5" y2="211.3"/>
					<line class="st2" x1="321.4" y1="555.2" x2="654.9" y2="221.8"/>
					<line class="st2" x1="331.9" y1="565.7" x2="665.3" y2="232.2"/>
					<line class="st2" x1="342.3" y1="576.1" x2="675.8" y2="242.6"/>
					<line class="st2" x1="352.7" y1="586.5" x2="686.2" y2="253"/>
					<line class="st2" x1="363.1" y1="596.9" x2="696.6" y2="263.5"/>
					<line class="st2" x1="373.6" y1="607.4" x2="707" y2="273.9"/>
					<line class="st2" x1="363.1" y1="596.9" x2="696.6" y2="263.5"/>
					<line class="st2" x1="384" y1="617.8" x2="717.5" y2="284.3"/>
					<line class="st2" x1="394.4" y1="628.2" x2="727.9" y2="294.7"/>
					<line class="st2" x1="404.8" y1="638.6" x2="738.3" y2="305.1"/>
					<line class="st2" x1="415.2" y1="649" x2="748.7" y2="315.6"/>
					<line class="st2" x1="425.7" y1="659.5" x2="759.1" y2="326"/>
					<line class="st2" x1="436.1" y1="669.9" x2="769.6" y2="336.4"/>
					<line class="st2" x1="446.5" y1="680.3" x2="780" y2="346.8"/>
				</g>
				<g>
					<line class="st2" x1="456.9" y1="669.9" x2="123.4" y2="336.4"/>
					<line class="st2" x1="446.5" y1="680.3" x2="113" y2="346.8"/>
					<line class="st2" x1="467.3" y1="659.5" x2="133.9" y2="326"/>
					<line class="st2" x1="477.8" y1="649" x2="144.3" y2="315.6"/>
					<line class="st2" x1="488.2" y1="638.6" x2="154.7" y2="305.1"/>
					<line class="st2" x1="498.6" y1="628.2" x2="165.1" y2="294.7"/>
					<line class="st2" x1="509" y1="617.8" x2="175.5" y2="284.3"/>
					<line class="st2" x1="519.4" y1="607.4" x2="186" y2="273.9"/>
					<line class="st2" x1="529.9" y1="596.9" x2="196.4" y2="263.5"/>
					<line class="st2" x1="540.3" y1="586.5" x2="206.8" y2="253"/>
					<line class="st2" x1="529.9" y1="596.9" x2="196.4" y2="263.5"/>
					<line class="st2" x1="550.7" y1="576.1" x2="217.2" y2="242.6"/>
					<line class="st2" x1="561.1" y1="565.7" x2="227.7" y2="232.2"/>
					<line class="st2" x1="571.6" y1="555.2" x2="238.1" y2="221.8"/>
					<line class="st2" x1="582" y1="544.8" x2="248.5" y2="211.3"/>
					<line class="st2" x1="592.4" y1="534.4" x2="258.9" y2="200.9"/>
					<line class="st2" x1="602.8" y1="524" x2="269.3" y2="190.5"/>
					<line class="st2" x1="613.2" y1="513.6" x2="279.8" y2="180.1"/>
					<line class="st2" x1="623.7" y1="503.1" x2="290.2" y2="169.7"/>
					<line class="st2" x1="613.2" y1="513.6" x2="279.8" y2="180.1"/>
					<line class="st2" x1="634.1" y1="492.7" x2="300.6" y2="159.2"/>
					<line class="st2" x1="644.5" y1="482.3" x2="311" y2="148.8"/>
					<line class="st2" x1="654.9" y1="471.9" x2="321.4" y2="138.4"/>
					<line class="st2" x1="665.3" y1="461.5" x2="331.9" y2="128"/>
					<line class="st2" x1="675.8" y1="451" x2="342.3" y2="117.6"/>
					<line class="st2" x1="686.2" y1="440.6" x2="352.7" y2="107.1"/>
					<line class="st2" x1="696.6" y1="430.2" x2="363.1" y2="96.7"/>
					<line class="st2" x1="707" y1="419.8" x2="373.6" y2="86.3"/>
					<line class="st2" x1="696.6" y1="430.2" x2="363.1" y2="96.7"/>
					<line class="st2" x1="717.5" y1="409.3" x2="384" y2="75.9"/>
					<line class="st2" x1="727.9" y1="398.9" x2="394.4" y2="65.4"/>
					<line class="st2" x1="738.3" y1="388.5" x2="404.8" y2="55"/>
					<line class="st2" x1="748.7" y1="378.1" x2="415.2" y2="44.6"/>
					<line class="st2" x1="759.1" y1="367.7" x2="425.7" y2="34.2"/>
					<line class="st2" x1="769.6" y1="357.2" x2="436.1" y2="23.8"/>
					<line class="st2" x1="780" y1="346.8" x2="446.5" y2="13.3"/>
				</g>
			</g>
		</g>
		<g>
			<defs>
				<polygon id="SVGID_00000085973655275953392530000007624272232937720463_" points="446.5,412 373.8,412 373.8,316.3 348.9,315.8 
					348.9,230.1 446.5,229.9 				"/>
			</defs>
			<clipPath id="SVGID_00000039124760176245372570000003930342058187415182_">
				<use xlink:href="#SVGID_00000085973655275953392530000007624272232937720463_"  style="overflow:visible;"/>
			</clipPath>
			<g style="opacity:0.3;clip-path:url(#SVGID_00000039124760176245372570000003930342058187415182_);">
				<rect x="285.4" y="175.3" class="st4" width="322.2" height="322.2"/>
			</g>
		</g>
	</g>
	<polygon id="Windows" class="st5" points="525.7,61.5 189.8,61.5 189.8,416.2 194.3,416.2 194.3,66 525.7,66 525.7,106.7 
		530.2,106.7 530.2,61.5 	"/>
	<g id="Walls">
		<polygon class="st6" points="319.2,310 313.2,310 313.2,227.6 310.2,227.6 310.2,310 206.3,310 206.3,295 188.2,295 188.2,310 
			188.2,319.1 319.2,319.1 		"/>
		<rect x="188.2" y="231.7" class="st6" width="18.1" height="21.1"/>
		<rect x="188.2" y="359.3" class="st6" width="18.1" height="21.1"/>
		<polygon class="st6" points="203.2,177.5 310.2,177.5 310.2,202.8 313.2,202.8 313.2,177.5 316.9,177.5 316.9,174.5 203.2,174.5 
			203.2,168.4 188.2,168.4 188.2,189.5 203.2,189.5 		"/>
		<rect x="188.2" y="105.2" class="st6" width="18.1" height="21.1"/>
		<rect x="257.5" y="60" class="st6" width="21.1" height="18.1"/>
		<rect x="450.3" y="60" class="st6" width="21.1" height="15.1"/>
		<path class="st6" d="M516.6,105.2v123.5h-28.4v3h17.5v20.7h1.5h1.5h7.9V310h-25.9v9h41v-9V105.2H516.6z M508.7,249.4v-17.7h7.9
			v17.7H508.7z"/>
		<polygon class="st6" points="345.4,174.5 342.4,174.5 342.4,177.5 345.4,177.5 348.4,177.5 348.4,75.1 384,75.1 384,78.1 
			405.1,78.1 405.1,75.1 405.1,60 384,60 320.7,60 320.7,75.1 345.4,75.1 		"/>
		<path class="st6" d="M447.3,274.5h-3v24.9h-17.4v1.5v1.5v4.5v3.1h-22.2v-78h39.7v19.2h3V232v-2.8V229h-98.5v1.1v1.9v23.4h3V232
			h49.8v78h-49.8v-32.8h-3V310h-2.4v9h27.1v45.1h3V319h50.3v9.3h1.5l0,0h12.9V411h-64.7v-25.6h-3V411H188.2v9h253.1l0,0h9V319.1
			h10.2v-9h-13.3L447.3,274.5L447.3,274.5z M429.8,307v-4.5h14.4v7.6h-14.4V307z M441.2,325.4h-11.4v-6.3h11.4V325.4z"/>
	</g>
	<path id="Doors" class="st5" d="M490.8,319.1c0,3.9-0.9,7.5-2.4,11.1s-3.6,7.2-6.6,9.9c-2.7,2.7-6,5.1-9.6,6.6s-7.5,2.4-11.4,2.4
		V319 M319.3,317.6c0,3.5,0.8,6.8,2.2,10.1c1.4,3.3,3.3,6.5,6,9c2.4,2.4,5.4,4.6,8.7,6c3.3,1.4,6.8,2.2,10.3,2.2v-27.2 M317.1,174.5
		c0-3.4,0.6-6.2,1.9-9.3c1.2-3.1,3.1-5.9,5.3-8.1c2.2-2.5,5-4.4,8.1-5.6c3.1-1.2,6.2-1.9,9.7-1.9v24.9 M310.3,227.8
		c-3.4,0-6.3-0.6-9.4-1.9c-3.1-1.3-5.9-3.1-8.1-5.3c-2.5-2.2-4.4-5-5.6-8.1c-1.3-3.1-1.9-6.3-1.9-9.7h25 M373.6,364.2
		c-3,0-5.4,0.5-8.1,1.6s-5.1,2.7-7,4.6c-2.2,1.9-3.8,4.3-4.9,7s-1.6,5.4-1.6,8.4h21.6 M351.9,255.5c3.1,0,5.6,0.6,8.4,1.7
		s5.3,2.8,7.2,4.7c2.2,2,3.9,4.5,5,7.2c1.1,2.8,1.7,5.6,1.7,8.6h-22.3 M446.6,251.3c3.2,0,5.8,0.6,8.7,1.7c2.9,1.2,5.5,2.9,7.6,5
		c2.3,2,4.1,4.7,5.2,7.6c1.2,2.9,1.7,5.8,1.7,9h-23.3"/>
	<g id="Furniture_1_">
		<g>
			<polygon class="st7" points="373,309.5 373,306.3 387.8,306.3 387.8,255.3 401.3,255.3 401.3,309.5 			"/>
			<path class="st8" d="M400.8,255.8V309h-1h-12.5h-13.8v-2.3h13.8h1v-1v-50L400.8,255.8 M401.8,254.8h-14.5v51h-14.8v4.3h14.8h12.5
				h2V254.8L401.8,254.8z"/>
		</g>
		<g>
			<polygon class="st7" points="405.2,309.5 405.2,232.6 443.9,232.6 443.9,246.1 408.6,246.1 408.6,298.9 426.4,298.9 426.4,309.5 
							"/>
			<path class="st8" d="M443.4,233.1v12.5h-34.2h-1v1v51.8v1h1H426v9.6h-16.8h-2h-1.4v-62.4v-13.5h3.5H443.4 M444.4,232.1h-35.2
				h-4.5v14.5V310h2.4h2h17.8v-11.6h-17.8v-51.8h35.2v-14.5H444.4z"/>
		</g>
		<g>
			<g>
				<rect x="251.3" y="109.6" class="st7" width="40.6" height="64.3"/>
				<path class="st8" d="M291.4,110.1v63.3h-39.6v-63.3L291.4,110.1 M292.4,109.1h-41.6v65.3h41.6V109.1L292.4,109.1z"/>
			</g>
			<rect x="254.3" y="153.7" class="st9" width="16.2" height="16.2"/>
			<rect x="272.6" y="153.7" class="st9" width="16.2" height="16.2"/>
			<polygon class="st10" points="256.3,160.2 268.1,164.4 271.2,148.8 259.5,144.6 			"/>
			<polygon class="st10" points="272.1,148.8 275.2,164.4 286.9,160.2 283.8,144.6 			"/>
			<g>
				<polygon class="st7" points="251.3,156.9 251.3,109 291.9,109 291.9,160.3 275.8,161.7 				"/>
				<path class="st8" d="M291.4,109.5v50.3v0.1l-15.6,1.3l-24-4.6v-47h39.6 M292.4,108.5h-41.6V157v0.3l24.9,4.8l16.6-1.4v-1
					L292.4,108.5L292.4,108.5z"/>
			</g>
			<polyline class="st11" points="291.8,159.1 275.6,159.1 251.3,156.4 			"/>
		</g>
		<g>
			<g>
				<rect x="222" y="252.1" class="st7" width="48" height="57.5"/>
				<path class="st8" d="M222.5,252.6h47V309h-47V252.6 M221.5,251.6v58.5h49v-58.5H221.5L221.5,251.6z"/>
			</g>
			<rect x="225.6" y="291.4" class="st9" width="19.1" height="14.5"/>
			<rect x="247.2" y="291.4" class="st9" width="19.1" height="14.5"/>
			<polygon class="st10" points="228,297.3 241.8,301 245.5,287.1 231.7,283.3 			"/>
			<polygon class="st10" points="246.5,287.1 250.2,301 264.1,297.3 260.4,283.3 			"/>
			<g>
				<polygon class="st7" points="222,294.3 222,251.5 270,251.5 270,297.3 250.9,298.5 				"/>
				<path class="st8" d="M269.5,252v44.9l-18.6,1.2l-28.4-4.2V252H269.5 M270.5,251h-49v43.4v0.3l29.4,4.3l19.6-1.2v-0.9V251
					L270.5,251z"/>
			</g>
			<polyline class="st11" points="269.8,296.3 250.7,296.3 222,293.9 			"/>
		</g>
		<g>
			<g>
				<rect x="246" y="319.6" class="st7" width="48" height="57.5"/>
				<path class="st8" d="M246.5,320.1h47v56.5h-47V320.1 M245.5,319.1v58.5h49v-58.5H245.5L245.5,319.1z"/>
			</g>
			<rect x="271.2" y="323.2" class="st9" width="19.1" height="14.5"/>
			<rect x="249.7" y="323.2" class="st9" width="19.1" height="14.5"/>
			<polygon class="st10" points="288,331.8 274.2,328.1 270.5,342 284.3,345.8 			"/>
			<polygon class="st10" points="269.5,342.1 265.8,328.1 252,331.8 255.7,345.8 			"/>
			<g>
				<polygon class="st7" points="246,377.6 246,331.8 265.1,330.6 294,334.8 294,377.6 				"/>
				<path class="st8" d="M265.1,331.1l28.4,4.2v41.9h-47v-44.9L265.1,331.1 M265.1,330.1l-19.6,1.2v0.9v45.9h49v-43.4v-0.3
					L265.1,330.1L265.1,330.1z"/>
			</g>
			<polyline class="st11" points="246.2,332.8 265.3,332.8 294,335.2 			"/>
		</g>
		<g>
			<g>
				<rect x="291.5" y="232.3" class="st7" width="1.8" height="77.3"/>
				<path class="st8" d="M292.8,232.8V309H292v-76.3h0.8 M293.8,231.8H291V310h2.8V231.8L293.8,231.8z"/>
			</g>
			<g>
				<rect x="293.3" y="232.3" class="st7" width="16.5" height="77.3"/>
				<path class="st8" d="M293.8,232.8h15.5v76.3h-15.5V232.8 M292.8,231.8v78.3h17.5v-78.3H292.8L292.8,231.8z"/>
			</g>
			<path class="st9" d="M309.7,309.5l-16.4-77.4"/>
		</g>
		<g>
			<g>
				<rect x="326.7" y="75.6" class="st7" width="1.8" height="60.4"/>
				<path class="st8" d="M327.2,76.1h0.8v59.4h-0.8V76.1 M326.2,75.1v61.4h2.8V75.1H326.2L326.2,75.1z"/>
			</g>
			<g>
				<rect x="328.5" y="75.6" class="st7" width="16.5" height="60.4"/>
				<path class="st8" d="M344.5,76.1v59.4H329V76.1H344.5 M345.5,75.1H328v61.4h17.5V75.1L345.5,75.1z"/>
			</g>
			<path class="st9" d="M344.9,136l-16.4-60.7"/>
		</g>
		<g>
			<g>
				<rect x="354.8" y="319.5" class="st7" width="1.8" height="41.4"/>
				<path class="st8" d="M356.1,320v40.4h-0.8V320H356.1 M357.1,319h-2.8v42.4h2.8V319L357.1,319z"/>
			</g>
			<g>
				<rect x="356.6" y="319.5" class="st7" width="16.5" height="41.4"/>
				<path class="st8" d="M357.1,320h15.5v40.4h-15.5V320 M356.1,319v42.4h17.5V319H356.1L356.1,319z"/>
			</g>
			<path class="st9" d="M373,361.1l-16.4-41.9"/>
		</g>
		<g>
			<g>
				<rect x="497.8" y="256.2" class="st7" width="1.8" height="53.4"/>
				<path class="st8" d="M498.3,256.7h0.8V309h-0.8V256.7 M497.3,255.7V310h2.8v-54.4L497.3,255.7L497.3,255.7z"/>
			</g>
			<g>
				<rect x="499.7" y="256.2" class="st7" width="16.5" height="53.4"/>
				<path class="st8" d="M500.2,256.7h15.5V309h-15.5V256.7 M499.2,255.7V310h17.5v-54.4L499.2,255.7L499.2,255.7z"/>
			</g>
			<path class="st9" d="M516.1,309.7l-16.4-53.8"/>
		</g>
		<g>
			<g>
				<rect x="490.7" y="241.6" class="st7" width="14.6" height="1.8"/>
				<path class="st8" d="M504.8,242.1v0.8h-13.6v-0.8H504.8 M505.8,241.1h-15.6v2.8h15.6V241.1L505.8,241.1z"/>
			</g>
			<g>
				<rect x="490.7" y="232.2" class="st7" width="14.6" height="9.4"/>
				<path class="st8" d="M491.2,232.7h13.6v8.4h-13.6V232.7 M490.2,231.7v10.4h15.6v-10.4H490.2L490.2,231.7z"/>
			</g>
			<path class="st9" d="M505.3,232.3l-14.8,9.3"/>
		</g>
		<g>
			<g>
				<rect x="354.8" y="387.3" class="st7" width="1.8" height="23.1"/>
				<path class="st8" d="M356.1,387.8V410h-0.8v-22.1h0.8 M357.1,386.8h-2.8V411h2.8V386.8L357.1,386.8z"/>
			</g>
			<g>
				<rect x="356.6" y="387.3" class="st7" width="16.5" height="23.1"/>
				<path class="st8" d="M372.6,387.8V410h-15.5v-22.1h15.5 M373.6,386.8h-17.5V411h17.5V386.8L373.6,386.8z"/>
			</g>
			<path class="st9" d="M373.1,410.4l-16.5-23.1"/>
		</g>
		<g>
			<g>
				<rect x="420.4" y="356" class="st7" width="20.5" height="54.5"/>
				<path class="st8" d="M420.9,356.5h19.5V410h-19.5V356.5 M419.9,355.5V411h21.5v-55.5H419.9L419.9,355.5z"/>
			</g>
			<g>
				<g>
					<path class="st12" d="M430.6,404.3c4,0,7-3.4,6.7-7.3c-0.4-4.3-0.7-9.7-0.7-13.7s0.4-9.4,0.7-13.7c0.4-3.9-2.7-7.3-6.7-7.3
						c-3.9,0-7,3.4-6.7,7.3c0.4,4.3,0.7,9.7,0.7,13.7s-0.4,9.4-0.7,13.7C423.6,400.9,426.7,404.3,430.6,404.3z"/>
					<ellipse class="st12" cx="430.6" cy="397.4" rx="0.9" ry="0.9"/>
				</g>
			</g>
		</g>
		<g>
			<g>
				<rect x="352.4" y="297.5" class="st7" width="18.1" height="12"/>
				<path class="st8" d="M369.9,298v11h-17.1v-11H369.9 M370.9,297h-19.1v13h19.1V297L370.9,297z"/>
			</g>
			<g>
				<path class="st7" d="M361.4,307.3c-2.1,0-3.7-1.7-3.7-3.7s1.7-3.7,3.7-3.7c2.1,0,3.7,1.7,3.7,3.7S363.5,307.3,361.4,307.3z"/>
				<path class="st8" d="M361.4,300.3c1.8,0,3.2,1.5,3.2,3.2c0,1.8-1.5,3.2-3.2,3.2s-3.2-1.5-3.2-3.2
					C358.2,301.7,359.6,300.3,361.4,300.3 M361.4,299.3c-2.3,0-4.2,1.9-4.2,4.2c0,2.3,1.9,4.2,4.2,4.2s4.2-1.9,4.2-4.2
					C365.7,301.2,363.8,299.3,361.4,299.3L361.4,299.3z"/>
			</g>
		</g>
		<g>
			<g>
				<path class="st7" d="M377.4,306.3v-16.7c0-4,3.3-7.3,7.3-7.3h16.7v24H377.4z"/>
				<path class="st8" d="M400.8,282.8v23h-23v-16.2c0-3.7,3-6.8,6.8-6.8H400.8 M401.8,281.8h-17.2c-4.3,0-7.8,3.5-7.8,7.8v17.2h25
					V281.8L401.8,281.8z"/>
			</g>
			<g>
				<path class="st7" d="M379.4,304.2v-14.6c0-2.9,2.4-5.3,5.3-5.3h14.6v19.9H379.4z"/>
				<path class="st8" d="M398.8,284.8v18.9h-18.9v-14.1c0-2.6,2.1-4.8,4.8-4.8H398.8 M399.8,283.8h-15.1c-3.2,0-5.8,2.6-5.8,5.8
					v15.1h20.9V283.8L399.8,283.8z"/>
			</g>
			<ellipse class="st9" cx="395.4" cy="300.4" rx="0.9" ry="0.9"/>
		</g>
		<g>
			<path class="st9" d="M436.9,103.5h39.2V132h-39.2V103.5z"/>
			<path class="st9" d="M464.3,101.3v-0.6c0-4.3-3.5-7.7-7.7-7.7c-4.3,0-7.7,3.5-7.7,7.7v0.6H464.3z"/>
			<path class="st9" d="M462.5,103.5v-3c0-3.3-2.7-5.9-5.9-5.9c-3.3,0-5.9,2.7-5.9,5.9v3H462.5z"/>
			<path class="st9" d="M464.3,134.2v0.6c0,4.3-3.5,7.7-7.7,7.7c-4.3,0-7.7-3.5-7.7-7.7v-0.6H464.3z"/>
			<path class="st9" d="M462.5,132v3c0,3.3-2.7,5.9-5.9,5.9c-3.3,0-5.9-2.7-5.9-5.9v-3H462.5z"/>
			<path class="st9" d="M478.3,110h0.6c4.3,0,7.7,3.5,7.7,7.7c0,4.3-3.5,7.7-7.7,7.7h-0.6V110z"/>
			<path class="st9" d="M476.1,111.8h3c3.3,0,5.9,2.7,5.9,5.9c0,3.3-2.7,5.9-5.9,5.9h-3V111.8z"/>
			<path class="st9" d="M434.7,110h-0.6c-4.3,0-7.7,3.5-7.7,7.7c0,4.3,3.5,7.7,7.7,7.7h0.6V110z"/>
			<path class="st9" d="M436.9,111.8h-3c-3.3,0-5.9,2.7-5.9,5.9c0,3.3,2.7,5.9,5.9,5.9h3V111.8z"/>
		</g>
		<g>
			<path class="st9" d="M229.1,99.2h-14l-1.9-12.7H231L229.1,99.2z"/>
			<g>
				<rect x="195.3" y="67" class="st7" width="61.8" height="20.7"/>
				<path class="st8" d="M256.6,67.5v19.7h-60.8V67.5H256.6 M257.6,66.5h-62.8v21.7h62.8V66.5L257.6,66.5z"/>
			</g>
			<path class="st11" d="M226.8,82.2H216 M227.8,84.3h-12.7v-3.8h12.7V84.3z"/>
			<path class="st9" d="M233.1,84.5L233.1,84.5c-0.5,0-1-0.4-1-1v-1.3c0-0.5,0.4-1,1-1l0,0c0.5,0,1,0.4,1,1v1.3
				C234,84,233.6,84.5,233.1,84.5z"/>
			<path class="st9" d="M224.6,74.3c0,1.8-1.4,3.2-3.2,3.2s-3.2-1.4-3.2-3.2v-3.2h6.4V74.3z"/>
			<g>
				<rect x="215.5" y="87.8" class="st7" width="13.5" height="11.7"/>
				<path class="st8" d="M228.4,88.3V99H216V88.3H228.4 M229.4,87.3H215V100h14.5V87.3H229.4z"/>
			</g>
			<g>
				<rect x="215.2" y="99.4" class="st7" width="13.9" height="1.8"/>
				<path class="st8" d="M228.6,99.9v0.8h-12.9v-0.8H228.6 M229.6,98.9h-14.9v2.8h14.9V98.9L229.6,98.9z"/>
			</g>
			<g>
				<rect x="204.8" y="69.8" class="st7" width="33.2" height="1.8"/>
				<path class="st8" d="M237.5,70.3v0.8h-32.2v-0.8H237.5 M238.5,69.3h-34.2v2.8h34.2V69.3L238.5,69.3z"/>
			</g>
		</g>
		<g>
			<path class="st9" d="M237.7,210.1h-14l-1.9-12.7h17.8L237.7,210.1z"/>
			<g>
				<rect x="203.8" y="178" class="st7" width="61.8" height="20.7"/>
				<path class="st8" d="M265.1,178.5v19.7h-60.8v-19.7H265.1 M266.1,177.5h-62.8v21.7h62.8V177.5L266.1,177.5z"/>
			</g>
			<path class="st11" d="M235.4,193.2h-10.8 M236.3,195.2h-12.7v-3.8h12.7V195.2z"/>
			<path class="st9" d="M241.6,195.4L241.6,195.4c-0.5,0-1-0.4-1-1v-1.3c0-0.5,0.4-1,1-1l0,0c0.5,0,1,0.4,1,1v1.3
				C242.5,195,242.1,195.4,241.6,195.4z"/>
			<path class="st9" d="M233.1,185.2c0,1.8-1.4,3.2-3.2,3.2s-3.2-1.4-3.2-3.2V182h6.4V185.2z"/>
			<g>
				<rect x="224" y="198.7" class="st7" width="13.5" height="11.7"/>
				<path class="st8" d="M236.9,199.2v10.7h-12.5v-10.7H236.9 M237.9,198.2h-14.5v12.7h14.5V198.2L237.9,198.2z"/>
			</g>
			<g>
				<rect x="223.7" y="210.4" class="st7" width="13.9" height="1.8"/>
				<path class="st8" d="M237.1,210.9v0.8h-12.9v-0.8H237.1 M238.1,209.9h-14.9v2.8h14.9V209.9L238.1,209.9z"/>
			</g>
			<g>
				<rect x="213.4" y="180.8" class="st7" width="33.2" height="1.8"/>
				<path class="st8" d="M246,181.3v0.8h-32.2v-0.8H246 M247,180.3h-34.2v2.8H247V180.3L247,180.3z"/>
			</g>
		</g>
		<g id="Sink_2">
			<g id="Rectangle_16_x5F_11">
				<rect x="414.4" y="232.6" class="st7" width="22" height="13.5"/>
				<path class="st8" d="M436,233.1v12.5h-21.1v-12.5H436 M437,232.1h-23.1v14.5H437V232.1L437,232.1z"/>
			</g>
			<path id="Rectangle_19_x5F_5" class="st9" d="M417.8,239.4L417.8,239.4c0,2.5,2,4.4,4.4,4.4h6.4c2.5,0,4.4-2,4.4-4.4l0,0
				c0-2.5-2-4.4-4.4-4.4h-6.4C419.8,234.9,417.8,236.9,417.8,239.4z"/>
			<circle id="Ellipse_7_x5F_2" class="st9" cx="425.5" cy="237.2" r="0.9"/>
		</g>
		<g id="Sink_2_1_">
			<g id="Rectangle_16_x5F_11_1_">
				<rect x="387.8" y="257.7" class="st7" width="13.5" height="22.1"/>
				<path class="st8" d="M400.8,258.2v21.1h-12.5v-21.1H400.8 M401.8,257.2h-14.5v23.1h14.5V257.2L401.8,257.2z"/>
			</g>
			<path id="Rectangle_19_x5F_5_1_" class="st9" d="M394.6,261.1L394.6,261.1c-2.5,0-4.4,2-4.4,4.4v6.4c0,2.5,2,4.4,4.4,4.4l0,0
				c2.5,0,4.4-2,4.4-4.4v-6.4C399,263.1,397,261.1,394.6,261.1z"/>
			<circle id="Ellipse_7_x5F_2_1_" class="st9" cx="396.7" cy="268.7" r="0.9"/>
		</g>
		<g id="Sink_2_4_">
			<g id="Rectangle_16_x5F_11_4_">
				<rect x="428.2" y="337.5" class="st7" width="12.6" height="18.5"/>
				<path class="st8" d="M440.3,338v17.5h-11.6V338H440.3 M441.3,337h-13.6v19.5h13.6V337L441.3,337z"/>
			</g>
			<path id="Rectangle_19_x5F_5_4_" class="st9" d="M434.5,339.6L434.5,339.6c-2.3,0-4.2,1.9-4.2,4.2v6c0,2.3,1.9,4.2,4.2,4.2l0,0
				c2.3,0,4.2-1.9,4.2-4.2v-6C438.7,341.5,436.8,339.6,434.5,339.6z"/>
			<circle id="Ellipse_7_x5F_2_4_" class="st9" cx="436.2" cy="346.7" r="0.9"/>
		</g>
		<g id="Toilet_1_">
			<g id="Rectangle_21_1_">
				<rect x="417.4" y="294.6" class="st7" width="14.2" height="4.3"/>
				<path class="st8" d="M431.1,295.1v3.3h-13.2v-3.3H431.1 M432.1,294.1h-15.2v5.3h15.2V294.1L432.1,294.1z"/>
			</g>
			<path id="Rectangle_19_x5F_2_1_" class="st9" d="M429.5,285.4c0.2-2.9-2.1-5.3-5-5.3l0,0c-2.9,0-5.2,2.4-5,5.3l0.6,9.2h8.7
				L429.5,285.4z"/>
			<path id="Rectangle_18_x5F_13_1_" class="st9" d="M427.8,285.5c0.2-1.9-1.3-3.6-3.3-3.6l0,0c-1.9,0-3.4,1.7-3.3,3.6l0.5,5.2h5.6
				L427.8,285.5z"/>
			<ellipse id="Ellipse_6_x5F_2_1_" class="st9" cx="424.5" cy="288.3" rx="0.9" ry="0.9"/>
		</g>
		<g id="Toilet_5_">
			<g id="Rectangle_21_5_">
				<rect x="383.4" y="324.8" class="st7" width="14.2" height="4.3"/>
				<path class="st8" d="M397.2,325.3v3.3H384v-3.3H397.2 M398.2,324.3H383v5.3h15.2V324.3L398.2,324.3z"/>
			</g>
			<path id="Rectangle_19_x5F_2_5_" class="st9" d="M395.5,338.3c0.2,2.9-2.1,5.3-5,5.3l0,0c-2.9,0-5.2-2.4-5-5.3l0.6-9.2h8.7
				L395.5,338.3z"/>
			<path id="Rectangle_18_x5F_13_5_" class="st9" d="M393.8,338.3c0.2,1.9-1.3,3.6-3.3,3.6l0,0c-1.9,0-3.4-1.7-3.3-3.6l0.5-5.2h5.6
				L393.8,338.3z"/>
			<ellipse id="Ellipse_6_x5F_2_5_" class="st9" cx="390.6" cy="335.4" rx="0.9" ry="0.9"/>
		</g>
		<g id="Toilet_4_">
			<g id="Rectangle_21_3_">
				<rect x="397.1" y="235.4" class="st7" width="4.3" height="14.2"/>
				<path class="st8" d="M400.9,235.9v13.2h-3.3v-13.2H400.9 M401.9,234.9h-5.3v15.2h5.3V234.9L401.9,234.9z"/>
			</g>
			<path id="Rectangle_19_x5F_2_4_" class="st9" d="M387.9,237.5c-2.9-0.2-5.3,2.1-5.3,5l0,0c0,2.9,2.4,5.2,5.3,5l9.2-0.6v-8.7
				L387.9,237.5z"/>
			<path id="Rectangle_18_x5F_13_4_" class="st9" d="M388,239.2c-1.9-0.2-3.6,1.3-3.6,3.3l0,0c0,1.9,1.7,3.4,3.6,3.3l5.2-0.5v-5.6
				L388,239.2z"/>
			<ellipse id="Ellipse_6_x5F_2_4_" class="st9" cx="390.8" cy="242.5" rx="0.9" ry="0.9"/>
		</g>
		<g id="TV_1_">
			<g id="Rectangle_16_1_">
				<rect x="246.9" y="401" class="st7" width="45.1" height="1.8"/>
				<path class="st8" d="M291.4,401.5v0.8h-44.1v-0.8H291.4 M292.4,400.5h-46.1v2.8h46.1V400.5L292.4,400.5z"/>
			</g>
			<g id="Rectangle_15_1_">
				<rect x="246.9" y="402.8" class="st7" width="45.1" height="7.8"/>
				<path class="st8" d="M291.4,403.3v6.8h-44.1v-6.8H291.4 M292.4,402.3h-46.1v8.8h46.1V402.3L292.4,402.3z"/>
			</g>
			<g id="Rectangle_17_1_">
				<rect x="254.6" y="407.1" class="st7" width="29.6" height="1.8"/>
				<path class="st8" d="M283.7,407.6v0.8h-28.6v-0.8H283.7 M284.7,406.6h-30.6v2.8h30.6V406.6L284.7,406.6z"/>
			</g>
			<path id="Rectangle_18_x5F_2_1_" class="st9" d="M262.9,408.9h12.9l-1.2,1.6H264L262.9,408.9z"/>
		</g>
		<g id="Kitchen">
			<g id="Rectangle_24">
				<rect x="497.9" y="169.4" class="st7" width="18.3" height="58.8"/>
				<path class="st8" d="M515.7,169.9v57.8h-17.3v-57.8H515.7 M516.7,168.9h-19.3v59.8h19.3V168.9L516.7,168.9z"/>
			</g>
			<g id="Rectangle_27">
				<rect x="497.9" y="105.7" class="st7" width="18.3" height="122.5"/>
				<path class="st8" d="M515.7,106.2v121.5h-17.3V106.2H515.7 M516.7,105.2h-19.3v123.5h19.3V105.2L516.7,105.2z"/>
			</g>
			<g id="Sink_3">
				<rect id="Rectangle_28_x5F_2" x="499.8" y="177.5" class="st9" width="14.5" height="22.9"/>
				<path id="Rectangle_29_x5F_2" class="st9" d="M507,191.4L507,191.4c-3,0-5.4-2.4-5.4-5.4v-1.2c0-3,2.4-5.4,5.4-5.4l0,0
					c3,0,5.4,2.4,5.4,5.4v1.2C512.4,189,510,191.4,507,191.4z"/>
				<ellipse id="Ellipse_7_x5F_3" class="st9" cx="509.4" cy="185.4" rx="0.9" ry="0.9"/>
				<path id="Vector_2" class="st11" d="M512.4,199.2v-6 M510.6,199.2v-6 M508.8,199.2v-6 M507,199.2v-6 M505.2,199.2v-6
					 M503.4,199.2v-6 M501.6,199.2v-6"/>
			</g>
			<g id="Stove">
				<g id="Rectangle_25">
					<rect x="497.9" y="126.8" class="st7" width="18.3" height="17.8"/>
					<path class="st8" d="M515.7,127.3V144h-17.3v-16.8L515.7,127.3 M516.7,126.3h-19.3V145h19.3V126.3L516.7,126.3z"/>
				</g>
				<g id="Rectangle_28_x5F_3">
					<rect x="514.3" y="126.8" class="st7" width="1.8" height="17.8"/>
					<path class="st8" d="M515.7,127.3V144h-0.8v-16.8h0.8 M516.7,126.3h-2.8V145h2.8V126.3L516.7,126.3z"/>
				</g>
				<g id="Ellipse_7_x5F_4">
					<path class="st7" d="M509.7,141.3c-0.9,0-1.7-0.7-1.7-1.7c0-0.9,0.7-1.7,1.7-1.7c0.9,0,1.7,0.7,1.7,1.7
						C511.3,140.5,510.6,141.3,509.7,141.3z"/>
					<path class="st8" d="M509.7,138.5c0.6,0,1.2,0.5,1.2,1.2s-0.5,1.2-1.2,1.2s-1.2-0.5-1.2-1.2S509,138.5,509.7,138.5
						 M509.7,137.5c-1.2,0-2.2,1-2.2,2.2s1,2.2,2.2,2.2s2.2-1,2.2-2.2C511.8,138.4,510.9,137.5,509.7,137.5L509.7,137.5z"/>
				</g>
				<g id="Ellipse_9">
					<path class="st7" d="M503.2,141.8c-1.2,0-2.2-1-2.2-2.2s1-2.2,2.2-2.2s2.2,1,2.2,2.2S504.4,141.8,503.2,141.8z"/>
					<path class="st8" d="M503.2,137.9c0.9,0,1.7,0.8,1.7,1.7s-0.8,1.7-1.7,1.7s-1.7-0.8-1.7-1.7S502.2,137.9,503.2,137.9
						 M503.2,136.9c-1.5,0-2.7,1.2-2.7,2.7s1.2,2.7,2.7,2.7s2.7-1.2,2.7-2.7S504.7,136.9,503.2,136.9L503.2,136.9z"/>
				</g>
				<g id="Ellipse_10">
					<path class="st7" d="M509.7,134.3c-1.2,0-2.2-1-2.2-2.2s1-2.2,2.2-2.2s2.2,1,2.2,2.2S510.9,134.3,509.7,134.3z"/>
					<path class="st8" d="M509.7,130.4L509.7,130.4c0.9,0,1.7,0.8,1.7,1.7s-0.8,1.7-1.7,1.7s-1.7-0.8-1.7-1.7
						S508.7,130.4,509.7,130.4 M509.7,129.4c-1.5,0-2.7,1.2-2.7,2.7s1.2,2.7,2.7,2.7s2.7-1.2,2.7-2.7
						C512.4,130.6,511.1,129.4,509.7,129.4L509.7,129.4z"/>
				</g>
				<g id="Ellipse_8">
					<path class="st7" d="M502.6,133.7c-0.9,0-1.7-0.7-1.7-1.7c0-0.9,0.7-1.7,1.7-1.7c0.9,0,1.7,0.7,1.7,1.7
						C504.3,133,503.6,133.7,502.6,133.7z"/>
					<path class="st8" d="M502.6,130.9c0.6,0,1.2,0.5,1.2,1.2s-0.5,1.2-1.2,1.2s-1.2-0.5-1.2-1.2S502,130.9,502.6,130.9
						 M502.6,129.9c-1.2,0-2.2,1-2.2,2.2s1,2.2,2.2,2.2s2.2-1,2.2-2.2S503.8,129.9,502.6,129.9L502.6,129.9z"/>
				</g>
			</g>
		</g>
		<g>
			<path class="st9" d="M387.7,105.3c0.8,0,1.5-0.7,1.5-1.5v-15h-34.3v16.5H387.7z"/>
			<path class="st9" d="M370,131.9c0.8,0,1.5-0.7,1.5-1.6v-23.5c0-0.9-0.7-1.6-1.5-1.6h-15.1v26.6H370V131.9z"/>
			<path class="st9" d="M370,157.6c0.8,0,1.5-0.7,1.5-1.5v-22.6c0-0.8-0.7-1.5-1.5-1.5h-15.1v25.6H370z"/>
			<path class="st9" d="M372.7,157.6v5.6H349V82.7h46.1v23.8h-5.9V88.8h-34.4v68.8H372.7z"/>
		</g>
		<g>
			<rect x="377.1" y="319.5" class="st7" width="49.3" height="5.3"/>
			<path class="st8" d="M425.9,320v4.3h-48.3V320H425.9 M426.9,319h-50.3v6.3h50.3V319L426.9,319z"/>
		</g>
		<g>
			<rect x="428.2" y="328.9" class="st7" width="12.6" height="8.5"/>
			<path class="st8" d="M440.3,329.4v7.5h-11.6v-7.5H440.3 M441.3,328.4h-13.6v9.5h13.6V328.4L441.3,328.4z"/>
		</g>
		<g id="Rectangle_27_1_">
			<rect x="497.9" y="210" class="st7" width="18.2" height="18.2"/>
			<path class="st8" d="M515.7,210.5v17.2h-17.2v-17.2H515.7 M516.7,209.5h-19.2v19.2h19.2V209.5L516.7,209.5z"/>
		</g>
		<g id="Rectangle_27_3_">
			<rect x="497.9" y="210" class="st7" width="1.8" height="18.2"/>
			<path class="st8" d="M499.2,210.5v17.2h-0.8v-17.2H499.2 M500.2,209.5h-2.8v19.2h2.8V209.5L500.2,209.5z"/>
		</g>
		<path id="Vector_3" class="st11" d="M504.6,219.1h4.8 M505.8,217l2.4,4.2 M505.8,221.2l2.4-4.2"/>
	</g>
	<g id="street_anchors" class="st13">
		<rect id="street_x5F_anchor_x5F_03" x="561.7" y="235" class="st14" width="10" height="10"/>
		<rect id="street_x5F_anchor_x5F_02" x="148.3" y="235" class="st14" width="10" height="10"/>
		<rect id="street_x5F_anchor_x5F_01_1_" x="355" y="20.1" class="st14" width="10" height="10"/>
	</g>
</g>
<g id="комнаты">
	<g>
		<g>
			<path class="st6" d="M396.9,180.1c0-1.5,0.9-2.2,2-2.6c0.3-0.1,0.8-0.3,0.8-0.9c0-0.5-0.4-0.6-0.8-0.6c-0.7,0-1.1,0.4-1.6,0.9
				l-0.6-1c0.6-0.6,1.2-1.2,2.1-1.2c0.9,0,1.9,0.5,1.9,1.8c0,1.4-1,1.8-1.8,2.1c-0.7,0.3-1.1,0.6-1.1,1.1v0.1h2.8v1.2h-3.9V180.1z"
				/>
			<path class="st6" d="M401.7,175h4.2v1.2l-2.4,4.9h-1.4l2.5-4.8h-2.9V175z"/>
		</g>
	</g>
	<g>
		<g>
			<path class="st6" d="M331.9,256.2h-0.8v1.3H330v-1.3h-3.2v-0.9l3.3-3.9h1v3.7h0.8V256.2z M328.3,255.1h1.6v-2h-0.1
				C329.4,253.7,328.8,254.4,328.3,255.1L328.3,255.1z"/>
			<path class="st6" d="M333.5,255.8c0.4,0,0.8,0.4,0.8,0.9c0,0.5-0.3,0.9-0.8,0.9c-0.4,0-0.7-0.4-0.7-0.9
				C332.7,256.2,333,255.8,333.5,255.8z"/>
			<path class="st6" d="M335.1,251.4h4.2v1.2l-2.4,4.9h-1.4l2.5-4.8h-2.9V251.4z"/>
		</g>
	</g>
	<g>
		<g>
			<path class="st6" d="M464.6,290.8l0.5-1c0.3,0.3,1,0.7,1.9,0.7c0.6,0,1.2-0.3,1.2-1c0-0.6-0.5-0.9-0.9-0.9
				c-0.6,0-1.1,0.3-1.5,0.6l-0.6-0.6v-3.2h3.7v1.2h-2.7v1.4c0.4-0.3,0.7-0.6,1.3-0.6c0.9,0,1.9,0.6,1.9,2c0,1.6-1.2,2.3-2.3,2.3
				C465.8,291.7,465,291.1,464.6,290.8z"/>
			<path class="st6" d="M470.9,289.9c0.4,0,0.8,0.4,0.8,0.9c0,0.5-0.3,0.9-0.8,0.9c-0.4,0-0.7-0.4-0.7-0.9
				C470.2,290.3,470.5,289.9,470.9,289.9z"/>
			<path class="st6" d="M477.5,290.2h-0.8v1.3h-1.1v-1.3h-3.2v-0.9l3.3-3.9h1v3.7h0.8V290.2z M473.9,289.1h1.6v-2h-0.1
				C475,287.8,474.5,288.5,473.9,289.1L473.9,289.1z"/>
		</g>
	</g>
	<g>
		<g>
			<path class="st6" d="M391.9,356.7l0.5-1c0.3,0.3,1,0.7,1.9,0.7c0.6,0,1.2-0.3,1.2-1c0-0.6-0.5-0.9-0.9-0.9
				c-0.6,0-1.1,0.3-1.5,0.6l-0.6-0.6v-3.2h3.7v1.2h-2.7v1.4c0.4-0.3,0.7-0.6,1.3-0.6c0.9,0,1.9,0.6,1.9,2c0,1.6-1.2,2.3-2.3,2.3
				C393.1,357.6,392.3,357,391.9,356.7z"/>
			<path class="st6" d="M398.2,355.8c0.4,0,0.8,0.4,0.8,0.9c0,0.5-0.3,0.9-0.8,0.9c-0.4,0-0.7-0.4-0.7-0.9
				C397.5,356.2,397.8,355.8,398.2,355.8z"/>
			<path class="st6" d="M399.8,351.3h4.2v1.2l-2.4,4.9h-1.4l2.5-4.8h-2.9V351.3z"/>
		</g>
	</g>
	<g>
		<g>
			<path class="st6" d="M420.8,262.7c0-1.5,0.9-2.2,2-2.6c0.3-0.1,0.8-0.3,0.8-0.9c0-0.5-0.4-0.6-0.8-0.6c-0.7,0-1.1,0.4-1.6,0.9
				l-0.6-1c0.6-0.6,1.2-1.2,2.1-1.2c0.9,0,1.9,0.5,1.9,1.8c0,1.4-1,1.8-1.8,2.1c-0.7,0.3-1.1,0.6-1.1,1.1v0.1h2.8v1.2h-3.9V262.7z"
				/>
			<path class="st6" d="M426.5,262c0.4,0,0.8,0.4,0.8,0.9c0,0.5-0.3,0.9-0.8,0.9c-0.4,0-0.7-0.4-0.7-0.9
				C425.8,262.5,426.1,262,426.5,262z"/>
			<path class="st6" d="M428.2,261.9c0-0.8,0.4-1.4,1-1.6c-0.4-0.2-0.7-0.6-0.7-1.2c0-1.1,1.2-1.7,2.1-1.7c0.9,0,2.1,0.5,2.1,1.7
				c0,0.6-0.2,1-0.7,1.2c0.5,0.2,1,0.8,1,1.6c0,1.3-1.1,2-2.3,2C429.3,263.9,428.2,263.2,428.2,261.9z M431.7,261.8
				c0-0.6-0.6-0.9-1.2-0.9s-1.2,0.3-1.2,0.9c0,0.6,0.6,0.9,1.2,0.9C431.1,262.7,431.7,262.4,431.7,261.8z M431.4,259.2
				c0-0.5-0.5-0.7-0.9-0.7c-0.4,0-0.9,0.2-0.9,0.7c0,0.4,0.3,0.6,0.9,0.6C431.1,259.9,431.4,259.6,431.4,259.2z"/>
		</g>
	</g>
	<g>
		<g>
			<path class="st6" d="M363.9,245h0.7c0.3,0,0.6-0.2,0.6-0.6c0-0.5-0.4-0.7-0.8-0.7c-0.6,0-1.1,0.4-1.6,1l-0.6-0.9
				c0.5-0.6,1.3-1.3,2.2-1.3c0.8,0,1.9,0.5,1.9,1.8c0,0.5-0.3,0.9-0.5,1.1c0.4,0.2,0.9,0.6,0.9,1.5c0,1.4-1.1,2.2-2.4,2.2
				c-0.9,0-1.7-0.4-2.4-1.3l0.6-1c0.5,0.6,1,1,1.8,1c0.7,0,1.3-0.4,1.3-1c0-0.5-0.5-0.6-0.7-0.6h-0.9V245z"/>
			<path class="st6" d="M368.3,247.1c0.4,0,0.8,0.4,0.8,0.9c0,0.5-0.3,0.9-0.8,0.9c-0.4,0-0.7-0.4-0.7-0.9
				C367.5,247.5,367.8,247.1,368.3,247.1z"/>
			<path class="st6" d="M369.9,247c0-0.8,0.4-1.4,1-1.6c-0.4-0.2-0.7-0.6-0.7-1.2c0-1.1,1.2-1.7,2.1-1.7c0.9,0,2.1,0.5,2.1,1.7
				c0,0.6-0.2,1-0.7,1.2c0.5,0.2,1,0.8,1,1.6c0,1.3-1.1,2-2.3,2C371.1,249,369.9,248.2,369.9,247z M373.4,246.9
				c0-0.6-0.6-0.9-1.2-0.9s-1.2,0.3-1.2,0.9c0,0.6,0.6,0.9,1.2,0.9C372.8,247.8,373.4,247.4,373.4,246.9z M373.2,244.3
				c0-0.5-0.5-0.7-0.9-0.7c-0.4,0-0.9,0.2-0.9,0.7c0,0.4,0.3,0.6,0.9,0.6C372.8,244.9,373.2,244.7,373.2,244.3z"/>
		</g>
	</g>
	<g>
		<g>
			<path class="st6" d="M219.7,363.8l1.4-0.8h1v6.1H221v-4.7l-1,0.6L219.7,363.8z"/>
			<path class="st6" d="M223.2,363h4.2v1.2l-2.4,4.9h-1.4l2.5-4.8h-2.9V363z"/>
			<path class="st6" d="M229,367.5c0.4,0,0.8,0.4,0.8,0.9c0,0.5-0.3,0.9-0.8,0.9c-0.4,0-0.7-0.4-0.7-0.9
				C228.3,367.9,228.6,367.5,229,367.5z"/>
			<path class="st6" d="M230.5,363.8l1.4-0.8h1v6.1h-1.1v-4.7l-1,0.6L230.5,363.8z"/>
		</g>
	</g>
	<g>
		<g>
			<path class="st6" d="M217.3,144.2l1.4-0.8h1v6.1h-1.1v-4.7l-1,0.6L217.3,144.2z"/>
			<path class="st6" d="M220.8,148.8l0.5-1c0.3,0.3,1,0.7,1.9,0.7c0.6,0,1.2-0.3,1.2-1c0-0.6-0.5-0.9-0.9-0.9
				c-0.6,0-1.1,0.3-1.5,0.6l-0.6-0.6v-3.2h3.7v1.2h-2.7v1.4c0.4-0.3,0.7-0.6,1.3-0.6c0.9,0,1.9,0.6,1.9,2c0,1.6-1.2,2.3-2.3,2.3
				C221.9,149.7,221.2,149.1,220.8,148.8z"/>
			<path class="st6" d="M227,147.9c0.4,0,0.8,0.4,0.8,0.9c0,0.5-0.3,0.9-0.8,0.9c-0.4,0-0.7-0.4-0.7-0.9
				C226.3,148.3,226.6,147.9,227,147.9z"/>
			<path class="st6" d="M233.6,148.2h-0.8v1.3h-1.1v-1.3h-3.2v-0.9l3.3-3.9h1v3.7h0.8V148.2z M230.1,147.1h1.6v-2h-0.1
				C231.1,145.8,230.6,146.5,230.1,147.1L230.1,147.1z"/>
		</g>
	</g>
	<g>
		<g>
			<path class="st6" d="M258.8,213.8l1.4-0.8h1v6.1h-1.1v-4.7l-1,0.6L258.8,213.8z"/>
			<path class="st6" d="M267.3,217.8h-0.8v1.3h-1.1v-1.3h-3.2V217l3.3-3.9h1v3.7h0.8V217.8z M263.8,216.7h1.6v-2h-0.1
				C264.8,215.4,264.3,216.1,263.8,216.7L263.8,216.7z"/>
			<path class="st6" d="M268.9,217.5c0.4,0,0.8,0.4,0.8,0.9c0,0.5-0.3,0.9-0.8,0.9c-0.4,0-0.7-0.4-0.7-0.9
				C268.2,217.9,268.5,217.5,268.9,217.5z"/>
			<path class="st6" d="M274.5,214.4c-0.4-0.2-0.8-0.4-1.3-0.4c-0.8,0-1.6,0.7-1.6,2c0.4-0.4,1-0.9,1.7-0.9c1.2,0,1.9,1,1.9,1.9
				c0,1.3-0.9,2.2-2.1,2.2c-1.3,0-2.5-1.1-2.5-3.1c0-2.1,1.3-3.4,2.6-3.4c0.8,0,1.4,0.4,1.8,0.5L274.5,214.4z M271.7,216.8
				c0.2,0.8,0.8,1.3,1.4,1.3c0.6,0,1-0.5,1-1c0-0.4-0.2-0.8-0.9-0.8C272.6,216.2,272.1,216.5,271.7,216.8z"/>
		</g>
	</g>
</g>
</svg>
