<?xml version="1.0" encoding="utf-8"?>
<!-- Generator: Adobe Illustrator 26.0.3, SVG Export Plug-In . SVG Version: 6.00 Build 0)  -->
<svg version="1.1" xmlns="http://www.w3.org/2000/svg" xmlns:xlink="http://www.w3.org/1999/xlink" x="0px" y="0px"
	 viewBox="0 0 720 480" style="enable-background:new 0 0 720 480;" xml:space="preserve">
<style type="text/css">
	.st0{fill:#DBD4CA;}
	.st1{opacity:0.3;}
	.st2{opacity:0.7;fill:#C49F8A;enable-background:new    ;}
	.st3{fill:#C49F8A;}
	.st4{fill:none;stroke:#565440;}
	.st5{fill:none;stroke:#565440;stroke-width:1;stroke-miterlimit:4.0002;}
	.st6{fill:#565440;}
	.st7{fill:#E9E4DC;}
	.st8{fill:#E9E4DC;stroke:#C49F8A;stroke-linejoin:round;}
	.st9{fill:#E9E4DC;stroke:#C49F8A;}
	.st10{fill:#E9E4DC;stroke:#C49F8A;stroke-miterlimit:3.9998;}
	.st11{fill:none;stroke:#C49F8A;}
	.st12{fill:none;}
</style>
<g id="_x31__x5F_2">
	<polygon id="Floor" class="st0" points="534.4,60.5 534.4,83.2 549.7,87.9 528.5,169.9 527.8,239.5 547.5,247.3 528,325.1 
		528,406.9 160.4,406.9 160.4,60.5 	"/>
	<g id="Wet_Floor">
		<g class="st1">
			<rect x="172.6" y="280" class="st2" width="123" height="123.5"/>
		</g>
		<path class="st3" d="M183.1,401.6l-1.8,1.8h1.4l1.1-1.1l1.1,1.1h1.4l-1.8-1.8l9.8-9.8l9.8,9.8l-1.8,1.8h1.4l1.1-1.1l1.1,1.1h1.4
			l-1.8-1.8l10-10l9.7,9.7l-2.1,2.1h1.4l1.4-1.4l1.4,1.4h1.4l-2.1-2.1l9.8-9.8l9.8,9.8l-2.1,2.1h1.4l1.4-1.4l1.4,1.4h1.4l-2.1-2.1
			l9.7-9.7l10,10l-1.8,1.8h1.4l1.1-1.1l1.1,1.1h1.4l-1.8-1.8l9.8-9.8l9.8,9.8l-1.8,1.8h1.4l1.1-1.1l1.1,1.1h1.4l-1.8-1.8l5.9-5.9
			v-1.4l-6.6,6.6l-9.8-9.8l9.8-9.8l6.6,6.6v-1.4l-5.9-5.9l5.9-5.9v-1.4l-6.6,6.6l-10-10l9.8-9.8l6.8,6.8v-1.4l-6.1-6.1l6.1-6.1V352
			l-6.8,6.8L279,349l9.7-9.7l6.9,6.9v-1.4l-6.2-6.2l6.2-6.2V331l-6.9,6.9l-9.7-9.7l9.8-9.8l6.8,6.8v-1.4l-6.1-6.1l6.1-6.1v-1.4
			l-6.8,6.8l-9.8-9.8l10-10l6.6,6.6v-1.4l-5.9-5.9l5.9-5.9v-1.4l-6.6,6.6l-9.8-9.8l5.9-5.9h-1.4l-5.2,5.2l-5.2-5.2h-1.4l5.9,5.9
			l-10,10l-9.7-9.7l6.2-6.2h-1.4l-5.5,5.5l-5.5-5.5h-1.4l6.2,6.2l-9.8,9.8l-9.8-9.8l6.2-6.2h-1.4l-5.5,5.5l-5.5-5.5h-1.4l6.2,6.2
			L226,296l-10-10l5.9-5.9h-1.4l-5.2,5.2l-5.2-5.2h-1.4l5.9,5.9l-9.8,9.8L195,286l5.9-5.9h-1.4l-5.2,5.2l-5.2-5.2h-1.4l5.9,5.9
			l-9.8,9.8l-9.7-9.7l6-6h-1.4l-5.3,5.3l-0.8-0.8v1.4l0.1,0.1l-0.1,0.1v1.4l0.8-0.8l9.7,9.7l-9.8,9.8l-0.7-0.7v1.4l0,0l0,0v1.4
			l0.7-0.7l9.8,9.8l-9.7,9.7l-0.8-0.8v1.4l0.1,0.1l-0.1,0.1v1.4l0.8-0.8l10,10l-9.8,9.8l-1-1v1.4l0.3,0.3l-0.3,0.3v1.4l1-1l9.8,9.8
			l-10,10l-0.8-0.8v1.4l0.1,0.1l-0.1,0.1v1.4l0.8-0.8l9.7,9.7l-9.8,9.8l-0.7-0.7v1.4l0,0l0,0v1.4l0.7-0.7L183.1,401.6z M184.5,380.7
			l10-10l9.8,9.8l-10,10L184.5,380.7z M256.7,349l-9.8,9.8l-9.8-9.8l9.8-9.8L256.7,349z M247.6,338.5l9.8-9.8l9.8,9.8l-9.8,9.8
			L247.6,338.5z M236.4,348.3l-9.8-9.8l9.8-9.8l9.8,9.8L236.4,348.3z M235.7,349l-9.8,9.8l-9.8-9.8l9.8-9.8L235.7,349z M215.4,348.3
			l-9.7-9.7l9.8-9.8l9.7,9.7L215.4,348.3z M214.7,349l-9.7,9.7l-9.7-9.7l9.7-9.7L214.7,349z M214.8,370l-9.8,9.8l-9.8-9.8l9.8-9.8
			L214.8,370z M205.7,359.5l9.7-9.7l9.8,9.8l-9.7,9.7L205.7,359.5z M225.9,360.2l9.8,9.8l-9.7,9.7l-9.8-9.8L225.9,360.2z
			 M226.6,359.5l9.8-9.8l9.8,9.8l-9.8,9.8L226.6,359.5z M246.9,360.2l9.7,9.7l-9.8,9.8l-9.7-9.7L246.9,360.2z M247.6,359.5l9.8-9.8
			l9.7,9.7l-9.8,9.8L247.6,359.5z M267.8,360.2l9.8,9.8l-9.8,9.8L258,370L267.8,360.2z M258.1,349l9.8-9.8l9.7,9.7l-9.8,9.8
			L258.1,349z M258.1,328l9.7-9.7l9.8,9.8l-9.7,9.7L258.1,328z M257.4,327.3l-9.8-9.8l9.7-9.7l9.8,9.8L257.4,327.3z M256.7,328
			l-9.8,9.8l-9.8-9.8l9.8-9.8L256.7,328z M236.4,327.3l-9.7-9.7l9.8-9.8l9.7,9.7L236.4,327.3z M235.7,328l-9.8,9.8l-9.7-9.7l9.8-9.8
			L235.7,328z M215.5,327.4l-9.8-9.8l9.8-9.8l9.8,9.8L215.5,327.4z M214.8,328.1l-9.8,9.8l-9.8-9.8l9.8-9.8L214.8,328.1z
			 M194.5,327.4l-10-10l9.8-9.8l10,10L194.5,327.4z M204.3,338.6l-9.7,9.7l-9.8-9.8l9.7-9.7L204.3,338.6z M204.3,359.5l-9.8,9.8
			l-9.7-9.7l9.8-9.8L204.3,359.5z M204.8,400.9l-9.8-9.8l10-10l9.8,9.8L204.8,400.9z M205.7,380.4l9.8-9.8l9.8,9.8l-9.8,9.8
			L205.7,380.4z M225.9,400.7l-9.7-9.7l9.8-9.8l9.7,9.7L225.9,400.7z M226.7,380.4l9.7-9.7l9.7,9.7l-9.7,9.7L226.7,380.4z
			 M246.9,400.7l-9.8-9.8l9.7-9.7l9.8,9.8L246.9,400.7z M247.5,380.4l9.8-9.8l9.8,9.8l-9.8,9.8L247.5,380.4z M268,400.9l-10-10
			l9.8-9.8l10,10L268,400.9z M288.3,380.6l-9.8,9.8l-10-10l9.8-9.8L288.3,380.6z M288.1,359.5l-9.8,9.8l-9.8-9.8l9.8-9.8
			L288.1,359.5z M288,338.5l-9.7,9.7l-9.7-9.7l9.7-9.7L288,338.5z M288.1,317.6l-9.8,9.8l-9.8-9.8l9.8-9.8L288.1,317.6z
			 M278.5,286.6l9.8,9.8l-10,10l-9.8-9.8L278.5,286.6z M277.6,307.1l-9.8,9.8l-9.8-9.8l9.8-9.8L277.6,307.1z M257.4,286.9l9.7,9.7
			l-9.8,9.8l-9.7-9.7L257.4,286.9z M256.6,307.1l-9.7,9.7l-9.7-9.7l9.7-9.7L256.6,307.1z M236.4,286.9l9.8,9.8l-9.7,9.7l-9.8-9.8
			L236.4,286.9z M235.8,307.1l-9.8,9.8l-9.8-9.8l9.8-9.8L235.8,307.1z M215.3,286.6l10,10l-9.8,9.8l-10-10L215.3,286.6z
			 M214.8,307.1l-9.8,9.8l-10-10l9.8-9.8L214.8,307.1z M194.3,286.6l9.8,9.8l-9.8,9.8l-9.8-9.8L194.3,286.6z M174,306.9l9.8-9.8
			l9.8,9.8l-9.8,9.8L174,306.9z M174.1,327.8l9.7-9.7l10,10l-9.7,9.7L174.1,327.8z M174.3,349l9.8-9.8l9.8,9.8l-9.8,9.8L174.3,349z
			 M174.1,370.2l10-10l9.7,9.7l-10,10L174.1,370.2z M183.8,381.4l9.8,9.8l-9.8,9.8l-9.8-9.8L183.8,381.4z"/>
	</g>
	<path id="Doors" class="st4" d="M243.6,285c0,5.4,1,9.8,2.9,14.7c2,4.9,4.9,9.3,8.3,12.7c3.4,3.9,7.8,6.8,12.7,8.8
		c4.9,2,9.8,2.9,15.2,2.9V285 M370.8,245.9c0,5.4-1,9.8-2.9,14.7c-2,4.9-4.9,9.3-8.3,12.7c-3.4,3.9-7.8,6.8-12.7,8.8
		c-4.9,2-9.8,2.9-15.2,2.9v-39.1 M160.7,192.1c-6.4,0-12.5,1.5-18.4,3.9c-5.9,2.4-11.7,5.9-16.1,10.8c-4.4,4.4-8.3,9.8-10.8,15.7
		c-2.4,5.9-3.9,12.2-3.9,18.6h49.2"/>
	<g id="Windows">
		
			<rect x="497.8" y="281.9" transform="matrix(0.2515 -0.9679 0.9679 0.2515 129.1523 738.2201)" class="st5" width="88.1" height="7.3"/>
		
			<rect x="502.7" y="124.7" transform="matrix(0.2515 -0.9679 0.9679 0.2515 282.0893 621.527)" class="st5" width="80.3" height="7.3"/>
	</g>
	<g id="Walls">
		<path class="st6" d="M537.1,402.4v-78.3h-34.2v78.3H297.4V285h29.3v-4.9v-34.2h4.9V241h-34.2v4.9h24.5v34.2h-39.1v4.9h9.8v117.4
			h-98.1v-19.8h-19.3V285h68.5v-4.9h-68.5V241h-14.7v161.4v14.7H544l12.2,2.9l3.4-14.2l-14.2-3.4H537.1z M175.1,387.5h14.4v14.9
			h-14.4V387.5z"/>
		<path class="st6" d="M175.1,168.9h28.1V164h-28.1V74.7h82.7v17.6h20.7V74.7h224.3v12.1h29.3l24,5.4l3.4-14.2L537.1,73V60H160.4
			v14.7v117.4h14.7V168.9z M273.6,87.4h-10.9V74.7h10.9V87.4z"/>
		<polygon class="st6" points="537.1,223.1 537.1,183.2 541,166.2 517,160.8 512.6,179.4 512.6,199 512.6,199 512.6,241 370.8,241 
			370.8,245.9 532.2,245.9 556.1,251.2 559.6,237.1 537.1,232 537.1,223.1 		"/>
	</g>
	<g id="Furniture_2_">
		<g>
			<g>
				<rect x="205.1" y="366.2" class="st7" width="86.9" height="35.7"/>
				<path class="st3" d="M291.5,366.7v34.7h-85.9v-34.7H291.5 M292.5,365.7h-87.9v36.7h87.9V365.7L292.5,365.7z"/>
			</g>
			<g>
				<g>
					<path class="st8" d="M212.1,384c0,6.8,5.8,12,12.5,11.4c7.4-0.7,16.6-1.3,23.5-1.3c6.8,0,16.1,0.7,23.5,1.3
						c6.7,0.6,12.5-4.7,12.5-11.4s-5.8-12-12.5-11.4c-7.4,0.7-16.6,1.3-23.5,1.3c-6.8,0-16.1-0.7-23.5-1.3
						C217.9,372.1,212.1,377.3,212.1,384z"/>
					<ellipse class="st8" cx="223.8" cy="384" rx="1.7" ry="1.7"/>
				</g>
			</g>
		</g>
		<g>
			<g>
				<rect x="414" y="304" class="st7" width="78.8" height="97.9"/>
				<path class="st3" d="M414.5,304.5h77.8v96.9h-77.8V304.5 M413.5,303.5v98.9h79.8v-98.9H413.5L413.5,303.5z"/>
			</g>
			<rect x="420.3" y="370.9" class="st9" width="31.1" height="24.5"/>
			<rect x="455.3" y="370.9" class="st9" width="31.1" height="24.5"/>
			<polygon class="st10" points="424.1,380.8 446.6,387.2 452.7,363.5 430.2,357.2 			"/>
			<polygon class="st10" points="454.3,363.5 460.3,387.2 482.8,380.8 476.8,357.2 			"/>
			<g>
				<polygon class="st7" points="414,376 414,303 492.8,303 492.8,381.2 461.4,383.2 				"/>
				<path class="st3" d="M414.5,303.5h77.7v76.6v0.6l-30.9,2l-46.9-7.1L414.5,303.5 M413.5,302.5v73.4v0.5l47.8,7.3l31.9-2.1V380
					v-77.5H413.5L413.5,302.5z"/>
			</g>
			<polyline class="st11" points="492.2,379.1 461.1,379.1 414.4,375.1 			"/>
		</g>
		<g>
			<rect x="175.6" y="285.5" class="st7" width="10.7" height="47.9"/>
			<path class="st3" d="M185.8,286v46.9h-9.7V286H185.8 M186.8,285h-11.7v48.9h11.7V285L186.8,285z"/>
		</g>
		<g>
			<polygon class="st7" points="194.9,401.9 194.9,382.1 175.6,382.1 175.6,365.2 205.1,365.2 205.1,401.9 			"/>
			<path class="st3" d="M204.6,365.7v17.4v18.3h-9.2v-18.8v-1h-1h-18.3v-15.9h17.6H204.6 M205.6,364.7h-11.9h-18.6v17.9h19.3v19.8
				h11.2v-19.3V364.7L205.6,364.7z"/>
		</g>
		<g>
			<path class="st9" d="M451.8,109c0,1.4-1.2,2.6-2.6,2.6h-39.1c-1.4,0-2.6-1.2-2.6-2.6V83.4h44.3L451.8,109L451.8,109z"/>
			<path class="st9" d="M494,109c0,1.4-1.2,2.6-2.6,2.6h-37.1c-1.4,0-2.6-1.2-2.6-2.6V83.4H494V109L494,109z"/>
			<polygon class="st9" points="494,113.7 494,83.4 450.7,83.4 407.5,83.4 407.5,113.7 399.3,113.7 399.3,75.2 502.2,75.2 
				502.2,113.7 			"/>
		</g>
		<g>
			<path class="st7" d="M340.7,98.4c-5.7,0-10.3-4.6-10.3-10.3c0-5.7,4.6-10.3,10.3-10.3S351,82.4,351,88.1
				C351.1,93.8,346.4,98.4,340.7,98.4z"/>
			<path class="st3" d="M340.7,78.2c5.4,0,9.8,4.4,9.8,9.8s-4.4,9.8-9.8,9.8s-9.8-4.4-9.8-9.8S335.3,78.2,340.7,78.2 M340.7,77.2
				c-6,0-10.8,4.9-10.8,10.8c0,6,4.9,10.8,10.8,10.8s10.8-4.9,10.8-10.8S346.7,77.2,340.7,77.2L340.7,77.2z"/>
		</g>
		<g>
			<path class="st7" d="M340.7,132.1c-5.7,0-10.3-4.6-10.3-10.3s4.6-10.3,10.3-10.3s10.3,4.6,10.3,10.3
				C351.1,127.5,346.4,132.1,340.7,132.1z"/>
			<path class="st3" d="M340.7,112c5.4,0,9.8,4.4,9.8,9.8s-4.4,9.8-9.8,9.8s-9.8-4.4-9.8-9.8S335.3,112,340.7,112 M340.7,111
				c-6,0-10.8,4.9-10.8,10.8s4.9,10.8,10.8,10.8s10.8-4.9,10.8-10.8C351.5,115.9,346.7,111,340.7,111L340.7,111z"/>
		</g>
		<g>
			<path class="st7" d="M340.7,166.3c-5.7,0-10.3-4.6-10.3-10.3s4.6-10.3,10.3-10.3S351,150.3,351,156
				C351.1,161.6,346.4,166.3,340.7,166.3z"/>
			<path class="st3" d="M340.7,146.1c5.4,0,9.8,4.4,9.8,9.8s-4.4,9.8-9.8,9.8s-9.8-4.4-9.8-9.8S335.3,146.1,340.7,146.1
				 M340.7,145.1c-6,0-10.8,4.9-10.8,10.8s4.9,10.8,10.8,10.8s10.8-4.9,10.8-10.8S346.7,145.1,340.7,145.1L340.7,145.1z"/>
		</g>
		<g>
			<g>
				<rect x="279" y="75.1" class="st7" width="43.6" height="92.5"/>
				<path class="st3" d="M322.1,75.6v91.5h-42.6V75.6H322.1 M323.1,74.6h-44.6v93.5h44.6V74.6L323.1,74.6z"/>
			</g>
			<g>
				<rect x="305.5" y="75.1" class="st7" width="3.7" height="92.5"/>
				<path class="st3" d="M308.7,75.6v91.5H306V75.6H308.7 M309.7,74.6H305v93.5h4.7V74.6L309.7,74.6z"/>
			</g>
		</g>
		<g>
			<g>
				<rect x="315" y="285.4" class="st7" width="11.2" height="116.5"/>
				<path class="st3" d="M315.5,285.9h10.2v115.5h-10.2V285.9 M314.5,284.9v117.5h12.2V284.9H314.5L314.5,284.9z"/>
			</g>
			<g>
				<rect x="297.9" y="285.4" class="st7" width="26.5" height="116.5"/>
				<path class="st3" d="M323.9,285.9v115.5h-25.5V285.9H323.9 M324.9,284.9h-27.5v117.5h27.5V284.9L324.9,284.9z"/>
			</g>
			<path class="st9" d="M298.3,285.4L324,402.3"/>
		</g>
		<g>
			<g>
				<rect x="175.6" y="175.4" class="st7" width="23.7" height="11.2"/>
				<path class="st3" d="M176.1,175.9h22.7v10.2h-22.7V175.9 M175.1,174.9v12.2h24.7v-12.2H175.1L175.1,174.9z"/>
			</g>
			<g>
				<rect x="175.6" y="169.5" class="st7" width="23.7" height="15.2"/>
				<path class="st3" d="M176.1,170h22.7v14.2h-22.7V170 M175.1,169v16.2h24.7V169H175.1L175.1,169z"/>
			</g>
			<path class="st9" d="M199.3,169.5l-23.7,15.4"/>
		</g>
		<g>
			<g>
				<rect x="175.6" y="251.6" class="st7" width="66.1" height="11.2"/>
				<path class="st3" d="M176.1,252.1h65.1v10.2h-65.1L176.1,252.1 M175.1,251.1v12.2h67.1v-12.2H175.1L175.1,251.1z"/>
			</g>
			<g>
				<rect x="175.6" y="253.4" class="st7" width="66.1" height="26.2"/>
				<path class="st3" d="M176.1,253.9h65.1v25.2h-65.1L176.1,253.9 M175.1,252.9v27.2h67.1v-27.2H175.1L175.1,252.9z"/>
			</g>
			<path class="st9" d="M175.4,279.2l66.8-25.4"/>
		</g>
		<g>
			<g>
				<rect x="298" y="246.4" class="st7" width="23.4" height="33.1"/>
				<path class="st3" d="M320.9,246.9v32.2h-22.4V247L320.9,246.9 M321.9,245.9h-24.4v34.2h24.4V245.9L321.9,245.9z"/>
			</g>
			<g>
				<line class="st11" x1="298.2" y1="246.6" x2="305.9" y2="257.5"/>
			</g>
			<g>
				<line class="st11" x1="321.2" y1="246.6" x2="313.5" y2="257.5"/>
			</g>
			<g>
				<line class="st11" x1="298.2" y1="279.4" x2="305.9" y2="268.5"/>
			</g>
			<g>
				<line class="st11" x1="321.2" y1="279.4" x2="313.5" y2="268.5"/>
			</g>
		</g>
		<g id="Toilet_3_">
			<g id="Rectangle_21_3_">
				<rect x="186.3" y="295.4" class="st7" width="8.5" height="26.5"/>
				<path class="st3" d="M194.3,295.9v25.5h-7.5v-25.5H194.3 M195.3,294.9h-9.5v27.5h9.5V294.9L195.3,294.9z"/>
			</g>
			<path id="Rectangle_19_x5F_2_3_" class="st9" d="M207.6,318c4,0.3,7.4-2.9,7.4-6.9l0,0c0-4-3.4-7.2-7.4-6.9l-12.8,0.9v12.1
				L207.6,318z"/>
			<path id="Rectangle_18_x5F_13_3_" class="st9" d="M207.6,316.6c3.2,0.3,6-2.3,6-5.5l0,0c0-3.3-2.8-5.8-6-5.5l-8.8,0.8v9.4
				L207.6,316.6z"/>
			<ellipse id="Ellipse_6_x5F_2_3_" class="st9" cx="202.8" cy="311.1" rx="1.7" ry="1.7"/>
		</g>
		<g id="Sink_2_2_">
			<g id="Rectangle_16_x5F_11">
				<rect x="175.5" y="333.7" class="st7" width="23.6" height="31.5"/>
				<path class="st3" d="M198.7,334.2v30.5h-22.6v-30.5H198.7 M199.7,333.2h-24.6v32.5h24.6V333.2L199.7,333.2z"/>
			</g>
			<path id="Rectangle_19_x5F_5_2_" class="st9" d="M187.5,362.2L187.5,362.2c4.1,0,7.5-3.3,7.5-7.5V344c0-4.1-3.3-7.5-7.5-7.5l0,0
				c-4.1,0-7.5,3.3-7.5,7.5v10.7C180,358.9,183.4,362.2,187.5,362.2z"/>
			<path id="Ellipse_7_x5F_2" class="st9" d="M183.5,351.1c0.9,0,1.6-0.7,1.7-1.7c0-0.9-0.6-1.6-1.7-1.7c-0.9-0.1-1.7,0.7-1.7,1.7
				C181.9,350.3,182.6,351.1,183.5,351.1z"/>
		</g>
		<g id="TV">
			<g id="Rectangle_16">
				<rect x="414.8" y="226.5" class="st7" width="74" height="10"/>
				<path class="st3" d="M488.3,227v9h-73v-9H488.3 M489.3,226h-75v11h75V226L489.3,226z"/>
			</g>
			<g id="Rectangle_15">
				<rect x="414.8" y="228.5" class="st7" width="74" height="12"/>
				<path class="st3" d="M488.3,229v11h-73v-11H488.3 M489.3,228h-75v13h75V228L489.3,228z"/>
			</g>
			<rect id="Rectangle_17" x="427.8" y="236.7" class="st9" width="48" height="1.8"/>
			<path id="Rectangle_18_x5F_2" class="st9" d="M441.6,238.6h20.3l-1.8,1.8h-16.6L441.6,238.6z"/>
		</g>
		<g id="TV_1_">
			<g id="Rectangle_16_1_">
				<rect x="423.9" y="250.3" class="st7" width="74" height="10"/>
				<path class="st3" d="M497.4,250.8v9h-73v-9L497.4,250.8 M498.4,249.8h-75v11h75V249.8L498.4,249.8z"/>
			</g>
			<g id="Rectangle_15_1_">
				<rect x="423.9" y="246.3" class="st7" width="74" height="12"/>
				<path class="st3" d="M497.4,246.8v11h-73v-11L497.4,246.8 M498.4,245.8h-75v13h75V245.8L498.4,245.8z"/>
			</g>
			<rect id="Rectangle_17_1_" x="436.9" y="248.2" class="st9" width="48" height="1.8"/>
			<path id="Rectangle_18_x5F_2_1_" class="st9" d="M450.8,248.2h20.3l-1.8-1.8h-16.6L450.8,248.2z"/>
		</g>
		<g id="Kitchen_1_">
			<g id="Rectangle_24_1_">
				<rect x="175.7" y="75.2" class="st7" width="80.8" height="31"/>
				<path class="st3" d="M256,75.7v30h-79.8v-30H256 M257,74.7h-81.8v32H257V74.7L257,74.7z"/>
			</g>
			<g id="Rectangle_24_2_">
				<rect x="175.6" y="75.2" class="st7" width="29.9" height="55.2"/>
				<path class="st3" d="M205,75.7v54.2h-28.9V75.7H205 M206,74.7h-30.9v56.2H206V74.7L206,74.7z"/>
			</g>
			<g id="Rectangle_27">
				<rect x="175.6" y="130.4" class="st7" width="29.9" height="29.9"/>
				<path class="st3" d="M205,130.9v28.9h-28.9v-28.9H205 M206,129.9h-30.9v31H206V129.9L206,129.9z"/>
			</g>
			<g id="Rectangle_27_1_">
				<rect x="175.6" y="160.4" class="st7" width="30" height="3.2"/>
				<path class="st3" d="M205.1,160.9v2.2h-29v-2.2H205.1 M206.1,159.9h-31v4.2h31V159.9L206.1,159.9z"/>
			</g>
			<g id="Rectangle_27_2_">
				<rect x="203.7" y="130.4" class="st7" width="1.8" height="29.9"/>
				<path class="st3" d="M204.9,130.9v29h-0.7v-29H204.9 M205.9,129.9h-2.7v31h2.8v-31H205.9z"/>
			</g>
			<g id="Sink_3_1_">
				<rect id="Rectangle_28_x5F_2_1_" x="179.2" y="83.9" class="st9" width="21.8" height="34.5"/>
				<path id="Rectangle_29_x5F_2_1_" class="st9" d="M190.1,97.5L190.1,97.5c4.5,0,8.2,3.7,8.2,8.2v1.8c0,4.5-3.7,8.2-8.2,8.2l0,0
					c-4.5,0-8.2-3.7-8.2-8.2v-1.8C182,101.1,185.6,97.5,190.1,97.5z"/>
				<ellipse id="Ellipse_7_x5F_3_1_" class="st9" cx="186.5" cy="107.4" rx="1.7" ry="1.7"/>
				<path id="Vector_2_1_" class="st11" d="M182,85.7v9.1 M184.7,85.7v9.1 M187.4,85.7v9.1 M190.1,85.7v9.1 M192.8,85.7v9.1
					 M195.6,85.7v9.1 M198.3,85.7v9.1"/>
			</g>
			<g id="Stove_1_">
				<g id="Rectangle_25_1_">
					<rect x="227.2" y="75.2" class="st7" width="30.1" height="31"/>
					<path class="st3" d="M256.8,75.7v30h-29.1v-30H256.8 M257.8,74.7h-31.1v32h31.1V74.7L257.8,74.7z"/>
				</g>
				<g id="Rectangle_28_x5F_3_1_">
					<rect x="227.2" y="75.2" class="st7" width="30.1" height="1.8"/>
					<path class="st3" d="M256.8,75.7v0.8h-29.1v-0.8H256.8 M257.8,74.7h-31.1v2.8h31.1V74.7L257.8,74.7z"/>
				</g>
				<g id="Ellipse_7_x5F_4_1_">
					<path class="st7" d="M249.4,88.8c-1.9,0-3.5-1.6-3.5-3.5s1.6-3.5,3.5-3.5s3.5,1.6,3.5,3.5C252.9,87.3,251.3,88.8,249.4,88.8z"
						/>
					<path class="st3" d="M249.4,82.3c1.7,0,3,1.3,3,3s-1.3,3-3,3s-3-1.3-3-3S247.7,82.3,249.4,82.3 M249.4,81.3c-2.2,0-4,1.8-4,4
						s1.8,4,4,4s4-1.8,4-4S251.6,81.3,249.4,81.3L249.4,81.3z"/>
				</g>
				<g id="Ellipse_9_1_">
					<circle class="st7" cx="249.4" cy="97.3" r="4.5"/>
					<path class="st3" d="M249.4,93.3c2.2,0,4,1.8,4,4s-1.8,4-4,4s-4-1.8-4-4S247.2,93.3,249.4,93.3 M249.4,92.3c-2.8,0-5,2.2-5,5
						s2.2,5,5,5s5-2.2,5-5C254.3,94.6,252.1,92.3,249.4,92.3L249.4,92.3z"/>
				</g>
				<g id="Ellipse_10_1_">
					<path class="st7" d="M235.4,89.8c-2.5,0-4.5-2-4.5-4.5s2-4.5,4.5-4.5s4.5,2,4.5,4.5S237.9,89.8,235.4,89.8z"/>
					<path class="st3" d="M235.4,81.3c2.2,0,4,1.8,4,4s-1.8,4-4,4s-4-1.8-4-4S233.2,81.3,235.4,81.3 M235.4,80.3c-2.8,0-5,2.2-5,5
						s2.2,5,5,5s5-2.2,5-5C240.4,82.6,238.1,80.3,235.4,80.3L235.4,80.3z"/>
				</g>
				<g id="Ellipse_8_1_">
					<circle class="st7" cx="235.4" cy="98.3" r="3.5"/>
					<path class="st3" d="M235.4,95.3c1.7,0,3,1.3,3,3s-1.3,3-3,3s-3-1.3-3-3S233.7,95.3,235.4,95.3 M235.4,94.3c-2.2,0-4,1.8-4,4
						s1.8,4,4,4s4-1.8,4-4C239.4,96.1,237.6,94.3,235.4,94.3L235.4,94.3z"/>
				</g>
			</g>
			<path id="Vector_3_1_" class="st11" d="M194,145.9h-7.7 M192.1,149.3l-3.9-6.8 M192.1,142.5l-3.9,6.8"/>
		</g>
	</g>
	<g id="street_anchors">
		<rect id="street_anchor_01" x="589.6" y="235" class="st12" width="10" height="10"/>
	</g>
</g>
<g id="комнаты">
	<g>
		<g>
			<path class="st6" d="M202.7,216c0-1.5,0.9-2.2,2-2.6c0.3-0.1,0.8-0.3,0.8-0.9c0-0.5-0.4-0.6-0.8-0.6c-0.7,0-1.1,0.4-1.6,0.9
				l-0.6-1c0.6-0.6,1.2-1.2,2.1-1.2c0.9,0,1.9,0.5,1.9,1.8c0,1.4-1,1.8-1.8,2.1c-0.7,0.3-1.1,0.6-1.1,1.1v0.1h2.8v1.2h-3.9V216z"/>
			<path class="st6" d="M208.3,215.4c0.4,0,0.8,0.4,0.8,0.9c0,0.5-0.3,0.9-0.8,0.9c-0.4,0-0.7-0.4-0.7-0.9
				C207.6,215.8,207.9,215.4,208.3,215.4z"/>
			<path class="st6" d="M210,215.2c0-0.8,0.4-1.4,1-1.6c-0.4-0.2-0.7-0.6-0.7-1.2c0-1.1,1.2-1.7,2.1-1.7c0.9,0,2.1,0.5,2.1,1.7
				c0,0.6-0.2,1-0.7,1.2c0.5,0.2,1,0.7,1,1.6c0,1.3-1.1,2-2.3,2C211.2,217.2,210,216.5,210,215.2z M213.5,215.1
				c0-0.6-0.6-0.9-1.2-0.9c-0.5,0-1.2,0.3-1.2,0.9c0,0.6,0.6,0.9,1.2,0.9C212.9,216,213.5,215.7,213.5,215.1z M213.2,212.5
				c0-0.5-0.5-0.7-0.9-0.7c-0.4,0-0.9,0.2-0.9,0.7c0,0.4,0.3,0.6,0.9,0.6C212.9,213.2,213.2,213,213.2,212.5z"/>
		</g>
	</g>
	<g>
		<g>
			<path class="st6" d="M430,168.7l1.4-0.8h1v6.1h-1.1v-4.7l-1,0.6L430,168.7z"/>
			<path class="st6" d="M434.2,172.7c0.4,0.2,0.8,0.4,1.3,0.4c0.8,0,1.6-0.7,1.6-1.9c-0.4,0.4-1,0.9-1.7,0.9c-1.2,0-1.9-1-1.9-2
				c0-1.3,0.9-2.2,2.1-2.2c1.3,0,2.5,1.1,2.5,3.1c0,2.1-1.3,3.4-2.6,3.4c-0.8,0-1.4-0.4-1.8-0.5L434.2,172.7z M437,170.2
				c-0.2-0.8-0.8-1.3-1.4-1.3c-0.6,0-1,0.5-1,1c0,0.4,0.2,0.8,0.9,0.8C436.1,170.8,436.6,170.5,437,170.2z"/>
			<path class="st6" d="M439.8,172.4c0.4,0,0.8,0.4,0.8,0.9c0,0.5-0.3,0.9-0.8,0.9c-0.4,0-0.7-0.4-0.7-0.9
				C439.1,172.8,439.4,172.4,439.8,172.4z"/>
			<path class="st6" d="M441.3,173.3l0.5-1c0.3,0.3,1,0.7,1.9,0.7c0.6,0,1.2-0.3,1.2-1c0-0.6-0.5-0.9-0.9-0.9
				c-0.6,0-1.1,0.3-1.5,0.6l-0.6-0.6v-3.2h3.7v1.2h-2.7v1.4c0.4-0.3,0.7-0.6,1.3-0.6c0.9,0,1.9,0.6,1.9,2c0,1.6-1.2,2.3-2.3,2.3
				C442.5,174.2,441.8,173.6,441.3,173.3z"/>
		</g>
	</g>
	<g>
		<g>
			<path class="st6" d="M259.7,258l1.4-0.8h1v6.1H261v-4.7l-1,0.6L259.7,258z"/>
			<path class="st6" d="M264.1,261.7c0.4,0,0.8,0.4,0.8,0.9c0,0.5-0.3,0.9-0.8,0.9c-0.4,0-0.7-0.4-0.7-0.9
				C263.4,262.1,263.7,261.7,264.1,261.7z"/>
			<path class="st6" d="M265.5,258l1.4-0.8h1v6.1h-1.1v-4.7l-1,0.6L265.5,258z"/>
		</g>
	</g>
	<g>
		<g>
			<path class="st6" d="M366.8,332.8l1.4-0.8h1v6.1h-1.1v-4.7l-1,0.6L366.8,332.8z"/>
			<path class="st6" d="M372.2,334.4h0.7c0.3,0,0.6-0.2,0.6-0.6c0-0.5-0.4-0.7-0.8-0.7c-0.6,0-1.1,0.5-1.6,1l-0.6-0.9
				c0.5-0.6,1.3-1.3,2.2-1.3c0.8,0,1.9,0.5,1.9,1.8c0,0.5-0.3,0.9-0.5,1.1c0.4,0.2,0.9,0.6,0.9,1.5c0,1.4-1.1,2.2-2.4,2.2
				c-0.9,0-1.7-0.4-2.4-1.3l0.6-1c0.5,0.6,1,1,1.8,1c0.7,0,1.3-0.4,1.3-1c0-0.5-0.5-0.6-0.7-0.6h-0.9V334.4z"/>
		</g>
	</g>
	<g>
		<g>
			<path class="st6" d="M239.8,336.2h-0.8v1.3h-1.1v-1.3h-3.2v-0.9l3.3-3.9h1v3.7h0.8V336.2z M236.2,335.1h1.6v-2h-0.1
				C237.3,333.7,236.7,334.4,236.2,335.1L236.2,335.1z"/>
			<path class="st6" d="M241.3,335.8c0.4,0,0.8,0.4,0.8,0.9c0,0.5-0.3,0.9-0.8,0.9c-0.4,0-0.7-0.4-0.7-0.9
				C240.6,336.2,240.9,335.8,241.3,335.8z"/>
			<path class="st6" d="M243.7,336.1c0.4,0.2,0.8,0.4,1.3,0.4c0.8,0,1.6-0.7,1.6-1.9c-0.4,0.4-1,0.9-1.7,0.9c-1.2,0-1.9-1-1.9-2
				c0-1.3,0.9-2.2,2.1-2.2c1.3,0,2.5,1.1,2.5,3.1c0,2.1-1.3,3.4-2.6,3.4c-0.8,0-1.4-0.4-1.8-0.5L243.7,336.1z M246.5,333.6
				c-0.2-0.8-0.8-1.3-1.4-1.3c-0.6,0-1,0.5-1,1c0,0.4,0.2,0.8,0.9,0.8C245.5,334.3,246.1,333.9,246.5,333.6z"/>
		</g>
	</g>
</g>
</svg>
