<?xml version="1.0" encoding="utf-8"?>
<!-- Generator: Adobe Illustrator 26.0.3, SVG Export Plug-In . SVG Version: 6.00 Build 0)  -->
<svg version="1.1" xmlns="http://www.w3.org/2000/svg" xmlns:xlink="http://www.w3.org/1999/xlink" x="0px" y="0px"
	 viewBox="0 0 720 480" style="enable-background:new 0 0 720 480;" xml:space="preserve">
<style type="text/css">
	.st0{fill:#DBD4CA;}
	.st1{opacity:0.3;}
	.st2{opacity:0.7;fill:#C49F8A;enable-background:new    ;}
	.st3{fill:#C49F8A;}
	.st4{fill:none;stroke:#565440;}
	.st5{fill:#565440;}
	.st6{fill:#E9E4DC;}
	.st7{fill:#E9E4DC;stroke:#C49F8A;}
	.st8{fill:#E9E4DC;stroke:#C49F8A;stroke-width:1;stroke-miterlimit:3.9997;}
	.st9{fill:none;stroke:#C49F8A;}
	.st10{fill:#E9E4DC;stroke:#C49F8A;stroke-miterlimit:3.9998;}
	.st11{fill:#E9E4DC;stroke:#C49F8A;stroke-linejoin:round;}
	.st12{fill:#E9E4DC;stroke:#C49F8A;stroke-width:1;stroke-miterlimit:3.9998;}
	.st13{fill:#E9E4DC;stroke:#C49F8A;stroke-width:1;stroke-miterlimit:4;}
	.st14{opacity:0;}
	.st15{fill:#3F3F3F;fill-opacity:0;}
	.st16{clip-path:url(#SVGID_00000006703449819099300150000000456160365156418454_);}
	.st17{opacity:0;clip-path:url(#SVGID_00000006703449819099300150000000456160365156418454_);}
</style>
<g id="_x31__x5F_2">
	<polygon id="Floor_1_" class="st0" points="166,414.9 553.8,414.9 553.7,69.4 436.7,69.4 436.7,146.3 376.9,146.3 376.9,62.1 
		166,62.1 	"/>
	<g id="Wet_Floor_1_">
		<g>
			<g class="st1">
				<rect x="314.8" y="242.6" class="st2" width="109.8" height="65.4"/>
			</g>
			<path class="st3" d="M325.1,308h1.4l-6.2-6.2l9.7-9.7l9.8,9.8l-6.1,6.1h1.4l5.4-5.4l5.4,5.4h1.4l-6.1-6.1l9.8-9.8l10,10l-5.9,5.9
				h1.4l5.2-5.2l5.2,5.2h1.4l-5.9-5.9l9.8-9.8l9.8,9.8l-5.9,5.9h1.4l5.2-5.2l5.2,5.2h1.4l-5.9-5.9l9.8-9.8l9.7,9.7l-6,6h1.4l5.2-5.2
				l5.2,5.2h1.4l-6-6l9.7-9.7l9.8,9.8l-5.9,5.9h1.4l5.1-5.1v-1.6l-9.7-9.7l9.7-9.7v-1.6l-9.6-9.6l9.6-9.6v-2.2l-9.4-9.4l6.9-6.9
				h-1.4l-6.2,6.2l-6.2-6.2h-1.4l6.9,6.9l-10,10l-10-10l6.9-6.9h-1.4l-6.2,6.2l-6.2-6.2h-1.4l6.9,6.9l-9.8,9.8l-9.8-9.8l6.9-6.9
				h-1.4l-6.2,6.2l-6.2-6.2h-1.4l6.9,6.9l-9.7,9.7l-9.7-9.7l6.9-6.9h-1.4l-6.2,6.2l-6.2-6.2h-1.4l6.9,6.9l-9.8,9.8l-9.8-9.8l6.9-6.9
				h-1.4l-6.2,6.2l-6.2-6.2h-1.4l6.9,6.9l-9.8,9.8l-4.9-4.9v1.4l4.2,4.2l-4.2,4.2v1.4l4.9-4.9l9.8,9.8l-9.8,9.8l-4.9-4.9v1.4
				l4.2,4.2l-4.2,4.2v1.4l4.9-4.9l9.7,9.7l-9.7,9.7l-4.9-4.9v1.4l4.2,4.2l-4.2,4.2v1.4l4.9-4.9L325.1,308z M340.6,301.2l-9.8-9.8
				l9.8-9.8l9.8,9.8L340.6,301.2z M341.3,280.9l9.8-9.8l9.8,9.8l-9.8,9.8L341.3,280.9z M361.8,301.4l-10-10l9.8-9.8l10,10
				L361.8,301.4z M362.3,280.9l9.8-9.8l10,10l-9.8,9.8L362.3,280.9z M382.8,301.4l-9.8-9.8l9.8-9.8l9.8,9.8L382.8,301.4z
				 M383.5,281.1l9.7-9.7l9.8,9.8l-9.7,9.7L383.5,281.1z M403.7,301.3l-9.7-9.7l9.7-9.7l9.7,9.7L403.7,301.3z M423.9,281.1l-9.8,9.8
				l-9.7-9.7l9.8-9.8L423.9,281.1z M414.4,250.2l9.8,9.8l-10,10l-9.8-9.8L414.4,250.2z M413.5,270.7l-9.8,9.8l-9.8-9.8l9.8-9.8
				L413.5,270.7z M393,250.2l10,10l-9.8,9.8l-10-10L393,250.2z M392.5,270.7l-9.7,9.7l-10-10l9.7-9.7L392.5,270.7z M372,250.2
				l9.8,9.8l-9.7,9.7l-9.8-9.8L372,250.2z M371.4,270.4l-9.8,9.8l-9.8-9.8l9.8-9.8L371.4,270.4z M351.2,250.2l9.7,9.7l-9.8,9.8
				l-9.7-9.7L351.2,250.2z M350.4,270.4l-9.8,9.8l-9.7-9.7l9.8-9.8L350.4,270.4z M320.4,260l9.8-9.8l9.8,9.8l-9.8,9.8L320.4,260z
				 M320.4,281l9.8-9.8l9.7,9.7l-9.8,9.8L320.4,281z"/>
		</g>
		<g>
			<g class="st1">
				<rect x="319.4" y="64.9" class="st2" width="51.8" height="55.7"/>
			</g>
			<path class="st3" d="M371.2,107.5v-1.4l-9.2,9.2l-10-10l9.8-9.8l9.4,9.4v-1.4l-8.7-8.7l8.7-8.7v-1.4l-9.4,9.4l-9.8-9.8l9.8-9.8
				l9.4,9.4v-1.4l-8.7-8.7l8.7-8.7v-0.3h-1.1l-8.3,8.3l-8.3-8.3h-1.4l9,9l-9.8,9.8l-9.7-9.7l9-9h-1.4l-8.3,8.3l-8.3-8.3h-1.4l9,9
				l-9.8,9.8l-9.8-9.8l9.1-9.1h-1.4l-8.3,8.3l-0.5-0.5V75l0.5-0.5l9.8,9.8l-9.8,9.8l-0.5-0.5V96l0.5-0.5l9.7,9.7l-9.7,9.7l-0.5-0.5
				v2.4l0.5-0.5l4.1,4.1h1.4l-4.8-4.8l9.7-9.7l9.8,9.8l-4.7,4.7h1.4l4-4l4,4h1.4l-4.7-4.7l9.8-9.8l10,10l-4.5,4.5h1.4l3.8-3.8
				l3.8,3.8h1.4l-4.5-4.5L371.2,107.5z M340.9,74.6l9.7,9.7l-9.8,9.8l-9.7-9.7L340.9,74.6z M320.6,94.9l9.8-9.8l9.7,9.7l-9.8,9.8
				L320.6,94.9z M340.8,115.1l-9.8-9.8l9.8-9.8l9.8,9.8L340.8,115.1z M341.5,94.8l9.8-9.8l9.8,9.8l-9.8,9.8L341.5,94.8z"/>
		</g>
	</g>
	<g id="Windows_2_">
		<path id="Windows_5_1_" class="st4" d="M553.8,414.9h-180v3.7h183.7V170h-3.7V414.9z"/>
		<path id="Windows_2_1_" class="st4" d="M166,64.3h-3.7v354.3h208.9v-3.7H166V150.4V64.3z"/>
	</g>
	<g id="Walls">
		<path class="st5" d="M176,153.9v-0.2l0,0h129.7v5.3v2.1v0.4h9.8v-0.4V159v-5.3h0.6v-0.4H335v-2.6h-18.9v-4.5H176V127h-2.6v-26.1
			H161V127v5.5v13.8v7.5l0,0v0.2v17.3h15V153.9z M308.3,153.7h4.7v5.3h-4.7V153.7z"/>
		<rect x="161" y="208.6" class="st5" width="12.4" height="17.5"/>
		<polygon class="st5" points="173.4,308 244.9,308 244.9,305.4 173.4,305.4 173.4,304.2 176,304.2 176,282.6 173.4,282.6 
			173.4,261 161,261 161,282.6 161,304.2 161,331.4 173.4,331.4 		"/>
		<polygon class="st5" points="265.4,308 268.9,308 268.9,305.4 265.4,305.4 262.8,305.4 259.7,305.4 259.7,308 262.8,308 
			262.8,407.4 235.7,407.4 235.7,404.9 218.2,404.9 218.2,419.8 235.7,419.8 288,419.8 288,407.4 265.4,407.4 		"/>
		<rect x="161" y="365.2" class="st5" width="14.9" height="17.5"/>
		<path class="st5" d="M377.4,308H432v-2.6h-7.5V293H422v12.4h-33.9v-8.1h-0.4l0,0h-10.3v-54H422V273h2.6v-32.2h-2.4H422h-44.6h-7.5
			h-56.2v0.8v1.8v62.1h-24.4v2.6h44.8v-2.6h-17.9v-62.1h53.6v54h-8.1h-2.1h-0.4v8.1h-7v2.6h17.7V405h-15.5v2.6h-30.3V420h30.3h22.8
			h15.7v-12.4h-15.5V308z M377.4,299.9h8.1v5.6h-8.1V299.9z M369.9,305.4h-8.1v-5.6h8.1V305.4z"/>
		<polyline class="st5" points="457,407.4 429.5,407.4 429.5,419.8 481.7,419.8 499.2,419.8 499.2,404.9 481.7,404.9 481.7,407.4 
			459.5,407.4 		"/>
		<rect x="544.2" y="365.2" class="st5" width="14.7" height="17.5"/>
		<rect x="546.4" y="206" class="st5" width="12.4" height="17.5"/>
		<path class="st5" d="M558.6,64.3h-12.2H434.6v12.4v69.6h-26.9v7.5h31.8l2.5,0.1v-0.4v-7.1V130v-2.6V84.9h9v-0.3v-2.3v-5.7h95.4
			v50.7v2.6v41.3h12.4V64.3H558.6z M448.4,82.4H442v-5.7h6.4V82.4z"/>
		<path class="st5" d="M319.4,82.8h2.6V67.5h47.9v51.7H322v-16.3h-2.6v16.3v2.6h2.6h47.9v16.5H355v2.6l0,0v5.5l0,0v4.5h-2.4v2.6h2.4
			v0.4h27.7v-7.5h-5.3V67.5V60h-7.5H161v7.5h158.4V82.8z M369.9,146.3h-12.4v-5.5h12.4V146.3z"/>
	</g>
	<g id="Doors">
		<path class="st4" d="M289.4,307.6c0,2.8-0.6,4.9-1.6,7.5s-2.6,4.7-4.3,6.5c-1.8,2-3.9,3.5-6.5,4.5s-4.9,1.6-7.7,1.6v-19.8"/>
		<path class="st4" d="M259.7,307.6c0,2-0.2,3.7-1,5.5s-1.8,3.5-3.1,4.7c-1.2,1.6-2.9,2.6-4.7,3.1c-1.8,0.8-3.7,1-5.7,1V307"/>
		<path class="st4" d="M333.2,307.6c0,2.8,0.6,4.9,1.6,7.5s2.6,4.7,4.3,6.5c1.8,2,3.9,3.5,6.5,4.5s4.9,1.6,7.7,1.6v-19.8"/>
		<path class="st4" d="M334,153.3c0,2.8,0.6,4.9,1.6,7.5s2.6,4.7,4.3,6.5c1.8,2,3.9,3.5,6.5,4.5s4.9,1.6,7.7,1.6v-20.1"/>
		<path class="st4" d="M407.7,147.2c0-3.1-0.8-6.3-2-9.2s-2.9-5.9-5.5-8.3c-2.2-2.2-4.9-4.3-7.9-5.5c-2.9-1.2-6.3-2-9.4-2v25"/>
		<path class="st4" d="M424.5,273.2c2.8,0,4.9,0.6,7.5,1.6s4.7,2.6,6.5,4.3c2,1.8,3.5,3.9,4.5,6.5s1.6,4.9,1.6,7.7h-20"/>
		<path class="st4" d="M320.6,102.6c-2.8,0-4.9-0.6-7.5-1.6s-4.7-2.6-6.5-4.3c-2-1.8-3.5-3.9-4.5-6.5s-1.6-4.9-1.6-7.7h19.8"/>
	</g>
	<g id="Furniture">
		<g>
			<g>
				<rect x="213.8" y="68" class="st6" width="39.7" height="47"/>
				<path class="st3" d="M253,68.5v46h-38.7v-46H253 M254,67.5h-40.7v48H254V67.5L254,67.5z"/>
			</g>
			<rect x="216.8" y="70.9" class="st7" width="15.9" height="11.9"/>
			<rect x="234.7" y="70.9" class="st7" width="15.9" height="11.9"/>
			
				<rect x="220.1" y="76.2" transform="matrix(0.9659 -0.2588 0.2588 0.9659 -13.5574 61.3009)" class="st8" width="11.9" height="11.9"/>
			
				<rect x="235.5" y="76.2" transform="matrix(0.2588 -0.9659 0.9659 0.2588 99.6319 294.0412)" class="st8" width="11.9" height="11.9"/>
			<g>
				<polygon class="st6" points="213.8,115.5 213.8,80.5 237.8,77 253.5,78 253.5,115.5 				"/>
				<path class="st3" d="M237.8,77.5l15.2,0.9v36.5h-38.7v-34L237.8,77.5 M237.7,76.5L213.3,80v0.3V116H254V78.3v-0.8L237.7,76.5
					L237.7,76.5z"/>
			</g>
			<polyline class="st9" points="253.5,78.8 237.6,78.8 213.8,80.7 			"/>
		</g>
		<g>
			<g>
				<rect x="188.5" y="308.5" class="st6" width="32.6" height="53.7"/>
				<path class="st3" d="M220.7,309v52.7H189V309H220.7 M221.7,308h-33.6v54.7h33.6L221.7,308L221.7,308z"/>
			</g>
			<rect x="190.9" y="311.9" class="st7" width="13.1" height="13.5"/>
			<rect x="205.7" y="311.9" class="st7" width="13.1" height="13.5"/>
			<polygon class="st10" points="192.5,319.9 202,316.4 204.6,329.4 195.1,332.9 			"/>
			<polygon class="st10" points="205.2,329.5 207.8,316.4 217.3,319.9 214.7,333 			"/>
			<g>
				<polygon class="st6" points="188.6,362.7 188.6,322.7 208.3,318.8 221.2,319.9 221.2,362.7 				"/>
				<path class="st3" d="M208.3,319.3l12.4,1.1v41.8h-31.6v-39.1L208.3,319.3 M208.2,318.3l-20.2,4v0.3v40.6h33.6v-42.9v-0.9
					L208.2,318.3L208.2,318.3z"/>
			</g>
			<polyline class="st9" points="221.2,320.8 208.1,320.8 188.4,323.1 			"/>
		</g>
		<g>
			<g>
				<rect x="377.9" y="345.3" class="st6" width="47" height="32"/>
				<path class="st3" d="M424.4,345.8v31h-46v-31H424.4 M425.4,344.8h-48v33h48V344.8L425.4,344.8z"/>
			</g>
			<rect x="380.8" y="362.1" class="st7" width="11.9" height="12.9"/>
			<rect x="380.8" y="347.6" class="st7" width="11.9" height="12.9"/>
			<polygon class="st10" points="387.9,373.5 384.8,364.1 396.3,361.6 399.3,371 			"/>
			<polygon class="st10" points="396.3,361 384.8,358.5 387.9,349.2 399.3,351.7 			"/>
			<g>
				<polygon class="st6" points="390.4,377.4 386.9,358 387.9,345.3 425.4,345.3 425.4,377.4 				"/>
				<path class="st3" d="M424.9,345.8v31h-34.1l-3.4-18.9l0.9-12.2h36.6 M425.9,344.8h-37.7h-0.8l-1,13.2l3.5,19.8h0.3h35.7V344.8
					L425.9,344.8z"/>
			</g>
			<polyline class="st9" points="388.7,345.3 388.7,358.2 390.7,377.5 			"/>
		</g>
		<g>
			<g>
				<rect x="322.4" y="360.6" class="st6" width="47" height="40.3"/>
				<path class="st3" d="M368.9,361.1v39.3h-46v-39.3H368.9 M369.9,360.1h-48v41.3h48V360.1L369.9,360.1z"/>
			</g>
			<rect x="354.6" y="363.6" class="st7" width="11.9" height="16.1"/>
			<rect x="354.6" y="381.8" class="st7" width="11.9" height="16.1"/>
			<polygon class="st10" points="359.5,365.6 362.5,377.3 351.1,380.4 348,368.7 			"/>
			<polygon class="st10" points="351,381.2 362.5,384.3 359.4,396 348,392.9 			"/>
			<g>
				<polygon class="st6" points="321.9,400.9 321.9,360.6 356.9,360.6 360.4,384.9 359.4,400.9 				"/>
				<path class="st3" d="M356.5,361.1l3.4,23.8l-0.9,15.5h-36.5v-39.3H356.5 M357.3,360.1H357h-35.7v41.3H359h0.8l1-16.5
					L357.3,360.1L357.3,360.1z"/>
			</g>
			<polyline class="st9" points="358.6,400.8 358.6,384.7 356.7,360.6 			"/>
		</g>
		<g>
			<g>
				<rect x="316.8" y="290.8" class="st6" width="9.4" height="14.1"/>
				<path class="st3" d="M325.6,291.3v13.1h-8.4v-13.1H325.6 M326.6,290.3h-10.4v15.1h10.4V290.3L326.6,290.3z"/>
			</g>
			<g>
				<path class="st6" d="M321.5,300.7c-1.6,0-2.9-1.3-2.9-2.9s1.3-2.9,2.9-2.9s2.9,1.3,2.9,2.9C324.3,299.4,323,300.7,321.5,300.7z"
					/>
				<path class="st3" d="M321.5,295.5c1.3,0,2.4,1.1,2.4,2.4s-1.1,2.4-2.4,2.4s-2.4-1.1-2.4-2.4S320.1,295.5,321.5,295.5
					 M321.5,294.5c-1.9,0-3.4,1.5-3.4,3.4s1.5,3.4,3.4,3.4s3.4-1.5,3.4-3.4C324.8,296,323.3,294.5,321.5,294.5L321.5,294.5z"/>
			</g>
		</g>
		<g>
			<path class="st7" d="M216.8,220.2h31.8v23.2h-31.8V220.2z"/>
			<path class="st7" d="M214.7,225.4h-0.5c-3.5,0-6.4,2.9-6.4,6.4s2.9,6.4,6.4,6.4h0.5V225.4z"/>
			<path class="st7" d="M216.8,227h-2.4c-2.7,0-4.8,2.2-4.8,4.8c0,2.7,2.2,4.8,4.8,4.8h2.4V227z"/>
			<path class="st7" d="M250.7,225.4h0.5c3.5,0,6.4,2.9,6.4,6.4s-2.9,6.4-6.4,6.4h-0.5L250.7,225.4L250.7,225.4z"/>
			<path class="st7" d="M248.6,227h2.4c2.7,0,4.8,2.2,4.8,4.8c0,2.7-2.2,4.8-4.8,4.8h-2.4V227z"/>
			<path class="st7" d="M239.1,245.4v0.5c0,3.5-2.9,6.4-6.4,6.4s-6.4-2.9-6.4-6.4v-0.5H239.1z"/>
			<path class="st7" d="M237.5,243.4v2.4c0,2.7-2.2,4.8-4.8,4.8c-2.7,0-4.8-2.2-4.8-4.8v-2.4H237.5z"/>
			<path class="st7" d="M239.1,218.2v-0.5c0-3.5-2.9-6.4-6.4-6.4s-6.4,2.9-6.4,6.4v0.5H239.1z"/>
			<path class="st7" d="M237.5,220.2v-2.4c0-2.7-2.2-4.8-4.8-4.8c-2.7,0-4.8,2.2-4.8,4.8v2.4H237.5z"/>
		</g>
		<g>
			<path class="st7" d="M190.2,388.3h11.2l1.5,10.2h-14.3L190.2,388.3z"/>
			<g>
				<rect x="166.9" y="397.5" class="st6" width="50.8" height="16.3"/>
				<path class="st3" d="M217.2,398v15.3h-49.8V398H217.2 M218.2,397h-51.8v17.3h51.8V397L218.2,397z"/>
			</g>
			<path class="st9" d="M192.1,401.9h8.7 M191.3,400.2h10.2v3.1h-10.2V400.2z"/>
			<path class="st7" d="M187.1,400L187.1,400c0.4,0,0.8,0.3,0.8,0.8v1c0,0.4-0.3,0.8-0.8,0.8l0,0c-0.4,0-0.8-0.3-0.8-0.8v-1
				C186.3,400.4,186.7,400,187.1,400z"/>
			<path class="st7" d="M193.9,408.2c0-1.4,1.1-2.5,2.6-2.5c1.4,0,2.5,1.1,2.5,2.6v2.5h-5.1V408.2z"/>
			<g>
				<rect x="190.5" y="388.2" class="st6" width="10.6" height="8.9"/>
				<path class="st3" d="M200.6,388.7v7.9H191v-7.9H200.6 M201.6,387.7H190v9.9h11.6V387.7L201.6,387.7z"/>
			</g>
			<g>
				<rect x="190.2" y="386.3" class="st6" width="11.2" height="1.8"/>
				<path class="st3" d="M200.9,386.8v0.8h-10.2v-0.8H200.9 M201.9,385.8h-12.2v2.8h12.2V385.8L201.9,385.8z"/>
			</g>
			<g>
				<rect x="183.1" y="409.7" class="st6" width="26.4" height="1.8"/>
				<path class="st3" d="M209,410.2v0.8h-25.4v-0.8H209 M210,409.2h-27.4v2.8H210V409.2L210,409.2z"/>
			</g>
		</g>
		<g>
			<path class="st7" d="M405.8,388.3H417l1.5,10.2h-14.3L405.8,388.3z"/>
			<g>
				<rect x="393.4" y="397.5" class="st6" width="35.4" height="16.3"/>
				<path class="st3" d="M428.3,398v15.3h-34.4V398H428.3 M429.3,397h-36.4v17.3h36.4V397L429.3,397z"/>
			</g>
			<path class="st9" d="M407.6,401.9h8.7 M406.9,400.2h10.2v3.1h-10.2V400.2z"/>
			<path class="st7" d="M402.7,400L402.7,400c0.4,0,0.8,0.3,0.8,0.8v1c0,0.4-0.3,0.8-0.8,0.8l0,0c-0.4,0-0.8-0.3-0.8-0.8v-1
				C401.9,400.4,402.2,400,402.7,400z"/>
			<path class="st7" d="M409.4,408.2c0-1.4,1.1-2.5,2.6-2.5c1.4,0,2.5,1.1,2.5,2.6v2.5h-5.1V408.2z"/>
			<g>
				<rect x="406.1" y="388.2" class="st6" width="10.6" height="8.9"/>
				<path class="st3" d="M416.1,388.7v7.9h-9.6v-7.9H416.1 M417.1,387.7h-11.6v9.9h11.6V387.7L417.1,387.7z"/>
			</g>
			<g>
				<rect x="405.8" y="386.3" class="st6" width="11.2" height="1.8"/>
				<path class="st3" d="M416.5,386.8v0.8h-10.2v-0.8H416.5 M417.5,385.8h-12.2v2.8h12.2V385.8L417.5,385.8z"/>
			</g>
			<g>
				<rect x="398.7" y="409.7" class="st6" width="26.4" height="1.8"/>
				<path class="st3" d="M424.6,410.2v0.8h-25.4v-0.8H424.6 M425.6,409.2h-27.4v2.8h27.4V409.2L425.6,409.2z"/>
			</g>
		</g>
		<g>
			<path class="st7" d="M190.5,79.3v10.3l-9.4,1.4V77.9L190.5,79.3z"/>
			<g>
				<rect x="167" y="68" class="st6" width="14.9" height="32.4"/>
				<path class="st3" d="M181.4,68.5v31.4h-13.9V68.5H181.4 M182.4,67.5h-15.9v33.4h15.9V67.5L182.4,67.5z"/>
			</g>
			<path class="st9" d="M178,81v8 M179.5,80.3v9.4h-2.8v-9.4H179.5z"/>
			<path class="st7" d="M179.6,76.4L179.6,76.4c0,0.4-0.3,0.7-0.7,0.7H178c-0.4,0-0.7-0.3-0.7-0.7l0,0c0-0.4,0.3-0.7,0.7-0.7h0.9
				C179.3,75.7,179.6,76,179.6,76.4z"/>
			<path class="st7" d="M172.1,82.6c1.3,0,2.3,1.1,2.3,2.3c0,1.3-1.1,2.3-2.3,2.3h-2.3v-4.7L172.1,82.6z"/>
			<g>
				<rect x="182.4" y="79.6" class="st6" width="8.1" height="9.6"/>
				<path class="st3" d="M190,80.1v8.6h-7.1v-8.6H190 M191,79.1h-9.1v10.6h9.1V79.1L191,79.1z"/>
			</g>
			<g>
				<rect x="190.5" y="79.3" class="st6" width="1.8" height="10.2"/>
				<path class="st3" d="M191.8,79.8V89H191v-9.2H191.8 M192.8,78.8H190V90h2.8V78.8L192.8,78.8z"/>
			</g>
			<g>
				<rect x="169" y="72.8" class="st6" width="1.8" height="24.2"/>
				<path class="st3" d="M170.3,73.3v23.2h-0.8V73.3H170.3 M171.3,72.3h-2.8v25.2h2.8V72.3L171.3,72.3z"/>
			</g>
		</g>
		<g>
			<g>
				<rect x="377.9" y="243.8" class="st6" width="43.6" height="17.6"/>
				<path class="st3" d="M421,244.3v16.6h-42.6v-16.6L421,244.3 M422,243.3h-44.6v18.6H422V243.3L422,243.3z"/>
			</g>
			<g>
				<g>
					<path class="st11" d="M381.5,252.6c0-3.4,2.9-6.1,6.3-5.8c3.7,0.3,8.4,0.6,11.9,0.6s8.1-0.3,11.9-0.6c3.4-0.3,6.3,2.4,6.3,5.8
						c0,3.4-2.9,6.1-6.3,5.8c-3.7-0.3-8.4-0.6-11.9-0.6s-8.1,0.3-11.9,0.6C384.5,258.7,381.5,256,381.5,252.6z"/>
					<ellipse class="st11" cx="387.4" cy="252.6" rx="0.9" ry="0.9"/>
				</g>
			</g>
		</g>
		<g id="Sink_2_6_">
			<g id="Rectangle_16_x5F_11_5_">
				<rect x="377.9" y="261.4" class="st6" width="10.7" height="17.5"/>
				<path class="st3" d="M388.1,261.9v16.5h-9.7v-16.5H388.1 M389.1,260.9h-11.7v18.5h11.7V260.9L389.1,260.9z"/>
			</g>
			<path id="Rectangle_19_x5F_5_6_" class="st7" d="M383.2,264L383.2,264c2,0,3.6,1.6,3.6,3.6v5.1c0,2-1.6,3.6-3.6,3.6l0,0
				c-2,0-3.6-1.6-3.6-3.6v-5.1C379.7,265.6,381.3,264,383.2,264z"/>
			<circle id="Ellipse_7_x5F_2_6_" class="st7" cx="382.2" cy="270.1" r="0.9"/>
		</g>
		<g>
			<g>
				<rect x="325.8" y="243.8" class="st6" width="43.6" height="17.6"/>
				<path class="st3" d="M368.9,244.3v16.6h-42.6v-16.6L368.9,244.3 M369.9,243.3h-44.6v18.6h44.6V243.3L369.9,243.3z"/>
			</g>
			<g>
				<g>
					<path class="st11" d="M365.8,252.6c0-3.4-2.9-6.1-6.3-5.8c-3.7,0.3-8.4,0.6-11.9,0.6s-8.1-0.3-11.9-0.6
						c-3.4-0.3-6.3,2.4-6.3,5.8c0,3.4,2.9,6.1,6.3,5.8c3.7-0.3,8.4-0.6,11.9-0.6s8.1,0.3,11.9,0.6
						C362.9,258.7,365.8,256,365.8,252.6z"/>
					<ellipse class="st11" cx="359.9" cy="252.6" rx="0.9" ry="0.9"/>
				</g>
			</g>
		</g>
		<g id="Sink_2_5_">
			<g id="Rectangle_16_x5F_11_3_">
				<rect x="358.8" y="261.4" class="st6" width="10.7" height="17.5"/>
				<path class="st3" d="M368.9,261.9v16.5h-9.7v-16.5H368.9 M369.9,260.9h-11.7v18.5h11.7V260.9L369.9,260.9z"/>
			</g>
			<path id="Rectangle_19_x5F_5_5_" class="st7" d="M364.1,264L364.1,264c-2,0-3.6,1.6-3.6,3.6v5.1c0,2,1.6,3.6,3.6,3.6l0,0
				c2,0,3.6-1.6,3.6-3.6v-5.1C367.7,265.6,366.1,264,364.1,264z"/>
			<circle id="Ellipse_7_x5F_2_5_" class="st7" cx="365.1" cy="270.1" r="0.9"/>
		</g>
		<g id="Toilet_2_">
			<g id="Rectangle_21_2_">
				<rect x="366" y="284.9" class="st6" width="3.4" height="11.9"/>
				<path class="st3" d="M368.9,285.4v10.9h-2.4v-10.9H368.9 M369.9,284.4h-4.4v12.9h4.4V284.4L369.9,284.4z"/>
			</g>
			<path id="Rectangle_19_x5F_2_2_" class="st7" d="M358,295.1c-2.4,0.2-4.5-1.8-4.5-4.2l0,0c0-2.4,2.1-4.4,4.5-4.2l7.8,0.5v7.4
				L358,295.1z"/>
			<path id="Rectangle_18_x5F_13_2_" class="st7" d="M358.1,293.4c-1.5,0.1-2.8-1.1-2.8-2.6l0,0c0-1.5,1.3-2.7,2.8-2.6l4.1,0.4v4.4
				L358.1,293.4z"/>
			<ellipse id="Ellipse_6_x5F_2_2_" class="st7" cx="360" cy="290.8" rx="0.9" ry="0.9"/>
		</g>
		<g id="Toilet_7_">
			<g id="Rectangle_21_4_">
				<rect x="406.3" y="301.5" class="st6" width="11.9" height="3.4"/>
				<path class="st3" d="M417.7,302v2.4h-10.9V302H417.7 M418.7,301h-12.9v4.4h12.9V301L418.7,301z"/>
			</g>
			<path id="Rectangle_19_x5F_2_7_" class="st7" d="M408.1,293.5c-0.2-2.4,1.8-4.5,4.2-4.5l0,0c2.4,0,4.4,2.1,4.2,4.5l-0.5,7.8h-7.4
				L408.1,293.5z"/>
			<path id="Rectangle_18_x5F_13_7_" class="st7" d="M409.7,293.6c-0.1-1.5,1.1-2.8,2.6-2.8l0,0c1.5,0,2.7,1.3,2.6,2.8l-0.4,4.1
				h-4.4L409.7,293.6z"/>
			<ellipse id="Ellipse_6_x5F_2_7_" class="st7" cx="412.3" cy="295.5" rx="0.9" ry="0.9"/>
		</g>
		<g>
			<g>
				<rect x="322.5" y="68" class="st6" width="46.9" height="17.6"/>
				<path class="st3" d="M368.9,68.5V85H323V68.5H368.9 M369.9,67.5H322V86h47.9V67.5L369.9,67.5z"/>
			</g>
			<g>
				<g>
					<path class="st11" d="M364.1,76.7c0-3.4-2.9-6.1-6.3-5.8c-3.7,0.3-8.4,0.6-11.9,0.6s-8.1-0.3-11.9-0.6
						c-3.4-0.3-6.3,2.4-6.3,5.8s2.9,6.1,6.3,5.8c3.7-0.3,8.4-0.6,11.9-0.6s8.1,0.3,11.9,0.6C361.2,82.8,364.1,80.1,364.1,76.7z"/>
					<ellipse class="st11" cx="358.2" cy="76.7" rx="0.9" ry="0.9"/>
				</g>
			</g>
		</g>
		<g id="Sink_2_8_">
			<g id="Rectangle_16_x5F_11_7_">
				<rect x="358.8" y="85.5" class="st6" width="10.7" height="17.5"/>
				<path class="st3" d="M368.9,86v16.5h-9.7V86H368.9 M369.9,85h-11.7v18.5h11.7V85L369.9,85z"/>
			</g>
			<path id="Rectangle_19_x5F_5_8_" class="st7" d="M364.1,88.1L364.1,88.1c-2,0-3.6,1.6-3.6,3.6v5.1c0,2,1.6,3.6,3.6,3.6l0,0
				c2,0,3.6-1.6,3.6-3.6v-5.1C367.7,89.7,366.1,88.1,364.1,88.1z"/>
			<circle id="Ellipse_7_x5F_2_8_" class="st7" cx="365.1" cy="94.3" r="0.9"/>
		</g>
		<g id="Toilet_9_">
			<g id="Rectangle_21_7_">
				<rect x="342.7" y="115.3" class="st6" width="11.9" height="3.4"/>
				<path class="st3" d="M354.1,115.8v2.4h-10.9v-2.4H354.1 M355.1,114.8h-12.9v4.4h12.9V114.8L355.1,114.8z"/>
			</g>
			<path id="Rectangle_19_x5F_2_9_" class="st7" d="M352.9,107.3c0.2-2.4-1.8-4.5-4.2-4.5l0,0c-2.4,0-4.4,2.1-4.2,4.5l0.5,7.8h7.4
				L352.9,107.3z"/>
			<path id="Rectangle_18_x5F_13_9_" class="st7" d="M351.2,107.4c0.1-1.5-1.1-2.8-2.6-2.8l0,0c-1.5,0-2.7,1.3-2.6,2.8l0.4,4.1h4.4
				L351.2,107.4z"/>
			<ellipse id="Ellipse_6_x5F_2_9_" class="st7" cx="348.6" cy="109.2" rx="0.9" ry="0.9"/>
		</g>
		<g id="TV">
			<g id="Rectangle_16">
				<rect x="272" y="364.8" class="st6" width="1.8" height="34.9"/>
				<path class="st3" d="M273.4,365.3v33.9h-0.8v-33.9H273.4 M274.4,364.3h-2.8v35.9h2.8V364.3L274.4,364.3z"/>
			</g>
			<g id="Rectangle_15">
				<rect x="265.9" y="364.8" class="st6" width="6.1" height="34.9"/>
				<path class="st3" d="M271.5,365.3v33.9h-5.1v-33.9H271.5 M272.5,364.3h-7.1v35.9h7.1V364.3L272.5,364.3z"/>
			</g>
			<g id="Rectangle_17">
				<rect x="267.5" y="369.9" class="st6" width="1.8" height="24.6"/>
				<path class="st3" d="M268.8,370.4V394H268v-23.6H268.8 M269.8,369.4H267V395h2.8V369.4L269.8,369.4z"/>
			</g>
			<path id="Rectangle_18_x5F_2" class="st7" d="M267.5,387.3v-10.1l-1.8,0.9v8.3L267.5,387.3z"/>
		</g>
		<g id="Kitchen">
			<g id="Rectangle_24">
				<rect x="176.5" y="154.2" class="st6" width="126.4" height="14.1"/>
				<path class="st3" d="M302.4,154.7v13.1H177v-13.1H302.4 M303.4,153.7H176v15.1h127.4V153.7L303.4,153.7z"/>
			</g>
			<g>
				<polygon class="st6" points="302.9,168.3 302.9,154.2 305.2,154.2 305.2,162.1 315,162.1 315,168.3 				"/>
				<path class="st3" d="M304.7,154.7v6.9v1h1h8.8v5.2h-11.1v-6.2v-6.9H304.7 M305.7,153.7h-3.3v7.9l0,0v7.2l0,0l0,0h13.1v-7.2h-9.8
					L305.7,153.7L305.7,153.7z"/>
			</g>
			<g id="Rectangle_27_1_">
				<rect x="301" y="168.3" class="st6" width="14.1" height="14.1"/>
				<path class="st3" d="M314.5,168.8v13.1h-13.1v-13.1H314.5 M315.5,167.8h-15.1v15.1h15.1V167.8L315.5,167.8z"/>
			</g>
			<g id="Rectangle_27_2_">
				<rect x="301" y="168.3" class="st6" width="1.8" height="14.1"/>
				<path class="st3" d="M302.3,168.8v13.1h-0.8v-13.1H302.3 M303.3,167.8h-2.8v15.1h2.8V167.8L303.3,167.8z"/>
			</g>
			<g id="Sink_3">
				<rect id="Rectangle_28_x5F_2" x="216.8" y="155.6" class="st7" width="17.9" height="11.3"/>
				<path id="Rectangle_29_x5F_2" class="st7" d="M227.7,161.3L227.7,161.3c0,2.3-1.9,4.2-4.2,4.2h-0.9c-2.3,0-4.2-1.9-4.2-4.2l0,0
					c0-2.3,1.9-4.2,4.2-4.2h0.9C225.8,157,227.7,158.9,227.7,161.3z"/>
				<ellipse id="Ellipse_7_x5F_3" class="st7" cx="223" cy="159.4" rx="0.9" ry="0.9"/>
				<line class="st9" x1="233.7" y1="157.5" x2="229" y2="157.5"/>
				<line class="st9" x1="233.7" y1="159.4" x2="229" y2="159.4"/>
				<line class="st9" x1="233.7" y1="161.3" x2="229" y2="161.3"/>
				<line class="st9" x1="233.7" y1="163.2" x2="229" y2="163.2"/>
				<line class="st9" x1="233.7" y1="165.1" x2="229" y2="165.1"/>
			</g>
			<g id="Stove_2_">
				<g id="Rectangle_25_2_">
					<rect x="248.6" y="154.2" class="st6" width="13.7" height="14.1"/>
					<path class="st3" d="M261.8,154.7v13.1h-12.7v-13.1H261.8 M262.8,153.7h-14.7v15.1h14.7V153.7L262.8,153.7z"/>
				</g>
				<g id="Rectangle_28_x5F_3_2_">
					<rect x="248.6" y="154.2" class="st6" width="13.7" height="1.8"/>
					<path class="st3" d="M261.8,154.7v0.8h-12.7v-0.8H261.8 M262.8,153.7h-14.7v2.8h14.7V153.7L262.8,153.7z"/>
				</g>
				<g id="Ellipse_7_x5F_4_2_">
					<path class="st6" d="M258.3,160.7c-0.6,0-1.1-0.5-1.1-1.1s0.5-1.1,1.1-1.1s1.1,0.5,1.1,1.1S258.9,160.7,258.3,160.7z"/>
					<path class="st3" d="M258.3,159.1c0.3,0,0.6,0.3,0.6,0.6s-0.3,0.6-0.6,0.6c-0.3,0-0.6-0.3-0.6-0.6S258,159.1,258.3,159.1
						 M258.3,158.1c-0.9,0-1.6,0.7-1.6,1.6c0,0.9,0.7,1.6,1.6,1.6s1.6-0.7,1.6-1.6S259.2,158.1,258.3,158.1L258.3,158.1z"/>
				</g>
				<g id="Ellipse_9_2_">
					<circle class="st6" cx="258.3" cy="164.4" r="1.5"/>
					<path class="st3" d="M258.3,163.4c0.5,0,1,0.4,1,1s-0.4,1-1,1c-0.5,0-1-0.4-1-1S257.8,163.4,258.3,163.4 M258.3,162.4
						c-1.1,0-2,0.9-2,2s0.9,2,2,2s2-0.9,2-2S259.4,162.4,258.3,162.4L258.3,162.4z"/>
				</g>
				<g id="Ellipse_10_2_">
					<path class="st6" d="M252.8,161.1c-0.8,0-1.5-0.7-1.5-1.5s0.7-1.5,1.5-1.5s1.5,0.7,1.5,1.5
						C254.3,160.5,253.6,161.1,252.8,161.1z"/>
					<path class="st3" d="M252.8,158.7c0.5,0,1,0.4,1,1s-0.4,1-1,1s-1-0.4-1-1S252.3,158.7,252.8,158.7 M252.8,157.7
						c-1.1,0-2,0.9-2,2s0.9,2,2,2s2-0.9,2-2C254.8,158.6,253.9,157.7,252.8,157.7L252.8,157.7z"/>
				</g>
				<g id="Ellipse_8_2_">
					<circle class="st6" cx="252.8" cy="164.8" r="1.1"/>
					<path class="st3" d="M252.8,164.2c0.3,0,0.6,0.3,0.6,0.6s-0.3,0.6-0.6,0.6s-0.6-0.3-0.6-0.6S252.5,164.2,252.8,164.2
						 M252.8,163.2c-0.9,0-1.6,0.7-1.6,1.6c0,0.9,0.7,1.6,1.6,1.6c0.9,0,1.6-0.7,1.6-1.6C254.4,163.9,253.7,163.2,252.8,163.2
						L252.8,163.2z"/>
				</g>
			</g>
			<path id="Vector_3_1_" class="st9" d="M311.7,175.3H306 M310.2,177.8l-2.9-5 M310.2,172.8l-2.9,5"/>
		</g>
		<g>
			<path class="st7" d="M197.5,273.3c0-0.7-0.5-1.2-1.2-1.2H184v28h13.5V273.3z"/>
			<path class="st7" d="M219.2,287.8c0-0.7-0.6-1.2-1.3-1.2h-19.2c-0.7,0-1.3,0.5-1.3,1.2v12.3h21.7v-12.3H219.2z"/>
			<path class="st7" d="M240.1,287.8c0-0.7-0.6-1.2-1.2-1.2h-18.5c-0.7,0-1.2,0.5-1.2,1.2v12.3h20.9V287.8z"/>
			<path class="st7" d="M240.1,285.6h4.6v19.3H179v-37.6h19.4v4.8H184v28h56.2L240.1,285.6L240.1,285.6z"/>
		</g>
		<g>
			<g>
				<rect x="377.9" y="323.9" class="st6" width="50.1" height="1.8"/>
				<path class="st3" d="M378.4,324.4h49.1v0.8h-49.1V324.4 M377.4,323.4v2.8h51.1v-2.8H377.4L377.4,323.4z"/>
			</g>
			<g>
				<rect x="377.9" y="308.5" class="st6" width="50.1" height="15.4"/>
				<path class="st3" d="M427.5,309v14.4h-49.1V309H427.5 M428.5,308h-51.1v16.4h51.1V308L428.5,308z"/>
			</g>
			<path class="st7" d="M378,308.6l50.1,15.2"/>
		</g>
		<g>
			<g>
				<rect x="291.5" y="323.9" class="st6" width="39.5" height="1.8"/>
				<path class="st3" d="M292,324.4h38.5v0.8H292V324.4 M291,323.4v2.8h40.5v-2.8H291L291,323.4z"/>
			</g>
			<g>
				<rect x="291.5" y="308.5" class="st6" width="39.5" height="15.4"/>
				<path class="st3" d="M292,309h38.5v14.4H292V309 M291,308v16.4h40.5V308H291L291,308z"/>
			</g>
			<path class="st7" d="M291.5,308.6l39.7,15.2"/>
		</g>
		<g>
			<g>
				<rect x="245.1" y="344.5" class="st6" width="1.8" height="62.4"/>
				<path class="st3" d="M246.4,345v61.4h-0.8V345H246.4 M247.4,344h-2.8v63.4h2.8V344L247.4,344z"/>
			</g>
			<g>
				<rect x="246.9" y="344.5" class="st6" width="15.4" height="62.4"/>
				<path class="st3" d="M261.8,345v61.4h-14.4V345H261.8 M262.8,344h-16.4v63.4h16.4V344L262.8,344z"/>
			</g>
			<path class="st7" d="M262.2,344.7L247,406.9"/>
		</g>
		<g>
			<g>
				<rect x="463.8" y="336.8" class="st6" width="47.1" height="41"/>
				<path class="st3" d="M510.4,337.3v40h-46.1v-40H510.4 M511.4,336.3h-48.1v42h48.1V336.3L511.4,336.3z"/>
			</g>
			<rect x="466.7" y="339.9" class="st7" width="11.9" height="16.4"/>
			<rect x="466.7" y="358.3" class="st7" width="11.9" height="16.4"/>
			<polygon class="st10" points="473.8,341.9 470.7,353.8 482.2,356.9 485.3,345.1 			"/>
			<polygon class="st10" points="482.2,357.8 470.7,361 473.8,372.8 485.3,369.6 			"/>
			<g>
				<polygon class="st6" points="473.8,377.8 472.9,361.5 476.3,336.8 511.4,336.8 511.4,377.8 				"/>
				<path class="st3" d="M510.9,337.3v40h-36.5l-0.9-15.8l3.4-24.2H510.9 M511.9,336.3h-35.7h-0.3l-3.5,25.2l1,16.8h0.8h37.7V336.3
					L511.9,336.3z"/>
			</g>
			<polyline class="st9" points="474.6,377.8 474.6,361.4 476.6,336.8 			"/>
		</g>
		<g>
			<g>
				<rect x="404.7" y="154" class="st6" width="1.8" height="37.7"/>
				<path class="st3" d="M406,154.5v36.7h-0.8v-36.7H406 M407,153.5h-2.8v38.7h2.8V153.5L407,153.5z"/>
			</g>
			<g>
				<rect x="406.5" y="154" class="st6" width="14.8" height="37.7"/>
				<path class="st3" d="M420.8,154.5v36.7H407v-36.7H420.8 M421.8,153.5H406v38.7h15.8V153.5L421.8,153.5z"/>
			</g>
			<path class="st7" d="M421.1,191.4l-14.5-37.3"/>
		</g>
		<g>
			<g>
				<rect x="468.3" y="288.7" class="st6" width="37.7" height="1.8"/>
				<path class="st3" d="M505.5,290h-36.7v-0.8h36.7V290 M506.5,291v-2.8h-38.7v2.8H506.5L506.5,291z"/>
			</g>
			<g>
				<rect x="468.3" y="290.5" class="st6" width="37.7" height="14.8"/>
				<path class="st3" d="M505.5,304.8h-36.7l0-13.8h36.7V304.8 M506.5,305.8V290h-38.7l0,15.8H506.5L506.5,305.8z"/>
			</g>
			<path class="st7" d="M468.6,305.1l37.3-14.5"/>
		</g>
		<g>
			<g>
				<rect x="512.5" y="398.7" class="st6" width="41.4" height="1.8"/>
				<path class="st3" d="M553.4,399.2v0.8H513v-0.8H553.4 M554.4,398.2H512v2.8h42.4V398.2L554.4,398.2z"/>
			</g>
			<g>
				<rect x="512.5" y="400.5" class="st6" width="41.4" height="14.8"/>
				<path class="st3" d="M553.4,401v13.8H513V401H553.4 M554.4,400H512v15.8h42.4V400L554.4,400z"/>
			</g>
			<path class="st7" d="M553.8,415.2l-41.4-14.5"/>
		</g>
		<circle class="st7" cx="533" cy="388.4" r="8.2"/>
		<g id="TV_00000037658706674061720510000010266523124050757278_">
			<g id="Rectangle_16_00000153705932834702403680000000506218700715839671_">
				<rect x="478.2" y="126" class="st6" width="37.2" height="5"/>
				<path class="st3" d="M514.9,126.5v4h-36.2v-4H514.9 M515.9,125.5h-38.2v6h38.2V125.5L515.9,125.5z"/>
			</g>
			<g id="Rectangle_15_00000103226627183095147150000000056935241788688021_">
				<rect x="478.2" y="122.4" class="st6" width="37.2" height="6.7"/>
				<path class="st3" d="M514.9,122.9v5.7h-36.2v-5.7H514.9 M515.9,121.9h-38.2v7.7h38.2V121.9L515.9,121.9z"/>
			</g>
			
				<rect id="Rectangle_17_00000076606019420303293920000016526522896156338822_" x="484.1" y="124.1" class="st7" width="25.4" height="1.7"/>
			<path id="Rectangle_18_x5F_2_00000134938728200617265050000012375651030709249213_" class="st7" d="M502.2,124.1h-10.7l1-1.6h8.8
				L502.2,124.1z"/>
		</g>
		<g>
			<g>
				<rect x="484.6" y="77.2" class="st6" width="17.1" height="42.4"/>
				<path class="st3" d="M501.2,77.7v41.4h-16.1l0-41.4H501.2 M502.2,76.7h-18.1l0,43.4h18.1V76.7L502.2,76.7z"/>
			</g>
			<g>
				<g>
					<path class="st11" d="M493.2,80.7c-3.3,0-5.9,2.9-5.6,6.1c0.3,3.6,0.6,8.2,0.6,11.6c0,3.4-0.3,7.9-0.6,11.6
						c-0.3,3.3,2.3,6.1,5.6,6.1s5.9-2.9,5.6-6.1c-0.3-3.6-0.6-8.2-0.6-11.6c0-3.4,0.3-7.9,0.6-11.6
						C499.1,83.6,496.5,80.7,493.2,80.7z"/>
					<ellipse class="st11" cx="493.2" cy="86.5" rx="1.1" ry="1.1"/>
				</g>
			</g>
		</g>
		<g id="Sink_2_2_">
			<g id="Rectangle_16_x5F_11_2_">
				<rect x="465.7" y="77.2" class="st6" width="19" height="11.6"/>
				<path class="st3" d="M484.1,77.7v10.6h-18V77.7H484.1 M485.1,76.7h-20v12.6h20V76.7L485.1,76.7z"/>
			</g>
			<path id="Rectangle_19_x5F_5_2_" class="st7" d="M468.6,83L468.6,83c0,2.1,1.7,3.9,3.9,3.9h5.5c2.1,0,3.9-1.7,3.9-3.9l0,0
				c0-2.1-1.7-3.9-3.9-3.9l-5.5,0C470.3,79.1,468.6,80.9,468.6,83z"/>
			<circle id="Ellipse_7_x5F_2_2_" class="st7" cx="475.2" cy="81.8" r="1.1"/>
		</g>
		<g id="Toilet_3_">
			<g id="Rectangle_21_3_">
				<rect x="442.4" y="90.5" class="st6" width="3.4" height="10.9"/>
				<path class="st3" d="M445.3,91v9.9h-2.4V91H445.3 M446.3,90h-4.4v11.9h4.4V90L446.3,90z"/>
			</g>
			<path id="Rectangle_19_x5F_2_3_" class="st7" d="M454.7,101.1c2.7,0.2,5-2.2,5-5.2l0,0c0-3-2.3-5.4-5-5.2l-8.7,0.6v9.1
				L454.7,101.1z"/>
			<path id="Rectangle_18_x5F_13_3_" class="st7" d="M453.8,99.3c2,0.2,3.7-1.4,3.7-3.4l0,0c0-2-1.7-3.6-3.7-3.4l-5.4,0.5v5.8
				L453.8,99.3z"/>
			<ellipse id="Ellipse_6_x5F_2_3_" class="st7" cx="450.9" cy="96" rx="1.1" ry="1.1"/>
		</g>
		<g>
			<g>
				<rect x="505.2" y="91.3" class="st6" width="41" height="1.8"/>
				<path class="st3" d="M545.7,91.8v0.8h-40v-0.8H545.7 M546.7,90.8h-42v2.8h42V90.8L546.7,90.8z"/>
			</g>
			<g>
				<rect x="505.2" y="77.2" class="st6" width="41" height="14.1"/>
				<path class="st3" d="M505.7,77.7l40,0v13.1h-40V77.7 M504.7,76.7v15.1h42V76.7L504.7,76.7L504.7,76.7z"/>
			</g>
			<path class="st7" d="M546.5,77.4l-41.7,13.8"/>
		</g>
		<g>
			<g>
				<rect x="478.2" y="162.7" class="st6" width="39.7" height="47.1"/>
				<path class="st3" d="M478.7,163.2l38.7,0v46.1h-38.7V163.2 M477.7,162.2v48.1h40.7v-48.1L477.7,162.2L477.7,162.2z"/>
			</g>
			<rect x="481.2" y="195" class="st7" width="15.9" height="11.9"/>
			<rect x="499" y="195" class="st7" width="15.9" height="11.9"/>
			
				<rect x="484.4" y="189.6" transform="matrix(0.2588 -0.9659 0.9659 0.2588 174.5469 618.6393)" class="st12" width="11.9" height="11.9"/>
			
				<rect x="499.8" y="189.6" transform="matrix(0.9659 -0.2588 0.2588 0.9659 -33.3856 137.558)" class="st12" width="11.9" height="11.9"/>
			<g>
				<polygon class="st6" points="478.2,197.2 478.2,162.2 517.9,162.2 517.9,199.7 502.1,200.7 				"/>
				<path class="st3" d="M478.7,162.7l38.7,0v36.5l-15.2,0.9l-23.4-3.4V162.7 M477.7,161.7v35.7v0.3l24.4,3.5l16.3-1v-0.8v-37.7
					L477.7,161.7L477.7,161.7z"/>
			</g>
			<polyline class="st9" points="517.8,199 501.9,199 478.1,197 			"/>
		</g>
		<g>
			<path class="st7" d="M452.7,165.7l0,12.2l-11.1,1.6l0-15.5L452.7,165.7z"/>
			<g>
				<rect x="424.8" y="154" class="st6" width="17.8" height="36.8"/>
				<path class="st3" d="M442.1,154.5l0,35.8h-16.8v-35.8H442.1 M443.1,153.5h-18.8v37.8h18.8L443.1,153.5L443.1,153.5z"/>
			</g>
			<path class="st9" d="M437.9,167.7l0,9.4 M439.7,166.9l0,11.1l-3.3,0l0-11.1L439.7,166.9z"/>
			<path class="st13" d="M439.9,162.3L439.9,162.3c0,0.5-0.4,0.8-0.8,0.8l-1.1,0c-0.5,0-0.8-0.4-0.8-0.8l0,0c0-0.5,0.4-0.8,0.8-0.8
				l1.1,0C439.5,161.5,439.9,161.8,439.9,162.3z"/>
			<path class="st7" d="M431,169.6c1.5,0,2.8,1.2,2.8,2.8c0,1.5-1.2,2.8-2.8,2.8l-2.8,0l0-5.5L431,169.6z"/>
			<g>
				<polygon class="st6" points="427.9,186.3 428,158.5 429.7,158.5 429.6,186.3 				"/>
				<path class="st3" d="M428.5,159l0.7,0l-0.1,26.8l-0.7,0L428.5,159 M427.5,158l-0.1,28.8l2.7,0l0.1-28.8L427.5,158L427.5,158z"/>
			</g>
			<g>
				<rect x="443.1" y="166" class="st6" width="9.7" height="11.6"/>
				<path class="st3" d="M452.3,166.5V177h-8.7v-10.6H452.3 M453.3,165.5h-10.7V178h10.7V165.5L453.3,165.5z"/>
			</g>
			<g>
				<rect x="452.8" y="165.7" class="st6" width="1.8" height="12"/>
				<path class="st3" d="M454.2,166.2v11h-0.8v-11H454.2 M455.2,165.2h-2.8v13h2.8V165.2L455.2,165.2z"/>
			</g>
		</g>
		<g>
			<g>
				<rect x="427.5" y="194.2" class="st6" width="3.8" height="17.9"/>
				<path class="st3" d="M430.8,194.7l0,16.9H428v-16.9H430.8 M431.8,193.7H427v18.9h4.8L431.8,193.7L431.8,193.7z"/>
			</g>
			<g>
				<rect x="429.6" y="194.2" class="st6" width="9.3" height="17.9"/>
				<path class="st3" d="M438.4,194.7v16.9h-8.3v-16.9H438.4 M439.4,193.7h-10.3v18.9h10.3V193.7L439.4,193.7z"/>
			</g>
			<path class="st7" d="M438.7,212.4l-9-18.6"/>
		</g>
		<g>
			<g>
				<rect x="492.1" y="212.1" class="st6" width="39.7" height="47.1"/>
				<path class="st3" d="M531.3,212.6v46.1l-38.7,0v-46.1H531.3 M532.3,211.6h-40.7v48.1l40.7,0V211.6L532.3,211.6z"/>
			</g>
			<rect x="512.9" y="215" class="st7" width="15.9" height="11.9"/>
			<rect x="495.1" y="215" class="st7" width="15.9" height="11.9"/>
			
				<rect x="513.6" y="220.3" transform="matrix(0.2588 -0.9659 0.9659 0.2588 166.551 669.5945)" class="st12" width="11.9" height="11.9"/>
			
				<rect x="498.3" y="220.3" transform="matrix(0.9659 -0.2588 0.2588 0.9659 -41.3831 138.2025)" class="st12" width="11.9" height="11.9"/>
			<g>
				<polygon class="st6" points="492.1,259.6 492.1,222.1 507.9,221.2 531.8,224.6 531.8,259.6 				"/>
				<path class="st3" d="M507.8,221.7l23.4,3.4v34.1l-38.7,0l0-36.5L507.8,221.7 M507.9,220.7l-16.3,1v0.8l0,37.7l40.7,0v-35.7v-0.3
					L507.9,220.7L507.9,220.7z"/>
			</g>
			<polyline class="st9" points="492.1,222.9 508,222.9 531.8,224.9 			"/>
		</g>
		<g>
			<path class="st7" d="M519,293.6l0-12.2l11.1-1.6l0,15.5L519,293.6z"/>
			<g>
				<rect x="529" y="268.5" class="st6" width="17.8" height="36.8"/>
				<path class="st3" d="M546.4,269v35.8h-16.8V269H546.4 M547.4,268h-18.8v37.8h18.8V268L547.4,268z"/>
			</g>
			<path class="st9" d="M533.7,291.6l0-9.4 M531.9,292.4l0-11.1l3.3,0l0,11.1L531.9,292.4z"/>
			<path class="st13" d="M531.8,297L531.8,297c0-0.5,0.4-0.8,0.8-0.8l1.1,0c0.5,0,0.8,0.4,0.8,0.8l0,0c0,0.5-0.4,0.8-0.8,0.8l-1.1,0
				C532.1,297.8,531.8,297.4,531.8,297z"/>
			<path class="st7" d="M540.6,289.6c-1.5,0-2.8-1.2-2.8-2.8c0-1.5,1.2-2.8,2.8-2.8l2.8,0l0,5.5L540.6,289.6z"/>
			<g>
				<polygon class="st6" points="541.9,300.8 542.1,273 543.8,273 543.7,300.8 				"/>
				<path class="st3" d="M542.6,273.5l0.7,0l-0.1,26.8l-0.7,0L542.6,273.5 M541.6,272.5l-0.1,28.8l2.7,0l0.1-28.8L541.6,272.5
					L541.6,272.5z"/>
			</g>
			<g>
				<rect x="518.8" y="281.7" class="st6" width="9.7" height="11.6"/>
				<path class="st3" d="M528,282.2v10.6h-8.7v-10.6H528 M529,281.2h-10.7v12.6H529V281.2L529,281.2z"/>
			</g>
			<g>
				<rect x="517" y="281.5" class="st6" width="1.8" height="12"/>
				<path class="st3" d="M518.3,282v11h-0.8v-11H518.3 M519.3,281h-2.8v13h2.8V281L519.3,281z"/>
			</g>
		</g>
	</g>
	<g id="street_anchors" class="st14">
		<rect id="street_x5F_anchor_x5F_03" x="588.8" y="235" class="st15" width="10" height="10"/>
		<rect id="street_x5F_anchor_x5F_02" x="355" y="449.8" class="st15" width="10" height="10"/>
		<rect id="street_x5F_anchor_x5F_01_1_" x="121" y="235" class="st15" width="10" height="10"/>
	</g>
	<g>
		<defs>
			<polygon id="SVGID_1_" points="412.8,47.7 412.8,233.9 368.6,233.9 368.6,429.3 573.1,429.3 573.1,237.6 573.1,233.9 573.1,47.7 
							"/>
		</defs>
		<clipPath id="SVGID_00000066480425806417143250000012182996953594831288_">
			<use xlink:href="#SVGID_1_"  style="overflow:visible;"/>
		</clipPath>
		<g id="Windows" style="clip-path:url(#SVGID_00000066480425806417143250000012182996953594831288_);">
			<polygon class="st4" points="166,150.6 162.3,150.6 162.3,418.8 371.1,418.8 371.1,415 166,415 			"/>
			<polygon class="st4" points="553.8,170.2 553.8,415 373.8,415 373.8,418.8 557.5,418.8 557.5,170.2 			"/>
		</g>
		
			<g id="Walls_00000036960552707855180280000018188332711154221994_" style="clip-path:url(#SVGID_00000066480425806417143250000012182996953594831288_);">
			<path class="st5" d="M176,154.1h127.9v7.8h9.8v34.5v0h20.9v-2.5h-18.4v-39.8h58.2v39.8h-20.9v2.5h23.4v0v-42.3h6v-7.5H161.1v24.9
				H176V154.1z M313.7,159.4h-7.3v-5.3h7.3V159.4z"/>
			<rect x="161.1" y="208.7" class="st5" width="12.4" height="17.4"/>
			<polygon class="st5" points="173.5,308.2 240.4,308.2 240.4,305.7 173.5,305.7 173.5,304.4 176,304.4 176,282.8 173.5,282.8 
				173.5,261.2 161.1,261.2 161.1,282.8 161.1,304.4 161.1,331.5 173.5,331.5 			"/>
			<polygon class="st5" points="265.5,308.2 269.9,308.2 269.9,305.7 259.3,305.7 259.3,308.2 263,308.2 263,407.6 235.6,407.6 
				235.6,405.1 218.2,405.1 218.2,420 287.8,420 287.8,407.6 265.5,407.6 			"/>
			<rect x="161.1" y="365.3" class="st5" width="14.9" height="17.4"/>
			<polygon class="st5" points="481.7,405.1 481.7,405.1 481.7,407.6 463.2,407.6 463.2,326.5 460.7,326.5 460.7,328.1 457.6,328.1 
				457.6,330.5 460.7,330.5 460.7,407.6 429.5,407.6 429.5,420 429.5,420 429.5,420 499.1,420 499.1,405.1 481.7,405.1 			"/>
			<path class="st5" d="M434.5,64.6L434.5,64.6L434.5,64.6l0,82h-26.8v7.5h10.9v0h3.4v37.3v2.2v0.3h17.4v18.7h6.1v-2.5h-3.6v-18.7h0
				v0h-17.4v-37.3h17.4v0h0v-31.7h7.1v-2.5h-7.1V84.2h8.3V77h52.1v42.9H468v2.5h49.9v-2.5h-13V77h41.5v42.9h-9.6v2.5h9.6v49.1v0
				h12.4v0h0V64.6H434.5z M447.8,81.7h-5.8V77h5.8V81.7z"/>
			<path class="st5" d="M543.8,248.5h-0.3v17.4h2.7V298l0,0v7.6h-76.7h-1.9v-42.6h-2.5v42.6h-1.9h-2.5h0v2.5h0v1.9h2.5v-1.9h1.9h2.5
				h1.9h76.7v9.9h12.4v0h0v-69.6L543.8,248.5L543.8,248.5z M546.3,305.7v-5.3l0,0V305.7L546.3,305.7z"/>
			<polygon class="st5" points="558.7,365.3 543.5,365.3 543.5,382.7 544.1,382.7 544.1,382.7 558.8,382.7 558.8,365.3 558.7,365.3 
							"/>
			<polygon class="st5" points="558.7,223.7 558.7,223.7 558.8,223.7 558.8,206.3 546.3,206.3 546.3,206.3 546.3,206.3 546.3,210.1 
				463.2,210.1 463.2,212.5 465.2,212.5 465.2,241 467.6,241 467.6,212.5 546.3,212.5 546.3,223.7 			"/>
			<path class="st5" d="M377.3,407.6v-99.4h58.3v22.4h4.4v-2.5h-1.9v-19.9h0v-2.5h0h-2.5h-11.1V291H422v14.7h-36V298h-8.7v-54.4H422
				v28.6h2.5v-31.1h-47.2v0h-63.6v64.6h-24.4v2.5h44.3v-2.5h-17.4v-62.1h53.7V298h-9.5v7.7h-7.9v2.5h17.4v96.9h-15.4v2.5h-30.3V420
				H393v-12.4h-0.8H377.3z M383.6,300.4v5.3h-6.2v-5.3H383.6z M362.8,305.7v-5.3h7v5.3H362.8z"/>
		</g>
		
			<g id="Doors_00000160154884255094017510000000170891221837516961_" style="clip-path:url(#SVGID_00000066480425806417143250000012182996953594831288_);">
			<path class="st4" d="M289.3,307.9c0,2.7-0.5,5-1.5,7.5c-1,2.5-2.5,4.7-4.2,6.5c-1.7,2-4,3.5-6.5,4.5c-2.5,1-5,1.5-7.7,1.5v-19.9"
				/>
			<path class="st4" d="M259.8,307.9c0,2.7-0.5,5-1.5,7.5c-1,2.5-2.5,4.7-4.2,6.5c-1.7,2-4,3.5-6.5,4.5c-2.5,1-5,1.5-7.7,1.5v-19.9"
				/>
			<path class="st4" d="M333.1,307.9c0,2.7,0.5,5,1.5,7.5c1,2.5,2.5,4.7,4.2,6.5c1.7,2,4,3.5,6.5,4.5c2.5,1,5,1.5,7.7,1.5v-19.9"/>
			<path class="st4" d="M407.6,147.6c0-3.2-0.7-6.2-2-9.2c-1.2-3-3-6-5.5-8.2c-2.2-2.2-5-4.2-8-5.5c-3-1.2-6.2-2-9.4-2v24.9"/>
			<path class="st4" d="M463.2,309.4c2.4,0,4.4,0.4,6.6,1.3c2.2,0.9,4.2,2.2,5.8,3.8c1.8,1.6,3.1,3.5,4,5.8c0.9,2.2,1.3,4.4,1.3,6.9
				h-17.7"/>
			<path class="st4" d="M439.4,330.5c0,2.6,0.5,4.7,1.4,7c0.9,2.3,2.3,4.4,4,6.1c1.6,1.9,3.7,3.3,6.1,4.2c2.3,0.9,4.7,1.4,7.2,1.4
				v-18.7"/>
			<path class="st4" d="M463.7,210.1c0-2.6-0.5-4.7-1.4-7c-0.9-2.3-2.3-4.4-4-6.1c-1.6-1.9-3.7-3.3-6.1-4.2
				c-2.3-0.9-4.7-1.4-7.2-1.4v18.7"/>
			<path class="st4" d="M467.6,263.5c2.7,0,4.8-0.6,7.3-1.7c2.4-1.2,4.6-2.9,6.3-4.9c1.9-2,3.4-4.6,4.4-7.5c1-2.9,1.5-5.8,1.5-8.9
				h-19.4"/>
			<path class="st4" d="M517.3,122.4c0,2.7,0.5,5,1.5,7.5c1,2.5,2.5,4.7,4.2,6.5c1.7,2,4,3.5,6.5,4.5c2.5,1,5,1.5,7.7,1.5v-19.9"/>
			<path class="st4" d="M468.5,122.4c0,2.7-0.5,5-1.5,7.5c-1,2.5-2.5,4.7-4.2,6.5c-1.7,2-4,3.5-6.5,4.5c-2.5,1-5,1.5-7.7,1.5v-19.9"
				/>
		</g>
		
			<g id="street_anchors_00000159437029323102981370000010624125846127784077_" style="opacity:0;clip-path:url(#SVGID_00000066480425806417143250000012182996953594831288_);">
			
				<rect id="street_x5F_anchor_x5F_03_00000072261131224710577750000004561726999563840135_" x="588.4" y="237.7" class="st15" width="9.9" height="9.9"/>
			
				<rect id="street_x5F_anchor_x5F_02_00000103951999264068702790000003778546468617788067_" x="354.6" y="450.4" class="st15" width="9.9" height="9.9"/>
			
				<rect id="street_x5F_anchor_x5F_01_00000045611933763485712470000012406632573122039456_" x="120.7" y="237.6" class="st15" width="9.9" height="9.9"/>
		</g>
	</g>
</g>
<g id="комнаты">
	<g>
		<g>
			<path class="st5" d="M330.6,96.7h0.7c0.3,0,0.6-0.2,0.6-0.6c0-0.5-0.4-0.7-0.8-0.7c-0.6,0-1.1,0.4-1.6,1l-0.6-0.9
				c0.5-0.6,1.3-1.3,2.2-1.3c0.8,0,1.9,0.5,1.9,1.8c0,0.5-0.3,0.9-0.5,1.1c0.4,0.2,0.9,0.6,0.9,1.5c0,1.4-1.1,2.2-2.4,2.2
				c-0.9,0-1.7-0.4-2.4-1.3l0.6-1c0.5,0.6,1,1,1.8,1c0.7,0,1.3-0.4,1.3-1c0-0.5-0.5-0.6-0.7-0.6h-0.9V96.7z"/>
			<path class="st5" d="M335,98.8c0.4,0,0.8,0.4,0.8,0.9c0,0.5-0.3,0.9-0.8,0.9c-0.4,0-0.7-0.4-0.7-0.9
				C334.2,99.2,334.6,98.8,335,98.8z"/>
			<path class="st5" d="M340.6,95.7c-0.4-0.2-0.8-0.4-1.3-0.4c-0.8,0-1.6,0.7-1.6,2c0.4-0.4,1-0.9,1.7-0.9c1.2,0,1.9,1,1.9,1.9
				c0,1.3-0.9,2.2-2.1,2.2c-1.3,0-2.5-1.1-2.5-3.1c0-2.1,1.3-3.4,2.6-3.4c0.8,0,1.4,0.4,1.8,0.5L340.6,95.7z M337.8,98.1
				c0.2,0.8,0.8,1.3,1.4,1.3c0.6,0,1-0.5,1-1c0-0.4-0.2-0.8-0.9-0.8C338.7,97.5,338.2,97.8,337.8,98.1z"/>
		</g>
	</g>
	<g>
		<g>
			<path class="st5" d="M281.5,110.9l1.4-0.8h1v6.1h-1.1v-4.7l-1,0.6L281.5,110.9z"/>
			<path class="st5" d="M285.1,110h4.2v1.2l-2.4,4.9h-1.4l2.5-4.8h-2.9V110z"/>
			<path class="st5" d="M290.9,114.5c0.4,0,0.8,0.4,0.8,0.9c0,0.5-0.3,0.9-0.8,0.9c-0.4,0-0.7-0.4-0.7-0.9
				C290.1,114.9,290.4,114.5,290.9,114.5z"/>
			<path class="st5" d="M292.5,110h4.2v1.2l-2.4,4.9h-1.4l2.5-4.8h-2.9V110z"/>
		</g>
	</g>
	<g>
		<g>
			<path class="st5" d="M263.4,261h0.7c0.3,0,0.6-0.2,0.6-0.6c0-0.5-0.4-0.7-0.8-0.7c-0.6,0-1.1,0.5-1.6,1l-0.6-0.9
				c0.5-0.6,1.3-1.3,2.2-1.3c0.8,0,1.9,0.5,1.9,1.8c0,0.5-0.3,0.9-0.5,1.1c0.4,0.2,0.9,0.6,0.9,1.5c0,1.4-1.1,2.2-2.4,2.2
				c-0.9,0-1.7-0.4-2.4-1.3l0.6-1c0.5,0.6,1,1,1.8,1c0.7,0,1.3-0.4,1.3-1c0-0.5-0.5-0.6-0.7-0.6h-0.9V261z"/>
			<path class="st5" d="M266.8,264.1l0.5-1c0.3,0.3,1,0.7,1.9,0.7c0.6,0,1.2-0.3,1.2-1c0-0.6-0.5-0.9-0.9-0.9
				c-0.6,0-1.1,0.3-1.5,0.6l-0.6-0.6v-3.2h3.7v1.2h-2.7v1.4c0.4-0.3,0.7-0.6,1.3-0.6c0.9,0,1.9,0.6,1.9,2c0,1.6-1.2,2.3-2.3,2.3
				C268,265,267.2,264.4,266.8,264.1z"/>
			<path class="st5" d="M273.1,263.1c0.4,0,0.8,0.4,0.8,0.9c0,0.5-0.3,0.9-0.8,0.9c-0.4,0-0.7-0.4-0.7-0.9
				C272.4,263.5,272.7,263.1,273.1,263.1z"/>
			<path class="st5" d="M279.7,263.5h-0.8v1.3h-1.1v-1.3h-3.2v-0.9l3.3-3.9h1v3.7h0.8V263.5z M276.1,262.4h1.6v-2h-0.1
				C277.2,261.1,276.7,261.8,276.1,262.4L276.1,262.4z"/>
		</g>
	</g>
	<g>
		<g>
			<path class="st5" d="M379.1,176.6l1.4-0.8h1v6.1h-1.1v-4.7l-1,0.6L379.1,176.6z"/>
			<path class="st5" d="M387.6,180.6h-0.8v1.3h-1.1v-1.3h-3.2v-0.9l3.3-3.9h1v3.7h0.8V180.6z M384.1,179.5h1.6v-2h-0.1
				C385.1,178.2,384.6,178.9,384.1,179.5L384.1,179.5z"/>
			<path class="st5" d="M389.2,180.3c0.4,0,0.8,0.4,0.8,0.9c0,0.5-0.3,0.9-0.8,0.9c-0.4,0-0.7-0.4-0.7-0.9
				C388.5,180.7,388.8,180.3,389.2,180.3z"/>
			<path class="st5" d="M394.8,177.2c-0.4-0.2-0.8-0.4-1.3-0.4c-0.8,0-1.6,0.7-1.6,2c0.4-0.4,1-0.9,1.7-0.9c1.2,0,1.9,1,1.9,1.9
				c0,1.3-0.9,2.2-2.1,2.2c-1.3,0-2.5-1.1-2.5-3.1c0-2.1,1.3-3.4,2.6-3.4c0.8,0,1.4,0.4,1.8,0.5L394.8,177.2z M392,179.6
				c0.2,0.8,0.8,1.3,1.4,1.3c0.6,0,1-0.5,1-1c0-0.4-0.2-0.8-0.9-0.8C392.9,179,392.4,179.3,392,179.6z"/>
		</g>
	</g>
	<g>
		<g>
			<path class="st5" d="M407.3,282.7h-0.8v1.3h-1.1v-1.3h-3.2v-0.9l3.3-3.9h1v3.7h0.8V282.7z M403.7,281.6h1.6v-2h-0.1
				C404.8,280.3,404.3,281,403.7,281.6L403.7,281.6z"/>
		</g>
	</g>
	<g>
		<g>
			<path class="st5" d="M342.3,280.3h0.7c0.3,0,0.6-0.2,0.6-0.6c0-0.5-0.4-0.7-0.8-0.7c-0.6,0-1.1,0.5-1.6,1l-0.6-0.9
				c0.5-0.6,1.3-1.3,2.2-1.3c0.8,0,1.9,0.5,1.9,1.8c0,0.5-0.3,0.9-0.5,1.1c0.4,0.2,0.9,0.6,0.9,1.5c0,1.4-1.1,2.2-2.4,2.2
				c-0.9,0-1.7-0.4-2.4-1.3l0.6-1c0.5,0.6,1,1,1.8,1c0.7,0,1.3-0.4,1.3-1c0-0.5-0.5-0.6-0.7-0.6h-0.9V280.3z"/>
			<path class="st5" d="M346.7,282.3c0.4,0,0.8,0.4,0.8,0.9c0,0.5-0.3,0.9-0.8,0.9c-0.4,0-0.7-0.4-0.7-0.9
				C345.9,282.8,346.2,282.3,346.7,282.3z"/>
			<path class="st5" d="M352.2,279.3c-0.4-0.2-0.8-0.4-1.3-0.4c-0.8,0-1.6,0.7-1.6,2c0.4-0.5,1-0.9,1.7-0.9c1.2,0,1.9,1,1.9,1.9
				c0,1.3-0.9,2.2-2.1,2.2c-1.3,0-2.5-1.1-2.5-3.1c0-2.1,1.3-3.4,2.6-3.4c0.8,0,1.4,0.4,1.8,0.5L352.2,279.3z M349.4,281.7
				c0.2,0.8,0.8,1.3,1.4,1.3c0.6,0,1-0.5,1-1c0-0.4-0.2-0.8-0.9-0.8C350.4,281.1,349.8,281.4,349.4,281.7z"/>
		</g>
	</g>
	<g>
		<g>
			<path class="st5" d="M527.7,189.7l1.4-0.8h1v6.1H529v-4.7l-1,0.6L527.7,189.7z"/>
			<path class="st5" d="M531.2,194.2l0.5-1c0.3,0.3,1,0.7,1.9,0.7c0.6,0,1.2-0.3,1.2-1c0-0.6-0.5-0.9-0.9-0.9
				c-0.6,0-1.1,0.3-1.5,0.6l-0.6-0.6v-3.2h3.7v1.2h-2.7v1.4c0.4-0.3,0.7-0.6,1.3-0.6c0.9,0,1.9,0.6,1.9,2c0,1.6-1.2,2.3-2.3,2.3
				C532.4,195.1,531.6,194.6,531.2,194.2z"/>
			<path class="st5" d="M537.5,193.3c0.4,0,0.8,0.4,0.8,0.9c0,0.5-0.3,0.9-0.8,0.9c-0.4,0-0.7-0.4-0.7-0.9
				C536.7,193.7,537.1,193.3,537.5,193.3z"/>
			<path class="st5" d="M538.9,189.7l1.4-0.8h1v6.1h-1.1v-4.7l-1,0.6L538.9,189.7z"/>
		</g>
	</g>
	<g>
		<g>
			<path class="st5" d="M527.4,344.1l1.4-0.8h1v6.1h-1.1v-4.7l-1,0.6L527.4,344.1z"/>
			<path class="st5" d="M531.1,348.4c0-1.5,0.9-2.2,2-2.6c0.3-0.1,0.8-0.3,0.8-0.9c0-0.5-0.4-0.6-0.8-0.6c-0.7,0-1.1,0.4-1.6,0.9
				l-0.6-1c0.6-0.6,1.2-1.2,2.1-1.2c0.9,0,1.9,0.5,1.9,1.8c0,1.4-1,1.8-1.8,2.1c-0.7,0.3-1.1,0.6-1.1,1.1v0.1h2.8v1.2h-3.9V348.4z"
				/>
			<path class="st5" d="M536.7,347.7c0.4,0,0.8,0.4,0.8,0.9c0,0.5-0.3,0.9-0.8,0.9c-0.4,0-0.7-0.4-0.7-0.9
				C536,348.2,536.3,347.7,536.7,347.7z"/>
			<path class="st5" d="M538.1,344.1l1.4-0.8h1v6.1h-1.1v-4.7l-1,0.6L538.1,344.1z"/>
		</g>
	</g>
	<g>
		<g>
			<path class="st5" d="M436.5,385l1.4-0.8h1v6.1h-1.1v-4.7l-1,0.6L436.5,385z"/>
			<path class="st5" d="M440.1,389.3c0-1.5,0.9-2.2,2-2.6c0.3-0.1,0.8-0.3,0.8-0.9c0-0.5-0.4-0.6-0.8-0.6c-0.7,0-1.1,0.4-1.6,0.9
				l-0.6-1c0.6-0.6,1.2-1.2,2.1-1.2c0.9,0,1.9,0.5,1.9,1.8c0,1.4-1,1.8-1.8,2.1c-0.7,0.3-1.1,0.6-1.1,1.1v0.1h2.8v1.2h-3.9V389.3z"
				/>
		</g>
	</g>
	<g>
		<g>
			<path class="st5" d="M315.5,341.2l1.4-0.8h1v6.1h-1.1v-4.7l-1,0.6L315.5,341.2z"/>
			<path class="st5" d="M319.2,345.5c0-1.5,0.9-2.2,2-2.6c0.3-0.1,0.8-0.3,0.8-0.9c0-0.5-0.4-0.6-0.8-0.6c-0.7,0-1.1,0.4-1.6,0.9
				l-0.6-1c0.6-0.6,1.2-1.2,2.1-1.2c0.9,0,1.9,0.5,1.9,1.8c0,1.4-1,1.8-1.8,2.1c-0.7,0.3-1.1,0.6-1.1,1.1v0.1h2.8v1.2h-3.9V345.5z"
				/>
			<path class="st5" d="M324.8,344.8c0.4,0,0.8,0.4,0.8,0.9c0,0.5-0.3,0.9-0.8,0.9c-0.4,0-0.7-0.4-0.7-0.9
				C324.1,345.3,324.4,344.8,324.8,344.8z"/>
			<path class="st5" d="M326.3,341.2l1.4-0.8h1v6.1h-1.1v-4.7l-1,0.6L326.3,341.2z"/>
		</g>
	</g>
	<g>
		<g>
			<path class="st5" d="M227,378l1.4-0.8h1v6.1h-1.1v-4.7l-1,0.6L227,378z"/>
			<path class="st5" d="M230.7,382.3c0-1.5,0.9-2.2,2-2.6c0.3-0.1,0.8-0.3,0.8-0.9c0-0.5-0.4-0.6-0.8-0.6c-0.7,0-1.1,0.4-1.6,0.9
				l-0.6-1c0.6-0.6,1.2-1.2,2.1-1.2c0.9,0,1.9,0.5,1.9,1.8c0,1.4-1,1.8-1.8,2.1c-0.7,0.3-1.1,0.6-1.1,1.1v0.1h2.8v1.2h-3.9V382.3z"
				/>
			<path class="st5" d="M236.3,381.6c0.4,0,0.8,0.4,0.8,0.9c0,0.5-0.3,0.9-0.8,0.9c-0.4,0-0.7-0.4-0.7-0.9
				C235.6,382,235.9,381.6,236.3,381.6z"/>
			<path class="st5" d="M237.7,378l1.4-0.8h1v6.1H239v-4.7l-1,0.6L237.7,378z"/>
		</g>
	</g>
	<g>
		<g>
			<path class="st5" d="M466.4,107.7h-0.8v1.3h-1.1v-1.3h-3.2v-0.9l3.3-3.9h1v3.7h0.8V107.7z M462.9,106.6h1.6v-2h-0.1
				C463.9,105.3,463.4,106,462.9,106.6L462.9,106.6z"/>
			<path class="st5" d="M468,107.4c0.4,0,0.8,0.4,0.8,0.9c0,0.5-0.3,0.9-0.8,0.9c-0.4,0-0.7-0.4-0.7-0.9
				C467.3,107.8,467.6,107.4,468,107.4z"/>
			<path class="st5" d="M469.7,108c0-1.5,0.9-2.2,2-2.6c0.3-0.1,0.8-0.3,0.8-0.9c0-0.5-0.4-0.6-0.8-0.6c-0.7,0-1.1,0.4-1.6,0.9
				l-0.6-1c0.6-0.6,1.2-1.2,2.1-1.2c0.9,0,1.9,0.5,1.9,1.8c0,1.4-1,1.8-1.8,2.1c-0.7,0.3-1.1,0.6-1.1,1.1v0.1h2.8v1.2h-3.9V108z"/>
		</g>
	</g>
	<g>
		<g>
			<path class="st5" d="M524.1,101.7l1.4-0.8h1v6.1h-1.1v-4.7l-1,0.6L524.1,101.7z"/>
			<path class="st5" d="M528.4,105.3c0.4,0,0.8,0.4,0.8,0.9c0,0.5-0.3,0.9-0.8,0.9c-0.4,0-0.7-0.4-0.7-0.9
				C527.7,105.7,528,105.3,528.4,105.3z"/>
			<path class="st5" d="M530.2,106c0-1.5,0.9-2.2,2-2.6c0.3-0.1,0.8-0.3,0.8-0.9c0-0.5-0.4-0.6-0.8-0.6c-0.7,0-1.1,0.4-1.6,0.9
				l-0.6-1c0.6-0.6,1.2-1.2,2.1-1.2c0.9,0,1.9,0.5,1.9,1.8c0,1.4-1,1.8-1.8,2.1c-0.7,0.3-1.1,0.6-1.1,1.1v0.1h2.8v1.2h-3.9V106z"/>
		</g>
	</g>
	<g>
		<g>
			<path class="st5" d="M475.5,270l1.4-0.8h1v6.1h-1.1v-4.7l-1,0.6L475.5,270z"/>
			<path class="st5" d="M478.9,270l1.4-0.8h1v6.1h-1.1v-4.7l-1,0.6L478.9,270z"/>
			<path class="st5" d="M483.2,273.7c0.4,0,0.8,0.4,0.8,0.9c0,0.5-0.3,0.9-0.8,0.9c-0.4,0-0.7-0.4-0.7-0.9
				C482.5,274.1,482.8,273.7,483.2,273.7z"/>
			<path class="st5" d="M484.9,269.2h4.2v1.2l-2.4,4.9h-1.4l2.5-4.8h-2.9V269.2z"/>
		</g>
	</g>
	<g>
		<g>
			<path class="st5" d="M231.7,183.7l1.4-0.8h1v6.1H233v-4.7l-1,0.6L231.7,183.7z"/>
			<path class="st5" d="M240.3,187.7h-0.8v1.3h-1.1v-1.3h-3.2v-0.9l3.3-3.9h1v3.7h0.8V187.7z M236.7,186.6h1.6v-2h-0.1
				C237.8,185.3,237.2,186,236.7,186.6L236.7,186.6z"/>
			<path class="st5" d="M241.8,187.3c0.4,0,0.8,0.4,0.8,0.9c0,0.5-0.3,0.9-0.8,0.9c-0.4,0-0.7-0.4-0.7-0.9
				C241.1,187.7,241.4,187.3,241.8,187.3z"/>
			<path class="st5" d="M244.1,187.6c0.4,0.2,0.8,0.4,1.3,0.4c0.8,0,1.6-0.7,1.6-1.9c-0.4,0.4-1,0.9-1.7,0.9c-1.2,0-1.9-1-1.9-2
				c0-1.3,0.9-2.2,2.1-2.2c1.3,0,2.5,1.1,2.5,3.1c0,2.1-1.3,3.4-2.6,3.4c-0.8,0-1.4-0.4-1.8-0.5L244.1,187.6z M246.9,185.2
				c-0.2-0.8-0.8-1.3-1.4-1.3c-0.6,0-1,0.5-1,1c0,0.4,0.2,0.8,0.9,0.8C246,185.8,246.5,185.5,246.9,185.2z"/>
		</g>
	</g>
</g>
<g id="контур">
</g>
<g id="м_x5C_к">
</g>
<g id="не_монолит">
</g>
<g id="монолит">
</g>
</svg>
