<?xml version="1.0" encoding="utf-8"?>
<!-- Generator: Adobe Illustrator 26.0.3, SVG Export Plug-In . SVG Version: 6.00 Build 0)  -->
<svg version="1.1" xmlns="http://www.w3.org/2000/svg" xmlns:xlink="http://www.w3.org/1999/xlink" x="0px" y="0px"
	 viewBox="0 0 720 480" style="enable-background:new 0 0 720 480;" xml:space="preserve">
<style type="text/css">
	.st0{fill:#DBD4CA;}
	.st1{opacity:0.3;}
	.st2{opacity:0.7;fill:#C49F8A;enable-background:new    ;}
	.st3{fill:#C49F8A;}
	.st4{fill:none;stroke:#565440;}
	.st5{fill:#565440;}
	.st6{fill:#E9E4DC;}
	.st7{fill:#E9E4DC;stroke:#C49F8A;}
	.st8{fill:#E9E4DC;stroke:#C49F8A;stroke-miterlimit:3.9998;}
	.st9{fill:none;stroke:#C49F8A;}
	.st10{fill:#E9E4DC;stroke:#C49F8A;stroke-linejoin:round;}
	.st11{fill:none;}
</style>
<g id="_x31__x5F_2">
	<polygon id="Floor" class="st0" points="272.8,65.6 319.4,77.9 399.3,77.9 402.4,67.3 456.6,79.7 456.6,303.6 410.6,303.6 
		410.6,343.1 394.2,343.1 394.2,418.2 272.7,418.2 	"/>
	<g id="Wet_Floor_1_">
		<g class="st1">
			<rect x="277.9" y="177.1" class="st2" width="57.1" height="58.9"/>
			<rect x="403" y="179.6" class="st2" width="53.6" height="66.9"/>
		</g>
		<polygon class="st3" points="456.6,243.6 453.5,246.7 454.9,246.7 456.6,245 		"/>
		<path class="st3" d="M440.3,179.8h-1.4l9.2,9.2l-9.8,9.8l-9.7-9.7l9.3-9.3h-1.4l-8.6,8.6l-8.6-8.6h-1.4l9.3,9.3l-9.8,9.8l-9.8-9.8
			l9.3-9.3h-1.4l-8.6,8.6l-3.9-3.9v1.4l3.2,3.2l-3.2,3.2v1.4l3.9-3.9l9.8,9.8l-9.7,9.7l-4-4v1.4l3.3,3.3l-3.3,3.3v1.4l4-4l9.7,9.7
			l-9.8,9.8l-3.9-3.9v1.4l3.2,3.2l-3.2,3.2v1.4l3.9-3.9l9.8,9.8l-5.3,5.3h1.4l4.6-4.6l4.6,4.6h1.4l-5.3-5.3l9.8-9.8l9.8,9.8
			l-5.3,5.3h1.4l4.6-4.6l4.6,4.6h1.4l-5.3-5.3l9.7-9.7l7.7,7.7V238l-7-7l7-7v-1.4l-7.7,7.7l-9.8-9.8l9.8-9.8l7.7,7.7V217l-7-7l7-7
			v-1.4l-7.7,7.7l-9.8-9.8l9.8-9.8l7.7,7.7V196l-7-7l7-7v-1.4l-7.7,7.7L440.3,179.8z M427.9,189.8l9.7,9.7l-9.8,9.8l-9.7-9.7
			L427.9,189.8z M407.7,210l9.7-9.7l9.7,9.7l-9.7,9.7L407.7,210z M417.5,240.7l-9.8-9.8l9.8-9.8l9.8,9.8L417.5,240.7z M418.2,220.4
			l9.7-9.7l9.8,9.8l-9.7,9.7L418.2,220.4z M448.2,231l-9.7,9.7l-9.8-9.8l9.7-9.7L448.2,231z M448.2,210l-9.8,9.8l-9.8-9.8l9.8-9.8
			L448.2,210z"/>
		<path class="st3" d="M335.1,177.1H334l-0.6,0.6l-0.6-0.6h-1.4l1.4,1.4l-9.8,9.8l-9.8-9.8l1.4-1.4H313l-0.6,0.6l-0.6-0.6h-1.4
			l1.4,1.4l-9.7,9.7l-9.7-9.7l1.4-1.4h-1.4l-0.6,0.6l-0.6-0.6h-1.4l1.4,1.4l-9.8,9.8l-3-3v1.4l2.3,2.3l-2.3,2.3v1.4l3-3l9.7,9.7
			l-9.8,9.8l-2.9-2.9v1.4l2.2,2.2l-2.2,2.2v1.4l2.9-2.9l9.8,9.8l-9.8,9.8l-2.9-2.9v1.4l2.2,2.2l-2.2,2.2v1.4l2.9-2.9l4.4,4.4h1.4
			l-5.1-5.1l9.8-9.8l9.8,9.8l-5.1,5.1h1.4l4.4-4.4l4.4,4.4h1.4l-5.1-5.1l9.8-9.8l9.7,9.7l-5.2,5.2h1.4l4.5-4.5l4.5,4.5h1.4l-5.2-5.2
			l9.8-9.8l1.8,1.8v-1.4l-1-1l1-1V218l-1.8,1.8l-9.7-9.7l9.7-9.7l1.8,1.8v-1.4l-1-1l1-1V197l-1.8,1.8l-9.8-9.8l9.8-9.8l1.8,1.8v-1.4
			l-1-1l1-1v-0.5H335.1z M312.4,179.2l9.8,9.8l-9.7,9.7l-9.8-9.8L312.4,179.2z M311.7,199.4l-9.8,9.8l-9.8-9.8l9.8-9.8L311.7,199.4z
			 M281.7,188.9l9.8-9.8l9.7,9.7l-9.8,9.8L281.7,188.9z M281.6,209.9l9.8-9.8l9.8,9.8l-9.8,9.8L281.6,209.9z M301.9,230.1l-9.8-9.8
			l9.8-9.8l9.8,9.8L301.9,230.1z M302.6,209.9l9.8-9.8l9.8,9.8l-9.8,9.8L302.6,209.9z M332.6,220.3l-9.8,9.8l-9.7-9.7l9.8-9.8
			L332.6,220.3z M332.6,199.4l-9.7,9.7l-9.8-9.8l9.7-9.7L332.6,199.4z"/>
	</g>
	<g id="Windows">
		<path class="st4" d="M400.7,63L450,74.4l-0.8,3.8L400,66.5L400.7,63z"/>
		<path class="st4" d="M268.9,235.3h3.8v73.4h-3.8V235.3z"/>
		<polygon class="st4" points="268.9,60.7 268.9,135.1 272.7,135.1 272.7,65.8 317.2,77.4 318.2,73.6 		"/>
	</g>
	<g id="Walls">
		<path class="st5" d="M453.6,73.4L453.6,73.4h-10.1v15.2h10.1v88.5h-58.2v2.5h7.6v22.8h2.5v-22.8h38.8v8h1.2h1.3h6.8v57.8h-48.1
			v-23H403V248h2.5h48.1v48h-5.1v7.6h5.1h7.6V73.4H453.6z M446.8,185.1v-5.5h6.8v5.5H446.8z"/>
		<path class="st5" d="M266.4,237.8h12.3h2.9h88.6v-2.5v-27.8h-2.5v27.8h-31.4v-55.7l0,0v-2.5h-5.1v2.5h2.5v55.7h-52.1v-47.7H296
			h1.3h1.2v-8h13.4v-2.5h-30.4v-65.8h-15.2v2.5h-7.6v7.6h7.6v30.4h-7.6v7.6h7.6v30.4h-7.6v7.6h7.6v32.9h-7.6v7.6h7.7V237.8z
			 M296,179.6v5.5h-14.4v-5.5H296z"/>
		<rect x="258.8" y="268.2" class="st5" width="17.7" height="7.6"/>
		<polygon class="st5" points="317,83.5 322,83.5 322,88.5 339.7,88.5 339.7,83.5 367.6,83.5 367.6,187.2 370.1,187.2 370.1,179.6 
			375.2,179.6 375.2,177.1 370.1,177.1 370.1,83.5 402,83.5 403,83.7 407.6,64 400.2,62.2 397.1,75.9 339.7,75.9 339.7,75.9 
			327.6,75.9 317.5,71.8 314.7,78.9 317,79.8 		"/>
		<path class="st5" d="M385.3,296v2.5H403v5.1v32.9h-7.6h-7.6v35.4h-75.9v-15.2h-2.5v15.2v2.5h32.9v2.5h2.5v-2.5h43v29.8h-8.2h-2.5
			v2.5v5.7h-32.3v-15.2h-2.5v15.2h-60.7v-53.2h7.6v-2.5h-7.6v-50.6h-15.2l0,0h-7.6v7.6h7.6v32.9h-7.6v7.6h7.6V420h5.2l0,0H390l0,0
			h5.5v-75.9h7.6h7.6v-40.5h12.7V296H403H385.3z M379.6,406.7h8.2v5.7h-8.2V406.7z"/>
	</g>
	<path id="Doors" class="st4" d="M395.4,177.1c0-2.8-0.5-5.1-1.5-7.6s-2.5-4.8-4.3-6.6c-1.8-2-4-3.5-6.6-4.6c-2.5-1-5.1-1.5-7.8-1.5
		V177 M367.6,187.2c-2.8,0-5.1,0.5-7.6,1.5s-4.8,2.5-6.6,4.3c-2,1.8-3.5,4-4.6,6.6c-1,2.5-1.5,5.1-1.5,7.8h20.2 M403,222.4
		c-2.8,0-5.1-0.5-7.6-1.5s-4.8-2.5-6.6-4.3c-2-1.8-3.5-4-4.6-6.6s-1.5-5.1-1.5-7.8H403 M311.7,179.6c0,2.5,0.5,4.8,1.5,7.1
		s2.3,4.6,4.3,6.3c1.8,1.8,4,3.3,6.3,4.3s4.8,1.5,7.3,1.5v-19.2 M309.4,356.7c0-2.8-0.5-5.1-1.5-7.6s-2.5-4.8-4.3-6.6
		c-1.8-2-4-3.5-6.6-4.6c-2.5-1-5.1-1.5-7.8-1.5v20.2 M342.3,397.2c-2.8,0-5.1-0.5-7.6-1.5s-4.8-2.5-6.6-4.3c-2-1.8-3.5-4-4.6-6.6
		c-1-2.5-1.5-5.1-1.5-7.8h20.2 M423.2,296c0-3.3,0.8-6.3,2-9.4c1.3-3,3-6.1,5.6-8.3c2.3-2.3,5.1-4.3,8.1-5.6s6.3-2,9.6-2V296"/>
	<g id="Furniture_2_">
		<g>
			<g>
				<rect x="400.3" y="113.2" class="st6" width="52.9" height="35.2"/>
				<path class="st3" d="M400.8,113.7h51.9V148h-51.9V113.7 M399.8,112.7v36.2h53.9v-36.2H399.8L399.8,112.7z"/>
			</g>
			<rect x="436.5" y="131.7" class="st7" width="13.3" height="14.1"/>
			<rect x="436.5" y="115.8" class="st7" width="13.3" height="14.1"/>
			<polygon class="st8" points="441.9,144.1 445.3,133.9 432.5,131.2 429,141.4 			"/>
			<polygon class="st8" points="432.5,130.4 445.3,127.7 441.9,117.5 429,120.2 			"/>
			<g>
				<polygon class="st6" points="399.7,148.4 399.7,113.2 441.9,113.2 443,127.2 439.1,148.4 				"/>
				<path class="st3" d="M441.4,113.7l1.1,13.4l-3.8,20.8h-38.4v-34.2H441.4 M442.3,112.7h-0.9h-42.3v36.2h40h0.3l4-21.7
					L442.3,112.7L442.3,112.7z"/>
			</g>
			<polyline class="st9" points="441,113.2 441,127.3 438.8,148.5 			"/>
		</g>
		<g>
			<g>
				<rect x="319.3" y="103" class="st6" width="47.8" height="37.9"/>
				<path class="st3" d="M366.6,103.5v36.9h-46.8v-36.9L366.6,103.5 M367.6,102.5h-48.8v38.9h48.8V102.5L367.6,102.5z"/>
			</g>
			<rect x="352.1" y="122.9" class="st7" width="12.1" height="15.2"/>
			<rect x="352.1" y="105.8" class="st7" width="12.1" height="15.2"/>
			<polygon class="st8" points="357,136.2 360.1,125.2 348.4,122.3 345.3,133.2 			"/>
			<polygon class="st8" points="348.4,121.5 360.1,118.5 357,107.6 345.3,110.5 			"/>
			<g>
				<polygon class="st6" points="318.8,140.8 318.8,103 356.9,103 357.9,118 354.4,140.8 				"/>
				<path class="st3" d="M356.4,103.5l1,14.5l-3.4,22.4h-34.6v-36.9L356.4,103.5 M357.4,102.5h-0.8h-38.3v38.9h36.2h0.3l3.6-23.3
					L357.4,102.5L357.4,102.5z"/>
			</g>
			<polyline class="st9" points="356.1,103 356.1,118.2 354.1,140.9 			"/>
		</g>
		<g>
			<g>
				<rect x="406.1" y="225.9" class="st6" width="47.1" height="19"/>
				<path class="st3" d="M452.6,226.4v18h-46v-18H452.6 M453.6,225.4h-48v20h48V225.4L453.6,225.4z"/>
			</g>
			<g>
				<g>
					<path class="st10" d="M449.2,235.4c0-3.7-3.2-6.5-6.8-6.2c-4,0.4-9,0.7-12.8,0.7c-3.7,0-8.8-0.4-12.8-0.7
						c-3.6-0.3-6.8,2.6-6.8,6.2c0,3.6,3.2,6.5,6.8,6.2c4-0.4,9-0.7,12.8-0.7c3.7,0,8.8,0.4,12.8,0.7
						C446,241.9,449.2,239.1,449.2,235.4z"/>
					<ellipse class="st10" cx="442.8" cy="235.4" rx="0.9" ry="0.9"/>
				</g>
			</g>
		</g>
		<g>
			<g>
				<rect x="378.9" y="374.9" class="st6" width="8.5" height="12.8"/>
				<path class="st3" d="M386.8,375.4v11.8h-7.5v-11.8H386.8 M387.8,374.4h-9.5v13.8h9.5V374.4L387.8,374.4z"/>
			</g>
			<g>
				<path class="st6" d="M383.1,383.9c-1.4,0-2.6-1.2-2.6-2.6s1.2-2.6,2.6-2.6s2.6,1.2,2.6,2.6S384.5,383.9,383.1,383.9z"/>
				<path class="st3" d="M383.1,379.3c1.1,0,2.1,0.9,2.1,2.1s-0.9,2.1-2.1,2.1s-2.1-0.9-2.1-2.1S382,379.3,383.1,379.3 M383.1,378.3
					c-1.7,0-3.1,1.4-3.1,3.1s1.4,3.1,3.1,3.1s3.1-1.4,3.1-3.1C386.2,379.7,384.8,378.3,383.1,378.3L383.1,378.3z"/>
			</g>
		</g>
		<g>
			<path class="st7" d="M327.7,300.5h32.9v23.9h-32.9V300.5z"/>
			<path class="st7" d="M325.6,306.4h-0.5c-3.4,0-6.1,2.7-6.1,6.1s2.7,6.1,6.1,6.1h0.5V306.4z"/>
			<path class="st7" d="M327.5,307.7h-2.4c-2.6,0-4.7,2.1-4.7,4.7s2.1,4.7,4.7,4.7h2.4V307.7z"/>
			<path class="st7" d="M362.5,306.4h0.5c3.4,0,6.1,2.7,6.1,6.1s-2.7,6.1-6.1,6.1h-0.5V306.4z"/>
			<path class="st7" d="M360.6,307.7h2.4c2.6,0,4.7,2.1,4.7,4.7s-2.1,4.7-4.7,4.7h-2.4V307.7z"/>
			<path class="st7" d="M338,326.3v0.5c0,3.4,2.7,6.1,6.1,6.1s6.1-2.7,6.1-6.1v-0.5H338z"/>
			<path class="st7" d="M339.4,324.4v2.4c0,2.6,2.1,4.7,4.7,4.7s4.7-2.1,4.7-4.7v-2.4H339.4z"/>
			<path class="st7" d="M338,298.6v-0.5c0-3.4,2.7-6.1,6.1-6.1s6.1,2.7,6.1,6.1v0.5H338z"/>
			<path class="st7" d="M339.4,300.5v-2.4c0-2.6,2.1-4.7,4.7-4.7s4.7,2.1,4.7,4.7v2.4H339.4z"/>
		</g>
		<g id="Sink_2_2_">
			<g id="Rectangle_16_x5F_11">
				<rect x="313.1" y="224.1" class="st6" width="20.1" height="10.7"/>
				<path class="st3" d="M332.7,224.6v9.7h-19.1v-9.7H332.7 M333.7,223.6h-21.1v11.7h21.1V223.6L333.7,223.6z"/>
			</g>
			<path id="Rectangle_19_x5F_5_2_" class="st7" d="M317,229.4L317,229.4c0-2,1.6-3.6,3.6-3.6h5.1c2,0,3.6,1.6,3.6,3.6l0,0
				c0,2-1.6,3.6-3.6,3.6h-5.1C318.6,233,317,231.4,317,229.4z"/>
			<circle id="Ellipse_7_x5F_2_2_" class="st7" cx="323.1" cy="230.8" r="0.9"/>
		</g>
		<g id="Sink_2_3_">
			<g id="Rectangle_16_x5F_11_3_">
				<rect x="443" y="209.9" class="st6" width="10.1" height="16"/>
				<path class="st3" d="M452.6,210.4v15h-9.1v-15H452.6 M453.6,209.4h-11.1v17h11.1V209.4L453.6,209.4z"/>
			</g>
			<g>
				<path id="Rectangle_19_x5F_5_3_" class="st7" d="M448.1,212.4L448.1,212.4c-1.9,0-3.4,1.5-3.4,3.4v4.9c0,1.9,1.5,3.4,3.4,3.4
					l0,0c1.9,0,3.4-1.5,3.4-3.4v-4.9C451.5,213.9,450,212.4,448.1,212.4z"/>
				<circle id="Ellipse_7_x5F_2_3_" class="st7" cx="449" cy="218.2" r="0.9"/>
			</g>
		</g>
		<g id="Toilet_1_">
			<g id="Rectangle_21_1_">
				<rect x="411" y="185" class="st6" width="10.4" height="3.1"/>
				<path class="st3" d="M420.9,185.5v2.1h-9.4v-2.1H420.9 M421.9,184.5h-11.4v4.1h11.4V184.5L421.9,184.5z"/>
			</g>
			<path id="Rectangle_19_x5F_2_1_" class="st7" d="M412.1,195.6c-0.2,2.4,1.7,4.4,4.1,4.4l0,0c2.4,0,4.2-2,4.1-4.4l-0.5-7.6h-7.2
				L412.1,195.6z"/>
			<path id="Rectangle_18_x5F_13_1_" class="st7" d="M413.5,195.4c-0.1,1.6,1.1,3,2.7,3l0,0c1.6,0,2.9-1.4,2.7-3l-0.3-4.4h-4.7
				L413.5,195.4z"/>
			<ellipse id="Ellipse_6_x5F_2_1_" class="st7" cx="416.2" cy="193.4" rx="0.9" ry="0.9"/>
		</g>
		<g id="Rectangle_24">
			<rect x="312.4" y="357.2" class="st6" width="74.9" height="14.2"/>
			<path class="st3" d="M312.9,357.7h73.9v13.2h-73.9V357.7 M311.9,356.7v15.2h75.9v-15.2H311.9L311.9,356.7z"/>
		</g>
		<g id="Rectangle_27_1_">
			<rect x="386.3" y="318.6" class="st6" width="16.3" height="17.4"/>
			<path class="st3" d="M402.1,319.1v16.4h-15.3v-16.4H402.1 M403.1,318.1h-17.3v18.4h17.3V318.1L403.1,318.1z"/>
		</g>
		<g id="Rectangle_27_2_">
			<rect x="385" y="318.6" class="st6" width="1.8" height="17.4"/>
			<path class="st3" d="M386.3,319.1v16.4h-0.8v-16.4H386.3 M387.3,318.1h-2.8v18.4h2.8V318.1L387.3,318.1z"/>
		</g>
		<g id="Rectangle_27_6_">
			<rect x="385" y="299" class="st6" width="17.6" height="19.6"/>
			<path class="st3" d="M402.1,299.5v18.6h-16.6v-18.6H402.1 M403.1,298.5h-18.6v20.6h18.6V298.5L403.1,298.5z"/>
		</g>
		<g id="Rectangle_27_3_">
			<rect x="383.3" y="299" class="st6" width="1.8" height="19.6"/>
			<path class="st3" d="M384.5,299.5v18.6h-0.8v-18.6H384.5 M385.5,298.5h-2.8v20.6h2.8V298.5L385.5,298.5z"/>
		</g>
		<g id="Sink_3">
			<rect id="Rectangle_28_x5F_2" x="363.6" y="358.6" class="st7" width="18" height="11.4"/>
			<path id="Rectangle_29_x5F_2" class="st7" d="M370.7,364.3L370.7,364.3c0-2.4,1.9-4.3,4.3-4.3h0.9c2.4,0,4.3,1.9,4.3,4.3l0,0
				c0,2.4-1.9,4.3-4.3,4.3H375C372.6,368.6,370.7,366.7,370.7,364.3z"/>
			<ellipse id="Ellipse_7_x5F_3" class="st7" cx="375.4" cy="366.1" rx="0.9" ry="0.9"/>
			<path id="Vector_2" class="st9" d="M364.5,368.6h4.7 M364.5,367.2h4.7 M364.5,365.7h4.7 M364.5,364.3h4.7 M364.5,362.9h4.7
				 M364.5,361.5h4.7 M364.5,360.1h4.7"/>
		</g>
		<g id="Stove">
			<g id="Rectangle_25">
				<rect x="337.9" y="357.2" class="st6" width="13.8" height="14.2"/>
				<path class="st3" d="M351.2,357.7v13.2h-12.8v-13.2H351.2 M352.2,356.7h-14.8v15.2h14.8V356.7L352.2,356.7z"/>
			</g>
			<g id="Rectangle_28_x5F_3">
				<rect x="337.9" y="369.8" class="st6" width="13.8" height="1.6"/>
				<path class="st3" d="M351.2,370.3v0.6h-12.8v-0.6H351.2 M352.2,369.3h-14.8v2.6h14.8V369.3L352.2,369.3z"/>
			</g>
			<g id="Ellipse_7_x5F_4">
				<path class="st6" d="M341.7,367.6c-0.7,0-1.3-0.6-1.3-1.3s0.6-1.3,1.3-1.3c0.7,0,1.3,0.6,1.3,1.3S342.4,367.6,341.7,367.6z"/>
				<path class="st3" d="M341.7,365.5c0.4,0,0.8,0.3,0.8,0.8s-0.3,0.8-0.8,0.8s-0.8-0.3-0.8-0.8S341.3,365.5,341.7,365.5
					 M341.7,364.5c-1,0-1.8,0.8-1.8,1.8s0.8,1.8,1.8,1.8s1.8-0.8,1.8-1.8S342.7,364.5,341.7,364.5L341.7,364.5z"/>
			</g>
			<g id="Ellipse_9">
				<path class="st6" d="M341.7,362.7c-0.9,0-1.7-0.8-1.7-1.7c0-0.9,0.8-1.7,1.7-1.7c0.9,0,1.7,0.8,1.7,1.7
					C343.4,361.9,342.6,362.7,341.7,362.7z"/>
				<path class="st3" d="M341.7,359.8c0.7,0,1.2,0.5,1.2,1.2s-0.5,1.2-1.2,1.2s-1.2-0.5-1.2-1.2S341,359.8,341.7,359.8 M341.7,358.8
					c-1.2,0-2.2,1-2.2,2.2s1,2.2,2.2,2.2s2.2-1,2.2-2.2C343.9,359.8,342.9,358.8,341.7,358.8L341.7,358.8z"/>
			</g>
			<g id="Ellipse_10">
				<path class="st6" d="M347.9,368c-0.9,0-1.7-0.8-1.7-1.7c0-0.9,0.8-1.7,1.7-1.7c0.9,0,1.7,0.8,1.7,1.7S348.8,368,347.9,368z"/>
				<path class="st3" d="M347.9,365.1c0.7,0,1.2,0.5,1.2,1.2s-0.5,1.2-1.2,1.2s-1.2-0.5-1.2-1.2S347.2,365.1,347.9,365.1
					 M347.9,364.1c-1.2,0-2.2,1-2.2,2.2s1,2.2,2.2,2.2s2.2-1,2.2-2.2S349.1,364.1,347.9,364.1L347.9,364.1z"/>
			</g>
			<g id="Ellipse_8">
				<circle class="st6" cx="347.9" cy="360.6" r="1.3"/>
				<path class="st3" d="M347.9,359.8c0.4,0,0.8,0.3,0.8,0.8s-0.3,0.8-0.8,0.8c-0.4,0-0.8-0.3-0.8-0.8S347.4,359.8,347.9,359.8
					 M347.9,358.8c-1,0-1.8,0.8-1.8,1.8s0.8,1.8,1.8,1.8s1.8-0.8,1.8-1.8S348.8,358.8,347.9,358.8L347.9,358.8z"/>
			</g>
		</g>
		<path id="Vector_3" class="st9" d="M396.1,327.6h-4.6 M395,329.6l-2.3-4 M395,325.6l-2.3,4"/>
		<g>
			<path class="st7" d="M422.9,98.8l-10.8-2.5l0.8-10.2l13.7,3.2L422.9,98.8z"/>
			<g>
				
					<rect x="414.9" y="62.7" transform="matrix(0.2259 -0.9741 0.9741 0.2259 248.2838 474.9041)" class="st6" width="16.1" height="37"/>
				<path class="st3" d="M407.2,69.7l35,8.1l-3.4,14.7l-35-8.1L407.2,69.7 M406.5,68.5l-3.9,16.7l37,8.6l3.9-16.7L406.5,68.5
					L406.5,68.5z"/>
			</g>
			<path class="st9" d="M424.2,85.2l-8.3-1.9 M424.5,87.1l-9.8-2.3l0.7-2.9l9.8,2.3L424.5,87.1z"/>
			<path class="st7" d="M428.5,88.2L428.5,88.2c-0.4-0.1-0.7-0.5-0.6-0.9l0.2-1c0.1-0.4,0.5-0.7,0.9-0.6l0,0
				c0.4,0.1,0.7,0.5,0.6,0.9l-0.2,1C429.4,88,429,88.3,428.5,88.2z"/>
			<path class="st7" d="M423.9,78.8c-0.3,1.4-1.7,2.2-3,1.9c-1.4-0.3-2.2-1.7-1.9-3l0.6-2.5l4.9,1.1L423.9,78.8z"/>
			<polygon class="st7" points="434.5,79.7 409,73.8 409.4,72 434.9,78 			"/>
			<g>
				
					<rect x="414.2" y="88.4" transform="matrix(0.2259 -0.9741 0.9741 0.2259 232.8084 480.1282)" class="st6" width="8.7" height="10.4"/>
				<path class="st3" d="M414.8,88.5l9.2,2.1l-1.7,7.5l-9.2-2.1L414.8,88.5 M414,87.3l-2.2,9.5l11.1,2.6l2.2-9.5L414,87.3L414,87.3z
					"/>
			</g>
			<g>
				
					<rect x="417.1" y="93" transform="matrix(0.2263 -0.9741 0.9741 0.2263 227.1814 482.5414)" class="st6" width="0.5" height="10.5"/>
				<polygon class="st3" points="411.9,96.2 411.6,97.7 422.8,100.3 423.1,98.8 				"/>
			</g>
		</g>
		<g>
			<g>
				<rect x="405.7" y="160.7" class="st6" width="47.4" height="13.6"/>
				<path class="st3" d="M406.2,161.2h46.4v12.6h-46.4V161.2 M405.2,160.2v14.6h48.4v-14.6H405.2L405.2,160.2z"/>
			</g>
			<g>
				<rect x="405.7" y="162.8" class="st6" width="47.4" height="13.7"/>
				<path class="st3" d="M406.2,163.3h46.4V176h-46.4V163.3 M405.2,162.3V177h48.4v-14.7H405.2L405.2,162.3z"/>
			</g>
			<path class="st7" d="M406,176.6l47.1-13.8"/>
		</g>
		<g>
			<g>
				<rect x="336.7" y="219" class="st6" width="30.4" height="13.6"/>
				<path class="st3" d="M337.2,219.5h29.4v12.6h-29.4V219.5 M336.2,218.5v14.6h31.4v-14.6H336.2L336.2,218.5z"/>
			</g>
			<g>
				<rect x="336.7" y="221.1" class="st6" width="30.4" height="13.7"/>
				<path class="st3" d="M337.2,221.6h29.4v12.7h-29.4V221.6 M336.2,220.6v14.7h31.4v-14.7H336.2L336.2,220.6z"/>
			</g>
			<path class="st7" d="M336.7,234.8l30.6-13.6"/>
		</g>
		<g>
			<g>
				<rect x="403.5" y="250.6" class="st6" width="49.6" height="11.1"/>
				<path class="st3" d="M404,251.1h48.6v10.1H404V251.1 M403,250.1v12.1h50.6v-12.1H403L403,250.1z"/>
			</g>
			<g>
				<rect x="403.5" y="248.4" class="st6" width="49.6" height="11.2"/>
				<path class="st3" d="M404,248.9h48.6v10.2H404V248.9 M403,247.9v12.2h50.6v-12.2L403,247.9L403,247.9z"/>
			</g>
			<path class="st7" d="M452.9,248.3l-49.3,11.4"/>
		</g>
		<g>
			<g>
				<rect x="407.9" y="287" class="st6" width="12.6" height="7.6"/>
				<path class="st3" d="M408.4,287.5H420v6.6h-11.6V287.5 M407.4,286.5v8.6H421v-8.6H407.4L407.4,286.5z"/>
			</g>
			<g>
				<rect x="407.9" y="289.1" class="st6" width="12.6" height="6.4"/>
				<path class="st3" d="M420,289.6v5.4h-11.6v-5.4H420 M421,288.6h-13.6v7.4H421V288.6L421,288.6z"/>
			</g>
			<path class="st7" d="M407.6,295.3l13.2-6"/>
		</g>
		<g>
			<g>
				<rect x="288.9" y="103.3" class="st6" width="1.7" height="37.3"/>
				<path class="st3" d="M290.1,103.8v36.3h-0.7v-36.3H290.1 M291.1,102.8h-2.7v38.3h2.7V102.8L291.1,102.8z"/>
			</g>
			<g>
				<rect x="282.1" y="103.3" class="st6" width="6.8" height="37.3"/>
				<path class="st3" d="M288.3,103.8v36.3h-5.8v-36.3H288.3 M289.3,102.8h-7.8v38.3h7.8V102.8L289.3,102.8z"/>
			</g>
			<rect x="283.5" y="108" class="st7" width="1.6" height="27.1"/>
			<path class="st7" d="M283.5,127.3v-11.5l-1.4,1v9.4L283.5,127.3z"/>
		</g>
		<g>
			<g>
				<rect x="443" y="194.6" class="st6" width="10.1" height="15.3"/>
				<path class="st3" d="M452.6,195.1v14.3h-9.1v-14.3H452.6 M453.6,194.1h-11.1v16.3h11.1V194.1L453.6,194.1z"/>
			</g>
			<g>
				<path class="st6" d="M448.1,205.4c-1.7,0-3.1-1.4-3.1-3.1s1.4-3.1,3.1-3.1s3.1,1.4,3.1,3.1S449.8,205.4,448.1,205.4z"/>
				<path class="st3" d="M448.1,199.6c1.4,0,2.6,1.2,2.6,2.6s-1.2,2.6-2.6,2.6s-2.6-1.2-2.6-2.6S446.6,199.6,448.1,199.6
					 M448.1,198.6c-2,0-3.6,1.6-3.6,3.6s1.6,3.6,3.6,3.6s3.6-1.6,3.6-3.6S450.1,198.6,448.1,198.6L448.1,198.6z"/>
			</g>
		</g>
		<g>
			<rect x="406.1" y="180.1" class="st6" width="37.7" height="4.9"/>
			<path class="st3" d="M443.2,180.6v3.9h-36.6v-3.9H443.2 M444.2,179.6h-38.6v5.9h38.7v-5.9H444.2z"/>
		</g>
		<g>
			<g>
				<rect x="322.8" y="245.2" class="st6" width="37.3" height="1.7"/>
				<path class="st3" d="M359.6,245.7v0.7h-36.3v-0.7H359.6 M360.6,244.7h-38.3v2.7h38.3V244.7L360.6,244.7z"/>
			</g>
			<g>
				<rect x="322.8" y="238.3" class="st6" width="37.3" height="6.8"/>
				<path class="st3" d="M359.6,238.8v5.8h-36.3v-5.8H359.6 M360.6,237.8h-38.3v7.8h38.3V237.8L360.6,237.8z"/>
			</g>
			<rect x="328.3" y="239.7" class="st7" width="27.1" height="1.6"/>
			<path class="st7" d="M336.1,239.7h11.5l-1-1.4h-9.4L336.1,239.7z"/>
		</g>
		<g>
			<g>
				<path class="st6" d="M283.9,234.8v-18.3h12.8c3,0,5.5,2.5,5.5,5.5v12.8H283.9z"/>
				<path class="st3" d="M296.8,217c2.8,0,5,2.2,5,5v12.3h-17.3V217H296.8 M296.8,216h-13.3v19.3h19.3V222
					C302.8,218.6,300.1,216,296.8,216L296.8,216z"/>
			</g>
			<g>
				<path class="st6" d="M285.5,233.2V218h11.2c2.2,0,4,1.8,4,4v11.2H285.5z"/>
				<path class="st3" d="M296.7,218.5c1.9,0,3.5,1.6,3.5,3.5v10.7H286v-14.2H296.7 M296.7,217.5H285v16.2h16.2V222
					C301.2,219.5,299.2,217.5,296.7,217.5L296.7,217.5z"/>
			</g>
			<ellipse class="st7" cx="288.4" cy="230.3" rx="0.9" ry="0.9"/>
		</g>
		<g>
			<polygon class="st6" points="282,234.8 282,188.1 286.4,188.1 286.4,213.4 283.9,213.4 283.9,234.8 			"/>
			<path class="st3" d="M285.9,188.6v24.3h-1.5h-1v1v20.4h-0.9v-20.4v-25.3h1.9H285.9 M286.9,187.6h-2.5h-2.9v26.3v21.4h2.9v-21.4
				h2.5V187.6L286.9,187.6z"/>
		</g>
		<g id="Toilet_2_">
			<g id="Rectangle_21_2_">
				<rect x="286.4" y="195" class="st6" width="3.1" height="13"/>
				<path class="st3" d="M289,195.5v12h-2.1v-12H289 M290,194.5h-4.1v14h4.1V194.5L290,194.5z"/>
			</g>
			<path id="Rectangle_19_x5F_2_2_" class="st7" d="M297.8,205.9c2.6,0.2,4.8-1.9,4.8-4.5l0,0c0-2.6-2.2-4.6-4.8-4.5l-8.3,0.6v7.8
				L297.8,205.9z"/>
			<path id="Rectangle_18_x5F_13_2_" class="st7" d="M297.6,204.5c1.8,0.2,3.4-1.3,3.4-3.1l0,0c0-1.8-1.6-3.2-3.4-3.1l-4.9,0.4v5.2
				L297.6,204.5z"/>
			<ellipse id="Ellipse_6_x5F_2_2_" class="st7" cx="295.2" cy="201.5" rx="0.9" ry="0.9"/>
		</g>
		<g>
			<g>
				<rect x="281.8" y="400.3" class="st6" width="59.9" height="10"/>
				<path class="st3" d="M282.3,400.8h58.9v9h-58.9V400.8 M281.3,399.8v11h60.9v-11H281.3L281.3,399.8z"/>
			</g>
			<g>
				<rect x="281.8" y="402.2" class="st6" width="59.9" height="9.7"/>
				<path class="st3" d="M282.3,402.7h58.9v8.7h-58.9V402.7 M281.3,401.7v10.7h60.9v-10.7H281.3L281.3,401.7z"/>
			</g>
			<path class="st7" d="M281.8,411.9l60.3-9.7"/>
		</g>
		<g>
			<g>
				<rect x="345.3" y="400.3" class="st6" width="27.1" height="10"/>
				<path class="st3" d="M345.8,400.8h26.1v9h-26.1V400.8 M344.8,399.8v11H373v-11H344.8L344.8,399.8z"/>
			</g>
			<g>
				<rect x="345.3" y="402.2" class="st6" width="27.1" height="9.7"/>
				<path class="st3" d="M345.8,402.7h26.1v8.7h-26.1V402.7 M344.8,401.7v10.7h28.1v-10.7H344.8L344.8,401.7z"/>
			</g>
			<path class="st7" d="M345.2,411.9l27.5-9.7"/>
		</g>
	</g>
	<g id="street_anchors">
		<rect id="street_anchor_01_1_" x="362.6" y="20.2" class="st11" width="10" height="10"/>
		<rect id="street_anchor_02_1_" x="218.8" y="235" class="st11" width="10" height="10"/>
	</g>
</g>
<g id="комнаты">
	<g>
		<g>
			<path class="st5" d="M309.7,155.9l1.4-0.8h1v6.1H311v-4.7l-1,0.6L309.7,155.9z"/>
			<path class="st5" d="M318.2,159.9h-0.8v1.3h-1.1v-1.3h-3.2v-0.9l3.3-3.9h1v3.7h0.8V159.9z M314.7,158.8h1.6v-2h-0.1
				C315.7,157.5,315.2,158.2,314.7,158.8L314.7,158.8z"/>
			<path class="st5" d="M319.8,159.6c0.4,0,0.8,0.4,0.8,0.9c0,0.5-0.3,0.9-0.8,0.9c-0.4,0-0.7-0.4-0.7-0.9
				C319.1,160,319.4,159.6,319.8,159.6z"/>
			<path class="st5" d="M322.1,159.9c0.4,0.2,0.8,0.4,1.3,0.4c0.8,0,1.6-0.7,1.6-1.9c-0.4,0.5-1,0.9-1.7,0.9c-1.2,0-1.9-1-1.9-2
				c0-1.3,0.9-2.2,2.1-2.2c1.3,0,2.5,1.1,2.5,3.1c0,2.1-1.3,3.4-2.6,3.4c-0.8,0-1.4-0.4-1.8-0.5L322.1,159.9z M324.9,157.4
				c-0.2-0.8-0.8-1.3-1.4-1.3c-0.6,0-1,0.5-1,1c0,0.4,0.2,0.8,0.9,0.8C324,158,324.5,157.7,324.9,157.4z"/>
		</g>
	</g>
	<g>
		<g>
			<path class="st5" d="M376.2,124.9l1.4-0.8h1v6.1h-1.1v-4.7l-1,0.6L376.2,124.9z"/>
			<path class="st5" d="M379.6,124.9l1.4-0.8h1v6.1h-1.1v-4.7l-1,0.6L379.6,124.9z"/>
			<path class="st5" d="M384,128.6c0.4,0,0.8,0.4,0.8,0.9c0,0.5-0.3,0.9-0.8,0.9c-0.4,0-0.7-0.4-0.7-0.9
				C383.2,129,383.5,128.6,384,128.6z"/>
			<path class="st5" d="M385.5,129.5l0.5-1c0.3,0.3,1,0.7,1.9,0.7c0.6,0,1.2-0.3,1.2-1c0-0.6-0.5-0.9-0.9-0.9
				c-0.6,0-1.1,0.3-1.5,0.6l-0.6-0.6v-3.2h3.7v1.2h-2.7v1.4c0.4-0.3,0.7-0.6,1.3-0.6c0.9,0,1.9,0.6,1.9,2c0,1.6-1.2,2.3-2.3,2.3
				C386.7,130.4,385.9,129.8,385.5,129.5z"/>
		</g>
	</g>
	<g>
		<g>
			<path class="st5" d="M378.7,230.7c0-1.5,0.9-2.2,2-2.6c0.3-0.1,0.8-0.3,0.8-0.9c0-0.5-0.4-0.6-0.8-0.6c-0.7,0-1.1,0.4-1.6,0.9
				l-0.6-1c0.6-0.6,1.2-1.2,2.1-1.2c0.9,0,1.9,0.5,1.9,1.8c0,1.4-1,1.8-1.8,2.1c-0.7,0.3-1.1,0.6-1.1,1.1v0.1h2.8v1.2h-3.9V230.7z"
				/>
			<path class="st5" d="M384.4,230.1c0.4,0,0.8,0.4,0.8,0.9c0,0.5-0.3,0.9-0.8,0.9c-0.4,0-0.7-0.4-0.7-0.9
				C383.6,230.5,384,230.1,384.4,230.1z"/>
			<path class="st5" d="M390,227c-0.4-0.2-0.8-0.4-1.3-0.4c-0.8,0-1.6,0.7-1.6,2c0.4-0.4,1-0.9,1.7-0.9c1.2,0,1.9,1,1.9,1.9
				c0,1.3-0.9,2.2-2.1,2.2c-1.3,0-2.5-1.1-2.5-3.1c0-2.1,1.3-3.4,2.6-3.4c0.8,0,1.4,0.4,1.8,0.5L390,227z M387.2,229.4
				c0.2,0.8,0.8,1.3,1.4,1.3c0.6,0,1-0.5,1-1c0-0.4-0.2-0.8-0.9-0.8C388.1,228.8,387.6,229.1,387.2,229.4z"/>
		</g>
	</g>
	<g>
		<g>
			<path class="st5" d="M401.1,273.1h0.7c0.3,0,0.6-0.2,0.6-0.6c0-0.5-0.4-0.7-0.8-0.7c-0.6,0-1.1,0.4-1.6,1l-0.6-0.9
				c0.5-0.6,1.3-1.3,2.2-1.3c0.8,0,1.9,0.5,1.9,1.8c0,0.5-0.3,0.9-0.5,1.1c0.4,0.2,0.9,0.6,0.9,1.5c0,1.4-1.1,2.2-2.4,2.2
				c-0.9,0-1.7-0.4-2.4-1.3l0.6-1c0.5,0.6,1,1,1.8,1c0.7,0,1.3-0.4,1.3-1c0-0.5-0.5-0.6-0.7-0.6h-0.9V273.1z"/>
			<path class="st5" d="M405.5,275.2c0.4,0,0.8,0.4,0.8,0.9c0,0.5-0.3,0.9-0.8,0.9c-0.4,0-0.7-0.4-0.7-0.9
				C404.7,275.7,405,275.2,405.5,275.2z"/>
			<path class="st5" d="M412.1,275.6h-0.8v1.3h-1.1v-1.3h-3.2v-0.9l3.3-3.9h1v3.7h0.8V275.6z M408.5,274.5h1.6v-2h-0.1
				C409.6,273.2,409,273.9,408.5,274.5L408.5,274.5z"/>
		</g>
	</g>
	<g>
		<g>
			<path class="st5" d="M342.7,275.9c0-1.5,0.9-2.2,2-2.6c0.3-0.1,0.8-0.3,0.8-0.9c0-0.5-0.4-0.6-0.8-0.6c-0.7,0-1.1,0.4-1.6,0.9
				l-0.6-1c0.6-0.6,1.2-1.2,2.1-1.2c0.9,0,1.9,0.5,1.9,1.8c0,1.4-1,1.8-1.8,2.1c-0.7,0.3-1.1,0.6-1.1,1.1v0.1h2.8v1.2h-3.9V275.9z"
				/>
			<path class="st5" d="M347.4,271.6l1.4-0.8h1v6.1h-1.1v-4.7l-1,0.6L347.4,271.6z"/>
			<path class="st5" d="M351.7,275.2c0.4,0,0.8,0.4,0.8,0.9c0,0.5-0.3,0.9-0.8,0.9c-0.4,0-0.7-0.4-0.7-0.9
				C351,275.7,351.3,275.2,351.7,275.2z"/>
			<path class="st5" d="M353.4,270.8h4.2v1.2l-2.4,4.9h-1.4l2.5-4.8h-2.9V270.8z"/>
		</g>
	</g>
	<g>
		<g>
			<path class="st5" d="M302.7,388.6h-0.8v1.3h-1.1v-1.3h-3.2v-0.9l3.3-3.9h1v3.7h0.8V388.6z M299.1,387.5h1.6v-2h-0.1
				C300.2,386.1,299.7,386.8,299.1,387.5L299.1,387.5z"/>
		</g>
	</g>
	<g>
		<g>
			<path class="st5" d="M351,388.9c0-1.5,0.9-2.2,2-2.6c0.3-0.1,0.8-0.3,0.8-0.9c0-0.5-0.4-0.6-0.8-0.6c-0.7,0-1.1,0.4-1.6,0.9
				l-0.6-1c0.6-0.6,1.2-1.2,2.1-1.2c0.9,0,1.9,0.5,1.9,1.8c0,1.4-1,1.8-1.8,2.1c-0.7,0.3-1.1,0.6-1.1,1.1v0.1h2.8v1.2H351V388.9z"/>
			<path class="st5" d="M356.6,388.2c0.4,0,0.8,0.4,0.8,0.9c0,0.5-0.3,0.9-0.8,0.9c-0.4,0-0.7-0.4-0.7-0.9
				C355.9,388.6,356.2,388.2,356.6,388.2z"/>
			<path class="st5" d="M358.4,388.9c0-1.5,0.9-2.2,2-2.6c0.3-0.1,0.8-0.3,0.8-0.9c0-0.5-0.4-0.6-0.8-0.6c-0.7,0-1.1,0.4-1.6,0.9
				l-0.6-1c0.6-0.6,1.2-1.2,2.1-1.2c0.9,0,1.9,0.5,1.9,1.8c0,1.4-1,1.8-1.8,2.1c-0.7,0.3-1.1,0.6-1.1,1.1v0.1h2.8v1.2h-3.9V388.9z"
				/>
		</g>
	</g>
	<g>
		<g>
			<path class="st5" d="M315,206.3h0.7c0.3,0,0.6-0.2,0.6-0.6c0-0.5-0.4-0.7-0.8-0.7c-0.6,0-1.1,0.4-1.6,1l-0.6-0.9
				c0.5-0.6,1.3-1.3,2.2-1.3c0.8,0,1.9,0.5,1.9,1.8c0,0.5-0.3,0.9-0.5,1.1c0.4,0.2,0.9,0.6,0.9,1.5c0,1.4-1.1,2.2-2.4,2.2
				c-0.9,0-1.7-0.4-2.4-1.3l0.6-1c0.5,0.6,1,1,1.8,1c0.7,0,1.3-0.4,1.3-1c0-0.5-0.5-0.6-0.7-0.6H315V206.3z"/>
			<path class="st5" d="M319.4,208.4c0.4,0,0.8,0.4,0.8,0.9c0,0.5-0.3,0.9-0.8,0.9c-0.4,0-0.7-0.4-0.7-0.9
				C318.7,208.8,319,208.4,319.4,208.4z"/>
			<path class="st5" d="M321.7,208.7c0.4,0.2,0.8,0.4,1.3,0.4c0.8,0,1.6-0.7,1.6-1.9c-0.4,0.4-1,0.9-1.7,0.9c-1.2,0-1.9-1-1.9-2
				c0-1.3,0.9-2.2,2.1-2.2c1.3,0,2.5,1.1,2.5,3.1c0,2.1-1.3,3.4-2.6,3.4c-0.8,0-1.4-0.4-1.8-0.5L321.7,208.7z M324.5,206.2
				c-0.2-0.8-0.8-1.3-1.4-1.3c-0.6,0-1,0.5-1,1c0,0.4,0.2,0.8,0.9,0.8C323.6,206.8,324.1,206.5,324.5,206.2z"/>
		</g>
	</g>
	<g>
		<g>
			<path class="st5" d="M427.4,210.2h-0.8v1.3h-1.1v-1.3h-3.2v-0.9l3.3-3.9h1v3.7h0.8V210.2z M423.8,209.1h1.6v-2h-0.1
				C424.9,207.7,424.4,208.4,423.8,209.1L423.8,209.1z"/>
		</g>
	</g>
</g>
</svg>
