<?xml version="1.0" encoding="utf-8"?>
<!-- Generator: Adobe Illustrator 26.0.3, SVG Export Plug-In . SVG Version: 6.00 Build 0)  -->
<svg version="1.1" xmlns="http://www.w3.org/2000/svg" xmlns:xlink="http://www.w3.org/1999/xlink" x="0px" y="0px"
	 viewBox="0 0 720 480" style="enable-background:new 0 0 720 480;" xml:space="preserve">
<style type="text/css">
	.st0{fill:#DBD4CA;}
	.st1{clip-path:url(#SVGID_00000060711460390247784550000014072260473414038402_);}
	.st2{fill:none;stroke:#C49F8A;stroke-miterlimit:10;}
	.st3{opacity:0.3;clip-path:url(#SVGID_00000177460933645525790560000005192856467707019432_);}
	.st4{opacity:0.7;fill:#C49F8A;enable-background:new    ;}
	.st5{fill:none;stroke:#565440;}
	.st6{fill:none;stroke:#565440;stroke-width:1;stroke-miterlimit:4.0002;}
	.st7{fill:#565440;}
	.st8{fill:#E9E4DC;}
	.st9{fill:#C49F8A;}
	.st10{fill:#E9E4DC;stroke:#C49F8A;}
	.st11{fill:#E9E4DC;stroke:#C49F8A;stroke-width:1;stroke-miterlimit:3.9993;}
	.st12{fill:none;stroke:#C49F8A;}
	.st13{fill:#E9E4DC;stroke:#C49F8A;stroke-linejoin:round;}
	.st14{fill:#E9E4DC;stroke:#C49F8A;stroke-width:1;stroke-miterlimit:4;}
	.st15{fill:none;}
</style>
<g id="_x31__x5F_2">
	<polygon id="Floor_1_" class="st0" points="134.8,60.1 569.3,60.1 575.6,70.8 556.7,143.6 556.2,190 575.6,195.7 558.8,264.2 
		558.7,327 574.8,331.8 557.9,407.4 482.4,392.5 431.3,392.5 426.2,411.5 319.3,386.9 259.1,386.9 253.6,406.7 180,389.7 
		134.8,389.7 	"/>
	<g id="Wet_Floor_1_">
		<g>
			<defs>
				<rect id="SVGID_1_" x="237.6" y="67.1" width="165.8" height="112.2"/>
			</defs>
			<clipPath id="SVGID_00000165919370200439290910000017715871220461095356_">
				<use xlink:href="#SVGID_1_"  style="overflow:visible;"/>
			</clipPath>
			<g style="clip-path:url(#SVGID_00000165919370200439290910000017715871220461095356_);">
				<g>
					<line class="st2" x1="57.5" y1="183.7" x2="391" y2="-149.7"/>
					<line class="st2" x1="47.1" y1="173.3" x2="380.5" y2="-160.2"/>
					<line class="st2" x1="67.9" y1="194.2" x2="401.4" y2="-139.3"/>
					<line class="st2" x1="78.3" y1="204.6" x2="411.8" y2="-128.9"/>
					<line class="st2" x1="88.7" y1="215" x2="422.2" y2="-118.5"/>
					<line class="st2" x1="99.2" y1="225.4" x2="432.6" y2="-108.1"/>
					<line class="st2" x1="109.6" y1="235.8" x2="443.1" y2="-97.6"/>
					<line class="st2" x1="120" y1="246.3" x2="453.5" y2="-87.2"/>
					<line class="st2" x1="130.4" y1="256.7" x2="463.9" y2="-76.8"/>
					<line class="st2" x1="140.8" y1="267.1" x2="474.3" y2="-66.4"/>
					<line class="st2" x1="130.4" y1="256.7" x2="463.9" y2="-76.8"/>
					<line class="st2" x1="151.3" y1="277.5" x2="484.7" y2="-55.9"/>
					<line class="st2" x1="161.7" y1="288" x2="495.2" y2="-45.5"/>
					<line class="st2" x1="172.1" y1="298.4" x2="505.6" y2="-35.1"/>
					<line class="st2" x1="182.5" y1="308.8" x2="516" y2="-24.7"/>
					<line class="st2" x1="192.9" y1="319.2" x2="526.4" y2="-14.3"/>
					<line class="st2" x1="203.4" y1="329.6" x2="536.9" y2="-3.8"/>
					<line class="st2" x1="213.8" y1="340.1" x2="547.3" y2="6.6"/>
					<line class="st2" x1="224.2" y1="350.5" x2="557.7" y2="17"/>
					<line class="st2" x1="213.8" y1="340.1" x2="547.3" y2="6.6"/>
					<line class="st2" x1="234.6" y1="360.9" x2="568.1" y2="27.4"/>
					<line class="st2" x1="245.1" y1="371.3" x2="578.5" y2="37.8"/>
					<line class="st2" x1="255.5" y1="381.7" x2="589" y2="48.3"/>
					<line class="st2" x1="265.9" y1="392.2" x2="599.4" y2="58.7"/>
					<line class="st2" x1="276.3" y1="402.6" x2="609.8" y2="69.1"/>
					<line class="st2" x1="286.7" y1="413" x2="620.2" y2="79.5"/>
					<line class="st2" x1="297.2" y1="423.4" x2="630.6" y2="90"/>
					<line class="st2" x1="307.6" y1="433.9" x2="641.1" y2="100.4"/>
					<line class="st2" x1="297.2" y1="423.4" x2="630.6" y2="90"/>
					<line class="st2" x1="318" y1="444.3" x2="651.5" y2="110.8"/>
					<line class="st2" x1="328.4" y1="454.7" x2="661.9" y2="121.2"/>
					<line class="st2" x1="338.8" y1="465.1" x2="672.3" y2="131.6"/>
					<line class="st2" x1="349.3" y1="475.5" x2="682.8" y2="142.1"/>
					<line class="st2" x1="359.7" y1="486" x2="693.2" y2="152.5"/>
					<line class="st2" x1="370.1" y1="496.4" x2="703.6" y2="162.9"/>
					<line class="st2" x1="380.5" y1="506.8" x2="714" y2="173.3"/>
				</g>
				<g>
					<line class="st2" x1="391" y1="496.4" x2="57.5" y2="162.9"/>
					<line class="st2" x1="380.5" y1="506.8" x2="47.1" y2="173.3"/>
					<line class="st2" x1="401.4" y1="486" x2="67.9" y2="152.5"/>
					<line class="st2" x1="411.8" y1="475.5" x2="78.3" y2="142.1"/>
					<line class="st2" x1="422.2" y1="465.1" x2="88.7" y2="131.6"/>
					<line class="st2" x1="432.6" y1="454.7" x2="99.2" y2="121.2"/>
					<line class="st2" x1="443.1" y1="444.3" x2="109.6" y2="110.8"/>
					<line class="st2" x1="453.5" y1="433.9" x2="120" y2="100.4"/>
					<line class="st2" x1="463.9" y1="423.4" x2="130.4" y2="90"/>
					<line class="st2" x1="474.3" y1="413" x2="140.8" y2="79.5"/>
					<line class="st2" x1="463.9" y1="423.4" x2="130.4" y2="90"/>
					<line class="st2" x1="484.7" y1="402.6" x2="151.3" y2="69.1"/>
					<line class="st2" x1="495.2" y1="392.2" x2="161.7" y2="58.7"/>
					<line class="st2" x1="505.6" y1="381.7" x2="172.1" y2="48.3"/>
					<line class="st2" x1="516" y1="371.3" x2="182.5" y2="37.8"/>
					<line class="st2" x1="526.4" y1="360.9" x2="192.9" y2="27.4"/>
					<line class="st2" x1="536.9" y1="350.5" x2="203.4" y2="17"/>
					<line class="st2" x1="547.3" y1="340.1" x2="213.8" y2="6.6"/>
					<line class="st2" x1="557.7" y1="329.6" x2="224.2" y2="-3.8"/>
					<line class="st2" x1="547.3" y1="340.1" x2="213.8" y2="6.6"/>
					<line class="st2" x1="568.1" y1="319.2" x2="234.6" y2="-14.3"/>
					<line class="st2" x1="578.5" y1="308.8" x2="245.1" y2="-24.7"/>
					<line class="st2" x1="589" y1="298.4" x2="255.5" y2="-35.1"/>
					<line class="st2" x1="599.4" y1="288" x2="265.9" y2="-45.5"/>
					<line class="st2" x1="609.8" y1="277.5" x2="276.3" y2="-55.9"/>
					<line class="st2" x1="620.2" y1="267.1" x2="286.7" y2="-66.4"/>
					<line class="st2" x1="630.6" y1="256.7" x2="297.2" y2="-76.8"/>
					<line class="st2" x1="641.1" y1="246.3" x2="307.6" y2="-87.2"/>
					<line class="st2" x1="630.6" y1="256.7" x2="297.2" y2="-76.8"/>
					<line class="st2" x1="651.5" y1="235.8" x2="318" y2="-97.6"/>
					<line class="st2" x1="661.9" y1="225.4" x2="328.4" y2="-108.1"/>
					<line class="st2" x1="672.3" y1="215" x2="338.8" y2="-118.5"/>
					<line class="st2" x1="682.8" y1="204.6" x2="349.3" y2="-128.9"/>
					<line class="st2" x1="693.2" y1="194.2" x2="359.7" y2="-139.3"/>
					<line class="st2" x1="703.6" y1="183.7" x2="370.1" y2="-149.7"/>
					<line class="st2" x1="714" y1="173.3" x2="380.5" y2="-160.2"/>
				</g>
			</g>
		</g>
		<g>
			<defs>
				<rect id="SVGID_00000129925437482954783360000009584138951584482230_" x="237.6" y="67.1" width="165.8" height="112.2"/>
			</defs>
			<clipPath id="SVGID_00000107559710582001814200000000599070326266262658_">
				<use xlink:href="#SVGID_00000129925437482954783360000009584138951584482230_"  style="overflow:visible;"/>
			</clipPath>
			<g style="opacity:0.3;clip-path:url(#SVGID_00000107559710582001814200000000599070326266262658_);">
				<rect x="219.5" y="1.8" class="st4" width="322.2" height="322.2"/>
			</g>
		</g>
	</g>
	<g id="Windows">
		<path class="st5" d="M188.3,391.7l64.1,14.8l-1.2,6.2l-64.1-14.8L188.3,391.7z"/>
		<path class="st5" d="M318.1,386.8l103.9,23.8l-1.2,6.2l-103.9-23.8L318.1,386.8z"/>
		<polygon class="st5" points="580.7,333.3 574.5,332.1 557.7,407.3 458.6,387.6 457.8,393.7 562.6,414.7 563,411.8 		"/>
		
			<rect x="533.2" y="228.7" transform="matrix(0.2515 -0.9679 0.9679 0.2515 202.4939 725.3791)" class="st6" width="74" height="6.2"/>
		
			<rect x="537.4" y="97.4" transform="matrix(0.2515 -0.9679 0.9679 0.2515 330.2377 627.9167)" class="st6" width="67.4" height="6.2"/>
	</g>
	<g id="Walls">
		<path class="st7" d="M155.4,380.6V173.7h14.1v-18.3h-14.1v-83H185V60.1h-29.6h-20.5v341h20.5h21.8l10.2,2.5l4.5-20.1l-11.9-2.9
			H155.4z M165.4,159.5v10.1h-10v-10.1H165.4z"/>
		<polygon class="st7" points="254,392.9 249.5,413 261.4,415.9 264.8,400.7 319.8,400.7 319.8,376.1 254,376.1 		"/>
		<polygon class="st7" points="422.5,400.7 418.8,417.2 430.7,420 435,400.7 484.1,400.7 484.1,376.1 422.5,376.1 		"/>
		<polygon class="st7" points="360.8,224.5 360.8,385.9 358.4,397 362.5,397.8 365,386.8 365,228.6 369.1,228.6 369.1,224.5 
			365,224.5 		"/>
		<path class="st7" d="M397,175.2v4.1h29.6v8.2h4.1v-8.2v-4.1H406V72.4h166l10.2,2.5l2.9-11.9l-11.9-2.9H226.5v12.3h11v13.2h0.1
			v14.8h4.1V85.6l13.3,0V72.4h68.9v102.7h-82.2v-41.5h-4.1v45.6h4.1h122.8v-4.1H328V72.4h74v102.7H397z M250.9,81.5h-9.2v-9.1h9.2
			V81.5z"/>
		<polygon class="st7" points="567.1,231 567.9,226.9 558.1,224.5 430.7,224.5 430.7,220.4 426.6,220.4 426.6,224.5 401.9,224.5 
			401.9,228.6 557.2,228.6 		"/>
		<polygon class="st7" points="566.2,262.8 541.5,262.8 541.5,332 563.9,332 582.2,336.1 585.1,324.1 566.2,319.9 		"/>
		<polygon class="st7" points="566.2,141 568.7,130.8 548.5,126.3 545.7,138.2 545.7,138.2 545.7,197.9 563.9,197.9 582.2,202 
			585.1,190.1 566.2,185.9 		"/>
	</g>
	<path id="Doors" class="st5" d="M401.9,228.6c0,4.5-0.8,8.2-2.5,12.3c-1.6,4.1-4.1,7.8-7,10.7c-2.9,3.3-6.6,5.8-10.7,7.4
		c-4.1,1.6-8.2,2.5-12.7,2.5v-32.9 M364.1,175.2c0-4.5,0.8-8.2,2.5-12.3c1.6-4.1,4.1-7.8,7-10.7c2.9-3.3,6.6-5.8,10.7-7.4
		c4.1-1.6,8.2-2.5,12.7-2.5v32.9 M241.7,133.3c4.5,0,8.2-0.8,12.3-2.5c4.1-1.6,7.8-4.1,10.7-7c3.3-2.9,5.8-6.6,7.4-10.7
		c1.6-4.1,2.5-8.2,2.5-12.7h-32.9 M430.7,187.5c4.5,0,8.2,0.8,12.3,2.5c4.1,1.6,7.8,4.1,10.7,7c3.3,2.9,5.8,6.6,7.4,10.7
		c1.6,4.1,2.5,8.2,2.5,12.7h-32.9 M185.4,60.1c0-5.3,1.2-10.3,3.3-15.2c2.1-4.9,4.9-9.9,9-13.6c3.7-3.7,8.2-7,13.1-9
		c4.9-2.1,10.3-3.3,15.6-3.3v41.1"/>
	<g id="Furniture_2_">
		<g>
			<g>
				<rect x="484.5" y="72.9" class="st8" width="55.1" height="65.2"/>
				<path class="st9" d="M485,73.4h54.1v64.2H485V73.4 M484,72.4v66.2h56.1V72.4H484L484,72.4z"/>
			</g>
			<rect x="513.4" y="77.1" class="st10" width="21.9" height="16.4"/>
			<rect x="488.8" y="77.1" class="st10" width="21.9" height="16.4"/>
			
				<rect x="514.3" y="84.5" transform="matrix(0.2588 -0.9659 0.9659 0.2588 297.7431 573.3834)" class="st11" width="16.4" height="16.4"/>
			
				<rect x="493.2" y="84.4" transform="matrix(0.9659 -0.2588 0.2588 0.9659 -6.8821 132.9172)" class="st11" width="16.4" height="16.4"/>
			<g>
				<polygon class="st8" points="484.5,163.4 484.5,86.7 506.4,85.4 539.6,90.2 539.6,163.4 				"/>
				<path class="st9" d="M506.4,85.9l32.7,4.7v72.3H485V87.3v-0.1L506.4,85.9 M506.4,84.9L484,86.3v1v76.6h56.1V90.1v-0.3
					L506.4,84.9L506.4,84.9z"/>
			</g>
			<polyline class="st12" points="484.8,88 506.6,88 539.5,90.7 			"/>
		</g>
		<g>
			<g>
				<rect x="455.1" y="229.1" class="st8" width="67.2" height="79.5"/>
				<path class="st9" d="M455.6,229.6h66.2v78.5h-66.2L455.6,229.6 M454.6,228.6v80.5h68.2v-80.5H454.6L454.6,228.6z"/>
			</g>
			<rect x="490.4" y="234.4" class="st10" width="26.6" height="19.9"/>
			<rect x="460.4" y="234.4" class="st10" width="26.6" height="19.9"/>
			
				<rect x="491.6" y="243.4" transform="matrix(0.2588 -0.9659 0.9659 0.2588 127.0518 672.2447)" class="st11" width="19.9" height="19.9"/>
			
				<rect x="465.8" y="243.3" transform="matrix(0.9659 -0.2588 0.2588 0.9659 -49.3322 131.7523)" class="st11" width="19.9" height="19.9"/>
			<g>
				<polygon class="st8" points="455.1,312.5 455.1,246 481.9,244.3 522.3,250.2 522.3,312.5 				"/>
				<path class="st9" d="M481.9,244.8l39.9,5.8V312h-66.1v-65.2v-0.3L481.9,244.8 M481.9,243.8l-27.3,1.7v1.3V313h68.1v-62.9v-0.4
					L481.9,243.8L481.9,243.8z"/>
			</g>
			<polyline class="st12" points="455.5,247.5 482.1,247.5 522,250.9 			"/>
		</g>
		<g>
			<g>
				<rect x="328.5" y="72.9" class="st8" width="73" height="29.8"/>
				<path class="st9" d="M401,73.4v28.8h-72V73.4H401 M402,72.4h-74v30.8h74V72.4L402,72.4z"/>
			</g>
			<g>
				<g>
					<path class="st13" d="M395.2,87.8c0-5.7-4.9-10.1-10.4-9.5c-6.2,0.6-13.9,1.1-19.7,1.1c-5.7,0-13.5-0.6-19.7-1.1
						c-5.6-0.5-10.4,3.9-10.4,9.5s4.9,10.1,10.4,9.5c6.2-0.6,13.9-1.1,19.7-1.1c5.7,0,13.5,0.6,19.7,1.1
						C390.3,97.8,395.2,93.4,395.2,87.8z"/>
					<ellipse class="st13" cx="385.4" cy="87.8" rx="1.3" ry="1.3"/>
				</g>
			</g>
		</g>
		<g>
			<g>
				<rect x="249" y="157.8" class="st8" width="25.1" height="16.9"/>
				<path class="st9" d="M273.6,158.3v15.9h-24.1v-15.9H273.6 M274.6,157.3h-26.1v17.9h26.1V157.3L274.6,157.3z"/>
			</g>
			<g>
				<path class="st8" d="M261.5,171.6c-2.9,0-5.3-2.4-5.3-5.3c0-2.9,2.4-5.3,5.3-5.3s5.3,2.4,5.3,5.3
					C266.8,169.2,264.5,171.6,261.5,171.6z"/>
				<path class="st9" d="M261.5,161.4c2.7,0,4.8,2.2,4.8,4.8s-2.2,4.8-4.8,4.8s-4.8-2.2-4.8-4.8S258.9,161.4,261.5,161.4
					 M261.5,160.4c-3.2,0-5.8,2.6-5.8,5.8s2.6,5.8,5.8,5.8s5.8-2.6,5.8-5.8S264.7,160.4,261.5,160.4L261.5,160.4z"/>
			</g>
		</g>
		<g>
			<path class="st10" d="M229.8,276.8H284v39.4h-54.2V276.8z"/>
			<path class="st10" d="M287.3,286.7h0.8c5.4,0,9.9,4.4,9.9,9.9c0,5.4-4.4,9.9-9.9,9.9h-0.8V286.7z"/>
			<path class="st10" d="M284,288.3h4.1c4.5,0,8.2,3.7,8.2,8.2s-3.7,8.2-8.2,8.2H284V288.3z"/>
			<path class="st10" d="M226.5,286.7h-0.8c-5.4,0-9.9,4.4-9.9,9.9c0,5.4,4.4,9.9,9.9,9.9h0.8V286.7z"/>
			<path class="st10" d="M229.8,288.3h-4.1c-4.5,0-8.2,3.7-8.2,8.2s3.7,8.2,8.2,8.2h4.1V288.3z"/>
			<path class="st10" d="M266.8,273.5v-0.8c0-5.4-4.4-9.9-9.9-9.9c-5.4,0-9.9,4.4-9.9,9.9v0.8H266.8z"/>
			<path class="st10" d="M265.1,276.8v-4.1c0-4.5-3.7-8.2-8.2-8.2s-8.2,3.7-8.2,8.2v4.1H265.1z"/>
			<path class="st10" d="M266.8,319.5v0.8c0,5.4-4.4,9.9-9.9,9.9c-5.4,0-9.9-4.4-9.9-9.9v-0.8H266.8z"/>
			<path class="st10" d="M265.1,316.2v4.1c0,4.5-3.7,8.2-8.2,8.2s-8.2-3.7-8.2-8.2v-4.1H265.1z"/>
		</g>
		<g>
			<path class="st10" d="M519.5,355.4l18.2,3.6l-0.8,17.1l-23.2-4.6L519.5,355.4z"/>
			<g>
				
					<rect x="510" y="349.2" transform="matrix(0.1918 -0.9814 0.9814 0.1918 44.7741 825.9782)" class="st8" width="27.8" height="73.2"/>
				<path class="st9" d="M491.1,365.7l70.8,13.8l-5.1,26.3L486,392L491.1,365.7 M490.3,364.5l-5.5,28.2l72.8,14.2l5.5-28.2
					L490.3,364.5L490.3,364.5z"/>
			</g>
			<path class="st12" d="M518,378.7l14.1,2.8 M517.5,375.1l16.6,3.3l-1,5l-16.6-3.3L517.5,375.1z"/>
			<path class="st10" d="M510.7,373.5L510.7,373.5c0.7,0.1,1.1,0.8,1,1.5l-0.3,1.7c-0.1,0.7-0.8,1.1-1.5,1l0,0
				c-0.7-0.1-1.1-0.8-1-1.5l0.3-1.7C509.3,373.9,510,373.4,510.7,373.5z"/>
			<path class="st10" d="M519.1,389c0.5-2.3,2.7-3.8,5-3.3s3.8,2.7,3.3,5l-0.8,4.1l-8.3-1.6L519.1,389z"/>
			
				<rect x="521.7" y="371" transform="matrix(0.1935 -0.9811 0.9811 0.1935 35.8056 829.6146)" class="st14" width="1.7" height="44"/>
			<g>
				
					<rect x="519.4" y="355.3" transform="matrix(0.1918 -0.9814 0.9814 0.1918 68.3634 811.7421)" class="st8" width="15.3" height="18.2"/>
				<path class="st9" d="M520.1,355.5l16.9,3.3l-2.8,14.1l-16.9-3.3L520.1,355.5 M519.3,354.4l-3.1,16l18.8,3.7l3.1-16L519.3,354.4
					L519.3,354.4z"/>
			</g>
			<g>
				
					<rect x="528.1" y="346.7" transform="matrix(0.1915 -0.9815 0.9815 0.1915 78.2497 806.7306)" class="st8" width="1.4" height="18.3"/>
				<path class="st9" d="M520.4,354.1l16.9,3.3l-0.1,0.4l-16.9-3.3L520.4,354.1 M519.6,352.9l-0.5,2.4L538,359l0.5-2.4L519.6,352.9
					L519.6,352.9z"/>
			</g>
		</g>
		<g id="Sink_2">
			<g id="Rectangle_16_x5F_11_1_">
				<rect x="255.5" y="72.9" class="st8" width="29.5" height="18.9"/>
				<path class="st9" d="M284.5,73.4v17.9H256V73.4H284.5 M285.5,72.4H255v19.9h30.5V72.4L285.5,72.4z"/>
			</g>
			<path id="Rectangle_19_x5F_5" class="st10" d="M259.8,82.4L259.8,82.4c0,3.4,2.7,6.1,6.1,6.1h8.7c3.4,0,6.1-2.7,6.1-6.1l0,0
				c0-3.4-2.7-6.1-6.1-6.1h-8.7C262.5,76.3,259.8,79,259.8,82.4z"/>
			<circle id="Ellipse_7_x5F_2_1_" class="st10" cx="270.2" cy="79.2" r="1.3"/>
		</g>
		<g id="Sink_2_1_">
			<g id="Rectangle_16_x5F_11_3_">
				<rect x="328.5" y="130.8" class="st8" width="18.9" height="43.9"/>
				<path class="st9" d="M346.9,131.3v42.9H329v-42.9L346.9,131.3 M347.9,130.3H328v44.9h19.9V130.3L347.9,130.3z"/>
			</g>
			<path id="Rectangle_19_x5F_5_1_" class="st10" d="M338,166.1L338,166.1c3.4,0,6.1-2.7,6.1-6.1v-8.7c0-3.4-2.7-6.1-6.1-6.1l0,0
				c-3.4,0-6.1,2.7-6.1,6.1v8.7C331.9,163.4,334.6,166.1,338,166.1z"/>
			<circle id="Ellipse_7_x5F_2_2_" class="st10" cx="334.8" cy="155.6" r="1.3"/>
		</g>
		<g id="Toilet_2_">
			<g id="Rectangle_21_1_">
				<rect x="294.2" y="81.8" class="st8" width="17.8" height="5.9"/>
				<path class="st9" d="M311.4,82.3v4.9h-16.8v-4.9H311.4 M312.4,81.3h-18.8v6.9h18.8V81.3L312.4,81.3z"/>
			</g>
			<path id="Rectangle_19_x5F_2_2_" class="st10" d="M296.4,100.1c-0.3,3.9,2.8,7.1,6.7,7.1l0,0c3.9,0,6.9-3.3,6.7-7.1L309,87.7
				h-11.7L296.4,100.1z"/>
			<path id="Rectangle_18_x5F_13_2_" class="st10" d="M297.7,100.1c-0.3,3.1,2.2,5.8,5.3,5.8l0,0c3.1,0,5.6-2.7,5.3-5.8l-0.8-8.5
				h-9.1L297.7,100.1z"/>
			<ellipse id="Ellipse_6_x5F_2_2_" class="st10" cx="303.1" cy="95.5" rx="1.3" ry="1.3"/>
		</g>
		<g id="Toilet_1_">
			<g id="Rectangle_21_4_">
				<rect x="328.5" y="113" class="st8" width="5.9" height="17.8"/>
				<path class="st9" d="M334,113.5v16.8h-5v-16.8H334 M335,112.5h-7v18.8h6.9v-18.8H335z"/>
			</g>
			<path id="Rectangle_19_x5F_2_1_" class="st10" d="M346.8,128.6c3.9,0.3,7.1-2.8,7.1-6.7l0,0c0-3.9-3.3-6.9-7.1-6.7l-12.4,0.8
				v11.7L346.8,128.6z"/>
			<path id="Rectangle_18_x5F_13_1_" class="st10" d="M346.8,127.2c3.1,0.3,5.8-2.2,5.8-5.3l0,0c0-3.1-2.7-5.6-5.8-5.3l-8.5,0.8v9.1
				L346.8,127.2z"/>
			<ellipse id="Ellipse_6_x5F_2_1_" class="st10" cx="342.3" cy="121.9" rx="1.3" ry="1.3"/>
		</g>
		<g id="Shower">
			<path id="Rectangle_22" class="st10" d="M323.5,139.9v34.8h-34.8v-24c0-6,4.8-10.8,10.8-10.8H323.5z"/>
			<path id="Rectangle_23" class="st10" d="M321.7,141.7v31.2h-31.2v-22.6c0-4.8,3.9-8.7,8.7-8.7h22.5V141.7z"/>
			<ellipse id="Ellipse_6_x5F_4" class="st10" cx="314.6" cy="165.8" rx="1.3" ry="1.3"/>
		</g>
		<g id="TV_2_">
			<g id="Rectangle_16_2_">
				<rect x="423.1" y="363" class="st8" width="60.8" height="8.8"/>
				<path class="st9" d="M483.4,363.5v7.8h-59.8v-7.8H483.4 M484.4,362.5h-61.8v9.8h61.8V362.5L484.4,362.5z"/>
			</g>
			<g id="Rectangle_15_2_">
				<rect x="423.1" y="364.8" class="st8" width="60.8" height="10.6"/>
				<path class="st9" d="M483.4,365.3v9.6h-59.8v-9.6H483.4 M484.4,364.3h-61.8v11.6h61.8V364.3L484.4,364.3z"/>
			</g>
			<rect id="Rectangle_17_2_" x="433" y="372.1" class="st10" width="41.1" height="1.7"/>
			<path id="Rectangle_18_x5F_2_2_" class="st10" d="M444.4,373.8h18.1l-1.6,1.6H446L444.4,373.8z"/>
		</g>
		<g id="Kitchen">
			<g id="Rectangle_24">
				<rect x="155.9" y="174.2" class="st8" width="25.6" height="81.5"/>
				<path class="st9" d="M180.9,174.7v80.5h-24.6v-80.5H180.9 M181.9,173.7h-26.6v82.5h26.6V173.7L181.9,173.7z"/>
			</g>
			<g id="Rectangle_26">
				<rect x="155.9" y="280.6" class="st8" width="25.6" height="36.4"/>
				<path class="st9" d="M180.9,281.1v35.4h-24.6v-35.4H180.9 M181.9,280.1h-26.6v37.4h26.6V280.1L181.9,280.1z"/>
			</g>
			<g id="Oven">
				<g id="Rectangle_28">
					<rect x="157.5" y="295.2" class="st8" width="25.6" height="18.9"/>
					<path class="st9" d="M182.6,295.7v17.9H158v-17.9H182.6 M183.6,294.7H157v19.9h26.6V294.7L183.6,294.7z"/>
				</g>
				<g id="Rectangle_29">
					<rect x="155.9" y="291.4" class="st8" width="25.6" height="26.5"/>
					<path class="st9" d="M180.9,291.9v25.5h-24.6v-25.5H180.9 M181.9,290.9h-26.6v27.5h26.6V290.9L181.9,290.9z"/>
				</g>
			</g>
			<g id="Rectangle_27_1_">
				<rect x="155.9" y="317.9" class="st8" width="25.6" height="25.6"/>
				<path class="st9" d="M180.9,318.4V343h-24.6v-24.6H180.9 M181.9,317.4h-26.6V344h26.6V317.4L181.9,317.4z"/>
			</g>
			<g id="Sink_3">
				<rect id="Rectangle_28_x5F_2" x="158.7" y="192.5" class="st10" width="19.9" height="31.6"/>
				<path id="Rectangle_29_x5F_2" class="st10" d="M168.6,204.9L168.6,204.9c4.1,0,7.5,3.3,7.5,7.5v1.7c0,4.1-3.3,7.5-7.5,7.5l0,0
					c-4.1,0-7.5-3.3-7.5-7.5v-1.7C161.2,208.3,164.5,204.9,168.6,204.9z"/>
				<ellipse id="Ellipse_7_x5F_3" class="st10" cx="165.3" cy="213.3" rx="1.3" ry="1.3"/>
				<path id="Vector_2" class="st12" d="M161.2,194.1v8.3 M163.7,194.1v8.3 M166.2,194.1v8.3 M168.6,194.1v8.3 M171.1,194.1v8.3
					 M173.6,194.1v8.3 M176.1,194.1v8.3"/>
			</g>
			<g id="Stove">
				<g id="Rectangle_25">
					<rect x="155.9" y="255.7" class="st8" width="25.6" height="24.9"/>
					<path class="st9" d="M180.9,256.2v23.9h-24.6v-23.9H180.9 M181.9,255.2h-26.6v25.9h26.6V255.2L181.9,255.2z"/>
				</g>
				<g id="Rectangle_28_x5F_3">
					<rect x="155.9" y="255.7" class="st8" width="1.9" height="24.9"/>
					<path class="st9" d="M157.2,256.2v23.9h-0.9v-23.9H157.2 M158.2,255.2h-2.9v25.9h2.9V255.2L158.2,255.2z"/>
				</g>
				<g id="Ellipse_7_x5F_4">
					<path class="st8" d="M164.5,264.7c-1.6,0-2.8-1.3-2.8-2.8c0-1.6,1.3-2.8,2.8-2.8s2.8,1.3,2.8,2.8S166,264.7,164.5,264.7z"/>
					<path class="st9" d="M164.5,259.5c1.3,0,2.3,1,2.3,2.3s-1,2.3-2.3,2.3s-2.3-1-2.3-2.3C162.2,260.6,163.2,259.5,164.5,259.5
						 M164.5,258.5c-1.8,0-3.3,1.5-3.3,3.3s1.5,3.3,3.3,3.3s3.3-1.5,3.3-3.3S166.3,258.5,164.5,258.5L164.5,258.5z"/>
				</g>
				<g id="Ellipse_9">
					<circle class="st8" cx="174.5" cy="261.9" r="3.7"/>
					<path class="st9" d="M174.5,258.7c1.7,0,3.2,1.4,3.2,3.2s-1.4,3.2-3.2,3.2s-3.2-1.4-3.2-3.2S172.7,258.7,174.5,258.7
						 M174.5,257.7c-2.3,0-4.2,1.9-4.2,4.2s1.9,4.2,4.2,4.2s4.2-1.9,4.2-4.2S176.8,257.7,174.5,257.7L174.5,257.7z"/>
				</g>
				<g id="Ellipse_10">
					<circle class="st8" cx="164.5" cy="273.5" r="3.7"/>
					<path class="st9" d="M164.5,270.3c1.7,0,3.2,1.4,3.2,3.2c0,1.7-1.4,3.2-3.2,3.2s-3.2-1.4-3.2-3.2
						C161.3,271.8,162.8,270.3,164.5,270.3 M164.5,269.3c-2.3,0-4.2,1.9-4.2,4.2c0,2.3,1.9,4.2,4.2,4.2s4.2-1.9,4.2-4.2
						C168.6,271.2,166.8,269.3,164.5,269.3L164.5,269.3z"/>
				</g>
				<g id="Ellipse_8">
					<path class="st8" d="M175.3,276.3c-1.6,0-2.8-1.3-2.8-2.8s1.3-2.8,2.8-2.8s2.8,1.3,2.8,2.8S176.8,276.3,175.3,276.3z"/>
					<path class="st9" d="M175.3,271.2c1.3,0,2.3,1,2.3,2.3s-1,2.3-2.3,2.3s-2.3-1-2.3-2.3S174,271.2,175.3,271.2 M175.3,270.2
						c-1.8,0-3.3,1.5-3.3,3.3s1.5,3.3,3.3,3.3s3.3-1.5,3.3-3.3S177.1,270.2,175.3,270.2L175.3,270.2z"/>
				</g>
			</g>
			<path id="Vector_3" class="st12" d="M168.6,327.4v6.6 M171.5,329.1l-5.8,3.3 M165.7,329.1l5.8,3.3"/>
		</g>
		<g>
			<path class="st10" d="M306.8,331.9c-1.1,0-2.1,0.9-2.1,2.1v20.8h47.6v-22.9H306.8z"/>
			<path class="st10" d="M331.4,295c-1.1,0-2.1,1-2.1,2.2v32.6c0,1.2,0.9,2.2,2.1,2.2h20.9v-37L331.4,295L331.4,295z"/>
			<path class="st10" d="M331.4,259.5c-1.1,0-2.1,0.9-2.1,2.1v31.3c0,1.2,0.9,2.1,2.1,2.1h20.9v-35.5H331.4z"/>
			<path class="st10" d="M327.6,259.5v-7.7h32.8v111.5h-63.9v-33h8.2v24.6h47.6v-95.3L327.6,259.5z"/>
		</g>
		<g>
			<g>
				<rect x="373.1" y="285" class="st8" width="13.6" height="66.9"/>
				<path class="st9" d="M386.1,285.5v65.9h-12.6v-65.9H386.1 M387.1,284.5h-14.6v67.9h14.6V284.5L387.1,284.5z"/>
			</g>
			<g>
				<rect x="365.5" y="285" class="st8" width="19" height="66.9"/>
				<path class="st9" d="M384,285.5v65.9h-18v-65.9H384 M385,284.5h-20v67.9h20V284.5L385,284.5z"/>
			</g>
			<path class="st10" d="M365.7,285l18.7,67.1"/>
		</g>
		<g>
			<g>
				<rect x="373.1" y="351.9" class="st8" width="13.6" height="20.6"/>
				<path class="st9" d="M386.1,352.4V372h-12.6v-19.6H386.1 M387.1,351.4h-14.6V373h14.6V351.4L387.1,351.4z"/>
			</g>
			<g>
				<rect x="365.5" y="351.9" class="st8" width="19" height="20.6"/>
				<path class="st9" d="M366,352.4h18V372h-18V352.4 M365,351.4V373h20v-21.6H365L365,351.4z"/>
			</g>
			<path class="st10" d="M365.7,351.5l18.7,21.4"/>
		</g>
		<g>
			<g>
				<rect x="163.4" y="72.9" class="st8" width="13.6" height="69.8"/>
				<path class="st9" d="M176.4,73.4v68.8h-12.6V73.4H176.4 M177.4,72.4h-14.6v70.8h14.6V72.4L177.4,72.4z"/>
			</g>
			<g>
				<rect x="155.9" y="72.9" class="st8" width="19" height="69.8"/>
				<path class="st9" d="M174.3,73.4v68.8h-18V73.4H174.3 M175.3,72.4h-20v70.8h20V72.4L175.3,72.4z"/>
			</g>
			<path class="st10" d="M156,72.9l18.7,70"/>
		</g>
		<g>
			<rect x="285" y="72.9" class="st8" width="38.4" height="8.9"/>
			<path class="st9" d="M322.9,73.4v7.9h-37.4v-7.9H322.9 M323.9,72.4h-39.4v9.9h39.4V72.4L323.9,72.4z"/>
		</g>
		<g>
			<path class="st10" d="M504.8,183.2h17.8l2.4,16.1h-22.6L504.8,183.2z"/>
			<g>
				<rect x="485.4" y="197.6" class="st8" width="58.3" height="26.4"/>
				<path class="st9" d="M543.2,198.1v25.4h-57.3v-25.4H543.2 M544.2,197.1h-59.3v27.4h59.3V197.1L544.2,197.1z"/>
			</g>
			<path class="st12" d="M507.7,205.3h13.7 M506.5,202h16.1v4.8h-16.1L506.5,202z"/>
			<path class="st10" d="M499.9,201.8L499.9,201.8c0.7,0,1.2,0.5,1.2,1.2v1.6c0,0.7-0.5,1.2-1.2,1.2l0,0c-0.7,0-1.2-0.5-1.2-1.2V203
				C498.6,202.3,499.2,201.8,499.9,201.8z"/>
			<path class="st10" d="M510.6,214.7c0-2.2,1.8-4,4-4c2.2,0,4,1.8,4,4v4h-8.1L510.6,214.7z"/>
			
				<rect x="513.9" y="197" transform="matrix(1.695900e-03 -1 1 1.695900e-03 295.8456 732.264)" class="st14" width="1.6" height="42"/>
			<g>
				<rect x="505" y="182.7" class="st8" width="17.3" height="14.6"/>
				<path class="st9" d="M521.8,183.2v13.6h-16.3v-13.6H521.8 M522.8,182.2h-18.3v15.6h18.3V182.2L522.8,182.2z"/>
			</g>
			<g>
				<rect x="504.9" y="181.1" class="st8" width="17.6" height="1.5"/>
				<path class="st9" d="M522,181.6v0.5h-16.6v-0.5H522 M523,180.6h-18.6v2.5H523V180.6L523,180.6z"/>
			</g>
		</g>
		<g>
			<g>
				<rect x="414.1" y="72.9" class="st8" width="13.6" height="101.8"/>
				<path class="st9" d="M427.2,73.4v100.8h-12.6V73.4H427.2 M428.2,72.4h-14.6v102.8h14.6V72.4L428.2,72.4z"/>
			</g>
			<g>
				<rect x="406.6" y="72.9" class="st8" width="19" height="101.8"/>
				<path class="st9" d="M425.1,73.4v100.8h-18V73.4H425.1 M426.1,72.4h-20v102.8h20V72.4L426.1,72.4z"/>
			</g>
			<path class="st10" d="M406.8,174.5l18.7-101.7"/>
		</g>
	</g>
	<g id="street_anchors">
		<rect id="street_anchor_01" x="355" y="450" class="st15" width="10" height="10"/>
		<rect id="street_anchor_02" x="615.2" y="235" class="st15" width="10" height="10"/>
	</g>
</g>
<g id="комнаты">
	<g>
		<g>
			<path class="st7" d="M203.6,122.2h-0.8v1.3h-1.1v-1.3h-3.2v-0.9l3.3-3.9h1v3.7h0.8V122.2z M200,121.1h1.6v-2h-0.1
				C201.1,119.8,200.6,120.5,200,121.1L200,121.1z"/>
			<path class="st7" d="M205.2,121.9c0.4,0,0.8,0.4,0.8,0.9c0,0.5-0.3,0.9-0.8,0.9c-0.4,0-0.7-0.4-0.7-0.9
				C204.4,122.3,204.8,121.9,205.2,121.9z"/>
			<path class="st7" d="M208.7,119.8h0.7c0.3,0,0.6-0.2,0.6-0.6c0-0.5-0.4-0.7-0.8-0.7c-0.6,0-1.1,0.4-1.6,1l-0.6-0.9
				c0.5-0.6,1.3-1.3,2.2-1.3c0.8,0,1.9,0.5,1.9,1.8c0,0.5-0.3,0.9-0.5,1.1c0.4,0.2,0.9,0.6,0.9,1.5c0,1.4-1.1,2.2-2.4,2.2
				c-0.9,0-1.7-0.4-2.4-1.3l0.6-1c0.5,0.6,1,1,1.8,1c0.7,0,1.3-0.4,1.3-1c0-0.5-0.5-0.6-0.7-0.6h-0.9V119.8z"/>
		</g>
	</g>
	<g>
		<g>
			<path class="st7" d="M202.4,354.1c0-1.5,0.9-2.2,2-2.6c0.3-0.1,0.8-0.3,0.8-0.9c0-0.5-0.4-0.6-0.8-0.6c-0.7,0-1.1,0.4-1.6,0.9
				l-0.6-1c0.6-0.6,1.2-1.2,2.1-1.2c0.9,0,1.9,0.5,1.9,1.8c0,1.4-1,1.8-1.8,2.1c-0.7,0.3-1.1,0.6-1.1,1.1v0.1h2.8v1.2h-3.9V354.1z"
				/>
			<path class="st7" d="M209.1,351.4h0.7c0.3,0,0.6-0.2,0.6-0.6c0-0.5-0.4-0.7-0.8-0.7c-0.6,0-1.1,0.5-1.6,1l-0.6-0.9
				c0.5-0.6,1.3-1.3,2.2-1.3c0.8,0,1.9,0.5,1.9,1.8c0,0.5-0.3,0.9-0.5,1.1c0.4,0.2,0.9,0.6,0.9,1.5c0,1.4-1.1,2.2-2.4,2.2
				c-0.9,0-1.7-0.4-2.4-1.3l0.6-1c0.5,0.6,1,1,1.8,1c0.7,0,1.3-0.4,1.3-1c0-0.5-0.5-0.6-0.7-0.6h-0.9V351.4z"/>
			<path class="st7" d="M213.5,353.5c0.4,0,0.8,0.4,0.8,0.9c0,0.5-0.3,0.9-0.8,0.9c-0.4,0-0.7-0.4-0.7-0.9
				C212.7,353.9,213,353.5,213.5,353.5z"/>
			<path class="st7" d="M217,351.4h0.7c0.3,0,0.6-0.2,0.6-0.6c0-0.5-0.4-0.7-0.8-0.7c-0.6,0-1.1,0.5-1.6,1l-0.6-0.9
				c0.5-0.6,1.3-1.3,2.2-1.3c0.8,0,1.9,0.5,1.9,1.8c0,0.5-0.3,0.9-0.5,1.1c0.4,0.2,0.9,0.6,0.9,1.5c0,1.4-1.1,2.2-2.4,2.2
				c-0.9,0-1.7-0.4-2.4-1.3l0.6-1c0.5,0.6,1,1,1.8,1c0.7,0,1.3-0.4,1.3-1c0-0.5-0.5-0.6-0.7-0.6H217V351.4z"/>
		</g>
	</g>
	<g>
		<g>
			<path class="st7" d="M448.2,117.2l1.4-0.8h1v6.1h-1.1v-4.7l-1,0.6L448.2,117.2z"/>
			<path class="st7" d="M451.6,117.2l1.4-0.8h1v6.1h-1.1v-4.7l-1,0.6L451.6,117.2z"/>
			<path class="st7" d="M456,120.8c0.4,0,0.8,0.4,0.8,0.9c0,0.5-0.3,0.9-0.8,0.9c-0.4,0-0.7-0.4-0.7-0.9
				C455.2,121.2,455.6,120.8,456,120.8z"/>
			<path class="st7" d="M457.6,120.7c0-0.8,0.4-1.4,1-1.6c-0.4-0.2-0.7-0.6-0.7-1.2c0-1.1,1.2-1.7,2.1-1.7c0.9,0,2.1,0.5,2.1,1.7
				c0,0.6-0.2,1-0.7,1.2c0.5,0.2,1,0.7,1,1.6c0,1.3-1.1,2-2.3,2C458.8,122.7,457.6,122,457.6,120.7z M461.1,120.6
				c0-0.6-0.6-0.9-1.2-0.9s-1.2,0.3-1.2,0.9c0,0.6,0.6,0.9,1.2,0.9C460.6,121.5,461.1,121.2,461.1,120.6z M460.9,118
				c0-0.5-0.5-0.7-0.9-0.7c-0.4,0-0.9,0.2-0.9,0.7c0,0.4,0.3,0.6,0.9,0.6C460.6,118.7,460.9,118.4,460.9,118z"/>
		</g>
	</g>
	<g>
		<g>
			<path class="st7" d="M410.2,291.5l1.4-0.8h1v6.1h-1.1v-4.7l-1,0.6L410.2,291.5z"/>
			<path class="st7" d="M413.8,290.7h4.2v1.2l-2.4,4.9h-1.4l2.5-4.8h-2.9V290.7z"/>
			<path class="st7" d="M419.6,295.2c0.4,0,0.8,0.4,0.8,0.9c0,0.5-0.3,0.9-0.8,0.9c-0.4,0-0.7-0.4-0.7-0.9
				C418.8,295.6,419.2,295.2,419.6,295.2z"/>
			<path class="st7" d="M421,291.5l1.4-0.8h1v6.1h-1.1v-4.7l-1,0.6L421,291.5z"/>
		</g>
	</g>
	<g>
		<g>
			<path class="st7" d="M362.3,199.6l1.4-0.8h1v6.1h-1.1v-4.7l-1,0.6L362.3,199.6z"/>
			<path class="st7" d="M366.7,203.3c0.4,0,0.8,0.4,0.8,0.9c0,0.5-0.3,0.9-0.8,0.9c-0.4,0-0.7-0.4-0.7-0.9
				C366,203.7,366.3,203.3,366.7,203.3z"/>
			<path class="st7" d="M368.3,198.8h4.2v1.2l-2.4,4.9h-1.4l2.5-4.8h-2.9V198.8z"/>
		</g>
	</g>
	<g>
		<g>
			<path class="st7" d="M285.7,122.5h-0.8v1.3h-1.1v-1.3h-3.2v-0.9l3.3-3.9h1v3.7h0.8V122.5z M282.1,121.4h1.6v-2h-0.1
				C283.2,120.1,282.6,120.7,282.1,121.4L282.1,121.4z"/>
			<path class="st7" d="M287.2,122.1c0.4,0,0.8,0.4,0.8,0.9c0,0.5-0.3,0.9-0.8,0.9c-0.4,0-0.7-0.4-0.7-0.9
				C286.5,122.5,286.8,122.1,287.2,122.1z"/>
			<path class="st7" d="M289,122.8c0-1.5,0.9-2.2,2-2.6c0.3-0.1,0.8-0.3,0.8-0.9c0-0.5-0.4-0.6-0.8-0.6c-0.7,0-1.1,0.4-1.6,0.9
				l-0.6-1c0.6-0.6,1.2-1.2,2.1-1.2c0.9,0,1.9,0.5,1.9,1.8c0,1.4-1,1.8-1.8,2.1c-0.7,0.3-1.1,0.6-1.1,1.1v0.1h2.8v1.2H289V122.8z"/>
		</g>
	</g>
	<g>
		<g>
			<path class="st7" d="M375.6,125h-0.8v1.3h-1.1V125h-3.2v-0.9l3.3-3.9h1v3.7h0.8V125z M372,123.9h1.6v-2h-0.1
				C373.1,122.6,372.6,123.3,372,123.9L372,123.9z"/>
		</g>
	</g>
</g>
</svg>
