<?xml version="1.0" encoding="utf-8"?>
<!-- Generator: Adobe Illustrator 26.0.3, SVG Export Plug-In . SVG Version: 6.00 Build 0)  -->
<svg version="1.1" xmlns="http://www.w3.org/2000/svg" xmlns:xlink="http://www.w3.org/1999/xlink" x="0px" y="0px"
	 viewBox="0 0 720 480" style="enable-background:new 0 0 720 480;" xml:space="preserve">
<style type="text/css">
	.st0{fill:#DBD4CA;}
	.st1{clip-path:url(#SVGID_00000032612727383027712250000004311891750236213398_);}
	.st2{fill:none;stroke:#C49F8A;stroke-miterlimit:10;}
	.st3{opacity:0.3;clip-path:url(#SVGID_00000117642138522656596020000006146850836061608634_);}
	.st4{opacity:0.7;fill:#C49F8A;enable-background:new    ;}
	.st5{fill:none;stroke:#565440;}
	.st6{fill:#565440;}
	.st7{fill:none;stroke:#565440;stroke-width:1;stroke-miterlimit:4.0002;}
	.st8{fill:#E9E4DC;}
	.st9{fill:#C49F8A;}
	.st10{fill:#E9E4DC;stroke:#C49F8A;stroke-linejoin:round;}
	.st11{fill:#E9E4DC;stroke:#C49F8A;}
	.st12{fill:#E9E4DC;stroke:#C49F8A;stroke-miterlimit:3.9998;}
	.st13{fill:none;stroke:#C49F8A;}
	.st14{fill:none;}
</style>
<g id="_x31__x5F_2">
	<polygon id="Floor" class="st0" points="534.4,60.5 534.4,83.2 549.2,89.5 528.5,169.9 527.8,239.5 547.5,247.3 526.8,329.2 
		526.2,406.9 161.2,406.9 161.2,60.5 	"/>
	<g id="Wet_Floor_1_">
		<g>
			<defs>
				<rect id="SVGID_1_" x="171.2" y="280.1" width="124" height="124"/>
			</defs>
			<clipPath id="SVGID_00000041273886562442359290000017499420156785107074_">
				<use xlink:href="#SVGID_1_"  style="overflow:visible;"/>
			</clipPath>
			<g style="clip-path:url(#SVGID_00000041273886562442359290000017499420156785107074_);">
				<g>
					<line class="st2" x1="-52.5" y1="339.1" x2="281" y2="5.6"/>
					<line class="st2" x1="-62.9" y1="328.6" x2="270.5" y2="-4.9"/>
					<line class="st2" x1="-42.1" y1="349.5" x2="291.4" y2="16"/>
					<line class="st2" x1="-31.7" y1="359.9" x2="301.8" y2="26.4"/>
					<line class="st2" x1="-21.3" y1="370.3" x2="312.2" y2="36.8"/>
					<line class="st2" x1="-10.8" y1="380.7" x2="322.7" y2="47.3"/>
					<line class="st2" x1="-0.4" y1="391.2" x2="333.1" y2="57.7"/>
					<line class="st2" x1="10" y1="401.6" x2="343.5" y2="68.1"/>
					<line class="st2" x1="20.4" y1="412" x2="353.9" y2="78.5"/>
					<line class="st2" x1="30.9" y1="422.4" x2="364.3" y2="88.9"/>
					<line class="st2" x1="20.4" y1="412" x2="353.9" y2="78.5"/>
					<line class="st2" x1="41.3" y1="432.8" x2="374.8" y2="99.4"/>
					<line class="st2" x1="51.7" y1="443.3" x2="385.2" y2="109.8"/>
					<line class="st2" x1="62.1" y1="453.7" x2="395.6" y2="120.2"/>
					<line class="st2" x1="72.5" y1="464.1" x2="406" y2="130.6"/>
					<line class="st2" x1="83" y1="474.5" x2="416.4" y2="141"/>
					<line class="st2" x1="93.4" y1="485" x2="426.9" y2="151.5"/>
					<line class="st2" x1="103.8" y1="495.4" x2="437.3" y2="161.9"/>
					<line class="st2" x1="114.2" y1="505.8" x2="447.7" y2="172.3"/>
					<line class="st2" x1="103.8" y1="495.4" x2="437.3" y2="161.9"/>
					<line class="st2" x1="124.6" y1="516.2" x2="458.1" y2="182.7"/>
					<line class="st2" x1="135.1" y1="526.6" x2="468.6" y2="193.2"/>
					<line class="st2" x1="145.5" y1="537.1" x2="479" y2="203.6"/>
					<line class="st2" x1="155.9" y1="547.5" x2="489.4" y2="214"/>
					<line class="st2" x1="166.3" y1="557.9" x2="499.8" y2="224.4"/>
					<line class="st2" x1="176.8" y1="568.3" x2="510.2" y2="234.8"/>
					<line class="st2" x1="187.2" y1="578.7" x2="520.7" y2="245.3"/>
					<line class="st2" x1="197.6" y1="589.2" x2="531.1" y2="255.7"/>
					<line class="st2" x1="187.2" y1="578.7" x2="520.7" y2="245.3"/>
					<line class="st2" x1="208" y1="599.6" x2="541.5" y2="266.1"/>
					<line class="st2" x1="218.4" y1="610" x2="551.9" y2="276.5"/>
					<line class="st2" x1="228.9" y1="620.4" x2="562.3" y2="286.9"/>
					<line class="st2" x1="239.3" y1="630.9" x2="572.8" y2="297.4"/>
					<line class="st2" x1="249.7" y1="641.3" x2="583.2" y2="307.8"/>
					<line class="st2" x1="260.1" y1="651.7" x2="593.6" y2="318.2"/>
					<line class="st2" x1="270.5" y1="662.1" x2="604" y2="328.6"/>
				</g>
				<g>
					<line class="st2" x1="281" y1="651.7" x2="-52.5" y2="318.2"/>
					<line class="st2" x1="270.5" y1="662.1" x2="-62.9" y2="328.6"/>
					<line class="st2" x1="291.4" y1="641.3" x2="-42.1" y2="307.8"/>
					<line class="st2" x1="301.8" y1="630.9" x2="-31.7" y2="297.4"/>
					<line class="st2" x1="312.2" y1="620.4" x2="-21.3" y2="286.9"/>
					<line class="st2" x1="322.7" y1="610" x2="-10.8" y2="276.5"/>
					<line class="st2" x1="333.1" y1="599.6" x2="-0.4" y2="266.1"/>
					<line class="st2" x1="343.5" y1="589.2" x2="10" y2="255.7"/>
					<line class="st2" x1="353.9" y1="578.7" x2="20.4" y2="245.3"/>
					<line class="st2" x1="364.3" y1="568.3" x2="30.9" y2="234.8"/>
					<line class="st2" x1="353.9" y1="578.7" x2="20.4" y2="245.3"/>
					<line class="st2" x1="374.8" y1="557.9" x2="41.3" y2="224.4"/>
					<line class="st2" x1="385.2" y1="547.5" x2="51.7" y2="214"/>
					<line class="st2" x1="395.6" y1="537.1" x2="62.1" y2="203.6"/>
					<line class="st2" x1="406" y1="526.6" x2="72.5" y2="193.2"/>
					<line class="st2" x1="416.4" y1="516.2" x2="83" y2="182.7"/>
					<line class="st2" x1="426.9" y1="505.8" x2="93.4" y2="172.3"/>
					<line class="st2" x1="437.3" y1="495.4" x2="103.8" y2="161.9"/>
					<line class="st2" x1="447.7" y1="485" x2="114.2" y2="151.5"/>
					<line class="st2" x1="437.3" y1="495.4" x2="103.8" y2="161.9"/>
					<line class="st2" x1="458.1" y1="474.5" x2="124.6" y2="141"/>
					<line class="st2" x1="468.6" y1="464.1" x2="135.1" y2="130.6"/>
					<line class="st2" x1="479" y1="453.7" x2="145.5" y2="120.2"/>
					<line class="st2" x1="489.4" y1="443.3" x2="155.9" y2="109.8"/>
					<line class="st2" x1="499.8" y1="432.8" x2="166.3" y2="99.4"/>
					<line class="st2" x1="510.2" y1="422.4" x2="176.8" y2="88.9"/>
					<line class="st2" x1="520.7" y1="412" x2="187.2" y2="78.5"/>
					<line class="st2" x1="531.1" y1="401.6" x2="197.6" y2="68.1"/>
					<line class="st2" x1="520.7" y1="412" x2="187.2" y2="78.5"/>
					<line class="st2" x1="541.5" y1="391.2" x2="208" y2="57.7"/>
					<line class="st2" x1="551.9" y1="380.7" x2="218.4" y2="47.3"/>
					<line class="st2" x1="562.3" y1="370.3" x2="228.9" y2="36.8"/>
					<line class="st2" x1="572.8" y1="359.9" x2="239.3" y2="26.4"/>
					<line class="st2" x1="583.2" y1="349.5" x2="249.7" y2="16"/>
					<line class="st2" x1="593.6" y1="339.1" x2="260.1" y2="5.6"/>
					<line class="st2" x1="604" y1="328.6" x2="270.5" y2="-4.9"/>
				</g>
			</g>
		</g>
		<g>
			<defs>
				<rect id="SVGID_00000157279197105204327820000007701744416837074828_" x="171.2" y="280.1" width="124" height="124"/>
			</defs>
			<clipPath id="SVGID_00000145039817749299898540000012070965630939991459_">
				<use xlink:href="#SVGID_00000157279197105204327820000007701744416837074828_"  style="overflow:visible;"/>
			</clipPath>
			<g style="opacity:0.3;clip-path:url(#SVGID_00000145039817749299898540000012070965630939991459_);">
				<rect x="109.5" y="157.1" class="st4" width="322.2" height="322.2"/>
			</g>
		</g>
	</g>
	<path id="Doors" class="st5" d="M243.7,285c0,5.4,1,9.8,2.9,14.7c2,4.9,4.9,9.3,8.3,12.7c3.4,3.9,7.8,6.8,12.7,8.8
		c4.9,2,9.8,2.9,15.2,2.9V285 M370.9,245.9c0,5.4-1,9.8-2.9,14.7c-2,4.9-4.9,9.3-8.3,12.7c-3.4,3.9-7.8,6.8-12.7,8.8
		c-4.9,2-9.8,2.9-15.2,2.9v-39.1 M160.5,192.1c-6.4,0-12.2,1.5-18.1,3.9c-5.9,2.4-11.7,5.9-16.1,10.8c-4.4,4.4-8.3,9.8-10.8,15.7
		c-2.4,5.9-3.9,12.2-3.9,18.6h48.9"/>
	<g id="Walls">
		<path class="st6" d="M545.4,402.4h-8.3v-78.3h-29.3v78.3H297.4V285h29.3v-4.9v-34.2h4.9V241h-34.2v4.9h24.5v34.2h-39.1v4.9h9.8
			v117.4h-98v-19.7h-19.4V285h68.5v-4.9h-68.5V241h-14.7v161.4v14.7H544l12.2,2.9l3.4-14.2L545.4,402.4z M175.1,387.5h14.4v14.9
			h-14.4V387.5z"/>
		<path class="st6" d="M175.1,168.9h28.1V164h-28.1V74.7h82.7v17.6h20.7V74.7h229.3v12.1h24.4l24,5.4l3.4-14.2L537.1,73V60H160.4
			v14.7v117.4h14.7V168.9z M273.6,87.4h-10.9V74.7h10.9V87.4z"/>
		<polygon class="st6" points="537.1,223.1 537.1,183.2 541,166.2 517,160.9 512.6,179.4 512.6,199 512.6,199 512.6,241 370.7,241 
			370.7,245.9 532.2,245.9 556.1,251.3 559.6,237.1 537.1,232 537.1,223.1 		"/>
	</g>
	<g id="Windows">
		
			<rect x="497.8" y="281.9" transform="matrix(0.2515 -0.9679 0.9679 0.2515 129.144 738.2089)" class="st7" width="88.1" height="7.3"/>
		
			<rect x="502.7" y="124.7" transform="matrix(0.2515 -0.9679 0.9679 0.2515 282.0795 621.5159)" class="st7" width="80.3" height="7.3"/>
	</g>
	<g id="Furniture_2_">
		<g>
			<g>
				<rect x="205.5" y="366.2" class="st8" width="86.5" height="35.7"/>
				<path class="st9" d="M291.5,366.7v34.7H206v-34.7H291.5 M292.5,365.7H205v36.7h87.5V365.7L292.5,365.7z"/>
			</g>
			<g>
				<g>
					<path class="st10" d="M212.5,384c0,6.8,5.8,12,12.5,11.4c7.4-0.7,16.6-1.3,23.5-1.3c6.8,0,16.1,0.7,23.5,1.3
						c6.7,0.6,12.5-4.7,12.5-11.4s-5.8-12-12.5-11.4c-7.4,0.7-16.6,1.3-23.5,1.3c-6.8,0-16.1-0.7-23.5-1.3
						C218.3,372.1,212.5,377.3,212.5,384z"/>
					<ellipse class="st10" cx="224.2" cy="384" rx="1.7" ry="1.7"/>
				</g>
			</g>
		</g>
		<g>
			<g>
				<rect x="413.3" y="304" class="st8" width="78.8" height="97.9"/>
				<path class="st9" d="M413.8,304.5h77.8v96.9h-77.8V304.5 M412.8,303.5v98.9h79.8v-98.9H412.8L412.8,303.5z"/>
			</g>
			<rect x="419.6" y="370.9" class="st11" width="31.1" height="24.5"/>
			<rect x="454.6" y="370.9" class="st11" width="31.1" height="24.5"/>
			<polygon class="st12" points="423.4,380.8 445.9,387.2 452,363.5 429.5,357.2 			"/>
			<polygon class="st12" points="453.6,363.5 459.6,387.2 482.1,380.8 476.1,357.2 			"/>
			<g>
				<polygon class="st8" points="413.3,376 413.3,303 492.1,303 492.1,381.2 460.7,383.2 				"/>
				<path class="st9" d="M413.8,303.5h77.7v76.6v0.6l-30.9,2l-46.9-7.1L413.8,303.5 M412.8,302.5v73.4v0.5l47.8,7.3l31.9-2.1V380
					v-77.5H412.8L412.8,302.5z"/>
			</g>
			<polyline class="st13" points="491.5,379.1 460.4,379.1 413.7,375.1 			"/>
		</g>
		<g>
			<rect x="175.6" y="285.5" class="st8" width="10.7" height="47.6"/>
			<path class="st9" d="M185.8,286v46.6h-9.7V286H185.8 M186.8,285h-11.7v48.6h11.7V285L186.8,285z"/>
		</g>
		<g>
			<polygon class="st8" points="195,401.9 195,382.2 175.6,382.2 175.6,365.2 205.5,365.2 205.5,401.9 			"/>
			<path class="st9" d="M205,365.7v17.4v18.3h-9.5v-18.7v-1h-1h-18.4v-16h18H205 M206,364.7h-11.9h-19v18h19.4v19.7H206v-19.3V364.7
				L206,364.7z"/>
		</g>
		<g>
			<path class="st11" d="M456.9,109c0,1.4-1.2,2.6-2.6,2.6h-39.1c-1.4,0-2.6-1.2-2.6-2.6V83.4h44.3L456.9,109L456.9,109z"/>
			<path class="st11" d="M499.1,109c0,1.4-1.2,2.6-2.6,2.6h-37.1c-1.4,0-2.6-1.2-2.6-2.6V83.4h42.3L499.1,109L499.1,109z"/>
			<polygon class="st11" points="499.1,113.7 499.1,83.4 455.8,83.4 412.6,83.4 412.6,113.7 404.4,113.7 404.4,75.2 507.3,75.2 
				507.3,113.7 			"/>
		</g>
		<g>
			<path class="st8" d="M340,98.5c-5.7,0-10.3-4.6-10.3-10.3c0-5.7,4.6-10.3,10.3-10.3s10.3,4.6,10.3,10.3
				C350.4,93.9,345.7,98.5,340,98.5z"/>
			<path class="st9" d="M340,78.3c5.4,0,9.8,4.4,9.8,9.8s-4.4,9.8-9.8,9.8s-9.8-4.4-9.8-9.8S334.6,78.3,340,78.3 M340,77.3
				c-6,0-10.8,4.9-10.8,10.8c0,6,4.9,10.8,10.8,10.8s10.8-4.9,10.8-10.8S346,77.3,340,77.3L340,77.3z"/>
		</g>
		<g>
			<path class="st8" d="M340,132.2c-5.7,0-10.3-4.6-10.3-10.3s4.6-10.3,10.3-10.3s10.3,4.6,10.3,10.3
				C350.4,127.6,345.7,132.2,340,132.2z"/>
			<path class="st9" d="M340,112.1c5.4,0,9.8,4.4,9.8,9.8s-4.4,9.8-9.8,9.8s-9.8-4.4-9.8-9.8S334.6,112.1,340,112.1 M340,111.1
				c-6,0-10.8,4.9-10.8,10.8s4.9,10.8,10.8,10.8s10.8-4.9,10.8-10.8C350.8,116,346,111.1,340,111.1L340,111.1z"/>
		</g>
		<g>
			<path class="st8" d="M340,166.4c-5.7,0-10.3-4.6-10.3-10.3s4.6-10.3,10.3-10.3s10.3,4.6,10.3,10.3
				C350.4,161.7,345.7,166.4,340,166.4z"/>
			<path class="st9" d="M340,146.2c5.4,0,9.8,4.4,9.8,9.8s-4.4,9.8-9.8,9.8s-9.8-4.4-9.8-9.8S334.6,146.2,340,146.2 M340,145.2
				c-6,0-10.8,4.9-10.8,10.8s4.9,10.8,10.8,10.8s10.8-4.9,10.8-10.8S346,145.2,340,145.2L340,145.2z"/>
		</g>
		<g>
			<g>
				<rect x="278.3" y="75.2" class="st8" width="43.6" height="92.5"/>
				<path class="st9" d="M321.4,75.7v91.5h-42.6V75.7H321.4 M322.4,74.7h-44.6v93.5h44.6V74.7L322.4,74.7z"/>
			</g>
			<g>
				<rect x="304.8" y="75.2" class="st8" width="3.7" height="92.5"/>
				<path class="st9" d="M308,75.7v91.5h-2.7V75.7H308 M309,74.7h-4.7v93.5h4.7V74.7L309,74.7z"/>
			</g>
		</g>
		<g>
			<g>
				<rect x="315" y="285.5" class="st8" width="11.2" height="116.4"/>
				<path class="st9" d="M315.5,286h10.2v115.4h-10.2V286 M314.5,285v117.4h12.2V285H314.5L314.5,285z"/>
			</g>
			<g>
				<rect x="297.9" y="285.5" class="st8" width="26.5" height="116.4"/>
				<path class="st9" d="M323.9,286v115.4h-25.5V286H323.9 M324.9,285h-27.5v117.4h27.5V285L324.9,285z"/>
			</g>
			<path class="st11" d="M298.3,285.5L324,402.3"/>
		</g>
		<g>
			<g>
				<rect x="175.6" y="175.3" class="st8" width="23.7" height="11.2"/>
				<path class="st9" d="M176.1,175.8h22.7V186h-22.7V175.8 M175.1,174.8V187h24.7v-12.2H175.1L175.1,174.8z"/>
			</g>
			<g>
				<rect x="175.6" y="169.4" class="st8" width="23.7" height="15.2"/>
				<path class="st9" d="M176.1,169.9h22.7v14.2h-22.7V169.9 M175.1,168.9v16.2h24.7v-16.2H175.1L175.1,168.9z"/>
			</g>
			<path class="st11" d="M199.3,169.4l-23.7,15.4"/>
		</g>
		<g>
			<g>
				<rect x="175.6" y="251.6" class="st8" width="66.1" height="11.2"/>
				<path class="st9" d="M176.1,252.1h65.1v10.2h-65.1L176.1,252.1 M175.1,251.1v12.2h67.1v-12.2H175.1L175.1,251.1z"/>
			</g>
			<g>
				<rect x="175.6" y="253.4" class="st8" width="66.1" height="26.2"/>
				<path class="st9" d="M176.1,253.9h65.1v25.2h-65.1L176.1,253.9 M175.1,252.9v27.2h67.1v-27.2H175.1L175.1,252.9z"/>
			</g>
			<path class="st11" d="M175.4,279.2l66.8-25.4"/>
		</g>
		<g>
			<g>
				<rect x="298" y="246.4" class="st8" width="23.4" height="33.1"/>
				<path class="st9" d="M320.9,246.9v32.2h-22.4V247L320.9,246.9 M321.9,245.9h-24.4v34.2h24.4V245.9L321.9,245.9z"/>
			</g>
			<g>
				<line class="st13" x1="298.2" y1="246.6" x2="305.9" y2="257.5"/>
			</g>
			<g>
				<line class="st13" x1="321.2" y1="246.6" x2="313.5" y2="257.5"/>
			</g>
			<g>
				<line class="st13" x1="298.2" y1="279.4" x2="305.9" y2="268.5"/>
			</g>
			<g>
				<line class="st13" x1="321.2" y1="279.4" x2="313.5" y2="268.5"/>
			</g>
		</g>
		<g id="Toilet_3_">
			<g id="Rectangle_21_3_">
				<rect x="186.5" y="295.1" class="st8" width="8.5" height="26.5"/>
				<path class="st9" d="M194.5,295.6v25.5H187v-25.5H194.5 M195.5,294.6H186v27.5h9.5V294.6L195.5,294.6z"/>
			</g>
			<path id="Rectangle_19_x5F_2_3_" class="st11" d="M208,317.7c4,0.3,7.4-2.9,7.4-6.9l0,0c0-4-3.4-7.2-7.4-6.9l-12.8,0.9v12.1
				L208,317.7z"/>
			<path id="Rectangle_18_x5F_13_3_" class="st11" d="M208,316.3c3.2,0.3,6-2.3,6-5.5l0,0c0-3.3-2.8-5.8-6-5.5l-8.8,0.8v9.4
				L208,316.3z"/>
			<ellipse id="Ellipse_6_x5F_2_3_" class="st11" cx="203.2" cy="310.8" rx="1.7" ry="1.7"/>
		</g>
		<g id="Sink_2_2_">
			<g id="Rectangle_16_x5F_11">
				<rect x="175.5" y="333.1" class="st8" width="23.6" height="32.1"/>
				<path class="st9" d="M198.7,333.6v31.1h-22.6v-31.1H198.7 M199.7,332.6h-24.6v33.1h24.6V332.6L199.7,332.6z"/>
			</g>
			<path id="Rectangle_19_x5F_5_2_" class="st11" d="M187.5,362L187.5,362c4.1,0,7.5-3.3,7.5-7.5v-10.7c0-4.1-3.3-7.5-7.5-7.5l0,0
				c-4.1,0-7.5,3.3-7.5,7.5v10.7C180,358.7,183.4,362,187.5,362z"/>
			<path id="Ellipse_7_x5F_2" class="st11" d="M183.5,350.8c0.9,0,1.6-0.7,1.7-1.7c0-0.9-0.6-1.6-1.7-1.7c-0.9-0.1-1.7,0.7-1.7,1.7
				C181.9,350,182.6,350.8,183.5,350.8z"/>
		</g>
		<g id="TV">
			<g id="Rectangle_16">
				<rect x="423.7" y="226.5" class="st8" width="74" height="10"/>
				<path class="st9" d="M497.2,227v9h-73v-9H497.2 M498.2,226h-75v11h75V226L498.2,226z"/>
			</g>
			<g id="Rectangle_15">
				<rect x="423.7" y="228.5" class="st8" width="74" height="12"/>
				<path class="st9" d="M497.2,229v11h-73v-11H497.2 M498.2,228h-75v13h75V228L498.2,228z"/>
			</g>
			<rect id="Rectangle_17" x="436.7" y="236.7" class="st11" width="48" height="1.8"/>
			<path id="Rectangle_18_x5F_2" class="st11" d="M450.5,238.6h20.3l-1.8,1.8h-16.6L450.5,238.6z"/>
		</g>
		<g id="TV_1_">
			<g id="Rectangle_16_1_">
				<rect x="423.2" y="250.4" class="st8" width="74" height="10"/>
				<path class="st9" d="M496.7,250.9v9h-73v-9L496.7,250.9 M497.7,249.9h-75v11h75V249.9L497.7,249.9z"/>
			</g>
			<g id="Rectangle_15_1_">
				<rect x="423.2" y="246.4" class="st8" width="74" height="12"/>
				<path class="st9" d="M496.7,246.9v11h-73v-11L496.7,246.9 M497.7,245.9h-75v13h75V245.9L497.7,245.9z"/>
			</g>
			<rect id="Rectangle_17_1_" x="436.2" y="248.3" class="st11" width="48" height="1.8"/>
			<path id="Rectangle_18_x5F_2_1_" class="st11" d="M450.1,248.3h20.3l-1.8-1.8H452L450.1,248.3z"/>
		</g>
		<g id="Kitchen_1_">
			<g id="Rectangle_24_1_">
				<rect x="175.7" y="75.2" class="st8" width="80.8" height="31"/>
				<path class="st9" d="M256,75.7v30h-79.8v-30H256 M257,74.7h-81.8v32H257V74.7L257,74.7z"/>
			</g>
			<g id="Rectangle_24_2_">
				<rect x="175.6" y="75.2" class="st8" width="29.9" height="55.2"/>
				<path class="st9" d="M205,75.7v54.2h-28.9V75.7H205 M206,74.7h-30.9v56.2H206V74.7L206,74.7z"/>
			</g>
			<g id="Rectangle_27">
				<rect x="175.6" y="130.4" class="st8" width="29.9" height="29.9"/>
				<path class="st9" d="M205,130.9v28.9h-28.9v-28.9H205 M206,129.9h-30.9v31H206V129.9L206,129.9z"/>
			</g>
			<g id="Rectangle_27_1_">
				<rect x="175.6" y="160.4" class="st8" width="29.9" height="3.2"/>
				<path class="st9" d="M205,160.9v2.2h-28.9v-2.2H205 M206,159.9h-30.9v4.2H206V159.9L206,159.9z"/>
			</g>
			<g id="Rectangle_27_2_">
				<rect x="203.7" y="130.4" class="st8" width="1.8" height="29.9"/>
				<path class="st9" d="M204.9,130.9v29h-0.7v-29H204.9 M205.9,129.9h-2.7v31h2.8v-31H205.9z"/>
			</g>
			<g id="Sink_3_1_">
				<rect id="Rectangle_28_x5F_2_1_" x="179.2" y="83.9" class="st11" width="21.8" height="34.5"/>
				<path id="Rectangle_29_x5F_2_1_" class="st11" d="M190.1,97.5L190.1,97.5c4.5,0,8.2,3.7,8.2,8.2v1.8c0,4.5-3.7,8.2-8.2,8.2l0,0
					c-4.5,0-8.2-3.7-8.2-8.2v-1.8C182,101.1,185.6,97.5,190.1,97.5z"/>
				<ellipse id="Ellipse_7_x5F_3_1_" class="st11" cx="186.5" cy="107.4" rx="1.7" ry="1.7"/>
				<path id="Vector_2_1_" class="st13" d="M182,85.7v9.1 M184.7,85.7v9.1 M187.4,85.7v9.1 M190.1,85.7v9.1 M192.8,85.7v9.1
					 M195.6,85.7v9.1 M198.3,85.7v9.1"/>
			</g>
			<g id="Stove_1_">
				<g id="Rectangle_25_1_">
					<rect x="227.2" y="75.2" class="st8" width="30.1" height="31"/>
					<path class="st9" d="M256.8,75.7v30h-29.1v-30H256.8 M257.8,74.7h-31.1v32h31.1V74.7L257.8,74.7z"/>
				</g>
				<g id="Rectangle_28_x5F_3_1_">
					<rect x="227.2" y="75.2" class="st8" width="30.1" height="1.8"/>
					<path class="st9" d="M256.8,75.7v0.8h-29.1v-0.8H256.8 M257.8,74.7h-31.1v2.8h31.1V74.7L257.8,74.7z"/>
				</g>
				<g id="Ellipse_7_x5F_4_1_">
					<path class="st8" d="M249.4,88.8c-1.9,0-3.5-1.6-3.5-3.5s1.6-3.5,3.5-3.5s3.5,1.6,3.5,3.5C252.9,87.3,251.3,88.8,249.4,88.8z"
						/>
					<path class="st9" d="M249.4,82.3c1.7,0,3,1.3,3,3s-1.3,3-3,3s-3-1.3-3-3S247.7,82.3,249.4,82.3 M249.4,81.3c-2.2,0-4,1.8-4,4
						s1.8,4,4,4s4-1.8,4-4S251.6,81.3,249.4,81.3L249.4,81.3z"/>
				</g>
				<g id="Ellipse_9_1_">
					<circle class="st8" cx="249.4" cy="97.3" r="4.5"/>
					<path class="st9" d="M249.4,93.3c2.2,0,4,1.8,4,4s-1.8,4-4,4s-4-1.8-4-4S247.2,93.3,249.4,93.3 M249.4,92.3c-2.8,0-5,2.2-5,5
						s2.2,5,5,5s5-2.2,5-5C254.3,94.6,252.1,92.3,249.4,92.3L249.4,92.3z"/>
				</g>
				<g id="Ellipse_10_1_">
					<path class="st8" d="M235.4,89.8c-2.5,0-4.5-2-4.5-4.5s2-4.5,4.5-4.5s4.5,2,4.5,4.5S237.9,89.8,235.4,89.8z"/>
					<path class="st9" d="M235.4,81.3c2.2,0,4,1.8,4,4s-1.8,4-4,4s-4-1.8-4-4S233.2,81.3,235.4,81.3 M235.4,80.3c-2.8,0-5,2.2-5,5
						s2.2,5,5,5s5-2.2,5-5C240.4,82.6,238.1,80.3,235.4,80.3L235.4,80.3z"/>
				</g>
				<g id="Ellipse_8_1_">
					<circle class="st8" cx="235.4" cy="98.3" r="3.5"/>
					<path class="st9" d="M235.4,95.3c1.7,0,3,1.3,3,3s-1.3,3-3,3s-3-1.3-3-3S233.7,95.3,235.4,95.3 M235.4,94.3c-2.2,0-4,1.8-4,4
						s1.8,4,4,4s4-1.8,4-4C239.4,96.1,237.6,94.3,235.4,94.3L235.4,94.3z"/>
				</g>
			</g>
			<path id="Vector_3_1_" class="st13" d="M194,145.9h-7.7 M192.1,149.3l-3.9-6.8 M192.1,142.5l-3.9,6.8"/>
		</g>
	</g>
	<g id="street_anchors">
		<rect id="street_anchor_01" x="589.6" y="235" class="st14" width="10" height="10"/>
	</g>
</g>
<g id="комнаты">
	<g>
		<g>
			<path class="st6" d="M203,216.6c0-1.5,0.9-2.2,2-2.6c0.3-0.1,0.8-0.3,0.8-0.9c0-0.5-0.4-0.6-0.8-0.6c-0.7,0-1.1,0.4-1.6,0.9
				l-0.6-1c0.6-0.6,1.2-1.2,2.1-1.2c0.9,0,1.9,0.5,1.9,1.8c0,1.4-1,1.8-1.8,2.1c-0.7,0.3-1.1,0.6-1.1,1.1v0.1h2.8v1.2H203V216.6z"/>
			<path class="st6" d="M208.6,216c0.4,0,0.8,0.4,0.8,0.9c0,0.5-0.3,0.9-0.8,0.9c-0.4,0-0.7-0.4-0.7-0.9
				C207.9,216.4,208.2,216,208.6,216z"/>
			<path class="st6" d="M210.2,211.5h4.2v1.2l-2.4,4.9h-1.4l2.5-4.8h-2.9V211.5z"/>
		</g>
	</g>
	<g>
		<g>
			<path class="st6" d="M261.4,257.7l1.4-0.8h1v6.1h-1.1v-4.7l-1,0.6L261.4,257.7z"/>
			<path class="st6" d="M265.8,261.3c0.4,0,0.8,0.4,0.8,0.9c0,0.5-0.3,0.9-0.8,0.9c-0.4,0-0.7-0.4-0.7-0.9
				C265.1,261.8,265.4,261.3,265.8,261.3z"/>
			<path class="st6" d="M267.5,262c0-1.5,0.9-2.2,2-2.6c0.3-0.1,0.8-0.3,0.8-0.9c0-0.5-0.4-0.6-0.8-0.6c-0.7,0-1.1,0.4-1.6,0.9
				l-0.6-1c0.6-0.6,1.2-1.2,2.1-1.2c0.9,0,1.9,0.5,1.9,1.8c0,1.4-1,1.8-1.8,2.1c-0.7,0.3-1.1,0.6-1.1,1.1v0.1h2.8v1.2h-3.9V262z"/>
		</g>
	</g>
	<g>
		<g>
			<path class="st6" d="M431.2,172.7c0-1.5,0.9-2.2,2-2.6c0.3-0.1,0.8-0.3,0.8-0.9c0-0.5-0.4-0.6-0.8-0.6c-0.7,0-1.1,0.4-1.6,0.9
				l-0.6-1c0.6-0.6,1.2-1.2,2.1-1.2c0.9,0,1.9,0.5,1.9,1.8c0,1.4-1,1.8-1.8,2.1c-0.7,0.3-1.1,0.6-1.1,1.1v0.1h2.8v1.2h-3.9V172.7z"
				/>
			<path class="st6" d="M438.6,167.4c1.4,0,2.5,1.4,2.5,3.2c0,1.8-1.2,3.2-2.5,3.2c-1.4,0-2.5-1.4-2.5-3.2
				C436.1,168.8,437.2,167.4,438.6,167.4z M438.6,172.7c0.8,0,1.4-0.9,1.4-2c0-1.1-0.7-2-1.4-2c-0.8,0-1.4,0.9-1.4,2
				C437.1,171.7,437.8,172.7,438.6,172.7z"/>
			<path class="st6" d="M442.7,172.1c0.4,0,0.8,0.4,0.8,0.9c0,0.5-0.3,0.9-0.8,0.9c-0.4,0-0.7-0.4-0.7-0.9
				C442,172.5,442.3,172.1,442.7,172.1z"/>
			<path class="st6" d="M444.4,172.7c0-1.5,0.9-2.2,2-2.6c0.3-0.1,0.8-0.3,0.8-0.9c0-0.5-0.4-0.6-0.8-0.6c-0.7,0-1.1,0.4-1.6,0.9
				l-0.6-1c0.6-0.6,1.2-1.2,2.1-1.2c0.9,0,1.9,0.5,1.9,1.8c0,1.4-1,1.8-1.8,2.1c-0.7,0.3-1.1,0.6-1.1,1.1v0.1h2.8v1.2h-3.9V172.7z"
				/>
		</g>
	</g>
	<g>
		<g>
			<path class="st6" d="M367.4,332.7l1.4-0.8h1v6.1h-1.1v-4.7l-1,0.6L367.4,332.7z"/>
			<path class="st6" d="M372.8,334.2h0.7c0.3,0,0.6-0.2,0.6-0.6c0-0.5-0.4-0.7-0.8-0.7c-0.6,0-1.1,0.4-1.6,1l-0.6-0.9
				c0.5-0.6,1.3-1.3,2.2-1.3c0.8,0,1.9,0.5,1.9,1.8c0,0.5-0.3,0.9-0.5,1.1c0.4,0.2,0.9,0.6,0.9,1.5c0,1.4-1.1,2.2-2.4,2.2
				c-0.9,0-1.7-0.4-2.4-1.3l0.6-1c0.5,0.6,1,1,1.8,1c0.7,0,1.3-0.4,1.3-1c0-0.5-0.5-0.6-0.7-0.6h-0.9V334.2z"/>
			<path class="st6" d="M377.2,336.3c0.4,0,0.8,0.4,0.8,0.9c0,0.5-0.3,0.9-0.8,0.9c-0.4,0-0.7-0.4-0.7-0.9
				C376.5,336.7,376.8,336.3,377.2,336.3z"/>
			<path class="st6" d="M378.7,337.2l0.5-1c0.3,0.3,1,0.7,1.9,0.7c0.6,0,1.2-0.3,1.2-1c0-0.6-0.5-0.9-0.9-0.9
				c-0.6,0-1.1,0.3-1.5,0.6l-0.6-0.6v-3.2h3.7v1.2h-2.7v1.4c0.4-0.3,0.7-0.6,1.3-0.6c0.9,0,1.9,0.6,1.9,2c0,1.6-1.2,2.3-2.3,2.3
				C379.9,338.2,379.2,337.6,378.7,337.2z"/>
		</g>
	</g>
	<g>
		<g>
			<path class="st6" d="M239.3,337.2l0.5-1c0.3,0.3,1,0.7,1.9,0.7c0.6,0,1.2-0.3,1.2-1c0-0.6-0.5-0.9-0.9-0.9
				c-0.6,0-1.1,0.3-1.5,0.6l-0.6-0.6v-3.2h3.7v1.2h-2.7v1.4c0.4-0.3,0.7-0.6,1.3-0.6c0.9,0,1.9,0.6,1.9,2c0,1.6-1.2,2.3-2.3,2.3
				C240.5,338.2,239.7,337.6,239.3,337.2z"/>
		</g>
	</g>
</g>
</svg>
