<?xml version="1.0" encoding="utf-8"?>
<!-- Generator: Adobe Illustrator 26.0.3, SVG Export Plug-In . SVG Version: 6.00 Build 0)  -->
<svg version="1.1" xmlns="http://www.w3.org/2000/svg" xmlns:xlink="http://www.w3.org/1999/xlink" x="0px" y="0px"
	 viewBox="0 0 720 480" style="enable-background:new 0 0 720 480;" xml:space="preserve">
<style type="text/css">
	.st0{fill:#DBD4CA;}
	.st1{clip-path:url(#SVGID_00000163047392512037992100000012673803921239749791_);}
	.st2{fill:none;stroke:#C49F8A;stroke-miterlimit:10;}
	.st3{opacity:0.3;clip-path:url(#SVGID_00000052076914289155727570000015805635193346559904_);}
	.st4{opacity:0.7;fill:#C49F8A;enable-background:new    ;}
	.st5{fill:none;stroke:#565440;}
	.st6{fill:#565440;}
	.st7{fill:none;stroke:#565440;stroke-width:1;stroke-miterlimit:4.0002;}
	.st8{fill:#E9E4DC;}
	.st9{fill:#C49F8A;}
	.st10{fill:#E9E4DC;stroke:#C49F8A;stroke-linejoin:round;}
	.st11{fill:#E9E4DC;stroke:#C49F8A;}
	.st12{fill:#E9E4DC;stroke:#C49F8A;stroke-miterlimit:3.9998;}
	.st13{fill:none;stroke:#C49F8A;}
	.st14{fill:none;}
</style>
<g id="_x31__x5F_2">
	<polygon id="Floor" class="st0" points="535.9,70.2 535.9,103.4 550.2,111.8 530,198 528.5,260.6 549.7,270.9 528.3,352.3 
		529,420.1 158.8,420.1 158.8,70.2 	"/>
	<g id="Wet_Floor_1_">
		<g>
			<defs>
				<rect id="SVGID_1_" x="164.1" y="282.2" width="128.7" height="132.4"/>
			</defs>
			<clipPath id="SVGID_00000132804614357961326580000011255824686630734499_">
				<use xlink:href="#SVGID_1_"  style="overflow:visible;"/>
			</clipPath>
			<g style="clip-path:url(#SVGID_00000132804614357961326580000011255824686630734499_);">
				<g>
					<line class="st2" x1="-43.7" y1="341.7" x2="289.8" y2="8.2"/>
					<line class="st2" x1="-54.1" y1="331.3" x2="279.4" y2="-2.2"/>
					<line class="st2" x1="-33.3" y1="352.1" x2="300.2" y2="18.6"/>
					<line class="st2" x1="-22.8" y1="362.5" x2="310.6" y2="29.1"/>
					<line class="st2" x1="-12.4" y1="373" x2="321.1" y2="39.5"/>
					<line class="st2" x1="-2" y1="383.4" x2="331.5" y2="49.9"/>
					<line class="st2" x1="8.4" y1="393.8" x2="341.9" y2="60.3"/>
					<line class="st2" x1="18.8" y1="404.2" x2="352.3" y2="70.7"/>
					<line class="st2" x1="29.3" y1="414.7" x2="362.8" y2="81.2"/>
					<line class="st2" x1="39.7" y1="425.1" x2="373.2" y2="91.6"/>
					<line class="st2" x1="29.3" y1="414.7" x2="362.8" y2="81.2"/>
					<line class="st2" x1="50.1" y1="435.5" x2="383.6" y2="102"/>
					<line class="st2" x1="60.5" y1="445.9" x2="394" y2="112.4"/>
					<line class="st2" x1="71" y1="456.3" x2="404.4" y2="122.9"/>
					<line class="st2" x1="81.4" y1="466.8" x2="414.9" y2="133.3"/>
					<line class="st2" x1="91.8" y1="477.2" x2="425.3" y2="143.7"/>
					<line class="st2" x1="102.2" y1="487.6" x2="435.7" y2="154.1"/>
					<line class="st2" x1="112.6" y1="498" x2="446.1" y2="164.5"/>
					<line class="st2" x1="123.1" y1="508.4" x2="456.5" y2="175"/>
					<line class="st2" x1="112.6" y1="498" x2="446.1" y2="164.5"/>
					<line class="st2" x1="133.5" y1="518.9" x2="467" y2="185.4"/>
					<line class="st2" x1="143.9" y1="529.3" x2="477.4" y2="195.8"/>
					<line class="st2" x1="154.3" y1="539.7" x2="487.8" y2="206.2"/>
					<line class="st2" x1="164.7" y1="550.1" x2="498.2" y2="216.6"/>
					<line class="st2" x1="175.2" y1="560.6" x2="508.7" y2="227.1"/>
					<line class="st2" x1="185.6" y1="571" x2="519.1" y2="237.5"/>
					<line class="st2" x1="196" y1="581.4" x2="529.5" y2="247.9"/>
					<line class="st2" x1="206.4" y1="591.8" x2="539.9" y2="258.3"/>
					<line class="st2" x1="196" y1="581.4" x2="529.5" y2="247.9"/>
					<line class="st2" x1="216.9" y1="602.2" x2="550.3" y2="268.8"/>
					<line class="st2" x1="227.3" y1="612.7" x2="560.8" y2="279.2"/>
					<line class="st2" x1="237.7" y1="623.1" x2="571.2" y2="289.6"/>
					<line class="st2" x1="248.1" y1="633.5" x2="581.6" y2="300"/>
					<line class="st2" x1="258.5" y1="643.9" x2="592" y2="310.4"/>
					<line class="st2" x1="269" y1="654.3" x2="602.4" y2="320.9"/>
					<line class="st2" x1="279.4" y1="664.8" x2="612.9" y2="331.3"/>
				</g>
				<g>
					<line class="st2" x1="289.8" y1="654.3" x2="-43.7" y2="320.9"/>
					<line class="st2" x1="279.4" y1="664.8" x2="-54.1" y2="331.3"/>
					<line class="st2" x1="300.2" y1="643.9" x2="-33.3" y2="310.4"/>
					<line class="st2" x1="310.6" y1="633.5" x2="-22.8" y2="300"/>
					<line class="st2" x1="321.1" y1="623.1" x2="-12.4" y2="289.6"/>
					<line class="st2" x1="331.5" y1="612.7" x2="-2" y2="279.2"/>
					<line class="st2" x1="341.9" y1="602.2" x2="8.4" y2="268.8"/>
					<line class="st2" x1="352.3" y1="591.8" x2="18.8" y2="258.3"/>
					<line class="st2" x1="362.8" y1="581.4" x2="29.3" y2="247.9"/>
					<line class="st2" x1="373.2" y1="571" x2="39.7" y2="237.5"/>
					<line class="st2" x1="362.8" y1="581.4" x2="29.3" y2="247.9"/>
					<line class="st2" x1="383.6" y1="560.6" x2="50.1" y2="227.1"/>
					<line class="st2" x1="394" y1="550.1" x2="60.5" y2="216.6"/>
					<line class="st2" x1="404.4" y1="539.7" x2="71" y2="206.2"/>
					<line class="st2" x1="414.9" y1="529.3" x2="81.4" y2="195.8"/>
					<line class="st2" x1="425.3" y1="518.9" x2="91.8" y2="185.4"/>
					<line class="st2" x1="435.7" y1="508.4" x2="102.2" y2="175"/>
					<line class="st2" x1="446.1" y1="498" x2="112.6" y2="164.5"/>
					<line class="st2" x1="456.5" y1="487.6" x2="123.1" y2="154.1"/>
					<line class="st2" x1="446.1" y1="498" x2="112.6" y2="164.5"/>
					<line class="st2" x1="467" y1="477.2" x2="133.5" y2="143.7"/>
					<line class="st2" x1="477.4" y1="466.8" x2="143.9" y2="133.3"/>
					<line class="st2" x1="487.8" y1="456.3" x2="154.3" y2="122.9"/>
					<line class="st2" x1="498.2" y1="445.9" x2="164.7" y2="112.4"/>
					<line class="st2" x1="508.6" y1="435.5" x2="175.2" y2="102"/>
					<line class="st2" x1="519.1" y1="425.1" x2="185.6" y2="91.6"/>
					<line class="st2" x1="529.5" y1="414.7" x2="196" y2="81.2"/>
					<line class="st2" x1="539.9" y1="404.2" x2="206.4" y2="70.7"/>
					<line class="st2" x1="529.5" y1="414.7" x2="196" y2="81.2"/>
					<line class="st2" x1="550.3" y1="393.8" x2="216.9" y2="60.3"/>
					<line class="st2" x1="560.8" y1="383.4" x2="227.3" y2="49.9"/>
					<line class="st2" x1="571.2" y1="373" x2="237.7" y2="39.5"/>
					<line class="st2" x1="581.6" y1="362.5" x2="248.1" y2="29.1"/>
					<line class="st2" x1="592" y1="352.1" x2="258.5" y2="18.6"/>
					<line class="st2" x1="602.4" y1="341.7" x2="269" y2="8.2"/>
					<line class="st2" x1="612.9" y1="331.3" x2="279.4" y2="-2.2"/>
				</g>
			</g>
		</g>
		<g>
			<defs>
				<rect id="SVGID_00000152954899711647244820000012629980192169004465_" x="164.1" y="282.2" width="128.7" height="132.4"/>
			</defs>
			<clipPath id="SVGID_00000049190827805707181650000004790994557909879479_">
				<use xlink:href="#SVGID_00000152954899711647244820000012629980192169004465_"  style="overflow:visible;"/>
			</clipPath>
			<g style="opacity:0.3;clip-path:url(#SVGID_00000049190827805707181650000004790994557909879479_);">
				<rect x="118.3" y="159.8" class="st4" width="322.2" height="322.2"/>
			</g>
		</g>
	</g>
	<path id="Doors" class="st5" d="M242.6,286.8c0,5.4,1,9.9,3,14.8c2,4.9,4.9,9.4,8.4,12.8c3.5,3.9,7.9,6.9,12.8,8.9
		c4.9,2,9.9,3,15.3,3v-39.5 M370.9,247.4c0,5.4-1,9.9-3,14.8c-2,4.9-4.9,9.4-8.4,12.8c-3.5,3.9-7.9,6.9-12.8,8.9
		c-4.9,2-9.9,3-15.3,3v-39.5 M159,242.5c-6.4,0-12.6-1.5-18.5-3.9c-5.9-2.5-11.8-5.9-16.3-10.8c-4.4-4.4-8.4-9.9-10.8-15.8
		c-2.5-5.9-3.9-12.3-3.9-18.7H159"/>
	<g id="Walls">
		<path class="st6" d="M538.5,362.9v-12H509l0,54.3H296.9V286.9h29.6v-39.5h4.9v-4.9h-34.5v4.9h24.7v34.5h-39.5v4.9h9.9v118.4h-101
			l0-17.5h-17.3V286.9h69v-4.9h-69v-39.5h-14.8V420h379.7L538.5,362.9L538.5,362.9z M173.6,392.6H186v12.6h-12.4V392.6z"/>
		<path class="st6" d="M173.6,162.8h29.1v-4.9h-29.1V74.8h82.8v17.3c0,0,0.3,0,0.8,0h20.2V74.8H509v36.5h26.8l22,4.9l0,0l0,0
			l3.5-14.3l-22.7-5.1l0-36.8h0v0H504v0H158.8v133.1h14.8V162.8z M272.5,87.2h-11.2V74.8h11.2V87.2z"/>
		<polygon class="st6" points="538.4,210.7 542.3,193.6 518.3,188.2 513.8,206.9 513.8,242.5 370.9,242.5 370.9,247.4 513.8,247.4 
			513.8,272.1 538.4,272.1 538.4,272.1 556.1,276.1 559.6,261.8 538.4,257 		"/>
	</g>
	<g id="Windows">
		
			<rect x="498.9" y="306.6" transform="matrix(0.2515 -0.9679 0.9679 0.2515 106.3253 758.1501)" class="st7" width="88.8" height="7.4"/>
		<polygon class="st5" points="536.9,195.7 529.8,193.9 551,111.9 558.1,113.7 		"/>
	</g>
	<g id="Furniture_2_">
		<g>
			<g>
				<rect x="203.9" y="372.2" class="st8" width="87.5" height="32.9"/>
				<path class="st9" d="M291.1,372.7v31.9h-86.7v-31.9H291.1 M292.1,371.7h-88.7v33.9h88.7V371.7L292.1,371.7z"/>
			</g>
			<g>
				<g>
					<path class="st10" d="M211,388.7c0,6.8,5.9,12.1,12.6,11.5c7.4-0.7,16.8-1.3,23.8-1.3c6.9,0,16.3,0.7,23.8,1.3
						c6.8,0.6,12.6-4.7,12.6-11.5s-5.9-12.1-12.6-11.5c-7.4,0.7-16.8,1.3-23.8,1.3c-6.9,0-16.3-0.7-23.8-1.3
						C216.9,376.5,211,381.9,211,388.7z"/>
					<ellipse class="st10" cx="222.9" cy="388.7" rx="1.4" ry="1.4"/>
				</g>
			</g>
		</g>
		<g>
			<g>
				<rect x="423.9" y="306" class="st8" width="79.7" height="99.1"/>
				<path class="st9" d="M424.4,306.5h78.7v98.1h-78.7V306.5 M423.4,305.5v100.1h80.7V305.5H423.4L423.4,305.5z"/>
			</g>
			<rect x="430.3" y="373.7" class="st11" width="31.5" height="24.7"/>
			<rect x="465.7" y="373.7" class="st11" width="31.5" height="24.7"/>
			<polygon class="st12" points="434.2,383.8 456.9,390.2 463,366.3 440.3,359.9 			"/>
			<polygon class="st12" points="464.7,366.3 470.8,390.2 493.5,383.8 487.4,359.9 			"/>
			<g>
				<polygon class="st8" points="423.9,379 423.9,305.1 503.6,305.1 503.6,384.2 471.8,386.3 				"/>
				<path class="st9" d="M424.4,305.6h78.7v77.5v0.6l-31.2,2l-47.4-7.2L424.4,305.6 M423.4,304.6v74.3v0.5l48.4,7.4l32.3-2.1v-1.6
					v-78.5H423.4L423.4,304.6z"/>
			</g>
			<polyline class="st13" points="503,382.1 471.5,382.1 424.3,378 			"/>
		</g>
		<g>
			<rect x="174.1" y="287.6" class="st8" width="10.8" height="47.9"/>
			<path class="st9" d="M184.4,288.1V335h-9.8v-46.9H184.4 M185.4,287.1h-11.8V336h11.8V287.1L185.4,287.1z"/>
		</g>
		<g>
			<polygon class="st8" points="191.4,405.1 191.4,387.2 174,387.2 174,371.2 203.9,371.2 203.9,405.1 			"/>
			<path class="st9" d="M203.4,371.7V388v16.6h-11.5v-16.9v-1h-1h-16.3v-15h16.3H203.4 M204.4,370.7h-13.5h-17.3v17h17.3v17.9h13.5
				V388V370.7L204.4,370.7z"/>
		</g>
		<g>
			<path class="st11" d="M457.8,109.5c0,1.5-1.2,2.6-2.6,2.6h-39.6c-1.5,0-2.6-1.2-2.6-2.6v-26h44.8L457.8,109.5L457.8,109.5z"/>
			<path class="st11" d="M500.6,109.5c0,1.5-1.2,2.6-2.6,2.6h-37.6c-1.5,0-2.6-1.2-2.6-2.6v-26h42.8L500.6,109.5L500.6,109.5z"/>
			<polygon class="st11" points="500.6,114.3 500.6,83.6 456.8,83.6 413,83.6 413,114.3 404.8,114.3 404.8,75.3 508.8,75.3 
				508.8,114.3 			"/>
		</g>
		<g>
			<path class="st8" d="M340.4,99c-5.8,0-10.5-4.7-10.5-10.5S334.6,78,340.4,78s10.5,4.7,10.5,10.5S346.1,99,340.4,99z"/>
			<path class="st9" d="M340.4,78.5c2.7,0,5.2,1,7,2.9s2.9,4.4,2.9,7c0,5.5-4.5,10-10,10s-10-4.5-10-10
				C330.4,83,334.9,78.5,340.4,78.5 M340.4,77.5c-6.1,0-11,4.9-11,11s4.9,11,11,11s11-4.9,11-11C351.3,82.4,346.4,77.5,340.4,77.5
				L340.4,77.5z"/>
		</g>
		<g>
			<circle class="st8" cx="340.4" cy="122.6" r="10.5"/>
			<path class="st9" d="M340.4,112.7c2.7,0,5.2,1,7,2.9s2.9,4.4,2.9,7c0,5.5-4.5,10-10,10s-10-4.5-10-10
				C330.4,117.1,334.9,112.7,340.4,112.7 M340.4,111.7c-6.1,0-11,4.9-11,11c0,6.1,4.9,11,11,11s11-4.9,11-11
				C351.3,116.6,346.4,111.7,340.4,111.7L340.4,111.7z"/>
		</g>
		<g>
			<path class="st8" d="M340.4,167.6c-5.8,0-10.5-4.7-10.5-10.5s4.7-10.5,10.5-10.5s10.5,4.7,10.5,10.5S346.1,167.6,340.4,167.6z"/>
			<path class="st9" d="M340.4,147.2c2.7,0,5.2,1,7,2.9s2.9,4.4,2.9,7c0,5.5-4.5,10-10,10s-10-4.5-10-10
				C330.4,151.7,334.9,147.2,340.4,147.2 M340.4,146.2c-6.1,0-11,4.9-11,11s4.9,11,11,11s11-4.9,11-11
				C351.3,151.1,346.4,146.2,340.4,146.2L340.4,146.2z"/>
		</g>
		<g>
			<g>
				<rect x="277.9" y="75.3" class="st8" width="44.1" height="93.6"/>
				<path class="st9" d="M321.6,75.8v92.6h-43.1V75.8H321.6 M322.6,74.8h-45.1v94.6h45.1V74.8L322.6,74.8z"/>
			</g>
			<g>
				<rect x="304.8" y="75.3" class="st8" width="3.7" height="93.6"/>
				<path class="st9" d="M308,75.8v92.6h-2.7V75.8H308 M309,74.8h-4.7v94.6h4.7V74.8L309,74.8z"/>
			</g>
		</g>
		<g>
			<g>
				<rect x="314.8" y="287.6" class="st8" width="11.3" height="117.4"/>
				<path class="st9" d="M315.3,288.1h10.3v116.4h-10.3V288.1 M314.3,287.1v118.4h12.3V287.1H314.3L314.3,287.1z"/>
			</g>
			<g>
				<rect x="297.5" y="287.6" class="st8" width="26.8" height="117.4"/>
				<path class="st9" d="M298,288.1h25.8v116.4H298V288.1 M297,287.1v118.4h27.8V287.1H297L297,287.1z"/>
			</g>
			<path class="st11" d="M297.9,287.6l26,117.8"/>
		</g>
		<g>
			<g>
				<rect x="174" y="169.3" class="st8" width="24" height="11.3"/>
				<path class="st9" d="M174.5,169.8h23v10.3h-23V169.8 M173.5,168.8v12.3h25v-12.3H173.5L173.5,168.8z"/>
			</g>
			<g>
				<rect x="174" y="163.4" class="st8" width="24" height="15.4"/>
				<path class="st9" d="M174.5,163.9h23v14.4h-23V163.9 M173.5,162.9v16.4h25v-16.4H173.5L173.5,162.9z"/>
			</g>
			<path class="st11" d="M198.4,163.4l-24.8,15.4"/>
		</g>
		<g>
			<g>
				<rect x="174.1" y="253.5" class="st8" width="66.8" height="11.3"/>
				<path class="st9" d="M174.6,254h65.8v10.3h-65.8V254 M173.6,253v12.3h67.8V253H173.6L173.6,253z"/>
			</g>
			<g>
				<rect x="174.1" y="255.2" class="st8" width="66.8" height="26.5"/>
				<path class="st9" d="M174.6,255.7h65.8v25.5h-65.8V255.7 M173.6,254.7v27.5h67.8v-27.5L173.6,254.7L173.6,254.7z"/>
			</g>
			<path class="st11" d="M173.9,281.3l67.4-25.7"/>
		</g>
		<g>
			<g>
				<rect x="297.5" y="248.1" class="st8" width="23.7" height="33.6"/>
				<path class="st9" d="M320.7,248.6v32.6H298v-32.6H320.7 M321.7,247.6H297v34.6h24.7V247.6L321.7,247.6z"/>
			</g>
			<g>
				<line class="st13" x1="297.8" y1="248.2" x2="305.5" y2="259.3"/>
			</g>
			<g>
				<line class="st13" x1="321" y1="248.2" x2="313.3" y2="259.3"/>
			</g>
			<g>
				<line class="st13" x1="297.8" y1="281.5" x2="305.5" y2="270.4"/>
			</g>
			<g>
				<line class="st13" x1="321" y1="281.5" x2="313.3" y2="270.4"/>
			</g>
		</g>
		<g id="Toilet_3_">
			<g id="Rectangle_21_3_">
				<rect x="185.1" y="297.1" class="st8" width="8.6" height="26.9"/>
				<path class="st9" d="M193.2,297.6v25.9h-7.6v-25.9H193.2 M194.2,296.6h-9.6v27.9h9.6V296.6L194.2,296.6z"/>
			</g>
			<path id="Rectangle_19_x5F_2_3_" class="st11" d="M206.8,320c4.1,0.3,7.5-2.9,7.5-7l0,0c0-4.1-3.4-7.3-7.5-7l-13,0.9v12.3
				L206.8,320z"/>
			<path id="Rectangle_18_x5F_13_3_" class="st11" d="M206.8,318.6c3.3,0.3,6.1-2.3,6.1-5.6l0,0c0-3.3-2.8-5.9-6.1-5.6l-8.9,0.8v9.5
				L206.8,318.6z"/>
			<ellipse id="Ellipse_6_x5F_2_3_" class="st11" cx="202" cy="313" rx="1.4" ry="1.4"/>
		</g>
		<g id="Sink_2_2_">
			<g id="Rectangle_16_x5F_11">
				<rect x="174" y="335.5" class="st8" width="23.9" height="35.7"/>
				<path class="st9" d="M197.5,336v34.7h-22.9V336H197.5 M198.5,335h-24.9v36.7h24.9V335L198.5,335z"/>
			</g>
			<path id="Rectangle_19_x5F_5_2_" class="st11" d="M186,366.2L186,366.2c4.2,0,7.6-3.4,7.6-7.6v-10.8c0-4.2-3.4-7.6-7.6-7.6l0,0
				c-4.2,0-7.6,3.4-7.6,7.6v10.8C178.4,362.8,181.8,366.2,186,366.2z"/>
			<circle id="Ellipse_7_x5F_2" class="st11" cx="181.9" cy="353.2" r="1.4"/>
		</g>
		<g id="TV">
			<g id="Rectangle_16">
				<rect x="424.5" y="228.1" class="st8" width="74.9" height="10.1"/>
				<path class="st9" d="M498.9,228.6v9.1H425v-9.1H498.9 M499.9,227.6H424v11.1h75.9V227.6L499.9,227.6z"/>
			</g>
			<g id="Rectangle_15">
				<rect x="424.5" y="230.1" class="st8" width="74.9" height="12.1"/>
				<path class="st9" d="M498.9,230.6v11.1H425v-11.1H498.9 M499.9,229.6H424v13.1h75.9V229.6L499.9,229.6z"/>
			</g>
			<rect id="Rectangle_17" x="437.7" y="238.4" class="st11" width="48.6" height="1.9"/>
			<path id="Rectangle_18_x5F_2" class="st11" d="M451.7,240.3h20.5l-1.9,1.9h-16.8L451.7,240.3z"/>
		</g>
		<g id="TV_1_">
			<g id="Rectangle_16_1_">
				<rect x="424.5" y="252.1" class="st8" width="74.9" height="10.1"/>
				<path class="st9" d="M498.9,252.6v9.1H425v-9.1H498.9 M499.9,251.6H424v11.1h75.9V251.6L499.9,251.6z"/>
			</g>
			<g id="Rectangle_15_1_">
				<rect x="424.5" y="248.1" class="st8" width="74.9" height="12.1"/>
				<path class="st9" d="M498.9,248.6v11.1H425v-11.1H498.9 M499.9,247.6H424v13.1h75.9V247.6L499.9,247.6z"/>
			</g>
			<rect id="Rectangle_17_1_" x="437.7" y="250" class="st11" width="48.6" height="1.9"/>
			<path id="Rectangle_18_x5F_2_1_" class="st11" d="M451.7,250h20.5l-1.9-1.9h-16.8L451.7,250z"/>
		</g>
		<g id="Kitchen_1_">
			<g id="Rectangle_24_1_">
				<rect x="174.2" y="75.3" class="st8" width="81.8" height="31.3"/>
				<path class="st9" d="M255.5,75.8v30.3h-80.8V75.8H255.5 M256.5,74.8h-82.8v32.3h82.8V74.8L256.5,74.8z"/>
			</g>
			<g id="Rectangle_24_2_">
				<rect x="174.1" y="75.3" class="st8" width="30.3" height="55"/>
				<path class="st9" d="M203.9,75.8v54h-29.3v-54H203.9 M204.9,74.8h-31.3v56h31.3V74.8L204.9,74.8z"/>
			</g>
			<g id="Rectangle_27">
				<rect x="174.1" y="127.1" class="st8" width="30.3" height="30.3"/>
				<path class="st9" d="M203.9,127.6v29.3h-29.3v-29.3L203.9,127.6 M204.9,126.6h-31.3v31.3h31.3V126.6L204.9,126.6z"/>
			</g>
			<g id="Rectangle_27_2_">
				<rect x="202.8" y="127.1" class="st8" width="1.6" height="30.3"/>
				<path class="st9" d="M203.9,127.6v29.3h-0.6v-29.3L203.9,127.6 M204.9,126.6h-2.6v31.3h2.6V126.6L204.9,126.6z"/>
			</g>
			<g id="Sink_3_1_">
				<rect id="Rectangle_28_x5F_2_1_" x="177.8" y="84.1" class="st11" width="22" height="34.9"/>
				<path id="Rectangle_29_x5F_2_1_" class="st11" d="M188.8,97.9L188.8,97.9c4.6,0,8.3,3.7,8.3,8.3v1.8c0,4.6-3.7,8.3-8.3,8.3l0,0
					c-4.6,0-8.3-3.7-8.3-8.3v-1.8C180.6,101.6,184.2,97.9,188.8,97.9z"/>
				<ellipse id="Ellipse_7_x5F_3_1_" class="st11" cx="185.1" cy="107.1" rx="1.4" ry="1.4"/>
				<path id="Vector_2_1_" class="st13" d="M180.6,86v9.2 M183.3,86v9.2 M186.1,86v9.2 M188.8,86v9.2 M191.6,86v9.2 M194.3,86v9.2
					 M197.1,86v9.2"/>
			</g>
			<g id="Stove_1_">
				<g id="Rectangle_25_1_">
					<rect x="225.5" y="75.3" class="st8" width="30.5" height="31.3"/>
					<path class="st9" d="M255.5,75.8v30.3H226V75.8H255.5 M256.5,74.8H225v32.3h31.5V74.8L256.5,74.8z"/>
				</g>
				<g id="Rectangle_28_x5F_3_1_">
					<rect x="225.5" y="75.3" class="st8" width="30.5" height="1.8"/>
					<path class="st9" d="M255.5,75.8v0.8H226v-0.8H255.5 M256.5,74.8H225v2.8h31.5V74.8L256.5,74.8z"/>
				</g>
				<g id="Ellipse_7_x5F_4_1_">
					<circle class="st8" cx="247.9" cy="85.6" r="3.5"/>
					<path class="st9" d="M247.9,82.6c1.7,0,3,1.4,3,3s-1.4,3-3,3s-3-1.4-3-3S246.3,82.6,247.9,82.6 M247.9,81.6c-2.2,0-4,1.8-4,4
						s1.8,4,4,4s4-1.8,4-4C252,83.4,250.2,81.6,247.9,81.6L247.9,81.6z"/>
				</g>
				<g id="Ellipse_9_1_">
					<path class="st8" d="M247.9,102.3c-2.5,0-4.6-2-4.6-4.6s2-4.6,4.6-4.6c2.5,0,4.6,2,4.6,4.6S250.4,102.3,247.9,102.3z"/>
					<path class="st9" d="M247.9,93.7c2.2,0,4.1,1.8,4.1,4.1s-1.8,4.1-4.1,4.1s-4.1-1.8-4.1-4.1S245.7,93.7,247.9,93.7 M247.9,92.7
						c-2.8,0-5.1,2.3-5.1,5.1s2.3,5.1,5.1,5.1s5.1-2.3,5.1-5.1S250.7,92.7,247.9,92.7L247.9,92.7z"/>
				</g>
				<g id="Ellipse_10_1_">
					<circle class="st8" cx="233.8" cy="85.6" r="4.6"/>
					<path class="st9" d="M233.8,81.6c2.2,0,4.1,1.8,4.1,4.1c0,2.2-1.8,4.1-4.1,4.1s-4.1-1.8-4.1-4.1S231.6,81.6,233.8,81.6
						 M233.8,80.6c-2.8,0-5.1,2.3-5.1,5.1c0,2.8,2.3,5.1,5.1,5.1s5.1-2.3,5.1-5.1C238.8,82.8,236.6,80.6,233.8,80.6L233.8,80.6z"/>
				</g>
				<g id="Ellipse_8_1_">
					<circle class="st8" cx="233.8" cy="98.8" r="3.5"/>
					<path class="st9" d="M233.8,95.7c1.7,0,3,1.4,3,3s-1.4,3-3,3s-3-1.4-3-3S232.1,95.7,233.8,95.7 M233.8,94.7c-2.2,0-4,1.8-4,4
						s1.8,4,4,4s4-1.8,4-4S236,94.7,233.8,94.7L233.8,94.7z"/>
				</g>
			</g>
			<path id="Vector_3_1_" class="st13" d="M193.2,142.8h-7.8 M191.2,146.2l-3.9-6.8 M191.2,139.3l-3.9,6.8"/>
		</g>
	</g>
	<g id="street_anchors">
		<rect id="street_anchor_01" x="591.1" y="235" class="st14" width="10" height="10"/>
	</g>
</g>
<g id="комнаты">
	<g>
		<g>
			<path class="st6" d="M190.6,219.9c0-1.5,0.9-2.2,2-2.6c0.3-0.1,0.8-0.3,0.8-0.9c0-0.5-0.4-0.6-0.8-0.6c-0.7,0-1.1,0.4-1.6,0.9
				l-0.6-1c0.6-0.6,1.2-1.2,2.1-1.2c0.9,0,1.9,0.5,1.9,1.8c0,1.4-1,1.8-1.8,2.1c-0.7,0.3-1.1,0.6-1.1,1.1v0.1h2.8v1.2h-3.9V219.9z"
				/>
			<path class="st6" d="M196.3,219.3c0.4,0,0.8,0.4,0.8,0.9c0,0.5-0.3,0.9-0.8,0.9c-0.4,0-0.7-0.4-0.7-0.9
				C195.6,219.7,195.9,219.3,196.3,219.3z"/>
			<path class="st6" d="M198,219.1c0-0.8,0.4-1.4,1-1.6c-0.4-0.2-0.7-0.6-0.7-1.2c0-1.1,1.2-1.7,2.1-1.7c0.9,0,2.1,0.5,2.1,1.7
				c0,0.6-0.2,1-0.7,1.2c0.5,0.2,1,0.7,1,1.6c0,1.3-1.1,2-2.3,2C199.1,221.1,198,220.4,198,219.1z M201.5,219c0-0.6-0.6-0.9-1.2-0.9
				c-0.5,0-1.2,0.3-1.2,0.9c0,0.6,0.6,0.9,1.2,0.9C200.9,219.9,201.5,219.6,201.5,219z M201.2,216.4c0-0.5-0.5-0.7-0.9-0.7
				c-0.4,0-0.9,0.2-0.9,0.7c0,0.4,0.3,0.6,0.9,0.6C200.9,217.1,201.2,216.9,201.2,216.4z"/>
		</g>
	</g>
	<g>
		<g>
			<path class="st6" d="M417.2,180.7l1.4-0.8h1v6.1h-1.1v-4.7l-1,0.6L417.2,180.7z"/>
			<path class="st6" d="M421.5,184.7c0.4,0.2,0.8,0.4,1.3,0.4c0.8,0,1.6-0.7,1.6-1.9c-0.4,0.4-1,0.9-1.7,0.9c-1.2,0-1.9-1-1.9-2
				c0-1.3,0.9-2.2,2.1-2.2c1.3,0,2.5,1.1,2.5,3.1c0,2.1-1.3,3.4-2.6,3.4c-0.8,0-1.4-0.4-1.8-0.5L421.5,184.7z M424.3,182.2
				c-0.2-0.8-0.8-1.3-1.4-1.3c-0.6,0-1,0.5-1,1c0,0.4,0.2,0.8,0.9,0.8C423.4,182.8,423.9,182.5,424.3,182.2z"/>
			<path class="st6" d="M427.1,184.4c0.4,0,0.8,0.4,0.8,0.9c0,0.5-0.3,0.9-0.8,0.9c-0.4,0-0.7-0.4-0.7-0.9
				C426.3,184.8,426.7,184.4,427.1,184.4z"/>
			<path class="st6" d="M432.7,181.3c-0.4-0.2-0.8-0.4-1.3-0.4c-0.8,0-1.6,0.7-1.6,2c0.4-0.4,1-0.9,1.7-0.9c1.2,0,1.9,1,1.9,1.9
				c0,1.3-0.9,2.2-2.1,2.2c-1.3,0-2.5-1.1-2.5-3.1c0-2.1,1.3-3.4,2.6-3.4c0.8,0,1.4,0.4,1.8,0.5L432.7,181.3z M429.9,183.7
				c0.2,0.8,0.8,1.3,1.4,1.3c0.6,0,1-0.5,1-1c0-0.4-0.2-0.8-0.9-0.8C430.8,183.1,430.3,183.4,429.9,183.7z"/>
		</g>
	</g>
	<g>
		<g>
			<path class="st6" d="M262.5,265.1l1.4-0.8h1v6.1h-1.1v-4.7l-1,0.6L262.5,265.1z"/>
			<path class="st6" d="M266.9,268.8c0.4,0,0.8,0.4,0.8,0.9c0,0.5-0.3,0.9-0.8,0.9c-0.4,0-0.7-0.4-0.7-0.9
				C266.2,269.2,266.5,268.8,266.9,268.8z"/>
			<path class="st6" d="M268.3,265.1l1.4-0.8h1v6.1h-1.1v-4.7l-1,0.6L268.3,265.1z"/>
		</g>
	</g>
	<g>
		<g>
			<path class="st6" d="M368.6,334.6l1.4-0.8h1v6.1h-1.1v-4.7l-1,0.6L368.6,334.6z"/>
			<path class="st6" d="M374,336.2h0.7c0.3,0,0.6-0.2,0.6-0.6c0-0.5-0.4-0.7-0.8-0.7c-0.6,0-1.1,0.4-1.6,1l-0.6-0.9
				c0.5-0.6,1.3-1.3,2.2-1.3c0.8,0,1.9,0.5,1.9,1.8c0,0.5-0.3,0.9-0.5,1.1c0.4,0.2,0.9,0.6,0.9,1.5c0,1.4-1.1,2.2-2.4,2.2
				c-0.9,0-1.7-0.4-2.4-1.3l0.6-1c0.5,0.6,1,1,1.8,1c0.7,0,1.3-0.4,1.3-1c0-0.5-0.5-0.6-0.7-0.6H374V336.2z"/>
			<path class="st6" d="M378.4,338.3c0.4,0,0.8,0.4,0.8,0.9c0,0.5-0.3,0.9-0.8,0.9c-0.4,0-0.7-0.4-0.7-0.9
				C377.7,338.7,378,338.3,378.4,338.3z"/>
			<path class="st6" d="M379.8,334.6l1.4-0.8h1v6.1h-1.1v-4.7l-1,0.6L379.8,334.6z"/>
		</g>
	</g>
	<g>
		<g>
			<path class="st6" d="M237,344.4h-0.8v1.3h-1.1v-1.3h-3.2v-0.9l3.3-3.9h1v3.7h0.8V344.4z M233.4,343.3h1.6v-2H235
				C234.5,341.9,233.9,342.6,233.4,343.3L233.4,343.3z"/>
			<path class="st6" d="M238.5,344c0.4,0,0.8,0.4,0.8,0.9c0,0.5-0.3,0.9-0.8,0.9c-0.4,0-0.7-0.4-0.7-0.9
				C237.8,344.4,238.1,344,238.5,344z"/>
			<path class="st6" d="M240.9,344.3c0.4,0.2,0.8,0.4,1.3,0.4c0.8,0,1.6-0.7,1.6-1.9c-0.4,0.4-1,0.9-1.7,0.9c-1.2,0-1.9-1-1.9-2
				c0-1.3,0.9-2.2,2.1-2.2c1.3,0,2.5,1.1,2.5,3.1c0,2.1-1.3,3.4-2.6,3.4c-0.8,0-1.4-0.4-1.8-0.5L240.9,344.3z M243.7,341.8
				c-0.2-0.8-0.8-1.3-1.4-1.3c-0.6,0-1,0.5-1,1c0,0.4,0.2,0.8,0.9,0.8C242.7,342.5,243.3,342.1,243.7,341.8z"/>
		</g>
	</g>
</g>
</svg>
