<?xml version="1.0" encoding="utf-8"?>
<!-- Generator: Adobe Illustrator 26.0.3, SVG Export Plug-In . SVG Version: 6.00 Build 0)  -->
<svg version="1.1" xmlns="http://www.w3.org/2000/svg" xmlns:xlink="http://www.w3.org/1999/xlink" x="0px" y="0px"
	 viewBox="0 0 720 480" style="enable-background:new 0 0 720 480;" xml:space="preserve">
<style type="text/css">
	.st0{fill:#DBD4CA;}
	.st1{clip-path:url(#SVGID_00000044139057676479015010000007328132323228199352_);}
	.st2{fill:none;stroke:#C49F8A;stroke-miterlimit:10;}
	.st3{opacity:0.3;clip-path:url(#SVGID_00000165212174785294167190000014448011737265656221_);}
	.st4{opacity:0.7;fill:#C49F8A;enable-background:new    ;}
	.st5{fill:none;stroke:#565440;}
	.st6{fill:#565440;}
	.st7{fill:#E9E4DC;}
	.st8{fill:#C49F8A;}
	.st9{fill:#E9E4DC;stroke:#C49F8A;stroke-linejoin:round;}
	.st10{fill:#E9E4DC;stroke:#C49F8A;}
	.st11{fill:#E9E4DC;stroke:#C49F8A;stroke-miterlimit:3.9998;}
	.st12{fill:none;stroke:#C49F8A;}
	.st13{fill:#E9E4DC;stroke:#C49F8A;stroke-width:1;stroke-miterlimit:4;}
	.st14{fill:none;}
</style>
<g id="_x31__x5F_2">
	<polygon id="Floor_1_" class="st0" points="244.1,80 247.8,68.3 302,80.8 403.2,80.8 407.5,67.3 480.8,84.2 472.5,120.8 
		472.5,230.2 485.1,233.4 470.5,294.6 470.5,331.8 484.5,335.7 471.1,392.7 471.1,415.2 228.3,415.2 228.3,80 	"/>
	<g id="Wet_Floor_1_">
		<g>
			<defs>
				<rect id="SVGID_1_" x="231.3" y="199.1" width="74.6" height="139.1"/>
			</defs>
			<clipPath id="SVGID_00000060716213505839181110000003609253261920953762_">
				<use xlink:href="#SVGID_1_"  style="overflow:visible;"/>
			</clipPath>
			<g style="clip-path:url(#SVGID_00000060716213505839181110000003609253261920953762_);">
				<g>
					<line class="st2" x1="28" y1="291.7" x2="361.4" y2="-41.7"/>
					<line class="st2" x1="17.5" y1="281.3" x2="351" y2="-52.2"/>
					<line class="st2" x1="38.4" y1="302.2" x2="371.9" y2="-31.3"/>
					<line class="st2" x1="48.8" y1="312.6" x2="382.3" y2="-20.9"/>
					<line class="st2" x1="59.2" y1="323" x2="392.7" y2="-10.5"/>
					<line class="st2" x1="69.7" y1="333.4" x2="403.1" y2="-0.1"/>
					<line class="st2" x1="80.1" y1="343.8" x2="413.6" y2="10.4"/>
					<line class="st2" x1="90.5" y1="354.3" x2="424" y2="20.8"/>
					<line class="st2" x1="100.9" y1="364.7" x2="434.4" y2="31.2"/>
					<line class="st2" x1="111.3" y1="375.1" x2="444.8" y2="41.6"/>
					<line class="st2" x1="100.9" y1="364.7" x2="434.4" y2="31.2"/>
					<line class="st2" x1="121.8" y1="385.5" x2="455.2" y2="52"/>
					<line class="st2" x1="132.2" y1="395.9" x2="465.7" y2="62.5"/>
					<line class="st2" x1="142.6" y1="406.4" x2="476.1" y2="72.9"/>
					<line class="st2" x1="153" y1="416.8" x2="486.5" y2="83.3"/>
					<line class="st2" x1="163.4" y1="427.2" x2="496.9" y2="93.7"/>
					<line class="st2" x1="173.9" y1="437.6" x2="507.3" y2="104.1"/>
					<line class="st2" x1="184.3" y1="448.1" x2="517.8" y2="114.6"/>
					<line class="st2" x1="194.7" y1="458.5" x2="528.2" y2="125"/>
					<line class="st2" x1="184.3" y1="448.1" x2="517.8" y2="114.6"/>
					<line class="st2" x1="205.1" y1="468.9" x2="538.6" y2="135.4"/>
					<line class="st2" x1="215.6" y1="479.3" x2="549" y2="145.8"/>
					<line class="st2" x1="226" y1="489.7" x2="559.5" y2="156.3"/>
					<line class="st2" x1="236.4" y1="500.2" x2="569.9" y2="166.7"/>
					<line class="st2" x1="246.8" y1="510.6" x2="580.3" y2="177.1"/>
					<line class="st2" x1="257.2" y1="521" x2="590.7" y2="187.5"/>
					<line class="st2" x1="267.7" y1="531.4" x2="601.1" y2="197.9"/>
					<line class="st2" x1="278.1" y1="541.8" x2="611.6" y2="208.4"/>
					<line class="st2" x1="267.7" y1="531.4" x2="601.1" y2="197.9"/>
					<line class="st2" x1="288.5" y1="552.3" x2="622" y2="218.8"/>
					<line class="st2" x1="298.9" y1="562.7" x2="632.4" y2="229.2"/>
					<line class="st2" x1="309.3" y1="573.1" x2="642.8" y2="239.6"/>
					<line class="st2" x1="319.8" y1="583.5" x2="653.2" y2="250"/>
					<line class="st2" x1="330.2" y1="594" x2="663.7" y2="260.5"/>
					<line class="st2" x1="340.6" y1="604.4" x2="674.1" y2="270.9"/>
					<line class="st2" x1="351" y1="614.8" x2="684.5" y2="281.3"/>
				</g>
				<g>
					<line class="st2" x1="361.4" y1="604.4" x2="28" y2="270.9"/>
					<line class="st2" x1="351" y1="614.8" x2="17.5" y2="281.3"/>
					<line class="st2" x1="371.9" y1="594" x2="38.4" y2="260.5"/>
					<line class="st2" x1="382.3" y1="583.5" x2="48.8" y2="250"/>
					<line class="st2" x1="392.7" y1="573.1" x2="59.2" y2="239.6"/>
					<line class="st2" x1="403.1" y1="562.7" x2="69.7" y2="229.2"/>
					<line class="st2" x1="413.6" y1="552.3" x2="80.1" y2="218.8"/>
					<line class="st2" x1="424" y1="541.8" x2="90.5" y2="208.4"/>
					<line class="st2" x1="434.4" y1="531.4" x2="100.9" y2="197.9"/>
					<line class="st2" x1="444.8" y1="521" x2="111.3" y2="187.5"/>
					<line class="st2" x1="434.4" y1="531.4" x2="100.9" y2="197.9"/>
					<line class="st2" x1="455.2" y1="510.6" x2="121.8" y2="177.1"/>
					<line class="st2" x1="465.7" y1="500.2" x2="132.2" y2="166.7"/>
					<line class="st2" x1="476.1" y1="489.7" x2="142.6" y2="156.3"/>
					<line class="st2" x1="486.5" y1="479.3" x2="153" y2="145.8"/>
					<line class="st2" x1="496.9" y1="468.9" x2="163.4" y2="135.4"/>
					<line class="st2" x1="507.3" y1="458.5" x2="173.9" y2="125"/>
					<line class="st2" x1="517.8" y1="448.1" x2="184.3" y2="114.6"/>
					<line class="st2" x1="528.2" y1="437.6" x2="194.7" y2="104.1"/>
					<line class="st2" x1="517.8" y1="448.1" x2="184.3" y2="114.6"/>
					<line class="st2" x1="538.6" y1="427.2" x2="205.1" y2="93.7"/>
					<line class="st2" x1="549" y1="416.8" x2="215.6" y2="83.3"/>
					<line class="st2" x1="559.5" y1="406.4" x2="226" y2="72.9"/>
					<line class="st2" x1="569.9" y1="395.9" x2="236.4" y2="62.5"/>
					<line class="st2" x1="580.3" y1="385.5" x2="246.8" y2="52"/>
					<line class="st2" x1="590.7" y1="375.1" x2="257.2" y2="41.6"/>
					<line class="st2" x1="601.1" y1="364.7" x2="267.7" y2="31.2"/>
					<line class="st2" x1="611.6" y1="354.3" x2="278.1" y2="20.8"/>
					<line class="st2" x1="601.1" y1="364.7" x2="267.7" y2="31.2"/>
					<line class="st2" x1="622" y1="343.8" x2="288.5" y2="10.4"/>
					<line class="st2" x1="632.4" y1="333.4" x2="298.9" y2="-0.1"/>
					<line class="st2" x1="642.8" y1="323" x2="309.3" y2="-10.5"/>
					<line class="st2" x1="653.2" y1="312.6" x2="319.8" y2="-20.9"/>
					<line class="st2" x1="663.7" y1="302.2" x2="330.2" y2="-31.3"/>
					<line class="st2" x1="674.1" y1="291.7" x2="340.6" y2="-41.7"/>
					<line class="st2" x1="684.5" y1="281.3" x2="351" y2="-52.2"/>
				</g>
			</g>
		</g>
		<g>
			<defs>
				<rect id="SVGID_00000083790118300460881540000004253969593929757084_" x="231.3" y="199.1" width="74.6" height="139.1"/>
			</defs>
			<clipPath id="SVGID_00000083088116213816127480000001003902609372121240_">
				<use xlink:href="#SVGID_00000083790118300460881540000004253969593929757084_"  style="overflow:visible;"/>
			</clipPath>
			<g style="opacity:0.3;clip-path:url(#SVGID_00000083088116213816127480000001003902609372121240_);">
				<rect x="189.9" y="109.8" class="st4" width="322.2" height="322.2"/>
			</g>
		</g>
	</g>
	<path id="Windows" class="st5" d="M486.4,80.5l-77.9-18.2l-1,4.9L480.9,84l-8.4,36.7v61h4.9v-61L486.4,80.5z M485.1,332.4l4.9,1
		l-13.8,60.4l-4.9-1L485.1,332.4z M485.1,231.7l4.9,1l-13,56.8l-4.9-1L485.1,231.7z M245.6,62.9l61,14l-1,4.9l-61-14L245.6,62.9z"/>
	<path id="Doors" class="st5" d="M270.3,335.6c0-3.6,0.6-6.5,1.9-9.7c1.3-3.2,3.2-6.2,5.5-8.4c2.3-2.6,5.2-4.5,8.4-5.8
		s6.5-1.9,10.1-1.9v26 M302.8,228.5c-3.6,0-6.5-0.6-9.7-1.9c-3.2-1.3-6.2-3.2-8.4-5.5c-2.6-2.3-4.5-5.2-5.8-8.4
		c-1.3-3.2-1.9-6.5-1.9-10.1h26 M309.3,196c0-3.6,0.6-6.5,1.9-9.7c1.3-3.2,3.2-6.2,5.5-8.4c2.3-2.6,5.2-4.5,8.4-5.8
		c3.2-1.3,6.5-1.9,10.1-1.9v26 M367.6,202.5c3.6,0,6.5,0.6,9.7,1.9c3.2,1.3,6.2,3.2,8.4,5.5c2.6,2.3,4.5,5.2,5.8,8.4
		c1.3,3.2,1.9,6.5,1.9,10.1h-26 M237.9,374.6c4.2,0,8.1,1,12,2.6c3.9,1.6,7.8,3.9,10.7,7.1c2.9,2.9,5.5,6.5,7.1,10.4
		c1.6,3.9,2.6,8.1,2.6,12.3h-32.5"/>
	<g id="Walls">
		<path class="st6" d="M237.8,338.8h32.5v-3.2h-32.5v-32.2h11.1v-13.2h53.8v45.4h-6.5v3.2h9.7v-3.2V228.5h-3.2v58.4h-26.4h-36.8
			h-1.7v-87.6h64.9v3.2h3.2v-3.2h3.2V196h-71.4V85.6l9.8,0l5.1-21.8l-9.4-2.3l-3.4,14.3h-2.2H228v298.6h9.7V338.8z M245.7,290.2v9.9
			h-7.9v-9.9H245.7z"/>
		<polygon class="st6" points="478,297 480.6,285.7 464.8,282.1 461.9,294.5 461.9,336.9 478,336.9 478,336.8 489.7,339.5 492,330 
			478,326.9 		"/>
		<polygon class="st6" points="367.6,228.5 364.4,228.5 364.4,233.3 341.7,233.3 341.7,236.5 478,236.5 489.7,239.1 492,229.7 
			478,226.6 478,178.5 458.6,178.5 458.6,233.3 367.6,233.3 		"/>
		<polygon class="st6" points="364.4,196 335.2,196 335.2,199.3 364.4,199.3 364.4,202.5 367.6,202.5 367.6,199.3 367.6,196 
			367.6,92.1 409.8,92.1 409.8,92.1 410.2,92.1 416.6,63.6 400.7,60 397.1,75.9 367.6,75.9 296.2,75.9 296.2,85.6 364.4,85.6 		"/>
		<path class="st6" d="M458.6,389.3v21H305v-12.2h-12.8v12.2h-54.4V407H228v3.2v9.7h250v-9.7v-21H458.6z M295.4,401.4l6.4-0.1v9
			h-6.4V401.4z"/>
	</g>
	<g id="Furniture_2_">
		<g>
			<g>
				<rect x="245" y="263.1" class="st7" width="57.5" height="23.4"/>
				<path class="st8" d="M302,263.6V286h-56.5v-22.4H302 M303,262.6h-58.5V287H303V262.6L303,262.6z"/>
			</g>
			<g>
				<g>
					<path class="st9" d="M249.8,274.8c0,4.5,3.9,8,8.3,7.6c4.9-0.4,11-0.8,15.6-0.8c4.5,0,10.7,0.4,15.6,0.8
						c4.4,0.4,8.3-3.1,8.3-7.6s-3.9-8-8.3-7.6c-4.9,0.4-11,0.8-15.6,0.8c-4.5,0-10.7-0.4-15.6-0.8
						C253.6,266.8,249.8,270.3,249.8,274.8z"/>
					<ellipse class="st9" cx="257.5" cy="274.8" rx="1" ry="1"/>
				</g>
			</g>
		</g>
		<g id="Sink_2">
			<g>
				<rect x="249.4" y="290.7" class="st7" width="31.3" height="12.1"/>
				<path class="st8" d="M280.2,291.2v11.1h-30.3v-11.1H280.2 M281.2,290.2h-32.3v13.1h32.3V290.2L281.2,290.2z"/>
			</g>
			<path id="Rectangle_19_x5F_5" class="st10" d="M262.9,296.8L262.9,296.8c0,2.1,1.5,3.7,3.5,3.7h4.9c1.9,0,3.5-1.7,3.5-3.7l0,0
				c0-2.1-1.5-3.7-3.5-3.7h-4.9C264.4,293,262.9,294.7,262.9,296.8z"/>
			<ellipse class="st10" cx="268.8" cy="295.8" rx="1" ry="1"/>
		</g>
		<g id="Sink_2_1_">
			<g id="Rectangle_16_x5F_11_1_">
				<rect x="241" y="199.7" class="st7" width="14.2" height="30"/>
				<path class="st8" d="M254.7,200.2v29h-13.2v-29H254.7 M255.7,199.2h-15.2v31h15.2V199.2L255.7,199.2z"/>
			</g>
			<path id="Rectangle_19_x5F_5_1_" class="st10" d="M248.1,222.2L248.1,222.2c2.4,0,4.3-1.8,4.3-4v-5.7c0-2.2-1.9-4-4.3-4l0,0
				c-2.4,0-4.3,1.8-4.3,4v5.7C243.8,220.5,245.7,222.2,248.1,222.2z"/>
			<ellipse class="st10" cx="246.9" cy="215.4" rx="1" ry="1"/>
		</g>
		<g>
			<g>
				<rect x="368.1" y="92.6" class="st7" width="44.1" height="69.3"/>
				<path class="st8" d="M368.6,93.1h43.1v68.3h-43.1V93.1 M367.6,92.1v70.3h45.1V92.1H367.6L367.6,92.1z"/>
			</g>
			<rect x="391.2" y="97.1" class="st10" width="17.6" height="17.4"/>
			<rect x="371.4" y="97.1" class="st10" width="17.6" height="17.4"/>
			<polygon class="st11" points="406.6,107.4 393.9,102.9 390.5,119.7 403.2,124.2 			"/>
			<polygon class="st11" points="389.6,119.7 386.2,102.9 373.5,107.4 376.9,124.2 			"/>
			<g>
				<polygon class="st7" points="368.1,162.5 368.1,107.3 385.6,105.8 412.1,110.9 412.1,162.5 				"/>
				<path class="st8" d="M385.5,106.3l26.1,5V162h-43.1v-54.1v-0.2L385.5,106.3 M385.6,105.3l-18,1.5v1.1V163h45.1v-52.2v-0.4
					L385.6,105.3L385.6,105.3z"/>
			</g>
			<polyline class="st12" points="368.2,108.6 385.8,108.6 412.1,111.5 			"/>
		</g>
		<g>
			<g>
				<rect x="238.3" y="100.9" class="st7" width="64.2" height="51.6"/>
				<path class="st8" d="M238.8,101.4H302V152h-63.2L238.8,101.4 M237.8,100.4V153H303v-52.6H237.8L237.8,100.4z"/>
			</g>
			<rect x="242.4" y="104.8" class="st10" width="16.1" height="20.5"/>
			<rect x="242.4" y="127.9" class="st10" width="16.1" height="20.5"/>
			<polygon class="st11" points="252,107.4 247.8,122.2 263.4,126.2 267.5,111.3 			"/>
			<polygon class="st11" points="263.4,127.2 247.8,131.2 252,146.1 267.6,142.1 			"/>
			<g>
				<polygon class="st7" points="251.9,152.5 250.5,131.9 255.3,100.9 303.1,100.9 303.1,152.5 				"/>
				<path class="st8" d="M255.7,101.4h46.9V152h-50.2h-0.1l-1.3-20L255.7,101.4 M255.2,100.4h-0.3l-4.8,31.5l1.4,21h1h51.2v-52.6
					L255.2,100.4L255.2,100.4z"/>
			</g>
			<polyline class="st12" points="253.1,152.3 253.1,131.7 255.8,100.9 			"/>
		</g>
		<g>
			<g>
				<rect x="278" y="392.2" class="st7" width="9" height="17.6"/>
				<path class="st8" d="M286.5,392.7v16.6h-8v-16.6H286.5 M287.5,391.7h-10v18.6h10V391.7L287.5,391.7z"/>
			</g>
			<g>
				<rect x="279.6" y="392.2" class="st7" width="12.1" height="17.6"/>
				<path class="st8" d="M291.2,392.7v16.6h-11.1v-16.6H291.2 M292.2,391.7h-13.1v18.6h13.1V391.7L292.2,391.7z"/>
			</g>
			<path class="st10" d="M291.7,409.9l-12-17.9"/>
		</g>
		<g id="Toilet_1_">
			<g id="Rectangle_21_1_">
				<rect x="245" y="239.2" class="st7" width="4" height="12.6"/>
				<path class="st8" d="M248.5,239.7v11.6h-3v-11.6H248.5 M249.5,238.7h-5v13.6h5V238.7L249.5,238.7z"/>
			</g>
			<path id="Rectangle_19_x5F_2_1_" class="st10" d="M258.2,250.4c2.8,0.2,5.1-2,5.1-4.8l0,0c0-2.8-2.3-5-5.1-4.8l-8.9,0.6v8.5
				L258.2,250.4z"/>
			<path id="Rectangle_18_x5F_13_1_" class="st10" d="M257.7,248.9c2.1,0.2,4-1.4,4-3.4l0,0c0-2-1.8-3.5-4-3.4l-5.8,0.5v5.8
				L257.7,248.9z"/>
			<ellipse id="Ellipse_6_x5F_2_1_" class="st10" cx="254.8" cy="245.5" rx="1" ry="1"/>
		</g>
		<g id="Toilet_2_">
			<g id="Rectangle_21_2_">
				<rect x="245.1" y="313.8" class="st7" width="4" height="12.6"/>
				<path class="st8" d="M248.6,314.3v11.6h-3v-11.6H248.6 M249.6,313.3h-5v13.6h5V313.3L249.6,313.3z"/>
			</g>
			<path id="Rectangle_19_x5F_2_2_" class="st10" d="M258.3,324.9c2.8,0.2,5.1-2,5.1-4.8l0,0c0-2.8-2.3-5-5.1-4.8l-8.9,0.6v8.5
				L258.3,324.9z"/>
			<path id="Rectangle_18_x5F_13_2_" class="st10" d="M257.8,323.4c2.1,0.2,4-1.4,4-3.4l0,0c0-2-1.8-3.5-4-3.4l-5.8,0.5v5.8
				L257.8,323.4z"/>
			<ellipse id="Ellipse_6_x5F_2_2_" class="st10" cx="254.9" cy="320.1" rx="1" ry="1"/>
		</g>
		<g>
			<g>
				<rect x="280.7" y="290.7" class="st7" width="21.8" height="11.1"/>
				<path class="st8" d="M302,291.2v10.1h-20.8v-10.1H302 M303,290.2h-22.8v12.1H303V290.2L303,290.2z"/>
			</g>
			<g>
				<circle class="st7" cx="291.6" cy="296.3" r="3.4"/>
				<path class="st8" d="M291.6,293.3c1.6,0,2.9,1.3,2.9,2.9s-1.3,2.9-2.9,2.9s-2.9-1.3-2.9-2.9
					C288.6,294.6,289.9,293.3,291.6,293.3 M291.6,292.3c-2.2,0-3.9,1.8-3.9,3.9c0,2.2,1.8,3.9,3.9,3.9c2.2,0,3.9-1.8,3.9-3.9
					C295.5,294.1,293.7,292.3,291.6,292.3L291.6,292.3z"/>
			</g>
		</g>
		<g>
			<path class="st10" d="M380.5,296.9H423v30.9h-42.5V296.9z"/>
			<path class="st10" d="M425.6,304.6h0.6c4.3,0,7.7,3.5,7.7,7.7c0,4.3-3.5,7.7-7.7,7.7h-0.6V304.6z"/>
			<path class="st10" d="M423,305.9h3.2c3.6,0,6.4,2.9,6.4,6.4s-2.9,6.4-6.4,6.4H423V305.9z"/>
			<path class="st10" d="M377.9,304.6h-0.6c-4.3,0-7.7,3.5-7.7,7.7c0,4.3,3.5,7.7,7.7,7.7h0.6V304.6z"/>
			<path class="st10" d="M380.5,305.9h-3.2c-3.6,0-6.4,2.9-6.4,6.4s2.9,6.4,6.4,6.4h3.2V305.9z"/>
			<path class="st10" d="M409.5,294.3v-0.6c0-4.3-3.5-7.7-7.7-7.7c-4.3,0-7.7,3.5-7.7,7.7v0.6H409.5z"/>
			<path class="st10" d="M408.2,296.9v-3.2c0-3.6-2.9-6.4-6.4-6.4c-3.6,0-6.4,2.9-6.4,6.4v3.2H408.2z"/>
			<path class="st10" d="M409.5,330.4v0.6c0,4.3-3.5,7.7-7.7,7.7c-4.3,0-7.7-3.5-7.7-7.7v-0.6H409.5z"/>
			<path class="st10" d="M408.2,327.8v3.2c0,3.6-2.9,6.4-6.4,6.4c-3.6,0-6.4-2.9-6.4-6.4v-3.2H408.2z"/>
		</g>
		<g>
			<path class="st10" d="M434.1,279c0,0.9,0.7,1.6,1.6,1.6H452v-37.2h-17.9V279z"/>
			<path class="st10" d="M405.2,259.8c0,0.9,0.8,1.6,1.7,1.6h25.5c0.9,0,1.7-0.7,1.7-1.6v-16.4h-28.9L405.2,259.8L405.2,259.8z"/>
			<path class="st10" d="M377.4,259.8c0,0.9,0.7,1.6,1.6,1.6h24.5c0.9,0,1.6-0.7,1.6-1.6v-16.4h-27.8L377.4,259.8z"/>
			<path class="st10" d="M377.4,262.7h-6V237h87.3v50h-25.8v-6.4H452v-37.3h-74.6V262.7z"/>
		</g>
		<g>
			<g>
				<rect x="342.8" y="153.3" class="st7" width="13.6" height="42.2"/>
				<path class="st8" d="M355.9,153.8V195h-12.6v-41.2H355.9 M356.9,152.8h-14.6V196h14.6V152.8L356.9,152.8z"/>
			</g>
			<g>
				<rect x="344.9" y="153.3" class="st7" width="19" height="42.2"/>
				<path class="st8" d="M363.4,153.8V195h-18v-41.2H363.4 M364.4,152.8h-20V196h20V152.8L364.4,152.8z"/>
			</g>
			<path class="st10" d="M363.8,195.6l-18.7-42.7"/>
		</g>
		<g>
			<g>
				<rect x="405.1" y="211.7" class="st7" width="49.8" height="13.6"/>
				<path class="st8" d="M454.5,212.2v12.6h-48.8v-12.6H454.5 M455.5,211.2h-50.8v14.6h50.8V211.2L455.5,211.2z"/>
			</g>
			<g>
				<rect x="405.1" y="213.8" class="st7" width="49.8" height="19"/>
				<path class="st8" d="M454.5,214.3v18h-48.8v-18H454.5 M455.5,213.3h-50.8v20h50.8V213.3L455.5,213.3z"/>
			</g>
			<path class="st10" d="M405,232.7l50.3-18.7"/>
		</g>
		<g>
			<g>
				<rect x="238.3" y="341.1" class="st7" width="31.5" height="13.6"/>
				<path class="st8" d="M238.8,341.6h30.5v12.6h-30.5V341.6 M237.8,340.6v14.6h32.5v-14.6H237.8L237.8,340.6z"/>
			</g>
			<g>
				<rect x="238.3" y="339.3" class="st7" width="31.5" height="13.2"/>
				<path class="st8" d="M238.8,339.8h30.5V352h-30.5V339.8 M237.8,338.8V353h32.5v-14.2H237.8L237.8,338.8z"/>
			</g>
			<path class="st10" d="M269.7,339.5l-31.5,13"/>
		</g>
		<g>
			<g>
				<rect x="352.7" y="97.2" class="st7" width="2.3" height="48.6"/>
				<path class="st8" d="M354.5,97.7v47.6h-1.3V97.7H354.5 M355.5,96.7h-3.3v49.6h3.3V96.7L355.5,96.7z"/>
			</g>
			<g>
				<rect x="354.8" y="97.2" class="st7" width="9.1" height="48.6"/>
				<path class="st8" d="M363.4,97.7v47.6h-8.1V97.7H363.4 M364.4,96.7h-10.1v49.6h10.1V96.7L364.4,96.7z"/>
			</g>
			<rect x="360.5" y="104.4" class="st10" width="1.7" height="35.1"/>
			<path class="st10" d="M362.2,114.5v14.9l1.6-1.4v-12.2L362.2,114.5z"/>
		</g>
		<g>
			<rect x="238.4" y="303.9" class="st7" width="6.8" height="31.2"/>
			<path class="st8" d="M244.6,304.4v30.2h-5.8v-30.2H244.6 M245.6,303.4h-7.8v32.2h7.8V303.4L245.6,303.4z"/>
		</g>
		<g>
			<polygon class="st7" points="238.3,286.5 238.3,199.7 241,199.7 241,229.9 245,229.9 245,286.5 			"/>
			<path class="st8" d="M240.5,200.2v29.2v1h1h3V286h-5.8v-47.3v-9.3v-29.2H240.5 M241.5,199.2h-3.7v30.2v9.3V287h7.8v-57.6h-4
				v-30.2H241.5z"/>
		</g>
		<g>
			<g>
				<polygon class="st7" points="437.3,158.2 437.3,143.9 449.4,141.9 449.4,160.1 				"/>
				<path class="st8" d="M448.9,142.5v17l-11.1-1.8v-13.4L448.9,142.5 M449.9,141.3l-13.1,2.1v15.2l13.1,2.1V141.3L449.9,141.3z"/>
			</g>
			<g>
				<rect x="449.8" y="122.6" class="st7" width="21.7" height="55.4"/>
				<path class="st8" d="M471,123.1v54.4h-20.7v-54.4L471,123.1 M472,122.1h-22.7v56.4H472V122.1L472,122.1z"/>
			</g>
			<path class="st12" d="M455.9,156v-11.4 M453.4,157v-13.4h4V157H453.4z"/>
			<path class="st10" d="M453.2,162.5L453.2,162.5c0-0.6,0.5-1,1-1h1.3c0.6,0,1,0.5,1,1l0,0c0,0.6-0.5,1-1,1h-1.3
				C453.6,163.5,453.2,163,453.2,162.5z"/>
			<path class="st10" d="M463.9,153.6c-1.8,0-3.3-1.5-3.3-3.3s1.5-3.3,3.3-3.3h3.3v6.7L463.9,153.6z"/>
			
				<rect x="449.7" y="149.4" transform="matrix(1.695900e-03 -1 1 1.695900e-03 315.9299 617.0819)" class="st13" width="34.7" height="1.9"/>
			<g>
				<rect x="437.3" y="144" class="st7" width="12.1" height="14.2"/>
				<path class="st8" d="M448.9,144.5v13.1h-11.1v-13.2L448.9,144.5 M449.9,143.5h-13.1v15.1h13.1V143.5L449.9,143.5z"/>
			</g>
			<g>
				<rect x="435.4" y="143.9" class="st7" width="1.9" height="14.2"/>
				<path class="st8" d="M436.8,144.4v13.2h-0.9v-13.2H436.8 M437.8,143.4h-2.9v15.2h2.9V143.4L437.8,143.4z"/>
			</g>
		</g>
		<g id="Kitchen">
			<g id="Rectangle_24">
				<rect x="305.6" y="389.6" class="st7" width="86.2" height="20.2"/>
				<path class="st8" d="M391.1,390.1v19.2H306v-19.2H391.1 M392.1,389.1H305v21.2h87.2V389.1L392.1,389.1z"/>
			</g>
			<g id="Oven">
				<g id="Rectangle_28">
					<rect x="413.1" y="388.1" class="st7" width="22.6" height="20.4"/>
					<path class="st8" d="M435.2,388.6V408h-21.6v-19.4H435.2 M436.2,387.6h-23.6V409h23.6V387.6L436.2,387.6z"/>
				</g>
			</g>
			<g id="Rectangle_26_1_">
				<rect x="409.1" y="389.6" class="st7" width="28.7" height="20.2"/>
				<path class="st8" d="M437.3,390.1v19.2h-27.7v-19.2H437.3 M438.3,389.1h-29.7v21.2h29.7V389.1L438.3,389.1z"/>
			</g>
			<g id="Rectangle_27_1_">
				<rect x="437.8" y="389.6" class="st7" width="20.2" height="20.2"/>
				<path class="st8" d="M457.5,390.1v19.2h-19.2v-19.2H457.5 M458.5,389.1h-21.2v21.2h21.2V389.1L458.5,389.1z"/>
			</g>
			<g id="Sink_3">
				<rect id="Rectangle_28_x5F_2" x="312.2" y="391.8" class="st10" width="25.1" height="15.9"/>
				<path id="Rectangle_29_x5F_2" class="st10" d="M322.1,399.7L322.1,399.7c0-3.3,2.7-5.9,5.9-5.9h1.3c3.3,0,5.9,2.7,5.9,5.9l0,0
					c0,3.3-2.7,5.9-5.9,5.9H328C324.8,405.7,322.1,403,322.1,399.7z"/>
				<ellipse id="Ellipse_7_x5F_3" class="st10" cx="328.6" cy="402.4" rx="1" ry="1"/>
				<path id="Vector_2" class="st12" d="M313.5,405.7h6.6 M313.5,403.7h6.6 M313.5,401.7h6.6 M313.5,399.7h6.6 M313.5,397.7h6.6
					 M313.5,395.7h6.6 M313.5,393.8h6.6"/>
			</g>
			<g id="Stove">
				<g id="Rectangle_25">
					<rect x="391.7" y="389.6" class="st7" width="19.6" height="20.2"/>
					<path class="st8" d="M410.8,390.1v19.2h-18.6v-19.2H410.8 M411.8,389.1h-20.6v21.2h20.6V389.1L411.8,389.1z"/>
				</g>
				<g id="Rectangle_28_x5F_3">
					<rect x="391.7" y="408.1" class="st7" width="19.6" height="1.6"/>
					<path class="st8" d="M410.8,408.6v0.6h-18.6v-0.6H410.8 M411.8,407.6h-20.6v2.6h20.6V407.6L411.8,407.6z"/>
				</g>
				<g id="Ellipse_7_x5F_4">
					<path class="st7" d="M396.5,405.2c-1.2,0-2.1-1-2.1-2.1c0-1.2,1-2.1,2.1-2.1c1.2,0,2.1,1,2.1,2.1S397.6,405.2,396.5,405.2z"/>
					<path class="st8" d="M396.5,401.4c0.9,0,1.6,0.7,1.6,1.6s-0.7,1.6-1.6,1.6s-1.6-0.7-1.6-1.6
						C394.8,402.1,395.6,401.4,396.5,401.4 M396.5,400.4c-1.5,0-2.6,1.2-2.6,2.6s1.2,2.6,2.6,2.6c1.5,0,2.6-1.2,2.6-2.6
						S397.9,400.4,396.5,400.4L396.5,400.4z"/>
				</g>
				<g id="Ellipse_9">
					<path class="st7" d="M396.5,397.9c-1.5,0-2.8-1.3-2.8-2.8s1.3-2.8,2.8-2.8s2.8,1.3,2.8,2.8S398,397.9,396.5,397.9z"/>
					<path class="st8" d="M396.5,392.8c1.3,0,2.3,1,2.3,2.3s-1,2.3-2.3,2.3s-2.3-1-2.3-2.3S395.2,392.8,396.5,392.8 M396.5,391.8
						c-1.8,0-3.3,1.5-3.3,3.3s1.5,3.3,3.3,3.3s3.3-1.5,3.3-3.3S398.3,391.8,396.5,391.8L396.5,391.8z"/>
				</g>
				<g id="Ellipse_10">
					<path class="st7" d="M405.7,405.8c-1.5,0-2.8-1.3-2.8-2.8s1.3-2.8,2.8-2.8s2.8,1.3,2.8,2.8S407.3,405.8,405.7,405.8z"/>
					<path class="st8" d="M405.7,400.7c1.3,0,2.3,1,2.3,2.3s-1,2.3-2.3,2.3s-2.3-1-2.3-2.3S404.5,400.7,405.7,400.7 M405.7,399.7
						c-1.8,0-3.3,1.5-3.3,3.3s1.5,3.3,3.3,3.3s3.3-1.5,3.3-3.3S407.5,399.7,405.7,399.7L405.7,399.7z"/>
				</g>
				<g id="Ellipse_8">
					<path class="st7" d="M405.7,396.6c-1.2,0-2.1-1-2.1-2.1c0-1.2,1-2.1,2.1-2.1c1.2,0,2.1,1,2.1,2.1
						C407.9,395.6,406.9,396.6,405.7,396.6z"/>
					<path class="st8" d="M405.7,392.8c0.9,0,1.6,0.7,1.6,1.6s-0.7,1.6-1.6,1.6s-1.6-0.7-1.6-1.6S404.8,392.8,405.7,392.8
						 M405.7,391.8c-1.5,0-2.6,1.2-2.6,2.6s1.2,2.6,2.6,2.6c1.5,0,2.6-1.2,2.6-2.6S407.2,391.8,405.7,391.8L405.7,391.8z"/>
				</g>
			</g>
			<path id="Vector_3" class="st12" d="M445.2,399.4h5.3 M446.6,397.1l2.6,4.6 M446.6,401.7l2.6-4.6"/>
		</g>
	</g>
	<g id="street_anchors">
		<rect id="street_anchor_01" x="355" y="20" class="st14" width="10" height="10"/>
		<rect id="street_anchor_02" x="522" y="235" class="st14" width="10" height="10"/>
	</g>
</g>
<g id="комнаты">
	<g>
		<g>
			<path class="st6" d="M320.4,129.2l1.4-0.8h1v6.1h-1.1v-4.7l-1,0.6L320.4,129.2z"/>
			<path class="st6" d="M323.7,129.2l1.4-0.8h1v6.1H325v-4.7l-1,0.6L323.7,129.2z"/>
			<path class="st6" d="M328.1,132.9c0.4,0,0.8,0.4,0.8,0.9c0,0.5-0.3,0.9-0.8,0.9c-0.4,0-0.7-0.4-0.7-0.9
				C327.4,133.3,327.7,132.9,328.1,132.9z"/>
			<path class="st6" d="M330.4,133.2c0.4,0.2,0.8,0.4,1.3,0.4c0.8,0,1.6-0.7,1.6-1.9c-0.4,0.5-1,0.9-1.7,0.9c-1.2,0-1.9-1-1.9-2
				c0-1.3,0.9-2.2,2.1-2.2c1.3,0,2.5,1.1,2.5,3.1c0,2.1-1.3,3.4-2.6,3.4c-0.8,0-1.4-0.4-1.8-0.5L330.4,133.2z M333.2,130.7
				c-0.2-0.8-0.8-1.3-1.4-1.3c-0.6,0-1,0.5-1,1c0,0.4,0.2,0.8,0.9,0.8C332.3,131.3,332.8,131,333.2,130.7z"/>
		</g>
	</g>
	<g>
		<g>
			<path class="st6" d="M405.7,183.8l1.4-0.8h1v6.1H407v-4.7l-1,0.6L405.7,183.8z"/>
			<path class="st6" d="M411.2,185.4h0.7c0.3,0,0.6-0.2,0.6-0.6c0-0.5-0.4-0.7-0.8-0.7c-0.6,0-1.1,0.4-1.6,1l-0.6-0.9
				c0.5-0.6,1.3-1.3,2.2-1.3c0.8,0,1.9,0.5,1.9,1.8c0,0.5-0.3,0.9-0.5,1.1c0.4,0.2,0.9,0.6,0.9,1.5c0,1.4-1.1,2.2-2.4,2.2
				c-0.9,0-1.7-0.4-2.4-1.3l0.6-1c0.5,0.6,1,1,1.8,1c0.7,0,1.3-0.4,1.3-1c0-0.5-0.5-0.6-0.7-0.6h-0.9V185.4z"/>
			<path class="st6" d="M415.5,187.5c0.4,0,0.8,0.4,0.8,0.9c0,0.5-0.3,0.9-0.8,0.9c-0.4,0-0.7-0.4-0.7-0.9
				C414.8,187.9,415.1,187.5,415.5,187.5z"/>
			<path class="st6" d="M417.3,188.1c0-1.5,0.9-2.2,2-2.6c0.3-0.1,0.8-0.3,0.8-0.9c0-0.5-0.4-0.6-0.8-0.6c-0.7,0-1.1,0.4-1.6,0.9
				l-0.6-1c0.6-0.6,1.2-1.2,2.1-1.2c0.9,0,1.9,0.5,1.9,1.8c0,1.4-1,1.8-1.8,2.1c-0.7,0.3-1.1,0.6-1.1,1.1v0.1h2.8v1.2h-3.9V188.1z"
				/>
		</g>
	</g>
	<g>
		<g>
			<path class="st6" d="M317.3,211.2l1.4-0.8h1v6.1h-1.1v-4.7l-1,0.6L317.3,211.2z"/>
			<path class="st6" d="M321.7,214.8c0.4,0,0.8,0.4,0.8,0.9c0,0.5-0.3,0.9-0.8,0.9c-0.4,0-0.7-0.4-0.7-0.9
				C321,215.2,321.3,214.8,321.7,214.8z"/>
			<path class="st6" d="M323.4,214.7c0-0.8,0.4-1.4,1-1.6c-0.4-0.2-0.7-0.6-0.7-1.2c0-1.1,1.2-1.7,2.1-1.7c0.9,0,2.1,0.5,2.1,1.7
				c0,0.6-0.2,1-0.7,1.2c0.5,0.2,1,0.7,1,1.6c0,1.3-1.1,2-2.3,2C324.5,216.7,323.4,215.9,323.4,214.7z M326.9,214.6
				c0-0.6-0.6-0.9-1.2-0.9c-0.5,0-1.2,0.3-1.2,0.9c0,0.6,0.6,0.9,1.2,0.9C326.3,215.5,326.9,215.1,326.9,214.6z M326.6,212
				c0-0.5-0.5-0.7-0.9-0.7c-0.4,0-0.9,0.2-0.9,0.7c0,0.4,0.3,0.6,0.9,0.6C326.3,212.6,326.6,212.4,326.6,212z"/>
		</g>
	</g>
	<g>
		<g>
			<path class="st6" d="M282.2,374.9h-0.8v1.3h-1.1v-1.3H277V374l3.3-3.9h1v3.7h0.8V374.9z M278.6,373.8h1.6v-2h-0.1
				C279.7,372.5,279.1,373.2,278.6,373.8L278.6,373.8z"/>
		</g>
	</g>
	<g>
		<g>
			<path class="st6" d="M351.8,357.3c0-1.5,0.9-2.2,2-2.6c0.3-0.1,0.8-0.3,0.8-0.9c0-0.5-0.4-0.6-0.8-0.6c-0.7,0-1.1,0.4-1.6,0.9
				l-0.6-1c0.6-0.6,1.2-1.2,2.1-1.2c0.9,0,1.9,0.5,1.9,1.8c0,1.4-1,1.8-1.8,2.1c-0.7,0.3-1.1,0.6-1.1,1.1v0.1h2.8v1.2h-3.9V357.3z"
				/>
			<path class="st6" d="M356.5,357.6l0.5-1c0.3,0.3,1,0.7,1.9,0.7c0.6,0,1.2-0.3,1.2-1c0-0.6-0.5-0.9-0.9-0.9
				c-0.6,0-1.1,0.3-1.5,0.6l-0.6-0.6v-3.2h3.7v1.2H358v1.4c0.4-0.3,0.7-0.6,1.3-0.6c0.9,0,1.9,0.6,1.9,2c0,1.6-1.2,2.3-2.3,2.3
				C357.7,358.5,356.9,357.9,356.5,357.6z"/>
			<path class="st6" d="M362.8,356.7c0.4,0,0.8,0.4,0.8,0.9c0,0.5-0.3,0.9-0.8,0.9c-0.4,0-0.7-0.4-0.7-0.9
				C362.1,357.1,362.4,356.7,362.8,356.7z"/>
			<path class="st6" d="M364.2,353l1.4-0.8h1v6.1h-1.1v-4.7l-1,0.6L364.2,353z"/>
		</g>
	</g>
	<g>
		<g>
			<path class="st6" d="M277,240.9h-0.8v1.3H275v-1.3h-3.2v-0.9l3.3-3.9h1v3.7h0.8V240.9z M273.4,239.8h1.6v-2H275
				C274.5,238.5,273.9,239.2,273.4,239.8L273.4,239.8z"/>
			<path class="st6" d="M278.5,240.6c0.4,0,0.8,0.4,0.8,0.9c0,0.5-0.3,0.9-0.8,0.9c-0.4,0-0.7-0.4-0.7-0.9
				C277.8,241,278.1,240.6,278.5,240.6z"/>
			<path class="st6" d="M280.9,240.9c0.4,0.2,0.8,0.4,1.3,0.4c0.8,0,1.6-0.7,1.6-1.9c-0.4,0.4-1,0.9-1.7,0.9c-1.2,0-1.9-1-1.9-2
				c0-1.3,0.9-2.2,2.1-2.2c1.3,0,2.5,1.1,2.5,3.1c0,2.1-1.3,3.4-2.6,3.4c-0.8,0-1.4-0.4-1.8-0.5L280.9,240.9z M283.6,238.4
				c-0.2-0.8-0.8-1.3-1.4-1.3c-0.6,0-1,0.5-1,1c0,0.4,0.2,0.8,0.9,0.8C282.7,239,283.2,238.7,283.6,238.4z"/>
		</g>
	</g>
	<g>
		<g>
			<path class="st6" d="M267.1,313.1c0-1.5,0.9-2.2,2-2.6c0.3-0.1,0.8-0.3,0.8-0.9c0-0.5-0.4-0.6-0.8-0.6c-0.7,0-1.1,0.4-1.6,0.9
				l-0.6-1c0.6-0.6,1.2-1.2,2.1-1.2c0.9,0,1.9,0.5,1.9,1.8c0,1.4-1,1.8-1.8,2.1c-0.7,0.3-1.1,0.6-1.1,1.1v0.1h2.8v1.2h-3.9V313.1z"
				/>
			<path class="st6" d="M272.8,312.4c0.4,0,0.8,0.4,0.8,0.9c0,0.5-0.3,0.9-0.8,0.9c-0.4,0-0.7-0.4-0.7-0.9
				C272.1,312.8,272.4,312.4,272.8,312.4z"/>
			<path class="st6" d="M274.5,313.1c0-1.5,0.9-2.2,2-2.6c0.3-0.1,0.8-0.3,0.8-0.9c0-0.5-0.4-0.6-0.8-0.6c-0.7,0-1.1,0.4-1.6,0.9
				l-0.6-1c0.6-0.6,1.2-1.2,2.1-1.2c0.9,0,1.9,0.5,1.9,1.8c0,1.4-1,1.8-1.8,2.1c-0.7,0.3-1.1,0.6-1.1,1.1v0.1h2.8v1.2h-3.9V313.1z"
				/>
		</g>
	</g>
</g>
</svg>
