<?xml version="1.0" encoding="utf-8"?>
<!-- DO NOT EDIT THIS, THIS FILE IS GENERATED FROM "1_13-22_7.original.svg" using transform-svgs.js script -->
<!-- Generator: Adobe Illustrator 24.2.0, SVG Export Plug-In . SVG Version: 6.00 Build 0)  -->
<!DOCTYPE svg PUBLIC "-//W3C//DTD SVG 1.1//EN" "http://www.w3.org/Graphics/SVG/1.1/DTD/svg11.dtd" [
	<!ENTITY ns_extend "http://ns.adobe.com/Extensibility/1.0/">
	<!ENTITY ns_ai "http://ns.adobe.com/AdobeIllustrator/10.0/">
	<!ENTITY ns_graphs "http://ns.adobe.com/Graphs/1.0/">
	<!ENTITY ns_vars "http://ns.adobe.com/Variables/1.0/">
	<!ENTITY ns_imrep "http://ns.adobe.com/ImageReplacement/1.0/">
	<!ENTITY ns_sfw "http://ns.adobe.com/SaveForWeb/1.0/">
	<!ENTITY ns_custom "http://ns.adobe.com/GenericCustomNamespace/1.0/">
	<!ENTITY ns_adobe_xpath "http://ns.adobe.com/XPath/1.0/">
]>
<svg version="1.1" id="Слой_1" xmlns:x="&ns_extend;" xmlns:i="&ns_ai;" xmlns:graph="&ns_graphs;"
	 xmlns="http://www.w3.org/2000/svg" xmlns:xlink="http://www.w3.org/1999/xlink" x="0px" y="0px" viewBox="0 0 150 100"
	 style="enable-background:new 0 0 150 100;" xml:space="preserve"><g transform="translate(15.144506146051096 10.09633743070073) scale(0.7980732513859854)">
<style type="text/css">
	.st0{fill:#DBD4CA;}
	.st1{fill:none;stroke:#565440;}
	.st2{fill:#565440;}
</style>
<metadata>
	<sfw  xmlns="&ns_sfw;">
		<slices></slices>
		<sliceSourceBounds  bottomLeftOrigin="true" height="100" width="73.370163" x="38.3453522" y="0"></sliceSourceBounds>
	</sfw>
</metadata>
<polygon id="Floor_1_" class="st0" points="42.7460442,5.5269718 43.959507,1.0081571 60.6656456,4.8156772 87.6749573,4.9951248 
	88.6503067,0.6883764 110.0255356,5.6876125 107.5876236,16.8637371 107.1012268,47.2618179 111.1032944,48.3386841 
	106.926384,66.0626068 106.8527603,75.492569 110.903656,76.8045273 107.2944794,92.3724289 107.1104279,98.6662598 
	38.3558273,98.6662598 38.3558273,5.5269718 "/>
<path id="Doors" class="st1" d="M50.089386,76.5545959c0-0.9919052,0.1804047-1.8034744,0.5410423-2.7051697
	c0.3606415-0.9016876,0.9016838-1.7132645,1.5329552-2.344429c0.6312447-0.7213669,1.4427528-1.2624207,2.3444366-1.6230621
	c0.9016838-0.3607254,1.8033943-0.5410461,2.7952766-0.5410461v7.213707 M59.106575,46.7979813
	c-0.9918861,0-1.8033943-0.1803207-2.705162-0.54105c-0.9017639-0.3607292-1.7132721-0.9016914-2.3444328-1.5329475
	c-0.7213631-0.6311684-1.2624359-1.4427414-1.6230736-2.344429c-0.3606415-0.9016914-0.5410461-1.8034706-0.5410461-2.7952805
	h7.2137146 M60.9099388,37.7808952c0-0.9918976,0.1804047-1.8034668,0.5410423-2.7051659
	c0.3606415-0.9016876,0.9016838-1.7132683,1.5329552-2.344429c0.6312447-0.7213707,1.4427528-1.2624187,2.3444405-1.6230583
	c0.90168-0.3607311,1.8033905-0.54105,2.7952728-0.54105v7.2137032 M77.1064453,39.5843658
	c0.9918823,0,1.8033905,0.1803207,2.7051544,0.54105c0.9016876,0.3607292,1.7132797,0.9016914,2.3444366,1.5329475
	c0.7213669,0.6311684,1.2624359,1.4427414,1.6230774,2.344429c0.3606339,0.9016914,0.5410385,1.8034706,0.5410385,2.7952766
	h-7.213707 M41.0723076,87.375061c1.1722069,0,2.2543182,0.2705307,3.3363228,0.7213745
	c1.0821114,0.4508362,2.1641159,1.0820999,2.9756775,1.9837952c0.8115654,0.8115768,1.5329552,1.8033752,1.983799,2.8854752
	c0.45084,1.082016,0.7213631,2.2543182,0.7213631,3.4265366h-9.0170784"/>
<g id="Walls">
	<polygon class="st2" points="41.0505142,77.4570999 50.0676193,77.4570999 50.0676193,76.5554123 41.0505142,76.5554123 
		41.0505142,63.9314613 59.0847778,63.9314613 59.0847778,76.5554123 57.2813034,76.5554123 57.2813034,77.4570999 
		59.9864616,77.4570999 59.9864616,76.5554123 59.9864616,46.7988892 59.0847778,46.7988892 59.0847778,63.0297737 
		41.0505142,63.0297737 41.0505142,38.6834946 59.0847778,38.6834946 59.0847778,39.5851822 59.9864616,39.5851822 
		59.9864616,38.6834946 60.8881721,38.6834946 60.8881721,37.7818031 41.0505142,37.7818031 41.0505142,7.1235013 
		43.776722,7.124135 45.1984253,1.0820097 42.5833855,0.4508449 41.64991,4.4184289 41.0505142,4.4184289 38.3453522,4.4184289 
		38.3453522,87.3759689 41.0505142,87.3759689 	"/>
	<polygon class="st2" points="107.7772522,65.8216019 108.4986191,62.6956367 104.1036987,61.7037392 103.2921295,65.1302719 
		103.2921295,76.9057007 107.7772522,76.9057007 107.7772522,76.898262 111.0234833,77.6269836 111.6546478,75.0120239 
		107.7772522,74.1416397 	"/>
	<polygon class="st2" points="102.3751907,97.294838 41.0505142,97.294838 41.0505142,96.3931427 38.3453522,96.3931427 
		38.3453522,97.294838 38.3453522,100 107.7772522,100 107.7772522,97.294838 107.7772522,91.4597168 102.3751907,91.4597168 	"/>
	<polygon class="st2" points="77.1190414,46.7979813 76.2172775,46.7979813 76.2172775,48.1310959 69.9053345,48.1310959 
		69.9053345,49.0327873 107.7772522,49.0254326 111.0234833,49.754158 111.6546478,47.1391106 107.7772522,46.2687302 
		107.7772522,32.9175186 102.3835526,32.9175186 102.3835526,48.1310959 77.1190414,48.1310959 	"/>
	<polygon class="st2" points="76.2172775,37.7818031 68.1018829,37.7818031 68.1018829,38.6834946 76.2172775,38.6834946 
		76.2172775,39.5485229 77.1190414,39.5485229 77.1190414,8.9269743 88.8413086,8.9269743 88.8413086,8.9067364 
		88.9315109,8.9269743 90.7349014,0.9918047 86.3164673,0 85.3123169,4.4184289 77.1190414,4.4184289 57.2813034,4.4184289 
		57.2813034,7.1235013 76.2172775,7.1235013 	"/>
</g>
<path id="Windows" class="st1" d="M110.1216888,5.6807585L88.4805603,0.6311631l-0.2705231,1.3525345l20.3787003,4.6888657
	l-2.3444366,10.1893959v16.9521618h1.3525238V16.8620529L110.1216888,5.6807585z M109.761055,75.653717l1.3525238,0.2705307
	l-3.8342743,16.7719345l-1.3525238-0.2705231L109.761055,75.653717z M109.761055,47.7005768l1.3525238,0.2705269
	l-3.606842,15.7799492l-1.3525238-0.2705269L109.761055,47.7005768z M43.2146301,0.8114848l16.952179,3.8773789L59.896286,6.0413985
	l-16.952179-3.8773808L43.2146301,0.8114848z"/>
</g></svg>
