<?xml version="1.0" encoding="utf-8"?>
<!-- DO NOT EDIT THIS, THIS FILE IS GENERATED FROM "1_13-22_8.original.svg" using transform-svgs.js script -->
<!-- Generator: Adobe Illustrator 24.2.0, SVG Export Plug-In . SVG Version: 6.00 Build 0)  -->
<!DOCTYPE svg PUBLIC "-//W3C//DTD SVG 1.1//EN" "http://www.w3.org/Graphics/SVG/1.1/DTD/svg11.dtd" [
	<!ENTITY ns_extend "http://ns.adobe.com/Extensibility/1.0/">
	<!ENTITY ns_ai "http://ns.adobe.com/AdobeIllustrator/10.0/">
	<!ENTITY ns_graphs "http://ns.adobe.com/Graphs/1.0/">
	<!ENTITY ns_vars "http://ns.adobe.com/Variables/1.0/">
	<!ENTITY ns_imrep "http://ns.adobe.com/ImageReplacement/1.0/">
	<!ENTITY ns_sfw "http://ns.adobe.com/SaveForWeb/1.0/">
	<!ENTITY ns_custom "http://ns.adobe.com/GenericCustomNamespace/1.0/">
	<!ENTITY ns_adobe_xpath "http://ns.adobe.com/XPath/1.0/">
]>
<svg version="1.1" id="Слой_1" xmlns:x="&ns_extend;" xmlns:i="&ns_ai;" xmlns:graph="&ns_graphs;"
	 xmlns="http://www.w3.org/2000/svg" xmlns:xlink="http://www.w3.org/1999/xlink" x="0px" y="0px" viewBox="0 0 150 100"
	 style="enable-background:new 0 0 150 100;" xml:space="preserve"><g transform="translate(27.503435972447782 18.335623981631855) scale(0.6332875203673629)">
<style type="text/css">
	.st0{fill:#DBD4CA;}
	.st1{fill:none;stroke:#565440;}
	.st2{fill:#565440;}
	.st3{fill:none;stroke:#565440;stroke-width:1.0000414;stroke-miterlimit:4.0001655;}
</style>
<metadata>
	<sfw  xmlns="&ns_sfw;">
		<slices></slices>
		<sliceSourceBounds  bottomLeftOrigin="true" height="100" width="125.945549" x="4.7557526" y="0"></sliceSourceBounds>
	</sfw>
</metadata>
<polygon id="Floor_1_" class="st0" points="123.8473053,2.8349195 123.8473053,11.972394 129.6012268,15.2914114 123.5,38.8128853 
	123.1134949,55.2377777 129.3803711,59.2331276 123.3251572,82.4785309 123.2885056,98.7394714 18.9928284,99.1361847 
	18.9928284,2.8349195 "/>
<path id="Doors" class="st1" d="M37.721386,51.5068893c0,1.5068932,0.273941,2.7396927,0.8218269,4.1095505
	c0.548008,1.3698578,1.3698349,2.602787,2.3288612,3.5616684c0.9588623,1.0959129,2.1918297,1.9178658,3.5616684,2.4657478
	c1.3698349,0.5478859,2.7397118,0.8219757,4.246582,0.8219757V51.5069122 M73.3378372,51.5068893
	c0,1.5068932-0.273941,2.7396927-0.8219528,4.1095505c-0.5478821,1.3698578-1.3698349,2.602787-2.3288651,3.5616684
	c-0.9588623,1.0959129-2.1918335,1.9178658-3.5615387,2.4657478c-1.3700027,0.5478859-2.7398415,0.8219757-4.2465858,0.8219757
	V51.5069122 M18.9543648,46.5752411c-1.7808132,0-3.4246321-0.4109764-5.0685368-1.0959129
	c-1.6439457-0.6849174-3.2877235-1.6437988-4.5205259-3.0136375c-1.2328014-1.2329483-2.3286953-2.7396927-3.0136557-4.3836174
	c-0.6849179-1.6437988-1.0958939-3.4246101-1.0958939-5.2054443h13.6986122"/>
<g id="Walls">
	<polygon class="st2" points="23.0638714,4.109529 50.4611359,4.109529 50.4611359,31.0959244 51.8311005,31.0959244 
		51.8311005,4.109529 116.1983643,4.109529 116.1983643,14.2321482 123.6336746,14.2321482 129.7377777,15.6022787 
		129.7380219,15.601038 129.7423096,15.602005 130.7013092,11.6293631 124.3998413,10.2148457 124.400383,8.9077206 
		124.4005127,8.9077206 124.4005127,8.6051054 124.4027023,3.3735964 124.4005127,3.3735964 124.4005127,0 18.9543648,0 
		18.9543648,32.8767548 23.0638714,32.8767548 	"/>
	<polygon class="st2" points="124.3998413,84.1339645 124.3954239,84.1339645 124.3954239,80.8137131 116.2067795,80.8137131 
		116.1983643,95.853508 51.8311005,95.8904495 51.8311005,51.5068893 62.3788948,51.5068893 62.3788948,50.1370354 
		48.6802826,50.1370354 48.6802826,51.5068893 50.4611359,51.5068893 50.4611359,95.8904495 23.0945015,95.8904495 
		23.0638714,51.5068893 37.7215118,51.5068893 37.7215118,50.1370354 23.0638714,50.1370354 23.0638714,46.5752411 
		18.9543648,46.5752411 18.9543648,100 124.4050522,100 124.4050522,99.9976425 124.4050522,99.9976425 	"/>
	<polygon class="st2" points="124.3606644,54.7298012 124.3606644,41.8694229 125.4565582,37.1203117 118.7798004,35.6134186 
		117.546875,40.8190117 117.546875,50.1368866 73.3378372,50.1419983 73.3378372,51.511982 117.546875,51.5068893 
		117.546875,58.9288216 124.3606644,58.9288216 124.3606644,58.9176483 129.2921753,60.0247345 130.2512054,56.0520935 	"/>
</g>
<g id="Windows">
	
		<rect x="113.4057922" y="68.5092316" transform="matrix(0.2514896 -0.96786 0.96786 0.2514896 26.8172646 173.7464447)" class="st3" width="24.6682053" height="2.0519567"/>
	<polygon class="st1" points="123.9613876,37.7016869 121.9754257,37.185524 127.8626328,14.4050503 129.848465,14.9210844 	"/>
</g>
</g></svg>
