<?xml version="1.0" encoding="utf-8"?>
<!-- DO NOT EDIT THIS, THIS FILE IS GENERATED FROM "1_25-36_4.original.svg" using transform-svgs.js script -->
<!-- Generator: Adobe Illustrator 24.2.0, SVG Export Plug-In . SVG Version: 6.00 Build 0)  -->
<!DOCTYPE svg PUBLIC "-//W3C//DTD SVG 1.1//EN" "http://www.w3.org/Graphics/SVG/1.1/DTD/svg11.dtd" [
	<!ENTITY ns_extend "http://ns.adobe.com/Extensibility/1.0/">
	<!ENTITY ns_ai "http://ns.adobe.com/AdobeIllustrator/10.0/">
	<!ENTITY ns_graphs "http://ns.adobe.com/Graphs/1.0/">
	<!ENTITY ns_vars "http://ns.adobe.com/Variables/1.0/">
	<!ENTITY ns_imrep "http://ns.adobe.com/ImageReplacement/1.0/">
	<!ENTITY ns_sfw "http://ns.adobe.com/SaveForWeb/1.0/">
	<!ENTITY ns_custom "http://ns.adobe.com/GenericCustomNamespace/1.0/">
	<!ENTITY ns_adobe_xpath "http://ns.adobe.com/XPath/1.0/">
]>
<svg version="1.1" id="Слой_1" xmlns:x="&ns_extend;" xmlns:i="&ns_ai;" xmlns:graph="&ns_graphs;"
	 xmlns="http://www.w3.org/2000/svg" xmlns:xlink="http://www.w3.org/1999/xlink" x="0px" y="0px" viewBox="0 0 150 100"
	 style="enable-background:new 0 0 150 100;" xml:space="preserve"><g transform="translate(23.914038176490777 15.942692117660517) scale(0.6811461576467897)">
<style type="text/css">
	.st0{fill:#DBD4CA;}
	.st1{fill:none;stroke:#565440;}
	.st2{fill:#565440;}
</style>
<metadata>
	<sfw  xmlns="&ns_sfw;">
		<slices></slices>
		<sliceSourceBounds  bottomLeftOrigin="true" height="99.9992142" width="95.4824371" x="27.2587814" y="0"></sliceSourceBounds>
	</sfw>
</metadata>
<polygon id="Floor" class="st0" points="97.815979,72.0073624 121.8895874,72.0073624 121.8895874,0.9644556 27.331665,0.9644556 
	27.331665,99.4675064 97.815979,99.4675064 "/>
<polygon id="Windows" class="st1" points="120.98703,0.5007886 27.7587814,0.5007886 27.7587814,98.9130096 29.0129738,98.9130096 
	29.0129738,1.75498 120.98703,1.75498 120.98703,13.0427036 122.2412186,13.0427036 122.2412186,0.5007886 "/>
<g id="Walls">
	<polygon class="st2" points="63.7122803,69.4813232 62.0400391,69.4813232 62.0400391,46.5714111 61.2039185,46.5714111 
		61.2039185,69.4813232 32.3574829,69.4813232 32.3574829,65.3006592 27.3406982,65.3006592 27.3406982,69.4813232 
		27.3406982,71.9896851 63.7122803,71.9896851 	"/>
	<polygon class="st2" points="99.2477417,69.4813232 99.2477417,59.6150513 98.4115601,59.6150513 98.4115601,69.4813232 
		97.5754395,69.4813232 87.3746948,69.4813232 87.3746948,47.8256226 98.4115601,47.8256226 98.4115601,53.1768188 
		99.2477417,53.1768188 99.2477417,47.8256226 99.2477417,47.0731201 99.2477417,46.989502 71.906311,46.989502 
		71.906311,47.3239746 71.906311,47.8256226 71.906311,54.3474121 72.7424316,54.3474121 72.7424316,47.8256226 
		86.5385742,47.8256226 86.5385742,69.4813232 72.7424316,69.4813232 72.7424316,60.3675537 71.906311,60.3675537 
		71.906311,69.4813232 71.2374268,69.4813232 71.2374268,71.9896851 78.7625732,71.9896851 78.7625732,84.5316162 
		79.5986938,84.5316162 79.5986938,71.9896851 97.5754395,71.9896851 97.5754395,97.4915771 79.5986938,97.4915771 
		79.5986938,90.3845215 78.7625732,90.3845215 78.7625732,97.4915771 27.3406982,97.4915771 27.3407593,100 97.5754395,100 
		99.2477417,100 100.0838623,100 100.0838623,71.9896851 102.9266968,71.9896851 102.9266968,69.4813232 100.0838623,69.4813232 	
		"/>
	<rect x="27.3406982" y="47.7420044" class="st2" width="5.0167847" height="5.8529053"/>
	<rect x="27.3406982" y="83.1102295" class="st2" width="5.0167847" height="5.8528442"/>
	<polygon class="st2" points="31.5213623,32.6917114 61.2039185,32.6917114 61.2039185,39.71521 62.0400391,39.71521 
		62.0400391,32.6917114 63.043396,32.6917114 63.043396,31.8555908 31.5213623,31.8555908 31.5213623,30.1833496 
		27.3406982,30.1833496 27.3406982,36.0361938 31.5213623,36.0361938 	"/>
	<rect x="27.3406982" y="12.6246338" class="st2" width="5.0167847" height="5.8529053"/>
	<rect x="46.5716553" y="0.0827026" class="st2" width="5.8529053" height="5.0167847"/>
	<rect x="100.0838623" y="0.0827026" class="st2" width="5.8528442" height="4.1806641"/>
	<polygon class="st2" points="118.4786377,12.6246338 118.4786377,46.9058838 110.6190186,46.9058838 110.6190186,47.7420044 
		118.4786377,47.7420044 118.4786377,69.4813232 111.2879639,69.4813232 111.2879639,71.9896851 122.6593018,71.9896851 
		122.6593018,69.4813232 122.6593018,12.6246338 	"/>
	<polygon class="st2" points="70.9865723,31.8555908 70.1504517,31.8555908 70.1504517,32.6917114 70.9865723,32.6917114 
		71.8226929,32.6917114 71.8226929,4.2633667 81.6890259,4.2633667 81.6890259,5.0994873 87.5419312,5.0994873 
		87.5419312,4.2633667 87.5419312,0.0827026 81.6890259,0.0827026 64.1303101,0.0827026 64.1303101,4.2633667 70.9865723,4.2633667 
			"/>
</g>
<path id="Doors" class="st1" d="M111.287941,71.9897003c0,1.0869675-0.2508316,2.0903168-0.6688919,3.0936737
	c-0.4180603,1.0033493-1.0033646,2.0066986-1.8394928,2.7592239c-0.7525101,0.7525101-1.6722565,1.4214096-2.6756134,1.8394775
	c-1.0033646,0.4180603-2.0903244,0.6688995-3.1772766,0.6688995v-8.3612747 M63.7122688,71.57164
	c0,1.0033493,0.250843,1.9230957,0.5852852,2.7592239c0.4180679,0.9197388,0.9197464,1.8394775,1.6722565,2.5083771
	c0.6688919,0.6689072,1.5050201,1.2541962,2.4247665,1.6722565c0.9197464,0.4180679,1.9230804,0.585289,2.8428268,0.585289V71.57164
	 M63.1269836,31.8555756c0-0.9197445,0.1672249-1.7558727,0.5016823-2.592001
	c0.334446-0.8361263,0.8361244-1.6722546,1.5050316-2.2575417c0.585289-0.6689053,1.4214172-1.1705742,2.2575455-1.5886364
	c0.8361206-0.334446,1.755867-0.5016823,2.6756134-0.5016823v6.9398613 M61.2038879,46.6550293
	c-0.9197464,0-1.7558746-0.1672211-2.5920029-0.5016785c-0.8361244-0.334446-1.6722527-0.8361282-2.2575417-1.5050354
	c-0.6689034-0.5852852-1.2541885-1.4214134-1.5886345-2.2575417s-0.5016823-1.7558708-0.5016823-2.6756058h6.9398613
	 M78.7625809,84.5316162c-0.8361282,0-1.5050201,0.1672211-2.2575531,0.4180603
	c-0.7525101,0.3344498-1.4214325,0.7525101-1.9230881,1.2541962c-0.5852966,0.5016785-1.0869522,1.1705704-1.3378067,1.9230957
	c-0.2508545,0.7525177-0.4180603,1.5050278-0.4180603,2.341156h6.0201263 M72.7424545,54.3474159
	c0.8361282,0,1.5050201,0.1672211,2.3411407,0.5016823c0.7525101,0.334446,1.5050201,0.7525101,2.0067062,1.3378067
	c0.5852966,0.5016823,1.0869522,1.2541924,1.4214249,2.0067024s0.5016861,1.5050316,0.5016861,2.4247665h-6.1873398
	 M98.9968567,53.1768303c0.9197464,0,1.5886383,0.1672211,2.4247665,0.5016823
	c0.8361206,0.334446,1.5050125,0.8361244,2.0903168,1.3378067c0.6688919,0.585289,1.1705704,1.2541924,1.4214249,2.0903206
	s0.5016861,1.5886383,0.5016861,2.5083809h-6.4381943"/>
</g></svg>
