<?xml version="1.0" encoding="utf-8"?>
<!-- DO NOT EDIT THIS, THIS FILE IS GENERATED FROM "1_25-36_1.original.svg" using transform-svgs.js script -->
<!-- Generator: Adobe Illustrator 24.2.0, SVG Export Plug-In . SVG Version: 6.00 Build 0)  -->
<!DOCTYPE svg PUBLIC "-//W3C//DTD SVG 1.1//EN" "http://www.w3.org/Graphics/SVG/1.1/DTD/svg11.dtd" [
	<!ENTITY ns_extend "http://ns.adobe.com/Extensibility/1.0/">
	<!ENTITY ns_ai "http://ns.adobe.com/AdobeIllustrator/10.0/">
	<!ENTITY ns_graphs "http://ns.adobe.com/Graphs/1.0/">
	<!ENTITY ns_vars "http://ns.adobe.com/Variables/1.0/">
	<!ENTITY ns_imrep "http://ns.adobe.com/ImageReplacement/1.0/">
	<!ENTITY ns_sfw "http://ns.adobe.com/SaveForWeb/1.0/">
	<!ENTITY ns_custom "http://ns.adobe.com/GenericCustomNamespace/1.0/">
	<!ENTITY ns_adobe_xpath "http://ns.adobe.com/XPath/1.0/">
]>
<svg version="1.1" id="Слой_1" xmlns:x="&ns_extend;" xmlns:i="&ns_ai;" xmlns:graph="&ns_graphs;"
	 xmlns="http://www.w3.org/2000/svg" xmlns:xlink="http://www.w3.org/1999/xlink" x="0px" y="0px" viewBox="0 0 150 100"
	 style="enable-background:new 0 0 150 100;" xml:space="preserve">
<style type="text/css">
	.st0{fill:#DBD4CA;}
	.st1{fill:none;stroke:#565440;}
	.st2{fill:#565440;}
</style>
<metadata>
	<sfw  xmlns="&ns_sfw;">
		<slices></slices>
		<sliceSourceBounds  bottomLeftOrigin="true" height="99.864212" width="53.1457062" x="48.5028343" y="-0.0024623">
			</sliceSourceBounds>
	</sfw>
</metadata>
<polygon id="Floor_1_" class="st0" points="66.8000031,23.1999969 62.2000008,23.1999969 62.2000008,34.2999916 
	49.5999985,34.2999916 49.5999985,99.485939 101.1999969,99.485939 101.1999969,1.1999949 66.8000031,1.1999949 "/>
<path id="Windows" class="st1" d="M100.1026001,98.4565506H49.618618v1.0459137h51.5299187V29.7731514h-1.0459137v68.6833954
	H100.1026001z"/>
<g id="Walls">
	<polygon class="st2" points="79.8810425,96.364624 65.2378922,96.364624 65.2378922,99.8510895 84.7621078,99.8510895 
		84.7621078,95.6675262 79.8810425,95.6675262 	"/>
	<rect x="97.2383194" y="84.5106659" class="st2" width="4.2588496" height="4.8810635"/>
	<polygon class="st2" points="98.0106964,40.9492455 74.8699799,40.9492455 74.8699799,41.6465187 75.2455826,41.6465187 
		75.2455826,52.605484 75.9428558,52.605484 75.9428558,41.6465187 98.0106964,41.6465187 98.0106964,44.7649269 
		101.4971695,44.7649269 101.4971695,39.8839035 98.0106964,39.8839035 	"/>
	<polygon class="st2" points="97.2444611,56.6189651 98.0106964,56.6189651 98.0106964,67.7756042 75.9428558,67.7756042 
		75.9428558,58.786438 75.2455826,58.786438 75.2455826,67.7756042 75.2455826,68.4728775 75.9428558,68.4728775 
		98.0106964,68.4728775 98.0106964,71.2621155 101.4971695,71.2621155 101.4971695,51.7378197 97.2444611,51.7378197 	"/>
	<polygon class="st2" points="66.6325302,0.1382506 66.6325302,3.6246326 66.6325302,23.1488438 61.7514267,23.1488438 
		61.7514267,25.240757 61.7514267,34.3055649 58.2650032,34.3055649 58.2650032,36.3973961 61.7514267,36.3973961 
		63.8433418,36.3973961 68.0275574,36.3973961 68.0275574,41.6466064 69.4913406,41.6466064 69.4913406,40.9493294 
		68.7248306,40.9493294 68.7248306,35.703373 68.7244034,35.703373 68.7244034,35.700119 63.8433418,35.700119 
		63.8433418,25.240757 68.7244034,25.240757 68.7244034,23.1488438 68.7244034,16.3582478 70.7766113,16.3582478 
		70.7766113,15.6609707 68.7244034,15.6609707 68.7244034,3.6246326 85.6709366,3.6246326 85.6709366,15.6606283 
		75.9820099,15.6606283 75.9820099,16.3579044 90.0281906,16.3579044 90.0281906,15.6606283 86.3682098,15.6606283 
		86.3682098,3.6246326 97.2444611,3.6246326 97.2444611,15.6607141 95.3494949,15.6607141 95.3494949,16.3579903 
		97.2444611,16.3579903 97.2444611,30.1218204 101.4971695,30.1218204 101.4971695,0.1382506 	"/>
	<polygon class="st2" points="50.5947914,68.4728775 65.9352112,68.4728775 65.9352112,67.7756042 63.8433418,67.7756042 
		63.8433418,61.4999886 63.1460648,61.4999886 63.1460648,67.7756042 50.5947914,67.7756042 50.5947914,50.3432655 
		63.1460648,50.3432655 63.1460648,55.9216042 63.8433418,55.9216042 63.8433418,49.6459885 63.1460648,49.6459885 
		50.5947914,49.6459885 50.5947914,36.3973961 51.2920685,36.3973961 51.2920685,34.3055649 48.5028343,34.3055649 
		48.5028343,99.8510895 54.7785339,99.8510895 54.7785339,95.6675262 50.5947914,95.6675262 	"/>
</g>
<path id="Doors" class="st1" d="M63.8433533,55.9215965c0.7670288,0,1.394577,0.1394424,2.0919113,0.4183884
	c0.6972809,0.2789497,1.3248062,0.6972771,1.8129654,1.1854439c0.5578384,0.4880829,0.9762497,1.1156883,1.2551346,1.8129654
	S69.4217529,60.7329712,69.4217529,61.5h-5.5783348 M75.9428711,58.8962173c0.7468185,0,1.3578262-0.1613503,2.0367889-0.4841309
	c0.6789017-0.3227005,1.2898865-0.8068314,1.7651901-1.3715973c0.5431366-0.5647659,0.9505234-1.2909851,1.2220612-2.0978165
	s0.4073639-1.6136856,0.4073639-2.5012321h-5.4313431 M89.8840866,16.3579197c0,0.7670307,0.1394424,1.3945751,0.418396,2.0918503
	c0.2789459,0.6972771,0.6972733,1.3248005,1.1854401,1.8129673c0.4880829,0.5578327,1.1156921,0.9762459,1.8129654,1.2551308
	c0.6972809,0.2789497,1.394577,0.4183922,2.1616058,0.4183922v-5.5783405 M76.1742096,16.3579197
	c0,0.7670307-0.1394424,1.3945751-0.418396,2.0918503c-0.2789459,0.6972771-0.6972733,1.3248005-1.1854401,1.8129673
	c-0.4880829,0.5578327-1.1156921,0.9762459-1.8129654,1.2551308c-0.6972733,0.2789497-1.394577,0.4183922-2.1616058,0.4183922
	v-5.5783405 M58.2650146,36.3974075c0,0.9064713-0.209198,1.7432098-0.5578346,2.5799942
	c-0.3486404,0.8368034-0.8368073,1.6735229-1.5340805,2.3010445c-0.6275902,0.6275253-1.394577,1.18536-2.2313576,1.5340195
	c-0.8368073,0.3486366-1.7432137,0.5578346-2.6496849,0.5578346v-6.9729576 M74.9934006,40.9688568
	c0-0.7670288-0.1394424-1.394577-0.4183884-2.0918503c-0.2789459-0.6972771-0.6972733-1.3248024-1.1854401-1.8129654
	c-0.4880829-0.5578346-1.1156921-0.9762497-1.8129654-1.2551346c-0.6972809-0.2789497-1.394577-0.4183922-2.1616058-0.4183922
	v5.5783424"/>
</svg>
