<?xml version="1.0" encoding="utf-8"?>
<!-- DO NOT EDIT THIS, THIS FILE IS GENERATED FROM "1_25-36_2.original.svg" using transform-svgs.js script -->
<!-- Generator: Adobe Illustrator 24.2.0, SVG Export Plug-In . SVG Version: 6.00 Build 0)  -->
<!DOCTYPE svg PUBLIC "-//W3C//DTD SVG 1.1//EN" "http://www.w3.org/Graphics/SVG/1.1/DTD/svg11.dtd" [
	<!ENTITY ns_extend "http://ns.adobe.com/Extensibility/1.0/">
	<!ENTITY ns_ai "http://ns.adobe.com/AdobeIllustrator/10.0/">
	<!ENTITY ns_graphs "http://ns.adobe.com/Graphs/1.0/">
	<!ENTITY ns_vars "http://ns.adobe.com/Variables/1.0/">
	<!ENTITY ns_imrep "http://ns.adobe.com/ImageReplacement/1.0/">
	<!ENTITY ns_sfw "http://ns.adobe.com/SaveForWeb/1.0/">
	<!ENTITY ns_custom "http://ns.adobe.com/GenericCustomNamespace/1.0/">
	<!ENTITY ns_adobe_xpath "http://ns.adobe.com/XPath/1.0/">
]>
<svg version="1.1" id="Слой_1" xmlns:x="&ns_extend;" xmlns:i="&ns_ai;" xmlns:graph="&ns_graphs;"
	 xmlns="http://www.w3.org/2000/svg" xmlns:xlink="http://www.w3.org/1999/xlink" x="0px" y="0px" viewBox="0 0 150 100"
	 style="enable-background:new 0 0 150 100;" xml:space="preserve"><g transform="translate(7.902963842391217 5.268642561594144) scale(0.8946271487681171)">
<style type="text/css">
	.st0{fill:#DBD4CA;}
	.st1{fill:none;stroke:#565440;}
	.st2{fill:#565440;}
</style>
<metadata>
	<sfw  xmlns="&ns_sfw;">
		<slices></slices>
		<sliceSourceBounds  bottomLeftOrigin="true" height="100.0031509" width="60.0628395" x="44.890728" y="0.0000219">
			</sliceSourceBounds>
	</sfw>
</metadata>
<polygon id="Floor_1_" class="st0" points="45.0464363,1.7182974 45.0464363,99.9999771 102.8878021,99.9999771 
	102.8878021,99.3294601 104.9535675,99.3294601 104.9535675,0.3411223 45.390728,0.3411223 45.390728,1.7205451 "/>
<path id="Windows" class="st1" d="M46.4236107,1.0297098H45.390728v98.4680176h57.8413658v-1.0328751H46.4236221V25.1991386
	V1.0297098H46.4236107z"/>
<g id="Walls">
	<polygon class="st2" points="49.1779785,26.163147 49.7976685,26.163147 49.7976685,24.0974121 49.1779785,24.0974121 
		49.1779785,11.7028198 45.0464478,11.7028198 45.0464478,24.0974121 45.0464478,26.163147 45.0464478,30.9832764 
		49.1779785,30.9832764 	"/>
	<rect x="45.0464478" y="41.3120728" class="st2" width="3.4429321" height="4.8201294"/>
	<polygon class="st2" points="73.2785034,61.9697266 73.2785034,65.4126587 73.9671021,65.4126587 73.9671021,61.9697266 
		73.9671021,61.2811279 49.1779785,61.2811279 49.1779785,55.7723999 45.0464478,55.7723999 45.0464478,75.0528564 
		49.1779785,75.0528564 49.1779785,61.9697266 	"/>
	<polygon class="st2" points="73.9671021,73.6757202 75.3442993,73.6757202 75.3442993,72.9871216 73.9671021,72.9871216 
		73.9671021,70.9213257 73.2785034,70.9213257 73.2785034,96.3991089 65.7040405,96.3991089 65.7041016,99.842041 
		80.1644287,99.842041 80.1644287,96.3991089 73.9671021,96.3991089 	"/>
	<rect x="45.0464478" y="84.6931152" class="st2" width="4.1315308" height="4.8200684"/>
	<polygon class="st2" points="60.8839722,95.7105103 60.8839722,99.842041 65.7040405,99.842041 65.7040405,96.3991089 
		65.7040405,95.7105103 	"/>
	<polygon class="st2" points="102.8878174,40.6234741 92.6967163,40.6234741 92.6967163,41.3120728 102.8878174,41.3120728 
		102.8878174,55.0838623 82.2301636,55.0838623 82.2301636,41.3120728 87.3945923,41.3120728 87.3945923,40.6234741 
		82.2301636,40.6234741 81.5415649,40.6234741 81.5415649,72.9871216 80.8530273,72.9871216 80.8530273,73.6757202 
		82.2301636,73.6757202 82.2301636,72.9871216 82.2301636,68.8555908 90.4932251,68.8555908 90.4932251,68.1669922 
		82.2301636,68.1669922 82.2301636,55.7723999 102.8878174,55.7723999 102.8878174,68.1669922 96.0019531,68.1669922 
		96.0019531,68.8555908 102.8878174,68.8555908 102.8878174,95.7105103 89.8046265,95.7105103 89.8046265,99.842041 
		104.9535522,99.842041 104.9535522,96.3990479 104.9535522,95.7105103 104.9535522,34.1507568 102.8878174,34.1507568 	"/>
	<polygon class="st2" points="45.0464478,-0.0031738 45.0464478,2.062561 87.4634399,2.062561 87.4634399,2.9577637 
		88.1520386,2.9577637 88.1520386,2.062561 102.8878174,2.062561 102.8878174,15.0769043 88.1520386,15.0769043 
		88.1520386,7.984436 87.4634399,7.984436 87.4634399,24.0974121 55.5129395,24.0974121 55.5129395,26.163147 87.7388916,26.163147 
		88.1520386,26.163147 89.0471802,26.163147 89.0471802,25.4745483 88.1520386,25.4745483 88.1520386,24.4417114 
		88.1520386,24.0974121 88.1520386,15.7655029 102.8878174,15.7655029 102.8878174,24.0974121 98.5496826,24.0974121 
		98.5496826,25.4745483 93.8673096,25.4745483 93.8673096,26.163147 98.5496826,26.163147 99.0317383,26.163147 
		102.8878174,26.163147 102.8878174,27.1960449 104.9535522,27.1960449 104.9535522,26.163147 104.9535522,24.0974121 
		104.9535522,2.062561 104.9535522,0.3411255 104.9535522,-0.0031738 	"/>
</g>
<path id="Doors" class="st1" d="M73.2785263,70.9213486c-0.7574539,0-1.3771744-0.1377258-2.0657654-0.4131622
	c-0.6885834-0.2754288-1.3083115-0.6885834-1.790329-1.1706009c-0.5508728-0.4820251-0.9640198-1.1017456-1.2394638-1.7903366
	c-0.2754288-0.6885834-0.4131546-1.3771744-0.4131546-2.1346283h5.5087051 M88.083168,8.0532904
	c0.688591,0,1.3083115-0.1377258,1.9280396-0.413157c0.6197205-0.2754307,1.2394485-0.6197243,1.6526031-1.1017442
	c0.4820175-0.4820199,0.8951569-1.0328813,1.1706085-1.652606c0.2754288-0.6197243,0.4131546-1.3083122,0.4131546-1.9968996
	H88.083168 M80.8529968,73.6756973c0,0.7574463-0.1377258,1.3771744-0.4131546,2.0657578
	c-0.2754288,0.688591-0.6885834,1.3083191-1.1706085,1.7903366c-0.4820175,0.5508575-1.1017456,0.9640198-1.790329,1.2394485
	c-0.688591,0.2754288-1.3771744,0.4131546-2.1346283,0.4131546v-5.5086975 M90.4932251,68.8555832
	c0,0.7574539,0.1377258,1.3771744,0.4131546,2.0657654c0.2754364,0.6885834,0.688591,1.3083115,1.1706085,1.790329
	c0.4820175,0.5508652,1.1017456,0.9640198,1.7903366,1.2394485c0.6885834,0.2754288,1.3771744,0.4131546,2.1346207,0.4131546
	v-5.5086975 M92.9032822,41.3120804c0,0.7574501-0.1377258,1.3771744-0.4131546,2.0657616
	c-0.2754364,0.6885872-0.688591,1.3083153-1.1706085,1.7903328c-0.4820175,0.5508614-1.1017456,0.9640198-1.7903366,1.2394485
	c-0.6885834,0.2754326-1.3771744,0.4131584-2.1346207,0.4131584v-5.5087013 M94.0050049,25.4745693
	c0-0.6885872-0.1377258-1.2394505-0.3442917-1.8591957c-0.2065735-0.6197453-0.6197281-1.1706066-1.0328827-1.6526051
	c-0.4131546-0.4820194-1.0328827-0.895155-1.6526031-1.1017437c-0.6197281-0.2065907-1.2394562-0.3442955-1.9280396-0.3442955
	v5.0266819 M55.5129662,24.097393c0-0.7574501-0.1377182-1.4460373-0.4131584-2.1346245
	c-0.2754288-0.6885872-0.6885872-1.3771763-1.23946-1.8591957c-0.4820099-0.5508614-1.1705971-1.0328808-1.8591843-1.3083115
	s-1.4460373-0.4131565-2.203476-0.4131565v5.7841301 M102.8878021,34.081913c-0.8951569,0-1.7214661-0.2065697-2.5477829-0.5508614
	c-0.8263168-0.3442955-1.6526031-0.8263168-2.2723312-1.514904c-0.6197205-0.6197224-1.1706085-1.3771725-1.5149002-2.2034855
	s-0.5508652-1.721468-0.5508652-2.6166248h6.8858795"/>
</g></svg>
