<?xml version="1.0" encoding="utf-8"?>
<!-- DO NOT EDIT THIS, THIS FILE IS GENERATED FROM "1_25-36_5.original.svg" using transform-svgs.js script -->
<!-- Generator: Adobe Illustrator 24.2.0, SVG Export Plug-In . SVG Version: 6.00 Build 0)  -->
<!DOCTYPE svg PUBLIC "-//W3C//DTD SVG 1.1//EN" "http://www.w3.org/Graphics/SVG/1.1/DTD/svg11.dtd" [
	<!ENTITY ns_extend "http://ns.adobe.com/Extensibility/1.0/">
	<!ENTITY ns_ai "http://ns.adobe.com/AdobeIllustrator/10.0/">
	<!ENTITY ns_graphs "http://ns.adobe.com/Graphs/1.0/">
	<!ENTITY ns_vars "http://ns.adobe.com/Variables/1.0/">
	<!ENTITY ns_imrep "http://ns.adobe.com/ImageReplacement/1.0/">
	<!ENTITY ns_sfw "http://ns.adobe.com/SaveForWeb/1.0/">
	<!ENTITY ns_custom "http://ns.adobe.com/GenericCustomNamespace/1.0/">
	<!ENTITY ns_adobe_xpath "http://ns.adobe.com/XPath/1.0/">
]>
<svg version="1.1" id="Слой_1" xmlns:x="&ns_extend;" xmlns:i="&ns_ai;" xmlns:graph="&ns_graphs;"
	 xmlns="http://www.w3.org/2000/svg" xmlns:xlink="http://www.w3.org/1999/xlink" x="0px" y="0px" viewBox="0 0 150 100"
	 style="enable-background:new 0 0 150 100;" xml:space="preserve"><g transform="translate(1.9014260373800884 1.2676173582533923) scale(0.9746476528349322)">
<style type="text/css">
	.st0{fill:#DBD4CA;}
	.st1{fill:none;stroke:#565440;}
	.st2{fill:#565440;}
</style>
<metadata>
	<sfw  xmlns="&ns_sfw;">
		<slices></slices>
		<sliceSourceBounds  bottomLeftOrigin="true" height="99.9954987" width="55.9707031" x="47.0146484" y="-0.0031128">
			</sliceSourceBounds>
	</sfw>
</metadata>
<polygon id="Floor" class="st0" points="49.4633904,99.6147079 49.4633904,0.6552039 63.4560547,4.4245291 65.9018402,5.6225986 
	85.5582809,5.6225986 86.6993866,1.2848732 99.9069214,4.4332223 102.6380386,4.4332223 102.6380386,67.8199768 
	87.593399,67.8199768 87.593399,78.3478394 83.7454147,78.3478394 83.7454147,99.6147079 "/>
<g id="Windows">
	<path class="st1" d="M86.2640762,1.2848732l13.6428452,3.148349l-0.209877,1.0494485L86.0541916,2.2643595L86.2640762,1.2848732z"
		/>
	<path class="st1" d="M49.8132057,48.9298859h1.0494499v20.28936h-1.0494499V48.9298859z"/>
	<polygon class="st1" points="49.8132057,0.6552039 49.8132057,21.2244186 50.8626556,21.2244186 50.8626556,2.0544701 
		63.1761818,5.2727814 63.4560547,4.2233315 	"/>
</g>
<g id="Walls">
	<polygon class="st2" points="101.3062134,4.1533813 100.8864136,4.1533813 98.0878906,4.1533813 98.0878906,8.3511963 
		100.8864136,8.3511963 100.8864136,32.8383179 84.7948608,32.8383179 84.7948608,33.5379639 86.8937378,33.5379639 
		86.8937378,39.8346558 87.5933838,39.8346558 87.5933838,33.5379639 100.8864136,33.5379639 100.8864136,51.7283936 
		87.5933838,51.7283936 87.5933838,45.3617554 86.8937378,45.3617554 86.8937378,52.4280396 87.5933838,52.4280396 
		100.8864136,52.4280396 100.8864136,65.7210693 99.4871826,65.7210693 99.4871826,67.8200073 100.8864136,67.8200073 
		102.9853516,67.8200073 102.9853516,4.1533813 	"/>
	<polygon class="st2" points="52.4718018,49.6295166 53.3114014,49.6295166 77.7985229,49.6295166 77.7985229,48.9298706 
		77.7985229,41.2339478 77.098877,41.2339478 77.098877,48.9298706 68.4234619,48.9298706 68.4234619,33.5379639 
		68.4234619,32.8383179 67.0241699,32.8383179 67.0241699,33.5379639 67.7238159,33.5379639 67.7238159,48.9298706 
		53.3114014,48.9298706 53.3114014,33.5379639 61.7069702,33.5379639 61.7069702,32.8383179 53.3114014,32.8383179 
		53.3114014,14.6478882 49.1135864,14.6478882 49.1135864,15.3474731 47.0146484,15.3474731 47.0146484,17.4464111 
		49.1135864,17.4464111 49.1135864,25.84198 47.0146484,25.84198 47.0146484,27.940918 49.1135864,27.940918 49.1135864,36.3364868 
		47.0146484,36.3364868 47.0146484,38.4353638 49.1135864,38.4353638 49.1135864,47.5306396 47.0146484,47.5306396 
		47.0146484,49.6295166 49.1135864,49.6295166 	"/>
	<rect x="47.0146484" y="58.0251465" class="st2" width="4.8974609" height="2.098877"/>
	<polygon class="st2" points="63.1062622,6.9519043 64.5054932,6.9519043 64.5054932,8.3511963 69.4029541,8.3511963 
		69.4029541,6.9519043 77.098877,6.9519043 77.098877,35.6368408 77.7985229,35.6368408 77.7985229,33.5379639 
		79.1978149,33.5379639 79.1978149,32.8383179 77.7985229,32.8383179 77.7985229,6.9519043 86.6039429,6.9519043 
		86.8937378,7.0218506 88.1530762,1.5646973 86.1241455,1.0750122 85.2523193,4.8530273 69.4029541,4.8530273 66.0447998,4.8530273 
		63.2461548,3.7335815 62.4765625,5.6925659 63.1062622,5.944458 	"/>
	<polygon class="st2" points="81.9963379,65.7210693 81.9963379,66.4207153 86.8937378,66.4207153 86.8937378,67.8200073 
		86.8937378,76.9152222 84.7948608,76.9152222 82.6959839,76.9152222 82.6959839,86.710083 61.7069702,86.710083 
		61.7069702,82.5122681 61.0073242,82.5122681 61.0073242,86.710083 61.0073242,87.409729 70.1026001,87.409729 
		70.1026001,88.109314 70.8021851,88.109314 70.8021851,87.409729 82.6959839,87.409729 82.6959839,97.9042358 
		70.8021851,97.9042358 70.8021851,93.7064209 70.1026001,93.7064209 70.1026001,97.9042358 53.3114014,97.9042358 
		53.3114014,83.2119141 55.4102783,83.2119141 55.4102783,82.5122681 53.3114014,82.5122681 53.3114014,68.5195923 
		49.1135864,68.5195923 47.0146484,68.5195923 47.0146484,70.6185303 49.1135864,70.6185303 49.1135864,79.7137451 
		47.0146484,79.7137451 47.0146484,81.8126221 49.1135864,81.8126221 49.1135864,100.0031128 50.5128174,100.0031128 
		53.3114014,100.0031128 82.6959839,100.0031128 83.2556763,100.0031128 84.7948608,100.0031128 84.7948608,79.0140991 
		86.8937378,79.0140991 88.9926758,79.0140991 88.9926758,67.8200073 92.4908447,67.8200073 92.4908447,65.7210693 
		86.8937378,65.7210693 	"/>
</g>
<path id="Doors" class="st1" d="M84.7948608,32.8383217c0-0.7695923-0.1399307-1.3992615-0.4197845-2.0988941
	c-0.2798462-0.6996326-0.6996307-1.3293037-1.1893845-1.8190441c-0.4897461-0.5597095-1.1194153-0.9794884-1.819046-1.2593422
	c-0.6996307-0.2798557-1.3992691-0.4197788-2.168869-0.4197788v5.5970592 M77.0988998,35.6368561
	c-0.7695999,0-1.3992691,0.1399231-2.0988998,0.4197769c-0.6996307,0.2798576-1.3292999,0.6996346-1.8190536,1.1893768
	c-0.5596924,0.4897385-0.9794769,1.1194115-1.2593307,1.8190422c-0.2798462,0.6996346-0.4197845,1.3992691-0.4197845,2.1688652
	h5.5970688 M86.8937607,45.3617592c-0.7695999,0-1.3992615-0.1399269-2.0988998-0.4197807
	c-0.6996307-0.2798538-1.3292923-0.6996346-1.819046-1.189373c-0.5597-0.4897423-0.9794846-1.1194115-1.2593307-1.819046
	c-0.2798538-0.6996346-0.4197845-1.3992653-0.4197845-2.1688614h5.5970612 M61.637001,33.5379562
	c0,0.6996346,0.1399384,1.3293037,0.4197845,1.9589767c0.27985,0.6296692,0.6296654,1.2593384,1.1893845,1.7490807
	c0.4897537,0.4897423,1.1194229,0.9095268,1.7490845,1.189373c0.6296692,0.2798576,1.3292999,0.4197807,2.0289307,0.4197807
	v-5.3172112 M61.0073357,82.5122757c0-0.7695999-0.1399345-1.3992691-0.4197807-2.0988998
	c-0.27985-0.6996307-0.6996346-1.3292999-1.1893883-1.8190536c-0.4897499-0.5597076-1.1194153-0.9794769-1.8190498-1.2593384
	c-0.6996307-0.2798462-1.3992653-0.4197845-2.1688652-0.4197845v5.5970688 M70.1025696,93.7064056
	c-0.7695999,0-1.3992691-0.1399231-2.0988998-0.4197845c-0.6996307-0.2798462-1.3292999-0.6996307-1.8190536-1.1893768
	c-0.5596924-0.4897385-0.9794769-1.1194153-1.2593307-1.819046c-0.2798462-0.6996307-0.4197845-1.3992691-0.4197845-2.168869
	h5.5970688 M92.4908295,65.721077c0-0.909523,0.209877-1.7490807,0.5597-2.5886383
	c0.3498154-0.8395576,0.8395615-1.6791191,1.5391998-2.3087883c0.6296616-0.629673,1.3992615-1.1893768,2.2388306-1.5391922
	s1.7490845-0.5597076,2.6585999-0.5597076v6.9963264"/>
</g></svg>
