<?xml version="1.0" encoding="utf-8"?>
<!-- DO NOT EDIT THIS, THIS FILE IS GENERATED FROM "1_25-36_8.original.svg" using transform-svgs.js script -->
<!-- Generator: Adobe Illustrator 24.2.0, SVG Export Plug-In . SVG Version: 6.00 Build 0)  -->
<!DOCTYPE svg PUBLIC "-//W3C//DTD SVG 1.1//EN" "http://www.w3.org/Graphics/SVG/1.1/DTD/svg11.dtd" [
	<!ENTITY ns_extend "http://ns.adobe.com/Extensibility/1.0/">
	<!ENTITY ns_ai "http://ns.adobe.com/AdobeIllustrator/10.0/">
	<!ENTITY ns_graphs "http://ns.adobe.com/Graphs/1.0/">
	<!ENTITY ns_vars "http://ns.adobe.com/Variables/1.0/">
	<!ENTITY ns_imrep "http://ns.adobe.com/ImageReplacement/1.0/">
	<!ENTITY ns_sfw "http://ns.adobe.com/SaveForWeb/1.0/">
	<!ENTITY ns_custom "http://ns.adobe.com/GenericCustomNamespace/1.0/">
	<!ENTITY ns_adobe_xpath "http://ns.adobe.com/XPath/1.0/">
]>
<svg version="1.1" id="Слой_1" xmlns:x="&ns_extend;" xmlns:i="&ns_ai;" xmlns:graph="&ns_graphs;"
	 xmlns="http://www.w3.org/2000/svg" xmlns:xlink="http://www.w3.org/1999/xlink" x="0px" y="0px" viewBox="0 0 150 100.0063019"
	 style="enable-background:new 0 0 150 100.0063019;" xml:space="preserve"><g transform="translate(22.541642692348745 15.028708829419717) scale(0.6994447641020167)">
<style type="text/css">
	.st0{fill:#DBD4CA;}
	.st1{fill:none;stroke:#565440;}
	.st2{fill:none;stroke:#565440;stroke-width:1.0000414;stroke-miterlimit:4.0001655;}
	.st3{fill:#565440;}
</style>
<metadata>
	<sfw  xmlns="&ns_sfw;">
		<slices></slices>
		<sliceSourceBounds  bottomLeftOrigin="true" height="100.0031738" width="90.4254379" x="29.8296299" y="0.0031509">
			</sliceSourceBounds>
	</sfw>
</metadata>
<polygon id="Floor" class="st0" points="30.3067493,27.7840919 30.3067493,95.5542297 39.9877319,95.5542297 53.1519928,98.5222473 
	54.1413193,95.389328 66.0490799,95.389328 66.0490799,94.1526489 86.7896805,99.4291458 88.438591,95.389328 99.564415,95.389328 
	115.6455765,98.9344711 119.2731934,82.3629379 115.7423325,81.1393585 115.7423325,68.8748703 116.2944794,68.8748703 
	119.6925659,54.1666222 115.4110413,53.2007065 115.4110413,43.8142014 118.8123322,30.6119347 115.8159485,28.7957993 
	115.8159485,14.9226217 116.4700317,15.0875034 119.6925659,1.9338354 119.1104279,1.7313367 119.1104279,-0.0000219 
	52.9046402,-0.0000219 52.9046402,27.7840919 "/>
<g id="Windows">
	<path class="st1" d="M40.5468712,94.3147125l12.8606491,2.9678802l-0.2473297,1.2365646l-12.8606491-2.9678116
		L40.5468712,94.3147125z"/>
	<path class="st1" d="M66.5979156,93.3254471l20.8573303,4.7815247l-0.2473297,1.2365646l-20.8574066-4.7815247
		L66.5979156,93.3254471z"/>
	<polygon class="st1" points="119.2772751,82.6081543 118.0407104,82.3609009 114.660614,97.4474564 94.7924423,93.4903107 
		94.6275787,94.7268982 115.6498489,98.9313736 115.7323456,98.3543243 	"/>
	
		<rect x="109.7558899" y="7.4849253" transform="matrix(0.2514896 -0.96786 0.96786 0.2514896 79.8674622 119.477211)" class="st2" width="14.8454809" height="1.2348804"/>
	
		<rect x="109.7582703" y="61.6093712" transform="matrix(0.2514896 -0.96786 0.96786 0.2514896 27.4843616 159.9922485)" class="st2" width="14.8455067" height="1.2348931"/>
	
		<rect x="109.7570419" y="36.0590973" transform="matrix(0.2514896 -0.96786 0.96786 0.2514896 52.212532 140.8664093)" class="st2" width="14.8455067" height="1.2348931"/>
</g>
<g id="Walls">
	<polygon class="st3" points="33.9516373,92.0888062 33.9516373,30.258667 38.8156281,30.258667 38.8156281,27.7854385 
		33.9516373,27.7854385 33.7867012,27.7854385 29.8296299,27.7854385 29.8296299,96.2107925 33.9516373,96.2107925 
		38.3326683,96.2107925 40.3819084,96.7055435 41.2888565,92.6659317 38.8980179,92.0888062 	"/>
	<polygon class="st3" points="53.7372398,94.5620346 52.830471,98.6015472 55.2211571,99.178772 55.9059677,96.1284256 
		66.9277115,96.1284256 66.9277115,91.1820374 53.7372398,91.1820374 	"/>
	<polygon class="st3" points="87.5377884,96.1210251 86.795784,99.4260254 89.1865387,100.0031509 90.0563965,96.1284256 
		99.9037857,96.1284256 99.9037857,91.1820374 87.5377884,91.1820374 	"/>
	<polygon class="st3" points="75.1717987,60.7614861 75.1717987,93.1605911 74.6771164,95.3864136 75.5015182,95.5513458 
		75.99617,93.3254471 75.99617,61.5859642 76.820549,61.5859642 76.820549,60.7614861 75.99617,60.7614861 	"/>
	<polygon class="st3" points="116.5567169,62.0806198 116.7216568,61.2562447 114.7430801,60.7614861 86.0538712,60.7614861 
		86.0538712,55.402916 85.229393,55.402916 85.229393,60.7614861 83.4157867,60.7614861 83.4157867,61.5859642 
		114.5781479,61.5859642 	"/>
	<polygon class="st3" points="72.1214218,17.0681973 71.2970428,17.0681973 71.2970428,29.434267 55.3860931,29.434267 
		55.3860931,27.7854385 55.3860931,2.4763038 71.2970428,2.4763038 71.2970428,10.4729624 72.1214218,10.4729624 
		72.1214218,2.4763038 119.7718582,2.4763038 119.7718582,0.0031509 55.3860931,0.0031509 53.4899864,0.0031509 
		52.9128647,0.0031509 52.9128647,27.7854385 46.8947525,27.7854385 46.8947525,30.258667 48.5435295,30.258667 
		48.5435295,39.491993 49.3680077,39.491993 49.3680077,30.258667 55.3860931,30.258667 58.8485565,30.258667 58.8485565,50.868721 
		49.3680077,50.868721 49.3680077,46.0872002 48.5435295,46.0872002 48.5435295,50.868721 48.5435295,51.6931229 
		49.3680077,51.6931229 75.5015182,51.6931229 75.9137039,51.6931229 76.3258972,51.6931229 76.3258972,45.7574043 
		75.5015182,45.7574043 75.5015182,50.868721 59.6729584,50.868721 59.6729584,30.258667 75.5015182,30.258667 
		75.5015182,39.1621704 76.3258972,39.1621704 76.3258972,30.258667 78.0910645,30.258667 78.0910645,29.434267 
		72.1214218,29.434267 	"/>
	<polygon class="st3" points="116.3727646,68.4492645 111.426384,68.4492645 111.426384,82.3282928 115.9157867,82.3282928 
		119.5880051,83.152771 120.1650543,80.7619095 116.3727646,79.9106445 	"/>
	<polygon class="st3" points="116.3727646,44.0142326 116.867424,41.9649658 112.8278351,41.0581245 112.269928,43.4488602 
		112.2507629,43.4488602 112.2507629,55.4366188 115.9157867,55.4366188 119.5880051,56.260994 120.1650543,53.8702316 
		116.3727646,53.0188904 	"/>
	<polygon class="st3" points="117.779686,27.7842731 116.3926926,27.7842731 116.3926926,14.5960321 116.3727646,14.5960321 
		116.3727646,14.5947914 111.4339294,14.5947914 111.433197,27.7854385 85.2187119,27.7854385 85.2187119,29.434267 
		84.6523514,29.434267 84.6523514,30.258667 85.2187119,30.258667 85.229393,30.258667 85.229393,48.4785461 86.0538712,48.4785461 
		86.0538712,30.258667 111.433197,30.258667 111.433197,30.259655 116.7343369,30.259655 117.5440521,30.2575035 
		119.5902328,30.7530708 119.5905609,30.7515011 119.5932999,30.7521591 120.170372,28.3613968 	"/>
</g>
<path id="Doors" class="st1" d="M83.4211044,61.5390968c0,0.9068413-0.1648636,1.6933899-0.4946594,2.5177879
	c-0.3297958,0.824379-0.8243713,1.566391-1.4015274,2.1434402c-0.5771179,0.6595154-1.3190536,1.1541901-2.1434326,1.4839172
	c-0.8243713,0.3297195-1.6487732,0.4946518-2.5556183,0.4946518v-6.6397743 M75.8365326,45.8405571
	c-0.9068451,0-1.6487808-0.1649361-2.4732285-0.4946556c-0.824379-0.3297195-1.5662842-0.8243752-2.1434402-1.4015274
	c-0.6595154-0.5771217-1.1541901-1.3190575-1.4839096-2.1434326c-0.3297958-0.8244743-0.4946594-1.6488533-0.4946594-2.5556946
	h6.5952377 M71.3848267,17.1513233c-0.9068451,0-1.6487732-0.1648598-2.4732285-0.4946556
	c-0.8243713-0.3297958-1.5663834-0.8243752-2.1434326-1.4015245c-0.6595154-0.5771246-1.1541977-1.3190575-1.4839172-2.1434336
	c-0.3297195-0.8243752-0.4946518-1.648777-0.4946518-2.5556965h6.5952301 M84.6576691,29.5998096
	c0-0.9068432-0.1648636-1.648777-0.4946594-2.4732285c-0.3297195-0.8243771-0.824379-1.5663853-1.4015274-2.1434326
	c-0.5770493-0.6595173-1.3190536-1.1541977-2.1434326-1.4839172c-0.8243713-0.3297195-1.6487732-0.4946556-2.5556946-0.4946556
	v6.5952339 M48.5488472,39.5750427c-0.9068451,0-1.648777,0.1648598-2.4732285,0.4946556
	c-0.8243752,0.3297958-1.5663872,0.8243752-2.1434326,1.4015236c-0.6595154,0.5771255-1.1541977,1.3190575-1.4839172,2.1434326
	s-0.4946556,1.648777-0.4946556,2.5556221h6.5952339 M86.0591888,48.561039c0.9893417,0,1.8136368,0.1648598,2.7204819,0.4946556
	c0.9068451,0.3297195,1.6487808,0.9068413,2.2258987,1.4839172c0.6595154,0.5770454,1.2365646,1.4014244,1.566391,2.2258987
	c0.3297195,0.8243752,0.4946518,1.7312469,0.4946518,2.7205582h-7.0074234 M46.8999939,27.8685646
	c0-1.071703-0.2473259-2.0610409-0.6595154-3.0502758c-0.4121895-0.9893379-0.9893379-1.9785748-1.8137131-2.7204819
	c-0.7419853-0.7419834-1.648777-1.4015255-2.6380882-1.8137131c-0.9893379-0.4121876-2.0610428-0.6595154-3.1327438-0.6595154
	v8.2439861"/>
</g></svg>
