<?xml version="1.0" encoding="utf-8"?>
<!-- DO NOT EDIT THIS, THIS FILE IS GENERATED FROM "1_41-42_2.original.svg" using transform-svgs.js script -->
<!-- Generator: Adobe Illustrator 24.2.0, SVG Export Plug-In . SVG Version: 6.00 Build 0)  -->
<!DOCTYPE svg PUBLIC "-//W3C//DTD SVG 1.1//EN" "http://www.w3.org/Graphics/SVG/1.1/DTD/svg11.dtd" [
	<!ENTITY ns_extend "http://ns.adobe.com/Extensibility/1.0/">
	<!ENTITY ns_ai "http://ns.adobe.com/AdobeIllustrator/10.0/">
	<!ENTITY ns_graphs "http://ns.adobe.com/Graphs/1.0/">
	<!ENTITY ns_vars "http://ns.adobe.com/Variables/1.0/">
	<!ENTITY ns_imrep "http://ns.adobe.com/ImageReplacement/1.0/">
	<!ENTITY ns_sfw "http://ns.adobe.com/SaveForWeb/1.0/">
	<!ENTITY ns_custom "http://ns.adobe.com/GenericCustomNamespace/1.0/">
	<!ENTITY ns_adobe_xpath "http://ns.adobe.com/XPath/1.0/">
]>
<svg version="1.1" id="Слой_1" xmlns:x="&ns_extend;" xmlns:i="&ns_ai;" xmlns:graph="&ns_graphs;"
	 xmlns="http://www.w3.org/2000/svg" xmlns:xlink="http://www.w3.org/1999/xlink" x="0px" y="0px" viewBox="0 0 150 100"
	 style="enable-background:new 0 0 150 100;" xml:space="preserve"><g transform="translate(7.062203044402618 4.708135362935079) scale(0.9058372927412984)">
<style type="text/css">
	.st0{fill:#DBD4CA;}
	.st1{fill:#565440;}
	.st2{fill:none;stroke:#565440;}
</style>
<metadata>
	<sfw  xmlns="&ns_sfw;">
		<slices></slices>
		<sliceSourceBounds  bottomLeftOrigin="true" height="99.9962692" width="60.2584953" x="44.8707542" y="0"></sliceSourceBounds>
	</sfw>
</metadata>
<polygon id="Floor" class="st0" points="45.5460205,0.5076294 45.5460205,99.6883545 90.6635132,99.6883545 90.6635132,45.3433838 
	104.6281128,45.3433838 104.6281128,0.5076294 "/>
<g id="Walls">
	<polygon class="st1" points="71.5605392,43.7665863 71.3947678,43.7665863 71.3947678,43.1449928 70.8560638,43.1449928 
		70.8560638,43.7665863 48.2715302,43.7665863 48.2715302,41.1558762 45.1221123,41.1558762 45.1221123,43.7665863 
		45.1221123,45.3412819 71.5605392,45.3412819 	"/>
	<polygon class="st1" points="48.2715302,30.1329765 47.7328224,30.1329765 47.7328224,25.7404003 70.8560638,25.7404003 
		70.8560638,39.0424728 71.3947678,39.0424728 71.3947678,25.7404003 72.4307556,25.7404003 72.4307556,25.2016659 
		71.3947678,25.2016659 70.8560638,25.2016659 47.7328224,25.2016659 47.7328224,19.1100788 45.1221123,19.1100788 
		45.1221123,30.1329765 45.1221123,33.1580544 45.1221123,33.8211021 48.2715302,33.8211021 	"/>
	<polygon class="st1" points="48.2715302,8.1286097 45.1221123,8.1286097 45.1221123,11.775281 45.1221123,11.8167105 
		48.2715302,11.8167105 	"/>
	<polygon class="st1" points="60.8691254,2.865787 71.8505936,2.865787 71.8505936,0.2551032 60.8691254,0.2551032 
		59.7088242,0.2551032 57.1810265,0.2551032 57.1810265,3.4044955 60.8691254,3.4044955 	"/>
	<polygon class="st1" points="102.2672043,8.1286097 102.2672043,31.7491283 89.8767776,31.7491283 89.3380737,31.7491283 
		87.8876877,31.7491283 87.8876877,32.287838 89.3380737,32.287838 89.3380737,33.8211021 89.8767776,33.8211021 
		89.8767776,32.287838 102.2672043,32.287838 102.2672043,43.7665863 90.7470245,43.7665863 89.8767776,43.7665863 
		89.8767776,38.4208794 89.3380737,38.4208794 89.3380737,43.7665863 89.1723251,43.7665863 89.1723251,45.3412819 
		89.1723251,46.0871887 78.6881104,46.0871887 78.6881104,32.287838 79.1853943,32.287838 79.7240982,32.287838 
		83.9509354,32.287838 83.9509354,31.7491283 79.7240982,31.7491283 79.7240982,31.1689644 79.1853943,31.1689644 
		79.1853943,31.7491283 78.6881104,31.7491283 78.1494064,31.7491283 78.1494064,32.287838 78.1494064,51.1013565 
		78.6881104,51.1013565 78.6881104,46.6258965 89.1723251,46.6258965 89.1723251,57.0272255 78.6881104,57.0272255 
		78.6881104,55.2038803 78.1494064,55.2038803 78.1494064,64.1962585 78.1494064,64.7349625 78.6881104,64.7349625 
		79.1025085,64.7349625 79.1025085,64.1962585 78.6881104,64.1962585 78.6881104,57.565937 89.1723251,57.565937 
		89.1723251,64.1962585 82.7077484,64.1962585 82.7077484,64.7349625 89.1723251,64.7349625 89.1723251,68.1744385 
		90.7470245,68.1744385 90.7470245,45.3412819 102.2672043,45.3412819 104.8778839,45.3412819 104.8778839,43.7665863 
		104.8778839,8.1286097 	"/>
	<polygon class="st1" points="79.1853943,27.0250149 79.7240982,27.0250149 79.7240982,3.4044955 82.8735199,3.4044955 
		82.8735199,2.865787 93.1505127,2.865787 93.1505127,0.2551032 82.8735199,0.2551032 82.5420074,0.2551032 79.1853943,0.2551032 
		79.1853943,2.865787 79.1853943,3.4044955 79.1853943,25.2016659 76.3260803,25.2016659 76.3260803,25.7404003 
		79.1853943,25.7404003 	"/>
	<rect x="45.1221123" y="52.1373444" class="st1" width="2.6107092" height="3.6881261"/>
	<rect x="45.1221123" y="63.1602669" class="st1" width="3.1494176" height="3.6881008"/>
	<polygon class="st1" points="89.1723251,81.5179672 85.1941223,81.5179672 85.1941223,82.0566711 89.1723251,82.0566711 
		89.1723251,88.0653992 86.3544235,88.0653992 86.3544235,88.6041107 89.1723251,88.6041107 89.1723251,98.4252777 
		79.0610809,98.4252777 79.0610809,88.6041107 82.3348083,88.6041107 82.3348083,88.0653992 79.0610809,88.0653992 
		78.5223694,88.0653992 78.5223694,88.6041107 78.5223694,98.4252777 47.7328224,98.4252777 47.7328224,96.187561 
		45.1221123,96.187561 45.1221123,98.4252777 45.1221123,99.9999771 45.1221123,100 47.7328224,100 47.7328224,99.9999771 
		90.7470245,99.9999771 90.7470245,99.2540665 90.7470245,98.4252777 90.7470245,73.3958282 89.1723251,73.3958282 	"/>
	<polygon class="st1" points="47.7328224,83.672821 48.2715302,83.672821 48.2715302,82.0566711 79.9312973,82.0566711 
		80.1799545,82.0566711 81.2987976,82.0566711 81.2987976,81.5179672 80.1799545,81.5179672 80.1799545,80.4819794 
		48.2715302,80.4819794 48.2715302,78.7000809 47.7328224,78.7000809 47.7328224,74.0174255 45.1221123,74.0174255 
		45.1221123,78.7000809 45.1221123,79.0315933 45.1221123,80.4819794 45.1221123,82.0152435 45.1221123,82.0566711 
		45.1221123,82.8854599 45.1221123,83.672821 45.1221123,88.6041107 47.7328224,88.6041107 	"/>
</g>
<g id="Windows">
	<polygon id="Windows_2_" class="st2" points="103.8418961,0.5037317 45.3707542,0.5037317 45.3707542,41.4045296 
		46.1581078,41.4045296 46.1581078,1.2910814 103.8418961,1.2910814 103.8418961,8.3772364 104.6292496,8.3772364 
		104.6292496,0.5037317 	"/>
	<path id="Windows_1_2_" class="st2" d="M45.3707542,45.0926399h0.7873459v29.3391762h-0.7873459V45.0926399z"/>
	<path id="Windows_2_1_" class="st2" d="M45.3707542,80.9792557h0.7873459v18.0676117h-0.7873459V80.9792557z"/>
</g>
<g id="Doors">
	<path class="st2" d="M78.1908493,55.2867622c-0.5801544,0-1.0359879-0.124321-1.5746994-0.3315163
		c-0.5387039-0.2071991-0.994545-0.5387154-1.3675003-0.9116669c-0.4143906-0.3729553-0.745903-0.8287926-0.9531021-1.3675079
		s-0.3315125-1.0359879-0.3315125-1.6161385h4.1853714"/>
	<path class="st2" d="M82.9149475,64.527771c0,0.5801544-0.1243134,1.0359879-0.3315125,1.574707
		c-0.2071991,0.5387115-0.5387039,0.994545-0.9116745,1.3675003c-0.3729477,0.4143982-0.8287888,0.7459183-1.3674927,0.9531097
		c-0.5387115,0.2071991-1.0359879,0.3315201-1.6161423,0.3315201v-4.1853943"/>
	<path class="st2" d="M85.1941223,81.6837234c0-0.5387115-0.0828857-0.9531097-0.2900848-1.4503784
		c-0.2071991-0.4972763-0.4972763-0.9116669-0.8287888-1.243187c-0.3315125-0.3729553-0.7873459-0.6630325-1.243187-0.8702316
		c-0.4972763-0.2071991-0.9531021-0.2900772-1.4918213-0.2900772v3.8953171"/>
	<path class="st2" d="M90.6641388,68.1744461c0.6630402,0,1.3260727,0.1657562,1.9476624,0.4143906
		c0.6215973,0.248642,1.243187,0.6215973,1.7404633,1.1603088c0.4558411,0.4558411,0.9116745,1.0359879,1.1603012,1.6575851
		c0.248642,0.6215897,0.4143982,1.3260574,0.4143982,1.9890976h-5.262825"/>
	<path class="st2" d="M72.2235641,25.3674335c0-0.5801525,0.1243134-1.0359879,0.3315048-1.5747013
		c0.2071991-0.5387154,0.5387115-0.9945488,0.9116745-1.367506c0.3729553-0.4143944,0.8287888-0.7459126,1.3675003-0.9531097
		s1.0359879-0.3315182,1.6161423-0.3315182v4.1853905"/>
	<path class="st2" d="M79.1853943,31.1689644c-0.5801544,0-1.0359879-0.1243191-1.5746994-0.3315163
		c-0.5387039-0.2071991-0.994545-0.5387154-1.3675003-0.9116688c-0.4143906-0.3729553-0.745903-0.8287907-0.9531021-1.3675041
		c-0.2071991-0.5387154-0.3315125-1.0359879-0.3315125-1.6161423h4.1853943"/>
	<path class="st2" d="M70.9389343,43.1864281c-0.5801544,0-1.0359879-0.124321-1.5746994-0.3315163
		c-0.5387039-0.2071991-0.994545-0.5387154-1.3674927-0.9116707c-0.4143982-0.3729515-0.7459106-0.8287888-0.9531097-1.3675079
		c-0.2071915-0.5387115-0.3315048-1.0359879-0.3315048-1.6161385h4.1853867"/>
	<path class="st2" d="M83.9094925,31.956316c0-0.5801544,0.1243134-1.0359879,0.3315125-1.5747032
		c0.2071991-0.5387135,0.5387115-0.9945488,0.9116745-1.3675041c0.3729553-0.4143944,0.8287888-0.7459126,1.3675003-0.9531097
		c0.5387039-0.2071972,1.0359879-0.3315182,1.6161346-0.3315182v4.1853905"/>
	<path class="st2" d="M82.3348007,88.1897278c0-0.5387115,0.0828781-0.994545,0.2900772-1.5332565
		c0.2071991-0.4972763,0.4972839-0.9531174,0.8702316-1.3260651c0.3729553-0.4143982,0.8287888-0.7044754,1.3260727-0.9116669
		c0.4972763-0.2071991,0.994545-0.2900772,1.5746918-0.2900772v4.0610733"/>
</g>
</g></svg>
