<?xml version="1.0" encoding="utf-8"?>
<!-- DO NOT EDIT THIS, THIS FILE IS GENERATED FROM "1_7-12_10.original.svg" using transform-svgs.js script -->
<!-- Generator: Adobe Illustrator 24.2.0, SVG Export Plug-In . SVG Version: 6.00 Build 0)  -->
<!DOCTYPE svg PUBLIC "-//W3C//DTD SVG 1.1//EN" "http://www.w3.org/Graphics/SVG/1.1/DTD/svg11.dtd" [
	<!ENTITY ns_extend "http://ns.adobe.com/Extensibility/1.0/">
	<!ENTITY ns_ai "http://ns.adobe.com/AdobeIllustrator/10.0/">
	<!ENTITY ns_graphs "http://ns.adobe.com/Graphs/1.0/">
	<!ENTITY ns_vars "http://ns.adobe.com/Variables/1.0/">
	<!ENTITY ns_imrep "http://ns.adobe.com/ImageReplacement/1.0/">
	<!ENTITY ns_sfw "http://ns.adobe.com/SaveForWeb/1.0/">
	<!ENTITY ns_custom "http://ns.adobe.com/GenericCustomNamespace/1.0/">
	<!ENTITY ns_adobe_xpath "http://ns.adobe.com/XPath/1.0/">
]>
<svg version="1.1" id="Слой_1" xmlns:x="&ns_extend;" xmlns:i="&ns_ai;" xmlns:graph="&ns_graphs;"
	 xmlns="http://www.w3.org/2000/svg" xmlns:xlink="http://www.w3.org/1999/xlink" x="0px" y="0px" viewBox="0 0 150 100"
	 style="enable-background:new 0 0 150 100;" xml:space="preserve"><g transform="translate(25.368924527379228 16.912616351586152) scale(0.661747672968277)">
<style type="text/css">
	.st0{fill:#DBD4CA;}
	.st1{fill:none;stroke:#565440;}
	.st2{fill:none;stroke:#565440;stroke-width:1.0000414;stroke-miterlimit:4.0001655;}
	.st3{fill:#565440;}
</style>
<metadata>
	<sfw  xmlns="&ns_sfw;">
		<slices></slices>
		<sliceSourceBounds  bottomLeftOrigin="true" height="99.957901" width="111.6787033" x="19.1578064" y="-0.0142261">
			</sliceSourceBounds>
	</sfw>
</metadata>
<polygon id="Floor_1_" class="st0" points="19.1578064,10.7408352 126.9822159,10.7408352 130.1175842,13.1475029 
	125.4737778,29.7000675 125.3496933,42.97649 129.9704437,44.5249214 125.8098145,61.3897667 125.8098145,76.9740524 
	129.7222137,78.2834702 125.136528,98.5288696 104.8984451,94.6072083 92.7364883,94.4971848 90.0817108,99.1847229 
	64.006134,93.2743301 50.0037766,93.019577 48.1220589,98.1656952 30.256134,93.9874573 19.1578064,93.9184341 "/>
<g id="Windows">
	<path class="st1" d="M32.4109459,92.9827805l15.8969002,3.6685638l-0.3057213,1.5285034l-15.8968964-3.6685715
		L32.4109459,92.9827805z"/>
	<path class="st1" d="M64.6124344,91.7599945l25.781601,5.9103851l-0.3057175,1.5285034l-25.7816086-5.9103851
		L64.6124344,91.7599945z"/>
	<polygon class="st1" points="129.728775,78.5125351 128.2002716,78.2068176 124.0221786,96.8551254 99.4633942,91.9637756 
		99.2596054,93.4922791 125.2449951,98.6893768 125.3469315,97.9760971 	"/>
	
		<rect x="117.9650803" y="52.5575523" transform="matrix(0.2514896 -0.96786 0.96786 0.2514896 43.5587502 162.9651031)" class="st2" width="18.3503284" height="1.526437"/>
	
		<rect x="118.9936905" y="19.9867554" transform="matrix(0.2514896 -0.96786 0.96786 0.2514896 75.2424088 138.7920074)" class="st2" width="16.7197895" height="1.526437"/>
</g>
<g id="Walls">
	<polygon class="st3" points="24.2586517,90.2314606 24.2586517,13.8037519 31.5956955,13.8037519 31.5956955,10.746623 
		24.2586517,10.746623 19.1634884,10.746623 19.1634884,95.326622 24.2586517,95.326622 29.673996,95.326622 32.2070389,95.9380646 
		33.3281021,90.9447403 30.372818,90.2314606 	"/>
	<polygon class="st3" points="48.7154999,93.2884979 47.5945625,98.2818146 50.5497551,98.9951935 51.3961487,95.2246857 
		65.0200882,95.2246857 65.0200882,89.1105194 48.7154999,89.1105194 	"/>
	<polygon class="st3" points="90.4959717,95.2154541 89.5787811,99.3008194 92.5339737,100.0142288 93.6091843,95.2246857 
		105.7814331,95.2246857 105.7814331,89.1105194 90.4959717,89.1105194 	"/>
	<polygon class="st3" points="75.2103882,51.5080605 75.2103882,91.5560913 74.5990372,94.3074951 75.6180725,94.5114059 
		76.2294159,91.7599945 76.2294159,52.527153 77.2485123,52.527153 77.2485123,51.5080605 76.2294159,51.5080605 	"/>
	<polygon class="st3" points="84.1779327,39.2796021 84.1779327,40.2987289 91.5149689,40.2987289 91.5149689,42.3367653 
		92.5339737,42.3367653 92.5339737,40.2987289 92.5339737,39.2796021 86.4198074,39.2796021 86.4198074,13.8037519 
		127.5900574,13.8037519 130.1231384,14.4151907 130.8365173,11.4599991 127.8813171,10.746623 41.8879585,10.746623 
		41.8879585,13.8037519 44.63937,13.8037519 44.63937,20.7332306 45.658371,20.7332306 45.658371,13.8037519 66.039093,13.8037519 
		66.039093,39.2796021 45.658371,39.2796021 45.658371,28.987463 44.63937,28.987463 44.63937,40.2987289 45.658371,40.2987289 
		76.1275711,40.2987289 76.1275711,39.2796021 67.0581207,39.2796021 67.0581207,13.8037519 85.4007111,13.8037519 
		85.4007111,39.2796021 	"/>
	<polygon class="st3" points="126.3660278,53.1386261 126.569809,52.1194992 124.124115,51.5080605 92.5339737,51.5080605 
		92.5339737,50.4890251 91.5149689,50.4890251 91.5149689,51.5080605 85.4007111,51.5080605 85.4007111,52.527153 
		123.9202423,52.527153 	"/>
	<polygon class="st3" points="126.141243,61.0122414 120.0270767,61.0122414 120.0270767,78.1680374 125.5763474,78.1680374 
		130.1155243,79.1870728 130.8289032,76.2317581 126.141243,75.179512 	"/>
	<polygon class="st3" points="126.7527771,28.2752132 121.7594528,27.1542435 121.0698624,30.1094341 121.0460815,30.1094341 
		121.0460815,44.9274597 125.5763474,44.9274597 130.1155243,45.9464607 130.8289032,42.9912682 126.141243,41.9389343 
		126.141243,30.8082581 	"/>
</g>
<path id="Doors" class="st1" d="M85.4007111,52.527153c0,1.1209412-0.2037811,2.0380363-0.6114349,3.0571327
	c-0.4076614,1.019001-1.0190048,1.9361877-1.7324066,2.6494713c-0.7133789,0.8152199-1.6304779,1.4266891-2.6494751,1.8342514
	c-1.0190048,0.4075661-2.0380325,0.6114388-3.1589737,0.6114388V52.527153 M76.0256348,39.2796021
	c0-1.1209373,0.2038803-2.0381279,0.6114426-3.0571289s1.0189972-1.9361916,1.7324066-2.6494713
	c0.7133789-0.8152199,1.6304703-1.4266891,2.6494751-1.8342533c1.0189972-0.4075642,2.0380325-0.6114388,3.1589737-0.6114388
	v8.1522923 M45.658371,28.8854313c1.1209412,0,2.0380363-0.2037811,3.0571289-0.6114388
	c1.0190048-0.4076576,1.9361916-1.019001,2.6494751-1.7324085c0.8152199-0.713377,1.4266891-1.6304722,1.8342514-2.6494732
	s0.6114388-2.0380344,0.6114388-3.1589737H45.658371 M92.5339737,42.3367653c1.1209412,0,2.0380325,0.2037811,3.0571289,0.6114388
	c1.0190048,0.4076538,1.9361877,1.0191269,2.6494751,1.7324066c0.8152161,0.7133751,1.4266891,1.6304703,1.8342514,2.6494751
	c0.4075623,1.019001,0.6114349,2.0380325,0.6114349,3.1589737h-8.1522903 M31.6975384,10.746623
	c0-1.3247213,0.3057194-2.5476294,0.8152218-3.7704124c0.5094986-1.2227831,1.222908-2.4456911,2.241909-3.3627548
	c0.9171562-0.9171576,2.0381279-1.732409,3.26091-2.2419097c1.222908-0.5095007,2.5476303-0.8152199,3.8723488-0.8152199V10.746623"
	/>
</g></svg>
