<?xml version="1.0" encoding="utf-8"?>
<!-- DO NOT EDIT THIS, THIS FILE IS GENERATED FROM "1_7-12_6.original.svg" using transform-svgs.js script -->
<!-- Generator: Adobe Illustrator 24.2.0, SVG Export Plug-In . SVG Version: 6.00 Build 0)  -->
<!DOCTYPE svg PUBLIC "-//W3C//DTD SVG 1.1//EN" "http://www.w3.org/Graphics/SVG/1.1/DTD/svg11.dtd" [
	<!ENTITY ns_extend "http://ns.adobe.com/Extensibility/1.0/">
	<!ENTITY ns_ai "http://ns.adobe.com/AdobeIllustrator/10.0/">
	<!ENTITY ns_graphs "http://ns.adobe.com/Graphs/1.0/">
	<!ENTITY ns_vars "http://ns.adobe.com/Variables/1.0/">
	<!ENTITY ns_imrep "http://ns.adobe.com/ImageReplacement/1.0/">
	<!ENTITY ns_sfw "http://ns.adobe.com/SaveForWeb/1.0/">
	<!ENTITY ns_custom "http://ns.adobe.com/GenericCustomNamespace/1.0/">
	<!ENTITY ns_adobe_xpath "http://ns.adobe.com/XPath/1.0/">
]>
<svg version="1.1" id="Слой_1" xmlns:x="&ns_extend;" xmlns:i="&ns_ai;" xmlns:graph="&ns_graphs;"
	 xmlns="http://www.w3.org/2000/svg" xmlns:xlink="http://www.w3.org/1999/xlink" x="0px" y="0px" viewBox="0 0 150 100"
	 style="enable-background:new 0 0 150 100;" xml:space="preserve"><g transform="translate(0.5247576346073285 0.34983842307155233) scale(0.993003231538569)">
<style type="text/css">
	.st0{fill:#DBD4CA;}
	.st1{fill:none;stroke:#565440;}
	.st2{fill:#565440;}
</style>
<metadata>
	<sfw  xmlns="&ns_sfw;">
		<slices></slices>
		<sliceSourceBounds  bottomLeftOrigin="true" height="99.9910507" width="55.9655762" x="47.0253296" y="0.0000219">
			</sliceSourceBounds>
	</sfw>
</metadata>
<polygon id="Floor_1_" class="st0" points="49.8895721,0.6565119 66.1595078,5.2711983 85.8723907,5.412169 86.8130722,1.2408414 
	101.7153549,4.7006464 101.7153549,67.8163223 88.9967422,67.8163223 88.9967422,78.7377396 84.4622803,78.7377396 
	84.4622803,99.5022659 49.8895721,99.5022659 "/>
<g id="Windows_1_">
	<path class="st1" d="M86.2711487,1.2861245l13.6416092,3.1480634l-0.2098541,1.0493546L86.0612869,2.265522L86.2711487,1.2861245z"
		/>
	<path class="st1" d="M49.8235855,48.926815h1.0493584v20.2875252h-1.0493584V48.926815z"/>
	<polygon class="st1" points="49.8235855,0.6565119 49.8235855,21.2238655 50.8729439,21.2238655 50.8729439,2.0556514 
		63.1853523,5.2736721 63.4651909,4.2243171 	"/>
</g>
<g id="Walls">
	<polygon class="st2" points="100.8921509,4.154336 100.8921509,4.1546412 98.0938721,4.1546412 98.0938721,8.3606348 
		100.8921509,8.3606348 100.8921509,32.8367081 84.802063,32.8367081 84.802063,33.536293 86.9008179,33.536293 
		86.9008179,39.8324356 87.6003418,39.8324356 87.6003418,33.536293 100.8921509,33.536293 100.8921509,51.7250748 
		87.6003418,51.7250748 87.6003418,45.3589859 86.9008179,45.3589859 86.9008179,52.4246597 87.6003418,52.4246597 
		100.8921509,52.4246597 100.8921509,65.7165298 99.493042,65.7165298 99.493042,67.8152237 100.8921509,67.8152237 
		102.9909058,67.8152237 102.9909058,4.154336 	"/>
	<polygon class="st2" points="49.1240234,49.6263809 52.5162964,49.6263809 53.3192749,49.6263809 77.8063965,49.6263809 
		77.8063965,48.926796 77.8063965,41.2315445 77.1068115,41.2315445 77.1068115,48.926796 68.4321289,48.926796 
		68.4321289,33.536293 68.4321289,32.8367081 67.03302,32.8367081 67.03302,33.536293 67.7325439,33.536293 67.7325439,48.926796 
		53.3192749,48.926796 53.3192749,33.536293 61.7162476,33.536293 61.7162476,32.8367081 53.3192749,32.8367081 
		53.3192749,14.6479273 49.1132813,14.6479273 49.1132813,15.3474512 47.0253296,15.3474512 47.0253296,17.446207 
		49.1132813,17.446207 49.1132813,25.8410435 47.0253296,25.8410435 47.0253296,27.9397373 49.1132813,27.9397373 
		49.1132813,36.3345718 47.0253296,36.3345718 47.0253296,38.4332657 49.1132813,38.4332657 49.1132813,47.5276871 
		47.0253296,47.5276871 47.0253296,49.6263809 49.1132813,49.6263809 	"/>
	<rect x="47.0253296" y="58.0212173" class="st2" width="4.8969727" height="2.0986938"/>
	<polygon class="st2" points="63.1154175,6.9526148 64.5016479,6.9526148 64.5016479,8.3514795 69.4057617,8.3514795 
		69.4057617,6.9526148 77.1068115,6.9526148 77.1068115,35.6349869 77.8063965,35.6349869 77.8063965,33.536293 
		79.2055054,33.536293 79.2055054,32.8367081 77.8063965,32.8367081 77.8063965,6.9526148 86.6108398,6.9526148 
		86.9008179,7.0226221 88.1599731,1.5659571 86.1312866,1.076272 85.2595215,4.8539209 69.4057617,4.8539209 69.4057617,4.8534327 
		66.0523682,4.8534327 63.2553101,3.7345972 62.4857788,5.6933985 63.1154175,5.9452295 	"/>
	<polygon class="st2" points="82.0037842,65.7165298 82.0037842,66.4160538 86.9008179,66.4160538 86.9008179,67.8152237 
		86.9008179,76.9096451 84.802063,76.9096451 82.7033691,76.9096451 82.7033691,86.7035904 61.7162476,86.7035904 
		61.7162476,82.5062027 61.0167236,82.5062027 61.0167236,86.7035904 61.0167236,87.4031754 70.111084,87.4031754 
		70.111084,88.1026993 70.8106689,88.1026993 70.8106689,87.4031754 82.7033691,87.4031754 82.7033691,97.9018936 
		70.8106689,97.9018936 70.8106689,93.6992569 70.111084,93.6992569 70.111084,97.9018936 53.3192749,97.9018936 
		53.3192749,83.2057266 55.420166,83.2057266 55.420166,82.5062027 53.3192749,82.5062027 53.3192749,68.5148087 
		49.1240234,68.5148087 49.1132813,68.5148087 47.0253296,68.5148087 47.0253296,70.6135025 49.1132813,70.6135025 
		49.1132813,79.7079239 47.0253296,79.7079239 47.0253296,81.8066177 49.1132813,81.8066177 49.1132813,99.9953995 
		50.5463257,99.9953995 50.5463257,99.9999771 83.2758789,99.9999771 83.2758789,99.9953995 84.802063,99.9953995 
		84.802063,79.0083389 86.9008179,79.0083389 88.9995117,79.0083389 88.9995117,67.8152237 92.4973755,67.8152237 
		92.4973755,65.7165298 86.9008179,65.7165298 	"/>
</g>
<path id="Doors" class="st1" d="M84.8020706,32.8367119c0-0.7695236-0.1399155-1.3991299-0.4197388-2.0987015
	c-0.2798233-0.6995697-0.6995773-1.3291798-1.1892853-1.8188801c-0.4897079-0.5596581-1.1193161-0.9793987-1.8188782-1.2592278
	c-0.6995773-0.279829-1.3991394-0.4197407-2.1686707-0.4197407v5.59655 M77.1068039,35.6349945
	c-0.7695313,0-1.3991394,0.1399117-2.0987091,0.4197388c-0.6995697,0.2798309-1.3291779,0.6995697-1.8188858,1.1892662
	c-0.5596466,0.4897003-0.979393,1.1193085-1.2592087,1.8188782c-0.2798309,0.6995735-0.419754,1.3991432-0.419754,2.1686668
	h5.5965576 M86.9007874,45.3590126c-0.7695313,0-1.3991394-0.1399117-2.0987167-0.4197426
	c-0.6995621-0.2798271-1.3291702-0.6995697-1.8188782-1.1892624c-0.5596542-0.4897003-0.9794006-1.1193123-1.2592239-1.818882
	s-0.4197464-1.3991394-0.4197464-2.168663h5.5965652 M61.6463127,33.5362816c0,0.6995697,0.1399231,1.3291855,0.4197388,1.9587975
	c0.2798271,0.6296158,0.6296158,1.2592278,1.1892815,1.7489281c0.4897079,0.4896965,1.1193161,0.9094391,1.7489243,1.1892662
	s1.3291779,0.4197388,2.0287476,0.4197388v-5.3167305 M61.0167046,82.5061722c0-0.7695313-0.1399269-1.3991394-0.4197502-2.0987091
	s-0.6995659-1.3291855-1.1892738-1.8188934c-0.4897079-0.5596542-1.1193161-0.979393-1.8188896-1.2592239
	c-0.6995659-0.2798233-1.3991394-0.4197464-2.1686707-0.4197464v5.5965576 M70.1111069,93.6992798
	c-0.7695313,0-1.3991394-0.1399078-2.0987015-0.4197388c-0.6995773-0.2798233-1.3291855-0.6995773-1.8188934-1.1892624
	c-0.5596466-0.4897003-0.9793854-1.1193237-1.2592163-1.8188934c-0.2798233-0.6995697-0.4197464-1.3991394-0.4197464-2.1686707
	h5.5965576 M92.497345,65.7164993c0-0.9094467,0.2098541-1.7489281,0.559639-2.5884132
	c0.3497925-0.8394814,0.8395004-1.6789703,1.5390625-2.3085861c0.6296082-0.6296082,1.3991394-1.1892662,2.2386322-1.5390472
	c0.8394928-0.3497849,1.7489243-0.5596581,2.6583557-0.5596581v6.9957047"/>
</g></svg>
