<?xml version="1.0" encoding="utf-8"?>
<!-- DO NOT EDIT THIS, THIS FILE IS GENERATED FROM "1_7-12_3.original.svg" using transform-svgs.js script -->
<!-- Generator: Adobe Illustrator 24.2.0, SVG Export Plug-In . SVG Version: 6.00 Build 0)  -->
<!DOCTYPE svg PUBLIC "-//W3C//DTD SVG 1.1//EN" "http://www.w3.org/Graphics/SVG/1.1/DTD/svg11.dtd" [
	<!ENTITY ns_extend "http://ns.adobe.com/Extensibility/1.0/">
	<!ENTITY ns_ai "http://ns.adobe.com/AdobeIllustrator/10.0/">
	<!ENTITY ns_graphs "http://ns.adobe.com/Graphs/1.0/">
	<!ENTITY ns_vars "http://ns.adobe.com/Variables/1.0/">
	<!ENTITY ns_imrep "http://ns.adobe.com/ImageReplacement/1.0/">
	<!ENTITY ns_sfw "http://ns.adobe.com/SaveForWeb/1.0/">
	<!ENTITY ns_custom "http://ns.adobe.com/GenericCustomNamespace/1.0/">
	<!ENTITY ns_adobe_xpath "http://ns.adobe.com/XPath/1.0/">
]>
<svg version="1.1" id="Слой_1" xmlns:x="&ns_extend;" xmlns:i="&ns_ai;" xmlns:graph="&ns_graphs;"
	 xmlns="http://www.w3.org/2000/svg" xmlns:xlink="http://www.w3.org/1999/xlink" x="0px" y="0px" viewBox="0 0 150 100"
	 style="enable-background:new 0 0 150 100;" xml:space="preserve"><g transform="translate(30.321594102010685 20.214396068007122) scale(0.5957120786398575)">
<style type="text/css">
	.st0{fill:#DBD4CA;}
	.st1{fill:none;stroke:#565440;}
	.st2{fill:#565440;}
</style>
<metadata>
	<sfw  xmlns="&ns_sfw;">
		<slices></slices>
		<sliceSourceBounds  bottomLeftOrigin="true" height="100" width="135.2223816" x="14.6005859" y="0"></sliceSourceBounds>
	</sfw>
</metadata>
<rect id="Floor" x="15.2983065" y="0.0070792" class="st0" width="120.0934753" height="99.9656219"/>
<path id="Windows" class="st1" d="M15.2950077,1.3888439h2.0832882v70.138916h-2.0832882V1.3888439z"/>
<path id="Doors" class="st1" d="M74.3227921,48.6110725c0-1.5277824,0.2777405-2.7777328,0.8333817-4.1667023
	c0.555481-1.3888474,1.3888626-2.6389236,2.3611526-3.6110878c0.972168-1.1111031,2.2222443-1.9445038,3.6110916-2.4999886
	c1.3888397-0.5556145,2.7777252-0.8333588,4.3055115-0.8333588v11.1111374 M110.4340134,38.8888206
	c0-1.5277786-0.2777481-2.777729-0.8333588-4.1666985c-0.5556183-1.3888474-1.3888474-2.6389236-2.3611832-3.6110897
	c-0.97229-1.1111012-2.2222443-1.9445-3.611084-2.4999866c-1.3888474-0.5554867-2.7777328-0.8333588-4.3055115-0.8333588v11.1111336
	 M135.4340057,49.999958c1.8055267,0,3.47229,0.4166794,5.1388702,1.1110992
	c1.6667633,0.6944237,3.3333435,1.6667595,4.5833893,3.055603c1.2500305,1.2500343,2.3610077,2.777729,3.055603,4.4444427
	c0.6944122,1.6667595,1.1110992,3.4722824,1.1110992,5.2778053h-13.8888245"/>
<g id="Walls">
	<polygon class="st2" points="14.6005859,41.6782837 14.6005859,51.4031754 21.5469589,51.4031754 21.5469589,50.0139046 
		74.3394318,50.0139046 74.3394318,48.6246376 21.5469589,48.6246376 21.5469589,41.6782837 	"/>
	<polygon class="st2" points="131.272049,63.8788414 131.272049,68.4710541 122.436264,68.4710541 122.436264,69.860321 
		131.272049,69.860321 131.272049,95.8321915 22.9640636,95.8321915 22.9640636,70.8252335 14.6005859,70.8252335 14.6005859,100 
		135.4398499,100 135.4398499,63.8788414 	"/>
	<polygon class="st2" points="14.6005859,0 14.6005859,22.2282848 22.9640636,22.2282848 22.9640636,4.1676831 
		95.1785736,4.1676831 95.1785736,38.8995705 86.8430328,38.8995705 86.8430328,48.6246376 85.4536362,48.6246376 
		85.4536362,50.0139046 96.5679703,50.0139046 96.5679703,48.6246376 88.2321777,48.6246376 88.2321777,40.2889709 
		99.3465118,40.2889709 99.3465118,38.8995705 96.5679703,38.8995705 96.5679703,4.1676831 131.272049,4.1676831 
		131.272049,38.8995705 110.4328995,38.8995705 110.4328995,40.2889709 131.272049,40.2889709 131.272049,50.0139046 
		135.4398499,50.0139046 135.4398499,0 	"/>
</g>
</g></svg>
