<svg width="60" height="60" viewBox="0 0 60 60" fill="none" xmlns="http://www.w3.org/2000/svg">
<path d="M30 60C46.5685 60 60 46.5685 60 30C60 13.4315 46.5685 0 30 0C13.4315 0 0 13.4315 0 30C0 46.5685 13.4315 60 30 60Z" fill="#565440"/>
<path d="M23.574 16.45C22.8561 16.772 22.174 17.1685 21.539 17.633C26.48 15.379 32.513 15.526 35.75 17.005C36.768 17.489 37.452 17.783 37.762 18.361C34.402 17.439 32.959 17.272 30.147 17.343C26.147 17.417 20.827 19.038 18.793 20.277L17.899 21.417C20.827 19.643 26.291 18.484 29.32 18.386C32.702 18.339 35.325 18.654 37.739 19.55C37.595 20.179 37.288 20.494 36.768 20.811C27.119 19.089 21.418 21.123 16.264 24.564L15.887 25.702C21.634 21.658 28.679 20.545 35.468 21.755C33.033 22.628 30.124 22.821 27.688 23.399C25.608 23.885 24.496 24.032 21.726 24.979C18.916 25.924 17.256 26.892 16.218 28.129C15.721 28.713 15.342 29.389 15.246 30.114C15.202 30.548 15.225 30.94 15.368 31.328C15.482 31.668 15.743 32.006 16.028 32.345C15.698 32.925 15.411 33.68 15.887 34.552C16.099 34.962 16.643 35.374 17.166 35.765L17.019 36.197C16.949 36.709 16.879 37.313 17.211 37.821C17.776 38.742 18.462 39.35 19.551 39.931C19.717 40.683 19.975 41.287 20.543 41.823C21.749 42.96 24.447 45.141 29.246 45.481C32.842 45.725 35.419 44.609 36.39 44.123L37.572 43.495C35.562 44.317 32.182 44.802 29.412 44.56C25.392 44.22 21.8 41.531 21.35 40.755C21.49 40.85 21.68 40.924 21.843 40.997C26.551 43.323 32.628 44.585 40.409 41.337L41.051 40.707C33.976 42.96 27.783 42.888 21.135 39.327C21.208 38.987 21.35 38.692 21.655 38.455C23.356 39.225 24.99 39.86 26.977 40.269C29.295 40.707 31.942 40.805 34.12 40.707C36.32 40.61 40.67 39.495 42.728 38.381C42.916 38.211 43.01 37.923 43.199 37.727C39.182 39.225 34.402 39.931 31.519 39.711C28.704 39.495 26.199 39.154 22.887 37.604C23.524 37.339 24.187 37.12 24.848 36.924C27.024 37.604 29.246 38.014 31.871 38.137C34.475 38.257 40.551 37.267 44.381 34.893C44.502 34.553 44.619 34.187 44.619 34.187C44.619 34.187 39.298 37.097 33.269 37.097C30.454 37.097 28.728 36.684 27.452 36.369C30.288 35.836 33.86 35.399 37.878 34.358C39.911 33.823 42.419 32.61 43.555 31.594C44.524 30.695 45.282 29.532 45.023 28.349C44.972 28.03 44.548 27.283 44.027 27.014C44.524 26.36 44.477 25.802 44.408 25.321C44.358 24.951 44.193 24.543 43.983 24.181C43.651 23.74 43.341 23.399 42.702 23.014C42.8 22.5056 42.7338 21.9793 42.513 21.511C42.017 20.639 41.12 19.889 39.583 19.089C39.512 18.773 39.32 18.361 38.992 17.95C37.054 15.987 33.883 15.042 31.21 14.992C31.06 14.989 30.911 14.988 30.765 14.988C27.638 14.988 25.128 15.708 23.574 16.45ZM38.708 21.296C38.946 21.029 39.298 20.617 39.391 20.277C40.056 20.714 40.812 21.368 40.905 22.047C40.198 21.777 39.441 21.491 38.708 21.297V21.296ZM39.298 24.251C38.165 23.934 37.172 23.546 35.844 23.307C36.651 22.989 37.192 22.652 37.668 22.263C38.728 22.552 39.722 22.918 40.531 23.28C40.391 23.491 39.581 24.259 39.335 24.259C39.3222 24.2596 39.3094 24.2568 39.298 24.251ZM41.356 25.099C41.662 24.856 41.947 24.592 42.208 24.275C42.845 24.832 43.034 25.22 42.728 25.826C42.304 25.512 41.851 25.341 41.356 25.099ZM17.071 31.11C15.318 28.638 21.395 26.87 22.556 26.505C25.511 25.605 28.966 24.931 32.088 24.543C34.235 24.275 35.374 24.52 37.409 25.076C32.182 26.506 27.024 26.963 22.105 28.443C18.139 29.623 17.087 31.11 17.071 31.11ZM18.368 32.296C20.213 30.695 23.975 29.8 25.348 29.485C29.721 28.515 33.789 27.91 35.468 27.475C37.503 26.963 38.922 26.481 39.911 25.997C39.959 25.924 41.567 26.722 41.733 26.914C41.19 27.377 40.436 27.766 39.606 28.054C37.123 28.976 32.606 29.944 30.219 30.314C27.806 30.723 25.792 31.036 23.124 31.76C21.584 32.175 20.543 32.66 19.786 33.17C19.219 32.83 18.888 32.734 18.368 32.296ZM21.8 34.235C22.578 33.895 23.43 33.628 24.255 33.414C28.419 32.366 32.088 32.175 37.148 30.771C39.583 30.114 41.356 29.41 42.469 28.541C42.633 28.393 42.799 28.273 42.965 28.129C44.431 30.454 38.922 32.248 35.159 33.076C33.1918 33.4744 31.2207 33.8531 29.246 34.212C26.79 34.624 25.982 34.843 24.28 35.352C23.43 35.012 22.578 34.648 21.8 34.235ZM17.374 33.508C17.754 33.753 18.036 33.948 18.487 34.187C18.321 34.332 18.107 34.479 17.943 34.647C17.567 34.427 17.185 33.947 17.374 33.507V33.508ZM19.339 35.738C19.576 35.52 19.882 35.303 20.213 35.086C20.923 35.426 21.655 35.737 22.341 36.054C21.8791 36.2267 21.4361 36.4461 21.019 36.709C20.4541 36.3935 19.8941 36.0694 19.339 35.737V35.738ZM18.723 36.924C19.125 37.192 19.527 37.409 19.931 37.629C19.765 37.872 19.645 38.063 19.576 38.308C18.984 37.798 18.698 37.386 18.723 36.924Z" fill="#E9E4DC"/>
</svg>
