<svg width="60" height="60" viewBox="0 0 60 60" fill="none" xmlns="http://www.w3.org/2000/svg">
<path d="M30 60C46.5685 60 60 46.5685 60 30C60 13.4315 46.5685 0 30 0C13.4315 0 0 13.4315 0 30C0 46.5685 13.4315 60 30 60Z" fill="#565440"/>
<path d="M30.7278 18H25.0917V30.7267H30.7465V18H30.7278ZM29.2721 29.3106H26.5661V19.4161H29.2721V29.3106Z" fill="#E9E4DC"/>
<path d="M42 32.1056H18V33.5031H42V32.1056Z" fill="#E9E4DC"/>
<path d="M18 42H19.4743V40.4162H27.8725V34.9193H18V42ZM19.4743 36.3168H26.3981V39H19.4743V36.3168Z" fill="#E9E4DC"/>
<path d="M33.6579 22.2298L36.3453 19.4161V30.7267H37.8196V22.2298L40.5257 19.4161V30.7267H42V18H39.9285L37.8196 20.1988V18H35.7481L32.1835 21.6894V30.7267H33.6579V22.2298Z" fill="#E9E4DC"/>
<path d="M29.3095 40.3975H34.8709V41.9814H36.4013V40.3975H42V34.9193H29.3095V40.3975ZM36.4013 36.3168H40.5257V39H36.4013V36.3168ZM30.7838 36.3168H34.8709V39H30.7838V36.3168Z" fill="#E9E4DC"/>
<path d="M22.1804 30.7267H23.6547V29.3106V18H21.5832L18 21.6894V29.2919V30.7081H19.4743H22.1804V30.7267ZM19.4743 22.2298L22.1804 19.4161V29.3106H19.4743V22.2298Z" fill="#E9E4DC"/>
</svg>
