<svg viewBox="0 0 60 60" fill="none" xmlns="http://www.w3.org/2000/svg">
<path d="M30 60C46.5685 60 60 46.5685 60 30C60 13.4315 46.5685 0 30 0C13.4315 0 0 13.4315 0 30C0 46.5685 13.4315 60 30 60Z" fill="#565440"/>
<path d="M29.4953 34.4253L21.2214 42.9903L17.9475 39.6012L26.2214 31.0362L24.4859 29.2396V25.7243L23.2852 24.4813V27.5694L22.2533 28.6376L18.0319 24.3065L17 25.3747C17 24.559 17.1689 22.2089 19.0732 20.2765C21.1463 18.2178 23.379 19.1597 24.167 19.9366L28.3884 24.2677L27.3096 25.3844L29.5047 27.6568L31.6904 25.3844L30.6116 24.2677L34.833 19.8977C35.621 19.1306 37.8537 18.1886 39.9268 20.2376C41.8311 22.2089 42 24.5201 42 25.3359L40.9681 24.2677L36.7467 28.6376L35.7148 27.5694V24.4813L34.5047 25.734V29.2493L32.7692 31.0459L41.0432 39.6109L37.7692 43L29.4953 34.4253Z" fill="#E9E4DC"/>
</svg>
