<svg width="60" height="60" viewBox="0 0 60 60" fill="none" xmlns="http://www.w3.org/2000/svg">
<path d="M30 60C46.5685 60 60 46.5685 60 30C60 13.4315 46.5685 0 30 0C13.4315 0 0 13.4315 0 30C0 46.5685 13.4315 60 30 60Z" fill="#565440"/>
<path d="M32.3359 15.3052V22.7844H29.43C25.7591 22.7844 22.8014 25.7355 22.8014 29.3992C22.8014 33.0615 25.7591 36.0126 29.4286 36.0126H32.3359V43.4918C38.9632 42.22 43.9105 36.42 43.9105 29.3978C43.9105 22.4281 38.9645 16.6281 32.3359 15.3052Z" fill="#E9E4DC"/>
<path d="M29.43 38.3519C24.4841 38.3519 20.4545 34.3333 20.4545 29.3992C20.4545 24.465 24.4827 20.4451 29.4273 20.4451H29.9891V15H29.4286C21.4759 15 15 21.4615 15 29.3978C15 37.3866 21.4759 43.8481 29.43 43.8481H29.9905V38.3547H29.43V38.3519Z" fill="#E9E4DC"/>
</svg>
