<svg width="60" height="60" viewBox="0 0 60 60" fill="none" xmlns="http://www.w3.org/2000/svg">
<path d="M30 60C46.5685 60 60 46.5685 60 30C60 13.4315 46.5685 0 30 0C13.4315 0 0 13.4315 0 30C0 46.5685 13.4315 60 30 60Z" fill="#565440"/>
<path d="M25.4681 38H21L26.1631 43.2C27.156 44.2 29.0426 45 30.4326 45H35L29.7376 39.7C28.7447 38.8 26.8582 38 25.4681 38Z" fill="#E9E4DC"/>
<path d="M28 38V30.4497C28 29.0403 27.2 27.1275 26.2 26.2215L23 23V25.5168V30.4497C23 31.8591 23.8 33.7718 24.8 34.6779L28 38Z" fill="#E9E4DC"/>
<path d="M35 18.4681V14L29.8 19.1631C28.8 20.156 28 22.0426 28 23.4326V28L33.3 22.7376C34.2 21.7447 35 19.8582 35 18.4681Z" fill="#E9E4DC"/>
</svg>
