<svg width="60" height="60" viewBox="0 0 60 60" fill="none" xmlns="http://www.w3.org/2000/svg">
<path d="M30 60C46.5685 60 60 46.5685 60 30C60 13.4315 46.5685 0 30 0C13.4315 0 0 13.4315 0 30C0 46.5685 13.4315 60 30 60Z" fill="#565440"/>
<path d="M33.093 24.0242L25.4186 32L21.6047 28L25.4419 24H17.8372H17.7674L14 28L25.5116 40L35.3256 29.6727H41.2093L46.6279 24.0242H33.093Z" fill="#E9E4DC"/>
<path d="M27.093 39.8303L28.1861 38.6909L35.7674 30.7879H46.6512L41.2093 36.4364H38L34.7907 39.8303H27.093Z" fill="#E9E4DC"/>
</svg>
