<svg width="60" height="60" viewBox="0 0 60 60" fill="none" xmlns="http://www.w3.org/2000/svg">
<path d="M30 60C46.5685 60 60 46.5685 60 30C60 13.4315 46.5685 0 30 0C13.4315 0 0 13.4315 0 30C0 46.5685 13.4315 60 30 60Z" fill="#565440"/>
<path fill-rule="evenodd" clip-rule="evenodd" d="M30.4132 25C30.6612 25 30.9091 25 31.157 25.0826L31.0744 18.3058H31.9008C31.9008 18.3058 31.8182 20.2066 32.1488 25.2479C36.6116 26.2397 40 30.124 40 34.9174C40 38.4711 38.0992 41.5289 35.3719 43.2645C35.2893 43.1818 35.2066 43.0165 35.124 42.9339C32.1488 39.1322 31.405 33.5124 31.2397 28.6364C31.6529 28.719 32.0661 28.8017 32.4793 28.8017C33.3058 34.1736 35.7851 37.7273 37.8512 39.9587C38.7603 38.719 39.3388 37.3141 39.3388 35.7438C39.3388 33.9256 38.595 32.3554 37.438 31.0331C36.281 29.7107 34.6281 28.719 32.6446 28.2231C31.8182 28.0579 30.9091 27.8926 30 27.8926C29.0909 27.8926 28.2645 27.9752 27.3554 28.2231C23.4711 29.2149 20.6612 32.1901 20.6612 35.7438C20.6612 37.3141 21.2397 38.719 22.1488 39.9587C24.1322 37.8099 26.6116 34.2562 27.438 28.8843C27.8512 28.8017 28.2645 28.8017 28.7603 28.719C28.5124 33.595 27.8512 39.2149 24.876 43.0165V42.9339C24.7934 43.0992 24.6281 43.2645 24.5455 43.3471C21.7355 41.5289 20 38.4711 20 34.9174C20 30.124 23.3058 26.2397 27.8512 25.2479C28.0992 20.2066 28.0992 18.3058 28.0992 18.3058H28.9256L28.843 25.0826C29.0909 25 29.3388 25 29.5041 25V15H30.4132V25ZM30.4959 28.6364C30.5785 33.3471 30.9091 39.2149 32.4793 43.1818C32.6446 43.595 32.8926 44.0909 33.1405 44.5041C32.1488 44.7521 31.0744 45 30.0826 45C29.0083 45 27.9339 44.8347 27.0248 44.5041C27.2727 44.0083 27.5207 43.5124 27.686 43.0165C29.1736 39.0496 29.5868 33.2645 29.5868 28.5537C29.6694 28.5537 29.9174 28.5537 30.0826 28.5537C30.1653 28.6364 30.3306 28.6364 30.4959 28.6364Z" fill="#E9E4DC"/>
</svg>
