<svg viewBox="0 0 60 60" fill="none" xmlns="http://www.w3.org/2000/svg">
<path d="M30 60C46.5685 60 60 46.5685 60 30C60 13.4315 46.5685 0 30 0C13.4315 0 0 13.4315 0 30C0 46.5685 13.4315 60 30 60Z" fill="#565440"/>
<path fill-rule="evenodd" clip-rule="evenodd" d="M30.0009 16.8C31.7829 16.8 32.343 18.0773 32.8111 19.3545C33.0099 19.8957 37.6385 32.5781 37.7763 32.9582C37.8152 33.0646 37.7898 33.2385 37.626 33.3015C37.4621 33.3628 35.057 34.3001 34.9242 34.3496C34.7913 34.399 34.6416 34.3259 34.5926 34.1936C34.5432 34.0613 33.5462 31.2968 33.4338 30.9876H26.5761C26.4631 31.2968 25.4558 34.0672 25.4095 34.1936C25.3638 34.3199 25.2188 34.4048 25.0784 34.3496C24.9374 34.2942 22.5213 33.3568 22.3787 33.3015C22.2407 33.2482 22.1769 33.0903 22.2265 32.9582C22.3961 32.483 26.9543 20.0049 27.1877 19.3545C27.639 18.0977 28.2194 16.8 30.0009 16.8ZM21.8598 39.4905C21.7161 39.4905 21.6001 39.6109 21.6001 39.7588V42.7213C21.6001 42.8693 21.7163 42.9877 21.8598 42.9877H38.1425C38.2851 42.9877 38.4001 42.8693 38.4001 42.7213V39.7588C38.4001 39.6107 38.2851 39.4905 38.1425 39.4905H21.8598ZM29.9875 20.941L27.6681 27.9076H32.3432L30.0161 20.941H29.9877H29.9875Z" fill="#E9E4DC"/>
</svg>
