<svg viewBox="0 0 60 60" fill="none" xmlns="http://www.w3.org/2000/svg">
<path d="M30 60C46.5685 60 60 46.5685 60 30C60 13.4315 46.5685 0 30 0C13.4315 0 0 13.4315 0 30C0 46.5685 13.4315 60 30 60Z" fill="#565440"/>
<path fill-rule="evenodd" clip-rule="evenodd" d="M30.0001 15.6C33.4604 15.6 36.6356 16.8197 39.1182 18.8544L36.6385 20.8373C34.7737 19.4837 32.4798 18.6859 29.9987 18.6859C23.7491 18.6859 18.6846 23.7518 18.6846 30C18.6846 36.2496 23.7505 41.3141 29.9987 41.3141C36.2483 41.3141 41.3127 36.2481 41.3127 30C41.3127 29.856 41.3099 29.712 41.3055 29.568L44.1812 27.4915C44.3252 28.3065 44.3987 29.1446 44.3987 30C44.3987 37.9531 37.9518 44.4 29.9987 44.4C22.0455 44.4 15.6001 37.9531 15.6001 30C15.6001 22.0469 22.047 15.6 30.0001 15.6Z" fill="#E9E4DC"/>
<path fill-rule="evenodd" clip-rule="evenodd" d="M24.5825 26.4907L29.9998 30L41.6897 21.432L43.4264 24.253L29.9998 34.0651L24.5825 30.684V26.4907Z" fill="#E9E4DC"/>
</svg>
