<svg width="60" height="60" viewBox="0 0 60 60" fill="none" xmlns="http://www.w3.org/2000/svg">
<path d="M30 60C46.5685 60 60 46.5685 60 30C60 13.4315 46.5685 0 30 0C13.4315 0 0 13.4315 0 30C0 46.5685 13.4315 60 30 60Z" fill="#565440"/>
<path fill-rule="evenodd" clip-rule="evenodd" d="M30.6425 15C38.5956 15.2935 44.9496 21.8511 44.9998 29.8888C45.0177 33.8678 43.4611 37.6919 40.6706 40.524C37.8802 43.356 34.0832 44.9654 30.1109 44.9997C26.1356 45.0243 22.3127 43.4691 19.4802 40.6751C16.6477 37.8811 15.0366 34.0761 15.0002 30.0942C14.9825 26.2216 16.4563 22.4914 19.115 19.6799C21.7737 16.8683 25.4124 15.1921 29.2738 15L29.2905 19.2641C26.5504 19.4455 23.9825 20.667 22.1104 22.6793C20.2383 24.6917 19.2029 27.3435 19.2153 30.0942C19.2273 31.6983 19.5974 33.2794 20.2985 34.7216C20.9996 36.1639 22.0139 37.4308 23.2671 38.4295L27.3357 27.6959L24.5103 27.7169C24.5103 27.7169 23.9536 27.6037 23.6355 27.8678L22.9658 28.5135C22.9658 28.5135 22.9113 26.7441 22.9909 26.5596C23.0704 26.3332 23.2964 24.5597 24.0834 23.654C24.8787 22.7819 26.147 22.6603 26.147 22.6603L35.1883 22.5974L33.8823 23.9601L37.0217 38.1654C38.2017 37.1487 39.1469 35.8871 39.7916 34.4681C40.4363 33.049 40.7652 31.5065 40.7555 29.9474C40.7303 27.2089 39.6677 24.5822 37.7824 22.5988C35.8971 20.6154 33.3301 19.4235 30.6007 19.2641L30.6425 15ZM27.1892 23.8511C27.4613 23.8511 27.6915 24.0607 27.6915 24.3207C27.6915 24.5764 27.4697 24.7903 27.1976 24.7903C26.9213 24.7945 26.6953 24.5848 26.6953 24.329C26.6953 24.0649 26.913 23.8553 27.1892 23.8511Z" fill="#E9E4DC"/>
</svg>
