<svg width="60" height="60" viewBox="0 0 60 60" fill="none" xmlns="http://www.w3.org/2000/svg">
<path d="M30 60C46.5685 60 60 46.5685 60 30C60 13.4315 46.5685 0 30 0C13.4315 0 0 13.4315 0 30C0 46.5685 13.4315 60 30 60Z" fill="#565440"/>
<path d="M25.5625 30.3296L28.8125 27.0556V24.8519L25.5625 28.1259V30.3296Z" fill="#E9E4DC"/>
<path d="M25.5625 22.0815L28.8125 18.8074V16.6667L25.5625 19.9407V22.0815Z" fill="#E9E4DC"/>
<path d="M25.5625 24.7889L28.8125 21.5148V19.437L25.5625 22.7111V24.7889Z" fill="#E9E4DC"/>
<path d="M24.5625 16.7296L24.125 16.2889V11.1259H23.625V15.7852L23.25 15.3444V11.1259H22.75V14.9037L22.3125 14.463V11.1259H21.8125V16.037L25.0625 19.3111V11.1259H24.5625V16.7296Z" fill="#E9E4DC"/>
<path d="M25.5625 27.5593L28.8125 24.2852V22.1444L25.5625 25.4185V27.5593Z" fill="#E9E4DC"/>
<path d="M21.8125 27.0556L25.0625 30.3296V28.1259L21.8125 24.8519V27.0556Z" fill="#E9E4DC"/>
<path d="M28.375 14.463L27.9375 14.9037V11.1259H27.4375V15.3444L27 15.7852V11.1259H26.5V16.2889L26.0625 16.7296V11.1259H25.5625V19.3111L28.8125 16.037V11.1259H28.375V14.463Z" fill="#E9E4DC"/>
<path d="M21.8125 18.8074L25.0625 22.0815V19.9407L21.8125 16.6667V18.8074Z" fill="#E9E4DC"/>
<path d="M21.8125 21.5148L25.0625 24.7889V22.7111L21.8125 19.437V21.5148Z" fill="#E9E4DC"/>
<path d="M21.8125 24.2852L25.0625 27.5593V25.4185L21.8125 22.1444V24.2852Z" fill="#E9E4DC"/>
<path d="M32.875 28C32.875 28.5037 32.5 28.8815 32 28.8815C31.5 28.8815 31.125 28.5037 31.125 28C31.125 27.8111 31.1875 27.6222 31.25 27.4963L31.5 27.0555C31.375 26.9296 31.25 26.7407 31.25 26.4889C31.25 26.237 31.375 26.0481 31.5 25.9222L31.25 25.4815C31.1875 25.3555 31.125 25.1667 31.125 24.9778C31.125 24.4741 31.5 24.0963 32 24.0963C32.5 24.0963 32.875 24.4741 32.875 24.9778C32.875 25.3555 32.4375 26.237 32.4375 26.237V26.7407C32.4375 26.8037 32.875 27.6852 32.875 28ZM41.4375 25.9852H33.75H33.375C33.5625 25.7333 33.625 25.4185 33.625 25.0407C33.625 24.0963 32.875 23.2778 31.875 23.2778C30.9375 23.2778 30.125 24.0333 30.125 25.0407C30.125 25.4185 30.25 25.7963 30.4375 26.0481C30.3125 26.1741 30.1875 26.3 30.1875 26.4889C30.1875 26.6778 30.3125 26.8667 30.4375 26.9296C30.25 27.2444 30.125 27.5593 30.125 27.937C30.125 28.8815 30.875 29.7 31.875 29.7C32.8125 29.7 33.625 28.9444 33.625 27.937C33.625 27.6222 33.5 27.3074 33.375 26.9926H34.8125H39.3125V27.3704H38.75V28H39.3125V28.5037H38.75V29.5111H39.3125V29.0704H40.1875V29.5111H40.75V28.5037H40.1875V28H40.75V27.4963H40.1875V27.1185H41.375C41.625 27.1185 41.8125 26.9296 41.8125 26.6778V26.4259C41.875 26.1741 41.6875 25.9852 41.4375 25.9852Z" fill="#E9E4DC"/>
<path d="M18.8125 24.9148V27.0556C18.8125 29.1333 19.6875 30.4555 20.25 30.9593C20.5625 31.2741 23.625 34.2963 23.6875 34.3593C24.625 35.3037 24.8125 35.6185 25 36.1222V33.7296C25 31.5889 23.9375 30.7704 23.375 30.2037C22.0625 28.9444 21.1875 28.1259 20.5 27.3704C19.125 26.1111 18.8125 24.9148 18.8125 24.9148Z" fill="#E9E4DC"/>
<path d="M23.3125 35.6815C22 34.4222 21.125 33.5407 20.4375 32.8481C19.125 31.5259 18.75 30.5815 18.75 30.5815V32.4704C18.75 34.5481 19.6875 35.8704 20.1875 36.437C20.5 36.7518 23.5625 39.7741 23.625 39.837C24.5625 40.7815 24.75 41.2222 24.9375 41.7889V39.2704C24.9375 37.0037 23.875 36.1852 23.3125 35.6815Z" fill="#E9E4DC"/>
<path d="M30.125 15.1555C29.875 15.1555 29.625 15.1555 29.4375 15.1555V16.163C29.6875 16.163 29.9375 16.163 30.125 16.163C37.75 16.163 43.9375 22.3963 43.9375 30.0778C43.9375 37.7593 37.75 43.9926 30.125 43.9926C22.5 43.9926 16.3125 37.7593 16.3125 30.0778C16.3125 25.7963 18.25 22.0185 21.25 19.437V18.1148C17.6875 20.8222 15.3125 25.1667 15.3125 30.0778C15.3125 38.3259 21.9375 45 30.125 45C38.3125 45 44.9375 38.3259 44.9375 30.0778C44.9375 21.8296 38.3125 15.1555 30.125 15.1555Z" fill="#E9E4DC"/>
<path d="M40.625 37.8852C40.875 37.5704 41.0625 37.2556 41.25 36.8778V34.863H40.625V37.8852Z" fill="#E9E4DC"/>
<path d="M42.5 34.1704C42.5625 33.8555 42.6875 33.6037 42.75 33.2889H40.625V33.7926H40.9375C41.5 33.7926 42.1875 33.7926 42.5 34.1704Z" fill="#E9E4DC"/>
<path d="M38.4375 36.2481L37.8125 35.6185L38.4375 32.3444V36.2481ZM26.25 32.0926H28.1875C28.6875 32.0926 29.0625 32.2185 29.25 32.4074C29.4375 32.5963 29.5625 32.9741 29.5625 33.4778V39.0185C29.5625 39.5222 29.5 39.9 29.25 40.0889C28.9375 40.4037 28.375 40.4037 27.9375 40.4037C27.8125 40.4037 27.75 40.4037 27.625 40.4037V43.0481C27.8125 43.1111 28 43.1111 28.1875 43.1741V41.0333C29.0625 41.0333 29.6875 40.7185 29.9375 40.0889V43.3C30 43.3 30.0625 43.3 30.125 43.3C30.25 43.3 30.375 43.3 30.5 43.3V33.6037C30.5 33.1 30.625 32.7222 30.8125 32.5333C31 32.3444 31.375 32.2185 31.875 32.2185C32.375 32.2185 33.125 32.1555 33.5 32.5333C33.6875 32.7222 33.8125 33.1 33.8125 33.6037V36.437H32.5V33.4148H31.9375V43.1111C32.125 43.1111 32.3125 43.0481 32.5 43.0481V37.0037H33.8125V42.7333C34.0625 42.6704 34.375 42.5444 34.625 42.4815V37.1926C34.625 36.6259 34.75 36.1222 35.375 35.9333L34.6875 32.2815H36L36.25 36.3111H36.4375L36.6875 32.2815H38.125L37.375 35.9333C38 36.1852 38.125 36.563 38.125 37.1926V40.5926C38.5 40.2778 38.875 39.963 39.25 39.6481V32.2185H43.1875C43.1875 32.0296 43.25 31.8407 43.25 31.7148H34.0625L34.1875 32.4074C33.875 31.9037 33.375 31.5889 32.5625 31.5889H32C31 31.5889 30.4375 31.9667 30.1875 32.7852C30 31.9667 29.375 31.5889 28.375 31.5889H25.875V42.5444C26.0625 42.6074 26.25 42.6704 26.4375 42.7333V32.0926H26.25Z" fill="#E9E4DC"/>
<path d="M28.1875 33.2259H27.625V39.2074H28.1875V33.2259Z" fill="#E9E4DC"/>
<path d="M35.9375 41.8519C36.125 41.7259 36.3125 41.663 36.5625 41.537V37.0037H35.9375V41.8519Z" fill="#E9E4DC"/>
</svg>
