<svg width="60" height="60" viewBox="0 0 60 60" fill="none" xmlns="http://www.w3.org/2000/svg">
<path d="M30 60C46.5685 60 60 46.5685 60 30C60 13.4315 46.5685 0 30 0C13.4315 0 0 13.4315 0 30C0 46.5685 13.4315 60 30 60Z" fill="#565440"/>
<path d="M34.2 16L32.6 20.8C36.6 22.1 39.3 25.8 39.3 30.1C39.3 34.4 36.6 38.2 32.5 39.5L34 44.3C40.2 42.4 44.4 36.7 44.4 30.1C44.4 23.7 40.3 18 34.2 16Z" fill="#E9E4DC"/>
<path d="M26.7 20.7L25.1 16C19 18.1 15 23.7 15 30.1C15 36.5 19 42.2 25 44.2L26.6 39.5C22.6 38.2 19.9 34.4 20.1 30C20.1 25.8 22.7 22 26.7 20.7Z" fill="#E9E4DC"/>
</svg>
